<svg xmlns="http://www.w3.org/2000/svg" width="62.237" height="6.683" viewBox="0 0 62.237 6.683">
  <g id="Group_2127" data-name="Group 2127" transform="translate(-88.751 -784.002)">
    <path id="Path_1289" data-name="Path 1289" d="M2821.94,1991.05a2.977,2.977,0,1,0,3.061,2.976,3.019,3.019,0,0,0-3.062-2.976Z" transform="translate(-2715.394 -1206.32)" fill="#5ba160"/>
    <path id="Path_1290" data-name="Path 1290" d="M2794.78,1991.26a3.149,3.149,0,0,0-2.242,0,2.979,2.979,0,0,0-1.94,2.77,3.062,3.062,0,0,0,6.121,0,2.978,2.978,0,0,0-1.939-2.77Z" transform="translate(-2694.569 -1206.32)" fill="#5ba160"/>
    <path id="Path_1291" data-name="Path 1291" d="M2762.98,1988.28v.937h.871v3.312h1.251v-.4l1.414-2.577,2.872.024v4.546h.313v-2.828h.19a3.377,3.377,0,0,1,1.409-2.077,3.515,3.515,0,0,1,.743-.392,3.6,3.6,0,0,1,2.559,0,3.519,3.519,0,0,1,.687.354h0l.052.032.008.005a3.081,3.081,0,0,1,.864.89h0a3.314,3.314,0,0,1,.513,1.187h.644a3.378,3.378,0,0,1,1.409-2.077,3.561,3.561,0,0,1,3.993,0,3.475,3.475,0,0,1,.9.9,3.322,3.322,0,0,1,.507,1.177h.7v-1.638h26.692v5.157h-.406v.15h1.7v-.15h-.373v-4.338l1.654-1.654h11.071v-.541Z" transform="translate(-2674.229 -1204.277)" fill="#5ba160"/>
  </g>
</svg>
