<svg xmlns="http://www.w3.org/2000/svg" width="62.039" height="23.01" viewBox="0 0 62.039 23.01">
  <g id="Group_2033" data-name="Group 2033" transform="translate(-0.003 0.003)">
    <path id="Path_1257" data-name="Path 1257" d="M2836.87,1294.75Z" transform="translate(-2817.339 -1278.599)" fill="#eec860"/>
    <path id="Path_1258" data-name="Path 1258" d="M2807.81,1299.09a2.879,2.879,0,1,0,3.048,2.874,2.965,2.965,0,0,0-3.048-2.874Z" transform="translate(-2793.793 -1281.836)" fill="#eec860"/>
    <path id="Path_1259" data-name="Path 1259" d="M2768.6,1299.09a2.879,2.879,0,1,0,3.048,2.874,2.965,2.965,0,0,0-3.048-2.874Z" transform="translate(-2764.878 -1281.836)" fill="#eec860"/>
    <path id="Path_1260" data-name="Path 1260" d="M2825.02,1232.99v12.91a2.145,2.145,0,0,1-1.82,2.094l-5.513.917-4.315.718h-.007l-.892.069h-.776a.072.072,0,0,0-.055.121l.7.76a.075.075,0,0,0,.131-.048v-.766a.073.073,0,0,1,.069-.072l.766-.058a.074.074,0,0,1,.081.073v4.412a.074.074,0,0,0,.075.072h.222a.074.074,0,0,1,.074.073h0a.072.072,0,0,1-.074.072h-1.541a.074.074,0,0,1-.075-.072h0a.074.074,0,0,1,.075-.073h.254a.074.074,0,0,0,.075-.072v-2.849a.071.071,0,0,0-.019-.048l-1.378-1.5a.075.075,0,0,0-.056-.024h-30.839a.075.075,0,0,1-.063-.035,3.473,3.473,0,0,0-.641-.753,3.789,3.789,0,0,0-4.96,0,3.473,3.473,0,0,0-.642.753.075.075,0,0,1-.063.035h-.143a.073.073,0,0,0-.075.073v3.273a.074.074,0,0,1-.075.072h-.062a.074.074,0,0,1-.075-.072v-3.273a.074.074,0,0,0-.075-.073h-3.417a.075.075,0,0,1-.063-.035,3.459,3.459,0,0,0-.641-.753,3.79,3.79,0,0,0-4.961,0,3.47,3.47,0,0,0-.642.753.075.075,0,0,1-.063.035h-.252a.072.072,0,0,0-.052.021.074.074,0,0,0-.022.052v3.273a.074.074,0,0,1-.075.072h-.062a.073.073,0,0,1-.075-.072v-20.132a1.6,1.6,0,0,1,1.623-1.575h58.725A1.673,1.673,0,0,1,2825.02,1232.99Z" transform="translate(-2762.978 -1231.341)" fill="#eec860"/>
    <path id="Path_1261" data-name="Path 1261" d="M-.007,0,0,12.709" transform="translate(1.733 1.999)" fill="none" stroke="#fff" stroke-linecap="round" stroke-width="1"/>
    <path id="Path_1262" data-name="Path 1262" d="M0,0V12.309" transform="translate(60.423 1.999)" fill="none" stroke="#fff" stroke-linecap="round" stroke-width="1"/>
    <path id="Path_1263" data-name="Path 1263" d="M0,0H58.7" transform="translate(1.726 1.999)" fill="none" stroke="#fff" stroke-linecap="round" stroke-width="1"/>
    <path id="Path_1264" data-name="Path 1264" d="M.064-1.814,3.11-.971l46.026.218" transform="translate(1.696 16.568)" fill="none" stroke="#fff" stroke-linecap="round" stroke-width="1"/>
    <path id="Path_1265" data-name="Path 1265" d="M9.591,0,0,1.488" transform="translate(50.832 14.326)" fill="none" stroke="#fff" stroke-linecap="round" stroke-width="1"/>
  </g>
</svg>
