<svg xmlns="http://www.w3.org/2000/svg" width="56" height="21" viewBox="0 0 56 21"><defs><style>.a-dump,.b{fill:#44bec2;}.a-dump{opacity:0.2;}</style></defs><g transform="translate(22774 24228)"><path class="a-dump" d="M0,0H5.387V11.958H0Z" transform="translate(-22761.689 -24226.469)"/><path class="a-dump" d="M2879.91,1581.4v1.684h5.389v-4.1Z" transform="translate(-25623.936 -25797.594)"/><path class="a-dump" d="M2948.82,1551.488v9.635h4.6v-11.7Z" transform="translate(-25675.193 -25775.637)"/><path class="a-dump" d="M2925.85,1560.78v6.984h5.388v-9.4Z" transform="translate(-25658.102 -25782.271)"/><path class="a-dump" d="M2902.881,1571.089v4.333h5.388v-6.752Z" transform="translate(-25641.02 -25789.932)"/><path class="a-dump" d="M2952.142,1548.41h-3.322v1.491Z" transform="translate(-25675.193 -25774.883)"/><path class="a-dump" d="M2931.23,1550.134v-1.723h-5.387v4.143Z" transform="translate(-25658.102 -25774.883)"/><path class="a-dump" d="M0,0H5.387V11.958H0Z" transform="translate(-22767.559 -24226.469)"/><path class="a-dump" d="M2968.79,1548.438v11.939h2.708v-11.958h-2.665Z" transform="translate(-25690.033 -25774.883)"/><path class="a-dump" d="M2862.32,1548.41h-5.388v11.958h.3l5.087-2.284Z" transform="translate(-25606.852 -25774.883)"/><path class="a-dump" d="M2865.32,1590.744h3.232v-1.452Z" transform="translate(-25613.086 -25805.254)"/><path class="a-dump" d="M0,0H5.387V11.958H0Z" transform="translate(-22755.803 -24226.469)"/><path class="a-dump" d="M2767.368,1548.41l-.361,2.482-1.239,9.478h5.206v-11.958Z" transform="translate(-25539.043 -25774.883)"/><path class="a-dump" d="M2885.29,1555.443v-7.024H2879.9v9.443Z" transform="translate(-25623.936 -25774.883)"/><path class="a-dump" d="M2908.259,1552.789v-4.374h-5.388v6.793Z" transform="translate(-25641.018 -25774.883)"/><path class="b" d="M2806.7,1600.73a2.9,2.9,0,1,0,2.984,2.9A2.943,2.943,0,0,0,2806.7,1600.73Z" transform="translate(-25567.271 -25813.541)"/><path class="b" d="M2779.49,1600.928a3.075,3.075,0,0,0-2.185,0,2.9,2.9,0,0,0-1.9,2.7,2.985,2.985,0,0,0,5.969,0A2.9,2.9,0,0,0,2779.49,1600.928Z" transform="translate(-25546.211 -25813.541)"/><path class="b" d="M2927.441,1598.27h-.9v6.288h-.395v.146h1.655v-.146h-.361Z" transform="translate(-25658.318 -25811.715)"/><path class="b" d="M2818.919,1543.453a1.379,1.379,0,0,0-1.322-1h-.173a.515.515,0,0,0-.305.1l-1.989.9h-32.518c-.221,0-.37,0-.426.006h-17.412l-.964,7.188-.787,5.441h-.047v.783h0v.921h.853v3.263h1.217v-.393l.27-.493v2.456h.3v-2.787h.185a3.328,3.328,0,0,1,1.371-2.046,3.418,3.418,0,0,1,.72-.386,3.458,3.458,0,0,1,2.489,0,3.4,3.4,0,0,1,.668.348h0l.051.031.008.005a3.012,3.012,0,0,1,.84.877h0a3.277,3.277,0,0,1,.5,1.168h.63a3.33,3.33,0,0,1,1.37-2.046,3.426,3.426,0,0,1,3.884,0,3.362,3.362,0,0,1,.878.887,3.28,3.28,0,0,1,.493,1.159h.645v-1.6h8.374v-1.285h30.252v-13.1h0a1.41,1.41,0,0,0-.056-.392Zm-50.039,12.63h-5.192l1.236-9.578.36-2.508h3.594ZM2810.617,1544h3.313l-3.313,1.508Zm-35.848,12.084H2769.4V1544h5.374Zm5.89,0h-5.375V1544h5.375Zm5.888,0h-5.374V1544h5.374Zm5.888,0h-3.224l3.224-1.467Zm0-2.308-5.073,2.308h-.3V1544h5.374Zm5.889,2.308h-5.373v-1.7l5.373-2.444Zm0-4.986-5.373,2.444V1544h5.373Zm5.889,4.986h-5.373v-4.379l5.373-2.444Zm0-7.662-5.373,2.444V1544h5.373Zm5.888,7.662h-5.373v-7.058l5.373-2.444Zm0-10.342-5.373,2.444V1544h5.373Zm5.1,10.342h-4.585v-9.739l4.585-2.085Zm3.236,0h-2.7v-12.064l.042-.019h2.658Z" transform="translate(-25536.975 -25770.449)"/></g></svg>