<svg xmlns="http://www.w3.org/2000/svg" width="61.31" height="7.405" viewBox="0 0 61.31 7.405">
  <g id="Group_2128" data-name="Group 2128" transform="translate(-0.002 -0.005)">
    <path id="Path_1292" data-name="Path 1292" d="M2816.319,2087.84a2.985,2.985,0,1,0,3.069,2.984,3.028,3.028,0,0,0-3.069-2.985Z" transform="translate(-2799.965 -2086.488)" fill="#af88ea"/>
    <path id="Path_1293" data-name="Path 1293" d="M2770.657,2088.051a3.16,3.16,0,0,0-2.248,0,2.987,2.987,0,0,0-1.944,2.777,3.07,3.07,0,1,0,6.139,0,2.986,2.986,0,0,0-1.947-2.777Z" transform="translate(-2765.542 -2086.488)" fill="#af88ea"/>
    <path id="Path_1294" data-name="Path 1294" d="M2808.905,2082.72h-45.924v1.356h0v5.125h.359v-2.836h.19a3.315,3.315,0,0,1,.324-.879,3.538,3.538,0,0,1,2.269-1.732,3.509,3.509,0,0,1,2.533.322h0a3.168,3.168,0,0,1,.282.168h0a.288.288,0,0,1,.052.031l.008.005a3.073,3.073,0,0,1,.867.893h0a3.318,3.318,0,0,1,.514,1.189h0v1.742h5.553v-1.742c.017-.08.038-.159.06-.237a3.358,3.358,0,0,1,.906-1.477h0a3.5,3.5,0,0,1,1.583-.868,3.61,3.61,0,0,1,.854-.1,3.54,3.54,0,0,1,1.631.395h0a3.433,3.433,0,0,1,1.77,2.289H2808.9l1.61-.477v4.006h-.4v.15h1.7v-.15h-.374v-4.278l.748-.221h12.1v-2.672Z" transform="translate(-2762.979 -2082.715)" fill="#af88ea"/>
  </g>
</svg>
