<svg xmlns="http://www.w3.org/2000/svg" width="61.311" height="8.199" viewBox="0 0 61.311 8.199">
  <g id="Group_2132" data-name="Group 2132" transform="translate(-105.939 -5.974)">
    <g id="Group_2191" data-name="Group 2191" transform="translate(105.939 5.974)">
      <path id="Path_1295" data-name="Path 1295" d="M2824.283,869.424a.779.779,0,0,0-.72-.772c-1.28-.116-3.81-.3-4.113-.313-1.6-.118-3.2-.2-4.806-.215a13.968,13.968,0,0,0-4.628.477q-.2.067-.394.146a3.707,3.707,0,0,0-1.516,1.053,4.972,4.972,0,0,0-.689,1.891c-.033.121-.173.849-.348.849h-19.295s-4.055-3.178-4.082-3.2h-20.121a.584.584,0,0,0-.591.575v3.63a.18.18,0,0,0,.167.18.175.175,0,0,0,.186-.171q0-.318,0-.634a2.688,2.688,0,0,1,.934-1.832l.1-.093c.033-.031.069-.059.1-.088a3.177,3.177,0,0,1,.276-.2,3.548,3.548,0,0,1,.549-.3c.065-.029.13-.055.2-.08.049-.019.1-.035.151-.052a3.663,3.663,0,0,1,.849-.165h.619c.055,0,.11.011.164.019a3.648,3.648,0,0,1,.783.2,3.579,3.579,0,0,1,.525.245c.055.031.11.065.164.1h0l.041.024.01.006h.006a3.039,3.039,0,0,1,.867.866,3.178,3.178,0,0,1,.514,1.154h0v.548a.325.325,0,0,0,.313.326.319.319,0,0,0,.333-.313v-.56a3.284,3.284,0,0,1,1.413-2.02l.088-.056.067-.04h.007a3.575,3.575,0,0,1,.585-.28,3.662,3.662,0,0,1,1.01-.218h.547a3.669,3.669,0,0,1,1.009.218,3.588,3.588,0,0,1,.689.345h0l.053.031.008,0a3.044,3.044,0,0,1,.866.866,3.172,3.172,0,0,1,.514,1.154v.548a.327.327,0,0,0,.313.327.319.319,0,0,0,.333-.313v-.56c.009-.039.019-.078.029-.117a3.293,3.293,0,0,1,1.385-1.9,3.664,3.664,0,0,1,4,0,3.087,3.087,0,0,1,1.42,2.256c.047.524,0,1.055,0,1.576v.579h26.351a.452.452,0,0,0,.455-.362.429.429,0,0,0-.258-.464l-.558-.242a4.048,4.048,0,0,0,1.436-2.388,5.993,5.993,0,0,0,.131-1.539c1.751,0,11.584.058,11.564,0C2824.283,870.093,2824.283,869.757,2824.283,869.424Zm-13.4,4.5-1.225-.531.556-2.011a3.083,3.083,0,0,1,2.242-1.253,4.444,4.444,0,0,1-1.564,3.794Z" transform="translate(-2762.98 -868.095)" fill="#822c97"/>
      <path id="Path_1296" data-name="Path 1296" d="M2798.285,877.6a3.256,3.256,0,0,0-2.248,0,2.9,2.9,0,0,0-1.945,2.694,3.074,3.074,0,0,0,6.139,0,2.9,2.9,0,0,0-1.946-2.694Z" transform="translate(-2785.868 -874.996)" fill="#822c97"/>
      <path id="Path_1297" data-name="Path 1297" d="M2770.005,877.6a3.255,3.255,0,0,0-2.248,0,2.9,2.9,0,0,0-1.945,2.694,3.074,3.074,0,0,0,6.137,0,2.9,2.9,0,0,0-1.945-2.694Z" transform="translate(-2765.065 -874.996)" fill="#822c97"/>
      <path id="Path_1298" data-name="Path 1298" d="M2825.448,877.4a2.9,2.9,0,1,0,3.07,2.894A2.986,2.986,0,0,0,2825.448,877.4Z" transform="translate(-2806.676 -874.996)" fill="#822c97"/>
    </g>
  </g>
</svg>
