<svg xmlns="http://www.w3.org/2000/svg" width="64.151" height="24.023" viewBox="0 0 64.151 24.023">
  <g id="Group_1934" data-name="Group 1934" transform="translate(0.005 0)">
    <g id="Group_2185" data-name="Group 2185" transform="translate(60.081 1.955)">
      <path id="Path_1244" data-name="Path 1244" d="M2982.65,563.354h-2.034v13.713h3.36a.705.705,0,0,0,.705-.705V565.385A2.031,2.031,0,0,0,2982.65,563.354Zm.636,13.1a.1.1,0,0,1-.1.1H2981.5a.1.1,0,0,1-.1-.1v-1.681a.1.1,0,0,1,.1-.1h1.681a.1.1,0,0,1,.1.1Zm.862-5.917a.209.209,0,0,1-.209.209h-3.087V563.89h1.586a1.714,1.714,0,0,1,1.714,1.714Z" transform="translate(-2980.616 -563.354)" fill="#e94949"/>
      <path id="Path_1245" data-name="Path 1245" d="M2983.03,565.29h-1.586v6.859h3.087a.209.209,0,0,0,.209-.209v-4.931a1.714,1.714,0,0,0-1.709-1.718Z" transform="translate(-2981.217 -564.749)" fill="#fff"/>
      <rect id="Rectangle_1322" data-name="Rectangle 1322" width="1.898" height="1.898" rx="0.388" transform="translate(0.767 11.312)" fill="#fff"/>
    </g>
    <path id="Path_1246" data-name="Path 1246" d="M2820.558,620.575a3.153,3.153,0,1,0,3.178,3.153A3.152,3.152,0,0,0,2820.558,620.575Z" transform="translate(-2802.386 -602.904)" fill="#e94949"/>
    <path id="Path_1247" data-name="Path 1247" d="M2793.5,620.793a3.215,3.215,0,0,0-2.328,0,3.177,3.177,0,1,0,2.328,0Z" transform="translate(-2781.847 -602.904)" fill="#e94949"/>
    <path id="Path_1248" data-name="Path 1248" d="M2820.936,556.356h-55.754a2.21,2.21,0,0,0-2.209,2.21V571.7a2.211,2.211,0,0,0,1.114,1.918v3.712a.449.449,0,0,0,.449.449h.93a.379.379,0,0,0,.379-.379v-.039l1.674-3.051h1.7v1.914a.27.27,0,0,0,.278.27.33.33,0,0,0,.305-.239,3.55,3.55,0,0,1,1.418-1.946,3.694,3.694,0,0,1,.761-.4,3.833,3.833,0,0,1,1.36-.253,3.74,3.74,0,0,1,1.34.246l.017.007a3.669,3.669,0,0,1,.7.364h0a.269.269,0,0,1,.055.033l.008.005a3.227,3.227,0,0,1,.905.932h0a3.473,3.473,0,0,1,.537,1.243h.674a3.543,3.543,0,0,1,1.475-2.176,3.683,3.683,0,0,1,.776-.4,3.742,3.742,0,0,1,2.627,0,3.693,3.693,0,0,1,.778.4,3.541,3.541,0,0,1,1.475,2.176h.695v-2.176h20.763l2.147,2.871h.762v2.993h-.425v.157h1.779v-.157h-.39v-2.993h.683l2.17-2.871c.019-.024.237,0,.265,0h6.592a2.818,2.818,0,0,0,1.7-.4,2.128,2.128,0,0,1,.445-.224l-.035.009a2.213,2.213,0,0,0,1.28-2V558.566A2.208,2.208,0,0,0,2820.936,556.356Z" transform="translate(-2762.978 -556.356)" fill="#e94949"/>
    <g id="Group_2186" data-name="Group 2186" transform="translate(0.765 2.536)">
      <rect id="Rectangle_1323" data-name="Rectangle 1323" width="0.476" height="58.832" transform="translate(0 0.476) rotate(-90)" fill="#fff"/>
      <rect id="Rectangle_1324" data-name="Rectangle 1324" width="0.476" height="58.832" transform="translate(0 2.137) rotate(-90)" fill="#fff"/>
      <rect id="Rectangle_1325" data-name="Rectangle 1325" width="0.476" height="58.832" transform="translate(0 5.612) rotate(-90)" fill="#fff"/>
      <rect id="Rectangle_1326" data-name="Rectangle 1326" width="0.476" height="58.832" transform="translate(0 7.273) rotate(-90)" fill="#fff"/>
      <rect id="Rectangle_1327" data-name="Rectangle 1327" width="0.476" height="58.832" transform="translate(0 10.889) rotate(-90)" fill="#fff"/>
      <rect id="Rectangle_1328" data-name="Rectangle 1328" width="0.476" height="58.832" transform="translate(0 12.55) rotate(-90)" fill="#fff"/>
    </g>
  </g>
</svg>
