<svg xmlns="http://www.w3.org/2000/svg" width="62.24" height="21.098" viewBox="0 0 62.24 21.098">
  <g id="Group_1937" data-name="Group 1937" transform="translate(-0.003 -0.001)">
    <g id="Group_2188" data-name="Group 2188" transform="translate(0.519 7.004)" opacity="0.2">
      <rect id="Rectangle_1336" data-name="Rectangle 1336" width="6.435" height="5.998" transform="translate(13.907)" fill="#48b857"/>
      <rect id="Rectangle_1337" data-name="Rectangle 1337" width="6.435" height="5.998" transform="translate(6.953)" fill="#48b857"/>
      <rect id="Rectangle_1338" data-name="Rectangle 1338" width="6.435" height="5.998" transform="translate(20.861)" fill="#48b857"/>
      <rect id="Rectangle_1339" data-name="Rectangle 1339" width="6.435" height="5.998" transform="translate(27.814)" fill="#48b857"/>
      <rect id="Rectangle_1340" data-name="Rectangle 1340" width="6.435" height="5.998" fill="#48b857"/>
      <rect id="Rectangle_1341" data-name="Rectangle 1341" width="5.572" height="5.998" transform="translate(55.629)" fill="#48b857"/>
      <rect id="Rectangle_1342" data-name="Rectangle 1342" width="6.435" height="5.998" transform="translate(41.721)" fill="#48b857"/>
      <rect id="Rectangle_1343" data-name="Rectangle 1343" width="6.435" height="5.998" transform="translate(34.768)" fill="#48b857"/>
      <rect id="Rectangle_1344" data-name="Rectangle 1344" width="6.435" height="5.998" transform="translate(48.675)" fill="#48b857"/>
    </g>
    <path id="Path_1253" data-name="Path 1253" d="M2807.855,1450.57a2.888,2.888,0,1,0,3.057,2.883,2.975,2.975,0,0,0-3.057-2.883Z" transform="translate(-2793.79 -1435.288)" fill="#48b857"/>
    <path id="Path_1254" data-name="Path 1254" d="M2768.645,1450.57a2.888,2.888,0,1,0,3.058,2.883A2.974,2.974,0,0,0,2768.645,1450.57Z" transform="translate(-2764.906 -1435.288)" fill="#48b857"/>
    <path id="Path_1255" data-name="Path 1255" d="M2820.064,1441.65h-57.083v1.431h0v1.677h0v3.766h.213v-3.43h.367a3.753,3.753,0,0,1,6.307,0h3.545v3.43h.213v-3.43h.26a3.753,3.753,0,0,1,6.307,0h30.992l1.424,1.551v2.958h-.406v.145h1.7v-.145h-.372v-4.577l11.688-1.945h0v-1.431h-5.152Zm-7.452,4.473-.943-1.027h.943Z" transform="translate(-2762.978 -1428.65)" fill="#48b857"/>
    <path id="Path_1256" data-name="Path 1256" d="M2825.22,1395.879c-1.3-3.657-6.35-5.128-6.35-5.128h0a21.637,21.637,0,0,1-6.955,0,21.636,21.636,0,0,1-6.953,0,21.635,21.635,0,0,1-6.954,0,21.636,21.636,0,0,1-6.953,0,21.639,21.639,0,0,1-6.954,0,21.635,21.635,0,0,1-6.953,0,21.638,21.638,0,0,1-6.954,0,21.635,21.635,0,0,1-6.953,0h0a.256.256,0,0,0-.259.252v6.752h0v6h.518v-6h6.435v6h.519v-6h6.435v6h.518v-6h6.435v6h.518v-6h6.435v6h.518v-6h6.435v6h.518v-6h6.435v6h.519v-6h6.435v6h.518v-6h6.435v6h.519v-6h5.572v6h.519v-6h0Z" transform="translate(-2762.978 -1390.75)" fill="#48b857"/>
  </g>
</svg>
