<svg xmlns="http://www.w3.org/2000/svg" width="62.198" height="12.378" viewBox="0 0 62.198 12.378"><defs><style>.a{fill:#fff;}</style></defs><g transform="translate(0.003 0)"><path class="a" d="M2825.173,970.441V969.6a.534.534,0,0,0-.534-.534h-13.981a.514.514,0,0,0-.514.514v.861h0v3.582h-46.959a.21.21,0,0,0-.209.209V975.4h0a.21.21,0,0,0,.21.209h.676v3.367h1.271v-.406l1.625-2.963h1.615v4.986h.319v-2.877h.2a3.525,3.525,0,0,1,1.776-2.321c.044-.023.089-.046.134-.068q.135-.067.279-.121a3.6,3.6,0,0,1,.794-.2,3.73,3.73,0,0,1,1.015,0,3.612,3.612,0,0,1,.794.2q.143.055.279.121c.045.021.089.044.133.067.1.053.2.109.287.171h0a.428.428,0,0,1,.054.032l.008,0a3.127,3.127,0,0,1,.88.905h0a3.374,3.374,0,0,1,.522,1.206h5.633c.018-.081.038-.161.062-.24a3.4,3.4,0,0,1,.916-1.5,3.547,3.547,0,0,1,.818-.587,3.617,3.617,0,0,1,3.227-.04c.122.064.321.174.433.25a3.42,3.42,0,0,1,1.443,2.112h23.13v3.579h-.414v.153h1.727v-.153h-.379v-3.579h.615a.587.587,0,0,0,.587-.587v-5.36h11a.534.534,0,0,0,.534-.534v-.8Z" transform="translate(-2762.978 -969.065)"/><circle class="a" cx="3.007" cy="3.007" r="3.007" transform="translate(6.394 6.192)"/><circle class="a" cx="3.007" cy="3.007" r="3.007" transform="translate(18.952 6.192)"/></g></svg>
