<svg xmlns="http://www.w3.org/2000/svg" width="62.2" height="18.568" viewBox="0 0 62.2 18.568"><defs><style>.a{fill:#fff;}</style></defs><g transform="translate(-0.002 -0.001)"><path class="a" d="M2833.519,1896.61a2.975,2.975,0,1,0,3.06,2.979,3.016,3.016,0,0,0-3.06-2.979Z" transform="translate(-2812.694 -1883.995)"/><path class="a" d="M2806.322,1896.821a3.158,3.158,0,0,0-2.24,0,2.978,2.978,0,0,0-1.937,2.768,3.06,3.06,0,0,0,6.118,0,2.979,2.979,0,0,0-1.94-2.768Z" transform="translate(-2791.826 -1883.996)"/><path class="a" d="M2824.277,1855.654l-.318-.068-8.417-1.791-1.123-.242-7.986-1.7-1.078-.229-.612-.13h-11.405l-.04.019-10.645-2.291-.83-.178-.476-.1h0l-1.018-.219-1.085.215-13.1,2.593-.076.015-.619.122-.062.012-1.922.378a.556.556,0,0,0,.213,1.091l2.008-.395.212-.042,2.04,4.733-.178.077,3.355,7.783h-7.581a.555.555,0,1,0,0,1.111h9.2v-2.825h.19a3.375,3.375,0,0,1,1.409-2.076,3.523,3.523,0,0,1,.742-.391,3.6,3.6,0,0,1,2.557,0,3.524,3.524,0,0,1,.687.353h0l.053.031.008,0a3.078,3.078,0,0,1,.863.888h0a3.3,3.3,0,0,1,.512,1.186h.646a3.379,3.379,0,0,1,1.408-2.076,3.559,3.559,0,0,1,3.991,0,3.46,3.46,0,0,1,.9.9,3.312,3.312,0,0,1,.507,1.177h.144v2.825h21.81l.029.015.007-.015h.014v-.026l2.364-4.7h13.6v-5.839Zm-52.69,4.919v.232h0v2.876l-2.84-6.589-.178.076-1.981-4.6,13.732-2.716.537.115.989.213.518.111,1,2.328-.177.076,3.395,7.874Zm15.994-6.348-.212.1v5.344l-3.188-7.4-.177.077-.807-1.875,8.456,1.82-.654.311Zm.882,11.076v-1.977l3.059,1.977Zm5.105,0-5.105-3.3v-.052h0v-1.372h-.017v-5.57l1.988-.943,3.658,11.237Zm2.416,0h-.757l-3.81-11.7,2.095-.994h2.472Zm9.372,0h-8.294v-12.7h7.6l.695.148Zm3.159,0h-2.081v-12.318l7.475,1.591Zm15.445-4.728h-11.823l2.9-5.762,8.928,1.9Z" transform="translate(-2762.979 -1848.721)"/></g></svg>
