<svg xmlns="http://www.w3.org/2000/svg" width="62.199" height="24.025" viewBox="0 0 62.199 24.025"><defs><style>.a{fill:#fff;}.b{fill:#5673AA;}</style></defs><g transform="translate(0.004 0)"><path class="a" d="M2820.628,776.458a3.126,3.126,0,1,0,3.246,3.124A3.187,3.187,0,0,0,2820.628,776.458Z" transform="translate(-2801.85 -758.684)"/><path class="a" d="M2793.6,776.674a3.379,3.379,0,0,0-2.378,0,3.133,3.133,0,0,0-2.058,2.908,3.25,3.25,0,0,0,6.494,0,3.134,3.134,0,0,0-2.058-2.908Z" transform="translate(-2781.688 -758.684)"/><path class="a" d="M2822.892,712.239h-57.635a2.25,2.25,0,0,0-2.284,2.214v13.161a2.205,2.205,0,0,0,1.149,1.922v3.723a.457.457,0,0,0,.465.45h.962a.386.386,0,0,0,.392-.38v-.039l1.729-3.057h1.76v1.916a.274.274,0,0,0,.288.271.339.339,0,0,0,.313-.238,3.563,3.563,0,0,1,1.462-1.949,3.851,3.851,0,0,1,.787-.4,4.069,4.069,0,0,1,1.4-.254,3.97,3.97,0,0,1,1.385.247l.018.007a3.847,3.847,0,0,1,.731.365h0a.307.307,0,0,1,.057.032l.009.006a3.264,3.264,0,0,1,.939.935h0a3.427,3.427,0,0,1,.555,1.245h.7a3.551,3.551,0,0,1,1.525-2.18,3.814,3.814,0,0,1,.8-.4,3.985,3.985,0,0,1,2.716,0,3.81,3.81,0,0,1,.8.4,3.544,3.544,0,0,1,1.525,2.18h.719v-2.18h21.464l2.219,2.877h.787v3h-.44v.158h1.837v-.158h-.4v-3h.707l2.243-2.877c.02-.025.243,0,.274,0h6.815a2.987,2.987,0,0,0,1.754-.4,2.225,2.225,0,0,1,.46-.223l-.036.01a2.214,2.214,0,0,0,1.323-2.009V714.452a2.25,2.25,0,0,0-2.281-2.213Z" transform="translate(-2762.978 -712.239)"/><g transform="translate(7.618 0.459)"><path class="b" d="M2881.02,777.239" transform="translate(-2854.957 -759.706)"/><rect class="b" width="0.487" height="16.548"/><rect class="b" width="0.487" height="16.548" transform="translate(8.117)"/><rect class="b" width="0.487" height="16.548" transform="translate(16.233)"/><rect class="b" width="0.487" height="16.548" transform="translate(24.35)"/><rect class="b" width="0.487" height="16.548" transform="translate(32.467)"/><rect class="b" width="0.487" height="16.548" transform="translate(40.584)"/><rect class="b" width="0.487" height="16.548" transform="translate(48.7)"/></g></g></svg>
