<svg xmlns="http://www.w3.org/2000/svg" width="61.311" height="19.212" viewBox="0 0 61.311 19.212"><defs><style>.a{fill:#fff;}.b{fill:#81CCFF;}</style></defs><g transform="translate(-0.002 -0.002)"><path class="a" d="M2814.5,1139.872a3.129,3.129,0,0,0-2.162,0,2.846,2.846,0,0,0-1.79,1.942,2.628,2.628,0,0,0-.084.648,2.957,2.957,0,0,0,5.9,0,2.628,2.628,0,0,0-.083-.648,2.846,2.846,0,0,0-1.784-1.942Z" transform="translate(-2798.398 -1126.031)"/><path class="a" d="M2788.755,1139.872a3.132,3.132,0,0,0-2.163,0,2.793,2.793,0,0,0-1.87,2.59,2.957,2.957,0,0,0,5.9,0,2.794,2.794,0,0,0-1.871-2.59Z" transform="translate(-2779.196 -1126.031)"/><path class="a" d="M2821.2,1084.358v-.01h-54.952c-1.8,0-3.266,2.918-3.266,6.516s1.462,6.516,3.266,6.516v2.186a.57.57,0,0,0,.578.56h.629v.722a.23.23,0,0,0,.234.227h.043a.23.23,0,0,0,.233-.226,4.841,4.841,0,0,1,.065-.723,3.161,3.161,0,0,1,.427-1.044l.006-.008a3.418,3.418,0,0,1,1.118-1.086,3.567,3.567,0,0,1,.6-.289c.039-.015.079-.028.119-.042a3.717,3.717,0,0,1,2.327,0c.04.013.083.027.119.042s.084.032.121.048a3.551,3.551,0,0,1,.479.241h0c.173.218.335.475.692.874s.37.722.735.722.388-.323.727-.722a8,8,0,0,0,.629-.874s.192-.108.292-.158l.018-.008c.094-.045.191-.083.29-.123.04-.015.079-.028.12-.042a3.716,3.716,0,0,1,2.326,0c.04.013.084.027.119.042a3.541,3.541,0,0,1,.6.289h0a3.36,3.36,0,0,1,1.392,1.612h8.511v2.2h10.873v-3.816h7.9v5.43h-.392v.14h1.637v-.14h-.359v-5.43H2821.2v-.031c1.722-.191,3.091-3.164,3.091-6.8S2822.92,1084.55,2821.2,1084.358Z" transform="translate(-2762.978 -1084.346)"/><path class="b" d="M.4,0,60.13.026A12.14,12.14,0,0,1,60.5,2.52a13.291,13.291,0,0,1-.222,3.235L.4,5.764A12.908,12.908,0,0,1,.053,2.949,15.031,15.031,0,0,1,.4,0Z" transform="translate(0.413 3.604)"/></g></svg>
