<svg xmlns="http://www.w3.org/2000/svg" width="62.197" height="23.031" viewBox="0 0 62.197 23.031"><defs><style>.a,.b{fill:#fff;}.a{opacity:0.2;}</style></defs><g transform="translate(23168.003 15934.997)"><g transform="translate(-23167.209 -15933.302)"><rect class="a" width="5.968" height="13.247" transform="translate(12.88)"/><path class="a" d="M2879.91,1581.66v1.865h5.969v-4.544Z" transform="translate(-2847.405 -1570.277)"/><path class="a" d="M2948.82,1551.71v10.673h5.091v-12.959Z" transform="translate(-2896.694 -1549.139)"/><path class="a" d="M2925.85,1561.04v7.737h5.968v-10.416Z" transform="translate(-2880.264 -1555.526)"/><path class="a" d="M2902.88,1571.35v4.8h5.969v-7.48Z" transform="translate(-2863.834 -1562.902)"/><path class="a" d="M2952.5,1548.41h-3.68v1.652Z" transform="translate(-2896.694 -1548.414)"/><path class="a" d="M2931.81,1550.32v-1.909h-5.968V1553Z" transform="translate(-2880.264 -1548.414)"/><rect class="a" width="5.968" height="13.247" transform="translate(6.339)"/><path class="a" d="M2968.79,1548.44v13.226h3v-13.247h-2.952Z" transform="translate(-2910.981 -1548.414)"/><path class="a" d="M2862.9,1548.41h-5.968v13.247h.333l5.635-2.53Z" transform="translate(-2830.975 -1548.414)"/><path class="a" d="M2865.32,1590.9h3.581v-1.608Z" transform="translate(-2836.973 -1577.653)"/><rect class="a" width="5.968" height="13.247" transform="translate(19.42)"/><path class="a" d="M2767.54,1548.41l-.4,2.749-1.372,10.5h5.767v-13.247Z" transform="translate(-2765.761 -1548.414)"/><path class="a" d="M2885.87,1556.2v-7.781H2879.9v10.461Z" transform="translate(-2847.405 -1548.414)"/><path class="a" d="M2908.84,1553.26v-4.845h-5.969v7.525Z" transform="translate(-2863.834 -1548.414)"/></g><g transform="translate(-23168 -15935)"><path class="b" d="M2807,1600.73a3.216,3.216,0,1,0,3.306,3.214,3.26,3.26,0,0,0-3.306-3.214Z" transform="translate(-2792.098 -1584.133)"/><path class="b" d="M2779.93,1600.95a3.405,3.405,0,0,0-2.421,0,3.217,3.217,0,0,0-2.1,2.992,3.307,3.307,0,0,0,6.612,0A3.217,3.217,0,0,0,2779.93,1600.95Z" transform="translate(-2771.87 -1584.133)"/><path class="b" d="M2927.58,1598.27h-.992v6.966h-.438v.162h1.833v-.162h-.4Z" transform="translate(-2879.687 -1582.376)"/><path class="b" d="M2825.11,1543.55a1.529,1.529,0,0,0-1.468-1.1h-.192a.579.579,0,0,0-.339.109l-2.209.992h-36.117c-.245,0-.411,0-.473.006h-19.339l-1.071,7.88-.875,5.965h-.052v.858h0v1.009h.948v3.577h1.351v-.431l.3-.54v2.692h.338v-3.055h.205a3.646,3.646,0,0,1,1.522-2.243,3.818,3.818,0,0,1,.8-.423,3.888,3.888,0,0,1,2.764,0,3.79,3.79,0,0,1,.742.382h0l.057.034.009.006a3.314,3.314,0,0,1,.933.961h0a3.569,3.569,0,0,1,.554,1.281h.7a3.65,3.65,0,0,1,1.522-2.243,3.846,3.846,0,0,1,4.313,0,3.707,3.707,0,0,1,.975.972,3.577,3.577,0,0,1,.547,1.271h.717v-1.756h9.3v-1.409h33.6V1543.98h0a1.516,1.516,0,0,0-.062-.43Zm-55.576,13.846h-5.767l1.372-10.5.4-2.749h3.992Zm46.355-13.247h3.68l-3.68,1.653Zm-39.815,13.247h-5.969v-13.247h5.969Zm6.541,0h-5.969v-13.247h5.969Zm6.54,0h-5.968v-13.247h5.968Zm6.54,0h-3.581l3.581-1.608Zm0-2.53-5.635,2.53h-.334v-13.247h5.969Zm6.541,2.53h-5.968v-1.865l5.968-2.679Zm0-5.466-5.968,2.679v-10.461h5.968Zm6.541,5.466h-5.968v-4.8l5.968-2.679Zm0-8.4-5.968,2.679v-7.525h5.968Zm6.54,8.4h-5.968v-7.737l5.968-2.679Zm0-11.338-5.968,2.679v-4.589h5.968Zm5.664,11.338h-5.092V1546.72l5.092-2.286Zm3.594,0h-3V1544.17l.047-.021h2.952Z" transform="translate(-2762.978 -1542.447)"/></g></g></svg>
