<svg xmlns="http://www.w3.org/2000/svg" width="62.286" height="23.617" viewBox="0 0 62.286 23.617"><defs><style>.a,.b{fill:#fff;}.b{fill:#6C6C6C; opacity:0.3;}.c{opacity:0.2;}.d{fill:#FFBE7D;}</style></defs><g transform="translate(-8 -94.953)"><path class="a" d="M2.646.149C5.341.118,57.493.139,60.073.18s2.191,3.579,2.191,3.579L62.2,16.609H0V2.4S-.049.181,2.646.149Z" transform="translate(8.001 94.819)"/><path class="b" d="M2821.94,1757.07a2.973,2.973,0,1,0,3.057,2.972A3.018,3.018,0,0,0,2821.94,1757.07Z" transform="translate(-2796.148 -1644.445)"/><path class="b" d="M2794.77,1757.28a3.068,3.068,0,0,0-1.118-.207,3.108,3.108,0,0,0-1.123.207,2.975,2.975,0,0,0-1.939,2.766,3.059,3.059,0,0,0,6.115,0,2.965,2.965,0,0,0-1.934-2.766Z" transform="translate(-2775.314 -1644.445)"/><path class="b" d="M2811.36,1754.29h-48.383v.939h.871v3.309h1.249v-.4l1.414-2.577,2.869.022v4.544h.314V1757.3h.189a3.369,3.369,0,0,1,1.409-2.074,3.417,3.417,0,0,1,.741-.391,3.557,3.557,0,0,1,3.246.355h0l.054.031h.009a3.037,3.037,0,0,1,.862.889h0a3.3,3.3,0,0,1,.512,1.185h.642a3.371,3.371,0,0,1,1.41-2.074,3.522,3.522,0,0,1,4.889.9,3.39,3.39,0,0,1,.508,1.176h.7v-1.639h25.754v5.154h-.4v.148h1.693v-.148h-.372v-4.5l.642-.642.835-.835h12.163v-.539h-13.815Z" transform="translate(-2754.977 -1642.398)"/><g class="c" transform="translate(9.396 95.771)"><path class="d" d="M2767.7,1695.37h.664v14.212h-1.429v-13.456A.76.76,0,0,1,2767.7,1695.37Z" transform="translate(-2766.935 -1695.062)"/><rect class="d" width="1.429" height="14.52" transform="translate(2.86 0.004)"/><rect class="d" width="1.429" height="14.52" transform="translate(5.723 0.004)"/><rect class="d" width="1.429" height="14.52" transform="translate(8.586 0.004)"/><rect class="d" width="1.429" height="14.52" transform="translate(11.682 0.004)"/><rect class="d" width="1.429" height="14.52" transform="translate(14.604 0.004)"/><rect class="d" width="1.429" height="14.52" transform="translate(17.527 0.004)"/><rect class="d" width="1.429" height="14.52" transform="translate(20.449 0.004)"/><rect class="d" width="1.429" height="14.52" transform="translate(23.372 0.004)"/><rect class="d" width="1.429" height="14.52" transform="translate(26.294 0.004)"/><rect class="d" width="1.429" height="14.52" transform="translate(29.216 0.004)"/><rect class="d" width="1.429" height="14.52" transform="translate(32.134 0.004)"/><rect class="d" width="1.429" height="14.52" transform="translate(35.056 0.004)"/><rect class="d" width="1.429" height="14.52" transform="translate(37.979 0.004)"/><rect class="d" width="1.429" height="14.52" transform="translate(40.901 0.004)"/><rect class="d" width="1.429" height="14.52" transform="translate(43.824 0.004)"/><rect class="d" width="1.429" height="14.52" transform="translate(46.746 0.004)"/><rect class="d" width="1.429" height="14.52" transform="translate(49.847 0.004)"/><rect class="d" width="1.429" height="14.52" transform="translate(52.71 0.004)"/><rect class="d" width="1.429" height="14.52" transform="translate(55.568 0.004)"/><path class="d" d="M2989.46,1695.37h.8a.623.623,0,0,1,.627.619v13.593h-1.429Z" transform="translate(-2931.03 -1695.062)"/></g></g></svg>
