<svg xmlns="http://www.w3.org/2000/svg" width="18" height="18" viewBox="0 0 18 18">
  <g id="Group_8781" data-name="Group 8781" transform="translate(-133.043 -115.066)">
    <path id="Union_140" data-name="Union 140" d="M2922.043,1277.566a1,1,0,0,1-1-1v-5h12v5a1,1,0,0,1-1,1Zm-1-13v-3a1,1,0,0,1,1-1h10a1,1,0,0,1,1,1v3Z" transform="translate(-2785 -1145)" fill="#a9a9a9" stroke="rgba(0,0,0,0)" stroke-miterlimit="10" stroke-width="1"/>
    <path id="Path_7738" data-name="Path 7738" d="M149.443,119.566h-14.8a1.6,1.6,0,0,0-1.6,1.6v6.8a1.6,1.6,0,0,0,1.6,1.6h1.4v-2a1,1,0,0,1,0-2h12a1,1,0,0,1,0,2v2h1.4a1.6,1.6,0,0,0,1.6-1.6v-6.8A1.6,1.6,0,0,0,149.443,119.566Zm-1.65,3.964h-2.331a.714.714,0,1,1,0-1.428h2.331a.714.714,0,1,1,0,1.428Z" fill="#d2d2d1"/>
  </g>
</svg>
