<svg xmlns="http://www.w3.org/2000/svg" width="36" height="36" viewBox="0 0 36 36"><defs><style>.a{fill:#919191;}.b{fill:#fff;}</style></defs><rect class="a" width="36" height="36" rx="18"/><path class="b" d="M-1312.75-171.825h-5.452v-5.452a2.707,2.707,0,0,0-2.707-2.707,2.706,2.706,0,0,0-2.706,2.707v5.452h-5.451a2.707,2.707,0,0,0-2.708,2.707,2.707,2.707,0,0,0,2.708,2.707h5.451v5.451a2.707,2.707,0,0,0,2.706,2.707,2.707,2.707,0,0,0,2.707-2.707v-5.451h5.452a2.707,2.707,0,0,0,2.707-2.707,2.706,2.706,0,0,0-2.707-2.707Z" transform="translate(1338.775 186.984)"/></svg>
