<svg xmlns="http://www.w3.org/2000/svg" width="36" height="36.001" viewBox="0 0 36 36.001">
  <defs>
    <style>
      .a {
        fill:#b7b7b7;
      }
      .b {
        fill:#fff;
      }
    </style>
  </defs>
  <g transform="translate(0 0.001)">
    <path class="a" d="M1.807,35.92a.954.954,0,0,1-.51-1.264l2.623-5.99A17.378,17.378,0,0,1,0,17.7,17.883,17.883,0,0,1,18.025,0h.059A17.779,17.779,0,0,1,36,17.652a17.882,17.882,0,0,1-18.024,17.7,17.652,17.652,0,0,1-5.992-1.022L2.367,35.987A1.081,1.081,0,0,1,2.2,36a.986.986,0,0,1-.393-.08Z"/>
    <g transform="translate(8.1 9.9)">
      <rect class="b" width="21" height="4" rx="2" transform="translate(-0.099 0.099)"/>
      <rect class="b" width="13" height="4" rx="2" transform="translate(-0.099 6.099)"/>
      <rect class="b" width="21" height="4" rx="2" transform="translate(-0.099 12.099)"/>
    </g>
  </g>
</svg>
