<svg id="Component_668_28" data-name="Component 668 – 28" xmlns="http://www.w3.org/2000/svg" width="20" height="22" viewBox="0 0 20 22">
  <path id="Path_1424" data-name="Path 1424" d="M19.938,5.493,19.4,3.916a1.5,1.5,0,0,0-1.432-1H13.421c0-.326-.6-.912-1.34-.912H7.919c-.739,0-1.34.586-1.34.912H2.034a1.505,1.505,0,0,0-1.432,1L.062,5.493A1.157,1.157,0,0,0,.228,6.557a1.227,1.227,0,0,0,.984.491h.565L3.021,22.019A2.2,2.2,0,0,0,5.227,24h9.8a2.2,2.2,0,0,0,2.205-1.981l1.244-14.97h.313a1.227,1.227,0,0,0,.984-.49,1.158,1.158,0,0,0,.167-1.064ZM8.013,3.4h3.973V2.912H8.013ZM15.8,21.906a.774.774,0,0,1-.775.7h-9.8a.774.774,0,0,1-.775-.7L3.217,7.048H17.034ZM1.52,5.652l.443-1.294a.074.074,0,0,1,.071-.05h15.93a.075.075,0,0,1,.071.05l.443,1.294Zm0,0" transform="translate(0 -2)" fill="#ff5d5d"/>
</svg>
