<svg id="delete" xmlns="http://www.w3.org/2000/svg" width="32" height="32" viewBox="0 0 32 32">
  <g id="delete-2" data-name="delete" transform="translate(-1235)" opacity="0.9">
    <path id="Rectangle_5167" data-name="Rectangle 5167" d="M0,0H27a5,5,0,0,1,5,5V27a5,5,0,0,1-5,5H0a0,0,0,0,1,0,0V0A0,0,0,0,1,0,0Z" transform="translate(1235)" fill="#ff5d5d"/>
    <g id="trash" transform="translate(1244 8)">
      <path id="Path_7317" data-name="Path 7317" d="M32.663,106.988,32,96H44l-.663,10.988a1.469,1.469,0,0,1-1.5,1.333H34.16a1.469,1.469,0,0,1-1.5-1.333Z" transform="translate(-31 -92.321)" fill="#fff"/>
      <path id="Path_7318" data-name="Path 7318" d="M0,2.5v-1A.5.5,0,0,1,.5,1H4.251L4.545.416A.741.741,0,0,1,5.214,0H8.787a.75.75,0,0,1,.672.416L9.753,1H13.5a.5.5,0,0,1,.5.5v1a.5.5,0,0,1-.5.5H.5A.5.5,0,0,1,0,2.5Z" transform="translate(0 0)" fill="#fff"/>
    </g>
  </g>
</svg>
