<svg id="Direction" xmlns="http://www.w3.org/2000/svg" width="22" height="22" viewBox="0 0 22 22">
  <g id="Direction-2" data-name="Direction" transform="translate(-309.999 -1156.506)" opacity="0.7">
    <path id="Path_2991" data-name="Path 2991" d="M690.8,374.48a11,11,0,1,1-15.023-4.026h0A11,11,0,0,1,690.8,374.48Z" transform="translate(-360.274 787.527)" fill="#5673aa"/>
    <path id="Path_5834" data-name="Path 5834" d="M313.84,404.779l-5.013-3.308a1.219,1.219,0,0,0-1.339,0l-5.008,3.306c-.647.426-1.329-.481-.943-1.251l5.869-11.647a.836.836,0,0,1,1.5,0l5.871,11.649C315.17,404.3,314.484,405.205,313.84,404.779Z" transform="translate(12.818 768.22)" fill="#fff"/>
  </g>
</svg>
