<svg xmlns="http://www.w3.org/2000/svg" width="43.993" height="55.033" viewBox="0 0 43.993 55.033">
  <g id="Group_6063" data-name="Group 6063" transform="translate(-659.553 -357.018)">
    <path id="Path_2989" data-name="Path 2989" d="M309.481,194.873a21.983,21.983,0,0,0-30.8,30.7c4.008,5.4,17.741,19.99,17.741,19.99s13.641-14.585,17.649-19.99A21.953,21.953,0,0,0,309.481,194.873Zm-13.1,33.1a15.4,15.4,0,1,1,15.4-15.4A15.4,15.4,0,0,1,296.377,227.969Z" transform="translate(385.17 166.488)" fill="#24c1a1"/>
    <path id="Path_2991" data-name="Path 2991" d="M15.4,0A15.4,15.4,0,1,1,0,15.4,15.4,15.4,0,0,1,15.4,0Z" transform="translate(666.153 363.615)" fill="#fff"/>
  </g>
</svg>
