<svg id="Component_1498_1" data-name="Component 1498 – 1" xmlns="http://www.w3.org/2000/svg" width="22" height="22" viewBox="0 0 22 22">
  <circle id="Ellipse_1410" data-name="Ellipse 1410" cx="11" cy="11" r="11" fill="#919191"/>
  <path id="Path_5681" data-name="Path 5681" d="M391.084,377.153l-3.45-3.45L391,370.338a1.119,1.119,0,1,0-1.583-1.583l-3.365,3.365-3.45-3.45a1,1,0,0,0-1.415,0l-.169.169a1,1,0,0,0,0,1.414l3.45,3.45-3.365,3.365a1.119,1.119,0,1,0,1.583,1.583l3.366-3.365,3.45,3.45a1,1,0,0,0,1.414,0l.169-.169A1,1,0,0,0,391.084,377.153Z" transform="translate(-374.725 -362.377)" fill="#fff"/>
</svg>
