<svg xmlns="http://www.w3.org/2000/svg" width="15.999" height="15.999" viewBox="0 0 15.999 15.999">
  <g id="Group_2609" data-name="Group 2609" transform="translate(-12 -7.999)" opacity="0.7">
    <path id="Path_1172" data-name="Path 1172" d="M160.491,160.509a.565.565,0,0,0-.789,0l-1.871,1.88v-8.328a.568.568,0,1,0-1.135,0v8.328l-1.87-1.88a.565.565,0,0,0-.8.014.573.573,0,0,0,0,.793l2.839,2.855a.565.565,0,0,0,.8,0h0l2.839-2.855A.573.573,0,0,0,160.491,160.509Z" transform="translate(-136.689 -140.341)" fill="#606060"/>
    <path id="Path_1171" data-name="Path 1171" d="M14.785,5.415a4.421,4.421,0,0,0,.075-.808A4.574,4.574,0,0,0,5.991,3.06,2.284,2.284,0,0,0,2.923,4.645a3.417,3.417,0,0,0,.509,6.8H6.289a.57.57,0,1,0,0-1.139H3.431a2.279,2.279,0,1,1,0-4.557A.571.571,0,0,0,4,5.177a1.144,1.144,0,0,1,1.943-.812.572.572,0,0,0,.965-.314,3.425,3.425,0,0,1,6.758,1.12q-.028.166-.072.329a.569.569,0,0,0,.236.627A2.278,2.278,0,0,1,12.574,10.3H10.86a.57.57,0,1,0,0,1.139h1.714a3.416,3.416,0,0,0,2.21-6.028Z" transform="translate(11.999 7.943)" fill="#606060"/>
  </g>
</svg>
