<svg id="Component_848_1" data-name="Component 848 – 1" xmlns="http://www.w3.org/2000/svg" width="22" height="22" viewBox="0 0 22 22">
  <g id="Group_4000" data-name="Group 4000" transform="translate(0 0)">
    <g id="Group_3999" data-name="Group 3999" transform="translate(-1603 -175)">
      <g id="Group_3997" data-name="Group 3997" transform="translate(1591 167.001)" opacity="0.7">
        <path id="Path_1172" data-name="Path 1172" d="M162.977,163.142a.778.778,0,0,0-1.085,0l-2.572,2.585V154.276a.781.781,0,1,0-1.561,0v11.451l-2.571-2.585a.778.778,0,0,0-1.1.019.788.788,0,0,0,0,1.091l3.9,3.925a.778.778,0,0,0,1.1,0h0l3.9-3.925A.788.788,0,0,0,162.977,163.142Z" transform="translate(-134.747 -138.409)" fill="#606060"/>
        <path id="Path_1171" data-name="Path 1171" d="M20.33,7.426a6.079,6.079,0,0,0,.1-1.111,6.289,6.289,0,0,0-12.2-2.128,3.14,3.14,0,0,0-4.219,2.18,4.7,4.7,0,0,0,.7,9.348H8.647a.783.783,0,1,0,0-1.567H4.718a3.133,3.133,0,1,1,0-6.267A.785.785,0,0,0,5.5,7.1,1.573,1.573,0,0,1,8.176,5.982.786.786,0,0,0,9.5,5.549,4.71,4.71,0,0,1,18.8,7.089q-.038.229-.1.453a.782.782,0,0,0,.325.862,3.132,3.132,0,0,1-1.73,5.744H14.933a.783.783,0,1,0,0,1.567h2.357A4.7,4.7,0,0,0,20.33,7.426Z" transform="translate(11.999 7.943)" fill="#606060"/>
      </g>
    </g>
  </g>
</svg>
