<svg id="Component_738_4" data-name="Component 738 – 4" xmlns="http://www.w3.org/2000/svg" width="33" height="26" viewBox="0 0 33 26">
  <path id="Rectangle_1333" data-name="Rectangle 1333" d="M5,0H33a0,0,0,0,1,0,0V26a0,0,0,0,1,0,0H0a0,0,0,0,1,0,0V5A5,5,0,0,1,5,0Z" fill="#606060" opacity="0.8"/>
  <g id="Group_2179" data-name="Group 2179" transform="translate(8 5)">
    <path id="Path_1172" data-name="Path 1172" d="M160.551,160.533a.573.573,0,0,0-.8,0l-1.888,1.886v-8.356a.573.573,0,0,0-1.146,0v8.356l-1.886-1.886a.573.573,0,0,0-.81.81l2.864,2.864a.573.573,0,0,0,.81,0h0l2.864-2.864A.573.573,0,0,0,160.551,160.533Z" transform="translate(-148.72 -148.372)" fill="#fff"/>
    <path id="Path_1171" data-name="Path 1171" d="M14.789,5.431a4.445,4.445,0,0,0,.075-.81A4.573,4.573,0,0,0,5.993,3.069a2.286,2.286,0,0,0-3.069,1.59,3.428,3.428,0,0,0,.509,6.818H6.29a.571.571,0,1,0,0-1.143H3.432a2.285,2.285,0,1,1,0-4.57A.571.571,0,0,0,4,5.192a1.143,1.143,0,0,1,1.943-.814.572.572,0,0,0,.965-.315,3.426,3.426,0,0,1,6.76,1.123q-.028.167-.072.33a.571.571,0,0,0,.236.628,2.285,2.285,0,0,1-1.259,4.189H10.863a.571.571,0,1,0,0,1.143h1.715a3.427,3.427,0,0,0,2.211-6.045Z" transform="translate(-0.001 -0.056)" fill="#fff"/>
  </g>
</svg>
