<svg xmlns="http://www.w3.org/2000/svg" width="28" height="26" viewBox="0 0 28 26">
  <g id="Down" transform="translate(-628.5 -371.5)">
    <path id="Path_2801" data-name="Path 2801" d="M628.5,371.5v26h28v-26Zm20.41,10.707-5.851,5.847h0a1,1,0,0,1-1.414,0l-5.851-5.847a1,1,0,1,1,1.414-1.415l5.144,5.141,5.145-5.141a1,1,0,0,1,1.414,1.415Z" fill="#606060"/>
    <path id="Path_2798" data-name="Path 2798" d="M643.059,388.054l5.851-5.847a1,1,0,0,0-1.414-1.415h0l-5.145,5.141-5.144-5.141a1,1,0,1,0-1.414,1.415l5.851,5.847a1,1,0,0,0,1.414,0Z" fill="#fff"/>
  </g>
</svg>
