<svg xmlns="http://www.w3.org/2000/svg" width="14" height="14.001" viewBox="0 0 14 14.001">
  <g id="Group_8884" data-name="Group 8884" transform="translate(-233.443 -197.443)">
    <path id="Path_7775" data-name="Path 7775" d="M249.53,199.467l-1.637-1.641a1.314,1.314,0,0,0-1.853,0l-1.189,1.189h0a.329.329,0,0,0,0,.465l0,0,3.023,3.025h0a.328.328,0,0,0,.465,0l0,0,1.189-1.189h-.007A1.314,1.314,0,0,0,249.53,199.467Z" transform="translate(-2.465 0)" fill="#919191"/>
    <path id="Path_7776" data-name="Path 7776" d="M244.625,204.027,241.6,201h0a.329.329,0,0,0-.465,0l0,0-7.334,7.334-.349,3.118a.571.571,0,0,0,0,.146.654.654,0,0,0,.722.576l3.118-.349,7.334-7.334h0A.329.329,0,0,0,244.625,204.027Z" transform="translate(0 -0.733)" fill="#919191"/>
  </g>
</svg>
