<svg xmlns="http://www.w3.org/2000/svg" width="30" height="30" viewBox="0 0 30 30"><defs><style>.a{fill:#fff;}</style></defs><path class="a" d="M696,369H670a2,2,0,0,0-2,2v26a2,2,0,0,0,2,2h26a2,2,0,0,0,2-2V371A2,2,0,0,0,696,369Zm-6.833,11.911-8.313,8.313a1.1,1.1,0,0,1-.644.3,1,1,0,0,1-1.092-.215l-2.826-2.826a1,1,0,0,1,0-1.414l.169-.169a1,1,0,0,1,1.414,0l2.068,2.068,7.641-7.64h0a1.118,1.118,0,0,1,1.582,0,.02.02,0,0,1,.022.007A1.111,1.111,0,0,1,689.167,380.911Z" transform="translate(-668 -369)"/></svg>