<svg xmlns="http://www.w3.org/2000/svg" width="28.068" height="25.958" viewBox="0 0 28.068 25.958">
  <g id="Group_8263" data-name="Group 8263" transform="translate(-177.93 -127.041)">
    <g id="Group_8262" data-name="Group 8262">
      <path id="Path_1182" data-name="Path 1182" d="M12,0A12,12,0,1,1,0,12,12,12,0,0,1,12,0Z" transform="translate(179 128)" fill="#24c1a1"/>
    </g>
    <path id="Path_1183" data-name="Path 1183" d="M27.944,12.751a.589.589,0,0,0-.534-.34H25.667a12.978,12.978,0,1,0-1.514,8.865,1.184,1.184,0,0,0-.43-1.615,1.172,1.172,0,0,0-1.607.431,10.651,10.651,0,1,1,1.144-7.681H21.53a.591.591,0,0,0-.453.969l2.942,3.545a.587.587,0,0,0,.9,0l2.942-3.545A.593.593,0,0,0,27.944,12.751Z" transform="translate(178 125.225)" fill="#606060"/>
  </g>
</svg>
