<svg xmlns="http://www.w3.org/2000/svg" width="20" height="10" viewBox="0 0 20 10">
  <path id="infinity" d="M5.278,96A6.533,6.533,0,0,1,10,98.456,6.533,6.533,0,0,1,14.722,96a5.007,5.007,0,1,1,0,10A6.533,6.533,0,0,1,10,103.544,6.533,6.533,0,0,1,5.278,106a5.007,5.007,0,1,1,0-10Zm9.444,7a2.017,2.017,0,1,0,0-4c-1.194,0-2.294,1.128-2.937,2C12.422,101.862,13.531,103,14.722,103Zm-9.444,0c1.194,0,2.294-1.128,2.938-2-.638-.863-1.747-2-2.938-2a2.017,2.017,0,1,0,0,4Z" transform="translate(0 -96)" fill="#fff"/>
</svg>
