<svg xmlns="http://www.w3.org/2000/svg" width="36" height="36" viewBox="0 0 36 36"><defs><style>.a{fill:#b7b7b7;}</style></defs><path class="a" d="M-533.333,3786.03a18,18,0,0,0-18,18,18,18,0,0,0,18,18,18,18,0,0,0,18-18A18,18,0,0,0-533.333,3786.03Zm2.786,28.239a2.787,2.787,0,0,1-2.786,2.787,2.787,2.787,0,0,1-2.786-2.787v-11.4a2.786,2.786,0,0,1,2.786-2.786,2.786,2.786,0,0,1,2.786,2.786Zm-2.786-16.639a3.187,3.187,0,0,1-3.187-3.187,3.186,3.186,0,0,1,3.187-3.187,3.186,3.186,0,0,1,3.187,3.187,3.186,3.186,0,0,1-3.188,3.187Z" transform="translate(551.333 -3786.03)"/></svg>