<?xml version="1.0" encoding="utf-8"?>
<!-- Generator: Adobe Illustrator 23.0.1, SVG Export Plug-In . SVG Version: 6.00 Build 0)  -->
<svg version="1.1" id="Layer_1" xmlns="http://www.w3.org/2000/svg" xmlns:xlink="http://www.w3.org/1999/xlink" x="0px" y="0px"
	 viewBox="0 0 225.7 382.5" style="enable-background:new 0 0 225.7 382.5;" xml:space="preserve">
<style type="text/css">
	.st0{opacity:0.6;fill:#666666;enable-background:new    ;}
</style>
<path class="st0" d="M190.3,0H35.4C15.9,0,0,15.9,0,35.4v311.7c0,19.6,15.9,35.4,35.4,35.4h154.9c19.6,0,35.4-15.9,35.4-35.4V35.4
	C225.7,15.9,209.9,0,190.3,0z M79,191.3l84.8,84.8c2,2,2,5.3,0,7.4l-3.1,3.1c-2,2-5.3,2-7.4,0L61.7,195c-2-2-2-5.3,0-7.4L153.4,96
	c2-2,5.3-2,7.4,0l3.1,3.1c2,2,2,5.3,0,7.4L79,191.3z"/>
</svg>
