<svg xmlns="http://www.w3.org/2000/svg" width="137.748" height="36.018" viewBox="0 0 137.748 36.018">
  <g id="Group_2039" data-name="Group 2039" transform="translate(-5278.265 3210.488)">
    <g id="Group_1022" data-name="Group 1022" transform="translate(5318.61 -3186.498)">
      <path id="Path_504" data-name="Path 504" d="M5484.72-3088.84l.257-1.267h2.533l-2.118,9.561h-2.534l.278-1.188a3.605,3.605,0,0,1-2.871,1.425c-2.159,0-3.643-1.425-3.643-3.959,0-2.89,1.8-6.077,5.048-6.077a3.586,3.586,0,0,1,3.049,1.5m-5.464,4.058a2.084,2.084,0,0,0,.564,1.587,2.081,2.081,0,0,0,1.554.65,2.859,2.859,0,0,0,2.2-1.148l.732-3.306a2.6,2.6,0,0,0-2.237-1.108,3.086,3.086,0,0,0-2.811,3.326" transform="translate(-5476.624 3092.337)" fill="#606060"/>
      <path id="Path_505" data-name="Path 505" d="M5525.9-3082.03l1.4-1.762a4.876,4.876,0,0,0,3.347,1.5c.852,0,1.384-.455,1.384-.99,0-1.287-4.87-.97-4.87-3.84,0-1.663,1.386-3.227,3.94-3.227a5.786,5.786,0,0,1,4.058,1.544l-1.306,1.683a3.913,3.913,0,0,0-2.811-1.248c-.891,0-1.386.4-1.386.891,0,1.168,4.869.91,4.869,3.821,0,1.821-1.524,3.345-4.137,3.345a6.2,6.2,0,0,1-4.493-1.722" transform="translate(-5515.242 3092.337)" fill="#606060"/>
      <path id="Path_506" data-name="Path 506" d="M5568.31-3082.03l1.4-1.762a4.877,4.877,0,0,0,3.346,1.5c.852,0,1.385-.455,1.385-.99,0-1.287-4.87-.97-4.87-3.84,0-1.663,1.386-3.227,3.94-3.227a5.788,5.788,0,0,1,4.058,1.544l-1.307,1.683a3.908,3.908,0,0,0-2.811-1.248c-.891,0-1.386.4-1.386.891,0,1.168,4.87.91,4.87,3.821,0,1.821-1.523,3.345-4.137,3.345a6.2,6.2,0,0,1-4.493-1.722" transform="translate(-5548.482 3092.337)" fill="#606060"/>
      <path id="Path_507" data-name="Path 507" d="M5612.28-3079.69l2.118-9.562h2.514l-2.119,9.562Z" transform="translate(-5582.938 3091.476)" fill="#606060"/>
      <path id="Path_508" data-name="Path 508" d="M5632.65-3082.03l1.4-1.762a4.876,4.876,0,0,0,3.346,1.5c.852,0,1.386-.455,1.386-.99,0-1.287-4.869-.97-4.869-3.84,0-1.663,1.385-3.227,3.939-3.227a5.79,5.79,0,0,1,4.058,1.544l-1.307,1.683a3.911,3.911,0,0,0-2.812-1.248c-.891,0-1.386.4-1.386.891,0,1.168,4.87.91,4.87,3.821,0,1.821-1.524,3.345-4.137,3.345a6.2,6.2,0,0,1-4.493-1.722" transform="translate(-5598.896 3092.337)" fill="#606060"/>
      <path id="Path_509" data-name="Path 509" d="M5684.24-3099.46c-.192,0-.385.01-.582.01a18.536,18.536,0,0,1-1.913-.1l-.491,2.227h-1.584l-.494,2.2h1.583l-1.068,4.87a3.162,3.162,0,0,0-.08.653c0,1.426,1.148,2.079,2.851,2.079a2.809,2.809,0,0,0,1.564-.416l-.08-2.019a1.3,1.3,0,0,1-.692.2c-.633,0-.931-.316-.931-.832a1.934,1.934,0,0,1,.019-.336l.931-4.2h1.94l.5-2.2h-1.94Z" transform="translate(-5635.361 3099.543)" fill="#606060"/>
    </g>
    <g id="Group_1023" data-name="Group 1023" transform="translate(5318.609 -3210.473)">
      <path id="Path_510" data-name="Path 510" d="M5555.13-3188.42l-2.829-6.458h-2.245v6.458h-6.213v-20.513H5554.8c4.8,0,7.381,3.2,7.381,7.043a6.615,6.615,0,0,1-3.691,6.212l3.721,7.258Zm.738-13.5c0-1.107-.984-1.6-2.03-1.6h-3.782v3.229h3.782c1.046,0,2.03-.492,2.03-1.63" transform="translate(-5526.515 3208.935)" fill="#28529f"/>
      <path id="Path_511" data-name="Path 511" d="M5632.11-3197.06v-11.873h6.193v11.661c0,1.933,1.269,3.474,3.776,3.474,2.477,0,3.746-1.541,3.746-3.474v-11.661h6.193v11.843c0,5.015-3.142,8.67-9.939,8.67s-9.97-3.655-9.97-8.64" transform="translate(-5595.684 3208.935)" fill="#28529f"/>
      <path id="Path_512" data-name="Path 512" d="M5727.77-3200.22c0-6.125,4.7-10.257,10.911-10.257a9.249,9.249,0,0,1,9.008,5.768l-5.173,2.408a4.2,4.2,0,0,0-3.834-2.884,4.743,4.743,0,0,0-3.484,1.439,4.743,4.743,0,0,0-1.333,3.526,4.742,4.742,0,0,0,1.333,3.525,4.74,4.74,0,0,0,3.483,1.439,4.2,4.2,0,0,0,3.835-2.884l5.172,2.379a9.361,9.361,0,0,1-9.008,5.8c-6.213,0-10.911-4.162-10.911-10.256" transform="translate(-5670.654 3210.472)" fill="#28529f"/>
      <path id="Path_513" data-name="Path 513" d="M5835.68-3188.42l-4.614-7.227-1.137,1.538v5.689h-6.212v-20.512h6.212v7.688l5.381-7.688h7.6l-7.75,9.533,8.087,10.979Z" transform="translate(-5745.843 3208.936)" fill="#28529f"/>
      <path id="Path_514" data-name="Path 514" d="M5468.55-3187.98v-15.01h-4.829v-5.38h15.8v5.38h-4.8v15.01Z" transform="translate(-5463.721 3208.492)" fill="#28529f"/>
    </g>
    <g id="Group_1025" data-name="Group 1025" transform="translate(5278.266 -3210.472)">
      <path id="Path_515" data-name="Path 515" d="M5299.38-3208.94h-20.769l18.174,18.161-17.83,17.817h20.769l17.83-17.817Z" transform="translate(-5278.608 3208.935)" fill="#606060"/>
      <path id="Path_516" data-name="Path 516" d="M5355.27-3125.65l10.546,10.222-12.4-8.373Z" transform="translate(-5337.092 3143.808)" fill="#161616"/>
      <path id="Path_517" data-name="Path 517" d="M5307.34-3180.58l10.211-10.2-18.175-18.158h-20.769l18.174,18.158h0Z" transform="translate(-5278.608 3208.935)" fill="#28529f"/>
    </g>
  </g>
</svg>
