<svg xmlns="http://www.w3.org/2000/svg" width="11.791" height="12.5" viewBox="0 0 11.791 12.5"><defs><style>.a{fill:#606060;stroke:#606060;stroke-width:0.5px;}</style></defs><path class="a" d="M1.5,12A1.5,1.5,0,0,1,0,10.5v-9A1.5,1.5,0,0,1,1.5,0H6A.5.5,0,0,1,6,1H1.5a.5.5,0,0,0-.5.5v9a.5.5,0,0,0,.5.5H6a.5.5,0,0,1,0,1ZM7.39,9.353a.5.5,0,0,1,0-.707L9.569,6.5H3.743a.5.5,0,0,1,0-1H9.569L7.4,3.354a.5.5,0,0,1,.7-.713l3.042,3a.5.5,0,0,1,0,.713l-3.042,3a.5.5,0,0,1-.707,0Z" transform="translate(0.25 0.25)"/></svg>