<svg id="Component_487_9" data-name="Component 487 – 9" xmlns="http://www.w3.org/2000/svg" xmlns:xlink="http://www.w3.org/1999/xlink" width="394.176" height="35.732" viewBox="0 0 394.176 35.732">
  <defs>
    <linearGradient id="linear-gradient" x1="0.349" y1="0.5" x2="1.048" y2="0.5" gradientUnits="objectBoundingBox">
      <stop offset="0" stop-color="#334148"/>
      <stop offset="1" stop-color="#fff"/>
    </linearGradient>
  </defs>
  <g id="Logo" transform="translate(0 -113.151)">
    <g id="Group_3040" data-name="Group 3040">
      <path id="Path_1761" data-name="Path 1761" d="M15.433,140.77H9l6.572-27.619H22L15.433,140.77ZM56.6,113.151,35.973,140.77H30.5l-7.532-27.619h7.186l5.215,18.878L49.41,113.151ZM86.8,132.243a7.649,7.649,0,0,0-.675-5.952,5.586,5.586,0,0,0-5.072-2.575H63.735q-1.341,0-.856-2.037.5-2.093,1.839-2.092H88.529l1.531-6.436H66.249a9.092,9.092,0,0,0-6.231,2.521,11.539,11.539,0,0,0-3.628,6.007,7.316,7.316,0,0,0,.741,5.9,5.59,5.59,0,0,0,5.073,2.574H79.526q1.341,0,.843,2.091t-1.839,2.092H54.719l-1.531,6.435H77a9.225,9.225,0,0,0,6.3-2.573A11.578,11.578,0,0,0,86.8,132.243Z" fill="#006c9c"/>
      <path id="Path_1762" data-name="Path 1762" d="M132.824,119.587H109.871l-.983,4.129h21.505l-1.531,6.436H107.356L104.83,140.77H98.341l6.571-27.619h29.442l-1.53,6.436ZM162.16,140.77l-5.942-9.062h2.467a8.891,8.891,0,0,0,6.535-2.9,13.213,13.213,0,0,0,3.5-6.382,9.042,9.042,0,0,0-.466-6.382,5.271,5.271,0,0,0-5.157-2.9H136.339l-6.572,27.619H136.2l5.04-21.183h19.951q1.77,0,1.093,2.842t-2.446,2.842H143.269l10.1,15.5Zm39.363-21.183H178.516l-.983,4.129h21.506l-1.532,6.436H176l-1,4.183h22.953l-1.531,6.435H167.039l6.572-27.619h29.443l-1.531,6.436ZM205.6,140.77l6.571-27.619h-6.435l-6.572,27.619Zm33.036,0H217.29a7.048,7.048,0,0,1-5.789-2.493,6.862,6.862,0,0,1-1.14-6.248l2.411-10.136a10.947,10.947,0,0,1,4.114-6.248,11.171,11.171,0,0,1,6.976-2.494h21.344l-1.531,6.436H222.331a2.846,2.846,0,0,0-3.124,2.306l-2.412,10.136q-.548,2.305,2.027,2.306H233.73l1-4.183h-8.742l1.532-6.436h15.177l-4.058,17.054Zm32.123,0,6.573-27.619h-6.49l-2.513,10.565H251.809l2.514-10.565h-6.436l-6.571,27.619h6.435l2.527-10.618H266.8l-2.527,10.618ZM309.8,119.587H297.358l-5.04,21.183h-6.436l5.04-21.183H278.48l1.531-6.436h31.32Z" fill="#334148"/>
      <path id="Path_1763" data-name="Path 1763" d="M322.444,140.77h-6.436l6.573-27.619h6.435l-6.572,27.619Zm32.125,0,6.571-27.619h-6.434L350.315,131.6l-12.182-18.449H331.7l-6.573,27.619h6.436l4.429-18.609,12.143,18.609Zm33.035,0H366.259a7.044,7.044,0,0,1-5.788-2.493,6.862,6.862,0,0,1-1.141-6.248l2.411-10.136a10.934,10.934,0,0,1,4.115-6.248,11.169,11.169,0,0,1,6.975-2.494h21.345l-1.531,6.436H371.3a2.844,2.844,0,0,0-3.123,2.306l-2.412,10.136q-.549,2.305,2.025,2.306h21.345Z" fill="#334148"/>
      <rect id="Rectangle_1739" data-name="Rectangle 1739" width="387.828" height="2.026" transform="translate(0 146.857)" fill="url(#linear-gradient)"/>
    </g>
  </g>
</svg>
