<svg xmlns="http://www.w3.org/2000/svg" width="14" height="16.004" viewBox="0 0 14 16.004">
  <g id="Group_9739" data-name="Group 9739" transform="translate(-54.799 -125.442)">
    <path id="Path_7970" data-name="Path 7970" d="M54.8,127.943v-1a.5.5,0,0,1,.5-.5h3.75l.293-.584a.741.741,0,0,1,.668-.416h3.572a.752.752,0,0,1,.672.416l.294.585H68.3a.5.5,0,0,1,.5.5v1a.5.5,0,0,1-.5.5h-13A.5.5,0,0,1,54.8,127.943Z" transform="translate(0 0)" fill="#ff5d5d"/>
    <path id="Path_8022" data-name="Path 8022" d="M55.937,129.8l.65,10.8h0a1.468,1.468,0,0,0,1.5,1.334h7.678a1.468,1.468,0,0,0,1.5-1.334l.65-10.8Z" transform="translate(-0.126 -0.484)" fill="#ff5d5d"/>
  </g>
</svg>
