<svg xmlns="http://www.w3.org/2000/svg" width="15" height="12" viewBox="0 0 15 12">
  <g id="Group_16237" data-name="Group 16237" transform="translate(0.001 0.001)">
    <path id="Path_1942" data-name="Path 1942" d="M950.528,532.979a1.407,1.407,0,0,0-1.992,0L940.4,541.21l-2.1-2.125a1.26,1.26,0,0,0-.891-.378H937.4a1.281,1.281,0,0,0-.9.378l-.183.186a1.3,1.3,0,0,0,0,1.819l3.059,3.1a1.264,1.264,0,0,0,1.371.289,1.383,1.383,0,0,0,.786-.382l9-9.109A1.423,1.423,0,0,0,950.528,532.979Z" transform="translate(-935.941 -532.566)" fill="#b7b7b7"/>
  </g>
</svg>
