<svg xmlns="http://www.w3.org/2000/svg" width="16.883" height="23.027" viewBox="0 0 16.883 23.027"><defs><style>.a{fill:#24c1a1;}</style></defs><path class="a" d="M8.182,0h.486a8.341,8.341,0,0,1,5.7,2.449A8.807,8.807,0,0,1,16.834,7.8,9.1,9.1,0,0,1,15.2,14.014c-2.244,3.013-4.535,5.99-6.763,9.013H8.406a3.659,3.659,0,0,0-.5-.759Q4.832,18.2,1.768,14.122A8.959,8.959,0,0,1,0,8.994V8.069A9.154,9.154,0,0,1,2.357,2.688,8.354,8.354,0,0,1,8.182,0m-.6,4.045A5.011,5.011,0,0,0,3.737,7.782a5.213,5.213,0,0,0,.891,4.378,4.783,4.783,0,0,0,7.654.068A5.159,5.159,0,0,0,13.338,8.4a5.065,5.065,0,0,0-2.566-3.844,4.726,4.726,0,0,0-3.193-.511Z"/><circle class="a" cx="6.141" cy="6.141" r="6.141" transform="translate(2.399 3.07)"/></svg>