<?xml version="1.0" encoding="utf-8"?>
<!-- Generator: Adobe Illustrator 23.0.1, SVG Export Plug-In . SVG Version: 6.00 Build 0)  -->
<svg version="1.1" id="Layer_1" xmlns="http://www.w3.org/2000/svg" xmlns:xlink="http://www.w3.org/1999/xlink" x="0px" y="0px"
	 viewBox="0 0 225 381.2" style="enable-background:new 0 0 225 381.2;" xml:space="preserve">
<style type="text/css">
	.st0{opacity:0.6;fill:#666666;enable-background:new    ;}
</style>
<path class="st0" d="M35.3,381.2h154.4c19.5,0,35.3-15.8,35.3-35.3V35.3C225,15.8,209.2,0,189.7,0H35.3C15.8,0,0,15.8,0,35.3v310.6
	C0,365.4,15.8,381.2,35.3,381.2z M146.2,190.6L61.6,106c-2-2-2-5.3,0-7.3l3.1-3.1c2-2,5.3-2,7.3,0l91.3,91.3c2,2,2,5.3,0,7.3
	L72,285.5c-2,2-5.3,2-7.3,0l-3.1-3.1c-2-2-2-5.3,0-7.3L146.2,190.6z"/>
</svg>
