<svg id="Component_1497_1" data-name="Component 1497 – 1" xmlns="http://www.w3.org/2000/svg" width="22" height="22" viewBox="0 0 22 22">
  <circle id="Ellipse_1409" data-name="Ellipse 1409" cx="11" cy="11" r="11" fill="#919191"/>
  <path id="Path_5682" data-name="Path 5682" d="M966.4,535.084a1.119,1.119,0,0,0-1.583,0l-7.641,7.64-2.068-2.068a1,1,0,0,0-1.414,0l-.169.169a1,1,0,0,0,0,1.414l2.826,2.826a1,1,0,0,0,1.092.215,1.1,1.1,0,0,0,.644-.3l8.313-8.313A1.12,1.12,0,0,0,966.4,535.084Z" transform="translate(-949.233 -528.756)" fill="#fff"/>
</svg>
