<svg xmlns="http://www.w3.org/2000/svg" width="36" height="36" viewBox="0 0 36 36"><defs><style>.a{fill:#b7b7b7;}.b{fill:#fff;stroke:#fff;stroke-width:0.4px;}</style></defs><rect class="a" width="36" height="36" rx="18"/><path class="b" d="M-3913.5-2454.94q-1.2-1.2-2.412-2.405a.759.759,0,0,1-.11-1.052,8.6,8.6,0,0,0,1.367-5.809,8.7,8.7,0,0,0-2.909-5.7,8.746,8.746,0,0,0-6.945-2.263,8.7,8.7,0,0,0-5.863,3.041,8.862,8.862,0,0,0-2.188,5.435,8.981,8.981,0,0,0,1.11,4.8,9,9,0,0,0,9,4.58,8.575,8.575,0,0,0,3.738-1.378.726.726,0,0,1,1,.108q1.05,1.055,2.106,2.106,1.08,1.077,2.156,2.158a1.772,1.772,0,0,0,.708.475h.6a1.294,1.294,0,0,0,.942-1,1.268,1.268,0,0,0-.447-1.25Q-3912.58-2454.02-3913.5-2454.94Zm-5.639-3.628a6.151,6.151,0,0,1-4.28,1.786h-.171a6.141,6.141,0,0,1-4.445-1.789,6.537,6.537,0,0,1-2.022-4.637,6.514,6.514,0,0,1,1.943-4.587,6.39,6.39,0,0,1,4.582-1.9,6.554,6.554,0,0,1,6.417,6.5,6.54,6.54,0,0,1-2.025,4.626Z" transform="translate(3940.373 2480.017)"/></svg>