<svg id="Component_590_3" data-name="Component 590 – 3" xmlns="http://www.w3.org/2000/svg" width="21" height="20.333" viewBox="0 0 21 20.333">
  <path id="Path_1789" data-name="Path 1789" d="M8.75,17.612V22.25a.75.75,0,0,0,1.354.444L12.817,19Z" transform="translate(-1.316 -2.667)" fill="#606060" opacity="0.7"/>
  <path id="Path_1790" data-name="Path 1790" d="M20.724.12A.662.662,0,0,0,20.04.074L.353,10.257a.648.648,0,0,0,.091,1.192L5.917,13.3,17.573,3.43,8.553,14.193,17.726,17.3a.677.677,0,0,0,.212.035.664.664,0,0,0,.341-.094.653.653,0,0,0,.308-.459L20.993.746A.648.648,0,0,0,20.724.12Z" transform="translate(0 0)" fill="#606060" opacity="0.7"/>
</svg>
