<svg xmlns="http://www.w3.org/2000/svg" width="26" height="26" viewBox="0 0 26 26">
  <g id="Group_1332" data-name="Group 1332" opacity="0.7">
    <path id="Path_15" data-name="Path 15" d="M1658.6,5310.1l-1.606,1.443a1.466,1.466,0,0,0-.109,2.064l.83.921a10.528,10.528,0,0,0-1.359,2.848l-1.239-.066a1.467,1.467,0,0,0-1.536,1.383l-.114,2.157a1.463,1.463,0,0,0,1.381,1.535l1.239.065a10.483,10.483,0,0,0,1.051,2.976l-.923.83a1.465,1.465,0,0,0-.109,2.063l1.445,1.606a1.467,1.467,0,0,0,2.063.11l.922-.831a10.484,10.484,0,0,0,2.847,1.36l-.066,1.239a1.466,1.466,0,0,0,1.382,1.537l2.157.114a1.465,1.465,0,0,0,1.536-1.381l.065-1.24a10.553,10.553,0,0,0,2.975-1.051l.83.922a1.465,1.465,0,0,0,2.063.109l1.606-1.444a1.464,1.464,0,0,0,.109-2.062l-.829-.923a10.5,10.5,0,0,0,1.359-2.848l1.239.067a1.466,1.466,0,0,0,1.536-1.382l.114-2.158a1.464,1.464,0,0,0-1.382-1.535l-1.239-.066a10.5,10.5,0,0,0-1.052-2.975l.922-.829a1.466,1.466,0,0,0,.109-2.064l-1.444-1.605a1.466,1.466,0,0,0-2.063-.109l-.922.829a10.536,10.536,0,0,0-2.847-1.359l.066-1.239a1.465,1.465,0,0,0-1.382-1.536l-2.157-.114a1.464,1.464,0,0,0-1.536,1.381l-.066,1.239a10.508,10.508,0,0,0-2.975,1.052l-.83-.922A1.464,1.464,0,0,0,1658.6,5310.1Zm3.212,5.185a6.955,6.955,0,1,1-.521,9.823A6.955,6.955,0,0,1,1661.809,5315.287Z" transform="translate(-1653.46 -5307.46)" fill="#606060"/>
    <ellipse id="Ellipse_1" data-name="Ellipse 1" cx="4.417" cy="4.417" rx="4.417" ry="4.417" transform="translate(8.583 8.583)" fill="#606060"/>
  </g>
</svg>
