<svg xmlns="http://www.w3.org/2000/svg" width="36.002" height="36" viewBox="0 0 36.002 36"><defs><style>.a{fill:#b7b7b7;}</style></defs><g transform="translate(0.004)"><path class="a" d="M1660.57,5311.12l-2.224,2a2.029,2.029,0,0,0-.151,2.857l1.149,1.276a14.545,14.545,0,0,0-1.883,3.942l-1.716-.091a2.031,2.031,0,0,0-2.128,1.914l-.158,2.987a2.029,2.029,0,0,0,1.913,2.126l1.716.09a14.54,14.54,0,0,0,1.456,4.121l-1.277,1.147a2.028,2.028,0,0,0-.151,2.857l2,2.225a2.031,2.031,0,0,0,2.857.152l1.277-1.149a14.518,14.518,0,0,0,3.943,1.883l-.091,1.715a2.03,2.03,0,0,0,1.913,2.127l2.987.158a2.028,2.028,0,0,0,2.127-1.913l.091-1.716a14.551,14.551,0,0,0,4.119-1.456l1.149,1.277a2.028,2.028,0,0,0,2.857.149l2.224-2a2.028,2.028,0,0,0,.151-2.856l-1.148-1.277a14.584,14.584,0,0,0,1.883-3.944l1.716.093a2.031,2.031,0,0,0,2.127-1.915l.158-2.987a2.029,2.029,0,0,0-1.914-2.126l-1.716-.091a14.569,14.569,0,0,0-1.456-4.12l1.277-1.147a2.029,2.029,0,0,0,.151-2.858l-2-2.222a2.03,2.03,0,0,0-2.857-.153l-1.277,1.149a14.554,14.554,0,0,0-3.943-1.882l.091-1.715a2.028,2.028,0,0,0-1.913-2.127l-2.987-.158a2.026,2.026,0,0,0-2.127,1.912l-.091,1.715a14.538,14.538,0,0,0-4.119,1.457l-1.149-1.277a2.027,2.027,0,0,0-2.856-.151Zm4.447,7.181a9.631,9.631,0,1,1-.721,13.6,9.631,9.631,0,0,1,.721-13.6Z" transform="translate(-1653.46 -5307.461)"/><circle class="a" cx="4.953" cy="4.953" r="4.953" transform="translate(13.047 13.046)"/></g></svg>