<svg xmlns="http://www.w3.org/2000/svg" width="45.773" height="62.426" viewBox="0 0 45.773 62.426">
  <g id="Group_3620" data-name="Group 3620" transform="translate(-502.995 -391.255)">
    <path id="Path_1855" data-name="Path 1855" d="M548.633,412.392a23.863,23.863,0,0,0-6.7-14.5,22.621,22.621,0,0,0-15.442-6.638h-1.317a22.647,22.647,0,0,0-15.792,7.287A24.807,24.807,0,0,0,503,413.133v2.507a24.3,24.3,0,0,0,4.793,13.9q8.309,11.04,16.624,22.083a9.849,9.849,0,0,1,1.371,2.057h.1c6.04-8.195,12.25-16.263,18.334-24.433A24.669,24.669,0,0,0,548.633,412.392Z" transform="translate(0)" fill="#24c1a1"/>
  </g>
</svg>
