<svg xmlns="http://www.w3.org/2000/svg" width="28" height="26" viewBox="0 0 28 26">
  <g id="Up-1" transform="translate(-670.5 -371.5)">
    <path id="Path_2802" data-name="Path 2802" d="M693.5,371.5h-23v26h28v-21A5,5,0,0,0,693.5,371.5Zm-2.589,16.707a1,1,0,0,1-1.415,0l-5.144-5.141-5.145,5.141a1,1,0,0,1-1.414-1.415l5.851-5.847h0a1,1,0,0,1,1.414,0l5.851,5.847A1,1,0,0,1,690.911,388.207Z" fill="#606060"/>
    <path id="Path_2799" data-name="Path 2799" d="M683.644,380.946l-5.851,5.847a1,1,0,0,0,1.414,1.415h0l5.145-5.141,5.144,5.141a1,1,0,1,0,1.414-1.415l-5.851-5.847a1,1,0,0,0-1.414,0Z" fill="#fff"/>
  </g>
</svg>
