<?xml version="1.0" encoding="utf-8"?>
<!-- Generator: Adobe Illustrator 24.1.1, SVG Export Plug-In . SVG Version: 6.00 Build 0)  -->
<svg version="1.1" id="Layer_1" xmlns="http://www.w3.org/2000/svg" xmlns:xlink="http://www.w3.org/1999/xlink" x="0px" y="0px"
	 viewBox="0 0 163.3 155" style="enable-background:new 0 0 163.3 155;" xml:space="preserve">
<style type="text/css">
	.st0{opacity:0.8;fill:#28529F;enable-background:new    ;}
	.st1{opacity:0.8;fill:#28529F;}
	.st2{font-family:'Calibri';}
	.st3{font-size:34px;}
</style>
<g style="opacity:0.8;">
</g>
<path class="st0" d="M131.4,44.5c4.4-11.3-1.3-24-12.6-28.4c-2.5-1-5.2-1.5-7.9-1.5c-4.3,0-8.6,1.3-12.2,3.7
	C88.7,0.8,66.3-5.2,48.8,4.9c-11.3,6.5-18.3,18.6-18.3,31.7c0,0.6,0,1.2,0,1.9c-17.2,6-26.2,24.8-20.2,41.9
	c4.6,13.2,17.1,22,31.1,22h84.1c16.2,0,29.2-13.1,29.2-29.3C154.8,59.2,145,47.3,131.4,44.5z M99.4,59L97,61.5
	c-2.2,2.1-5.6,2.1-7.8,0c0,0-0.1-0.1-0.1-0.1l-7.4-7.9v28.8c0,3-2.4,5.5-5.5,5.5c0,0,0,0,0,0h-3.7c-3,0-5.5-2.4-5.5-5.5c0,0,0,0,0,0
	V53.5l-7.4,7.9c-2.1,2.2-5.5,2.3-7.8,0.2c0,0-0.1-0.1-0.1-0.1L49.3,59c-2.1-2.1-2.1-5.6,0-7.7c0,0,0,0,0,0l21.2-21.2
	c2.1-2.1,5.6-2.1,7.7,0c0,0,0,0,0,0l21.2,21.2C101.5,53.4,101.5,56.9,99.4,59z"/>
<text transform="matrix(1 0 0 1 6.6907 144.3309)" class="st1 st2 st3">Drop here!</text>
</svg>
