<?xml version="1.0" encoding="utf-8"?>
<!-- Generator: Adobe Illustrator 24.1.1, SVG Export Plug-In . SVG Version: 6.00 Build 0)  -->
<svg version="1.1" id="Layer_1" xmlns="http://www.w3.org/2000/svg" xmlns:xlink="http://www.w3.org/1999/xlink" x="0px" y="0px"
	 viewBox="0 0 178.5 237" style="enable-background:new 0 0 178.5 237;" xml:space="preserve">
<style type="text/css">
	.st0{opacity:0.8;fill:#28529F;enable-background:new    ;}
	.st1{opacity:0.8;fill:#28529F;}
	.st2{font-family:'Calibri';}
	.st3{font-size:60.9606px;}
</style>
<path class="st0" d="M139,44.5c4.4-11.3-1.3-24-12.6-28.4c-2.5-1-5.2-1.5-7.9-1.5c-4.3,0-8.6,1.3-12.2,3.7
	C96.3,0.8,73.9-5.2,56.4,4.9c-11.3,6.5-18.3,18.6-18.3,31.7c0,0.6,0,1.2,0,1.9C21,44.4,12,63.2,18,80.4c4.6,13.2,17.1,22,31.1,22
	h84.1c16.2,0,29.2-13.1,29.2-29.3C162.4,59.2,152.6,47.3,139,44.5z M107,59l-2.5,2.5c-2.2,2.1-5.6,2.1-7.8,0c0,0-0.1-0.1-0.1-0.1
	l-7.4-7.9v28.8c0,3-2.4,5.5-5.5,5.5c0,0,0,0,0,0h-3.7c-3,0-5.5-2.4-5.5-5.5c0,0,0,0,0,0V53.5l-7.4,7.9c-2.1,2.2-5.5,2.3-7.8,0.2
	c0,0-0.1-0.1-0.1-0.1L56.9,59c-2.1-2.1-2.1-5.6,0-7.7c0,0,0,0,0,0l21.2-21.2c2.1-2.1,5.6-2.1,7.7,0c0,0,0,0,0,0L107,51.3
	C109.2,53.4,109.2,56.9,107,59z"/>
<text transform="matrix(1 0 0 1 28.2793 158.0418)" class="st1 st2 st3">Drop</text>
<text transform="matrix(1 0 0 1 22.758 217.9406)" class="st1 st2 st3">here!</text>
</svg>
