<svg xmlns="http://www.w3.org/2000/svg" xmlns:xlink="http://www.w3.org/1999/xlink" width="456" height="94" viewBox="0 0 456 94">
  <defs>
    <filter id="Path_4318" x="227.55" y="12.031" width="51.582" height="49.665" filterUnits="userSpaceOnUse">
      <feOffset input="SourceAlpha"/>
      <feGaussianBlur stdDeviation="0.5" result="blur"/>
      <feFlood flood-opacity="0.09"/>
      <feComposite operator="in" in2="blur"/>
      <feComposite in="SourceGraphic"/>
    </filter>
    <filter id="Path_4313" x="176.5" y="9.793" width="48.926" height="51.946" filterUnits="userSpaceOnUse">
      <feOffset input="SourceAlpha"/>
      <feGaussianBlur stdDeviation="0.5" result="blur-2"/>
      <feFlood flood-opacity="0.09"/>
      <feComposite operator="in" in2="blur-2"/>
      <feComposite in="SourceGraphic"/>
    </filter>
  </defs>
  <g id="Group_6761" data-name="Group 6761" transform="translate(-60 -25)">
    <g id="Component_1508_1" data-name="Component 1508 – 1" transform="translate(60 25)">
      <g id="Rectangle_1713" data-name="Rectangle 1713" fill="#f9f9f9" stroke="#b7b7b7" stroke-width="1" stroke-dasharray="4 5">
        <rect width="456" height="94" rx="5" stroke="none"/>
        <rect x="0.5" y="0.5" width="455" height="93" rx="4.5" fill="none"/>
      </g>
      <g id="Group_2892" data-name="Group 2892" transform="translate(133 67)" opacity="0.7">
        <text id="Drag_Image_here_or_click_to_add" data-name="Drag Image here or click to add" transform="translate(95 12)" fill="#919191" font-size="12" font-family="Montserrat-Regular, Montserrat"><tspan x="-95.1" y="0">Drag Image here or click to add</tspan></text>
      </g>
      <g id="Group_6584" data-name="Group 6584" transform="translate(88.467 11.721)">
        <path id="Path_5530" data-name="Path 5530" d="M87.43,20.482l-.095-.014-.033,0-.038.009a.315.315,0,0,1-.3-.322c0-.08,0-.161,0-.241a7.433,7.433,0,0,0-9.964-7l-.35.128-1.518-.43-.341-.53a9.623,9.623,0,0,0-17.025,1.565l-.076.18.014.014-.445.435a6.287,6.287,0,0,0-9.477.392c-.9,1.125-1.613,1.282-.875.147l.137-.208-.175-.18a8.064,8.064,0,0,0-5.689-2.388,7.958,7.958,0,0,0-7.482,5.15l-.109.284h-.657l-.255-.336a5.664,5.664,0,0,0-10.22,3.376,5.825,5.825,0,0,0,.085.993.326.326,0,0,1-.222.355l-.057.009-.057,0a.645.645,0,0,1-.095-.019.327.327,0,0,1-.194-.208,2.38,2.38,0,1,0-2.308,2.951H87.4a2.055,2.055,0,0,0,.033-4.109" transform="translate(-16.922 -7.33)" fill="#fff"/>
        <line id="Line_2055" data-name="Line 2055" x2="67.935" transform="translate(2.688 17.572)" fill="none" stroke="#b7b7b7" stroke-linecap="round" stroke-miterlimit="10" stroke-width="0.8"/>
        <path id="Path_5531" data-name="Path 5531" d="M32.066,10.292a2.367,2.367,0,0,1,0,4.734" transform="translate(38.409 2.547)" fill="none" stroke="#b7b7b7" stroke-linecap="round" stroke-miterlimit="10" stroke-width="0.8"/>
        <path id="Path_5532" data-name="Path 5532" d="M19.855,15.54A2.693,2.693,0,1,1,22.47,12.2" transform="translate(-17.164 2.032)" fill="none" stroke="#b7b7b7" stroke-linecap="round" stroke-miterlimit="10" stroke-width="0.8"/>
        <path id="Path_5533" data-name="Path 5533" d="M18.363,16.131a5.9,5.9,0,0,1-.095-1.05A5.989,5.989,0,0,1,29.4,12.012" transform="translate(-13.048 -1.901)" fill="none" stroke="#b7b7b7" stroke-linecap="round" stroke-miterlimit="10" stroke-width="0.8"/>
        <path id="Path_5534" data-name="Path 5534" d="M20.621,14.224a8.327,8.327,0,0,1,14.136-2.918" transform="translate(-4.273 -4.109)" fill="none" stroke="#b7b7b7" stroke-linecap="round" stroke-miterlimit="10" stroke-width="0.8"/>
        <path id="Path_5535" data-name="Path 5535" d="M23.386,13.339a6.611,6.611,0,0,1,12.7,0" transform="translate(6.039 -3.901)" fill="none" stroke="#b7b7b7" stroke-linecap="round" stroke-miterlimit="10" stroke-width="0.8"/>
        <path id="Path_5536" data-name="Path 5536" d="M25.709,14.141a9.946,9.946,0,0,1,18.4-.757" transform="translate(14.702 -7.577)" fill="none" stroke="#b7b7b7" stroke-linecap="round" stroke-miterlimit="10" stroke-width="0.8"/>
        <path id="Path_5537" data-name="Path 5537" d="M29.6,9.582a7.766,7.766,0,0,1,11.549,6.777v.251" transform="translate(29.205 -3.77)" fill="none" stroke="#b7b7b7" stroke-linecap="round" stroke-miterlimit="10" stroke-width="0.8"/>
        <path id="Path_5538" data-name="Path 5538" d="M28.153,14.25a5.465,5.465,0,1,1,10.929,0" transform="translate(23.815 -3.08)" fill="none" stroke="#b7b7b7" stroke-linecap="round" stroke-miterlimit="10" stroke-width="0.8"/>
        <path id="Path_5539" data-name="Path 5539" d="M19.992,11.83a3.093,3.093,0,0,1,.515-.932,3.153,3.153,0,0,1,5.439.932" transform="translate(-6.618 0.399)" fill="none" stroke="#b7b7b7" stroke-linecap="round" stroke-miterlimit="10" stroke-width="0.8"/>
      </g>
      <g id="Group_6765" data-name="Group 6765" transform="translate(287.467 8.721)">
        <path id="Path_5530-2" data-name="Path 5530" d="M19.253,20.482l.095-.014.033,0,.038.009a.315.315,0,0,0,.3-.322c0-.08,0-.161,0-.241a7.433,7.433,0,0,1,9.964-7l.35.128,1.518-.43.341-.53a9.623,9.623,0,0,1,17.025,1.565l.076.18-.014.014.445.435a6.287,6.287,0,0,1,9.477.393c.9,1.125,1.613,1.282.875.147l-.137-.208.175-.18A8.064,8.064,0,0,1,65.5,12.041a7.958,7.958,0,0,1,7.482,5.15l.109.284h.657L74,17.139a5.664,5.664,0,0,1,10.22,3.376,5.825,5.825,0,0,1-.085.993.326.326,0,0,0,.222.355l.057.009.057,0a.645.645,0,0,0,.095-.019.327.327,0,0,0,.194-.208,2.38,2.38,0,1,1,2.308,2.951H19.286a2.055,2.055,0,0,1-.033-4.109" transform="translate(-16.921 -7.331)" fill="#fff"/>
        <line id="Line_2055-2" data-name="Line 2055" x1="67.935" transform="translate(2.216 17.572)" fill="none" stroke="#b7b7b7" stroke-linecap="round" stroke-miterlimit="10" stroke-width="0.8"/>
        <path id="Path_5531-2" data-name="Path 5531" d="M34.431,10.292a2.367,2.367,0,0,0,0,4.734" transform="translate(-32.066 2.547)" fill="none" stroke="#b7b7b7" stroke-linecap="round" stroke-miterlimit="10" stroke-width="0.8"/>
        <path id="Path_5532-2" data-name="Path 5532" d="M19.779,15.54A2.693,2.693,0,1,0,17.164,12.2" transform="translate(50.369 2.032)" fill="none" stroke="#b7b7b7" stroke-linecap="round" stroke-miterlimit="10" stroke-width="0.8"/>
        <path id="Path_5533-2" data-name="Path 5533" d="M29.3,16.131a5.9,5.9,0,0,0,.095-1.05,5.989,5.989,0,0,0-11.128-3.069" transform="translate(38.224 -1.901)" fill="none" stroke="#b7b7b7" stroke-linecap="round" stroke-miterlimit="10" stroke-width="0.8"/>
        <path id="Path_5534-2" data-name="Path 5534" d="M34.757,14.224a8.327,8.327,0,0,0-14.136-2.918" transform="translate(21.735 -4.109)" fill="none" stroke="#b7b7b7" stroke-linecap="round" stroke-miterlimit="10" stroke-width="0.8"/>
        <path id="Path_5535-2" data-name="Path 5535" d="M36.089,13.339a6.611,6.611,0,0,0-12.7,0" transform="translate(7.326 -3.901)" fill="none" stroke="#b7b7b7" stroke-linecap="round" stroke-miterlimit="10" stroke-width="0.8"/>
        <path id="Path_5536-2" data-name="Path 5536" d="M44.106,14.141a9.946,9.946,0,0,0-18.4-.757" transform="translate(-11.677 -7.577)" fill="none" stroke="#b7b7b7" stroke-linecap="round" stroke-miterlimit="10" stroke-width="0.8"/>
        <path id="Path_5537-2" data-name="Path 5537" d="M41.147,9.582A7.766,7.766,0,0,0,29.6,16.358v.251" transform="translate(-27.11 -3.77)" fill="none" stroke="#b7b7b7" stroke-linecap="round" stroke-miterlimit="10" stroke-width="0.8"/>
        <path id="Path_5538-2" data-name="Path 5538" d="M39.082,14.25a5.465,5.465,0,1,0-10.929,0" transform="translate(-18.211 -3.08)" fill="none" stroke="#b7b7b7" stroke-linecap="round" stroke-miterlimit="10" stroke-width="0.8"/>
        <path id="Path_5539-2" data-name="Path 5539" d="M25.946,11.83a3.093,3.093,0,0,0-.515-.932,3.153,3.153,0,0,0-5.439.932" transform="translate(33.52 0.399)" fill="none" stroke="#b7b7b7" stroke-linecap="round" stroke-miterlimit="10" stroke-width="0.8"/>
      </g>
      <g id="Group_6585" data-name="Group 6585" transform="translate(84.86 44.305)">
        <path id="Path_5540" data-name="Path 5540" d="M23.068,50.89l1.425,1.425a.858.858,0,0,0,1.134.071l.353-.271a3.811,3.811,0,0,1,3.886-.543c.212.092.423.179.638.261a3.648,3.648,0,0,1,2.285,3.009l.068.543a.858.858,0,0,0,.852.752h2.016a.858.858,0,0,0,.852-.752l.068-.543a3.648,3.648,0,0,1,2.285-3.009c.214-.081.426-.168.638-.261a3.807,3.807,0,0,1,3.886.543l.35.271a.859.859,0,0,0,1.137-.071l1.422-1.425a.855.855,0,0,0,.073-1.134l-.271-.353a3.807,3.807,0,0,1-.545-3.886c.092-.212.179-.423.261-.638a3.649,3.649,0,0,1,3.009-2.285l.543-.068a.865.865,0,0,0,.754-.852V39.658a.865.865,0,0,0-.754-.852l-.543-.068a3.649,3.649,0,0,1-3.009-2.285c-.081-.214-.168-.426-.261-.638a3.807,3.807,0,0,1,.545-3.886l.271-.353a.858.858,0,0,0-.071-1.134l-1.425-1.425a.858.858,0,0,0-1.134-.071l-.35.274a3.829,3.829,0,0,1-3.889.543c-.209-.095-.421-.179-.635-.261A3.659,3.659,0,0,1,36.644,26.5l-.068-.543a.857.857,0,0,0-.852-.754H33.71a.857.857,0,0,0-.852.754l-.068.543A3.661,3.661,0,0,1,30.506,29.5c-.217.081-.429.166-.638.261a3.817,3.817,0,0,1-3.889-.543l-.35-.271a.858.858,0,0,0-1.134.068l-1.425,1.425A.858.858,0,0,0,23,31.577l.274.353a3.812,3.812,0,0,1,.54,3.886c-.092.212-.179.423-.26.638a3.649,3.649,0,0,1-3.009,2.285L20,38.806a.861.861,0,0,0-.752.852v2.016a.857.857,0,0,0,.752.852l.543.068a3.649,3.649,0,0,1,3.009,2.285c.081.214.168.426.26.638a3.817,3.817,0,0,1-.54,3.888l-.274.35a.855.855,0,0,0,.068,1.134M28.7,40.668a6.015,6.015,0,1,1,6.013,6.013A6.013,6.013,0,0,1,28.7,40.668" transform="translate(-19.25 -20.846)" fill="#fff"/>
        <path id="Path_5541" data-name="Path 5541" d="M23.068,50.89l1.425,1.425a.858.858,0,0,0,1.134.071l.353-.271a3.811,3.811,0,0,1,3.886-.543c.212.092.423.179.638.261a3.648,3.648,0,0,1,2.285,3.009l.068.543a.858.858,0,0,0,.852.752h2.016a.858.858,0,0,0,.852-.752l.068-.543a3.648,3.648,0,0,1,2.285-3.009c.214-.081.426-.168.638-.261a3.807,3.807,0,0,1,3.886.543l.35.271a.859.859,0,0,0,1.137-.071l1.422-1.425a.855.855,0,0,0,.073-1.134l-.271-.353a3.807,3.807,0,0,1-.545-3.886c.092-.212.179-.423.261-.638a3.649,3.649,0,0,1,3.009-2.285l.543-.068a.865.865,0,0,0,.754-.852V39.658a.865.865,0,0,0-.754-.852l-.543-.068a3.649,3.649,0,0,1-3.009-2.285c-.081-.214-.168-.426-.261-.638a3.807,3.807,0,0,1,.545-3.886l.271-.353a.858.858,0,0,0-.071-1.134l-1.425-1.425a.858.858,0,0,0-1.134-.071l-.35.274a3.829,3.829,0,0,1-3.889.543c-.209-.095-.421-.179-.635-.261A3.659,3.659,0,0,1,36.644,26.5l-.068-.543a.857.857,0,0,0-.852-.754H33.71a.857.857,0,0,0-.852.754l-.068.543A3.661,3.661,0,0,1,30.506,29.5c-.217.081-.429.166-.638.261a3.817,3.817,0,0,1-3.889-.543l-.35-.271a.858.858,0,0,0-1.134.068l-1.425,1.425A.858.858,0,0,0,23,31.577l.274.353a3.812,3.812,0,0,1,.54,3.886c-.092.212-.179.423-.26.638a3.649,3.649,0,0,1-3.009,2.285L20,38.806a.861.861,0,0,0-.752.852v2.016a.857.857,0,0,0,.752.852l.543.068a3.649,3.649,0,0,1,3.009,2.285c.081.214.168.426.26.638a3.817,3.817,0,0,1-.54,3.888l-.274.35A.855.855,0,0,0,23.068,50.89ZM28.7,40.668a6.015,6.015,0,1,1,6.013,6.013A6.013,6.013,0,0,1,28.7,40.668Z" transform="translate(-19.25 -20.846)" fill="none" stroke="#b7b7b7" stroke-linecap="round" stroke-linejoin="round" stroke-width="0.8"/>
        <path id="Path_5542" data-name="Path 5542" d="M29.835,29.5l-.168.971a.592.592,0,0,0,.41.673l.258.079a1.619,1.619,0,0,1,1.134,1.216c.022.114.049.225.076.339a1.688,1.688,0,0,1-.537,1.653l-.163.147a.6.6,0,0,0-.084.784l.567.8a.592.592,0,0,0,.765.185l.193-.1a1.691,1.691,0,0,1,1.737.052c.1.068.2.128.3.187a1.609,1.609,0,0,1,.763,1.482l-.014.266a.594.594,0,0,0,.494.613l.971.171a.6.6,0,0,0,.673-.412l.079-.255A1.606,1.606,0,0,1,38.5,37.207c.114-.022.228-.046.339-.076a1.7,1.7,0,0,1,1.655.54l.147.16a.592.592,0,0,0,.781.087l.806-.567a.592.592,0,0,0,.182-.765l-.1-.193a1.685,1.685,0,0,1,.052-1.737c.065-.095.125-.2.185-.293a1.622,1.622,0,0,1,1.482-.762l.266.011a.592.592,0,0,0,.616-.494l.168-.971a.6.6,0,0,0-.412-.673L44.41,31.4a1.635,1.635,0,0,1-1.137-1.218c-.022-.114-.046-.225-.073-.339a1.688,1.688,0,0,1,.537-1.653l.163-.147a.594.594,0,0,0,.084-.781l-.567-.806a.589.589,0,0,0-.763-.185l-.2.1a1.691,1.691,0,0,1-1.737-.052c-.1-.065-.2-.128-.3-.185a1.642,1.642,0,0,1-.763-1.482l.014-.266a.591.591,0,0,0-.494-.616l-.971-.168a.592.592,0,0,0-.673.41l-.079.258a1.61,1.61,0,0,1-1.216,1.137c-.114.019-.225.043-.339.073a1.7,1.7,0,0,1-1.655-.537l-.144-.163a.6.6,0,0,0-.784-.087l-.806.567a.6.6,0,0,0-.182.768l.1.19a1.684,1.684,0,0,1-.054,1.739c-.065.095-.125.193-.182.29a1.628,1.628,0,0,1-1.482.762L30.449,29a.6.6,0,0,0-.613.494m5.191,1.4a2.38,2.38,0,1,1,1.937,2.752A2.378,2.378,0,0,1,35.026,30.9Z" transform="translate(-1.416 -23.594)" fill="#fff"/>
        <path id="Path_5543" data-name="Path 5543" d="M29.835,29.5l-.168.971a.592.592,0,0,0,.41.673l.258.079a1.619,1.619,0,0,1,1.134,1.216c.022.114.049.225.076.339a1.688,1.688,0,0,1-.537,1.653l-.163.147a.6.6,0,0,0-.084.784l.567.8a.592.592,0,0,0,.765.185l.193-.1a1.691,1.691,0,0,1,1.737.052c.1.068.2.128.3.187a1.609,1.609,0,0,1,.763,1.482l-.014.266a.594.594,0,0,0,.494.613l.971.171a.6.6,0,0,0,.673-.412l.079-.255A1.606,1.606,0,0,1,38.5,37.207c.114-.022.228-.046.339-.076a1.7,1.7,0,0,1,1.655.54l.147.16a.592.592,0,0,0,.781.087l.806-.567a.592.592,0,0,0,.182-.765l-.1-.193a1.685,1.685,0,0,1,.052-1.737c.065-.095.125-.2.185-.293a1.622,1.622,0,0,1,1.482-.762l.266.011a.592.592,0,0,0,.616-.494l.168-.971a.6.6,0,0,0-.412-.673L44.41,31.4a1.635,1.635,0,0,1-1.137-1.218c-.022-.114-.046-.225-.073-.339a1.688,1.688,0,0,1,.537-1.653l.163-.147a.594.594,0,0,0,.084-.781l-.567-.806a.589.589,0,0,0-.763-.185l-.2.1a1.691,1.691,0,0,1-1.737-.052c-.1-.065-.2-.128-.3-.185a1.642,1.642,0,0,1-.763-1.482l.014-.266a.591.591,0,0,0-.494-.616l-.971-.168a.592.592,0,0,0-.673.41l-.079.258a1.61,1.61,0,0,1-1.216,1.137c-.114.019-.225.043-.339.073a1.7,1.7,0,0,1-1.655-.537l-.144-.163a.6.6,0,0,0-.784-.087l-.806.567a.6.6,0,0,0-.182.768l.1.19a1.684,1.684,0,0,1-.054,1.739c-.065.095-.125.193-.182.29a1.628,1.628,0,0,1-1.482.762L30.449,29A.6.6,0,0,0,29.835,29.5Zm5.191,1.4a2.38,2.38,0,1,1,1.937,2.752A2.378,2.378,0,0,1,35.026,30.9Z" transform="translate(-1.416 -23.594)" fill="none" stroke="#b7b7b7" stroke-linecap="round" stroke-linejoin="round" stroke-width="0.8"/>
      </g>
      <g id="Group_6587" data-name="Group 6587" transform="translate(23.367 61.687)">
        <g id="Group_6586" data-name="Group 6586" transform="translate(0 0)">
          <path id="Path_4295" data-name="Path 4295" d="M71.607,69.384a.283.283,0,0,1-.283-.161,2.264,2.264,0,0,0-2.5-1.518.286.286,0,0,0-.11.039l-.828-.152a4.435,4.435,0,0,0-3.954-2.444c-.107,0-.211.012-.319.021l-.688-.56a.244.244,0,0,0,0-.146,10.057,10.057,0,0,0-9.563-6.919,9.9,9.9,0,0,0-4.957,1.307.236.236,0,0,0-.122.211l-3.311.393a.253.253,0,0,0-.223-.176c-.179-.009-.363-.018-.551-.018a9.508,9.508,0,0,0-8.39,5.019.241.241,0,0,0-.006.2l-4.558,2.248a.268.268,0,0,0-.11-.051,3.662,3.662,0,0,0-.664-.065,3.594,3.594,0,0,0-3.361,2.3.255.255,0,0,1-.232.161l-.057.006a.245.245,0,0,1-.113,0,2.555,2.555,0,0,0-.476-.045,2.382,2.382,0,1,0,0,4.763H71.577a2.208,2.208,0,0,0,.03-4.415" transform="translate(-23.594 -57.291)" fill="#fff"/>
          <path id="Path_4296" data-name="Path 4296" d="M26.1,63.793a5.052,5.052,0,0,1,9.325-.988" transform="translate(-19.138 -52.206)" fill="none" stroke="#b7b7b7" stroke-linecap="round" stroke-miterlimit="10" stroke-width="0.8"/>
          <path id="Path_4297" data-name="Path 4297" d="M24.865,62.959a3.866,3.866,0,0,1,3.6-2.453,3.912,3.912,0,0,1,1.313.226" transform="translate(-21.581 -51.435)" fill="none" stroke="#b7b7b7" stroke-linecap="round" stroke-miterlimit="10" stroke-width="0.8"/>
          <path id="Path_4298" data-name="Path 4298" d="M26.4,66.59a2.636,2.636,0,1,1,.533-5.219" transform="translate(-23.762 -49.829)" fill="none" stroke="#b7b7b7" stroke-linecap="round" stroke-miterlimit="10" stroke-width="0.8"/>
          <path id="Path_4299" data-name="Path 4299" d="M35.847,63.054a4.676,4.676,0,0,1,8.9.479" transform="translate(0.132 -52.39)" fill="none" stroke="#b7b7b7" stroke-linecap="round" stroke-miterlimit="10" stroke-width="0.8"/>
          <path id="Path_4300" data-name="Path 4300" d="M27.667,65.089A9.785,9.785,0,0,1,39.51,59.6a10.342,10.342,0,0,1,16.264,5.448" transform="translate(-16.041 -57.459)" fill="none" stroke="#b7b7b7" stroke-linecap="round" stroke-miterlimit="10" stroke-width="0.8"/>
          <path id="Path_4301" data-name="Path 4301" d="M38.738,61.035a2.606,2.606,0,0,1,3.382,1.542" transform="translate(5.848 -50.731)" fill="none" stroke="#b7b7b7" stroke-linecap="round" stroke-miterlimit="10" stroke-width="0.8"/>
          <path id="Path_4302" data-name="Path 4302" d="M39.88,61.435a2.462,2.462,0,1,1,0,4.924" transform="translate(8.107 -49.598)" fill="none" stroke="#b7b7b7" stroke-linecap="round" stroke-miterlimit="10" stroke-width="0.8"/>
          <path id="Path_4303" data-name="Path 4303" d="M30.4,62.215a4.007,4.007,0,1,1,8.015,0" transform="translate(-10.648 -55.984)" fill="none" stroke="#b7b7b7" stroke-linecap="round" stroke-miterlimit="10" stroke-width="0.8"/>
          <line id="Line_1465" data-name="Line 1465" x2="45.346" transform="translate(2.638 16.761)" fill="none" stroke="#b7b7b7" stroke-linecap="round" stroke-miterlimit="10" stroke-width="0.8"/>
        </g>
      </g>
      <g id="Group_6588" data-name="Group 6588" transform="translate(383.551 61.586)">
        <path id="Path_5544" data-name="Path 5544" d="M182.778,47.894a.328.328,0,0,1-.322-.185,2.64,2.64,0,0,0-2.877-1.748.342.342,0,0,0-.123.048l-.958-.174a5.079,5.079,0,0,0-4.537-2.809c-.123,0-.243.014-.366.021l-.79-.64a.292.292,0,0,0,0-.171,11.559,11.559,0,0,0-10.99-7.948,11.414,11.414,0,0,0-5.7,1.5.3.3,0,0,0-.137.243l-3.8.452a.282.282,0,0,0-.253-.2c-.209-.014-.421-.024-.633-.024a10.925,10.925,0,0,0-9.642,5.772.291.291,0,0,0-.01.233L136.4,44.845a.24.24,0,0,0-.127-.058,4.261,4.261,0,0,0-.76-.075,4.13,4.13,0,0,0-3.866,2.634.284.284,0,0,1-.267.185l-.068.007a.269.269,0,0,1-.127.007,2.978,2.978,0,0,0-.551-.055,2.739,2.739,0,1,0,0,5.478h52.111a2.537,2.537,0,0,0,.031-5.074" transform="translate(-127.604 -33.996)" fill="#fff"/>
        <path id="Path_5545" data-name="Path 5545" d="M130.149,41.081a5.808,5.808,0,0,1,10.716-1.136" transform="translate(-122.146 -27.768)" fill="none" stroke="#b7b7b7" stroke-linecap="round" stroke-miterlimit="10" stroke-width="0.8"/>
        <path id="Path_5546" data-name="Path 5546" d="M128.912,40.068a4.449,4.449,0,0,1,5.638-2.559" transform="translate(-125.142 -26.824)" fill="none" stroke="#b7b7b7" stroke-linecap="round" stroke-miterlimit="10" stroke-width="0.8"/>
        <path id="Path_5547" data-name="Path 5547" d="M130.841,44.12a3.03,3.03,0,1,1,.612-6" transform="translate(-127.81 -24.858)" fill="none" stroke="#b7b7b7" stroke-linecap="round" stroke-miterlimit="10" stroke-width="0.8"/>
        <path id="Path_5548" data-name="Path 5548" d="M139.9,40.249a5.371,5.371,0,0,1,10.23.554" transform="translate(-98.547 -27.993)" fill="none" stroke="#b7b7b7" stroke-linecap="round" stroke-miterlimit="10" stroke-width="0.8"/>
        <path id="Path_5549" data-name="Path 5549" d="M131.714,42.971a11.249,11.249,0,0,1,13.614-6.312,11.882,11.882,0,0,1,18.688,6.261" transform="translate(-118.357 -34.202)" fill="none" stroke="#b7b7b7" stroke-linecap="round" stroke-miterlimit="10" stroke-width="0.8"/>
        <path id="Path_5550" data-name="Path 5550" d="M142.785,37.8a3.011,3.011,0,0,1,3.89,1.772" transform="translate(-91.549 -25.96)" fill="none" stroke="#b7b7b7" stroke-linecap="round" stroke-miterlimit="10" stroke-width="0.8"/>
        <path id="Path_5551" data-name="Path 5551" d="M143.927,38.178a2.83,2.83,0,0,1,0,5.659" transform="translate(-88.784 -24.575)" fill="none" stroke="#b7b7b7" stroke-linecap="round" stroke-miterlimit="10" stroke-width="0.8"/>
        <path id="Path_5552" data-name="Path 5552" d="M134.443,39.553a4.605,4.605,0,0,1,9.21,0" transform="translate(-111.749 -32.396)" fill="none" stroke="#b7b7b7" stroke-linecap="round" stroke-miterlimit="10" stroke-width="0.8"/>
        <line id="Line_2060" data-name="Line 2060" x2="52.111" transform="translate(3.029 19.261)" fill="none" stroke="#b7b7b7" stroke-linecap="round" stroke-miterlimit="10" stroke-width="0.8"/>
      </g>
      <g id="Group_6589" data-name="Group 6589" transform="translate(336.345 51.016)">
        <path id="Path_5553" data-name="Path 5553" d="M122.729,21.958l-.245-.312A3.382,3.382,0,0,1,122,18.2c.082-.186.16-.372.23-.565a3.242,3.242,0,0,1,2.668-2.025l.479-.059a.759.759,0,0,0,.665-.754V13.011a.762.762,0,0,0-.665-.754L124.9,12.2a3.242,3.242,0,0,1-2.668-2.025c-.071-.189-.149-.379-.23-.565a3.383,3.383,0,0,1,.479-3.444l.245-.312a.761.761,0,0,0-.063-1.007L121.4,3.585a.765.765,0,0,0-1.007-.063l-.308.242a3.381,3.381,0,0,1-3.448.483c-.186-.085-.372-.16-.561-.234a3.223,3.223,0,0,1-2.025-2.664L113.99.869A.756.756,0,0,0,113.236.2h-1.783a.756.756,0,0,0-.754.669l-.063.479a3.223,3.223,0,0,1-2.025,2.664c-.189.074-.375.149-.561.234a3.4,3.4,0,0,1-3.448-.483l-.308-.242a.757.757,0,0,0-1.007.063l-1.263,1.26a.761.761,0,0,0-.063,1.007l.242.308a3.389,3.389,0,0,1,.479,3.448c-.078.186-.16.375-.227.565a3.237,3.237,0,0,1-2.668,2.021l-.479.063a.762.762,0,0,0-.665.754V14.8a.762.762,0,0,0,.665.754l.479.059a3.24,3.24,0,0,1,2.668,2.025c.067.193.149.379.227.565a3.383,3.383,0,0,1-.479,3.444l-.242.312a.761.761,0,0,0,.063,1.007l1.263,1.26a.752.752,0,0,0,1,.063l.312-.242a3.383,3.383,0,0,1,3.444-.479c.189.082.375.156.565.23a3.228,3.228,0,0,1,2.025,2.664l.063.483a.756.756,0,0,0,.754.665h1.783a.756.756,0,0,0,.754-.665l.063-.483a3.228,3.228,0,0,1,2.025-2.664c.189-.074.375-.149.561-.23a3.389,3.389,0,0,1,3.448.479l.308.242a.757.757,0,0,0,1.007-.063l1.26-1.26a.757.757,0,0,0,.067-1.007m-10.385-2.723a5.33,5.33,0,1,1,5.332-5.328,5.335,5.335,0,0,1-5.332,5.328" transform="translate(-98.641 -0.2)" fill="#fff"/>
        <path id="Path_5554" data-name="Path 5554" d="M122.729,21.958l-.245-.312A3.382,3.382,0,0,1,122,18.2c.082-.186.16-.372.23-.565a3.242,3.242,0,0,1,2.668-2.025l.479-.059a.759.759,0,0,0,.665-.754V13.011a.762.762,0,0,0-.665-.754L124.9,12.2a3.242,3.242,0,0,1-2.668-2.025c-.071-.189-.149-.379-.23-.565a3.383,3.383,0,0,1,.479-3.444l.245-.312a.761.761,0,0,0-.063-1.007L121.4,3.585a.765.765,0,0,0-1.007-.063l-.308.242a3.381,3.381,0,0,1-3.448.483c-.186-.085-.372-.16-.561-.234a3.223,3.223,0,0,1-2.025-2.664L113.99.869A.756.756,0,0,0,113.236.2h-1.783a.756.756,0,0,0-.754.669l-.063.479a3.223,3.223,0,0,1-2.025,2.664c-.189.074-.375.149-.561.234a3.4,3.4,0,0,1-3.448-.483l-.308-.242a.757.757,0,0,0-1.007.063l-1.263,1.26a.761.761,0,0,0-.063,1.007l.242.308a3.389,3.389,0,0,1,.479,3.448c-.078.186-.16.375-.227.565a3.237,3.237,0,0,1-2.668,2.021l-.479.063a.762.762,0,0,0-.665.754V14.8a.762.762,0,0,0,.665.754l.479.059a3.24,3.24,0,0,1,2.668,2.025c.067.193.149.379.227.565a3.383,3.383,0,0,1-.479,3.444l-.242.312a.761.761,0,0,0,.063,1.007l1.263,1.26a.752.752,0,0,0,1,.063l.312-.242a3.383,3.383,0,0,1,3.444-.479c.189.082.375.156.565.23a3.228,3.228,0,0,1,2.025,2.664l.063.483a.756.756,0,0,0,.754.665h1.783a.756.756,0,0,0,.754-.665l.063-.483a3.228,3.228,0,0,1,2.025-2.664c.189-.074.375-.149.561-.23a3.389,3.389,0,0,1,3.448.479l.308.242a.757.757,0,0,0,1.007-.063l1.26-1.26A.757.757,0,0,0,122.729,21.958Zm-10.385-2.723a5.33,5.33,0,1,1,5.332-5.328A5.335,5.335,0,0,1,112.344,19.235Z" transform="translate(-98.641 -0.2)" fill="none" stroke="#b7b7b7" stroke-linecap="round" stroke-linejoin="round" stroke-width="0.8"/>
      </g>
      <g id="Group_6763" data-name="Group 6763" transform="translate(3.927)">
        <g id="Group_6677" data-name="Group 6677" transform="translate(225.124 13.531)">
          <g transform="matrix(1, 0, 0, 1, -229.05, -13.53)" filter="url(#Path_4318)">
            <path id="Path_4318-2" data-name="Path 4318" d="M129.229,54.165l-34.1,9.224a2.866,2.866,0,0,1-3.517-2.02L82.354,27.134a2.869,2.869,0,0,1,2.019-3.517l25.112-6.793,14.082,8.085L130.76,51.5a2.172,2.172,0,0,1-1.531,2.664" transform="translate(146.8 -3.29)" fill="#fff"/>
          </g>
          <path id="Path_4319" data-name="Path 4319" d="M109.162,27.342l8.986-2.431-14.082-8.086,2.431,8.986a2.173,2.173,0,0,0,2.665,1.531" transform="translate(-76.836 -16.825)" fill="#f9d96e"/>
          <path id="Path_4320" data-name="Path 4320" d="M97.806,46.466l-2.623.71.738,2.73-1.749.474L91.66,41.1c1.458-.395,2.913-.8,4.371-1.2a3.4,3.4,0,1,1,1.775,6.563m-3.057-.894,2.625-.71a1.7,1.7,0,1,0-.89-3.288l-2.625.71Z" transform="translate(-79.917 -11.13)" fill="#f9d96e"/>
          <path id="Path_4321" data-name="Path 4321" d="M105.119,37.595l1.75-.473,2.514,9.293-1.087.293,0,.014-6.575-4.95,1.693,6.257-1.75.473-2.511-9.281,1.418-.383,6.1,4.523Z" transform="translate(-78.055 -11.783)" fill="#f9d96e"/>
          <path id="Path_4322" data-name="Path 4322" d="M114.2,37.46a3.682,3.682,0,0,0-2.61-.288,3.279,3.279,0,0,0-2.27,4.283,3.045,3.045,0,0,0,4.035,2.24,3.2,3.2,0,0,0,1.894-1.31l-.446-1.644-2.373.643-.423-1.566,3.979-1.076,1.057,3.911a4.789,4.789,0,0,1-3.247,2.67c-3.487.944-5.527-.966-6.186-3.406a4.887,4.887,0,0,1,3.547-6.351,5.065,5.065,0,0,1,3.83.486Z" transform="translate(-76.009 -12.213)" fill="#f9d96e"/>
        </g>
        <g id="Group_6678" data-name="Group 6678" transform="translate(174.073 11.293)">
          <g id="Group_6669" data-name="Group 6669">
            <g transform="matrix(1, 0, 0, 1, -178, -11.29)" filter="url(#Path_4313)">
              <path id="Path_4313-2" data-name="Path 4313" d="M77.889,63.907,43.71,54.992a2.867,2.867,0,0,1-2.051-3.5l8.95-34.32a2.867,2.867,0,0,1,3.5-2.05L79.278,21.69,87.491,35.7,80.54,62.353a2.175,2.175,0,0,1-2.652,1.554" transform="translate(136.43 -3.74)" fill="#fff"/>
            </g>
            <path id="Path_4314" data-name="Path 4314" d="M71.46,32.024l9.009,2.35L72.256,20.365l-2.35,9.007a2.174,2.174,0,0,0,1.554,2.652" transform="translate(-34.543 -13.707)" fill="#ffbc81"/>
            <path id="Path_4315" data-name="Path 4315" d="M56.054,42.287a4.02,4.02,0,0,1-5.18,3.092,3.9,3.9,0,0,1-3.021-5.118l1.728.452a2.171,2.171,0,0,0,1.725,3.019,2.318,2.318,0,0,0,2.992-1.9l.964-3.7-2.8-.732.424-1.635,4.56,1.19Z" transform="translate(-40.049 -9.881)" fill="#ffbc81"/>
            <path id="Path_4316" data-name="Path 4316" d="M60.187,44.83l-2.63-.687-.714,2.738-1.754-.457,2.426-9.3c1.462.381,2.928.749,4.389,1.131a3.4,3.4,0,1,1-1.717,6.578m-2.211-2.295,2.63.687a1.7,1.7,0,1,0,.86-3.3l-2.632-.687Z" transform="translate(-38.206 -9.545)" fill="#ffbc81"/>
            <path id="Path_4317" data-name="Path 4317" d="M71.118,42.984A3.693,3.693,0,0,0,69,41.437a3.28,3.28,0,0,0-4.1,2.593,3.046,3.046,0,0,0,2.392,3.947,3.2,3.2,0,0,0,2.293-.2l.429-1.648-2.378-.62.409-1.568,3.986,1.04L71.008,48.9a4.789,4.789,0,0,1-4.145.707c-3.5-.911-4.318-3.582-3.679-6.027a4.887,4.887,0,0,1,6.23-3.753A5.068,5.068,0,0,1,72.5,42.152Z" transform="translate(-36.244 -8.922)" fill="#ffbc81"/>
          </g>
        </g>
      </g>
      <g id="Group_6764" data-name="Group 6764" transform="translate(64.712 38.5)">
        <line id="Line_1459" data-name="Line 1459" x1="6.929" y2="0.052" transform="translate(4.595)" fill="none" stroke="#b7b7b7" stroke-linecap="round" stroke-miterlimit="10" stroke-width="1.2"/>
        <line id="Line_1460" data-name="Line 1460" transform="translate(2 0.052)" fill="none" stroke="#b7b7b7" stroke-linecap="round" stroke-miterlimit="10" stroke-width="1.2"/>
        <line id="Line_1461" data-name="Line 1461" transform="translate(19 0.052)" fill="none" stroke="#b7b7b7" stroke-linecap="round" stroke-miterlimit="10" stroke-width="1.2"/>
        <line id="Line_1462" data-name="Line 1462" transform="translate(0 0.052)" fill="none" stroke="#b7b7b7" stroke-linecap="round" stroke-miterlimit="10" stroke-width="1.2"/>
        <line id="Line_1463" data-name="Line 1463" x1="1.678" transform="translate(13.833 0.052)" fill="none" stroke="#b7b7b7" stroke-linecap="round" stroke-miterlimit="10" stroke-width="1.2"/>
      </g>
      <g id="Group_6766" data-name="Group 6766" transform="translate(295.828 44.156)">
        <line id="Line_1455" data-name="Line 1455" x1="15.88" transform="translate(5.832)" fill="none" stroke="#b7b7b7" stroke-linecap="round" stroke-miterlimit="10" stroke-width="1.2"/>
        <line id="Line_1456" data-name="Line 1456" transform="translate(3.443 0)" fill="none" stroke="#b7b7b7" stroke-linecap="round" stroke-miterlimit="10" stroke-width="1.2"/>
        <line id="Line_1457" data-name="Line 1457" x1="1.14" transform="translate(24.529 0)" fill="none" stroke="#b7b7b7" stroke-linecap="round" stroke-miterlimit="10" stroke-width="1.2"/>
        <line id="Line_1458" data-name="Line 1458" x1="0.835" transform="translate(0 0)" fill="none" stroke="#b7b7b7" stroke-linecap="round" stroke-miterlimit="10" stroke-width="1.2"/>
      </g>
    </g>
  </g>
</svg>
