<svg xmlns="http://www.w3.org/2000/svg" xmlns:xlink="http://www.w3.org/1999/xlink" width="521.024" height="336" viewBox="0 0 521.024 336">
  <defs>
    <clipPath id="clip-path">
      <path id="Path_16770" data-name="Path 16770" d="M596.462,622.625c-20.93-20.731-42.189-40.985-59.06-57.175-18.479-17.617-31.31-28.938-41.813-34.992a67.439,67.439,0,0,0-15.442-6.679,30.554,30.554,0,0,0-13.446-1.188,29.922,29.922,0,0,0-12.882,5.75c-4.424,3.209-9.142,7.943-14.472,13.074A154.674,154.674,0,0,1,421.2,556.942a108.087,108.087,0,0,1-21.109,11.282c-14.949,6.133-30.637,10.315-48.747,17.213-18.31,6.962-39.237,16.5-61.328,25.788-19.194,8.15-41.065,16.983-61.852,27.994-20.517,10.919-39.953,24.015-48.032,38.582-4.758,7.083-5.312,27.363,1.983,41.524,3.994,9.142,11.823,15.924,26.716,17.911,21.023,3.635,48.114.317,77.9-2.031,29.806-2.634,62.312-4.3,94.48-3.965,64.736.538,127.021,8.619,172.061,8.441,45.812,1.5,74.018-9.552,86.907-23.239a38.779,38.779,0,0,0,11.73-29.725C640.239,668.26,619.342,645.39,596.462,622.625Z" transform="translate(-176.589 -522.284)" fill="none"/>
    </clipPath>
  </defs>
  <g id="Group_33129" data-name="Group 33129" transform="translate(-416.001 -80.001)">
    <g id="Group_33177" data-name="Group 33177" transform="translate(416.001 80.001)">
      <circle id="Ellipse_3072" data-name="Ellipse 3072" cx="111.922" cy="111.922" r="111.922" transform="translate(74.579 99.695)" fill="#e1e1e1"/>
      <path id="Path_16744" data-name="Path 16744" d="M596.462,622.625c-20.93-20.731-42.189-40.985-59.06-57.175-18.479-17.617-31.31-28.938-41.813-34.992a67.439,67.439,0,0,0-15.442-6.679,30.554,30.554,0,0,0-13.446-1.188,29.922,29.922,0,0,0-12.882,5.75c-4.424,3.209-9.142,7.943-14.472,13.074A154.674,154.674,0,0,1,421.2,556.942a108.087,108.087,0,0,1-21.109,11.282c-14.949,6.133-30.637,10.315-48.747,17.213-18.31,6.962-39.237,16.5-61.328,25.788-19.194,8.15-41.065,16.983-61.852,27.994-20.517,10.919-39.953,24.015-48.032,38.582-4.758,7.083-5.312,27.363,1.983,41.524,3.994,9.142,11.823,15.924,26.716,17.911,21.023,3.635,48.114.317,77.9-2.031,29.806-2.634,62.312-4.3,94.48-3.965,64.736.538,127.021,8.619,172.061,8.441,45.812,1.5,74.018-9.552,86.907-23.239a38.779,38.779,0,0,0,11.73-29.725C640.239,668.26,619.342,645.39,596.462,622.625Z" transform="translate(-146.535 -403.818)" fill="#f9f9f9"/>
      <circle id="Ellipse_3073" data-name="Ellipse 3073" cx="6.311" cy="6.311" r="6.311" transform="translate(111.34 241.853)" fill="none" stroke="#ededed" stroke-miterlimit="10" stroke-width="2"/>
      <path id="Path_16745" data-name="Path 16745" d="M298.2,439.152l8.347-1.73-8.221-1.7-1.85-13.3-1.874,13.477-8.2,1.531,8.324,1.555,1.747,13.453Z" transform="translate(-210.831 -345.347)" fill="#f9f9f9"/>
      <path id="Path_16746" data-name="Path 16746" d="M1028.141,420.913l5.174-1.04-5.1-1.024-1.147-8-1.162,8.1-5.081.921,5.16.935,1.083,8.086Z" transform="translate(-640.815 -338.577)" fill="#ededed"/>
      <g id="Group_33129-2" data-name="Group 33129" transform="translate(439.71 130.988)">
        <path id="Path_16747" data-name="Path 16747" d="M1164.838,552.492Z" transform="translate(-1164.838 -552.492)" fill="#cbd4e4"/>
      </g>
      <g id="Group_33130" data-name="Group 33130" transform="translate(308.491 159.291)">
        <path id="Path_16748" data-name="Path 16748" d="M849.928,620.768a1.7,1.7,0,0,0,0,3.4A1.7,1.7,0,0,0,849.928,620.768Z" transform="translate(-848.288 -620.768)" fill="#fff"/>
      </g>
      <g id="Group_33131" data-name="Group 33131" transform="translate(143.218 219.763)">
        <path id="Path_16749" data-name="Path 16749" d="M451.223,766.651a1.7,1.7,0,0,0,0,3.4A1.7,1.7,0,0,0,451.223,766.651Z" transform="translate(-449.583 -766.651)" fill="#fff"/>
      </g>
      <g id="Group_33132" data-name="Group 33132" transform="translate(45.108 233.041)">
        <path id="Path_16750" data-name="Path 16750" d="M214.545,798.682a1.7,1.7,0,0,0,0,3.395A1.7,1.7,0,0,0,214.545,798.682Z" transform="translate(-212.905 -798.682)" fill="#fff"/>
      </g>
      <g id="Group_33133" data-name="Group 33133" transform="translate(355.462 199.679)">
        <path id="Path_16751" data-name="Path 16751" d="M963.24,718.2a1.7,1.7,0,0,0,0,3.4A1.7,1.7,0,0,0,963.24,718.2Z" transform="translate(-961.6 -718.2)" fill="#fff"/>
      </g>
      <g id="Group_33134" data-name="Group 33134" transform="translate(400.93 214.11)">
        <path id="Path_16752" data-name="Path 16752" d="M1071.372,755.172a1.7,1.7,0,0,0,3.242-1.011A1.7,1.7,0,0,0,1071.372,755.172Z" transform="translate(-1071.286 -753.013)" fill="#fff"/>
      </g>
      <g id="Group_33135" data-name="Group 33135" transform="translate(113.145 97.778)">
        <path id="Path_16753" data-name="Path 16753" d="M377.124,474.534a1.7,1.7,0,0,0,3.241-1.011A1.7,1.7,0,0,0,377.124,474.534Z" transform="translate(-377.038 -472.375)" fill="#fff"/>
      </g>
      <g id="Group_33136" data-name="Group 33136" transform="translate(365.037 186.636)">
        <path id="Path_16754" data-name="Path 16754" d="M984.784,688.9a1.7,1.7,0,0,0,3.241-1.011A1.7,1.7,0,0,0,984.784,688.9Z" transform="translate(-984.698 -686.737)" fill="#fff"/>
      </g>
      <g id="Group_33137" data-name="Group 33137" transform="translate(387.787 138.179)">
        <path id="Path_16755" data-name="Path 16755" d="M1039.666,572a1.7,1.7,0,0,0,3.242-1.011A1.7,1.7,0,0,0,1039.666,572Z" transform="translate(-1039.58 -569.839)" fill="#fff"/>
      </g>
      <g id="Group_33138" data-name="Group 33138" transform="translate(0 251.082)">
        <path id="Path_16756" data-name="Path 16756" d="M107.905,842.2c-5.087,0-5.1,7.907,0,7.907S113,842.2,107.905,842.2Z" transform="translate(-104.087 -842.205)" fill="#f9f9f9"/>
      </g>
      <g id="Group_33139" data-name="Group 33139" transform="translate(10.712 272.126)">
        <path id="Path_16757" data-name="Path 16757" d="M131.568,892.972a1.7,1.7,0,0,0,0,3.395A1.7,1.7,0,0,0,131.568,892.972Z" transform="translate(-129.928 -892.972)" fill="#fff"/>
      </g>
      <g id="Group_33140" data-name="Group 33140" transform="translate(47.648 154.176)">
        <path id="Path_16758" data-name="Path 16758" d="M220.672,608.43a1.7,1.7,0,0,0,0,3.395A1.7,1.7,0,0,0,220.672,608.43Z" transform="translate(-219.032 -608.43)" fill="#fff"/>
      </g>
      <g id="Group_33141" data-name="Group 33141" transform="translate(466.302 172.912)">
        <path id="Path_16759" data-name="Path 16759" d="M1230.628,653.629a1.7,1.7,0,0,0,0,3.395A1.7,1.7,0,0,0,1230.628,653.629Z" transform="translate(-1228.988 -653.629)" fill="#fff"/>
      </g>
      <path id="Path_16760" data-name="Path 16760" d="M633.589,353.327l5.223-1.082-5.144-1.066-1.158-8.325-1.173,8.433-5.129.958,5.208.973,1.093,8.418Z" transform="translate(-409.775 -298.766)" fill="#f9f9f9"/>
      <circle id="Ellipse_3074" data-name="Ellipse 3074" cx="6.84" cy="6.84" r="6.84" transform="translate(25.665 134.515)" fill="none" stroke="#f9f9f9" stroke-miterlimit="10" stroke-width="2"/>
      <circle id="Ellipse_3075" data-name="Ellipse 3075" cx="3.731" cy="3.731" r="3.731" transform="translate(436.872 143.196)" fill="#f9f9f9"/>
      <circle id="Ellipse_3076" data-name="Ellipse 3076" cx="1.865" cy="1.865" r="1.865" transform="translate(434.799 158.119)" fill="#fff"/>
      <g id="Group_33151" data-name="Group 33151" transform="translate(30.054 118.466)">
        <g id="Group_33150" data-name="Group 33150" clip-path="url(#clip-path)">
          <g id="Group_33149" data-name="Group 33149" transform="translate(-148.954 174.026)">
            <g id="Group_33148" data-name="Group 33148" transform="translate(0)">
              <path id="Path_16761" data-name="Path 16761" d="M98.906,950.722a112.735,112.735,0,0,0-23.849-.948c-25.917,1.587-47.52,10.777-51.739,21.348-.265.664-1.656,1.061-2.626.723a28,28,0,0,0-17.838-.292c-6.031,2.146-8.7,6.4-7.4,10.678l-3.72,1.518c-4.33-1.363-8.266-1.684-11.1-.674-3.9,1.389-4.894,5-3.287,9.546.12.339-.122.71-.641.955-31.406,14.865-58.914,32.382-81.308,51.786-5.65,4.9-13.849,8.834-23.3,11.345q-3.572.95-7.023,2.174c-28.8,10.248-38.921,31.111-22.612,46.6.713.677,1.474,1.327,2.264,1.958a.549.549,0,0,1,.2.706c-8.626,17.566-13.362,35.823-13.611,54.4a112.708,112.708,0,0,0,.8,14.994c.642,5.335-2.321,10.927-8.84,15.414-3.9,2.685-6.062,6.026-5.561,9.4.943,6.362,10.982,10.58,22.98,9.966a1.724,1.724,0,0,1,1.632.586l.007.014c.2.419-.209.884-.955,1.117-18.247,5.7-28.2,16.915-22.533,26.3,4.174,6.911,15.745,11.057,29.421,11.454,13.7.4,25.345,4.465,32.248,10.572,31.255,27.651,75.818,49.385,129.03,62.825,2.873.725,4.975,2.053,5.974,3.713l.015.026c8.872,14.689,38.282,21.34,65.689,14.855l.16-.038a136.265,136.265,0,0,1,36.143-3.688c19.039.68,38.618.443,58.6-.781a614.729,614.729,0,0,0,75.881-9.384,112.356,112.356,0,0,1,34.275-1.386,34.873,34.873,0,0,0,12.339-.607c5.51-1.3,9.713-3.862,12.221-7.028a2.474,2.474,0,0,1,1.987-.609,55.187,55.187,0,0,0,17.1-1.173c8.349-1.976,14.94-5.9,19.553-11.121,4.781-5.417,11.9-10.238,20.57-14.066,62.272-27.506,110.559-65.207,136.08-107.613,4.558-7.573,14.827-13.9,27.838-17.77,4.438-1.32,7.68-3.153,9.077-5.385,2.02-3.231-.228-6.658-5.455-9.525-8.761-4.806-13.564-11.44-12.523-18.665a115.683,115.683,0,0,0,1.182-14.958c.7-52.236-34.158-97.573-91.676-129.4-4.775-2.643-7.87-6.1-8.766-9.947-1.107-4.751-4.51-8.367-10.394-10.378a40.551,40.551,0,0,0-15.127-1.624,60.722,60.722,0,0,1-22.078-2.483c-55.736-18.625-123.518-27.385-196.771-22.9a617.109,617.109,0,0,0-63.45,7.186A61.376,61.376,0,0,1,98.906,950.722Z" transform="translate(182.746 -942.103)" fill="#e1e1e1"/>
              <g id="Group_33142" data-name="Group 33142" transform="translate(269.815 39.605)">
                <ellipse id="Ellipse_3077" data-name="Ellipse 3077" cx="40.819" cy="22.037" rx="40.819" ry="22.037" transform="translate(0 7.499) rotate(-5.27)" fill="#f2f2f2"/>
              </g>
              <g id="Group_33143" data-name="Group 33143" transform="translate(606.263 86.25)">
                <ellipse id="Ellipse_3078" data-name="Ellipse 3078" cx="11.579" cy="6.252" rx="11.579" ry="6.252" transform="translate(0 2.127) rotate(-5.27)" fill="#f2f2f2"/>
              </g>
              <g id="Group_33144" data-name="Group 33144" transform="translate(525.287 39.751)">
                <ellipse id="Ellipse_3079" data-name="Ellipse 3079" cx="24.759" cy="13.367" rx="24.759" ry="13.367" transform="translate(0 4.549) rotate(-5.27)" fill="#f2f2f2"/>
              </g>
              <g id="Group_33145" data-name="Group 33145" transform="translate(565.695 167.918)">
                <ellipse id="Ellipse_3080" data-name="Ellipse 3080" cx="39.944" cy="23.391" rx="39.944" ry="23.391" transform="translate(0 27.563) rotate(-20.183)" fill="#f2f2f2"/>
              </g>
              <g id="Group_33146" data-name="Group 33146" transform="translate(164.214 296.726)">
                <ellipse id="Ellipse_3081" data-name="Ellipse 3081" cx="16.978" cy="31.392" rx="16.978" ry="31.392" transform="matrix(0.011, -1, 1, 0.011, 0, 33.955)" fill="#f2f2f2"/>
              </g>
              <g id="Group_33147" data-name="Group 33147" transform="translate(203.675 338.649)">
                <ellipse id="Ellipse_3082" data-name="Ellipse 3082" cx="8.275" cy="15.3" rx="8.275" ry="15.3" transform="matrix(0.011, -1, 1, 0.011, 0, 16.549)" fill="#f2f2f2"/>
              </g>
              <ellipse id="Ellipse_3083" data-name="Ellipse 3083" cx="7.365" cy="5.055" rx="7.365" ry="5.055" transform="translate(650.796 167.764) rotate(-3.87)" fill="#f2f2f2"/>
              <ellipse id="Ellipse_3084" data-name="Ellipse 3084" cx="10.038" cy="5.78" rx="10.038" ry="5.78" transform="translate(616.315 262.692) rotate(-5.024)" fill="#f2f2f2"/>
              <path id="Path_16762" data-name="Path 16762" d="M512.218,1047.975c22.388-2.538,42.147,5.157,44.133,17.187a13.486,13.486,0,0,1-2.174,9.468c2.669-3.47,3.894-7.247,3.267-11.047-1.986-12.031-21.745-19.725-44.133-17.187-16.375,1.857-29.611,8.675-34.768,16.911C484.325,1055.789,496.9,1049.712,512.218,1047.975Z" transform="translate(-204.421 -1002.881)" fill="#f9f9f9"/>
              <path id="Path_16763" data-name="Path 16763" d="M1291.757,1153.566c6.351-.72,11.956,1.463,12.52,4.876a3.725,3.725,0,0,1-.463,2.416,4.127,4.127,0,0,0,1.094-3.327c-.563-3.413-6.168-5.6-12.52-4.876-4.823.547-8.683,2.612-10.017,5.067C1284.075,1155.68,1287.545,1154.043,1291.757,1153.566Z" transform="translate(-675.041 -1065.295)" fill="#f9f9f9"/>
              <path id="Path_16764" data-name="Path 16764" d="M1110.391,1044.885c13.58-1.539,25.565,3.128,26.769,10.425a8.025,8.025,0,0,1-1.066,5.325,8.71,8.71,0,0,0,2.159-6.9c-1.2-7.3-13.189-11.965-26.769-10.425-10.209,1.157-18.41,5.494-21.342,10.675C1093.72,1049.517,1101.241,1045.923,1110.391,1044.885Z" transform="translate(-562.496 -1001.183)" fill="#f9f9f9"/>
              <path id="Path_16765" data-name="Path 16765" d="M1210.288,1391.87c11.984-13.861,35.855-22.195,53.319-18.613,15.815,3.243,20.951,15.145,12.881,27.658,9.57-13.077,4.691-25.857-11.788-29.237-17.464-3.582-41.336,4.752-53.319,18.613a35.142,35.142,0,0,0-2.956,3.924C1209,1393.434,1209.613,1392.651,1210.288,1391.87Z" transform="translate(-631.747 -1193.121)" fill="#d9d9d9"/>
              <path id="Path_16766" data-name="Path 16766" d="M223.005,1665.728c11.644-6.856,31.5-7.226,44.34-.826,9.389,4.677,12.4,11.673,8.814,17.778,5.168-6.443,2.488-14.271-7.721-19.357-12.844-6.4-32.7-6.03-44.34.826a18.166,18.166,0,0,0-6.642,6.222A20.044,20.044,0,0,1,223.005,1665.728Z" transform="translate(-51.562 -1361.683)" fill="#d9d9d9"/>
              <path id="Path_16767" data-name="Path 16767" d="M312.384,1763.669c5.676-3.341,15.351-3.521,21.61-.4,4.356,2.17,5.9,5.365,4.533,8.234,2.945-3.207,1.738-7.233-3.44-9.813-6.259-3.119-15.935-2.939-21.61.4a8.424,8.424,0,0,0-3.474,3.463A10.3,10.3,0,0,1,312.384,1763.669Z" transform="translate(-105.745 -1420.644)" fill="#d9d9d9"/>
              <path id="Path_16768" data-name="Path 16768" d="M1393.876,1347.2c4.037-.458,7.679,1.409,8.135,4.171a3.594,3.594,0,0,1-.242,1.979,4.076,4.076,0,0,0,1.335-3.558c-.456-2.761-4.1-4.628-8.135-4.171-3.044.345-5.442,1.914-6.243,3.849A8.707,8.707,0,0,1,1393.876,1347.2Z" transform="translate(-737.309 -1178.313)" fill="#d9d9d9"/>
              <path id="Path_16769" data-name="Path 16769" d="M1313.675,1575.226c5.505-.624,10.391,1.428,10.911,4.583a3.543,3.543,0,0,1-.283,2.011,4.189,4.189,0,0,0,1.376-3.59c-.521-3.156-5.406-5.208-10.912-4.583-4.313.489-7.716,2.477-8.742,4.833A12.851,12.851,0,0,1,1313.675,1575.226Z" transform="translate(-688.89 -1311.79)" fill="#d9d9d9"/>
            </g>
          </g>
        </g>
      </g>
      <g id="Group_33153" data-name="Group 33153" transform="translate(91.163 18.277)">
        <g id="Group_33152" data-name="Group 33152" transform="translate(14.436)">
          <path id="Path_16771" data-name="Path 16771" d="M366.3,313.478c-1.1-2.618-2.122-5.269-3.016-7.965s-1.721-5.417-2.364-8.187a49.7,49.7,0,0,1-1.342-8.433,19.329,19.329,0,0,1,.189-4.309,7.522,7.522,0,0,1,.675-2.11,3.5,3.5,0,0,1,1.632-1.65,3.542,3.542,0,0,1,2.34-.074,7.666,7.666,0,0,1,2.034.948,19.589,19.589,0,0,1,3.33,2.812,47.853,47.853,0,0,1,5.321,6.766,97.973,97.973,0,0,1,13.206,31.481,47.484,47.484,0,0,1,1.1,8.538,19.57,19.57,0,0,1-.328,4.347,7.655,7.655,0,0,1-.749,2.116,3.546,3.546,0,0,1-1.694,1.619,3.5,3.5,0,0,1-2.323.008,7.526,7.526,0,0,1-1.979-1,19.311,19.311,0,0,1-3.207-2.886,49.6,49.6,0,0,1-5.074-6.869c-1.526-2.4-2.9-4.893-4.183-7.424S367.4,316.1,366.3,313.478Zm0,0a93.214,93.214,0,0,0,7.924,15.046,46.92,46.92,0,0,0,5.24,6.662,18.828,18.828,0,0,0,3.2,2.7,6.9,6.9,0,0,0,1.836.857,2.42,2.42,0,0,0,3.12-1.366,6.845,6.845,0,0,0,.6-1.9,18.667,18.667,0,0,0,.175-4.137,49.193,49.193,0,0,0-1.325-8.3c-.635-2.742-1.449-5.444-2.344-8.117s-1.9-5.31-2.994-7.912-2.258-5.173-3.544-7.682-2.636-4.986-4.146-7.362a48.88,48.88,0,0,0-4.993-6.764,18.688,18.688,0,0,0-3.075-2.774,6.847,6.847,0,0,0-1.782-.906,2.424,2.424,0,0,0-3.165,1.27,6.911,6.911,0,0,0-.676,1.911,18.851,18.851,0,0,0-.314,4.175,46.86,46.86,0,0,0,1.082,8.407A93.267,93.267,0,0,0,366.3,313.478Z" transform="translate(-359.248 -280.587)" fill="#fff"/>
          <circle id="Ellipse_3085" data-name="Ellipse 3085" cx="17.626" cy="17.626" r="17.626" transform="translate(0 10.932)" fill="#f9f9f9"/>
          <path id="Path_16772" data-name="Path 16772" d="M366,281.619a3.212,3.212,0,0,1,2.118-.133,7.357,7.357,0,0,1,1.988.864,18.918,18.918,0,0,1,3.353,2.717,45.586,45.586,0,0,1,5.375,6.7,94.178,94.178,0,0,1,13.2,31.462,45.574,45.574,0,0,1,1.013,8.531,18.94,18.94,0,0,1-.412,4.3,7.367,7.367,0,0,1-.778,2.024,3.212,3.212,0,0,1-1.579,1.417,3.1,3.1,0,0,0,1.384-1.522,7.117,7.117,0,0,0,.574-2,19.319,19.319,0,0,0,.091-4.188,51.524,51.524,0,0,0-1.411-8.309c-.68-2.733-1.469-5.442-2.392-8.107-.9-2.672-1.911-5.308-3.006-7.908s-2.259-5.172-3.533-7.687c-1.254-2.526-2.633-4.988-4.107-7.388a51.529,51.529,0,0,0-4.939-6.83,19.371,19.371,0,0,0-3.053-2.87,7.129,7.129,0,0,0-1.827-.991A3.1,3.1,0,0,0,366,281.619Z" transform="translate(-363.028 -281.045)" fill="#fff"/>
        </g>
        <path id="Path_16773" data-name="Path 16773" d="M350.276,338.96c-2.628-1.074-5.226-2.226-7.765-3.5s-5.047-2.613-7.46-4.117a49.646,49.646,0,0,1-6.912-5.015,19.3,19.3,0,0,1-2.913-3.181,7.517,7.517,0,0,1-1.014-1.969,3.5,3.5,0,0,1-.012-2.321,3.54,3.54,0,0,1,1.6-1.707,7.648,7.648,0,0,1,2.109-.768,19.558,19.558,0,0,1,4.343-.366,47.831,47.831,0,0,1,8.547,1.022,97.964,97.964,0,0,1,31.6,12.922,47.515,47.515,0,0,1,6.815,5.26,19.561,19.561,0,0,1,2.842,3.306,7.653,7.653,0,0,1,.966,2.026,3.547,3.547,0,0,1-.053,2.343,3.5,3.5,0,0,1-1.637,1.648,7.508,7.508,0,0,1-2.1.694,19.337,19.337,0,0,1-4.307.227,49.6,49.6,0,0,1-8.445-1.269c-2.776-.618-5.507-1.412-8.207-2.292S352.9,340.036,350.276,338.96Zm0,0A93.243,93.243,0,0,0,366.518,344,46.936,46.936,0,0,0,374.934,345a18.842,18.842,0,0,0,4.172-.351,6.916,6.916,0,0,0,1.9-.693,2.421,2.421,0,0,0,1.24-3.172,6.86,6.86,0,0,0-.922-1.772,18.669,18.669,0,0,0-2.8-3.049,49.164,49.164,0,0,0-6.807-4.934c-2.388-1.489-4.874-2.824-7.4-4.082s-5.1-2.408-7.712-3.477-5.254-2.061-7.938-2.925-5.39-1.662-8.137-2.274a48.813,48.813,0,0,0-8.314-1.252,18.675,18.675,0,0,0-4.136.212,6.855,6.855,0,0,0-1.9.619,2.424,2.424,0,0,0-1.34,3.136,6.9,6.9,0,0,0,.874,1.829,18.828,18.828,0,0,0,2.73,3.174,46.824,46.824,0,0,0,6.71,5.18A93.307,93.307,0,0,0,350.276,338.96Z" transform="translate(-324.007 -301.329)" fill="#fff"/>
        <path id="Path_16774" data-name="Path 16774" d="M325.289,319.2a3.21,3.21,0,0,1,1.4-1.591,7.352,7.352,0,0,1,2.016-.8,18.922,18.922,0,0,1,4.292-.449,45.562,45.562,0,0,1,8.539.937,94.186,94.186,0,0,1,31.578,12.915,45.564,45.564,0,0,1,6.749,5.316,18.932,18.932,0,0,1,2.746,3.329,7.35,7.35,0,0,1,.881,1.981,3.21,3.21,0,0,1-.114,2.119,3.1,3.1,0,0,0-.1-2.055,7.133,7.133,0,0,0-1.007-1.818,19.361,19.361,0,0,0-2.9-3.026,51.538,51.538,0,0,0-6.873-4.878c-2.413-1.452-4.887-2.81-7.424-4.041-2.526-1.254-5.1-2.4-7.717-3.467s-5.254-2.059-7.934-2.937c-2.673-.9-5.389-1.666-8.128-2.32a51.543,51.543,0,0,0-8.322-1.337,19.389,19.389,0,0,0-4.188.129,7.125,7.125,0,0,0-1.993.592A3.1,3.1,0,0,0,325.289,319.2Z" transform="translate(-324.758 -301.534)" fill="#fff"/>
      </g>
      <path id="Path_16775" data-name="Path 16775" d="M664.567,324.689a49.279,49.279,0,0,1,7.071-.26,28.667,28.667,0,0,1,7.006,1.107A15.487,15.487,0,0,1,684.859,329a12.8,12.8,0,0,1,3.576,6.172,29.831,29.831,0,0,1,.822,7.082q.079,3.543-.047,7.086a121.366,121.366,0,0,1-1.3,14.114c-.677,4.687-1.862,9.27-2.169,13.913a22.306,22.306,0,0,0,.471,6.86,12.265,12.265,0,0,0,3.252,5.845,14.131,14.131,0,0,0,5.841,3.358,35.26,35.26,0,0,0,6.817,1.317c2.325.262,4.675.415,7.033.683a49.466,49.466,0,0,1,20.112,6.838,45.632,45.632,0,0,1,5.809,4.127,23.854,23.854,0,0,1,4.768,5.332,16.9,16.9,0,0,1,1.6,3.219,23.275,23.275,0,0,1,1,3.435c.5,2.327.749,4.681,1.038,7.014a39.833,39.833,0,0,0,1.314,6.889,25.85,25.85,0,0,0,2.917,6.343,23.059,23.059,0,0,0,4.573,5.265,19.253,19.253,0,0,0,6.023,3.48,18.092,18.092,0,0,0,13.609-.7,14.753,14.753,0,0,0,1.518-.851,3.379,3.379,0,0,0,.663-.5,2.164,2.164,0,0,0,.435-.667,2.264,2.264,0,0,0,.048-1.574,2.153,2.153,0,0,0-.995-1.206,5,5,0,0,0-3.282-.306,4.007,4.007,0,0,0-2.6,1.947,6.009,6.009,0,0,0-.789,3.248,8.667,8.667,0,0,0,.78,3.309,10.023,10.023,0,0,0,1.945,2.81,18.364,18.364,0,0,0,2.634,2.257c1.889,1.36,3.955,2.515,5.9,3.868a56.694,56.694,0,0,1,5.616,4.358,34.481,34.481,0,0,1,8.682,11.244,23.714,23.714,0,0,1,1.972,6.906,23.084,23.084,0,0,1-.287,7.19,27.123,27.123,0,0,1-2.328,6.8,32.529,32.529,0,0,1-3.91,6.018,36.167,36.167,0,0,1-11.033,9.05,54.378,54.378,0,0,1-13.385,4.9,102.67,102.67,0,0,1-14.046,2.138c-2.354.213-4.708.383-7.063.535s-4.724.267-7.1.269a52.7,52.7,0,0,1-7.134-.444c-1.184-.166-2.366-.369-3.532-.651l-.438-.1a4.8,4.8,0,0,1-.48-.141,4.721,4.721,0,0,1-.919-.433,4.633,4.633,0,0,1-1.464-1.406,4.289,4.289,0,0,1-.691-1.935,3.444,3.444,0,0,1,.454-2.073,4.531,4.531,0,0,1,1.418-1.457,7.182,7.182,0,0,1,1.741-.835,9.074,9.074,0,0,1,3.738-.418,20.015,20.015,0,0,1,3.582.656,23.7,23.7,0,0,1,6.55,3.045,30,30,0,0,1,5.471,4.661,48.278,48.278,0,0,1,7.762,11.938c2.071,4.269,3.762,8.664,5.72,12.935,1.929,4.289,3.985,8.533,5.822,12.885.917,2.177,1.765,4.386,2.5,6.634a56.529,56.529,0,0,1,1.76,6.871,52.75,52.75,0,0,1,.65,14.111l-.124-.009a52.451,52.451,0,0,0-.944-14.02,67.966,67.966,0,0,0-4.464-13.32c-1.89-4.3-4.006-8.509-6-12.782-2.042-4.259-3.75-8.664-5.833-12.855a47.249,47.249,0,0,0-7.671-11.613,25.533,25.533,0,0,0-11.528-7.283,18.805,18.805,0,0,0-3.359-.609,7.822,7.822,0,0,0-3.232.364,4.431,4.431,0,0,0-2.464,1.734,2.169,2.169,0,0,0-.286,1.321,3.035,3.035,0,0,0,.49,1.356,3.363,3.363,0,0,0,1.066,1.018,3.416,3.416,0,0,0,.677.318,3.5,3.5,0,0,0,.367.107l.422.1c1.124.27,2.267.464,3.414.623a51.451,51.451,0,0,0,6.96.42c2.334-.006,4.674-.124,7.018-.278s4.69-.329,7.027-.544a106.9,106.9,0,0,0,13.879-2.07,53.133,53.133,0,0,0,13.1-4.725A34.978,34.978,0,0,0,787.04,500.8a28.708,28.708,0,0,0,6.1-12.3,22.068,22.068,0,0,0,.34-6.869,22.755,22.755,0,0,0-1.831-6.646,33.645,33.645,0,0,0-8.368-11.038,55.983,55.983,0,0,0-5.5-4.352c-1.908-1.354-3.954-2.522-5.876-3.935a18.952,18.952,0,0,1-2.7-2.362,10.611,10.611,0,0,1-2.024-2.993,9.217,9.217,0,0,1-.793-3.532,6.527,6.527,0,0,1,.9-3.517,4.729,4.729,0,0,1,1.235-1.378,4.662,4.662,0,0,1,1.683-.761,5.429,5.429,0,0,1,3.613.364,2.605,2.605,0,0,1,1.2,1.46,2.708,2.708,0,0,1-.066,1.882,2.6,2.6,0,0,1-.527.8,3.789,3.789,0,0,1-.745.561,15.156,15.156,0,0,1-1.564.869,18.491,18.491,0,0,1-13.917.667,19.643,19.643,0,0,1-6.162-3.52,23.483,23.483,0,0,1-4.685-5.339,26.324,26.324,0,0,1-3-6.441,43.346,43.346,0,0,1-1.394-6.961c-.319-2.336-.593-4.673-1.116-6.946a22.618,22.618,0,0,0-1.017-3.328,16.216,16.216,0,0,0-1.579-3.074,23.175,23.175,0,0,0-4.682-5.1,44.868,44.868,0,0,0-5.747-3.978,49.943,49.943,0,0,0-12.9-5.3,48.226,48.226,0,0,0-6.873-1.248c-2.324-.255-4.676-.4-7.034-.655a36.352,36.352,0,0,1-7.038-1.336,15.224,15.224,0,0,1-6.267-3.655,13.341,13.341,0,0,1-3.506-6.36,23.326,23.326,0,0,1-.465-7.183c.342-4.775,1.557-9.357,2.245-13.988a130.338,130.338,0,0,0,1.424-14q.164-3.517.129-7.042a29.176,29.176,0,0,0-.717-6.929,12.391,12.391,0,0,0-3.331-5.943,15.009,15.009,0,0,0-5.96-3.456,28.344,28.344,0,0,0-6.9-1.218,50.646,50.646,0,0,0-7.044.1Z" transform="translate(-432.233 -287.959)"/>
      <path id="Path_16776" data-name="Path 16776" d="M526.385,270.78" transform="translate(-351.331 -256.569)" fill="#dce2ed"/>
      <path id="Path_16777" data-name="Path 16777" d="M578.721,392.244l4.441-61.652a14.628,14.628,0,0,0-13.539-15.641l-34.4-2.478a14.439,14.439,0,0,0-15.471,15.713L524.472,389a14.627,14.627,0,0,0,13.539,15.641l25.069,1.138A14.628,14.628,0,0,0,578.721,392.244Z" transform="translate(-347.42 -280.957)" fill="#bbc7dd"/>
      <ellipse id="Ellipse_3086" data-name="Ellipse 3086" cx="2.806" cy="8.679" rx="2.806" ry="8.679" transform="translate(213.207 50.955) rotate(-81.83)" fill="#d9d9d9"/>
      <circle id="Ellipse_3087" data-name="Ellipse 3087" cx="25.212" cy="25.212" r="25.212" transform="translate(197.622 0.003)" fill="#a9b8d3"/>
      <g id="Group_33154" data-name="Group 33154" transform="translate(210.312 19.588)">
        <path id="Path_16778" data-name="Path 16778" d="M623.017,302.325l5.924-2.53s3.853-.447,3.907-3.132,1.176-3.938.158-7.823-1.373-2.967-4.411-3.776-9.641-3.349-14.353,2.009-2.087,8.322-1.952,8.858.578,3.781.946,4.991.315,2.083,1.781,3.246,8.95-.312,7.461-.141C620.453,304.258,623.017,302.325,623.017,302.325Z" transform="translate(-611.44 -283.751)"/>
        <path id="Path_16779" data-name="Path 16779" d="M634.271,287.747s.573,12.2.505,15.531-4.326,6.55-3.693,5.5c.523-.87,5.109,22.465,5.109,22.465l-19.669-17.79,3.007-11.823-1.08-1.659s-.949-.3-1.591-.568a3.714,3.714,0,0,1-1.41-3.213c.212-1.213.949-2.719,2.072-2.323s.858-1.237.858-1.237a15.614,15.614,0,0,1,2.892-4.347c.032-.032-.025-.094-.032-.114a2.514,2.514,0,0,0,1.674.884,19.286,19.286,0,0,0,7.479-.263A31.442,31.442,0,0,0,634.271,287.747Z" transform="translate(-613.77 -286.091)" fill="#ffac43"/>
      </g>
      <path id="Path_16780" data-name="Path 16780" d="M615.686,284.616A17.772,17.772,0,0,0,613.848,283,6.371,6.371,0,0,1,615.686,284.616Z" transform="translate(-402.538 -263.723)"/>
      <g id="Group_33155" data-name="Group 33155" transform="translate(217.683 29.707)">
        <path id="Path_16781" data-name="Path 16781" d="M629.347,308.167s.249-.079.744.351c1.048,1.747,1.684,3.88,3.417,4.928a6.326,6.326,0,0,0,1.549.626,7.944,7.944,0,0,0,5.151,0,4.231,4.231,0,0,0,2.651-3.4,3.121,3.121,0,0,1,1.083,2.331,9.226,9.226,0,0,1-.38,2.64c-.3,1.217-.794,3.291,1.618,3.864-5.049,2-6.944,1.084-9.226.869a8.592,8.592,0,0,1-2.374-.528A7.088,7.088,0,0,1,629.4,312.9a15.735,15.735,0,0,0,.2-3,3.841,3.841,0,0,0-.378-1.232A3.341,3.341,0,0,0,629.347,308.167Z" transform="translate(-629.223 -308.161)"/>
        <path id="Path_16782" data-name="Path 16782" d="M662.05,312.55a3.017,3.017,0,0,1,.027.7l-.018-.015Z" transform="translate(-648.442 -310.731)"/>
      </g>
      <path id="Path_16783" data-name="Path 16783" d="M608.933,288.2c.039-2.066,2-3.506,3.783-4.551l-2.9-1.2a17.433,17.433,0,0,1,3.629.983,6.329,6.329,0,0,0-.638-1c.364.366.716.742,1.046,1.137a4.027,4.027,0,0,1,2.471-3.191,11.852,11.852,0,0,1,4.135-.82l3.363-.257a3.194,3.194,0,0,1,1.872.236,1.105,1.105,0,0,1,.392,1.616l2.71-1.276a2.471,2.471,0,0,1,1.741-.339c.578.183.9,1.064.4,1.4a4.793,4.793,0,0,1,2.49-.6,5.842,5.842,0,0,1-3.46,3.364,1.232,1.232,0,0,0-.165.042c-.087.028-.178.055-.274.08l-.1.023c-.066.017-.132.033-.2.047l-.122.025-.2.037-.136.022-.206.031-.143.019-.218.026-.148.016-.238.022-.14.012c-.1.008-.2.014-.3.021l-.089.006c-.13.007-.262.014-.4.019l-.153.005-.257.008-.186,0-.23,0-.2,0h-.428l-.217,0-.213,0-.209,0-.22,0-.2-.006-.224-.007c-.384-.048-.766-.105-1.146-.166l-.032.112c-2.194-.122-3.988-.338-3.988-.338l-.066-.045-.02-.013s0,0,0,0l.041.03.044.032.564.4a5.946,5.946,0,0,0,2.141.885l.054.01-1.5,5.681-2.19-.541s-.783,1.834.252,2.984l-3.753,10.346c-1.341-.137-.012.05-.986-.882a4.737,4.737,0,0,1-1.372-4.889,2.658,2.658,0,0,1-1.908.791c-.7-.088-1.283-.983-.834-1.531a2.614,2.614,0,0,1,.732-.477c1.312-.792,1.145-2.778.455-4.147S608.9,289.731,608.933,288.2Z" transform="translate(-399.66 -261.54)"/>
      <path id="Path_16784" data-name="Path 16784" d="M629.535,286.231s4.156,4.225,15.427-.053-3.4-.034-3.777-.542S629.535,286.231,629.535,286.231Z" transform="translate(-411.723 -264.454)"/>
      <ellipse id="Ellipse_3088" data-name="Ellipse 3088" cx="1.683" cy="2.694" rx="1.683" ry="2.694" transform="translate(215.521 26.57) rotate(-8.147)" fill="#ffac43"/>
      <path id="Path_16785" data-name="Path 16785" d="M579.087,504.234l-1.432,5.237s-6.109,6.145-8.738,11.9c-1.653,3.618.056,15.884,9.561,17.36s25.812,4.813,27.326-.229,1.209-21.867,1.209-21.867S580.231,502.584,579.087,504.234Z" transform="translate(-375.907 -393.171)" fill="#fff"/>
      <path id="Path_16786" data-name="Path 16786" d="M650.171,360.527c-3.189-3.806,4.7-6.443,9.441-7.915,3.292-1.021,42.862,18.441,42.862,18.441s4.438,11.367-.965,15.66-49.811,8.239-64.666-20.433C635.173,363.058,650.171,360.527,650.171,360.527Z" transform="translate(-415.925 -304.457)" fill="#eef1f6"/>
      <path id="Path_16787" data-name="Path 16787" d="M788.883,359.923c1.155-3.049,5.093-7.886,7.612-10.094,2.99-2.622,6.443-6.123,9.841-9.774,3.568,3.311,7.835,5.655,11.912,8.289-2.254,6.9-5.452,14.7-9.559,19.986-11.888,15.315-22.626,12.329-22.626,12.329S782.651,375.38,788.883,359.923Z" transform="translate(-502.82 -297.128)" fill="#eef1f6"/>
      <path id="Path_16788" data-name="Path 16788" d="M610.726,350.926a10.08,10.08,0,0,1,8.645,9.748c.237,10.183-.143,27.389-4.61,38.428a226.559,226.559,0,0,1-12.4,26.339L573,418.278s-18.97-65.311-10.333-68.606,30.982.593,37.363.375A68.8,68.8,0,0,1,610.726,350.926Z" transform="translate(-371.256 -301.979)" fill="#fff"/>
      <g id="Group_33156" data-name="Group 33156" transform="translate(223.383 68.905)">
        <path id="Path_16789" data-name="Path 16789" d="M653.369,414.79a37.646,37.646,0,0,0,8.758.075c.7-.1.941.233,1.148,1.2,1.69,7.493.088,14.113-3.993,17.217-1.5,1.111-3.305,1.172-5.068,1.157-.8-.017-1.542-.911-2.279-1.488-5.67-4.264-10.181-11.68-8.665-18.887.154-.718.4-.955,1.1-.8,3.026.649,6.03,1.172,9,1.52Zm-2.163,7.847a7.538,7.538,0,0,1-2.323,2.643c-.169.129-.649.055-.361.562.2.357.464.694.92.632,2.4-.335,4.164-4.009,3.289-7.046-.759-2.619-3.6-3.993-5.331-2.607a2.822,2.822,0,0,0-.847,2.887,3.6,3.6,0,0,0,1.946,2.642A3.233,3.233,0,0,0,651.206,422.637Zm5.9-5.127c-.643-.051-1.286-.081-1.931-.194-.54-.1-.7.15-.653.777.076,1.116.094,2.232.15,3.358s.262,1.3,1.091.946a2.047,2.047,0,0,1,2.372.416,3.152,3.152,0,0,1,.784,2.5c-.041,1.706-1.062,2.319-2.425,1.54a4.119,4.119,0,0,1-.856-.627c-.5-.484-.611-.08-.792.257-.235.434-.044.718.326,1a4.986,4.986,0,0,0,3.019,1.156c1.791,0,2.663-1.733,2.209-4.408-.358-2.112-1.662-3.409-3.376-3.257-.99.07-.952-.432-1.01-1.286-.057-.826.177-1.005.793-.894.758.136,1.511.147,2.266.22.4.038.573-.106.531-.69-.046-.621-.3-.7-.657-.7C658.336,417.6,657.722,417.555,657.107,417.509Z" transform="translate(-642.973 -408.865)" fill="#edf0f5"/>
        <path id="Path_16790" data-name="Path 16790" d="M654.56,407.828c-2.869-.315-5.767-.84-8.692-1.433-.871-.18-.883-.21-.455-1.078.09-.183.192-.357.288-.535,1.311-2.429,1.324-2.355,3.62-1.577a8.154,8.154,0,0,0,4.949.269.749.749,0,0,1,.578.018,6.727,6.727,0,0,0,6.14-.167c.423-.23.7-.165,1.008.352a28.352,28.352,0,0,1,1.514,3.063c.319.712.253,1.021-.349,1.1a40.476,40.476,0,0,1-8.6,0A.026.026,0,0,0,654.56,407.828Zm-.187-.764a11.433,11.433,0,0,1-.018-1.875c.054-.313-.256-.536-.528-.583-.214-.037-.543-.163-.574.194a6.043,6.043,0,0,0,.058,2.186c.36-.179.041-.816.414-.826C654.175,406.144,653.893,406.944,654.373,407.064Zm-4.605-1.6c-.207-.487-.351-.855-.5-1.217-.059-.141-.139-.284-.293-.273-.127.008-.153.136-.162.258-.046.641-.083,1.284-.119,2.086.5-.386.211-.945.5-1.3.184.422.354.813.538,1.2.128.269.36.465.41.062a7.586,7.586,0,0,0,.026-2.226C649.786,404.5,649.977,404.974,649.768,405.466Zm8.781,2.058a11.835,11.835,0,0,0-.621-2.483c-.09-.3-.338-.38-.429-.012a8.813,8.813,0,0,0-.394,2.4C657.761,406.382,657.765,406.37,658.549,407.523Zm-5.743-1.807c-.139-.358-.585-.17-.562-.643s.534-.048.623-.489c-.317-.141-.757-.359-.872-.007a3.334,3.334,0,0,0-.01,2.146c.145.383.606.321.928.145-.15-.446-.715-.124-.691-.723C652.24,405.686,652.654,405.969,652.806,405.716Zm7.813-1.114c-.342.013-.788-.228-.829.32a4.381,4.381,0,0,0,.284,2.359c.132.248.6.2.849-.105-.19-.466-.608-.029-.722-.565-.13-.619.439-.375.505-.72-.16-.364-.563-.036-.606-.549S660.512,405.092,660.619,404.6Zm-10.27-.387c.936.753.194,1.7.675,2.476.487-.637-.184-1.814.7-2.207A2.339,2.339,0,0,0,650.349,404.215Zm4.309,2.8c.388.391.71.392.952,0a.8.8,0,0,0-.191-1.087c-.7-.527-.488-.825.167-1.065-.481-.287-.774-.2-.928.221a.866.866,0,0,0,.345.973c.166.15.422.248.374.565s-.313.216-.509.235C654.808,406.859,654.759,406.935,654.658,407.014Zm4.462.4c.224-.987-.346-1.994.429-2.689a2.164,2.164,0,0,0-1.254.128C659.158,405.368,658.587,406.538,659.12,407.413Zm-3.37-2.575c.937.556.356,1.613.761,2.45.369-.818-.349-1.964.677-2.454A3.021,3.021,0,0,0,655.751,404.838Zm-7.463-.907a4.12,4.12,0,0,0-.119,2.119A3.633,3.633,0,0,0,648.288,403.931Z" transform="translate(-644.24 -402.722)" fill="#edf0f5"/>
        <path id="Path_16791" data-name="Path 16791" d="M655.215,425.46c-.028-1.207.553-1.8,1.558-1.637,1.127.183,1.7.941,1.744,2.3.041,1.275-.459,1.793-1.554,1.6A2.163,2.163,0,0,1,655.215,425.46Z" transform="translate(-650.14 -415.06)" fill="#edf0f5"/>
      </g>
      <g id="Group_33159" data-name="Group 33159" transform="translate(152.382 279.75)">
        <path id="Path_16792" data-name="Path 16792" d="M489.136,911.363c.71,1.867,1.608,2.295,2.582,4.2-.2-.037,14.723,2.044,21.053,3.629a42.356,42.356,0,0,1,11.613,5.405c-.044-.017,4.047,7.1,5.344,10.645,1.156,3.5-58.4-1.02-57.905-.886-.12,0,6.016-22.021,6.016-22.021S487.879,912,489.136,911.363Z" transform="translate(-471.767 -911.363)" fill="#fff"/>
        <path id="Path_16793" data-name="Path 16793" d="M480.355,966.749c16.392.165,33.123,1.634,49.154.943,1.4,2.9,3.165,6.928,3.166,6.93q-29.983-.667-60.984-1.634c.005,0,.012-2.705.23-6.227Q476.172,966.7,480.355,966.749Z" transform="translate(-471.692 -943.776)" fill="#b6b6b6"/>
        <g id="Group_33157" data-name="Group 33157" transform="translate(21.606 2.01)">
          <path id="Path_16794" data-name="Path 16794" d="M524.336,916.317q2.973,4.417,6.633,9.353c.258.347-.234.782-.493.433q-3.632-4.938-6.61-9.348c-.207-.311.26-.749.47-.438Z" transform="translate(-523.814 -916.211)" fill="#b6b6b6"/>
        </g>
        <g id="Group_33158" data-name="Group 33158" transform="translate(18.166 1.536)">
          <path id="Path_16795" data-name="Path 16795" d="M525.911,915.648c-2.452,2.213-4.986,4.683-7.57,7.352q-1.12,1.156-2.243,2.361c-.307.325-.791-.047-.483-.373,2.643-2.809,5.248-5.451,7.769-7.843q1.091-1.034,2.162-2c.285-.26.654.246.366.508Z" transform="translate(-515.516 -915.068)" fill="#b6b6b6"/>
        </g>
      </g>
      <g id="Group_33162" data-name="Group 33162" transform="translate(264.079 269.022)">
        <path id="Path_16796" data-name="Path 16796" d="M756.937,885.483a31.824,31.824,0,0,0,.693,5.618,46.588,46.588,0,0,0,7.594,2.279A96.823,96.823,0,0,0,778,895.117c5.246.577,12.726,1.3,12.744,1.3-.095-.063,7.092,15.278,8.722,17.756.742,1.1-17.21-4.174-32.328-3.781-15.651.817-26.228.867-25.99.9.013.154,6.373-19.924,6.373-19.924S756.076,885.724,756.937,885.483Z" transform="translate(-741.147 -885.483)" fill="#fff"/>
        <path id="Path_16797" data-name="Path 16797" d="M752.25,934.508c15.872,1.8,43.439-.893,42.865-1.032,1.516,1.789,3.812,7.738,4.356,8.616.928,1.149-58.77-2.974-58.318-2.881a15,15,0,0,1,2.177-6.045C745.83,933.476,749.66,934.24,752.25,934.508Z" transform="translate(-741.149 -913.399)" fill="#b6b6b6"/>
        <g id="Group_33160" data-name="Group 33160" transform="translate(20.677 4.782)">
          <path id="Path_16798" data-name="Path 16798" d="M791.448,897.134a43.582,43.582,0,0,0,4.92,7.842c.214.271-.252.6-.461.327a43.365,43.365,0,0,1-4.852-7.881c-.129-.283.261-.57.393-.288Z" transform="translate(-791.03 -897.018)" fill="#b6b6b6"/>
        </g>
        <g id="Group_33161" data-name="Group 33161" transform="translate(16.814 5.147)">
          <path id="Path_16799" data-name="Path 16799" d="M791.076,898.353c-2.048,1.485-4.248,3.2-6.705,5.144q-1.064.842-2.195,1.74c-.31.243-.658-.114-.347-.357,2.648-2.088,4.988-3.963,7.141-5.591q.932-.705,1.819-1.348c.235-.172.526.237.286.412Z" transform="translate(-781.708 -897.899)" fill="#b6b6b6"/>
        </g>
      </g>
      <path id="Path_16800" data-name="Path 16800" d="M572.231,372.493a45.064,45.064,0,0,1,10.224,26.158c.387,9.726-4.384,21.732-9.45,27.144h0s-14.461-49.788-12.381-64.616A68.935,68.935,0,0,1,572.231,372.493Z" transform="translate(-371.257 -309.495)" fill="#eef1f6"/>
      <path id="Path_16801" data-name="Path 16801" d="M628.15,356.486a25.119,25.119,0,0,0,10.334-.66c1.448,6.572,3.149,15.225,3.149,15.225l-16.921-15.3A25.433,25.433,0,0,0,628.15,356.486Z" transform="translate(-408.899 -306.314)" fill="#ffac43"/>
      <path id="Path_16802" data-name="Path 16802" d="M593.674,505.444a50.559,50.559,0,0,1,18.424-1.749c4.252.487,9.021,2.031,10.534,6.159-.57,1.13-1.083,2.122-1.526,2.963a39.261,39.261,0,0,0-14.394-4.935,38.537,38.537,0,0,0-16.857,1.157c-.058-.2-.282-.977-.629-2.214C590.685,506.274,592.214,505.831,593.674,505.444Z" transform="translate(-388.122 -392.791)" fill="#edf0f5"/>
      <path id="Path_16803" data-name="Path 16803" d="M574.638,338.758l-24.375-7.127s-3.082,4.093,24.461,20.746Z" transform="translate(-365.251 -292.195)" fill="#edf0f5"/>
      <path id="Path_16804" data-name="Path 16804" d="M683.236,348.434s-1.088,27.75-2.923,35.19-14.6-33.17-14.6-33.17Z" transform="translate(-432.903 -302.033)" fill="#fff"/>
      <path id="Path_16805" data-name="Path 16805" d="M580.287,340.293l-24.375-7.127s24.3,28.206,29.553,46.875S580.287,340.293,580.287,340.293Z" transform="translate(-368.618 -293.094)" fill="#fff"/>
      <path id="Path_16806" data-name="Path 16806" d="M609.277,520.95s21.525,1.417,33.011,38.861-3.227,66.491-11.888,55.31c-3.939-5.085-9.542-33.781-21.034-44.659s-20.333-9.359-22.472-23.526S609.277,520.95,609.277,520.95Z" transform="translate(-386.68 -403.037)" fill="#eef1f6"/>
      <path id="Path_16807" data-name="Path 16807" d="M707.013,779.489a47.492,47.492,0,0,0,9.378-2.821,75.336,75.336,0,0,0-3.525-8.64c-11.594-24.5-14.955-58.811-14.955-58.811s-8.744-6.013-19.182,11.315,2.112,29.844,10.622,38.205c4.569,4.488,11.006,13.64,15.989,21.155Q706.176,779.687,707.013,779.489Z" transform="translate(-438.206 -512.671)" fill="#eef1f6"/>
      <path id="Path_16808" data-name="Path 16808" d="M633.693,540.136c-11.237-18.317-24.416-19.186-24.416-19.186s-24.523,11.821-22.383,25.987,10.98,12.648,22.472,23.526c1.832,1.734,7.86-1.416,9.41,1.055C620.4,567.9,623.75,546.647,633.693,540.136Z" transform="translate(-386.68 -403.037)" fill="#dce2ed"/>
      <path id="Path_16809" data-name="Path 16809" d="M589.415,520.722c3.251,8.872,13.879,26.144,2.582,56.807-13.873,37.654-46.479,39.378-46.479,32.923s12.588-28.4,10.974-44.219-16.835-34.649.968-46.156C570.694,511.524,586.591,513.016,589.415,520.722Z" transform="translate(-362.533 -399.129)" fill="#fff"/>
      <path id="Path_16810" data-name="Path 16810" d="M496.151,800.441c1.383.352,2.773.676,4.171.961l.033.007a49.017,49.017,0,0,1,5.221-.279A59.046,59.046,0,0,0,508.7,792.7c7.038-23.484,25.988-48.728,25.988-48.728s-2.436-9.257-20.574-3.749-17.055,21.454-16.243,32.182C498.469,780.287,496.983,793.813,496.151,800.441Z" transform="translate(-333.63 -530.393)" fill="#fff"/>
      <path id="Path_16811" data-name="Path 16811" d="M563.25,714.366s5.487,17.107-2.9,23.239-18.72,4.519-18.72,4.519Z" transform="translate(-360.254 -516.276)" fill="#fff"/>
      <path id="Path_16812" data-name="Path 16812" d="M720.883,706.579s8.069,9.36,6.132,15.17-10.974,10.006-10.974,10.006Z" transform="translate(-462.37 -511.717)" fill="#eef1f6"/>
      <path id="Path_16813" data-name="Path 16813" d="M503.715,876.285A41.915,41.915,0,0,0,507.69,867c-3.608-1.538-7.234-3.034-10.893-4.443-.522,5.789-1.19,10.974-1.494,13.228A56.347,56.347,0,0,1,503.715,876.285Z" transform="translate(-333.133 -603.041)" fill="#ffac43"/>
      <path id="Path_16814" data-name="Path 16814" d="M650.772,563.894c-.568-2.605-1.257-5.265-2.087-7.97a84.676,84.676,0,0,0-8.826-20.045l-.08-.127q-.382-.611-.767-1.195l-.1-.158q-.859-1.294-1.725-2.463l-.016-.021q-.412-.555-.825-1.082l-.114-.144q-.4-.515-.81-1l-.034-.041q-.866-1.043-1.729-1.973l-.108-.116q-.382-.41-.762-.8l-.094-.1q-.851-.866-1.691-1.63l-.091-.081q-.368-.334-.734-.649l-.129-.111q-.826-.708-1.632-1.325l-.042-.031c-.246-.189-.491-.37-.734-.547l-.141-.1q-.341-.246-.677-.476l-.092-.063q-.767-.522-1.5-.966l-.136-.082q-.3-.181-.6-.35l-.134-.077q-.708-.4-1.375-.735l-.11-.054q-.275-.137-.543-.263l-.14-.066q-.282-.131-.556-.252l-.063-.028q-.313-.137-.614-.26l-.056-.022c-.175-.071-.347-.138-.514-.2l-.123-.046q-.233-.088-.455-.167l-.088-.031q-.535-.188-1.01-.33l-.076-.023q-.2-.06-.4-.114l-.063-.017c-.453-.124-.851-.218-1.191-.289.138-.455.3-.9.463-1.344-2.921-.955-5.865-1.719-7.539-1.6-4.156.288-12.225,24.173-12.225,24.173s26.928,5.941,32.6,4.2a42.737,42.737,0,0,0,5.2-1.935C640.582,545.257,646.161,552.438,650.772,563.894Z" transform="translate(-393.076 -399.149)" fill="#fff"/>
      <path id="Path_16815" data-name="Path 16815" d="M748.011,848.778a104.136,104.136,0,0,0-11.993,5.819c1.8,2.561,3.569,5.163,5.181,7.594q.836-.2,1.673-.4a47.488,47.488,0,0,0,9.378-2.821,75.339,75.339,0,0,0-3.525-8.64Q748.362,849.56,748.011,848.778Z" transform="translate(-474.066 -594.971)" fill="#ffac43"/>
      <path id="Path_16816" data-name="Path 16816" d="M551.807,439.474a243.758,243.758,0,0,1,2.377-28.109l.531-3.492.582-3.484c.42-2.318.866-4.631,1.362-6.935.984-4.609,2.141-9.187,3.557-13.689.694-2.255,1.489-4.482,2.321-6.688s1.742-4.387,2.738-6.531a48.81,48.81,0,0,1,7.576-11.95,30.461,30.461,0,0,1,5.272-4.741,26.343,26.343,0,0,1,6.265-3.322,21.279,21.279,0,0,1,6.981-1.341,11.768,11.768,0,0,1,3.6.381,4.446,4.446,0,0,1,1.679.915,3.478,3.478,0,0,1,.341.366,1.713,1.713,0,0,1,.15.2l.069.105.035.053a.709.709,0,0,1,.063.16,1.65,1.65,0,0,1,.032.305c0,.083,0,.162,0,.24,0,.155-.01.306-.017.456-.164,2.375-.451,4.7-.723,7.037s-.569,4.668-.89,7l-.975,6.984c-.36,2.359-.8,4.639-1.2,6.962-1.661,9.248-3.268,18.506-5.251,27.713-.508,2.3-1.042,4.6-1.626,6.883s-1.21,4.57-1.974,6.819a46.593,46.593,0,0,1-2.731,6.61,28.144,28.144,0,0,1-4.066,5.934,42.071,42.071,0,0,1-5.252,4.826c-1.847,1.474-3.733,2.876-5.607,4.291s-3.75,2.824-5.6,4.261-3.691,2.9-5.517,4.377l-.1-.121q2.6-2.383,5.293-4.661t5.431-4.5c3.632-2.968,7.4-5.829,10.413-9.3a26.785,26.785,0,0,0,3.757-5.739,45.174,45.174,0,0,0,2.508-6.456c1.382-4.437,2.431-9,3.4-13.583,1-4.578,1.877-9.186,2.8-13.789l2.665-13.832.657-3.46c.209-1.158.466-2.3.644-3.444l1.115-6.951,1.083-6.956c.341-2.317.71-4.647.928-6.955l.028-.424.005-.2,0-.133a.141.141,0,0,0,.024.057l-.025-.039-.05-.08a1.006,1.006,0,0,0-.108-.154,2.707,2.707,0,0,0-.25-.286,3.7,3.7,0,0,0-1.372-.788,11.136,11.136,0,0,0-3.368-.44,20.012,20.012,0,0,0-6.811,1.184,27,27,0,0,0-11.291,7.945,45.47,45.47,0,0,0-7.1,11.983,130.432,130.432,0,0,0-4.637,13.224,221.76,221.76,0,0,0-6.144,27.382c-.761,4.624-1.409,9.268-1.976,13.925-.277,2.329-.548,4.66-.789,6.995s-.443,4.673-.656,7.013Z" transform="translate(-366.215 -302.476)"/>
      <path id="Path_16817" data-name="Path 16817" d="M581.078,258.13a25.212,25.212,0,1,0,28.539-21.374A25.213,25.213,0,0,0,581.078,258.13Zm19.02-7.7c1.7-2.518,15.652-3.2,20.824.268,3.956,2.65,1.576,28.236-1.925,29.2-4.244,1.172-6.891,3.521-11.3,2.913-3.705-.512-7.594-1.06-9.584-4.324C596.172,275.313,598.352,253.022,600.1,250.432Z" transform="translate(-383.201 -236.497)" fill="#fff"/>
      <ellipse id="Ellipse_3089" data-name="Ellipse 3089" cx="5.397" cy="7.831" rx="5.397" ry="7.831" transform="matrix(0.982, -0.186, 0.186, 0.982, 194.472, 19.192)" fill="#dce2ed"/>
      <ellipse id="Ellipse_3090" data-name="Ellipse 3090" cx="4.513" cy="7.703" rx="4.513" ry="7.703" transform="matrix(0.982, -0.186, 0.186, 0.982, 194.222, 19.239)" fill="#fff"/>
      <g id="Group_33163" data-name="Group 33163" transform="translate(166.807 10.274)">
        <path id="Path_16818" data-name="Path 16818" d="M506.834,291.263c-.228-.568-1.727-7.033,4.006-10.39a10.534,10.534,0,0,1,1.434-.7,5.692,5.692,0,0,1,2.22-.36,3.872,3.872,0,0,1,1.562.392,2.854,2.854,0,0,1,.95.756,6.282,6.282,0,0,1,3.865-3.424,7.408,7.408,0,0,1,4.749-.284c.081.024.164.051.246.082.009,0,.019.01.028,0s-.022-.032-.034-.046a3.807,3.807,0,0,1-.522-.706,2.724,2.724,0,0,1-.375-1.331,2.357,2.357,0,0,1,.44-1.4,3.4,3.4,0,0,1,1.8-1.265c.061-.019.121-.036.182-.053a8.7,8.7,0,0,0,3.378-4.225c.216-.5.41-1,.6-1.514a7.986,7.986,0,0,0,.515-1.576,1.913,1.913,0,0,0-.556-1.582,7.221,7.221,0,0,0-1.581-1.269,8.964,8.964,0,0,0-1.026-.545,2.047,2.047,0,0,0-1.038-.229c-.035,0-.071.011-.107.02a1.061,1.061,0,0,1,.338.371.7.7,0,0,1,.087.359c-.008.148-.174.215-.353.228a.945.945,0,0,1-.791-.353.468.468,0,0,1,.1-.637,1.778,1.778,0,0,1,2.139.092,18.53,18.53,0,0,1,2.1,1.39,2.735,2.735,0,0,1,1.08,1.875,5.268,5.268,0,0,1-.534,1.9,17.11,17.11,0,0,1-1.713,3.584,8.011,8.011,0,0,1-1.8,1.924,4.464,4.464,0,0,1,.533.023c.137.007.276.012.413.026a5.678,5.678,0,0,1,.778.136c1.285-1.259,2.569-2.566,3.814-3.929a18.871,18.871,0,0,0,1.9-2.274,3.439,3.439,0,0,0,.66-2.611,1.555,1.555,0,0,0-.94-1.21.8.8,0,0,0-.262-.036c.128.374-.213.739-.723.66a.233.233,0,0,1-.157-.1c-.2-.386.071-.715.495-.823a.21.21,0,0,1,.1-.021,1.565,1.565,0,0,1,1.364.541,2.285,2.285,0,0,1,.543,1.426,3.305,3.305,0,0,1-.276,1.475,9.39,9.39,0,0,1-1.806,2.5q-1.139,1.263-2.316,2.464c-.679.7-1.365,1.375-2.049,2.042a5.477,5.477,0,0,1,1.291.606,5.775,5.775,0,0,1,2.657,5.879c-.206,1.149-4.058.807-5.622-.255a9.759,9.759,0,0,0-1.5-.635,1.771,1.771,0,0,1,.319.645,2.118,2.118,0,0,1-.485,1.795,32.653,32.653,0,0,1,3.906.173,34.483,34.483,0,0,1,4.958,6.863,33.538,33.538,0,0,0-5.11-6.155,32.145,32.145,0,0,0-3.883-.72,4.868,4.868,0,0,1-.541.543,30.4,30.4,0,0,1,3.305,1.569q0,1.776-.048,3.556-.272-1.648-.634-3.278a29.81,29.81,0,0,0-2.872-1.641,10.014,10.014,0,0,1-2.981,1.528,9.78,9.78,0,0,1-3.511.542q-.325.244-.642.494a39.412,39.412,0,0,0-1.688,4.4q.5.064.988.15-.807-.113-1.63-.168.5-1.712,1.187-3.44a32.6,32.6,0,0,0-3.285,3.276,35.385,35.385,0,0,0-1.089,3.841,38.685,38.685,0,0,1,.658-3.958,34.012,34.012,0,0,1,4.215-4.839,2.54,2.54,0,0,1-.7-.371,3.282,3.282,0,0,1-.136.589,4.23,4.23,0,0,1-.8,1.393,8.254,8.254,0,0,1-1.407,1.286,17.818,17.818,0,0,1-1.54,1.013,39.843,39.843,0,0,0-6.732,3.973C506.854,291.336,506.854,291.336,506.834,291.263Z" transform="translate(-506.49 -261.283)" fill="#5673a9"/>
        <path id="Path_16819" data-name="Path 16819" d="M570.034,316.315q-.935-.325-1.87-.583a35.52,35.52,0,0,0-3.24-5.572A33.539,33.539,0,0,1,570.034,316.315Z" transform="translate(-540.702 -289.899)" fill="#355586"/>
        <path id="Path_16820" data-name="Path 16820" d="M559.12,313.795q-.548,1.464-1.034,2.936.836.145,1.669.342.044-1.78.048-3.556Q559.458,313.653,559.12,313.795Z" transform="translate(-536.698 -291.864)" fill="#355586"/>
        <path id="Path_16821" data-name="Path 16821" d="M530.82,326.533q.2.439.388.88.609-.371,1.243-.712-.46-.256-.933-.492Q531.166,326.367,530.82,326.533Z" transform="translate(-520.735 -299.296)" fill="#355586"/>
        <path id="Path_16822" data-name="Path 16822" d="M524.22,326.43q-.111,1.479-.129,2.924-.493.45-.96.917a38.684,38.684,0,0,1,.658-3.958Q524.006,326.37,524.22,326.43Z" transform="translate(-516.233 -299.357)" fill="#355586"/>
        <path id="Path_16823" data-name="Path 16823" d="M558.656,270.419a8.5,8.5,0,0,1-1.112,1.326,2.483,2.483,0,0,0-.344-.107,10.106,10.106,0,0,0,2.2-3.334c.216-.5.41-1,.6-1.514a7.986,7.986,0,0,0,.515-1.576,1.913,1.913,0,0,0-.556-1.582,7.213,7.213,0,0,0-1.581-1.269,8.964,8.964,0,0,0-1.026-.545,2.047,2.047,0,0,0-1.038-.229c-.035,0-.071.011-.107.02a1.061,1.061,0,0,1,.338.371.7.7,0,0,1,.087.359c-.008.148-.174.215-.353.228a.945.945,0,0,1-.791-.353.467.467,0,0,1,.1-.637,1.779,1.779,0,0,1,2.139.092,18.53,18.53,0,0,1,2.1,1.39,2.734,2.734,0,0,1,1.08,1.875,5.268,5.268,0,0,1-.534,1.9A17.1,17.1,0,0,1,558.656,270.419Z" transform="translate(-535.128 -261.283)" fill="#355586"/>
        <path id="Path_16824" data-name="Path 16824" d="M511.326,303.958c2.621-1.179,4.064-3.49,4.973-6.24,1.156.7,3.047.668,4.25.7,1.883,0,4.173-.435,4.982-2.38a3.259,3.259,0,0,0,.167-.561,1.261,1.261,0,0,0,.025-.952,2.128,2.128,0,0,0-.075-.292c.074.022.146.046.221.074.009,0,.019.01.028,0s-.022-.032-.034-.046a3.836,3.836,0,0,1-.522-.706,2.725,2.725,0,0,1-.375-1.331,2.357,2.357,0,0,1,.44-1.4,2.952,2.952,0,0,1,.507-.547,1.935,1.935,0,0,0,.39,1.009c1.339,1.762,3.242,3.921,5.855,3.63a2.938,2.938,0,0,0,.435-.084,2.1,2.1,0,0,0,1.68-.394,6.778,6.778,0,0,1-.021,1.651c-.206,1.149-4.058.807-5.622-.255a9.715,9.715,0,0,0-1.5-.635,1.776,1.776,0,0,1,.319.645,2.117,2.117,0,0,1-.485,1.794h.029c-.041.057-.081.112-.122.167l-.037,0a4.871,4.871,0,0,1-.541.543l.087.035c-.08.071-.157.146-.239.219l-.1-.049a10.843,10.843,0,0,1-6.322,2.074,2.422,2.422,0,0,0-.531-.165,2.832,2.832,0,0,0-1-.01l.075-.071a2.54,2.54,0,0,1-.7-.371,3.273,3.273,0,0,1-.136.589c-.023.067-.052.131-.078.2a2.006,2.006,0,0,0-.428.587,1.266,1.266,0,0,0-.113.372c-.06.08-.123.162-.186.239a8.268,8.268,0,0,1-1.407,1.286,17.912,17.912,0,0,1-1.54,1.013,39.846,39.846,0,0,0-6.732,3.973c-.093.053-.092.053-.112-.021a10.421,10.421,0,0,1-.342-2.694A17.813,17.813,0,0,0,511.326,303.958Z" transform="translate(-506.493 -278.256)" fill="#355586"/>
        <path id="Path_16825" data-name="Path 16825" d="M565.344,271.835c-.633.647-1.274,1.28-1.912,1.9a2.308,2.308,0,0,0-.479.19l-.108-.172c.03.007.065.012.094.02,1.287-1.259,2.568-2.566,3.814-3.929a19.062,19.062,0,0,0,1.9-2.274,3.439,3.439,0,0,0,.659-2.611,1.555,1.555,0,0,0-.94-1.21.8.8,0,0,0-.262-.036c.128.374-.214.739-.723.66a.233.233,0,0,1-.157-.1c-.2-.386.071-.715.495-.823a.209.209,0,0,1,.1-.021,1.565,1.565,0,0,1,1.364.541,2.286,2.286,0,0,1,.543,1.426,3.3,3.3,0,0,1-.276,1.475,9.4,9.4,0,0,1-1.806,2.5Q566.522,270.634,565.344,271.835Z" transform="translate(-539.485 -262.531)" fill="#355586"/>
      </g>
      <g id="Group_33164" data-name="Group 33164" transform="translate(369.799 179.427)">
        <path id="Path_16826" data-name="Path 16826" d="M1006.114,669.425a1.646,1.646,0,0,1,1.334.21q8.451,3.488,16.895,6.992c1.548.64,3.1,1.277,4.658,1.887.971.379,1.18.964.778,1.93-3,7.212-5.972,14.437-8.963,21.652-.455,1.1-.847,1.243-2.013.763q-9.1-3.75-18.192-7.522c-1.12-.463-2.25-.9-3.364-1.382s-1.273-.837-.837-1.9q4.436-10.781,8.9-21.551C1005.48,670.086,1005.623,669.618,1006.114,669.425Zm.436,1.285c-.092.189-.214.4-.308.633-2.835,6.854-5.655,13.714-8.517,20.557-.294.7-.174.968.509,1.239,2.753,1.092,5.487,2.233,8.226,3.362q6.187,2.552,12.367,5.12c.524.219.841.3,1.122-.388q4.25-10.411,8.577-20.79c.206-.5.289-.762-.353-1.024-6.962-2.846-13.909-5.73-20.861-8.6A.929.929,0,0,0,1006.55,670.71Z" transform="translate(-996.186 -669.345)" fill="#ededed"/>
        <path id="Path_16827" data-name="Path 16827" d="M1021.6,697.365c-.656.161-.787.4-.56.845.4.792.683,1.633,1.057,2.448.232.505.005.735-.492.944-.567.238-.756-.028-.964-.4a28.983,28.983,0,0,0-1.788-2.878c-.342-.468-.238-.821.155-1.255.9-1,1.8-2.049,2.768-3.1,1.264-1.377,2.4-1.668,4.071-.879.424.2.958.416,1.132.761.805,1.583,2.473,1.763,4.232,2,.491.066,1.53-.294,1.368.786s-.981.761-1.609.76c-1.378,0-2.831.394-4.013-.5-.688,1.491-.5,2.259.763,3.141,2.432,1.706,3.875,4.233,5.362,6.749.456.783-.01.985-.456,1.323-.521.393-.894.466-1.293-.223a35.619,35.619,0,0,0-2.335-3.438,2.448,2.448,0,0,0-.4-.526,2.775,2.775,0,0,0-2.034-.765c-.452.1-.144.957-.16,1.468-.048,1.707,0,3.422-.053,5.127-.009.376.317,1.05-.363,1.088a1.764,1.764,0,0,1-1.576-1.382c-.3-2.5-.622-4.983-.987-7.437-.044-.294.018-.618-.282-.865C1021.882,700.138,1021.715,698.812,1021.6,697.365Z" transform="translate(-1009.335 -682.995)" fill="#ededed"/>
        <path id="Path_16828" data-name="Path 16828" d="M1029.94,682.528a1.916,1.916,0,0,1,2.506.915,2.058,2.058,0,0,1-1,2.6,2.023,2.023,0,0,1-2.509-.964A1.866,1.866,0,0,1,1029.94,682.528Z" transform="translate(-1015.254 -676.967)" fill="#ededed"/>
      </g>
      <g id="Group_33165" data-name="Group 33165" transform="translate(387.818 108.397)">
        <path id="Path_16829" data-name="Path 16829" d="M1046.173,499.176a11.594,11.594,0,1,1-5.415,15.351A11.541,11.541,0,0,1,1046.173,499.176Zm2.471,15.246c.316-.951.616-1.906.953-2.849.154-.431.112-.693-.374-.835q-4.1-1.2-8.205-2.427c-.714,3.96,2.044,9.108,5.58,10.6.639.27.68-.113.8-.5.424-1.344.839-2.691,1.258-4.036Zm-1.661-14.328a10.64,10.64,0,0,0-5,4.829c-.322.614-.275.875.438,1.078,2.46.7,4.913,1.432,7.348,2.214.677.217.885.021,1.074-.592.765-2.481,1.553-4.956,2.385-7.415.218-.645.058-.834-.567-.91A10.357,10.357,0,0,0,1046.982,500.095Zm2.688,19.63c3.8.918,8.826-1.472,10.577-4.959.292-.582.037-.693-.413-.827q-3.462-1.027-6.917-2.072c-.4-.12-.663-.163-.829.361C1051.292,514.73,1050.336,517.179,1049.67,519.725Zm11.685-8.036a10.366,10.366,0,0,0-4.8-11.045c-.618-.366-.668.064-.8.461-.83,2.493-1.648,4.991-2.511,7.472-.185.532-.049.713.448.856C1056.252,510.172,1058.8,510.935,1061.355,511.689Z" transform="translate(-1039.653 -497.994)" fill="#f6f6f6"/>
        <path id="Path_16830" data-name="Path 16830" d="M1077.4,514.433a2.473,2.473,0,0,1,1.758-.388c.687.184,1.251.68.96,1.36-.424.989.193,1.287.776,1.719.269.2.839.35.569.784-.324.521-.74.141-1.137-.092-.522-.308-1.017-1.2-1.531-.855-.69.464.263,1.044.353,1.615.045.285.071.51-.216.657a.454.454,0,0,1-.66-.211c-.592-1.155-1.208-2.3-1.722-3.491C1076.2,514.728,1077.065,514.719,1077.4,514.433Zm.379,1.358c.156.351.32.7.8.453.4-.21.822-.491.626-1s-.676-.449-1.118-.284S1077.5,515.379,1077.774,515.791Z" transform="translate(-1061.205 -507.361)" fill="#f6f6f6"/>
        <path id="Path_16831" data-name="Path 16831" d="M1053.937,532.05a1.064,1.064,0,0,1-1.574-.141,7.109,7.109,0,0,0-.888-.667c-.188-.14-.383-.241-.6-.079-.256.189-.086.4,0,.591.146.34.316.671.469,1.009.121.267.112.507-.191.651a.455.455,0,0,1-.648-.244c-.6-1.19-1.195-2.388-1.782-3.587a.5.5,0,0,1-.027-.324c.133-.5,2.035-1.274,2.662-1.051a1.257,1.257,0,0,1,.888,1.748.61.61,0,0,0,.282.885,5.025,5.025,0,0,1,1.4,1.249Zm-2.629-2.621c-.208-.427-.551-.439-.936-.3s-.642.354-.4.824c.173.341.295.7.8.424C1051.153,530.164,1051.461,529.935,1051.308,529.43Z" transform="translate(-1044.934 -515.661)" fill="#f6f6f6"/>
      </g>
      <g id="Group_33176" data-name="Group 33176" transform="translate(139.825 121.914)">
        <g id="Group_33171" data-name="Group 33171" transform="translate(20.035)">
          <g id="Group_33166" data-name="Group 33166" transform="translate(59.298)">
            <path id="Path_16832" data-name="Path 16832" d="M632.782,530.6a3.882,3.882,0,0,0,.5.743c0-.01,0-.019.007-.029Z" transform="translate(-632.782 -530.601)"/>
          </g>
          <g id="Group_33170" data-name="Group 33170" transform="translate(0 0.052)">
            <g id="Group_33167" data-name="Group 33167" transform="translate(30.358)">
              <ellipse id="Ellipse_3091" data-name="Ellipse 3091" cx="4.897" cy="5.368" rx="4.897" ry="5.368" transform="matrix(0.87, -0.493, 0.493, 0.87, 0, 4.828)"/>
            </g>
            <g id="Group_33169" data-name="Group 33169" transform="translate(0 4.345)">
              <g id="Group_33168" data-name="Group 33168" transform="translate(0 29.335)">
                <ellipse id="Ellipse_3092" data-name="Ellipse 3092" cx="8.7" cy="10.181" rx="8.7" ry="10.181" transform="translate(0 8.579) rotate(-29.541)" fill="#6c6c6c"/>
              </g>
              <path id="Path_16833" data-name="Path 16833" d="M506.589,574.833c4.18-2.369,9.816-.324,12.589,4.568a10.944,10.944,0,0,1,1.174,8.19L540.3,547.77l-4.56-6.207-3.656-.355-26.485,34.3A7.537,7.537,0,0,1,506.589,574.833Z" transform="translate(-499.019 -541.208)"/>
            </g>
          </g>
        </g>
        <path id="Path_16834" data-name="Path 16834" d="M514.841,625.5c-2.772-4.892-8.409-6.937-12.589-4.568s-5.322,8.255-2.55,13.147,8.409,6.937,12.589,4.568S517.614,630.391,514.841,625.5Zm-3.451,11.556c-3.43,1.944-8.054.266-10.328-3.747s-1.338-8.843,2.092-10.786,8.053-.266,10.328,3.748S514.82,635.112,511.391,637.055Z" transform="translate(-474.648 -582.909)" fill="#6c6c6c"/>
        <g id="Group_33174" data-name="Group 33174" transform="translate(9.944 39.962)">
          <g id="Group_33173" data-name="Group 33173" transform="translate(0 9.318)">
            <g id="Group_33172" data-name="Group 33172">
              <ellipse id="Ellipse_3093" data-name="Ellipse 3093" cx="8.7" cy="10.181" rx="8.7" ry="10.181" transform="translate(0 8.579) rotate(-29.541)" fill="#6c6c6c"/>
              <ellipse id="Ellipse_3094" data-name="Ellipse 3094" cx="8.7" cy="10.181" rx="8.7" ry="10.181" transform="translate(0 8.579) rotate(-29.541)" fill="#6c6c6c"/>
            </g>
          </g>
          <path id="Path_16835" data-name="Path 16835" d="M503.329,638.756a7.366,7.366,0,0,0-.091-6.89l-.023-.041a11.668,11.668,0,0,0-2.505-3.073,7.437,7.437,0,0,0-10.7,1.2l-8.754,11.338a7.544,7.544,0,0,1,.994-.677c4.181-2.369,9.817-.324,12.589,4.568a10.947,10.947,0,0,1,1.174,8.19Z" transform="translate(-474.677 -627.004)"/>
        </g>
        <g id="Group_33175" data-name="Group 33175" transform="translate(0 52.79)">
          <path id="Path_16836" data-name="Path 16836" d="M490.851,663.505c-2.772-4.892-8.409-6.937-12.589-4.568s-5.322,8.255-2.549,13.147,8.408,6.937,12.589,4.568S493.624,668.4,490.851,663.505ZM487.4,675.062c-3.43,1.944-8.054.266-10.328-3.748s-1.338-8.842,2.092-10.786,8.054-.266,10.328,3.748S490.831,673.118,487.4,675.062Z" transform="translate(-460.603 -657.951)" fill="#6c6c6c"/>
          <ellipse id="Ellipse_3095" data-name="Ellipse 3095" cx="8.7" cy="10.181" rx="8.7" ry="10.181" transform="translate(0 20.824) rotate(-29.541)" fill="#6c6c6c"/>
          <ellipse id="Ellipse_3096" data-name="Ellipse 3096" cx="7.09" cy="8.036" rx="7.09" ry="8.036" transform="translate(2.564 21.747) rotate(-29.541)" fill="#fff"/>
          <path id="Path_16837" data-name="Path 16837" d="M463.515,704.379a4.082,4.082,0,0,1,2.318-1.107,5.317,5.317,0,0,1,2.625.31,5.834,5.834,0,0,1,2.179,1.461,5.133,5.133,0,0,1,1.252,2.226,14.844,14.844,0,0,0-1.83-1.571,8.992,8.992,0,0,0-1.994-1.077,7.362,7.362,0,0,0-2.187-.478A7.726,7.726,0,0,0,463.515,704.379Z" transform="translate(-454.348 -684.457)" fill="#b6b6b6"/>
          <path id="Path_16838" data-name="Path 16838" d="M479.339,676.762a7.366,7.366,0,0,0-.091-6.89l-.024-.042a11.666,11.666,0,0,0-2.505-3.073,7.436,7.436,0,0,0-10.7,1.2l-8.754,11.338a7.471,7.471,0,0,1,.993-.676c4.181-2.369,9.817-.324,12.589,4.568a10.947,10.947,0,0,1,1.174,8.19Z" transform="translate(-450.687 -662.084)"/>
        </g>
      </g>
      <path id="Path_16839" data-name="Path 16839" d="M793.288,308.978c.018-.041.038-.082.055-.124.676-1.708.162-3.512-1.147-4.03a2.23,2.23,0,0,0-1.841.138A37.834,37.834,0,0,0,781.8,297.5a36.9,36.9,0,0,0-16.866-5.771,1.821,1.821,0,0,0-.676-.8,2.019,2.019,0,0,0-2.747.7q-.624.014-1.243.051a2.95,2.95,0,0,0-1.145-1.382,3.232,3.232,0,0,0-4.422,1.135,3.537,3.537,0,0,0-.492,1.223A25.242,25.242,0,0,0,739.2,303.352c-8.289,12.971-2.654,31.381,12.585,41.12s34.314,7.119,42.6-5.852C800.039,329.776,799.212,318.406,793.288,308.978Z" transform="translate(-473.689 -267.727)" fill="#bac6dc"/>
      <path id="Path_16840" data-name="Path 16840" d="M673.247,412.779c-5.867-11.468-15.68-20.886-26.7-27.333-5.779-3.383-12.133-6.31-18.861-7.047a29.742,29.742,0,0,0-10.005.621,52.887,52.887,0,0,1-8.546,1.554,39.147,39.147,0,0,0-2.888,4.324,1.51,1.51,0,0,1-.849.682l-.005,0a5.962,5.962,0,0,0-3.931,7.457l.006.018a8.389,8.389,0,0,1,.307,4.085,37.834,37.834,0,0,0,.4,15.2,7,7,0,0,1-.148,3.877,2.176,2.176,0,0,0-.031,1.4,2.3,2.3,0,0,0,1.307,1.372.191.191,0,0,1,.1.224,3.416,3.416,0,0,0,.026,1.933,3.838,3.838,0,0,0,2.066,2.2,7.217,7.217,0,0,1,2.666,2.307,41.1,41.1,0,0,0,20.668,15.237,5.6,5.6,0,0,1,3.345,3.123,1.757,1.757,0,0,0,1.005,1.019,2.107,2.107,0,0,0,2.053-.632,5.484,5.484,0,0,1,4.046-1.445q1.534.109,3.1.111a42.138,42.138,0,0,0,28.109-10.572,4.1,4.1,0,0,1,2.182-1.007,3.254,3.254,0,0,0,2.293-1.192,2.886,2.886,0,0,0,.531-1.715,4.335,4.335,0,0,1,.8-2.5c.478-.66.929-1.337,1.365-2.024A81.941,81.941,0,0,0,673.247,412.779Z" transform="translate(-395.125 -319.475)" fill="#bac6dc"/>
      <ellipse id="Ellipse_3097" data-name="Ellipse 3097" cx="4.602" cy="3.209" rx="4.602" ry="3.209" transform="translate(230.472 68.716)" fill="#cbd4e4"/>
      <ellipse id="Ellipse_3098" data-name="Ellipse 3098" cx="2.922" cy="2.69" rx="2.922" ry="2.69" transform="translate(239.916 78.852) rotate(-42.211)" fill="#cbd4e4"/>
      <ellipse id="Ellipse_3099" data-name="Ellipse 3099" cx="1.472" cy="1.358" rx="1.472" ry="1.358" transform="translate(233.897 108.367) rotate(-42.211)" fill="#cbd4e4"/>
      <ellipse id="Ellipse_3100" data-name="Ellipse 3100" cx="0.787" cy="2.318" rx="0.787" ry="2.318" transform="translate(314.259 41.751) rotate(-47.367)" fill="#cbd4e4"/>
      <ellipse id="Ellipse_3101" data-name="Ellipse 3101" cx="2.798" cy="3.99" rx="2.798" ry="3.99" transform="translate(295.858 34.905) rotate(-66.026)" fill="#cbd4e4"/>
      <ellipse id="Ellipse_3102" data-name="Ellipse 3102" cx="24.664" cy="32.748" rx="24.664" ry="32.748" transform="matrix(0.538, -0.843, 0.843, 0.538, 250.501, 59.112)" fill="#6781b2"/>
      <path id="Path_16841" data-name="Path 16841" d="M734.27,413.651a3.269,3.269,0,0,0-.417.376c-1.523,1.664-1.043,4.583,1.073,6.519s5.065,2.158,6.588.495c.057-.063.106-.13.157-.2A70.763,70.763,0,0,0,734.27,413.651Z" transform="translate(-472.277 -340.216)" fill="#cbd4e4"/>
      <path id="Path_16842" data-name="Path 16842" d="M526.784,361.179s-19.446,13.191-23.177,37.648,4.145,43.94,6.632,45.6,14.526-6.471,15.761-15.257,7.038-26.2,13.256-39.46S534.623,365.813,526.784,361.179Z" transform="translate(-337.417 -309.495)" fill="#fff"/>
      <path id="Path_16843" data-name="Path 16843" d="M597.65,483.631s8.542-6.833,6.436-7.685c-1.172-.474-3.033.9-4.453,2.216a13.3,13.3,0,0,0,.565-1.567c1.182-3.962-15.532,9.429-17.583,4.3s.536-10.3-1.409-8.443-1.832,5.64-1.832,5.64l-.518,9.295c-.065,1.7-16.263,4.9-27.5-1.67-10.32-6.035-23.414-.722-23.414-.722s-11.959,11.959-4.1,21.526,59.112-13.667,59.112-13.667c4.783-.683,16.742-3.075,17.565-4.923s-6.973.822-6.973.822,9.909-4.1,10.592-6.492S597.65,483.631,597.65,483.631Z" transform="translate(-348.278 -374.417)" fill="#fff"/>
      <path id="Path_16844" data-name="Path 16844" d="M659.486,483.631s8.542-6.833,6.436-7.685c-1.172-.474-3.033.9-4.453,2.216a13.3,13.3,0,0,0,.565-1.567c1.182-3.962-15.532,9.429-17.583,4.3s.536-10.3-1.409-8.443-1.832,5.64-1.832,5.64l-.518,9.295c-.041,1.061-6.4,2.712-13.9,2.19.041,3.511.13,7.023.3,10.529,9.943-3.734,17.7-7.252,17.7-7.252,4.783-.683,16.742-3.075,17.565-4.923s-6.973.822-6.973.822,9.909-4.1,10.592-6.492S659.486,483.631,659.486,483.631Z" transform="translate(-410.115 -374.417)" fill="#ffac43"/>
      <path id="Path_16845" data-name="Path 16845" d="M782.922,457.715,786.685,456l1.244,3.731Z" transform="translate(-501.526 -365.01)" fill="#bac6dc"/>
      <path id="Path_16846" data-name="Path 16846" d="M840.487,457.9l1.244-2.9H838v4.145Z" transform="translate(-533.773 -364.425)" fill="#bac6dc"/>
      <path id="Path_16847" data-name="Path 16847" d="M695.842,359.155l.065,4.91,2.968-.967Z" transform="translate(-450.544 -308.31)" fill="#bac6dc"/>
      <path id="Path_16848" data-name="Path 16848" d="M730,303" transform="translate(-470.542 -275.433)" fill="#bac6dc"/>
      <path id="Path_16849" data-name="Path 16849" d="M726.9,295l-.414,3.316L724,296.658Z" transform="translate(-467.029 -270.749)" fill="#bac6dc"/>
      <path id="Path_16850" data-name="Path 16850" d="M875.487,253l2.073,1.244-2.9,1.658L873,253.415Z" transform="translate(-554.265 -246.159)" fill="#bac6dc"/>
      <path id="Path_16851" data-name="Path 16851" d="M816.073,450.244,814,451.9V449Z" transform="translate(-519.722 -360.912)" fill="#bac6dc"/>
      <path id="Path_16852" data-name="Path 16852" d="M814.389,406l-3.316,2.487L809,406.415Z" transform="translate(-516.794 -335.736)" fill="#bac6dc"/>
      <path id="Path_16853" data-name="Path 16853" d="M899,412.731,900.244,409l.829,4.145Z" transform="translate(-569.487 -337.493)" fill="#6781b2"/>
      <path id="Path_16854" data-name="Path 16854" d="M864,413l2.184,4.07-1.355,2.563Z" transform="translate(-548.996 -339.835)" fill="#6781b2"/>
      <path id="Path_16855" data-name="Path 16855" d="M735,323l.92,2.894,1.048,3.3,2.123-3.943Z" transform="translate(-473.469 -287.142)" fill="#6781b2"/>
      <path id="Path_16856" data-name="Path 16856" d="M737.9,307.316,737.073,304,735,306.487v2.073Z" transform="translate(-473.469 -276.018)" fill="#6781b2"/>
      <path id="Path_16857" data-name="Path 16857" d="M758.9,262.073H756l.415-2.073Z" transform="translate(-485.764 -250.257)" fill="#6781b2"/>
      <path id="Path_16858" data-name="Path 16858" d="M895,445.658l.414,2.073,3.316-.829V444Z" transform="translate(-567.145 -357.984)" fill="#6781b2"/>
      <path id="Path_16859" data-name="Path 16859" d="M788,424l.018,6.183,2.469-.38Z" transform="translate(-504.5 -346.275)" fill="#6781b2"/>
      <path id="Path_16860" data-name="Path 16860" d="M763.366,440.66l2.658.242V438l-2.487.415L762.5,439.45C762.8,439.848,763.08,440.255,763.366,440.66Z" transform="translate(-489.571 -354.472)" fill="#6781b2"/>
      <path id="Path_16861" data-name="Path 16861" d="M685,380.536l2.637-.22.414-1.658L681,377l1.081,2.434C683.064,379.767,684.035,380.137,685,380.536Z" transform="translate(-441.854 -318.758)" fill="#6781b2"/>
      <path id="Path_16862" data-name="Path 16862" d="M784.632,536.047l-6.632.415,2.487-4.145L782.56,529Z" transform="translate(-498.645 -407.75)" fill="#6781b2"/>
      <path id="Path_16863" data-name="Path 16863" d="M787.145,239,783,240.658l1.658,5.8,4.56-2.9Z" transform="translate(-501.572 -237.962)" fill="#6781b2"/>
      <path id="Path_16864" data-name="Path 16864" d="M621.171,365.509l-3.566,2.57,2.651,1.364Z" transform="translate(-404.738 -312.03)" fill="#6781b2"/>
      <path id="Path_16865" data-name="Path 16865" d="M840.434,303.45s3.31,3.851,3.65,5.175,2.413,4.64,3.656,4.225a2.107,2.107,0,0,0,1.247-1.939S840.279,300,839.035,300a15.49,15.49,0,0,0-3.515.755Z" transform="translate(-532.321 -273.676)" fill="#ffac43"/>
      <path id="Path_16866" data-name="Path 16866" d="M819.383,295.307S818.428,294,817.6,294a1.123,1.123,0,0,0-.829,1.658C817.185,296.073,819.383,295.307,819.383,295.307Z" transform="translate(-521.249 -270.163)" fill="#ffac43"/>
      <ellipse id="Ellipse_3103" data-name="Ellipse 3103" cx="1.471" cy="2.512" rx="1.471" ry="2.512" transform="translate(214.233 89.332)" fill="#cbd4e4"/>
      <path id="Path_16867" data-name="Path 16867" d="M846.487,317l1.244,2.9L844,321.56l1.658.829,2.9-2.073Z" transform="translate(-537.286 -283.629)" fill="#6781b2"/>
      <path id="Path_16868" data-name="Path 16868" d="M873,359.56l1.658-2.487h1.658V355l.414,2.9h-1.658l-.415,3.731Z" transform="translate(-554.265 -305.877)" fill="#6781b2"/>
      <path id="Path_16869" data-name="Path 16869" d="M875.244,346,874,347.658v1.658l.415-1.658h.829l-.414-.415Z" transform="translate(-554.85 -300.608)" fill="#6781b2"/>
      <path id="Path_16870" data-name="Path 16870" d="M742,444.389l1.658-1.658L744.9,439l-.414,4.145Z" transform="translate(-477.568 -355.057)" fill="#6781b2"/>
      <path id="Path_16871" data-name="Path 16871" d="M689.274,400l.829,1.658-1.343,3.033,1.758-3.033,1.244-.414-1.244-.415Z" transform="translate(-446.397 -332.224)" fill="#6781b2"/>
      <path id="Path_16872" data-name="Path 16872" d="M675.78,412.873l-4.321-2.6-.761-2.45-.03,2.511,1.862,1.436-1.011,2.712,1.6-2.393Z" transform="translate(-435.805 -336.806)" fill="#6781b2"/>
      <path id="Path_16873" data-name="Path 16873" d="M660.627,380.5a36.879,36.879,0,0,0-4.67-1.145l-1.666,1.511,2.487,3.316-2.681.691-7.724,7.841-.373,7.22,1.372-7.066,8.162-6.2,4.974-.829-2.487-4.56Z" transform="translate(-421.362 -320.136)" fill="#6781b2"/>
      <path id="Path_16874" data-name="Path 16874" d="M715.371,406.287c-.762-.587-1.537-1.155-2.319-1.711l-1,1,2.073,5.389L705,418.017l9.949-6.632-1.244-4.145Z" transform="translate(-455.905 -334.903)" fill="#6781b2"/>
      <path id="Path_16875" data-name="Path 16875" d="M772.806,468.324l-.49,3.182L769,472.749l3.731-.829.791-1.846C773.291,469.488,773.055,468.9,772.806,468.324Z" transform="translate(-493.376 -372.225)" fill="#6781b2"/>
      <path id="Path_16876" data-name="Path 16876" d="M734.145,346.073,730.415,344,730,345.658l3.731,2.073Z" transform="translate(-470.542 -299.437)" fill="#bac6dc"/>
      <path id="Path_16877" data-name="Path 16877" d="M850.073,422.415,848,422v1.658h2.487Z" transform="translate(-539.628 -345.104)" fill="#bac6dc"/>
      <path id="Path_16878" data-name="Path 16878" d="M1300.557,475.548l13.711-2.841-13.5-2.8-3.039-21.855-3.078,22.138-13.465,2.516,13.673,2.555,2.87,22.1Z" transform="translate(-793.243 -360.357)" fill="#f9f9f9"/>
    </g>
  </g>
</svg>
