<svg xmlns="http://www.w3.org/2000/svg" xmlns:xlink="http://www.w3.org/1999/xlink" width="440.689" height="336" viewBox="0 0 440.689 336">
  <defs>
    <clipPath id="clip-path">
      <path id="Path_17250" data-name="Path 17250" d="M484.7,168.677c-53.739-44.7-139.62-9.009-177.245,15.472-23.734,15.443-32.97,29.487-78.023,57.7-31.821,19.925-40.011,20.934-47.108,33.523-19.893,35.287,2.613,101.587,40.631,138.282,49.13,47.42,128.992,50.057,169,14.183,21.985-19.713,14.142-35.1,42.4-66.079,38.849-42.593,70.257-31.683,86.267-61.888C539.71,263.857,521.206,199.039,484.7,168.677Z" transform="translate(-174.934 -147.357)" fill="none"/>
    </clipPath>
  </defs>
  <g id="Group_33310" data-name="Group 33310" transform="translate(-47.823 -51)">
    <path id="Path_17219" data-name="Path 17219" d="M484.7,168.677c-53.739-44.7-139.62-9.009-177.245,15.472-23.734,15.443-32.97,29.487-78.023,57.7-31.821,19.925-40.011,20.934-47.108,33.523-19.893,35.287,2.613,101.587,40.631,138.282,49.13,47.42,128.992,50.057,169,14.183,21.985-19.713,14.142-35.1,42.4-66.079,38.849-42.593,70.257-31.683,86.267-61.888C539.71,263.857,521.206,199.039,484.7,168.677Z" transform="translate(-86.139 -65.298)" fill="#f9f9f9"/>
    <g id="Group_33325" data-name="Group 33325" transform="translate(331.535 110.605)">
      <path id="Path_17220" data-name="Path 17220" d="M1035.042,248.916a11.108,11.108,0,0,0-1.97-3.617,9.723,9.723,0,0,0-7.369-3.855,4.934,4.934,0,0,1-3.776-1.661,2.275,2.275,0,0,0-.841-.605,2.452,2.452,0,0,0-1.871.034l-2.615-.683a1.013,1.013,0,0,0-.374-.272,1.369,1.369,0,0,0-1.171.154,6.991,6.991,0,0,1-4.612.752,61.531,61.531,0,0,0-17.258-.823,8.114,8.114,0,0,1-4.875-1.087,9.529,9.529,0,0,0-1.222-.609c-5.16-2.129-11.17.571-13.423,6.032-.1.239-.186.479-.266.72a.285.285,0,0,1-.153.17,65.127,65.127,0,0,0-14.486,8.9q-1.867,1.512-3.59,3.13a6.413,6.413,0,0,1-4.547,1.78,3.847,3.847,0,0,0-2.8,1.072,3.987,3.987,0,0,0-.288,5.33.288.288,0,0,1,0,.349l0,0a.284.284,0,0,1-.353.088,6.576,6.576,0,0,0-8.489,1.984,6.276,6.276,0,0,0-.057,6.557,7.9,7.9,0,0,1,.449,6.713,61.012,61.012,0,0,0-3.345,31.328,2.315,2.315,0,0,1-.345,1.629l0,.007a9.01,9.01,0,0,0,2.477,12.5l.024.016a12.74,12.74,0,0,1,4.257,4.525A57.183,57.183,0,0,0,957.1,346.95a10.5,10.5,0,0,1,3.485,4.673,3.291,3.291,0,0,0,1.291,1.668,3.473,3.473,0,0,0,2.827.372.308.308,0,0,1,.347.163,5.161,5.161,0,0,0,1.869,2.245,5.793,5.793,0,0,0,4.489.62,10.717,10.717,0,0,1,5.233.132,62.1,62.1,0,0,0,38.825-1.706,8.347,8.347,0,0,1,6.9.427,2.687,2.687,0,0,0,2.217.276,3.24,3.24,0,0,0,1.827-2.81,8.1,8.1,0,0,1,3.423-5.476q1.874-1.311,3.681-2.773a63.691,63.691,0,0,0,22.959-39.161,6.174,6.174,0,0,1,1.6-3.255,4.918,4.918,0,0,0,1.559-3.581,4.389,4.389,0,0,0-1.053-2.576,6.42,6.42,0,0,1-1.4-3.691,57.139,57.139,0,0,0-20.26-40.8A6.029,6.029,0,0,1,1035.042,248.916Z" transform="translate(-931.984 -235.917)" fill="#d9d9d9"/>
      <g id="Group_33311" data-name="Group 33311" transform="translate(7.787 58.783)">
        <g id="Group_33310-2" data-name="Group 33310" transform="translate(0 0)">
          <ellipse id="Ellipse_3193" data-name="Ellipse 3193" cx="3.08" cy="1.508" rx="3.08" ry="1.508" transform="translate(0 6.017) rotate(-77.585)" fill="#f2f2f2"/>
        </g>
        <path id="Path_17221" data-name="Path 17221" d="M957.115,419.437c.813.179,1.177,1.671.811,3.333a5.888,5.888,0,0,1-.409,1.221,5.739,5.739,0,0,0,.5-1.407c.366-1.662,0-3.154-.811-3.333-.595-.131-1.266.477-1.727,1.463C955.935,419.838,956.558,419.314,957.115,419.437Z" transform="translate(-954.409 -418.926)" fill="#b7b7b7"/>
      </g>
      <g id="Group_33313" data-name="Group 33313" transform="translate(95.832 61.306)">
        <g id="Group_33312" data-name="Group 33312" transform="translate(0 0)">
          <ellipse id="Ellipse_3194" data-name="Ellipse 3194" cx="5.849" cy="4.609" rx="5.849" ry="4.609" transform="translate(0 11.425) rotate(-77.585)" fill="#f2f2f2"/>
        </g>
        <path id="Path_17222" data-name="Path 17222" d="M1236.185,429.7c2.485.547,3.938,3.549,3.243,6.7a7.221,7.221,0,0,1-.8,2.072,7.035,7.035,0,0,0,1.271-2.767c.694-3.155-.758-6.157-3.243-6.7-1.888-.415-3.827.706-4.955,2.65A4.531,4.531,0,0,1,1236.185,429.7Z" transform="translate(-1229.636 -428.013)" fill="#b7b7b7"/>
      </g>
      <g id="Group_33315" data-name="Group 33315" transform="translate(34.649 62.722)">
        <g id="Group_33314" data-name="Group 33314" transform="translate(0 0.002)">
          <circle id="Ellipse_3195" data-name="Ellipse 3195" cx="7.214" cy="7.214" r="7.214" fill="#f2f2f2"/>
        </g>
        <path id="Path_17223" data-name="Path 17223" d="M1046.474,431.351a7.216,7.216,0,0,1,4.348,11.2,7.213,7.213,0,1,0-11.249-8.987A7.207,7.207,0,0,1,1046.474,431.351Z" transform="translate(-1038.258 -430.503)" fill="#b7b7b7"/>
      </g>
      <g id="Group_33322" data-name="Group 33322" transform="translate(0 26.458)">
        <circle id="Ellipse_3196" data-name="Ellipse 3196" cx="24.163" cy="24.163" r="24.163" transform="translate(0.007 0.007)" fill="#a9b8d3"/>
        <g id="Group_33321" data-name="Group 33321" transform="translate(4.776 17.099)">
          <g id="Group_33316" data-name="Group 33316" transform="translate(8.564 1.43)">
            <path id="Path_17224" data-name="Path 17224" d="M983.652,393.2q-3.235-.727-6.6-1.47c-.01,0-4.055.183-4.938-2.4-.861-2.587-2.534-3.652-2.711-7.6-.153-3.942.58-3.088,4.066-4.215,3.3-1.173,11.771-4.121,18.57.41,6.426,4.441,2.976,7.364,2.951,7.9-.141.5-.573,3.515-.964,4.669a5,5,0,0,1-1.866,3.216c-1.548,1.271-9.263,1.072-7.736,1C986.522,394.6,983.669,393.2,983.652,393.2Z" transform="translate(-969.386 -375.482)"/>
            <path id="Path_17225" data-name="Path 17225" d="M995.329,410.647a7.2,7.2,0,0,0,8.127-1.846c-.005.005-.013.009-.018.014a7.215,7.215,0,0,0,.2-8l-.035-.022c-8.953-.2-9.363-5.282-13.878-7.711q.534-.839,1.089-1.675s1.057-.4,1.786-.729a3.291,3.291,0,0,0,1.249-1.511,4.553,4.553,0,0,1-.785-3.206,1.638,1.638,0,0,0-1.64-.288c-1.33.5-1.172-1.046-1.173-1.047a14.732,14.732,0,0,0-4.226-3.746c-.046-.027.016-.091.022-.11.079-.262-.014.511-1.974,1a31.9,31.9,0,0,1-9.355.569c-2.868-.184-5.074-.569-5.073-.569.092.029,3.418,12.009,4.3,15.151,1.068,3.195,5.722,5.481,4.9,4.6A152.617,152.617,0,0,1,995.329,410.647Z" transform="translate(-969.564 -379.031)" fill="#ffac43"/>
          </g>
          <g id="Group_33319" data-name="Group 33319" transform="translate(11.086 10.699)">
            <g id="Group_33317" data-name="Group 33317">
              <path id="Path_17226" data-name="Path 17226" d="M992.325,404.241s-.306-.043-.821.421c-.969,1.765-1.4,3.842-3.1,5.074a7.6,7.6,0,0,1-1.549.816,9.277,9.277,0,0,1-5.384.789,5.212,5.212,0,0,1-3.707-2.857,2.564,2.564,0,0,0-.438,2.417,10.424,10.424,0,0,0,1.156,2.478c.656,1.122,1.641,3-.463,3.976,5.246,1.008,6.755-.18,8.961-.753a9.49,9.49,0,0,0,2.249-.877,7.117,7.117,0,0,0,3.589-7.081,13.447,13.447,0,0,1-.568-2.756,2.959,2.959,0,0,1,.285-1.195A2.311,2.311,0,0,1,992.325,404.241Z" transform="translate(-977.21 -404.24)"/>
            </g>
            <g id="Group_33318" data-name="Group 33318" transform="translate(0.374 3.568)">
              <path id="Path_17227" data-name="Path 17227" d="M978.369,415.309a2.859,2.859,0,0,0,.179.676.206.206,0,0,0,.014-.018C978.5,415.748,978.434,415.529,978.369,415.309Z" transform="translate(-978.369 -415.309)"/>
            </g>
          </g>
          <g id="Group_33320" data-name="Group 33320" transform="translate(4.085)">
            <path id="Path_17228" data-name="Path 17228" d="M987.74,377.953c-.086-1.865-2.685-2.985-5.117-3.782,1.227-.459,2.46-.913,3.734-1.36a27.749,27.749,0,0,0-4.707,1.233,5.269,5.269,0,0,1,.731-.984,15.842,15.842,0,0,0-1.247,1.149c-.261-1.3-1.879-2.3-3.689-2.747a22.435,22.435,0,0,0-5.64-.4c-1.494.021-2.991.043-4.477.067a4.974,4.974,0,0,0-2.359.409.9.9,0,0,0-.008,1.611l-3.848-.966a4.291,4.291,0,0,0-2.326-.153.748.748,0,0,0,.022,1.431,8.252,8.252,0,0,0-3.319-.319,10.023,10.023,0,0,0,5.493,2.932,2.086,2.086,0,0,1,.214.022q.173.026.358.046l.124.012c.081.008.173.016.259.023l.156.01.251.013.172.006.259.006.18,0h.272l.184,0,.3-.006.173,0,.373-.015.11,0c.161-.008.325-.017.488-.027l.188-.013.316-.022.227-.017.283-.023.246-.021.271-.025.253-.024.266-.027.261-.027.256-.027.269-.03.244-.028.274-.032c.462-.09.918-.186,1.377-.286l.066.1c2.686-.36,4.926-.749,4.924-.749s.05-.03.075-.049a.183.183,0,0,1,.023-.014l0,0s-.021.014-.046.033-.028.021-.051.035l-.635.439a8.336,8.336,0,0,1-2.485,1.073l-.064.016q1.541,2.619,2.887,5.192,1.227-.394,2.482-.782c.011,0,1.157,1.61.111,2.815a87.322,87.322,0,0,1,4.863,9.008c1.377-.327.007.043,1-.955,1.328-1.327,2.113-3.214,1.374-4.661a3.086,3.086,0,0,0,2.14.459c.782-.176,1.457-1.063.947-1.5a2.781,2.781,0,0,0-.838-.336c-1.5-.546-1.389-2.383-.611-3.713S987.808,379.338,987.74,377.953Z" transform="translate(-955.49 -371.047)"/>
          </g>
          <path id="Path_17229" data-name="Path 17229" d="M967.846,381.224c-.157-.037-4.339,4.451-19.137,1.652-15.344-2.935,4.094-.432,4.385-.975C953.327,381.344,967.8,381.212,967.846,381.224Z" transform="translate(-942.817 -377.943)"/>
        </g>
        <ellipse id="Ellipse_3197" data-name="Ellipse 3197" cx="1.613" cy="2.581" rx="1.613" ry="2.581" transform="translate(28.073 24.3) rotate(-2.363)" fill="#ffac43"/>
        <path id="Path_17230" data-name="Path 17230" d="M944.43,319.277a24.163,24.163,0,1,0,30.629,15.151A24.163,24.163,0,0,0,944.43,319.277Zm16.105,39.859c-1.3,3.424-13.2,2.8-17.4,2.438-3.468-.3-10.184-23.993-6.919-27.181,4.268-4.168,15.5-3.427,17.541-1.351C955.855,335.178,961.806,355.8,960.535,359.136Z" transform="translate(-928 -317.998)" fill="#fff"/>
        <ellipse id="Ellipse_3198" data-name="Ellipse 3198" cx="7.505" cy="6.954" rx="7.505" ry="6.954" transform="translate(35.789 28.488) rotate(-89.766)" fill="#dce2ed"/>
        <ellipse id="Ellipse_3199" data-name="Ellipse 3199" cx="7.382" cy="5.815" rx="7.382" ry="5.815" transform="translate(38.395 28.253) rotate(-89.766)" fill="#fff"/>
      </g>
      <g id="Group_33324" data-name="Group 33324" transform="translate(94.878 78.425)">
        <g id="Group_33323" data-name="Group 33323" transform="translate(0 0)">
          <ellipse id="Ellipse_3200" data-name="Ellipse 3200" cx="3.79" cy="2.796" rx="3.79" ry="2.796" transform="translate(0 7.404) rotate(-77.585)" fill="#f2f2f2"/>
        </g>
        <path id="Path_17231" data-name="Path 17231" d="M1229.293,481.348c1.508.332,2.365,2.258,1.915,4.3a4.978,4.978,0,0,1-.527,1.385,4.841,4.841,0,0,0,.763-1.753c.45-2.044-.407-3.971-1.915-4.3a2.934,2.934,0,0,0-3.018,1.716A2.786,2.786,0,0,1,1229.293,481.348Z" transform="translate(-1225.168 -480.379)" fill="#b7b7b7"/>
      </g>
    </g>
    <g id="Group_33339" data-name="Group 33339" transform="translate(88.796 82.059)">
      <g id="Group_33338" data-name="Group 33338" transform="translate(0 0)" clip-path="url(#clip-path)">
        <g id="Group_33337" data-name="Group 33337" transform="translate(-316.498 84.642)">
          <path id="Path_17232" data-name="Path 17232" d="M-541.014,1155.231a60.5,60.5,0,0,0,18.716,12.334c16.22,6.87,33.224,6.259,45.256-.335a26.854,26.854,0,0,1,22.384-1.685,12.366,12.366,0,0,0,5.59.756,13.343,13.343,0,0,0,8.9-4.953l14.308-3.407a5.524,5.524,0,0,0,2.49.347c1.98-.195,3.746-1.523,5.23-3.737a38.054,38.054,0,0,1,20.229-15.41,334.844,334.844,0,0,0,84.993-40.2,44.146,44.146,0,0,1,26.195-7.25,52.016,52.016,0,0,0,7.426-.2c30.231-2.974,52.187-31.318,49.04-63.307-.138-1.4-.332-2.775-.563-4.138a1.54,1.54,0,0,1,.3-1.207A354.4,354.4,0,0,0-183.7,943.054q5.1-12.039,9.237-24.218a34.9,34.9,0,0,1,17.285-20.179,20.937,20.937,0,0,0,10.71-12.316c3.409-10.507-2.032-21.806-12.25-26.339a1.567,1.567,0,0,1-.914-1.664l0-.023a1.549,1.549,0,0,1,1.472-1.327c18.651-.606,34.162-13.78,35.7-31.247,1.129-12.848-5.595-24.724-16.5-31.638a42.989,42.989,0,0,1-19.328-31.092c-7.3-58.226-29.412-113.213-64.075-159.024a12.593,12.593,0,0,1-2.507-8.708l0-.047c2.4-27.309-17.241-51.345-43.868-53.685l-.156-.013a69.315,69.315,0,0,1-32.022-10.842,310.584,310.584,0,0,0-48.248-25.633,309.515,309.515,0,0,0-68.288-20.065,57.153,57.153,0,0,1-28.694-13.528,17.908,17.908,0,0,0-10.469-4.71c-5.329-.468-10.415,1.624-14.53,5.445a1.676,1.676,0,0,1-2.082.1,28.084,28.084,0,0,0-14.725-6c-8.07-.709-15.982,2.425-23.147,8.507a58.312,58.312,0,0,1-25.47,12.747c-69.012,14.761-133.322,52.156-182.109,107.514a45.422,45.422,0,0,1-34.231,15.6c-4.663-.035-8.668,1.37-11.352,4.347-3.877,4.3-4.2,11-1.588,18.167a44.068,44.068,0,0,1-2.433,35.06q-5.647,11.089-10.589,22.736c-34.858,82.3-36.157,170.039-10.092,246.824a33.606,33.606,0,0,1,.618,19.738c-2.214,8.022-1.809,15.3,1.674,21.189a23.892,23.892,0,0,0,11.649,9.68,34.942,34.942,0,0,1,16.165,14.147c33.269,54.968,82.794,99.883,145.442,126.417a309.928,309.928,0,0,0,56.251,17.74A32.809,32.809,0,0,1-541.014,1155.231Z" transform="translate(806.957 -448.07)" fill="#f6f6f6"/>
          <g id="Group_33327" data-name="Group 33327" transform="translate(469.325 137.875)">
            <g id="Group_33326" data-name="Group 33326" transform="translate(0 0)">
              <ellipse id="Ellipse_3201" data-name="Ellipse 3201" cx="6.115" cy="7.629" rx="6.115" ry="7.629" transform="translate(0 11.944) rotate(-77.585)" fill="#f2f2f2"/>
            </g>
            <path id="Path_17233" data-name="Path 17233" d="M664.137,842.643c4.115.906,6.862,4.314,6.136,7.612a5.1,5.1,0,0,1-1.22,2.333,5.17,5.17,0,0,0,1.551-2.671c.726-3.3-2.021-6.706-6.136-7.612a7.909,7.909,0,0,0-7.545,2A8.071,8.071,0,0,1,664.137,842.643Z" transform="translate(-654.388 -840.665)" fill="#d9d9d9"/>
          </g>
          <g id="Group_33329" data-name="Group 33329" transform="translate(402.976 138.352)">
            <g id="Group_33328" data-name="Group 33328" transform="translate(0 0)">
              <ellipse id="Ellipse_3202" data-name="Ellipse 3202" cx="21.981" cy="27.405" rx="21.981" ry="27.405" transform="translate(0 42.934) rotate(-77.585)" fill="#f2f2f2"/>
            </g>
            <path id="Path_17234" data-name="Path 17234" d="M494.825,858.234c14.782,3.254,24.649,15.5,22.039,27.358a18.19,18.19,0,0,1-3.742,7.626,18.713,18.713,0,0,0,6.156-10.1c2.61-11.856-7.258-24.1-22.039-27.358-11.225-2.471-22.044.965-27.748,7.949C475.541,858.435,485.021,856.076,494.825,858.234Z" transform="translate(-461.023 -849.873)" fill="#d9d9d9"/>
          </g>
          <g id="Group_33331" data-name="Group 33331" transform="translate(502.438 133.24)">
            <g id="Group_33330" data-name="Group 33330" transform="translate(0 0)">
              <ellipse id="Ellipse_3203" data-name="Ellipse 3203" cx="11.413" cy="21.732" rx="11.413" ry="21.732" transform="translate(0 18.361) rotate(-53.55)" fill="#f2f2f2"/>
            </g>
            <path id="Path_17235" data-name="Path 17235" d="M803.773,849.65c9.654,7.131,14.445,17.022,10.7,22.092a7.042,7.042,0,0,1-3.979,2.547,7.767,7.767,0,0,0,5.657-2.842c3.745-5.07-1.046-14.961-10.7-22.092-7.258-5.361-15.2-7.633-20.283-6.278C790.224,842.533,797.268,844.845,803.773,849.65Z" transform="translate(-774.409 -836.444)" fill="#d9d9d9"/>
          </g>
          <g id="Group_33336" data-name="Group 33336" transform="translate(388.989 0)">
            <path id="Path_17236" data-name="Path 17236" d="M571.558,548.037c2.876,20.544-9.8,38.693-28.31,40.536s-37.033-13.2-41.37-33.6,8.338-38.547,28.31-40.536S568.682,527.494,571.558,548.037Z" transform="translate(-468.407 -480.639)" fill="#cbd4e4"/>
            <g id="Group_33332" data-name="Group 33332" transform="translate(21.959 98.25)">
              <path id="Path_17237" data-name="Path 17237" d="M759.293,1225.986" transform="translate(-665.384 -1061.198)" fill="#dce2ed"/>
              <path id="Path_17238" data-name="Path 17238" d="M552.693,1300.585" transform="translate(-525.378 -1111.751)" fill="#788eba"/>
              <path id="Path_17239" data-name="Path 17239" d="M486.745,803.681a31.436,31.436,0,0,0,18.8-1.44,44.142,44.142,0,0,0,.669-5.3,38.834,38.834,0,0,0-1.14-11.952,30.314,30.314,0,0,0-3.6-8.533,22.306,22.306,0,0,0-4.693-5.426c6.08-1.884,12.427-8.855,16.453-18.95,3.416-8.342,4.5-17.025,3.38-23.864a44.693,44.693,0,0,0-3.7-9.244c.025.107.049.215.077.322a11.029,11.029,0,0,0-2.98-2.615c-2.946-1.724-6.377-1.729-9.845-.331l.681-1.6q-.629.2-1.24.443l-.424,1.585c-1.14.546-12.3,11.7-14.841,18.112a46.207,46.207,0,0,0-3.216,17.7c.775,3.661,1.109,7.342,2.21,10.971a17.158,17.158,0,0,0,2.211,3.781,13.048,13.048,0,0,0-3,.7,15.832,15.832,0,0,0-6.64,4.811,32.178,32.178,0,0,0-5.141,9.029,62.264,62.264,0,0,0-2.813,9.639C471.829,797.279,478.525,801.872,486.745,803.681Z" transform="translate(-467.952 -714.754)" fill="#5673a9"/>
              <path id="Path_17240" data-name="Path 17240" d="M474.957,799.793c3.048-12.389,12.365-19.826,23.507-23.522-4.712-6.545-5.523-17.4-5.726-24.231-.282-10.751,3.53-23.233,14.379-24.621a15.785,15.785,0,0,1,3.058-.082,7.046,7.046,0,0,1,4.959,1.2,12.538,12.538,0,0,1,1.452.781,30,30,0,0,0-3.674-9.11c.025.107-1.775-1.631-2.9-2.294-2.946-1.725-6.377-1.729-9.845-.331l-.983.433a20.634,20.634,0,0,0-3.4,2.078l-1.321,1.053a38.414,38.414,0,0,0-10.124,14.981,46.051,46.051,0,0,0-3.2,17.795c-.261,2.841,2,10.244,2.19,10.873a17.149,17.149,0,0,0,2.211,3.781,13.048,13.048,0,0,0-3,.7,19.619,19.619,0,0,0-6.64,4.811,30.322,30.322,0,0,0-5.142,9.029,62.215,62.215,0,0,0-2.813,9.639A27.322,27.322,0,0,0,474.957,799.793Z" transform="translate(-467.952 -715.988)" fill="#355586"/>
            </g>
            <path id="Path_17241" data-name="Path 17241" d="M589.507,457.03a63.144,63.144,0,0,1-3.575,8.106,4.482,4.482,0,0,0-1.044-.25c3.162-5.753,5.431-12.811,7.142-19.768.71-2.844,1.352-5.716,1.977-8.6a84.145,84.145,0,0,0,1.734-8.827,13.547,13.547,0,0,0-1.213-7.755,21.225,21.225,0,0,0-3.976-5.364,19.085,19.085,0,0,0-2.6-2.2,2.842,2.842,0,0,0-2.711-.638,2.1,2.1,0,0,0-.295.16,4.642,4.642,0,0,1,.766,1.82,6.471,6.471,0,0,1,.1,1.881,1.569,1.569,0,0,1-1.046,1.417c-.852.288-1.689-.439-2.009-1.524a4.728,4.728,0,0,1,.525-3.479c-.068-.523,2.97-3.939,5.724-.675,1.7,2.023,3.754,3.409,5.277,5.706a14.772,14.772,0,0,1,2.582,8.759c-.085,3.508-1.07,7.128-1.821,10.552A156.652,156.652,0,0,1,589.507,457.03Z" transform="translate(-523.7 -409.947)" fill="#355586"/>
            <g id="Group_33335" data-name="Group 33335" transform="translate(30.035 33.625)">
              <g id="Group_33333" data-name="Group 33333" transform="translate(0 15.529)">
                <path id="Path_17242" data-name="Path 17242" d="M507.922,575.839c-1.381,5.779-5.693,9.291-9.669,7.848s-6.182-7.289-4.859-13.063c1.351-5.777,5.758-9.3,9.805-7.861S509.33,570.057,507.922,575.839Z" transform="translate(-493.008 -562.442)" fill="#fff"/>
                <path id="Path_17243" data-name="Path 17243" d="M514,577.137c-1.361,5.685-5.13,9.312-8.453,8.105s-5-6.787-3.682-12.467c1.34-5.683,5.193-9.318,8.572-8.117S515.391,571.45,514,577.137Z" transform="translate(-498.708 -563.788)" fill="#dce2ed"/>
              </g>
              <path id="Path_17244" data-name="Path 17244" d="M530.187,514.441c-19.973,1.989-32.647,20.138-28.31,40.536s22.859,35.44,41.37,33.6,31.186-19.992,28.31-40.536S550.16,512.452,530.187,514.441Z" transform="translate(-498.442 -514.264)" fill="#edf0f5"/>
              <g id="Group_33334" data-name="Group 33334" transform="translate(58.2 38.241)">
                <path id="Path_17245" data-name="Path 17245" d="M687.916,646.383c-1.611,5.8-5.947,9.316-9.722,7.853s-5.63-7.344-4.077-13.14c1.582-5.8,6.012-9.323,9.858-7.866S689.556,640.578,687.916,646.383Z" transform="translate(-673.566 -632.901)" fill="#fff"/>
                <path id="Path_17246" data-name="Path 17246" d="M693.666,647.7c-1.587,5.708-5.4,9.339-8.558,8.115s-4.507-6.835-2.966-12.539c1.567-5.706,5.467-9.346,8.677-8.127S695.28,641.992,693.666,647.7Z" transform="translate(-678.944 -634.267)" fill="#dce2ed"/>
              </g>
            </g>
            <path id="Path_17247" data-name="Path 17247" d="M422.387,523l-3.159-26.9,0-2.313a6.953,6.953,0,0,0-4.6-6.367c-3.246-1.172-7.281-2.816-8.811-4.238-2.333-2.161-5.795-11.085-5.795-11.085s-.874,9.778,1.01,12.533c1.069,1.568,4.819,3.379,7.7,4.6a7.094,7.094,0,0,1,4.21,5.25l5.639,33.43,24.243,38.077c.317-.162,1.849.828,2.274,1.069C445.486,567.276,422,522.768,422.387,523Z" transform="translate(-399.828 -452.068)" fill="#355586"/>
            <path id="Path_17248" data-name="Path 17248" d="M671.849,647.239s1.132,11.225-2.012,12.186c-2.179.667-12.153.237-18.067-.087a7.046,7.046,0,0,0-6.622,3.847L628.583,695.6l-37.526-.8,39.487,4.747,22.429-32.169a6.947,6.947,0,0,1,6.774-2.873c4.805.769,12.251,1.611,13.816-.272C675.923,661.41,671.849,647.239,671.849,647.239Z" transform="translate(-529.417 -570.751)" fill="#355586"/>
            <path id="Path_17249" data-name="Path 17249" d="M668.358,414.956c-.846-1.447-2.206-1.981-3.577-.923a.643.643,0,0,0-.286.244,5.311,5.311,0,0,0-1.507,4.9.4.4,0,0,0,.406.327c1.372-.243,2.368-2.6,2.086-4.358a1.228,1.228,0,0,1,.7-.166c1.551.205,2.172,2.848,2.364,4.882.441,4.675-.621,9.712-2.081,14.331a153.657,153.657,0,0,1-5.6,14.452q-1.6,3.787-3.272,7.488c.276.244.54.469.809.667q2.64-5.855,5.114-11.914a90.619,90.619,0,0,0,5.256-15.513,35.829,35.829,0,0,0,.884-7.935A13.778,13.778,0,0,0,668.358,414.956Z" transform="translate(-574.503 -412.34)" fill="#355586"/>
          </g>
        </g>
      </g>
    </g>
    <g id="Group_33344" data-name="Group 33344" transform="translate(308.541 68.924)">
      <g id="Group_33340" data-name="Group 33340" transform="translate(19.418 27.864)">
        <path id="Path_17251" data-name="Path 17251" d="M917.38,200.385c-.914,1.9-.482,3.976,1.022,4.64s3.529-.383,4.471-2.355.421-4.064-1.108-4.661S918.3,198.481,917.38,200.385Z" transform="translate(-916.903 -196.298)"/>
        <path id="Path_17252" data-name="Path 17252" d="M938.716,195.364c-1.13,1.875-1.043,4.029.244,4.843s3.314-.067,4.48-2,1-4.137-.32-4.892S939.848,193.489,938.716,195.364Z" transform="translate(-931.15 -193.051)"/>
      </g>
      <g id="Group_33343" data-name="Group 33343">
        <g id="Group_33341" data-name="Group 33341" transform="translate(0 3.731)">
          <path id="Path_17253" data-name="Path 17253" d="M857.168,122.674c-1.221,3.234-.169,6.73,2.525,7.839s6.073-.77,7.371-4.23-.036-7-2.8-7.885S858.4,119.439,857.168,122.674Z" transform="translate(-856.663 -118.183)" fill="#6c6c6c"/>
          <path id="Path_17254" data-name="Path 17254" d="M857.168,122.674c-1.221,3.234-.169,6.73,2.525,7.839s6.073-.77,7.371-4.23-.036-7-2.8-7.885S858.4,119.439,857.168,122.674Z" transform="translate(-856.663 -118.183)" fill="#6c6c6c"/>
          <path id="Path_17255" data-name="Path 17255" d="M860.489,126.02c-.971,2.57-.063,5.357,2.14,6.241s4.9-.581,5.925-3.3-.064-5.53-2.312-6.269S861.463,123.452,860.489,126.02Z" transform="translate(-858.993 -121.112)" fill="#fff"/>
        </g>
        <path id="Path_17256" data-name="Path 17256" d="M864.7,136.379c2.69,1.108,6.073-.77,7.371-4.23a7.022,7.022,0,0,0-.038-5.309,218.961,218.961,0,0,1,14.8,23.454q-1.4,2.432-2.881,4.819-1.178.331-2.358.647-8.408-10.254-17.547-19.711A4.208,4.208,0,0,0,864.7,136.379Z" transform="translate(-861.671 -120.318)"/>
        <path id="Path_17257" data-name="Path 17257" d="M897.486,125.909c2.374,1.294,5.8-.419,7.487-3.923a8.151,8.151,0,0,0,.681-5.526,189.3,189.3,0,0,1,10.437,25.447q-1.655,2.37-3.381,4.681-1.138.233-2.275.451a226.741,226.741,0,0,0-13.513-21.507A3.524,3.524,0,0,0,897.486,125.909Z" transform="translate(-883.945 -113.284)"/>
        <path id="Path_17258" data-name="Path 17258" d="M908.505,166.254h0A232.074,232.074,0,0,0,894.6,144.883h0a.3.3,0,0,1,.466.009,234.393,234.393,0,0,1,13.749,20.742A.446.446,0,0,1,908.505,166.254Z" transform="translate(-882.37 -132.473)" fill="#909090"/>
        <g id="Group_33342" data-name="Group 33342" transform="translate(11.322)">
          <path id="Path_17259" data-name="Path 17259" d="M892.7,110.986c-1.585,3.3-1.071,6.952,1.308,8.246s5.8-.419,7.487-3.923.912-7.3-1.562-8.388S894.288,107.687,892.7,110.986Z" transform="translate(-891.787 -106.607)" fill="#6c6c6c"/>
          <path id="Path_17260" data-name="Path 17260" d="M895.86,114.515c-1.261,2.622-.785,5.541,1.163,6.579s4.68-.3,6-3.054.687-5.761-1.321-6.668S897.122,111.9,895.86,114.515Z" transform="translate(-894.073 -109.651)" fill="#fff"/>
        </g>
        <path id="Path_17261" data-name="Path 17261" d="M868.418,143.687a2.338,2.338,0,0,0,1.49.455,3.265,3.265,0,0,0,1.582-.472,3.85,3.85,0,0,0,1.222-1.163,3.477,3.477,0,0,0,.585-1.547,9.575,9.575,0,0,1-.988,1.2,5.783,5.783,0,0,1-1.135.9,4.416,4.416,0,0,1-2.757.625Z" transform="translate(-864.629 -129.887)" fill="#b6b6b6"/>
        <path id="Path_17262" data-name="Path 17262" d="M901.9,133.163a1.956,1.956,0,0,0,1.365.543,2.993,2.993,0,0,0,1.517-.412A3.939,3.939,0,0,0,906,132.205a3.742,3.742,0,0,0,.671-1.481,13.064,13.064,0,0,1-1.044,1.1,6.383,6.383,0,0,1-1.122.829,4.288,4.288,0,0,1-1.236.484A3.643,3.643,0,0,1,901.9,133.163Z" transform="translate(-887.319 -122.95)" fill="#b6b6b6"/>
      </g>
    </g>
    <path id="Path_17263" data-name="Path 17263" d="M1088.449,439.767a32.9,32.9,0,0,1,6.364-3.078,22.315,22.315,0,0,1,6.954-1.411,14.142,14.142,0,0,1,3.571.359c.293.072.58.16.872.245a5.666,5.666,0,0,1,.854.379,8.7,8.7,0,0,1,1.491,1.053,18.2,18.2,0,0,1,2.448,2.626,29.777,29.777,0,0,1,2.011,2.947,53.195,53.195,0,0,1,6.779,20.08,50.675,50.675,0,0,1,.4,7.1,42.373,42.373,0,0,1-2.567,13.925,38.732,38.732,0,0,1-7.263,12.1,43.879,43.879,0,0,1-10.961,8.878,54.844,54.844,0,0,1-13.075,5.361,59.9,59.9,0,0,1-14.008,2.068,46.894,46.894,0,0,1-7.106-.326,27.415,27.415,0,0,1-3.519-.673,11.862,11.862,0,0,1-3.386-1.39,4.379,4.379,0,0,1-.759-.623,2.492,2.492,0,0,1-.572-.9,7.074,7.074,0,0,1-.4-1.842,4.723,4.723,0,0,1,.242-1.926,4.437,4.437,0,0,1,1.044-1.656,5.567,5.567,0,0,1,1.57-1.106,6.836,6.836,0,0,1,1.8-.579,4.934,4.934,0,0,1,1.958.01l.131.036c.027.008.034.008.076.023a.835.835,0,0,1,.119.054.928.928,0,0,1,.342.327,1.5,1.5,0,0,1,.2.628,3.933,3.933,0,0,1-.041,1.013,13.022,13.022,0,0,1-1.179,3.472,20.936,20.936,0,0,1-1.853,3.1,16.971,16.971,0,0,1-5.3,4.9,11.96,11.96,0,0,1-3.426,1.307,11.239,11.239,0,0,1-3.669.15c-.3-.037-.607-.084-.907-.145l-.863-.169c-.574-.11-1.15-.216-1.726-.313-1.152-.2-2.307-.378-3.465-.516a38.372,38.372,0,0,0-6.962-.274,16.62,16.62,0,0,0-6.641,1.648,9.674,9.674,0,0,0-2.689,2.054,9.536,9.536,0,0,0-1.787,2.885,12.673,12.673,0,0,0-.819,3.336,7.757,7.757,0,0,0,.356,3.37,6.68,6.68,0,0,0,1.925,2.776,10.3,10.3,0,0,0,2.971,1.759,17.473,17.473,0,0,0,3.369.942,21.4,21.4,0,0,0,3.495.344l0,.1a21.536,21.536,0,0,1-3.53-.246,17.711,17.711,0,0,1-3.443-.859,10.648,10.648,0,0,1-3.122-1.734,7.439,7.439,0,0,1-1.249-1.312,6.9,6.9,0,0,1-.868-1.6,8.266,8.266,0,0,1-.453-3.583,13.291,13.291,0,0,1,.788-3.513,10.194,10.194,0,0,1,1.848-3.119,10.047,10.047,0,0,1,2.853-2.254,17.394,17.394,0,0,1,6.934-1.822,39.246,39.246,0,0,1,7.126.189c1.179.127,2.353.291,3.521.481.584.1,1.166.2,1.747.312l.869.168c.277.055.555.1.835.131a10.253,10.253,0,0,0,3.35-.145,10.972,10.972,0,0,0,3.138-1.208,15.981,15.981,0,0,0,4.963-4.631,19.884,19.884,0,0,0,1.754-2.954,12.693,12.693,0,0,0,1.1-3.183,3,3,0,0,0,.042-.745.619.619,0,0,0-.051-.21.171.171,0,0,0,.03.022.142.142,0,0,0,.018.008l-.03-.009-.081-.023a4.012,4.012,0,0,0-1.547-.006,5.322,5.322,0,0,0-2.856,1.389,3.559,3.559,0,0,0-1.033,2.845,6.156,6.156,0,0,0,.335,1.6,2.329,2.329,0,0,0,.965,1.072,11.027,11.027,0,0,0,3.11,1.291,27.876,27.876,0,0,0,3.4.68,46.086,46.086,0,0,0,6.976.4,61.269,61.269,0,0,0,13.888-1.815,52.08,52.08,0,0,0,13.04-5.139,44.6,44.6,0,0,0,5.821-3.933,38.824,38.824,0,0,0,9.158-10.56,37.6,37.6,0,0,0,2.914-6.369,42.148,42.148,0,0,0,2.268-13.753,53.6,53.6,0,0,0-1.775-13.849,50.534,50.534,0,0,0-5.239-12.937,32.714,32.714,0,0,0-1.933-2.9,17.563,17.563,0,0,0-2.308-2.572,8.11,8.11,0,0,0-1.367-1.005,5.028,5.028,0,0,0-.749-.351c-.271-.084-.545-.174-.822-.248a13.606,13.606,0,0,0-3.425-.407,19.317,19.317,0,0,0-3.463.346,26.18,26.18,0,0,0-3.391.869,33.706,33.706,0,0,0-3.278,1.263,32.972,32.972,0,0,0-3.141,1.585Z" transform="translate(-660.274 -260.41)"/>
    <g id="Group_33345" data-name="Group 33345" transform="translate(281.182 332.128)">
      <path id="Path_17264" data-name="Path 17264" d="M773.725,925.71a151.678,151.678,0,0,1,15.722,16.64c-2.3,3.638-1.16,10.216,2.556,15.993,3.711,5.888,9.061,8.481,12.72,5.893l-.385.647q.619-.693,1.238-1.381c3.659-3.759,3.343-12.124-1.14-18.07-3.917-5.055-9.364-6.867-12.83-5.055a141.947,141.947,0,0,0-17.564-17.218q-.641.893-1.279,1.791Q773.245,925.326,773.725,925.71Z" transform="translate(-772.449 -923.159)" fill="#6c6c6c"/>
      <path id="Path_17265" data-name="Path 17265" d="M772.1,928.716q-.157,1.274-.315,2.549a150.134,150.134,0,0,1,15.725,16.444c-2.3,3.654-1.15,10.207,2.573,15.935,4.02,6.3,9.947,8.778,13.593,5.006,3.662-3.79,3.331-12.134-1.164-18.021-3.928-5-9.38-6.755-12.844-4.911A140.461,140.461,0,0,0,772.1,928.716Z" transform="translate(-771.786 -926.925)"/>
      <path id="Path_17266" data-name="Path 17266" d="M825.552,989.376c2.43-2.535,7.431-1.395,10.924,2.986,3.456,4.442,3.762,10.763.939,13.732-2.81,2.952-7.392,1.116-10.458-3.764C823.861,997.509,823.135,991.883,825.552,989.376Z" transform="translate(-807.244 -967.131)" fill="#fff"/>
      <path id="Path_17267" data-name="Path 17267" d="M829.272,1003.981A13.136,13.136,0,0,0,830.8,1006c-.227-.315-.449-.645-.662-.994-2.907-4.624-3.577-9.983-1.292-12.32a4.363,4.363,0,0,1,3.67-1.175,4.475,4.475,0,0,0-4.477.953C825.9,994.668,826.528,999.685,829.272,1003.981Z" transform="translate(-809.037 -969.338)" fill="#b6b6b6"/>
    </g>
    <g id="Group_33346" data-name="Group 33346" transform="translate(301.446 126.313)">
      <path id="Path_17268" data-name="Path 17268" d="M835.928,284.647a1.321,1.321,0,0,0,0,2.64A1.321,1.321,0,0,0,835.928,284.647Z" transform="translate(-834.653 -284.647)" fill="#ededed"/>
    </g>
    <circle id="Ellipse_3204" data-name="Ellipse 3204" cx="5.319" cy="5.319" r="5.319" transform="translate(309.309 109.826)" fill="#ededed"/>
    <g id="Group_33351" data-name="Group 33351" transform="translate(242.143 111.952)">
      <g id="Group_33348" data-name="Group 33348" transform="translate(0 0.076)">
        <g id="Group_33347" data-name="Group 33347" transform="translate(11.454)">
          <path id="Path_17269" data-name="Path 17269" d="M691.465,265.9c-.855-2.035-1.649-4.1-2.345-6.194s-1.339-4.212-1.838-6.366a38.634,38.634,0,0,1-1.043-6.558,15.037,15.037,0,0,1,.147-3.351,5.855,5.855,0,0,1,.525-1.64,2.72,2.72,0,0,1,1.269-1.283,2.752,2.752,0,0,1,1.819-.057,5.947,5.947,0,0,1,1.582.737,15.232,15.232,0,0,1,2.589,2.187,37.2,37.2,0,0,1,4.138,5.262,76.188,76.188,0,0,1,10.269,24.479,36.932,36.932,0,0,1,.855,6.639,15.213,15.213,0,0,1-.255,3.38,5.953,5.953,0,0,1-.583,1.646,2.758,2.758,0,0,1-1.317,1.259,2.721,2.721,0,0,1-1.806.006,5.84,5.84,0,0,1-1.539-.776,15.017,15.017,0,0,1-2.494-2.244,38.562,38.562,0,0,1-3.946-5.341c-1.187-1.866-2.252-3.805-3.252-5.773S692.319,267.941,691.465,265.9Zm0,0a72.522,72.522,0,0,0,6.162,11.7,36.523,36.523,0,0,0,4.074,5.181,14.646,14.646,0,0,0,2.487,2.1,5.371,5.371,0,0,0,1.428.666,1.882,1.882,0,0,0,2.426-1.062,5.309,5.309,0,0,0,.468-1.481,14.517,14.517,0,0,0,.136-3.217,38.255,38.255,0,0,0-1.03-6.455c-.494-2.132-1.127-4.233-1.822-6.311s-1.481-4.129-2.328-6.152-1.755-4.022-2.756-5.973-2.05-3.877-3.223-5.724a37.976,37.976,0,0,0-3.883-5.26,14.533,14.533,0,0,0-2.391-2.158,5.335,5.335,0,0,0-1.385-.7,1.885,1.885,0,0,0-2.461.988,5.366,5.366,0,0,0-.526,1.487,14.649,14.649,0,0,0-.244,3.247,36.429,36.429,0,0,0,.842,6.537A72.547,72.547,0,0,0,691.465,265.9Z" transform="translate(-686.21 -240.329)" fill="#ededed"/>
          <path id="Path_17270" data-name="Path 17270" d="M692.667,241.3a2.5,2.5,0,0,1,1.646-.1,5.72,5.72,0,0,1,1.546.671,14.727,14.727,0,0,1,2.607,2.113,35.439,35.439,0,0,1,4.179,5.211,73.225,73.225,0,0,1,10.262,24.464,35.435,35.435,0,0,1,.788,6.634,14.722,14.722,0,0,1-.321,3.34,5.737,5.737,0,0,1-.6,1.574,2.5,2.5,0,0,1-1.228,1.1,2.412,2.412,0,0,0,1.076-1.184,5.529,5.529,0,0,0,.446-1.553,15.029,15.029,0,0,0,.071-3.257,40.045,40.045,0,0,0-1.1-6.461c-.529-2.125-1.142-4.232-1.86-6.3-.7-2.078-1.486-4.128-2.337-6.15s-1.757-4.021-2.747-5.977-2.047-3.879-3.193-5.745a40.077,40.077,0,0,0-3.84-5.311,15.06,15.06,0,0,0-2.374-2.232,5.536,5.536,0,0,0-1.421-.77A2.411,2.411,0,0,0,692.667,241.3Z" transform="translate(-690.586 -240.859)" fill="#ededed"/>
        </g>
        <path id="Path_17271" data-name="Path 17271" d="M671.1,293.6c-2.044-.835-4.064-1.731-6.038-2.722s-3.925-2.031-5.8-3.2a38.673,38.673,0,0,1-5.375-3.9,15.02,15.02,0,0,1-2.265-2.473,5.845,5.845,0,0,1-.788-1.531,2.719,2.719,0,0,1-.01-1.8,2.755,2.755,0,0,1,1.246-1.327,5.959,5.959,0,0,1,1.64-.6,15.212,15.212,0,0,1,3.377-.285,37.132,37.132,0,0,1,6.646.795A76.183,76.183,0,0,1,688.3,286.6a36.977,36.977,0,0,1,5.3,4.09,15.225,15.225,0,0,1,2.21,2.571,5.951,5.951,0,0,1,.751,1.576,2.754,2.754,0,0,1-.041,1.821,2.72,2.72,0,0,1-1.273,1.282,5.849,5.849,0,0,1-1.637.54,15.024,15.024,0,0,1-3.35.177,38.575,38.575,0,0,1-6.567-.986c-2.159-.481-4.283-1.1-6.382-1.782S673.144,294.435,671.1,293.6Zm0,0a72.515,72.515,0,0,0,12.63,3.916,36.519,36.519,0,0,0,6.544.782,14.633,14.633,0,0,0,3.244-.273,5.378,5.378,0,0,0,1.481-.539,1.882,1.882,0,0,0,.964-2.467,5.324,5.324,0,0,0-.716-1.378,14.552,14.552,0,0,0-2.178-2.371,38.25,38.25,0,0,0-5.293-3.836c-1.857-1.158-3.79-2.2-5.752-3.174s-3.967-1.872-6-2.7-4.085-1.6-6.172-2.275-4.191-1.292-6.327-1.768a38.006,38.006,0,0,0-6.465-.974,14.518,14.518,0,0,0-3.216.165,5.319,5.319,0,0,0-1.478.482,1.885,1.885,0,0,0-1.042,2.438,5.374,5.374,0,0,0,.68,1.423,14.645,14.645,0,0,0,2.123,2.468,36.427,36.427,0,0,0,5.217,4.027A72.551,72.551,0,0,0,671.1,293.6Z" transform="translate(-650.674 -264.337)" fill="#ededed"/>
        <path id="Path_17272" data-name="Path 17272" d="M651.956,278.31a2.5,2.5,0,0,1,1.091-1.237,5.716,5.716,0,0,1,1.568-.618,14.713,14.713,0,0,1,3.337-.349,35.454,35.454,0,0,1,6.64.729,73.232,73.232,0,0,1,24.555,10.042,35.477,35.477,0,0,1,5.248,4.134,14.735,14.735,0,0,1,2.135,2.589,5.721,5.721,0,0,1,.685,1.54,2.5,2.5,0,0,1-.089,1.647,2.411,2.411,0,0,0-.076-1.6,5.544,5.544,0,0,0-.783-1.414,15.027,15.027,0,0,0-2.253-2.353,40.113,40.113,0,0,0-5.345-3.793c-1.877-1.129-3.8-2.185-5.773-3.142-1.964-.975-3.97-1.868-6-2.7s-4.086-1.6-6.17-2.284c-2.078-.7-4.19-1.3-6.32-1.8a40.078,40.078,0,0,0-6.471-1.04,15.035,15.035,0,0,0-3.256.1,5.54,5.54,0,0,0-1.549.46A2.411,2.411,0,0,0,651.956,278.31Z" transform="translate(-651.543 -264.573)" fill="#ededed"/>
      </g>
      <g id="Group_33350" data-name="Group 33350" transform="translate(0.076)">
        <g id="Group_33349" data-name="Group 33349" transform="translate(0 11.454)">
          <path id="Path_17273" data-name="Path 17273" d="M671.207,280.886c2.036-.855,4.1-1.649,6.194-2.345s4.212-1.339,6.366-1.838a38.669,38.669,0,0,1,6.558-1.043,15.027,15.027,0,0,1,3.351.147,5.842,5.842,0,0,1,1.64.525A2.72,2.72,0,0,1,696.6,277.6a2.754,2.754,0,0,1,.057,1.82,5.952,5.952,0,0,1-.737,1.581,15.215,15.215,0,0,1-2.187,2.589,37.144,37.144,0,0,1-5.262,4.138A76.18,76.18,0,0,1,663.99,298a36.96,36.96,0,0,1-6.639.854,15.222,15.222,0,0,1-3.38-.255,5.95,5.95,0,0,1-1.646-.583,2.756,2.756,0,0,1-1.259-1.317,2.722,2.722,0,0,1-.006-1.806,5.84,5.84,0,0,1,.776-1.539,15.021,15.021,0,0,1,2.244-2.493,38.6,38.6,0,0,1,5.341-3.946c1.866-1.186,3.8-2.252,5.773-3.252S669.17,281.739,671.207,280.886Zm0,0a72.505,72.505,0,0,0-11.7,6.162,36.519,36.519,0,0,0-5.181,4.074,14.62,14.62,0,0,0-2.1,2.487,5.373,5.373,0,0,0-.666,1.428,1.882,1.882,0,0,0,1.062,2.426,5.318,5.318,0,0,0,1.481.468,14.518,14.518,0,0,0,3.217.136,38.224,38.224,0,0,0,6.455-1.03c2.132-.494,4.233-1.127,6.311-1.823s4.129-1.481,6.152-2.328,4.022-1.755,5.973-2.756,3.877-2.05,5.724-3.224a37.979,37.979,0,0,0,5.26-3.883,14.533,14.533,0,0,0,2.158-2.391,5.315,5.315,0,0,0,.7-1.385,1.884,1.884,0,0,0-.987-2.461,5.379,5.379,0,0,0-1.487-.525,14.618,14.618,0,0,0-3.247-.244,36.438,36.438,0,0,0-6.537.841A72.557,72.557,0,0,0,671.207,280.886Z" transform="translate(-650.908 -275.63)" fill="#ededed"/>
          <path id="Path_17274" data-name="Path 17274" d="M697.224,282.087a2.5,2.5,0,0,1,.1,1.647,5.722,5.722,0,0,1-.671,1.546,14.739,14.739,0,0,1-2.113,2.607,35.44,35.44,0,0,1-5.211,4.18,73.251,73.251,0,0,1-24.464,10.262,35.444,35.444,0,0,1-6.634.787,14.727,14.727,0,0,1-3.34-.321,5.715,5.715,0,0,1-1.573-.6,2.5,2.5,0,0,1-1.1-1.228,2.41,2.41,0,0,0,1.184,1.076,5.554,5.554,0,0,0,1.553.446,15.038,15.038,0,0,0,3.257.071,40.048,40.048,0,0,0,6.461-1.1c2.126-.528,4.232-1.142,6.3-1.86,2.078-.7,4.128-1.486,6.15-2.337s4.021-1.757,5.977-2.747,3.879-2.047,5.745-3.194a40.061,40.061,0,0,0,5.311-3.84,15.051,15.051,0,0,0,2.232-2.373,5.532,5.532,0,0,0,.77-1.421A2.411,2.411,0,0,0,697.224,282.087Z" transform="translate(-651.797 -280.006)" fill="#ededed"/>
        </g>
        <path id="Path_17275" data-name="Path 17275" d="M691.766,260.522c.835-2.044,1.731-4.064,2.722-6.038s2.032-3.925,3.2-5.8a38.654,38.654,0,0,1,3.9-5.375,15.034,15.034,0,0,1,2.473-2.265,5.846,5.846,0,0,1,1.531-.788,2.721,2.721,0,0,1,1.8-.01,2.754,2.754,0,0,1,1.327,1.246,5.956,5.956,0,0,1,.6,1.64,15.212,15.212,0,0,1,.285,3.377,37.151,37.151,0,0,1-.795,6.646,76.178,76.178,0,0,1-10.048,24.571,36.966,36.966,0,0,1-4.09,5.3,15.212,15.212,0,0,1-2.571,2.21,5.945,5.945,0,0,1-1.576.752,2.755,2.755,0,0,1-1.822-.041,2.721,2.721,0,0,1-1.282-1.273,5.861,5.861,0,0,1-.54-1.637,15.02,15.02,0,0,1-.176-3.35,38.577,38.577,0,0,1,.986-6.567c.481-2.158,1.1-4.283,1.783-6.382S690.929,262.564,691.766,260.522Zm0,0a72.5,72.5,0,0,0-3.916,12.63,36.489,36.489,0,0,0-.782,6.544,14.637,14.637,0,0,0,.273,3.244,5.368,5.368,0,0,0,.539,1.481,1.882,1.882,0,0,0,2.466.964,5.318,5.318,0,0,0,1.378-.717,14.518,14.518,0,0,0,2.371-2.178,38.222,38.222,0,0,0,3.836-5.293c1.158-1.857,2.2-3.79,3.174-5.752s1.872-3.967,2.7-6,1.6-4.086,2.275-6.172,1.292-4.191,1.768-6.327a37.993,37.993,0,0,0,.974-6.464,14.52,14.52,0,0,0-.165-3.217,5.318,5.318,0,0,0-.482-1.478,1.884,1.884,0,0,0-2.438-1.042,5.379,5.379,0,0,0-1.423.679,14.638,14.638,0,0,0-2.468,2.123,36.431,36.431,0,0,0-4.027,5.218A72.525,72.525,0,0,0,691.766,260.522Z" transform="translate(-675.153 -240.094)" fill="#ededed"/>
        <path id="Path_17276" data-name="Path 17276" d="M711.763,241.376A2.5,2.5,0,0,1,713,242.467a5.716,5.716,0,0,1,.618,1.568,14.714,14.714,0,0,1,.349,3.337,35.451,35.451,0,0,1-.729,6.64A73.232,73.232,0,0,1,703.2,278.568a35.458,35.458,0,0,1-4.134,5.248,14.728,14.728,0,0,1-2.589,2.135,5.721,5.721,0,0,1-1.54.685,2.5,2.5,0,0,1-1.647-.089,2.411,2.411,0,0,0,1.6-.076,5.543,5.543,0,0,0,1.414-.783,15.03,15.03,0,0,0,2.353-2.253,40.059,40.059,0,0,0,3.793-5.345c1.129-1.876,2.185-3.8,3.143-5.773.975-1.964,1.868-3.969,2.7-6s1.6-4.086,2.284-6.169c.7-2.079,1.3-4.19,1.8-6.321a40.08,40.08,0,0,0,1.04-6.471,15.038,15.038,0,0,0-.1-3.256,5.543,5.543,0,0,0-.46-1.549A2.412,2.412,0,0,0,711.763,241.376Z" transform="translate(-679.627 -240.963)" fill="#ededed"/>
      </g>
    </g>
    <path id="Path_17277" data-name="Path 17277" d="M298.568,238.234l4.023-.808-3.963-.8-.892-6.219-.9,6.3-3.951.716,4.012.727.842,6.288Z" transform="translate(-166.068 -121.58)" fill="#fff"/>
    <g id="Group_33352" data-name="Group 33352" transform="translate(173.234 154.486)">
      <path id="Path_17278" data-name="Path 17278" d="M436.891,372.05Z" transform="translate(-436.891 -372.05)" fill="#cbd4e4"/>
    </g>
    <g id="Group_33353" data-name="Group 33353" transform="translate(132.859 160.077)">
      <path id="Path_17279" data-name="Path 17279" d="M311.7,391.076a1.321,1.321,0,0,0,2.52-.786A1.321,1.321,0,0,0,311.7,391.076Z" transform="translate(-311.634 -389.397)" fill="#f8f8f8"/>
    </g>
    <g id="Group_33354" data-name="Group 33354" transform="translate(193.911 187.086)">
      <path id="Path_17280" data-name="Path 17280" d="M502.316,473.187a1.321,1.321,0,0,0,0,2.64A1.321,1.321,0,0,0,502.316,473.187Z" transform="translate(-501.041 -473.187)" fill="#ededed"/>
    </g>
    <circle id="Ellipse_3205" data-name="Ellipse 3205" cx="2.901" cy="2.901" r="2.901" transform="translate(171.027 163.978)" fill="#ededed"/>
    <circle id="Ellipse_3206" data-name="Ellipse 3206" cx="1.451" cy="1.451" r="1.451" transform="translate(169.415 175.582)" fill="#ededed"/>
    <g id="Group_33355" data-name="Group 33355" transform="translate(131.694 170.813)">
      <path id="Path_17281" data-name="Path 17281" d="M308.088,424.381a1.321,1.321,0,0,0,2.52-.786A1.321,1.321,0,0,0,308.088,424.381Z" transform="translate(-308.022 -422.702)" fill="#f8f8f8"/>
    </g>
    <g id="Group_33356" data-name="Group 33356" transform="translate(126.535 175.343)">
      <path id="Path_17282" data-name="Path 17282" d="M293.291,436.756a1.321,1.321,0,0,0,0,2.64A1.321,1.321,0,0,0,293.291,436.756Z" transform="translate(-292.016 -436.756)" fill="#f8f8f8"/>
    </g>
    <path id="Path_17283" data-name="Path 17283" d="M1262.839,687.254l7.073-1.421-6.967-1.4-1.568-10.933-1.588,11.075-6.947,1.258,7.054,1.278,1.481,11.055Z" transform="translate(-816.599 -421.845)" fill="#fff"/>
    <g id="Group_33358" data-name="Group 33358" transform="translate(143.613 118.284)">
      <g id="Group_33357" data-name="Group 33357" transform="translate(0)">
        <path id="Path_17284" data-name="Path 17284" d="M359.033,291.385a1.3,1.3,0,0,0,1.448-1,2,2,0,0,0-.566-2.083c-.575-.463-1.164-.4-2.075.209-.027.058-.054.113-.08.168C357.639,288.875,356.718,291.017,359.033,291.385Zm-.242-2.991c.6-.125,1.116.324,1.264,1.1s-.142,1.4-.727,1.519-1.13-.343-1.277-1.1A1.2,1.2,0,0,1,358.791,288.393Z" transform="translate(-353.455 -278.892)" fill="#f8f8f8"/>
        <path id="Path_17285" data-name="Path 17285" d="M377.16,262.108a3.85,3.85,0,0,0-.365-1.323l.04-.007a2.856,2.856,0,0,0-.9-1.039q-15.224,2.8-30.447,5.6c-.339.243-.584.539-.44.953a.874.874,0,0,1-.056.74,2.161,2.161,0,0,0,.028.377c.507,2.8,1.028,5.591,1.536,8.387.112.613.419.832,1.053.715q15.1-2.794,30.205-5.558c.719-.131.895-.48.765-1.158C378.093,267.235,377.634,264.67,377.16,262.108Zm-.909,3.907c-1.794,1.735-3.576,3.483-5.37,5.219-.271.263-.612.484-.99.25s-.391-.638-.331-1.055c.126-.878.114-.881-.762-.72q-9.812,1.806-19.622,3.625c-.624.117-.957.036-.968-.653a1.248,1.248,0,0,0-.071-.387c-.128-.36-.97-3.528-.282-3.661,5.989-1.153,14.024-2.693,20.017-3.823.677-.128.944-.3.531-.967-.2-.316-.356-.692-.01-1.007a.979.979,0,0,1,1.108-.117q3.311,1.378,6.625,2.75C376.455,265.6,376.542,265.734,376.251,266.015Z" transform="translate(-344.996 -259.739)" fill="#f8f8f8"/>
      </g>
      <path id="Path_17286" data-name="Path 17286" d="M389.727,284.051c.039-.645.073-1.29.122-1.933.014-.174.028-.415.289-.381.244.031.122.253.113.382-.056.839-.127,1.677-.2,2.515-.016.182-.033.39-.271.423s-.314-.152-.389-.322c-.264-.6-.525-1.2-.832-1.9a11.162,11.162,0,0,0-.244,1.917c-.047.248.028.6-.322.632s-.358-.321-.462-.546c-.307-.668-.611-1.338-.9-2.012-.061-.142-.275-.335.015-.453.253-.1.306.145.375.3.286.635.557,1.276.932,2.142.072-.881.108-1.524.187-2.162.025-.208-.1-.54.223-.6.36-.069.383.294.489.512.242.495.463,1,.693,1.5Z" transform="translate(-373.12 -274.644)" fill="#f8f8f8"/>
      <path id="Path_17287" data-name="Path 17287" d="M370.113,288.2c-.106-.578-.218-1.154-.316-1.733-.027-.165-.125-.411.156-.434.261-.021.223.245.255.407.147.747.282,1.5.416,2.245.03.171.132.376-.108.477-.2.084-.35-.027-.481-.172a14.125,14.125,0,0,0-1.737-1.71c.112.607.226,1.214.333,1.822.026.149.09.345-.11.406-.267.082-.288-.152-.32-.326-.146-.774-.288-1.548-.422-2.324-.029-.166-.129-.374.118-.473a.422.422,0,0,1,.489.159q.787.855,1.569,1.714Z" transform="translate(-360.405 -277.56)" fill="#f8f8f8"/>
      <path id="Path_17288" data-name="Path 17288" d="M402.353,283.412c.064.2.113.339-.069.385s-.28-.1-.357-.238c-.174-.317-.279-.64-.8-.565a.773.773,0,0,0-.776.861c-.005.179-.049.413-.307.352-.206-.049-.127-.257-.105-.4.126-.855.262-1.71.387-2.565.027-.186.029-.371.275-.408a.348.348,0,0,1,.4.173Zm-1.615-1.924c-.058.416-.36.826-.093,1.2.1.138.511.048.565-.082C401.407,282.129,400.919,281.868,400.738,281.488Z" transform="translate(-382.207 -274.028)" fill="#f8f8f8"/>
      <path id="Path_17289" data-name="Path 17289" d="M379.947,287.686a5.5,5.5,0,0,1-1.479.346c-.332.057-.385-.174-.429-.422-.095-.542-.2-1.083-.3-1.625-.212-1.17.273-1.559,1.539-1.236-.171.558-1.28-.135-1.137.872.138.973.938.108,1.3.5-.187.49-1.283-.016-1.032,1C378.674,288.182,379.486,287.111,379.947,287.686Z" transform="translate(-367.155 -276.613)" fill="#f8f8f8"/>
      <path id="Path_17290" data-name="Path 17290" d="M407.405,280.185c.394-.538.214-1.3,1.023-1.772-.161.529-.232.872-.368,1.187a2.515,2.515,0,0,0-.206,1.828c.049.153.154.4-.092.47-.266.072-.284-.2-.29-.36-.033-.928-.7-1.49-1.206-2.145-.086-.111-.281-.243-.126-.391.171-.163.331-.032.453.128C406.846,279.462,407.1,279.791,407.405,280.185Z" transform="translate(-386.392 -272.394)" fill="#f8f8f8"/>
    </g>
    <path id="Path_17291" data-name="Path 17291" d="M179.841,143.295l7.073-1.421-6.967-1.4-1.568-10.933-1.588,11.075-6.946,1.259,7.054,1.278,1.481,11.055Z" transform="translate(-82.689 -53.224)" fill="#fff"/>
    <g id="Group_33359" data-name="Group 33359" transform="translate(53.261 143.153)">
      <path id="Path_17292" data-name="Path 17292" d="M96.932,356.5c.355-.789-.173-1.366-.829-1.876-1.225-.951-2.489-1.854-3.7-2.818-.593-.47-1.863-.905-1.293-1.726.717-1.031,1.55.189,2.22.581,1.264.741,2.445,1.628,3.631,2.494a2.115,2.115,0,0,0,3.063-.263c1.5-1.5,2.994-3.009,4.5-4.5,1.02-1.009,1.125-1.9-.182-2.78a131.384,131.384,0,0,0-13.509-8.38,2.15,2.15,0,0,0-2.7.3c-1.579,1.537-3.108,3.125-4.654,4.7-.878.891-.943,1.6.323,2.262a37.3,37.3,0,0,1,3.734,2.322c.452.31,1.542.512.945,1.316-.534.72-1.168-.149-1.64-.47-1.483-1.011-2.946-2.059-4.34-3.188a2.5,2.5,0,0,0-3.7.135q-6.741,6.414-13.458,12.854c-1.035.989-.721,1.853.23,2.682,1.413,1.231,2.768,2.536,4.232,3.7a2.881,2.881,0,0,1,.318.1,9.069,9.069,0,0,1,4.239,3.866,3.52,3.52,0,0,1,1.062.947,20.6,20.6,0,0,0,2.54,2.3c2.52,2.235,3.006,2.233,5.4-.217C86.662,367.446,95.424,356.54,96.932,356.5ZM86.622,345.07c-3.106-1.694-3.072-1.756-.638-4.294,3.377-3.522,3.4-3.56,7.612-1.021,3.176,1.915,6.27,3.966,9.434,5.9,1.275.78,1.57,1.476.281,2.539a14.946,14.946,0,0,0-2.776,2.732c-1.586,2.244-2.992,1.612-4.831.254A79.845,79.845,0,0,0,86.622,345.07Zm1.715,18.459c-2.467,5.208-6.833,6.063-11.6,2.985a20.734,20.734,0,0,1-5.976-5.063c-2.706-3.624-2.531-7.21,1.51-9.532,1.4-.807,3-1.32,4.013-2.709,1.041-1.429,1.594-3.338,4.078-3.054,1.528.175,3.138-.284,3.778,1.708a.573.573,0,0,0,.344.333c3.263.758,4.615,4.386,7.922,5.18,1.91.458,1.04,2.475,1.5,3.754.415,1.144-.4,1.5-1.284,1.911A8.85,8.85,0,0,0,88.337,363.529Z" transform="translate(-64.693 -336.891)" fill="#f8f8f8"/>
      <path id="Path_17293" data-name="Path 17293" d="M105.731,399.778c1.2,1.033,2.131,1.82,3.045,2.627.476.42,1.112.8.424,1.574a1.18,1.18,0,0,1-1.894.076c-1.308-1.107-2.6-2.23-3.948-3.291-1.187-.936-.733-1.6.26-2.246a8.51,8.51,0,0,1,6.781-1.233c1.079.244,2.516.788,2.718-.937.192-1.638-1.08-1.994-2.47-1.827-.738.088-1.4-.075-1.509-.847-.125-.882.714-1,1.317-1.111a4.021,4.021,0,0,1,4.33,1.572,3.1,3.1,0,0,1,.091,3.877,3.761,3.761,0,0,1-4.31,1.544A5.821,5.821,0,0,0,105.731,399.778Z" transform="translate(-90.414 -374.544)" fill="#f8f8f8"/>
      <path id="Path_17294" data-name="Path 17294" d="M90.522,381.091c1.288,1.443,2.192,3,1.022,4.833a4.15,4.15,0,0,1-4,1.868,3.257,3.257,0,0,1-2.579-5.3c2.223-2.8,5.39-3.789,8.89-3.794.51,0,.99.1.983.788-.007.7-.359,1.009-1.056,1.049A7.638,7.638,0,0,0,90.522,381.091Zm-3.283,4.291a1.589,1.589,0,0,0,2.266-.235,1.231,1.231,0,0,0-.365-1.874,1.529,1.529,0,0,0-2.329.173C86.251,384.123,86.48,384.783,87.239,385.382Z" transform="translate(-77.922 -365.22)" fill="#f8f8f8"/>
      <path id="Path_17295" data-name="Path 17295" d="M139.22,347.091a29.841,29.841,0,0,0-3.224,2.55c-1.046,1.093-1.8-.094-2.447-.341-.8-.3.073-1.06.395-1.522C135.855,345.033,135.867,345.041,139.22,347.091Z" transform="translate(-111.13 -342.811)" fill="#f8f8f8"/>
      <path id="Path_17296" data-name="Path 17296" d="M155.774,359.182c.241,2.558-.861,3.927-2.616,3.249a1.23,1.23,0,0,1-.946-1.252c.023-.3.158-.725.375-.835.666-.34.742.309.968.7a.541.541,0,0,0,.822.174c.427-.269.317-.716.217-1.095-.309-1.173-.238-2.12,1.244-2.3a1.291,1.291,0,0,1,1.454.615.845.845,0,0,1-.111,1.1C156.572,360.072,156.369,358.81,155.774,359.182Z" transform="translate(-123.999 -351.059)" fill="#f8f8f8"/>
      <path id="Path_17297" data-name="Path 17297" d="M148.1,352.747c-1.567-.86-1.939,1.3-3.311,1.291-.3,0-.422.408-.178.771.279.415.962,1.048-.092,1.191-.682.093-1.709-.426-1.647-1.131.13-1.472,1.675-2.056,2.524-3.1a1.493,1.493,0,0,1,2.181-.18A.918.918,0,0,1,148.1,352.747Z" transform="translate(-117.673 -346.59)" fill="#f8f8f8"/>
      <path id="Path_17298" data-name="Path 17298" d="M163.621,367.884c.315-2.074,2.527-2.664,2.544-4.551,0-.271.727-.151,1.084.049.489.275,1.09.5,1.182,1.135.087.6-.429.436-.8.553C166.131,365.544,165.468,367.35,163.621,367.884Z" transform="translate(-131.733 -354.703)" fill="#f8f8f8"/>
    </g>
    <g id="Group_33360" data-name="Group 33360" transform="translate(377.595 302.479)">
      <path id="Path_17299" data-name="Path 17299" d="M1092.124,846.649q-1.161-2.637-2.325-5.275c-.777-1.757-1.062-1.88-2.791-1.087-1.414.649-2.8,1.353-4.206,2.029-.4.195-.821.378-1.067-.206-.214-.508.2-.642.524-.823,1.358-.761,2.695-1.563,4.079-2.272,1.1-.564,1.489-1.268.938-2.463-.674-1.462-1.241-2.973-1.885-4.45-.386-.884-.945-1.226-1.9-.619-3.711,2.37-7.588,4.449-11.512,6.44a1.565,1.565,0,0,0-.919,2.221q.792,2.024,1.483,4.088c.387,1.159,1.046,1.341,2.094.8,1.478-.764,2.986-1.47,4.5-2.165.283-.13.677-.535.961.01.268.514-.064.8-.484,1.008-1.494.732-2.988,1.464-4.488,2.183-.784.376-1.529.772-1.4,1.731.989.3,3.424,9.429,4.467,12.418.761,2.182,1.244,2.448,3.394,1.651,1.206-.447,2.436-.848,3.6-1.386a7.9,7.9,0,0,1,3.514-1.328,1.5,1.5,0,0,1,.556-.33c1.51-.553,3-1.166,4.511-1.715a4.534,4.534,0,0,0,1.949-1.246c-1.129-2.73-2.448-5.377-3.55-8.118A1.5,1.5,0,0,1,1092.124,846.649Zm-17.744-2.266c-.642.308-.974.2-1.208-.47q-.722-2.049-1.508-4.075c-.24-.624-.056-.976.535-1.273,1.813-.911,3.588-1.881,5.444-2.721a48.634,48.634,0,0,0,5.157-3.18c1.665-1.023,1.676-1.005,2.384.753.18.448.354.9.532,1.347,1.218,2.952,1.235,2.981-1.512,4.619C1081.043,841.268,1077.693,842.791,1074.38,844.383Zm15.2,11.568a6.609,6.609,0,0,0-2.352,1.645c-.135.166-.315.465-.434.447-1.967-.3-3.708,1.1-5.653.766s-3.1-1.879-3.146-4.084a5.835,5.835,0,0,0-.173-2.613,3.671,3.671,0,0,0-1.009-1.54c-.483-.451-1.586-.616-.908-1.644.582-.883.5-2.035,2.127-2.431,2.366-.577,4.542-1.944,6.785-3.007.519-.246.609-1.224,1.228-1.127a13.8,13.8,0,0,1,2.737.916c.51.2.276.63.187.968a4.057,4.057,0,0,0,1.556,4.41C1093.246,851.017,1092.794,854.368,1089.575,855.95Z" transform="translate(-1070.894 -831.179)" fill="#f8f8f8"/>
      <path id="Path_17300" data-name="Path 17300" d="M1095.859,893.768c-1.068.8-1.523.179-1.79-1.029a16.612,16.612,0,0,1,.073-4.793c.036-.533.3-1.3-.437-1.551-.758-.254-.812.406-.922.952a.463.463,0,0,1-.632.32c-.32-.1-.332-.4-.338-.66a1.661,1.661,0,0,1,1.422-1.853,1.558,1.558,0,0,1,1.889,1.329,7.457,7.457,0,0,1-.056,3.034,6.728,6.728,0,0,0-.064,2.237c.107.635.4.941,1.112.711.436-.141,1.11-.705,1.306.152.145.637-.647.727-1.086.985A3.473,3.473,0,0,1,1095.859,893.768Z" transform="translate(-1085.069 -867.732)" fill="#f8f8f8"/>
      <path id="Path_17301" data-name="Path 17301" d="M1117.111,882.081a31.165,31.165,0,0,1-.778-5.714c-.016-.834-.007-1.6-1.208-.97-.359.19-.856.444-1.1-.133s.287-.7.655-.9c2.551-1.408,2.656-1.368,2.78,1.476a44.946,44.946,0,0,0,.727,5.9c.074.42.23.919-.355,1.061C1117.323,882.925,1117.271,882.426,1117.111,882.081Z" transform="translate(-1100.079 -859.827)" fill="#f8f8f8"/>
      <path id="Path_17302" data-name="Path 17302" d="M1105.45,887.783a38.538,38.538,0,0,1-.808-5.7c-.051-.818-.19-1.422-1.225-.918-.341.166-.776.266-.98-.174s.167-.67.5-.854c.422-.231.841-.467,1.275-.674.831-.4,1.409-.157,1.433.786a52.835,52.835,0,0,0,.856,7.154c.074.453.118.91-.467,1C1105.5,888.474,1105.592,887.907,1105.45,887.783Z" transform="translate(-1092.23 -863.773)" fill="#f8f8f8"/>
      <path id="Path_17303" data-name="Path 17303" d="M1106.465,839.315c1.126,0,.977,1.139,1.6.9.893-.342-.213-1.147.395-1.884a9.882,9.882,0,0,1,1.673,3.705c-.275.068-.426.142-.458.107-1.068-1.181-1.328-1.287-1.345-.576a3.16,3.16,0,0,0,.194.772.709.709,0,0,1-.3.887C1107.252,842.1,1107.033,840.717,1106.465,839.315Z" transform="translate(-1094.999 -836.025)" fill="#f8f8f8"/>
      <path id="Path_17304" data-name="Path 17304" d="M1076.981,855.8a9.917,9.917,0,0,1,1.632.66,1.386,1.386,0,0,1,.4,2.1,1.171,1.171,0,0,1-1.668.463c-.291-.145-.568-.372-.434-.754.12-.343.413-.264.669-.166.319.122.659.229.764-.221.1-.435-.186-.709-.571-.839-.25-.085-.534-.068-.787-.147a1.16,1.16,0,0,1-.824-1.511,1.122,1.122,0,0,1,1.143-.944c.331-.02.734.123.765.454C1078.142,855.636,1077.2,855.094,1076.981,855.8Z" transform="translate(-1074.438 -846.94)" fill="#f8f8f8"/>
      <path id="Path_17305" data-name="Path 17305" d="M1093.485,847.636c1.166.775.9,2.15,1.94,2.893.652-1.3-.836-2.269-.412-3.62a4.977,4.977,0,0,1,1.425,3.215,1.116,1.116,0,0,1-.887,1.2.977.977,0,0,1-1.292-.658C1093.947,849.741,1093.205,848.917,1093.485,847.636Z" transform="translate(-1086.161 -841.839)" fill="#f8f8f8"/>
      <path id="Path_17306" data-name="Path 17306" d="M1085.693,854.575c-.162-.876-.838-2,.534-2.546,1.011-.4,1.456.553,1.7,1.269.318.915.857,2.113-.408,2.688C1086.439,856.479,1086.1,855.422,1085.693,854.575Zm1.7.834c.024-1.27-.091-2.07-1.034-2.679A2.466,2.466,0,0,0,1087.394,855.409Z" transform="translate(-1080.713 -845.244)" fill="#f8f8f8"/>
      <path id="Path_17307" data-name="Path 17307" d="M1102.17,843.153c-.488,1.519.948,2.629.785,4.262-1.273-.972-1.027-2.643-2.291-3.343C1100.515,843.99,1101.569,843.452,1102.17,843.153Z" transform="translate(-1091.058 -839.293)" fill="#f8f8f8"/>
    </g>
    <g id="Group_33362" data-name="Group 33362" transform="translate(429.334 127.544)">
      <g id="Group_33361" data-name="Group 33361" transform="translate(0 0)">
        <ellipse id="Ellipse_3207" data-name="Ellipse 3207" cx="5.79" cy="12.42" rx="5.79" ry="12.42" transform="translate(0 4.91) rotate(-25.09)" fill="#f2f2f2"/>
      </g>
    </g>
    <path id="Path_17308" data-name="Path 17308" d="M1243.9,296.166c2.9-1.356,7.6,2.581,10.51,8.793,2.172,4.64,2.727,9.236,1.663,11.83,1.474-2.421,1.026-7.422-1.34-12.475-2.908-6.212-7.614-10.149-10.51-8.793a3.376,3.376,0,0,0-1.64,1.873A3.076,3.076,0,0,1,1243.9,296.166Z" transform="translate(-809.648 -165.522)" fill="#b7b7b7"/>
    <path id="Path_17309" data-name="Path 17309" d="M1017.426,141s-6.124,31.589-6.447,38.036,7.414,9.67,7.414,9.67l11.926-8.381a40.968,40.968,0,0,0-4.513-5.157c-1.612-1.289,1.612-6.447-1.289-18.373s-1.934-15.15-1.934-15.15Z" transform="translate(-652.69 -60.99)" fill="#fff"/>
    <path id="Path_17310" data-name="Path 17310" d="M1253.567,148.256a7.869,7.869,0,0,0-.322-2.256l-8.058.645s1.934,16.117-.322,23.53-2.537,14.09.182,20.583l2.719,6.493-6.771,2.553a21.793,21.793,0,0,0,2.176,8.276c2.886,6.165,7.542,10.086,10.443,8.82a30.162,30.162,0,0,0,12.848-16.748S1253.567,155.025,1253.567,148.256Z" transform="translate(-808.57 -64.378)" fill="#fff"/>
    <path id="Path_17311" data-name="Path 17311" d="M1033.971,229.874a6.186,6.186,0,0,1-3.66,3.153c-2.5.7-6.082.832-7.092,3.3a8.408,8.408,0,0,1,4.541-1.869,13.3,13.3,0,0,1,6.561,1.111c-.073-.064-.144-.124-.213-.179C1033.273,234.727,1033.734,233.018,1033.971,229.874Z" transform="translate(-660.991 -121.217)" fill="#dde3ee"/>
    <path id="Path_17312" data-name="Path 17312" d="M1026.716,258.12a11.848,11.848,0,0,1,1.175-1.167A5.37,5.37,0,0,0,1026.716,258.12Z" transform="translate(-663.361 -139.567)" fill="#dde3ee"/>
    <path id="Path_17313" data-name="Path 17313" d="M1257.746,286.147a31.143,31.143,0,0,1-6.671-8.141c.232.739.5,1.475.8,2.208l2.719,6.493-.049.018a1.724,1.724,0,0,1,.175.267,1.669,1.669,0,0,1,.626.339,14.075,14.075,0,0,0,9.718,3.669C1262.284,290.121,1259.322,287.56,1257.746,286.147Z" transform="translate(-815.401 -153.834)" fill="#dde3ee"/>
    <path id="Path_17314" data-name="Path 17314" d="M1032.564,152.393c-1.672-8.338-.953-10.748-.953-10.748l-5.157-.645s-.973,5.017-2.162,11.458C1027.048,152.447,1029.806,152.409,1032.564,152.393Z" transform="translate(-661.718 -60.99)" fill="#ffac43"/>
    <path id="Path_17315" data-name="Path 17315" d="M1026.64,81.351s-.322-6.769-1.289-9.025.645-11.926.645-11.926,6.769-3.223,8.058-2.579S1040.5,72,1040.5,76.516v4.513l-7.091,2.9Z" transform="translate(-662.226 -4.564)" fill="#f9f9f9"/>
    <path id="Path_17316" data-name="Path 17316" d="M1035.95,57.821c-1.289-.645-8.058,2.579-8.058,2.579s-.322,6.447.645,8.7L1034,83.359l1.3.571,7.091-2.9V76.516C1042.4,72,1037.239,58.465,1035.95,57.821Z" transform="translate(-664.122 -4.564)" fill="#b6b6b6"/>
    <path id="Path_17317" data-name="Path 17317" d="M1246.289,72.919,1245,61.959,1267.563,51l7.736.322,2.256,4.513L1274.01,66.15l-17.084,5.157-.322,2.579Z" transform="translate(-811.284 0)" fill="#fff"/>
    <path id="Path_17318" data-name="Path 17318" d="M1245,61.959,1267.563,51l7.736.322,2.256,4.513-4.835,5.157-18.7,4.513Z" transform="translate(-811.284 0)" fill="#b6b6b6"/>
    <path id="Path_17319" data-name="Path 17319" d="M1264.848,161.134c-1.456-6.078-2.467-10.982-2.467-12.878a7.867,7.867,0,0,0-.323-2.256l-8.058.645a125.474,125.474,0,0,1,.771,12.7A97.781,97.781,0,0,1,1264.848,161.134Z" transform="translate(-817.383 -64.378)" fill="#ffac43"/>
    <g id="Group_33364" data-name="Group 33364" transform="translate(385.503 189.537)">
      <g id="Group_33363" data-name="Group 33363" transform="translate(0 0)">
        <ellipse id="Ellipse_3208" data-name="Ellipse 3208" cx="6.221" cy="8.629" rx="6.221" ry="8.629" transform="translate(0 7.345) rotate(-36.181)" fill="#f2f2f2"/>
      </g>
    </g>
    <path id="Path_17320" data-name="Path 17320" d="M1109.2,490.291c3.182-1.4,7.66.812,10,4.93,1.748,3.076,1.809,6.347.4,8.388,1.815-1.971,1.912-5.553.008-8.9-2.34-4.118-6.817-6.326-10-4.93a4.522,4.522,0,0,0-1.927,1.6A4.507,4.507,0,0,1,1109.2,490.291Z" transform="translate(-718.231 -297.059)" fill="#b7b7b7"/>
    <path id="Path_17321" data-name="Path 17321" d="M1090.968,505.464a4.491,4.491,0,0,0,.939-.77c1.406-2.041,1.345-5.312-.4-8.388-1.894-3.334-5.189-5.415-8.063-5.347-1.966,4.861-8.945,22.06-10.189,24.3-1.451,2.612-5.224,4.934-5.514,7.256s-1.742,13.35-.291,12.479c.876-.525,1.328-3.268,1.486-4.916.414,2.942,3.316,9.818,4.609,9.56,1.451-.29,2.612-2.9,2.9-6.385s0-8.126.581-10.448c.468-1.871,10.35-12.968,14.176-17.212C1091.123,505.549,1091.046,505.508,1090.968,505.464Z" transform="translate(-690.533 -298.144)" fill="#ffac43"/>
    <ellipse id="Ellipse_3209" data-name="Ellipse 3209" cx="2.74" cy="5.157" rx="2.74" ry="5.157" transform="translate(334.114 177.678)" fill="#f2f2f2"/>
    <path id="Path_17322" data-name="Path 17322" d="M941.488,444a1.927,1.927,0,0,0-1.433.767,1.728,1.728,0,0,1,1.11-.445c1.513,0,2.74,2.309,2.74,5.157a6.953,6.953,0,0,1-1.307,4.39,6.362,6.362,0,0,0,1.629-4.712C944.228,446.309,943,444,941.488,444Z" transform="translate(-604.634 -266.322)" fill="#b7b7b7"/>
    <path id="Path_17323" data-name="Path 17323" d="M890.379,455.722v-.02a1.728,1.728,0,0,0,1.111-.445h0a6.953,6.953,0,0,0,1.307-4.39c0-2.206-.737-4.083-1.772-4.82l-16.917,1.6a67.587,67.587,0,0,0-7.016,3.629c-1.693,1.21-2.661,10.4-2.419,12.338s4.113,3.387,4.839,2.419.242-4.113.484-6.29,3.387-5.806,3.387-4.355-1.936,7.984-1.936,7.984,1.451,0,2.9-3.629a21.549,21.549,0,0,0,1.21-7.984Z" transform="translate(-553.526 -267.709)" fill="#ffac43"/>
    <path id="Path_17324" data-name="Path 17324" d="M1106.854,513.3c2.577-2.983,5.22-5.94,6.814-7.707-.078-.043-.156-.084-.234-.128a4.488,4.488,0,0,0,.939-.77c1.406-2.041,1.345-5.312-.4-8.388-1.894-3.334-5.189-5.415-8.063-5.347-1.071,2.65-3.632,8.964-5.942,14.523A96.666,96.666,0,0,0,1106.854,513.3Z" transform="translate(-713 -298.144)" fill="#fff"/>
    <path id="Path_17325" data-name="Path 17325" d="M930.992,450.867c0-2.206-.737-4.083-1.772-4.82l-7.519.71a51.2,51.2,0,0,1-.7,6.939l7.574,2.027v-.02a1.728,1.728,0,0,0,1.111-.445h0A6.954,6.954,0,0,0,930.992,450.867Z" transform="translate(-591.721 -267.709)" fill="#fff"/>
    <g id="Group_33365" data-name="Group 33365" transform="translate(355.066 68.406)">
      <path id="Path_17326" data-name="Path 17326" d="M1009.558,105.1q-2.183,3.435-4.657,6.705c-.16.211.218.41.377.2q2.473-3.268,4.657-6.705c.141-.222-.236-.423-.377-.2Z" transform="translate(-1003.617 -105)" fill="#b6b6b6"/>
      <path id="Path_17327" data-name="Path 17327" d="M1001.09,108.222q3.685,2.312,7.141,4.849c.223.164.5-.131.283-.293q-3.453-2.535-7.141-4.849c-.238-.149-.521.144-.283.293Z" transform="translate(-1001 -106.957)" fill="#b6b6b6"/>
    </g>
    <g id="Group_33366" data-name="Group 33366" transform="translate(448.591 66.445)">
      <path id="Path_17328" data-name="Path 17328" d="M1298.3,100.139q-3.363,3.429-7.024,6.6c-.236.2.152.527.386.324q3.657-3.165,7.023-6.6c.217-.221-.169-.545-.386-.324Z" transform="translate(-1291.187 -99.695)" fill="#b6b6b6"/>
      <path id="Path_17329" data-name="Path 17329" d="M1291.222,99.274q3.687,3.573,7.054,7.351c.218.244.614-.026.4-.269q-3.364-3.774-7.054-7.351c-.238-.231-.637.038-.4.269Z" transform="translate(-1291.149 -98.917)" fill="#b6b6b6"/>
    </g>
    <circle id="Ellipse_3210" data-name="Ellipse 3210" cx="22.402" cy="22.402" r="22.402" transform="translate(443.708 313.703)" fill="#f6f6f6"/>
    <circle id="Ellipse_3211" data-name="Ellipse 3211" cx="11.121" cy="11.121" r="11.121" transform="translate(63.03 328.531)" fill="none" stroke="#f6f6f6" stroke-miterlimit="10" stroke-width="2"/>
    <path id="Path_17330" data-name="Path 17330" d="M61.259,777.341l9.507-1.91L61.4,773.548l-2.107-14.7L57.16,773.739l-9.337,1.692,9.481,1.718,1.99,14.859Z" transform="translate(0 -479.687)" fill="#fff"/>
  </g>
</svg>
