<svg xmlns="http://www.w3.org/2000/svg" xmlns:xlink="http://www.w3.org/1999/xlink" width="505.063" height="365.238" viewBox="0 0 505.063 365.238">
  <defs>
    <clipPath id="clip-path">
      <path id="Path_17027" data-name="Path 17027" d="M425.9,400.191c2.215,2.078,7.707,9.006,24.241,16.506,16.241,7.672,15.523,30.413,54.567,39.105,5.689,1.248,12.645,1.265,17.847-1.11,4.634-2.113,7.251-5.691,12.062-7.759,6.243-2.7,14.216-2.062,21.354-1.807A103.127,103.127,0,0,0,576.413,444a46,46,0,0,0,17.176-6.179c2.3-1.447,16.24-8.079,29.189-15.115,19.15-9.989,25.078-31.66,12.636-51.972-9.573-16.152-22.916-31-28.256-35.2-11.141-8.89-23.682-13.462-35.533-15.892-11.909-2.419-23.13-2.694-32.974-2.726-11.346-.033-21.978.092-31.285,1.85-9.2,1.743-17.246,4.947-25.378,7.272a72.686,72.686,0,0,1-11.913,2.517c-3.91.435-7.68.457-11.231.712a33.163,33.163,0,0,0-9.83,1.96,36.816,36.816,0,0,0-9.029,5.317,95.153,95.153,0,0,0-8.9,8.028c-2.944,2.943-5.978,6.116-9.085,9.631-5.635,6.395,16.7-.532,11.454,7.795-4.793,7.666-8.889,15.346-10.64,21.755C420.867,390.818,421.839,396.343,425.9,400.191Z" transform="translate(-421.082 -316.908)" fill="none"/>
    </clipPath>
    <clipPath id="clip-path-2">
      <path id="Path_17111" data-name="Path 17111" d="M583.819,375.094c2.7-8.145,2.823-18.9,1.2-29.384a95.935,95.935,0,0,0-16.381-41.582,53.6,53.6,0,0,0-7.975-9.4,28.249,28.249,0,0,0-9.631-5.846,41.828,41.828,0,0,0-12.244-1.873c-4.612-.165-9.588-.07-14.646-.42a109.457,109.457,0,0,1-15.253-2.321c-10.373-2.215-20.86-5.249-33.489-6.667-12.76-1.432-27.679-1.136-43.439-.662-13.657.419-29.348,1.146-44.854,4.013-15.416,2.919-30.375,7.8-40.218,17.734-4.782,4.594-14.225,21.524-16.21,42.313-1.611,12.876,3.736,26.257,12.573,34.895,8.777,8.838,21.044,12.934,31.862,11.864a158.407,158.407,0,0,0,30.762-5.37c5.055-1.191,9.849-3.331,14.474-5.315a120.119,120.119,0,0,1,14.2-5.364,153.265,153.265,0,0,1,15.336-3.311c3.645-.693,5.7-1.785,8.807-2.7a21.558,21.558,0,0,1,11.622.308c13.166,3.718,25.439,9.66,36.523,14.6,11.094,5.038,21,9.08,29.653,11.139,17.42,4.549,28.546.68,32-.306C575.132,389.7,580.9,384.111,583.819,375.094Z" transform="translate(-330.392 -276.549)" fill="none"/>
    </clipPath>
  </defs>
  <g id="Group_33287" data-name="Group 33287" transform="matrix(0.978, -0.208, 0.208, 0.978, -190.777, -3.879)">
    <circle id="Ellipse_3152" data-name="Ellipse 3152" cx="4.786" cy="4.786" r="4.786" transform="matrix(0.875, -0.485, 0.485, 0.875, 491.981, 180.171)" fill="#f8f8f8"/>
    <path id="Path_17024" data-name="Path 17024" d="M583.819,375.094c2.7-8.145,2.823-18.9,1.2-29.384a95.935,95.935,0,0,0-16.381-41.582,53.6,53.6,0,0,0-7.975-9.4,28.249,28.249,0,0,0-9.631-5.846,41.828,41.828,0,0,0-12.244-1.873c-4.612-.165-9.588-.07-14.646-.42a109.457,109.457,0,0,1-15.253-2.321c-10.373-2.215-20.86-5.249-33.489-6.667-12.76-1.432-27.679-1.136-43.439-.662-13.657.419-29.348,1.146-44.854,4.013-15.416,2.919-30.375,7.8-40.218,17.734-4.782,4.594-14.225,21.524-16.21,42.313-1.611,12.876,3.736,26.257,12.573,34.895,8.777,8.838,21.044,12.934,31.862,11.864a158.407,158.407,0,0,0,30.762-5.37c5.055-1.191,9.849-3.331,14.474-5.315a120.119,120.119,0,0,1,14.2-5.364,153.265,153.265,0,0,1,15.336-3.311c3.645-.693,5.7-1.785,8.807-2.7a21.558,21.558,0,0,1,11.622.308c13.166,3.718,25.439,9.66,36.523,14.6,11.094,5.038,21,9.08,29.653,11.139,17.42,4.549,28.546.68,32-.306C575.132,389.7,580.9,384.111,583.819,375.094Z" transform="translate(-113.601 -115.878)" fill="#f9f9f9"/>
    <g id="Group_33252" data-name="Group 33252" transform="translate(250.182 175.531)">
      <g id="Group_33251" data-name="Group 33251" transform="translate(0 0)" clip-path="url(#clip-path)">
        <path id="Path_17025" data-name="Path 17025" d="M539.259,453.583a28.441,28.441,0,0,1,9.633-2.166c7.776-.4,14.761,2.2,18.781,6.416a12.294,12.294,0,0,0,9.062,3.76,5.826,5.826,0,0,1,2.439.484,5.629,5.629,0,0,1,2.962,3.15l5.444,3.3a2.608,2.608,0,0,1,1.088.212,3.075,3.075,0,0,1,1.617,2.17,15.571,15.571,0,0,0,6.112,8.764,143.227,143.227,0,0,1,29.354,27.337,19.563,19.563,0,0,0,9.815,6.44,24.234,24.234,0,0,1,3.06,1.109,22.514,22.514,0,0,1,10.936,31.273c-.267.521-.553,1.026-.853,1.521a.594.594,0,0,0-.055.508A136.3,136.3,0,0,1,656.2,585.2q.321,5.36.221,10.641a13.767,13.767,0,0,0,4.174,10.2,8.276,8.276,0,0,1,2.614,6.247c-.153,4.533-4.107,8.143-9.037,8.475a.678.678,0,0,0-.629.516l0,.009a.628.628,0,0,0,.414.718c7.67,2.825,12.154,10.07,10.179,17.031-1.452,5.121-6.027,8.776-11.6,9.933a18.826,18.826,0,0,0-12.694,9.329,140.285,140.285,0,0,1-50.45,52.544,5.208,5.208,0,0,0-2.346,3.016l-.005.019c-3.087,10.886-14.855,17.444-26.284,14.65l-.067-.017a32.938,32.938,0,0,0-14.946-.259,147.9,147.9,0,0,1-55.328,1.47,27.09,27.09,0,0,0-13.963,1.241,8.486,8.486,0,0,1-5.061.365,8.222,8.222,0,0,1-5.231-4.122.765.765,0,0,0-.851-.329,13.33,13.33,0,0,1-7.025.274,13.742,13.742,0,0,1-8.359-6.5,24.819,24.819,0,0,0-8.691-8.464,141.733,141.733,0,0,1-59.694-66.837,19.476,19.476,0,0,0-11.91-10.782,6.342,6.342,0,0,1-4.074-3.256c-.97-2.2-.1-4.836,2.057-7.24a17.194,17.194,0,0,0,4.232-13.885q-.691-5.069-1-10.256a135.6,135.6,0,0,1,32.723-96.771,13.262,13.262,0,0,0,3.21-7.541c.279-3.407,1.536-6.165,3.866-7.954a11.068,11.068,0,0,1,6.3-2.122,16.144,16.144,0,0,0,8.842-3.221,143.906,143.906,0,0,1,79.43-28.643,147.494,147.494,0,0,1,26.06.959A15.52,15.52,0,0,0,539.259,453.583Z" transform="translate(-385.752 -401.866)" fill="#b7b7b7"/>
        <g id="Group_33250" data-name="Group 33250" transform="translate(161.421 96.547)">
          <g id="Group_33249" data-name="Group 33249">
            <circle id="Ellipse_3153" data-name="Ellipse 3153" cx="19.064" cy="19.064" r="19.064" fill="#919191"/>
          </g>
          <path id="Path_17026" data-name="Path 17026" d="M880.072,581.19a19.07,19.07,0,0,1,17.585,26.436,19.06,19.06,0,1,0-34.139-16.8A19.045,19.045,0,0,1,880.072,581.19Z" transform="translate(-862.038 -579.129)" fill="#6c6c6c"/>
        </g>
      </g>
    </g>
    <path id="Path_17028" data-name="Path 17028" d="M1254.737,372.626l8.406-1.742-8.28-1.716-1.863-13.4-1.887,13.573-8.256,1.542,8.384,1.566L1253,386Z" transform="translate(-690.106 -165.93)" fill="#ededed"/>
    <path id="Path_17029" data-name="Path 17029" d="M899.883,229.8l5.95-1.233-5.861-1.215-1.319-9.485-1.336,9.607-5.844,1.092,5.934,1.109,1.246,9.591Z" transform="matrix(0.875, -0.485, 0.485, 0.875, -322.889, 670.943)" fill="#f9f9f9"/>
    <g id="Group_33253" data-name="Group 33253" transform="translate(199.316 129.962)">
      <path id="Path_17030" data-name="Path 17030" d="M285.353,345.76c-.972,2.489,2.894,4,3.867,1.51S286.326,343.267,285.353,345.76Z" transform="translate(-284.363 -288.763)" fill="#f6f6f6"/>
      <path id="Path_17031" data-name="Path 17031" d="M283.085,194.42c-.972,2.489,2.894,4,3.867,1.51S284.059,191.927,283.085,194.42Z" transform="translate(-282.93 -193.144)" fill="#f6f6f6"/>
      <path id="Path_17032" data-name="Path 17032" d="M284.267,510.572c-.972,2.489,2.894,4,3.867,1.51S285.241,508.079,284.267,510.572Z" transform="translate(-283.677 -392.892)" fill="#f6f6f6"/>
      <path id="Path_17033" data-name="Path 17033" d="M298.528,556.277c-.972,2.489,2.894,4,3.867,1.51S299.5,553.785,298.528,556.277Z" transform="translate(-292.687 -421.77)" fill="#f6f6f6"/>
    </g>
    <g id="Group_33254" data-name="Group 33254" transform="translate(310.893 93.382)">
      <path id="Path_17034" data-name="Path 17034" d="M899.193,98.9c-2.5-.952-3.98,2.926-1.479,3.88S901.694,99.852,899.193,98.9Z" transform="translate(-782.119 -96.924)" fill="#f6f6f6"/>
      <path id="Path_17035" data-name="Path 17035" d="M955.858,139.177c-2.5-.952-3.98,2.926-1.479,3.88S958.359,140.13,955.858,139.177Z" transform="matrix(0.875, -0.485, 0.485, 0.875, -643.681, 640.002)" fill="#f6f6f6"/>
      <path id="Path_17036" data-name="Path 17036" d="M634.333,93.941c-2.5-.952-3.98,2.926-1.479,3.88S636.834,94.894,634.333,93.941Z" transform="translate(-614.778 -93.792)" fill="#f6f6f6"/>
      <path id="Path_17037" data-name="Path 17037" d="M588.743,108.568c-2.5-.952-3.98,2.926-1.479,3.88S591.244,109.522,588.743,108.568Z" transform="translate(-585.974 -103.033)" fill="#f6f6f6"/>
    </g>
    <path id="Path_17038" data-name="Path 17038" d="M349.951,852.315l14.825-3.072-14.6-3.026-3.286-23.631-3.328,23.937L329,849.243,343.785,852l3.1,23.894Z" transform="translate(-112.722 -460.87)" fill="#fff"/>
    <path id="Path_17039" data-name="Path 17039" d="M1301.815,700.642l5.95-1.233-5.861-1.215-1.319-9.485-1.336,9.607-5.844,1.092,5.934,1.109,1.246,9.59Z" transform="translate(-722.044 -376.285)" fill="#fff"/>
    <path id="Path_17040" data-name="Path 17040" d="M1043.858,122.567l3.3-.685-3.254-.674-.732-5.266-.742,5.334-3.244.606,3.294.615.692,5.324Z" transform="matrix(0.875, -0.485, 0.485, 0.875, -373.295, 772.514)" fill="#fff"/>
    <path id="Path_17041" data-name="Path 17041" d="M420.731,272.234l63.647,93.137,50.441-14.3-105.35-78.64Z" transform="translate(-170.679 -113.152)" fill="#fff"/>
    <path id="Path_17042" data-name="Path 17042" d="M644.611,484.782c-1.106,2.53-4.853,4.691-9.228,6.336a82.612,82.612,0,0,1-15.1,3.743c-5.56.915-10.835,1.594-15.53,2.068-4.634.424-8.688.645-10.43-.51-1.72-1.1-.608-3.675,3.479-6.863a57.444,57.444,0,0,1,19.457-9.165c8.419-2.353,16.311-2.619,21.278-1.541C643.592,479.908,645.721,482.308,644.611,484.782Z" transform="translate(-279.863 -243.311)" fill="#ededed"/>
    <g id="Group_33255" data-name="Group 33255" transform="translate(341.114 245.143)">
      <path id="Path_17043" data-name="Path 17043" d="M690.067,615.532S663.174,614.4,668.836,590.9s16.135-24.062,16.135-24.062-2.548-4.246,5.944-14.437,17.551-14.154,17.551-14.154a54.1,54.1,0,0,1,13.587-.849c6.794.566,18.944-1.781,28.013-4.429s45.869-30.106,61.721-26.709,30.006,23.778,38.5,26.609,22.929,24.911,19.533,31.988a85.059,85.059,0,0,1-7.926,13.021s5.945,2.264,5.945,5.944-96.245,29.723-113.23,31.138-48.123,9.342-56.615,7.926S690.067,615.532,690.067,615.532Z" transform="translate(-668.053 -505.975)" fill="#dadada"/>
      <path id="Path_17044" data-name="Path 17044" d="M731.262,603.983c-.57-2.137,1.166-4.364,2.436-5.883a21.751,21.751,0,0,1,12.264-7.089,56.315,56.315,0,0,0-9.079.969s-9.058,3.963-17.551,14.154c-7.185,8.622-6.467,12.988-6.076,14.129q.414.292.831.579a1.657,1.657,0,0,1,1.254.842,37.391,37.391,0,0,0,3.951,2.283,23.1,23.1,0,0,1-1.482-6.715,8.772,8.772,0,0,1,9.586-9.233c2.153.243,4.281.93,6.459.914,1.946-.015,2.678-1.1,2.884-2.72C734.634,606.43,731.9,606.359,731.262,603.983Z" transform="translate(-696.47 -559.702)" fill="#e5e5e5"/>
      <path id="Path_17045" data-name="Path 17045" d="M673,712.524c3.9.016,8.458.64,12.017-1.131a25.136,25.136,0,0,1-6.733-2.006c-6.14-3.037-6.25-10.385-5.278-16.318a31.448,31.448,0,0,1,10.1-18.081q-.573-.4-1.144-.813c-3.531,1.947-9.384,7.453-13.131,23-1.844,7.652-.234,12.93,2.775,16.571A1.429,1.429,0,0,1,673,712.524Z" transform="translate(-668.053 -612.245)" fill="#e5e5e5"/>
      <path id="Path_17046" data-name="Path 17046" d="M1023.892,509.033a33.432,33.432,0,0,1,11.083,1.953c4.386,1.638,8.568,3.946,12.816,5.909l.468.214c-5.807-4.913-12.22-9.4-18.939-10.844-4.393-.941-10.394.488-16.968,3.1C1016.2,509.26,1020.044,508.958,1023.892,509.033Z" transform="translate(-885.585 -505.975)" fill="#e5e5e5"/>
    </g>
    <g id="Group_33259" data-name="Group 33259" transform="translate(202.695 93.143)">
      <g id="Group_33257" data-name="Group 33257" transform="translate(0 0)">
        <path id="Path_17047" data-name="Path 17047" d="M406.259,138.953c.973,4.351-10.543,10.629-25.721,14.022s-28.27,2.617-29.243-1.735.73-54.521,15.908-57.914S405.287,134.6,406.259,138.953Z" transform="translate(-329.363 -93.143)" fill="#f2f2f2"/>
        <g id="Group_33256" data-name="Group 33256" transform="translate(0 2.265)">
          <path id="Path_17048" data-name="Path 17048" d="M393.353,197.416c1.651,7.386-17.269,20.84-43.031,26.6s-48.611,1.643-50.262-5.742,17.9-18.041,43.657-23.8S391.7,190.03,393.353,197.416Z" transform="translate(-297.07 -157.162)" fill="#b6b6b6"/>
          <ellipse id="Ellipse_3154" data-name="Ellipse 3154" cx="47.798" cy="13.702" rx="47.798" ry="13.702" transform="translate(0 47.738) rotate(-12.602)" fill="#d9d9d9"/>
          <ellipse id="Ellipse_3155" data-name="Ellipse 3155" cx="28.16" cy="8.073" rx="28.16" ry="8.073" transform="translate(20.171 47.955) rotate(-12.602)" fill="#b7b7b7"/>
          <path id="Path_17049" data-name="Path 17049" d="M380.461,103.469c12.839-2.87,31.207,28.65,37.152,41.066a3.448,3.448,0,0,0,1.015-2.888c-.9-4.022-22.076-45.32-36.108-42.183-3.32.742-5.943,3.907-8,8.358A10.494,10.494,0,0,1,380.461,103.469Z" transform="translate(-344.177 -99.294)" fill="#fff"/>
          <path id="Path_17050" data-name="Path 17050" d="M396.909,142.057c-.566-2.532-4.32-3.465-4.287-2s1.7,4.939.07,5.6-.751-.718-2.066-1.311-1.4,2.973-1.4,2.973,1.6,2.793,2.338,4.3,3.144,3.039,1.77,4.823c-1.067,1.386-5.149,3.623-9,5.157a18.07,18.07,0,0,1-.665-3.586,20.263,20.263,0,0,1,.969-6.249l2.4-9.09a46.943,46.943,0,0,0,1.67-8.314c.219-2.823,3.111-9.78-9.55-10.179-1.965-.062-15.038,6-8.482,14.832.82,1.1,9.076,12.17,9.745,13.227a14.58,14.58,0,0,1,1.63,4.682l1.147,5.112c-.712.26-1.4.491-2.055.679-4.439,1.288-5,1.413-5.19.57-.13-.583,1.226-5.869,2.077-9.082a1.549,1.549,0,0,0-1.675-1.941,2.4,2.4,0,0,1-1.729-.2c-.751-.718-4.505-1.652-4.191-.245s1.222,1.5,1.222,1.5S366,153.1,365.874,155.2c0,0-.748,1.94,2.909,1.122s7.925-2,7.925-2-4.442,10.966-3.284,12.184,9.566-2.139,9.566-2.139l-.527,9.569c2.373-.337,4.85-.787,7.386-1.353q.557-.125,1.107-.255l-5.089-8.309s12.939-4.8,10.324-8.283-5.121-6.765-5.121-6.765S397.475,144.59,396.909,142.057Z" transform="translate(-338.674 -115.019)" fill="#24c1a1"/>
          <path id="Path_17051" data-name="Path 17051" d="M391.187,155.551c0,.023-1.542,2.521-2.872,2.559-1.346-.022-3.566-1.154-3.567-1.056a6.222,6.222,0,0,1,2.756-2.573A3.621,3.621,0,0,1,391.187,155.551Z" transform="translate(-350.636 -134.045)"/>
          <path id="Path_17052" data-name="Path 17052" d="M406.655,152.157c0-.1,2.222,1.034,3.567,1.056,1.33-.039,2.874-2.537,2.872-2.56a3.619,3.619,0,0,0-3.683-1.07A6.22,6.22,0,0,0,406.655,152.157Z" transform="translate(-364.477 -130.951)"/>
          <line id="Line_2958" data-name="Line 2958" y1="3.228" x2="5.187" transform="translate(40.758 26.24)" fill="none" stroke="#6c6c6c" stroke-linecap="round" stroke-miterlimit="10" stroke-width="1.566"/>
          <path id="Path_17053" data-name="Path 17053" d="M390.643,155.274a3.71,3.71,0,0,1,3.434.685c.045-.066.071-.108.071-.11a3.062,3.062,0,0,0-3.078-.821,4.551,4.551,0,0,0-.648.348C390.5,155.341,390.567,155.306,390.643,155.274Z" transform="translate(-354.224 -134.408)" fill="#6c6c6c"/>
          <path id="Path_17054" data-name="Path 17054" d="M412.311,150.144a4.043,4.043,0,0,0-1.086.74,4.273,4.273,0,0,1,.761-.436,2.892,2.892,0,0,1,2.932.831l-.007.012c.108-.165.171-.277.171-.281A2.7,2.7,0,0,0,412.311,150.144Z" transform="translate(-367.367 -131.335)" fill="#6c6c6c"/>
        </g>
      </g>
      <g id="Group_33258" data-name="Group 33258" transform="translate(9.15 42.967)">
        <ellipse id="Ellipse_3156" data-name="Ellipse 3156" cx="3.494" cy="1.001" rx="3.494" ry="1.001" transform="translate(0 18.004) rotate(-12.602)" fill="#ededed"/>
        <ellipse id="Ellipse_3157" data-name="Ellipse 3157" cx="3.494" cy="1.001" rx="3.494" ry="1.001" transform="translate(73.717 1.524) rotate(-12.602)" fill="#ededed"/>
        <ellipse id="Ellipse_3158" data-name="Ellipse 3158" cx="3.494" cy="1.001" rx="3.494" ry="1.001" transform="translate(39.186 20.175) rotate(-12.602)" fill="#ededed"/>
      </g>
    </g>
    <g id="Group_33261" data-name="Group 33261" transform="translate(318.909 286.466)">
      <g id="Group_33260" data-name="Group 33260">
        <circle id="Ellipse_3159" data-name="Ellipse 3159" cx="11.565" cy="11.565" r="11.565" fill="#919191"/>
      </g>
      <path id="Path_17055" data-name="Path 17055" d="M620.225,619.456a11.568,11.568,0,0,1,10.668,16.036,11.562,11.562,0,1,0-20.71-10.193A11.553,11.553,0,0,1,620.225,619.456Z" transform="translate(-609.285 -618.206)" fill="#6c6c6c"/>
    </g>
    <g id="Group_33263" data-name="Group 33263" transform="translate(317.068 274.591)">
      <g id="Group_33262" data-name="Group 33262" transform="translate(0)">
        <circle id="Ellipse_3160" data-name="Ellipse 3160" cx="5.744" cy="5.744" r="5.744" fill="#919191"/>
      </g>
      <path id="Path_17056" data-name="Path 17056" d="M608.943,586.575a5.746,5.746,0,0,1,5.3,7.965,5.743,5.743,0,1,0-10.286-5.063A5.738,5.738,0,0,1,608.943,586.575Z" transform="translate(-603.51 -585.954)" fill="#6c6c6c"/>
    </g>
    <path id="Path_17057" data-name="Path 17057" d="M941.854,573.61l-.734,10.013,4.414-.672.283-11.606Z" transform="translate(-499.466 -302.134)" fill="#ffac43"/>
    <path id="Path_17058" data-name="Path 17058" d="M987.76,560.752s-19.34-11.431-35.866,2.329-18.05,22.586-5.824,42.517,10.246,21.63,16.473,25.027,21.842,9.729,25.194-1.415-4.063-12.8-4.063-12.8S995.143,575.235,987.76,560.752Z" transform="translate(-497.509 -292.626)" fill="#fff"/>
    <path id="Path_17059" data-name="Path 17059" d="M1038.391,729.113s3.114,11.889,1.7,16.7a22.154,22.154,0,0,1-4.246,7.926s-13.77-6.017-17.925-16.454S1031.659,724.735,1038.391,729.113Z" transform="translate(-547.597 -400.455)" fill="#dde3ee"/>
    <path id="Path_17060" data-name="Path 17060" d="M957.424,737.13s-19.261,21.714-10.982,34.807c9.236,14.607,6.765,18.648,11.874,21.255,11.208,5.719,18.35-29.229,23.569-42.376s5.6-21.44-2.828-24.63S957.424,737.13,957.424,737.13Z" transform="translate(-501.522 -399.668)" fill="#fff"/>
    <path id="Path_17061" data-name="Path 17061" d="M988.262,877.049l-7.476,6.136s6.694,14.8,13.993,23.43,23.372,14.219,23.372,14.219L1019,910.36s-9.7-6-7.926-25.477S988.262,877.049,988.262,877.049Z" transform="translate(-524.527 -493.1)" fill="#fff"/>
    <path id="Path_17062" data-name="Path 17062" d="M1067.594,763.747s14.1-12.376,20.237-5.8,12.412,14.1,12.412,14.1l-.193,4.765s-8.926-.448-13.525-.164-17.08,6.229-21-4.152S1067.594,763.747,1067.594,763.747Z" transform="translate(-577.222 -418.813)" fill="#dde3ee"/>
    <path id="Path_17063" data-name="Path 17063" d="M847.654,579.636a.638.638,0,0,0-.3-.363c-.274-.117-.567.1-.772.321a8.383,8.383,0,0,0-2.108,4.063c-1.228-.409-1.049-2.368-2.088-3.14-.765-.568-1.645-1.9-2.539-1.572-1.948.717-4,1.831-5.945,2.548-.677.249-2.193,1.264-2.264,1.981.683.737,2.634.875,3.475,1.424a3.012,3.012,0,0,1,.954,1.567,11.61,11.61,0,0,0,2.6,4.018c1.444,1.454,3.337,2.614,4.066,4.529a13.745,13.745,0,0,1,.23,2.616,5.886,5.886,0,0,0,.628,2.287,1.653,1.653,0,0,0,2,1.041c.847-.371,1.124-2.69,1.052-3.611-.409-5.237-1.965-9.621.278-14.37C847.417,581.909,848.107,580.723,847.654,579.636Z" transform="translate(-430.291 -306.903)" fill="#ffac43"/>
    <path id="Path_17064" data-name="Path 17064" d="M1000.954,520.057q-1.879-5.036-3.563-10.141a2.245,2.245,0,0,0-1.736.557,24.228,24.228,0,0,0-5.313,5.037,6.874,6.874,0,0,1,2.781,1.911l4.263,4.121a.66.66,0,0,0,.994.148l2.467-1.432" transform="translate(-530.564 -263.298)" fill="#ffac43"/>
    <path id="Path_17065" data-name="Path 17065" d="M1101.974,953.668c-.143-.056-6.551,2.85-9.8,4.031-3.029,14.4,14.575,46.688,16.926,49.4s3.552,1.891,3.552,1.891l-.027-14.3,1.2-30.265a65.561,65.561,0,0,0-3.39-7.138C1107.454,957.16,1104.626,954.706,1101.974,953.668Z" transform="translate(-594.683 -543.688)" fill="#fff"/>
    <path id="Path_17066" data-name="Path 17066" d="M1012.48,620.152s8.538-37.273,1.155-51.756c0,0-50.691,1.329-29.463,4.766,29.723,4.812,16.418,50.67,21.078,57.65,2.661,3.986,2.606,7.974.385,12.3,3.64-.3,10.945-4.839,12.222-9.085C1021.21,622.879,1012.48,620.152,1012.48,620.152Z" transform="translate(-523.385 -300.27)" fill="#dde3ee"/>
    <path id="Path_17067" data-name="Path 17067" d="M1186.211,821.809c-3.172-7.282-7.082-14.309-7.615-22.4-.183-2.786-.171-6.191,2.067-8.231.236-.215-.364-3.8-.1-3.971a54.45,54.45,0,0,0-8.392,3.609l-.535,9.912a18.125,18.125,0,0,1,3.73,4.878c1.326,2.733,6.889,18.215,6.889,18.215s.824,3.171,3.356,3.437c.741.078,2.083.131,3.61.168A36.109,36.109,0,0,1,1186.211,821.809Z" transform="translate(-645.106 -438.517)" fill="#fff"/>
    <path id="Path_17068" data-name="Path 17068" d="M877.258,643.984c-4.758,3.238-8.224,4.725-9.9,6.418a3.04,3.04,0,0,1-4.542-.243c-3.355-4.24-8.651-12.729-7.073-22.592l2.265-14.154,3.68-.283s.994,7.264,2.337,8.869a46.867,46.867,0,0,1,3.608,6.134,21.792,21.792,0,0,0,3.159-7.62c.521-3.7,2.5-14.743,9.862-16.442S925.1,611.43,877.258,643.984Z" transform="translate(-445.343 -322.686)" fill="#eef1f6"/>
    <path id="Path_17069" data-name="Path 17069" d="M1007.938,725.968s7.813,10.04,3.842,16.327-16.144,15.628-22.937,4.871a47.958,47.958,0,0,1-7.4-20.462Z" transform="translate(-524.94 -399.826)" fill="#fff"/>
    <path id="Path_17070" data-name="Path 17070" d="M925.871,616.463c-.526-10.828,4.052-19.207-6.248-22.585a144.279,144.279,0,0,0-15.852-2.548c-16.7,1.416-6.794,3.68-4.246,9.058s26.85,41.248,26.85,41.248S926.439,628.161,925.871,616.463Z" transform="translate(-469.874 -314.758)" fill="#fff"/>
    <path id="Path_17071" data-name="Path 17071" d="M901.042,594.8c-11.889-1.416-8.775,4.246-1.415,7.643,5.4,2.494,20.381,32.837,20.381,32.837S908.837,595.726,901.042,594.8Z" transform="translate(-469.127 -316.81)" fill="#eef1f6"/>
    <path id="Path_17072" data-name="Path 17072" d="M892.061,604.07c-7.36,1.7-9.341,12.739-9.862,16.442a21.025,21.025,0,0,1-2.94,7.277c-1.718,4.968-4.624,9.638-5.492,14.845a14.083,14.083,0,0,0,.185,6.219c.156.546.344,1.082.553,1.61a3.04,3.04,0,0,0,4.26-.063c1.675-1.692,5.141-3.18,9.9-6.418C936.5,611.43,899.421,602.371,892.061,604.07Z" transform="translate(-456.749 -322.686)" fill="#fff"/>
    <g id="Group_33265" data-name="Group 33265" transform="translate(421.736 234.388)">
      <path id="Path_17073" data-name="Path 17073" d="M900.777,477.834a20.228,20.228,0,1,0,25.641,12.684A20.228,20.228,0,0,0,900.777,477.834Z" transform="translate(-887.022 -476.763)" fill="#fff"/>
      <path id="Path_17074" data-name="Path 17074" d="M893.454,529.731a5.441,5.441,0,0,0-.444-2.535c-.709-2.2-1.71-4.231-2.208-6.5a31.533,31.533,0,0,1-.773-5.4c-.065-1.606.413-3.165.448-4.763.025-1.1-.333-2.382-1.46-2.541a20.214,20.214,0,0,0,3.442,22.524A1.009,1.009,0,0,0,893.454,529.731Z" transform="translate(-887.024 -496.496)" fill="#a9b8d3"/>
      <g id="Group_33264" data-name="Group 33264" transform="translate(6.306 16.774)">
        <ellipse id="Ellipse_3161" data-name="Ellipse 3161" cx="4.679" cy="6.283" rx="4.679" ry="6.283" transform="matrix(0.974, -0.225, 0.225, 0.974, 1.362, 2.105)" fill="#dce2ed"/>
        <ellipse id="Ellipse_3162" data-name="Ellipse 3162" cx="4.679" cy="6.283" rx="4.679" ry="6.283" transform="matrix(0.974, -0.225, 0.225, 0.974, 0, 2.32)" fill="#f9f9f9"/>
      </g>
    </g>
    <g id="Group_33266" data-name="Group 33266" transform="translate(443.946 251.812)">
      <path id="Path_17075" data-name="Path 17075" d="M964.852,600.331l-16.816-47.084a11.832,11.832,0,0,1,7.163-15.122l23.725-13.346a11.679,11.679,0,0,1,15.461,8.894l9.494,48.419a11.832,11.832,0,0,1-7.163,15.122l-16.743,10.281A11.831,11.831,0,0,1,964.852,600.331Z" transform="translate(-947.343 -524.087)" fill="#bbc7dd"/>
      <ellipse id="Ellipse_3163" data-name="Ellipse 3163" cx="3.168" cy="4.775" rx="3.168" ry="4.775" transform="translate(3.61 21.516) rotate(-13.726)" fill="#9aabcc"/>
    </g>
    <path id="Path_17076" data-name="Path 17076" d="M901.045,595.93c6.543.779,15.463,28.765,18.16,37.738.515,1.02.806,1.61.806,1.61s-11.171-39.552-18.966-40.479c-6.391-.761-8.445.523-7.837,2.4C893.706,595.989,896.052,595.336,901.045,595.93Z" transform="translate(-469.13 -316.81)" fill="#eef1f6"/>
    <path id="Path_17077" data-name="Path 17077" d="M1052.395,952.159c-3.122,3.841-6.243,7.684-9.585,11.331a82.85,82.85,0,0,0,14.529,6.979l.849-10.474S1054.8,957.9,1052.395,952.159Z" transform="translate(-563.714 -542.735)" fill="#ffac43"/>
    <path id="Path_17078" data-name="Path 17078" d="M1139.4,779.958a115.976,115.976,0,0,1-3.434,11.721c4.442.007,9.434.258,9.434.258l.193-4.765S1142.941,783.99,1139.4,779.958Z" transform="translate(-622.571 -433.937)" fill="#ffac43"/>
    <g id="Group_33267" data-name="Group 33267" transform="translate(439.069 300.388)">
      <path id="Path_17079" data-name="Path 17079" d="M942.548,664.41c-.866-2.609-1.863-5.486-2.946-8.392a36.571,36.571,0,0,1-5.506,15.739A86.718,86.718,0,0,0,942.548,664.41Z" transform="translate(-934.097 -656.018)" fill="#eef1f6"/>
    </g>
    <path id="Path_17080" data-name="Path 17080" d="M1172.344,817.559a40.627,40.627,0,0,1-4.778,9.511c-.307.453.428.879.733.429a41.484,41.484,0,0,0,4.863-9.714c.179-.517-.641-.74-.819-.226Z" transform="translate(-642.49 -457.509)" fill="#b6b6b6"/>
    <path id="Path_17081" data-name="Path 17081" d="M1165.98,824.05a13.432,13.432,0,0,1,6.291,1.933.425.425,0,0,0,.428-.733,14.346,14.346,0,0,0-6.719-2.049c-.546-.027-.545.822,0,.849Z" transform="translate(-641.276 -461.258)" fill="#b6b6b6"/>
    <path id="Path_17082" data-name="Path 17082" d="M1080.215,1020.122q-4.243,7.336-9.055,14.322c-.311.451.425.876.733.429q4.808-6.98,9.055-14.322a.425.425,0,0,0-.734-.429Z" transform="translate(-581.579 -585.545)" fill="#b6b6b6"/>
    <path id="Path_17083" data-name="Path 17083" d="M1069.7,1028.243a5.635,5.635,0,0,0,1.705,2.126q1.277,1.1,2.56,2.187l5.158,4.407c.414.353,1.017-.245.6-.6l-4.943-4.223-2.472-2.112a5.706,5.706,0,0,1-1.79-2.01c-.2-.5-1.023-.282-.819.226Z" transform="translate(-580.684 -590.484)" fill="#b6b6b6"/>
    <path id="Path_17084" data-name="Path 17084" d="M1110.882,949.488c-1.119-.172-10.772,2.433-12.5,8.261s14.893,45.813,18.333,48.592,22.207-1.535,25.823-9.471S1114.157,949.991,1110.882,949.488Z" transform="translate(-598.747 -541.043)" fill="#b6b6b6"/>
    <path id="Path_17085" data-name="Path 17085" d="M1182.336,789.97c-.518,3.077,10.419,36.523,12.684,37.089s12.739-1.982,13.3-8.209-14.256-31.573-15.337-32.063S1182.957,786.284,1182.336,789.97Z" transform="translate(-651.857 -438.107)" fill="#b6b6b6"/>
    <path id="Path_17086" data-name="Path 17086" d="M777.432,647.907s1.988-1.875,9.941-3.75a27.394,27.394,0,0,1,14.579.625s.994-2.188-7.29-2.813S774.781,644.782,777.432,647.907Z" transform="translate(-395.802 -346.707)" fill="#e5e5e5"/>
    <g id="Group_33271" data-name="Group 33271" transform="translate(384.612 262.13)">
      <path id="Path_17087" data-name="Path 17087" d="M797.931,590.206l1.974-.733,2.982,3.125-2.755-1.977Z" transform="translate(-793.609 -575.716)" fill="#355586"/>
      <path id="Path_17088" data-name="Path 17088" d="M820.306,590.5l1.025-1.876.484,1.1-.44.059Z" transform="translate(-807.746 -575.18)" fill="#355586"/>
      <g id="Group_33270" data-name="Group 33270">
        <g id="Group_33269" data-name="Group 33269" transform="translate(5.495)">
          <g id="Group_33268" data-name="Group 33268" transform="translate(0.8 8.264)">
            <path id="Path_17089" data-name="Path 17089" d="M808.853,586.323a7.329,7.329,0,0,0,.912-2.274,21.111,21.111,0,0,0-.425-3.99,1.444,1.444,0,0,0-.721-.476,1.5,1.5,0,0,0-.574-.039,6.5,6.5,0,0,0,1.158-1.233c.651-1.053,1.006-1.71.412-2.818a3.3,3.3,0,0,0-3.205-.754,4.387,4.387,0,0,0-.939.609,8.4,8.4,0,0,0-.62.646c-.066.084-.124.173-.185.259a3.393,3.393,0,0,0-.231.338v-.007c-.055.135-.234.712-.245.759a2.431,2.431,0,0,0,.144,1.654,1.818,1.818,0,0,0,.788.82,2.278,2.278,0,0,0,1.069.263,3.219,3.219,0,0,0,.7-.07.077.077,0,0,1,.046,0c0,.01,0,.014-.01.019-.054.042-.106.086-.156.129a5.487,5.487,0,0,0-1.724,3.2,4.527,4.527,0,0,0,.8,3.82,2.36,2.36,0,0,0-.9.33,3,3,0,0,0-.9.866,4.149,4.149,0,0,0-.649,1.581,7.5,7.5,0,0,0-.1,1.2c0,5.008,5.062,6.5,5.545,6.567.059.015.058.015.06-.065a28.324,28.324,0,0,1-.019-5.893,12.79,12.79,0,0,0-.073-1.355,13.078,13.078,0,0,1-.584-1.994,2.956,2.956,0,0,0-.372-.5,2.585,2.585,0,0,0-.351-.313,2.059,2.059,0,0,0,.537-.311C808.217,587.231,808.72,586.422,808.853,586.323Z" transform="translate(-803.29 -574.555)" fill="#5673a9"/>
            <path id="Path_17090" data-name="Path 17090" d="M810.832,582.844a1.441,1.441,0,0,0-.721-.476,1.5,1.5,0,0,0-.574-.039A6.514,6.514,0,0,0,810.7,581.1a2.839,2.839,0,0,0,.673-2.134c-.86,1.8-3.111,2.213-4.863,2.412a1.63,1.63,0,0,1-.853-.13,2.11,2.11,0,0,0,.173.538,1.818,1.818,0,0,0,.788.82,2.279,2.279,0,0,0,1.069.263,3.223,3.223,0,0,0,.7-.07.079.079,0,0,1,.046,0c0,.01,0,.014-.01.019-.05.039-.1.076-.14.116a1.8,1.8,0,0,1,.232.063,1.018,1.018,0,0,1,.646.379,2.538,2.538,0,0,1,.32.323c1.014,1.268.39,2.924-.372,4.148a7.242,7.242,0,0,1-2.2,2.5,5.087,5.087,0,0,1,2.988,5.576,15.623,15.623,0,0,1-1.555,3.784,8.615,8.615,0,0,0,2,.8c.059.015.059.015.06-.065.149-.031,4.392-5.778-1.048-9.74-.128-.093-.224-.218-.351-.313.554-.095,1.056-.9,1.359-1.273a7.316,7.316,0,0,0,.91-2.273A5.47,5.47,0,0,0,810.832,582.844Z" transform="translate(-804.782 -577.339)" fill="#355586"/>
          </g>
          <path id="Path_17091" data-name="Path 17091" d="M804.712,565.83a48.462,48.462,0,0,1-3.285-5.92c-.479-1.5-.439-2.813.363-2.715a1.568,1.568,0,0,1,1.327,1.254c-.046.339-.232.719-.424.121s-.05-.639-.05-.639-.994-.7-1.181-.316-.56,1.139.631,3.411,2.76,4.764,2.76,4.764S804.949,566.089,804.712,565.83Z" transform="translate(-801.116 -555.32)" fill="#355586"/>
          <path id="Path_17092" data-name="Path 17092" d="M814.314,561.389s-1.073-3.5-.564-5.314.528-3.1,2.064-3.687,2.091-.124,2.327.258-.425,1.51-.66,1.128a1.459,1.459,0,0,1-.066-.986s.085-.3-.641-.16-1.686-.1-2.28,2.017a8.847,8.847,0,0,0-.462,4.087,14.161,14.161,0,0,0,.6,2.737S814.869,561.852,814.314,561.389Z" transform="translate(-809.012 -552.11)" fill="#355586"/>
        </g>
        <path id="Path_17093" data-name="Path 17093" d="M794.145,627.668l-3.976,1.25-3.976,6.875h1.988l2.319-6.25Z" transform="translate(-786.193 -599.848)" fill="#355586"/>
        <path id="Path_17094" data-name="Path 17094" d="M821.29,624.272l4.97,3.125,1.657,4.375h-1.657l-.331-4.063Z" transform="translate(-808.368 -597.703)" fill="#355586"/>
      </g>
    </g>
    <g id="Group_33272" data-name="Group 33272" transform="translate(397.663 175.693)">
      <path id="Path_17095" data-name="Path 17095" d="M841.159,336.873c-1.323,1.324-2.685,2.609-4.106,3.827s-2.875,2.4-4.4,3.485a32.789,32.789,0,0,1-4.81,2.923,12.742,12.742,0,0,1-2.676.959,4.949,4.949,0,0,1-1.455.115,2.305,2.305,0,0,1-1.414-.584,2.335,2.335,0,0,1-.628-1.409,5.03,5.03,0,0,1,.071-1.478,12.88,12.88,0,0,1,.884-2.733,31.5,31.5,0,0,1,2.8-4.934,64.568,64.568,0,0,1,15.909-15.911,31.316,31.316,0,0,1,4.934-2.8,12.922,12.922,0,0,1,2.734-.884,5.047,5.047,0,0,1,1.478-.071,2.335,2.335,0,0,1,1.41.629,2.309,2.309,0,0,1,.585,1.415,4.948,4.948,0,0,1-.115,1.456,12.723,12.723,0,0,1-.96,2.676,32.708,32.708,0,0,1-2.924,4.809c-1.084,1.529-2.263,2.987-3.485,4.4S842.483,335.55,841.159,336.873Zm0,0a61.433,61.433,0,0,0,7.2-8.588,30.936,30.936,0,0,0,2.757-4.859,12.394,12.394,0,0,0,.849-2.625,4.556,4.556,0,0,0,.065-1.334,1.6,1.6,0,0,0-1.612-1.562,4.517,4.517,0,0,0-1.312.108,12.321,12.321,0,0,0-2.567.926,32.406,32.406,0,0,0-4.734,2.879c-1.514,1.072-2.959,2.243-4.366,3.455s-2.764,2.487-4.079,3.8-2.592,2.668-3.8,4.079-2.384,2.852-3.457,4.366a32.2,32.2,0,0,0-2.88,4.734,12.3,12.3,0,0,0-.925,2.568,4.505,4.505,0,0,0-.108,1.313,1.6,1.6,0,0,0,1.564,1.614,4.556,4.556,0,0,0,1.335-.065,12.4,12.4,0,0,0,2.626-.85,30.863,30.863,0,0,0,4.858-2.758A61.5,61.5,0,0,0,841.159,336.873Z" transform="translate(-821.639 -317.35)" fill="#fff"/>
      <circle id="Ellipse_3164" data-name="Ellipse 3164" cx="14.54" cy="14.54" r="14.54" transform="translate(3.075 0.634)" fill="#ededed"/>
      <path id="Path_17096" data-name="Path 17096" d="M822.766,347.733a2.115,2.115,0,0,1-.609-1.258,4.832,4.832,0,0,1,.031-1.428,12.446,12.446,0,0,1,.821-2.723,30.041,30.041,0,0,1,2.746-4.951,62.074,62.074,0,0,1,15.9-15.9,30,30,0,0,1,4.951-2.747,12.476,12.476,0,0,1,2.723-.82,4.848,4.848,0,0,1,1.428-.031,2.118,2.118,0,0,1,1.259.61,2.043,2.043,0,0,0-1.274-.464,4.705,4.705,0,0,0-1.362.148,12.766,12.766,0,0,0-2.578.99,33.973,33.973,0,0,0-4.717,2.934c-1.5,1.1-2.954,2.254-4.349,3.482s-2.761,2.49-4.074,3.807-2.591,2.669-3.807,4.073-2.386,2.851-3.482,4.349a33.97,33.97,0,0,0-2.934,4.717,12.774,12.774,0,0,0-.989,2.578,4.705,4.705,0,0,0-.148,1.362A2.042,2.042,0,0,0,822.766,347.733Z" transform="translate(-821.941 -317.655)" fill="#fff"/>
      <path id="Path_17097" data-name="Path 17097" d="M848.149,343.862c-1.323,1.324-2.685,2.609-4.107,3.827s-2.874,2.4-4.4,3.485a32.723,32.723,0,0,1-4.81,2.923,12.73,12.73,0,0,1-2.676.96,4.96,4.96,0,0,1-1.455.115,2.3,2.3,0,0,1-1.414-.584,2.333,2.333,0,0,1-.629-1.409,5.057,5.057,0,0,1,.071-1.478,12.89,12.89,0,0,1,.885-2.733,31.5,31.5,0,0,1,2.8-4.935,64.568,64.568,0,0,1,15.908-15.912,31.315,31.315,0,0,1,4.934-2.8,12.9,12.9,0,0,1,2.733-.884,5.047,5.047,0,0,1,1.478-.071,2.336,2.336,0,0,1,1.41.63,2.3,2.3,0,0,1,.585,1.415,4.963,4.963,0,0,1-.115,1.456,12.71,12.71,0,0,1-.96,2.676,32.669,32.669,0,0,1-2.924,4.81c-1.083,1.529-2.262,2.987-3.485,4.4S849.472,342.539,848.149,343.862Zm0,0a61.459,61.459,0,0,0,7.2-8.588,30.935,30.935,0,0,0,2.757-4.859,12.394,12.394,0,0,0,.85-2.625,4.54,4.54,0,0,0,.064-1.334,1.6,1.6,0,0,0-1.612-1.562A4.5,4.5,0,0,0,856.1,325a12.282,12.282,0,0,0-2.567.925,32.4,32.4,0,0,0-4.734,2.88c-1.514,1.072-2.959,2.243-4.367,3.455s-2.764,2.487-4.079,3.8-2.592,2.668-3.8,4.079-2.384,2.852-3.456,4.366a32.2,32.2,0,0,0-2.88,4.734,12.313,12.313,0,0,0-.926,2.568,4.521,4.521,0,0,0-.108,1.313,1.6,1.6,0,0,0,1.565,1.614,4.556,4.556,0,0,0,1.335-.065,12.417,12.417,0,0,0,2.625-.85,30.9,30.9,0,0,0,4.859-2.758A61.509,61.509,0,0,0,848.149,343.862Z" transform="translate(-826.055 -321.766)" fill="#fff"/>
      <path id="Path_17098" data-name="Path 17098" d="M829.756,354.722a2.117,2.117,0,0,1-.609-1.259,4.847,4.847,0,0,1,.031-1.428,12.466,12.466,0,0,1,.821-2.723,30.018,30.018,0,0,1,2.747-4.951,62.068,62.068,0,0,1,15.9-15.9,30.033,30.033,0,0,1,4.951-2.746,12.48,12.48,0,0,1,2.723-.82,4.838,4.838,0,0,1,1.429-.031,2.114,2.114,0,0,1,1.258.61,2.042,2.042,0,0,0-1.274-.464,4.688,4.688,0,0,0-1.362.148,12.723,12.723,0,0,0-2.578.99,33.917,33.917,0,0,0-4.717,2.934c-1.5,1.1-2.954,2.254-4.349,3.482s-2.761,2.49-4.074,3.807-2.591,2.668-3.808,4.073-2.386,2.851-3.482,4.349a33.956,33.956,0,0,0-2.934,4.717,12.756,12.756,0,0,0-.989,2.578,4.7,4.7,0,0,0-.148,1.362A2.044,2.044,0,0,0,829.756,354.722Z" transform="translate(-826.357 -322.072)" fill="#fff"/>
      <path id="Path_17099" data-name="Path 17099" d="M851.022,359a14.538,14.538,0,0,0,19.408-20.087C862.147,343.812,853.946,349.65,851.022,359Z" transform="translate(-840.203 -330.976)" fill="#ededed"/>
    </g>
    <path id="Path_17100" data-name="Path 17100" d="M205.682,241.339l10.676-2.212-10.516-2.179-2.366-17.018-2.4,17.238-10.485,1.959,10.647,1.989,2.235,17.208Z" transform="translate(-25.275 -80.105)" fill="#fff"/>
    <path id="Path_17101" data-name="Path 17101" d="M202.451,709.13c1.047-1.532,1.026-2.725-.581-3.817q-7.583-5.152-15.133-10.352c-1.466-1.006-2.619-.813-3.536.771a26,26,0,0,1-1.7,2.49c-.425.568-.83,1.52-1.733.912-.778-.524-.116-1.222.208-1.748,1.451-2.352,2.943-4.679,4.421-7.013.427-.675.96-1.295,1.823-.835,1.455.775,3.1,1.386,3.88,2.99,1.272,2.633,2.257,5.642,5.3,6.637a15.774,15.774,0,0,0,12.461-.838c5.347-2.756,8.142-7.248,8.638-13.213a2.9,2.9,0,0,0-1.675-3c-4.594-2.854-9.095-5.865-13.535-8.954-1.032-.718-1.794-1-2.923-.419a21.831,21.831,0,0,0-3.519,2.031c.133-2.1,1.466-3.57,2.659-5.017.651-.79,1.5.021,2.193.491,5.54,3.766,11.121,7.472,16.613,11.306,1.766,1.233,2.969,1.13,4.1-.726,1.219-2,2.519-3.952,3.832-5.891.961-1.418.631-2.47-.726-3.377q-8.982-6-17.951-12.021a2.34,2.34,0,0,0-.666-.345c-.834-.223-5.5,2.119-5.768,2.935-.074.226.417.656-.185.723a.848.848,0,0,1-.951-.661,4.01,4.01,0,0,1,.863-3.265c1.743-2.536,1.652-2.881-.855-4.574-5.483-3.7-11-7.358-16.452-11.1-1.35-.926-2.351-1.051-3.373.4-1.446,2.051-2.98,4.039-4.468,6.06a2.1,2.1,0,0,0,.612,3.4c5.918,3.955,11.854,7.884,17.727,11.9,1.362.933,2.3.32,3.514-.409a26.557,26.557,0,0,1-3.92,8.072,1.237,1.237,0,0,1-1.155.256c-.538-.231-.35-.871-.26-1.309.115-.56.478-1.066.607-1.625.528-2.288.283-3.846-2.279-5.228a116.43,116.43,0,0,1-12.447-8.316,2.611,2.611,0,0,0-2.968-.4c-10.845,5.222-11.84,17.533-5.218,24.809,1.478,1.623,3.649,1.837,5.584,1.773,3.088-.1,5.151,1.629,7.355,3.25a1.871,1.871,0,0,1,.551,2.832,37.815,37.815,0,0,0-3.928,7.28c-.489,1.252-1.281,1.041-2.223.624-1.166-.516-1.194-1.254-.533-2.187.1-.137.184-.28.272-.423,3.167-5.161,3.144-5.123-2.163-8.391q-5.882-3.623-11.637-7.448c-1.78-1.187-2.976-.988-4.126.846-1.778,2.837-3.639,5.628-5.593,8.346-1.368,1.9-1.255,3.214.853,4.478,5.027,3.014,9.99,6.135,14.946,9.265,1.582,1,2.751.922,3.72-.809.421-.753.9-1.8,2.105-.95.968.682.506,1.5.074,2.207-1.651,2.718-3.352,5.406-5.021,8.113l2.712,2.518c2.065-3.285,4.224-6.511,6.346-9.759l.527.3a3.235,3.235,0,0,1-.122.915c-1.675,3.73-1.693,3.747,1.761,6.142,4.335,3.007,8.718,5.944,13.03,8.983,1.788,1.26,3.049,1.25,4.27-.8C198.492,714.95,200.467,712.033,202.451,709.13Zm4.369-15.644a2.671,2.671,0,0,0-2-3.07c-2.84-1.031-2.843-1.023-1.094-3.465,1.969-2.749,2.1-2.768,5.312-.65.521.751,2.7,1.032,1.944,2.188-.959,1.459-1.99-.563-3.032-.933-.869-.308-1.673-1.5-2.587-.243-.986,1.357.438,1.64,1.151,2.207a4.254,4.254,0,0,1,1.2,5.58c-1.206,1.993-2.808,2.544-5.1,1.634a9.458,9.458,0,0,1-3.13-1.351c-.441-.393-.993-.814-.473-1.448.5-.61,1.026-.313,1.475.173a4.392,4.392,0,0,0,3.6,1.453C205.4,695.484,206.608,695.04,206.819,693.487ZM199.191,679.8a3.106,3.106,0,0,1,.387.25c.727.829,2.708,1.028,2.663,2.438-.054,1.7-2.12,1.538-3.282,2.232-1.936,1.156-3.962,2.184-5.285,4.146-.4.588-1.015,1.414-1.793.624-.613-.623.11-1.288.549-1.706a22.8,22.8,0,0,1,5.585-4.218c1.7-.827,1.631-1.56.21-2.655-.92-.709-3.075-1.389-2.336-2.358C196.786,677.38,198.022,679.378,199.191,679.8ZM173.9,667.711a18.029,18.029,0,0,0-5.8,4.236c-.43.493-1.008,1.118-1.651.423-.539-.583.116-1.033.5-1.443a20.361,20.361,0,0,1,5.982-4.44c1.723-.825,1.454-1.467.051-2.276-.72-.416-1.413-.882-2.092-1.363-.445-.316-1.211-.595-.791-1.305.472-.8,1.175-.34,1.738-.008.787.464,1.536.991,2.508,1.626.728.754,2.636.968,2.609,2.4C176.924,667.121,175.049,667.145,173.9,667.711Zm3.317,11.758c-.921-.478-2.331.071-3.153-1.006-.328-.429-1.045-.828-.586-1.475.483-.68,1.041-.165,1.505.157a5.386,5.386,0,0,0,3.437,1.3c1.434-.092,2.735-.515,2.938-2.142A2.419,2.419,0,0,0,179,673.355c-2.691-.176-2.144-1.369-1.136-2.884,2.1-3.161,2.532-3.268,5.494-1.162.542.737,2.676,1.086,1.985,2.148-.763,1.17-1.859-.632-2.84-1.037-.842-.348-1.6-1.08-2.413-.038-.886,1.131.05,1.609.8,2.144,1.864,1.332,2.7,3.048,1.483,5.169C181.233,679.687,179.711,680.766,177.217,679.469Zm6.4,4.009c-.649-.474-1.839-.168-2.016-1.191-.13-.753.631-1.123,1.214-1.422,1.934-.992,3.429-2.556,5.506-4.364-.592,2.893-2.1,4.647-3,6.684C184.986,683.96,184.207,683.906,183.621,683.478Zm-17.285,7.161c-1.735.133-2.352,1.376-3.117,2.534-.509.77-1.034,1.334-2.013.7-1.079-.7-.485-1.4.006-2.086.767-1.075,1.627-2.044.773-3.57-.362-.647.408-1.163,1.079-1.411,1.136-.419,2.274-.836,3.228-1.187C167.256,686.349,167.107,690.579,166.336,690.638Zm29.8,16.74c-.788.606-1.418,1.416-2.184,2.055-.4.334-1.169.915-1.254-.172-.14-1.778-1.338-1.406-2.352-1.31-1.825.173-3.637.494-5.461.676-.95.095-2.162.437-2.406-1.024-.274-1.638,1.1-1.359,2-1.486,1.9-.267,3.817-.412,5.713-.7.9-.136,2.131.015,1.885-1.638-.124-.837.56-.619,1.019-.42.918.4,1.818.831,2.725,1.249C197.334,705.391,197.643,706.222,196.139,707.378Z" transform="translate(0 -347.123)" fill="#f6f6f6"/>
    <g id="Group_33273" data-name="Group 33273" transform="translate(253.23 220.302)">
      <path id="Path_17102" data-name="Path 17102" d="M451.309,461.988a2.159,2.159,0,0,1-.515-.261,2.061,2.061,0,0,1,.056-.607c.192-.586.415-1.162.626-1.742l-.077-.028c.156-.43.338-.853.462-1.292s.321-.619.742-.473q.134-.563.254-1.13c-.3-.136-.4-.342-.264-.724q.442-1.279.867-2.563.182-1.17.324-2.344a13.824,13.824,0,0,1,.885-3.4c.215-.556.439-1.11.613-1.675-.467-.169-.933-.338-1.4-.506-.328-.117-.31-.318-.254-.6.174-.86.084-1.03-.728-1.35-.576-.226-1.163-.43-1.753-.617a.807.807,0,0,1-.506-.346,11.552,11.552,0,0,1-1.562-.462,4.789,4.789,0,0,1-.583-.187q-4.044-1.474-8.087-2.953a5.473,5.473,0,0,0-.725-.212l-.07-.012q-.085.234-.171.467l.1.053-.014.01c.157-.11.3-.037.455.019q6.235,2.294,12.472,4.585c.9.33.889.327.58,1.227-.566,1.65-1.142,3.3-1.668,4.959-.189.6-.428.733-1.035.51-4.2-1.546-8.416-3.056-12.623-4.588-.342-.124-.641-.27-.858.176a.369.369,0,0,1-.27.189c-1.195-.091-1.267.941-1.665,1.646a1.824,1.824,0,0,1-.131.244q-.166.461-.325.924a28.726,28.726,0,0,1-1.183,3.1c-.44.915-.943,1.8-1.43,2.689a18.52,18.52,0,0,0-1.621,3.63.678.678,0,0,1,.736.344,14.89,14.89,0,0,0,2.356-3.11,11.583,11.583,0,0,0,1.337-4.028,3.511,3.511,0,0,0,.02-.681c-.02-.566.049-1.035.738-1.3,1.134-.431,2.218-1,3.311-1.532a.571.571,0,0,1,.855.2,4.087,4.087,0,0,0,4.362,1.655.813.813,0,0,1,.929.353,4.045,4.045,0,0,0,4.255,1.6.666.666,0,0,1,.893.454c.511,1.129,1.067,2.237,1.61,3.352.146.3.265.561-.063.854a6.678,6.678,0,0,0-2.1,5.723,5.113,5.113,0,0,1-2.521,4.81,4.685,4.685,0,0,1-4.365.359,4.468,4.468,0,0,0-3.852.093c-.215.113-.4.129-.481-.155-.458-1.575-1.751-2.118-3.131-2.608a5.114,5.114,0,0,1-3.454-5.106c.013-.374.309-.944-.008-1.077-.235-.1-.422.126-.61.363a.653.653,0,0,1-.109.507c-.158.226-.328.445-.493.666.025.025.052.05.083.077.13.11-.032.346-.09.517q-.444,1.3-.9,2.6c-.4,1.16-.126,1.784,1.021,2.2q2.77,1.012,5.543,2.014a36.705,36.705,0,0,1,4.149.483,44.3,44.3,0,0,1,6.679,2.379A31.112,31.112,0,0,0,451.309,461.988Zm-3.784-11.819c-.113.253-.372.072-.547.006q-4.794-1.8-9.582-3.607a1.992,1.992,0,0,1-.289-.172c.258-.24.5-.128.731-.043q4.65,1.688,9.3,3.385C447.331,449.81,447.664,449.855,447.524,450.168Zm3.359,1.242a.22.22,0,0,1-.294.091c-.3-.1-.6-.214-.9-.323l0,0c-.255-.093-.512-.183-.766-.28-.131-.051-.251-.129-.212-.3a.217.217,0,0,1,.316-.157q.863.31,1.718.643A.222.222,0,0,1,450.883,451.411Z" transform="translate(-429.359 -438.507)" fill="#ededed"/>
      <path id="Path_17103" data-name="Path 17103" d="M447.427,450.808c-.094-.212.123-.274.212-.385a2.278,2.278,0,0,0,.444-.6c.36-.94.719-1.88,1.086-2.817a15.781,15.781,0,0,1-.849,1.531c-.583.92-1.3,1.723-1.8,2.7l.329.113C447.173,451.459,447.746,451.53,447.427,450.808Z" transform="translate(-440.204 -443.876)" fill="#ededed"/>
      <path id="Path_17104" data-name="Path 17104" d="M452.377,481.719c-.485,1.334-.992,2.66-1.444,4-.191.569-.458.708-1.015.482-.5-.2-.887-.306-.647-1.048.684-2.115,1.441-4.2,2.184-6.3.129-.363.274-.7-.262-.87-.317-.1-.193-.38-.127-.585.092-.289.082-.712.5-.723a5.068,5.068,0,0,0,1.192-.265.793.793,0,0,1,.969,1.113c-.492,1.381-1,2.756-1.5,4.134Z" transform="translate(-441.893 -462.437)" fill="#ededed"/>
      <path id="Path_17105" data-name="Path 17105" d="M467.687,487.275c-.486,1.335-.985,2.666-1.45,4.009-.183.528-.419.759-1.007.516-.524-.216-.962-.35-.695-1.1.738-2.074,1.535-4.127,2.148-6.244.1-.355.295-.708-.25-.884-.265-.085-.25-.314-.155-.513.137-.286.081-.737.563-.754a2.42,2.42,0,0,0,.991-.245,1.073,1.073,0,0,1,1.147.248c.306.23.081.557-.013.823-.483,1.361-.983,2.716-1.476,4.074Z" transform="translate(-451.533 -465.97)" fill="#ededed"/>
      <path id="Path_17106" data-name="Path 17106" d="M453.641,439.931a1.421,1.421,0,0,1-.105,1c-.286.725-.559,1.457-.835,2.186-.144.381-.5.791.208,1.022.192.063.112.327.132.5.034.291.175.493.48.469s.428-.239.449-.522a1.534,1.534,0,0,0-.461-1.113,1.292,1.292,0,0,1-.138-1.651,1.127,1.127,0,0,1,2.036.447c.037.2.08.446-.153.548a.412.412,0,0,1-.564-.249c-.125-.277-.3-.546-.608-.335-.343.235-.106.538.078.768a2.216,2.216,0,0,1,.58,1.639,1.353,1.353,0,0,1-1.11,1.3,1.312,1.312,0,0,1-1.372-1.007c-.027-.085-.046-.174-.075-.288-.341.09-.232.486-.478.628.651-1.791,1.3-3.57,1.947-5.35Z" transform="translate(-443.478 -439.401)" fill="#ededed"/>
      <path id="Path_17107" data-name="Path 17107" d="M482.554,455.94q.293-.807.587-1.614c.085-.231.2-.426.5-.335s.317.293.24.547-.13.488-.208.728a.439.439,0,0,0,.328.631c.313.1.475-.027.571-.311.081-.239.172-.475.264-.71.082-.211.207-.362.467-.281a.355.355,0,0,1,.258.481,36.338,36.338,0,0,1-1.181,3.594.361.361,0,0,1-.483.263.4.4,0,0,1-.275-.543c.1-.376.223-.747.35-1.116a.4.4,0,0,0-.29-.579.389.389,0,0,0-.58.28c-.107.327-.219.652-.323.981-.083.263-.194.484-.53.377s-.324-.339-.225-.608q.32-.872.635-1.746Z" transform="translate(-462.597 -448.275)" fill="#ededed"/>
      <path id="Path_17108" data-name="Path 17108" d="M461.295,448.035a3.735,3.735,0,0,1,.535-1.081,1.123,1.123,0,0,1,1.2-.489,1.033,1.033,0,0,1,.855.965,4.6,4.6,0,0,1-.927,3.233,1.061,1.061,0,0,1-1.3.329,1.039,1.039,0,0,1-.729-1.056A4.685,4.685,0,0,1,461.295,448.035Zm1.543,1.13a4.355,4.355,0,0,0,.308-1.26c.008-.265,0-.53-.313-.6a.488.488,0,0,0-.542.335,5.579,5.579,0,0,0-.61,1.883c-.028.279-.068.6.269.694.37.106.515-.2.64-.48C462.673,449.544,462.754,449.354,462.837,449.165Z" transform="translate(-449.302 -443.518)" fill="#ededed"/>
      <path id="Path_17109" data-name="Path 17109" d="M471.165,451.507c-.157.431-.3.867-.473,1.291a1.265,1.265,0,0,1-1.431.806,1.354,1.354,0,0,1-.963-1.278,4.847,4.847,0,0,1,.438-1.58c.166-.524.349-1.043.526-1.564.084-.249.174-.5.522-.387s.295.359.215.615c-.261.831-.525,1.661-.784,2.493-.1.307-.245.667.181.821.458.166.593-.211.705-.546.261-.782.505-1.57.771-2.351.087-.256.179-.563.565-.434.371.123.3.41.212.681-.164.477-.342.948-.514,1.422Z" transform="translate(-453.961 -444.99)" fill="#ededed"/>
      <path id="Path_17110" data-name="Path 17110" d="M478.925,451.8c.172.063.348.119.516.19.205.088.459.141.389.465-.063.291-.252.347-.516.3-.359-.066-.406.226-.487.455-.283.8-.556,1.6-.834,2.4-.094.27-.113.656-.557.5-.414-.147-.26-.484-.17-.757.265-.806.549-1.605.828-2.406.095-.271.187-.532-.158-.706-.242-.121-.344-.309-.2-.561.156-.274.391-.165.607-.094C478.54,451.654,478.732,451.73,478.925,451.8Z" transform="translate(-459.561 -446.721)" fill="#ededed"/>
    </g>
    <circle id="Ellipse_3165" data-name="Ellipse 3165" cx="9.757" cy="9.757" r="9.757" transform="matrix(0.875, -0.485, 0.485, 0.875, 593.468, 422.345)" fill="#f9f9f9"/>
    <g id="Group_33275" data-name="Group 33275" transform="translate(216.791 160.671)">
      <g id="Group_33274" data-name="Group 33274" transform="translate(0 0)" clip-path="url(#clip-path-2)">
        <circle id="Ellipse_3166" data-name="Ellipse 3166" cx="42.2" cy="42.2" r="42.2" transform="translate(220.826 -10.326)" fill="#fff"/>
      </g>
    </g>
    <g id="Group_33276" data-name="Group 33276" transform="translate(493.336 148.146)">
      <path id="Path_17112" data-name="Path 17112" d="M1179.552,305.472c-1.534,2.187,1.862,4.575,3.4,2.384S1181.088,303.281,1179.552,305.472Z" transform="matrix(0.875, -0.485, 0.485, 0.875, -1131.768, 492.989)" fill="#f6f6f6"/>
      <path id="Path_17114" data-name="Path 17114" d="M1218.862,489.047c-1.534,2.187,1.862,4.575,3.4,2.384S1220.4,486.856,1218.862,489.047Z" transform="translate(-1168.036 -397.734)" fill="#f6f6f6"/>
      <path id="Path_17115" data-name="Path 17115" d="M1081.875,447.831c-1.534,2.187,1.862,4.575,3.4,2.384S1083.411,445.64,1081.875,447.831Z" transform="translate(-1081.486 -371.694)" fill="#f6f6f6"/>
      <path id="Path_17135" data-name="Path 17135" d="M1285.484,243.4c-1.534,2.187,1.862,4.575,3.4,2.385S1287.021,241.209,1285.484,243.4Z" transform="matrix(0.875, -0.485, 0.485, 0.875, -1260.292, 460.736)" fill="#f6f6f6"/>
    </g>
    <g id="Group_33277" data-name="Group 33277" transform="translate(289.82 214.546)">
      <path id="Path_17116" data-name="Path 17116" d="M692,423.008c-2.516.9-1.121,4.811,1.4,3.909S694.522,422.106,692,423.008Z" transform="translate(-631.052 -422.874)" fill="#ededed"/>
      <path id="Path_17117" data-name="Path 17117" d="M814.334,433.472c-2.515.9-1.12,4.811,1.4,3.909S816.853,432.57,814.334,433.472Z" transform="translate(-708.342 -429.485)" fill="#ededed"/>
      <path id="Path_17118" data-name="Path 17118" d="M618.133,595.6c-2.515.9-1.12,4.811,1.4,3.909S620.652,594.7,618.133,595.6Z" transform="translate(-584.38 -531.921)" fill="#ededed"/>
      <path id="Path_17119" data-name="Path 17119" d="M530.065,482.871c-2.515.9-1.12,4.811,1.4,3.909S532.585,481.969,530.065,482.871Z" transform="translate(-528.738 -460.696)" fill="#ededed"/>
    </g>
    <g id="Group_33278" data-name="Group 33278" transform="translate(239.53 196.248)">
      <path id="Path_17120" data-name="Path 17120" d="M398.786,484.108c-.13,2.668,4.017,2.876,4.147.2S398.917,481.435,398.786,484.108Z" transform="translate(-396.341 -442.061)" fill="#ededed"/>
      <path id="Path_17121" data-name="Path 17121" d="M455.246,375.081c-.13,2.669,4.016,2.876,4.147.2S455.376,372.408,455.246,375.081Z" transform="translate(-432.013 -373.176)" fill="#ededed"/>
      <path id="Path_17122" data-name="Path 17122" d="M530,618.377c-.13,2.668,4.016,2.875,4.147.2S530.13,615.7,530,618.377Z" transform="translate(-479.244 -526.893)" fill="#ededed"/>
      <path id="Path_17123" data-name="Path 17123" d="M392.155,656.627c-.13,2.668,4.017,2.875,4.147.2S392.286,653.954,392.155,656.627Z" transform="translate(-392.152 -551.06)" fill="#ededed"/>
    </g>
    <ellipse id="Ellipse_3167" data-name="Ellipse 3167" cx="3.255" cy="1.557" rx="3.255" ry="1.557" transform="translate(292.031 271.479) rotate(-32.357)" fill="#919191"/>
    <ellipse id="Ellipse_3168" data-name="Ellipse 3168" cx="1.698" cy="0.991" rx="1.698" ry="0.991" transform="matrix(0.989, -0.15, 0.15, 0.989, 338.654, 258.722)" fill="#919191"/>
    <ellipse id="Ellipse_3169" data-name="Ellipse 3169" cx="1.415" cy="0.708" rx="1.415" ry="0.708" transform="translate(385.207 231.846)" fill="#919191"/>
    <ellipse id="Ellipse_3170" data-name="Ellipse 3170" cx="1.982" cy="2.972" rx="1.982" ry="2.972" transform="translate(390.177 235.98) rotate(-65.907)" fill="#919191"/>
    <circle id="Ellipse_3171" data-name="Ellipse 3171" cx="25.632" cy="25.632" r="25.632" transform="translate(556.485 246.967)" fill="none" stroke="#f9f9f9" stroke-miterlimit="10" stroke-width="2"/>
    <g id="Group_33279" data-name="Group 33279" transform="translate(193.624 396.644)">
      <path id="Path_17124" data-name="Path 17124" d="M478.536,933.478c-2.566-.743-3.725,3.244-1.155,3.988S481.106,934.222,478.536,933.478Z" transform="translate(-399.183 -927.519)" fill="#f6f6f6"/>
      <path id="Path_17125" data-name="Path 17125" d="M629.051,917.543c-2.566-.743-3.725,3.244-1.155,3.988S631.622,918.287,629.051,917.543Z" transform="translate(-494.28 -917.451)" fill="#f6f6f6"/>
      <path id="Path_17126" data-name="Path 17126" d="M314.3,947.292c-2.566-.743-3.725,3.244-1.155,3.988S316.871,948.036,314.3,947.292Z" transform="translate(-295.417 -936.247)" fill="#f6f6f6"/>
      <path id="Path_17127" data-name="Path 17127" d="M270.071,965.625c-2.566-.743-3.725,3.244-1.155,3.988S272.641,966.369,270.071,965.625Z" transform="translate(-267.472 -947.83)" fill="#f6f6f6"/>
    </g>
    <circle id="Ellipse_3172" data-name="Ellipse 3172" cx="13.991" cy="13.991" r="13.991" transform="translate(583.363 278.999)" fill="#fff"/>
    <g id="Group_33284" data-name="Group 33284" transform="translate(507.073 199.883)">
      <g id="Group_33280" data-name="Group 33280" transform="translate(19.822 0)">
        <ellipse id="Ellipse_3173" data-name="Ellipse 3173" cx="3.713" cy="3.387" rx="3.713" ry="3.387" transform="translate(4.178 6.155) rotate(-6.405)"/>
        <ellipse id="Ellipse_3174" data-name="Ellipse 3174" cx="3.152" cy="3.742" rx="3.152" ry="3.742" transform="translate(0 6.295) rotate(-87.028)"/>
      </g>
      <g id="Group_33283" data-name="Group 33283" transform="translate(0 2.176)">
        <g id="Group_33281" data-name="Group 33281" transform="translate(8.165 30.116)">
          <ellipse id="Ellipse_3175" data-name="Ellipse 3175" cx="7.041" cy="6.017" rx="7.041" ry="6.017" transform="translate(0 1.571) rotate(-6.403)" fill="#6c6c6c"/>
          <ellipse id="Ellipse_3176" data-name="Ellipse 3176" cx="7.041" cy="6.017" rx="7.041" ry="6.017" transform="translate(0 1.571) rotate(-6.403)" fill="#6c6c6c"/>
          <ellipse id="Ellipse_3177" data-name="Ellipse 3177" cx="5.558" cy="4.904" rx="5.558" ry="4.904" transform="translate(1.638 2.392) rotate(-6.403)" fill="#fff"/>
        </g>
        <path id="Path_17128" data-name="Path 17128" d="M1158.958,435.755c-.37-3.3-3.8-5.628-7.668-5.194a7.57,7.57,0,0,0-5.063,2.667l14.2-27.334,5.327.034,1.683,1.9-8.454,28.755A5.2,5.2,0,0,0,1158.958,435.755Z" transform="translate(-1136.128 -399.66)"/>
        <path id="Path_17129" data-name="Path 17129" d="M1136.822,416.244c.089-3.092-3.013-5.711-6.929-5.851a7.933,7.933,0,0,0-5.422,1.75l17.969-23.183,5.31.774,1.415,1.986-12.433,25.292A4.461,4.461,0,0,0,1136.822,416.244Z" transform="translate(-1122.381 -388.96)"/>
        <path id="Path_17130" data-name="Path 17130" d="M1170.833,397.092h0l-12.121,25.643h0a.351.351,0,0,1-.208-.481l11.682-25.1A.375.375,0,0,1,1170.833,397.092Z" transform="translate(-1143.863 -393.997)" fill="#909090"/>
        <g id="Group_33282" data-name="Group 33282" transform="translate(0 21.107)">
          <ellipse id="Ellipse_3178" data-name="Ellipse 3178" cx="5.6" cy="7.096" rx="5.6" ry="7.096" transform="translate(0 11.188) rotate(-87.33)" fill="#6c6c6c"/>
          <ellipse id="Ellipse_3179" data-name="Ellipse 3179" cx="4.564" cy="5.601" rx="4.564" ry="5.601" transform="translate(1.589 10.105) rotate(-87.206)" fill="#fff"/>
        </g>
        <path id="Path_17131" data-name="Path 17131" d="M1165.279,481.869a2.825,2.825,0,0,0-.321-1.747,3.682,3.682,0,0,0-1.239-1.344,4.033,4.033,0,0,0-1.7-.627,3.553,3.553,0,0,0-1.755.2,10.3,10.3,0,0,1,1.623.387,6.2,6.2,0,0,1,1.413.68,5.081,5.081,0,0,1,1.156,1.03A5.354,5.354,0,0,1,1165.279,481.869Z" transform="translate(-1144.994 -445.292)" fill="#b6b6b6"/>
        <path id="Path_17132" data-name="Path 17132" d="M1143.132,456.738a2.454,2.454,0,0,0-.1-1.676,3.424,3.424,0,0,0-1.052-1.37,3.956,3.956,0,0,0-1.536-.74,3.5,3.5,0,0,0-1.663-.007,13.619,13.619,0,0,1,1.465.578,6.687,6.687,0,0,1,1.258.772,4.835,4.835,0,0,1,1,1.048A4.459,4.459,0,0,1,1143.132,456.738Z" transform="translate(-1131.421 -429.325)" fill="#b6b6b6"/>
      </g>
    </g>
    <g id="Group_33285" data-name="Group 33285" transform="translate(247.858 261.911)">
      <path id="Path_17133" data-name="Path 17133" d="M618.626,566.271c-15.651,3.946-29.037,16.612-30.034,33.309a31.192,31.192,0,0,0,1.656,12.211c1.3,3.667,3.328,7.492,6.462,9.908,2.782,2.145,6.9,2.9,9.855.624.415-.32,1.166-.88,1.219-1.455a2.7,2.7,0,0,0-1.012-1.775,4.568,4.568,0,0,0-4.269-.831,9.719,9.719,0,0,0-4.339,3.457c-1.475,1.8-2.886,3.662-4.267,5.538-2.877,3.911-5.586,7.943-8.236,12.011-5.208,8-10.186,16.162-15.8,23.889a112.2,112.2,0,0,1-17.42,19.423,64.906,64.906,0,0,1-23.522,13.084,98.954,98.954,0,0,1-28.413,3.728,129.332,129.332,0,0,1-65.7-17.841c-3.988-2.349-8.123-4.809-11.393-8.125-6.081-6.166-8-15.468-7.457-23.866.505-7.81,3.362-15.761,9.031-21.313a17.624,17.624,0,0,1,4.685-3.5c1.564-.728,4.575-1.32,5.176.987.444,1.7-1.306,3.392-2.8,3.828-1.973.577-3.923-.778-5.19-2.169-2.543-2.794-4.131-6.731-5.382-10.247A51.493,51.493,0,0,1,418.9,606.23c-1.831-14.781,2.428-30.439,12.039-41.9,4.821-5.747,11.562-11.443,19.439-11.7a10.27,10.27,0,0,1,9.225,4.516,11.793,11.793,0,0,1,1.436,8.775,7.809,7.809,0,0,1-5.278,6.046.553.553,0,0,0,.294,1.065c4.966-1.439,6.907-6.865,6.232-11.61a11.326,11.326,0,0,0-11.486-9.9c-6.655.026-12.751,3.986-17.35,8.48a52.145,52.145,0,0,0-10.978,15.823,56.887,56.887,0,0,0-3.315,37.542,50.306,50.306,0,0,0,3.287,8.946c1.347,2.807,2.965,6,5.756,7.621a5.142,5.142,0,0,0,7.1-1.507A3.392,3.392,0,0,0,432.815,623c-3.13-.313-6.044,2.067-8.18,4.065a28.751,28.751,0,0,0-5.921,7.976,38.213,38.213,0,0,0-3.871,19.468c.433,7.287,2.739,14.725,8.044,19.953a52.43,52.43,0,0,0,9.705,7.052q5.109,3.116,10.5,5.741a131.491,131.491,0,0,0,45.467,12.7,125.822,125.822,0,0,0,24.1-.063,79.1,79.1,0,0,0,23.993-5.9c13.862-6.093,24.628-17.333,33.478-29.338,10.042-13.623,17.964-28.726,28.619-41.91,1.092-1.351,2.328-2.879,4.05-3.418,1.473-.461,3.452.062,3.9,1.688l.142-.538a6.162,6.162,0,0,1-6.731,1.817c-2.6-.8-4.573-2.957-6.021-5.164a28.456,28.456,0,0,1-4.451-15.284c-.108-10.8,5.347-20.72,13.871-27.182a42.825,42.825,0,0,1,15.409-7.328.553.553,0,0,0-.294-1.065Z" transform="translate(-414.771 -551.517)"/>
    </g>
    <g id="Group_33286" data-name="Group 33286" transform="translate(524.854 170.228)">
      <path id="Path_17134" data-name="Path 17134" d="M1170.989,338.9c-.366-2.467-2.83-4.209-2.795-6.757.036-2.663,2.471-4.647,4.736-5.566,2.7-1.095,5.626-1.439,8.308-2.594a21.29,21.29,0,0,0,6.571-4.462,28.1,28.1,0,0,0,4.668-6.707c1.338-2.453,2.8-4.772,5.178-6.337a18.324,18.324,0,0,1,7.554-2.646,17.28,17.28,0,0,1,7.963.524,9.682,9.682,0,0,1,5.561,4.956,18.8,18.8,0,0,1,1.691,7.4c.164,3.178-.08,6.369.243,9.54a21.616,21.616,0,0,0,.95,4.569c.468,1.429,1.042,2.824,1.411,4.284a8.475,8.475,0,0,1,.155,4.027,7.984,7.984,0,0,1-1.542,3.139,8.59,8.59,0,0,1-6.148,3.261,9.923,9.923,0,0,1-6.858-2.416,10.483,10.483,0,0,1-2.377-2.9c-.644-1.16-1.119-2.4-1.765-3.563a7.922,7.922,0,0,0-2.524-2.845,7.8,7.8,0,0,0-3.4-1.148,19.823,19.823,0,0,0-7.563,1.015,10.764,10.764,0,0,0-3.642,1.548,6.764,6.764,0,0,0-2.141,3.151,19.089,19.089,0,0,1-1.485,3.579,7.857,7.857,0,0,1-2.679,2.55,7.729,7.729,0,0,1-3.467,1.05c-.707.039-.711,1.144,0,1.1a9.068,9.068,0,0,0,6.67-3.535,12.293,12.293,0,0,0,1.714-3.581,6.82,6.82,0,0,1,2-3.408,10.592,10.592,0,0,1,3.719-1.5,26.571,26.571,0,0,1,3.929-.829c2.538-.3,5.251-.006,7,2.056a15.629,15.629,0,0,1,1.99,3.56,14.056,14.056,0,0,0,2.112,3.378,11.418,11.418,0,0,0,6.592,3.708,9.525,9.525,0,0,0,7.195-1.66,9.388,9.388,0,0,0,3.858-6.114c.442-3.073-1-5.89-1.87-8.749-.962-3.165-.921-6.477-.918-9.752,0-5.255-.316-11.573-4.8-15.139a13.034,13.034,0,0,0-7.623-2.565,22.837,22.837,0,0,0-8.267,1.177,14.72,14.72,0,0,0-6.843,4.556c-1.834,2.284-2.92,5.029-4.536,7.454A20.262,20.262,0,0,1,1180,323.3a42.178,42.178,0,0,1-4.355,1.264c-2.79.729-5.549,1.725-7.323,4.13a5.985,5.985,0,0,0-1.237,3.583,7.067,7.067,0,0,0,1.26,3.534,9.242,9.242,0,0,1,1.575,3.383c.1.7,1.168.4,1.065-.294Z" transform="translate(-1167.089 -302.505)"/>
    </g>
  </g>
</svg>
