<svg xmlns="http://www.w3.org/2000/svg" xmlns:xlink="http://www.w3.org/1999/xlink" width="470.042" height="364" viewBox="0 0 470.042 364">
  <defs>
    <clipPath id="clip-path">
      <path id="Path_17333" data-name="Path 17333" d="M361.189,439.361c-85.827-.894-93.853-1.4-108.877-5.176-28.273-7.1-64.118-16.1-75.2-41.927-10.888-25.383,8.231-52.82,15.968-63.925C225.232,282.2,294.668,253.564,355.092,262.6c37.949,5.673,32.924,20.309,87.682,32.868,53.822,12.345,77.439,2.509,99.876,22,19.785,17.186,28.034,47.952,15.969,62.631-9.95,12.105-27.217,5.364-55.745,20.7-18.9,10.165-19.263,17.395-33.389,26.916C451.269,439.992,433.846,440.117,361.189,439.361Z" transform="translate(-173.842 -260.935)" fill="none"/>
    </clipPath>
  </defs>
  <g id="Group_33367" data-name="Group 33367" transform="translate(-171.545 -152.934)">
    <g id="Group_33410" data-name="Group 33410" transform="translate(172.48 152.934)">
      <g id="Group_33409" data-name="Group 33409" transform="translate(0 0)">
        <g id="Group_33408" data-name="Group 33408">
          <g id="Group_33369" data-name="Group 33369" transform="translate(0 43.967)">
            <path id="Path_17331" data-name="Path 17331" d="M361.189,440.361c-85.827-.894-93.853-1.4-108.877-5.176-28.273-7.1-64.118-16.1-75.2-41.927-10.888-25.383,8.231-52.82,15.968-63.925C225.232,283.2,294.668,254.564,355.092,263.6c37.949,5.673,32.924,20.309,87.682,32.868,53.822,12.345,77.439,2.509,99.876,22,19.785,17.186,28.034,47.952,15.969,62.631-9.95,12.105-27.217,5.364-55.745,20.7-18.9,10.165-19.263,17.395-33.389,26.916C451.269,440.992,433.846,441.117,361.189,440.361Z" transform="translate(-173.842 -261.528)" fill="#f9f9f9"/>
            <path id="Path_17332" data-name="Path 17332" d="M995.194,454.587c5.661,2.923,12.692,6.994,18.736,3.231-6.259-6.466-15.815-4.8-24.225-5.773A53.271,53.271,0,0,1,995.194,454.587Z" transform="translate(-657.568 -374.244)" fill="#fff"/>
            <g id="Group_33368" data-name="Group 33368">
              <g id="Group_33367-2" data-name="Group 33367" clip-path="url(#clip-path)">
                <circle id="Ellipse_3212" data-name="Ellipse 3212" cx="65.777" cy="65.777" r="65.777" transform="translate(132.246 -21.98)" fill="#fff"/>
              </g>
            </g>
            <path id="Path_17334" data-name="Path 17334" d="M309.608,298.472c6.109,1.627,11.831,4.426,18.166,5.2a28.048,28.048,0,0,0,16.1-2.664c5.576-2.791,9.827-7.3,14.976-10.707,9.378-6.214,20.512-9.035,31.664-9.493,23.632-.972,46.943,7.224,68.732,15.449,12.511,4.723,24.814,9.906,38.213,11.521,7.377.889,15.223,1.149,22.507-.526,6.471-1.488,12.431-4.407,18.343-7.344l.451-.225c-6.8-1.026-14.172-2.375-22.227-4.222-54.758-12.56-49.734-27.2-87.682-32.868-44.893-6.711-94.756,7.373-130.609,33.976A58.023,58.023,0,0,1,309.608,298.472Z" transform="translate(-247.596 -260.935)" fill="#fff"/>
            <path id="Path_17335" data-name="Path 17335" d="M258.451,363.151c8.212,1.426,16.526,2.128,24.828,2.8,6.974.561,13.67,2.752,20.559,3.875a28.358,28.358,0,0,0,9.552.342A37.757,37.757,0,0,0,322.221,367c5.755-2.673,11.431-5.464,17.849-6.03,7.6-.67,15.127,1.275,22.132,4.042,6.94,2.742,13.681,6.417,20.886,8.419,5.506,1.53,10-.026,15.063-2.245,7.317-3.21,14.531-6.689,22.2-9a113.748,113.748,0,0,1,23.127-4.034,84.682,84.682,0,0,1,22.2.927,61.016,61.016,0,0,1,20.737,7.747c5.708,3.468,11.407,6.954,17.73,9.207,11.99,4.274,24.463,2.934,36.818,1.282,17.534-2.346,39.051-5.378,55.8,2.307a65.7,65.7,0,0,0-18.455-27.434c-17.858-15.512-36.463-12.447-70.449-16.774-4.694,2.215-9.271,4.681-14.034,6.75a56.191,56.191,0,0,1-18.858,4.868,89.731,89.731,0,0,1-22.538-1.517c-12.6-2.388-24.343-7.644-36.3-12.078-21.593-8-45.112-15.916-68.471-13.487a55.926,55.926,0,0,0-30.7,13.123c-4.494,3.758-9.522,6.988-15.219,8.555a34.385,34.385,0,0,1-16.351.14c-6.179-1.324-11.906-4.087-18.1-5.4a47.473,47.473,0,0,0-12.344-1.053,140.655,140.655,0,0,0-20.957,20.78A116.816,116.816,0,0,0,258.451,363.151Z" transform="translate(-209.501 -295.66)" fill="#fff"/>
            <path id="Path_17336" data-name="Path 17336" d="M209.9,519.264c8.352.378,16.545,2.784,24.893,2.732,18.88-.118,34.52-12.164,48.666-23.322,6.726-5.3,13.411-10.785,21.4-14.1,7.381-3.06,15.423-3.79,23.348-3.533,11.324.368,22.809,2.308,34.141,1.018,7.271-.827,13.323-4.488,19.1-8.61a56.793,56.793,0,0,0-10.077,2.735c-4.888,1.632-9.965,3.545-15.176,3.718a29.1,29.1,0,0,1-13.856-3.341c-3.922-1.956-7.493-4.288-11.787-5.392-13.754-3.535-27.716,3.683-39.791,9.434-12.951,6.169-27.031,13.223-41.821,11.347-4.493-.57-8.727-2.114-13.04-3.43a128.151,128.151,0,0,0-13.821-3.581,58.784,58.784,0,0,0-25.891.778,61.094,61.094,0,0,0-19.261,8.808c-1.006.707-2.005,1.475-2.966,2.3a41.682,41.682,0,0,0,3.158,19.524,41.21,41.21,0,0,0,4.465,7.868,45.935,45.935,0,0,1,7.394-2.816A65.569,65.569,0,0,1,209.9,519.264Z" transform="translate(-173.846 -385.031)" fill="#fff"/>
            <path id="Path_17337" data-name="Path 17337" d="M223.5,616.348c5.019-12.157,17.846-20.914,31.2-27.224l50.444-23.836a36.5,36.5,0,0,1,26.041-.884c10.356,3.6,24.817,7.975,34.872,8.352,12.4.466,26.668-5.267,33.76-8.556a17.174,17.174,0,0,1,9.99-1.3l29.131,4.892a36,36,0,0,0,16.879-1.194l20.511-6.59c29.563-9.5,62.571-7.8,90.539,4.644l13.192,5.872c20.551,9.147,35.83,24.943,42.048,43.764,4.494,13.606.4,26.065-1.307,36.434C610.176,715.206,160.929,767.916,223.5,616.348Z" transform="translate(-199.741 -434.654)" fill="#eee"/>
            <path id="Path_17338" data-name="Path 17338" d="M429.841,566.241c9.22.1,18.442,1.969,26.146,6.336,10.163,5.76,17.552,13.687,25.667,21.244,6.808-2.984,51.578-24.875,56.531-26.173a15.994,15.994,0,0,1,8.809-.008c3.379,1.052,6.3,2.96,9.29,4.6a75.482,75.482,0,0,0,14.286,6.336,48.778,48.778,0,0,0,28.609,0c9.224-2.858,16.719-8.429,24.888-12.854a58.22,58.22,0,0,1,22.863-7.145,221.494,221.494,0,0,1,25.22-.388l1.043.028a129.459,129.459,0,0,0-72.189,1.8l-20.511,6.59a36,36,0,0,1-16.879,1.194l-29.131-4.892a17.174,17.174,0,0,0-9.99,1.3c-7.092,3.289-21.357,9.022-33.76,8.556-10.055-.378-24.516-4.752-34.872-8.352a36.5,36.5,0,0,0-26.041.884l-2.013.951Q428.823,566.232,429.841,566.241Z" transform="translate(-324.417 -434.659)" fill="#f3f3f3"/>
            <path id="Path_17339" data-name="Path 17339" d="M320.944,645.03a88.27,88.27,0,0,1,12.007,1.254,102.881,102.881,0,0,1,12.922,3.467c16.225,5.119,32.792,9.344,48.945,14.645,3.723,1.222,7.378,2.588,11.089,3.833a37.184,37.184,0,0,0,8.978,2.085c6.348.475,12.564-1.588,18.029-4.283,10.688-5.27,19.866-12.65,29.965-18.711l.4-.236c-5.05,1.564-10.072,3.208-15.119,4.7a125.886,125.886,0,0,1-20.61,4.607,60.094,60.094,0,0,1-18.988-.871c-12.355-2.495-23.477-8.168-34.911-12.782a94.7,94.7,0,0,0-18.321-5.71,102.426,102.426,0,0,0-22.8-1.207c-6.32.273-27.767,6.4-31.684,9.406C307.542,645.071,314.246,644.765,320.944,645.03Z" transform="translate(-249.14 -483.118)" fill="#f3f3f3"/>
            <path id="Path_17340" data-name="Path 17340" d="M292.381,848.116c46.927,27.119,121.35,36.895,146.585,34.416,29.658-2.913,228.546,58.33,253.1-48.74.355-1.548-1.21-8.356-20.759-16.031-48.323-18.971-186.164-17.751-258.151-10.609-8.846.878-19.571,1.785-32.848-.815-18.31-3.585-21.172-9.865-34.849-11.532-20.01-2.438-76.78,13.87-78.845,25.842C264.644,832.087,283.908,843.22,292.381,848.116Z" transform="translate(-228.765 -577.323)" fill="#f7f7f7"/>
            <path id="Path_17341" data-name="Path 17341" d="M456.471,850.762c-25.054-10.752-40.2-3.469-76.723-3.41-19.574.032-36.528-2.026-63.367,2.842-8.183,1.484-13.814,2.982-13.924,5.115-.248,4.831,27.966,10.405,44.613,12.787,57.791,8.268,118.562-1.574,118.778-10.8C465.864,856.614,465.577,854.67,456.471,850.762Z" transform="translate(-250.097 -607.161)" fill="#24c1a1"/>
          </g>
          <g id="Group_33407" data-name="Group 33407" transform="translate(9.565)">
            <path id="Path_17342" data-name="Path 17342" d="M1063.935,664.594s22.855,4.775,32.747,13.644,4.776,26.607,4.776,26.607,16.715,10.234,16.715,22.855a35.31,35.31,0,0,1-7.846,21.49s-35.483,26.847-61.063,22.8-48.64,2.518-65.081-6.9-5.867-48.308-.409-59.223,3.1-8.552,6.326-20.649S1063.935,664.594,1063.935,664.594Z" transform="translate(-658.63 -456.298)" fill="#dadada"/>
            <path id="Path_17343" data-name="Path 17343" d="M979.515,762.676a20.091,20.091,0,0,1-2.138-11.926,37.63,37.63,0,0,1,11.29-22.488,13.458,13.458,0,0,1-3.54-4.088c-.98-2.145-.292-4.619.239-6.792,1.508-6.169,6.511-10.768,9.763-16.027a54.563,54.563,0,0,1,11.1-13.059c4.174-3.487,8.841-5.563,13.808-7.64,9.717-4.064,19.323-8.462,29.473-11.373.952-.273,1.922-.539,2.905-.792-20.155,3-59.911,10.031-62.313,19.038-3.225,12.1-.868,9.734-6.326,20.649-5.063,10.125-14.524,44.313-2.746,56.73A16.789,16.789,0,0,1,979.515,762.676Z" transform="translate(-658.635 -458.609)" fill="#e5e5e5"/>
            <path id="Path_17344" data-name="Path 17344" d="M1108.17,455.158l4.257-.856-4.193-.843-.944-6.581-.956,6.666-4.181.757,4.246.769.891,6.654Z" transform="translate(-733.804 -327.214)" fill="#ededed"/>
            <g id="Group_33370" data-name="Group 33370" transform="translate(417.473 167.98)">
              <path id="Path_17345" data-name="Path 17345" d="M1222.82,565.56Z" transform="translate(-1222.82 -565.56)" fill="#cbd4e4"/>
            </g>
            <ellipse id="Ellipse_3213" data-name="Ellipse 3213" cx="9.172" cy="2.965" rx="9.172" ry="2.965" transform="matrix(0.947, -0.32, 0.32, 0.947, 353.351, 120.11)" fill="#d9d9d9"/>
            <g id="Group_33371" data-name="Group 33371" transform="translate(348.118 88.476)">
              <path id="Path_17346" data-name="Path 17346" d="M1065.479,390.023l-6.644-1.487s-4.089.278-4.663-2.5-1.981-3.865-1.672-8.1.854-3.348,3.855-4.774,9.372-5.339,15.3-.679,3.773,8.245,3.736,8.828.128,4.04-.022,5.369.074,2.226-1.225,3.716-9.36,1.4-7.78,1.291C1068.517,391.538,1065.479,390.023,1065.479,390.023Z" transform="translate(-1052.457 -370.267)"/>
              <path id="Path_17347" data-name="Path 17347" d="M1053.656,376.728s1.756,12.785,2.469,16.236,5.758,5.972,4.9,5c-.711-.8-.978,24.329-.978,24.329l17.009-22.278-5.4-11.705.8-1.932s.929-.491,1.544-.9a3.926,3.926,0,0,0,.845-3.611c-.454-1.22-1.51-2.642-2.6-2.014s-1.13-1.121-1.13-1.121a16.511,16.511,0,0,0-3.843-3.959c-.04-.027.007-.1.011-.125.049-.3.028.574-1.569,1.242a20.383,20.383,0,0,1-7.822,1.168A33.253,33.253,0,0,1,1053.656,376.728Z" transform="translate(-1053.168 -372.83)" fill="#ffac43"/>
            </g>
            <g id="Group_33372" data-name="Group 33372" transform="translate(349.484 98.666)">
              <path id="Path_17348" data-name="Path 17348" d="M1070.083,395.3s-.274-.035-.705.508c-.752,2.018-1,4.356-2.6,5.78a6.653,6.653,0,0,1-1.488.949,8.392,8.392,0,0,1-5.351,1,4.472,4.472,0,0,1-3.41-3.022,3.3,3.3,0,0,0-.676,2.631,9.743,9.743,0,0,0,.9,2.67c.544,1.207,1.46,3.267-.936,4.327,5.631,1.1,7.424-.212,9.754-.875a9.061,9.061,0,0,0,2.366-1.006,7.49,7.49,0,0,0,3-8.03,16.663,16.663,0,0,1-.789-3.076,4.066,4.066,0,0,1,.154-1.353A3.52,3.52,0,0,1,1070.083,395.3Z" transform="translate(-1055.813 -395.297)"/>
              <path id="Path_17349" data-name="Path 17349" d="M1057.305,406.312a3.207,3.207,0,0,0,.106.728c.005-.007.01-.013.015-.02Z" transform="translate(-1056.698 -401.828)"/>
            </g>
            <path id="Path_17350" data-name="Path 17350" d="M1071.92,373.371c-.439-2.139-2.754-3.257-4.808-4a8.326,8.326,0,0,0,2.782-1.8,4.79,4.79,0,0,0-3.582,1.721,4.055,4.055,0,0,0,.675-1.884,2.127,2.127,0,0,0-1.023,1.706c-.359-1.45-1.787-2.069-3.234-2.441a12.531,12.531,0,0,0-4.454-.054l-3.544.381a3.377,3.377,0,0,0-1.9.606,1.168,1.168,0,0,0-.1,1.755l-3.062-.8a2.611,2.611,0,0,0-1.875-.016c-.565.3-.735,1.28-.147,1.535a5.066,5.066,0,0,0-2.7-.141,6.173,6.173,0,0,0,4.244,2.828,1.4,1.4,0,0,1,.18.012c.1.013.2.023.3.031l.1.006c.072,0,.143.008.219.01l.131,0h.213l.145,0,.219-.007.153-.008.231-.015.156-.012.252-.023.147-.015.318-.036.094-.011q.205-.026.415-.056l.16-.024.269-.041.194-.032.24-.041.208-.037.23-.042.214-.04.226-.044.221-.044.217-.044.227-.048.206-.044.232-.05c.389-.125.776-.257,1.159-.393l.055.11c2.256-.55,4.079-1.12,4.079-1.12l.06-.06.018-.017,0,0-.037.039-.04.042c-.08.084-.233.243-.509.527a6.3,6.3,0,0,1-2.055,1.332l-.055.021,2.65,5.615,2.171-.985s1.168,1.755.314,3.149l5.894,10.027c1.367-.4.023.05.855-1.107a5.007,5.007,0,0,0,.484-5.346,2.806,2.806,0,0,0,2.134.454c.713-.227,1.144-1.269.571-1.751a2.735,2.735,0,0,0-.853-.354c-1.516-.57-1.724-2.666-1.272-4.222S1072.245,374.958,1071.92,373.371Z" transform="translate(-699.888 -279.524)"/>
            <path id="Path_17351" data-name="Path 17351" d="M1020.325,466.9c0-5.247-8.182-2.023-13.02.008-3.359,1.41-22.169,44.049-22.169,44.049s4.13,12.217,11.421,12.021,23.8-21.918,23.8-21.918Z" transform="translate(-664.425 -337.396)" fill="#ffac43"/>
            <path id="Path_17352" data-name="Path 17352" d="M1008.634,490.409c2.845,9.116,11.314,13.694,17.881,19.923,4.348-4.863,7.7-9.272,7.7-9.272l-.029-34.16c0-5.247-8.182-2.023-13.02.008-1.714.719-7.446,12.164-12.652,23.206A1.888,1.888,0,0,1,1008.634,490.409Z" transform="translate(-678.285 -337.396)" fill="#eef1f6"/>
            <path id="Path_17353" data-name="Path 17353" d="M1041.569,518.93c3.7-4.244,6.4-7.8,6.4-7.8l-.026-30.074C1027.755,480.21,1027.3,509.311,1041.569,518.93Z" transform="translate(-692.036 -347.469)" fill="#dce2ed"/>
            <path id="Path_17354" data-name="Path 17354" d="M986.971,617.752c-4.917-10.141-27.949,3.061-27.949,3.061l-4.919,4.27s-25.631-21.35-45.686-14.431-25.979,9.509-25.979,9.509-4.9,4.333-2.137,13.216c2.234,7.173,21.7,46,30.821,58.45a49.263,49.263,0,0,1,7.712-4.375c-.835-9.934,1.881-32.1-.69-37.046-.822-1.58-1.468-2.726-1.976-3.552a35.244,35.244,0,0,0,10.231,6.085c11.176,5.5,36.125,8.206,50.258.76C979.62,652.138,996.693,637.8,986.971,617.752Z" transform="translate(-601.766 -423.497)" fill="#f89a3c"/>
            <path id="Path_17355" data-name="Path 17355" d="M1047.843,618.147c-4.917-10.141-27.949,3.061-27.949,3.061l-4.919,4.27s-16.157-13.456-32.852-15.539c2.238,4.631,2.712,10.591,3.112,15.164.757,8.642,1.615,18.216-2.215,26.257a37.072,37.072,0,0,0,4.25,1.974c11.176,5.5,36.125,8.206,50.258.76C1040.492,652.533,1057.566,638.2,1047.843,618.147Z" transform="translate(-662.639 -423.893)" fill="#eef1f6"/>
            <path id="Path_17356" data-name="Path 17356" d="M1049.149,624.522c-4.178-8.616-21.428-.383-26.523,2.288a2.1,2.1,0,0,1-.276.544c-2.18,3.123-4.295,6.29-6.552,9.359-4.842,6.583-10.327,13.766-17.594,17.82-2.957,1.649-6.376,2.672-9.757,1.9a10.18,10.18,0,0,1-3.067-1.272,25.4,25.4,0,0,1-1.052,2.575,37.072,37.072,0,0,0,4.25,1.974c11.176,5.5,36.125,8.206,50.258.76C1041.8,658.908,1058.872,644.575,1049.149,624.522Z" transform="translate(-663.945 -430.268)" fill="#dce2ed"/>
            <path id="Path_17357" data-name="Path 17357" d="M1034.133,438.909a10.653,10.653,0,0,0-7.1,11.795c1.716,10.627,5.428,28.433,12.2,39.042a239.461,239.461,0,0,0,17.961,24.979l31.172-6.28s5.074-78.344-4.536-80.1-32.079,6.589-38.751,7.593A72.712,72.712,0,0,0,1034.133,438.909Z" transform="translate(-689.182 -316.08)" fill="#fff"/>
            <g id="Group_33375" data-name="Group 33375" transform="translate(280.798 275.154)">
              <path id="Path_17358" data-name="Path 17358" d="M917.792,830.53l.682,4.435s-17.274,2.051-23.218,3.664-7.482,5.546-7.482,5.546-.642,13.892-.682,17.055,63.106-5.458,63.106-5.458l-20.126-26.948Z" transform="translate(-887.092 -828.825)" fill="#fff"/>
              <g id="Group_33373" data-name="Group 33373" transform="translate(17.085 3.079)">
                <path id="Path_17359" data-name="Path 17359" d="M937.294,836.512q-4.287,4.885-8.161,10.11c-.272.367.276.821.55.452q3.87-5.221,8.161-10.109c.3-.345-.248-.8-.55-.452Z" transform="translate(-929.059 -836.389)" fill="#b6b6b6"/>
              </g>
              <g id="Group_33374" data-name="Group 33374" transform="translate(16.976 2.854)">
                <path id="Path_17360" data-name="Path 17360" d="M928.932,836.454a55.485,55.485,0,0,1,8.786,7.622q1.148,1.23,2.216,2.533c.29.352.874-.056.582-.41a56.045,56.045,0,0,0-8.4-8.262q-1.333-1.058-2.729-2.032c-.373-.261-.828.287-.452.55Z" transform="translate(-928.791 -835.836)" fill="#b6b6b6"/>
              </g>
            </g>
            <path id="Path_17361" data-name="Path 17361" d="M1145.357,451.9c-4.757,8.953-2.579,16-1.118,26.1,1.473,10.18,9.21,25.242,12.636,36.26h0s4.118-60.846-1.638-76.352A72.88,72.88,0,0,0,1145.357,451.9Z" transform="translate(-757.696 -321.897)" fill="#eef1f6"/>
            <path id="Path_17362" data-name="Path 17362" d="M1143.585,466.849c-.484,4.706,3.071,8.906,6.3,11.9a28.935,28.935,0,0,0,8.281,5.606c.393-17.746.089-38.318-2.927-46.443a72.862,72.862,0,0,0-9.88,13.994,24.063,24.063,0,0,0-2.869,13.122A1.624,1.624,0,0,1,1143.585,466.849Z" transform="translate(-757.699 -321.897)" fill="#dce2ed"/>
            <path id="Path_17363" data-name="Path 17363" d="M1079.066,433.225c-3.61,1.22-5.643,5.773-9.21,5.458-.238,7.107-.508,18.331-.508,18.331l16.881-22.425C1085.547,434.249,1080.258,432.822,1079.066,433.225Z" transform="translate(-714.354 -319.077)" fill="#ffac43"/>
            <path id="Path_17364" data-name="Path 17364" d="M1015.744,451.433s7.347,29.141,10.689,36.518,7.91-37.8,7.91-37.8Z" transform="translate(-682.572 -329.156)" fill="#fff"/>
            <g id="Group_33376" data-name="Group 33376" transform="translate(346.844 141.376)">
              <path id="Path_17365" data-name="Path 17365" d="M1059.47,512.873a43.509,43.509,0,0,0,8.688-1.889c.681-.248.964,0,1.3.8,2.693,6.236,2.006,12.437-1.615,16.088a9.4,9.4,0,0,1-4.865,2.152c-.792.162-1.652-.46-2.461-.8-6.2-2.5-11.676-8.037-11.155-14.736.055-.668.264-.931.977-.952,3.088-.1,6.135-.311,9.128-.668Zm-1.076,7.409a7.862,7.862,0,0,1-1.942,2.851c-.15.151-.635.193-.281.576a.886.886,0,0,0,1,.353c2.333-.832,3.58-4.468,2.3-6.953-1.109-2.143-4.11-2.721-5.637-1.111a2.473,2.473,0,0,0-.447,2.737,2.994,2.994,0,0,0,2.287,1.9A3.621,3.621,0,0,0,1058.394,520.282Zm5.15-5.843c-.644.1-1.285.215-1.94.26-.548.036-.668.288-.542.832.227.968.4,1.949.6,2.93s.436,1.085,1.21.591a2.239,2.239,0,0,1,2.407-.162,2.449,2.449,0,0,1,1.116,2.029c.192,1.515-.736,2.284-2.193,1.9a3.828,3.828,0,0,1-.933-.362c-.56-.316-.616.066-.749.4-.173.435.054.644.459.808a5.176,5.176,0,0,0,3.148.347c1.774-.4,2.4-2.124,1.59-4.384a2.968,2.968,0,0,0-3.788-2.121c-.971.283-1-.169-1.176-.91-.168-.716.039-.927.664-.966.77-.049,1.518-.208,2.275-.311.4-.055.553-.221.432-.728-.13-.538-.388-.548-.746-.473C1064.774,514.248,1064.159,514.342,1063.543,514.439Z" transform="translate(-1049.328 -506.543)" fill="#edf0f5"/>
              <path id="Path_17366" data-name="Path 17366" d="M1059.822,505.834c-2.885.362-5.829.546-8.808.675-.888.035-.9.012-.6-.85.065-.182.142-.358.213-.537.969-2.436.991-2.374,3.372-2.2a9.3,9.3,0,0,0,4.94-.868.857.857,0,0,1,.575-.113,7.722,7.722,0,0,0,6.061-1.518.666.666,0,0,1,1.047.086,22.242,22.242,0,0,1,1.917,2.365c.413.557.389.845-.2,1.046a46.81,46.81,0,0,1-8.523,1.917Zm-.289-.633a8.972,8.972,0,0,1-.272-1.651c.01-.289-.327-.415-.6-.4-.218.015-.56-.022-.543.3a4.74,4.74,0,0,0,.355,1.916c.332-.238-.071-.729.3-.821C1059.212,504.434,1059.04,505.2,1059.533,505.2Zm-4.781-.382c-.271-.384-.464-.677-.664-.962-.078-.111-.176-.219-.327-.175-.125.036-.133.155-.125.264.042.576.092,1.152.166,1.867.44-.452.081-.881.319-1.256.239.331.46.639.7.936.164.208.419.33.415-.037a6.01,6.01,0,0,0-.276-1.97C1054.639,503.964,1054.893,504.337,1054.752,504.819Zm8.98-.144a9.029,9.029,0,0,0-.953-2.053c-.13-.243-.387-.26-.426.085a7.284,7.284,0,0,0-.065,2.2C1062.8,503.843,1062.8,503.832,1063.732,504.675Zm-5.936-.313c-.187-.285-.6-.019-.644-.443s.522-.161.551-.571c-.333-.053-.8-.147-.865.189a2.648,2.648,0,0,0,.282,1.9c.2.306.644.148.939-.079-.209-.36-.725.05-.783-.484C1057.231,504.461,1057.68,504.618,1057.8,504.361Zm7.59-2.727c-.337.088-.812-.025-.777.467a3.392,3.392,0,0,0,.6,2.018c.165.19.617.043.828-.283-.251-.368-.607.11-.793-.337-.213-.517.384-.429.4-.748-.208-.286-.563.093-.675-.349S1065.347,502.091,1065.387,501.634Zm-10.229,1.951c1.029.455.423,1.458,1.005,2.035.4-.67-.429-1.56.4-2.105A2.565,2.565,0,0,0,1055.158,503.585Zm4.65,1.509c.438.259.757.188.943-.214a.644.644,0,0,0-.337-.917c-.767-.309-.6-.619.021-.977-.515-.146-.794-.007-.889.4-.092.392.163.621.474.782.185.1.451.125.447.415s-.281.26-.473.321C1059.936,504.924,1059.9,505,1059.808,505.094Zm4.476-.644c.088-.921-.614-1.683.059-2.469a2.531,2.531,0,0,0-1.225.393C1064.043,502.636,1063.636,503.8,1064.284,504.45Zm-3.689-1.521c1,.282.573,1.345,1.087,1.993.255-.8-.613-1.655.337-2.317A3.487,3.487,0,0,0,1060.595,502.929Zm-7.518.865a3.308,3.308,0,0,0,.17,1.9A2.92,2.92,0,0,0,1053.077,503.794Z" transform="translate(-1049.867 -500.21)" fill="#edf0f5"/>
              <path id="Path_17367" data-name="Path 17367" d="M1062.724,525.754a1.353,1.353,0,0,1,1.321-1.792,1.748,1.748,0,0,1,2.041,1.639c.214,1.117-.211,1.686-1.322,1.762A1.839,1.839,0,0,1,1062.724,525.754Z" transform="translate(-1057.246 -514.287)" fill="#edf0f5"/>
            </g>
            <path id="Path_17368" data-name="Path 17368" d="M1095.934,625.764c1.247,4.516.9,9.3.6,13.973s-.5,9.49,1.015,13.925,5.135,8.461,9.781,9.066c3.723.485,7.341-1.231,10.7-2.9l8.291-4.117c6.381-3.169,13.511-7.291,14.767-14.3.579-3.234-.25-6.543-1.2-9.687a19,19,0,0,0-2.128-5.05c-2.689-4.064-7.838-5.695-12.667-6.348a51.834,51.834,0,0,0-30.194,5.111" transform="translate(-729.506 -429.777)" fill="#fff"/>
            <g id="Group_33377" data-name="Group 33377" transform="translate(371.075 203.019)">
              <path id="Path_17369" data-name="Path 17369" d="M1108.85,655.529c.058-.022.116-.042.175-.064l.114-.054Z" transform="translate(-1108.85 -653.872)" fill="#fff"/>
              <path id="Path_17370" data-name="Path 17370" d="M1109.559,653.17l3.786-1.539A34.763,34.763,0,0,0,1109.559,653.17Z" transform="translate(-1109.27 -651.631)" fill="#fff"/>
            </g>
            <path id="Path_17371" data-name="Path 17371" d="M1099.729,632.716a9.4,9.4,0,0,0-6.535-.015,12.987,12.987,0,0,0-3.6,2.642q-1.363,1.276-2.7,2.574a57.885,57.885,0,0,0-19.363,3.739,35,35,0,0,0-4.223,2.4,56.086,56.086,0,0,0-15.117,8.858c-4.759,3.9-9.205,9.1-9.322,15.246-.057,3.038.959,5.981,1.963,8.848,1.673,4.779,4.458,10.425,9.518,10.587,2.517.081,4.812-1.317,6.967-2.62q2.359-1.426,4.764-2.775a50.465,50.465,0,0,0,33.521-6.968c7.6-4.726,14.106-12,15.678-20.809S1108.24,635.473,1099.729,632.716Z" transform="translate(-696.282 -437.043)" fill="#ffac43"/>
            <path id="Path_17372" data-name="Path 17372" d="M1112.146,632.716a9.4,9.4,0,0,0-6.535-.015,12.987,12.987,0,0,0-3.6,2.642q-1.363,1.276-2.7,2.574a57.885,57.885,0,0,0-19.363,3.739,35,35,0,0,0-4.223,2.4,56.086,56.086,0,0,0-15.117,8.858q-.4.329-.8.671a18.575,18.575,0,0,1,2.733-.488c8.975-.923,19.253,3.239,25.554,9.585,2.84,2.859,5.028,6.576,4.748,10.73a19.641,19.641,0,0,1-2.813,8.576,49.805,49.805,0,0,0,17.986-6.756c7.6-4.726,14.106-12,15.678-20.809S1120.657,635.473,1112.146,632.716Z" transform="translate(-708.699 -437.043)" fill="#fff"/>
            <path id="Path_17373" data-name="Path 17373" d="M1073.85,942.1a25.5,25.5,0,0,1,16.339,24.725,3.549,3.549,0,0,1-.421,1.73,3.829,3.829,0,0,1-1.677,1.231,66.292,66.292,0,0,1-11.385,4.635c-9.356,2.517-19.353.818-28.593-2.1a3.54,3.54,0,0,1-1.794-1,3.586,3.586,0,0,1-.581-1.7c-.881-5.467-1.761-11.072-.7-16.506s4.5-10.751,9.757-12.477a23.515,23.515,0,0,1,4.555-.854l13.091-1.571,1.023,3.1" transform="translate(-699.653 -618.533)" fill="#fff"/>
            <path id="Path_17374" data-name="Path 17374" d="M1072.1,1006.888c-8.618,1.072-17.848-1.283-26.005-3.728.172,1.205.364,2.408.556,3.6a3.589,3.589,0,0,0,.581,1.7,3.54,3.54,0,0,0,1.794,1c9.24,2.914,19.237,4.613,28.593,2.1a66.292,66.292,0,0,0,11.385-4.635,3.829,3.829,0,0,0,1.677-1.231,3.554,3.554,0,0,0,.421-1.73,22.728,22.728,0,0,0-.041-3.107C1085.01,1004.749,1079.208,1006,1072.1,1006.888Z" transform="translate(-700.568 -655.666)" fill="#b6b6b6"/>
            <g id="Group_33380" data-name="Group 33380" transform="translate(357.377 320.224)">
              <g id="Group_33378" data-name="Group 33378" transform="translate(0.174 0.24)">
                <path id="Path_17375" data-name="Path 17375" d="M1082.244,940.237c-1.952,3.028-4.143,6.235-6.548,9.629-.255.357.271.776.526.416q3.592-5.088,6.524-9.623c.2-.32-.3-.742-.5-.422Z" transform="translate(-1075.628 -940.123)" fill="#b6b6b6"/>
              </g>
              <g id="Group_33379" data-name="Group 33379">
                <path id="Path_17376" data-name="Path 17376" d="M1075.317,940.123c2.622,2.131,5.337,4.517,8.112,7.1q1.2,1.119,2.411,2.287c.33.315.819-.076.488-.392-2.842-2.722-5.636-5.278-8.336-7.586q-1.167-1-2.313-1.932c-.3-.25-.67.272-.361.523Z" transform="translate(-1075.2 -939.534)" fill="#b6b6b6"/>
              </g>
            </g>
            <path id="Path_17377" data-name="Path 17377" d="M1111.111,593.993s23.63-41.9,29.78-46.121c5.346-3.673,16.708,1.544,20.844.808,3.256-.579,5.042,2.815,3.147,5.975a90.71,90.71,0,0,1-35.555,33.154c-10.108,5.327-21.156,14.273-21.156,14.273s-4.766-3.755-8.778-4.836-8.891,2.568-10.1,4.109-1.386-1.509,1.748-4.034S1108.49,591.51,1111.111,593.993Z" transform="translate(-725.694 -386.308)" fill="#ffac43"/>
            <path id="Path_17378" data-name="Path 17378" d="M1130.155,661.631l-2.564,2.771a.623.623,0,0,1-.809.232c-1.382-.691-5.269-2.649-7.867-4.109-3.207-1.8-4.822-1.676-4.822-1.676s.732-1.31,4.224-.9c1.9.224,4.405.739,6.3,1.161a15.472,15.472,0,0,1,4.963,2.066Z" transform="translate(-740.883 -452.312)" fill="#ffac43"/>
            <path id="Path_17379" data-name="Path 17379" d="M1134.773,428.867c1.988-.217,6.265-3.89,8.7-3.806,7.175.247,12.676,8.03,18.422,15.053,7.1,8.678,28.2,36.181,28.5,37.551.7,3.154-2.388,6.028-5.14,5.339-12.651-3.166-55.943-17.056-56.843-30.365C1127.106,433.268,1132.415,429.125,1134.773,428.867Z" transform="translate(-749.254 -314.278)" fill="#ffac43"/>
            <path id="Path_17380" data-name="Path 17380" d="M888.86,480.108s12.446,28.986,29.48,41.983c16.011,13.355,23.035,7.707,23.035,7.707s-.453-21.336-13.789-28.456c-13.84-6.943-37.78-22.91-37.78-22.91Z" transform="translate(-607.342 -345.922)" fill="#ffac43"/>
            <path id="Path_17381" data-name="Path 17381" d="M880.952,472.645a1.355,1.355,0,0,0,.844-.263c.411-.375.258-1.046.052-1.562a40.921,40.921,0,0,0-3.14-5.916,18.077,18.077,0,0,0-2.054-2.945c-2.251-2.455-5.645-3.466-8.9-4.167a2.685,2.685,0,0,0-2.194.173,2.578,2.578,0,0,0-.772,1.411,27.1,27.1,0,0,0-.571,12.334,1.347,1.347,0,0,0,.309.743,1.2,1.2,0,0,0,.574.267,4.856,4.856,0,0,0,4.281-1.073l-.446-.947a43.874,43.874,0,0,0,7.923,1.4A10.657,10.657,0,0,0,880.952,472.645Z" transform="translate(-592.46 -333.597)" fill="#ffac43"/>
            <path id="Path_17382" data-name="Path 17382" d="M1148.775,463.884a23.168,23.168,0,0,1,4.774-11.81,40.819,40.819,0,0,1,10.13-9.15c-.854-1.07-1.619-2.02-2.266-2.811-5.746-7.023-11.248-14.806-18.422-15.053-2.434-.084-6.712,3.589-8.7,3.806-2.358.258-8.008,4.4-6.7,23.772.412,6.086,9.759,12.292,20.993,17.54A33.951,33.951,0,0,1,1148.775,463.884Z" transform="translate(-748.772 -314.278)" fill="#fff"/>
            <path id="Path_17383" data-name="Path 17383" d="M1120.334,416.691l23.954-12.105s3.991,3.659-21.418,26.273Z" transform="translate(-744.583 -302.139)" fill="#edf0f5"/>
            <path id="Path_17384" data-name="Path 17384" d="M1114.813,419.4l23.954-12.105s-19.809,33.993-21.672,54.405S1114.813,419.4,1114.813,419.4Z" transform="translate(-741.31 -303.742)" fill="#fff"/>
            <path id="Path_17385" data-name="Path 17385" d="M1164,414.241a10.549,10.549,0,0,1,4.093,1.365,50.491,50.491,0,0,0-.454-8.564c-.214-.982-.162-1.991-1.053-2.455l-8.641,13.6C1160.255,415.982,1162.726,414.2,1164,414.241Z" transform="translate(-766.885 -302.139)" fill="#edf0f5"/>
            <path id="Path_17386" data-name="Path 17386" d="M943,876.392c-3.731.647-7.454,1.177-11.179,1.887q-8.18,1.56-16.439,2.647a255.063,255.063,0,0,1-28.075,2.13c-.109,2.682-.2,5.107-.21,6.215-.04,3.164,63.106-5.458,63.106-5.458l-5.747-7.695C943.957,876.22,943.468,876.31,943,876.392Z" transform="translate(-606.294 -581.711)" fill="#b6b6b6"/>
            <path id="Path_17387" data-name="Path 17387" d="M876.233,455.078s-8.133-4.31-7.622-8.6,4.163-4.18,4.179-3.169-.943,3.995,3.251,6.656S876.233,455.078,876.233,455.078Z" transform="translate(-595.323 -324.752)" fill="#ffac43"/>
            <g id="Group_33381" data-name="Group 33381" transform="translate(343.939 231.098)">
              <path id="Path_17388" data-name="Path 17388" d="M1079.464,753.2c-1.31-5.809-5.661-10.451-7.765-16.021-1.831-4.848-2.127-10.657-5.975-14.128-3.354-3.025-8.74-3.167-12.63-.872a12.743,12.743,0,0,0-2.65,2.092c-1.672,9.254-8.482,17.39-8.245,26.793.2,8.1,5.578,15,8.829,22.428a44.833,44.833,0,0,1,3.055,25.641c-.188,1.061-.314,2.385.578,2.991a2.754,2.754,0,0,0,1.6.31l12.075-.124a45.71,45.71,0,0,1,2.877-20.866C1074.831,772.128,1081.662,762.953,1079.464,753.2Z" transform="translate(-1042.192 -720.603)" fill="#ffac43"/>
              <path id="Path_17389" data-name="Path 17389" d="M1062.19,729.453c.037-.039.072-.081.11-.119.012-.065.026-.129.037-.195Z" transform="translate(-1054.049 -725.664)" fill="#ffac43"/>
            </g>
            <path id="Path_17390" data-name="Path 17390" d="M1005.92,818.323a91.332,91.332,0,0,0-1.34-18.656,24.064,24.064,0,0,0-5.924-10.971,42.992,42.992,0,0,0-16.768-11.943c-5.524,14.5-12.393,46.424,2.293,54.838,6.2,3.554,13.348,4.833,21.214,5.265C1005.491,830.676,1005.852,824.5,1005.92,818.323Z" transform="translate(-658.63 -522.796)" fill="#e5e5e5"/>
            <path id="Path_17391" data-name="Path 17391" d="M1254.292,701.664c3.719-.649,6.019-3.466,7.884-6.816a16.8,16.8,0,0,0-4.311-6.213,42.575,42.575,0,0,0-10.646-6.505C1252.53,687.243,1255.89,694.438,1254.292,701.664Z" transform="translate(-819.814 -466.695)" fill="#e5e5e5"/>
            <path id="Path_17392" data-name="Path 17392" d="M483.829,927.981a145.59,145.59,0,0,1-1.777-21.1,335.633,335.633,0,0,1-42.832-1.634,277.9,277.9,0,0,0,3.052,28.319A367.881,367.881,0,0,0,486.773,944Q485.01,936.046,483.829,927.981Z" transform="translate(-340.75 -598.981)" fill="#f7f7f7"/>
            <path id="Path_17393" data-name="Path 17393" d="M1266.465,839.509a6.267,6.267,0,0,0-2.719,3.125q1.122-5.151,2.245-10.3c.581-2.664,1.139-5.559-.025-8.025q-2.336,8.282-4.05,16.722l-.64-10.826a38.492,38.492,0,0,0-4.023,15.366,99.472,99.472,0,0,0-2.278-23.759q.048,13.377.1,26.754a42,42,0,0,0-4.989-9.884,5.762,5.762,0,0,0-2.671-2.446c-1.166-.392-2.731.212-2.891,1.432a3.115,3.115,0,0,0,.427,1.691,56.416,56.416,0,0,0,9.032,13.548l-.164-.4c1.991,1.267,4.594.059,6.553-1.258a17.63,17.63,0,0,0,5.241-4.872A7.442,7.442,0,0,0,1266.465,839.509Z" transform="translate(-818.206 -549.511)" fill="#e5e5e5"/>
            <g id="Group_33382" data-name="Group 33382" transform="translate(62.063 247.186)">
              <path id="Path_17394" data-name="Path 17394" d="M355.861,766.369a21.815,21.815,0,0,1-5.2-3.737l-.5.855a6.79,6.79,0,0,1,2.831,1.321,8.689,8.689,0,0,1,1.092,1.1,1.333,1.333,0,0,0,1.34.557.522.522,0,0,0,.357-.629,43.816,43.816,0,0,1-.747-5.128l-.512.511-.208-.105a.5.5,0,0,1,.019.072s.023.287.018.2q.019.294.055.587a11.7,11.7,0,0,0,.21,1.234,11.329,11.329,0,0,0,.837,2.343c.205.428.8.258.935-.122.507-1.448.294-3.392,1.587-4.454l-.873-.362a27.583,27.583,0,0,1-.5,3.242c-.162.742-.282,1.833-1,2.266a.512.512,0,0,0,.517.884,3.734,3.734,0,0,0,1.41-2.6,29.736,29.736,0,0,0,.6-3.786c.047-.488-.569-.612-.873-.362-1.479,1.214-1.274,3.259-1.851,4.905l.935-.122a10.188,10.188,0,0,1-.872-2.807c-.118-.744.061-1.911-.943-2.034a.512.512,0,0,0-.511.512,46.106,46.106,0,0,0,.784,5.4l.357-.629c-.108.026-.318-.265-.377-.333-.162-.19-.322-.378-.5-.555a7.949,7.949,0,0,0-1.128-.929,7.684,7.684,0,0,0-2.715-1.158.516.516,0,0,0-.5.855,22.753,22.753,0,0,0,5.409,3.9.512.512,0,0,0,.517-.884Z" transform="translate(-349.791 -760.124)" fill="#e5e5e5"/>
            </g>
            <g id="Group_33383" data-name="Group 33383" transform="translate(152.522 223.049)">
              <path id="Path_17395" data-name="Path 17395" d="M581.737,709.059q4.243-3.683,8.488-7.364c1.545-1.338,2.626-1.134,3.32.728.948,2.543,1.8,5.123,2.693,7.69q3.788,10.951,7.572,21.9c.274.793.569,1.567-.269,2.277s-1.569.261-2.3-.112q-13.316-6.825-26.628-13.658a16.581,16.581,0,0,1-1.709-.989c-1.179-.8-1.218-1.712-.1-2.689q4.46-3.9,8.945-7.769Zm.268.493.01.011q-4.292,3.724-8.583,7.45c-1.107.963-1.088,1.471.083,2.261a6.886,6.886,0,0,0,.712.394q11.4,5.855,22.793,11.706c1.659.851,3.33,1.681,4.986,2.537a.983.983,0,0,0,1.21-.068.917.917,0,0,0,.222-1.089c-.089-.3-.182-.6-.284-.889q-3.917-11.339-7.841-22.677c-.775-2.236-1.508-4.493-2.406-6.675-.578-1.406-1.136-1.432-2.318-.408Q586.293,705.822,582,709.551Z" transform="translate(-571.994 -700.833)" fill="#e5e5e5"/>
              <path id="Path_17396" data-name="Path 17396" d="M608.652,715.476q.689-.6,1.377-1.194c.2-.171.44-.3.623-.076s-.012.437-.2.6c-.7.615-1.409,1.229-2.12,1.836-.212.18-.436.41-.734.2a.631.631,0,0,1-.167-.843,7.885,7.885,0,0,0,.69-2.183c-.445.385-.885.776-1.335,1.155-.188.158-.426.329-.627.112s0-.443.179-.6q1.049-.931,2.117-1.84c.217-.185.456-.382.743-.175a.63.63,0,0,1,.149.846c-.3.687-.6,1.373-.9,2.059Z" transform="translate(-592.198 -707.679)" fill="#e5e5e5"/>
              <path id="Path_17397" data-name="Path 17397" d="M623.9,753.422c-.458.4-.909.8-1.377,1.189-.206.169-.467.45-.7.147-.167-.215.063-.441.247-.6q1.052-.925,2.114-1.839c.216-.185.459-.382.746-.194a.618.618,0,0,1,.187.836,10.857,10.857,0,0,0-.823,2.326c.5-.432.99-.87,1.5-1.292.184-.154.422-.326.61-.07.133.182-.022.379-.174.514q-1.14,1.01-2.293,2c-.189.163-.412.285-.644.112a.556.556,0,0,1-.177-.73q.491-1.142.988-2.282Z" transform="translate(-601.5 -731.196)" fill="#e5e5e5"/>
              <path id="Path_17398" data-name="Path 17398" d="M630.273,761.589a1.819,1.819,0,0,0-.769,1.183.531.531,0,0,0,.54.622c.245.021.5-.014.461-.365-.027-.243-.287-.58.174-.64.341-.045.486.334.688.557a.41.41,0,0,1-.106.695c-.414.247-.76,1.081-1.2.7-.556-.479-1.6-.786-1.221-1.956a3.537,3.537,0,0,1,2.355-2.077,1.254,1.254,0,0,1,1.494.828c.122.363.261.9-.18,1.052-.56.2-.359-.377-.441-.679C631.865,760.755,631.176,760.792,630.273,761.589Z" transform="translate(-605.651 -736.088)" fill="#e5e5e5"/>
              <path id="Path_17399" data-name="Path 17399" d="M614.009,721.215a2.483,2.483,0,0,1,1.231-.731,1.574,1.574,0,0,1,1.033.131c.7.393.773,1.3.175,2.178-.783,1.144-2.195,1.674-2.975,1.115a1.519,1.519,0,0,1,.078-2.292A5.658,5.658,0,0,1,614.009,721.215Zm.349.631c-.271.4-1.012.813-.552,1.35.556.646,1.149,0,1.62-.41.445-.387,1.1-.9.522-1.458C615.391,720.787,614.9,721.527,614.358,721.847Z" transform="translate(-596.301 -712.467)" fill="#e5e5e5"/>
              <path id="Path_17400" data-name="Path 17400" d="M596.585,745.34l2.04-1.616.281.31a11.814,11.814,0,0,1-2.647,2.234c-.484.27-.615-.274-.419-.723.25-.574.521-1.139.929-2.025-.468.341-.616.476-.784.566-.421.225-.8,1.095-1.207.613-.319-.378.536-.75.881-1.107a12.466,12.466,0,0,1,1.1-.964c.247-.2.521-.468.84-.2s.107.569-.035.861C597.287,743.867,597.014,744.444,596.585,745.34Z" transform="translate(-585.46 -725.428)" fill="#e5e5e5"/>
              <path id="Path_17401" data-name="Path 17401" d="M602.72,733.14c-.277.388-.439.483-.573.4a.452.452,0,0,1-.184-.376c.237-1.154-.033-1.835-1.391-1.592a.328.328,0,0,1-.406-.311.491.491,0,0,1,.263-.341c1.07-.455,2.14-.917,3.229-1.314.567-.207.922.149.681.654C603.824,731.333,603.17,732.353,602.72,733.14Zm.61-2.614c-.46.219-1.112.071-1.277.721-.031.12.313.468.444.442C603.1,731.568,603.1,730.967,603.331,730.525Z" transform="translate(-588.697 -717.854)" fill="#e5e5e5"/>
              <path id="Path_17402" data-name="Path 17402" d="M610.957,735.746a1.47,1.47,0,0,1,.338,1.126c-.022.2-.072.421-.3.463a.3.3,0,0,1-.365-.337c.018-.52-.138-1.126-.7-.927-.714.254-.178.874-.1,1.317.1.6.2,1.18-.365,1.634a1.206,1.206,0,0,1-1.251.128,1.521,1.521,0,0,1-.942-1.475c-.011-.262-.049-.606.346-.651s.408.234.374.547c-.063.591.151,1.137.8.973.786-.2.37-.859.252-1.281-.189-.671-.4-1.328.348-1.8A1.214,1.214,0,0,1,610.957,735.746Z" transform="translate(-592.906 -721.257)" fill="#e5e5e5"/>
              <path id="Path_17403" data-name="Path 17403" d="M616.593,742.233a1.59,1.59,0,0,1,.318,1.132c-.019.2-.091.407-.332.432a.312.312,0,0,1-.371-.342c0-.5-.052-1.121-.69-.891-.613.221-.186.815-.1,1.228.129.594.224,1.172-.351,1.628a1.188,1.188,0,0,1-1.443.082,1.536,1.536,0,0,1-.736-1.478c.009-.234.058-.5.374-.52.3-.017.4.183.372.458-.058.565.031,1.188.722,1,.826-.224.368-.892.239-1.358-.177-.646-.253-1.258.437-1.677A1.206,1.206,0,0,1,616.593,742.233Z" transform="translate(-596.241 -725.093)" fill="#e5e5e5"/>
              <path id="Path_17404" data-name="Path 17404" d="M596.905,723.258c.184-.16.367-.32.552-.479,1.1-.942,1.733-.8,2.241.523a1.244,1.244,0,0,1-.365,1.6,1.1,1.1,0,0,1-1.516-.083c-.511-.5-.935-.765-1.534-.071-.163.189-.43.3-.627.081s-.033-.438.153-.607c.362-.327.734-.641,1.1-.96Zm1.211,1.023a.581.581,0,0,0,.834-.09c.34-.368.163-.739-.116-1.038-.362-.388-.622-.022-.9.192C597.6,723.608,597.62,723.866,598.116,724.28Z" transform="translate(-585.968 -713.485)" fill="#e5e5e5"/>
              <path id="Path_17405" data-name="Path 17405" d="M601.873,752.921a2.574,2.574,0,0,1-1.51-1.8,8.913,8.913,0,0,1,2.52-2.216c.834.17,1.162.826,1.465,1.552-.513.192-.629-.169-.837-.351-.244-.213-.414-.644-.855-.261s-.018.618.152.881a.46.46,0,0,1,.055.542c-.608.338-.868-1.18-1.541-.242C600.742,751.834,602.044,752,601.873,752.921Z" transform="translate(-588.813 -729.336)" fill="#e5e5e5"/>
              <path id="Path_17406" data-name="Path 17406" d="M592.823,739.894a7.707,7.707,0,0,1-1.069.584,1.064,1.064,0,0,1-1.438-.436c-.461-.9.177-1.52.792-2.049s1.3-1.1,2.144-.557a1.071,1.071,0,0,1,.281,1.477A6.472,6.472,0,0,1,592.823,739.894Zm-.471-.514c.313-.43,1-.835.61-1.306-.433-.526-1-.011-1.424.353s-1.036.856-.6,1.354C591.411,740.321,591.891,739.564,592.352,739.38Z" transform="translate(-582.764 -722.404)" fill="#e5e5e5"/>
              <path id="Path_17407" data-name="Path 17407" d="M587.817,732.427c0-.6-.7-.755-.526-1.395.855.108,1.122.856,1.527,1.4.225.3-.136.477-.422.545-.391.093-.793.133-1.179.246-.69.2-2.277-.088-.856,1.365a.325.325,0,0,1-.006.316.26.26,0,0,1-.412.019,8.864,8.864,0,0,1-1.106-1.33c-.267-.46.185-.61.55-.687C586.2,732.73,587.014,732.582,587.817,732.427Z" transform="translate(-579.561 -718.738)" fill="#e5e5e5"/>
              <path id="Path_17408" data-name="Path 17408" d="M621.322,747.873c.276.37.52.547-.226.89a9.711,9.711,0,0,0-2.135,1.779c-.173.155-.1.657-.523.427a1.2,1.2,0,0,1-.518-.6c-.168-.458.315-.31.5-.452a7.335,7.335,0,0,0,2.125-1.964C620.872,747.377,621.051,747.631,621.322,747.873Z" transform="translate(-599.202 -728.563)" fill="#e5e5e5"/>
            </g>
            <g id="Group_33384" data-name="Group 33384" transform="translate(226.476 224.465)">
              <path id="Path_17409" data-name="Path 17409" d="M761.818,712.177c1.966.767,3.926,1.553,5.9,2.289.487.181.555.406.451.875a9.172,9.172,0,0,1-6.364,7.079,8.843,8.843,0,0,1-3.864.229c-.584-.064-.949-.594-1.355-.97a9.106,9.106,0,0,1-1.557-11.514c.237-.387.443-.491.894-.307,1.955.8,3.927,1.547,5.894,2.314ZM758.5,716.09a6.461,6.461,0,0,1-2.223,1.122c-.147.048-.458-.059-.386.256a.5.5,0,0,0,.476.466,4.031,4.031,0,0,0,3.928-3.353,2.3,2.3,0,0,0-3.023-2.259,1.853,1.853,0,0,0-1.225,1.5,1.691,1.691,0,0,0,.685,1.74A2.439,2.439,0,0,0,758.5,716.09Zm5.215-1.706c-.421-.164-.85-.312-1.261-.5-.344-.156-.508-.054-.629.286-.214.6-.465,1.193-.693,1.792s-.125.715.519.662a1.6,1.6,0,0,1,1.508.6,1.378,1.378,0,0,1-2.015,1.771,2.107,2.107,0,0,1-.449-.425c-.234-.311-.4-.118-.6.034-.259.2-.192.366,0,.553a3.37,3.37,0,0,0,1.838.924,2.037,2.037,0,0,0,2.435-1.792,1.761,1.761,0,0,0-1.532-2.177c-.684-.138-.541-.387-.379-.837s.359-.484.748-.305c.478.22.982.383,1.47.585.255.106.408.079.52-.209.119-.306-.029-.4-.269-.492C764.521,714.7,764.12,714.541,763.716,714.384Z" transform="translate(-753.656 -707.547)" fill="#e5e5e5"/>
              <path id="Path_17410" data-name="Path 17410" d="M765.04,708.478q-2.868-1.119-5.736-2.239c-.568-.222-.57-.239-.13-.683.093-.094.192-.181.287-.271,1.3-1.225,1.293-1.218,2.825-.4a8.93,8.93,0,0,0,3.53,1.114.7.7,0,0,1,.414.149,8.736,8.736,0,0,0,4.38,1.816.6.6,0,0,1,.59.544,13.411,13.411,0,0,1,.193,1.907c.023.417-.1.523-.513.357-1.941-.775-3.892-1.527-5.839-2.287Zm.046-.459a5.92,5.92,0,0,1,.412-1.043c.109-.163-.063-.357-.247-.443-.145-.068-.352-.208-.451-.012a3.125,3.125,0,0,0-.436,1.242c.291-.029.209-.449.473-.379C765.157,707.469,764.779,707.855,765.086,708.019Zm-2.893-1.749c-.051-.316-.086-.552-.13-.788-.017-.092-.049-.187-.161-.205-.092-.014-.133.057-.16.126-.146.367-.288.736-.467,1.194.423-.147.326-.515.595-.675.052.274.1.526.149.777.037.175.158.325.275.1a3.632,3.632,0,0,0,.447-1.285C762.388,705.714,762.437,706.019,762.193,706.27Zm5.667,2.975a5,5,0,0,0,.188-1.444c.011-.18-.143-.3-.3-.127a4.157,4.157,0,0,0-.857,1.153C767.6,708.446,767.61,708.45,767.86,709.245Zm-3.574-2.295c-.021-.23-.377-.209-.262-.474s.39.076.546-.157c-.2-.145-.469-.356-.621-.175a1.76,1.76,0,0,0-.455,1.224c.02.243.353.291.617.253-.008-.28-.472-.2-.328-.538C763.894,706.825,764.125,707.064,764.286,706.95Zm5.733,1.481c-.236-.111-.481-.377-.65-.121a1.784,1.784,0,0,0-.41,1.238c.026.159.351.27.6.2-.009-.28-.4-.2-.343-.491.07-.341.394-.045.528-.187-.014-.227-.373-.2-.27-.46S769.818,708.628,770.019,708.432Zm-7.176-2.792c.525.6-.192,1.018-.014,1.542.477-.278.238-1.075.948-1.141A1.887,1.887,0,0,0,762.843,705.64Zm2.453,2.412q.271.444.663.206a.4.4,0,0,0,.121-.634c-.37-.45-.155-.569.366-.542-.274-.276-.5-.3-.708-.1s-.116.414.021.615c.082.12.238.232.131.393s-.269.048-.41.016C765.436,708,765.384,708.029,765.3,708.052Zm2.982,1.292c.4-.425.263-1.1.976-1.209a2.043,2.043,0,0,0-.9-.324C768.821,708.332,768.131,708.756,768.278,709.344Zm-1.711-2.233c.531.537-.131.96-.049,1.5.453-.342.226-1.141,1.064-1.128A2.663,2.663,0,0,0,766.567,707.111Zm-5.144-1.963a2.292,2.292,0,0,0-.461,1.216A1.86,1.86,0,0,0,761.422,705.148Z" transform="translate(-756.741 -704.31)" fill="#e5e5e5"/>
              <path id="Path_17411" data-name="Path 17411" d="M762.108,718.507a1.126,1.126,0,1,1,2.083.85.985.985,0,0,1-1.433.653A1.064,1.064,0,0,1,762.108,718.507Z" transform="translate(-758.606 -712.268)" fill="#e5e5e5"/>
            </g>
            <ellipse id="Ellipse_3214" data-name="Ellipse 3214" cx="20.607" cy="3.963" rx="20.607" ry="3.963" transform="translate(155.62 251.181)" fill="#eee"/>
            <ellipse id="Ellipse_3215" data-name="Ellipse 3215" cx="16.373" cy="7.334" rx="16.373" ry="7.334" transform="translate(207.117 240.02)" fill="#eee"/>
            <ellipse id="Ellipse_3216" data-name="Ellipse 3216" cx="11.958" cy="2.952" rx="11.958" ry="2.952" transform="translate(221.381 234.782)" fill="#eee"/>
            <path id="Path_17412" data-name="Path 17412" d="M865.464,766.819H827.6v24.56h.023a.716.716,0,0,0-.023.171c0,1.978,8.476,3.582,18.932,3.582s18.932-1.6,18.932-3.582a.7.7,0,0,0-.023-.171h.023Z" transform="translate(-571.021 -516.907)" fill="#dadada"/>
            <ellipse id="Ellipse_3217" data-name="Ellipse 3217" cx="18.932" cy="3.582" rx="18.932" ry="3.582" transform="translate(256.579 246.16)" fill="#919191"/>
            <path id="Path_17413" data-name="Path 17413" d="M848.483,778.969a1.019,1.019,0,0,0-.667,1.793l-4,10.233c-11.479-.024-19.5-1.806-19.718-3.432l1.019-2.2v-1.62l-1.705,3.674v.075c0,2.715,10.633,4.181,20.637,4.181h.233l4.169-10.666c.011,0,.021,0,.032,0a1.023,1.023,0,1,0,0-2.047Z" transform="translate(-568.537 -524.111)" fill="#919191"/>
            <g id="Group_33394" data-name="Group 33394" transform="translate(61.327 271.53)">
              <g id="Group_33385" data-name="Group 33385" transform="translate(183.552 49.374)">
                <path id="Path_17414" data-name="Path 17414" d="M799.231,943.547c2.734.387,5.256-.642,7.9-1.124,2.235-.407,4.6-.281,6.228,1.479a5.183,5.183,0,0,0,2.657,1.932,18.041,18.041,0,0,0,3.9.074c2.651-.042,5.315-.17,7.966-.088,2.409.074,5.011.46,6.735,2.308.45.483,1.172-.242.723-.724a8.978,8.978,0,0,0-5.774-2.5,61.174,61.174,0,0,0-7.654-.056c-1.455.023-2.911.056-4.367.069a3.167,3.167,0,0,1-3.158-1.4,6.421,6.421,0,0,0-2.629-1.911,8.1,8.1,0,0,0-3.269-.378c-3.019.2-5.929,1.764-8.988,1.331-.644-.091-.922.895-.272.987Z" transform="translate(-798.86 -941.204)" fill="#eee"/>
              </g>
              <g id="Group_33386" data-name="Group 33386" transform="translate(93.042 47.268)">
                <path id="Path_17415" data-name="Path 17415" d="M577.279,940.3a18.673,18.673,0,0,1,12.428-3.144,7.421,7.421,0,0,1,2.677.655,14.684,14.684,0,0,1,1.941,1.523,4.617,4.617,0,0,0,2.189.9,10.738,10.738,0,0,0,5.593-1.273c.6-.263.082-1.145-.517-.883-1.538.672-3.327,1.416-5.042,1.134-1.73-.285-2.658-1.937-4.245-2.549a13.493,13.493,0,0,0-5.23-.613,19.876,19.876,0,0,0-4.989.834,19.641,19.641,0,0,0-5.322,2.534c-.542.368-.031,1.254.517.884Z" transform="translate(-576.532 -936.03)" fill="#eee"/>
              </g>
              <g id="Group_33387" data-name="Group 33387" transform="translate(18.336)">
                <path id="Path_17416" data-name="Path 17416" d="M393.661,824.834c2.761-.632,4.543-3.231,7.33-3.777a6.792,6.792,0,0,1,6.7,2.638c.377.534,1.264.024.884-.516a7.823,7.823,0,0,0-7.169-3.211,8.635,8.635,0,0,0-3.948,1.615,12.366,12.366,0,0,1-4.066,2.265c-.642.147-.37,1.134.272.987Z" transform="translate(-393.023 -819.921)" fill="#eee"/>
              </g>
              <g id="Group_33388" data-name="Group 33388" transform="translate(149.302 2.41)">
                <path id="Path_17417" data-name="Path 17417" d="M715.626,830.085a9.371,9.371,0,0,1,4.06-1.914,9.953,9.953,0,0,1,4.473.187,4.632,4.632,0,0,0,2.3.109,9.411,9.411,0,0,0,2.042-.964,5.13,5.13,0,0,1,4.3-.251,15.931,15.931,0,0,1,4.6,2.866c.506.412,1.235-.307.724-.724-2.381-1.94-5.541-4.266-8.805-3.343a11.816,11.816,0,0,0-2.208,1.047,3.4,3.4,0,0,1-2.59.295,11.563,11.563,0,0,0-4.788-.269,10.413,10.413,0,0,0-4.831,2.237c-.509.418.218,1.139.723.724Z" transform="translate(-714.73 -825.842)" fill="#eee"/>
              </g>
              <g id="Group_33389" data-name="Group 33389" transform="translate(22.41 47.048)">
                <path id="Path_17418" data-name="Path 17418" d="M403.652,938.487a26.577,26.577,0,0,1,5.485-1.577,11.988,11.988,0,0,1,5.3.62,16.687,16.687,0,0,0,4.877,1.1,5.642,5.642,0,0,0,2.236-.447c.8-.344,1.485-.906,2.289-1.24a5.887,5.887,0,0,1,5.235.4.512.512,0,0,0,.517-.883,6.967,6.967,0,0,0-4.7-.876,6.721,6.721,0,0,0-2.25.817,7.849,7.849,0,0,1-2.431,1.127c-1.711.321-3.476-.345-5.083-.855a14.005,14.005,0,0,0-5.3-.859,23.98,23.98,0,0,0-6.445,1.685c-.613.225-.348,1.214.272.987Z" transform="translate(-403.032 -935.491)" fill="#eee"/>
              </g>
              <g id="Group_33390" data-name="Group 33390" transform="translate(0 38.513)">
                <path id="Path_17419" data-name="Path 17419" d="M348.767,916.734a14.216,14.216,0,0,1,6.424-1.166,1.434,1.434,0,0,1,1.269.548,4.1,4.1,0,0,0,.82.94,2.828,2.828,0,0,0,2.453.449.512.512,0,0,0-.272-.986,1.8,1.8,0,0,1-1.3-.111,2.913,2.913,0,0,1-.96-1,2.948,2.948,0,0,0-2.568-.881,15.425,15.425,0,0,0-6.385,1.324c-.6.263-.082,1.145.516.884Z" transform="translate(-347.983 -914.525)" fill="#eee"/>
              </g>
              <g id="Group_33391" data-name="Group 33391" transform="translate(236.013 60.825)">
                <path id="Path_17420" data-name="Path 17420" d="M928.351,972.966c3.876-1.295,8.164-2.682,12.193-1.213a19.134,19.134,0,0,0,2.754.96,7.34,7.34,0,0,0,2.836-.034c1.92-.371,3.645-1.335,5.508-1.888,1.734-.515,3.873-.78,5.377.453.505.414,1.233-.306.723-.723-3.132-2.567-7.083-.338-10.309.743a6.968,6.968,0,0,1-6.038-.275,12.734,12.734,0,0,0-6.185-.8,34.436,34.436,0,0,0-7.132,1.792c-.621.208-.355,1.2.272.987Z" transform="translate(-927.725 -969.333)" fill="#eee"/>
              </g>
              <g id="Group_33392" data-name="Group 33392" transform="translate(327.059 48.867)">
                <path id="Path_17421" data-name="Path 17421" d="M1152.247,948.88a16.215,16.215,0,0,1,11.771-4.67,15.094,15.094,0,0,1,3.144.4,33.628,33.628,0,0,0,3.539.9c2.389.3,4.236-1.115,6-2.514,1.568-1.242,4.363-3.1,6.234-1.348.481.449,1.206-.273.723-.723-1.639-1.532-4.045-1.01-5.815,0-1.962,1.122-3.515,3.236-5.869,3.575a10.091,10.091,0,0,1-4.021-.742,16.373,16.373,0,0,0-3.323-.545,17.24,17.24,0,0,0-6.662.928,16.914,16.914,0,0,0-6.448,4.016.512.512,0,0,0,.723.724Z" transform="translate(-1151.373 -939.959)" fill="#eee"/>
              </g>
              <g id="Group_33393" data-name="Group 33393" transform="translate(168.569 10.379)">
                <path id="Path_17422" data-name="Path 17422" d="M762.94,849c1.315-1.22,3.051-2.473,4.912-2.551a3.222,3.222,0,0,1,2.4.912,6.554,6.554,0,0,0,2.2,1.552c1.746.635,3.693.155,5.461-.115a11.053,11.053,0,0,1,2.9-.141c1.086.123,2.133.468,3.206.661,2.557.461,5.026-.191,7.468-.916a.512.512,0,0,0-.272-.987c-2.244.666-4.567,1.341-6.924.916-1.074-.194-2.121-.519-3.2-.664a10.92,10.92,0,0,0-2.957.073c-1.78.245-3.9.894-5.626.1-.9-.415-1.45-1.26-2.267-1.786a4.112,4.112,0,0,0-2.457-.622,9.466,9.466,0,0,0-5.564,2.848c-.484.449.241,1.171.724.724Z" transform="translate(-762.057 -845.417)" fill="#eee"/>
              </g>
            </g>
            <path id="Path_17423" data-name="Path 17423" d="M1307.762,791.162a104.43,104.43,0,0,1,2.331,15.179,32.773,32.773,0,0,0,2.277-11.818c0-6.871-4.954-13.034-9.468-17.224A62.98,62.98,0,0,1,1307.762,791.162Z" transform="translate(-852.828 -523.121)" fill="#e5e5e5"/>
            <g id="Group_33396" data-name="Group 33396" transform="translate(1.667 119.687)">
              <g id="Group_33395" data-name="Group 33395">
                <path id="Path_17424" data-name="Path 17424" d="M219.7,446.967a2.34,2.34,0,0,1,1.8.471q11.067,7.935,22.139,15.865a2.331,2.331,0,0,1,.592,3.622q-7.918,11.086-15.89,22.133a2.41,2.41,0,0,1-3.732.614q-10.984-7.833-21.926-15.727a2.451,2.451,0,0,1-.6-3.826q7.051-9.909,14.153-19.781c.563-.786,1.114-1.58,1.671-2.369A2.465,2.465,0,0,1,219.7,446.967Zm23.431,18.219a1.406,1.406,0,0,0-.668-.775q-10.769-7.709-21.536-15.42a1.239,1.239,0,0,0-2.012.341q-7.665,10.724-15.365,21.423c-.608.845-.591,1.451.317,2.1q10.637,7.565,21.23,15.192c.941.678,1.549.685,2.271-.33q7.638-10.732,15.354-21.409A1.627,1.627,0,0,0,243.135,465.186Z" transform="translate(-201.432 -446.934)" fill="#e5e5e5"/>
                <path id="Path_17425" data-name="Path 17425" d="M234.761,497.137c0-.78-.02-1.56-.01-2.34,0-.306.1-.6.455-.666s.508.2.618.493c.3.784.6,1.566.945,2.465a9.71,9.71,0,0,0,.173-2.63c.024-.3.015-.637.41-.66.43-.026.424.342.421.625-.017,1.47-.05,2.941-.083,4.411-.007.311-.085.6-.457.648s-.5-.227-.6-.514c-.333-.9-.668-1.809-1.12-3.031-.011,1.2-.016,2.1-.027,3,0,.372.072.809-.453.9-.448.075-.547-.3-.661-.613-.481-1.344-.964-2.688-1.436-4.035-.081-.232-.183-.521.115-.664.35-.169.56.067.669.365.274.747.526,1.5.787,2.253Z" transform="translate(-220.058 -474.72)" fill="#e5e5e5"/>
                <path id="Path_17426" data-name="Path 17426" d="M232.977,476.233c1.744-.245,2.724.777,2.174,2.282-.354.968.419,1.446.585,2.17.068.3.438.624-.045.839-.411.182-.59-.178-.749-.476-.1-.184-.162-.387-.261-.571-.237-.438-.433-.982-1.1-.736-.613.224-.187.711-.22,1.079s.349.96-.233,1.075c-.71.14-.559-.583-.638-.973-.208-1.026-.3-2.077-.537-3.094C231.7,476.776,231.939,476.186,232.977,476.233Zm1.4,1.59c-.079-.525-.388-.681-.893-.6-.432.07-.7.209-.6.725.085.45.165.815.775.687C234.124,478.537,234.449,478.375,234.375,477.823Z" transform="translate(-219.472 -464.284)" fill="#e5e5e5"/>
                <path id="Path_17427" data-name="Path 17427" d="M255.956,493.9a5.573,5.573,0,0,1-.153-.99c.011-.606-.676-1.423.21-1.769a2.269,2.269,0,0,1,2.5.085,1.631,1.631,0,0,1,.4,2.159c-.494.842.476,1.131.521,1.755.026.366.6.783.044,1.076s-.636-.336-.829-.666c-.147-.252-.254-.526-.4-.778a.715.715,0,0,0-.862-.327c-.518.11-.3.478-.329.787-.046.482.563,1.283-.2,1.383-.812.107-.5-.863-.664-1.356A8.887,8.887,0,0,1,255.956,493.9Zm1.279-1.966c-.56.012-.673.306-.59.832s.284.717.833.6c.473-.1.815-.261.75-.8C258.159,491.994,257.8,491.788,257.235,491.935Z" transform="translate(-233.524 -472.944)" fill="#e5e5e5"/>
                <path id="Path_17428" data-name="Path 17428" d="M270.711,511.118q-.1-.619-.2-1.238c-.243-1.481.487-2.1,1.987-1.675,1.1.309,1.878,1.832,1.748,3.431a2.092,2.092,0,0,1-2.015,2.158c-.748.14-1.1-.077-1.184-.825-.072-.622-.2-1.238-.3-1.857Zm.919-.064c.055.331.1.664.168.992.058.27.015.637.427.663a.974.974,0,0,0,.958-.473,2.9,2.9,0,0,0-.456-2.825,1,1,0,0,0-1.052-.212c-.467.173-.224.562-.2.863A9.318,9.318,0,0,0,271.629,511.054Z" transform="translate(-242.359 -483.185)" fill="#e5e5e5"/>
                <path id="Path_17429" data-name="Path 17429" d="M253.261,513.871q-.061-.373-.123-.746c-.348-2.092-.089-2.39,2.046-2.4.307,0,.609-.028.7.35.111.458-.2.585-.557.654-.248.048-.5.1-.745.131-.4.051-.6.246-.528.674a.527.527,0,0,0,.694.511c.207-.035.416-.055.624-.084.374-.052.682.006.723.464.034.381-.222.5-.534.569-.247.051-.493.1-.741.152-.466.093-.44.423-.381.776.055.329.194.555.575.508s.749-.1,1.125-.142a.453.453,0,0,1,.55.381c.086.376-.094.547-.439.606-.538.092-1.082.161-1.613.284-.716.165-1-.152-1.075-.823C253.491,515.111,253.364,514.492,253.261,513.871Z" transform="translate(-232.013 -484.757)" fill="#e5e5e5"/>
                <path id="Path_17430" data-name="Path 17430" d="M245.455,476.949c.284,1.669-.411,3.143-1.543,3.27-1.083.122-2.134-1.061-2.354-2.65-.006-.042-.013-.083-.018-.125-.175-1.634.481-2.893,1.567-3.008S245.191,475.4,245.455,476.949Zm-.925.168a7.049,7.049,0,0,0-.22-.712c-.217-.515-.479-1.054-1.164-.893-.646.151-.739.725-.747,1.291a2.894,2.894,0,0,0,.074.621c.168.808.231,1.911,1.357,1.707C244.852,478.947,244.542,477.895,244.531,477.117Z" transform="translate(-225.196 -463.236)" fill="#e5e5e5"/>
                <path id="Path_17431" data-name="Path 17431" d="M246.991,514.86c.116.7.241,1.4.344,2.11.04.28.119.638-.273.725-.492.109-.5-.321-.582-.631a7.593,7.593,0,0,1-.159-.865c-.071-.551-.384-.661-.887-.57-.487.088-.788.265-.653.821a.386.386,0,0,1,.018.124c-.051.515.546,1.374-.249,1.455-.684.07-.473-.916-.592-1.435-.232-1.02-.367-2.063-.525-3.1-.048-.313-.194-.743.283-.821.461-.075.436.378.559.677.188.456-.215,1.281.819,1.235,1.01-.046.849-.651.764-1.3-.048-.368-.35-.932.315-1,.52-.055.462.5.534.84.12.574.2,1.157.294,1.736Z" transform="translate(-226.3 -485.677)" fill="#e5e5e5"/>
                <path id="Path_17432" data-name="Path 17432" d="M246.2,495.673c-.268-1.7.348-3.036,1.473-3.184,1.065-.14,2.015.911,2.3,2.545.295,1.687-.3,3.064-1.4,3.243S246.463,497.362,246.2,495.673Zm2.918-.539a5.8,5.8,0,0,0-.252-.736c-.224-.45-.445-.951-1.091-.843s-.7.629-.723,1.151a2.376,2.376,0,0,0,0,.627c.189.79.212,1.956,1.275,1.842C249.451,497.054,249.066,495.905,249.115,495.133Z" transform="translate(-227.936 -473.936)" fill="#e5e5e5"/>
                <path id="Path_17433" data-name="Path 17433" d="M260.5,474.618c-.075-.454-.152-.908-.225-1.363-.235-1.467.295-1.963,1.777-1.664,1.186.239,1.909,1.477,1.917,3.3a2.112,2.112,0,0,1-1.674,2.325c-.893.232-1.465.069-1.529-.99a15.957,15.957,0,0,0-.256-1.612Zm2.573-.34a10.008,10.008,0,0,0-.375-1.09.938.938,0,0,0-1.13-.571c-.662.15-.367.643-.322,1.014.069.581.166,1.16.292,1.731.072.326-.071.84.51.841a.925.925,0,0,0,.959-.825A8.111,8.111,0,0,0,263.077,474.278Z" transform="translate(-236.291 -461.504)" fill="#e5e5e5"/>
                <path id="Path_17434" data-name="Path 17434" d="M255.859,477.768c.066.271.106.534-.208.646-.354.127-.529-.124-.673-.4-.2-.389-.264-.9-.931-.807-.6.083-.906.306-.85.96.029.334-.073.734-.51.725-.506-.011-.4-.434-.372-.758.133-1.417.275-2.832.41-4.249.033-.347.085-.675.5-.765a.506.506,0,0,1,.6.339Q254.847,475.611,255.859,477.768Z" transform="translate(-231.583 -462.451)" fill="#e5e5e5"/>
                <path id="Path_17435" data-name="Path 17435" d="M266.182,514.319c.024.287.043.543-.285.631-.291.078-.461-.105-.591-.347-.25-.466-.385-1.007-1.17-.843-.766.16-.53.737-.641,1.176-.067.261-.142.5-.458.5-.449-.008-.394-.348-.367-.639.134-1.463.276-2.925.414-4.387.029-.3.085-.593.434-.69a.492.492,0,0,1,.631.27C264.832,511.429,265.505,512.874,266.182,514.319Z" transform="translate(-237.73 -484.142)" fill="#e5e5e5"/>
                <path id="Path_17436" data-name="Path 17436" d="M239.211,518.579c.151.482.2.743-.134.838a.48.48,0,0,1-.614-.292c-.218-.478-.3-1.066-1.1-.924-.725.129-.608.683-.709,1.146-.066.3-.168.6-.552.538-.458-.072-.272-.434-.253-.7.1-1.416.217-2.831.332-4.246.027-.337.048-.688.481-.773a.6.6,0,0,1,.686.419C238.01,515.988,238.659,517.392,239.211,518.579Z" transform="translate(-221.81 -486.79)" fill="#e5e5e5"/>
                <path id="Path_17437" data-name="Path 17437" d="M266.235,491.27c.294-.637.575-1.281.889-1.909a.544.544,0,0,1,.643-.285c.344.1.3.425.153.609-1.27,1.547-.432,2.748.576,3.964.2.237.715.58.27.931-.427.337-.766-.068-1.019-.421-.356-.5-.7-1-1.115-1.6-.493.733-.1,1.293-.1,1.843,0,.269-.01.529-.327.584s-.457-.164-.5-.433c-.254-1.489-.506-2.978-.744-4.47-.042-.263.035-.524.352-.561s.428.212.478.469c.08.41.14.825.208,1.238Z" transform="translate(-239.09 -471.907)" fill="#e5e5e5"/>
              </g>
              <path id="Path_17438" data-name="Path 17438" d="M263.843,611.57l1.128-37.226L258.381,551.8l2.187-.081,6.658,22.061v37.79Z" transform="translate(-235.197 -509.061)" fill="#e5e5e5"/>
            </g>
            <g id="Group_33401" data-name="Group 33401" transform="translate(176.694 8.903)">
              <g id="Group_33398" data-name="Group 33398">
                <ellipse id="Ellipse_3218" data-name="Ellipse 3218" cx="8.633" cy="5.731" rx="8.633" ry="5.731" transform="translate(152.438 213.112) rotate(-71.215)"/>
                <g id="Group_33397" data-name="Group 33397">
                  <path id="Path_17439" data-name="Path 17439" d="M863.144,505.662q-26.343-44.847-53.657-88.5-27.244-43.725-55.568-86.055-14.212-21.092-28.866-41.581-7.311-10.263-14.706-20.4c-4.919-6.774-9.855-13.525-14.851-20.189q-7.453-10.053-15.107-19.819c-5.084-6.536-10.281-12.906-15.533-19.191-2.625-3.145-5.3-6.208-7.991-9.255s-5.417-6.033-8.194-8.939a200.768,200.768,0,0,0-17.3-16.391l.27-.539a148.72,148.72,0,0,1,18.416,14.6c5.864,5.38,11.531,11.1,17.046,17.055,5.536,5.923,10.888,12.131,16.19,18.408,5.283,6.307,10.438,12.8,15.559,19.336,2.549,3.285,5.063,6.618,7.585,9.941q3.749,5.03,7.453,10.122c2.476,3.385,4.9,6.842,7.341,10.272q3.632,5.187,7.228,10.421,7.173,10.495,14.222,21.144,7.07,10.623,14.035,21.379,27.91,42.956,54.556,87.473,13.32,22.258,26.395,44.81,6.539,11.275,13.01,22.627,6.456,11.373,12.832,22.84Z" transform="translate(-631.369 -174.803)"/>
                  <path id="Path_17440" data-name="Path 17440" d="M840.281,413.912c-6.01-12.664-18.586-38.018-35.716-66.514a582.78,582.78,0,0,0-43.526-63.341c-18.217-22.785-36.369-40.779-53.954-53.485l-.427.858c17.548,12.679,35.666,30.641,53.853,53.387a582.183,582.183,0,0,1,43.479,63.271c17.134,28.5,29.706,53.854,35.7,66.493A1.608,1.608,0,0,1,840.281,413.912Z" transform="translate(-676.008 -207.869)"/>
                  <ellipse id="Ellipse_3219" data-name="Ellipse 3219" cx="1.717" cy="1.14" rx="1.717" ry="1.14" transform="translate(29.302 24.184) rotate(-71.215)"/>
                </g>
              </g>
              <g id="Group_33399" data-name="Group 33399" transform="translate(15.531 6.131)">
                <rect id="Rectangle_11175" data-name="Rectangle 11175" width="0.682" height="118.355" transform="translate(14.582)"/>
                <ellipse id="Ellipse_3220" data-name="Ellipse 3220" cx="1.876" cy="10.745" rx="1.876" ry="10.745" transform="translate(13.047 41.228)"/>
                <path id="Path_17441" data-name="Path 17441" d="M689.71,485.418l4.032.6a12.822,12.822,0,0,1-8.912,4.11,12.641,12.641,0,0,1-9.451-21.55,13.268,13.268,0,0,1,5-2.546,7.428,7.428,0,0,0,5.1-7.08V445.4H683.3v12.34a6.089,6.089,0,0,1-3.957,5.727,14.99,14.99,0,0,0-5.519,3.584A14.872,14.872,0,0,0,684.4,492.309q.252,0,.5-.009a15.009,15.009,0,0,0,11.374-5.925l-.026-.02.041-.1a23.491,23.491,0,0,0,1.5-5.773q.194-1.521.386-3.042C697.1,479.157,689.71,485.418,689.71,485.418Z" transform="translate(-669.52 -341.371)"/>
              </g>
              <g id="Group_33400" data-name="Group 33400" transform="translate(69.358 65.982)">
                <path id="Path_17442" data-name="Path 17442" d="M802.355,346.916l6.231-9.666-.573-.37-6.273,9.729A1.81,1.81,0,0,1,802.355,346.916Z" transform="translate(-801.741 -336.881)"/>
                <path id="Path_17443" data-name="Path 17443" d="M858.075,425.767l8.07-12.516-.573-.37-7.949,12.33C857.775,425.4,857.923,425.582,858.075,425.767Z" transform="translate(-834.873 -381.941)"/>
                <path id="Path_17444" data-name="Path 17444" d="M920.582,518.086l7.77-10.494-.548-.406-7.629,10.3C920.311,517.688,920.446,517.887,920.582,518.086Z" transform="translate(-871.961 -437.855)"/>
                <path id="Path_17445" data-name="Path 17445" d="M971.412,595.251l6.309-7.2-.513-.449-6.188,7.067Z" transform="translate(-902.107 -485.531)"/>
              </g>
            </g>
            <g id="Group_33402" data-name="Group 33402" transform="translate(181.338 92.542)">
              <path id="Path_17446" data-name="Path 17446" d="M675.449,422.956s-4.293,2.265-7.139.675-4.264-4.471-3.167-6.433,4.293-2.265,7.139-.674S675.449,422.956,675.449,422.956Z" transform="translate(-655.818 -401.153)" fill="#5673a9"/>
              <ellipse id="Ellipse_3221" data-name="Ellipse 3221" cx="3.257" cy="5.699" rx="3.257" ry="5.699" transform="translate(11.425 22.588)" fill="#5673a9"/>
              <path id="Path_17447" data-name="Path 17447" d="M664.409,461.742c1.846,1.283,1.262,5.317-1.3,9.009s-10.264,2.561-10.264,2.561a27.374,27.374,0,0,1,3.578-7.208C658.986,462.412,662.563,460.459,664.409,461.742Z" transform="translate(-648.744 -428.335)" fill="#5673a9"/>
              <path id="Path_17448" data-name="Path 17448" d="M674.2,420.443a12.158,12.158,0,0,1,1.163,4.221s-4.293,2.265-7.139.675a8.059,8.059,0,0,1-2.222-1.808,7.443,7.443,0,0,0,3.036,3.03c2.846,1.59,7.139-.675,7.139-.675A10.741,10.741,0,0,0,674.2,420.443Z" transform="translate(-656.549 -404.082)" fill="#355586"/>
              <path id="Path_17449" data-name="Path 17449" d="M676.744,438.7a9.112,9.112,0,0,1,.445,2.866c0,3.148-1.458,5.7-3.257,5.7a2.553,2.553,0,0,1-2-1.2c.565,1.692,1.611,2.833,2.811,2.833,1.8,0,3.257-2.552,3.257-5.7A7.776,7.776,0,0,0,676.744,438.7Z" transform="translate(-660.065 -414.905)" fill="#355586"/>
              <path id="Path_17450" data-name="Path 17450" d="M664.6,462.725c.311,1.859-.509,4.619-2.313,7.214-1.9,2.729-6.593,2.823-8.917,2.686-.365.925-.533,1.5-.533,1.5s7.7,1.131,10.264-2.561C665.573,468.016,666.2,464.157,664.6,462.725Z" transform="translate(-648.744 -429.151)" fill="#355586"/>
              <path id="Path_17451" data-name="Path 17451" d="M667.065,485.624c-.1,0-.2-.009-.3-.024-.021,0-.04-.01-.061-.013l-.861,4.947,2.544,5.806,1.527-2.143-3.257-4.071Z" transform="translate(-656.452 -442.706)" fill="#355586"/>
              <path id="Path_17452" data-name="Path 17452" d="M679.841,477.738l4.478,1.628,2.163,3.2-1.689.676-1.288-3.06-3.664-2.036Z" transform="translate(-664.753 -438.052)" fill="#355586"/>
              <path id="Path_17453" data-name="Path 17453" d="M657.726,439.216l-4.478,6.921s-1.221-6.514-4.478-7.328-2.77-1.2-2.77-1.2l1.549-2.871s4.478,4.478,4.885,5.7.814,3.257.814,3.257l4.478-5.7Z" transform="translate(-644.672 -412.558)" fill="#5673a9"/>
              <path id="Path_17454" data-name="Path 17454" d="M685.879,437.432l2.834,2.262s.407-3.664.814-5.292a3.007,3.007,0,0,1,1.221-2.036l-1.628-1.628a21.6,21.6,0,0,0-1.221,4.478v2.85l-2.02-1.97Z" transform="translate(-668.332 -410.186)" fill="#355586"/>
              <path id="Path_17455" data-name="Path 17455" d="M660.754,448.437s-.407-2.035-.814-3.257a8.031,8.031,0,0,0-1.305-1.853,24.128,24.128,0,0,1,1.258,4.589,19.342,19.342,0,0,1,.861,2.963l4.478-6.921v-1.221Z" transform="translate(-652.179 -417.301)" fill="#355586"/>
              <path id="Path_17456" data-name="Path 17456" d="M654.2,405.929s-2.443-9.77-4.885-10.992-6.921-.407-6.514,2.443,1.221,1.221,1.221.814-.814-.814-.814-.814a2.1,2.1,0,0,1,2.035-2.443c2.443-.407,3.664,0,4.478.814s3.164,6.577,3.21,6.952.861,3.225.861,3.225S654.2,406.336,654.2,405.929Z" transform="translate(-642.777 -388.634)" fill="#355586"/>
              <path id="Path_17457" data-name="Path 17457" d="M665.576,395.514s0-13.434-2.85-14.656-4.885-.407-4.885.814.814,2.85,1.221,2.035-.407-.814-.407-.814-1.221-.814.407-1.628,3.257-.814,4.071.814a9.728,9.728,0,0,1,1.221,3.664c.407,2.035.814,9.77.814,9.77S665.169,395.921,665.576,395.514Z" transform="translate(-651.709 -380.254)" fill="#355586"/>
            </g>
            <path id="Path_17458" data-name="Path 17458" d="M417.2,288.078l-.007-1.4-5.914.03q-.037-10.956-.072-21.911c-1.455-.421-2.972.765-3.51,2.181a10.888,10.888,0,0,0-.282,4.5,39.355,39.355,0,0,1-1.095,11.733c-.642,2.58-1.911,5.45-4.485,6.113-1.593.41-3.253-.161-4.894-.282a7.44,7.44,0,0,0-1.166.013q-.485-11.888-.969-23.776l7.764-.359-.064-1.4-7.757.359L393.6,235.757a14.157,14.157,0,0,0-.349-2.992l5.093-1.547-.408-1.343-5.2,1.581a4.312,4.312,0,0,0-.276-.439c-.973-1.334-3.157-1.9-4.272-.688a519.359,519.359,0,0,0-6.725,67.887c-.15,4.542-.419,9.54-3.554,12.831-4.443,4.664-11.373,3.271-18.16,2.883q.01-3.147.069-6.295c.2-10.081.828-20.149,1.464-30.212l6.928.263.053-1.4-6.893-.261q1.05-16.62,2.1-33.24c.873-13.818,1.748-27.658,3.847-41.345,1.114-7.266,2.432-15.139.914-22.108l3.889-.832-.293-1.372-3.932.841c-.108-.39-.221-.78-.35-1.164,0,0-1.865-7.414-4.053-13.639-.9-2.563-2.013-5.372-4.453-6.564-2.18-1.065-4.37-.483-6.307.915l-1.385-4.583L350,153.34l1.553,5.141a18.836,18.836,0,0,0-4.146,6.032c-5.09,11.687-7.081,24.447-9.026,37.044q-.351,2.27-.7,4.541l-8.743-2.82-.43,1.336,8.957,2.889v0c-1.428,9.323-2.807,18.662-3.937,28.023l-3.092-.2-.089,1.4,3.021.191c-.716,6.072-1.332,12.153-1.773,18.245-2.845-.246-5.683.637-8.545.826-3,.2-6.494-.739-7.686-3.5a9.327,9.327,0,0,1-.508-3.745l.012-8.161c.01-6.472.02-12.949.365-19.412.184-3.46-1.3-10.177-1.3-10.184.051,2.436-.193-6.067-1.659-7.82s-4.8-1.99-5.736.1a5.1,5.1,0,0,0-.332,1.5q-.089.748-.177,1.5l-4.814-1.775-.485,1.317,5.129,1.891-.006.052c-.325.511-.573.893-.627.943-.246,2.709-.766,9.34-1.113,13.817q-.232,1.965-.464,3.93c.052.011.105.014.158.024-.022.285-.035.456-.037.473a12.3,12.3,0,0,1-6.414-4.54c-2.61-3.429-3.331-7.95-3.26-12.258.034-1.99-.955-4.9-2.789-4.127a2.606,2.606,0,0,0-1.193,1.375c-1.488,3.1-1.488,6.544-.9,9.986l-4.68-1.51-.43,1.336,5.415,1.747c.37,1.7.85,3.392,1.335,5.026a10.027,10.027,0,0,0,2.226,4.508c2.924,2.842,7.594,1.148,11.766,1.354q-.345,14.881-.375,29.767l-7.016-.445-.089,1.4,7.1.451c0,1.68-.028,3.36-.025,5.041,0,2.407.228,5.228,2.253,6.53a7.3,7.3,0,0,0,3.067.867l12.18,1.57a35.7,35.7,0,0,0,8.9.332c-.019,10.372.478,20.741,1.008,31.1q.463,9.066.927,18.133l-7.905-2.915-.485,1.317,8.468,3.122.851,16.64-8.114-2.618-.43,1.336,8.621,2.781q.727,14.224,1.455,28.448l-8.147-.516-.089,1.4,8.308.527q.734,14.354,1.469,28.708c.09,1.757.312,3.765,1.754,4.773,1.216.85,2.851.654,4.313.4a143.69,143.69,0,0,0,24.3-6.474c-2.192-15.186-4.132-30.433-5.48-45.718l5.3.42.111-1.4-5.526-.438c-.678-7.9-1.207-15.814-1.507-23.733a220.49,220.49,0,0,0,30.323-5.178c1.894-.462,3.912-1.029,5.16-2.528,1.472-1.767,1.453-4.3,1.358-6.6q-.409-10.042-.819-20.083c4-.009,8-.342,11.59-2.007a6.227,6.227,0,0,0,3.055-2.529,7.6,7.6,0,0,0,.57-3.577v-.031Z" transform="translate(-248.783 -152.934)" fill="#e5e5e5"/>
            <g id="Group_33403" data-name="Group 33403" transform="translate(0 230.186)">
              <path id="Path_17459" data-name="Path 17459" d="M238.718,765.6c-.372,2.157-.7,4.547.149,6.638a5.375,5.375,0,0,0,2.007,2.474c1.057.72,2.139,1.183,2.62,2.463a6.109,6.109,0,0,1,.067,3.6c-.339,1.391-1.034,2.686-1.335,4.08-.507,2.348,1.2,3.615,3.155,4.368a12.605,12.605,0,0,1,3.092,1.366,5.342,5.342,0,0,1,2.011,3.157c.218.97,1.709.559,1.49-.411a6.875,6.875,0,0,0-4.083-4.816c-.877-.369-1.805-.62-2.667-1.023-.73-.342-1.506-.815-1.558-1.706a5.043,5.043,0,0,1,.5-1.915c.244-.665.492-1.329.694-2.008a9.2,9.2,0,0,0,.41-3.861,5.511,5.511,0,0,0-1.319-3c-.824-.909-2.061-1.266-2.9-2.143-1.674-1.745-1.216-4.71-.846-6.859.167-.973-1.322-1.391-1.49-.411Z" transform="translate(-221.645 -746.042)" fill="#e5e5e5"/>
              <path id="Path_17460" data-name="Path 17460" d="M262.141,778.287a7.386,7.386,0,0,0-1.785-7.453c-.958-.951-2.426-1.344-2.638-2.842a6.75,6.75,0,0,1,1.225-4.078,10.3,10.3,0,0,0,1.534-4.577,12.41,12.41,0,0,0-1.01-4.892c-1.139-2.946-3.173-6.117-2.6-9.415.547-3.15,4.111-4.588,4.635-7.755.161-.973-1.328-1.391-1.49-.411a6.512,6.512,0,0,1-1.919,3.224,11.482,11.482,0,0,0-2.356,3.306c-1.236,3.071.046,6.432,1.306,9.27a23.172,23.172,0,0,1,1.742,4.86,7.127,7.127,0,0,1-.752,4.825,14.17,14.17,0,0,0-1.8,4.186,4.426,4.426,0,0,0,.927,3.775c.566.61,1.368.927,1.973,1.492a5.811,5.811,0,0,1,1.517,6.075c-.318.944,1.174,1.35,1.49.411Z" transform="translate(-231.666 -729.002)" fill="#e5e5e5"/>
              <path id="Path_17461" data-name="Path 17461" d="M247.956,729l-.936,6.917c-.3,2.215-.714,4.446-.89,6.674a3.446,3.446,0,0,0,.572,2.445,2.942,2.942,0,0,0,2.24,1c.931.055,1.862-.072,2.8-.005a8.271,8.271,0,0,1,2.884.694,4.917,4.917,0,0,1,3,3.847c.143,1.952-1.08,3.709-1.51,5.557a7.6,7.6,0,0,0,.173,4.588,4.285,4.285,0,0,0,1.328,1.772,9.618,9.618,0,0,0,2.435,1.114c1.7.689,2.082,2.537,1.5,4.158-.709,1.977-2.764,3.2-4.447,4.251-.84.528-.066,1.865.78,1.334,2.881-1.808,6.231-4.372,5.329-8.248a4.119,4.119,0,0,0-1.114-2.019,6.433,6.433,0,0,0-2.416-1.246,3.367,3.367,0,0,1-2.29-3.5c0-1.834.8-3.4,1.361-5.1a6.053,6.053,0,0,0-.52-5.4,7.512,7.512,0,0,0-4.445-3.023,12,12,0,0,0-3.035-.349c-.773,0-1.853.259-2.561-.144-.894-.509-.478-2.051-.37-2.855l.537-3.971,1.092-8.07a.8.8,0,0,0-.54-.951.777.777,0,0,0-.951.54Z" transform="translate(-226.256 -724.338)" fill="#e5e5e5"/>
              <path id="Path_17462" data-name="Path 17462" d="M238.42,787.881c-3.2-.807-6.881-1.71-8.83-4.637a5.306,5.306,0,0,1-.847-4.331,15.734,15.734,0,0,1,2.36-4.559,30.134,30.134,0,0,1,3.4-4.2c1.054-1.088,2.6-2.147,2.027-3.877-.5-1.527-2.164-2.384-3.561-2.929-1.539-.6-3.181-.85-4.765-1.3a7.71,7.71,0,0,1-4.107-2.371c-1.295-1.683-.686-3.944-.721-5.894a.773.773,0,0,0-1.545,0c.034,1.921-.409,3.9.393,5.73a6.572,6.572,0,0,0,3.085,3.06,19.506,19.506,0,0,0,4.559,1.478c1.587.379,3.493.782,4.694,1.979a1.525,1.525,0,0,1,.554,1.011c-.013.4-.345.68-.607.937-.688.675-1.373,1.346-2.014,2.068a32.435,32.435,0,0,0-3.212,4.277,13.462,13.462,0,0,0-2.162,4.823,6.773,6.773,0,0,0,.928,4.542c2.108,3.549,6.209,4.735,9.963,5.68a.774.774,0,0,0,.411-1.49Z" transform="translate(-211.804 -738.924)" fill="#e5e5e5"/>
              <path id="Path_17463" data-name="Path 17463" d="M272.027,784.385a27.01,27.01,0,0,1,1.12-7.864,9.42,9.42,0,0,1,1.862-3.306,10.2,10.2,0,0,1,3.085-2.136,8.635,8.635,0,0,0,3.2-2.316,4.99,4.99,0,0,0,.736-4.047c-.616-3.072-3.343-5.41-2.84-8.727.563-3.711,3.734-6.181,6.6-8.216.8-.572.033-1.913-.78-1.334-2.675,1.9-5.393,4-6.7,7.118a8.357,8.357,0,0,0-.632,4.518,14.831,14.831,0,0,0,1.892,4.521c.708,1.344,1.46,3.069.864,4.593-.492,1.258-1.813,1.9-2.943,2.473a12.458,12.458,0,0,0-3.324,2.208,10.447,10.447,0,0,0-2.182,3.4,26.056,26.056,0,0,0-1.492,9.113c-.033.995,1.513.993,1.545,0Z" transform="translate(-240.704 -734.926)" fill="#e5e5e5"/>
              <path id="Path_17464" data-name="Path 17464" d="M275.946,794.917a3.907,3.907,0,0,0,4.172-.406,9.745,9.745,0,0,0,2.747-3.953,12.794,12.794,0,0,0,1.482-4.974,6.9,6.9,0,0,0-1.335-4.117,19.935,19.935,0,0,1-2.18-3.294,3.6,3.6,0,0,1,.909-3.891,10.471,10.471,0,0,1,3.844-2.9c1.685-.625,3.549-.219,5.3-.418a7.334,7.334,0,0,0,6.413-6.356c.055-.417-.4-.769-.773-.773a.792.792,0,0,0-.773.773,5.819,5.819,0,0,1-5.694,4.871c-1.628.06-3.313-.151-4.88.412a11.368,11.368,0,0,0-3.653,2.428,7.384,7.384,0,0,0-2.364,3.427,5.051,5.051,0,0,0,.633,3.786c.616,1.093,1.469,2.029,2.133,3.091a5.264,5.264,0,0,1,.73,4.09,17.191,17.191,0,0,1-2.112,4.993c-.742,1.235-2.256,2.73-3.815,1.878-.873-.478-1.654.857-.78,1.334Z" transform="translate(-243.718 -745.324)" fill="#e5e5e5"/>
              <path id="Path_17465" data-name="Path 17465" d="M235.592,808.588a17.933,17.933,0,0,0-.825-5.425c-.453-1.42-1.047-3.347-2.522-4.018a5.374,5.374,0,0,0-2.449-.293l-3.079.1-5.9.2c-.922.031-1.847.092-2.769.091-.339,0-.63.013-.848-.278a3.451,3.451,0,0,1-.4-1.222,10.638,10.638,0,0,1-.1-4.267,11.671,11.671,0,0,1,1.518-4.028,10.482,10.482,0,0,1,1.237-1.646c.51-.553,1.2-.975,1.663-1.554a1.391,1.391,0,0,0-.24-2.055,4.721,4.721,0,0,0-2.455-.574l-6.585-.627c-.99-.094-.983,1.452,0,1.545l5.572.53c.806.077,1.632.232,2.431.293.48.037-.087.086.059-.061-.137.138-.294.25-.443.374a11.223,11.223,0,0,0-.835.762,12.853,12.853,0,0,0-3.528,7.393,12.324,12.324,0,0,0,.173,4.14c.317,1.474.88,2.755,2.574,2.817,1.833.067,3.707-.115,5.541-.176l5.516-.184c.822-.028,2.1-.283,2.846.191a4.335,4.335,0,0,1,1.263,2.176,16.511,16.511,0,0,1,1.039,5.794.773.773,0,0,0,1.546,0Z" transform="translate(-205.497 -756.681)" fill="#e5e5e5"/>
              <path id="Path_17466" data-name="Path 17466" d="M243.39,824.483h14.149s7.529-4.543,5.582-4.673-5.452,2.337-5.452,2.337,6.88-10,5.322-10-6.827,7.957-6.827,7.957,1.784-17.084-.562-10.444-2.335,8.171-2.335,8.171-3.7-12.918-3.477-10.534.3,10.921.3,10.921-8.263-13.081-8-10.874,3.764,10.514,3.764,10.514-5.5-6.135-6.188-4.56,4.816,6.658,4.816,6.658-7.423-5.8-8.477-4.272,7.253,5.939,7.253,5.939-7.269-2.985-8.048-1.428S243.39,824.483,243.39,824.483Z" transform="translate(-219.765 -770.922)" fill="#e5e5e5"/>
              <path id="Path_17467" data-name="Path 17467" d="M204.347,782.192a2.726,2.726,0,0,1-2.726,2.726c-1.505,0-4.283-.831-4.283-2.336s2.778-3.116,4.283-3.116A2.726,2.726,0,0,1,204.347,782.192Z" transform="translate(-197.338 -754.592)" fill="#f3f3f3"/>
              <path id="Path_17468" data-name="Path 17468" d="M219.719,749.093a2.726,2.726,0,0,1-2.739-2.713c-.007-1.505.81-4.288,2.316-4.3s3.129,2.763,3.136,4.268A2.726,2.726,0,0,1,219.719,749.093Z" transform="translate(-208.984 -732.429)" fill="#f3f3f3"/>
              <path id="Path_17469" data-name="Path 17469" d="M237.172,761.68a2.726,2.726,0,0,1-1.37-3.6c.617-1.373,2.513-3.567,3.887-2.95s1.7,3.81,1.087,5.184A2.726,2.726,0,0,1,237.172,761.68Z" transform="translate(-220.001 -740.097)" fill="#f3f3f3"/>
              <path id="Path_17470" data-name="Path 17470" d="M248.144,724.89A2.726,2.726,0,0,1,247,721.207c.7-1.332,2.732-3.4,4.064-2.7s1.462,3.91.76,5.242A2.726,2.726,0,0,1,248.144,724.89Z" transform="translate(-226.598 -718.365)" fill="#f3f3f3"/>
              <path id="Path_17471" data-name="Path 17471" d="M266.412,732.917a2.726,2.726,0,0,1-3.146-2.228c-.254-1.484.1-4.362,1.581-4.616s3.539,2.213,3.793,3.7A2.726,2.726,0,0,1,266.412,732.917Z" transform="translate(-236.382 -722.925)" fill="#f3f3f3"/>
              <path id="Path_17472" data-name="Path 17472" d="M303.354,741.382a2.726,2.726,0,0,1,.456-3.828c1.183-.931,3.88-2,4.812-.813s-.257,4.166-1.44,5.1A2.726,2.726,0,0,1,303.354,741.382Z" transform="translate(-259.849 -728.95)" fill="#f3f3f3"/>
              <path id="Path_17473" data-name="Path 17473" d="M321.149,761.468a2.726,2.726,0,0,1-1.593-3.51c.53-1.409,2.285-3.718,3.694-3.188s1.939,3.7,1.41,5.106A2.726,2.726,0,0,1,321.149,761.468Z" transform="translate(-269.697 -739.903)" fill="#f3f3f3"/>
            </g>
            <path id="Path_17474" data-name="Path 17474" d="M388.724,933.993h23.258s16.04-24.861,12.03-24.861-13.634,16.842-13.634,16.842S424.813,897.1,421.6,897.1s-14.84,23.784-14.84,23.784,5.216-41.428,3.612-39.022-8.822,28.871-8.822,28.871-2.406-35.287-4.01-33.683-.8,42.505-.8,42.505-12.03-25.664-12.03-21.654,2.406,21.654,2.406,21.654-19.248-28.871-19.248-24.06,16.04,30.475,16.04,30.475-16.04-16.842-16.04-12.832S388.724,933.993,388.724,933.993Z" transform="translate(-298.448 -582.233)" fill="#e5e5e5"/>
            <g id="Group_33404" data-name="Group 33404" transform="translate(120.63 24.194)">
              <path id="Path_17475" data-name="Path 17475" d="M496.355,213.736l-.293-1.372-2.138.458q-.134.746-.269,1.492Z" transform="translate(-493.655 -212.364)" fill="#dadada"/>
            </g>
            <g id="Group_33405" data-name="Group 33405" transform="translate(148.993 76.993)">
              <path id="Path_17476" data-name="Path 17476" d="M563.891,343.351l-.392-1.291c-.06.487-.114.975-.174,1.463Z" transform="translate(-563.325 -342.06)" fill="#dadada"/>
            </g>
            <g id="Group_33406" data-name="Group 33406" transform="translate(65.433 59.422)">
              <path id="Path_17477" data-name="Path 17477" d="M358.719,328.921l0-1.792c.01-6.472.02-12.949.365-19.412a44.676,44.676,0,0,0-1.019-8.819Q358.135,313.909,358.719,328.921Z" transform="translate(-358.068 -298.899)" fill="#dadada"/>
            </g>
            <path id="Path_17478" data-name="Path 17478" d="M379.54,707.188h40.71s18.727-26.054,9.77-18.727-8.956,8.956-8.956,8.956,8.142-30.532,5.7-30.94-8.956,27.683-8.956,27.683,4.786-25.049,1.579-24.737-7.658,17.536-7.658,17.536-8.17-33.1-11.019-29.437,0,34.2,0,34.2-12.213-28.5-13.841-22.8,4.885,25.647,4.885,25.647-21.576-22.391-21.169-19.134,13.491,20.414,13.491,20.414-17.155-17.564-19.6-14.307,13.841,17.1,13.841,17.1-9.363-6.921-8.549-3.664S379.54,707.188,379.54,707.188Z" transform="translate(-296.287 -451.937)" fill="#dadada"/>
            <line id="Line_2959" data-name="Line 2959" x2="18.319" transform="translate(22.595 222.276)" fill="none" stroke="#e5e5e5" stroke-miterlimit="10" stroke-width="2"/>
            <path id="Path_17479" data-name="Path 17479" d="M748.457,730.411a37.377,37.377,0,0,1,17.749-.2" transform="translate(-524.097 -494.626)" fill="none" stroke="#e5e5e5" stroke-miterlimit="10" stroke-width="2"/>
            <path id="Path_17480" data-name="Path 17480" d="M620.363,770.833c-10.267-.892-20.445-1.706-30.69.7" transform="translate(-429.954 -518.761)" fill="none" stroke="#e5e5e5" stroke-miterlimit="10" stroke-width="2"/>
          </g>
        </g>
        <path id="Path_17481" data-name="Path 17481" d="M871.9,475.457s-13.93,4.115-15.153,2.542-2.386-11.079-1.069-12.963a8.894,8.894,0,0,1,3.4-2.77S880.752,471.962,871.9,475.457Z" transform="translate(-577.758 -336.337)" fill="#ffac43"/>
      </g>
      <ellipse id="Ellipse_3222" data-name="Ellipse 3222" cx="1.653" cy="2.645" rx="1.653" ry="2.645" transform="matrix(0.997, -0.079, 0.079, 0.997, 371.458, 96.368)" fill="#ffac43"/>
    </g>
    <path id="Path_17482" data-name="Path 17482" d="M326.021,964.985s-6.921-10.585-20.762-4.071,3.257,4.478,7.328,4.478S328.871,971.092,326.021,964.985Z" transform="translate(-76.128 -477.796)" fill="#f7f7f7"/>
    <path id="Path_17483" data-name="Path 17483" d="M184.758,915.786s26.869-5.7,39.9,1.221,2.85,13.434-9.363,15.47-17.912-3.257-26.869-3.257S157.482,921.486,184.758,915.786Z" transform="translate(0 -450.988)" fill="#f7f7f7"/>
    <path id="Path_17484" data-name="Path 17484" d="M244.557,970.924c-5.4.541-10.585,2.443-7.735,4.071s20.762,1.628,17.505-.407S248.628,970.517,244.557,970.924Z" transform="translate(-38.223 -484.956)" fill="#f7f7f7"/>
  </g>
</svg>
