<svg xmlns="http://www.w3.org/2000/svg" xmlns:xlink="http://www.w3.org/1999/xlink" width="398.446" height="336" viewBox="0 0 398.446 336">
  <defs>
    <clipPath id="clip-path">
      <path id="Path_16989" data-name="Path 16989" d="M638.961,429.83c.948-16.924-3.207-42.8-9.072-67.353-6.461-26.822-14.2-48.8-22.268-63.717A131.165,131.165,0,0,0,594.189,278.4c-4.558-5.649-9.152-10.134-14.134-13.158a30.16,30.16,0,0,0-16.12-4.543c-5.9.022-12.519,1.81-19.656,4.108-7.305,2.369-15.1,5.215-22.926,7.112a121.37,121.37,0,0,1-23.428,2.978c-15.721.7-31.387-.2-48.462,3.935-17.233,4.159-35.412,13.853-51.912,25.475-14.368,10.094-28.964,22.872-38.865,39.8-9.931,16.811-14.364,37-9.552,58.1,1.705,10.384,14.8,39.755,26.139,62.1,7.084,14.258,13.535,26.218,19.43,31.935,8.7,9.393,16.323,7.614,27.7,5.353a261.534,261.534,0,0,1,39.664-6.162c14.473-1.148,28.427-1.48,40.492-3.836A103.347,103.347,0,0,0,534.5,479.965c9.094-4.841,18.212-10.814,27.507-14.993a95.066,95.066,0,0,1,27.251-8c17.227-2.084,30.6-.665,30.867-.993C630.466,455.642,638.1,448.922,638.961,429.83Z" transform="translate(-347.184 -260.701)" fill="none"/>
    </clipPath>
  </defs>
  <g id="Group_33248" data-name="Group 33248" transform="translate(-128.552 -91.252)">
    <path id="Path_16879" data-name="Path 16879" d="M638.961,429.83c.948-16.924-3.207-42.8-9.072-67.353-6.461-26.822-14.2-48.8-22.268-63.717A131.165,131.165,0,0,0,594.189,278.4c-4.558-5.649-9.152-10.134-14.134-13.158a30.16,30.16,0,0,0-16.12-4.543c-5.9.022-12.519,1.81-19.656,4.108-7.305,2.369-15.1,5.215-22.926,7.112a121.37,121.37,0,0,1-23.428,2.978c-15.721.7-31.387-.2-48.462,3.935-17.233,4.159-35.412,13.853-51.912,25.475-14.368,10.094-28.964,22.872-38.865,39.8-9.931,16.811-14.364,37-9.552,58.1,1.705,10.384,14.8,39.755,26.139,62.1,7.084,14.258,13.535,26.218,19.43,31.935,8.7,9.393,16.323,7.614,27.7,5.353a261.534,261.534,0,0,1,39.664-6.162c14.473-1.148,28.427-1.48,40.492-3.836A103.347,103.347,0,0,0,534.5,479.965c9.094-4.841,18.212-10.814,27.507-14.993a95.066,95.066,0,0,1,27.251-8c17.227-2.084,30.6-.665,30.867-.993C630.466,455.642,638.1,448.922,638.961,429.83Z" transform="translate(-146.147 -113.27)" fill="#f9f9f9"/>
    <g id="Group_33178" data-name="Group 33178" transform="translate(286.118 93.516)">
      <path id="Path_16880" data-name="Path 16880" d="M675.753,147.436l6.4,2.968q6.786,3.148,13.742,5.91l55.6,22.075h0a.984.984,0,0,0,1.277-.551l19.966-50.287a.983.983,0,0,0-.551-1.277h0l-62.553-24.836-7.562-3a4.982,4.982,0,0,0-6.469,2.792L685.51,126.633A4.982,4.982,0,0,0,688.3,133.1l7.562,3-1.876,4.724L680.2,136.236Zm28.893-42.509,3.107,1.234-10.013,25.22-3.107-1.234a4.982,4.982,0,0,1-2.792-6.469l6.336-15.959A4.982,4.982,0,0,1,704.646,104.928Z" transform="translate(-651.901 -98.082)" fill="#f9f9f9"/>
      <ellipse id="Ellipse_3104" data-name="Ellipse 3104" cx="6.185" cy="1.659" rx="6.185" ry="1.659" transform="translate(22.759 49.128) rotate(-72.927)" fill="#b6b6b6"/>
      <rect id="Rectangle_11172" data-name="Rectangle 11172" width="17.133" height="8.198" rx="4.099" transform="translate(18.892 9.155) rotate(148.489)" fill="#24c1a1"/>
      <path id="Path_16881" data-name="Path 16881" d="M812.128,182.906h0a.983.983,0,0,1,.551,1.277L792.714,234.47a.984.984,0,0,1-1.277.551h0l-55.925-22.2,54.138-25.65A45.331,45.331,0,0,1,812.128,182.906Z" transform="translate(-691.847 -154.714)" fill="#24c1a1"/>
      <path id="Path_16882" data-name="Path 16882" d="M783.523,164.2l34.747,13.8h0a.562.562,0,0,1,.387.683l-9.983,25.143a.561.561,0,0,1-.75.232h0l-34.747-13.8Z" transform="translate(-717.026 -142.279)" fill="#ededed"/>
    </g>
    <g id="Group_33201" data-name="Group 33201" transform="translate(158.588 153.39)">
      <path id="Path_16883" data-name="Path 16883" d="M403.947,546.621l-35.592-25.536-49.8-44.054L249.9,425.965l-27.825-40.184,7.851-33.848L277.13,281.6,459.571,390.418l38.2,35.008Z" transform="translate(-221.102 -280.627)" fill="#aab9d4"/>
      <path id="Path_16884" data-name="Path 16884" d="M433.2,509.195l-32.081-30.312c-4.4-3.666-10.78-3.265-14.243.894L362.434,511.12a9.348,9.348,0,0,0-2.076,4.708,10.57,10.57,0,0,0,5.093,10.273l36.77,22.7c4.4,3.665,10.78,3.265,14.243-.894L434.9,523.364C438.368,519.2,437.606,512.86,433.2,509.195Z" transform="translate(-313.481 -410.83)" fill="#bbc7dd"/>
      <ellipse id="Ellipse_3105" data-name="Ellipse 3105" cx="6.155" cy="1.99" rx="6.155" ry="1.99" transform="matrix(0.692, -0.721, 0.721, 0.692, 64.773, 95.201)" fill="#d9d9d9"/>
      <path id="Path_16885" data-name="Path 16885" d="M401.011,534.586a2.173,2.173,0,0,0-.412-.272l.4.276Z" transform="translate(-340.441 -449.56)"/>
      <g id="Group_33187" data-name="Group 33187" transform="translate(103.914 107.337)">
        <g id="Group_33182" data-name="Group 33182" transform="translate(0 16.308)">
          <path id="Path_16886" data-name="Path 16886" d="M688.092,856q1.152-.985,2.26-2.019l.017-.016a35.909,35.909,0,0,1,2-3.12c-.757-1.421-2.843-2.637-3.407-5.172-6.573-29.528-20.222-31-20.222-31s-8.5-7.183-5.082,7.571c1.5,6.477,3.2,17.726,9.512,21.549C677.813,846.6,684.74,852.871,688.092,856Z" transform="translate(-619.661 -759.447)" fill="#fff"/>
          <path id="Path_16887" data-name="Path 16887" d="M733.213,920.591a28.308,28.308,0,0,0-3.532-6c-2.349,1.464-4.682,2.955-6.981,4.5,3.012,2.617,5.627,5.075,6.758,6.152A41.264,41.264,0,0,1,733.213,920.591Z" transform="translate(-659.668 -827.404)" fill="#ffac43"/>
          <path id="Path_16888" data-name="Path 16888" d="M746.848,965.837s-7.814-8.139-7.495-12.975,4.138-9.818,4.138-9.818l-.981-2.389,5.313-7.4s10.831,1.982,13.142,3.64,3.648,2.446,3.648,2.446Z" transform="translate(-670.793 -839.878)" fill="#fff"/>
          <rect id="Rectangle_11173" data-name="Rectangle 11173" width="32.045" height="5.973" transform="matrix(0.583, -0.813, 0.813, 0.583, 74.959, 125.535)" fill="#b6b6b6"/>
          <g id="Group_33181" data-name="Group 33181" transform="translate(71.22 99.505)">
            <g id="Group_33179" data-name="Group 33179" transform="translate(0 3.825)">
              <path id="Path_16889" data-name="Path 16889" d="M747.566,963.368c2.462.036,5.116,0,7.958-.081.3-.01.339.448.037.457-2.836.078-5.487.107-7.945.07-.259-.005-.31-.45-.05-.446Z" transform="translate(-747.394 -963.286)" fill="#b6b6b6"/>
            </g>
            <g id="Group_33180" data-name="Group 33180" transform="translate(2.396)">
              <path id="Path_16890" data-name="Path 16890" d="M755.056,951.948c.22,2.3.55,4.747.969,7.3.121.738.252,1.484.389,2.237.054.307-.353.437-.408.129-.473-2.647-.87-5.2-1.161-7.614q-.126-1.042-.223-2.047c-.027-.268.408-.278.434-.008Z" transform="translate(-754.62 -951.749)" fill="#b6b6b6"/>
            </g>
          </g>
          <path id="Path_16891" data-name="Path 16891" d="M544.847,651.7c-5.464-1.455-17.36,16.756-9.857,24.557,11.229,11.674,11.386,22.6,20.871,28a31.217,31.217,0,0,0,8.915,3.453,8.236,8.236,0,0,1,5.791,6.034,8.555,8.555,0,0,0,3.385,4.578c3.127,2.244,6.89,2.351,8.4.24a4.073,4.073,0,0,0,.315-3.793c3.549-3.222,4.476-12.544-11.908-32.747C556.608,664.568,551.138,653.375,544.847,651.7Z" transform="translate(-532.578 -651.618)" fill="#fff"/>
        </g>
        <g id="Group_33186" data-name="Group 33186" transform="translate(10.664)">
          <path id="Path_16892" data-name="Path 16892" d="M798.632,697.1c-.376.938-.77,1.869-1.188,2.789l-.01.022a35.879,35.879,0,0,0-2.314,2.9c-1.589-.261-3.409-1.848-5.991-1.57-30.077,3.232-35.843-9.226-35.843-9.226s-9.528-5.75,5.544-7.239c6.617-.653,17.815-2.652,23.461,2.107C786.437,690.375,794.593,694.929,798.632,697.1Z" transform="translate(-688.791 -656.82)" fill="#fff"/>
          <path id="Path_16893" data-name="Path 16893" d="M877.625,722.687a28.3,28.3,0,0,1-6.818-1.422c.635-2.694,1.3-5.382,2.027-8.055,3.444,2.015,6.61,3.7,7.993,4.431A41.292,41.292,0,0,0,877.625,722.687Z" transform="translate(-769.335 -676.482)" fill="#ffac43"/>
          <path id="Path_16894" data-name="Path 16894" d="M925.822,710.507s-10.213-4.795-14.693-2.943-7.975,7.065-7.975,7.065l-2.578-.164-5.313,7.405s5.347,9.625,7.658,11.284,3.485,2.672,3.485,2.672Z" transform="translate(-785.684 -672.424)" fill="#fff"/>
          <rect id="Rectangle_11174" data-name="Rectangle 11174" width="32.045" height="5.973" transform="matrix(-0.583, 0.813, -0.813, -0.583, 144.239, 40.663)" fill="#b6b6b6"/>
          <g id="Group_33185" data-name="Group 33185" transform="translate(114.349 40.652)">
            <g id="Group_33183" data-name="Group 33183" transform="translate(2.925)">
              <path id="Path_16895" data-name="Path 16895" d="M918.479,725.282q1.233,3.481,2.472,7.564c.087.287.533.178.445-.111q-1.252-4.068-2.479-7.549c-.088-.243-.525-.149-.438.1Z" transform="translate(-918.468 -725.045)" fill="#b6b6b6"/>
            </g>
            <g id="Group_33184" data-name="Group 33184" transform="translate(0 1.744)">
              <path id="Path_16896" data-name="Path 16896" d="M909.922,732.506c2.247-.527,4.673-1,7.229-1.421.738-.122,1.487-.237,2.244-.348.308-.047.3-.475-.009-.428-2.659.4-5.209.843-7.585,1.339q-1.027.215-2.011.444c-.262.06-.133.475.132.414Z" transform="translate(-909.646 -730.305)" fill="#b6b6b6"/>
            </g>
          </g>
          <path id="Path_16897" data-name="Path 16897" d="M565.2,620.414c-3.129-4.71,10.312-21.813,20.106-17.2,14.656,6.9,25.06,3.545,33.21,10.8a31.215,31.215,0,0,1,6.127,7.339,8.237,8.237,0,0,0,7.571,3.553,8.555,8.555,0,0,1,5.421,1.74c3.127,2.244,4.435,5.774,2.92,7.885a4.075,4.075,0,0,1-3.493,1.513c-1.915,4.394-10.449,8.259-34.835-.789C581.161,627.433,568.807,625.837,565.2,620.414Z" transform="translate(-564.742 -602.429)" fill="#fff"/>
        </g>
      </g>
      <path id="Path_16898" data-name="Path 16898" d="M553.559,598.359c-.434-.1-.88-.194-1.334-.271a15.516,15.516,0,0,0-15.45,5.891l-11.243,15.67a15.377,15.377,0,0,0-.825,16.146c.279.537.573,1.057.882,1.55,1.81,2.883,11.265,8.029,16.626,2.764,3.488-3.426,8.838-8.274,11.358-12.213,2.924-3.649,5.8-10.271,7.931-14.673C564.773,606.459,556.869,599.15,553.559,598.359Z" transform="translate(-422.138 -492.019)" fill="#fff"/>
      <path id="Path_16899" data-name="Path 16899" d="M411.384,482.8c-4.644,3.069-13.815,18.747-17.135,24.164-4.289,5.022-15.264,17.971-16.6,23.02-1.672,6.339,52,19.528,52,19.528l16.886-23.7S416.854,479.181,411.384,482.8Z" transform="translate(-325.077 -414.988)" fill="#fff"/>
      <g id="Group_33192" data-name="Group 33192" transform="translate(46.185 61.294)">
        <g id="Group_33189" data-name="Group 33189" transform="translate(0 44.34)">
          <g id="Group_33188" data-name="Group 33188" transform="translate(26.452 35.652)">
            <path id="Path_16900" data-name="Path 16900" d="M473.407,751.578s-27.873-13.446-29.946-17.442,18.016-5.254,18.016-5.254,7.943,9.872,11.179,16.117,6.319,6.076,6.319,6.076a24.878,24.878,0,0,0-1.135,7.073c.173,2.9,3.424,4.955,4.621,5.28s-.636,1.337-2.835.069S472.432,754,473.407,751.578Z" transform="translate(-441.63 -720.909)" fill="#ffac43"/>
            <path id="Path_16901" data-name="Path 16901" d="M537.574,791.569l-2.929-2.845c-.358-1.21,5.542,2.123,5.633,2.291.428.793,1.623,3.026,2.364,4.586a5.763,5.763,0,0,0,1.769,2.437s-.862.325-2.446-1.083-3.82-3.973-3.82-3.973Z" transform="translate(-502.672 -760.734)" fill="#ffac43"/>
            <path id="Path_16902" data-name="Path 16902" d="M466.5,724.293c-1.564-2.386-3.368-5.323-4.919-7.9a24.1,24.1,0,0,0-14.543-11.005c-6.182-1.615-11.815-.384-6.967,12.67.892,2.4,10.608,7.548,18.579,11.713A38.656,38.656,0,0,1,466.5,724.293Z" transform="translate(-438.241 -704.831)" fill="#fff"/>
          </g>
          <path id="Path_16903" data-name="Path 16903" d="M373.242,597.295l-14.787,6.89s3.707,8.449,54.91,21.3Z" transform="translate(-358.455 -597.295)" fill="#edf0f5"/>
          <path id="Path_16904" data-name="Path 16904" d="M368.242,614.905a31.564,31.564,0,0,0-1.3,4.655c-1.062,4.979.751,11.095,5.012,16.877,5.265,7.146,12.569,16.408,16.737,18.875,1.338.792,2.265,3.146,3.238,3.714,2.241,1.307,4.484-1.348,3.72-3.364-3.325-8.776-3.18-34.008-8.435-39.091C376.027,605.753,368.844,613.358,368.242,614.905Z" transform="translate(-363.927 -606.366)" fill="#fff"/>
        </g>
        <g id="Group_33191" data-name="Group 33191" transform="translate(24.736)">
          <g id="Group_33190" data-name="Group 33190" transform="translate(48.02 14.627)">
            <path id="Path_16905" data-name="Path 16905" d="M636.3,530.48s-21.667-22.1-26.116-22.78.794,18.749.794,18.749,11.9,4.362,18.849,5.427,7.781,4.039,7.781,4.039a24.876,24.876,0,0,1,6.336-3.341c2.8-.764,5.791,1.656,6.482,2.686s1.063-1.03-.842-2.708S638.283,528.781,636.3,530.48Z" transform="translate(-598.287 -507.679)" fill="#ffac43"/>
            <path id="Path_16906" data-name="Path 16906" d="M688.327,581.456l-3.633-1.863c-1.261.048,3.787,4.57,3.974,4.6.888.151,3.386.568,5.1.771a5.762,5.762,0,0,1,2.875.895s.032-.921-1.81-1.97-4.987-2.346-4.987-2.346Z" transform="translate(-649.153 -555.748)" fill="#ffac43"/>
            <path id="Path_16907" data-name="Path 16907" d="M604.176,530.732c-2.762-.717-6.121-1.486-9.059-2.129a24.1,24.1,0,0,1-15.084-10.251c-3.51-5.339-4.149-11.069,9.771-10.659,2.563.076,10.549,7.631,17.047,13.847A38.657,38.657,0,0,0,604.176,530.732Z" transform="translate(-577.903 -507.672)" fill="#fff"/>
          </g>
          <path id="Path_16908" data-name="Path 16908" d="M461.092,483.71l1.79-16.215s9.192.806,37.772,45.191Z" transform="translate(-451.8 -466.189)" fill="#edf0f5"/>
          <path id="Path_16909" data-name="Path 16909" d="M471.569,468.42a31.6,31.6,0,0,1,3.992-2.727c4.376-2.6,10.75-2.842,17.594-.658,8.456,2.7,19.569,6.65,23.242,9.808,1.18,1.014,3.706,1.138,4.556,1.878,1.956,1.7.159,4.68-2,4.6-9.379-.339-33.235,7.882-39.733,4.532C465.393,478.727,470.3,469.487,471.569,468.42Z" transform="translate(-457.542 -463.554)" fill="#fff"/>
          <path id="Path_16910" data-name="Path 16910" d="M433.064,488.45l11.069-21.015,37.786,45.211Z" transform="translate(-433.064 -466.149)" fill="#fff"/>
        </g>
      </g>
      <path id="Path_16911" data-name="Path 16911" d="M419.471,534.782a5.175,5.175,0,0,1-.148,1.5c-.362,1.392-4.764,7.536-5.977,8.331a5.19,5.19,0,0,1-1.373.62l16.417,3.847Z" transform="translate(-348.045 -449.873)" fill="#ffac43"/>
      <path id="Path_16912" data-name="Path 16912" d="M370.526,512.691" transform="translate(-320.339 -435.106)" fill="#dce2ed"/>
      <circle id="Ellipse_3106" data-name="Ellipse 3106" cx="17.881" cy="17.881" r="17.881" transform="translate(38.648 64.254)" fill="#a9b8d3"/>
      <g id="Group_33194" data-name="Group 33194" transform="translate(49.797 74.709)">
        <g id="Group_33193" data-name="Group 33193" transform="translate(2.048 2.81)">
          <path id="Path_16913" data-name="Path 16913" d="M385.574,512.492l1.36,3.147c-.285-.661,10.881,4.5,10.881,4.5l-9.629,12.286L382,524.036l-5.041-1.286a11.074,11.074,0,0,1-1.309-3.463c-.005-.032-.064-.025-.079-.029a1.785,1.785,0,0,0,1.2-.6,13.683,13.683,0,0,0,2.941-4.418C380.372,512.761,385.574,512.492,385.574,512.492Z" transform="translate(-375.526 -512.492)" fill="#ffac43"/>
        </g>
        <path id="Path_16914" data-name="Path 16914" d="M379.637,504.807a10.823,10.823,0,0,0-4.015-.682.453.453,0,0,0-.529-.046,2.91,2.91,0,0,0-1.61,1.74c-.171.239.031,1.47-.447,1.127s-1.334.852-2.191,2.046a14.281,14.281,0,0,0-1.5,3.682c-.013.811,2.059,2.919,2.406,3.121.5.29,1.257,1.844,1.807,2.02a7.641,7.641,0,0,1,2.8,1.646c1.1,1.055,2.56,1.475,3.139,1.078l-1.462-2.135c.212.2.423.4.641.593,1.539,1.349,3.763,2.407,4.692,1.552a21.766,21.766,0,0,1,3.9-2.671s-1.47.031-.189-2.029a2.172,2.172,0,0,0,.348-.954c.114-1.257-1.2-2.922-2.973-3.947-.2-.118-.414-.23-.625-.341l2.327.655c.748-1.417-.493-1.677-1.844-2.378-.967-.5-1-1.074-1.568-1.849C382.4,506.57,380.072,505.187,379.637,504.807Zm1.981,3.568c.761.73,1.237,1.47,1.062,1.653-.11.115-.454-.02-.884-.319.736.929,1.7,1.867,1.833,2.752a1.8,1.8,0,0,1-.059.728,22.493,22.493,0,0,1-3.052,4.255,1.807,1.807,0,0,1-.671.29,6.007,6.007,0,0,1-2.763-.694c.184.183.271.337.223.43-.117.224-.97.011-1.906-.477s-1.6-1.064-1.483-1.288.97-.011,1.905.477l.012.006.6-.385-2.355-1.233s-1.329-1.677-1.321-1.578c.062-.053.143-.126.239-.219a16.358,16.358,0,0,1,2.079-1.105c.9-.338.78-.8.248-.982,1.476-1.313,1.958-2.219,1.929-2.859a2.2,2.2,0,0,0,.86.112l2.572,1.94.227-.912c-.719-.707-1.16-1.406-.991-1.582S380.856,507.645,381.618,508.375Z" transform="translate(-369.348 -504.017)"/>
      </g>
      <path id="Path_16915" data-name="Path 16915" d="M341.218,503.262a17.881,17.881,0,1,0-.518-25.282A17.881,17.881,0,0,0,341.218,503.262Zm1.371-11.276c-.749-2.02,5.043-11.359,9.278-12.605,1.944-.573,17.229,10.232,16.339,12.65-1.079,2.93-7.565,12.905-10.269,12.7C355.3,504.534,343.36,494.062,342.589,491.985Z" transform="translate(-297.072 -408.227)" fill="#fff"/>
      <g id="Group_33197" data-name="Group 33197" transform="translate(41.648 63.839)">
        <g id="Group_33195" data-name="Group 33195" transform="translate(21.131)">
          <path id="Path_16916" data-name="Path 16916" d="M409.021,472.466c-.067.089-.285.4-.343.478-.762,1.007,1.114,2.612,3.555,4.47s4.524,3.264,5.285,2.257c.066-.087.285-.4.342-.478.762-1.007-.6-3.328-3.041-5.186S409.783,471.459,409.021,472.466Z" transform="translate(-408.507 -471.747)" fill="#fff"/>
          <path id="Path_16917" data-name="Path 16917" d="M416.191,473.349c2.4,1.827,3.831,3.991,3.195,4.832s-2.586-.674-4.987-2.5-4.346-3.274-3.709-4.116S413.789,471.522,416.191,473.349Z" transform="translate(-409.884 -471.229)" fill="#dce2ed"/>
        </g>
        <g id="Group_33196" data-name="Group 33196" transform="translate(0 29.478)">
          <path id="Path_16918" data-name="Path 16918" d="M351.328,562.458c-2.542-1.717-4.663-2.98-5.373-1.936-.054.08-.28.386-.343.478-.709,1.044.776,3.282,3.317,5s5.178,2.263,5.887,1.219c.054-.079.281-.387.343-.478C355.869,565.7,353.869,564.175,351.328,562.458Z" transform="translate(-345.214 -560.142)" fill="#dce2ed"/>
          <path id="Path_16919" data-name="Path 16919" d="M348.349,568.025c2.5,1.69,5.008,2.351,5.6,1.478s-1.467-2.234-3.967-3.923-4.494-3.068-5.087-2.195S345.848,566.335,348.349,568.025Z" transform="translate(-344.769 -562.13)" fill="#fff"/>
        </g>
      </g>
      <path id="Path_16920" data-name="Path 16920" d="M538.384,610.8l-8.461,11.887a11.882,11.882,0,0,1-9.326,4.868c5.191,1.687,10.338.4,12.954-3.275l7.5-10.546c2.6-3.656,2.154-8.912-1.091-13.261A11.893,11.893,0,0,1,538.384,610.8Z" transform="translate(-420.656 -493.781)" fill="#edf0f5"/>
      <g id="Group_33198" data-name="Group 33198" transform="translate(78.998 95.007)">
        <path id="Path_16921" data-name="Path 16921" d="M470.721,576.793c1.781-2.454,3.588-4.89,5.327-7.373.428-.611.783-.613,1.439-.267a14.767,14.767,0,0,1,8.318,12,12.308,12.308,0,0,1-.943,5.559c-.288.8-1.189,1.089-1.877,1.5-5.471,3.3-12.711,2.165-17.476-2.68-.492-.5-.576-.835-.156-1.4,1.819-2.426,3.579-4.9,5.361-7.349Zm4.664,6.348a9.771,9.771,0,0,1,.915,3.618c.022.228-.238.623.249.654.342.022.7-.02.844-.476.784-2.417-1.1-6.057-3.638-6.974a3.214,3.214,0,0,0-4.329,3.315,3,3,0,0,0,1.8,2.367,2.548,2.548,0,0,0,2.79-.23A3.278,3.278,0,0,0,475.386,583.141Zm-.785-8.094c-.382.525-.741,1.069-1.151,1.571-.344.42-.248.7.213,1.01.818.558,1.6,1.164,2.41,1.738s1.011.479,1.147-.452a2.153,2.153,0,0,1,1.378-1.878,1.98,1.98,0,0,1,1.966.6,1.8,1.8,0,0,1-.025,2.993,2.907,2.907,0,0,1-.774.455c-.536.2-.306.516-.149.865.2.45.476.427.815.232a4.523,4.523,0,0,0,1.971-2.207c.7-1.672.008-3.254-1.832-4.2a2.55,2.55,0,0,0-3.714,1.243c-.431.908-.75.6-1.359.18-.589-.407-.594-.712-.2-1.186.483-.583.89-1.226,1.349-1.829.24-.316.251-.544-.135-.824-.41-.3-.6-.13-.814.172C475.338,574.043,474.965,574.542,474.6,575.046Z" transform="translate(-462.544 -567.7)" fill="#edf0f5"/>
        <path id="Path_16922" data-name="Path 16922" d="M464.965,573.943q-2.6,3.58-5.2,7.159c-.516.709-.54.7-1.049-.105-.107-.171-.2-.347-.3-.521-1.374-2.352-1.365-2.344.342-4.163a11.939,11.939,0,0,0,2.81-4.517.932.932,0,0,1,.357-.522,11.7,11.7,0,0,0,4.125-5.422.834.834,0,0,1,1-.6,21.42,21.42,0,0,1,2.872.536c.623.145.738.361.356.877-1.785,2.415-3.538,4.854-5.3,7.284Zm-.66-.259a9.893,9.893,0,0,1-1.4-1.025c-.2-.223-.547-.062-.734.161-.148.176-.423.409-.168.633a5.207,5.207,0,0,0,1.686,1.143c.053-.425-.593-.486-.4-.83C463.517,573.351,463.962,574.048,464.305,573.684Zm-3.535,3.348c-.482-.061-.842-.112-1.2-.15-.14-.015-.292-.01-.355.141-.052.124.039.212.132.28.493.362.988.719,1.6,1.166-.077-.659-.651-.68-.8-1.127.42.042.807.088,1.195.119.271.022.531-.086.24-.346a6.054,6.054,0,0,0-1.744-1.177C460.016,576.52,460.482,576.581,460.771,577.032Zm6.259-6.749a8.222,8.222,0,0,0-2.064-.878c-.262-.092-.483.077-.286.365a6.81,6.81,0,0,0,1.414,1.7C465.766,570.312,465.775,570.3,467.03,570.282Zm-4.564,4.079c-.346-.067-.433.445-.785.169s.241-.519-.05-.838c-.278.216-.68.512-.463.8a2.914,2.914,0,0,0,1.652,1.162c.364.076.546-.376.577-.765-.416-.108-.455.582-.9.236C462.152,574.862,462.58,574.637,462.466,574.361Zm4.081-7.475c-.241.287-.714.52-.394.868a2.964,2.964,0,0,0,1.689,1.1c.243.029.514-.383.5-.762-.416-.107-.426.485-.837.277-.479-.243.065-.576-.1-.825-.339-.076-.415.444-.767.187S466.77,567.254,466.547,566.886Zm-6.49,8.96c1.054-.489,1.436.7,2.268.674-.253-.793-1.505-.792-1.368-1.824A2.524,2.524,0,0,0,460.057,575.846Zm4.365-2.445c.5-.129.672-.413.524-.849a.646.646,0,0,0-.894-.44c-.786.333-.89-.022-.677-.746-.5.271-.606.585-.379.959s.571.339.914.231c.2-.064.42-.238.622-.018s-.019.4-.112.586C464.391,573.18,464.418,573.267,464.422,573.4Zm2.892-3.667c-.494-.748-1.541-.84-1.457-1.892a2.728,2.728,0,0,0-.775,1.138C466,568.537,466.4,569.692,467.314,569.734Zm-3.857,1.472c.967-.523,1.372.592,2.2.706-.353-.785-1.605-.8-1.309-1.982A3.556,3.556,0,0,0,463.457,571.206Zm-4.6,6.439a3.8,3.8,0,0,0,1.638,1.167A3.084,3.084,0,0,0,458.862,577.645Z" transform="translate(-457.424 -565.241)" fill="#edf0f5"/>
        <path id="Path_16923" data-name="Path 16923" d="M482.853,608.4a1.543,1.543,0,0,1-.533-2.315q.968-1.363,2.475-.269a1.474,1.474,0,0,1,.486,2.3A1.59,1.59,0,0,1,482.853,608.4Z" transform="translate(-473.85 -592.039)" fill="#edf0f5"/>
      </g>
      <path id="Path_16924" data-name="Path 16924" d="M369.853,614.905a23.905,23.905,0,0,0-.8,2.539c1.341-2.079,8.3-8.1,18.774,2.031,2.986,2.888,4.228,12.282,5.354,21.466a15.82,15.82,0,0,0,1.972,4.757c-1.533-10.948-2.491-25.412-6.329-29.126C377.638,605.753,370.455,613.358,369.853,614.905Z" transform="translate(-319.353 -500.732)" fill="#edf0f5"/>
      <path id="Path_16925" data-name="Path 16925" d="M617.008,508.645a35.087,35.087,0,0,1,2.511,2.628c3.563,2.591,8.689,7.438,13.165,11.718q.153-.4.307-.8C627.224,516.674,620.288,510.107,617.008,508.645Z" transform="translate(-485.102 -432.401)" fill="#edf0f5"/>
      <path id="Path_16926" data-name="Path 16926" d="M371.962,614.592a1.574,1.574,0,0,1,.395.2c3.917,2.746,8.437,4.515,12.716,6.608,1.953.955,7.033,3.43,8.876,4.391.83.432-.929-1.765,0-1.7-.8-3.456-1.8-6.186-3.185-7.522C380.209,606.357,373.219,612.563,371.962,614.592Z" transform="translate(-321.298 -500.731)" fill="#edf0f5"/>
      <path id="Path_16927" data-name="Path 16927" d="M374.746,566.125l-16.361,17.218,54.933,21.311Z" transform="translate(-312.223 -470.825)" fill="#fff"/>
      <path id="Path_16928" data-name="Path 16928" d="M222.071,385.781l7.851-33.848L277.13,281.6l-8.155,42.634Z" transform="translate(-221.102 -280.627)" fill="#bbc7dd"/>
      <path id="Path_16929" data-name="Path 16929" d="M515.168,396.83l-33.909-29.394-49.467-25.36L363.546,324.23,371.7,281.6,554.141,390.418l38.2,35.008Z" transform="translate(-315.672 -280.627)" fill="#9aabcc"/>
      <path id="Path_16930" data-name="Path 16930" d="M402.018,545.318,384.06,532.938c-6.03-4.173-12.108-8.366-18.173-12.615-.019-.013-.037-.028-.054-.042l-.016-.014L353.241,509.4l-12.548-10.9-12.536-10.918L315.645,476.63l.094.077-8.616-6.337-8.6-6.361-17.2-12.722-17.159-12.772-17.1-12.851-.016-.012a1.433,1.433,0,0,1-.314-.33L233.007,405.1l-13.686-20.249-.012-.018a.951.951,0,0,1-.135-.753l4.1-16.883,2.044-8.443,2.017-8.45,0-.008a.631.631,0,0,1,.091-.207l5.957-8.755,5.931-8.772,11.8-17.584,11.752-17.618,11.7-17.655a.727.727,0,0,1,.971-.227l.011.007,45.862,26.783,22.92,13.41,22.88,13.478,45.715,27.029,22.845,13.537,22.811,13.593h0a1.945,1.945,0,0,1,.306.228l19.076,17.532L497,422.66l.014.012a1.741,1.741,0,0,1,.188,2.345l-23.826,30.366-23.863,30.2L425.7,515.577Zm-.051-.349,46.334-61.46,23.05-30.4,23.088-30.232.2,2.357-19.171-17.428-19.127-17.476.308.229-22.8-13.613-22.766-13.669-45.5-27.382L342.85,322.169l-22.69-13.8L274.8,280.746l.982-.22-11.908,17.513-11.852,17.551-11.8,17.584-5.871,8.813-5.845,8.829.093-.215-1.909,8.474-1.881,8.481-3.749,16.965-.147-.77,14.14,19.935,14.095,19.966-.33-.342,17.227,12.682,17.168,12.761,17.13,12.811,8.565,6.406,8.547,6.43.013.009c.028.021.056.045.082.067l12.39,11.083,12.366,11.109,12.354,11.123,12.326,11.155-.07-.056c5.8,4.263,11.586,8.582,17.419,12.921Z" transform="translate(-219.148 -279.149)" fill="#ccd5e5"/>
      <path id="Path_16931" data-name="Path 16931" d="M221.845,383.989c.557-2.646,1.08-5.349,1.587-8.124l.743-4.2.747-4.308c.491-2.9,1.048-5.863,1.606-8.823s1.2-5.93,1.827-8.877a1.288,1.288,0,0,1,.174-.428l.034-.053q1.429-2.229,2.889-4.438l2.914-4.42q2.911-4.423,5.921-8.778c4-5.814,8.194-11.5,12.34-17.223s8.206-11.5,12.1-17.385c3.928-5.866,7.724-11.819,11.466-17.81a.939.939,0,0,1,1.723.644l-.01.061-1.7,10.723c-.58,3.572-1.167,7.142-1.8,10.705l-1.886,10.688-1.914,10.682a1.716,1.716,0,0,1-.308.718l-.032.043c-3.93,5.3-7.969,10.582-12.081,15.8-2.051,2.616-4.13,5.2-6.2,7.776l-6.236,7.643-12.258,14.9C229.5,374.372,225.6,379.222,221.845,383.989Zm.15-.319c4.062-5.492,7.982-10.9,11.8-16.284l5.655-8,5.539-7.88,5.49-7.745c1.835-2.55,3.665-5.1,5.522-7.611,3.706-5.038,7.484-10.013,11.371-14.973l-.34.761L269.2,311.3l2.191-10.629c.731-3.543,1.5-7.078,2.282-10.612l2.376-10.594,1.713.7c-4.126,5.732-8.2,11.5-12.138,17.359-3.975,5.834-7.78,11.782-11.505,17.783s-7.4,12.037-11.263,17.945q-2.894,4.434-5.881,8.806l-2.986,4.372q-1.5,2.184-3.012,4.355l.209-.481c-.684,2.694-1.356,5.371-2.1,8.047s-1.5,5.357-2.319,8.1l-1.216,4.154-1.219,4.257C223.533,377.735,222.747,380.673,222,383.669Z" transform="translate(-220.951 -278.675)" fill="#ccd5e5"/>
      <path id="Path_16932" data-name="Path 16932" d="M512.973,395.871l-8.647-7.1-8.635-7.165q-4.319-3.591-8.629-7.209l-8.624-7.241.217.147L466.213,361.1l-12.426-6.225-12.416-6.244-12.39-6.295.314.12c-5.692-1.469-11.387-2.924-17.072-4.42s-11.366-3.006-17.04-4.543c-5.679-1.519-11.345-3.087-17.013-4.646l-16.993-4.723-.03-.009a1.028,1.028,0,0,1-.729-1.195l4.388-21.258,2.14-10.639q1.075-5.319,2.109-10.645v0a.549.549,0,0,1,.644-.434.563.563,0,0,1,.177.068q22.766,13.67,45.736,26.994l22.987,13.3,11.493,6.649,11.475,6.679,45.774,26.931q22.878,13.482,45.649,27.141l.011.006a1.879,1.879,0,0,1,.294.22l9.514,8.792,9.5,8.81,18.957,17.661.022.02a1.516,1.516,0,0,1-1.576,2.526l-19.269-7.383-19.223-7.435-19.164-7.489Q522.487,399.682,512.973,395.871Zm.18-.3q9.78,3.343,19.506,6.735l19.424,6.809,19.366,6.863,19.319,6.915-1.555,2.546-19.245-17.346-9.6-8.695-9.588-8.712.3.227q-22.839-13.545-45.572-27.27l-45.446-27.48-11.33-6.924-11.312-6.954L414.8,308.374q-22.634-13.889-45.484-27.417l.822-.369q-1,5.333-1.969,10.672l-1.937,10.678-3.767,21.377-.759-1.2,17.13,4.2c5.706,1.415,11.415,2.822,17.11,4.276q8.55,2.155,17.082,4.38c5.69,1.478,11.368,3,17.051,4.5l.01,0a1.564,1.564,0,0,1,.3.117l12.344,6.385,12.318,6.436,12.308,6.455,12.292,6.486.026.014a1.008,1.008,0,0,1,.191.133l8.33,7.456,8.326,7.487,8.319,7.532Z" transform="translate(-313.568 -279.517)" fill="#ccd5e5"/>
      <path id="Path_16933" data-name="Path 16933" d="M305.691,698.021c1.3-.807,2.618-1.593,3.936-2.373s2.64-1.551,3.974-2.3,2.656-1.52,4-2.254l4.016-2.218a.928.928,0,0,1,.756-.065l.051.018,5.57,1.952,5.548,2.012c3.7,1.339,7.361,2.78,11,4.291s7.25,3.077,10.892,4.572,7.307,2.923,11.011,4.252l-.133-.026c2.982.071,5.966.086,8.95.086l8.955-.055q4.478-.036,8.952.021l8.949.124a1.215,1.215,0,0,1,.523.126l.038.02c4.095,2.053,8.2,4.094,12.257,6.213s8.105,4.27,12.124,6.47l3.018,1.642,3.006,1.667c2.007,1.1,4,2.233,6,3.361,3.985,2.266,7.958,4.555,11.878,6.945a.133.133,0,0,1-.121.235c-4.216-1.82-8.379-3.74-12.531-5.683-2.073-.976-4.147-1.952-6.208-2.952l-3.1-1.491-3.084-1.515q-6.177-3.013-12.285-6.158c-4.075-2.091-8.11-4.259-12.152-6.415l.561.146-8.941-.409q-4.47-.214-8.938-.512l-8.935-.589c-2.979-.178-5.958-.34-8.94-.447h-.008a.39.39,0,0,1-.125-.026c-3.667-1.427-7.374-2.745-11.1-4.014s-7.487-2.443-11.22-3.694-7.444-2.558-11.115-3.974l-5.508-2.121L321.72,690.7l.807-.047-4.144,1.968c-1.379.661-2.775,1.289-4.163,1.932s-2.791,1.257-4.185,1.887-2.808,1.224-4.224,1.813a.133.133,0,0,1-.121-.235Z" transform="translate(-276.957 -552.801)" fill="#ccd5e5"/>
      <g id="Group_33199" data-name="Group 33199" transform="translate(123.353 152.799)">
        <path id="Path_16934" data-name="Path 16934" d="M602.63,783.839a1.76,1.76,0,0,1-1.377-.66l-8.215-10.236a1.76,1.76,0,0,1-.388-1.081l-.293-22.173-1.129-8.13a1.764,1.764,0,1,1,3.494-.485l1.144,8.239a1.734,1.734,0,0,1,.017.219l.287,21.676L604,780.971a1.764,1.764,0,0,1-1.375,2.868Z" transform="translate(-591.211 -739.554)" fill="#ccd5e5"/>
      </g>
      <path id="Path_16935" data-name="Path 16935" d="M514.56,398.537a28.927,28.927,0,0,1-4.655-2.7q-1.1-.756-2.138-1.577a20.317,20.317,0,0,1-2-1.738c-1.264-1.246-2.353-2.7-3.653-3.906a26.951,26.951,0,0,0-4.249-3.185.2.2,0,0,1-.05-.046l-.111-.147c-.549-.728-1.11-1.45-1.641-2.189s-1.02-1.5-1.508-2.264c-.981-1.523-1.965-3.044-2.826-4.635s-1.637-3.23-2.356-4.9c-.358-.836-.7-1.68-1.014-2.544s-.615-1.73-.858-2.631a.137.137,0,0,1,.23-.13c.648.672,1.243,1.375,1.814,2.09s1.126,1.441,1.659,2.178q1.595,2.215,2.99,4.542c.921,1.557,1.719,3.184,2.52,4.809.4.811.807,1.622,1.165,2.458s.69,1.687,1.032,2.533l-.161-.192a26.95,26.95,0,0,0,3.922,3.581c1.424,1.053,3.058,1.851,4.518,2.861a20.356,20.356,0,0,1,2.081,1.645q1,.872,1.947,1.807a28.984,28.984,0,0,1,3.516,4.071.138.138,0,0,1-.169.2Z" transform="translate(-398.525 -336.986)" fill="#ccd5e5"/>
      <path id="Path_16936" data-name="Path 16936" d="M837.6,569.382a35.132,35.132,0,0,1-4.772-.508c-1.564-.266-3.11-.6-4.641-.985a27.83,27.83,0,0,1-4.5-1.517,45.147,45.147,0,0,0-4.438-1.726,35.263,35.263,0,0,0-4.616-1.077c-1.566-.26-3.149-.458-4.7-.762s-3.09-.673-4.633-1.017-3.071-.741-4.581-1.2l-.081-.025a1.228,1.228,0,0,1-.447-.252q-2.2-1.96-4.275-4.079-1.035-1.059-2.029-2.169c-.662-.74-1.314-1.492-1.925-2.293a.136.136,0,0,1,.17-.2c.9.461,1.751.97,2.6,1.492s1.675,1.062,2.492,1.617q2.449,1.668,4.766,3.493l-.528-.276c1.536.371,3.051.815,4.555,1.3s3.01.964,4.5,1.487,2.954,1.168,4.434,1.742a35.267,35.267,0,0,0,4.52,1.427,45.147,45.147,0,0,0,4.7.778,27.8,27.8,0,0,1,4.641.987c1.514.448,3.014.95,4.495,1.519a35.164,35.164,0,0,1,4.364,2,.136.136,0,0,1-.07.255Z" transform="translate(-602.036 -461.082)" fill="#ccd5e5"/>
      <path id="Path_16937" data-name="Path 16937" d="M805,693.483c.515-1.163,1.106-2.273,1.7-3.384s1.221-2.194,1.866-3.267,1.3-2.137,1.984-3.186,1.367-2.093,2.088-3.114l-.17.973c-.309-1.25-.564-2.515-.783-3.789s-.409-2.555-.632-3.828a56.4,56.4,0,0,0-1.818-7.51c-.767-2.461-1.69-4.882-2.519-7.326-.421-1.221-.8-2.454-1.164-3.688s-.749-2.466-1.106-3.7a1.188,1.188,0,0,1-.034-.506l.012-.08c.284-1.876.594-3.746.965-5.606s.786-3.711,1.221-5.559.915-3.687,1.423-5.521,1.058-3.661,1.7-5.471a.134.134,0,0,1,.26.048c-.044,1.919-.193,3.82-.358,5.717s-.393,3.784-.634,5.667-.515,3.761-.835,5.63-.69,3.728-1.092,5.582l-.022-.586c.3,1.253.573,2.512.861,3.768s.567,2.514.8,3.783c.482,2.536.87,5.1,1.414,7.617a56.4,56.4,0,0,0,2.115,7.432c.432,1.218.9,2.427,1.334,3.643s.837,2.443,1.183,3.683a1.145,1.145,0,0,1-.149.944l-.021.03c-.7,1.038-1.423,2.055-2.163,3.063s-1.495,2.005-2.267,2.991-1.568,1.955-2.384,2.91-1.652,1.9-2.554,2.793a.135.135,0,0,1-.218-.15Z" transform="translate(-610.364 -512.74)" fill="#ccd5e5"/>
      <g id="Group_33200" data-name="Group 33200" transform="translate(49.744 27.494)">
        <path id="Path_16938" data-name="Path 16938" d="M369.615,362.487a.441.441,0,0,0,0-.882.441.441,0,0,0,0,.882Z" transform="translate(-369.189 -361.605)" fill="#ccd5e5"/>
      </g>
      <path id="Path_16939" data-name="Path 16939" d="M330.724,340.28a21.951,21.951,0,0,1-1.141,2.987c-.437.959-.921,1.888-1.434,2.8a30.116,30.116,0,0,1-1.662,2.649,27.737,27.737,0,0,1-2.038,2.406,22.861,22.861,0,0,0-2,2.43,23.594,23.594,0,0,0-1.6,2.686c-.48.932-.9,1.9-1.351,2.851s-.943,1.873-1.463,2.778l.1-.194c-.435,1.235-.856,2.476-1.337,3.692s-1.029,2.4-1.615,3.576-1.214,2.327-1.885,3.463a34.384,34.384,0,0,1-2.216,3.325.137.137,0,0,1-.244-.1,34.35,34.35,0,0,1,.807-3.914q.5-1.915,1.138-3.776c.421-1.241.879-2.467,1.407-3.663s1.112-2.369,1.685-3.547l.06-.124a.546.546,0,0,1,.042-.07c.614-.844,1.248-1.675,1.94-2.469s1.4-1.579,2.052-2.4a23.523,23.523,0,0,0,1.8-2.561,22.923,22.923,0,0,0,1.4-2.817,27.655,27.655,0,0,1,1.365-2.842,30.043,30.043,0,0,1,1.741-2.6c.621-.839,1.271-1.66,1.969-2.45a21.859,21.859,0,0,1,2.262-2.26.138.138,0,0,1,.195.016A.14.14,0,0,1,330.724,340.28Z" transform="translate(-280.436 -319.737)" fill="#ccd5e5"/>
      <circle id="Ellipse_3107" data-name="Ellipse 3107" cx="2.793" cy="2.793" r="2.793" transform="translate(33.738 120.415)" fill="#ccd5e5"/>
      <circle id="Ellipse_3108" data-name="Ellipse 3108" cx="1.176" cy="1.176" r="1.176" transform="translate(40.473 109.603)" fill="#ccd5e5"/>
      <circle id="Ellipse_3109" data-name="Ellipse 3109" cx="1.323" cy="1.323" r="1.323" transform="translate(41.034 130.407)" fill="#ccd5e5"/>
      <circle id="Ellipse_3110" data-name="Ellipse 3110" cx="1.47" cy="1.47" r="1.47" transform="translate(28.489 126.611)" fill="#ccd5e5"/>
      <circle id="Ellipse_3111" data-name="Ellipse 3111" cx="1.323" cy="1.323" r="1.323" transform="translate(108.073 185.742)" fill="#ccd5e5"/>
      <circle id="Ellipse_3112" data-name="Ellipse 3112" cx="2.499" cy="2.499" r="2.499" transform="translate(108.57 169.122)" fill="#ccd5e5"/>
      <circle id="Ellipse_3113" data-name="Ellipse 3113" cx="1.323" cy="1.323" r="1.323" transform="translate(103.748 162.015)" fill="#ccd5e5"/>
      <circle id="Ellipse_3114" data-name="Ellipse 3114" cx="1.47" cy="1.47" r="1.47" transform="translate(94.48 160.208)" fill="#ccd5e5"/>
      <circle id="Ellipse_3115" data-name="Ellipse 3115" cx="1.764" cy="1.764" r="1.764" transform="translate(142.501 180.828)" fill="#ccd5e5"/>
      <circle id="Ellipse_3116" data-name="Ellipse 3116" cx="1.47" cy="1.47" r="1.47" transform="translate(156.789 189.354)" fill="#ccd5e5"/>
      <circle id="Ellipse_3117" data-name="Ellipse 3117" cx="1.764" cy="1.764" r="1.764" transform="translate(137.531 187.756)" fill="#ccd5e5"/>
      <circle id="Ellipse_3118" data-name="Ellipse 3118" cx="2.793" cy="2.793" r="2.793" transform="translate(206.014 154.645)" fill="#ccd5e5"/>
      <circle id="Ellipse_3119" data-name="Ellipse 3119" cx="1.029" cy="1.029" r="1.029" transform="translate(204.751 149.533)" fill="#ccd5e5"/>
      <circle id="Ellipse_3120" data-name="Ellipse 3120" cx="1.176" cy="1.176" r="1.176" transform="translate(190.715 155.885)" fill="#ccd5e5"/>
      <circle id="Ellipse_3121" data-name="Ellipse 3121" cx="1.323" cy="1.323" r="1.323" transform="translate(124.975 95.109)" fill="#ccd5e5"/>
      <circle id="Ellipse_3122" data-name="Ellipse 3122" cx="0.882" cy="0.882" r="0.882" transform="translate(125.201 83.998)" fill="#ccd5e5"/>
      <ellipse id="Ellipse_3123" data-name="Ellipse 3123" cx="1.232" cy="2.749" rx="1.232" ry="2.749" transform="matrix(0.583, -0.813, 0.813, 0.583, 75.134, 34.353)" fill="#ccd5e5"/>
      <ellipse id="Ellipse_3124" data-name="Ellipse 3124" cx="1.232" cy="2.749" rx="1.232" ry="2.749" transform="matrix(0.583, -0.813, 0.813, 0.583, 81.544, 41.708)" fill="#ccd5e5"/>
      <ellipse id="Ellipse_3125" data-name="Ellipse 3125" cx="2.793" cy="0.882" rx="2.793" ry="0.882" transform="matrix(0.583, -0.813, 0.813, 0.583, 21.788, 64.327)" fill="#ccd5e5"/>
      <ellipse id="Ellipse_3126" data-name="Ellipse 3126" cx="1.617" cy="0.441" rx="1.617" ry="0.441" transform="matrix(0.583, -0.813, 0.813, 0.583, 22.422, 55.374)" fill="#ccd5e5"/>
      <ellipse id="Ellipse_3127" data-name="Ellipse 3127" cx="0.294" cy="1.029" rx="0.294" ry="1.029" transform="matrix(0.583, -0.813, 0.813, 0.583, 82.558, 29.048)" fill="#ccd5e5"/>
      <ellipse id="Ellipse_3128" data-name="Ellipse 3128" cx="0.294" cy="1.911" rx="0.294" ry="1.911" transform="matrix(0.583, -0.813, 0.813, 0.583, 174.643, 86.793)" fill="#ccd5e5"/>
      <ellipse id="Ellipse_3129" data-name="Ellipse 3129" cx="1.029" cy="1.47" rx="1.029" ry="1.47" transform="matrix(0.583, -0.813, 0.813, 0.583, 209.077, 110.413)" fill="#ccd5e5"/>
      <path id="Path_16940" data-name="Path 16940" d="M632.1,937.918q.856.243,1.692.528c.56.183,1.115.378,1.666.578,1.1.4,2.19.831,3.273,1.272s2.153.905,3.214,1.386,2.119.97,3.167,1.479l-.738-.132q1.184-.175,2.372-.321c.791-.106,1.584-.191,2.376-.28l.023,0a1.279,1.279,0,0,1,.9.239q1.57,1.152,3.107,2.352t3.032,2.457c1,.834,1.978,1.7,2.943,2.58.482.442.96.889,1.427,1.352s.937.922,1.387,1.408c-.605-.271-1.195-.562-1.779-.862s-1.165-.6-1.738-.919c-1.145-.632-2.276-1.282-3.387-1.962s-2.212-1.372-3.3-2.085-2.161-1.443-3.224-2.189l.921.236c-.791.1-1.582.206-2.375.29s-1.585.176-2.38.251l-.063.006a1.182,1.182,0,0,1-.676-.138q-1.536-.833-3.047-1.713c-1.01-.583-2.007-1.189-3-1.8s-1.973-1.256-2.94-1.92c-.484-.331-.965-.669-1.44-1.018S632.566,938.288,632.1,937.918Z" transform="translate(-495.192 -719.354)" fill="#ccd5e5"/>
      <path id="Path_16941" data-name="Path 16941" d="M670.724,915.794c-.021.838-.086,1.664-.171,2.484s-.2,1.633-.324,2.443c-.253,1.619-.573,3.219-.939,4.808l-.095-.828c.371.648.738,1.3,1.091,1.954.181.326.354.656.526.988s.349.659.513.994l.03.061a1.124,1.124,0,0,1-.041,1.052q-.678,1.151-1.395,2.281c-.482.751-.971,1.5-1.486,2.23s-1.039,1.459-1.593,2.17-1.128,1.41-1.753,2.081c.244-.884.541-1.738.854-2.583s.655-1.674,1.013-2.494.733-1.631,1.12-2.434.794-1.6,1.211-2.383l-.011,1.114c-.187-.323-.36-.654-.54-.98s-.357-.655-.528-.987c-.35-.659-.685-1.326-1.016-1.994l-.033-.066a1.039,1.039,0,0,1-.062-.762c.477-1.559,1-3.1,1.591-4.633.3-.763.608-1.523.942-2.277S670.323,916.53,670.724,915.794Z" transform="translate(-517.243 -704.565)" fill="#ccd5e5"/>
      <path id="Path_16942" data-name="Path 16942" d="M747.052,738.937c-.405-.1-.8-.223-1.193-.356s-.777-.275-1.164-.414c-.765-.3-1.525-.609-2.269-.952l.3.04c-.583.128-1.17.239-1.758.344l-.011,0a.478.478,0,0,1-.366-.086q-.549-.406-1.087-.828c-.358-.281-.709-.573-1.058-.868s-.69-.6-1.027-.91-.666-.633-.98-.977c.426.187.834.4,1.239.615s.8.442,1.192.682.78.474,1.161.724.759.5,1.133.764l-.377-.084c.585-.116,1.172-.227,1.762-.32l.025,0a.445.445,0,0,1,.275.044c.728.375,1.441.782,2.147,1.2.348.219.7.429,1.043.662S746.721,738.681,747.052,738.937Z" transform="translate(-564.936 -582.997)" fill="#ccd5e5"/>
      <path id="Path_16943" data-name="Path 16943" d="M749.553,740.863q.039-.493.118-.974c.046-.323.113-.638.172-.957.136-.631.281-1.26.458-1.878l.02.307c-.243-.481-.47-.969-.691-1.46l-.005-.012a.428.428,0,0,1,.023-.392c.367-.611.755-1.209,1.171-1.792.205-.293.421-.58.643-.863s.452-.562.7-.828c-.105.351-.232.689-.365,1.023s-.275.664-.426.988c-.3.651-.621,1.287-.967,1.91l.018-.4c.233.486.459.974.67,1.47l.01.024a.394.394,0,0,1,.01.283c-.208.609-.448,1.207-.7,1.8-.134.3-.259.593-.405.884S749.72,740.578,749.553,740.863Z" transform="translate(-573.704 -581.714)" fill="#ccd5e5"/>
      <path id="Path_16944" data-name="Path 16944" d="M410.793,348.167c-.405-.1-.8-.223-1.193-.356s-.777-.275-1.164-.414c-.766-.3-1.525-.609-2.269-.952l.3.04c-.584.128-1.17.239-1.758.343l-.011,0a.477.477,0,0,1-.366-.086q-.55-.406-1.087-.828c-.359-.281-.709-.573-1.058-.868s-.69-.6-1.027-.91-.666-.633-.98-.977c.426.187.834.4,1.239.615s.8.442,1.192.682.78.474,1.161.724.759.5,1.132.764l-.377-.084c.586-.116,1.173-.227,1.762-.32l.024,0a.445.445,0,0,1,.275.044c.728.375,1.441.782,2.147,1.2.348.219.7.429,1.044.663S410.461,347.911,410.793,348.167Z" transform="translate(-340.16 -321.781)" fill="#ccd5e5"/>
      <path id="Path_16945" data-name="Path 16945" d="M413.294,350.093q.039-.493.118-.974c.046-.323.113-.638.171-.957.137-.631.281-1.26.458-1.879l.02.307c-.243-.481-.47-.969-.691-1.46l0-.012a.429.429,0,0,1,.023-.392c.367-.611.755-1.209,1.17-1.792.206-.293.421-.58.643-.863s.452-.562.7-.828c-.105.35-.232.688-.366,1.023s-.275.664-.426.988c-.3.651-.621,1.287-.967,1.91l.018-.4c.233.486.46.974.67,1.47l.01.024a.4.4,0,0,1,.01.283c-.209.609-.449,1.207-.7,1.8-.134.3-.259.593-.405.884S413.46,349.809,413.294,350.093Z" transform="translate(-348.927 -320.5)" fill="#ccd5e5"/>
      <path id="Path_16946" data-name="Path 16946" d="M828.042,601.517c-.335-.436-.65-.882-.95-1.336s-.588-.913-.88-1.372c-.275-.466-.56-.927-.827-1.4s-.53-.943-.784-1.42l.149.185q-1.131-.881-2.219-1.814l-.018-.015a.543.543,0,0,1-.165-.252q-.241-.784-.456-1.575c-.15-.526-.272-1.061-.409-1.591-.122-.535-.251-1.068-.353-1.61s-.2-1.083-.275-1.635c.27.487.515.982.746,1.481s.45,1,.668,1.506c.2.509.42,1.013.611,1.525s.385,1.024.564,1.54l-.183-.267q1.128.884,2.216,1.818l.02.017a.523.523,0,0,1,.129.168q.351.731.68,1.473c.222.493.424,1,.638,1.494.2.506.4,1.006.584,1.521S827.889,600.988,828.042,601.517Z" transform="translate(-621.366 -485.236)" fill="#ccd5e5"/>
      <path id="Path_16947" data-name="Path 16947" d="M813.329,608.146c.372-.105.744-.2,1.117-.268s.747-.137,1.121-.2l1.123-.154c.375-.044.75-.081,1.125-.115l-.444.317q.254-.687.529-1.366l0,0a.525.525,0,0,1,.567-.32c.933.146,1.863.319,2.784.545.462.105.92.233,1.379.363s.913.28,1.363.464c-.484.042-.961.04-1.439.039s-.952-.025-1.424-.062c-.947-.057-1.886-.167-2.821-.3l.569-.324c-.181.453-.372.9-.568,1.349l-.014.031a.477.477,0,0,1-.43.285c-.377.005-.754.007-1.131,0l-1.133-.038c-.378-.026-.756-.044-1.136-.086S813.71,608.213,813.329,608.146Z" transform="translate(-616.336 -497.497)" fill="#ccd5e5"/>
    </g>
    <path id="Path_16948" data-name="Path 16948" d="M671.226,244.069l2.416-.048-17.412,8.167-19.812-8.748v71.547s.492.121,11.023,5.387c12.6,6.3,14.413,12.886,5.3,10.609-14.588-3.647-43.042-12.1-34.148-12.6a101.417,101.417,0,0,1,13.271-.1l3.315-1.989V241.7l7.821.948A201.092,201.092,0,0,0,671.226,244.069Z" transform="translate(-326.449 -100.569)" fill="#24c1a1"/>
    <g id="Group_33202" data-name="Group 33202" transform="translate(302.83 204.524)">
      <path id="Path_16949" data-name="Path 16949" d="M1045.116,721.633a10.033,10.033,0,0,0-.3,6.92c.54,1.615,1.52,3.043,1.845,4.732.462,2.4-.452,4.921-.93,7.389a21.284,21.284,0,0,0-.307,6c.093,1,.4,2.158,1.34,2.4a1.926,1.926,0,0,0,1.968-1.041,4.31,4.31,0,0,0,.445-2.329c-.1-2.852-1.317-5.555-.965-8.422.454-3.694,3.443-7.494,2.031-10.776-.364-.846-.994-1.529-1.394-2.356a8.036,8.036,0,0,1-.591-3.744,21.554,21.554,0,0,1,1.244-6.52l-.821.077C1048.358,716.736,1046.2,719.012,1045.116,721.633Z" transform="translate(-914.998 -620.732)" fill="#24c1a1"/>
      <path id="Path_16950" data-name="Path 16950" d="M779.9,554.995c-.371-1.291-1.622-2.084-2.7-2.884a18.455,18.455,0,0,1-5.261-6.1l-.558,1.353a5.916,5.916,0,0,0,2.364,7.292h0c.217.425,2.765,2.431,3.907,2.421C777.654,557.074,780.273,556.286,779.9,554.995Z" transform="translate(-732.239 -508.512)" fill="#24c1a1"/>
      <path id="Path_16951" data-name="Path 16951" d="M773.982,549.953l-.865-4.243A16.63,16.63,0,0,0,773.982,549.953Z" transform="translate(-733.697 -508.312)" fill="#24c1a1"/>
      <path id="Path_16952" data-name="Path 16952" d="M656.137,443.643c-.061-.09-.113-.186-.167-.28l0,0Z" transform="translate(-655.387 -439.897)" fill="#24c1a1"/>
      <path id="Path_16953" data-name="Path 16953" d="M654.8,436.375a3.623,3.623,0,0,0,1.1-2.08,1.436,1.436,0,0,0-.94-1.365.535.535,0,0,0-.666.423A4.485,4.485,0,0,0,654.8,436.375Z" transform="translate(-654.218 -432.909)" fill="#24c1a1"/>
      <path id="Path_16954" data-name="Path 16954" d="M761.211,487.066a2.249,2.249,0,0,0-.715.089,10.49,10.49,0,0,0-3.566.9,7.01,7.01,0,0,0,4.006,1.521,1.8,1.8,0,0,0,1.565-.506C763.093,488.295,762.189,487.108,761.211,487.066Z" transform="translate(-722.877 -469.11)" fill="#24c1a1"/>
      <path id="Path_16955" data-name="Path 16955" d="M686.015,520.843l.9-.033-1.62.625a.881.881,0,0,0-.489.334.634.634,0,0,0,.109.672,1.478,1.478,0,0,0,2.013.065,4.145,4.145,0,0,0,1.148-1.89Z" transform="translate(-674.629 -491.539)" fill="#24c1a1"/>
    </g>
    <g id="Group_33203" data-name="Group 33203" transform="translate(262.439 209.35)">
      <path id="Path_16956" data-name="Path 16956" d="M545.408,492.219a9.984,9.984,0,0,0-3.32,1.755l-7.324,5.15c-1.147.806-2.39,1.749-2.377,3.278a1.615,1.615,0,0,0,1.457,1.638c.776.044,1.2-.548,1.663-1.023,1.774-1.8,4.582-2.121,6.612-3.626s3.317-4.185,5.784-4.708c1.048-.222,2.162,0,3.19-.3a2.2,2.2,0,0,0,1.462-1.459.391.391,0,0,0-.422-.481C549.92,492.693,547.6,491.7,545.408,492.219Z" transform="translate(-532.388 -477.279)" fill="#24c1a1"/>
      <path id="Path_16957" data-name="Path 16957" d="M634.731,447.983a3.7,3.7,0,0,0-1.128-.159,9.99,9.99,0,0,0-4.494-.156,3.443,3.443,0,0,0-2.7,3.239c.116,1.674,1.933,2.811,3.61,2.8a10.067,10.067,0,0,0,4.684-1.685,3.165,3.165,0,0,0,1.6-1.5A2.166,2.166,0,0,0,634.731,447.983Z" transform="translate(-595.233 -447.465)" fill="#24c1a1"/>
    </g>
    <g id="Group_33204" data-name="Group 33204" transform="translate(296.813 265.889)">
      <path id="Path_16958" data-name="Path 16958" d="M655.146,642.72c-.859-5.727-2.89-11.717-1.7-17.212-5.244,16.141-9.517,38.7-13.873,54.441-2.915,10.535-5.559,22.079-1.205,32.106-2.433-8.8-2.555-18.533,1.377-26.774,2.649-5.553,6.961-10.133,10.1-15.426A41.618,41.618,0,0,0,655.146,642.72Z" transform="translate(-636.069 -623.019)" fill="#24c1a1"/>
      <path id="Path_16959" data-name="Path 16959" d="M689.264,618.034a13.6,13.6,0,0,0-.775,2.455c.275-.846.552-1.68.832-2.489Z" transform="translate(-671.11 -618)" fill="#24c1a1"/>
    </g>
    <path id="Path_16960" data-name="Path 16960" d="M697.23,817.11A305.394,305.394,0,0,0,693.061,880c.379,10.157,1.21,20.68-2.446,30.164a3.52,3.52,0,0,1-1.6,2.134c-2.235.973-3.6-2.514-3.551-4.951q.434-21.82.868-43.641c.08-4.043.161-8.091.561-12.114.912-9.166,3.468-18.078,6.012-26.931.884-3.076,3.032-6.917,6.109-6.041l-2.851.4" transform="translate(-372.272 -485.209)" fill="#24c1a1"/>
    <path id="Path_16961" data-name="Path 16961" d="M691.381,504.037l.754-1.318c.619-1.082,2.481-1.217,4.219-.3L782,547.351c2.069,1.085,4.173,2.2,6.2,3.386,4.05,2.371,1.895,6.228-2.265,4.053l-.116-.061c-11.476-6.016-23.712-9.761-35.746-13.274-4.983-1.455-10.24-3.016-14.539-6.126-2.982-2.158-5.189-4.844-7.578-7.381a90.784,90.784,0,0,0-33.847-22.066c-1.7-.626-3.01-2.029-3.066-3.3l-.029-.647" transform="translate(-375.99 -274.443)" fill="#24c1a1"/>
    <path id="Path_16962" data-name="Path 16962" d="M765.04,890.954a45.038,45.038,0,0,0-2.033,16.371c.129,2.1,1.024,4.779,3.129,4.759,1.7-.017,2.769-2.02,2.57-3.706s-1.227-3.136-2.009-4.642a17.268,17.268,0,0,1-1.653-10.943" transform="translate(-424.053 -534.571)" fill="#24c1a1"/>
    <path id="Path_16963" data-name="Path 16963" d="M816.523,1082.646l-2.874-4.842-.057-.1c-.309,1.612-1.266,6.154-.275,7.463s3.585,1.223,3.865-.395A3.256,3.256,0,0,0,816.523,1082.646Z" transform="translate(-457.447 -659.403)" fill="#24c1a1"/>
    <path id="Path_16964" data-name="Path 16964" d="M496.944,757.29l3.693,49.346c.218,2.91.672,6.24,3.117,7.832,2.528-.542,1.544-4.333.3-6.6a25.975,25.975,0,0,1-3.176-12.853c.054-3.216.707-6.394.844-9.607.383-9.022-3.292-17.664-6.894-25.944" transform="translate(-244.842 -445.221)" fill="#24c1a1"/>
    <path id="Path_16965" data-name="Path 16965" d="M493.118,905.157l.381,9.078a39.611,39.611,0,0,0,.221-14.452" transform="translate(-243.699 -540.472)" fill="#24c1a1"/>
    <g id="Group_33205" data-name="Group 33205" transform="translate(264.782 381.75)">
      <path id="Path_16966" data-name="Path 16966" d="M540.742,967.465c.032.026.062.055.094.082l0,0Z" transform="translate(-540.315 -967.465)" fill="#24c1a1"/>
      <path id="Path_16967" data-name="Path 16967" d="M539.976,967.712c-1.514,3.494.413,11,4,12.279A12.312,12.312,0,0,0,539.976,967.712Z" transform="translate(-539.455 -967.63)" fill="#24c1a1"/>
    </g>
    <path id="Path_16968" data-name="Path 16968" d="M878.485,605.149a48.793,48.793,0,0,0,.677,9.813,4.224,4.224,0,0,0,.984,2.4c1.059,1.024,2.759.74,4.222.918,3.527.43,6.024,3.952,6.49,7.475s-.623,7.044-1.7,10.43l-1.756,5.528c-2.784-2.439-.574-7.16-1.858-10.631-.752-2.033-2.619-3.395-4.241-4.833a28.856,28.856,0,0,1-9.493-18.788c-.154-1.706-.08-3.625,1.122-4.847s3.831-.877,4.044.823" transform="translate(-496.802 -341.341)" fill="#24c1a1"/>
    <g id="Group_33206" data-name="Group 33206" transform="translate(404.55 342.377)">
      <path id="Path_16969" data-name="Path 16969" d="M1004.315,849.456c-8.128-1.914-17.331,0-24.719,3.89-6.071,3.2-15.554,7.73-18.566,10.609a13.913,13.913,0,0,1,5.729.988,5.317,5.317,0,0,1,2.847,4.5,28.52,28.52,0,0,0,4.925,14.749,18.847,18.847,0,0,0,.276-12.264,2.055,2.055,0,0,1,1.533-2.741c2.95-.547,2.049,5.061,4.585,5.24a7.256,7.256,0,0,1,6.751-6.824,4.405,4.405,0,0,0,1.764-.227c1.4-.669,1.206-2.666,1.2-4.221C990.594,856.288,997.983,852.118,1004.315,849.456Z" transform="translate(-961.03 -848.706)" fill="#24c1a1"/>
    </g>
    <path id="Path_16970" data-name="Path 16970" d="M594.39,967.047a11.868,11.868,0,0,0-12.178,4.457c1.744-.349,3.478.959,4.221,2.575a12.036,12.036,0,0,1,.705,5.242q-.108,7.432-.217,14.864c-.027,1.826.782,4.384,2.558,3.959l.765-21.082a2.38,2.38,0,0,1,2.359,2.734c1.555.4,2.5-1.646,2.781-3.227.385-2.177.765-4.455.1-6.563s-2.74-3.949-4.915-3.558" transform="translate(-303.255 -584.999)" fill="#24c1a1"/>
    <path id="Path_16971" data-name="Path 16971" d="M559.672,445.358c0,1.007-1.811,1.989-2.818,1.989a1.823,1.823,0,1,1,0-3.647C557.86,443.7,559.672,444.351,559.672,445.358Z" transform="translate(-285.085 -235.598)" fill="#24c1a1"/>
    <path id="Path_16972" data-name="Path 16972" d="M725.677,448.695a1,1,0,0,1-.995.995c-.549,0-2.652-.445-2.652-.995s2.1-.995,2.652-.995A1,1,0,0,1,725.677,448.695Z" transform="translate(-396.718 -238.272)" fill="#24c1a1"/>
    <path id="Path_16973" data-name="Path 16973" d="M497.008,543.026c0,.824-1.663,1.658-2.487,1.658a1.492,1.492,0,1,1,0-2.984C495.346,541.7,497.008,542.2,497.008,543.026Z" transform="translate(-243.64 -301.108)" fill="#24c1a1"/>
    <path id="Path_16974" data-name="Path 16974" d="M656.666,548.17a2.818,2.818,0,0,1-5.636,0c0-1.556.433-5.47,1.989-5.47S656.666,546.614,656.666,548.17Z" transform="translate(-349.257 -301.776)" fill="#24c1a1"/>
    <path id="Path_16975" data-name="Path 16975" d="M940.03,985.513a1.492,1.492,0,0,0,2.984,0c0-.824-.5-3.813-1.326-3.813S940.03,984.689,940.03,985.513Z" transform="translate(-542.443 -595.231)" fill="#24c1a1"/>
    <path id="Path_16976" data-name="Path 16976" d="M650.682,1089.684a1.326,1.326,0,0,1-2.652,0c0-.732.262-2.984.995-2.984S650.682,1088.951,650.682,1089.684Z" transform="translate(-347.252 -665.419)" fill="#24c1a1"/>
    <path id="Path_16977" data-name="Path 16977" d="M505.919,236.475l9.447-1.958-9.305-1.928-2.094-15.059-2.121,15.254-9.278,1.733,9.422,1.76,1.978,15.227Z" transform="translate(-243.331 -84.412)" fill="#f9f9f9"/>
    <g id="Group_33207" data-name="Group 33207" transform="translate(449.235 286.933)">
      <path id="Path_16978" data-name="Path 16978" d="M1105.59,695.875c-.978-.4-1.945-.829-2.89-1.3s-1.878-.972-2.777-1.532a18.54,18.54,0,0,1-2.572-1.866,7.2,7.2,0,0,1-1.084-1.184,2.806,2.806,0,0,1-.378-.733,1.3,1.3,0,0,1,0-.864,1.317,1.317,0,0,1,.6-.635,2.842,2.842,0,0,1,.785-.286,7.291,7.291,0,0,1,1.616-.136,17.769,17.769,0,0,1,3.181.381,36.457,36.457,0,0,1,11.761,4.809,17.673,17.673,0,0,1,2.537,1.958,7.292,7.292,0,0,1,1.058,1.23,2.853,2.853,0,0,1,.36.754,1.318,1.318,0,0,1-.02.872,1.3,1.3,0,0,1-.609.613,2.8,2.8,0,0,1-.783.259,7.2,7.2,0,0,1-1.6.084,18.409,18.409,0,0,1-3.143-.472c-1.033-.23-2.05-.526-3.055-.853S1106.568,696.276,1105.59,695.875Zm0,0a34.72,34.72,0,0,0,6.045,1.874,17.479,17.479,0,0,0,3.132.375,7,7,0,0,0,1.552-.131,2.569,2.569,0,0,0,.709-.258.9.9,0,0,0,.462-1.181,2.554,2.554,0,0,0-.343-.659,6.949,6.949,0,0,0-1.043-1.135,18.3,18.3,0,0,0-2.534-1.836c-.889-.554-1.814-1.051-2.753-1.519s-1.9-.9-2.87-1.294-1.955-.767-2.954-1.089-2.006-.619-3.029-.846a18.159,18.159,0,0,0-3.094-.466,6.935,6.935,0,0,0-1.539.079,2.55,2.55,0,0,0-.708.23.9.9,0,0,0-.5,1.167,2.578,2.578,0,0,0,.325.681,7,7,0,0,0,1.016,1.181,17.446,17.446,0,0,0,2.5,1.928A34.733,34.733,0,0,0,1105.59,695.875Z" transform="translate(-1095.812 -685.392)" fill="#fff"/>
      <circle id="Ellipse_3130" data-name="Ellipse 3130" cx="6.56" cy="6.56" r="6.56" transform="translate(4.859)" fill="#ededed"/>
      <path id="Path_16979" data-name="Path 16979" d="M1096.409,688.553a1.2,1.2,0,0,1,.522-.592,2.734,2.734,0,0,1,.751-.3,7.041,7.041,0,0,1,1.6-.167,16.965,16.965,0,0,1,3.178.349,35.055,35.055,0,0,1,11.753,4.807,16.966,16.966,0,0,1,2.512,1.978,7.056,7.056,0,0,1,1.022,1.239,2.747,2.747,0,0,1,.328.737,1.2,1.2,0,0,1-.043.789,1.154,1.154,0,0,0-.036-.765,2.659,2.659,0,0,0-.375-.677,7.188,7.188,0,0,0-1.078-1.126,19.154,19.154,0,0,0-2.558-1.815c-.9-.54-1.819-1.046-2.763-1.5s-1.9-.894-2.872-1.29-1.956-.766-2.953-1.093-2.006-.62-3.025-.863a19.154,19.154,0,0,0-3.1-.5,7.2,7.2,0,0,0-1.559.048,2.654,2.654,0,0,0-.742.22A1.155,1.155,0,0,0,1096.409,688.553Z" transform="translate(-1096.211 -685.501)" fill="#fff"/>
    </g>
    <g id="Group_33217" data-name="Group 33217" transform="translate(201.037 147.431)">
      <g id="Group_33216" data-name="Group 33216" transform="translate(0 0)" clip-path="url(#clip-path)">
        <g id="Group_33215" data-name="Group 33215" transform="translate(201.073 4.133)">
          <g id="Group_33214" data-name="Group 33214">
            <path id="Path_16980" data-name="Path 16980" d="M1033.438,339.6a7.771,7.771,0,0,0,2.409-1.625c2.21-2.173,2.829-5.211,1.585-7.173a.2.2,0,0,1,.137-.308,1.986,1.986,0,0,0,1.737-1.28,2.077,2.077,0,0,0-.96-2.214l.117-.513c.622-.109,1.045-.352,1.157-.72.154-.507-.314-1.143-1.173-1.733a.2.2,0,0,1-.088-.2,42.924,42.924,0,0,0-.346-14.116,5.771,5.771,0,0,1,.444-3.5,6.686,6.686,0,0,0,.328-.861,7.288,7.288,0,0,0-5.1-8.945c-.173-.052-.346-.1-.52-.137a.2.2,0,0,1-.128-.1,45.577,45.577,0,0,0-7.172-9.493q-1.172-1.192-2.408-2.278a4.519,4.519,0,0,1-1.56-3.06,2.693,2.693,0,0,0-.935-1.879,2.79,2.79,0,0,0-3.729.154.2.2,0,0,1-.246.03l0,0a.2.2,0,0,1-.083-.245,4.6,4.6,0,0,0-1.955-5.775,4.393,4.393,0,0,0-4.571.4,5.6,5.6,0,0,1-4.7.749,42.7,42.7,0,0,0-22.005-.206,1.6,1.6,0,0,1-1.144-.135l-.005,0A6.306,6.306,0,0,0,973.977,277l-.009.018a8.871,8.871,0,0,1-2.853,3.261,40,40,0,0,0-11.17,11.579,7.407,7.407,0,0,1-3.034,2.763,2.3,2.3,0,0,0-1.075,1.012,2.43,2.43,0,0,0-.066,2,.2.2,0,0,1-.094.243,3.612,3.612,0,0,0-1.438,1.453,4.061,4.061,0,0,0-.124,3.187,7.628,7.628,0,0,1,.238,3.721,43.47,43.47,0,0,0,3.836,26.889,5.926,5.926,0,0,1,.125,4.839,1.859,1.859,0,0,0-.023,1.514,2.229,2.229,0,0,0,2,1.079,5.8,5.8,0,0,1,4.09,1.979q1.055,1.239,2.215,2.42a44.572,44.572,0,0,0,28.819,13.361,4.329,4.329,0,0,1,2.378.9,3.443,3.443,0,0,0,2.6.845,3.052,3.052,0,0,0,1.687-.871,4.587,4.587,0,0,1,2.479-1.254,39.987,39.987,0,0,0,27.116-16.889A4.1,4.1,0,0,1,1033.438,339.6Z" transform="translate(-953.669 -273.168)" fill="#f6f6f6"/>
            <g id="Group_33208" data-name="Group 33208" transform="translate(56.876 14.055)">
              <circle id="Ellipse_3131" data-name="Ellipse 3131" cx="4.868" cy="4.868" r="4.868" fill="#f2f2f2"/>
            </g>
            <g id="Group_33209" data-name="Group 33209" transform="translate(75.415 52.535)">
              <circle id="Ellipse_3132" data-name="Ellipse 3132" cx="1.381" cy="1.381" r="1.381" fill="#f2f2f2"/>
            </g>
            <g id="Group_33210" data-name="Group 33210" transform="translate(75.978 38.798)">
              <circle id="Ellipse_3133" data-name="Ellipse 3133" cx="2.952" cy="2.952" r="2.952" fill="#f2f2f2"/>
            </g>
            <g id="Group_33211" data-name="Group 33211" transform="translate(50.983 63.175)">
              <ellipse id="Ellipse_3134" data-name="Ellipse 3134" cx="5.825" cy="4.225" rx="5.825" ry="4.225" transform="translate(0 2.619) rotate(-12.993)" fill="#f2f2f2"/>
            </g>
            <g id="Group_33212" data-name="Group 33212" transform="translate(7.928 37.502)">
              <ellipse id="Ellipse_3135" data-name="Ellipse 3135" cx="4.008" cy="3.503" rx="4.008" ry="3.503" transform="matrix(0.115, -0.993, 0.993, 0.115, 0, 7.963)" fill="#f2f2f2"/>
            </g>
            <g id="Group_33213" data-name="Group 33213" transform="translate(5.84 46.734)">
              <ellipse id="Ellipse_3136" data-name="Ellipse 3136" cx="1.953" cy="1.707" rx="1.953" ry="1.707" transform="matrix(0.115, -0.993, 0.993, 0.115, 0, 3.881)" fill="#f2f2f2"/>
            </g>
            <ellipse id="Ellipse_3137" data-name="Ellipse 3137" cx="1.117" cy="0.878" rx="1.117" ry="0.878" transform="matrix(0.713, -0.701, 0.701, 0.713, 64.593, 69.166)" fill="#f2f2f2"/>
            <ellipse id="Ellipse_3138" data-name="Ellipse 3138" cx="1.277" cy="1.197" rx="1.277" ry="1.197" transform="matrix(0.713, -0.701, 0.701, 0.713, 46, 79.166)" fill="#f2f2f2"/>
            <path id="Path_16981" data-name="Path 16981" d="M1139.684,317.127a4.867,4.867,0,0,1-1.809,7.988,4.868,4.868,0,1,0-2.984-9.26A4.866,4.866,0,0,1,1139.684,317.127Z" transform="translate(-1074.809 -301.508)" fill="#f9f9f9"/>
            <path id="Path_16982" data-name="Path 16982" d="M1185.029,432.1a1.38,1.38,0,0,1-.458,2.244,1.38,1.38,0,1,0-.859-2.615A1.379,1.379,0,0,1,1185.029,432.1Z" transform="translate(-1107.445 -379.092)" fill="#f9f9f9"/>
            <path id="Path_16983" data-name="Path 16983" d="M1191.3,391.186a2.954,2.954,0,0,1-1.01,4.812,2.952,2.952,0,1,0-1.851-5.594A2.95,2.95,0,0,1,1191.3,391.186Z" transform="translate(-1110.604 -351.395)" fill="#f9f9f9"/>
            <path id="Path_16984" data-name="Path 16984" d="M1122.494,467.368c3.135-.723,6.1.533,6.626,2.807.475,2.059-1.215,4.245-3.867,5.177,2.845-.858,4.7-3.142,4.207-5.287-.525-2.273-3.491-3.53-6.626-2.806a8.057,8.057,0,0,0-.859.249C1122.144,467.456,1122.317,467.409,1122.494,467.368Z" transform="translate(-1066.174 -402.773)" fill="#d9d9d9"/>
            <path id="Path_16985" data-name="Path 16985" d="M987.514,387.566a3.781,3.781,0,0,1,3.019,4.384,4.072,4.072,0,0,1-2.451,3.382,4,4,0,0,0,2.791-3.492,3.781,3.781,0,0,0-3.019-4.384,3.115,3.115,0,0,0-1.489.2A3.089,3.089,0,0,1,987.514,387.566Z" transform="translate(-975.524 -349.552)" fill="#d9d9d9"/>
            <path id="Path_16986" data-name="Path 16986" d="M975.771,414.811a1.843,1.843,0,0,1,1.471,2.137,2,2,0,0,1-1.106,1.612,1.933,1.933,0,0,0,1.445-1.722,1.843,1.843,0,0,0-1.471-2.137,1.531,1.531,0,0,0-.814.132A1.5,1.5,0,0,1,975.771,414.811Z" transform="translate(-968.126 -367.771)" fill="#d9d9d9"/>
            <path id="Path_16987" data-name="Path 16987" d="M1152.682,478.62a1.02,1.02,0,0,1-.181,1.409,1.4,1.4,0,0,1-.352.252,1.3,1.3,0,0,0,.692-.362,1.02,1.02,0,0,0,.181-1.409.905.905,0,0,0-1.06-.095A.808.808,0,0,1,1152.682,478.62Z" transform="translate(-1086.22 -410.285)" fill="#d9d9d9"/>
            <path id="Path_16988" data-name="Path 16988" d="M1097.3,508.549a1.239,1.239,0,0,1-.071,1.749,1.354,1.354,0,0,1-.36.253,1.331,1.331,0,0,0,.7-.363,1.239,1.239,0,0,0,.071-1.749,1.2,1.2,0,0,0-1.389-.211A1.172,1.172,0,0,1,1097.3,508.549Z" transform="translate(-1048.979 -430.21)" fill="#d9d9d9"/>
          </g>
        </g>
      </g>
    </g>
    <g id="Group_33220" data-name="Group 33220" transform="translate(290.501 97.037)">
      <g id="Group_33218" data-name="Group 33218">
        <path id="Path_16990" data-name="Path 16990" d="M659.134,147.493c.481-.433,4.868-5.821.611-11.306a10.946,10.946,0,0,0-1.127-1.243,6.317,6.317,0,0,0-2.067-1.251,4.553,4.553,0,0,0-1.742-.28,3.33,3.33,0,0,0-1.29.31c.158-1.289-.609-3.182-2.353-4.777a8.384,8.384,0,0,0-4.64-2.224c-.092-.011-.187-.02-.283-.026-.01,0-.024,0-.028-.013.013-.019.036-.022.055-.029a4.27,4.27,0,0,0,.839-.441,2.83,2.83,0,0,0,.97-1.081,2.238,2.238,0,0,0,.182-1.483,3.423,3.423,0,0,0-1.245-1.919c-.052-.043-.105-.084-.159-.125a8.347,8.347,0,0,1-1.507-5.32c0-.551.037-1.1.073-1.655a7.539,7.539,0,0,1,.186-1.677,2.013,2.013,0,0,1,1.264-1.241,8.449,8.449,0,0,1,2.152-.527,10.551,10.551,0,0,1,1.273-.083,2.4,2.4,0,0,1,1.144.215,1.151,1.151,0,0,1,.1.062,1.217,1.217,0,0,0-.5.206.717.717,0,0,0-.248.3c-.058.141.078.271.253.357a1.113,1.113,0,0,0,.952,0,.457.457,0,0,0,.188-.632,2,2,0,0,0-2.188-.8,21.854,21.854,0,0,0-2.724.426,2.993,2.993,0,0,0-1.92,1.3,4.991,4.991,0,0,0-.312,1.987,16.107,16.107,0,0,0,.122,4.037,7.748,7.748,0,0,0,.944,2.529,5.192,5.192,0,0,0-.544-.2c-.141-.049-.282-.1-.427-.147a6.6,6.6,0,0,0-.841-.195c-.728-1.7-1.435-3.445-2.076-5.224a18.117,18.117,0,0,1-.9-2.9,3.279,3.279,0,0,1,.5-2.7,1.744,1.744,0,0,1,1.483-.736.923.923,0,0,1,.279.075c-.3.295-.115.774.432.912a.274.274,0,0,0,.2-.03c.375-.276.248-.694-.13-.969a.227.227,0,0,0-.1-.063,1.84,1.84,0,0,0-1.61-.061,2.421,2.421,0,0,0-1.181,1.1,3.154,3.154,0,0,0-.38,1.484,8.929,8.929,0,0,0,.7,3.067q.58,1.643,1.226,3.245c.371.926.757,1.84,1.146,2.743a6.493,6.493,0,0,0-1.565.03,6.266,6.266,0,0,0-5.288,4.365c-.306,1.152,3.713,2.424,5.756,2.083a11.511,11.511,0,0,1,1.79.029,1.912,1.912,0,0,0-.608.468,2.021,2.021,0,0,0-.313,1.868,37.722,37.722,0,0,0-4-1.451c-2.529-.216-5.26-7.381-6.171-8.645.91,2.107,3.642,10.114,6.008,9.366a37.7,37.7,0,0,1,4.218.934,4.723,4.723,0,0,0,.3.727,35.985,35.985,0,0,0-4.017.093c-.136-.163-8.742-8.02-9.241-6.906.672-.946,9.076,8.355,9.8,7.445a35.308,35.308,0,0,1,3.614-.339,10.351,10.351,0,0,0,2.311,2.65,10.871,10.871,0,0,0,3.282,1.953q.218.361.424.724a37.172,37.172,0,0,1-.269,4.786c-.352-.1,1.159,2.685.806,2.6.574.152-.72-2.547-.153-2.355q.258-1.8.342-3.685c.741,1.458.687,2.93,1.173,4.4-.129,1.385.907,4.329.627,5.619.432-1.265-.444-4.185-.142-5.55-.458-2.057-.478-4.152-1.41-6.236a3.012,3.012,0,0,0,.864-.057,3.1,3.1,0,0,0-.127.6,4,4,0,0,0,.187,1.626,8.1,8.1,0,0,0,.839,1.775A18.049,18.049,0,0,0,654.026,141a40.72,40.72,0,0,1,4.986,6.47C659.082,147.553,659.081,147.553,659.134,147.493Z" transform="translate(-626.209 -108.7)" fill="#5673a9"/>
        <path id="Path_16991" data-name="Path 16991" d="M631.385,152.16c-.068,1.058-14.242-11.019-14.355-9.974l1.821-1.686s10.471,10.114,11.973,11.12C630.6,151.473,631.2,151.979,631.385,152.16Z" transform="translate(-617.03 -129.957)" fill="#355586"/>
        <path id="Path_16992" data-name="Path 16992" d="M689.15,204.712c-.261.218,1.148,3.018,1.148,3.018l-1.509-.769s-.581-2.821-.194-2.837Q688.878,204.415,689.15,204.712Z" transform="translate(-664.78 -172.487)" fill="#355586"/>
        <path id="Path_16993" data-name="Path 16993" d="M694.673,207.985c-.365.946,0,6.3,0,6.3l1.658.332s-1.3-5.266-.995-6.631C695.174,207.96,694.834,208.006,694.673,207.985Z" transform="translate(-668.823 -175.063)" fill="#355586"/>
        <path id="Path_16994" data-name="Path 16994" d="M673.805,122.747a8.155,8.155,0,0,0,.524,1.691,3.008,3.008,0,0,1,.394.043,9.589,9.589,0,0,1-.726-4.007c.005-.551.037-1.1.073-1.655a7.524,7.524,0,0,1,.186-1.677,2.013,2.013,0,0,1,1.264-1.241,8.432,8.432,0,0,1,2.152-.527,10.551,10.551,0,0,1,1.273-.083,2.4,2.4,0,0,1,1.144.215,1.151,1.151,0,0,1,.1.062,1.217,1.217,0,0,0-.5.206.718.718,0,0,0-.248.3c-.058.141.078.271.253.357a1.113,1.113,0,0,0,.952,0,.456.456,0,0,0,.188-.632,2,2,0,0,0-2.188-.8,21.854,21.854,0,0,0-2.724.426,2.993,2.993,0,0,0-1.92,1.3,4.991,4.991,0,0,0-.312,1.987A16.107,16.107,0,0,0,673.805,122.747Z" transform="translate(-654.856 -112.887)" fill="#355586"/>
        <path id="Path_16995" data-name="Path 16995" d="M669.154,170.361c-2.105-2.177-2.524-4.919-2.21-7.85-1.47.169-3.355-.637-4.578-1.1-1.891-.775-3.995-2.126-3.939-4.268a3.1,3.1,0,0,1,.083-.59,1.236,1.236,0,0,1,.4-.895,2.185,2.185,0,0,1,.206-.24c-.085-.011-.167-.018-.255-.023-.01,0-.024,0-.028-.013.013-.019.036-.022.055-.029a4.288,4.288,0,0,0,.839-.441,2.829,2.829,0,0,0,.97-1.081,2.238,2.238,0,0,0,.182-1.483,2.856,2.856,0,0,0-.265-.717,2.049,2.049,0,0,1-.841.776c-2.13,1.084-5,2.306-7.5.957a3.212,3.212,0,0,1-.4-.257,2.292,2.292,0,0,1-1.51-1.059,6.625,6.625,0,0,0-.715,1.543c-.306,1.152,3.713,2.424,5.756,2.083a11.474,11.474,0,0,1,1.79.029,1.927,1.927,0,0,0-.608.468,2.021,2.021,0,0,0-.313,1.868l-.03-.013c.016.069.031.138.048.205l.039.011a4.723,4.723,0,0,0,.3.727l-.1,0c.049.1.093.2.142.3l.12-.005a10.351,10.351,0,0,0,2.311,2.65,11.029,11.029,0,0,0,3.11,1.886,2.865,2.865,0,0,1,.606.066,3.243,3.243,0,0,1,1.008.4l-.043-.1a3.012,3.012,0,0,0,.864-.057,3.1,3.1,0,0,0-.127.6c-.007.072-.006.143-.009.214a1.916,1.916,0,0,1,.168.722,1.209,1.209,0,0,1-.052.392c.024.1.051.2.08.3a8.089,8.089,0,0,0,.839,1.775,18.181,18.181,0,0,0,1.094,1.576,40.72,40.72,0,0,1,4.986,6.47c.07.087.069.087.122.027a10.509,10.509,0,0,0,1.544-2.361A19.1,19.1,0,0,1,669.154,170.361Z" transform="translate(-638.827 -137.395)" fill="#355586"/>
        <path id="Path_16996" data-name="Path 16996" d="M663.02,117.753c.346.862.708,1.715,1.07,2.557a2.439,2.439,0,0,1,.4.374l.185-.115c-.033-.005-.071-.016-.1-.02-.73-1.7-1.433-3.444-2.076-5.224a18.264,18.264,0,0,1-.9-2.9,3.279,3.279,0,0,1,.5-2.7,1.744,1.744,0,0,1,1.483-.736.923.923,0,0,1,.279.075c-.3.294-.115.775.432.912a.274.274,0,0,0,.2-.03c.375-.276.248-.694-.13-.969a.229.229,0,0,0-.1-.063,1.84,1.84,0,0,0-1.61-.061,2.421,2.421,0,0,0-1.181,1.1,3.154,3.154,0,0,0-.38,1.484,8.957,8.957,0,0,0,.7,3.067Q662.374,116.151,663.02,117.753Z" transform="translate(-646.486 -108.7)" fill="#355586"/>
      </g>
      <g id="Group_33219" data-name="Group 33219" transform="translate(6.363 9.646)">
        <path id="Path_16997" data-name="Path 16997" d="M637.825,137.795l-1.6.91c2.141,3.334,4.638,9.1,6.521,9.376C641.343,147.559,639.432,141.394,637.825,137.795Z" transform="translate(-636.221 -137.795)" fill="#355586"/>
        <path id="Path_16998" data-name="Path 16998" d="M655.891,168.772a.47.47,0,0,0,.408-.023A.889.889,0,0,1,655.891,168.772Z" transform="translate(-649.37 -158.487)" fill="#355586"/>
      </g>
    </g>
    <g id="Group_33221" data-name="Group 33221" transform="translate(128.552 210.194)">
      <path id="Path_16999" data-name="Path 16999" d="M152.693,457.01a2.11,2.11,0,0,0-.181-1.678l-19.078-5.322c-.2.415-.39.834-.549,1.265a1.323,1.323,0,0,1-.07.684c-1.352,4.751-2.669,9.512-3.994,14.271a8.423,8.423,0,0,0-.243,1.006,1.626,1.626,0,0,0,1.232,1.938q8.247,2.31,16.5,4.614a1.644,1.644,0,0,0,1.568-.288,2.411,2.411,0,0,0,.733-1.38c1.362-4.882,2.737-9.759,4.072-14.648A.734.734,0,0,1,152.693,457.01Zm-5.411.9a7.383,7.383,0,0,1-1.036,8.58c-.16.177-.351.324-.517.5-.268.279-.475.279-.673-.084-.291-.536-.6-1.062-.913-1.587a.813.813,0,0,1-.011-.69c.187-.664.372-1.33.557-1.995.166-.587.32-1.179.5-1.763a2.873,2.873,0,0,0-.655-2.9,4.612,4.612,0,0,0-4.941-1.566c-.615.181-.726-.159-.939-.527-.758-1.31-.762-1.307.71-1.589A7.376,7.376,0,0,1,147.282,457.913ZM136.3,461.2c-.129.448-.239.792-.748.316-.191-.179-.447-.388-.706-.2-.293.215-.035.493.049.719.385,1.045.806,2.077,1.191,3.123.178.485.369.569.782.2.83-.743,1.7-1.442,2.548-2.164.158-.135.368-.275.272-.522s-.343-.2-.553-.209c-.93-.048-.931-.049-.684-.954.159-.584.325-1.166.555-1.991,1.044,1.795,1.965,3.367,2.873,4.946.263.457-.051.877-.153,1.3-.308,1.289-.538,1.094.89,1.491a1.808,1.808,0,0,0,.619.125c.412-.041.509.254.585.521.111.385-.259.413-.48.5a7.353,7.353,0,0,1-9.691-5.6,7.243,7.243,0,0,1,2.43-6.884c.407-.373.71-.441.951.139a1.343,1.343,0,0,0,.156.277,1.44,1.44,0,0,1,.076,1.936A10.73,10.73,0,0,0,136.3,461.2Zm4.546-2.962a2.174,2.174,0,0,1,2.276,2.459,15.725,15.725,0,0,1-.456,1.674l-.2.05c-.721-1.227-1.472-2.439-2.149-3.69C140.029,458.2,140.6,458.254,140.844,458.235Zm6.747,13.676c-.256.914-.4.983-1.3.733q-7.9-2.2-15.806-4.41c-.933-.261-1.016-.38-.768-1.273q2.078-7.483,4.172-14.963c.093-.333.128-.682.66-.526,1.7.5,3.418.962,5.129,1.44a8.8,8.8,0,0,0-7.284,8.8,8.487,8.487,0,1,0,13.88-6.794c.147-.233.333-.062.477-.023,1.512.41,3.016.85,4.531,1.246.475.124.649.284.5.814C150.372,461.935,148.991,466.925,147.592,471.911Z" transform="translate(-128.552 -450.01)" fill="#f6f6f6"/>
    </g>
    <g id="Group_33222" data-name="Group 33222" transform="translate(441.862 244.508)">
      <path id="Path_17000" data-name="Path 17000" d="M1096.1,576.74c.461-1.434,2.245-11.051,2.823-14.746a3.565,3.565,0,0,0-.537-2.5l-1.5-2.3a5.31,5.31,0,0,0-1.972-.484,1.129,1.129,0,0,1-.273-.042c0,.019.006.037.007.056-.3.128-.553-.013-.808-.067-4.836-1.019-9.675-2.023-14.5-3.084-.95-.209-1.372.042-1.567.984-1.342,6.46-2.715,12.914-4.073,19.371-.271,1.287-.194,1.4,1.155,1.683q5.559,1.186,11.121,2.359,3.972.842,7.945,1.683c1.383.29,1.512.2,1.8-1.133A18.125,18.125,0,0,1,1096.1,576.74Zm-2.249,2.458c-4.622-1.029-9.262-1.982-13.894-2.963-1.688-.357-3.371-.739-5.065-1.064-.679-.13-.9-.4-.745-1.106q2.045-9.576,4.034-19.164c.154-.738.422-1,1.241-.826,5.021,1.091,10.054,2.131,15.085,3.176.488.1,2.422.71,2.682,1.179a8.836,8.836,0,0,0,.665,1.021c.776,1.192.821,4.124.1,6.261-.316.934-1.314,6.2-1.431,6.734-.417,1.917-.876,3.828-1.209,5.76C1095.142,579.161,1094.826,579.416,1093.847,579.2Z" transform="translate(-1073.572 -553.51)" fill="#ededed"/>
      <path id="Path_17001" data-name="Path 17001" d="M1092.527,585.4a3.225,3.225,0,0,0-.593.439c-.413.439-.728.4-1.178,0-1.172-1.047-1.186-1.154.123-2.128,4.266-3.172,8.411-2.832,12.024.973.3.316.549.809,1.166.5.23-.116.367.1.351.337-.077,1.145-.154,2.291-.247,3.435-.036.442-.27.365-.548.184-.792-.515-1.593-1.017-2.388-1.527-.168-.108-.433-.311-.245-.457.98-.759-.01-1.093-.346-1.43C1098.349,583.433,1095.587,583.308,1092.527,585.4Z" transform="translate(-1084.478 -572.262)" fill="#ededed"/>
    </g>
    <circle id="Ellipse_3139" data-name="Ellipse 3139" cx="5.047" cy="5.047" r="5.047" transform="translate(147.303 234.304)" fill="none" stroke="#ededed" stroke-miterlimit="10" stroke-width="2"/>
    <path id="Path_17002" data-name="Path 17002" d="M238.189,772.152l9.447-1.958-9.305-1.928-2.094-15.059-2.121,15.254-9.278,1.733,9.422,1.76,1.978,15.227Z" transform="translate(-64.364 -442.492)" fill="#f9f9f9"/>
    <g id="Group_33223" data-name="Group 33223" transform="translate(172.799 216.637)">
      <path id="Path_17003" data-name="Path 17003" d="M263.325,469.443a1.359,1.359,0,0,0,0,2.716A1.359,1.359,0,0,0,263.325,469.443Z" transform="translate(-262.013 -469.443)" fill="#fff"/>
    </g>
    <g id="Group_33224" data-name="Group 33224" transform="translate(203.407 187.14)">
      <path id="Path_17004" data-name="Path 17004" d="M355.646,380.474a1.359,1.359,0,0,0,0,2.716A1.359,1.359,0,0,0,355.646,380.474Z" transform="translate(-354.334 -380.474)" fill="#fff"/>
    </g>
    <g id="Group_33225" data-name="Group 33225" transform="translate(151.068 138.965)">
      <path id="Path_17005" data-name="Path 17005" d="M196.535,236.893a1.359,1.359,0,0,0,2.592-.808A1.359,1.359,0,0,0,196.535,236.893Z" transform="translate(-196.467 -235.167)" fill="#fff"/>
    </g>
    <g id="Group_33226" data-name="Group 33226" transform="translate(157.554 176.666)">
      <path id="Path_17006" data-name="Path 17006" d="M217.341,348.881a1.358,1.358,0,0,0,0,2.715A1.358,1.358,0,0,0,217.341,348.881Z" transform="translate(-216.029 -348.881)" fill="#fff"/>
    </g>
    <g id="Group_33227" data-name="Group 33227" transform="translate(145.762 143.625)">
      <path id="Path_17007" data-name="Path 17007" d="M181.773,249.222a1.358,1.358,0,0,0,0,2.715A1.358,1.358,0,0,0,181.773,249.222Z" transform="translate(-180.461 -249.222)" fill="#fff"/>
    </g>
    <circle id="Ellipse_3140" data-name="Ellipse 3140" cx="5.47" cy="5.47" r="5.47" transform="translate(165.64 159.708)" fill="none" stroke="#f9f9f9" stroke-miterlimit="10" stroke-width="2"/>
    <g id="Group_33228" data-name="Group 33228" transform="translate(435.332 91.252)">
      <path id="Path_17008" data-name="Path 17008" d="M1053.877,91.252Z" transform="translate(-1053.877 -91.252)" fill="#cbd4e4"/>
    </g>
    <g id="Group_33229" data-name="Group 33229" transform="translate(456.6 124.783)">
      <path id="Path_17009" data-name="Path 17009" d="M1119.338,192.389a1.358,1.358,0,0,0,0,2.715A1.358,1.358,0,0,0,1119.338,192.389Z" transform="translate(-1118.027 -192.389)" fill="#fff"/>
    </g>
    <circle id="Ellipse_3141" data-name="Ellipse 3141" cx="2.984" cy="2.984" r="2.984" transform="translate(433.062 101.015)" fill="#f9f9f9"/>
    <circle id="Ellipse_3142" data-name="Ellipse 3142" cx="1.492" cy="1.492" r="1.492" transform="translate(431.404 112.951)" fill="#fff"/>
    <circle id="Ellipse_3143" data-name="Ellipse 3143" cx="14.097" cy="14.097" r="14.097" transform="translate(472.61 134.473)" fill="#f3f3f3"/>
    <g id="Group_33230" data-name="Group 33230" transform="translate(526.99 215.192)">
      <path id="Path_17010" data-name="Path 17010" d="M1330.347,465.085Z" transform="translate(-1330.339 -465.085)" fill="#cbd4e4"/>
    </g>
    <g id="Group_33231" data-name="Group 33231" transform="translate(484.282 218.017)">
      <path id="Path_17011" data-name="Path 17011" d="M1204.1,475.562a1.359,1.359,0,0,0-2.416-1.24A1.359,1.359,0,0,0,1204.1,475.562Z" transform="translate(-1201.521 -473.605)" fill="#fff"/>
    </g>
    <circle id="Ellipse_3144" data-name="Ellipse 3144" cx="2.984" cy="2.984" r="2.984" transform="translate(492.143 268.465)" fill="#f9f9f9"/>
    <circle id="Ellipse_3145" data-name="Ellipse 3145" cx="1.492" cy="1.492" r="1.492" transform="translate(505.985 200.945)" fill="#fff"/>
    <g id="Group_33232" data-name="Group 33232" transform="translate(497.063 284.491)">
      <path id="Path_17012" data-name="Path 17012" d="M1242.647,676.064a1.359,1.359,0,0,0-2.416-1.24A1.359,1.359,0,0,0,1242.647,676.064Z" transform="translate(-1240.072 -674.107)" fill="#fff"/>
    </g>
    <g id="Group_33233" data-name="Group 33233" transform="translate(523.586 304.383)">
      <path id="Path_17013" data-name="Path 17013" d="M1322.647,736.064a1.359,1.359,0,0,0-2.416-1.24A1.359,1.359,0,0,0,1322.647,736.064Z" transform="translate(-1320.072 -734.107)" fill="#fff"/>
    </g>
    <g id="Group_33244" data-name="Group 33244" transform="translate(431.086 176.907)">
      <g id="Group_33239" data-name="Group 33239" transform="translate(18.055 2.051)">
        <g id="Group_33234" data-name="Group 33234" transform="translate(36.737 16.913)">
          <path id="Path_17014" data-name="Path 17014" d="M1206.557,406.811a1.9,1.9,0,0,0-.219.378l.015,0Z" transform="translate(-1206.338 -406.811)"/>
        </g>
        <g id="Group_33238" data-name="Group 33238">
          <g id="Group_33235" data-name="Group 33235" transform="translate(25.621 5.262)">
            <ellipse id="Ellipse_3146" data-name="Ellipse 3146" cx="2.625" cy="2.394" rx="2.625" ry="2.394" transform="translate(0 4.335) rotate(-55.678)"/>
          </g>
          <g id="Group_33237" data-name="Group 33237">
            <g id="Group_33236" data-name="Group 33236">
              <ellipse id="Ellipse_3147" data-name="Ellipse 3147" cx="4.978" cy="4.254" rx="4.978" ry="4.254" transform="matrix(0.564, -0.826, 0.826, 0.564, 0, 8.222)" fill="#6c6c6c"/>
            </g>
            <path id="Path_17015" data-name="Path 17015" d="M1117.743,362.444c1.94,1.324,2.256,4.239.707,6.509a5.351,5.351,0,0,1-3.342,2.28l21.774.177,1.742-3.338-.632-1.681-20.76-4.237A3.67,3.67,0,0,1,1117.743,362.444Z" transform="translate(-1108.617 -360.046)"/>
          </g>
        </g>
      </g>
      <path id="Path_17016" data-name="Path 17016" d="M1109.037,368.231c1.55-2.27,1.234-5.185-.706-6.509s-4.77-.558-6.32,1.713-1.234,5.185.707,6.51S1107.487,370.5,1109.037,368.231Zm-5.815.975c-1.592-1.087-1.852-3.478-.58-5.34s3.593-2.492,5.185-1.405,1.851,3.478.58,5.34S1104.813,370.292,1103.222,369.205Z" transform="translate(-1081.15 -357.272)" fill="#6c6c6c"/>
      <g id="Group_33242" data-name="Group 33242" transform="translate(9.057 0.971)">
        <g id="Group_33241" data-name="Group 33241">
          <g id="Group_33240" data-name="Group 33240">
            <ellipse id="Ellipse_3148" data-name="Ellipse 3148" cx="4.978" cy="4.254" rx="4.978" ry="4.254" transform="matrix(0.564, -0.826, 0.826, 0.564, 0, 8.222)" fill="#6c6c6c"/>
            <ellipse id="Ellipse_3149" data-name="Ellipse 3149" cx="4.978" cy="4.254" rx="4.978" ry="4.254" transform="matrix(0.564, -0.826, 0.826, 0.564, 0, 8.222)" fill="#6c6c6c"/>
          </g>
        </g>
        <path id="Path_17017" data-name="Path 17017" d="M1095.959,368.04a3.6,3.6,0,0,0,3-1.524l.013-.019a5.7,5.7,0,0,0,.809-1.761,3.636,3.636,0,0,0-2.832-4.439l-6.862-1.4a3.663,3.663,0,0,1,.51.29c1.941,1.325,2.257,4.239.707,6.509a5.352,5.352,0,0,1-3.342,2.28Z" transform="translate(-1081.477 -356.788)"/>
      </g>
      <g id="Group_33243" data-name="Group 33243" transform="translate(0 0)">
        <path id="Path_17018" data-name="Path 17018" d="M1081.719,365.3c1.55-2.27,1.234-5.185-.707-6.509s-4.77-.558-6.32,1.713-1.234,5.185.707,6.509S1080.169,367.571,1081.719,365.3Zm-5.816.975c-1.592-1.087-1.852-3.478-.58-5.34s3.593-2.492,5.185-1.405,1.851,3.478.579,5.34S1077.5,367.362,1075.9,366.275Z" transform="translate(-1062.889 -355.313)" fill="#6c6c6c"/>
        <ellipse id="Ellipse_3150" data-name="Ellipse 3150" cx="4.978" cy="4.254" rx="4.978" ry="4.254" transform="matrix(0.564, -0.826, 0.826, 0.564, 0, 8.222)" fill="#6c6c6c"/>
        <ellipse id="Ellipse_3151" data-name="Ellipse 3151" cx="3.929" cy="3.467" rx="3.929" ry="3.467" transform="matrix(0.564, -0.826, 0.826, 0.564, 1.329, 7.815)" fill="#fff"/>
        <path id="Path_17019" data-name="Path 17019" d="M1065.151,361.16a2,2,0,0,1,.985.779,2.6,2.6,0,0,1,.43,1.219,2.855,2.855,0,0,1-.172,1.271,2.511,2.511,0,0,1-.708,1.029,7.278,7.278,0,0,0,.3-1.142,4.4,4.4,0,0,0,.043-1.107,3.6,3.6,0,0,0-.261-1.063A3.779,3.779,0,0,0,1065.151,361.16Z" transform="translate(-1057.168 -357.33)" fill="#b6b6b6"/>
        <path id="Path_17020" data-name="Path 17020" d="M1068.641,365.111a3.6,3.6,0,0,0,3-1.524l.013-.019a5.7,5.7,0,0,0,.809-1.762,3.636,3.636,0,0,0-2.832-4.439l-6.862-1.4a3.675,3.675,0,0,1,.511.29c1.94,1.324,2.257,4.239.707,6.509a5.353,5.353,0,0,1-3.342,2.28Z" transform="translate(-1054.159 -353.859)"/>
      </g>
    </g>
    <g id="Group_33245" data-name="Group 33245" transform="translate(180.775 348.32)">
      <path id="Path_17021" data-name="Path 17021" d="M287.382,866.634a1.359,1.359,0,0,0,0,2.716A1.359,1.359,0,0,0,287.382,866.634Z" transform="translate(-286.07 -866.634)" fill="#fff"/>
    </g>
    <g id="Group_33246" data-name="Group 33246" transform="translate(217.14 359.862)">
      <path id="Path_17022" data-name="Path 17022" d="M395.825,903.174a1.358,1.358,0,0,0,2.592-.808A1.358,1.358,0,0,0,395.825,903.174Z" transform="translate(-395.756 -901.447)" fill="#fff"/>
    </g>
    <g id="Group_33247" data-name="Group 33247" transform="translate(188.433 337.889)">
      <path id="Path_17023" data-name="Path 17023" d="M309.236,836.9a1.359,1.359,0,0,0,2.592-.808A1.359,1.359,0,0,0,309.236,836.9Z" transform="translate(-309.168 -835.171)" fill="#fff"/>
    </g>
  </g>
</svg>
