<svg xmlns="http://www.w3.org/2000/svg" xmlns:xlink="http://www.w3.org/1999/xlink" width="514.121" height="336" viewBox="0 0 514.121 336">
  <defs>
    <clipPath id="clip-path">
      <path id="Path_17138" data-name="Path 17138" d="M628.286,465.524c-3.072-12.112-10.259-26.622-18.669-41.109a331.489,331.489,0,0,0-29.033-42.122c-5.453-6.641-10.777-12.637-15.942-18.2a172.015,172.015,0,0,0-15.614-15.171,63.756,63.756,0,0,0-15.842-10.048,54.586,54.586,0,0,0-17.247-3.7c-6.23-.48-12.845-.522-19.706-1.345a119.624,119.624,0,0,1-20.9-4.756c-14.268-4.393-28.378-10.448-44.529-13.741-16.33-3.322-34.984-3.558-54.893-3.5-17.273.06-36.961.581-57.857,5.152-20.795,4.592-36.637,31.844-62.347,30.03-72.393-5.106-70.981,10.153-87.778,40.674C146.1,426.073,194.7,492.864,228.3,511.739c22.72,13.295,47.183,25.827,51.215,28.561,8.553,5.928,19.005,9.642,30.136,11.677a168.229,168.229,0,0,0,35.867,2.13c12.524-.482,26.515-1.681,37.468,3.414,8.441,3.908,13.034,10.667,21.165,14.661,9.127,4.489,21.333,4.457,31.315,2.1,68.507-16.426,116.377-32,144.874-46.5,29.01-14.171,38.647-27.263,42.534-31.189C630,489.32,631.7,478.879,628.286,465.524Z" transform="translate(-162.48 -311.827)" fill="none"/>
    </clipPath>
  </defs>
  <g id="Group_33288" data-name="Group 33288" transform="translate(-38.252 -122.584)">
    <path id="Path_17136" data-name="Path 17136" d="M631.154,461.423c-3.072-12.112-10.259-26.622-18.669-41.109a331.492,331.492,0,0,0-29.033-42.122c-5.453-6.641-10.777-12.637-15.942-18.2A172.01,172.01,0,0,0,551.9,344.824a63.756,63.756,0,0,0-15.842-10.048,54.586,54.586,0,0,0-17.247-3.7c-6.23-.48-12.845-.522-19.706-1.345a119.626,119.626,0,0,1-20.9-4.756c-14.268-4.393-28.378-10.448-44.529-13.741-16.33-3.322-34.984-3.558-54.893-3.5-17.273.06-36.961.581-57.857,5.152-20.795,4.592-72.412-18.139-91.962-1.342-9.369,7.937-39.49,36.648-56.287,67.169-21.83,38.381,24.9,110.05,58.495,128.925,22.72,13.295,47.183,25.827,51.215,28.561,8.553,5.928,19,9.642,30.136,11.677a168.237,168.237,0,0,0,35.867,2.13c12.524-.482,26.515-1.681,37.468,3.414,8.442,3.908,13.034,10.667,21.165,14.661,9.127,4.489,21.333,4.457,31.315,2.1,68.507-16.426,116.377-32,144.874-46.5,29.01-14.171,38.647-27.263,42.534-31.189C632.868,485.219,634.572,474.778,631.154,461.423Z" transform="translate(-80.481 -114.13)" fill="#f9f9f9"/>
    <g id="Group_33289" data-name="Group 33289" transform="translate(84.868 193.596)">
      <g id="Group_33288-2" data-name="Group 33288" transform="translate(0 0)" clip-path="url(#clip-path)">
        <path id="Path_17137" data-name="Path 17137" d="M13.975,552.562A73.683,73.683,0,0,0,.918,528.586c-13.5-16.672-32.132-25.751-48.842-25.551A32.705,32.705,0,0,1-72.952,492.03a15.057,15.057,0,0,0-5.576-4.013,16.251,16.251,0,0,0-12.4.229l-17.333-4.53a6.728,6.728,0,0,0-2.478-1.8c-2.24-.925-4.9-.507-7.762,1.023a46.352,46.352,0,0,1-30.57,4.984,407.837,407.837,0,0,0-114.383-5.453,53.765,53.765,0,0,1-32.31-7.2,63.539,63.539,0,0,0-8.1-4.037c-34.2-14.112-74.033,3.787-88.966,39.979-.653,1.582-1.232,3.173-1.764,4.77a1.875,1.875,0,0,1-1.016,1.124,431.654,431.654,0,0,0-96.013,58.972Q-504,586.1-515.42,596.819a42.505,42.505,0,0,1-30.136,11.8,25.5,25.5,0,0,0-18.566,7.108c-9.681,9.343-10.3,24.6-1.912,35.328a1.91,1.91,0,0,1,.03,2.312l-.017.023a1.886,1.886,0,0,1-2.342.584c-20.4-10.027-44.614-4.746-56.264,13.152-8.57,13.165-8.141,29.782-.381,43.456a52.36,52.36,0,0,1,2.975,44.491c-25.488,66.774-33.2,138.545-22.169,207.639a15.34,15.34,0,0,1-2.29,10.8l-.031.048c-18.215,27.985-10.864,65.068,16.421,82.828l.159.1a84.425,84.425,0,0,1,28.217,29.989,378.286,378.286,0,0,0,37.191,55.181,377.012,377.012,0,0,0,61.921,60.669,69.613,69.613,0,0,1,23.1,30.971,21.811,21.811,0,0,0,8.558,11.058c5.461,3.554,12.126,4.217,18.737,2.465a2.042,2.042,0,0,1,2.3,1.082,34.2,34.2,0,0,0,12.392,14.883c8.269,5.382,18.569,6.544,29.754,4.107a71.023,71.023,0,0,1,34.679.88c82.641,23.645,173.185,20.266,257.328-11.311a55.324,55.324,0,0,1,45.731,2.828c4.994,2.708,10.1,3.491,14.693,1.827,6.63-2.4,10.821-9.422,12.109-18.621a53.671,53.671,0,0,1,22.689-36.3q12.42-8.688,24.4-18.38c84.6-68.519,136.227-162.092,152.17-259.56a40.927,40.927,0,0,1,10.637-21.572c6.973-7.357,10.708-15.416,10.333-23.737-.274-6.075-2.72-11.813-6.981-17.075a42.561,42.561,0,0,1-9.277-24.464c-4.292-78.139-31.816-154.78-83.971-219.174a377.48,377.48,0,0,0-50.314-51.277A39.963,39.963,0,0,1,13.975,552.562Z" transform="translate(349.199 -408.4)" fill="#f6f6f6"/>
      </g>
    </g>
    <g id="Group_33291" data-name="Group 33291" transform="translate(260.46 410.654)">
      <g id="Group_33290" data-name="Group 33290" transform="translate(0)">
        <circle id="Ellipse_3180" data-name="Ellipse 3180" cx="6.546" cy="6.546" r="6.546" fill="#f2f2f2"/>
      </g>
      <path id="Path_17139" data-name="Path 17139" d="M637.739,890.7a6.545,6.545,0,0,1,5.953,9.266A6.546,6.546,0,1,0,632,894.1,6.544,6.544,0,0,1,637.739,890.7Z" transform="translate(-631.408 -890.27)" fill="#d9d9d9"/>
    </g>
    <g id="Group_33293" data-name="Group 33293" transform="translate(322.655 385.461)">
      <g id="Group_33292" data-name="Group 33292">
        <circle id="Ellipse_3181" data-name="Ellipse 3181" cx="12.43" cy="12.43" r="12.43" fill="#f2f2f2"/>
      </g>
      <path id="Path_17140" data-name="Path 17140" d="M809.291,824.79a12.42,12.42,0,0,1,11.516,17.1A12.423,12.423,0,1,0,798.6,830.9,12.412,12.412,0,0,1,809.291,824.79Z" transform="translate(-797.689 -823.133)" fill="#d9d9d9"/>
    </g>
    <g id="Group_33295" data-name="Group 33295" transform="translate(372.376 380.489)">
      <g id="Group_33294" data-name="Group 33294" transform="translate(0 0)">
        <circle id="Ellipse_3182" data-name="Ellipse 3182" cx="15.331" cy="15.331" r="15.331" fill="#f2f2f2"/>
      </g>
      <path id="Path_17141" data-name="Path 17141" d="M945.154,811.54A15.335,15.335,0,0,1,959.295,832.8a15.327,15.327,0,1,0-27.452-13.513A15.315,15.315,0,0,1,945.154,811.54Z" transform="translate(-930.652 -809.882)" fill="#d9d9d9"/>
    </g>
    <g id="Group_33296" data-name="Group 33296" transform="translate(513.508 196.559)">
      <path id="Path_17142" data-name="Path 17142" d="M1314,327.511q4.018-3.487,8.038-6.973c1.464-1.267,2.487-1.074,3.144.689.9,2.408,1.709,4.851,2.55,7.282q3.586,10.37,7.17,20.741c.26.75.539,1.484-.255,2.156s-1.486.247-2.175-.107q-12.609-6.463-25.214-12.933a15.647,15.647,0,0,1-1.619-.937c-1.116-.755-1.153-1.621-.095-2.546q4.223-3.692,8.47-7.357Zm.254.466.01.011q-4.064,3.527-8.127,7.054c-1.049.912-1.03,1.393.078,2.141a6.637,6.637,0,0,0,.674.373q10.791,5.544,21.583,11.085c1.571.806,3.153,1.592,4.721,2.4a.931.931,0,0,0,1.146-.065.868.868,0,0,0,.21-1.031c-.084-.283-.173-.564-.269-.842q-3.71-10.738-7.425-21.473c-.734-2.117-1.427-4.255-2.278-6.321-.548-1.331-1.076-1.355-2.2-.387Q1318.316,324.446,1314.255,327.977Z" transform="translate(-1304.776 -319.722)" fill="#fff"/>
      <path id="Path_17143" data-name="Path 17143" d="M1342.227,334.516q.652-.566,1.3-1.131c.187-.161.416-.283.59-.071s-.012.413-.191.569c-.668.582-1.334,1.164-2.008,1.738-.2.171-.413.388-.7.19a.6.6,0,0,1-.158-.8,7.5,7.5,0,0,0,.653-2.067c-.421.366-.839.735-1.265,1.094-.178.15-.4.312-.593.106s0-.419.169-.57q.994-.881,2-1.742c.206-.176.432-.362.7-.166a.6.6,0,0,1,.141.8c-.282.651-.567,1.3-.851,1.95Z" transform="translate(-1326.647 -327.132)" fill="#fff"/>
      <path id="Path_17144" data-name="Path 17144" d="M1357.925,373.635c-.434.376-.861.76-1.3,1.125-.2.161-.443.427-.666.139-.158-.2.059-.418.234-.571q1-.876,2-1.741c.2-.175.435-.362.706-.184a.586.586,0,0,1,.177.792,10.283,10.283,0,0,0-.779,2.2c.471-.409.937-.824,1.416-1.224.174-.145.4-.309.578-.066.126.172-.02.359-.165.487q-1.079.956-2.171,1.9c-.179.155-.39.269-.611.106a.527.527,0,0,1-.167-.691c.31-.721.624-1.441.935-2.161Z" transform="translate(-1336.716 -352.59)" fill="#fff"/>
      <path id="Path_17145" data-name="Path 17145" d="M1364.525,382.032a1.722,1.722,0,0,0-.728,1.12.5.5,0,0,0,.511.588c.232.02.474-.013.436-.345-.026-.23-.272-.549.165-.606.323-.042.461.316.651.528a.388.388,0,0,1-.1.657c-.392.235-.719,1.024-1.135.665-.526-.453-1.513-.744-1.156-1.852a3.35,3.35,0,0,1,2.23-1.966,1.188,1.188,0,0,1,1.415.784c.116.344.248.85-.17,1-.53.185-.339-.357-.417-.643C1366.031,381.243,1365.38,381.278,1364.525,382.032Z" transform="translate(-1341.209 -357.885)" fill="#fff"/>
      <path id="Path_17146" data-name="Path 17146" d="M1347.856,340.6a2.351,2.351,0,0,1,1.166-.692,1.491,1.491,0,0,1,.979.124c.665.372.732,1.235.166,2.062-.742,1.084-2.078,1.585-2.817,1.056a1.438,1.438,0,0,1,.074-2.17A5.3,5.3,0,0,1,1347.856,340.6Zm.33.6c-.256.379-.958.77-.522,1.278.526.612,1.088,0,1.535-.388.421-.366,1.043-.848.495-1.38C1349.164,340.194,1348.7,340.894,1348.186,341.2Z" transform="translate(-1331.088 -332.315)" fill="#fff"/>
      <path id="Path_17147" data-name="Path 17147" d="M1329.887,365.2l1.932-1.531.266.293a11.187,11.187,0,0,1-2.507,2.116c-.458.255-.582-.259-.4-.684.237-.543.493-1.078.88-1.918-.444.323-.583.45-.743.536-.4.213-.757,1.037-1.143.58-.3-.358.507-.71.834-1.048a11.763,11.763,0,0,1,1.045-.913c.234-.191.493-.444.8-.185s.1.538-.033.815C1330.552,363.805,1330.294,364.351,1329.887,365.2Z" transform="translate(-1319.353 -346.345)" fill="#fff"/>
      <path id="Path_17148" data-name="Path 17148" d="M1336.136,352.621c-.262.367-.416.457-.542.375a.427.427,0,0,1-.175-.356c.225-1.093-.031-1.737-1.318-1.508a.31.31,0,0,1-.384-.294.466.466,0,0,1,.249-.323c1.014-.43,2.026-.868,3.058-1.244.537-.2.873.141.645.62C1337.181,350.911,1336.561,351.876,1336.136,352.621Zm.578-2.475c-.435.208-1.052.067-1.208.683-.029.114.3.443.42.418C1336.495,351.133,1336.491,350.563,1336.713,350.145Z" transform="translate(-1322.857 -338.147)" fill="#fff"/>
      <path id="Path_17149" data-name="Path 17149" d="M1344.506,355.55a1.393,1.393,0,0,1,.32,1.066c-.02.194-.068.4-.286.438a.279.279,0,0,1-.346-.319c.018-.493-.131-1.066-.661-.878-.676.24-.169.828-.1,1.247.1.568.194,1.118-.345,1.548a1.141,1.141,0,0,1-1.185.121,1.44,1.44,0,0,1-.892-1.4c-.01-.248-.046-.574.327-.616s.386.222.354.519c-.06.56.143,1.077.755.921.744-.19.351-.813.238-1.213-.179-.635-.376-1.257.33-1.7A1.148,1.148,0,0,1,1344.506,355.55Z" transform="translate(-1327.413 -341.83)" fill="#fff"/>
      <path id="Path_17150" data-name="Path 17150" d="M1350.294,362.213a1.5,1.5,0,0,1,.3,1.072c-.018.192-.086.385-.314.409a.3.3,0,0,1-.352-.323c0-.474-.049-1.062-.653-.844-.58.209-.176.772-.091,1.163.121.563.212,1.11-.333,1.541a1.124,1.124,0,0,1-1.366.078,1.455,1.455,0,0,1-.7-1.4c.009-.222.055-.476.354-.493.283-.016.379.173.352.434-.056.534.029,1.125.683.948.782-.212.348-.844.227-1.286-.168-.612-.24-1.191.414-1.588A1.141,1.141,0,0,1,1350.294,362.213Z" transform="translate(-1331.023 -345.983)" fill="#fff"/>
      <path id="Path_17151" data-name="Path 17151" d="M1330.259,342.671c.174-.151.348-.3.523-.454,1.038-.892,1.641-.758,2.122.5a1.179,1.179,0,0,1-.346,1.518,1.038,1.038,0,0,1-1.436-.079c-.484-.475-.886-.724-1.453-.067-.155.179-.406.28-.593.076s-.031-.415.145-.575c.342-.309.695-.606,1.044-.909Zm1.146.968a.55.55,0,0,0,.789-.086c.322-.348.154-.7-.11-.982-.343-.368-.589-.021-.848.182C1330.919,343,1330.936,343.248,1331.405,343.64Z" transform="translate(-1319.903 -333.417)" fill="#fff"/>
      <path id="Path_17152" data-name="Path 17152" d="M1335.348,372.909a2.437,2.437,0,0,1-1.43-1.7,8.441,8.441,0,0,1,2.386-2.1c.79.161,1.1.782,1.388,1.469-.485.182-.6-.16-.793-.332-.231-.2-.392-.61-.809-.247s-.017.585.144.835a.435.435,0,0,1,.052.513c-.576.32-.822-1.118-1.459-.23C1334.278,371.88,1335.511,372.036,1335.348,372.909Z" transform="translate(-1322.982 -350.576)" fill="#fff"/>
      <path id="Path_17153" data-name="Path 17153" d="M1325.959,359.634a7.275,7.275,0,0,1-1.012.553,1.008,1.008,0,0,1-1.362-.413c-.436-.848.168-1.439.75-1.94s1.234-1.045,2.031-.528a1.015,1.015,0,0,1,.266,1.4A6.138,6.138,0,0,1,1325.959,359.634Zm-.446-.487c.3-.407.944-.79.577-1.237-.41-.5-.948-.01-1.348.334s-.981.811-.568,1.283C1324.622,360.038,1325.076,359.321,1325.513,359.147Z" transform="translate(-1316.434 -343.073)" fill="#fff"/>
      <path id="Path_17154" data-name="Path 17154" d="M1320.785,352.066c0-.572-.66-.715-.5-1.32.81.1,1.062.81,1.446,1.321.213.284-.128.452-.4.516-.37.088-.751.126-1.116.232-.653.19-2.157-.083-.811,1.293a.307.307,0,0,1-.006.3.247.247,0,0,1-.391.018,8.4,8.4,0,0,1-1.047-1.259c-.252-.436.175-.577.521-.65C1319.253,352.354,1320.025,352.213,1320.785,352.066Z" transform="translate(-1312.967 -339.104)" fill="#fff"/>
      <path id="Path_17155" data-name="Path 17155" d="M1355.174,368.024c.261.35.492.517-.214.842a9.192,9.192,0,0,0-2.021,1.684c-.164.147-.094.621-.5.4a1.139,1.139,0,0,1-.491-.568c-.159-.433.3-.294.473-.428a6.94,6.94,0,0,0,2.012-1.86C1354.748,367.554,1354.918,367.794,1355.174,368.024Z" transform="translate(-1334.229 -349.739)" fill="#fff"/>
    </g>
    <g id="Group_33297" data-name="Group 33297" transform="translate(469.487 304.492)">
      <path id="Path_17156" data-name="Path 17156" d="M1205.568,625.833c4.361,1.7,8.707,3.444,13.093,5.077,1.08.4,1.232.9,1,1.941-1.757,7.9-6.531,13.1-14.115,15.7a19.61,19.61,0,0,1-8.571.507c-1.3-.143-2.1-1.318-3-2.151a20.2,20.2,0,0,1-3.453-25.538c.527-.859.984-1.089,1.984-.682,4.336,1.764,8.711,3.43,13.071,5.132Zm-7.358,8.679a14.316,14.316,0,0,1-4.931,2.487c-.326.106-1.016-.131-.857.567a1.115,1.115,0,0,0,1.057,1.033c3.884.308,8.44-3.552,8.712-7.438a5.108,5.108,0,0,0-6.7-5.011,4.111,4.111,0,0,0-2.718,3.322,3.75,3.75,0,0,0,1.519,3.859A5.408,5.408,0,0,0,1198.209,634.512Zm11.567-3.784c-.934-.365-1.885-.692-2.8-1.105-.762-.345-1.127-.12-1.394.634-.474,1.339-1.032,2.647-1.536,3.975s-.277,1.585,1.151,1.469a3.54,3.54,0,0,1,3.344,1.322,2.729,2.729,0,0,1-.057,2.974c-.874,1.8-2.7,2.19-4.411.954a4.64,4.64,0,0,1-1-.942c-.519-.69-.889-.261-1.334.075-.575.435-.426.813,0,1.227a7.471,7.471,0,0,0,4.077,2.051c2.755.441,4.787-1.065,5.4-3.973.489-2.316-.752-4.292-3.4-4.829-1.517-.307-1.2-.859-.839-1.857.35-.966.795-1.074,1.658-.677,1.061.488,2.179.85,3.26,1.3.567.234.906.175,1.154-.463.264-.678-.064-.894-.6-1.091C1211.563,631.436,1210.672,631.075,1209.777,630.728Z" transform="translate(-1187.464 -615.563)" fill="#ededed"/>
      <path id="Path_17157" data-name="Path 17157" d="M1213.694,616.6q-6.362-2.483-12.723-4.967c-1.26-.493-1.265-.529-.289-1.515.205-.208.425-.4.637-.6,2.876-2.716,2.868-2.7,6.265-.894a19.794,19.794,0,0,0,7.83,2.471,1.546,1.546,0,0,1,.917.33,19.383,19.383,0,0,0,9.715,4.027,1.324,1.324,0,0,1,1.308,1.206,29.671,29.671,0,0,1,.427,4.229c.051.926-.218,1.16-1.138.792-4.306-1.719-8.632-3.386-12.951-5.072Zm.1-1.017a13.128,13.128,0,0,1,.914-2.314c.241-.361-.141-.792-.547-.983-.321-.15-.78-.461-1-.027a6.942,6.942,0,0,0-.968,2.755c.647-.065.463-1,1.05-.841C1213.953,614.361,1213.115,615.218,1213.8,615.582Zm-6.417-3.879c-.114-.7-.192-1.225-.289-1.748-.038-.2-.108-.415-.357-.454-.2-.032-.294.125-.355.279-.324.814-.64,1.632-1.036,2.647.937-.326.724-1.143,1.319-1.5.115.607.212,1.168.331,1.724.082.389.351.72.61.224a8.068,8.068,0,0,0,.992-2.849C1207.813,610.469,1207.919,611.147,1207.38,611.7Zm12.57,6.6a11.1,11.1,0,0,0,.418-3.2c.024-.4-.318-.656-.658-.283a9.221,9.221,0,0,0-1.9,2.558C1219.371,616.529,1219.394,616.538,1219.949,618.3Zm-7.927-5.09c-.047-.511-.837-.463-.58-1.052s.865.169,1.211-.348c-.436-.32-1.041-.789-1.378-.388a3.9,3.9,0,0,0-1.009,2.715c.043.539.784.646,1.368.561-.017-.622-1.047-.449-.727-1.193C1211.153,612.934,1211.665,613.464,1212.022,613.212Zm12.715,3.286c-.524-.246-1.066-.836-1.442-.269a3.967,3.967,0,0,0-.908,2.747c.059.352.78.6,1.331.453-.019-.622-.893-.44-.761-1.089.154-.756.874-.1,1.17-.415-.031-.5-.828-.439-.6-1.019S1224.291,616.934,1224.738,616.5Zm-15.917-6.192c1.164,1.324-.426,2.257-.031,3.422,1.059-.618.528-2.385,2.1-2.532A4.183,4.183,0,0,0,1208.821,610.305Zm5.44,5.35c.4.656.891.81,1.47.458a.891.891,0,0,0,.268-1.407c-.823-1-.344-1.262.811-1.2-.608-.611-1.116-.662-1.57-.218-.436.427-.257.918.047,1.365.18.265.528.514.289.871-.25.374-.6.105-.908.035C1214.572,615.536,1214.457,615.6,1214.261,615.655Zm6.614,2.866c.891-.943.584-2.451,2.165-2.681a4.522,4.522,0,0,0-2-.717C1222.08,616.275,1220.55,617.216,1220.875,618.521Zm-3.8-4.954c1.177,1.191-.29,2.13-.109,3.334,1.006-.758.5-2.53,2.359-2.5A5.905,5.905,0,0,0,1217.08,613.567Zm-11.409-4.354a5.083,5.083,0,0,0-1.023,2.7A4.126,4.126,0,0,0,1205.67,609.213Z" transform="translate(-1195.286 -607.356)" fill="#ededed"/>
      <path id="Path_17158" data-name="Path 17158" d="M1207.783,641.372a2.28,2.28,0,0,1,3.178-1.517q2.414.914,1.442,3.4a2.183,2.183,0,0,1-3.179,1.448A2.359,2.359,0,0,1,1207.783,641.372Z" transform="translate(-1200.015 -627.533)" fill="#ededed"/>
    </g>
    <path id="Path_17159" data-name="Path 17159" d="M1218.618,487.741l8.568-1.775-8.439-1.749-1.9-13.656-1.924,13.833-8.414,1.572,8.544,1.6,1.793,13.809Z" transform="translate(-729.876 -217.4)" fill="#ededed"/>
    <path id="Path_17160" data-name="Path 17160" d="M887.7,431.822l6.064-1.257-5.973-1.238-1.344-9.666-1.362,9.791-5.956,1.113,6.048,1.13,1.269,9.774Z" transform="translate(-525.341 -185.6)" fill="#ededed"/>
    <g id="Group_33298" data-name="Group 33298" transform="translate(438.279 237.144)">
      <path id="Path_17161" data-name="Path 17161" d="M1104.3,498.438c.193,2.716,4.414,2.42,4.221-.3S1104.109,495.717,1104.3,498.438Z" transform="translate(-1104.296 -470.589)" fill="#f6f6f6"/>
      <path id="Path_17162" data-name="Path 17162" d="M1116.931,430.073c.193,2.716,4.415,2.42,4.221-.3S1116.738,427.352,1116.931,430.073Z" transform="translate(-1112.186 -427.878)" fill="#f6f6f6"/>
      <path id="Path_17163" data-name="Path 17163" d="M1211.489,740.691c.193,2.716,4.414,2.42,4.221-.3S1211.3,737.97,1211.489,740.691Z" transform="translate(-1171.261 -621.938)" fill="#f6f6f6"/>
      <path id="Path_17164" data-name="Path 17164" d="M1243.976,775.862c.193,2.716,4.414,2.42,4.221-.3S1243.783,773.141,1243.976,775.862Z" transform="translate(-1191.558 -643.911)" fill="#f6f6f6"/>
    </g>
    <g id="Group_33299" data-name="Group 33299" transform="translate(268.659 143.759)">
      <path id="Path_17165" data-name="Path 17165" d="M689.031,179.022c-2.714.217-2.381,4.435.338,4.218S691.749,178.8,689.031,179.022Z" transform="translate(-674.065 -179.014)" fill="#f6f6f6"/>
      <path id="Path_17166" data-name="Path 17166" d="M654.148,211.818c-2.714.217-2.381,4.436.338,4.218S656.867,211.6,654.148,211.818Z" transform="translate(-652.272 -199.504)" fill="#f6f6f6"/>
    </g>
    <g id="Group_33300" data-name="Group 33300" transform="translate(348.344 122.584)">
      <path id="Path_17167" data-name="Path 17167" d="M1177.9,127.694c-2.544-.97-4.056,2.982-1.508,3.954S1180.448,128.665,1177.9,127.694Z" transform="translate(-1058.582 -125.681)" fill="#f6f6f6"/>
      <path id="Path_17168" data-name="Path 17168" d="M1234.564,167.972c-2.544-.97-4.056,2.982-1.508,3.954S1237.113,168.943,1234.564,167.972Z" transform="translate(-1093.984 -150.845)" fill="#f6f6f6"/>
      <path id="Path_17169" data-name="Path 17169" d="M913.039,122.736c-2.544-.97-4.056,2.982-1.507,3.954S915.588,123.707,913.039,122.736Z" transform="translate(-893.109 -122.584)" fill="#f6f6f6"/>
      <path id="Path_17170" data-name="Path 17170" d="M867.45,137.363c-2.544-.97-4.056,2.982-1.508,3.954S870,138.335,867.45,137.363Z" transform="translate(-864.627 -131.722)" fill="#f6f6f6"/>
    </g>
    <path id="Path_17171" data-name="Path 17171" d="M1342.513,513.17l3.885-.805-3.827-.793-.861-6.193-.872,6.273-3.816.713,3.875.724.813,6.262Z" transform="translate(-811.414 -239.153)" fill="#fff"/>
    <path id="Path_17172" data-name="Path 17172" d="M1237.8,257.49l6.064-1.257L1237.891,255l-1.344-9.666-1.361,9.791-5.956,1.113,6.048,1.13,1.269,9.774Z" transform="translate(-744.07 -76.686)" fill="#fff"/>
    <path id="Path_17173" data-name="Path 17173" d="M906.413,219.9l6.064-1.257L906.5,217.4l-1.344-9.666-1.362,9.791-5.956,1.113,6.048,1.13,1.27,9.774Z" transform="translate(-537.034 -53.198)" fill="#fff"/>
    <ellipse id="Ellipse_3183" data-name="Ellipse 3183" cx="91.372" cy="8.631" rx="91.372" ry="8.631" transform="translate(88.065 340.757)" fill="#b7b7b7"/>
    <path id="Path_17174" data-name="Path 17174" d="M1159.1,204.225c-3.364,3.367-6.83,6.636-10.446,9.735s-7.312,6.11-11.2,8.865a83.394,83.394,0,0,1-12.234,7.434,32.387,32.387,0,0,1-6.806,2.441,12.6,12.6,0,0,1-3.7.291,5.864,5.864,0,0,1-3.6-1.485,5.941,5.941,0,0,1-1.6-3.584,12.825,12.825,0,0,1,.181-3.758,32.794,32.794,0,0,1,2.25-6.952,80.152,80.152,0,0,1,7.123-12.552,164.233,164.233,0,0,1,40.466-40.474,79.668,79.668,0,0,1,12.551-7.125,32.822,32.822,0,0,1,6.954-2.25,12.841,12.841,0,0,1,3.76-.18,5.942,5.942,0,0,1,3.588,1.6,5.865,5.865,0,0,1,1.487,3.6,12.609,12.609,0,0,1-.291,3.7,32.374,32.374,0,0,1-2.442,6.807,83.111,83.111,0,0,1-7.437,12.234c-2.756,3.891-5.755,7.6-8.866,11.2S1162.467,200.861,1159.1,204.225Zm0,0a156.291,156.291,0,0,0,18.317-21.845,78.719,78.719,0,0,0,7.012-12.359,31.526,31.526,0,0,0,2.162-6.677,11.574,11.574,0,0,0,.164-3.394,4.057,4.057,0,0,0-4.1-3.974,11.463,11.463,0,0,0-3.337.275,31.329,31.329,0,0,0-6.531,2.354,82.436,82.436,0,0,0-12.041,7.325c-3.851,2.727-7.527,5.7-11.107,8.789s-7.031,6.326-10.376,9.668-6.594,6.786-9.67,10.375-6.064,7.255-8.792,11.105a81.968,81.968,0,0,0-7.327,12.041,31.341,31.341,0,0,0-2.354,6.532,11.471,11.471,0,0,0-.275,3.34,4.064,4.064,0,0,0,3.979,4.1,11.583,11.583,0,0,0,3.4-.164,31.6,31.6,0,0,0,6.678-2.162,78.539,78.539,0,0,0,12.358-7.015A156.348,156.348,0,0,0,1159.1,204.225Z" transform="translate(-690.154 -30.213)" fill="#fff"/>
    <circle id="Ellipse_3184" data-name="Ellipse 3184" cx="4.878" cy="4.878" r="4.878" transform="translate(459.434 202.813)" fill="#f8f8f8"/>
    <ellipse id="Ellipse_3185" data-name="Ellipse 3185" cx="29.55" cy="29.55" rx="29.55" ry="29.55" transform="translate(425.963 130.809)" fill="#f8f8f8"/>
    <path id="Path_17175" data-name="Path 17175" d="M1111.86,231.391a5.39,5.39,0,0,1-1.55-3.2,12.345,12.345,0,0,1,.079-3.633,31.711,31.711,0,0,1,2.087-6.926,76.437,76.437,0,0,1,6.986-12.594,157.906,157.906,0,0,1,40.443-40.447A76.392,76.392,0,0,1,1172.5,157.6a31.733,31.733,0,0,1,6.928-2.087,12.333,12.333,0,0,1,3.633-.078,5.386,5.386,0,0,1,3.2,1.551,5.2,5.2,0,0,0-3.24-1.181,11.952,11.952,0,0,0-3.464.378A32.452,32.452,0,0,0,1173,158.7a86.448,86.448,0,0,0-12,7.463c-3.81,2.789-7.514,5.733-11.062,8.857-3.576,3.091-7.024,6.335-10.364,9.684s-6.591,6.788-9.686,10.361c-3.122,3.55-6.069,7.251-8.857,11.062a86.452,86.452,0,0,0-7.463,12,32.5,32.5,0,0,0-2.516,6.558,11.991,11.991,0,0,0-.377,3.465A5.2,5.2,0,0,0,1111.86,231.391Z" transform="translate(-690.47 -30.532)" fill="#fff"/>
    <g id="Group_33301" data-name="Group 33301" transform="translate(242.057 313.159)">
      <path id="Path_17176" data-name="Path 17176" d="M616.677,664.668,600.393,651.3c1.308-3.5-.841-9.086-5.158-13.155-4.326-4.181-9.555-4.6-12.233-1.1l.2-.671-.8,1.587c-2.439,4.5-.392,11.026,4.607,14.451,4.343,2.885,9.274,3.159,11.9.978l17.915,13.564.8-1.587Z" transform="translate(-581.378 -633.099)" fill="#6c6c6c"/>
      <path id="Path_17177" data-name="Path 17177" d="M618.96,662.722l-.147-2.287-16.284-13.364c1.308-3.5-.841-9.086-5.158-13.155-4.674-4.517-10.4-4.652-12.83-.188-2.439,4.5-.392,11.026,4.607,14.451,4.343,2.885,9.273,3.16,11.9.978Z" transform="translate(-582.712 -630.453)"/>
      <path id="Path_17178" data-name="Path 17178" d="M603.89,650.307c-1.619,2.614-6.071,2.731-9.919.176-3.827-2.623-5.4-7.617-3.528-11.066,1.859-3.418,6.245-3.315,9.824.144C603.867,642.952,605.5,647.724,603.89,650.307Z" transform="translate(-586.55 -634.486)" fill="#fff"/>
      <path id="Path_17179" data-name="Path 17179" d="M603.341,659.511c-1.167-1.807-1.88-4.16-3.7-5.294a8.041,8.041,0,0,0-9.178.8,10.073,10.073,0,0,0,4.011,5.6c3.689,2.45,7.932,2.441,9.7.134C603.9,660.346,603.613,659.933,603.341,659.511Z" transform="translate(-587.056 -644.626)" fill="#f6f6f6"/>
      <path id="Path_17180" data-name="Path 17180" d="M614.165,643.341a9.771,9.771,0,0,0-1.71-1.33c.258.208.514.43.764.673,3.405,3.209,4.951,7.725,3.427,10.169a4.15,4.15,0,0,1-2.921,1.823,4.214,4.214,0,0,0,3.653-1.8C618.808,650.585,617.358,646.351,614.165,643.341Z" transform="translate(-600.793 -637.674)" fill="#b6b6b6"/>
    </g>
    <g id="Group_33305" data-name="Group 33305" transform="translate(228.391 254.016)">
      <g id="Group_33304" data-name="Group 33304" transform="translate(0 0)">
        <circle id="Ellipse_3186" data-name="Ellipse 3186" cx="22.78" cy="22.78" r="22.78" transform="translate(48.81 21.01)" fill="#cbd4e4"/>
        <g id="Group_33303" data-name="Group 33303">
          <g id="Group_33302" data-name="Group 33302">
            <path id="Path_17181" data-name="Path 17181" d="M997.027,531.294" transform="translate(-827.391 -509.36)" fill="#dce2ed"/>
            <path id="Path_17182" data-name="Path 17182" d="M1059.629,674.776" transform="translate(-866.502 -599.001)" fill="#788eba"/>
            <path id="Path_17183" data-name="Path 17183" d="M734.405,567.8c-.692-3.007-6.249-26.082-26.133-30.019a40.5,40.5,0,0,0-5.025-.865,20.159,20.159,0,0,0-7.312.743,14.938,14.938,0,0,0-4.931,2.492,11.61,11.61,0,0,0-2.894,3.237c-1.787-4.218-6.749-8.583-13.393-11.252-5.484-2.2-10.941-2.779-15.046-1.9-.266.049-.534.1-.8.174-.03.008-.066.027-.087-.018.016-.074.079-.1.125-.145a11.436,11.436,0,0,0,1.88-2.235,10.008,10.008,0,0,0,1.579-4.5,9.663,9.663,0,0,0-.851-5.026,11.341,11.341,0,0,0-4.661-5.112c-.16-.1-.323-.185-.487-.272-4.1-4.03-5.9-10.272-6.736-16.374-.249-1.826-.428-3.669-.585-5.517a35.516,35.516,0,0,1-.287-5.664,8.06,8.06,0,0,1,2.208-4.985,21.252,21.252,0,0,1,4.287-3.462,22.455,22.455,0,0,1,2.6-1.424,3.551,3.551,0,0,1,2.468-.423,1.636,1.636,0,0,1,.236.1,3.6,3.6,0,0,0-.928,1.173,3.435,3.435,0,0,0-.353,1.209.844.844,0,0,0,.723.905,1.958,1.958,0,0,0,1.98-.989,2.222,2.222,0,0,0,.023-2.233c.132-.337-2.044-2.516-4.923-.406-1.784,1.307-3.793,2.207-5.472,3.689a10.241,10.241,0,0,0-3.573,5.635,24.682,24.682,0,0,0,.1,6.77,62.238,62.238,0,0,0,2.189,13.272,24.8,24.8,0,0,0,3.808,7.648,11.606,11.606,0,0,0-1.482-.232c-.383-.056-.764-.127-1.152-.168a14.912,14.912,0,0,0-2.206-.061,124.266,124.266,0,0,1-7.233-16.2,59.8,59.8,0,0,1-2.8-9.252,16.677,16.677,0,0,1,.479-9.178c.506-1.3,1.493-3,2.9-3.139a1.251,1.251,0,0,1,.589.1c-.537,1.126-.04,2.634,1.134,2.784a.463.463,0,0,0,.412-.212,2.4,2.4,0,0,0-.536-3.132.4.4,0,0,0-.212-.155,2.668,2.668,0,0,0-3.306.608,8.9,8.9,0,0,0-2.222,4.157,16.333,16.333,0,0,0-.519,5.082,36.316,36.316,0,0,0,2.259,9.93q1.765,5.223,3.948,10.221,1.891,4.33,4.086,8.461a15.053,15.053,0,0,0-3.9,1c-1.374.553-10.133,3.855-12.269,16.406-.689,4.045,11.638,7.556,17.332,4.9,1.643-.766,3.431-.6,5.1-1.139a6.151,6.151,0,0,0-1.333,2.012,7.654,7.654,0,0,0,.71,6.47l-20.22-4.956-35.23-23.38,33.628,25.942,22.18,3.033a16.39,16.39,0,0,0,1.6,2.208L643.539,546.8,620.2,556.1l25.51-7.709,10.92-3.387a29.5,29.5,0,0,0,10.241,6.665,28.687,28.687,0,0,0,13.02,2.2l2.528,1.664,8.839,15.475-4.049.9,6.7-1.281L687.1,558.62l15.126,9.956,9.127,13.03L703.8,567.768l-19.239-15.063a8.475,8.475,0,0,0,2.387-1.592,11.147,11.147,0,0,0,.737,2.075,14.033,14.033,0,0,0,3.675,4.67,25.835,25.835,0,0,0,6.179,3.8,45.524,45.524,0,0,0,6.734,2.384c1.6.438,28.5,4.1,29.8,4.064C734.472,568.092,734.474,568.1,734.405,567.8Z" transform="translate(-578.376 -472.842)" fill="#5673a9"/>
            <path id="Path_17184" data-name="Path 17184" d="M552.2,549.332l-7.239,5.869,53.7,31.494Z" transform="translate(-544.959 -520.63)" fill="#355586"/>
            <path id="Path_17185" data-name="Path 17185" d="M841.688,732.041l-.932,3.428-5.766-2.147,3.589-2.132Z" transform="translate(-726.158 -634.247)" fill="#355586"/>
            <path id="Path_17186" data-name="Path 17186" d="M875.012,726.621l3.809,10.614,5.318,2.416-7.553-13.838Z" transform="translate(-751.161 -630.887)" fill="#355586"/>
            <path id="Path_17187" data-name="Path 17187" d="M732.532,506.487a27.146,27.146,0,0,0,2.237,5.207,6.21,6.21,0,0,1,.993-.163,34.553,34.553,0,0,1-3.924-12.7c-.25-1.826-.428-3.669-.585-5.517a35.516,35.516,0,0,1-.287-5.664,8.061,8.061,0,0,1,2.208-4.985,21.24,21.24,0,0,1,4.288-3.462,22.44,22.44,0,0,1,2.6-1.424,3.551,3.551,0,0,1,2.468-.423,1.714,1.714,0,0,1,.236.1,3.594,3.594,0,0,0-.929,1.173,3.432,3.432,0,0,0-.353,1.209.845.845,0,0,0,.723.906,1.958,1.958,0,0,0,1.98-.989,2.222,2.222,0,0,0,.023-2.233c.132-.337-2.044-2.516-4.923-.406-1.784,1.307-3.793,2.207-5.472,3.689a10.242,10.242,0,0,0-3.573,5.635,24.678,24.678,0,0,0,.1,6.77A62.253,62.253,0,0,0,732.532,506.487Z" transform="translate(-660.583 -474.947)" fill="#355586"/>
            <path id="Path_17188" data-name="Path 17188" d="M768.54,632.734c-10.825-.925-18.028-8.646-22.141-17.968-3.593,3.226-10.262,3.721-14.486,3.836-6.646.181-14.744-2.313-16.626-9.491a11.676,11.676,0,0,1-.34-2.027,4.744,4.744,0,0,1,.271-3.316,7.757,7.757,0,0,1,.343-.982c-.24.045-.481.094-.723.157-.03.008-.066.027-.087-.018.016-.074.08-.1.125-.145a11.438,11.438,0,0,0,1.88-2.235,10.008,10.008,0,0,0,1.579-4.5,9.664,9.664,0,0,0-.851-5.026,11.123,11.123,0,0,0-1.273-2.082,7.2,7.2,0,0,1-1.516,3.339c-4.491,5.557-20.086,10.252-25.148,4a25.927,25.927,0,0,0-1.487,5.311c-.689,4.045,11.638,7.556,17.332,4.9,1.643-.766,3.431-.6,5.1-1.139a6.15,6.15,0,0,0-1.333,2.012,7.654,7.654,0,0,0,.71,6.47l-.1-.021c.108.22.219.437.332.652l.126.008a16.4,16.4,0,0,0,1.6,2.208l-.317.068c.245.293.488.6.732.9l.359-.111A29.5,29.5,0,0,0,722.84,624.2a29.127,29.127,0,0,0,12.39,2.238,10.012,10.012,0,0,1,1.925-.678,11.836,11.836,0,0,1,3.674-.292l-.3-.234a8.472,8.472,0,0,0,2.387-1.591,11.141,11.141,0,0,0,.737,2.075c.111.234.247.45.37.675a7.824,7.824,0,0,1,1.86,1.93,4.923,4.923,0,0,1,.617,1.293c.269.262.539.525.828.772a25.839,25.839,0,0,0,6.179,3.8,45.532,45.532,0,0,0,6.735,2.384c1.6.438,28.5,4.1,29.8,4.064.4-.011.4-.006.333-.3a53.3,53.3,0,0,0-3.4-9.933C781.552,633.083,773.855,633.188,768.54,632.734Z" transform="translate(-634.345 -545.37)" fill="#355586"/>
            <path id="Path_17189" data-name="Path 17189" d="M709.95,503.189c1.175,2.689,2.449,5.317,3.8,7.891a6.852,6.852,0,0,1,1.19.989c.132-.17.264-.336.4-.5-.09,0-.179,0-.269,0a124.322,124.322,0,0,1-7.232-16.2,59.8,59.8,0,0,1-2.8-9.252,16.677,16.677,0,0,1,.479-9.178c.506-1.3,1.493-3,2.9-3.139a1.252,1.252,0,0,1,.589.1c-.537,1.126-.041,2.634,1.134,2.784a.463.463,0,0,0,.412-.212,2.4,2.4,0,0,0-.536-3.132.4.4,0,0,0-.212-.155,2.668,2.668,0,0,0-3.306.608,8.9,8.9,0,0,0-2.222,4.157,16.334,16.334,0,0,0-.519,5.082,36.3,36.3,0,0,0,2.259,9.93Q707.768,498.191,709.95,503.189Z" transform="translate(-644.148 -472.842)" fill="#355586"/>
          </g>
          <path id="Path_17190" data-name="Path 17190" d="M696.3,698.115s38.608,4.137,94.628,32.763" transform="translate(-639.512 -613.583)" fill="none" stroke="#e4e4e4" stroke-miterlimit="10" stroke-width="2.789"/>
        </g>
        <circle id="Ellipse_3187" data-name="Ellipse 3187" cx="0.786" cy="0.786" r="0.786" transform="translate(63.511 48.388)" fill="#355586"/>
        <circle id="Ellipse_3188" data-name="Ellipse 3188" cx="0.786" cy="0.786" r="0.786" transform="translate(59.738 46.03)" fill="#355586"/>
        <path id="Path_17191" data-name="Path 17191" d="M697.815,528.834a22.78,22.78,0,1,0,22.78,22.78A22.78,22.78,0,0,0,697.815,528.834Zm4.343,31.96a5.517,5.517,0,0,1-7.073,4.287l-12.4-3.894a5.523,5.523,0,0,1-3.764-6.277q.5-2.724,1.238-5.395a5.524,5.524,0,0,1,6.125-4.007l12.854,1.9a5.518,5.518,0,0,1,4.5,6.943Q702.758,557.54,702.158,560.794Z" transform="translate(-626.225 -507.823)" fill="#edf0f5"/>
        <ellipse id="Ellipse_3189" data-name="Ellipse 3189" cx="6.826" cy="4.704" rx="6.826" ry="4.704" transform="translate(79.058 57.13) rotate(-71.085)" fill="#fff"/>
        <ellipse id="Ellipse_3190" data-name="Ellipse 3190" cx="6.714" cy="3.933" rx="6.714" ry="3.933" transform="translate(80.798 57.49) rotate(-71.085)" fill="#dce2ed"/>
        <path id="Path_17192" data-name="Path 17192" d="M688.727,579.923a5.9,5.9,0,0,1,6.54-4.279l13.369,1.979a5.11,5.11,0,0,0-2.331-.97l-12.025-1.781a5.168,5.168,0,0,0-5.73,3.749q-.693,2.5-1.159,5.047a5.209,5.209,0,0,0,.021,1.972Q687.942,582.754,688.727,579.923Z" transform="translate(-633.892 -536.552)" fill="#edf0f5"/>
      </g>
      <path id="Path_17193" data-name="Path 17193" d="M693.162,594.109a19.859,19.859,0,0,1-14.176-13.951,20.767,20.767,0,0,1,.6-13.114,20.39,20.39,0,0,0,26.133,27.931.682.682,0,0,0-.491-1.273A20.812,20.812,0,0,1,693.162,594.109Z" transform="translate(-627.715 -531.695)" fill="#dde3ee"/>
      <path id="Path_17194" data-name="Path 17194" d="M648.536,678.85l21.774-8.91-23.339,6.17a25.165,25.165,0,0,1-4.436-1.206l3.067,2.771c.318.857-.24,1.124-1.565,1.565a2.68,2.68,0,0,1-2.739-.391s1.369,4.5,3.326,4.7S650.688,682.763,648.536,678.85Z" transform="translate(-605.147 -595.98)" fill="#355586"/>
    </g>
    <g id="Group_33306" data-name="Group 33306" transform="translate(73.363 136.999)">
      <path id="Path_17195" data-name="Path 17195" d="M141.746,315.166s-20.305,53.635,8.538,61.186,128.2-41.165,151.806-57.181S341.437,283.8,343.4,265.116s-20.7-40.824-20.7-40.824-17.171-32.584-34.385-35.253-46.234-6.006-46.234-6.006,4.427-6.673-5.41-20.02-90.5,44.044-90.5,44.044c-7.87,20.02-15.248,26.026-14.264,34.7s4.427,34.034,4.427,34.034S124.531,312.5,141.746,315.166Z" transform="translate(-131.82 -161)" fill="#d9d9d9"/>
      <path id="Path_17196" data-name="Path 17196" d="M375.865,261.668c-5.767,10.422-13.312,18.777-21.138,26.21a259.065,259.065,0,0,1-28.128,22.7c-9.211,6.587-18.581,12.747-27.875,19.113-4.948,3.389-9.993,6.762-14.768,10.672,8.422.895,16.984-1.935,24.962-5.423,9.341-4.085,18.326-9.473,27.435-14.391,8.431-4.552,17.133-8.07,25.483-12.923a111.381,111.381,0,0,0,42.821-44.145c1.594-2.949,4.966-.9,4.693,1.933,8.012,7.776,1.3,23.2-2.8,31.458-8.779,17.684-20.183,32.014-31.579,46.451-6.112,7.743-12.355,15.6-17.581,24.486a43.917,43.917,0,0,0-2.478,4.783c-.183.422-.746,1.927-.662,1.64-.039.132-.142.49-.233.811a1.784,1.784,0,0,0,.224.038c8.46-5.85,16.732-12.211,24.854-18.873q17.256-14.154,33.7-30.033c8.854-8.6,17.919-18.86,21.507-32.576-6.091-12.418-16.56-22.644-16.56-22.644S400.58,238.367,383.366,235.7l-.1-.015A57.716,57.716,0,0,1,375.865,261.668Z" transform="translate(-226.868 -207.658)" fill="#f2f2f2"/>
      <path id="Path_17197" data-name="Path 17197" d="M332.875,264.212c11.2-1.817,22.184-7.724,32.057-14.775,9.218-6.583,18.546-14.818,25.6-25.525-5.928-.756-11.483-1.433-15.63-1.93-7.14,8.213-15.616,14.124-23.607,20.622C344.506,248.128,336.846,254.559,332.875,264.212Z" transform="translate(-257.43 -199.1)" fill="#f2f2f2"/>
      <path id="Path_17198" data-name="Path 17198" d="M189.092,228.362a38.871,38.871,0,0,0,14.857-6.422c3.489-2.544,6.864-5.385,10.373-7.888,6.857-4.891,13.8-9.585,20.371-15.241,5.936-5.112,11.647-10.949,15.234-19.589.887-2.137,2.7-6.557,2.046-8.564a.41.41,0,0,0-.22-.205,4.238,4.238,0,0,0-.782-.371,6.826,6.826,0,0,0-2.443-.1c-4.961.455-9.959,3.186-14.589,5.595-9.437,4.909-19.031,9.273-28.444,14.3-12.162,7.792-23.307,15.7-29.232,19.99a61.827,61.827,0,0,0-5.635,6.294,164.887,164.887,0,0,1-7.113,15.282,44.32,44.32,0,0,0,.351,4.8C171.826,230.9,180.375,230.283,189.092,228.362Z" transform="translate(-151.621 -166.574)" fill="#f2f2f2"/>
      <path id="Path_17199" data-name="Path 17199" d="M206.769,346.445s58.038-8.675,79.188-28.7,16.723-22.69,13.772-23.357S273.169,325.09,206.769,346.445Z" transform="translate(-178.645 -244.331)" fill="#ededed"/>
      <path id="Path_17200" data-name="Path 17200" d="M323.41,353.711c1.264-.032,2.888,3.66-4.093,4.384S314.318,353.941,323.41,353.711Z" transform="translate(-246.339 -281.397)" fill="#ededed"/>
      <path id="Path_17201" data-name="Path 17201" d="M494.953,264.493s7.646,1.216.76,10.559S475.995,281.3,494.953,264.493Z" transform="translate(-352.495 -225.658)" fill="#ededed"/>
      <path id="Path_17202" data-name="Path 17202" d="M479.594,328.2s4.919,1.335,1.475,4.671S473.692,335.541,479.594,328.2Z" transform="translate(-347.198 -265.459)" fill="#ededed"/>
    </g>
    <g id="Group_33307" data-name="Group 33307" transform="translate(38.252 154.73)">
      <path id="Path_17203" data-name="Path 17203" d="M127.55,250.075c-1.723,2.108,1.549,4.79,3.276,2.678S129.276,247.964,127.55,250.075Z" transform="translate(-93.737 -233.9)" fill="#f6f6f6"/>
      <path id="Path_17204" data-name="Path 17204" d="M183.654,209.02c-1.724,2.108,1.55,4.79,3.276,2.678S185.381,206.909,183.654,209.02Z" transform="translate(-128.789 -208.251)" fill="#f6f6f6"/>
      <path id="Path_17205" data-name="Path 17205" d="M39.248,499.832c-1.723,2.108,1.55,4.79,3.276,2.678S40.975,497.721,39.248,499.832Z" transform="translate(-38.57 -389.937)" fill="#f6f6f6"/>
      <path id="Path_17206" data-name="Path 17206" d="M38.738,547.708c-1.723,2.108,1.55,4.79,3.276,2.679S40.465,545.6,38.738,547.708Z" transform="translate(-38.252 -419.848)" fill="#f6f6f6"/>
    </g>
    <path id="Path_17207" data-name="Path 17207" d="M73.471,570.716l8.835-1.831-8.7-1.8L71.645,553l-1.984,14.265-8.677,1.621,8.811,1.646,1.849,14.24Z" transform="translate(-14.203 -268.905)" fill="#fff"/>
    <path id="Path_17208" data-name="Path 17208" d="M204.7,778.268l.445-.5.386-.418.754-.8c.5-.517,1-1.028,1.5-1.519,1-1,2.008-1.947,3.027-2.886,2.039-1.874,4.124-3.66,6.245-5.394a159.079,159.079,0,0,1,13.226-9.624q6.84-4.449,14.073-8.205c1.212-.611,2.414-1.237,3.632-1.833l3.674-1.744,3.718-1.644c1.241-.544,2.5-1.034,3.755-1.553q7.547-3.012,15.339-5.315,7.8-2.24,15.755-3.791c1.326-.249,2.659-.463,3.987-.695l1.994-.34,2-.275c1.342-.179,2.656-.373,4.021-.539,1.414-.133,2.83-.3,4.236-.353,2.821-.187,5.61-.139,8.384-.051,2.762.149,5.512.351,8.219.7a145.008,145.008,0,0,1,15.951,2.92c5.214,1.239,10.339,2.688,15.4,4.265,10.117,3.16,19.977,6.817,29.73,10.625,19.5,7.635,38.576,15.9,57.926,23.292,9.672,3.694,19.408,7.166,29.264,10.169a225.134,225.134,0,0,0,29.947,7.141,139.926,139.926,0,0,0,15.224,1.615,99.292,99.292,0,0,0,15.226-.363,60.625,60.625,0,0,0,14.671-3.145,37.744,37.744,0,0,0,6.584-3.273,27.016,27.016,0,0,0,11.929-17.778,45.938,45.938,0,0,0,.9-7.465,60.386,60.386,0,0,0-.219-7.61c-.216-2.543-.612-5.076-1.06-7.6-.487-2.521-1.044-5.034-1.7-7.526a150.628,150.628,0,0,0-4.767-14.745,245.257,245.257,0,0,0-13.019-28.26q-3.677-6.873-7.682-13.572c-2.673-4.461-5.43-8.876-8.351-13.184,3.05,4.218,5.941,8.552,8.75,12.937s5.509,8.844,8.1,13.364a246.693,246.693,0,0,1,13.943,28.024,152.66,152.66,0,0,1,5.281,14.8c.75,2.518,1.4,5.071,1.975,7.644.538,2.582,1.026,5.183,1.33,7.82a63.333,63.333,0,0,1,.468,7.975,49.15,49.15,0,0,1-.733,8.042,35.815,35.815,0,0,1-2.413,7.823,28.756,28.756,0,0,1-4.37,7.036,32.631,32.631,0,0,1-6.144,5.582,41.808,41.808,0,0,1-7.257,3.89,52.752,52.752,0,0,1-7.764,2.438c-.657.149-1.316.32-1.973.451l-1.971.365c-1.311.266-2.637.422-3.958.621a104.187,104.187,0,0,1-15.943.862,145.353,145.353,0,0,1-15.857-1.2,231.166,231.166,0,0,1-30.965-6.4c-10.148-2.762-20.135-5.99-30.018-9.429-19.767-6.876-39.147-14.591-58.641-21.556-9.746-3.473-19.524-6.764-29.369-9.516a169.8,169.8,0,0,0-29.631-5.888c-2.464-.249-4.913-.349-7.35-.41-2.427,0-4.85.027-7.218.262-1.195.075-2.358.26-3.532.4-1.213.185-2.469.41-3.7.612l-1.856.31-1.843.373c-1.228.254-2.459.487-3.683.755q-7.333,1.654-14.483,3.949-7.128,2.339-14,5.329c-1.137.514-2.288,1-3.414,1.534l-3.375,1.615-3.329,1.706c-1.1.581-2.19,1.191-3.285,1.784q-6.526,3.645-12.662,7.9a144.733,144.733,0,0,0-11.747,9.1c-1.86,1.618-3.68,3.274-5.423,4.976-.87.85-1.729,1.711-2.547,2.578-.416.432-.812.868-1.2,1.3l-.567.637-.266.307-.2.235Z" transform="translate(-103.99 -340.127)" fill="#f2f2f2"/>
    <path id="Path_17209" data-name="Path 17209" d="M194.7,945a13.7,13.7,0,1,0,13.7,13.7A13.712,13.712,0,0,0,194.7,945Z" transform="translate(-89.183 -513.809)" fill="#f2f2f2"/>
    <path id="Path_17210" data-name="Path 17210" d="M213.88,781.169c.268-.31.483-.547.72-.806l.7-.75c.468-.491.934-.98,1.409-1.453.944-.957,1.909-1.881,2.883-2.793,1.95-1.822,3.956-3.57,6-5.269a154.741,154.741,0,0,1,12.782-9.466q6.625-4.39,13.65-8.114c1.177-.605,2.345-1.227,3.528-1.818l3.57-1.733,3.616-1.635c1.206-.541,2.436-1.03,3.653-1.547q7.344-3,14.938-5.319,7.6-2.253,15.374-3.839c1.3-.254,2.6-.474,3.9-.713l1.949-.349,1.959-.286c1.309-.186,2.605-.39,3.925-.561,1.342-.135,2.682-.31,4.025-.367,2.685-.2,5.365-.176,8.034-.114,2.665.123,5.324.294,7.958.616a177.47,177.47,0,0,1,30.833,6.8c10.036,3.038,19.871,6.585,29.622,10.293,19.5,7.434,38.665,15.537,58.141,22.771,9.735,3.617,19.546,7.016,29.49,9.947a226.783,226.783,0,0,0,30.252,6.92,141.393,141.393,0,0,0,15.413,1.49,100.728,100.728,0,0,0,15.442-.513,61.823,61.823,0,0,0,14.969-3.364,38.918,38.918,0,0,0,6.786-3.458,29.926,29.926,0,0,0,5.709-4.978,26.232,26.232,0,0,0,4.125-6.356,33.424,33.424,0,0,0,2.394-7.242,46.927,46.927,0,0,0,.853-7.638,61.312,61.312,0,0,0-.294-7.72c-.242-2.571-.666-5.125-1.141-7.668-.515-2.537-1.1-5.061-1.785-7.561a151.46,151.46,0,0,0-4.921-14.763,245.834,245.834,0,0,0-13.3-28.189q-3.742-6.846-7.809-13.51c-2.714-4.438-5.511-8.829-8.471-13.11,3.011,4.245,5.862,8.6,8.631,13.011s5.425,8.888,7.978,13.427a246.2,246.2,0,0,1,13.666,28.094,152.123,152.123,0,0,1,5.127,14.787c.723,2.51,1.343,5.051,1.893,7.608.511,2.566.971,5.146,1.249,7.755a62.42,62.42,0,0,1,.394,7.866,48.2,48.2,0,0,1-.784,7.868,34.828,34.828,0,0,1-2.4,7.574,27.682,27.682,0,0,1-4.265,6.745,31.474,31.474,0,0,1-5.957,5.323,40.573,40.573,0,0,1-7.055,3.7,63.562,63.562,0,0,1-15.367,3.656,102.651,102.651,0,0,1-15.728.713,143.5,143.5,0,0,1-15.667-1.325,229.222,229.222,0,0,1-30.66-6.624c-10.06-2.835-19.972-6.136-29.792-9.651-19.642-7.03-38.932-14.911-58.427-22.077-9.748-3.574-19.551-6.975-29.477-9.849a173.3,173.3,0,0,0-30.147-6.277c-2.536-.28-5.076-.411-7.61-.5-2.531-.027-5.064-.022-7.568.2-1.258.068-2.5.248-3.743.386-1.259.179-2.531.395-3.8.59l-1.9.3-1.888.363c-1.258.247-2.52.475-3.775.737q-7.518,1.62-14.865,3.9-7.325,2.326-14.4,5.325c-1.172.515-2.356,1-3.517,1.539l-3.478,1.624-3.432,1.717c-1.137.585-2.259,1.2-3.389,1.8q-6.735,3.678-13.086,7.993a149.031,149.031,0,0,0-12.19,9.256c-1.939,1.653-3.838,3.348-5.67,5.1-.915.877-1.819,1.765-2.691,2.671-.442.449-.868.908-1.292,1.364l-.624.686c-.2.222-.417.471-.573.656Z" transform="translate(-109.725 -340.127)" fill="#fff"/>
    <path id="Path_17211" data-name="Path 17211" d="M195.976,872.227a82.07,82.07,0,0,1,5.449-6.314q2.785-2.971,5.725-5.766a154.225,154.225,0,0,1,12.277-10.481,152.068,152.068,0,0,1,27.3-16.778,140.492,140.492,0,0,1,30.056-10.373,104,104,0,0,1,15.664-2.373,70.843,70.843,0,0,1,7.908-.086c.657.029,1.314.064,1.969.123l.983.078.98.107c.654.063,1.3.155,1.952.251l1.945.279-1.961-.122c-.653-.044-1.305-.083-1.959-.093l-.979-.027-.979,0c-.652-.006-1.3.012-1.956.036a69.823,69.823,0,0,0-7.77.712,102.113,102.113,0,0,0-15.151,3.563,136.711,136.711,0,0,0-28.347,12.409A147.914,147.914,0,0,0,213.5,866.328q-2.537,2.836-4.9,5.8a72.486,72.486,0,0,0-4.358,5.946Z" transform="translate(-98.539 -435.704)" fill="#f2f2f2"/>
    <path id="Path_17212" data-name="Path 17212" d="M226.343,940.007c4.5-3.134,9.128-6.214,13.954-8.98q3.618-2.075,7.363-3.9,1.869-.913,3.77-1.748l.843-.373c.256-.119.508-.245.759-.383.5-.274,1.007-.6,1.566-.984l.36-.245.048-.019c3.837-1.505,7.686-3.039,11.576-4.476s7.82-2.766,11.791-3.9c-3.709,1.813-7.311,3.8-10.853,5.878s-7.035,4.253-10.556,6.418l.408-.264c-.483.472-1.027.991-1.632,1.483-.3.246-.616.485-.938.713q-.241.171-.488.332l-.427.289c-1.094.74-2.176,1.493-3.239,2.272q-3.193,2.327-6.208,4.867c-4.027,3.378-7.832,7.024-11.6,10.794Z" transform="translate(-117.511 -495.066)" fill="#f2f2f2"/>
    <path id="Path_17213" data-name="Path 17213" d="M198.963,957.4c-1.077.448-1.227,2.326-2.039,3.139s-2.691.963-3.139,2.039c-.432,1.04.773,2.468.773,3.662s-1.2,2.622-.773,3.662a20.263,20.263,0,0,0,5.178,5.178c1.04.432,2.468-.773,3.662-.773s2.622,1.2,3.662.773a20.263,20.263,0,0,0,5.178-5.178c.432-1.04-.773-2.468-.773-3.662s1.2-2.622.773-3.662a20.263,20.263,0,0,0-5.178-5.178A20.846,20.846,0,0,0,198.963,957.4Z" transform="translate(-97.112 -521.354)" fill="#fff"/>
    <path id="Path_17214" data-name="Path 17214" d="M203.325,874.626c1.592-2.192,3.334-4.222,5.086-6.191s3.579-3.906,5.449-5.778a151.866,151.866,0,0,1,11.78-10.6A150.05,150.05,0,0,1,252.1,834.833a139.336,139.336,0,0,1,29.487-11.052,103.283,103.283,0,0,1,15.493-2.769,70.422,70.422,0,0,1,7.861-.3c.656.011,1.311.029,1.965.07l.981.051.979.08c.654.045,1.3.119,1.954.2l1.951.227-1.955-.174c-.651-.062-1.3-.118-1.957-.146l-.979-.054-.98-.025c-.653-.024-1.307-.023-1.96-.017a70.067,70.067,0,0,0-7.816.5,102.63,102.63,0,0,0-15.322,3.166,138.051,138.051,0,0,0-28.916,11.73,150.437,150.437,0,0,0-36.911,28.39q-2.671,2.822-5.173,5.789c-1.675,1.987-3.291,3.983-4.722,6.068Z" transform="translate(-103.131 -436.154)" fill="#fff"/>
    <path id="Path_17215" data-name="Path 17215" d="M232.114,942.6c4.256-3.346,8.61-6.615,13.17-9.585q3.418-2.228,6.978-4.225c1.185-.665,2.385-1.3,3.593-1.923.308-.161.591-.3.868-.456s.55-.319.818-.493c.537-.347,1.054-.739,1.588-1.15l.081-.063.055-.025c3.732-1.725,7.462-3.471,11.236-5.123s7.595-3.2,11.478-4.557c-3.8,1.585-7.508,3.35-11.165,5.217s-7.27,3.825-10.9,5.77l.136-.088c-.508.441-1.039.9-1.61,1.316-.285.21-.579.412-.878.6s-.612.37-.891.538c-1.151.68-2.292,1.376-3.416,2.1q-3.376,2.158-6.593,4.546c-4.294,3.174-8.372,6.631-12.385,10.189Z" transform="translate(-121.117 -495.066)" fill="#fff"/>
    <g id="Group_33308" data-name="Group 33308" transform="translate(153.259 435.186)">
      <path id="Path_17216" data-name="Path 17216" d="M370.8,955.791c-2.555.942-1.095,4.913,1.464,3.97S373.362,954.847,370.8,955.791Z" transform="translate(-360.188 -955.647)" fill="#f6f6f6"/>
      <path id="Path_17217" data-name="Path 17217" d="M346.072,996.787c-2.555.942-1.095,4.914,1.464,3.97S348.631,995.844,346.072,996.787Z" transform="translate(-344.737 -981.26)" fill="#f6f6f6"/>
    </g>
    <circle id="Ellipse_3191" data-name="Ellipse 3191" cx="4.878" cy="4.878" r="4.878" transform="translate(183.959 437.223)" fill="#f8f8f8"/>
    <g id="Group_33309" data-name="Group 33309" transform="translate(98.645 379.806)">
      <path id="Path_17218" data-name="Path 17218" d="M199.439,811.1c1.225,2.432,5.006.533,3.779-1.9S198.212,808.659,199.439,811.1Z" transform="translate(-199.197 -808.063)" fill="#f6f6f6"/>
    </g>
    <circle id="Ellipse_3192" data-name="Ellipse 3192" cx="3.049" cy="3.049" r="3.049" transform="translate(73.43 352.015)" fill="#f8f8f8"/>
  </g>
</svg>
