<svg xmlns="http://www.w3.org/2000/svg" xmlns:xlink="http://www.w3.org/1999/xlink" width="477.508" height="320" viewBox="0 0 477.508 320">
  <defs>
    <clipPath id="clip-path">
      <path id="Path_15521" data-name="Path 15521" d="M617.235,478.785c-1.682-11.777-7.014-26.241-13.508-40.807a315.605,315.605,0,0,0-23.217-42.816c-4.489-6.839-8.921-13.055-13.247-18.843a163.846,163.846,0,0,0-13.243-15.943,60.7,60.7,0,0,0-13.979-11.116,51.969,51.969,0,0,0-15.952-5.254c-5.849-1.086-12.107-1.8-18.518-3.27a113.863,113.863,0,0,1-19.306-6.62c-13.061-5.6-25.806-12.766-40.761-17.519-15.122-4.8-32.757-6.913-51.611-8.871-16.358-1.693-35.048-3.194-55.293-.985-20.151,2.24-111,25.116-131.205,39.037-9.673,6.564,56.505,4.962,37.512,32.153-24.554,34.122-74.915,106.315-47.873,131.114C283.132,588,413.992,563.426,423.68,562.2c66.517-8.609,119.893-42.8,142.043-56.019,26.4-15.752,31.648-19.9,35.726-23.222C608.932,476.8,619.116,491.775,617.235,478.785Z" transform="translate(-189.269 -305.633)" fill="none"/>
    </clipPath>
  </defs>
  <g id="Group_33073" data-name="Group 33073" transform="translate(-77.727 -140.85)">
    <g id="Group_32877" data-name="Group 32877" transform="translate(133.189 165.427)">
      <path id="Path_15518" data-name="Path 15518" d="M253.413,265.087a22.516,22.516,0,0,0-7.09,4.395c-4.854,4.405-7.3,10.244-6.956,15.339a9.993,9.993,0,0,1-2.928,7.824,4.6,4.6,0,0,0-1.129,1.77,4.965,4.965,0,0,0,.283,3.78l-1.084,5.365a2.059,2.059,0,0,0-.506.787,2.77,2.77,0,0,0,.445,2.35,14.162,14.162,0,0,1,2.045,9.24,124.609,124.609,0,0,0,.3,34.988,16.427,16.427,0,0,1-1.643,9.98,19.408,19.408,0,0,0-1.093,2.54c-3.718,10.676,2.426,22.519,13.723,26.453.494.172.99.322,1.486.457a.573.573,0,0,1,.36.291,131.883,131.883,0,0,0,19.638,28.277q3.27,3.6,6.737,6.9a12.988,12.988,0,0,1,4.116,8.991,7.791,7.791,0,0,0,2.487,5.541,8.074,8.074,0,0,0,10.81-.023.584.584,0,0,1,.7-.049l.007,0a.576.576,0,0,1,.218.7c-2.709,6.395-.682,13.691,4.978,16.939a12.711,12.711,0,0,0,13.263-.63,16,16,0,0,1,13.521-1.671,123.564,123.564,0,0,0,63.724,3.2,4.686,4.686,0,0,1,3.333.513l.015.009a18.247,18.247,0,0,0,24.986-6.431l.029-.05a25.794,25.794,0,0,1,8.664-9.123,115.768,115.768,0,0,0,33.64-32.224,21.268,21.268,0,0,1,9.052-7.579,6.667,6.667,0,0,0,3.226-2.8,7.031,7.031,0,0,0,.43-5.758.624.624,0,0,1,.29-.719,10.449,10.449,0,0,0,4.327-4.036,11.727,11.727,0,0,0,.742-9.147,21.7,21.7,0,0,1-.327-10.594,125.774,125.774,0,0,0-7.868-78.307,16.9,16.9,0,0,1,.078-14,5.442,5.442,0,0,0,.305-4.514c-.847-1.981-3.06-3.139-5.888-3.374a16.4,16.4,0,0,1-11.463-6.3q-2.863-3.64-6.026-7.128A128.981,128.981,0,0,0,365.584,215.3a12.5,12.5,0,0,1-6.764-2.875c-2.364-2-4.887-3-7.418-2.744a8.89,8.89,0,0,0-5.09,2.423,13,13,0,0,1-7.3,3.25,115.716,115.716,0,0,0-80.2,45.608A12.212,12.212,0,0,1,253.413,265.087Z" transform="translate(-232.972 -209.644)" fill="#d9d9d9"/>
    </g>
    <g id="Group_32878" data-name="Group 32878" transform="translate(138.932 205.934)">
      <path id="Path_15519" data-name="Path 15519" d="M660.431,441.249c-4.37-11.065-12.915-23.9-22.613-36.556A315.574,315.574,0,0,0,605.3,368.437c-5.954-5.61-11.709-10.627-17.26-15.252a163.768,163.768,0,0,0-16.583-12.433,60.681,60.681,0,0,0-16.178-7.567,51.967,51.967,0,0,0-16.736-1.407c-5.942.3-12.193,1.064-18.771,1.119a113.909,113.909,0,0,1-20.315-1.957c-14.006-2.419-28.064-6.426-43.715-7.578-15.823-1.158-33.467.882-52.26,3.354-16.3,2.151-34.833,5.029-54.011,11.879-19.08,6.857-38.81,17.685-55.235,35.917-7.885,8.631-26.591,37.965-38.753,68.823-15.962,38.89-1.175,76.3,32.842,90.049,23.067,9.8,47.687,18.67,51.825,20.762,8.795,4.562,19.116,6.8,29.874,7.373a160.183,160.183,0,0,0,34.127-2.336c11.768-1.974,24.835-4.8,35.8-1.319,8.445,2.667,13.6,8.493,21.763,11.279,9.163,3.132,20.686,1.622,29.825-1.815,62.7-23.816,106.017-44.33,131.17-61.474,25.677-16.9,33.19-30.43,36.384-34.609C664.934,463.513,665.277,453.447,660.431,441.249Z" transform="translate(-249.046 -323.027)" fill="#f9f9f9"/>
    </g>
    <g id="Group_32881" data-name="Group 32881" transform="translate(117.576 199.72)">
      <g id="Group_32880" data-name="Group 32880" clip-path="url(#clip-path)">
        <g id="Group_32879" data-name="Group 32879" transform="translate(-107.437 90.091)">
          <path id="Path_15520" data-name="Path 15520" d="M382.729,710.137a44.681,44.681,0,0,0,.216-16.556c-2.189-12.826-9.343-23.159-18.238-28.016a19.834,19.834,0,0,1-9.966-13.252,9.131,9.131,0,0,0-1.757-3.778,9.854,9.854,0,0,0-6.626-3.563l-7.82-7.543a4.081,4.081,0,0,0-.776-1.687,5.5,5.5,0,0,0-4.408-1.764,28.109,28.109,0,0,1-17.645-6.443,247.352,247.352,0,0,0-58.864-36.853,32.607,32.607,0,0,1-14.945-13.4,38.478,38.478,0,0,0-3.082-4.539c-13.894-17.619-40.272-19.984-58.916-5.282-.815.643-1.594,1.313-2.35,2a1.139,1.139,0,0,1-.871.293,261.785,261.785,0,0,0-68.283,2.669q-9.519,1.624-18.744,3.9a25.777,25.777,0,0,1-19.438-2.712,15.468,15.468,0,0,0-11.928-1.755,16.026,16.026,0,0,0-11.5,18.113,1.158,1.158,0,0,1-.671,1.231l-.016.007a1.143,1.143,0,0,1-1.412-.386c-7.808-11.36-22.181-15.759-33.657-9.755-8.441,4.416-13.15,13.33-13.107,22.866a31.755,31.755,0,0,1-11.64,24.409A245.257,245.257,0,0,0-87.1,731.546a9.3,9.3,0,0,1-4.417,5.029l-.031.016c-17.943,9.388-25.068,31.18-15.915,48.674l.054.1A51.2,51.2,0,0,1-101.4,809.6a229.8,229.8,0,0,0,18,90.693,42.218,42.218,0,0,1,3.017,23.237,13.227,13.227,0,0,0,1.241,8.389,13.956,13.956,0,0,0,9.175,6.868,1.238,1.238,0,0,1,.894,1.254,20.745,20.745,0,0,0,2.133,11.55c2.774,5.3,7.875,8.975,14.513,11.008a43.07,43.07,0,0,1,18.077,10.765c36.676,37.045,85.557,62.149,139.427,70.441a33.551,33.551,0,0,1,23.341,15.077c1.836,2.915,4.306,4.847,7.226,5.33,4.22.7,8.52-1.769,11.933-6.25a32.549,32.549,0,0,1,22.777-12.455q9.148-.906,18.361-2.472c65.082-11.108,120.172-45.253,157.549-92.057a24.821,24.821,0,0,1,12.031-8.248c5.872-1.819,10.24-4.972,12.513-9.483a17.646,17.646,0,0,0,1.38-11.1,25.812,25.812,0,0,1,2.36-15.691,229.686,229.686,0,0,0,9.313-182.888A24.232,24.232,0,0,1,382.729,710.137Z" transform="translate(111.458 -557.807)" fill="#f6f6f6"/>
        </g>
      </g>
    </g>
    <g id="Group_32885" data-name="Group 32885" transform="translate(263.69 404.079)">
      <g id="Group_32883" data-name="Group 32883" transform="translate(0 0.001)">
        <g id="Group_32882" data-name="Group 32882">
          <circle id="Ellipse_3027" data-name="Ellipse 3027" cx="6.232" cy="6.232" r="6.232" fill="#f2f2f2"/>
        </g>
      </g>
      <g id="Group_32884" data-name="Group 32884" transform="translate(0.872 0)">
        <path id="Path_15522" data-name="Path 15522" d="M606.473,878.073a6.231,6.231,0,0,1,4.7,9.375,6.232,6.232,0,1,0-10.474-6.741A6.23,6.23,0,0,1,606.473,878.073Z" transform="translate(-600.696 -877.653)" fill="#d9d9d9"/>
      </g>
    </g>
    <g id="Group_32889" data-name="Group 32889" transform="translate(324.492 387.095)">
      <g id="Group_32887" data-name="Group 32887" transform="translate(0 0.001)">
        <g id="Group_32886" data-name="Group 32886">
          <circle id="Ellipse_3028" data-name="Ellipse 3028" cx="11.834" cy="11.834" r="11.834" fill="#f2f2f2"/>
        </g>
      </g>
      <g id="Group_32888" data-name="Group 32888" transform="translate(1.405 0)">
        <path id="Path_15523" data-name="Path 15523" d="M783.117,831.666a11.825,11.825,0,0,1,9.17,17.352,11.827,11.827,0,1,0-19.906-12.654A11.816,11.816,0,0,1,783.117,831.666Z" transform="translate(-772.381 -830.113)" fill="#d9d9d9"/>
      </g>
    </g>
    <g id="Group_32893" data-name="Group 32893" transform="translate(371.756 387.703)">
      <g id="Group_32891" data-name="Group 32891" transform="translate(0 0.001)">
        <g id="Group_32890" data-name="Group 32890">
          <circle id="Ellipse_3029" data-name="Ellipse 3029" cx="14.596" cy="14.596" r="14.596" fill="#f2f2f2"/>
        </g>
      </g>
      <g id="Group_32892" data-name="Group 32892" transform="translate(1.81)">
        <path id="Path_15524" data-name="Path 15524" d="M919.195,833.385a14.6,14.6,0,0,1,11.233,21.557,14.592,14.592,0,1,0-24.619-15.573A14.581,14.581,0,0,1,919.195,833.385Z" transform="translate(-905.808 -831.816)" fill="#d9d9d9"/>
      </g>
    </g>
    <g id="Group_32908" data-name="Group 32908" transform="translate(369.102 165.4)">
      <g id="Group_32894" data-name="Group 32894">
        <path id="Path_15525" data-name="Path 15525" d="M904.58,209.7a2.041,2.041,0,0,1,1.626.084q10.868,4.832,21.738,9.659a2.036,2.036,0,0,1,1.146,2.994q-4.815,10.88-9.682,21.737a2.1,2.1,0,0,1-3.083,1.184q-10.779-4.76-21.532-9.58a2.141,2.141,0,0,1-1.189-3.166q4.28-9.72,8.611-19.419c.342-.771.674-1.548,1.011-2.321A2.151,2.151,0,0,1,904.58,209.7Zm23.26,11.444a1.228,1.228,0,0,0-.708-.544q-10.573-4.692-21.144-9.386a1.082,1.082,0,0,0-1.661.647q-4.662,10.526-9.358,21.037c-.371.83-.249,1.345.641,1.737q10.434,4.591,20.842,9.244c.925.414,1.446.312,1.884-.683,3.092-7.019,6.227-14.019,9.352-21.024A1.421,1.421,0,0,0,927.84,221.143Z" transform="translate(-893.313 -209.567)" fill="#fff"/>
      </g>
      <g id="Group_32895" data-name="Group 32895" transform="translate(10.116 16.576)">
        <path id="Path_15526" data-name="Path 15526" d="M923.681,259.3c-.142-.666-.292-1.331-.422-2-.051-.262-.024-.532.271-.649s.471.084.616.313c.393.618.79,1.233,1.244,1.941a8.489,8.489,0,0,0-.316-2.28c-.033-.262-.1-.548.234-.637.363-.1.423.218.47.46.245,1.261.477,2.524.708,3.787.049.268.033.527-.277.635s-.466-.106-.608-.333c-.444-.716-.89-1.429-1.493-2.4.2,1.032.357,1.8.506,2.567.062.319.2.68-.229.847-.37.143-.52-.156-.673-.407-.649-1.065-1.3-2.129-1.941-3.2-.111-.184-.249-.413-.019-.588.27-.206.491-.041.637.194.366.59.715,1.191,1.071,1.788Z" transform="translate(-921.629 -255.965)" fill="#fff"/>
      </g>
      <g id="Group_32896" data-name="Group 32896" transform="translate(8.475 10.994)">
        <path id="Path_15527" data-name="Path 15527" d="M917.856,240.512c1.448-.518,2.467.183,2.262,1.568-.131.89.614,1.163.884,1.753.111.244.485.456.109.725-.319.229-.536-.048-.725-.275-.117-.14-.207-.3-.324-.442-.28-.333-.544-.764-1.074-.435-.485.3-.034.641,0,.962s.468.759-.009.961c-.582.245-.581-.4-.717-.719-.359-.84-.621-1.724-1.005-2.551C916.86,241.2,916.96,240.655,917.856,240.512Zm1.477,1.113c-.16-.435-.452-.514-.869-.355-.357.136-.562.3-.387.726.152.37.285.668.784.451C919.244,242.28,919.493,242.084,919.332,241.625Z" transform="translate(-917.035 -240.341)" fill="#fff"/>
      </g>
      <g id="Group_32897" data-name="Group 32897" transform="translate(17.786 14.355)">
        <path id="Path_15528" data-name="Path 15528" d="M943.833,252.687a4.865,4.865,0,0,1-.306-.82c-.1-.52-.829-1.1-.133-1.55a1.981,1.981,0,0,1,2.154-.369,1.424,1.424,0,0,1,.721,1.777c-.273.807.607.884.756,1.409.087.309.655.563.228.912s-.6-.175-.827-.423c-.17-.189-.311-.405-.48-.595a.625.625,0,0,0-.795-.127c-.424.185-.172.462-.142.731.045.421.708,1,.077,1.217-.675.235-.579-.65-.807-1.043A7.8,7.8,0,0,1,943.833,252.687Zm.747-1.908c-.477.109-.522.38-.358.816s.369.563.819.368c.388-.168.651-.367.5-.815C945.38,250.666,945.039,250.553,944.579,250.779Z" transform="translate(-943.097 -249.749)" fill="#fff"/>
      </g>
      <g id="Group_32898" data-name="Group 32898" transform="translate(24.254 19.399)">
        <path id="Path_15529" data-name="Path 15529" d="M961.765,266.681q-.2-.511-.393-1.023c-.469-1.224.047-1.878,1.4-1.783,1,.07,1.93,1.235,2.1,2.626a1.827,1.827,0,0,1-1.342,2.2c-.615.252-.953.129-1.159-.5-.171-.519-.388-1.024-.585-1.535Zm.775-.217c.1.273.2.551.319.818.1.22.125.542.482.492a.85.85,0,0,0,.736-.574,2.53,2.53,0,0,0-.889-2.336.87.87,0,0,0-.937,0c-.369.23-.093.521-.022.774A8.175,8.175,0,0,0,962.54,266.464Z" transform="translate(-961.202 -263.866)" fill="#fff"/>
      </g>
      <g id="Group_32899" data-name="Group 32899" transform="translate(18.355 21.4)">
        <path id="Path_15530" data-name="Path 15530" d="M945.286,272.546l-.237-.617c-.667-1.728-.5-2.028,1.327-2.411.262-.055.516-.132.661.175.176.372-.066.535-.361.658-.2.084-.406.172-.614.243-.337.115-.466.315-.333.67a.46.46,0,0,0,.684.314c.171-.067.347-.121.519-.182.311-.111.585-.115.7.269.1.32-.1.471-.356.581-.2.087-.4.175-.607.261-.383.162-.3.439-.189.731.1.272.263.44.581.333s.622-.221.937-.32a.4.4,0,0,1,.538.229c.14.307.016.485-.269.6-.445.174-.9.329-1.33.527-.583.268-.88.046-1.065-.514C945.7,273.567,945.483,273.06,945.286,272.546Z" transform="translate(-944.69 -269.467)" fill="#fff"/>
      </g>
      <g id="Group_32900" data-name="Group 32900" transform="translate(11.933 9.685)">
        <path id="Path_15531" data-name="Path 15531" d="M930.165,238.472c.538,1.378.2,2.761-.742,3.07-.905.3-2.012-.531-2.482-1.851-.012-.034-.026-.069-.037-.1-.439-1.367-.1-2.559.809-2.85S929.666,237.192,930.165,238.472Zm-.761.307a6.236,6.236,0,0,0-.314-.57c-.277-.4-.6-.817-1.154-.558-.525.244-.5.751-.411,1.236a2.53,2.53,0,0,0,.173.518c.287.661.535,1.594,1.462,1.221C930,240.288,929.552,239.442,929.4,238.779Z" transform="translate(-926.715 -236.676)" fill="#fff"/>
      </g>
      <g id="Group_32901" data-name="Group 32901" transform="translate(15.065 22.551)">
        <path id="Path_15532" data-name="Path 15532" d="M938.9,274.775c.224.581.455,1.159.667,1.744.084.232.214.525-.105.668-.4.18-.488-.185-.609-.437a6.593,6.593,0,0,1-.289-.712c-.159-.459-.445-.5-.86-.33s-.627.366-.413.818a.348.348,0,0,1,.037.1c.047.449.709,1.079.044,1.288-.573.18-.567-.7-.76-1.123-.379-.831-.678-1.7-1-2.558-.1-.259-.3-.6.1-.752s.439.246.6.481c.241.356.042,1.134.919.911.856-.217.611-.707.423-1.249-.106-.306-.464-.735.093-.913.435-.139.484.345.6.624.2.469.374.954.558,1.433Z" transform="translate(-935.48 -272.69)" fill="#fff"/>
      </g>
      <g id="Group_32902" data-name="Group 32902" transform="translate(14.829 15.643)">
        <path id="Path_15533" data-name="Path 15533" d="M935.083,256.407c-.531-1.411-.239-2.658.7-2.983.886-.308,1.884.423,2.417,1.771.55,1.391.285,2.674-.625,3.021S935.609,257.8,935.083,256.407Zm2.4-.977a5.076,5.076,0,0,0-.345-.585c-.272-.345-.548-.735-1.082-.528s-.49.662-.415,1.113a2.071,2.071,0,0,0,.106.537c.3.642.527,1.635,1.417,1.35C938.109,257.013,937.577,256.1,937.483,255.43Z" transform="translate(-934.82 -253.354)" fill="#fff"/>
      </g>
      <g id="Group_32903" data-name="Group 32903" transform="translate(18.037 7.407)">
        <path id="Path_15534" data-name="Path 15534" d="M944.423,233.163c-.144-.375-.29-.75-.433-1.126-.46-1.213-.094-1.731,1.226-1.737,1.056,0,1.893.926,2.223,2.486a1.845,1.845,0,0,1-1.021,2.284c-.723.356-1.241.318-1.483-.576a14.052,14.052,0,0,0-.5-1.333Zm2.141-.745a8.674,8.674,0,0,0-.513-.866.819.819,0,0,0-1.068-.288c-.54.245-.2.614-.1.925.161.484.347.963.556,1.429.119.266.088.731.585.629a.808.808,0,0,0,.675-.875A7.04,7.04,0,0,0,946.564,232.418Z" transform="translate(-943.8 -230.3)" fill="#fff"/>
      </g>
      <g id="Group_32904" data-name="Group 32904" transform="translate(15.72 8.588)">
        <path id="Path_15535" data-name="Path 15535" d="M940.7,237.162c.1.22.185.438-.063.59-.281.171-.474-.012-.647-.224-.241-.3-.384-.723-.939-.526-.5.177-.721.422-.557.971.084.28.067.641-.308.71-.435.08-.421-.3-.453-.583-.137-1.235-.265-2.471-.4-3.706-.033-.3-.047-.593.3-.743a.442.442,0,0,1,.57.185Q939.45,235.5,940.7,237.162Z" transform="translate(-937.314 -233.607)" fill="#fff"/>
      </g>
      <g id="Group_32905" data-name="Group 32905" transform="translate(21.947 20.584)">
        <path id="Path_15536" data-name="Path 15536" d="M958.1,270.715c.071.241.133.457-.132.59-.235.118-.413-.009-.567-.193-.3-.354-.507-.793-1.15-.514-.627.273-.323.724-.341,1.119-.011.235-.033.457-.3.508-.386.072-.4-.228-.427-.482-.143-1.275-.28-2.55-.42-3.825-.029-.265-.033-.522.249-.667a.431.431,0,0,1,.588.12Q956.85,269.038,958.1,270.715Z" transform="translate(-954.744 -267.184)" fill="#fff"/>
      </g>
      <g id="Group_32906" data-name="Group 32906" transform="translate(12.879 24.078)">
        <path id="Path_15537" data-name="Path 15537" d="M932.616,280.333c.215.386.305.6.034.741a.419.419,0,0,1-.576-.141c-.271-.37-.443-.859-1.1-.6-.6.238-.4.692-.4,1.1,0,.272-.038.541-.377.558-.4.019-.31-.324-.34-.552-.161-1.229-.314-2.46-.466-3.69-.036-.293-.081-.6.275-.746a.522.522,0,0,1,.66.238C931.131,278.329,931.934,279.415,932.616,280.333Z" transform="translate(-929.363 -276.965)" fill="#fff"/>
      </g>
      <g id="Group_32907" data-name="Group 32907" transform="translate(20.927 12.948)">
        <path id="Path_15538" data-name="Path 15538" d="M953.233,247.96c.139-.6.265-1.2.423-1.79a.475.475,0,0,1,.5-.357c.312.023.335.309.238.493-.813,1.547.116,2.427,1.193,3.289.21.168.714.37.4.749-.306.364-.667.077-.946-.18-.392-.362-.775-.732-1.236-1.169-.292.714.143,1.124.239,1.594.047.23.085.454-.176.557s-.42-.059-.507-.281q-.721-1.843-1.426-3.692c-.082-.218-.062-.455.2-.542s.4.106.492.316c.141.337.265.681.4,1.022Z" transform="translate(-951.889 -245.811)" fill="#fff"/>
      </g>
    </g>
    <g id="Group_32923" data-name="Group 32923" transform="translate(132.163 188.325)">
      <g id="Group_32909" data-name="Group 32909" transform="translate(0)">
        <path id="Path_15539" data-name="Path 15539" d="M237.78,285.211q3.414-5.025,6.828-10.05c1.244-1.826,2.43-1.913,3.671-.16,1.7,2.395,3.307,4.853,4.947,7.29q7,10.394,13.987,20.79c.507.752,1.029,1.479.35,2.454s-1.568.708-2.432.52q-15.808-3.44-31.614-6.889a17.825,17.825,0,0,1-2.06-.559c-1.453-.506-1.747-1.451-.85-2.783,2.386-3.541,4.794-7.068,7.193-10.6Zm.417.44.014.009q-3.452,5.082-6.9,10.165c-.89,1.313-.729,1.839.713,2.339a7.442,7.442,0,0,0,.853.215q13.532,2.958,27.066,5.912c1.97.429,3.946.834,5.914,1.269a1.063,1.063,0,0,0,1.246-.407.991.991,0,0,0-.07-1.2c-.176-.287-.356-.571-.543-.85Q259.248,292.34,252,281.58c-1.43-2.121-2.821-4.277-4.365-6.308-.995-1.309-1.584-1.181-2.536.216Q241.644,280.566,238.2,285.651Z" transform="translate(-230.099 -273.737)" fill="#fff"/>
      </g>
      <g id="Group_32910" data-name="Group 32910" transform="translate(11.706 5.834)">
        <path id="Path_15540" data-name="Path 15540" d="M265.735,293.4q.554-.815,1.108-1.63c.159-.233.377-.434.631-.252s.108.46-.044.684c-.566.838-1.131,1.676-1.707,2.507-.171.247-.342.549-.712.413a.682.682,0,0,1-.409-.835,8.531,8.531,0,0,0,.115-2.473c-.358.527-.71,1.056-1.075,1.578-.152.218-.354.462-.624.29s-.124-.462.02-.679q.839-1.263,1.7-2.509c.175-.254.371-.526.728-.389.374.144.447.467.39.843-.12.8-.245,1.6-.367,2.4Z" transform="translate(-262.864 -290.066)" fill="#fff"/>
      </g>
      <g id="Group_32911" data-name="Group 32911" transform="translate(22.871 20.921)">
        <path id="Path_15541" data-name="Path 15541" d="M296.035,333.97c-.368.543-.727,1.092-1.109,1.624-.168.235-.363.6-.694.348-.234-.179-.057-.478.091-.7q.843-1.258,1.7-2.508c.174-.253.374-.527.726-.41a.669.669,0,0,1,.428.822,11.744,11.744,0,0,0-.215,2.659c.4-.589.793-1.183,1.2-1.765.149-.211.351-.458.618-.242.19.153.083.4-.04.586q-.911,1.371-1.84,2.73c-.153.223-.352.412-.642.3a.6.6,0,0,1-.387-.714c.131-.886.266-1.772.4-2.659Z" transform="translate(-294.118 -332.298)" fill="#fff"/>
      </g>
      <g id="Group_32912" data-name="Group 32912" transform="translate(26.743 23.656)">
        <path id="Path_15542" data-name="Path 15542" d="M306.233,341.7a1.967,1.967,0,0,0-.476,1.449.574.574,0,0,0,.736.5c.261-.046.519-.153.38-.509-.1-.246-.46-.526,0-.717.343-.141.6.214.873.392a.443.443,0,0,1,.082.755c-.364.373-.494,1.34-1.058,1.066-.713-.346-1.888-.378-1.818-1.705a3.826,3.826,0,0,1,1.885-2.823,1.357,1.357,0,0,1,1.791.451c.228.346.522.865.1,1.149-.531.36-.479-.294-.649-.588C307.665,340.384,306.956,340.614,306.233,341.7Z" transform="translate(-304.955 -339.953)" fill="#fff"/>
      </g>
      <g id="Group_32913" data-name="Group 32913" transform="translate(15.502 8.516)">
        <path id="Path_15543" data-name="Path 15543" d="M274.139,298.869a2.683,2.683,0,0,1,1.084-1.105,1.7,1.7,0,0,1,1.116-.15c.843.216,1.169,1.149.787,2.227-.5,1.413-1.83,2.357-2.8,1.99a1.642,1.642,0,0,1-.554-2.417A6.077,6.077,0,0,1,274.139,298.869Zm.539.563c-.172.493-.832,1.131-.2,1.563.76.522,1.2-.319,1.58-.878.357-.527.9-1.242.141-1.668C275.465,298.038,275.156,298.948,274.679,299.432Z" transform="translate(-273.492 -297.574)" fill="#fff"/>
      </g>
      <g id="Group_32914" data-name="Group 32914" transform="translate(10.169 19.925)">
        <path id="Path_15544" data-name="Path 15544" d="M260.76,332.887l1.683-2.255.38.246a12.772,12.772,0,0,1-2.147,3.069c-.431.416-.718-.115-.639-.639.1-.669.229-1.335.409-2.374-.395.486-.511.667-.663.809-.377.352-.532,1.366-1.091.975-.438-.306.352-.932.614-1.4a13.49,13.49,0,0,1,.886-1.314c.2-.279.414-.634.823-.437.392.188.27.564.2.909C261.085,331.152,260.96,331.831,260.76,332.887Z" transform="translate(-258.563 -329.509)" fill="#fff"/>
      </g>
      <g id="Group_32915" data-name="Group 32915" transform="translate(10.914 13.535)">
        <path id="Path_15545" data-name="Path 15545" d="M263.847,315.753c-.182.482-.325.626-.489.572a.489.489,0,0,1-.3-.342c-.072-1.273-.543-1.908-1.9-1.278a.354.354,0,0,1-.51-.212.532.532,0,0,1,.18-.43c.993-.772,1.982-1.552,3.011-2.269.535-.373,1-.1.893.495C264.5,313.56,264.1,314.807,263.847,315.753Zm-.088-2.9c-.419.357-1.142.382-1.134,1.108,0,.134.457.4.586.338C263.807,314.006,263.637,313.378,263.76,312.852Z" transform="translate(-260.649 -311.624)" fill="#fff"/>
      </g>
      <g id="Group_32916" data-name="Group 32916" transform="translate(14.692 15.463)">
        <path id="Path_15546" data-name="Path 15546" d="M274.631,317.271a1.59,1.59,0,0,1,.665,1.083c.035.22.041.461-.187.567a.318.318,0,0,1-.475-.25c-.125-.548-.457-1.139-.987-.775-.676.463.056.963.26,1.4.276.6.542,1.177.073,1.809a1.3,1.3,0,0,1-1.272.481,1.644,1.644,0,0,1-1.393-1.28c-.084-.271-.22-.62.181-.776s.491.132.543.468c.1.635.473,1.147,1.1.795.765-.427.149-1-.093-1.408-.384-.648-.783-1.277-.135-1.976A1.312,1.312,0,0,1,274.631,317.271Z" transform="translate(-271.223 -317.019)" fill="#fff"/>
      </g>
      <g id="Group_32917" data-name="Group 32917" transform="translate(17.836 17.58)">
        <path id="Path_15547" data-name="Path 15547" d="M283.427,323.212a1.72,1.72,0,0,1,.647,1.1c.036.217.018.45-.227.543a.338.338,0,0,1-.483-.254c-.134-.524-.365-1.157-.968-.74-.579.4.032.9.24,1.31.3.585.559,1.162.085,1.8a1.284,1.284,0,0,1-1.485.486,1.662,1.662,0,0,1-1.18-1.341c-.055-.247-.079-.541.247-.647.308-.1.469.08.516.375.1.606.362,1.233,1.032.846.8-.463.137-1.034-.126-1.485-.364-.626-.614-1.245-.009-1.874A1.3,1.3,0,0,1,283.427,323.212Z" transform="translate(-280.023 -322.946)" fill="#fff"/>
      </g>
      <g id="Group_32918" data-name="Group 32918" transform="translate(8.324 11.119)">
        <path id="Path_15548" data-name="Path 15548" d="M254.432,306.5c.148-.218.3-.437.444-.654.885-1.289,1.588-1.318,2.487-.075a1.346,1.346,0,0,1,.063,1.777,1.186,1.186,0,0,1-1.608.334c-.673-.383-1.189-.539-1.623.352-.118.243-.367.428-.632.258s-.156-.449-.008-.677c.287-.441.589-.873.885-1.309Zm1.549.733a.627.627,0,0,0,.846-.325c.254-.479-.034-.817-.409-1.052-.486-.305-.656.15-.882.449C255.259,306.672,255.349,306.938,255.981,307.233Z" transform="translate(-253.398 -304.859)" fill="#fff"/>
      </g>
      <g id="Group_32919" data-name="Group 32919" transform="translate(13.325 22.127)">
        <path id="Path_15549" data-name="Path 15549" d="M269.479,340.151a2.781,2.781,0,0,1-2.077-1.46,9.633,9.633,0,0,1,2.018-3.014c.919-.054,1.444.54,1.962,1.215-.483.343-.7,0-.972-.135-.314-.155-.612-.558-.966-.036s.152.651.4.879a.5.5,0,0,1,.208.551c-.542.522-1.234-.992-1.678.174C268,339.328,269.4,339.14,269.479,340.151Z" transform="translate(-267.398 -335.673)" fill="#fff"/>
      </g>
      <g id="Group_32920" data-name="Group 32920" transform="translate(7.633 18.299)">
        <path id="Path_15550" data-name="Path 15550" d="M254.412,327.726a8.274,8.274,0,0,1-.955.907,1.15,1.15,0,0,1-1.623-.056c-.73-.808-.237-1.638.259-2.361s1.056-1.515,2.086-1.177a1.158,1.158,0,0,1,.7,1.465A6.993,6.993,0,0,1,254.412,327.726Zm-.635-.407c.208-.536.811-1.149.275-1.534-.6-.43-1.049.266-1.39.763s-.845,1.182-.251,1.582C253.055,328.564,253.347,327.64,253.777,327.319Z" transform="translate(-251.464 -324.958)" fill="#fff"/>
      </g>
      <g id="Group_32921" data-name="Group 32921" transform="translate(4.687 16.269)">
        <path id="Path_15551" data-name="Path 15551" d="M246.173,320.6c-.164-.632-.937-.6-.936-1.311.924-.125,1.41.583,1.982,1.034.318.251-.009.536-.289.687-.383.206-.792.359-1.164.583-.666.4-2.4.54-.516,1.664a.348.348,0,0,1,.081.332.281.281,0,0,1-.426.134,9.574,9.574,0,0,1-1.524-1.083c-.406-.407.024-.689.384-.87C244.567,321.367,245.377,320.986,246.173,320.6Z" transform="translate(-243.217 -319.275)" fill="#fff"/>
      </g>
      <g id="Group_32922" data-name="Group 32922" transform="translate(20.736 19.447)">
        <path id="Path_15552" data-name="Path 15552" d="M291.093,328.349c.391.31.7.427.01.992a10.5,10.5,0,0,0-1.738,2.451c-.137.21.079.713-.429.591a1.3,1.3,0,0,1-.708-.483c-.3-.432.243-.411.4-.611a7.931,7.931,0,0,0,1.676-2.642C290.485,327.955,290.743,328.171,291.093,328.349Z" transform="translate(-288.14 -328.171)" fill="#fff"/>
      </g>
    </g>
    <g id="Group_32927" data-name="Group 32927" transform="translate(471.238 325.053)">
      <g id="Group_32924" data-name="Group 32924" transform="translate(0 4.165)">
        <path id="Path_15553" data-name="Path 15553" d="M1197.085,674.577c3.956,2.053,7.893,4.142,11.88,6.132.982.49,1.075.978.751,1.939-2.464,7.3-7.51,11.738-14.953,13.433a18.677,18.677,0,0,1-8.165-.388c-1.212-.266-1.858-1.461-2.626-2.341a19.228,19.228,0,0,1-.682-24.526,1.275,1.275,0,0,1,1.947-.444c3.926,2.109,7.9,4.13,11.855,6.182Zm-7.845,7.47a13.63,13.63,0,0,1-4.921,1.855c-.32.068-.949-.227-.868.45a1.061,1.061,0,0,0,.9,1.085c3.646.685,8.35-2.508,9-6.158a4.863,4.863,0,0,0-5.84-5.423,3.912,3.912,0,0,0-2.91,2.869,3.57,3.57,0,0,0,1.047,3.807A5.149,5.149,0,0,0,1189.24,682.047Zm11.333-2.41c-.847-.44-1.714-.846-2.536-1.329-.687-.4-1.055-.228-1.384.459-.584,1.219-1.245,2.4-1.856,3.607s-.423,1.472.94,1.507a3.371,3.371,0,0,1,3.031,1.591,2.6,2.6,0,0,1-.355,2.81c-1.01,1.614-2.777,1.8-4.272.456a4.423,4.423,0,0,1-.848-.992c-.422-.706-.815-.337-1.271-.064-.588.353-.485.726-.12,1.162a7.116,7.116,0,0,0,3.652,2.354c2.564.7,4.639-.523,5.515-3.214.7-2.143-.277-4.14-2.729-4.915-1.4-.444-1.05-.935-.606-1.843.429-.879.861-.936,1.638-.473.955.57,1.977,1.026,2.954,1.559.513.279.839.257,1.14-.321.319-.615.029-.853-.455-1.094C1202.194,680.489,1201.386,680.057,1200.574,679.637Z" transform="translate(-1179.204 -668.109)" fill="#ededed"/>
      </g>
      <g id="Group_32925" data-name="Group 32925" transform="translate(5.859 0)">
        <path id="Path_15554" data-name="Path 15554" d="M1208.018,666.143q-5.771-3-11.542-5.991c-1.143-.594-1.144-.629-.12-1.463.215-.176.443-.337.664-.505,3-2.279,2.989-2.266,6.021-.211a18.847,18.847,0,0,0,7.162,3.133,1.469,1.469,0,0,1,.835.406,18.454,18.454,0,0,0,8.788,4.8,1.261,1.261,0,0,1,1.116,1.275,28.3,28.3,0,0,1-.025,4.047c-.045.882-.324,1.076-1.158.635-3.9-2.064-7.828-4.08-11.746-6.113Zm.2-.952a12.538,12.538,0,0,1,1.1-2.1c.265-.317-.052-.764-.419-.985-.288-.175-.692-.516-.944-.128a6.608,6.608,0,0,0-1.2,2.511c.619,0,.54-.9,1.079-.69C1208.49,664.05,1207.61,664.777,1208.218,665.19Zm-5.681-4.322c-.037-.674-.058-1.179-.1-1.684-.015-.2-.061-.4-.292-.466-.19-.051-.291.089-.364.228-.389.738-.771,1.48-1.249,2.4.92-.214.8-1.009,1.4-1.283.047.586.082,1.127.138,1.666.039.377.259.718.554.274a7.669,7.669,0,0,0,1.228-2.6C1203.071,659.744,1203.1,660.4,1202.537,660.868Zm11.231,7.52a10.554,10.554,0,0,0,.72-2.988c.064-.377-.234-.653-.594-.335a8.78,8.78,0,0,0-2.059,2.229C1213.4,666.651,1213.42,666.662,1213.767,668.388Zm-6.988-5.621c.007-.488-.746-.523-.443-1.055s.8.247,1.181-.207c-.38-.347-.9-.852-1.265-.506a3.713,3.713,0,0,0-1.23,2.468c-.014.514.676.691,1.238.669.047-.591-.946-.531-.568-1.2C1205.984,662.416,1206.415,662.969,1206.779,662.767Zm11.7,4.4c-.471-.285-.924-.9-1.338-.4a3.779,3.779,0,0,0-1.139,2.509c.021.339.677.646,1.214.563.045-.59-.8-.507-.61-1.108.222-.7.838-.005,1.149-.275.021-.479-.739-.5-.464-1.025S1218.016,667.533,1218.483,667.165Zm-14.44-7.474c.968,1.371-.632,2.094-.376,3.236,1.065-.478.742-2.2,2.247-2.184A3.982,3.982,0,0,0,1204.042,659.691Zm4.608,5.615q.467.993,1.345.582a.848.848,0,0,0,.4-1.3c-.677-1.028-.2-1.229.889-1.056-.514-.64-.99-.74-1.465-.365-.456.36-.336.843-.093,1.3.144.269.448.54.185.854s-.574.039-.863-.059C1208.957,665.226,1208.841,665.279,1208.651,665.306Zm5.971,3.384c.939-.8.8-2.261,2.321-2.319a4.308,4.308,0,0,0-1.822-.882C1215.99,666.686,1214.446,667.422,1214.622,668.69Zm-3.091-5.074c.994,1.246-.49,1.987-.44,3.145,1.028-.616.729-2.344,2.487-2.13A5.622,5.622,0,0,0,1211.53,663.616Zm-10.36-5.278a4.836,4.836,0,0,0-1.241,2.449A3.926,3.926,0,0,0,1201.171,658.338Z" transform="translate(-1195.604 -656.451)" fill="#ededed"/>
      </g>
      <g id="Group_32926" data-name="Group 32926" transform="translate(7.389 11.542)">
        <path id="Path_15555" data-name="Path 15555" d="M1200.233,690.181a2.171,2.171,0,0,1,3.162-1.114q2.192,1.11,1.021,3.367a2.078,2.078,0,0,1-3.156,1.048A2.245,2.245,0,0,1,1200.233,690.181Z" transform="translate(-1199.887 -688.759)" fill="#ededed"/>
      </g>
    </g>
    <g id="Group_32928" data-name="Group 32928" transform="translate(483.428 277.307)">
      <path id="Path_15556" data-name="Path 15556" d="M1224.605,539.25l8.29-.813-7.811-2.51-.414-13.12-3.222,12.9-8.125.636,7.927,2.377.3,13.254Z" transform="translate(-1213.323 -522.806)" fill="#ededed"/>
    </g>
    <g id="Group_32929" data-name="Group 32929" transform="translate(369.523 246.474)">
      <path id="Path_15557" data-name="Path 15557" d="M902.478,448.14l5.868-.575-5.529-1.777-.293-9.287-2.281,9.131-5.751.45,5.611,1.682.212,9.382Z" transform="translate(-894.492 -436.501)" fill="#ededed"/>
    </g>
    <g id="Group_32934" data-name="Group 32934" transform="translate(447.485 257.896)">
      <g id="Group_32930" data-name="Group 32930" transform="translate(0 23.805)">
        <path id="Path_15558" data-name="Path 15558" d="M1112.717,536.98c-.092,2.591,3.934,2.738,4.026.144S1112.81,534.385,1112.717,536.98Z" transform="translate(-1112.716 -535.106)" fill="#f6f6f6"/>
      </g>
      <g id="Group_32931" data-name="Group 32931" transform="translate(7.085)">
        <path id="Path_15559" data-name="Path 15559" d="M1132.549,470.347c-.092,2.591,3.934,2.738,4.026.144S1132.642,467.752,1132.549,470.347Z" transform="translate(-1132.547 -468.473)" fill="#f6f6f6"/>
      </g>
      <g id="Group_32932" data-name="Group 32932" transform="translate(28.866 113.935)">
        <path id="Path_15560" data-name="Path 15560" d="M1193.516,789.264c-.092,2.59,3.934,2.738,4.026.143S1193.609,786.668,1193.516,789.264Z" transform="translate(-1193.515 -787.389)" fill="#f6f6f6"/>
      </g>
      <g id="Group_32933" data-name="Group 32933" transform="translate(39.069 127.664)">
        <path id="Path_15561" data-name="Path 15561" d="M1222.076,827.692c-.093,2.591,3.933,2.738,4.026.143S1222.168,825.1,1222.076,827.692Z" transform="translate(-1222.075 -825.817)" fill="#f6f6f6"/>
      </g>
    </g>
    <g id="Group_32939" data-name="Group 32939" transform="translate(99.312 149.373)">
      <g id="Group_32935" data-name="Group 32935" transform="translate(48.08 11.328)">
        <path id="Path_15562" data-name="Path 15562" d="M273.4,196.929c-1.937,1.723.738,4.736,2.678,3.01S275.337,195.2,273.4,196.929Z" transform="translate(-272.726 -196.412)" fill="#f6f6f6"/>
      </g>
      <g id="Group_32936" data-name="Group 32936" transform="translate(70.184 0)">
        <path id="Path_15563" data-name="Path 15563" d="M335.268,165.222c-1.936,1.723.739,4.736,2.678,3.01S337.208,163.5,335.268,165.222Z" transform="translate(-334.597 -164.705)" fill="#f6f6f6"/>
      </g>
      <g id="Group_32937" data-name="Group 32937" transform="translate(2.874 94.473)">
        <path id="Path_15564" data-name="Path 15564" d="M146.86,429.66c-1.936,1.723.739,4.736,2.678,3.01S148.8,427.934,146.86,429.66Z" transform="translate(-146.189 -429.143)" fill="#f6f6f6"/>
      </g>
      <g id="Group_32938" data-name="Group 32938" transform="translate(0 111.334)">
        <path id="Path_15565" data-name="Path 15565" d="M138.816,476.858c-1.936,1.723.739,4.736,2.678,3.01S140.756,475.132,138.816,476.858Z" transform="translate(-138.145 -476.341)" fill="#f6f6f6"/>
      </g>
    </g>
    <g id="Group_32944" data-name="Group 32944" transform="translate(351.905 140.85)">
      <g id="Group_32940" data-name="Group 32940" transform="translate(110.649 11.83)">
        <path id="Path_15566" data-name="Path 15566" d="M1157.79,174.2c-2.31-1.176-4.142,2.413-1.828,3.59S1160.1,175.376,1157.79,174.2Z" transform="translate(-1154.894 -173.965)" fill="#f6f6f6"/>
      </g>
      <g id="Group_32941" data-name="Group 32941" transform="translate(129.246 28.293)">
        <path id="Path_15567" data-name="Path 15567" d="M1209.847,220.278c-2.31-1.176-4.142,2.412-1.828,3.59S1212.161,221.456,1209.847,220.278Z" transform="translate(-1206.95 -220.044)" fill="#f6f6f6"/>
      </g>
      <g id="Group_32942" data-name="Group 32942" transform="translate(16.751 0)">
        <path id="Path_15568" data-name="Path 15568" d="M894.961,141.084c-2.31-1.176-4.142,2.412-1.828,3.59S897.276,142.262,894.961,141.084Z" transform="translate(-892.065 -140.85)" fill="#f6f6f6"/>
      </g>
      <g id="Group_32943" data-name="Group 32943" transform="translate(0 3.463)">
        <path id="Path_15569" data-name="Path 15569" d="M848.074,150.777c-2.31-1.176-4.142,2.412-1.828,3.59S850.388,151.955,848.074,150.777Z" transform="translate(-845.178 -150.543)" fill="#f6f6f6"/>
      </g>
    </g>
    <g id="Group_32945" data-name="Group 32945" transform="translate(529.319 294.065)">
      <path id="Path_15570" data-name="Path 15570" d="M1346.894,577.17l3.76-.369-3.543-1.138-.188-5.95-1.461,5.85-3.685.288,3.595,1.078.135,6.011Z" transform="translate(-1341.777 -569.712)" fill="#fff"/>
    </g>
    <g id="Group_32946" data-name="Group 32946" transform="translate(499.998 198.204)">
      <path id="Path_15571" data-name="Path 15571" d="M1271.443,318.5l8.625-.846-8.126-2.612-.431-13.65-3.352,13.421-8.452.661,8.247,2.473.311,13.789Z" transform="translate(-1259.705 -301.39)" fill="#fff"/>
    </g>
    <g id="Group_32947" data-name="Group 32947" transform="translate(115.171 213.985)">
      <path id="Path_15572" data-name="Path 15572" d="M193.866,362.075l8.326-.816-7.845-2.521-.416-13.177-3.236,12.957-8.16.638,7.961,2.387.3,13.312Z" transform="translate(-182.535 -345.56)" fill="#fff"/>
    </g>
    <g id="Group_33033" data-name="Group 33033" transform="translate(83.425 221.625)">
      <g id="Group_33032" data-name="Group 33032" transform="translate(0)" style="isolation: isolate">
        <g id="Group_32949" data-name="Group 32949" transform="translate(2.829 104.196)">
          <g id="Group_32948" data-name="Group 32948">
            <path id="Path_15573" data-name="Path 15573" d="M101.595,661.964l.1-3.361,1.048.4-.1,3.391Z" transform="translate(-101.595 -658.604)" fill="#d9d9d9"/>
          </g>
        </g>
        <g id="Group_32951" data-name="Group 32951" transform="translate(0 86.989)">
          <g id="Group_32950" data-name="Group 32950">
            <path id="Path_15574" data-name="Path 15574" d="M99.124,611.5l-4.5,6.764-.947-.293.175-6.274.8-1.264,3.5.835Z" transform="translate(-93.677 -610.437)" fill="#f9f9f9"/>
          </g>
        </g>
        <g id="Group_32953" data-name="Group 32953" transform="translate(3.788 95.835)">
          <g id="Group_32952" data-name="Group 32952">
            <path id="Path_15575" data-name="Path 15575" d="M104.466,643.965l.261-8.766,2.076.641-.273,8.92-.106,3.45-.09,2.95-2.055-.906.086-2.9Z" transform="translate(-104.279 -635.199)" fill="#d9d9d9"/>
          </g>
        </g>
        <g id="Group_32955" data-name="Group 32955" transform="translate(0.442 70.969)">
          <g id="Group_32954" data-name="Group 32954">
            <path id="Path_15576" data-name="Path 15576" d="M100.422,566.028l-4.55,7.478-.958-.159.178-6.359.81-1.392,3.536.337Z" transform="translate(-94.914 -565.597)" fill="#f9f9f9"/>
          </g>
        </g>
        <g id="Group_32957" data-name="Group 32957" transform="translate(5.933 105.396)">
          <g id="Group_32956" data-name="Group 32956">
            <path id="Path_15577" data-name="Path 15577" d="M110.389,661.963l1.106.427-.108,3.482-1.1-.459Z" transform="translate(-110.283 -661.963)" fill="#d9d9d9"/>
          </g>
        </g>
        <g id="Group_32959" data-name="Group 32959" transform="translate(4.474 79.429)">
          <g id="Group_32958" data-name="Group 32958">
            <path id="Path_15578" data-name="Path 15578" d="M106.2,597.672l.25-8.394,2.1.348-.262,8.545-1.114-.266Z" transform="translate(-106.2 -589.278)" fill="#d9d9d9"/>
          </g>
        </g>
        <g id="Group_32961" data-name="Group 32961" transform="translate(0.935 52.806)">
          <g id="Group_32960" data-name="Group 32960">
            <path id="Path_15579" data-name="Path 15579" d="M101.87,514.757l-4.607,8.285-.969-.007.18-6.453.82-1.535,3.579-.227Z" transform="translate(-96.294 -514.757)" fill="#f9f9f9"/>
          </g>
        </g>
        <g id="Group_32963" data-name="Group 32963" transform="translate(4.966 61.117)">
          <g id="Group_32962" data-name="Group 32962">
            <path id="Path_15580" data-name="Path 15580" d="M107.576,548.208l.3-10.19,2.126.016-.318,10.375-1.127-.107Z" transform="translate(-107.576 -538.019)" fill="#d9d9d9"/>
          </g>
        </g>
        <g id="Group_32965" data-name="Group 32965" transform="translate(5.514 44.968)">
          <g id="Group_32964" data-name="Group 32964">
            <path id="Path_15581" data-name="Path 15581" d="M109.339,493.095l2.149-.276-.164,5.354-.074,2.411-1.141.072-1,.063.07-2.368Z" transform="translate(-109.112 -492.819)" fill="#d9d9d9"/>
          </g>
        </g>
        <g id="Group_32967" data-name="Group 32967" transform="translate(0.465 106.608)">
          <g id="Group_32966" data-name="Group 32966">
            <path id="Path_15582" data-name="Path 15582" d="M104.11,669.115l-.1,3.04-9.034-3.985.08-2.817,2.284.949,1.045.434-.086,2.9,2.055.906.09-2.95,1.1.458Z" transform="translate(-94.978 -665.353)" fill="#d9d9d9"/>
          </g>
        </g>
        <g id="Group_32969" data-name="Group 32969" transform="translate(4.498 43.421)">
          <g id="Group_32968" data-name="Group 32968">
            <path id="Path_15583" data-name="Path 15583" d="M110.856,488.487l-.212,6.806-1.149.1.164-5.354-2.149.276-.156,5.257-1.086.091.192-6.556,1.066-.149a1.9,1.9,0,0,0,.254.11,1.806,1.806,0,0,0,.265.07,1.765,1.765,0,0,0,.275.027,1.8,1.8,0,0,0,.285-.017,1.971,1.971,0,0,0,.287-.062,2.231,2.231,0,0,0,.284-.1,2.635,2.635,0,0,0,.278-.146,3.059,3.059,0,0,0,.272-.186Z" transform="translate(-106.268 -488.487)" fill="#eee"/>
          </g>
        </g>
        <g id="Group_32971" data-name="Group 32971" transform="translate(3.776 31.773)">
          <g id="Group_32970" data-name="Group 32970">
            <path id="Path_15584" data-name="Path 15584" d="M107.677,455.936a1.78,1.78,0,0,1,1.3.173,2.9,2.9,0,0,1,1.055,1.086,6.094,6.094,0,0,1,.687,1.837,9.982,9.982,0,0,1,.2,2.4,11.58,11.58,0,0,1-.237,2,10.348,10.348,0,0,1-.538,1.785,7.589,7.589,0,0,1-.773,1.456,4.5,4.5,0,0,1-.943,1.021,3.057,3.057,0,0,1-.272.186,2.624,2.624,0,0,1-.278.146,2.222,2.222,0,0,1-.284.1,1.967,1.967,0,0,1-.287.062,1.789,1.789,0,0,1-.285.017,1.761,1.761,0,0,1-.275-.027,1.809,1.809,0,0,1-.265-.07,1.9,1.9,0,0,1-.254-.11,2.588,2.588,0,0,1-.844-.741,4.675,4.675,0,0,1-.638-1.188,7.579,7.579,0,0,1-.392-1.548,10.416,10.416,0,0,1-.1-1.831,11.553,11.553,0,0,1,.315-2.373,9.688,9.688,0,0,1,.74-2.057,5.935,5.935,0,0,1,1.069-1.536A2.815,2.815,0,0,1,107.677,455.936Z" transform="translate(-104.246 -455.883)" fill="#fabf76"/>
          </g>
        </g>
        <g id="Group_32973" data-name="Group 32973" transform="translate(7.062 89.641)">
          <g id="Group_32972" data-name="Group 32972">
            <path id="Path_15585" data-name="Path 15585" d="M123.891,619.157l-5.473,7.307-4.972-1.535,5.024-7.067Z" transform="translate(-113.445 -617.862)" fill="#f9f9f9"/>
          </g>
        </g>
        <g id="Group_32975" data-name="Group 32975" transform="translate(7.583 72.04)">
          <g id="Group_32974" data-name="Group 32974">
            <path id="Path_15586" data-name="Path 15586" d="M125.476,569.119l-5.542,8.173-5.031-.834,5.084-7.863Z" transform="translate(-114.902 -568.596)" fill="#f9f9f9"/>
          </g>
        </g>
        <g id="Group_32977" data-name="Group 32977" transform="translate(8.164 52.023)">
          <g id="Group_32976" data-name="Group 32976">
            <path id="Path_15587" data-name="Path 15587" d="M127.246,512.564l-5.62,9.153-5.1-.038,5.152-8.763Z" transform="translate(-116.529 -512.564)" fill="#f9f9f9"/>
          </g>
        </g>
        <g id="Group_32979" data-name="Group 32979" transform="translate(19.461 92.878)">
          <g id="Group_32978" data-name="Group 32978">
            <path id="Path_15588" data-name="Path 15588" d="M161.045,628.525l-6.8,7.938-6.1-1.883,6.182-7.658Z" transform="translate(-148.15 -626.922)" fill="#f9f9f9"/>
          </g>
        </g>
        <g id="Group_32981" data-name="Group 32981" transform="translate(20.134 73.35)">
          <g id="Group_32980" data-name="Group 32980">
            <path id="Path_15589" data-name="Path 15589" d="M163.109,572.909l-6.9,9.008-6.18-1.024,6.266-8.633Z" transform="translate(-150.033 -572.26)" fill="#f9f9f9"/>
          </g>
        </g>
        <g id="Group_32983" data-name="Group 32983" transform="translate(20.886 51.055)">
          <g id="Group_32982" data-name="Group 32982">
            <path id="Path_15590" data-name="Path 15590" d="M165.418,509.855l-7.006,10.225-6.272-.047,6.361-9.74Z" transform="translate(-152.14 -509.855)" fill="#f9f9f9"/>
          </g>
        </g>
        <g id="Group_32985" data-name="Group 32985" transform="translate(34.767 96.916)">
          <g id="Group_32984" data-name="Group 32984">
            <path id="Path_15591" data-name="Path 15591" d="M207.311,640.261l-8.661,8.674-7.656-2.364,7.787-8.347Z" transform="translate(-190.993 -638.224)" fill="#f9f9f9"/>
          </g>
        </g>
        <g id="Group_32987" data-name="Group 32987" transform="translate(35.654 74.986)">
          <g id="Group_32986" data-name="Group 32986">
            <path id="Path_15592" data-name="Path 15592" d="M210.055,577.667l-8.8,10.031-7.774-1.288,7.908-9.569Z" transform="translate(-193.477 -576.84)" fill="#f9f9f9"/>
          </g>
        </g>
        <g id="Group_32989" data-name="Group 32989" transform="translate(36.648 49.829)">
          <g id="Group_32988" data-name="Group 32988">
            <path id="Path_15593" data-name="Path 15593" d="M213.134,506.424,204.167,518l-7.908-.059,8.045-10.963Z" transform="translate(-196.259 -506.424)" fill="#f9f9f9"/>
          </g>
        </g>
        <g id="Group_32991" data-name="Group 32991" transform="translate(54.144 102.094)">
          <g id="Group_32990" data-name="Group 32990" transform="translate(0)">
            <path id="Path_15594" data-name="Path 15594" d="M266.526,655.393l-11.4,9.533-9.894-3.055,10.1-9.151Z" transform="translate(-245.23 -652.719)" fill="#f9f9f9"/>
          </g>
        </g>
        <g id="Group_32993" data-name="Group 32993" transform="translate(55.343 77.089)">
          <g id="Group_32992" data-name="Group 32992">
            <path id="Path_15595" data-name="Path 15595" d="M270.283,583.816l-11.623,11.31-10.071-1.669,10.281-10.729Z" transform="translate(-248.588 -582.728)" fill="#f9f9f9"/>
          </g>
        </g>
        <g id="Group_32995" data-name="Group 32995" transform="translate(56.691 48.226)">
          <g id="Group_32994" data-name="Group 32994" transform="translate(0)">
            <path id="Path_15596" data-name="Path 15596" d="M274.507,501.936l-11.875,13.351-10.273-.077,10.489-12.536Z" transform="translate(-252.359 -501.936)" fill="#f9f9f9"/>
          </g>
        </g>
        <g id="Group_32997" data-name="Group 32997" transform="translate(79.461 108.975)">
          <g id="Group_32996" data-name="Group 32996">
            <path id="Path_15597" data-name="Path 15597" d="M345.042,675.644l-15.666,10.524-13.282-4.1,13.6-10.087Z" transform="translate(-316.095 -671.98)" fill="#f9f9f9"/>
          </g>
        </g>
        <g id="Group_32999" data-name="Group 32999" transform="translate(81.138 79.892)">
          <g id="Group_32998" data-name="Group 32998">
            <path id="Path_15598" data-name="Path 15598" d="M350.383,592.072l-16.03,12.951-13.564-2.248,13.892-12.2Z" transform="translate(-320.789 -590.575)" fill="#f9f9f9"/>
          </g>
        </g>
        <g id="Group_33001" data-name="Group 33001" transform="translate(83.028 46.039)">
          <g id="Group_33000" data-name="Group 33000">
            <path id="Path_15599" data-name="Path 15599" d="M356.412,495.816l-16.446,15.761-13.886-.1L340.3,496.837Z" transform="translate(-326.08 -495.816)" fill="#f9f9f9"/>
          </g>
        </g>
        <g id="Group_33003" data-name="Group 33003" transform="translate(116.139 148.064)">
          <g id="Group_33002" data-name="Group 33002">
            <path id="Path_15600" data-name="Path 15600" d="M418.762,787.973l.52-6.581,4.222,1.628-.542,6.7Z" transform="translate(-418.762 -781.392)" fill="#d9d9d9"/>
          </g>
        </g>
        <g id="Group_33005" data-name="Group 33005" transform="translate(119.877 132.287)">
          <g id="Group_33004" data-name="Group 33004">
            <path id="Path_15601" data-name="Path 15601" d="M430.228,754.637l1.409-17.4,8.664,2.675-1.528,18.025-.588,6.934-.5,5.911-8.461-3.732.462-5.711Z" transform="translate(-429.224 -737.232)" fill="#d9d9d9"/>
          </g>
        </g>
        <g id="Group_33007" data-name="Group 33007" transform="translate(128.839 152.988)">
          <g id="Group_33006" data-name="Group 33006">
            <path id="Path_15602" data-name="Path 15602" d="M454.9,795.176l4.717,1.819L459,804.059l-4.691-1.949Z" transform="translate(-454.31 -795.176)" fill="#d9d9d9"/>
          </g>
        </g>
        <g id="Group_33009" data-name="Group 33009" transform="translate(123.587 99.354)">
          <g id="Group_33008" data-name="Group 33008">
            <path id="Path_15603" data-name="Path 15603" d="M439.608,661.959l1.369-16.91,8.892,1.474-1.486,17.531Z" transform="translate(-439.608 -645.049)" fill="#d9d9d9"/>
          </g>
        </g>
        <g id="Group_33011" data-name="Group 33011" transform="translate(126.289 62.032)">
          <g id="Group_33010" data-name="Group 33010">
            <path id="Path_15604" data-name="Path 15604" d="M447.173,561.422l1.687-20.841,9.154.068-1.833,21.631Z" transform="translate(-447.173 -540.581)" fill="#d9d9d9"/>
          </g>
        </g>
        <g id="Group_33013" data-name="Group 33013" transform="translate(129.352 27.988)">
          <g id="Group_33012" data-name="Group 33012">
            <path id="Path_15605" data-name="Path 15605" d="M457.028,446.495l9.387-1.206-.962,11.356-.432,5.1-9.274.587.4-4.9Z" transform="translate(-455.746 -445.288)" fill="#d9d9d9"/>
          </g>
        </g>
        <g id="Group_33015" data-name="Group 33015" transform="translate(106.818 150.939)">
          <g id="Group_33014" data-name="Group 33014">
            <path id="Path_15606" data-name="Path 15606" d="M430.633,805.048l-.578,6.284-37.384-16.491.405-5.4,8.916,3.705,4.2,1.745-.462,5.711,8.461,3.732.5-5.911,4.691,1.949Z" transform="translate(-392.671 -789.441)" fill="#d9d9d9"/>
          </g>
        </g>
        <g id="Group_33017" data-name="Group 33017" transform="translate(125.162 24.309)">
          <g id="Group_33016" data-name="Group 33016">
            <path id="Path_15607" data-name="Path 15607" d="M464.335,434.992l-1.268,14.6-5.152.431.962-11.355-9.387,1.206-.884,10.927-4.587.384,1.067-13.5,4.528-.634q.53.1,1.087.15t1.141.063q.585.009,1.193-.028t1.241-.124q.633-.087,1.262-.22t1.252-.31q.624-.178,1.238-.4t1.217-.482Z" transform="translate(-444.018 -434.992)" fill="#eee"/>
          </g>
        </g>
        <g id="Group_33019" data-name="Group 33019" transform="translate(0 86.807)">
          <g id="Group_33018" data-name="Group 33018">
            <path id="Path_15608" data-name="Path 15608" d="M226.9,641.687l-19.282,11.145,18.763,5.794,20.881-10.619-1.56,16.585-21.075-6.507-8.665-2.675L99.989,619.6l-2.076-.641-4.236-1.308.216-7.72.761.182-.8,1.264-.175,6.274.947.293,4.5-6.764,1.114.266,5.525,1.319-5.024,7.067,4.972,1.535,5.473-7.307L119.32,616l-6.182,7.658,6.1,1.883,6.8-7.938,10.2,2.435-7.787,8.346,7.656,2.364,8.661-8.674,13.158,3.142-10.1,9.151,9.894,3.055,11.4-9.533,17.621,4.207-13.6,10.087,13.282,4.1,15.666-10.524,15.178,3.624,8.775,2.1Z" transform="translate(-93.677 -609.928)" fill="#fabf76"/>
          </g>
        </g>
        <g id="Group_33021" data-name="Group 33021" transform="translate(113.944 118.565)">
          <g id="Group_33020" data-name="Group 33020">
            <path id="Path_15609" data-name="Path 15609" d="M452.4,703.718l-.134,1.426-20.882,10.619-18.763-5.794L431.9,698.824Z" transform="translate(-412.619 -698.824)" fill="#f9f9f9"/>
          </g>
        </g>
        <g id="Group_33023" data-name="Group 33023" transform="translate(122.619)">
          <g id="Group_33022" data-name="Group 33022">
            <path id="Path_15610" data-name="Path 15610" d="M451.849,367.432a15.851,15.851,0,0,1,5.8-.362,11.123,11.123,0,0,1,4.765,1.744,8.814,8.814,0,0,1,3.1,3.608,9.933,9.933,0,0,1,.82,5.116,13.827,13.827,0,0,1-1.2,4.443,18.02,18.02,0,0,1-2.576,4.079,21.177,21.177,0,0,1-3.6,3.415,21.4,21.4,0,0,1-4.29,2.5q-.6.262-1.217.482t-1.238.4q-.622.177-1.252.31t-1.262.22q-.631.086-1.241.124t-1.193.028q-.583-.009-1.141-.063t-1.087-.15a11.138,11.138,0,0,1-3.554-1.267,9.151,9.151,0,0,1-2.628-2.232,8.771,8.771,0,0,1-1.566-3.032,10.316,10.316,0,0,1-.354-3.7,13.933,13.933,0,0,1,1.4-4.989,18.729,18.729,0,0,1,3.182-4.577,21.529,21.529,0,0,1,4.619-3.731A20.371,20.371,0,0,1,451.849,367.432Z" transform="translate(-436.9 -366.948)" fill="#fabf76"/>
          </g>
        </g>
        <g id="Group_33025" data-name="Group 33025" transform="translate(0.442 70.896)">
          <g id="Group_33024" data-name="Group 33024">
            <path id="Path_15611" data-name="Path 15611" d="M230.657,578.312l-19.785,14.12,19.249,3.19L251.6,581.794l-1.611,17.121-21.668-3.591-8.892-1.474L101.3,574.273l-2.1-.348-4.282-.71.219-7.824.769.073-.81,1.392-.178,6.359.958.159,4.55-7.478,1.127.107,5.59.533-5.084,7.863,5.031.834,5.542-8.173,8.243.786-6.266,8.633,6.18,1.024,6.9-9.008,10.353.987-7.908,9.569,7.774,1.288,8.8-10.031,13.392,1.277-10.281,10.729,10.071,1.669,11.623-11.31,17.992,1.715-13.892,12.2,13.564,2.248,16.03-12.951,15.558,1.483,9.007.859Z" transform="translate(-94.914 -565.392)" fill="#fabf76"/>
          </g>
        </g>
        <g id="Group_33027" data-name="Group 33027" transform="translate(116.399 83.816)">
          <g id="Group_33026" data-name="Group 33026">
            <path id="Path_15612" data-name="Path 15612" d="M460.355,603.567l-.138,1.472-21.477,13.828-19.249-3.19,19.785-14.12Z" transform="translate(-419.49 -601.557)" fill="#f9f9f9"/>
          </g>
        </g>
        <g id="Group_33029" data-name="Group 33029" transform="translate(0.935 44.381)">
          <g id="Group_33028" data-name="Group 33028">
            <path id="Path_15613" data-name="Path 15613" d="M234.9,491.175,214.538,508.76l19.806.148,22.164-17.585-1.669,17.738-22.351-.167-9.154-.068-120.581-.9-2.126-.016-4.334-.032.222-7.939.779-.049-.82,1.535-.18,6.453.969.007,4.607-8.285,1.141-.072,5.664-.359-5.152,8.763,5.1.038,5.62-9.153,8.365-.53-6.361,9.74,6.272.047,7.006-10.225,10.529-.667-8.045,10.963,7.908.059,8.967-11.581,13.657-.865-10.489,12.536,10.273.077L174.2,495.02l18.415-1.166-14.225,14.637,13.886.1,16.446-15.761,15.993-1.013,9.274-.587Z" transform="translate(-96.294 -491.175)" fill="#fabf76"/>
          </g>
        </g>
        <g id="Group_33031" data-name="Group 33031" transform="translate(119.179 43.004)">
          <g id="Group_33030" data-name="Group 33030">
            <path id="Path_15614" data-name="Path 15614" d="M469.384,487.319l-.144,1.526L447.076,506.43l-19.806-.148L447.633,488.7Z" transform="translate(-427.27 -487.319)" fill="#f9f9f9"/>
          </g>
        </g>
      </g>
    </g>
    <g id="Group_33054" data-name="Group 33054" transform="translate(246.006 157.473)">
      <g id="Group_33034" data-name="Group 33034" transform="translate(29.203 39.32)">
        <circle id="Ellipse_3030" data-name="Ellipse 3030" cx="41.597" cy="41.597" r="41.597" fill="#cbd4e4"/>
      </g>
      <g id="Group_33047" data-name="Group 33047" transform="translate(0)">
        <g id="Group_33045" data-name="Group 33045" transform="translate(4.306)">
          <g id="Group_33035" data-name="Group 33035" transform="translate(248.758 60.285)">
            <path id="Path_15615" data-name="Path 15615" d="M1257.109,356.122" transform="translate(-1257.109 -356.122)" fill="#dce2ed"/>
          </g>
          <g id="Group_33036" data-name="Group 33036" transform="translate(280.948 162.605)">
            <path id="Path_15616" data-name="Path 15616" d="M1347.212,642.528" transform="translate(-1347.212 -642.528)" fill="#788eba"/>
          </g>
          <g id="Group_33037" data-name="Group 33037" transform="translate(0 0)">
            <path id="Path_15617" data-name="Path 15617" d="M770.674,377.608c-.673-5.594-6.277-48.57-41.615-59.582a73.943,73.943,0,0,0-8.955-2.547,36.8,36.8,0,0,0-13.42-.072,27.282,27.282,0,0,0-9.436,3.566,21.189,21.189,0,0,0-5.883,5.316c-2.426-8.006-10.587-16.9-22.131-23.032-9.529-5.066-19.325-7.172-26.95-6.366-.494.037-.99.086-1.491.16-.055.009-.125.036-.155-.05.043-.132.164-.172.254-.24a20.844,20.844,0,0,0,3.848-3.694,18.263,18.263,0,0,0,3.742-7.871,17.64,17.64,0,0,0-.568-9.29,20.711,20.711,0,0,0-7.469-10.187c-.272-.206-.55-.4-.832-.588-6.653-8.114-8.722-19.8-9.049-31.039-.1-3.363-.064-6.745.009-10.13a64.872,64.872,0,0,1,.58-10.339A14.718,14.718,0,0,1,636.128,203a38.838,38.838,0,0,1,8.458-5.454,41.215,41.215,0,0,1,4.993-2.081c1.474-.494,3.189-.912,4.564-.288a3.01,3.01,0,0,1,.409.23,6.574,6.574,0,0,0-1.914,1.95,6.275,6.275,0,0,0-.876,2.127,1.542,1.542,0,0,0,1.136,1.785,3.575,3.575,0,0,0,3.786-1.41,4.055,4.055,0,0,0,.475-4.05c.306-.586-3.221-4.964-8.859-1.693-3.494,2.027-7.316,3.271-10.653,5.634s-6.312,5.406-7.582,9.538c-1.231,4-1.034,8.288-1.126,12.313-.188,8.269-.173,16.612,1.4,24.522a45.269,45.269,0,0,0,5.427,14.625,21.282,21.282,0,0,0-2.645-.708c-.686-.175-1.363-.379-2.059-.528a27.247,27.247,0,0,0-3.994-.539,227.034,227.034,0,0,1-9.985-30.812,109.29,109.29,0,0,1-3.291-17.344c-.446-5.476-.042-11.354,2.653-16.571,1.173-2.27,3.3-5.158,5.869-5.137a2.291,2.291,0,0,1,1.049.3c-1.194,1.94-.586,4.775,1.518,5.275a.845.845,0,0,0,.79-.3,4.391,4.391,0,0,0-.364-5.791.725.725,0,0,0-.355-.323c-1.746-1.42-4.15-1.038-6.122.461a16.258,16.258,0,0,0-4.842,7.116,29.828,29.828,0,0,0-1.929,9.126c-.385,6.367.846,12.519,2.172,18.468q2.19,9.828,5.182,19.325,2.593,8.228,5.774,16.157a27.471,27.471,0,0,0-7.282,1.06c-2.6.737-19.148,5.031-25.465,27.4-2.036,7.211,19.662,15.981,30.517,12.264,3.131-1.072,6.345-.414,9.475-1.078a11.233,11.233,0,0,0-2.811,3.4c-1.815,3.414-1.679,7.56.033,11.884l-23.022-7.519-45.815,21.948,45.211-17.432,24.152,4.232a29.9,29.9,0,0,0,2.476,4.32l-22.878,2.425L602.767,342.8,613.4,325.138l20.486-4.028a53.873,53.873,0,0,0,17.3,14.092c8.036,4.272,16.26,6.437,23.213,6.527l4.266,3.512,13.042,29.815-7.527.856,12.409-1.025-10.021-23.14L712.1,372.764,726.137,398.2,715.111,371.6l-32.005-31.088a15.463,15.463,0,0,0,4.644-2.426,20.314,20.314,0,0,0,.936,3.911,25.623,25.623,0,0,0,5.766,9.193,47.18,47.18,0,0,0,10.482,8.091,83.1,83.1,0,0,0,11.765,5.638c2.817,1.107,50.945,12.98,53.313,13.17C770.739,378.149,770.741,378.157,770.674,377.608Z" transform="translate(-560.811 -187.38)" fill="#5673a9"/>
          </g>
          <g id="Group_33038" data-name="Group 33038" transform="translate(0 123.468)">
            <path id="Path_15618" data-name="Path 15618" d="M560.811,550.41l12.607,3.885,32.6-21.317Z" transform="translate(-560.811 -532.979)" fill="#355586"/>
          </g>
          <g id="Group_33039" data-name="Group 33039" transform="translate(41.956 134.446)">
            <path id="Path_15619" data-name="Path 15619" d="M688.885,567.018l1.222,20.066-11.859-2.4,7.006-20.974Z" transform="translate(-678.249 -563.706)" fill="#355586"/>
          </g>
          <g id="Group_33040" data-name="Group 33040" transform="translate(123.37 185.36)">
            <path id="Path_15620" data-name="Path 15620" d="M918.546,708.367l-2.358,6.043-10.052-5.018,6.93-3.173Z" transform="translate(-906.136 -706.219)" fill="#355586"/>
          </g>
          <g id="Group_33041" data-name="Group 33041" transform="translate(151.287 184.222)">
            <path id="Path_15621" data-name="Path 15621" d="M984.276,704.2l4.853,20.011,9.187,5.421-11.025-26.594Z" transform="translate(-984.276 -703.036)" fill="#355586"/>
          </g>
          <g id="Group_33042" data-name="Group 33042" transform="translate(68.047 5.534)">
            <path id="Path_15622" data-name="Path 15622" d="M752.758,256.078a49.5,49.5,0,0,0,3.05,9.889,11.424,11.424,0,0,1,1.834-.1c-3.223-7.13-4.417-15.584-4.657-23.814-.1-3.363-.064-6.745.009-10.131a64.868,64.868,0,0,1,.58-10.339,14.719,14.719,0,0,1,4.977-8.623,38.838,38.838,0,0,1,8.458-5.454A41.212,41.212,0,0,1,772,205.422c1.474-.494,3.189-.912,4.564-.288a3.039,3.039,0,0,1,.409.23,6.564,6.564,0,0,0-1.914,1.95,6.277,6.277,0,0,0-.876,2.126,1.542,1.542,0,0,0,1.136,1.785,3.575,3.575,0,0,0,3.786-1.41,4.055,4.055,0,0,0,.475-4.05c.306-.586-3.221-4.964-8.859-1.694-3.494,2.027-7.316,3.271-10.653,5.635s-6.312,5.406-7.582,9.538c-1.231,4-1.034,8.288-1.126,12.313C751.174,239.825,751.19,248.168,752.758,256.078Z" transform="translate(-751.281 -202.87)" fill="#355586"/>
          </g>
          <g id="Group_33043" data-name="Group 33043" transform="translate(31.49 82.499)">
            <path id="Path_15623" data-name="Path 15623" d="M789.159,508c-19.475-3.782-31.051-19.2-36.709-36.925-7.15,5.159-19.355,4.762-27.047,4.15-12.1-.962-26.32-7.065-28.342-20.463a21.291,21.291,0,0,1-.223-3.748,8.659,8.659,0,0,1,1.136-5.968,14.072,14.072,0,0,1,.813-1.716c-.445.035-.891.078-1.343.144-.055.009-.125.036-.155-.05.042-.132.164-.172.254-.24a20.845,20.845,0,0,0,3.848-3.694,18.265,18.265,0,0,0,3.742-7.871,17.641,17.641,0,0,0-.568-9.29,20.3,20.3,0,0,0-1.907-4.028,13.139,13.139,0,0,1-3.4,5.769c-9.234,9.217-38.461,14.711-46.438,2.384a47.4,47.4,0,0,0-3.731,9.353c-2.036,7.211,19.662,15.981,30.517,12.264,3.131-1.072,6.344-.414,9.475-1.078a11.233,11.233,0,0,0-2.811,3.4c-1.815,3.414-1.679,7.56.032,11.884l-.177-.058c.152.421.313.836.477,1.249l.227.04a29.909,29.909,0,0,0,2.476,4.32l-.589.062c.389.58.769,1.188,1.154,1.781l.674-.133a53.87,53.87,0,0,0,17.3,14.092A53.179,53.179,0,0,0,729.9,490.1a18.34,18.34,0,0,1,3.628-.857,21.6,21.6,0,0,1,6.728.183l-.5-.484a15.464,15.464,0,0,0,4.644-2.426,20.31,20.31,0,0,0,.936,3.91c.155.447.36.866.541,1.3a14.287,14.287,0,0,1,3,3.866,8.993,8.993,0,0,1,.87,2.467c.438.529.876,1.057,1.354,1.563a47.182,47.182,0,0,0,10.482,8.091,83.09,83.09,0,0,0,11.764,5.638c2.817,1.106,50.945,12.98,53.313,13.17.728.058.73.066.663-.483a97.339,97.339,0,0,0-4.244-18.7C812.717,511.161,798.721,509.856,789.159,508Z" transform="translate(-648.955 -418.301)" fill="#355586"/>
          </g>
          <g id="Group_33044" data-name="Group 33044" transform="translate(51.172)">
            <path id="Path_15624" data-name="Path 15624" d="M711.472,242.762c1.61,5.112,3.414,10.129,5.361,15.066a12.485,12.485,0,0,1,1.967,2.027c.274-.283.545-.559.817-.837-.164-.013-.325-.038-.489-.048a227.046,227.046,0,0,1-9.985-30.813,109.237,109.237,0,0,1-3.291-17.344c-.446-5.476-.042-11.354,2.653-16.571,1.173-2.27,3.295-5.158,5.868-5.137a2.29,2.29,0,0,1,1.049.3c-1.194,1.94-.586,4.775,1.518,5.275a.846.846,0,0,0,.789-.3,4.391,4.391,0,0,0-.364-5.791.722.722,0,0,0-.355-.323c-1.746-1.42-4.15-1.038-6.122.461a16.261,16.261,0,0,0-4.842,7.116,29.833,29.833,0,0,0-1.929,9.126c-.384,6.367.846,12.519,2.172,18.468Q708.48,233.265,711.472,242.762Z" transform="translate(-704.047 -187.379)" fill="#355586"/>
          </g>
        </g>
        <g id="Group_33046" data-name="Group 33046" transform="translate(0 140.049)">
          <path id="Path_15625" data-name="Path 15625" d="M749.693,670.031c-49.6-32.424-101.6-54.839-136.484-67.935-37.8-14.187-64.19-20.786-64.452-20.851l.46-1.855c.263.065,26.762,6.691,64.664,20.917,34.979,13.129,87.116,35.605,136.858,68.124Z" transform="translate(-548.757 -579.39)" fill="#e4e4e4"/>
        </g>
      </g>
      <g id="Group_33048" data-name="Group 33048" transform="translate(61.723 82.802)">
        <circle id="Ellipse_3031" data-name="Ellipse 3031" cx="1.435" cy="1.435" r="1.435" fill="#355586"/>
      </g>
      <g id="Group_33049" data-name="Group 33049" transform="translate(55.33 77.787)">
        <circle id="Ellipse_3032" data-name="Ellipse 3032" cx="1.435" cy="1.435" r="1.435" fill="#355586"/>
      </g>
      <g id="Group_33050" data-name="Group 33050" transform="translate(29.199 39.317)">
        <path id="Path_15626" data-name="Path 15626" d="M676.515,297.67a41.6,41.6,0,1,0,36.934,45.788A41.6,41.6,0,0,0,676.515,297.67Zm1.676,58.872a10.075,10.075,0,0,1-13.677,6.41l-21.751-9.478a10.087,10.087,0,0,1-5.614-12.129q1.431-4.849,3.3-9.555a10.086,10.086,0,0,1,11.9-6.086l22.968,5.953a10.075,10.075,0,0,1,6.813,13.48Q679.912,350.752,678.191,356.542Z" transform="translate(-630.488 -297.43)" fill="#edf0f5"/>
      </g>
      <g id="Group_33051" data-name="Group 33051" transform="translate(81.766 83.999)">
        <ellipse id="Ellipse_3033" data-name="Ellipse 3033" cx="12.464" cy="8.589" rx="12.464" ry="8.589" transform="translate(0 22.588) rotate(-64.977)" fill="#fff"/>
      </g>
      <g id="Group_33052" data-name="Group 33052" transform="translate(84.855 85.36)">
        <ellipse id="Ellipse_3034" data-name="Ellipse 3034" cx="12.26" cy="7.182" rx="12.26" ry="7.182" transform="translate(0 22.219) rotate(-64.977)" fill="#dce2ed"/>
      </g>
      <g id="Group_33053" data-name="Group 33053" transform="translate(36.919 68.509)">
        <path id="Path_15627" data-name="Path 15627" d="M655.637,387.535a10.771,10.771,0,0,1,12.706-6.5l23.889,6.192a9.333,9.333,0,0,0-4.043-2.215L666.7,379.444a9.436,9.436,0,0,0-11.132,5.693q-1.744,4.4-3.085,8.939a9.511,9.511,0,0,0-.346,3.584Q653.661,392.521,655.637,387.535Z" transform="translate(-652.098 -379.142)" fill="#edf0f5"/>
      </g>
    </g>
    <g id="Group_33055" data-name="Group 33055" transform="translate(493.235 226.637)">
      <circle id="Ellipse_3035" data-name="Ellipse 3035" cx="4.644" cy="4.644" r="4.644" fill="#f8f8f8"/>
    </g>
    <g id="Group_33059" data-name="Group 33059" transform="translate(408.359 156.083)">
      <g id="Group_33056" data-name="Group 33056" transform="translate(0 0)">
        <path id="Path_15628" data-name="Path 15628" d="M1068.939,243.176c-4.7,3.793-9.51,7.448-14.489,10.868-4.966,3.435-10.047,6.718-15.326,9.668a105.7,105.7,0,0,1-16.434,7.725,41.111,41.111,0,0,1-8.914,2.16,16,16,0,0,1-4.709-.133,7.436,7.436,0,0,1-4.335-2.359,7.528,7.528,0,0,1-1.533-4.737,16.268,16.268,0,0,1,.735-4.715,41.617,41.617,0,0,1,3.776-8.464,101.679,101.679,0,0,1,10.677-14.869,208.333,208.333,0,0,1,56.5-45.584,101.036,101.036,0,0,1,16.792-7.292,41.625,41.625,0,0,1,9.074-1.9,16.283,16.283,0,0,1,4.766.28,7.537,7.537,0,0,1,4.308,2.5,7.442,7.442,0,0,1,1.389,4.741,16,16,0,0,1-.867,4.632,41.116,41.116,0,0,1-4,8.256,105.523,105.523,0,0,1-11.031,14.426c-4,4.535-8.284,8.807-12.694,12.932C1078.23,235.458,1073.64,239.388,1068.939,243.176Zm0,0a198.252,198.252,0,0,0,26.051-25.08,99.839,99.839,0,0,0,10.513-14.641,40.018,40.018,0,0,0,3.627-8.13,14.684,14.684,0,0,0,.665-4.258,5.147,5.147,0,0,0-4.635-5.565,14.549,14.549,0,0,0-4.246-.1,39.741,39.741,0,0,0-8.555,2.087,104.634,104.634,0,0,0-16.175,7.613c-5.225,2.919-10.263,6.179-15.195,9.586s-9.721,7.029-14.392,10.793-9.232,7.669-13.6,11.78c-4.381,4.092-8.627,8.332-12.588,12.82a103.885,103.885,0,0,0-10.866,14.2,39.716,39.716,0,0,0-3.851,7.921,14.568,14.568,0,0,0-.8,4.175,5.154,5.154,0,0,0,4.465,5.714,14.692,14.692,0,0,0,4.3.251,40.057,40.057,0,0,0,8.715-1.826,99.635,99.635,0,0,0,16.533-7.179A198.378,198.378,0,0,0,1068.939,243.176Z" transform="translate(-1003.2 -183.487)" fill="#d9d9d9"/>
      </g>
      <g id="Group_33057" data-name="Group 33057" transform="translate(13.158 3.172)">
        <circle id="Ellipse_3036" data-name="Ellipse 3036" cx="37.482" cy="37.482" r="37.482" fill="#f8f8f8"/>
      </g>
      <g id="Group_33058" data-name="Group 33058" transform="translate(0.608 0.529)">
        <path id="Path_15629" data-name="Path 15629" d="M1006.431,271.57a6.83,6.83,0,0,1-1.523-4.247,15.632,15.632,0,0,1,.589-4.571,40.223,40.223,0,0,1,3.568-8.454,96.9,96.9,0,0,1,10.511-14.941,200.294,200.294,0,0,1,56.467-45.555,96.943,96.943,0,0,1,16.827-7.111,40.283,40.283,0,0,1,9.019-1.7,15.648,15.648,0,0,1,4.593.393,6.829,6.829,0,0,1,3.829,2.389,6.6,6.6,0,0,0-3.928-1.927,15.159,15.159,0,0,0-4.42.009,41.118,41.118,0,0,0-8.609,2.29,109.6,109.6,0,0,0-16.139,7.793c-5.182,3-10.25,6.216-15.147,9.678-4.928,3.416-9.714,7.041-14.378,10.814q-7.016,5.634-13.615,11.761c-4.418,4.056-8.633,8.327-12.665,12.756a109.58,109.58,0,0,0-11.032,14.126,41.167,41.167,0,0,0-4.058,7.931,15.168,15.168,0,0,0-.943,4.319A6.6,6.6,0,0,0,1006.431,271.57Z" transform="translate(-1004.901 -184.969)" fill="#d9d9d9"/>
      </g>
    </g>
    <g id="Group_33060" data-name="Group 33060" transform="translate(276.722 219.23)">
      <path id="Path_15630" data-name="Path 15630" d="M660.044,412.024a36.262,36.262,0,0,1-23.028-28.086,37.922,37.922,0,0,1,3.631-23.694,37.233,37.233,0,0,0,42.021,55.792,1.246,1.246,0,0,0-.644-2.407A38,38,0,0,1,660.044,412.024Z" transform="translate(-634.733 -360.244)" fill="#dde3ee"/>
    </g>
    <g id="Group_33061" data-name="Group 33061" transform="translate(428.843 331.461)">
      <path id="Path_15631" data-name="Path 15631" d="M1061.6,674.389q-.551,3.382-1.061,6.77.183,1.385.372,2.769l1.371.341c0-.105-.006-.21-.011-.315C1062.145,680.758,1061.885,677.572,1061.6,674.389Z" transform="translate(-1060.534 -674.389)" fill="#355586"/>
    </g>
    <g id="Group_33062" data-name="Group 33062" transform="translate(377.382 291.851)">
      <path id="Path_15632" data-name="Path 15632" d="M918.4,586.364c1.1-7.3,2.394-14.6,2.935-21.942a19.974,19.974,0,0,0-1.36,1.625,22.333,22.333,0,0,0-.948-2.532,12.351,12.351,0,0,0-2.07,4.735c-1.019,4.873-.148,9.977.528,14.835a1.792,1.792,0,0,1-.1.911A22.993,22.993,0,0,0,918.4,586.364Z" transform="translate(-916.489 -563.515)" fill="#355586"/>
    </g>
    <g id="Group_33063" data-name="Group 33063" transform="translate(437.261 337.902)">
      <path id="Path_15633" data-name="Path 15633" d="M1084.1,692.416q.114,2.57.225,5.139l.523.128Q1084.461,695.051,1084.1,692.416Z" transform="translate(-1084.098 -692.416)" fill="#355586"/>
    </g>
    <g id="Group_33064" data-name="Group 33064" transform="translate(453.995 326.159)">
      <path id="Path_15634" data-name="Path 15634" d="M1134.756,668.761c-.73-2.817-1.67-5.941-2.878-9.213q-.043.719-.085,1.437c-.367,6.252-.57,12.513-.828,18.77q-.013.319-.027.637c2.908.674,4.892,1.106,5.444,1.173C1135.759,677.31,1135.238,673.038,1134.756,668.761Z" transform="translate(-1130.938 -659.548)" fill="#355586"/>
    </g>
    <g id="Group_33069" data-name="Group 33069" transform="translate(77.727 346.531)">
      <g id="Group_33065" data-name="Group 33065" transform="translate(71.584 84.787)">
        <path id="Path_15635" data-name="Path 15635" d="M282.044,955.254c-.78-2.472-4.624-1.263-3.842,1.213S282.826,957.73,282.044,955.254Z" transform="translate(-278.098 -953.898)" fill="#f6f6f6"/>
      </g>
      <g id="Group_33066" data-name="Group 33066" transform="translate(72.877 109.59)">
        <path id="Path_15636" data-name="Path 15636" d="M285.663,1024.682c-.78-2.472-4.624-1.264-3.842,1.212S286.445,1027.158,285.663,1024.682Z" transform="translate(-281.717 -1023.325)" fill="#f6f6f6"/>
      </g>
      <g id="Group_33067" data-name="Group 33067" transform="translate(14.21 9.521)">
        <path id="Path_15637" data-name="Path 15637" d="M121.449,744.577c-.78-2.472-4.623-1.263-3.842,1.213S122.231,747.053,121.449,744.577Z" transform="translate(-117.503 -743.221)" fill="#f6f6f6"/>
      </g>
      <g id="Group_33068" data-name="Group 33068" transform="translate(0 0)">
        <path id="Path_15638" data-name="Path 15638" d="M81.673,717.927c-.781-2.472-4.624-1.263-3.842,1.213S82.455,720.4,81.673,717.927Z" transform="translate(-77.727 -716.571)" fill="#f6f6f6"/>
      </g>
    </g>
    <g id="Group_33070" data-name="Group 33070" transform="translate(519.22 401.413)">
      <circle id="Ellipse_3037" data-name="Ellipse 3037" cx="18.007" cy="18.007" r="18.007" fill="#f8f8f8"/>
    </g>
    <g id="Group_33071" data-name="Group 33071" transform="translate(529.938 383.55)">
      <circle id="Ellipse_3038" data-name="Ellipse 3038" cx="5.446" cy="5.446" r="5.446" transform="translate(0 0)" fill="#f8f8f8"/>
    </g>
    <g id="Group_33072" data-name="Group 33072" transform="translate(516.78 397.843)">
      <circle id="Ellipse_3039" data-name="Ellipse 3039" cx="2.737" cy="2.737" r="2.737" transform="translate(0 0)" fill="#f8f8f8"/>
    </g>
  </g>
</svg>
