<svg xmlns="http://www.w3.org/2000/svg" width="34.5" height="33" viewBox="0 0 34.5 33">
  <g id="W" transform="translate(-308 -1219)">
    <path id="Path_2989" data-name="Path 2989" d="M552.76,951.176a16.294,16.294,0,0,0-32.21-1.75c-.987,4.916-2.214,19.807-2.214,19.807s14.811.282,19.779-.194A16.348,16.348,0,0,0,552.76,951.176Z" transform="translate(-210.336 282.685)" fill="#b7b7b7"/>
    <path id="Path_2991" data-name="Path 2991" d="M695.462,375.73a13.5,13.5,0,1,1-18.438-4.941h0A13.5,13.5,0,0,1,695.462,375.73Z" transform="translate(-357.773 853.021)" fill="#fff"/>
    <path id="Path_5834" data-name="Path 5834" d="M10.808,17.38,9.28,9.92a1.546,1.546,0,0,0-1.206-1.2L.622,7.2C-.34,7-.139,5.576.9,5.234L16.6.056A1.06,1.06,0,0,1,17.944,1.4l-5.17,15.7C12.433,18.139,11,18.339,10.808,17.38Z" transform="translate(328.25 1248.228) rotate(-135)" fill="#b7b7b7"/>
  </g>
</svg>
