<svg xmlns="http://www.w3.org/2000/svg" width="22" height="22" viewBox="0 0 22 22">
  <g id="Cancel" transform="translate(0 -0.001)" opacity="0.4">
    <path id="Path_7153" data-name="Path 7153" d="M306.163,385.663a11,11,0,1,0,11,11A11,11,0,0,0,306.163,385.663Zm5.034,15.864-.169.169a1,1,0,0,1-1.414,0l-3.45-3.45-3.366,3.365a1.119,1.119,0,0,1-1.583-1.583l3.365-3.365-3.45-3.45a1,1,0,0,1,0-1.414l.169-.169h0a1,1,0,0,1,1.414,0l3.45,3.45,3.365-3.365a1.119,1.119,0,1,1,1.583,1.583l-3.366,3.365,3.45,3.45A1,1,0,0,1,311.2,401.527Z" transform="translate(-295.163 -385.662)" fill="#919191"/>
  </g>
</svg>
