<svg xmlns="http://www.w3.org/2000/svg" width="22" height="22" viewBox="0 0 22 22">
  <g id="Save" transform="translate(0 0.001)" opacity="0.4">
    <path id="Path_7164" data-name="Path 7164" d="M632.983,379.267a11,11,0,1,0,11,11A11,11,0,0,0,632.983,379.267Zm6.414,7.611-8.313,8.313a1.1,1.1,0,0,1-.644.3,1,1,0,0,1-1.092-.215l-2.826-2.826a1,1,0,0,1,0-1.414l.169-.169a1,1,0,0,1,1.414,0l2.068,2.068,7.641-7.64h0a1.118,1.118,0,0,1,1.582,0,.021.021,0,0,1,.022.006A1.112,1.112,0,0,1,639.4,386.878Z" transform="translate(-621.983 -379.268)" fill="#919191"/>
  </g>
</svg>
