<svg xmlns="http://www.w3.org/2000/svg" width="36" height="36" viewBox="0 0 36 36">
  <g id="Group_40085" data-name="Group 40085" transform="translate(-203.774 -233.925)">
    <path id="Path_26490" data-name="Path 26490" d="M0,0H36V36H0Z" transform="translate(203.774 233.925)" fill="#dadada" opacity="0"/>
    <g id="Group_14443" data-name="Group 14443">
      <path id="Path_7966" data-name="Path 7966" d="M221.774,235.925a16,16,0,1,0,16,16A16,16,0,0,0,221.774,235.925Zm8.338,9.606-5.537,16.818c-.366,1.109-1.9,1.323-2.107.3l-1.636-7.99a1.655,1.655,0,0,0-1.292-1.29l-7.98-1.624c-1.031-.212-.815-1.738.3-2.1l16.816-5.542a1.135,1.135,0,0,1,1.44,1.438Z" fill="#dadada"/>
    </g>
  </g>
</svg>
