<svg xmlns="http://www.w3.org/2000/svg" width="36" height="36" viewBox="0 0 36 36">
  <g id="Group_40084" data-name="Group 40084" transform="translate(-153.774 -233.925)">
    <path id="Path_26492" data-name="Path 26492" d="M0,0H36V36H0Z" transform="translate(153.774 233.925)" fill="#dadada" opacity="0"/>
    <g id="Chat">
      <path id="Subtraction_84" data-name="Subtraction 84" d="M171.886,267.923h-.2a15.406,15.406,0,0,1-5.259-.925l-8.549.484a1.053,1.053,0,0,1-.149.011.858.858,0,0,1-.349-.073.869.869,0,0,1-.459-1.126l.008-.019,2.331-4.4a15.938,15.938,0,0,1-3.487-9.925,16.235,16.235,0,0,1,4.714-11.341,15.655,15.655,0,0,1,11.177-4.681h.313a15.556,15.556,0,0,1,11.124,4.666,16.144,16.144,0,0,1,4.675,11.3v.011a16.238,16.238,0,0,1-4.715,11.341A15.649,15.649,0,0,1,171.886,267.923Zm-7.222-12.158a1.778,1.778,0,0,0,0,3.556h15.11a1.778,1.778,0,1,0,0-3.556Zm0-5.331a1.778,1.778,0,0,0,0,3.556h8a1.778,1.778,0,0,0,0-3.556Zm0-5.335a1.779,1.779,0,0,0,0,3.557h15.11a1.779,1.779,0,1,0,0-3.557Z" fill="#dadada"/>
    </g>
  </g>
</svg>
