<svg xmlns="http://www.w3.org/2000/svg" width="36" height="36" viewBox="0 0 36 36">
  <g id="Group_40080" data-name="Group 40080" transform="translate(-403.772 -233.936)">
    <path id="Path_26495" data-name="Path 26495" d="M0,0H36V36H0Z" transform="translate(403.772 233.936)" fill="#dadada" opacity="0"/>
    <g id="Info_Menu" data-name="Info Menu">
      <path id="Path_148" data-name="Path 148" d="M421.772,235.936a16,16,0,0,0,0,32h0a16,16,0,0,0,16-16h0a16,16,0,0,0-16-16Zm2.476,25.1a2.477,2.477,0,1,1-4.953.1V250.9a2.477,2.477,0,0,1,4.953,0Zm-2.476-14.79a2.833,2.833,0,0,1-2.833-2.833h0a2.832,2.832,0,0,1,2.831-2.833h0a2.833,2.833,0,0,1,2.833,2.831h0a2.832,2.832,0,0,1-2.831,2.833h0Z" fill="#dadada"/>
    </g>
  </g>
</svg>
