<svg xmlns="http://www.w3.org/2000/svg" width="36" height="36" viewBox="0 0 36 36">
  <g id="Group_40087" data-name="Group 40087" transform="translate(-253.81 -233.925)">
    <path id="Path_26489" data-name="Path 26489" d="M0,0H36V36H0Z" transform="translate(253.81 233.925)" fill="#dadada" opacity="0"/>
    <path id="Path_24329" data-name="Path 24329" d="M271.81,234.927a16,16,0,0,0-16,16,14.714,14.714,0,0,0,.13,2l.09.57a5.6,5.6,0,0,0,.12.56l.09.42.03.12c1.29,4.81,5.07,8.36,8.53,10.71a34.026,34.026,0,0,0,6.72,3.55.657.657,0,0,0,.58,0,34.913,34.913,0,0,0,6.73-3.55c3.85-2.63,8.08-6.73,8.86-12.38a16.527,16.527,0,0,0,.12-2A16,16,0,0,0,271.81,234.927Zm0,24.99a9,9,0,1,1,9-9A8.994,8.994,0,0,1,271.81,259.917Z" fill="#dadada"/>
  </g>
</svg>
