<svg xmlns="http://www.w3.org/2000/svg" width="36" height="36" viewBox="0 0 36 36">
  <g id="Group_40082" data-name="Group 40082" transform="translate(-353.773 -233.936)">
    <path id="Path_26494" data-name="Path 26494" d="M0,0H36V36H0Z" transform="translate(353.773 233.936)" fill="#dadada" opacity="0"/>
    <g id="Add">
      <g id="Icon">
        <path id="Path_7312" data-name="Path 7312" d="M380.94,250.5a2.286,2.286,0,0,1,.3.63A1.832,1.832,0,0,0,380.94,250.5Zm-1.99-1.07v.01a2.352,2.352,0,0,1,.54.06,1.882,1.882,0,0,0-.53-.07Zm-9.11-6.37a1.29,1.29,0,0,1,.16-.17h-.01A1.218,1.218,0,0,0,369.84,243.06Zm-6.74,6.8a2.359,2.359,0,0,1,1.34-.41h4.85v-.01h-4.85A2.225,2.225,0,0,0,363.1,249.86Z" fill="#dadada"/>
        <path id="Path_24322" data-name="Path 24322" d="M371.77,235.94a16,16,0,1,0,16,16A16,16,0,0,0,371.77,235.94Zm9.58,15.9a2.345,2.345,0,0,1-.11.71,2.046,2.046,0,0,1-.44.82c-.05.06-.1.11-.15.17a2.362,2.362,0,0,1-1.7.71H374.1v4.84a2.362,2.362,0,0,1-.71,1.7v.01a2.362,2.362,0,0,1-1.7.71,2.309,2.309,0,0,1-1.69-.72,2.362,2.362,0,0,1-.71-1.7v-4.84h-4.85a2.362,2.362,0,0,1-1.7-.71l-.15-.17a2.047,2.047,0,0,1-.44-.82l-.11-.71v-.01a2.351,2.351,0,0,1,.41-1.33,3.167,3.167,0,0,1,.29-.35,1.218,1.218,0,0,1,.17-.15,1.329,1.329,0,0,1,.19-.14,2.225,2.225,0,0,1,1.34-.42h4.85v-4.85a2.384,2.384,0,0,1,.55-1.53,1.218,1.218,0,0,1,.15-.17H370a2.4,2.4,0,0,1,4.1,1.7v4.85h4.85v-.01h.01a1.882,1.882,0,0,1,.53.07c.09.02.18.05.26.07a1.6,1.6,0,0,1,.23.1h.01c.08.04.15.08.22.12a2.641,2.641,0,0,1,.41.32,1.616,1.616,0,0,1,.18.19,2.421,2.421,0,0,1,.14.2,1.832,1.832,0,0,1,.3.63,2.265,2.265,0,0,1,.11.69Z" fill="#dadada"/>
        <path id="Path_24323" data-name="Path 24323" d="M369.29,249.44v.01h-4.85a2.359,2.359,0,0,0-1.34.41,2.225,2.225,0,0,1,1.34-.42Z" fill="#dadada"/>
        <path id="Path_24324" data-name="Path 24324" d="M370,242.89a1.29,1.29,0,0,0-.16.17,1.218,1.218,0,0,1,.15-.17Z" fill="#dadada"/>
        <path id="Path_24325" data-name="Path 24325" d="M379.49,249.5a2.352,2.352,0,0,0-.54-.06v-.01h.01A1.882,1.882,0,0,1,379.49,249.5Z" fill="#dadada"/>
        <path id="Path_24326" data-name="Path 24326" d="M381.24,251.13a2.286,2.286,0,0,0-.3-.63A1.832,1.832,0,0,1,381.24,251.13Z" fill="#dadada"/>
      </g>
    </g>
  </g>
</svg>
