<svg xmlns="http://www.w3.org/2000/svg" width="36" height="36" viewBox="0 0 36 36">
  <g id="Group_40081" data-name="Group 40081" transform="translate(-453.77 -233.936)">
    <path id="Path_26496" data-name="Path 26496" d="M0,0H36V36H0Z" transform="translate(453.77 233.936)" fill="#dadada" opacity="0"/>
    <path id="Subtraction_36" data-name="Subtraction 36" d="M471.77,267.936a16,16,0,1,1,11.315-4.688A16,16,0,0,1,471.77,267.936Zm-2.5-8.5h0a2.5,2.5,0,0,0,5,0Zm2.5-17.5a1.247,1.247,0,0,0-1.247,1.248V244a6.166,6.166,0,0,0-5,6.059c0,3.75-1.265,5.078-2.022,5.871-.049.051-.1.1-.147.154a1.212,1.212,0,0,0-.336.85,1.262,1.262,0,0,0,1.252,1.25h14.992a1.252,1.252,0,0,0,1.252-1.25,1.212,1.212,0,0,0-.335-.85l-.032-.033-.111-.117c-.757-.795-2.022-2.125-2.022-5.875a6.164,6.164,0,0,0-5-6.057v-.818A1.25,1.25,0,0,0,471.77,241.936Z" fill="#dadada"/>
  </g>
</svg>
