<svg xmlns="http://www.w3.org/2000/svg" width="36" height="36" viewBox="0 0 36 36">
  <g id="Group_40083" data-name="Group 40083" transform="translate(-103.77 -233.925)">
    <path id="Path_26491" data-name="Path 26491" d="M0,0H36V36H0Z" transform="translate(103.77 233.925)" fill="#dadada" opacity="0"/>
    <g id="Search">
      <g id="Group_2559" data-name="Group 2559">
        <path id="Path_24327" data-name="Path 24327" d="M125.92,250.495a5.679,5.679,0,0,1-1.75,4.01,5.276,5.276,0,0,1-3.69,1.54h-.16a.341.341,0,0,1-.1.01,5.317,5.317,0,0,1-3.74-1.55,5.7,5.7,0,0,1-1.75-4.01,5.613,5.613,0,0,1,1.68-3.97,5.55,5.55,0,0,1,3.93-1.65h.03A5.656,5.656,0,0,1,125.92,250.495Z" fill="#dadada"/>
        <path id="Path_24328" data-name="Path 24328" d="M121.77,235.925a15.995,15.995,0,1,0,16,16A15.981,15.981,0,0,0,121.77,235.925Zm9.85,24.8a1.362,1.362,0,0,1-.99,1.05l-.02.01-.64-.02a1.725,1.725,0,0,1-.71-.48c-.64-.63-1.28-1.28-1.93-1.92l-1.89-1.89a.448.448,0,0,0-.63-.08,7.814,7.814,0,0,1-3.44,1.27,8.225,8.225,0,0,1-8.27-4.2,8.365,8.365,0,0,1-1.02-4.41,8.243,8.243,0,0,1,2.01-4.99,8.249,8.249,0,0,1,13.18,9.85.486.486,0,0,0,.06.68l2.17,2.16,1.67,1.67A1.341,1.341,0,0,1,131.62,260.725Z" fill="#dadada"/>
      </g>
    </g>
  </g>
</svg>
