<svg xmlns="http://www.w3.org/2000/svg" width="36" height="36" viewBox="0 0 36 36">
  <g id="Group_40086" data-name="Group 40086" transform="translate(-503.775 -233.936)">
    <path id="Path_26497" data-name="Path 26497" d="M0,0H36V36H0Z" transform="translate(503.775 233.936)" fill="#dadada" opacity="0"/>
    <g id="Settings">
      <g id="Group_2554" data-name="Group 2554">
        <path id="Path_15" data-name="Path 15" d="M510.708,238.967l-2,2.01a1.919,1.919,0,0,0,.012,2.711l1.155,1.145a13.766,13.766,0,0,0-1.568,3.825l-1.627,0a1.924,1.924,0,0,0-1.909,1.924l.011,2.833a1.917,1.917,0,0,0,1.923,1.907l1.628-.007a13.735,13.735,0,0,0,1.6,3.818l-1.146,1.154A1.919,1.919,0,0,0,508.8,263L510.811,265a1.924,1.924,0,0,0,2.711-.01l1.146-1.156a13.765,13.765,0,0,0,3.825,1.568l.006,1.627a1.919,1.919,0,0,0,1.924,1.909l2.833-.012A1.918,1.918,0,0,0,525.165,267l-.006-1.627a13.785,13.785,0,0,0,3.817-1.6l1.155,1.146a1.919,1.919,0,0,0,2.71-.012l1.995-2.011a1.918,1.918,0,0,0-.011-2.709l-1.155-1.145a13.807,13.807,0,0,0,1.568-3.832l1.628,0a1.923,1.923,0,0,0,1.909-1.923l-.011-2.833a1.919,1.919,0,0,0-1.924-1.908l-1.627.006a13.789,13.789,0,0,0-1.6-3.817l1.145-1.154a1.918,1.918,0,0,0-.01-2.712l-2.011-1.993a1.919,1.919,0,0,0-2.711.009l-1.145,1.155a13.771,13.771,0,0,0-3.826-1.567l-.006-1.626a1.918,1.918,0,0,0-1.923-1.909l-2.834.012a1.918,1.918,0,0,0-1.909,1.923l.006,1.627a13.78,13.78,0,0,0-3.816,1.6l-1.156-1.145A1.918,1.918,0,0,0,510.708,238.967Zm4.593,6.551a9.123,9.123,0,1,1,.052,12.9h0a9.12,9.12,0,0,1-.051-12.9Z" fill="#dadada"/>
        <path id="Ellipse_1" data-name="Ellipse 1" d="M5.278,0A5.278,5.278,0,1,1,0,5.278,5.278,5.278,0,0,1,5.278,0Z" transform="translate(516.5 246.664)" fill="#dadada"/>
      </g>
    </g>
  </g>
</svg>
