<svg xmlns="http://www.w3.org/2000/svg" width="15" height="15" viewBox="0 0 15 15">
  <path id="Path_7793" data-name="Path 7793" d="M-22.539,713.79a7.5,7.5,0,0,0-7.5,7.5,7.5,7.5,0,0,0,7.5,7.5,7.5,7.5,0,0,0,7.5-7.5A7.5,7.5,0,0,0-22.539,713.79Zm-.575,2.443a.574.574,0,0,1,.575-.574.574.574,0,0,1,.574.574v3.814a.574.574,0,0,1-.574.575.575.575,0,0,1-.575-.575Zm.575,10.094a5.048,5.048,0,0,1-5.042-5.042,5.047,5.047,0,0,1,2.6-4.412.574.574,0,0,1,.781.223.574.574,0,0,1-.223.781,3.9,3.9,0,0,0-2.007,3.407,3.9,3.9,0,0,0,3.893,3.893,3.9,3.9,0,0,0,3.892-3.893,3.9,3.9,0,0,0-2.007-3.407.574.574,0,0,1-.223-.781.574.574,0,0,1,.781-.223,5.048,5.048,0,0,1,2.6,4.412A5.047,5.047,0,0,1-22.539,726.328Z" transform="translate(30.039 -713.79)" fill="#6c6c6c" opacity="0.7"/>
</svg>
