<svg xmlns="http://www.w3.org/2000/svg" width="18" height="17.962" viewBox="0 0 18 17.962"><defs><style>.a{fill:#aaa;}</style></defs><g transform="translate(-54.866 -44.586)"><path class="a" d="M1,0H3.669a1,1,0,0,1,1,1V3.669a1,1,0,0,1-1,1H1a1,1,0,0,1-1-1V1A1,1,0,0,1,1,0Z" transform="translate(54.866 44.586)"/><path class="a" d="M1,0H3.669a1,1,0,0,1,1,1V3.669a1,1,0,0,1-1,1H1a1,1,0,0,1-1-1V1A1,1,0,0,1,1,0Z" transform="translate(61.531 44.586)"/><path class="a" d="M1,0H3.669a1,1,0,0,1,1,1V3.669a1,1,0,0,1-1,1H1a1,1,0,0,1-1-1V1A1,1,0,0,1,1,0Z" transform="translate(68.197 44.586)"/><path class="a" d="M1,0H3.669a1,1,0,0,1,1,1V3.669a1,1,0,0,1-1,1H1a1,1,0,0,1-1-1V1A1,1,0,0,1,1,0Z" transform="translate(54.866 51.233)"/><path class="a" d="M1,0H3.669a1,1,0,0,1,1,1V3.669a1,1,0,0,1-1,1H1a1,1,0,0,1-1-1V1A1,1,0,0,1,1,0Z" transform="translate(61.531 51.233)"/><path class="a" d="M1,0H3.669a1,1,0,0,1,1,1V3.669a1,1,0,0,1-1,1H1a1,1,0,0,1-1-1V1A1,1,0,0,1,1,0Z" transform="translate(68.197 51.233)"/><path class="a" d="M1,0H3.669a1,1,0,0,1,1,1V3.669a1,1,0,0,1-1,1H1a1,1,0,0,1-1-1V1A1,1,0,0,1,1,0Z" transform="translate(54.866 57.879)"/><path class="a" d="M1,0H3.669a1,1,0,0,1,1,1V3.669a1,1,0,0,1-1,1H1a1,1,0,0,1-1-1V1A1,1,0,0,1,1,0Z" transform="translate(61.531 57.879)"/><path class="a" d="M1,0H3.669a1,1,0,0,1,1,1V3.669a1,1,0,0,1-1,1H1a1,1,0,0,1-1-1V1A1,1,0,0,1,1,0Z" transform="translate(68.197 57.879)"/></g></svg>