<svg xmlns="http://www.w3.org/2000/svg" width="50" height="20" viewBox="0 0 50 20"><g transform="translate(-597 -258)"><path d="M287,410.5v20h-1.5A2.5,2.5,0,0,1,283,428v-5a2.5,2.5,0,0,0,0-5v-5a2.5,2.5,0,0,1,2.5-2.5Z" transform="translate(314 -152.5)" fill="#5673aa" opacity="0.7"/><path d="M283,410.5v20h1.5A2.5,2.5,0,0,0,287,428v-5a2.5,2.5,0,0,1,0-5v-5a2.5,2.5,0,0,0-2.5-2.5Z" transform="translate(360 -152.5)" fill="#5673aa" opacity="0.7"/><rect width="42" height="20" transform="translate(601 258)" fill="#5673aa" opacity="0.7"/></g></svg>