<svg xmlns="http://www.w3.org/2000/svg" width="18" height="18" viewBox="0 0 18 18">
  <g id="Group_8875" data-name="Group 8875" transform="translate(-53.677 -197.405)">
    <g id="Group_8869" data-name="Group 8869">
      <path id="Rectangle_5063-2" data-name="Rectangle 5063-2" d="M55.177,197.4h5a1.5,1.5,0,0,1,1.5,1.5h0a1.5,1.5,0,0,1-1.5,1.5h-5a1.5,1.5,0,0,1-1.5-1.5h0A1.5,1.5,0,0,1,55.177,197.4Z" fill="#919191"/>
      <path id="Rectangle_5051-2" data-name="Rectangle 5051-2" d="M55.177,202.4h5a1.5,1.5,0,0,1,1.5,1.5h0a1.5,1.5,0,0,1-1.5,1.5h-5a1.5,1.5,0,0,1-1.5-1.5h0A1.5,1.5,0,0,1,55.177,202.4Z" fill="#919191"/>
      <path id="Rectangle_5052-2" data-name="Rectangle 5052-2" d="M55.177,207.4h5a1.5,1.5,0,0,1,1.5,1.5h0a1.5,1.5,0,0,1-1.5,1.5h-5a1.5,1.5,0,0,1-1.5-1.5h0A1.5,1.5,0,0,1,55.177,207.4Z" fill="#919191"/>
      <path id="Rectangle_5075-2" data-name="Rectangle 5075-2" d="M55.177,212.4h5a1.5,1.5,0,0,1,1.5,1.5h0a1.5,1.5,0,0,1-1.5,1.5h-5a1.5,1.5,0,0,1-1.5-1.5h0A1.5,1.5,0,0,1,55.177,212.4Z" fill="#919191"/>
    </g>
    <g id="Group_8870" data-name="Group 8870">
      <path id="Rectangle_5063-3" data-name="Rectangle 5063-3" d="M65.177,197.4h5a1.5,1.5,0,0,1,1.5,1.5h0a1.5,1.5,0,0,1-1.5,1.5h-5a1.5,1.5,0,0,1-1.5-1.5h0A1.5,1.5,0,0,1,65.177,197.4Z" fill="#919191"/>
      <path id="Rectangle_5051-3" data-name="Rectangle 5051-3" d="M65.177,202.4h5a1.5,1.5,0,0,1,1.5,1.5h0a1.5,1.5,0,0,1-1.5,1.5h-5a1.5,1.5,0,0,1-1.5-1.5h0A1.5,1.5,0,0,1,65.177,202.4Z" fill="#919191"/>
      <path id="Rectangle_5052-3" data-name="Rectangle 5052-3" d="M65.177,207.4h5a1.5,1.5,0,0,1,1.5,1.5h0a1.5,1.5,0,0,1-1.5,1.5h-5a1.5,1.5,0,0,1-1.5-1.5h0A1.5,1.5,0,0,1,65.177,207.4Z" fill="#919191"/>
      <path id="Rectangle_5075-3" data-name="Rectangle 5075-3" d="M65.177,212.4h5a1.5,1.5,0,0,1,1.5,1.5h0a1.5,1.5,0,0,1-1.5,1.5h-5a1.5,1.5,0,0,1-1.5-1.5h0A1.5,1.5,0,0,1,65.177,212.4Z" fill="#919191"/>
    </g>
  </g>
</svg>
