<svg xmlns="http://www.w3.org/2000/svg" width="24.002" height="23.999" viewBox="0 0 24.002 23.999"><defs><style>.a{fill:#3d3d3d;}</style></defs><g transform="translate(0.002 0)"><path class="a" d="M7.283,5.2a1.039,1.039,0,0,1-.737-.306l-1.305-1.3v7.147a1.043,1.043,0,0,1-2.085,0V3.516L1.78,4.891A1.043,1.043,0,0,1,.305,3.417L3.418.3A1.039,1.039,0,0,1,4.155,0h.016a1.037,1.037,0,0,1,.737.3L8.02,3.417A1.042,1.042,0,0,1,7.283,5.2Z" transform="translate(8.308 9.799) rotate(45)"/><path class="a" d="M7.283,5.2a1.039,1.039,0,0,1-.737-.306l-1.305-1.3v7.147a1.043,1.043,0,0,1-2.085,0V3.516L1.78,4.891A1.043,1.043,0,0,1,.305,3.417L3.418.3A1.038,1.038,0,0,1,4.155,0h.016a1.037,1.037,0,0,1,.737.3L8.02,3.417A1.042,1.042,0,0,1,7.283,5.2Z" transform="translate(15.69 14.199) rotate(-135)"/></g></svg>