<svg id="Component_3289_10" data-name="Component 3289 – 10" xmlns="http://www.w3.org/2000/svg" width="18" height="18" viewBox="0 0 18 18">
  <path id="Path_5511" data-name="Path 5511" d="M215.625,62.926a2.1,2.1,0,0,1-2.092,2.043h-3.576c.256,1,1.169,1.833,1.169,3.324,0,2.582-1.687,2.863-2.53,2.863-.709,0-1.036-1.381-1.192-2.032a4.261,4.261,0,0,0-.892-2.071c-1.141-1.143-1.74-2.6-3.131-3.977a.421.421,0,0,1-.125-.3V55.262a.422.422,0,0,1,.414-.422,5.517,5.517,0,0,0,1.85-.568,10.093,10.093,0,0,1,4.2-1.116h.1c1.5,0,3.28.014,4,1.046a1.866,1.866,0,0,1,.216,1.569,2.781,2.781,0,0,1,.576,2.628,2.937,2.937,0,0,1,.327,2.794h0A2.554,2.554,0,0,1,215.625,62.926Z" transform="translate(-197.625 -53.156)" fill="#919191"/>
  <rect id="Rectangle_5465" data-name="Rectangle 5465" width="4.506" height="9.425" rx="1" transform="translate(0 1.125)" fill="#919191"/>
</svg>
