<svg xmlns="http://www.w3.org/2000/svg" width="18.004" height="16.4" viewBox="0 0 18.004 16.4">
  <g id="Group_13230" data-name="Group 13230" transform="translate(-99.997 -51.205)">
    <path id="Path_9372" data-name="Path 9372" d="M71.5,28.756a3.576,3.576,0,0,0-3.024-3.6l-.006,0c.395-1.424-1.133-3.2-3.059-2.9a3.017,3.017,0,0,0-1.233.395A4.313,4.313,0,0,0,58.772,21a4.814,4.814,0,0,0-2.292,4.12v.051a3.586,3.586,0,0,0-2.94,4.108,3.549,3.549,0,0,0,3.531,3.037H67.944v0A3.562,3.562,0,0,0,71.5,28.756Z" transform="translate(46.5 30.58)" fill="#dadada"/>
    <g id="Path_7723" data-name="Path 7723" transform="translate(46.5 30.786)" fill="#b7b7b7" stroke-miterlimit="10">
      <path d="M 62.49388122558594 36.11874771118164 C 62.13694000244141 36.11874771118164 61.80102920532227 35.9799690246582 61.54801940917969 35.72797012329102 L 57.88981246948242 32.0517578125 C 57.64773178100586 31.80967903137207 57.51137161254883 31.48571014404297 57.50704956054688 31.14074897766113 C 57.49641036987305 30.41671943664551 58.07807159423828 29.8177490234375 58.8037109375 29.80707931518555 L 58.8088493347168 29.80699920654297 L 58.81399917602539 29.80699920654297 L 60.58300018310547 29.80699920654297 L 60.58300018310547 25.87899971008301 C 60.57872009277344 25.16061973571777 61.16316986083984 24.56929969787598 61.8858528137207 24.56501007080078 L 63.10400009155273 24.56499862670898 L 63.10712051391602 24.56499862670898 L 63.1102294921875 24.56502914428711 C 63.46022033691406 24.56814002990723 63.78792190551758 24.7072696685791 64.03294372558594 24.95677947998047 C 64.27696228027344 25.20527076721191 64.41006469726562 25.53374862670898 64.40800476074219 25.88217163085938 L 64.40800476074219 29.80699920654297 L 66.18299865722656 29.80699920654297 L 66.18740081787109 29.80699920654297 L 66.19180297851562 29.80705833435059 C 66.53458404541016 29.81136894226074 66.85775756835938 29.94695854187012 67.10179138183594 30.1888484954834 L 67.30899810791016 30.39423942565918 L 67.30899810791016 30.45591735839844 C 67.42688751220703 30.65570640563965 67.48975372314453 30.88419151306152 67.48975372314453 31.12249946594238 C 67.48975372314453 31.47478866577148 67.35237884521484 31.80559921264648 67.10294342041016 32.05400085449219 L 63.47840881347656 35.68745803833008 L 63.4781494140625 35.68779754638672 L 63.43997192382812 35.72697067260742 C 63.18733215332031 35.97961044311523 62.85134124755859 36.11874771118164 62.49388122558594 36.11874771118164 Z" stroke="none"/>
      <path d="M 62.49387741088867 35.41875076293945 C 62.65724945068359 35.41875076293945 62.82049942016602 35.35649871826172 62.94499969482422 35.23199844360352 L 62.94800186157227 35.22800064086914 L 66.60900115966797 31.55799865722656 C 66.84999847412109 31.3179988861084 66.84999847412109 30.92700004577637 66.60900115966797 30.68699836730957 L 66.60900115966797 30.68599891662598 C 66.49500274658203 30.57299995422363 66.34200286865234 30.50899887084961 66.18299865722656 30.50699996948242 L 63.70800018310547 30.50699996948242 L 63.70800018310547 25.8799991607666 C 63.71100234985352 25.54299926757812 63.44100189208984 25.26799964904785 63.10400009155273 25.26499938964844 L 61.88999938964844 25.26499938964844 C 61.55300140380859 25.26699829101562 61.28100204467773 25.54199981689453 61.28300094604492 25.87899971008301 L 61.28300094604492 30.50699996948242 L 58.81399917602539 30.50699996948242 C 58.47400283813477 30.51199913024902 58.20199966430664 30.79199981689453 58.20700073242188 31.13199996948242 C 58.20899963378906 31.29199981689453 58.27300262451172 31.44499969482422 58.38600158691406 31.55799865722656 L 62.04199981689453 35.23199844360352 C 62.16699981689453 35.35649871826172 62.33050155639648 35.41875076293945 62.49387741088867 35.41875076293945 M 62.49388122558594 36.81874847412109 C 61.95050048828125 36.81874847412109 61.43915176391602 36.60750961303711 61.05404281616211 36.22393035888672 L 61.04962158203125 36.21952056884766 L 57.39361953735352 32.5455207824707 C 57.02286911010742 32.17477035522461 56.813720703125 31.67812919616699 56.80710983276367 31.14949989318848 C 56.79080963134766 30.04107856750488 57.68184280395508 29.12349891662598 58.79341125488281 29.10714912414551 L 58.81399917602539 29.10699844360352 L 59.88299942016602 29.10699844360352 L 59.88299942016602 25.88311195373535 C 59.87874984741211 24.77654075622559 60.77446365356445 23.87159156799316 61.88169097900391 23.86501884460449 L 61.88999938964844 23.86499977111816 L 63.11646270751953 23.86505889892578 C 63.65346908569336 23.86983871459961 64.15631866455078 24.0833683013916 64.53239440917969 24.4663200378418 C 64.90623474121094 24.84700393676758 65.11044311523438 25.3499813079834 65.10800170898438 25.88350105285645 L 65.10800170898438 29.10699844360352 L 66.20060729980469 29.10710906982422 C 66.72588348388672 29.11371994018555 67.22093200683594 29.32132911682129 67.59458160400391 29.69169998168945 L 68.00900268554688 30.10247993469238 L 68.00900268554688 30.28557395935059 C 68.12742614746094 30.54480361938477 68.18975067138672 30.82876777648926 68.18975067138672 31.12249946594238 C 68.18975067138672 31.66231918334961 67.97920227050781 32.16928100585938 67.59689331054688 32.55001068115234 L 63.93495178222656 36.22195053100586 C 63.55010223388672 36.6068000793457 63.03832244873047 36.81874847412109 62.49388122558594 36.81874847412109 Z" stroke="none" fill="#fff"/>
    </g>
  </g>
</svg>
