<svg xmlns="http://www.w3.org/2000/svg" width="16" height="16" viewBox="0 0 16 16">
  <path id="Path_10809" data-name="Path 10809" d="M290.234,366.223a8,8,0,1,0,8,8A8,8,0,0,0,290.234,366.223Zm2.617,7.563h0l-4.582,4.582-1.947.218a.408.408,0,0,1-.451-.36.381.381,0,0,1,0-.091l.218-1.947,4.582-4.582a.205.205,0,0,1,.29,0h0l1.891,1.891A.205.205,0,0,1,292.851,373.786Zm1.507-1.505-.743.743h0a.205.205,0,0,1-.29,0l-1.891-1.891h0a.205.205,0,0,1,0-.29l.743-.743a.821.821,0,0,1,1.158,0l1.024,1.025v0A.82.82,0,0,1,294.358,372.28Z" transform="translate(-282.234 -366.223)" fill="#919191" opacity="0.7"/>
</svg>
