<svg id="Group_15298" data-name="Group 15298" xmlns="http://www.w3.org/2000/svg" width="12.833" height="14" viewBox="0 0 12.833 14">
  <path id="Subtraction_28" data-name="Subtraction 28" d="M9.967,14h-7.1a1.334,1.334,0,0,1-1.345-1.169L.93,3.386H11.9l-.6,9.445A1.315,1.315,0,0,1,9.967,14ZM12.376,2.627H.457A.457.457,0,0,1,0,2.183v-.87A.448.448,0,0,1,.457.875H3.9l.263-.51A.669.669,0,0,1,4.761,0l.018,0H8.055A.686.686,0,0,1,8.67.365l.272.51h3.434a.443.443,0,0,1,.457.438v.87A.452.452,0,0,1,12.376,2.627Z" fill="#ff5d5d"/>
</svg>
