<svg xmlns="http://www.w3.org/2000/svg" width="18" height="18" viewBox="0 0 18 18">
  <g id="expand" transform="translate(0 -32)">
    <path id="Path_7716" data-name="Path 7716" d="M5.946,32H.964A.962.962,0,0,0,0,32.964v4.982a.482.482,0,0,0,.482.482H2.089a.482.482,0,0,0,.482-.482V34.571H5.946a.482.482,0,0,0,.482-.482V32.482A.482.482,0,0,0,5.946,32ZM17.518,43.571H15.911a.482.482,0,0,0-.482.482v3.375H12.054a.482.482,0,0,0-.482.482v1.607a.482.482,0,0,0,.482.482h4.982A.962.962,0,0,0,18,49.036V44.054a.482.482,0,0,0-.482-.482Z" transform="translate(0)" fill="#dadada"/>
    <path id="Path_7717" data-name="Path 7717" d="M5.946,47.429H2.571V44.054a.482.482,0,0,0-.482-.482H.482A.482.482,0,0,0,0,44.054v4.982A.962.962,0,0,0,.964,50H5.946a.482.482,0,0,0,.482-.482V47.911A.482.482,0,0,0,5.946,47.429ZM17.036,32H12.054a.482.482,0,0,0-.482.482v1.607a.482.482,0,0,0,.482.482h3.375v3.375a.482.482,0,0,0,.482.482h1.607A.482.482,0,0,0,18,37.946V32.964A.962.962,0,0,0,17.036,32Z" transform="translate(0 0)" fill="#dadada"/>
  </g>
</svg>
