<svg id="Component_652_18" data-name="Component 652 – 18" xmlns="http://www.w3.org/2000/svg" width="22" height="22" viewBox="0 0 22 22">
  <g id="Group_3539" data-name="Group 3539" transform="translate(0 0)">
    <g id="Group_3537" data-name="Group 3537" transform="translate(-935.092 -526.877)" opacity="0.7">
      <path id="Path_1879" data-name="Path 1879" d="M944.783,538.688a.973.973,0,0,0-.677-.313,1.006,1.006,0,0,0-.7.255l-6.355,6.354V542.22a.966.966,0,0,0-.25-.654l-.044-.039a.982.982,0,0,0-.69-.288h-.006a.976.976,0,0,0-.967.98l-.005,5.172a.962.962,0,0,0,.289.682.985.985,0,0,0,.7.3h5.169a1,1,0,0,0,.743-.3.976.976,0,0,0-.039-1.377.994.994,0,0,0-.7-.265h-2.894L944.79,540A.978.978,0,0,0,944.783,538.688Z" transform="translate(0 0.5)" fill="#606060"/>
      <path id="Path_1880" data-name="Path 1880" d="M954.882,533.675l.06.052a.978.978,0,0,0,.691.288h.006a.973.973,0,0,0,.967-.979v-5.173a.957.957,0,0,0-.288-.681l-.021-.022a.953.953,0,0,0-.679-.283h-5.17a.974.974,0,1,0,0,1.948h2.888l-6.426,6.427a.974.974,0,0,0,.686,1.641.918.918,0,0,0,.7-.268l6.354-6.355v2.765A.97.97,0,0,0,954.882,533.675Z" transform="translate(0.486)" fill="#606060"/>
    </g>
  </g>
</svg>
