<svg xmlns="http://www.w3.org/2000/svg" width="34" height="18" viewBox="0 0 34 18"><defs><style>.a{fill:#b7b7b7;}</style></defs><g transform="translate(-686.526 -375.706)"><path class="a" d="M718.526,375.706h-30a2,2,0,0,0-2,2v14a2,2,0,0,0,2,2h30a2,2,0,0,0,2-2v-14A2,2,0,0,0,718.526,375.706Zm-22.31,10.67H695v1.83h-1.98v-7h3.2c1.91,0,3.11,1,3.11,2.59S698.126,386.376,696.216,386.376Zm7.38,1.83h-3.31v-7h3.31c2.32,0,3.91,1.35,3.91,3.5S705.916,388.206,703.6,388.206Zm10.44-5.47h-3.51v1.54h3.09v1.53h-3.09v2.4h-1.98v-7h5.49Z"/><path class="a" d="M703.516,382.786h-1.25v3.84h1.25a1.772,1.772,0,0,0,.282.005,1.819,1.819,0,0,0,1.708-1.925,1.748,1.748,0,0,0-.005-.281A1.82,1.82,0,0,0,703.516,382.786Z"/><path class="a" d="M696.1,382.766H695v2.05h1.1c.82,0,1.23-.37,1.23-1.02S696.916,382.766,696.1,382.766Z"/></g></svg>