<svg xmlns="http://www.w3.org/2000/svg" width="34" height="18" viewBox="0 0 34 18"><defs><style>.a{fill:#b7b7b7;}</style></defs><path class="a" d="M678.291,375.706h-30a2,2,0,0,0-2,2v14a2,2,0,0,0,2,2h30a2,2,0,0,0,2-2v-14A2,2,0,0,0,678.291,375.706Zm-19.62,12.5-1.45-2.17-1.43,2.17h-2.26l2.55-3.54-2.44-3.46h2.23l1.4,2.02,1.38-2.02h2.14l-2.44,3.38,2.6,3.62Zm8.06,0h-5.32v-7h1.98v5.43h3.34Zm3.22.14a5.509,5.509,0,0,1-2.95-.77l.65-1.46a4.411,4.411,0,0,0,2.31.69c.82,0,1.14-.23,1.14-.57,0-1.11-3.98-.3-3.98-2.9,0-1.25,1.02-2.27,3.1-2.27a5.238,5.238,0,0,1,2.54.61l-.61,1.47a4.132,4.132,0,0,0-1.94-.54c-.83,0-1.13.28-1.13.63,0,1.07,3.97.27,3.97,2.85C673.051,387.306,672.031,388.346,669.951,388.346Z" transform="translate(-646.291 -375.706)"/></svg>