<svg xmlns="http://www.w3.org/2000/svg" width="18" height="18" viewBox="0 0 18 18">
  <g id="Group_8641" data-name="Group 8641" transform="translate(7.122 -712.808)">
    <path id="Path_7762" data-name="Path 7762" d="M7.155,727.792a2.142,2.142,0,0,1-1.484.623H5.642a2.163,2.163,0,0,1-2.15-2.137v-1.613H-.753a2.147,2.147,0,0,1-2.141-2.136v-1.49a2.147,2.147,0,0,1,2.146-2.122H3.495v-1.632A2.148,2.148,0,0,1,7.16,715.8l1.717,1.709v-2.7a2,2,0,0,0-2-2h-12a2,2,0,0,0-2,2v14a2,2,0,0,0,2,2h12a2,2,0,0,0,2-2v-2.727Z" fill="#d2d2d1"/>
    <path class="arrow" id="Path_7721" data-name="Path 7721" d="M10.65,721.247l0-.006-4.471-4.452a.753.753,0,0,0-1.063,0h0a.754.754,0,0,0-.218.517v3.009H-.748a.742.742,0,0,0-.749.735v0h0v1.477a.744.744,0,0,0,.748.739H4.889v3.01a.752.752,0,0,0,1.282.521l4.476-4.447a.779.779,0,0,0,.007-1.1Z" fill="#a9a9a9"/>
  </g>
</svg>
