<svg id="Component_651_22" data-name="Component 651 – 22" xmlns="http://www.w3.org/2000/svg" width="21" height="22" viewBox="0 0 21 22">
  <path id="Path_1874" data-name="Path 1874" d="M7,4.775a1.022,1.022,0,0,1-.708-.281L5.036,3.3v9.747a.981.981,0,0,1-1,.958.981.981,0,0,1-1-.958V3.231L1.71,4.495a1.033,1.033,0,0,1-1.417,0,.928.928,0,0,1,0-1.354L3.285.28A1.022,1.022,0,0,1,3.992,0h.015a1.021,1.021,0,0,1,.708.28L7.706,3.14a.928.928,0,0,1,0,1.354A1.023,1.023,0,0,1,7,4.775Z" transform="translate(7 14.9) rotate(-90)" fill="#606060" opacity="0.7"/>
  <g id="Layer_1" data-name="Layer 1" opacity="0.7">
    <path id="Path_1878" data-name="Path 1878" d="M925.8,541.393h-.484a.842.842,0,0,0-.836.845V545.7a.645.645,0,0,1-.641.647H913.549a.644.644,0,0,1-.64-.647V529.355a.646.646,0,0,1,.64-.647h10.285a.645.645,0,0,1,.64.647v3.463a.842.842,0,0,0,.836.845h.484a.841.841,0,0,0,.836-.845v-3.466a2.81,2.81,0,0,0-2.8-2.823h-10.29a2.816,2.816,0,0,0-2.8,2.827V545.7a2.815,2.815,0,0,0,2.8,2.827h10.3a2.811,2.811,0,0,0,2.793-2.827v-3.463A.843.843,0,0,0,925.8,541.393Z" transform="translate(-910.748 -526.528)" fill="#606060"/>
  </g>
</svg>
