<svg id="Component_3288_13" data-name="Component 3288 – 13" xmlns="http://www.w3.org/2000/svg" width="17.997" height="18.002" viewBox="0 0 17.997 18.002">
  <path id="Path_5511-2" data-name="Path 5511-2" d="M203.262,25.658a2.1,2.1,0,0,1,2.091-2.043h3.571c-.256-1-1.169-1.833-1.169-3.324,0-2.582,1.688-2.863,2.531-2.863.709,0,1.035,1.381,1.192,2.032a4.262,4.262,0,0,0,.892,2.071c1.14,1.143,1.739,2.6,3.13,3.977a.421.421,0,0,1,.125.3v7.515a.422.422,0,0,1-.414.422,5.534,5.534,0,0,0-1.849.568,10.043,10.043,0,0,1-4.2,1.116h-.1c-1.5,0-3.279-.014-4-1.046a1.87,1.87,0,0,1-.216-1.569,2.78,2.78,0,0,1-.575-2.628,2.937,2.937,0,0,1-.327-2.794h0A2.553,2.553,0,0,1,203.262,25.658Z" transform="translate(-203.262 -17.428)" fill="#919191"/>
  <rect id="Rectangle_5466" data-name="Rectangle 5466" width="4.506" height="9.426" rx="1" transform="translate(13.491 7.449)" fill="#919191"/>
</svg>
