<svg xmlns="http://www.w3.org/2000/svg" width="30.127" height="34.431" viewBox="0 0 30.127 34.431">
  <g id="Group_6875" data-name="Group 6875" transform="translate(-1160.889 -760.003)">
    <path id="Path_5740" data-name="Path 5740" d="M1175.986,760a10.287,10.287,0,0,1,10.188,10.322v4.741h-5.38v-4.781a4.885,4.885,0,0,0-4.795-4.9h-.032a4.85,4.85,0,0,0-4.857,4.843v5.388a1.608,1.608,0,0,1-1.614,1.605h-2.16a1.61,1.61,0,0,1-1.606-1.614v-5.379A10.233,10.233,0,0,1,1175.986,760Z" fill="#aaa" opacity="0.4" style="isolation: isolate"/>
    <path id="Path_5741" data-name="Path 5741" d="M1187.788,775.066h-23.672a3.228,3.228,0,0,0-3.227,3.228v12.912a3.227,3.227,0,0,0,3.227,3.228h23.672a3.228,3.228,0,0,0,3.228-3.228h0V778.294A3.228,3.228,0,0,0,1187.788,775.066Zm-9.146,11.3a2.69,2.69,0,1,1-5.38,0v-3.228a2.69,2.69,0,1,1,5.38,0Z" fill="#aaa"/>
  </g>
</svg>
