<svg xmlns="http://www.w3.org/2000/svg" xmlns:xlink="http://www.w3.org/1999/xlink" width="64.207" height="65.683" viewBox="0 0 64.207 65.683">
  <defs>
    <linearGradient id="linear-gradient" x1="0.5" x2="0.5" y2="1" gradientUnits="objectBoundingBox">
      <stop offset="0" stop-color="#5673aa"/>
      <stop offset="1" stop-color="#2b3a55"/>
    </linearGradient>
    <linearGradient id="linear-gradient-2" x2="0.146" y2="1.106" xlink:href="#linear-gradient"/>
  </defs>
  <g id="Group_34719" data-name="Group 34719" transform="translate(-241.009 -457.847)">
    <g id="Group_26112" data-name="Group 26112" transform="translate(241.009 457.847)">
      <path id="Path_11665" data-name="Path 11665" d="M2240.5,1196.274a11.89,11.89,0,0,0-16.288-4.325l-37.714,22h24.032l9.613-5.608a6.43,6.43,0,0,1,8.81,2.34l1.888,3.269H2250.7Z" transform="translate(-2186.493 -1148.268)" fill="url(#linear-gradient)"/>
      <path id="Path_11666" data-name="Path 11666" d="M2217.24,1202.139c12.012-7.007,18.074,0,24.1,11.811H2261.2l-10.206-17.677a11.888,11.888,0,0,0-16.286-4.325Z" transform="translate(-2196.992 -1148.268)" fill="#5673aa"/>
      <path id="Path_11667" data-name="Path 11667" d="M2227.927,1156.665c.115-.158.222-.322.329-.486.091-.14.186-.277.271-.419s.172-.314.256-.471a11.739,11.739,0,0,0,.513-1.083c.036-.09.08-.179.114-.269.085-.222.157-.447.228-.673.032-.1.067-.2.1-.3.068-.233.124-.468.177-.705.021-.094.042-.188.06-.282.05-.25.09-.5.124-.751.01-.075.018-.151.026-.226.031-.274.056-.546.068-.823,0-.03,0-.06,0-.09a11.818,11.818,0,0,0-.5-3.849h0a11.814,11.814,0,0,0-1.076-2.507l-9.968-17.267-24.811,42.971h0l-3.105,5.38-1.082,1.874,0,0-3.03,5.247,37.688-21.986c.332-.193.647-.4.952-.62.1-.073.194-.152.293-.226.2-.152.392-.305.578-.467.111-.1.216-.2.324-.3.16-.151.316-.3.468-.463.108-.113.212-.226.314-.343.137-.155.267-.314.4-.475C2227.734,1156.92,2227.834,1156.795,2227.927,1156.665Z" transform="translate(-2186.536 -1126.458)" fill="url(#linear-gradient-2)"/>
    </g>
  </g>
</svg>
