<svg xmlns="http://www.w3.org/2000/svg" width="18" height="18" viewBox="0 0 18 18">
  <g id="Group_8752" data-name="Group 8752" transform="translate(-789.332 -690.83)">
    <path id="Path_5768" data-name="Path 5768" d="M807.3,719.394l-1.47-6.031a.974.974,0,0,0-.945-.747h-3.563c-1.076,1.223-2.226,2.464-2.3,2.547a.927.927,0,0,1-.679.3h0a.927.927,0,0,1-.679-.3c-.077-.083-1.236-1.325-2.318-2.549h-3.569a.974.974,0,0,0-.946.748l-1.47,6.03a.985.985,0,0,0,.179.84.965.965,0,0,0,.766.376h16.052a.964.964,0,0,0,.766-.376A.983.983,0,0,0,807.3,719.394Z" transform="translate(0 -11.781)" fill="#d2d2d1"/>
    <path id="Path_5769" class="pin" data-name="Path 5769" d="M803.087,699.056a3.375,3.375,0,1,1,3.323-3.375A3.349,3.349,0,0,1,803.087,699.056Zm0-8.226a4.815,4.815,0,0,0-4.779,4.851,4.874,4.874,0,0,0,.935,2.883c.69.947,2.709,3.17,3.515,4.049a.455.455,0,0,0,.675,0c.8-.88,2.806-3.1,3.5-4.048a4.874,4.874,0,0,0,.935-2.883A4.815,4.815,0,0,0,803.087,690.83Z" transform="translate(-4.754)" fill="#a9a9a9" style="isolation: isolate"/>
  </g>
</svg>
