<svg xmlns="http://www.w3.org/2000/svg" width="18" height="18" viewBox="0 0 18 18">
  <g id="Group_34341" data-name="Group 34341" transform="translate(-1519 -262)">
    <path id="Path_12736" data-name="Path 12736" d="M2,0H16a2,2,0,0,1,0,4H2A2,2,0,0,1,2,0Z" transform="translate(1519 262)" fill="#dadada"/>
    <path id="Path_12737" data-name="Path 12737" d="M2,0H16a2,2,0,0,1,0,4H2A2,2,0,0,1,2,0Z" transform="translate(1519 269)" fill="#dadada"/>
    <path id="Path_12738" data-name="Path 12738" d="M2,0H16a2,2,0,0,1,0,4H2A2,2,0,0,1,2,0Z" transform="translate(1519 276)" fill="#dadada"/>
  </g>
</svg>
