<svg xmlns="http://www.w3.org/2000/svg" width="13.2" height="13.198" viewBox="0 0 13.2 13.198">
  <g id="owner" transform="translate(0.6 0.601)">
    <g id="check-mark-badge" transform="translate(0 -0.001)">
      <g id="Path_1824" data-name="Path 1824" transform="translate(-30 561.901)" fill="#889cc3">
        <path d="M 34.61554718017578 -549.6031494140625 C 34.48049545288086 -549.6031494140625 34.46946716308594 -549.6031494140625 33.77839660644531 -550.2429809570312 L 33.23593521118164 -550.7512817382812 L 32.51890563964844 -550.9175415039062 C 31.60051536560059 -551.1273803710938 31.59758567810059 -551.13232421875 31.52242660522461 -551.2581787109375 C 31.4990062713623 -551.2971801757812 31.49335670471191 -551.3065795898438 31.24640655517578 -552.1155395507812 L 31.03814315795898 -552.8103637695312 L 30.49077606201172 -553.3216552734375 C 30.27314567565918 -553.5245361328125 30.11934661865234 -553.6716918945312 30.02081680297852 -553.7713623046875 C 29.88124656677246 -553.9125366210938 29.76071548461914 -554.0344848632812 29.80677604675293 -554.21826171875 L 29.80956649780273 -554.2293701171875 L 29.81089019775391 -554.2333374023438 C 29.82448577880859 -554.2853393554688 29.90103721618652 -554.6046752929688 29.99661636352539 -555.0174560546875 L 30.15633392333984 -555.7101440429688 L 29.94632530212402 -556.4002075195312 C 29.69999694824219 -557.20703125 29.69999694824219 -557.2426147460938 29.69999694824219 -557.28759765625 C 29.69999694824219 -557.4192504882812 29.69999694824219 -557.4361572265625 30.32710647583008 -558.1096801757812 C 30.5803108215332 -558.3798828125 30.77008819580078 -558.5904541015625 30.84088134765625 -558.6731567382812 C 30.86786270141602 -558.7771606445312 30.93284797668457 -559.0436401367188 31.01891708374023 -559.4133911132812 C 31.22486686706543 -560.3026733398438 31.23220634460449 -560.3070678710938 31.35480690002441 -560.3804321289062 C 31.39361572265625 -560.4041748046875 31.40215682983398 -560.4093627929688 32.21239471435547 -560.65673828125 L 32.90725708007812 -560.8650512695312 L 33.41854476928711 -561.412353515625 C 34.02884674072266 -562.0669555664062 34.08468627929688 -562.1055297851562 34.24064636230469 -562.1055297851562 L 34.27715682983398 -562.1055297851562 L 34.31417465209961 -562.0966186523438 L 34.32604598999023 -562.0936889648438 L 34.33054733276367 -562.0921630859375 C 34.38265228271484 -562.0785522460938 34.70146942138672 -562.0020751953125 35.11434555053711 -561.906494140625 L 35.80461502075195 -561.746826171875 L 36.48088455200195 -561.954345703125 C 37.23181533813477 -562.1832885742188 37.30387878417969 -562.1995849609375 37.35679244995117 -562.2007446289062 L 37.35800552368164 -562.2008056640625 L 37.3694953918457 -562.2008056640625 C 37.50930786132812 -562.2008056640625 37.55666732788086 -562.1812744140625 38.22202682495117 -561.5628051757812 L 38.76376724243164 -561.0552368164062 L 39.48031616210938 -560.8910522460938 L 39.65735626220703 -560.8495483398438 C 40.36359786987305 -560.6838989257812 40.36359786987305 -560.6838989257812 40.42791748046875 -560.6194458007812 C 40.48531723022461 -560.5618896484375 40.48531723022461 -560.5618896484375 40.74701690673828 -559.7014770507812 L 40.96339797973633 -558.9962768554688 L 41.51186752319336 -558.48193359375 C 41.72717666625977 -558.2802734375 41.87988662719727 -558.1336059570312 41.9786262512207 -558.03369140625 C 42.1201171875 -557.8905639648438 42.24230575561523 -557.7669677734375 42.19156646728516 -557.5816650390625 L 42.18944549560547 -557.5739135742188 L 42.18917083740234 -557.5731201171875 C 42.17571258544922 -557.5216064453125 42.09912109375 -557.2021484375 42.00336456298828 -556.7887573242188 L 41.84368515014648 -556.0980834960938 L 42.05366516113281 -555.4081420898438 C 42.29999542236328 -554.6012573242188 42.29999542236328 -554.5611572265625 42.29999542236328 -554.5187377929688 C 42.29999542236328 -554.3834838867188 42.29999542236328 -554.3724365234375 41.66011428833008 -553.681396484375 L 41.1521110534668 -553.1393432617188 L 40.98797607421875 -552.4227294921875 C 40.79380798339844 -551.595458984375 40.79261779785156 -551.5930786132812 40.77276611328125 -551.5534057617188 L 40.75060653686523 -551.5090942382812 L 40.71536636352539 -551.4742431640625 C 40.65900802612305 -551.4185180664062 40.65900802612305 -551.4185180664062 39.97922515869141 -551.2106323242188 L 39.80109786987305 -551.1561889648438 L 39.09307479858398 -550.941650390625 L 38.58145523071289 -550.3939208984375 C 37.95598602294922 -549.726318359375 37.91237640380859 -549.70068359375 37.75921630859375 -549.70068359375 L 37.71914672851562 -549.70068359375 L 37.67903518676758 -549.7113647460938 L 37.67098617553711 -549.7135620117188 L 37.66995239257812 -549.7139282226562 C 37.61822509765625 -549.7274780273438 37.29843521118164 -549.8041381835938 36.88564682006836 -549.8997192382812 L 36.19504928588867 -550.0594482421875 L 35.50516510009766 -549.849365234375 C 34.69828796386719 -549.6031494140625 34.65809631347656 -549.6031494140625 34.61554718017578 -549.6031494140625 Z M 35.98789596557617 -560.6376953125 C 35.25475692749023 -560.6376953125 34.54195785522461 -560.4642944335938 33.86929702758789 -560.122314453125 C 32.9494743347168 -559.6561279296875 32.24695587158203 -558.9536743164062 31.78091621398926 -558.0341796875 C 31.42827606201172 -557.3414306640625 31.27111625671387 -556.684326171875 31.27111625671387 -555.9031372070312 C 31.27111625671387 -555.4567260742188 31.30696678161621 -555.1633911132812 31.41317558288574 -554.7406616210938 C 31.75042533874512 -553.4166870117188 32.65121459960938 -552.2990112304688 33.88430786132812 -551.6752319335938 C 34.55756759643555 -551.3333740234375 35.22971725463867 -551.1742553710938 35.99999618530273 -551.1742553710938 C 36.44875717163086 -551.1742553710938 36.74199676513672 -551.2100830078125 37.16207504272461 -551.316162109375 C 38.48515701293945 -551.6531982421875 39.60283660888672 -552.5540161132812 40.22795486450195 -553.78759765625 C 40.56974792480469 -554.4607543945312 40.72888565063477 -555.1329345703125 40.72888565063477 -555.9031372070312 C 40.72888565063477 -556.3515625 40.69305801391602 -556.644775390625 40.58690643310547 -557.065185546875 C 40.1163444519043 -558.9161376953125 38.53341674804688 -560.3338623046875 36.64810562133789 -560.5924682617188 C 36.42705535888672 -560.6224365234375 36.20477676391602 -560.6376953125 35.98789596557617 -560.6376953125 Z" stroke="none"/>
        <path d="M 37.3694953918457 -561.9008178710938 C 37.36928558349609 -561.9008178710938 37.36908721923828 -561.9008178710938 37.36888885498047 -561.9008178710938 C 37.34222030639648 -561.9008178710938 36.98443984985352 -561.7942504882812 36.56887817382812 -561.6675415039062 L 35.8155517578125 -561.4364013671875 L 35.04666137695312 -561.6141967773438 C 34.62443923950195 -561.7119750976562 34.2622184753418 -561.7986450195312 34.24222183227539 -561.8053588867188 C 34.21545028686523 -561.8123168945312 34.03556823730469 -561.6342163085938 33.63777160644531 -561.2075805664062 L 33.07110977172852 -560.6009521484375 L 32.29999923706055 -560.3698120117188 C 31.87776947021484 -560.2409057617188 31.52000045776367 -560.1298217773438 31.50888061523438 -560.123046875 C 31.49776840209961 -560.1163940429688 31.40888977050781 -559.767578125 31.31111145019531 -559.3453369140625 C 31.21332931518555 -558.9253540039062 31.12443923950195 -558.560791015625 31.11333084106445 -558.5341796875 C 31.10221862792969 -558.509765625 30.84666061401367 -558.2254028320312 30.54666137695312 -557.9052734375 C 30.24665832519531 -557.5830688476562 30 -557.3053588867188 30 -557.28759765625 C 30 -557.2697143554688 30.10443878173828 -556.9097290039062 30.23332977294922 -556.487548828125 L 30.46665954589844 -555.7208251953125 L 30.28889083862305 -554.9497680664062 C 30.19110870361328 -554.5274658203125 30.10443878173828 -554.165283203125 30.09777069091797 -554.1453247070312 C 30.09111022949219 -554.1187133789062 30.26889038085938 -553.9386596679688 30.69554901123047 -553.5408935546875 L 31.30221939086914 -552.9742431640625 L 31.53332901000977 -552.203125 C 31.6622200012207 -551.7809448242188 31.77333068847656 -551.423095703125 31.77999114990234 -551.4119873046875 C 31.78667068481445 -551.4008178710938 32.14888000488281 -551.309814453125 32.586669921875 -551.2097778320312 L 33.38222122192383 -551.0253295898438 L 33.98221969604492 -550.463134765625 C 34.31333160400391 -550.1565551757812 34.59777069091797 -549.9031372070312 34.61555099487305 -549.9031372070312 C 34.63333129882812 -549.9031372070312 34.99554824829102 -550.0075073242188 35.41777038574219 -550.1363525390625 L 36.18444061279297 -550.3698120117188 L 36.95333099365234 -550.1920166015625 C 37.37556076049805 -550.09423828125 37.73777008056641 -550.0075073242188 37.75777053833008 -550.0008544921875 C 37.7823371887207 -549.9925537109375 37.96443939208984 -550.1741943359375 38.36222076416016 -550.5986938476562 L 38.92889022827148 -551.2053833007812 L 39.71332931518555 -551.4430541992188 C 40.1422119140625 -551.5742797851562 40.5 -551.6831665039062 40.50444030761719 -551.6875610351562 C 40.50666046142578 -551.6920166015625 40.59333038330078 -552.05419921875 40.69554901123047 -552.4896850585938 L 40.87776947021484 -553.2853393554688 L 41.43998718261719 -553.88525390625 C 41.74665069580078 -554.2164306640625 42 -554.5008544921875 42 -554.5187377929688 C 42 -554.5364379882812 41.89554977416992 -554.8986206054688 41.76666259765625 -555.32080078125 L 41.53331756591797 -556.0875244140625 L 41.71109771728516 -556.8564453125 C 41.80889129638672 -557.2786254882812 41.89554977416992 -557.6408081054688 41.9022102355957 -557.660888671875 C 41.90888977050781 -557.6852416992188 41.7288818359375 -557.8675537109375 41.30665969848633 -558.2631225585938 L 40.69998931884766 -558.83203125 L 40.45999908447266 -559.6141967773438 C 40.32888031005859 -560.0452880859375 40.21998977661133 -560.403076171875 40.21554946899414 -560.4075317382812 C 40.21110916137695 -560.4119873046875 39.84888076782227 -560.4963989257812 39.413330078125 -560.5986328125 L 38.61777114868164 -560.7808837890625 L 38.01778030395508 -561.3430786132812 C 37.60924530029297 -561.7228393554688 37.40259552001953 -561.9008178710938 37.3694953918457 -561.9008178710938 M 36 -550.874267578125 C 35.18222045898438 -550.874267578125 34.46665954589844 -551.0430908203125 33.7488899230957 -551.4075317382812 C 32.43111038208008 -552.0741577148438 31.48221969604492 -553.2542724609375 31.12221908569336 -554.6675415039062 C 31.0111083984375 -555.1098022460938 30.97111129760742 -555.4298095703125 30.97111129760742 -555.9031372070312 C 30.97111129760742 -556.7274780273438 31.13999938964844 -557.4364013671875 31.51332855224609 -558.1697998046875 C 32.00666046142578 -559.1431274414062 32.75999069213867 -559.8964233398438 33.73332977294922 -560.3897094726562 C 34.66443634033203 -560.8630981445312 35.65554428100586 -561.02978515625 36.68888092041016 -560.8897094726562 C 38.69776916503906 -560.6141357421875 40.37554931640625 -559.1141357421875 40.87776947021484 -557.1386108398438 C 40.9888801574707 -556.6986083984375 41.02887725830078 -556.378662109375 41.02887725830078 -555.9031372070312 C 41.02887725830078 -555.0852661132812 40.86000061035156 -554.3697509765625 40.49555206298828 -553.6519775390625 C 39.82888031005859 -552.33642578125 38.64888000488281 -551.3853149414062 37.23554992675781 -551.0253295898438 C 36.79555892944336 -550.9141845703125 36.47555160522461 -550.874267578125 36 -550.874267578125 M 37.36949920654297 -562.5008544921875 C 37.64479827880859 -562.5008544921875 37.77595901489258 -562.3870239257812 38.42626953125 -561.7825317382812 L 38.90974044799805 -561.3295288085938 L 39.72586059570312 -561.1416015625 C 40.51548767089844 -560.9564208984375 40.51548767089844 -560.9564208984375 40.64028930664062 -560.831298828125 C 40.74855041503906 -560.7225952148438 40.76615142822266 -560.6652221679688 40.86386108398438 -560.346923828125 C 40.90814208984375 -560.20263671875 40.96829986572266 -560.0048828125 41.03403091430664 -559.788818359375 L 41.22679901123047 -559.1605834960938 L 41.71707916259766 -558.7008056640625 C 41.93512725830078 -558.4965209960938 42.09053802490234 -558.3472290039062 42.19197082519531 -558.24462890625 C 42.34548950195312 -558.0892944335938 42.57749176025391 -557.8546142578125 42.48085021972656 -557.502197265625 L 42.47853851318359 -557.4937744140625 C 42.46372222900391 -557.4359130859375 42.39070892333984 -557.131591796875 42.29561996459961 -556.7210693359375 L 42.15404510498047 -556.1087036132812 L 42.34066772460938 -555.4954833984375 C 42.59999847412109 -554.6460571289062 42.59999847412109 -554.6113891601562 42.59999847412109 -554.5187377929688 C 42.59999847412109 -554.2548828125 42.53187942504883 -554.1813354492188 41.88022994995117 -553.4776000976562 L 41.42643356323242 -552.9933471679688 L 41.28041076660156 -552.3557739257812 C 41.07793045043945 -551.4930419921875 41.07793045043945 -551.4930419921875 41.04133987426758 -551.4197387695312 L 40.99713134765625 -551.3311157226562 L 40.92678070068359 -551.2614135742188 C 40.8177490234375 -551.1533203125 40.8177490234375 -551.1533203125 40.06780242919922 -550.9240112304688 L 39.25726318359375 -550.6779174804688 L 38.80070114135742 -550.1891479492188 C 38.18912124633789 -549.536376953125 38.06198120117188 -549.4006958007812 37.75922012329102 -549.4006958007812 L 37.67707061767578 -549.4006958007812 L 37.59177398681641 -549.4242553710938 C 37.53678131103516 -549.4384155273438 37.23054885864258 -549.511962890625 36.81795883178711 -549.6074829101562 L 36.20566558837891 -549.7490844726562 L 35.59254837036133 -549.5623779296875 C 34.74306106567383 -549.3031616210938 34.70833969116211 -549.3031616210938 34.61555099487305 -549.3031616210938 C 34.35190963745117 -549.3031616210938 34.27833938598633 -549.3712768554688 33.57458114624023 -550.0228881835938 L 33.08964538574219 -550.4772338867188 L 32.45114898681641 -550.6253051757812 C 32.23831176757812 -550.6738891601562 32.03327941894531 -550.7227172851562 31.87567901611328 -550.76220703125 C 31.56750869750977 -550.8395385742188 31.39775848388672 -550.8821411132812 31.26504898071289 -551.1040649414062 C 31.21894836425781 -551.180908203125 31.21714019775391 -551.1839599609375 30.95948028564453 -552.0279541015625 L 30.77407073974609 -552.6465454101562 L 30.2859992980957 -553.1024169921875 C 30.0624885559082 -553.310791015625 29.91030883789062 -553.4564208984375 29.80747985839844 -553.5604858398438 C 29.65666961669922 -553.7130126953125 29.42876052856445 -553.9435424804688 29.51572036743164 -554.291015625 L 29.52293014526367 -554.3182373046875 C 29.54052352905273 -554.387939453125 29.61207580566406 -554.6865844726562 29.70434951782227 -555.0850830078125 L 29.84599304199219 -555.699462890625 L 29.65932083129883 -556.3128662109375 C 29.40000152587891 -557.1622924804688 29.40000152587891 -557.1913452148438 29.40000152587891 -557.28759765625 C 29.40000152587891 -557.55419921875 29.48056030273438 -557.6407470703125 30.10752868652344 -558.3141479492188 C 30.31282806396484 -558.533203125 30.47936630249023 -558.7164306640625 30.56772994995117 -558.81640625 C 30.59985733032227 -558.9450073242188 30.65670394897461 -559.1805419921875 30.72674179077148 -559.4813842773438 C 30.77460861206055 -559.6881103515625 30.82236099243164 -559.8860473632812 30.86103057861328 -560.0380249023438 C 30.93524932861328 -560.3297119140625 30.98006057739258 -560.5057983398438 31.20072937011719 -560.6378784179688 C 31.27687835693359 -560.684326171875 31.27841949462891 -560.6852416992188 32.12480163574219 -560.9436645507812 L 32.743408203125 -561.1290893554688 L 33.19931030273438 -561.6171264648438 C 33.79317092895508 -562.2540893554688 33.93436050415039 -562.405517578125 34.24065017700195 -562.405517578125 L 34.3160400390625 -562.405517578125 L 34.41550064086914 -562.3800659179688 C 34.48532485961914 -562.3624877929688 34.78348159790039 -562.291015625 35.18202972412109 -562.19873046875 L 35.79366302490234 -562.0573120117188 L 36.39287948608398 -562.2411499023438 C 37.20072174072266 -562.4874267578125 37.25937652587891 -562.5001220703125 37.35319137573242 -562.5007934570312 L 37.36949920654297 -562.5008544921875 Z M 36 -551.4742431640625 C 36.42087173461914 -551.4742431640625 36.69557189941406 -551.5077514648438 37.0886116027832 -551.6070556640625 C 38.32722854614258 -551.9225463867188 39.37435913085938 -552.766845703125 39.96035003662109 -553.9232177734375 C 40.28006744384766 -554.5528564453125 40.42887878417969 -555.181884765625 40.42887878417969 -555.9031372070312 C 40.42887878417969 -556.3236694335938 40.39536285400391 -556.598388671875 40.29602813720703 -556.99169921875 C 39.8553581237793 -558.72509765625 38.37289810180664 -560.0531005859375 36.60734176635742 -560.2952880859375 C 36.40007019042969 -560.3233642578125 36.19134140014648 -560.337646484375 35.98789978027344 -560.337646484375 C 35.30244827270508 -560.337646484375 34.63539123535156 -560.1752319335938 34.0052490234375 -559.8548583984375 C 33.1431999206543 -559.41796875 32.48508834838867 -558.7598876953125 32.04851150512695 -557.8985595703125 C 31.71820068359375 -557.2496337890625 31.57110977172852 -556.634521484375 31.57110977172852 -555.9031372070312 C 31.57110977172852 -555.4844970703125 31.60467910766602 -555.2096557617188 31.70413970947266 -554.813720703125 C 32.01977157592773 -553.5746459960938 32.86394119262695 -552.527587890625 34.01972961425781 -551.9429321289062 C 34.64971160888672 -551.623046875 35.27870178222656 -551.4742431640625 36 -551.4742431640625 Z" stroke="none" fill="#fff"/>
      </g>
      <path id="Path_1825" data-name="Path 1825" d="M102.132-494.219a4.415,4.415,0,0,0-2.216.75,4.511,4.511,0,0,0-1.956,3.106,5.793,5.793,0,0,0,0,1.273,4.511,4.511,0,0,0,3.582,3.78,4.764,4.764,0,0,0,1.758,0,4.506,4.506,0,0,0,2.863-1.911,4.4,4.4,0,0,0,.754-2.505,4.386,4.386,0,0,0-.754-2.505A4.48,4.48,0,0,0,102.132-494.219Z" transform="translate(-96.421 495.724)" fill="#889cc3"/>
    </g>
  </g>
</svg>
