<svg id="Group_35151" data-name="Group 35151" xmlns="http://www.w3.org/2000/svg" width="32" height="32" viewBox="0 0 32 32">
  <g id="Group_8661" data-name="Group 8661" transform="translate(-1648 -255)">
    <rect id="Rectangle_4959" data-name="Rectangle 4959" width="32" height="32" rx="3" transform="translate(1648 255)" fill="#fff"/>
    <path id="Path_13254" data-name="Path 13254" d="M25.491,44.053,19.509,33.448a.836.836,0,0,0-.727-.426H6.818a.835.835,0,0,0-.727.426L.109,44.053a.843.843,0,0,0,.009.843L6.1,55.011a.835.835,0,0,0,.719.411H18.782a.836.836,0,0,0,.719-.411L25.483,44.9A.844.844,0,0,0,25.491,44.053ZM12.8,50.347a5.88,5.88,0,1,1,5.853-5.88A5.873,5.873,0,0,1,12.8,50.347Z" transform="translate(1651.001 226.779)" fill="#b7b7b7" opacity="0.7"/>
  </g>
</svg>
