<svg xmlns="http://www.w3.org/2000/svg" width="18" height="18" viewBox="0 0 18 18">
  <path id="save" d="M17.435,35.935l-3.37-3.37A1.929,1.929,0,0,0,12.7,32H1.929A1.929,1.929,0,0,0,0,33.929V48.071A1.929,1.929,0,0,0,1.929,50H16.071A1.929,1.929,0,0,0,18,48.071V37.3a1.929,1.929,0,0,0-.565-1.364ZM9,47.429a2.571,2.571,0,1,1,2.571-2.571A2.571,2.571,0,0,1,9,47.429Zm3.857-12.235v4.039a.482.482,0,0,1-.482.482H3.054a.482.482,0,0,1-.482-.482V35.054a.482.482,0,0,1,.482-.482h9.182a.482.482,0,0,1,.341.141l.14.14a.482.482,0,0,1,.141.341Z" transform="translate(0 -32)" fill="#6c6c6c" opacity="0.7"/>
</svg>
