<svg xmlns="http://www.w3.org/2000/svg" width="29.279" height="26.005" viewBox="0 0 29.279 26.005"><defs><style>.a{fill:#3d3d3d;}</style></defs><g transform="translate(0 0.009)"><path class="a" d="M-67.917,51.815a6.753,6.753,0,0,0-6,6.759v1.66H-84.349a5.455,5.455,0,0,0-5.514,5.38V72.4a5.454,5.454,0,0,0,5.514,5.38h12.961a5.454,5.454,0,0,0,5.514-5.38V65.613a5.454,5.454,0,0,0-5.514-5.38h.139v-1.8a4.027,4.027,0,0,1,3.2-3.979,3.978,3.978,0,0,1,3.3.781,3.978,3.978,0,0,1,1.5,3.044v.65a1.316,1.316,0,0,0,1.332,1.3,1.317,1.317,0,0,0,1.333-1.3v-.65a6.61,6.61,0,0,0-2.238-4.852,6.61,6.61,0,0,0-5.095-1.612Zm-.622,13.8V72.4a2.817,2.817,0,0,1-2.849,2.78H-84.349A2.818,2.818,0,0,1-87.2,72.4V65.613a2.818,2.818,0,0,1,2.849-2.779H-71.39a2.817,2.817,0,0,1,2.851,2.779Z" transform="translate(89.863 -51.784)"/><path class="a" d="M-79.358,63.321a2.625,2.625,0,0,0-2.626,2.626,2.614,2.614,0,0,0,1.313,2.261v1.675a1.313,1.313,0,0,0,.383.931,1.313,1.313,0,0,0,.93.386,1.312,1.312,0,0,0,1.312-1.313V68.206a2.611,2.611,0,0,0,1.313-2.26A2.625,2.625,0,0,0-79.358,63.321Z" transform="translate(91.356 -50.051)"/></g></svg>