<svg xmlns="http://www.w3.org/2000/svg" width="18" height="18.038" viewBox="0 0 18 18.038"><defs><style>.a{fill:#aaa;}.b{fill:#dadada;}</style></defs><g transform="translate(-126.779 -44.548)"><path class="a" d="M1,0H3.669a1,1,0,0,1,1,1V3.669a1,1,0,0,1-1,1H1a1,1,0,0,1-1-1V1A1,1,0,0,1,1,0Z" transform="translate(126.779 44.587)"/><path class="a" d="M1,0H3.669a1,1,0,0,1,1,1V3.669a1,1,0,0,1-1,1H1a1,1,0,0,1-1-1V1A1,1,0,0,1,1,0Z" transform="translate(126.779 51.233)"/><path class="a" d="M1,0H3.669a1,1,0,0,1,1,1V3.669a1,1,0,0,1-1,1H1a1,1,0,0,1-1-1V1A1,1,0,0,1,1,0Z" transform="translate(126.779 57.879)"/><path class="b" d="M1,0h9.335a1,1,0,0,1,1,1V3.707a1,1,0,0,1-1,1H1a1,1,0,0,1-1-1V1A1,1,0,0,1,1,0Z" transform="translate(133.444 44.548)"/><path class="b" d="M1,0h9.335a1,1,0,0,1,1,1V3.707a1,1,0,0,1-1,1H1a1,1,0,0,1-1-1V1A1,1,0,0,1,1,0Z" transform="translate(133.444 51.213)"/><path class="b" d="M1,0h9.335a1,1,0,0,1,1,1V3.707a1,1,0,0,1-1,1H1a1,1,0,0,1-1-1V1A1,1,0,0,1,1,0Z" transform="translate(133.444 57.879)"/></g></svg>