<svg xmlns="http://www.w3.org/2000/svg" width="17.977" height="17.765" viewBox="0 0 17.977 17.765">
  <defs>
    <style>
      .cls-1, .cls-2, .cls-3, .cls-4, .cls-5, .cls-6 {
        fill: #ffaf47;
      }

      .cls-1 {
        opacity: 0.4;
      }

      .cls-2 {
        opacity: 0.8;
      }

      .cls-3 {
        opacity: 0.6;
      }

      .cls-4 {
        opacity: 0.2;
      }

      .cls-6 {
        opacity: 0.23;
      }
    </style>
  </defs>
  <g id="Group_11583" data-name="Group 11583" transform="translate(-269.37 -161.421)">
    <path id="Path_8043" data-name="Path 8043" class="cls-1" d="M270.685,173.758l3.528-2.044a.5.5,0,0,0,.228-.556,4.041,4.041,0,0,1-.01-1.717.5.5,0,0,0-.231-.551l-3.524-2.027a.5.5,0,0,0-.719.245,8.972,8.972,0,0,0,.008,6.407A.5.5,0,0,0,270.685,173.758Z"/>
    <path id="Path_8044" data-name="Path 8044" class="cls-2" d="M279.217,174.594l0,4.076a.5.5,0,0,0,.571.5,8.968,8.968,0,0,0,5.546-3.213.5.5,0,0,0-.151-.745l-3.524-2.027a.507.507,0,0,0-.593.078,4.019,4.019,0,0,1-1.488.853A.5.5,0,0,0,279.217,174.594Z"/>
    <path id="Path_8045" data-name="Path 8045" class="cls-3" d="M271.387,175.978a8.877,8.877,0,0,0,5.562,3.2.5.5,0,0,0,.567-.5l-.005-4.073a.513.513,0,0,0-.382-.484,3.667,3.667,0,0,1-1.458-.839.511.511,0,0,0-.61-.087l-3.524,2.041A.5.5,0,0,0,271.387,175.978Z"/>
    <path id="Path_8046" data-name="Path 8046" class="cls-4" d="M277.5,166l-.006-4.077a.5.5,0,0,0-.571-.5,8.97,8.97,0,0,0-5.546,3.212.5.5,0,0,0,.151.745l3.525,2.026a.5.5,0,0,0,.592-.077,4.025,4.025,0,0,1,1.488-.852A.506.506,0,0,0,277.5,166Z"/>
    <path id="Path_8047" data-name="Path 8047" class="cls-5" d="M282.515,171.707l3.524,2.026a.5.5,0,0,0,.719-.244,8.967,8.967,0,0,0-.008-6.409.5.5,0,0,0-.72-.242l-3.527,2.043a.5.5,0,0,0-.228.557,4.041,4.041,0,0,1,.009,1.717A.5.5,0,0,0,282.515,171.707Z"/>
    <path id="Path_8047-2" data-name="Path 8047" class="cls-6" d="M282.515,171.707l3.524,2.026a.5.5,0,0,0,.719-.244,8.967,8.967,0,0,0-.008-6.409.5.5,0,0,0-.72-.242l-3.527,2.043a.5.5,0,0,0-.228.557,4.041,4.041,0,0,1,.009,1.717A.5.5,0,0,0,282.515,171.707Z"/>
  </g>
</svg>
