<svg id="trash" xmlns="http://www.w3.org/2000/svg" width="12" height="14" viewBox="0 0 12 14">
  <path id="Path_7317" data-name="Path 7317" d="M32.568,105.614,32,96H42.286l-.568,9.614a1.269,1.269,0,0,1-1.283,1.166H33.851a1.269,1.269,0,0,1-1.283-1.166Z" transform="translate(-31.143 -92.78)" fill="#fff"/>
  <path id="Path_7318" data-name="Path 7318" d="M0,2.188V1.313A.433.433,0,0,1,.429.875H3.643L3.895.364A.634.634,0,0,1,4.468,0H7.529a.642.642,0,0,1,.576.364l.252.511h3.214A.433.433,0,0,1,12,1.313v.875a.433.433,0,0,1-.429.438H.429A.433.433,0,0,1,0,2.188Z" transform="translate(0 0)" fill="#fff"/>
</svg>
