<svg xmlns="http://www.w3.org/2000/svg" width="14" height="14" viewBox="0 0 14 14">
  <g id="Group_8761" data-name="Group 8761" transform="translate(0 0)">
    <path id="Path_7775" data-name="Path 7775" d="M689.362,380.532l-1.645-1.647a1.318,1.318,0,0,0-1.859,0l-1.193,1.193h0a.33.33,0,0,0,0,.466l3.037,3.037h0a.33.33,0,0,0,.466,0l1.193-1.193h-.007A1.317,1.317,0,0,0,689.362,380.532Z" transform="translate(-675.74 -378.501)" fill="#fff"/>
    <path id="Path_7776" data-name="Path 7776" d="M688.217,383.954l-3.037-3.037h0a.329.329,0,0,0-.466,0l-7.359,7.358L677,391.4a.6.6,0,0,0,0,.146.656.656,0,0,0,.724.578l3.127-.35,7.358-7.358h0A.33.33,0,0,0,688.217,383.954Z" transform="translate(-676.999 -378.13)" fill="#fff"/>
  </g>
</svg>
