<svg xmlns="http://www.w3.org/2000/svg" width="19" height="19" viewBox="0 0 19 19">
  <path id="usd-circle" d="M9,8a9,9,0,1,0,9,9A9,9,0,0,0,9,8Zm.871,13.645v.581a.582.582,0,0,1-.581.581H8.71a.582.582,0,0,1-.581-.581v-.588a3.224,3.224,0,0,1-1.684-.548.583.583,0,0,1-.083-.915l.435-.41a.589.589,0,0,1,.715-.058,1.412,1.412,0,0,0,.722.2H9.867a.8.8,0,0,0,.744-.849.848.848,0,0,0-.552-.824l-2.62-.795a2.59,2.59,0,0,1-1.785-2.49,2.542,2.542,0,0,1,2.475-2.591v-.581a.582.582,0,0,1,.581-.581H9.29a.582.582,0,0,1,.581.581v.588a3.224,3.224,0,0,1,1.684.548.583.583,0,0,1,.083.915l-.435.41a.589.589,0,0,1-.715.058,1.412,1.412,0,0,0-.722-.2H8.133a.8.8,0,0,0-.744.849.848.848,0,0,0,.552.824l2.613.795a2.59,2.59,0,0,1,1.785,2.49A2.534,2.534,0,0,1,9.871,21.645Z" transform="translate(0.5 -7.5)" fill="#dadada" stroke="rgba(0,0,0,0)" stroke-width="1"/>
</svg>
