<svg xmlns="http://www.w3.org/2000/svg" width="17.333" height="21.13" viewBox="0 0 17.333 21.13"><defs><style>.a{fill:#919191;}</style></defs><path class="a" d="M192.639,277.12l-.617-2.9a1.154,1.154,0,0,0-1.369-.889l-.3.062-2.254-10.6a.285.285,0,0,0-.176-.208l-.821-.32a.289.289,0,0,0-.374.163.282.282,0,0,0-.014.164l.724,3.4-.337-.532a2.02,2.02,0,0,0-2.127-.895l-4.932,1.048a2.023,2.023,0,0,0-1.58,1.7l-.086.6-.723-3.4a.289.289,0,0,0-.343-.222.293.293,0,0,0-.146.08l-.619.627a.284.284,0,0,0-.076.262l2.254,10.6-.3.062a1.154,1.154,0,0,0-.886,1.369l.617,2.9-.48.1a.289.289,0,0,0-.223.343h0l.332,1.561a.289.289,0,0,0,.343.222h0l1.219-.259.158.749a.579.579,0,0,0,.686.445h0l1.5-.318a.579.579,0,0,0,.445-.686h0l-.16-.748,7.75-1.649.16.749a.578.578,0,0,0,.686.445h0l1.5-.318a.578.578,0,0,0,.445-.686h0l-.158-.748,1.215-.259a.288.288,0,0,0,.222-.342l-.332-1.561a.289.289,0,0,0-.343-.222Zm-13.549-7.7,8.318-1.769.592,2.782-8.318,1.769Zm1.793,9.38-.965.2a.545.545,0,0,1-.647-.42l0-.013a.547.547,0,0,1,.42-.648l.965-.2a.545.545,0,0,1,.647.42l0,.013a.546.546,0,0,1-.42.647Zm6.305-1.174-3.841.817a.577.577,0,0,1-.684-.445h0l-.762-3.582a.578.578,0,0,1,.445-.686h0l3.841-.817a.578.578,0,0,1,.684.445h0l.762,3.578a.579.579,0,0,1-.445.686Zm3.363-.883-.96.2a.546.546,0,0,1-.647-.42l0-.014a.546.546,0,0,1,.42-.647l.96-.2a.547.547,0,0,1,.648.42l0,.014a.545.545,0,0,1-.42.646ZM186.54,275l-3.677.782a.285.285,0,0,1-.338-.221v0a.286.286,0,0,1,.22-.339l3.677-.782a.285.285,0,0,1,.338.22v.006a.285.285,0,0,1-.221.336Zm-.241-1.129-3.676.782a.286.286,0,0,1-.339-.221l0-.009a.285.285,0,0,1,.221-.338l3.676-.782a.286.286,0,0,1,.339.22v.006a.286.286,0,0,1-.218.339h0Zm.721,3.388-3.677.782a.285.285,0,0,1-.338-.22l0-.013a.286.286,0,0,1,.219-.339l3.677-.782a.285.285,0,0,1,.338.221v0a.286.286,0,0,1-.215.343h0Zm-.239-1.129-3.677.782a.286.286,0,0,1-.339-.22v-.006a.285.285,0,0,1,.221-.338l3.676-.782a.285.285,0,0,1,.339.22h0a.286.286,0,0,1-.219.339h0Z" transform="translate(-176.467 -262.243)"/></svg>