<svg xmlns="http://www.w3.org/2000/svg" width="21.13" height="21.135" viewBox="0 0 21.13 21.135"><defs><style>.a{fill:#919191;}</style></defs><path class="a" d="M264.418,270.941v3.728a.622.622,0,0,1-.471.6l-1.912.48a8.071,8.071,0,0,1-.311.758l1.04,1.716a.622.622,0,0,1-.1.761l-2.637,2.637a.62.62,0,0,1-.762.1l-1.712-1.04c-.243.114-.5.217-.758.31l-.48,1.913a.622.622,0,0,1-.6.471h-3.727a.622.622,0,0,1-.6-.471l-.48-1.913a7.894,7.894,0,0,1-.758-.31l-1.652,1,3.571-3.572A5.6,5.6,0,0,0,259,270.626a.622.622,0,0,0-.815-.33.608.608,0,0,0-.2.133h0l-3.023,3.019-1.464-.288-.289-1.465,3.025-3.024a.624.624,0,0,0-.2-1.012,5.592,5.592,0,0,0-7.482,6.934l-3.577,3.568,1-1.652c-.113-.243-.217-.5-.31-.76l-1.914-.48a.622.622,0,0,1-.466-.6v-3.728a.622.622,0,0,1,.471-.6l1.913-.48c.1-.262.193-.515.31-.758l-1.04-1.714a.622.622,0,0,1,.1-.762l2.633-2.637a.624.624,0,0,1,.762-.1l1.716,1.039c.243-.114.5-.217.758-.31l.48-1.913a.62.62,0,0,1,.6-.466h3.728a.622.622,0,0,1,.6.471l.48,1.913a8.078,8.078,0,0,1,.76.31l1.715-1.039a.621.621,0,0,1,.762.1l1.318,1.318,1.318,1.318a.621.621,0,0,1,.1.762l-1.041,1.71c.114.243.217.5.311.76l1.912.48A.62.62,0,0,1,264.418,270.941Z" transform="translate(-243.288 -262.24)"/></svg>