<svg xmlns="http://www.w3.org/2000/svg" width="18.962" height="21.13" viewBox="0 0 18.962 21.13"><defs><style>.a{fill:#919191;}</style></defs><path class="a" d="M273.1,268.777v-6.534h-2.844v6.534c0,1.34-2.408,3.391-2.408,4.543v9.088a.917.917,0,0,0,.858.965h5.945a.918.918,0,0,0,.853-.965V273.32C275.507,272.168,273.1,270.114,273.1,268.777Zm-2.237,2.02c-.2.284-.474.686-.789,1.167a5.588,5.588,0,0,0-.784,1.693,5.907,5.907,0,0,0-.054,1.067c-.006.387-.014.781-.02,1.173-.027,1.572-.089,3.143-.16,4.321s-.136,1.965-.136,1.965-.069-.787-.136-1.965-.133-2.75-.16-4.321c-.006-.393-.014-.785-.02-1.173a7.147,7.147,0,0,1,.042-1.2,4.315,4.315,0,0,1,1.012-1.875,6.424,6.424,0,0,1,1.068-.991,3.406,3.406,0,0,1,.455-.309Z" transform="translate(-267.85 -262.243)"/><g transform="translate(6.615 2.209)"><path class="a" d="M275.073,264.595a3.29,3.29,0,0,0-1.119,4.509l1.977,3.281,3.726-2.245a3.593,3.593,0,0,1,.357-3.779l-.431-.648A3.29,3.29,0,0,0,275.073,264.595Z" transform="translate(-273.485 -264.124)"/></g><g transform="translate(9.438 8.843)"><path class="a" d="M279.621,269.776l-3.731,2.248,1.938,3.212a3.3,3.3,0,0,0,5.657-3.408l-.394-.652a3.594,3.594,0,0,1-3.47-1.4Z" transform="translate(-275.89 -269.776)"/></g><g transform="translate(13.151 6.304)"><path class="a" d="M281.255,270.787A2.91,2.91,0,0,0,284.669,269l-5.595-1.389A2.909,2.909,0,0,0,281.255,270.787Z" transform="translate(-279.053 -267.613)"/></g><g transform="translate(13.346 3.734)"><path class="a" d="M279.219,267.286l5.595,1.388a2.9,2.9,0,0,0-5.595-1.388Z" transform="translate(-279.219 -265.423)"/></g></svg>