<svg xmlns="http://www.w3.org/2000/svg" width="21.13" height="21.133" viewBox="0 0 21.13 21.133"><defs><style>.a{fill:#919191;}</style></defs><path class="a" d="M236.193,266.677a8.1,8.1,0,0,0-7.268-2.193,5.05,5.05,0,0,1-6.411,6.481,8.111,8.111,0,0,0,9.5,9.441,5.049,5.049,0,0,1,6.444-6.475A8.1,8.1,0,0,0,236.193,266.677Zm-11.318,5.941a.48.48,0,0,1-.48.48h-.351a.48.48,0,0,1-.48-.48v-.351a.481.481,0,0,1,.48-.481h.351a.481.481,0,0,1,.48.481Zm4.956-6.628a.48.48,0,0,1,.48-.48h.351a.48.48,0,0,1,.48.48v.352a.48.48,0,0,1-.48.48h-.351a.48.48,0,0,1-.48-.48Zm1.317,12.9a.48.48,0,0,1-.48.48h-.351a.48.48,0,0,1-.48-.48v-.351a.48.48,0,0,1,.48-.48h.351a.48.48,0,0,1,.48.48Zm1.544-4.514-.247.249a.48.48,0,0,1-.68,0l0,0-1.014-1a1.209,1.209,0,0,1-1.119-2.032h0a1.134,1.134,0,0,1,.2-.164v-3.471a.48.48,0,0,1,.48-.48h.351a.48.48,0,0,1,.48.48v3.472a1.222,1.222,0,0,1,.193.155,1.209,1.209,0,0,1,.335,1.1l1.014,1a.481.481,0,0,1,.021.679l-.008.008Zm4.73-1.756a.48.48,0,0,1-.48.48h-.352a.48.48,0,0,1-.48-.48v-.351a.481.481,0,0,1,.48-.481h.352a.481.481,0,0,1,.48.481Z" transform="translate(-219.924 -261.877)"/><path class="a" d="M228.6,265.016a4.293,4.293,0,1,0-5.534,5.533,4.243,4.243,0,0,0,1.518.277,4.293,4.293,0,0,0,4.016-5.81Zm-3.094,3.937a2.611,2.611,0,0,1-1.8.036,2.594,2.594,0,1,1,1.8-4.865c.245.1.374.239.384.425.019.292-.281.457-.393.518a1.68,1.68,0,0,0,0,2.95c.114.061.412.223.393.518-.006.175-.136.317-.38.414Z" transform="translate(-220.288 -262.241)"/><path class="a" d="M236.785,273.207a4.292,4.292,0,1,0,2.775,4.016A4.268,4.268,0,0,0,236.785,273.207Zm1.311,4.3H237.4a2.135,2.135,0,0,1-.424,1.026l.36.362a.285.285,0,0,1-.2.486.28.28,0,0,1-.2-.083l-.362-.36a2.152,2.152,0,0,1-1.027.425v.69a.288.288,0,0,1-.576,0v-.69a2.144,2.144,0,0,1-1.025-.425l-.362.36a.285.285,0,1,1-.4-.4l.362-.36a2.118,2.118,0,0,1-.343-.655,2.23,2.23,0,0,1-.083-.371h-.689a.288.288,0,1,1,0-.576h.689a2.134,2.134,0,0,1,.426-1.026l-.362-.362a.285.285,0,0,1,.4-.4l.362.362a2.133,2.133,0,0,1,1.026-.426v-.689a.288.288,0,0,1,.575,0v.689a2.215,2.215,0,0,1,.372.083,2.118,2.118,0,0,1,.655.343l.36-.362a.285.285,0,0,1,.4.4l-.362.362a2.148,2.148,0,0,1,.425,1.026h.69a.286.286,0,1,1,0,.573Z" transform="translate(-218.429 -260.382)"/></svg>