<svg xmlns="http://www.w3.org/2000/svg" width="21.131" height="19.751" viewBox="0 0 21.131 19.751"><defs><style>.a{fill:#919191;}</style></defs><path class="a" d="M307.1,270.207a6.625,6.625,0,0,0-.664-.333,6.931,6.931,0,0,0,.049-.8,6.656,6.656,0,0,0-4.376-6.235.423.423,0,0,0-.335.765,4.227,4.227,0,0,1,2.025,5.276,6.184,6.184,0,0,0-7.909-.031,4.216,4.216,0,0,1,2.037-5.24.423.423,0,0,0-.335-.765,6.633,6.633,0,0,0-4.329,7.026,5.956,5.956,0,0,0-.669.338,6.642,6.642,0,0,0-3.2,6.9.423.423,0,0,0,.833-.074.262.262,0,0,0,0-.061,4.226,4.226,0,0,1,2.114-3.842,4.143,4.143,0,0,1,1.386-.5,6.134,6.134,0,0,0-.08,1,6.214,6.214,0,0,0,4.083,5.828,4.227,4.227,0,0,1-5.583.888.417.417,0,0,0-.5.669,6.635,6.635,0,0,0,7.589.672,7,7,0,0,0,.614-.4,6.13,6.13,0,0,0,.618.4,6.635,6.635,0,0,0,7.589-.672.423.423,0,0,0,.066-.569.413.413,0,0,0-.561-.1,4.219,4.219,0,0,1-5.595-.9,6.2,6.2,0,0,0,4.057-5.812,6.657,6.657,0,0,0-.08-1,4.263,4.263,0,0,1,1.432.507,4.218,4.218,0,0,1,2.114,3.881.423.423,0,0,0,.369.439.414.414,0,0,0,.458-.343A6.674,6.674,0,0,0,307.1,270.207Zm-4.508.389a4.228,4.228,0,0,1-5.5-.019A4.1,4.1,0,0,1,302.59,270.6Zm-6.869,3.039a4.331,4.331,0,0,1,.085-.835,4.228,4.228,0,0,1,2.8,4.756,4.107,4.107,0,0,1-2.884-3.921Zm5.38,3.9a4.214,4.214,0,0,1,.5-2.851,4.45,4.45,0,0,1,.454-.641,4.192,4.192,0,0,1,1.8-1.23,4.116,4.116,0,0,1-2.754,4.723Z" transform="translate(-289.288 -262.83)"/></svg>