<svg xmlns="http://www.w3.org/2000/svg" width="18.921" height="21.131" viewBox="0 0 18.921 21.131"><defs><style>.a{fill:#919191;}</style></defs><path class="a" d="M206.235,275.6h-1.1a.3.3,0,0,0-.295.295v.008a.3.3,0,0,0,.295.295h1.6Zm-1.1,1.188a.293.293,0,0,0-.295.291v.012a.3.3,0,0,0,.295.3h.3l.968-.6Zm.119-2.377h-.119a.3.3,0,0,0-.295.3v.008a.3.3,0,0,0,.295.295h.615Zm.986,1.189h-1.1a.3.3,0,0,0-.295.295v.008a.3.3,0,0,0,.295.295h1.6Zm-1.1,1.188a.293.293,0,0,0-.295.291v.012a.3.3,0,0,0,.295.3h.3l.968-.6Zm.119-2.377h-.119a.3.3,0,0,0-.295.3v.008a.3.3,0,0,0,.295.295h.615Zm8.672,6.279H215.2a.3.3,0,0,0,.295-.295v-1.643a.3.3,0,0,0-.295-.3H214.7v-.059l-.734.32m-.9-15.912-.758-.5a.292.292,0,0,0-.406.074l-.007.011a.264.264,0,0,0-.05.161v3.582l-.228-.607a2.074,2.074,0,0,0-1.946-1.357h-5.192a2.073,2.073,0,0,0-1.955,1.374l-.22.59V262.54a.294.294,0,0,0-.291-.3h0a.31.31,0,0,0-.169.051l-.758.5a.283.283,0,0,0-.135.244V274.2h-.3a1.187,1.187,0,0,0-1.189,1.184v3.055h-.5a.3.3,0,0,0-.3.3v1.646a.3.3,0,0,0,.3.295h1.281v.792a.59.59,0,0,0,.589.589H202.4a.59.59,0,0,0,.59-.589h0v-.792H209.7l-.481-.591-7.551-.4,3.168-1.956a.59.59,0,0,1-.379-.556v-3.733l-2.293-2.756,6.06,2.091.379-2.073h-5.908v-2.934h6.44l.194-1.053.547,1.053h1.577v2.934h-.042l.48.926,1.307-.724v-7.88A.283.283,0,0,0,213.061,262.792Zm-10.577,13.687a.558.558,0,0,1,.565.552v.022a.564.564,0,0,1-.556.565h-1.02a.566.566,0,0,1-.565-.565h0v-.018a.56.56,0,0,1,.56-.556h1.017Zm3.751-.884h-1.1a.3.3,0,0,0-.295.295v.008a.3.3,0,0,0,.295.295h1.6Zm-1.1,1.188a.293.293,0,0,0-.295.291v.012a.3.3,0,0,0,.295.3h.3l.968-.6Zm.119-2.377h-.119a.3.3,0,0,0-.295.3v.008a.3.3,0,0,0,.295.295h.615Z" transform="translate(-198.641 -262.243)"/><g transform="translate(5.765 7.055)"><path class="a" d="M213.843,274.853l2.461.472-2.461,1.087-1.559.691-.11,3.919-.033,1.307-1.071-1.307-.767-.936-.363-.446-1.163-1.416-5.225-.27,1.964-1.214.657-.4.968-.6.22-.135-.379-.456-.5-.6-.488-.59-.5-.6-.5-.589-.5-.6-.329-.4-.286-.345,1,.345,1.147.4,1.736.6.244.083.016-.083.11-.6.067-.4.387-2.106.262-1.417.733,1.417,1.088,2.09,1.66-.918,4.366-2.419-3.5,4.872-.91,1.264Z" transform="translate(-203.552 -268.253)"/></g></svg>