<svg xmlns="http://www.w3.org/2000/svg" width="14" height="14" viewBox="0 0 14 14"><g transform="translate(-418 -736)"><path d="M14,7A7,7,0,1,1,7,0,7,7,0,0,1,14,7Zm0,0" transform="translate(418 736)" fill="#ff5d5d" opacity="0.7"/><path d="M.46,0H8.743A.519.519,0,0,1,9.2.563v2.25a.519.519,0,0,1-.46.563H.46A.519.519,0,0,1,0,2.813V.563A.519.519,0,0,1,.46,0Z" transform="translate(427.061 747.447) rotate(-135)" fill="#fff"/><path d="M.46,0H8.743A.519.519,0,0,1,9.2.563v2.25a.519.519,0,0,1-.46.563H.46A.519.519,0,0,1,0,2.813V.563A.519.519,0,0,1,.46,0Z" transform="translate(420.553 745.061) rotate(-45)" fill="#fff"/></g></svg>