<svg xmlns="http://www.w3.org/2000/svg" width="154" height="177" viewBox="0 0 154 177">
  <g id="Rectangle_1713" data-name="Rectangle 1713" fill="#f3f3f3" stroke="#fff" stroke-width="2" stroke-dasharray="4 5">
    <rect width="154" height="177" rx="3" stroke="none"/>
    <rect x="1" y="1" width="152" height="175" rx="2" fill="none"/>
  </g>
  <text id="Drag_file_here_or_click_to_add" data-name="Drag file here
or click to add" transform="translate(77.524 147)" fill="#919191" font-size="12" font-family="Montserrat-SemiBold, Montserrat" font-weight="600"><tspan x="-42.534" y="0">Drag file here</tspan><tspan x="-43.776" y="15">or click to add</tspan></text>
  <g id="Group_34525" data-name="Group 34525" transform="translate(-766.999 -306.709)">
    <circle id="Ellipse_3223" data-name="Ellipse 3223" cx="8.026" cy="8.026" r="8.026" transform="translate(814.873 409.858) rotate(-45)" fill="#b7b7b7" opacity="0.2" style="mix-blend-mode: multiply;isolation: isolate"/>
    <g id="Bcg" transform="translate(802.95 330.209)">
      <path id="Path_12272" data-name="Path 12272" d="M667.856,676.25c.33-4.85,1.713-25.192,17.032-34.976,17.531-11.2,44.092-2.677,57.383,14.288,8.1,10.336,14.255,27.618,7.544,42.291-11.411,24.951-54.439,30.132-72.358,12C666.336,698.6,667.53,681.04,667.856,676.25Z" transform="translate(-667.653 -636.21)" fill="#fff"/>
      <circle id="Ellipse_3224" data-name="Ellipse 3224" cx="3.328" cy="3.328" r="3.328" transform="translate(49.534 1.54)" fill="#5673aa"/>
      <circle id="Ellipse_3225" data-name="Ellipse 3225" cx="1.92" cy="1.92" r="1.92" transform="translate(58.464 86.382) rotate(-45)" fill="#5673aa"/>
    </g>
    <g id="Lock" transform="translate(817.6 400.804)">
      <circle id="Ellipse_3226" data-name="Ellipse 3226" cx="8.026" cy="8.026" r="8.026" fill="#24c1a1"/>
      <g id="Group_32972" data-name="Group 32972" transform="translate(3.13 3.275)">
        <path id="Path_12292" data-name="Path 12292" d="M1251.9,3107.2l-1.551,1.462a3.557,3.557,0,0,0-.148,5.014l.287.3a3.556,3.556,0,0,0,5.014.148l1.551-1.462a.82.82,0,0,0,.034-1.16l-4.026-4.271A.821.821,0,0,0,1251.9,3107.2Z" transform="translate(-1249.242 -3105.285)" fill="#fff"/>
        <path id="Path_12293" data-name="Path 12293" d="M1389.447,3054.486l1.042-.982a1.79,1.79,0,1,1,2.456,2.605l-1.041.982.676.718,1.042-.982a2.777,2.777,0,1,0-3.809-4.041l-1.042.981Z" transform="translate(-1384.476 -3052.032)" fill="#fff"/>
        <path id="Path_12294" data-name="Path 12294" d="M1341,3210.365a.838.838,0,1,0-1.361-.317l-.522.492a.326.326,0,1,0,.447.475l.522-.493A.839.839,0,0,0,1341,3210.365Z" transform="translate(-1336.25 -3204.088)" fill="#52d1bd"/>
      </g>
    </g>
    <g id="Blue" transform="translate(835.193 347.859)">
      <path id="Path_12273" data-name="Path 12273" d="M1872.974,1371.965a1.644,1.644,0,0,1-.176-.01l-38.724-4.33a1.572,1.572,0,0,1-1.384-1.733l5.7-50.974a1.572,1.572,0,0,1,1.733-1.384l38.724,4.331a1.572,1.572,0,0,1,1.384,1.733l-5.7,50.974a1.573,1.573,0,0,1-1.557,1.394Zm-33.026-58.063a1.2,1.2,0,0,0-1.182,1.058l-5.7,50.974a1.194,1.194,0,0,0,1.051,1.315l38.724,4.33a1.194,1.194,0,0,0,1.315-1.051l5.7-50.974a1.195,1.195,0,0,0-1.051-1.315l-38.724-4.33A1.187,1.187,0,0,0,1839.948,1313.9Z" transform="translate(-1829.541 -1310.805)" fill="#344566"/>
      <g id="Group_32970" data-name="Group 32970" transform="translate(0)">
        <path id="Path_12274" data-name="Path 12274" d="M1769.189,1287.8l-37.505-10.567a1.383,1.383,0,0,1-.953-1.7l13.909-49.37a1.383,1.383,0,0,1,1.7-.954l37.505,10.567a1.383,1.383,0,0,1,.954,1.7l-13.909,49.37A1.383,1.383,0,0,1,1769.189,1287.8Z" transform="translate(-1730.679 -1225.152)" fill="#5673aa"/>
        <path id="Path_12275" data-name="Path 12275" d="M2462.87,1559.169l-18.208-5.13a1.023,1.023,0,0,1-.706-1.259h0a1.023,1.023,0,0,1,1.259-.705l18.208,5.13a1.023,1.023,0,0,1,.705,1.259h0A1.023,1.023,0,0,1,2462.87,1559.169Z" transform="translate(-2421.968 -1541.977)" fill="#b3cef6"/>
        <path id="Path_12276" data-name="Path 12276" d="M2250.9,1699.735l-28.682-8.081a1.024,1.024,0,0,1-.705-1.259h0a1.023,1.023,0,0,1,1.259-.705l28.682,8.081a1.023,1.023,0,0,1,.705,1.259h0A1.024,1.024,0,0,1,2250.9,1699.735Z" transform="translate(-2206.371 -1675.357)" fill="#344566"/>
        <path id="Path_12277" data-name="Path 12277" d="M2209.5,1846.668l-28.682-8.081a1.023,1.023,0,0,1-.705-1.259h0a1.023,1.023,0,0,1,1.259-.705l28.682,8.081a1.024,1.024,0,0,1,.705,1.259h0A1.024,1.024,0,0,1,2209.5,1846.668Z" transform="translate(-2166.249 -1817.768)" fill="#344566"/>
        <path id="Path_12278" data-name="Path 12278" d="M2168.107,1993.6l-28.682-8.081a1.023,1.023,0,0,1-.706-1.259h0a1.024,1.024,0,0,1,1.259-.706l28.682,8.081a1.023,1.023,0,0,1,.705,1.259h0A1.023,1.023,0,0,1,2168.107,1993.6Z" transform="translate(-2126.126 -1960.18)" fill="#344566"/>
        <path id="Path_12279" data-name="Path 12279" d="M2126.71,2140.535l-28.682-8.081a1.024,1.024,0,0,1-.705-1.259h0a1.023,1.023,0,0,1,1.259-.706l28.682,8.081a1.023,1.023,0,0,1,.705,1.259h0A1.023,1.023,0,0,1,2126.71,2140.535Z" transform="translate(-2086.003 -2102.591)" fill="#344566"/>
        <path id="Path_12280" data-name="Path 12280" d="M2085.313,2287.469l-28.681-8.081a1.023,1.023,0,0,1-.706-1.259h0a1.023,1.023,0,0,1,1.259-.706l28.682,8.081a1.023,1.023,0,0,1,.705,1.259h0A1.024,1.024,0,0,1,2085.313,2287.469Z" transform="translate(-2045.88 -2245.004)" fill="#344566"/>
        <path id="Path_12281" data-name="Path 12281" d="M2043.917,2434.4l-28.682-8.081a1.023,1.023,0,0,1-.705-1.259h0a1.023,1.023,0,0,1,1.259-.705l28.682,8.081a1.023,1.023,0,0,1,.706,1.259h0A1.024,1.024,0,0,1,2043.917,2434.4Z" transform="translate(-2005.758 -2387.416)" fill="#344566"/>
        <path id="Path_12282" data-name="Path 12282" d="M2002.52,2581.336l-28.682-8.081a1.023,1.023,0,0,1-.706-1.259h0a1.024,1.024,0,0,1,1.259-.705l28.682,8.081a1.023,1.023,0,0,1,.705,1.259h0A1.023,1.023,0,0,1,2002.52,2581.336Z" transform="translate(-1965.634 -2529.827)" fill="#b3cef6"/>
        <path id="Path_12283" data-name="Path 12283" d="M1961.124,2728.269l-28.682-8.081a1.024,1.024,0,0,1-.705-1.259h0a1.024,1.024,0,0,1,1.259-.706l28.682,8.081a1.024,1.024,0,0,1,.705,1.259h0A1.023,1.023,0,0,1,1961.124,2728.269Z" transform="translate(-1925.512 -2672.239)" fill="#344566"/>
      </g>
    </g>
    <g id="Yellow" transform="translate(799 333.247)">
      <path id="Path_12274-2" data-name="Path 12274" d="M561.427,800.977h-.006c-.057,0-.108,0-.155-.006l-.021,0h-.007c-.043,0-.087-.01-.131-.018H561.1l-.035-.006c-.047-.009-.094-.02-.141-.033l-.04-.012-.009,0c-.037-.011-.074-.024-.11-.037h0l-.05-.019c-.037-.015-.074-.032-.113-.051l-.056-.028c-.044-.023-.081-.045-.115-.066l-.05-.033-.015-.01c-.024-.017-.049-.033-.072-.051l-.057-.044c-.025-.02-.051-.043-.079-.068l-.011-.01-.032-.03c-.041-.04-.078-.078-.112-.118l-.015-.018,0,0c-.03-.035-.059-.073-.087-.112l-.028-.041,0,0c-.023-.034-.045-.069-.067-.106l-.006-.01-.02-.034c-.031-.056-.056-.107-.078-.156l-.117-.269-20.108-46.21c-.023-.054-.044-.109-.064-.171,0-.013-.008-.026-.011-.039l0-.016c-.01-.035-.022-.076-.031-.118,0-.017-.007-.034-.01-.051l0-.015c-.008-.042-.013-.077-.017-.11s-.005-.046-.007-.068-.005-.073-.006-.108,0-.045,0-.068,0-.068,0-.107v-.012c0-.019,0-.037,0-.056,0-.038.009-.074.014-.105l0-.018c0-.016,0-.032.008-.049.007-.034.014-.064.022-.094l0-.008a1.879,1.879,0,0,1,.08-.249l.012-.027,0-.008c.023-.053.044-.1.066-.14l.021-.036.008-.014c.025-.045.048-.081.071-.116l.035-.05,0,0c.026-.036.052-.069.078-.1l.047-.054c.026-.029.055-.059.087-.09l0,0,.049-.047c.035-.031.071-.06.1-.081l.014-.011.043-.033c.04-.029.079-.053.116-.076l.015-.009.04-.025a1.869,1.869,0,0,1,.183-.092L576.718,735.1a1.818,1.818,0,0,1,.193-.071l.044-.012.018,0c.04-.011.086-.023.134-.033l.056-.009.018,0c.039-.006.08-.012.124-.016l.067,0h.009c.045,0,.085,0,.123,0l.075,0c.039,0,.079.006.122.011h0l.067.009c.038.006.079.014.127.026l.016,0,.047.011c.043.012.088.026.141.045l.011,0,.031.011a1.858,1.858,0,0,1,.242.113l.01.006c.024.013.049.027.075.043l.04.026.014.01c.028.019.059.04.09.063l.043.034.007.006c.031.026.059.049.084.072l.047.045c.026.026.052.053.077.081l.043.05c.022.026.044.055.07.09l.009.012.03.041c.024.035.045.07.065.1l.009.014.021.035c.032.057.058.11.081.163l20.225,46.479c.021.049.041.1.062.163l.011.037,0,.012c.012.04.023.081.032.121l0,.009c0,.014.007.029.009.043.009.046.017.094.022.14v.005c0,.007,0,.014,0,.022.006.053.009.106.01.163,0,.014,0,.029,0,.044v.015c0,.038,0,.071,0,.1s0,.048-.006.072-.007.058-.012.086a1.911,1.911,0,0,1-.064.278l-.011.031,0,.013c-.018.052-.038.1-.059.152l-.023.05h0c-.023.049-.048.1-.078.147l-.006.01-.016.028a1.857,1.857,0,0,1-.121.174l-.013.015c-.038.047-.08.094-.125.14l-.035.034-.012.011c-.036.035-.074.067-.11.1l-.058.045c-.037.028-.078.055-.124.084l-.015.009-.042.026a1.863,1.863,0,0,1-.2.1l-36.273,15.785c-.048.021-.1.041-.161.061l0,0-.029.01c-.053.017-.107.031-.158.042l-.021,0-.008,0c-.05.01-.1.018-.147.023h-.006l-.02,0c-.05.005-.1.008-.157.009Zm16.047-65.655-.076,0h-.01l-.051,0c-.033,0-.067.008-.1.013l-.021,0-.038.006c-.036.007-.074.017-.107.026l-.027.007-.023.006a1.533,1.533,0,0,0-.155.057L540.6,751.231a1.526,1.526,0,0,0-.147.074l-.021.013-.022.014c-.031.019-.063.039-.093.061l-.029.022-.017.013c-.024.019-.052.041-.078.065l-.038.037,0,0c-.026.026-.049.049-.069.072l-.037.043c-.021.025-.042.052-.063.081l0,0-.027.038c-.018.027-.036.057-.057.093l-.01.018-.013.023c-.017.032-.034.069-.053.112l-.009.02,0,.008a1.5,1.5,0,0,0-.064.2l0,.009c-.007.026-.013.05-.017.073s0,.02,0,.031l0,.022c0,.026-.009.056-.011.084s0,.027,0,.041v.013c0,.032,0,.06,0,.085s0,.036,0,.055,0,.057.005.086,0,.036.006.055.008.053.014.087l0,.017c0,.012,0,.024.007.036.007.031.016.064.025.094l.006.023c0,.007,0,.014.006.021.016.05.033.095.051.137l20.225,46.479c.017.039.037.08.062.125l.014.024.007.012c.017.029.035.057.053.085l0,0,.022.032c.022.031.046.061.07.089l.012.014,0,0c.026.03.055.061.089.093l.022.02.013.011c.022.02.043.038.063.054l.045.036.058.041.017.011.035.023c.027.017.057.034.092.053l.045.023c.032.016.061.029.09.041l.04.015c.031.012.061.022.091.031l.009,0,.03.009c.037.01.075.019.113.027l.024,0,.011,0c.036.006.072.011.106.014l.015,0h.008c.036,0,.076,0,.123,0h.032c.046,0,.087,0,.126-.008l.02,0c.038,0,.077-.011.117-.019l.024,0c.041-.009.083-.02.126-.033l.022-.007.005,0c.05-.017.091-.032.13-.049L598.3,784.69a1.505,1.505,0,0,0,.156-.08l.027-.017.018-.012c.038-.024.07-.046.1-.068l.046-.036c.03-.024.058-.049.088-.078l.015-.014.023-.022a1.469,1.469,0,0,0,.1-.114l.011-.013a1.491,1.491,0,0,0,.095-.136l.007-.012.01-.018c.024-.041.044-.079.063-.118h0l.018-.04c.017-.039.033-.08.047-.122l.005-.015.007-.02a1.54,1.54,0,0,0,.051-.223c0-.023.007-.046.009-.069s0-.039,0-.058,0-.052,0-.083v-.018c0-.01,0-.019,0-.029,0-.047,0-.089-.008-.13v0l0-.018c0-.037-.01-.075-.018-.112,0-.011,0-.021-.007-.032l0-.01c-.007-.032-.016-.064-.025-.1l0-.014-.008-.026c-.017-.05-.032-.092-.049-.131l-20.225-46.479c-.018-.042-.04-.085-.065-.131l-.012-.019-.012-.02c-.019-.032-.035-.058-.052-.083l-.021-.029-.01-.013c-.021-.028-.039-.051-.055-.071l-.035-.04c-.02-.022-.04-.044-.061-.064l-.038-.036c-.019-.018-.04-.036-.067-.057l-.008-.007-.032-.026c-.023-.017-.048-.034-.071-.05l-.019-.013-.025-.017-.057-.032-.011-.006a1.507,1.507,0,0,0-.194-.091l-.012,0-.021-.007c-.043-.016-.079-.027-.113-.036l-.03-.007-.019,0c-.04-.009-.072-.016-.1-.021l-.053-.007h0c-.035,0-.067-.007-.1-.009l-.06,0Z" transform="translate(-539.313 -734.945)" fill="#344566"/>
      <path id="Path_12275-2" data-name="Path 12275" d="M682.044,892.481l.027-.042q.04-.062.074-.126l.02-.038a1.717,1.717,0,0,0,.1-.238c.008-.025.016-.05.023-.075s.011-.042.016-.063.013-.061.018-.091.006-.035.009-.052c.007-.048.012-.1.014-.146,0-.008,0-.016,0-.024,0-.043,0-.085,0-.128,0-.016,0-.031,0-.047,0-.037-.006-.075-.011-.112,0-.015,0-.03-.006-.046-.008-.051-.018-.1-.032-.154l-.073-.283h0L669.754,842.63h0l-.157-.607c-.014-.054-.031-.106-.049-.157-.006-.016-.013-.032-.019-.048-.014-.034-.028-.068-.043-.1-.008-.018-.018-.035-.027-.052s-.032-.06-.049-.089l-.032-.05q-.027-.042-.057-.082l-.035-.047c-.021-.026-.042-.052-.065-.076l-.038-.043c-.023-.024-.047-.047-.071-.069l-.043-.04c-.022-.019-.046-.037-.069-.055a1.7,1.7,0,0,0-.2-.135l-.036-.019c-.039-.021-.078-.041-.119-.059l-.053-.022c-.036-.015-.072-.029-.109-.041l-.062-.019c-.036-.01-.071-.019-.107-.027l-.066-.013c-.036-.007-.072-.011-.109-.015l-.068-.007c-.037,0-.075,0-.113,0h-.067c-.041,0-.082.006-.123.01l-.058.006a1.769,1.769,0,0,0-.181.036l-38.3,9.9a1.7,1.7,0,0,0-.176.056l-.053.023c-.039.016-.077.032-.114.051l-.057.032c-.034.019-.067.038-.1.059l-.055.038c-.031.022-.061.044-.09.068l-.049.042c-.029.025-.057.052-.084.079l-.042.043c-.028.03-.054.061-.079.093l-.033.041c-.028.037-.054.076-.079.115l-.019.029a1.709,1.709,0,0,0-.107.211c-.012.029-.025.057-.036.086s-.012.039-.019.058-.019.06-.028.091-.009.04-.014.06-.013.062-.018.094-.006.041-.009.061-.007.064-.009.1,0,.041,0,.061,0,.067,0,.1,0,.04,0,.06c0,.036.007.073.011.109,0,.017,0,.034.006.052.009.054.019.107.033.161l.157.608h0l12.461,48.182h0l.073.284c.013.051.029.1.047.15.005.015.011.029.017.043q.021.053.044.1l.021.043c.019.039.04.076.062.112l.012.021c.026.042.054.082.083.12l.033.041c.019.024.039.048.06.071l.044.047c.019.019.038.037.057.055s.034.033.052.048.061.05.092.074l.046.033c.03.021.061.041.092.06l.046.026q.045.026.092.048l.042.02q.059.027.12.049l.038.013c.038.013.076.024.114.034l.025.007c.045.011.091.02.136.027l.036.005c.047.007.094.011.141.014h.024c.044,0,.088,0,.132,0h.028c.049,0,.1-.008.146-.015l.032-.005c.051-.008.1-.018.152-.031l38.3-9.9a1.688,1.688,0,0,0,.187-.061l.056-.024c.042-.018.082-.036.122-.057l.058-.032c.039-.022.076-.046.112-.071l.048-.033a1.691,1.691,0,0,0,.133-.109l.011-.01a1.668,1.668,0,0,0,.132-.137l.025-.031C681.986,892.562,682.016,892.522,682.044,892.481Z" transform="translate(-625.232 -837.497)" fill="#6c6c6c" opacity="0.2" style="mix-blend-mode: multiply;isolation: isolate"/>
      <g id="Group_32971" data-name="Group 32971" transform="translate(2.943 1.83)">
        <path id="Path_12286" data-name="Path 12286" d="M676.568,795.679l12.691,49.074a1.7,1.7,0,0,1-1.218,2.067l-38.3,9.9a1.7,1.7,0,0,1-2.067-1.218l-12.691-49.074a1.7,1.7,0,0,1,1.218-2.067l38.3-9.9a1.7,1.7,0,0,1,2.067,1.218Z" transform="translate(-634.93 -794.407)" fill="#ffc06e"/>
        <path id="Path_12287" data-name="Path 12287" d="M676.57,795.677l.157.607-1.892,5.889L657.3,806.94l-17.649,4.332-4.508-4.233-.157-.608a1.7,1.7,0,0,1,1.218-2.067l38.3-9.9A1.7,1.7,0,0,1,676.57,795.677Z" transform="translate(-634.931 -794.404)" fill="#d89444"/>
        <path id="Path_12288" data-name="Path 12288" d="M1088.3,2326.785l.073.283a1.7,1.7,0,0,1-1.218,2.067l-38.3,9.905a1.7,1.7,0,0,1-2.067-1.218l-.073-.284,1.313-3.85a1.059,1.059,0,0,1,.724-.669l35.571-9.2a1.066,1.066,0,0,1,.959.234Z" transform="translate(-1034.046 -2276.722)" fill="#d89444"/>
        <path id="Path_12289" data-name="Path 12289" d="M1107.371,2328.172a1.693,1.693,0,0,1-1.168,1.061l-38.3,9.9a1.691,1.691,0,0,1-1.536-.361l.8-4.965a.86.86,0,0,1,.634-.7l35.571-9.2a.863.863,0,0,1,.892.3Z" transform="translate(-1053.091 -2276.819)" fill="#ffad43"/>
        <path id="Path_12290" data-name="Path 12290" d="M680.99,794.728l-1.059,7.342a.518.518,0,0,1-.384.429l-34.355,8.885a.52.52,0,0,1-.545-.189l-4.485-5.907a1.694,1.694,0,0,1,1.111-.923l38.3-9.9A1.692,1.692,0,0,1,680.99,794.728Z" transform="translate(-640.001 -794.407)" fill="#ffad43"/>
        <path id="Path_12291" data-name="Path 12291" d="M1272.613,1049.893a1.612,1.612,0,0,1-1.558-1.207l-3.38-13.068a1.613,1.613,0,0,1,1.155-1.961l.782-.2a1.611,1.611,0,0,1,1.961,1.155l3.38,13.068a1.613,1.613,0,0,1-1.155,1.961h0l-.782.2A1.6,1.6,0,0,1,1272.613,1049.893Zm-2.6-16.029a1.146,1.146,0,0,0-.288.037l-.782.2a1.153,1.153,0,0,0-.825,1.4l3.38,13.068a1.151,1.151,0,0,0,1.4.825l.782-.2a1.154,1.154,0,0,0,.825-1.4l-3.38-13.068A1.152,1.152,0,0,0,1270.015,1033.864Z" transform="translate(-1248.153 -1026.049)" fill="#444"/>
        <circle id="Ellipse_3223-2" data-name="Ellipse 3223" cx="2.247" cy="2.247" r="2.247" transform="translate(18.376 9.387) rotate(-45)" fill="#fff"/>
        <circle id="Ellipse_3224-2" data-name="Ellipse 3224" cx="2.247" cy="2.247" r="2.247" transform="translate(22.607 19.9)" fill="#fff"/>
      </g>
    </g>
    <g id="Whitepaper" transform="translate(830.913 345.578)">
      <path id="Path_12276-2" data-name="Path 12276" d="M1670.683,1177.061l-31.462-3.279a2.243,2.243,0,0,0-2.464,2l-5.141,49.328a2.243,2.243,0,0,0,2,2.464l38.258,3.988a2.243,2.243,0,0,0,2.464-2l4.433-42.532Z" transform="translate(-1630.373 -1172.822)" fill="#6c6c6c" opacity="0.25" style="mix-blend-mode: multiply;isolation: isolate"/>
      <g id="Group_32973" data-name="Group 32973">
        <path id="Path_12296" data-name="Path 12296" d="M1630.695,1146.255l-31.462-3.279a2.243,2.243,0,0,0-2.464,2l-5.141,49.328a2.243,2.243,0,0,0,2,2.464l38.258,3.988a2.243,2.243,0,0,0,2.464-2l4.433-42.532Z" transform="translate(-1591.615 -1142.964)" fill="#fff"/>
        <path id="Path_12297" data-name="Path 12297" d="M2838.076,1256.714a2.243,2.243,0,0,0,2,2.464l6.8.708-8.086-9.968Z" transform="translate(-2799.705 -1246.627)" fill="#ededed"/>
        <path id="Path_12298" data-name="Path 12298" d="M2891.991,1548.7l7.029,1.917.119-1.144Z" transform="translate(-2851.973 -1536.209)" fill="#cecece"/>
        <path id="Path_12299" data-name="Path 12299" d="M2103.731,1471.718l-19.24-2.005a.951.951,0,0,1-.845-1.042h0a.951.951,0,0,1,1.042-.845l19.24,2.005a.951.951,0,0,1,.845,1.042h0A.951.951,0,0,1,2103.731,1471.718Z" transform="translate(-2068.5 -1457.823)" fill="#24c1a1"/>
        <path id="Path_12300" data-name="Path 12300" d="M1890.438,1659.779l-31.807-3.315a.951.951,0,0,1-.845-1.042h0a.951.951,0,0,1,1.041-.845l31.807,3.315a.951.951,0,0,1,.845,1.042h0A.951.951,0,0,1,1890.438,1659.779Z" transform="translate(-1849.59 -1638.828)" fill="#eee"/>
        <path id="Path_12301" data-name="Path 12301" d="M1874.176,1815.8l-31.807-3.315a.951.951,0,0,1-.845-1.041h0a.951.951,0,0,1,1.042-.845l31.807,3.315a.951.951,0,0,1,.845,1.042h0A.951.951,0,0,1,1874.176,1815.8Z" transform="translate(-1833.828 -1790.051)" fill="#eee"/>
        <path id="Path_12302" data-name="Path 12302" d="M1857.913,1971.828l-31.807-3.315a.951.951,0,0,1-.845-1.042h0a.951.951,0,0,1,1.042-.845l31.807,3.315a.951.951,0,0,1,.845,1.042h0A.951.951,0,0,1,1857.913,1971.828Z" transform="translate(-1818.066 -1941.274)" fill="#eee"/>
        <path id="Path_12303" data-name="Path 12303" d="M1841.651,2127.852l-31.807-3.315a.951.951,0,0,1-.845-1.042h0a.951.951,0,0,1,1.042-.845l31.807,3.315a.951.951,0,0,1,.845,1.041h0A.951.951,0,0,1,1841.651,2127.852Z" transform="translate(-1802.305 -2092.496)" fill="#eee"/>
        <path id="Path_12304" data-name="Path 12304" d="M1825.388,2283.877l-31.807-3.315a.951.951,0,0,1-.845-1.042h0a.951.951,0,0,1,1.042-.845l31.807,3.315a.951.951,0,0,1,.845,1.042h0A.951.951,0,0,1,1825.388,2283.877Z" transform="translate(-1786.542 -2243.719)" fill="#eee"/>
        <path id="Path_12305" data-name="Path 12305" d="M1809.126,2439.9l-31.807-3.315a.951.951,0,0,1-.845-1.042h0a.951.951,0,0,1,1.042-.845l31.807,3.315a.951.951,0,0,1,.845,1.042h0A.951.951,0,0,1,1809.126,2439.9Z" transform="translate(-1770.781 -2394.943)" fill="#eee"/>
        <path id="Path_12306" data-name="Path 12306" d="M2281.582,2671.853a.181.181,0,0,0-.3-.143,3.014,3.014,0,0,1-.542.373l-.284.113q-.283.149-.315-.236a.179.179,0,0,0-.238-.266,1.2,1.2,0,0,1-.821.383,1,1,0,0,1-.286-.1,1.2,1.2,0,0,0,.177-.167.18.18,0,0,0,.01-.18,2.236,2.236,0,0,0-.2-.371,6.8,6.8,0,0,0,1.667-2.62.18.18,0,0,0-.289-.19,5.584,5.584,0,0,0-1.625,1.808,1.315,1.315,0,0,0-.2.824c.005.03.016.059.024.088a5.58,5.58,0,0,1-.552.459,2.948,2.948,0,0,1-.845.439c-.22.069-.551.176-.7-.038.5-.28.9-.677.688-1.171-.323-.743-1.095.378-1.135,1a4.175,4.175,0,0,1-.76.258.179.179,0,0,0,.076.349,5.15,5.15,0,0,0,.767-.262c.424.746,1.763-.017,2.215-.357.135-.1.267-.212.4-.33.1.183.109.153-.147.326a.182.182,0,0,0,.025.329,1.836,1.836,0,0,0,.874.258.971.971,0,0,0,.278-.081.174.174,0,0,0,.072.121,1.476,1.476,0,0,0,1.585-.262,2.387,2.387,0,0,1-.817,1.456,2.692,2.692,0,0,1-2.334.265c-.223-.044-.339.295-.115.339a3.166,3.166,0,0,0,2.551-.233A2.67,2.67,0,0,0,2281.582,2671.853Zm-5.18-.65c.277-.214.088.192-.009.292a1.246,1.246,0,0,1-.207.165A.975.975,0,0,1,2276.4,2671.2Zm2.328-.5a2.638,2.638,0,0,1,.479-.813,5.267,5.267,0,0,1,.638-.7,6.832,6.832,0,0,1-1.139,1.645A1.047,1.047,0,0,1,2278.73,2670.7Z" transform="translate(-2253.895 -2621.468)" fill="#eee"/>
        <path id="Path_12307" data-name="Path 12307" d="M2613.728,2692.449a3.425,3.425,0,1,1,3.92-2.846A3.429,3.429,0,0,1,2613.728,2692.449Zm.957-6.034a2.685,2.685,0,1,0,2.231,3.072A2.687,2.687,0,0,0,2614.686,2686.416Z" transform="translate(-2579.473 -2638.166)" fill="#eee"/>
        <path id="Path_12308" data-name="Path 12308" d="M2676.312,2718.536l-.033.006a8.178,8.178,0,0,0-1.146.275l-.544.177-.522.208a15.058,15.058,0,0,0-1.98.979,16.131,16.131,0,0,0-1.827,1.19c-.329.24-.646.5-.957.76-.177-.163-.359-.321-.549-.474-.254-.222-.542-.42-.821-.624a8.344,8.344,0,0,0-.919-.552l-.03-.015a.07.07,0,0,0-.089.1c.743,1.086,1.509,2.157,2.275,3.227a.129.129,0,0,0,.179.029c1.184-.839,2.362-1.688,3.526-2.556l1.752-1.293c.587-.427,1.158-.875,1.738-1.312a.07.07,0,0,0-.053-.125Z" transform="translate(-2634.351 -2671.59)" fill="#24c1a1"/>
      </g>
    </g>
  </g>
</svg>
