<svg xmlns="http://www.w3.org/2000/svg" width="19" height="19" viewBox="0 0 19 19"><g transform="translate(-132.543 -115.066)"><path d="M2,18a1.03,1.03,0,0,1-1-1.059V11.647H11v5.294A1.031,1.031,0,0,1,10,18ZM1,3.236V1.058A1.031,1.031,0,0,1,2,0h8a1.031,1.031,0,0,1,1,1.058V3.236Z" transform="translate(136.043 115.566)" fill="#919191" stroke="rgba(0,0,0,0)" stroke-width="1"/><path d="M149.443,119.566h-14.8a1.686,1.686,0,0,0-1.6,1.761v7.479a1.685,1.685,0,0,0,1.6,1.76h1.4v-2.2a1.1,1.1,0,0,1,0-2.2h12a1.1,1.1,0,0,1,0,2.2v2.2h1.4a1.686,1.686,0,0,0,1.6-1.76v-7.479A1.687,1.687,0,0,0,149.443,119.566Zm-1.65,4.36h-2.331a.789.789,0,0,1,0-1.571h2.331a.789.789,0,0,1,0,1.571Z" fill="#919191" stroke="rgba(0,0,0,0)" stroke-width="1"/></g></svg>