<svg xmlns="http://www.w3.org/2000/svg" width="34.5" height="33" viewBox="0 0 34.5 33">
  <g id="IDLE" transform="translate(-572 -1155)">
    <path id="Path_2989" data-name="Path 2989" d="M552.76,951.176a16.294,16.294,0,0,0-32.21-1.75c-.987,4.916-2.214,19.807-2.214,19.807s14.811.282,19.779-.194A16.348,16.348,0,0,0,552.76,951.176Z" transform="translate(53.664 218.685)" fill="#b7b7b7"/>
    <path id="Path_2991" data-name="Path 2991" d="M695.462,375.73a13.5,13.5,0,1,1-18.438-4.941h0A13.5,13.5,0,0,1,695.462,375.73Z" transform="translate(-93.773 789.021)" fill="#fff"/>
    <path id="Path_2991-2" data-name="Path 2991" d="M685.666,373.1a8.249,8.249,0,1,1-11.267-3.019h0A8.248,8.248,0,0,1,685.666,373.1Z" transform="translate(-88.523 794.271)" fill="#6c6c6c"/>
    <path id="Path_2991-3" data-name="Path 2991" d="M680.069,371.6a5.249,5.249,0,1,1-7.17-1.921h0A5.249,5.249,0,0,1,680.069,371.6Z" transform="translate(-85.523 797.271)" fill="#b7b7b7"/>
  </g>
</svg>
