<svg id="_2" data-name="2" xmlns="http://www.w3.org/2000/svg" width="44" height="55" viewBox="0 0 44 55">
  <path id="Path_2805" data-name="Path 2805" d="M551.868,162.338a21.953,21.953,0,0,0-17.7,35.01c4.008,5.4,17.741,19.99,17.741,19.99s13.641-14.585,17.649-19.99a21.953,21.953,0,0,0-17.7-35.01Zm0,37.234a15.274,15.274,0,1,1,15.3-15.274A15.288,15.288,0,0,1,551.868,199.572Z" transform="translate(-529.868 -162.338)" fill="#81afff"/>
  <path id="Path_2808" data-name="Path 2808" d="M15.4,0A15.4,15.4,0,1,1,0,15.4,15.4,15.4,0,0,1,15.4,0Z" transform="translate(6.6 6.6)" fill="#fff"/>
  <path id="Path_3002" data-name="Path 3002" d="M11.24-2.64V0H.66V-2.1l5.4-5.1A5.734,5.734,0,0,0,7.22-8.61a2.565,2.565,0,0,0,.3-1.17,1.547,1.547,0,0,0-.57-1.29,2.652,2.652,0,0,0-1.67-.45,3.835,3.835,0,0,0-1.66.35,3.179,3.179,0,0,0-1.24,1.05L.02-11.64a5.536,5.536,0,0,1,2.26-1.91,7.548,7.548,0,0,1,3.3-.69,6.785,6.785,0,0,1,2.73.51,4.208,4.208,0,0,1,1.82,1.44,3.726,3.726,0,0,1,.65,2.19,4.882,4.882,0,0,1-.48,2.14A8.238,8.238,0,0,1,8.44-5.68L5.22-2.64Z" transform="translate(16 29)" fill="#81afff"/>
</svg>
