<svg id="_3-fav" data-name="3-fav" xmlns="http://www.w3.org/2000/svg" width="44" height="55" viewBox="0 0 44 55">
  <path id="Path_2805" data-name="Path 2805" d="M551.868,162.338a21.953,21.953,0,0,0-17.7,35.01c4.008,5.4,17.741,19.99,17.741,19.99s13.641-14.585,17.649-19.99a21.953,21.953,0,0,0-17.7-35.01Zm0,37.234a15.274,15.274,0,1,1,15.3-15.274A15.288,15.288,0,0,1,551.868,199.572Z" transform="translate(-529.868 -162.338)" fill="#4b7ee3"/>
  <path id="Path_2808" data-name="Path 2808" d="M15.4,0A15.4,15.4,0,1,1,0,15.4,15.4,15.4,0,0,1,15.4,0Z" transform="translate(6.6 6.6)" fill="#fff"/>
  <path id="Path_2997" data-name="Path 2997" d="M7.32-8.3a4.713,4.713,0,0,1,2.82,1.37,3.777,3.777,0,0,1,.98,2.65,4.182,4.182,0,0,1-.64,2.25A4.458,4.458,0,0,1,8.53-.38,7.47,7.47,0,0,1,5.32.24,11.011,11.011,0,0,1,2.41-.15,7.5,7.5,0,0,1-.02-1.26L1.24-3.74a6.1,6.1,0,0,0,1.85.93,7.13,7.13,0,0,0,2.15.33,3.408,3.408,0,0,0,1.92-.47,1.51,1.51,0,0,0,.7-1.33Q7.86-6,5.24-6H3.76V-8.14L6.64-11.4H.68V-14h9.8v2.1Z" transform="translate(16 29)" fill="#4b7ee3"/>
  <path id="star" d="M13.321,5.543a.716.716,0,0,0-.611-.509L8.855,4.669,7.331.946a.7.7,0,0,0-1.306,0L4.5,4.669.645,5.034a.718.718,0,0,0-.611.509.763.763,0,0,0,.207.787L3.156,9,2.3,12.947a.757.757,0,0,0,.276.765.684.684,0,0,0,.78.036l3.325-2.074L10,13.748a.685.685,0,0,0,.781-.036.757.757,0,0,0,.276-.765L10.2,9,13.114,6.33a.763.763,0,0,0,.207-.787Zm-6.579,6.09" transform="translate(15.644 34.147)" fill="#fff" stroke="#4b7ee3" stroke-width="1"/>
</svg>
