<svg id="_4-fav" data-name="4-fav" xmlns="http://www.w3.org/2000/svg" width="44" height="55" viewBox="0 0 44 55">
  <path id="Path_2805" data-name="Path 2805" d="M551.868,162.338a21.953,21.953,0,0,0-17.7,35.01c4.008,5.4,17.741,19.99,17.741,19.99s13.641-14.585,17.649-19.99a21.953,21.953,0,0,0-17.7-35.01Zm0,37.234a15.274,15.274,0,1,1,15.3-15.274A15.288,15.288,0,0,1,551.868,199.572Z" transform="translate(-529.868 -162.338)" fill="#4b7ee3"/>
  <path id="Path_2808" data-name="Path 2808" d="M15.4,0A15.4,15.4,0,1,1,0,15.4,15.4,15.4,0,0,1,15.4,0Z" transform="translate(6.6 6.6)" fill="#fff"/>
  <path id="star" d="M13.321,5.543a.716.716,0,0,0-.611-.509L8.855,4.669,7.331.946a.7.7,0,0,0-1.306,0L4.5,4.669.645,5.034a.718.718,0,0,0-.611.509.763.763,0,0,0,.207.787L3.156,9,2.3,12.947a.757.757,0,0,0,.276.765.684.684,0,0,0,.78.036l3.325-2.074L10,13.748a.685.685,0,0,0,.781-.036.757.757,0,0,0,.276-.765L10.2,9,13.114,6.33a.763.763,0,0,0,.207-.787Zm-6.579,6.09" transform="translate(15.644 34.147)" fill="#fff" stroke="#4b7ee3" stroke-width="1"/>
  <path id="Path_5463" data-name="Path 5463" d="M13.6-2.94H11.32V0H8.16V-2.94H.62V-5.12L7.22-14h3.4L4.5-5.58H8.26V-8.2h3.06v2.62H13.6Z" transform="translate(14 29)" fill="#4b7ee3"/>
</svg>
