<svg id="_5-fav" data-name="5-fav" xmlns="http://www.w3.org/2000/svg" width="44" height="55" viewBox="0 0 44 55">
  <path id="Path_2805" data-name="Path 2805" d="M551.868,162.338a21.953,21.953,0,0,0-17.7,35.01c4.008,5.4,17.741,19.99,17.741,19.99s13.641-14.585,17.649-19.99a21.953,21.953,0,0,0-17.7-35.01Zm0,37.234a15.274,15.274,0,1,1,15.3-15.274A15.288,15.288,0,0,1,551.868,199.572Z" transform="translate(-529.868 -162.338)" fill="#5673aa"/>
  <path id="Path_2808" data-name="Path 2808" d="M15.4,0A15.4,15.4,0,1,1,0,15.4,15.4,15.4,0,0,1,15.4,0Z" transform="translate(6.6 6.6)" fill="#fff"/>
  <path id="star" d="M13.321,5.543a.716.716,0,0,0-.611-.509L8.855,4.669,7.331.946a.7.7,0,0,0-1.306,0L4.5,4.669.645,5.034a.718.718,0,0,0-.611.509.763.763,0,0,0,.207.787L3.156,9,2.3,12.947a.757.757,0,0,0,.276.765.684.684,0,0,0,.78.036l3.325-2.074L10,13.748a.685.685,0,0,0,.781-.036.757.757,0,0,0,.276-.765L10.2,9,13.114,6.33a.763.763,0,0,0,.207-.787Zm-6.579,6.09" transform="translate(15.644 34.147)" fill="#fff" stroke="#5673aa" stroke-width="1"/>
  <path id="Path_5466" data-name="Path 5466" d="M5.58-8.74A6.723,6.723,0,0,1,9.95-7.56,3.91,3.91,0,0,1,11.36-4.4a4.39,4.39,0,0,1-.64,2.33A4.47,4.47,0,0,1,8.77-.39,7.42,7.42,0,0,1,5.54.24,11.011,11.011,0,0,1,2.63-.15,7.5,7.5,0,0,1,.2-1.26L1.48-3.74a6.126,6.126,0,0,0,1.84.93,7.034,7.034,0,0,0,2.14.33,3.353,3.353,0,0,0,1.92-.48,1.535,1.535,0,0,0,.7-1.34,1.506,1.506,0,0,0-.73-1.36,5.038,5.038,0,0,0-2.53-.46H1.24L1.96-14H10.5v2.6H4.66L4.44-8.74Z" transform="translate(15.8 29)" fill="#5673aa"/>
</svg>
