<svg xmlns="http://www.w3.org/2000/svg" width="44" height="55" viewBox="0 0 44 55"><defs><style>.a{fill:#a3b5d4;}.b{fill:#fff;}</style></defs><path class="a" d="M551.868,162.338a21.953,21.953,0,0,0-17.7,35.01c4.008,5.4,17.741,19.99,17.741,19.99s13.641-14.585,17.649-19.99a21.953,21.953,0,0,0-17.7-35.01Zm0,37.234a15.274,15.274,0,1,1,15.3-15.274A15.288,15.288,0,0,1,551.868,199.572Z" transform="translate(-529.868 -162.338)"/><path class="b" d="M15.4,0A15.4,15.4,0,1,1,0,15.4,15.4,15.4,0,0,1,15.4,0Z" transform="translate(6.6 6.6)"/></svg>