<svg xmlns="http://www.w3.org/2000/svg" width="65.083" height="27.998" viewBox="0 0 65.083 27.998">
  <g id="Truck3" transform="translate(-0.004 -0.003)">
    <path id="Path_1229" data-name="Path 1229" d="M-2229.66-492.679h37.611a.347.347,0,0,0,.346-.347V-509.81a2.7,2.7,0,0,0-2.7-2.7h-35.254a2.7,2.7,0,0,0-2.7,2.7v14.426a2.7,2.7,0,0,0,2.7,2.7Z" transform="translate(2232.823 512.513)" fill="#ef7f7f"/>
    <path id="Path_1230" data-name="Path 1230" d="M-2222.04-493.071h-10.007a.136.136,0,0,1-.134-.136.133.133,0,0,0-.134-.131h-.345a.134.134,0,0,0-.133.134v2.98a.437.437,0,0,0,.128.31.437.437,0,0,0,.309.128h8.8a4.422,4.422,0,0,1,.069-.778A4.2,4.2,0,0,1-2222.04-493.071Z" transform="translate(2232.797 513.613)" fill="#ef7f7f"/>
    <path id="Path_1231" data-name="Path 1231" d="M-2219.39-493.339a3.919,3.919,0,0,0-3.974,3.863,3.92,3.92,0,0,0,3.974,3.864,3.919,3.919,0,0,0,3.973-3.864,3.919,3.919,0,0,0-3.972-3.863Z" transform="translate(2233.34 513.613)" fill="#ef7f7f"/>
    <path id="Path_1232" data-name="Path 1232" d="M-2180.12-493.339a3.918,3.918,0,0,0-3.973,3.863,3.92,3.92,0,0,0,3.973,3.864,3.92,3.92,0,0,0,3.974-3.864,3.92,3.92,0,0,0-3.974-3.863Z" transform="translate(2235.591 513.613)" fill="#ef7f7f"/>
    <path id="Path_1233" data-name="Path 1233" d="M-2168.64-490.635l-.017-.353h.008s-.16-2.541-.465-4.211a2.738,2.738,0,0,0-1.665-2.123,85.2,85.2,0,0,0-8.708-2.54s-.342.2-.857-.741h0l-.508-1.128-1.251-2.725-.207-.448a.839.839,0,0,0-.762-.489h-7.509a1.306,1.306,0,0,0-1.306,1.306v11.707h-24.745a4.209,4.209,0,0,1,1.445,2.5,4.492,4.492,0,0,1,.068.778h13.2a7.087,7.087,0,0,1,.011.745h.768a3.954,3.954,0,0,0-.01-1.131h1.138V-488a.421.421,0,0,0,0,.043.676.676,0,0,0,.673.615h16.584a4.813,4.813,0,0,1-.266-1.583,4.776,4.776,0,0,1,4.765-4.787,4.765,4.765,0,0,1,4.3,2.724h0l.051.113c.014.03.026.059.039.089.019.047.04.094.058.142h0v.013a1.369,1.369,0,0,1,.061.168h0a7.293,7.293,0,0,1,.25,1.64,19.148,19.148,0,0,1,0,2.111v.018h.163c2.977-.054,3.641-.65,4.239-1.1a1.15,1.15,0,0,0,.455-.917v-1.922Zm-19.713-8.976a1.026,1.026,0,0,1-.906-1.006V-503.8a.566.566,0,0,1,.175-.4.565.565,0,0,1,.408-.156l4.822.061a.965.965,0,0,1,.863.547l2.081,4.708Zm17.315,3.794a2.241,2.241,0,0,1,1.181,1.9,11.534,11.534,0,0,0-2.946-2.037c-1.4-.722-1.476-1.314-1.476-1.314s2.039.806,3.239,1.451Z" transform="translate(2233.726 512.921)" fill="#ef7f7f"/>
  </g>
</svg>
