<svg xmlns="http://www.w3.org/2000/svg" width="35.239" height="16" viewBox="0 0 35.239 16"><defs><style>.a{fill:#fff;}</style></defs><path class="a" d="M246.766,522.153h-.22a1.242,1.242,0,0,0-1.229-1.09v.3a.943.943,0,0,1,.928.789h-.189a.251.251,0,0,0-.251.251v1.875a.251.251,0,0,0,.251.251h.188a.944.944,0,0,1-.927.777v.3a1.242,1.242,0,0,0,1.228-1.078h.221a.251.251,0,0,0,.251-.251V522.4A.251.251,0,0,0,246.766,522.153Z" transform="translate(-216.615 -519.223)"/><path class="a" d="M1.285,0H27.176a1.285,1.285,0,0,1,1.285,1.285H0A1.285,1.285,0,0,1,1.285,0Z" transform="translate(0 0)"/><path class="a" d="M2.1,0A2.1,2.1,0,1,1,0,2.1,2.1,2.1,0,0,1,2.1,0Z" transform="matrix(0.526, -0.851, 0.851, 0.526, 27.302, 13.79)"/><path class="a" d="M165.109,526.946h-.116l-.013,0h-.1v-.182h0v-.075c0-.006,0-.012,0-.019v-.041h0a1.011,1.011,0,0,0-1.008-.954h-4.346V520.31H131.049v11.87h3.893a2.719,2.719,0,1,1,5.367,0h9.554v.556a.264.264,0,0,0,.265.264h5.92a.264.264,0,0,0,.265-.264v-.556h2.232a2.734,2.734,0,1,1,5.4,0h1.765a.579.579,0,0,0,.579-.579v-3.475A1.179,1.179,0,0,0,165.109,526.946Zm-27.788-2.463a.243.243,0,0,1-.243.243H131.8a.243.243,0,0,1-.243-.243v-3.425a.243.243,0,0,1,.243-.243h5.281a.243.243,0,0,1,.243.243Zm6.271,0a.243.243,0,0,1-.243.243h-5.2a.243.243,0,0,1-.243-.243v-3.425a.243.243,0,0,1,.243-.243h5.2a.243.243,0,0,1,.243.243Zm6.271,0a.243.243,0,0,1-.243.243H144.34a.243.243,0,0,1-.243-.243v-3.425a.243.243,0,0,1,.243-.243h5.281a.243.243,0,0,1,.243.243Zm3.45-3.425a.243.243,0,0,1,.243-.243h2.008a.243.243,0,0,1,.243.243v3.425a.243.243,0,0,1-.243.243h-2.008a.243.243,0,0,1-.243-.243Zm-.505,10.464a.243.243,0,0,1-.243.243h-2.029a.243.243,0,0,1-.243-.243v-6.048a.243.243,0,0,1,.243-.243h2.029a.243.243,0,0,1,.243.243Zm0-7.039a.243.243,0,0,1-.243.243h-1.954a.243.243,0,0,1-.243-.243v-3.425a.243.243,0,0,1,.243-.243h1.954a.243.243,0,0,1,.243.243Zm3.037,7.039a.243.243,0,0,1-.243.243h-2.046a.243.243,0,0,1-.243-.243v-6.048a.243.243,0,0,1,.243-.243H155.6a.243.243,0,0,1,.243.243ZM159,524.484a.243.243,0,0,1-.243.243h-2.206a.243.243,0,0,1-.243-.243v-3.425a.243.243,0,0,1,.243-.243h2.206a.243.243,0,0,1,.243.243Zm6.322,5.457c-.116,0-.211-.439-.211-.981s.094-.982.211-.982.211.44.211.982S165.442,529.941,165.325,529.941Z" transform="translate(-131.049 -518.659)"/><path class="a" d="M2.1,0A2.1,2.1,0,1,1,0,2.1,2.1,2.1,0,0,1,2.1,0Z" transform="matrix(0.526, -0.851, 0.851, 0.526, 3.684, 13.79)"/></svg>