<svg xmlns="http://www.w3.org/2000/svg" width="33.51" height="12.004" viewBox="0 0 33.51 12.004"><defs><style>.a{fill:#fff;}</style></defs><g transform="translate(0)"><path class="a" d="M1,0H5.264a1,1,0,0,1,1,1V5.864a1,1,0,0,1-1,1H1a1,1,0,0,1-1-1V1A1,1,0,0,1,1,0Z" transform="translate(12.143 1.004)"/><path class="a" d="M2.1,0A2.1,2.1,0,1,1,0,2.1,2.1,2.1,0,0,1,2.1,0Z" transform="translate(27.502 7.808)"/><path class="a" d="M-697.972,4114.479h0v0a1.745,1.745,0,0,0-.691-.972l-.005,0-.026-.012v-2.934a.686.686,0,0,0-.043-.237.914.914,0,0,0-.874-.63h-7.621a.057.057,0,0,1-.055-.043l-.487-2.379a.72.72,0,0,0-.708-.571h-3a.968.968,0,0,0-.975.961v6.271a.056.056,0,0,1-.057.056h-7.353a.058.058,0,0,1-.055-.043l-1.684-7.593a.057.057,0,0,1,.009-.043.061.061,0,0,1,.038-.023l.016,0h19.559a.3.3,0,0,0,.3-.3.308.308,0,0,0-.3-.3h-20.9a.056.056,0,0,0-.057.056v.088a.057.057,0,0,1-.048.055l-8.057,1.145a.3.3,0,0,0-.2.118.3.3,0,0,0-.057.226.3.3,0,0,0,.119.2.306.306,0,0,0,.229.056l3.252-.461a.058.058,0,0,1,.052.021.056.056,0,0,1,.009.055l-2.652,6.719a.055.055,0,0,1-.053.036h-.2v.036a.054.054,0,0,0,0,.02v.491a.047.047,0,0,0,0,.019v2.346a.3.3,0,0,0,.3.3.3.3,0,0,0,.3-.3v-2.31h.853a2,2,0,0,0-.3,1.051,2.051,2.051,0,0,0,2.065,2.036,2.051,2.051,0,0,0,2.065-2.036,2,2,0,0,0-.3-1.051h1.151a2.005,2.005,0,0,0-.3,1.051,2.051,2.051,0,0,0,2.066,2.036,2.051,2.051,0,0,0,2.065-2.036,2,2,0,0,0-.3-1.051h1.48v.025a.244.244,0,0,0-.1.207v2.26a.212.212,0,0,0,.185.232h6.014a.212.212,0,0,0,.185-.232v-.4a.055.055,0,0,1,.017-.04.051.051,0,0,1,.04-.016h.914a.051.051,0,0,1,.04.016.055.055,0,0,1,.017.04v.4a.212.212,0,0,0,.185.232h3.884a.212.212,0,0,0,.185-.232v-1.335a.056.056,0,0,1,.057-.055h3v-.021a2.868,2.868,0,0,1,2.963-2.761,3.113,3.113,0,0,1,1.467.363,2.733,2.733,0,0,1,1.495,2.4,2.61,2.61,0,0,1-.021.331,2.588,2.588,0,0,1-.085.4.232.232,0,0,0,.039.206.241.241,0,0,0,.191.094.757.757,0,0,0,.653-.371,1.6,1.6,0,0,0,.259-.964,2.342,2.342,0,0,0-.164-.9Zm-22.642-.5h-.814a2.067,2.067,0,0,0-1.2-.381,2.068,2.068,0,0,0-1.2.381h-2.283a2.066,2.066,0,0,0-1.2-.381,2.067,2.067,0,0,0-1.2.381h-1.055a.058.058,0,0,1-.047-.024.057.057,0,0,1-.006-.052l2.7-6.836a.056.056,0,0,1,.044-.035l4.6-.654a.057.057,0,0,1,.063.043l1.661,7.49a.056.056,0,0,1-.012.045.056.056,0,0,1-.043.021Zm12.425-4.293h-2.856a.163.163,0,0,1-.164-.163v-1.679a.293.293,0,0,1,.088-.209.3.3,0,0,1,.212-.086h2.264a.229.229,0,0,1,.218.156l.4,1.784a.161.161,0,0,1-.032.135.167.167,0,0,1-.126.062Z" transform="translate(731.316 -4105.678)"/></g></svg>