<svg xmlns="http://www.w3.org/2000/svg" width="50.331" height="19" viewBox="0 0 50.331 19">
  <g id="Group_1915" data-name="Group 1915" transform="translate(-0.017 0)">
    <g id="Group_2184" data-name="Group 2184" transform="translate(7.085 11.991)">
      <path id="Path_1240" data-name="Path 1240" d="M-2222.85-461.015a3.5,3.5,0,0,0-3.5,3.5c0,.041,0,.082,0,.123a3.5,3.5,0,0,0,3.5,3.382,3.5,3.5,0,0,0,3.5-3.381v-.123a3.5,3.5,0,0,0-3.5-3.5Z" transform="translate(2226.354 461.015)" fill="#4c83e2"/>
      <path id="Path_1241" data-name="Path 1241" d="M-2183.63-461.015a3.5,3.5,0,0,0-3.5,3.5v.123a3.505,3.505,0,0,0,3.5,3.382,3.505,3.505,0,0,0,3.5-3.381v-.123a3.5,3.5,0,0,0-3.5-3.5Z" transform="translate(2218.572 461.015)" fill="#4c83e2"/>
    </g>
    <path id="Path_1242" data-name="Path 1242" d="M-2185.06-464.086h-.882l.005-.068a7.5,7.5,0,0,0-.464-3.393.653.653,0,0,0-.089-.1s-1.08-1.73-5.708-2.076a1.364,1.364,0,0,1-.442.167s-4.9-4.474-6.4-5.4l-.035-.021a12.916,12.916,0,0,0-3.643-.668s-14.255-.567-28.613-.218h0l-.339.008a.8.8,0,0,0-.679.407l-.037.068-.015.029-.024.044-.02.035-.022.043-.021.039-.024.048-.024.049-.038.075-.022.045-.024.05-.024.052-.023.051-.024.054-.027.056-.024.053c-.015.035-.032.068-.046.106l-.022.05-.029.068-.024.057-.028.068-.024.059-.031.076-.022.056c-.015.04-.031.081-.047.123l-.016.043c-.014.036-.027.072-.041.109l-.02.056-.034.094-.021.06c-.011.033-.023.068-.034.1l-.018.054c-.016.046-.031.093-.047.141l-.006.019c-.018.055-.035.11-.053.166l-.014.045c-.013.043-.027.085-.039.128l-.017.056c-.012.043-.023.085-.037.128l-.014.052c-.014.053-.029.106-.043.159l-.007.024c-.018.064-.033.129-.05.195l-.006.023c-.014.057-.028.114-.042.172l-.012.049-.036.157-.01.05c-.014.059-.027.119-.039.18l-.005.027c-.015.068-.029.14-.043.211h0l0,.02c-.014.076-.029.154-.042.233l-.011.071c-.012.068-.024.141-.035.212v.007h0l0,.032c-.009.059-.018.119-.027.18-.007.044-.012.088-.019.132s-.01.068-.014.105q-.01.087-.022.175l-.009.074c-.01.084-.018.169-.027.255l-.006.059h0a51.91,51.91,0,0,0-.233,6.785h-.5a.5.5,0,0,0-.5.5v1.282a1.4,1.4,0,0,0,1.394,1.394h4.872v-.381h-.006a4.515,4.515,0,0,1,4.4-4.6,4.514,4.514,0,0,1,4.4,4.6v.381h22.626v-.381h.01a4.515,4.515,0,0,1,4.4-4.6,4.246,4.246,0,0,1,2.569.867,4.677,4.677,0,0,1,1.832,3.505c0,.083.007.166.007.248,0,.12,0,.239-.013.358h1.565a2.261,2.261,0,0,0,2.261-2.261v-1.668a.2.2,0,0,0-.072-.135A.2.2,0,0,0-2185.06-464.086Zm-19.369-5.441a.727.727,0,0,1-.151-.015.747.747,0,0,1-.14-.043.794.794,0,0,1-.127-.068.783.783,0,0,1-.111-.092.745.745,0,0,1-.219-.528h0v-3.955h0a.5.5,0,0,1,.149-.358.478.478,0,0,1,.116-.088.465.465,0,0,1,.092-.039.51.51,0,0,1,.15-.022h2.07a6.027,6.027,0,0,1,1.985.323c.078.026.151.054.221.081.105.043.2.084.288.126a3.351,3.351,0,0,1,.619.364c.241.178.486.37.728.569l.1.086c.068.058.136.115.208.174.035.029.068.058.1.088l.2.177c.307.267.61.543.9.81l.189.178.094.088.183.175c.15.145.3.286.433.422l.241.24.151.152c.049.05.1.1.144.147.117.119.225.23.324.333l.113.118c.326.339.518.552.518.552Zm16.374,2.457a.328.328,0,0,1,.081-.257.328.328,0,0,1,.246-.11h1.242a3.831,3.831,0,0,1,.309,1.052h-1.8Zm2,2.3a.109.109,0,0,1-.109.108h-1.654a.108.108,0,0,1-.108-.108v-.372a.108.108,0,0,1,.108-.108h1.654a.109.109,0,0,1,.109.108Z" transform="translate(2235.188 475.974)" fill="#4c83e2"/>
  </g>
</svg>
