<svg xmlns="http://www.w3.org/2000/svg" width="66.875" height="31.945" viewBox="0 0 66.875 31.945">
  <g id="Truck" transform="translate(0 -0.01)">
    <path id="Path_1217" data-name="Path 1217" d="M-2180.233-577.869a4.194,4.194,0,0,0-4.253,4.134,4.194,4.194,0,0,0,4.253,4.134,4.194,4.194,0,0,0,4.251-4.134,4.2,4.2,0,0,0-4.251-4.134Z" transform="translate(2236.086 601.557)" fill="#ffaf47"/>
    <path id="Path_1218" data-name="Path 1218" d="M-2166.294-573.949l-.058-.044a.153.153,0,0,0,.048-.122c-.043-.616-.21-2.817-.487-4.337a2.93,2.93,0,0,0-1.781-2.272,83.008,83.008,0,0,0-10.044-2.715.108.108,0,0,0-.027,0,.937.937,0,0,1-.821-.607h0l-1.8-4.008a.156.156,0,0,1,.009-.146.155.155,0,0,1,.126-.074l.163-.007h.756c.329,0,.571-.136.5-.382h.012l-.045-.08a.342.342,0,0,0-.023-.041,11.455,11.455,0,0,0-1.712-2.453l-.022-.013-1.738-.8a.15.15,0,0,1-.057-.045c-.329-.415-4.313-5.167-15.873-6.6a.17.17,0,0,1-.069-.025,4.947,4.947,0,0,0-2.321-.633h0c-.354-.018-.685-.03-.987-.038h-.217c-.525-.009-.929,0-1.134,0a.154.154,0,0,0-.152.155v22.475h0a2.5,2.5,0,0,1-.425,1.282.153.153,0,0,1-.114.054h-9.161a.155.155,0,0,0-.145.1.156.156,0,0,0,.046.172,4.681,4.681,0,0,1,1.567,2.494.155.155,0,0,0,.152.114.154.154,0,0,1,.11.046.155.155,0,0,1,.045.11v3.794a.154.154,0,0,0,.046.11.155.155,0,0,0,.11.045h29.249a.805.805,0,0,0,.666-.405.8.8,0,0,0,.01-.779l-.217-.4-.01-.024a5.122,5.122,0,0,1-.281-1.68,5.111,5.111,0,0,1,5.1-5.122,5.1,5.1,0,0,1,4.565,2.827.153.153,0,0,0,.133.087h-.092c.02.041.037.081.055.122s.027.063.041.095c.022.049.041.1.062.152h0v.01a1.421,1.421,0,0,1,.064.179h0a7.711,7.711,0,0,1,.266,1.754,20.088,20.088,0,0,1,0,2.259v.018h.175c3.188-.056,4.632-.7,5.272-1.179a1.231,1.231,0,0,0,.488-.981Zm-14.116-8.633-7.707-.6a1.093,1.093,0,0,1-.968-1.074v-3.4a.607.607,0,0,1,.186-.428.606.606,0,0,1,.435-.169l5.161.067a1.035,1.035,0,0,1,.924.584l2.121,4.8a.155.155,0,0,1-.012.148.155.155,0,0,1-.132.07Zm7.533,2.254a.156.156,0,0,1,0-.181.156.156,0,0,1,.172-.058,27.926,27.926,0,0,1,3.86,1.451,2.364,2.364,0,0,1,1.213,1.62.156.156,0,0,1-.067.162.156.156,0,0,1-.175,0,40.473,40.473,0,0,0-3.595-1.928,3.914,3.914,0,0,1-1.41-1.058Z" transform="translate(2233.151 599.41)" fill="#ffaf47"/>
    <path id="Path_1219" data-name="Path 1219" d="M-2216.324-577.869a4.193,4.193,0,0,0-4.252,4.134,4.193,4.193,0,0,0,4.251,4.134,4.194,4.194,0,0,0,4.251-4.134,4.2,4.2,0,0,0-4.251-4.134Z" transform="translate(2232.486 601.557)" fill="#ffaf47"/>
    <path id="Path_1220" data-name="Path 1220" d="M-2224.181-577.583a4.344,4.344,0,0,0-1.557-.287,4.355,4.355,0,0,0-1.558.286,4.138,4.138,0,0,0-2.694,3.847,4.194,4.194,0,0,0,4.252,4.134,4.194,4.194,0,0,0,4.251-4.134,4.137,4.137,0,0,0-2.695-3.847Z" transform="translate(2231.549 601.557)" fill="#ffaf47"/>
    <path id="Path_1221" data-name="Path 1221" d="M-2218.794-577.511h-1.728l1.881-.42a.342.342,0,0,0,.267-.3.282.282,0,0,0-.009-.1.343.343,0,0,0-.412-.252l-4.5,1.005-.3.068a4.7,4.7,0,0,1,1.958,2.884h.894a4.7,4.7,0,0,1,1.958-2.884Z" transform="translate(2232.184 601.484)" fill="#ffaf47"/>
    <path id="Path_1222" data-name="Path 1222" d="M-2228.375-577.609h-1.89l-1.141.772v4.185l.517.442v-.1a12.554,12.554,0,0,1,.562-2.417,1.342,1.342,0,0,0,.078-.308,4.7,4.7,0,0,1,1.875-2.575Z" transform="translate(2231.406 601.582)" fill="#ffaf47"/>
  </g>
</svg>
