<svg xmlns="http://www.w3.org/2000/svg" width="66.875" height="28.003" viewBox="0 0 66.875 28.003">
  <g id="Group_1916" data-name="Group 1916" transform="translate(-0.005 0.003)">
    <path id="Path_1234" data-name="Path 1234" d="M-2210.29-556.444l-.508-.419a.4.4,0,0,0-.431-.059.4.4,0,0,0-.229.37v.722a1.473,1.473,0,0,0,.449,1.03.451.451,0,0,1,.129.316v22.058a.668.668,0,0,0,.642.675.654.654,0,0,0,.47-.187.654.654,0,0,0,.2-.466v-22.519a1.973,1.973,0,0,0-.716-1.521Z" transform="translate(2251.567 556.957)" fill="#eec860"/>
    <path id="Path_1235" data-name="Path 1235" d="M-2184.6-534.284v-.007a3,3,0,0,0-1.183-1.686l-1-.457V-541.2a1.019,1.019,0,0,0-.211-.608,1.017,1.017,0,0,1,.211.608v4.763l1,.457h.494a.486.486,0,0,0,.344-.143.486.486,0,0,0,.142-.344v-.454a.55.55,0,0,0-.359-.517l-.67-.249v-3.392a1.2,1.2,0,0,0-1.2-1.2h-11.23v-.07a.227.227,0,0,0-.227-.227h-2.228a.226.226,0,0,0-.16.067.226.226,0,0,0-.066.16v4.683a.226.226,0,0,0,.226.226h2.228a.228.228,0,0,0,.222-.18.228.228,0,0,1-.222.18h-2.228a.227.227,0,0,1-.227-.226v-4.683a.227.227,0,0,1,.227-.227h.25l-.846-4.193a1.233,1.233,0,0,0-1.208-.989h-5.216a1.567,1.567,0,0,0-1.567,1.567V-532.2h0a.333.333,0,0,0,.333.333h.333v.645a.4.4,0,0,0,.4.4h8.431a.4.4,0,0,0,.4-.4v-.978h3.222v-.036a4.919,4.919,0,0,1,5.052-4.775,5.243,5.243,0,0,1,2.5.627,4.733,4.733,0,0,1,2.549,4.148,4.573,4.573,0,0,1-.036.572,4.607,4.607,0,0,1-.179.811.313.313,0,0,0,.045.281.312.312,0,0,0,.254.127h.227a1.194,1.194,0,0,0,1.194-1.194v-2.517a.457.457,0,0,0-.022-.128Zm-22.573-11.573a.415.415,0,0,1,.415-.415h3.959a.393.393,0,0,1,.373.27l.752,3.522-5.5-.25Z" transform="translate(2251.458 556.487)" fill="#eec860"/>
    <path id="Path_1236" data-name="Path 1236" d="M-2213.66-543.525l-3.213-.042,2.911-6.416a.276.276,0,0,0-.019-.264.276.276,0,0,0-.233-.126h-1.582a.277.277,0,0,0-.276.276h0v.9l-4.485,5.577,1,.013-3.953-.052,2.224-3.151a.146.146,0,0,0,.017-.146.146.146,0,0,0-.117-.087H-2227a.47.47,0,0,0-.363.18l-.35.428-8.6-1.119a3.463,3.463,0,0,0-3.508-3.34,3.5,3.5,0,0,0-3.365,2.443c-3.114-.407-5.586-.732-6.146-.811v-.13h-.552l-.3.328-.673-.182a.94.94,0,0,0-.688.071.912.912,0,0,0-.48.8v1.491h.039v.711h-.3a1.448,1.448,0,0,0-.77.213,1.413,1.413,0,0,0-.665,1.2v11.3a.362.362,0,0,0,.334.384,1.175,1.175,0,0,0,1.175-1.175v-6.2h.027a3.229,3.229,0,0,0,1.549-.42h0a3.226,3.226,0,0,0,1.444-1.709l.134-.367a3.233,3.233,0,0,0-.256-2.747l-.057-.1v-.877l2.289.488a1.592,1.592,0,0,0,1.129.963l5.462,1.234a.3.3,0,0,0,.277-.085l.067-.009.908.575-.031.064a.25.25,0,0,0,.086.317l3,1.981a.5.5,0,0,0,.593-.029h0a.5.5,0,0,0,.185-.414.5.5,0,0,0-.225-.393l-3.042-2.02a.249.249,0,0,0-.2-.035.249.249,0,0,0-.159.119l-.259-.189a3.566,3.566,0,0,0,1.309-.467l2.262.449a.954.954,0,0,0,.127.724.955.955,0,0,0,.6.419l1.581.339a.946.946,0,0,0,.607-.069l1.036-.489.262.066-1.47,1.9h0l-.577.612h-16.356l-2.2,1.021v5.365a.967.967,0,0,0,.967.968h0l1.121-3.194a1.366,1.366,0,0,1,1.289-.913h3.1a1.364,1.364,0,0,1,1.21.734l.441.845a.646.646,0,0,0,.575.348h1.4a.648.648,0,0,0,.563-.328l.427-.755a1.366,1.366,0,0,1,1.188-.693h3.236a1.365,1.365,0,0,1,1.21.733l2.332,4.461h19.866V-543.04A.488.488,0,0,0-2213.66-543.525Zm-37.043-2.859a1.672,1.672,0,0,1-.41,1.1h0a.594.594,0,0,1-.594-.594v-.283h-.117v-.711h.034v-.936a.567.567,0,0,1,.532-.17.567.567,0,0,1,.419.37l.135.39Zm4.03-1.975-.129.213-2.533-.684v-.207l.108.015.722.1,2.572.341,2.687.352a3.31,3.31,0,0,0-.074.464Zm10.228,1.8a3.233,3.233,0,0,0,.126-.772l8.441,1.1-.364.446h-2.325a.438.438,0,0,0-.28.1l-.108.09Z" transform="translate(2253.727 556.647)" fill="#eec860"/>
    <rect id="Rectangle_1320" data-name="Rectangle 1320" width="4.648" height="1.396" transform="translate(23 8.153)" fill="#eec860"/>
    <path id="Path_1237" data-name="Path 1237" d="M-2190.37-535.342a3.8,3.8,0,0,0-3.852,3.744,3.635,3.635,0,0,0,.04.54,3.819,3.819,0,0,0,3.812,3.2,3.868,3.868,0,0,0,3.384-1.954,3.653,3.653,0,0,0,.468-1.792A3.8,3.8,0,0,0-2190.37-535.342Z" transform="translate(2250.688 555.853)" fill="#eec860"/>
    <path id="Path_1238" data-name="Path 1238" d="M-2237.67-535.342a3.8,3.8,0,0,0-3.853,3.744,3.8,3.8,0,0,0,3.853,3.745,3.8,3.8,0,0,0,3.852-3.745,3.8,3.8,0,0,0-3.852-3.744Z" transform="translate(2253.104 555.853)" fill="#eec860"/>
    <path id="Path_1239" data-name="Path 1239" d="M-2246.63-535.342a3.8,3.8,0,0,0-3.852,3.744,3.8,3.8,0,0,0,3.852,3.745,3.8,3.8,0,0,0,3.852-3.745A3.8,3.8,0,0,0-2246.63-535.342Z" transform="translate(2253.561 555.853)" fill="#eec860"/>
  </g>
</svg>
