<svg xmlns="http://www.w3.org/2000/svg" width="50.484" height="27.996" viewBox="0 0 50.484 27.996"><defs><style>.a{fill:#fff;}</style></defs><g transform="translate(-0.003 -0.005)"><path class="a" d="M-2229.84-614.284a4.114,4.114,0,0,1,1.683-2.39h-1.657l-1.007.678v3.672l.453.387v-.012l.009.008Z" transform="translate(2230.824 637.671)"/><path class="a" d="M-2217.72-616.845h-1.517l1.651-.369a.3.3,0,0,0,.234-.267.255.255,0,0,0-.008-.086.3.3,0,0,0-.362-.221l-3.951.882-.268.06a4.12,4.12,0,0,1,1.718,2.53h.785A4.113,4.113,0,0,1-2217.72-616.845Z" transform="translate(2229.469 637.848)"/><path class="a" d="M-2201.61-641.453c-.311-.016-.6-.026-.866-.032h-.211a1.09,1.09,0,0,0-.782.312,1.09,1.09,0,0,0-.326.777v17.268a1.849,1.849,0,0,0,1.664,1.685v.014h.253v.946h-9.337a4.109,4.109,0,0,1,1.717,2.527h.267q.026.163.04.327a7.679,7.679,0,0,1,.026.924h.721a3.74,3.74,0,0,0-.009-1.061h1.068v1.39a.329.329,0,0,0,.333.325c.686,0,2.19.008,2.2,0a2.038,2.038,0,0,1,0,.294h13.668a4.477,4.477,0,0,1-.251-1.484,4.481,4.481,0,0,1,4.474-4.488,4.474,4.474,0,0,1,4.038,2.554l.048.107c.013.027.024.055.036.083.019.044.037.088.054.133h0v.013a1.627,1.627,0,0,1,.056.157h0a6.8,6.8,0,0,1,.235,1.538,17.957,17.957,0,0,1,0,1.979v.017h.153c2.8-.05,4.063-.609,4.625-1.033a1.08,1.08,0,0,0,.427-.859v-1.8l-.032-.332h.015s-.151-2.382-.437-3.948a2.567,2.567,0,0,0-1.562-1.991,73.316,73.316,0,0,0-8.822-2.383h0l-2.386-4.206.883-.036h.115c.392,0,.651-.22.254-.61l-.414-.39a2.366,2.366,0,0,0-.758-.48,2.425,2.425,0,0,0-.887-.168l-.538-.8c-2.806-5.434-4.7-6.217-4.7-6.217a12.833,12.833,0,0,0-5.056-1.044m5.167,14.186a.96.96,0,0,1-.85-.942v-2.982a.531.531,0,0,1,.164-.376.531.531,0,0,1,.383-.147l4.528.058a.907.907,0,0,1,.81.512l1.954,4.416Zm18.011,5.336a20.257,20.257,0,0,0-3.411-1.909c-1.319-.677-1.386-1.232-1.386-1.232a27.513,27.513,0,0,1,3.687,1.364,2.1,2.1,0,0,1,1.116,1.769Z" transform="translate(2227.775 641.49)"/><path class="a" d="M-2183.26-616.97a3.679,3.679,0,0,0-3.73,3.626,3.68,3.68,0,0,0,3.73,3.628,3.681,3.681,0,0,0,3.73-3.628,3.68,3.68,0,0,0-3.73-3.626Z" transform="translate(2224.08 637.716)"/><path class="a" d="M-2214.76-616.97a3.679,3.679,0,0,0-3.73,3.626,3.68,3.68,0,0,0,3.73,3.628,3.68,3.68,0,0,0,3.729-3.628A3.679,3.679,0,0,0-2214.76-616.97Z" transform="translate(2228.929 637.716)"/><path class="a" d="M-2224.12-616.719a3.818,3.818,0,0,0-1.366-.251,3.812,3.812,0,0,0-1.366.251,3.631,3.631,0,0,0-2.364,3.375,3.681,3.681,0,0,0,3.73,3.628,3.68,3.68,0,0,0,3.73-3.628,3.631,3.631,0,0,0-2.364-3.375Z" transform="translate(2230.58 637.716)"/></g></svg>
