<svg xmlns="http://www.w3.org/2000/svg" width="66.875" height="24.303" viewBox="0 0 66.875 24.303"><defs><style>.a{fill:#fff;}</style></defs><g transform="translate(731.316 -4105.679)"><rect class="a" width="12.761" height="13.985" rx="4.214" transform="translate(-707.199 4107.725)"/><circle class="a" cx="4.274" cy="4.274" r="4.274" transform="translate(-676.682 4121.434)"/><path class="a" d="M-664.773,4123.5h0v-.006a3.539,3.539,0,0,0-1.38-1.97l-.01-.006-.052-.024v-5.939a1.4,1.4,0,0,0-.087-.479,1.828,1.828,0,0,0-1.744-1.274h-15.209a.113.113,0,0,1-.11-.087l-.972-4.818a1.443,1.443,0,0,0-1.413-1.156h-5.994a1.946,1.946,0,0,0-1.946,1.947v12.7a.113.113,0,0,1-.113.113h-14.674a.114.114,0,0,1-.11-.087l-3.361-15.372a.113.113,0,0,1,.018-.088.114.114,0,0,1,.076-.047l.031,0h39.033a.607.607,0,0,0,.608-.608.617.617,0,0,0-.608-.608H-714.5a.114.114,0,0,0-.113.114v.18a.113.113,0,0,1-.1.111l-16.079,2.317a.608.608,0,0,0-.407.238.608.608,0,0,0-.115.457.607.607,0,0,0,.238.406.605.605,0,0,0,.457.115l6.49-.935a.115.115,0,0,1,.1.042.113.113,0,0,1,.017.111l-5.293,13.6a.111.111,0,0,1-.105.072h-.4v.073a.112.112,0,0,0-.008.039v1a.1.1,0,0,0,.008.038v4.749a.608.608,0,0,0,.608.608.608.608,0,0,0,.608-.608v-4.675h1.7a4.1,4.1,0,0,0-.592,2.127,4.121,4.121,0,0,0,4.122,4.123,4.121,4.121,0,0,0,4.121-4.122,4.1,4.1,0,0,0-.592-2.128h2.3a4.1,4.1,0,0,0-.592,2.127,4.121,4.121,0,0,0,4.122,4.123,4.121,4.121,0,0,0,4.121-4.122,4.1,4.1,0,0,0-.591-2.128h2.954v.051a.494.494,0,0,0-.2.419v4.575a.429.429,0,0,0,.369.47h12a.429.429,0,0,0,.369-.47v-.812a.113.113,0,0,1,.033-.08.113.113,0,0,1,.08-.032h1.824a.113.113,0,0,1,.08.032.113.113,0,0,1,.033.08v.812a.429.429,0,0,0,.369.47h7.751a.429.429,0,0,0,.369-.47v-2.7a.113.113,0,0,1,.113-.111h5.978v-.042a5.758,5.758,0,0,1,5.912-5.59,6.153,6.153,0,0,1,2.928.735,5.542,5.542,0,0,1,2.983,4.855,5.292,5.292,0,0,1-.043.669,5.276,5.276,0,0,1-.169.816.478.478,0,0,0,.078.419.477.477,0,0,0,.381.189,1.509,1.509,0,0,0,1.3-.75,3.274,3.274,0,0,0,.517-1.952,4.805,4.805,0,0,0-.327-1.814Zm-45.185-1.011h-1.624a4.1,4.1,0,0,0-2.4-.771,4.1,4.1,0,0,0-2.4.771h-4.557a4.1,4.1,0,0,0-2.4-.771,4.1,4.1,0,0,0-2.4.771h-2.1a.111.111,0,0,1-.093-.049.113.113,0,0,1-.012-.1l5.386-13.841a.112.112,0,0,1,.087-.071l9.187-1.324a.113.113,0,0,1,.126.087l3.316,15.164a.114.114,0,0,1-.025.092.111.111,0,0,1-.086.04Zm24.8-8.692h-5.7a.328.328,0,0,1-.328-.328v-3.4a.6.6,0,0,1,.175-.423.594.594,0,0,1,.423-.175h4.517a.459.459,0,0,1,.434.315l.793,3.612a.33.33,0,0,1-.063.274.328.328,0,0,1-.251.125Z"/></g></svg>
