<svg id="Group_11370" data-name="Group 11370" xmlns="http://www.w3.org/2000/svg" width="24.394" height="12.258" viewBox="0 0 24.394 12.258">
  <path id="Path_10403" data-name="Path 10403" d="M238.2,635.436a3.143,3.143,0,1,0,3.142,3.143A3.146,3.146,0,0,0,238.2,635.436Zm2.4,3.369h0c0,.022-.005.044-.008.066h0c-.007.059-.017.117-.028.175,0,.023-.011.046-.016.069-.011.048-.023.095-.036.141-.007.023-.014.047-.021.07-.019.058-.039.115-.062.171l-.009.023h0c-.009.02-.02.04-.029.06h0c-.008.018-.018.035-.027.052-.022.044-.043.088-.068.13-.013.023-.027.045-.041.068-.026.043-.053.085-.081.126l-.01.015h0l-.04.053,0,0c-.007.009-.015.016-.022.025a2.425,2.425,0,0,1-.429.429c-.009.007-.016.015-.025.022l0,0-.053.04h0l-.015.01c-.041.029-.083.055-.126.081l-.068.042c-.042.024-.086.045-.13.067l-.053.027v0c-.02.009-.04.02-.06.029h0l-.027.01c-.055.023-.111.043-.168.061l-.07.022q-.069.02-.141.036l-.069.016c-.058.011-.116.021-.175.028h0l-.066.008h0c-.074.007-.15.011-.226.011h0c-.076,0-.151,0-.225-.011h0l-.066-.008h0c-.059-.007-.117-.017-.175-.028l-.069-.016c-.047-.011-.094-.023-.141-.036l-.07-.022c-.057-.018-.112-.039-.167-.061l-.028-.011h0c-.021-.009-.04-.02-.06-.029v0c-.018-.008-.035-.018-.053-.027-.044-.022-.088-.043-.13-.067l-.067-.041c-.043-.026-.085-.053-.126-.081l-.015-.01h0l-.053-.04,0,0c-.009-.007-.016-.015-.025-.022a2.43,2.43,0,0,1-.429-.429c-.007-.009-.015-.016-.021-.025l0,0-.04-.053h0l-.01-.015c-.029-.041-.055-.083-.081-.126-.014-.023-.028-.045-.041-.068-.024-.042-.046-.086-.067-.13-.009-.018-.019-.035-.027-.053h0c-.009-.02-.02-.04-.029-.06h0l-.011-.027c-.022-.055-.043-.11-.061-.167-.007-.023-.014-.047-.021-.07-.014-.046-.025-.094-.036-.141-.005-.023-.011-.046-.016-.069-.011-.058-.021-.116-.028-.175h0c0-.022-.006-.044-.008-.066h0c-.007-.075-.011-.15-.011-.226h0c0-.076,0-.152.011-.226h0c0-.022.005-.044.008-.066h0c.007-.059.017-.117.028-.175,0-.023.011-.046.016-.069.011-.048.023-.095.036-.141.007-.023.014-.047.021-.07q.028-.085.061-.168l.01-.027h0c.009-.021.02-.04.029-.06h0c.008-.017.018-.034.026-.051.022-.045.044-.089.068-.132.013-.023.027-.045.041-.067.026-.043.053-.086.082-.127l.01-.015h0l.04-.053,0,0c.008-.011.018-.021.027-.032.033-.043.068-.084.1-.124.011-.012.02-.025.032-.037h0c.016-.017.03-.035.047-.052h0l0,0,.02-.02.011-.011h0a2.407,2.407,0,0,1,.358-.288h0q.077-.051.158-.1c.027-.015.056-.028.084-.043s.05-.027.077-.039v0c.02-.009.04-.02.06-.029h0l.028-.011q.081-.033.166-.061l.072-.022c.045-.013.091-.025.137-.035l.072-.017c.058-.011.116-.021.174-.028h0l.066-.008h0c.068-.006.137-.009.207-.01h.037c.07,0,.14,0,.209.01h0l.066.008h0c.059.007.117.016.175.028l.071.016c.047.01.093.022.139.036l.072.022c.057.018.112.039.167.061l.027.01h0c.021.009.04.02.06.029v0l.05.026c.045.022.089.044.132.068l.066.04c.043.026.086.053.128.082l.015.01h0l.053.04,0,0,.025.021a2.418,2.418,0,0,1,.43.43c.007.009.015.016.022.025l0,0,.04.053h0l.01.015c.029.042.056.084.082.127.014.022.028.044.041.067.024.043.046.087.068.131.009.017.019.034.027.052h0c.009.02.02.04.029.06h0l.009.024c.023.056.044.113.062.171.008.023.015.047.021.07.014.046.025.093.036.141.005.023.011.046.016.069q.017.086.028.175h0c0,.022.006.044.008.066h0c.007.074.011.15.011.226h0C240.613,638.655,240.609,638.73,240.6,638.8Z" transform="translate(-216.953 -629.484)" fill="#fff" fill-rule="evenodd"/>
  <circle id="Ellipse_2736" data-name="Ellipse 2736" cx="1.199" cy="1.199" r="1.199" transform="translate(20.052 7.895)" fill="#fff"/>
  <path id="Path_10404" data-name="Path 10404" d="M140.409,652.386v0h0Z" transform="translate(-138.767 -643.486)" fill="#fff" opacity="0.7"/>
  <path id="Path_10405" data-name="Path 10405" d="M140.354,653.427v0c0-.006,0-.012,0-.019S140.354,653.422,140.354,653.427Z" transform="translate(-138.723 -644.333)" fill="#fff" opacity="0.7"/>
  <path id="Path_10406" data-name="Path 10406" d="M152.191,606.65a3.581,3.581,0,0,0-2.052.607l-1.219-1.67.045-.03a.073.073,0,0,0,.02-.1l-.132-.2a.073.073,0,0,0-.1-.02l-.06.04-.145-.2a1.9,1.9,0,0,0,.415.046h.043v.039a.073.073,0,0,0,.073.073h.239a.073.073,0,0,0,.073-.073v-1.426a.073.073,0,0,0-.073-.072h-.239a.073.073,0,0,0-.073.072v.039h-.043a1.337,1.337,0,0,0-1.065.414l-.059-.081.037-.038a.041.041,0,0,0,.007-.051l-.14-.191a.05.05,0,0,0-.058-.014l-.044.022-.176-.241a2.354,2.354,0,0,0-1.12-.9l-.039.09-.633-.274-.1-.042.208-.494c.1-.226-.159-.241-.3-.268l-.005-.155c0-.081-.019-.122-.053-.123-.059-.257-.193-.265-.2,0l-.021.6c-.006.182.046.2.144.064a.3.3,0,0,0,.133-.288l.192.057c.077.023-.1.342-.189.566a1.538,1.538,0,0,0-.5-.095.449.449,0,0,0-.433-.048l-.128.064a.3.3,0,0,0-.144.262l-.278.08c-.208.06-.137.466.123.381l.332-.108v.3a.258.258,0,0,0,.076.192.28.28,0,0,0,.2.073h.531a.729.729,0,0,0,.669.273h0v-.766h-.04a.966.966,0,0,0-.426.092l.139-.338.6.245-.024.055a1.97,1.97,0,0,1,.944.778l.117.161-.108.052a.072.072,0,0,0-.1-.008l-.079.057-.269.19a.124.124,0,0,1-.149-.006,1.2,1.2,0,0,0-.11-.078,1.751,1.751,0,0,0-1.349-.07l-.032-.09a.089.089,0,0,0-.113-.054l-.593.209a.089.089,0,0,0-.054.113l.024.069c-.115.044-.232.092-.357.146-.81.337-5.133,2.154-5.723,1.7-.253-.194-.442-.4-.673-.24l-.278-.292c.045-.171-.01-.34-.2-.357a12.309,12.309,0,0,1-1.889-.253c-.625-.154-.64.512,0,.648l1.158.181c.367.057.52.09.647.259l.64.856a1.9,1.9,0,0,1,.365,1.191l-.008,0a3.842,3.842,0,0,0-5.063-1.174l.013.1a2.011,2.011,0,0,0,1.053-.047,3.392,3.392,0,0,1,3.6,1.346l-.147.085a3.156,3.156,0,0,0-5.781,1.751c0,.027,0,.054,0,.081h-.685v.968h.864a3.155,3.155,0,0,0,5.753.45l.765.239h6.215a1.52,1.52,0,0,0,.94-.321h.3l.287-.275.03-.157.1-.51.776-3.986a2.61,2.61,0,0,1,.755-.8l.115.084.132.092a.16.16,0,0,0,.187,0l.174-.129a.189.189,0,0,0,.092-.122l1.226,1.674a3.6,3.6,0,0,0-.825,4.128,1.6,1.6,0,0,0,.1-.675,3.347,3.347,0,0,1,2.918-4.084,1.556,1.556,0,0,0,.35-.246Zm-6.968-3.214h-.5a.184.184,0,0,1-.13-.045.164.164,0,0,1-.046-.122v-.317l.214-.012.1-.006.255.33.116.1a.225.225,0,0,0-.01.063S145.223,603.432,145.223,603.436Zm-9.356,8.846a2.213,2.213,0,0,1-3-.9h1.385a1.2,1.2,0,0,0,1.133,0h1.385A2.23,2.23,0,0,1,135.867,612.282Zm1.17-1.871h-1.025c0-.029,0-.059,0-.089a1.2,1.2,0,0,0-.955-1.174l-.009,0a1.2,1.2,0,0,0-.471,0l-.009,0a1.2,1.2,0,0,0-.955,1.174c0,.03,0,.059,0,.089H132.6c0-.03,0-.059,0-.089a2.228,2.228,0,0,1,1.771-2.178l.017,0a2.214,2.214,0,0,1,.874,0l.017,0a2.228,2.228,0,0,1,1.771,2.178C137.041,610.353,137.038,610.382,137.037,610.411Z" transform="translate(-130.978 -601.229)" fill="#fff"/>
</svg>
