<svg id="Group_5935" data-name="Group 5935" xmlns="http://www.w3.org/2000/svg" width="138.21" height="20.004" viewBox="0 0 138.21 20.004">
  <path id="Path_4548" data-name="Path 4548" d="M24.016,8H18.081V0H13.94V20h4.141V11.054h5.933V20h4.143V0H24.016Zm98.8-8V3.053h5.625V20h4.141V3.053h5.623V0ZM100.957,0H96.816V20h11.845V16.947h-7.706V0ZM53.572,16.674c-.061.208-.213.265-.432.265a.416.416,0,0,1-.437-.274L48.344,0H43.513l5.01,18.245A2.017,2.017,0,0,0,50.684,20H54.5a2.031,2.031,0,0,0,2.133-1.729L61.526,0H57.869l-4.3,16.672ZM0,3.125,0,16.875C0,19.1,1.132,20,3.093,20l9.26,0V16.942h-6.7c-1.149,0-1.517-.281-1.517-1.529L4.143,4.579c0-1.2.277-1.527,1.515-1.527h6.694V0H3.1C.984,0,0,1.1,0,3.125ZM34.784,15.413l0-4.36h8.23V8H34.791V4.579c0-1.158.254-1.527,1.515-1.527h6.8V0L33.745,0c-2.139,0-3.1,1.076-3.1,3.12l0,13.751c0,2.112,1.021,3.127,3.093,3.127l10.226,0V16.941H36.3C35.152,16.942,34.784,16.683,34.784,15.413ZM73.61,11.549c1.916,0,3.093-.879,3.093-3.127l0-5.3C76.7,1.036,75.724,0,73.605,0H62.065V20h4.141V3.053h4.838c1.283,0,1.515.368,1.515,1.527l.005,2.436c0,1.181-.323,1.53-1.517,1.53l-2.262,0a1.268,1.268,0,0,0-1.372,1.4A2.115,2.115,0,0,0,67.8,11l5.228,9h5.124l-5.474-8.444.929-.008ZM91.21,0H82.087c-2.185,0-3.1,1.121-3.1,3.12l0,13.751c0,2.271,1.2,3.127,3.093,3.127h9.13c1.984,0,3.1-.947,3.1-3.127l0-13.751c0-2.043-.955-3.12-3.095-3.12ZM88.654,16.942H84.644c-1.193,0-1.517-.326-1.517-1.529V4.58c0-1.045.142-1.527,1.517-1.527h4.011c1.082,0,1.511.188,1.511,1.527l0,10.834c0,1.29-.391,1.528-1.517,1.528ZM113.6,15.413l0-4.36h8.23V8H113.61V4.579c0-1.158.254-1.527,1.515-1.527h6.8V0l-9.357,0c-2.141,0-3.1,1.076-3.1,3.12l0,13.751c0,2.112,1.021,3.127,3.093,3.127l10.226,0V16.941h-7.663C113.971,16.942,113.6,16.683,113.6,15.413Z" fill-rule="evenodd"/>
</svg>
