<svg xmlns="http://www.w3.org/2000/svg" width="63.331" height="19.999" viewBox="0 0 63.331 19.999">
  <g id="Group_5934" data-name="Group 5934" transform="translate(0 0)">
    <path id="Path_4546" data-name="Path 4546" d="M143.159,42.4c.07-.1,0-.171-.156-.171h-2.73c-.209,0-.313.014-.4.171-.313.5-4.138,5.206-4.851,6.119-.122.143-.261.114-.278-.043a2.121,2.121,0,0,0-1.547-1.469,4.78,4.78,0,0,0-2.052-.2,8.268,8.268,0,0,0-3.373,1.3c-1.5.927-2.764,2.125-4.434,3.024-.9.485-2.139.9-2.973.271-.748-.571-.661-1.84.487-2.824.122-.1.261-.014.243.071a1.112,1.112,0,0,0,.435,1.184,1.922,1.922,0,0,0,1.826.171,2,2,0,0,0,1.269-1.512c.191-1-.748-1.883-1.912-1.954a4.341,4.341,0,0,0-2.764.827,4.792,4.792,0,0,0-1.1.984c-.087.114-.243.128-.226-.043a1.742,1.742,0,0,0-1.9-2.025,5.52,5.52,0,0,0-2.9.97,24.427,24.427,0,0,0-2.573,2.154c-.1.086-.191.086-.226-.086a3.79,3.79,0,0,0-.765-2.253.735.735,0,0,0-.817-.171,5.969,5.969,0,0,0-.974.471.4.4,0,0,0-.174.5,4.9,4.9,0,0,1-.261,3.922,4.849,4.849,0,0,1-3.008,2.453,2.268,2.268,0,0,1-2.33-.513c-.765-.87-.452-2.382.678-3.637a8.8,8.8,0,0,1,3.912-2.253c.174-.057.209-.143.156-.257-.07-.2-.209-.456-.261-.585-.139-.285-.5-.342-.956-.3a9.314,9.314,0,0,0-2.938.813A8.852,8.852,0,0,0,99.05,51.8a4.4,4.4,0,0,1-.765,1.17,11.464,11.464,0,0,1-1.773,1.4.221.221,0,0,0-.07.3,3.631,3.631,0,0,0,.678.742.537.537,0,0,0,.383-.057,8.73,8.73,0,0,0,1.739-1.269c.122-.128.261-.071.33.114a3.514,3.514,0,0,0,2.469,2.154A6.929,6.929,0,0,0,108.4,54.5a20.863,20.863,0,0,0,1.965-2.082,21.961,21.961,0,0,1,3.877-3.466c.626-.4,1.374-.7,1.739-.5.3.157.4.528-.087,1.255-1.739,2.61-4.312,5.691-4.781,6.432-.087.128-.017.228.156.228h2.643a.321.321,0,0,0,.278-.143c1.339-1.726,2.608-3.366,3.947-5.049.07-.1.139-.029.139.014a2.4,2.4,0,0,0,.435,1.284,2.5,2.5,0,0,0,2.034.941,4.668,4.668,0,0,0,1.652-.285,6.6,6.6,0,0,0,1.356-.6c.209-.114.243.071.226.1a3.026,3.026,0,0,0,1.721,3.665c1.982.8,4.155-.328,5.407-1.341.122-.1.261-.086.261.128A1.782,1.782,0,0,0,132,56.25c1.043.87,3.164.528,5.285-.827a25.106,25.106,0,0,0,4.086-3.38.134.134,0,0,0,0-.214c-.191-.171-.487-.357-.678-.513a.31.31,0,0,0-.3,0A33.821,33.821,0,0,1,136.17,54.5c-.574.328-1.513.6-1.913.143-.156-.171-.139-.428.017-.756.522-.984,8.467-10.9,8.884-11.481m-10.5,8.315c.017.071.139.143.261.185.035.014.07.043.017.114a8.134,8.134,0,0,1-1.078,1.455,6.629,6.629,0,0,1-1.356,1.212c-.8.542-1.912,1.127-2.834.742a1.072,1.072,0,0,1-.574-1.027,4.825,4.825,0,0,1,1.669-3.238c1.3-1.312,2.747-2,3.686-1.626.974.385.661,1.312.226,2.04a.143.143,0,0,0-.017.143" transform="translate(-79.855 -36.729)" fill="#0f0f9f"/>
    <path id="Path_4547" data-name="Path 4547" d="M5.911,19.635C2.955,19.649.347,18.19.034,15.661A4.4,4.4,0,0,1,1.356,11.98a6.852,6.852,0,0,1,3.634-1.862,1.613,1.613,0,0,1,1.182.195c.365.333.261.695-.1.847a5.854,5.854,0,0,0-2.695,1.987,2.02,2.02,0,0,0,.156,2.515c1.182,1.431,4.5,1.473,7.58-.82a23.326,23.326,0,0,0,2.139-1.737,41.549,41.549,0,0,0,3.616-3.7c.017-.028.035-.056.017-.069s-.035-.028-.087-.028a6.377,6.377,0,0,0-3.269.917.744.744,0,0,1-.9-.083c-.209-.25-.052-.584.278-.778a14.042,14.042,0,0,1,5.268-1.32.337.337,0,0,0,.226-.111c.748-.764,1.321-1.473,2.121-2.251a20.217,20.217,0,0,1,2.643-2.07,11.868,11.868,0,0,1,2.556-1.334c.191-.083-.017-.181-.087-.181C21.576,1.49,17.368.712,13.352,1.893c-2.782.834-4,2.6-3.425,3.779.417.834,1.791.973,3.077.472a6.893,6.893,0,0,0,2.764-1.959c.4-.486,1.217-.139.782.709A7.332,7.332,0,0,1,10.4,8.923c-2.33.056-3.825-1.306-3.825-3C6.589,2.588,11.231.393,16.1.073,21.976-.316,27.539.935,33.381,1.5A46.592,46.592,0,0,0,46.63,1.115c.539-.1.9.181.869.611-.052.625-.643,1.223-2.121,1.862a13.169,13.169,0,0,1-5.285.973c-4.451.028-8.589-1.362-12.883-2.1,0,.153.052.333-.1.417A18.953,18.953,0,0,0,21.141,7.7c-.052.042-.017.083.07.083,1.252-.056,2.365-.083,3.529-.153.209-.014.209-.056.191-.167a2.062,2.062,0,0,1,.9-2.015,2.194,2.194,0,0,1,2.382-.222,1.277,1.277,0,0,1,.261,1.889,2.744,2.744,0,0,1-1.721,1.111s-.139.028-.122.125c.035.153.9.542.974.653a.273.273,0,0,1-.1.361.63.63,0,0,1-.417.167.972.972,0,0,1-.435-.125,4.215,4.215,0,0,1-1.217-.778c-.122-.111-.174-.111-.452-.1-1.269.056-3.234.208-4.555.347-.33.028-.365.083-.435.167a46.155,46.155,0,0,1-6.885,7.836,10.583,10.583,0,0,1-7.2,2.751M26.148,7.2c.035.139.1.167.191.153a2.054,2.054,0,0,0,1.113-.639c.243-.278.348-.681.122-.847a.77.77,0,0,0-.817.069A1.3,1.3,0,0,0,26.148,7.2" transform="translate(0 0)" fill="#0f0f9f"/>
  </g>
</svg>
