<svg xmlns="http://www.w3.org/2000/svg" width="151.966" height="19.996" viewBox="0 0 151.966 19.996">
  <path id="Path_4545" data-name="Path 4545" d="M61.348,9.42c.141-.484-.1-.876-.539-.876H55.856a1.212,1.212,0,0,0-1.046.876l-.264,1.108c-.141.483.1.874.539.874h1.466c.435,0,.679.394.538.879l-1.038,3.163a2.038,2.038,0,0,1-1.77,1.483H50.427c-.743,0-1.15-.664-.911-1.483L53.126,3.922a1.21,1.21,0,0,1,1.047-.875h4.961c.436,0,.679.392.539.875s.1.876.541.876h1.793c.441,0,.8-.609.935-1.092.619-2.132-.324-3.24-2.05-3.526A18.955,18.955,0,0,0,56.978.009a14.939,14.939,0,0,0-4.229.335,3.4,3.4,0,0,0-2.722,2.7L46.1,15.511c-.7,2.421.505,4.381,2.695,4.381h6.5A3.992,3.992,0,0,0,58.757,17L61.348,9.42ZM79.567.874c.141-.479-.1-.874-.541-.874H77.254a1.213,1.213,0,0,0-1.046.874L74.041,7.642a1.216,1.216,0,0,1-1.048.879H68.8c-.443,0-.681-.394-.541-.879L70.417.912c.138-.484-.105-.879-.539-.879H68.1a1.207,1.207,0,0,0-1.047.879L61.344,19.018c-.141.483.1.874.536.874l1.773-.014A1.212,1.212,0,0,0,64.7,19l2.111-6.669a1.2,1.2,0,0,1,1.042-.874l4.213.015c.438,0,.679.392.541.874l-2.123,6.669c-.141.483.1.874.541.874l1.766-.014A1.209,1.209,0,0,0,73.836,19L79.567.874Zm21.047,18.142a1.2,1.2,0,0,1-1.045.874H91.507c-.435,0-.675-.392-.535-.874l5.6-17.774A1.206,1.206,0,0,1,97.621.365h1.773c.438,0,.681.392.541.876l-4.659,14.8c-.141.483.1.876.538.876h4.649c.435,0,.675.392.535.879l-.383,1.22Zm34.493-2.1c.443,0,.681.392.538.879l-.382,1.221a1.206,1.206,0,0,1-1.047.874h-8.292c-.437,0-.678-.392-.541-.874l5.095-16.269a1.208,1.208,0,0,1,1.047-.876l8.172.673c.441,0,.678.392.541.879l-.346,1.059a1.212,1.212,0,0,1-1.045.879l-4.919-.326a1.206,1.206,0,0,0-1.047.875l-.792,2.445c-.141.482.1.874.541.874l3.541.144c.441,0,.681.394.541.876l-.346,1.063a1.206,1.206,0,0,1-1.047.876l-3.552-.106a1.21,1.21,0,0,0-1.045.876l-1.041,3.084c-.141.483.1.876.538.876Zm-99.642,0c.436,0,.677.392.539.879l-.386,1.221a1.21,1.21,0,0,1-1.047.874H26.082c-.438,0-.681-.392-.541-.874L30.9,2.022a1.212,1.212,0,0,1,1.048-.879L40.427.8c.436,0,.677.394.537.879L40.5,3.006a1.207,1.207,0,0,1-1.045.879l-4.838.185a1.2,1.2,0,0,0-1.045.876L32.6,7.908c-.138.487.1.876.541.876l3.735-.041c.441,0,.681.392.541.874l-.346,1.063a1.211,1.211,0,0,1-1.047.876l-3.745.081a1.211,1.211,0,0,0-1.047.874l-1.165,3.532c-.141.483.1.876.541.876Zm-32.043,2.1a1.208,1.208,0,0,1-1.048.874H.578c-.438,0-.677-.392-.541-.874L4.78,3.676a1.133,1.133,0,0,1,1.033-.844l7.644-.444c.429.018.668.427.527.912l-.4,1.376a1.118,1.118,0,0,1-1.038.841l-4.373.317a1.142,1.142,0,0,0-1.038.844L6.592,8.6c-.138.483.1.876.541.876L10.4,9.461c.441,0,.681.394.541.879l-.383,1.313a1.208,1.208,0,0,1-1.047.879L6.19,12.52a1.212,1.212,0,0,0-1.047.876l-1.721,5.62ZM85.909,3.987c.141-.487-.1-.876-.535-.876L82.03,3.1c-.441,0-.678-.392-.541-.874l.4-1.291A1.207,1.207,0,0,1,82.932.06L93.8.246c.438,0,.681.392.541.875l-.418,1.256a1.211,1.211,0,0,1-1.05.874l-2.666.006a1.207,1.207,0,0,0-1.047.874L84.567,19.014a1.214,1.214,0,0,1-1.05.874H81.749c-.438,0-.681-.392-.537-.874l4.7-15.028Zm20.023,15.029a1.207,1.207,0,0,1-1.047.874h-1.769c-.435,0-.675-.392-.538-.874L108.03,1.563a1.209,1.209,0,0,1,1.05-.875l1.757.092c.435,0,.681.394.541.879Zm-63.965,0a1.2,1.2,0,0,1-1.045.874H39.155c-.441,0-.681-.392-.539-.874L44.1,1.5A1.218,1.218,0,0,1,45.147.622L46.926.6c.438,0,.678.392.541.874ZM21.062,9.165H18.785c-.438,0-.678-.393-.541-.875l.686-2.272a1.21,1.21,0,0,1,1.048-.874l2.474-.176c1.247-.062,1.684.373,1.031,2.072C22.755,8.936,22.5,9.165,21.062,9.165Zm1.82,3.049c1.8-.2,2.821-1.669,3.745-5.153,1.175-4.427-.243-5.525-2.671-5.447l-6.418.4a1.221,1.221,0,0,0-1.048.875l-5,16.13c-.141.483.1.874.541.874H13.8a1.205,1.205,0,0,0,1.047-.874l1.99-6.2c.2-.526.277-.654.877-.654h.732c.6,0,.724.12.814.607l.978,6.251a1.05,1.05,0,0,0,.951.874h1.769a.681.681,0,0,0,.635-.874l-.922-5.838c-.211-.856-.039-.939.212-.965Zm122.954-2.34-1.46-.137c-.435,0-.678-.392-.537-.875l.665-2.141a1.257,1.257,0,0,1,1.052-.9l1.7.155c1.241.182,1.6.357.989,1.943C147.514,9.826,147.231,10.042,145.836,9.875Zm3.239,2.588c1.412-.221,2.193-2.887,2.686-4.881.718-2.923-.491-4.182-2.84-4.337L143.26,2.8a1.392,1.392,0,0,0-1.079,1.051l-4.765,15.264c-.141.487.1.876.538.876h1.769a1.212,1.212,0,0,0,1.047-.876l1.976-5.964c.2-.526.279-.651.878-.651l.75.075c.6,0,.723.122.81.607l1.752,5.934a1.172,1.172,0,0,0,1.027.876h1.771c.435,0,.686-.392.554-.876l-1.628-5.654c-.225-.754-.245-.9.414-1ZM116.956,9.017l1.814,10c.06.519.285.874.72.874h1.769a1.212,1.212,0,0,0,1.05-.874l5.217-16.587c.141-.484-.1-.874-.538-.874l-1.76-.1a1.206,1.206,0,0,0-1.045.876l-2.729,8.743c-.341.952-.789,1.027-.982-.066l-1.58-8.989c-.083-.573-.329-.894-.908-.926L115.929.983a1.2,1.2,0,0,0-1.045.879L109.53,19.016c-.141.482.1.874.538.874h1.773a1.215,1.215,0,0,0,1.045-.874l3.124-10.044c.388-1,.809-.769.947.045Z" transform="translate(0)" fill-rule="evenodd"/>
</svg>
