<svg xmlns="http://www.w3.org/2000/svg" width="101.349" height="20.003" viewBox="0 0 101.349 20.003">
  <path id="Path_4544" data-name="Path 4544" d="M0,5.7C0,2.415,2.092.2,6.049.2H31.726V4.856H6.819A1.217,1.217,0,0,0,5.5,6.232v7.761c0,.941.405,1.551,1.678,1.551H24.721c.924,0,1.638-.32,1.638-1.507v-1.82H16.09V7.787H31.726v7.132c0,3.414-2.546,5.281-6.543,5.281H6.089C2.23,20.2,0,18.158,0,14.744L0,5.7M54.631,20.2,63.4,5.034V20.2h5.5V.2H60.445L52.081,14.566,43.722.2H35.27v20h5.5V5.034L49.539,20.2h5.092m46.718,0H78.355c-3.872,0-6.089-2.041-6.089-5.455V5.7c0-3.283,2.084-5.5,6.04-5.5h23.043V5.227H79.081A1.217,1.217,0,0,0,77.759,6.6v7.021c0,.945.409,1.551,1.682,1.551h21.9l0,5.027" transform="translate(0 -0.2)" fill="#cf4037"/>
</svg>
