<svg xmlns="http://www.w3.org/2000/svg" width="138.196" height="20.002" viewBox="0 0 138.196 20.002">
  <path id="Path_4543" data-name="Path 4543" d="M53.384,19.564a.41.41,0,0,1-.431.438H43.466a.484.484,0,0,1-.518-.438V.477A.486.486,0,0,1,43.466.04h9.487a.411.411,0,0,1,.431.438ZM33.806.038H24.234A.41.41,0,0,0,23.8.476V4.154a1.929,1.929,0,0,1-1.9,1.927H12.332a1.929,1.929,0,0,1-1.9-1.927V.476A.411.411,0,0,0,10,.038H.518A.485.485,0,0,0,0,.476V19.563A.485.485,0,0,0,.518,20H10a.41.41,0,0,0,.431-.438V15.186a1.929,1.929,0,0,1,1.9-1.927h9.573a1.929,1.929,0,0,1,1.9,1.927v4.377a.41.41,0,0,0,.431.438h9.573a.41.41,0,0,0,.431-.438V.476a.412.412,0,0,0-.433-.438Zm63.3,0H87.622A.487.487,0,0,0,87.1.476V6.692c-.862.963-2.931-.174-2.931-.174S82.19,5.205,77.617,2.665C73.651.3,72.442.038,72.184.038H62.7a.485.485,0,0,0-.518.438V19.563A.485.485,0,0,0,62.7,20h9.487a.485.485,0,0,0,.518-.438V11.507a2.324,2.324,0,0,1,2.931-.787S77.7,11.77,82.1,14.573c3.794,2.451,4.743,3.326,5,4.2v.787a.485.485,0,0,0,.518.438h9.487a.41.41,0,0,0,.431-.438V.475a.411.411,0,0,0-.431-.437ZM129.656,0h-15.9c-4.7,0-8.538,3.022-8.538,7.715v4.534c0,4.77,3.838,7.714,8.538,7.714h15.9c4.7,0,8.54-2.943,8.54-7.714V7.715C138.2,3.024,134.357,0,129.656,0Zm-.47,11.134a3.731,3.731,0,0,1-3.839,3.9H118.14a3.749,3.749,0,0,1-3.916-3.9V8.829a3.75,3.75,0,0,1,3.916-3.9h7.208a3.731,3.731,0,0,1,3.839,3.9Z" fill-rule="evenodd"/>
</svg>
