<svg xmlns="http://www.w3.org/2000/svg" width="138.344" height="20.023" viewBox="0 0 138.344 20.023">
  <path id="Path_4542" data-name="Path 4542" d="M126.145,6.459l-4.462-.646-2.678,14.208h2.975s.3-2.258.3-2.583h3.274l.3,2.583h2.975Zm-3.27,8.4c0-.646.894-5.49.894-6.136a44.751,44.751,0,0,1,1.189,6.136ZM0,8.074V20.022H2.976V7.752ZM9.223,7.1H6.843V20.021H9.819V13.886l2.975,6.135h2.083V6.136L12.2,6.782v6.135L9.223,7.1ZM20.231,8.719v11.3h2.976V8.4l2.083-.322V5.169l-7.438.645V9.043l2.379-.324Zm11.306,4.843H35.4V10.01l-3.868.645V7.427L35.4,7.1V3.876l-6.843.645v15.5H35.7V16.792H31.536v-3.23ZM54.743,11.3l3.273,8.717H60.4V.646L57.718.968v9.687L54.445,1.614H51.767V20.02h2.975V11.3Zm24.1-6.459V20.021h3.272V5.168l2.977.322V1.615L75.571.324v4.2l3.271.323Zm9.521,15.176h2.975V2.261l-2.975-.324V20.021ZM101.75,3.552,98.478,3.23C96.395,2.908,95.5,4.2,95.5,6.783v9.688c0,2.258.894,3.551,2.977,3.551h2.975c2.38,0,3.272-1.292,3.272-3.551V7.429c0-1.939-.891-3.552-2.975-3.876Zm0,13.24H98.179V6.781l3.572.322v9.689Zm11.6-4.844c-.894-2.261-.894-2.261-3.274-7.427L108,4.2V20.022h2.975V13.241c.894,1.615,3.572,6.781,3.572,6.781h2.081V5.491l-3.272-.322v6.78Zm20.528-4.522L130.908,7.1V20.021h7.436V17.114h-4.462V7.427ZM71.106,0l3.572,20.021H71.7l-.6-3.228H67.24l-.3,3.228H63.67L67.24,0ZM69.024,4.522,67.833,13.24h2.679Zm-23.5,15.5h3.273l-2.975-7.1C47.3,12.271,47.9,10.979,47.9,9.042V5.814c0-2.26-.893-3.552-2.975-3.228l-5.356.646V20.023h2.678V12.6l3.271,7.424Zm-.3-10.333-2.975.324V6.459l2.975-.322Z" fill-rule="evenodd"/>
</svg>
