<svg xmlns="http://www.w3.org/2000/svg" width="116.899" height="19.996" viewBox="0 0 116.899 19.996">
  <g id="Group_5959" data-name="Group 5959" transform="translate(-3115 -225)">
    <path id="Path_4739" data-name="Path 4739" d="M838.054,21.639c.414,0,2.947-.014,4.991-.154a5.817,5.817,0,0,0,4.675-2.211c1.158-1.488,1.149-4.278,1.149-6.447,0-2.426.033-9.447.023-10.072s-.25-.956-.975-.952-2.773,0-3.475,0l-1.252,0c-.725,0-.965.322-.975.952v.672c.01.742-.009,7.828-.014,9.493v.737c-.019,1.53-.207,3.018-2.392,3.247a19.484,19.484,0,0,1-2.543.145,19.047,19.047,0,0,1-2.556-.145c-2.185-.229-2.317-1.717-2.335-3.247V12.92c0-1.661-.024-8.747-.014-9.493V2.751c-.009-.63-.249-.956-.974-.952l-1.257.009c-.7,0-2.75,0-3.475,0s-.965.322-.975.952,0,7.651,0,10.072c0,2.169-.009,4.959,1.149,6.447a5.763,5.763,0,0,0,4.647,2.211c2.043.145,4.5.154,5.043.154Z" transform="translate(2327.851 223.289)" fill="#e60012"/>
    <path id="Path_4740" data-name="Path 4740" d="M9.446,21.753c-.014.681-.217.952-.923.966s-4.167.009-4.8,0-1.012-.2-1.017-.863S2.7,4.432,2.7,3.793s.3-.933.961-.914,4.063-.019,4.963,0c.683,0,.843.383.848,1.082.014.938-.009,17.111-.024,17.792" transform="translate(3112.301 222.265)" fill="#e60012"/>
    <path id="Path_4741" data-name="Path 4741" d="M2011.921,12.137c.014,1.572.4,2.626,2.217,2.906a26.848,26.848,0,0,0,4.939.028c1.384-.149,2.453-.709,2.514-2.263.071-1.311.075-1.539.08-2.92.01-3.359-.028-8.234-.019-8.71l0-.205c-.009-.742.33-1.059.966-1.059L2023-.1c.725,0,3.635.014,4.337.014.636,0,.979.313.965,1.059l-.01.233c.015.7-.009,8.127-.014,10.319a13.592,13.592,0,0,1-.975,5.29,5.131,5.131,0,0,1-4.346,2.72,79.554,79.554,0,0,1-11.394.126c-2.274-.117-3.739-.62-4.953-1.959-1.375-1.535-1.45-4.157-1.427-7.166-.028-6.638-.047-8.551-.038-9.186V.973c-.009-.742.329-1.059.965-1.059l.377-.014c.73,0,3.748.014,4.454.014.631,0,.98.313.965,1.059s0,9.246,0,11.117" transform="translate(1203.593 225.1)" fill="#e60012"/>
    <path id="Path_4742" data-name="Path 4742" d="M1395.267,1.32c.683-.019,12.849,0,16.654.014,3.366.037,4.614.513,5.528,1.726a4.075,4.075,0,0,1,.311,4.6,7.705,7.705,0,0,1-3.442,2.762c-1.347.686-3.71,1.726-6.013,2.734-3.089,1.353-5.885,2.524-6.356,2.766-.636.331-.4.826.108.821,1.318-.014,14.068-.117,14.746-.121s.9.243.9.97c0,.76,0,2.062.009,2.65-.014.709-.245.905-.923.91-.772.009-14.351.014-15.316.014-2.147,0-4.355,0-5.674-.63a3.894,3.894,0,0,1-2.2-3.494c.08-2.715,1.606-3.583,4.355-4.847,3.06-1.376,12.091-5.248,12.628-5.5.668-.308.461-.914-.16-.891-.475.009-14.308.079-14.991.079s-1.116-.112-1.116-.765,0-2.286,0-2.958.273-.821.956-.844" transform="translate(1786.506 223.756)" fill="#e60012"/>
    <path id="Path_4743" data-name="Path 4743" d="M247.847,12.665c-3.06-1.26-11.988-4.059-13.174-4.637-.57-.243-.532-.966.24-.966,1.318.019,14.408.047,15.09.051s.97-.261.97-.989c0-.76,0-2.155-.009-2.766s-.235-.858-.8-.858l-15.679.019c-4.219-.009-5.3.606-6.5,2.029a4.826,4.826,0,0,0-.17,5.663c1.008,1.451,2.67,2.09,5.316,3,3.206,1.031,10.754,3.662,10.754,3.662.692.294.64,1.012-.217,1.012,0,0-14.4-.131-15.081-.131a.889.889,0,0,0-1.022.984c0,.653,0,1.852-.009,2.533s.2,1.059.881,1.082,13.056-.023,16.865-.033c2.9-.009,5.692-.9,6.267-4.063.348-2.738-.819-4.427-3.724-5.6" transform="translate(2898.582 222.623)" fill="#e60012"/>
  </g>
</svg>
