<svg id="Group_5932" data-name="Group 5932" xmlns="http://www.w3.org/2000/svg" width="126.667" height="20" viewBox="0 0 126.667 20">
  <path id="Path_4536" data-name="Path 4536" d="M9.671.085h4.024L8.445,9.637,14.729,20H9.936L4.382,10.526H4.1V20H0V.085H4.1V9.629h.239ZM20.085,4.068V7.757h6.185v4H20.144v4.169h6.4V20H15.968V.085H26.541V4.068ZM28.868.093H33.9l5.376,12.622h.08V.085h4.017V20H38.479L32.838,6.489H32.7v13.5H28.868V.093ZM51.65,12.544H51.7L54.375.093h3.381l3.1,12.475H60.9L63.072.093H67.1l-3.977,19.9H59.061l-3-11.9h-.046l-2.532,11.9H49.569L44.942.093h4.043Zm38.466-3.65c1.667-.059,4.771.61,4.58-2.328.178-2.877-2.98-2.016-4.574-2.142v4.47ZM100.033,20H95.214l-4.971-8.917h-.106V20H86.3V.093C90.658.327,99.23-1.673,99.012,6.241,99,8.832,97.951,11.493,95.519,12Zm7.59,0H103.38V4.068H99.827V.1H110.97V4.068h-3.347ZM122.457,7.7V.1h4.209V20h-4.209V11.7h-5.568V20h-4.024V.093h4.024V7.7h5.568Zm-47.28,7.891c-6.127-.029-6.127-11.276,0-11.3,6.157.126,6.156,11.179,0,11.3M75.2,0c-11.21.223-11.208,19.678,0,19.9C86.413,19.676,86.41.216,75.2,0Z" fill="#e01212"/>
</svg>
