<svg xmlns="http://www.w3.org/2000/svg" width="126.667" height="20" viewBox="0 0 126.667 20">
  <g id="Group_5931" data-name="Group 5931" transform="translate(0 5.637)">
    <path id="Path_4535" data-name="Path 4535" d="M31.641,0H22.585a.876.876,0,0,0-.658.505L16.274,11.96c-.136.27-.363.27-.493,0L10.127.505A.9.9,0,0,0,9.47,0H.414C.187,0,0,.279,0,.636H0V19.373c0,.348.187.627.414.627h6.47c.227,0,.408-.279.414-.627h0V9.268c0-.348.113-.409.25-.131L12.662,19.5a.88.88,0,0,0,.663.5h5.41a.88.88,0,0,0,.663-.5L24.508,9.138c.136-.27.249-.218.249.131v10.1c0,.348.187.627.414.627h6.47c.227,0,.408-.279.414-.627V.636C32.049.287,31.868,0,31.641,0h0M94.549,0H70.563a.856.856,0,0,0-.658.505l-.981,1.977a2.913,2.913,0,0,0-.25,1.132V16.376a3.1,3.1,0,0,0,.25,1.141l.981,1.977a.856.856,0,0,0,.658.505H94.549c.227,0,.414-.287.414-.636V14.347c0-.348-.181-.636-.414-.636H76.342c-.227,0-.408-.287-.414-.636V6.908c0-.348.187-.627.414-.627H94.549c.227,0,.408-.287.414-.636V.627c0-.34-.187-.627-.414-.627m22.62,7.8a.5.5,0,0,1,.045-.7l8.4-6.812c.2-.166.181-.287-.045-.287h-9.8a1.486,1.486,0,0,0-.777.287l-8.88,7.2c-.2.166-.363.009-.363-.34V.627c0-.348-.187-.627-.414-.627h-6.47c-.227,0-.408.279-.414.627V19.364c0,.348.187.636.414.636h6.47c.227,0,.414-.287.414-.636V17.03a1.353,1.353,0,0,1,.363-.923l5.081-4.111a.492.492,0,0,1,.68.1l5.965,7.5a1.078,1.078,0,0,0,.731.4h7.893c.227,0,.272-.183.1-.4ZM57.068.514A.9.9,0,0,0,56.41.009H44.9a.9.9,0,0,0-.658.505L34.879,19.495c-.136.279-.062.505.164.505l7.128-.009a.9.9,0,0,0,.663-.5l1.276-2.587a.9.9,0,0,1,.658-.505H56.54a.876.876,0,0,1,.658.505l1.276,2.587a.892.892,0,0,0,.663.5L66.265,20c.227,0,.3-.226.164-.505ZM54.13,10.871H47.218c-.227,0-.3-.226-.164-.505l2.138-4.347a.857.857,0,0,1,.658-.505H51.5a.893.893,0,0,1,.663.505l2.132,4.347c.136.279.062.505-.164.505" transform="translate(0 -5.637)" fill="#010101"/>
  </g>
</svg>
