<svg xmlns="http://www.w3.org/2000/svg" width="76" height="20" viewBox="0 0 76 20">
  <g id="Group_5930" data-name="Group 5930" transform="translate(0 3.215)">
    <g id="Group_5938" data-name="Group 5938" transform="translate(0 -3.215)">
      <path id="Path_4533" data-name="Path 4533" d="M52.821,5.752a1.1,1.1,0,0,1,.3,1.14A2.053,2.053,0,0,1,51.385,8.47c-.576-.022-.995-.192-1.069-.738a1.892,1.892,0,0,1,.955-1.98C51.773,5.454,52.37,5.224,52.821,5.752ZM10.57,2.152a3.881,3.881,0,0,1,.926,3.8c-.476,1.5-1.957,3.5-3.735,3.819A3.331,3.331,0,0,1,5.1,8.28c-.726-1.025-.34-2.92.386-3.853C6.513,2.945,8.57,1.06,10.57,2.152Zm1.953-.813a6.487,6.487,0,0,1,1.027,5.492,7.265,7.265,0,0,1-4.83,4.626,5.169,5.169,0,0,1-4.91-2.331,13.735,13.735,0,0,0-.14,9.7A7.68,7.68,0,0,1,1.514,20c-.4-.093-.539-.147-.646-.441C-.643,15.444-.241,9.472,2.541,4.5,4.213,1.523,6.678-.035,9.257,0A4.629,4.629,0,0,1,12.524,1.339Z" transform="translate(0 0)" fill="#e82f4f" fill-rule="evenodd"/>
      <path id="Path_4534" data-name="Path 4534" d="M233.17,46.861c-.29.364-1,.74-1.248.536-1.92-1.651-.392-2.462.424-3.778a23.426,23.426,0,0,0,2.3-4.054c.978-2.035,1.934-4.849.726-6.273-1.511-1.184-3.488.472-4.531,2.024-1.471,2.188-3.16,6.555-2.06,10.464a3.66,3.66,0,0,1-2.522,1.642c-.326-.091-.758-.26-.808-.529a41.651,41.651,0,0,1,1.372-4.932c.126-.448-.08-.618-.227-1.042-.177-.448-1.118-.259-1.618-.259-1.3.294-1.708.563-2.733-.063-.375-.111-.422.386-.671.675-.863,2.854-1.495,4.928-3.181,6.151a2.169,2.169,0,0,1-2.2.071c1.468-1.135,3.2-3.305,3.233-5.054a2.451,2.451,0,0,0-1.7-2.124c-3.028-.379-5.9,4.169-4.057,6.819-.35.423-.706.54-1.673.54-.828-.251-.917-.964-1.068-1.253-.124-2.341,2.4-7.305,2.4-7.305a13.58,13.58,0,0,1,9.292-1.225c.359-.756.509-1.177.833-1.862,0-.222-4.14-.516-6.539.149a26.1,26.1,0,0,0-2.923.938s.725-2,1.049-2.792a10.766,10.766,0,0,0-2.44.4L211.542,37.6l-.252.868c-1.588.644-2.543.037-3.62-.076a2.92,2.92,0,0,0-.485,1.458c1.265.744,2.675.227,3.226.362-.9,2.678-2.313,6.4-4.34,7.183a3.134,3.134,0,0,1-2.215.2c1.6-1.4,4.348-3.856,3.048-5.963-1.731-1.734-3.266-.188-3.967.172-1.745,1.779-2.546,3.08-1.923,5.5-.506.205-1.566.441-2.165.675a2.666,2.666,0,0,0,.312,1.334,11.679,11.679,0,0,0,2.962-.988l.409.288a4.381,4.381,0,0,0,4.739-.066,5.591,5.591,0,0,0,1.922-1.338c1,1.275,1.906,2.239,4.525,1.59,1.377-1.15,1.27.472,3.447.262,3.9-.074,4.693-3.915,5.667-6.687.351-.091,1.317-.266,1.616,0-.25,1.965-2.079,4.286-.428,6.143,1,.759,2.864.355,3.937-.181.72-.36,1.038-.942,1.588-1.02.876,1.028,1.824,1.971,3.324,1.614,2.4-.892,3.31-2.9,3.562-5.157,0,0-.091-.629.21-.7a10.311,10.311,0,0,1,2.608-.061,5.9,5.9,0,0,0-.734,4,2.266,2.266,0,0,0,1.723,1.651c2.165.6,4.476-1.4,4.772-1.747.813.915,1.8,2.282,3.614,2.221a7.659,7.659,0,0,0,4.775-1.778c.9.87,1.482,1.509,2.733,1.619a5.845,5.845,0,0,0,2.9-.384,12.562,12.562,0,0,0,.222-1.417c-2.437,1.021-3.344.13-3.97-.609-.649-.849.586-3.028.835-3.88.7-1.542.912-2.226,1.623-3.494,2.349-.692,4.679-2.165,7.5-1.206a2.332,2.332,0,0,0,1.03-1.925c-2.727-.916-5.682.871-7.787,1.257a13.484,13.484,0,0,1,.857-2.544c-.589-.034-1.534.1-2.3.1-.449.984-.7,2.024-1.328,3.164a7.681,7.681,0,0,1-2.881-.463c-.292.629-.434.945-.717,1.524.326.426,1.115.362,1.64.474.4.179,1.181-.053,1.293.277-1.1,2.615-1.991,5.866-4.816,7.565a2.616,2.616,0,0,1-1.922.188,3.6,3.6,0,0,1-1.635-2.344,25.712,25.712,0,0,0,5.016-7.786c.252-1.5.822-3.024-1.1-3.983-1.1-.47-1.994.283-2.845.886a12.346,12.346,0,0,0-3.357,10.983,6.352,6.352,0,0,1-2.544,1.9,1.757,1.757,0,0,1-1.673-.5c-.672-.984.127-2.494.529-3.408.273-.671.66-.822.991-1.517a7.572,7.572,0,0,0-.843-.66c-.373-.1-1.587.59-2.313.656a6.183,6.183,0,0,1-3.194-.756c-.5-.313-.621.068-.955.232.187.993.069,4.081-1.212,5.546Zm-27.7-4.017a5.154,5.154,0,0,1-2.535,3.545c-.814-.77.378-3.4,1.647-4.139C205.15,42,205.432,42.358,205.473,42.845Zm12.36-.414A5.18,5.18,0,0,1,215.451,46c-.636-.947-.22-2.655.331-3.528a2.362,2.362,0,0,1,1.185-.761A.744.744,0,0,1,217.833,42.43Zm32.459-6.456c-.113,1.615-1.1,3.109-1.92,4.651a13.55,13.55,0,0,1-1.994,2.7,4.862,4.862,0,0,1-.221-2.344,10.123,10.123,0,0,1,2.836-5.5c.778-.826,1.446-.1,1.3.492Zm-15.886-1c.142,3.117-3.155,8.389-3.839,8.581-.811-.758.353-6.928,2.966-8.9a.6.6,0,0,1,.873.32Z" transform="translate(-190.269 -31.47)" fill="#e82f4f" fill-rule="evenodd"/>
    </g>
  </g>
</svg>
