<svg xmlns="http://www.w3.org/2000/svg" width="138.21" height="20.004" viewBox="0 0 138.21 20.004">
  <g id="Group_5958" data-name="Group 5958" transform="translate(0 0)">
    <path id="Path_4527" data-name="Path 4527" d="M1055.092,0h1.117a13.152,13.152,0,0,1,5.259,1.379,10.808,10.808,0,0,1,4.459,4.138,9.1,9.1,0,0,1,1.224,4.2v.65a9.332,9.332,0,0,1-2.435,5.785A12.191,12.191,0,0,1,1056.256,20h-1.326a12.232,12.232,0,0,1-8.354-3.8,9.359,9.359,0,0,1-2.35-4.71,8.812,8.812,0,0,1,.466-4.657,10,10,0,0,1,3.135-4.189A12.576,12.576,0,0,1,1055.092,0m-.2,2.931a3.9,3.9,0,0,0-2.243,1.9A10.227,10.227,0,0,0,1051.4,10a10.164,10.164,0,0,0,1.275,5.125,3.777,3.777,0,0,0,2.351,1.893,2.715,2.715,0,0,0,2.386-.84,7.134,7.134,0,0,0,1.767-3.383,12.017,12.017,0,0,0-.053-5.876,6.758,6.758,0,0,0-1.893-3.342A2.611,2.611,0,0,0,1054.9,2.931Z" transform="translate(-928.941 0)" fill="#0d3896"/>
    <path id="Path_4528" data-name="Path 4528" d="M311.875.623a13.553,13.553,0,0,1,9.446.492,10.993,10.993,0,0,1,5.2,4.6,8.752,8.752,0,0,1,1.006,5.749,9.409,9.409,0,0,1-2.743,5.1A12.632,12.632,0,0,1,316.741,20H315.2a12.387,12.387,0,0,1-8.793-4.181,9.04,9.04,0,0,1-2.178-5.624,8.909,8.909,0,0,1,1.659-5.326A11.524,11.524,0,0,1,311.875.623m3.366,2.3a3.386,3.386,0,0,0-1.727,1.1,8.159,8.159,0,0,0-1.72,4.06,11.354,11.354,0,0,0,.7,6.177,4.8,4.8,0,0,0,2.345,2.61,2.58,2.58,0,0,0,2.609-.419,6.361,6.361,0,0,0,1.987-3.207,11.763,11.763,0,0,0,.118-6.147,6.891,6.891,0,0,0-1.934-3.487A2.708,2.708,0,0,0,315.241,2.923Z" transform="translate(-270.668 0)" fill="#0d3896"/>
    <path id="Path_4529" data-name="Path 4529" d="M0,0Q8.72,0,17.44,0c0,.94,0,1.879.008,2.819-1.459.013-2.919.017-4.379.026Q16.058,8.9,19.055,14.958a4.884,4.884,0,0,0,.367-.731q2.6-5.712,5.2-11.423c-1.066,0-2.132,0-3.2,0,0-.935,0-1.868,0-2.8q6.007,0,12.016,0c0,.932,0,1.863-.012,2.794-1.336,0-2.673.026-4.009.023q-3.94,8.584-7.868,17.175H11.881C9.249,14.279,6.649,8.546,4,2.843c-1.334.021-2.667,0-4,.009Z" transform="translate(0 0)" fill="#0d3896"/>
    <path id="Path_4530" data-name="Path 4530" d="M549.417,2.86c.009-.953-.017-1.907.014-2.86,5.292.026,10.583,0,15.874.011,0,.939.005,1.879,0,2.818q-1.976.018-3.954.024,0,7,0,14c1.289,0,2.577-.009,3.866.01a5.462,5.462,0,0,0,4.6-2.441,7.157,7.157,0,0,0,1.076-3.727c.87,0,1.739,0,2.609,0q0,4.65,0,9.3c-8.1-.011-16.2.026-24.3-.024q0-1.559,0-3.119c1.412,0,2.823,0,4.235,0-.006-4.666,0-9.331-.012-14Q551.424,2.863,549.417,2.86Z" transform="translate(-488.596 0)" fill="#0d3896"/>
    <path id="Path_4531" data-name="Path 4531" d="M739.845,0q8.719,0,17.438,0c0,.943.019,1.886,0,2.828-1.457-.009-2.914.015-4.369.015q3,6.076,6,12.145Q761.7,8.9,764.466,2.8c-1.066,0-2.131,0-3.2,0,0-.931,0-1.863,0-2.8,4.007-.016,8.013,0,12.02-.006,0,.931,0,1.863-.009,2.794-1.336,0-2.673.027-4.01.022Q765.325,11.4,761.4,19.993q-4.837.005-9.675,0-3.938-8.569-7.866-17.144-2.008,0-4.015,0Q739.842,1.427,739.845,0Z" transform="translate(-657.816 0)" fill="#0d3896"/>
  </g>
</svg>
