<svg xmlns="http://www.w3.org/2000/svg" width="108.572" height="20" viewBox="0 0 108.572 20">
  <path id="Path_4532" data-name="Path 4532" d="M4.785,0l2.1,9.486a21.776,21.776,0,0,1,.295,4.239h.295a22.842,22.842,0,0,1,.6-4.239L10.465,0h3.889l2.993,13.726c.295-1.244.295-2.741.6-3.994L19.739,0h5.079L19.739,19.962H15.556L13.163,9.477a16.486,16.486,0,0,1-.6-3.74h-.306a15.879,15.879,0,0,1-.6,3.74L8.968,19.962H4.785L0,0Zm31.1,0V3.74H31.1V7.979h4.184v3.74H31.1v4.494h4.785v3.74H26.315V0ZM47.771,4.6a5.1,5.1,0,0,0-3.168-1.2c-1.442,0-2.305.717-2.305,1.925,0,3.123,6.916,3.368,6.916,8.66,0,3.368-2.305,6.01-6.632,6.01a10.765,10.765,0,0,1-4.032-.962v-3.6a9.315,9.315,0,0,0,3.463.962A2.4,2.4,0,0,0,44.6,14.245v-.018c0-1.443-1.147-2.16-2.589-2.887-2.6-1.443-4.327-2.887-4.327-5.774S39.992.038,43.74.038A7.615,7.615,0,0,1,47.771,1V4.6ZM63.107,0V3.74H59.218V19.962H54.433V3.74H50.839V0ZM74.467,0V3.74H69.683V7.979h4.184v3.74H69.683v4.494h4.785v3.74H64.9V0Zm2.392,19.962V0h4.785c3.288,0,8.673.254,8.673,5.737,0,2.242-1.19,3.994-3.594,5.238l4.184,8.987H85.839L81.655,10.73v9.232ZM81.644,8.478l.9.254a2.7,2.7,0,0,0,2.993-3c0-1.5-.9-2.5-3.288-2.5h-.6ZM98.21,19.953h-4.6V0H98.1l5.986,11.983a10.35,10.35,0,0,1-.295-3V0h4.785V19.962h-4.49L98.1,7.979v2" fill="#040607" fill-rule="evenodd"/>
</svg>
