<?xml version="1.0" encoding="utf-8"?>
<!-- Generator: Adobe Illustrator 23.0.3, SVG Export Plug-In . SVG Version: 6.00 Build 0)  -->
<svg version="1.1" id="Layer_1" xmlns="http://www.w3.org/2000/svg" xmlns:xlink="http://www.w3.org/1999/xlink" x="0px" y="0px"
	 viewBox="0 0 372.07 575.07" style="enable-background:new 0 0 372.07 575.07;" xml:space="preserve">
<style type="text/css">
	.st0{fill:#FFFFFF;}
</style>
<g>
	<path class="st0" d="M46.97,562.33c4.12,0,7.96,0.34,11.7-0.1c3.74-0.44,8.38,1.53,9.84,4.96c6.73-1.66,7.99-3.9,6.69-10.84
		c-0.66-3.52-1.47-7.24-1-10.7c0.68-5.05,3.33-9.8,2.09-15.18c-0.14-0.63,0.71-1.59,1.27-2.25c1.23-1.45,2.58-2.81,3.91-4.24
		c0.6,0.34,1.29,0.84,2.06,1.13c7.99,3.06,11.34,9.87,8.79,17.91c-1.27,4.01,2.59,11.07,6.41,13.37c4.87,2.94,9.32,6.58,13.9,9.88
		c-3.07,4.64-11.97,8.7-15.44,6.74c-3.29-1.86-3.9,0.07-5.33,2.05c11.73,0.07,39.44-8.24,46.99-14.03c-0.6-0.51-1.76-1.36-1.7-1.45
		c3.22-5.22,6.55-10.38,10.26-16.15c0.06,0.03-0.5-0.35-1.11-0.58c-6.35-2.42-7.91-5.75-5.75-11.95c0.76-2.19,1.82-4.51,1.7-6.72
		c-0.13-2.25-1.03-5.9-2.47-6.39c-8.7-2.97-14.43-9.73-21.18-15.21c-2.72-2.21-3.62-4.31-2.5-7.73c1.14-3.46,1.61-7.14,2.6-11.78
		c83.56-10.27,168-22.1,253.38-37.65c-3.4-4.76-5.67-8.99-8.93-12.22c-4.49-4.45-6.04-10.18-8.38-15.61
		c-0.23-0.55,0.47-1.44,0.58-2.2c0.34-2.34,0.87-4.7,0.86-7.05c-0.02-5.67-1.59-11.68-0.17-16.91c1.77-6.52-0.27-11.94-3.83-15.73
		c-4.6-4.9-7.76-10.41-8.53-16.4c-0.56-4.38-3.36-8.71-0.5-14.07c3.13-5.86,4.04-12.87,2.59-19.94c-1.27-6.23-2.24-12.73,5.88-15.93
		c1.8-0.71,3.01-3.03,4.35-4.72c2.06-2.6,2.62-5.07-1.14-6.74c-2.97-1.32-5.95-2.64-8.39-3.73c0.63-4.35,1.19-8.18,1.65-11.38
		c-1.45-1.61-3.3-2.7-3.38-3.91c-0.33-4.93-3.77-7.44-6.78-10.59c-2.53-2.65-4.39-6.03-6.15-9.31c-1.67-3.11-2.62-6.61-4.24-9.76
		c-3.14-6.08-7.53-11.7-9.65-18.09c-24.22-73.11-48.1-146.34-72.07-219.53C241.64-1.23,241.7-0.91,228.5,0.94
		c-38.09,5.34-76.19,10.62-114.34,15.48C77.81,21.06,41.4,25.14,5.03,29.51c-1.5,0.18-2.93,0.84-5.03,1.47
		c3.14,3.76,5.26,7.51,8.44,9.74c2.44,1.71,3.23,3.15,3.28,5.87c2.29,114.64,4.63,229.27,6.98,343.91c0.04,1.82,0.26,3.65,0.56,5.45
		c6.47,39.09,12.95,78.17,19.45,117.25C41.44,529.59,44.22,545.97,46.97,562.33z"/>
	<path d="M46.97,562.33c-2.75-16.36-5.53-32.74-8.26-49.14c-6.5-39.08-12.98-78.17-19.45-117.25c-0.3-1.8-0.53-3.63-0.56-5.45
		c-2.35-114.64-4.69-229.27-6.98-343.91c-0.05-2.71-0.84-4.15-3.28-5.87C5.26,38.48,3.14,34.74,0,30.97
		c2.09-0.63,3.53-1.29,5.03-1.47c36.38-4.37,72.79-8.45,109.13-13.08c38.15-4.87,76.25-10.14,114.34-15.48
		c13.2-1.85,13.14-2.17,17.35,10.67c23.97,73.2,47.86,146.42,72.07,219.53c2.12,6.39,6.52,12.01,9.65,18.09
		c1.62,3.14,2.57,6.64,4.24,9.76c1.76,3.27,3.62,6.66,6.15,9.31c3.01,3.15,6.45,5.66,6.78,10.59c0.08,1.21,1.93,2.3,3.38,3.91
		c-0.47,3.2-1.02,7.02-1.65,11.38c2.44,1.08,5.42,2.4,8.39,3.73c3.76,1.67,3.2,4.14,1.14,6.74c-1.34,1.69-2.56,4.01-4.35,4.72
		c-8.12,3.2-7.15,9.7-5.88,15.93c1.45,7.07,0.54,14.08-2.59,19.94c-2.86,5.36-0.06,9.69,0.5,14.07c0.77,5.99,3.93,11.5,8.53,16.4
		c3.56,3.79,5.61,9.21,3.83,15.73c-1.42,5.23,0.15,11.24,0.17,16.91c0.01,2.35-0.51,4.71-0.86,7.05c-0.11,0.76-0.81,1.65-0.58,2.2
		c2.33,5.43,3.88,11.16,8.38,15.61c3.26,3.23,5.52,7.46,8.93,12.22c-85.38,15.55-169.82,27.38-253.38,37.65
		c-0.99,4.63-1.46,8.31-2.6,11.78c-1.13,3.42-0.22,5.53,2.5,7.73c6.75,5.48,12.49,12.24,21.18,15.21c1.44,0.49,2.34,4.14,2.47,6.39
		c0.12,2.2-0.94,4.53-1.7,6.72c-2.16,6.2-0.6,9.54,5.75,11.95c0.61,0.23,1.17,0.61,1.11,0.58c-3.71,5.77-7.03,10.93-10.26,16.15
		c-0.06,0.1,1.1,0.95,1.7,1.45c-7.55,5.79-35.26,14.1-46.99,14.03c1.43-1.98,2.04-3.91,5.33-2.05c3.48,1.97,12.37-2.1,15.44-6.74
		c-4.58-3.3-9.03-6.95-13.9-9.88c-3.82-2.3-7.69-9.36-6.41-13.37c2.55-8.04-0.8-14.85-8.79-17.91c-0.77-0.29-1.46-0.8-2.06-1.13
		c-1.33,1.43-2.68,2.79-3.91,4.24c-0.56,0.66-1.41,1.62-1.27,2.25c1.24,5.38-1.41,10.13-2.09,15.18c-0.47,3.46,0.34,7.18,1,10.7
		c1.31,6.94,0.04,9.18-6.69,10.84c-1.46-3.43-6.1-5.4-9.84-4.96C54.93,562.68,51.09,562.33,46.97,562.33z"/>
</g>
</svg>
