<?xml version="1.0" encoding="utf-8"?>
<!-- Generator: Adobe Illustrator 23.0.3, SVG Export Plug-In . SVG Version: 6.00 Build 0)  -->
<svg version="1.1" id="Layer_1" xmlns="http://www.w3.org/2000/svg" xmlns:xlink="http://www.w3.org/1999/xlink" x="0px" y="0px"
	 viewBox="0 0 436.26 426.53" style="enable-background:new 0 0 436.26 426.53;" xml:space="preserve">
<style type="text/css">
	.st0{fill:#FFFFFF;}
</style>
<g>
	<path d="M95.26,384.97c2.69-3.53,4.94-7.58,8.21-10.44c2.82-2.46,6.63-4.69,10.35-0.06c0.78,0.97,3.81,0.14,4.8,0.14
		c0-2.19-0.54-4.48,0.1-6.37c1.72-5.1,12.54-12.08,17.94-12c0.24-7.45,3.4-8.94,10.82-14.7c0.08-9.48,1.55-18.59,6.92-26.76
		c-3.3,1.73-6.55,3.55-9.9,5.17c-3.08,1.5-5.15-0.55-5.93-5.78c-5.77,2.09-1.99,6.95-3.12,12.26c-3.43-4.58-6.01-8.03-8.89-11.87
		c-0.73,0.92-1.37,1.72-2.16,2.72c-1.79-1.69-3.59-3.39-5.61-5.3c-3.39,2.54-6.89,5.5-10.74,7.87c-1.56,0.96-3.91,0.66-5.1,0.82
		c1.05-3.32,2.05-6.51,3.14-9.96c-4.61,0.8-4.87-2.29-3.06-4.82c2.35-3.29,0.97-5.78-0.23-8.57c-1.5-3.46-3.17-6.84-4.54-10.35
		c-0.35-0.9,0.18-2.13-0.16-3.46c-0.56,1.17-1.3,2.29-1.63,3.53c-0.5,1.87-0.03,4.71-1.16,5.57c-4.16,3.16-9.01,5.3-14.34,3.26
		c-1.13-0.43-1.51-2.83-2.23-4.33c-1.96-4.07-8.07-4.53-8.66-9.87c-0.01-0.1-1.79-0.01-2.95-0.01c2.06-2.95,3.93-5.63,5.97-8.56
		c-1.7-0.24-2.74-0.38-4.52-0.63c1.32-1.2,2.11-1.92,3.46-3.15c-2.39-0.3-4.33-0.55-7.19-0.91c-0.79-1.91-1.99-4.82-3.63-8.79
		c0.16,0.03-1.13-0.2-2.27-0.41c0.7-1.83,1.32-3.46,2.24-5.85c0.2-0.06,1.44-0.43,2.67-0.81c-1.39-5.58,3.33-13.77,9.1-15.71
		c0.47-3.77-3.11-9.32,3.14-10.79c0.64-1.69,0.85-3.93,1.75-4.26c1.67-0.6,4.07-0.71,5.59,0.09c8.08,4.21,9.08,4.04,14.17-3.95
		c0.7-1.11,1.47-2.17,2.58-1.75c3.56-0.45,7.71,0.08,10.54-1.61c3.49-2.08,5.26-5.78,3.57-10.78c-1.51-4.46-1.9-9.2-6.26-11.45
		c2.41-1.61,5.6-2.63,6.38-4.61c0.65-1.64-1.53-4.41-2.24-6.16c-3.74,1.85-6.89,3.01-9.58,4.84c-3.07,2.09-5.73,4.78-8.41,7.07
		c-1.04-1.37-2.71-3.58-4.39-5.79c-0.43,0.33-0.86,0.66-1.29,0.99c0.82,1.25,1.65,2.51,2.47,3.76c-5.31-4.52-10.85-3.75-16.33-1.37
		c-6.01,2.61-11.07-0.89-16.46-2.15c-0.98-0.23-1.98-1.78-2.36-2.92c-1.02-3.02-1.7-6.16-2.6-9.58c1.19-1.07,3.14-2.83,4.77-4.3
		c-6.18-2.2-12.75-4.55-19.32-6.89c-0.07-0.64-0.14-1.28-0.21-1.93c5.17,0.2,5.17-7.13,10.88-6.26c0.38,0.06,1.04-0.79,1.36-1.35
		c2.6-4.5,5.58-7.81,11.37-4.61c0.62,0.34,1.83-0.37,3.46-0.75c-1.52-1.16-2.56-1.96-3.51-2.68c-0.43-3.66,16.4-10.1,21.82-8.41
		c-0.4,2.55-0.7,5.14-1.24,7.68c-0.72,3.38,0.45,4.73,3.95,4.83c5.74,0.17,11.47,0.74,17.67,1.18c0.84-1.59,1.99-3.75,3.17-5.97
		c1.81,0.58,3.43,1.1,5.23,1.67c-0.32-5.79-6.31-3.94-9.6-6.43c2.85-0.66,4.81-1.11,6.78-1.57c3.57,0.95,6.11,6.44,10.86,2.3
		c2.34-6.74-4.82-3.72-6.68-6.2c-1.34,1.36-2.68,2.72-4.03,4.08c-7.17-3.93-7.93-6.78-2.46-14.01c-5.45,0-9.95,0.17-14.43-0.07
		c-2.43-0.13-4.91-0.71-7.2-1.54c-0.9-0.33-1.81-1.85-1.93-2.91c-0.64-5.51-2.39-10.29-7.04-13.76c-5-3.72-10.18-7.29-14.68-11.56
		c-2.21-2.1-3.07-5.63-4.54-8.51c-0.6,0.93-1.19,1.86-1.79,2.8c1.08-4.98,2.15-9.96,3.26-15.11c4.58-0.49,9.94-0.96,15.26-1.65
		c7.51-0.98,15.63-7.94,16.02-15.58c0.44-8.76,5.79-14.71,9.61-21.62c0.87-1.58,2.01-3.01,3.34-4.98c0.56,1.23,0.97,2.12,1.35,2.95
		c12.49-1.09,16.48-14.33,26.71-19.37c-0.54,0.75-1.08,1.49-1.62,2.24c0.14,0.34,0.29,0.68,0.43,1.02
		c5.58-1.73,11.93-2.33,16.52-5.49c4.67-3.23,7.58-8.98,11.28-13.64c2.39,1.36,4.97,2.84,7.56,4.31c1.32,0.75,2.64,1.5,3.96,2.26
		c-1,1.6-1.93,3.26-3.03,4.78c-0.32,0.44-1.15,0.51-1.9,0.81c0.3,1.56,0.57,2.96,0.85,4.37c0.42,0.27,0.84,0.53,1.26,0.8
		c2.39-3.1,4.77-6.2,7.6-9.87c2.63,0.44,6.78,0.34,4.49,6.25c-0.23,0.59,0.86,2.34,1.57,2.49c1.66,0.36,3.8,0.69,5.14-0.06
		c3.8-2.14,7.36-3.36,11.72-1.48c2.01,0.87,4.48,0.68,7.03,1.01c-3.35,7.31-3.35,7.31,4.34,9.35c-0.25,1.02-0.5,2.05-0.9,3.67
		c2.73,0,5.38,0.27,7.94-0.07c2.99-0.4,5.85-3.93,8.93-0.08c0.21,0.26,1.37,0.07,1.86-0.25c6.45-4.16,11.53-0.53,16.66,2.85
		c0.6,0.39,1.21,0.78,1.87,1.07c1.97,0.85,3.9,1.87,5.96,2.43c3.08,0.84,6.26,1.87,9.4,1.88c5.56,0.01,10.76,0.35,15.28,4.16
		c3.02,2.54,6.35,2.6,10.08,0.84c9.01-4.23,14.97-2.64,22.09,3.79c3.81,3.44,8.82,5.54,14,8.67c0,0.95,0,2.92,0,4.89
		c0.01,73.47,0.03,146.95,0.01,220.42c0,4.59-0.4,9.05,6.64,7.3c1.13-0.28,2.66,1.08,2.79,1.13c4-1.27,6.97-2.22,11.03-3.51
		c-3.09,8.85,4.23,11.26,7.39,15.82c3.22,4.64,9.31,7.35,8.77,14.24c2.06-0.82,3.65-1.45,5.24-2.08c1.72,1.41,3.43,2.82,5.15,4.23
		c0.98,1.47,2.05,2.9,2.9,4.44c0.83,1.5,1.42,3.12,2.18,4.82c-2.71,0.64-4.72,1.12-7.51,1.78c-11.29-6.03-17.32-20.56-31.05-23.85
		c0.73-3.52,1.24-6.03,1.76-8.54c-0.39-0.38-0.78-0.75-1.17-1.13c-5.84,6.95-11.85,5.04-17.68,1.23c0.16-1.53,0.33-3.1,0.42-3.94
		c-2.22,0.56-4.17,1.74-5.57,1.27c-5.5-1.85-11.01-2.94-16.6-1.04c-6.34,2.15-9.74-3.36-14.46-5.33c-0.84-0.35-0.73-2.96-1.33-5.81
		c-1.22,2.3-1.91,3.61-2.74,5.18c-2.19-1.18-4.56-2.45-7.17-3.85c0.52-0.85,0.99-1.62,1.7-2.76c-3.12-0.68-6.04-1.33-8.9-1.95
		c0.54-0.38,1.38-0.97,1.61-1.13c-1.22-1.66-2.45-3.34-3.76-5.13c-1.38,0.5-3.75,1.36-6.33,2.29c-0.47-0.74-1.09-1.69-1.22-1.89
		c-1.73,1.54-3.61,3.22-5.5,4.9c-0.28-0.23-0.57-0.47-0.85-0.7c0.32-1.59,0.64-3.18,0.96-4.77c-0.27-0.12-0.54-0.24-0.82-0.36
		c-1.36,1.78-2.72,3.56-4.33,5.65c1.23,0.54,2.61,1.14,4.31,1.89c-1.08,1.24-2.09,2.4-3.46,3.97c1.4-0.21,2.71-0.41,5.32-0.8
		c-1.64,2.55-2.81,4.38-3.88,6.05c0.9,1.34,1.75,2.61,2.6,3.88c-0.19,0.21-0.38,0.43-0.58,0.64c-0.7-0.37-1.4-0.75-2.52-1.35
		c-1.32,6.6-6.76,1.44-10.18,3.16c-0.8,0.4-3.79,1.5-5.16,2.86c-4.03,4-7.84,8.48-12.57,11.42c-2.36,1.46-6.71,3.34-10.79-0.65
		c3.62-2.85,6.95-5.48,10.28-8.11c-0.24-0.37-0.49-0.74-0.73-1.1c-0.86,0.5-1.69,1.29-2.6,1.42c-1.33,0.18-2.98,0.29-4.01-0.35
		c-0.67-0.42-0.9-2.36-0.57-3.37c0.65-2.01,2.11-3.76,2.73-5.77c1.19-3.91,2.04-7.93,3.32-13.09c1.86-1.31,5.08-3.59,7.13-5.04
		c3.52,0.38,5.93,0.65,9.19,1c-1.75-2.67-2.73-4.15-4.38-6.66c-3.37-0.33-7.2-0.31-11.84,3.77c-5.23,4.6-9.05,9.46-12.04,15.46
		c-0.69,1.39-2.61,2.17-3.98,3.23c2.31,2.93,1.92,4.88-1.53,6.56c-0.68,0.33-0.89,1.55-1.43,2.26c-0.64,0.85-1.28,2.06-2.15,2.32
		c-5.28,1.57-8.15,5.37-9.93,10.24c-0.2,0.54,0.08,1.25,0.15,1.98c1.46,0,2.91-0.39,3.97,0.09c1.72,0.79,4.42,2.09,4.47,3.27
		c0.07,1.72-1.68,3.65-2.94,5.27c-1.73,2.24-3.76,4.25-5.6,6.4c-1.25,1.45-2.16,3.31-3.65,4.41c-6.21,4.61-12.58,9-18.88,13.49
		c-0.4,0.28-1.02,0.77-0.97,1.07c1.29,7.77-5.33,7.73-9.68,10.05c-0.97,0.52-1.44,1.99-1.7,2.38c-3.55,1.89-6.79,3.62-10.13,5.39
		c2.9,3.52,2.56,4.41-1.29,6.48c-3.67,1.97-7.18,4.26-10.77,6.42c0.02,0.09-0.19-0.86-0.43-1.89c-6.01,3.11-11.86,6.14-17.71,9.17
		c-0.32-0.45-0.63-0.91-0.95-1.36c0.34-1.25,0.68-2.5,1.25-4.62c-5.55,2.59-4.33,10.85-10.45,11.05c-1.33-1.47-2.42-2.68-3.51-3.88
		L95.26,384.97z M80.35,276.68c-0.32,0.52-0.64,1.04-0.97,1.55c1-0.69,2-1.37,3.14-2.15c0.6,1.6,1.06,2.81,2.02,5.38
		c1.16-2.46,1.77-3.76,2.38-5.06c-3.37-0.96-6.73-1.91-10.1-2.87c-0.05,0.36-0.1,0.72-0.14,1.08
		C77.91,275.31,79.13,275.99,80.35,276.68z"/>
	<path d="M368.81,316.42c-1.72-1.41-3.43-2.82-5.15-4.23c3.7-3.04,6.22-6.68,7.99-11.31c0.77-2.01,5-2.69,8.8-4.53
		c1.16,2.74,2.28,5.43,3.44,8.09c0.45,1.03,0.81,2.19,1.54,2.98c4.02,4.37,9.04,8.11,12.04,13.07c5.74,9.49,10.6,19.55,15.36,29.6
		c3.03,6.4,7.09,11.26,13.7,14.14c3.33,1.45,6.34,3.75,9.29,5.93c0.6,0.45,0.41,2.11,0.41,3.21c-0.02,2.86-0.57,5.79-0.14,8.57
		c0.82,5.36-3.05,10.69-8.65,11.24c-2.02-8.53-4.66-10.59-10.4-6.56c1.3-5.12,2.36-9.3,3.42-13.47c-0.28-0.18-0.55-0.36-0.83-0.54
		c-0.55,1.07-1.15,2.12-1.65,3.22c-0.6,1.32-1.11,2.67-1.8,4.38c-5.68-3.85,2.05-7.52-0.78-11.49c-0.78,1.46-1.42,2.66-2.2,4.1
		c-1.58-1.37-2.98-2.59-4.58-3.97c1.37-2.7,2.77-5.44,4.3-8.45c-3.69,0.22-7.1-0.6-8.45,0.71c-3.08,2.98-4.89,1.77-7.18-1.02
		c-1.17,3.58-2.22,6.82-3.27,10.05c-0.46-0.07-0.92-0.14-1.37-0.22c0.19-2.4,0.38-4.81,0.6-7.73c-0.44-1.84-1.07-4.46-1.7-7.07
		c1.8,0.32,3.61,0.63,5.77,1.01c-0.65-1.34-1.38-2.83-2.26-4.66c6.71-1.23,10.91,2.95,15.15,7.16c-2.73-3.95-3.78-9.44-8.96-9.11
		c-0.54-3.03-1.14-5.4-1.35-7.8c-0.37-4.15-2.44-7.38-5.31-10.13c-1.24-1.19-2.89-1.95-4.27-3.01c-0.76-0.58-1.61-1.27-1.99-2.11
		c-2.53-5.63-4.94-11.31-8.08-16.98c1.21,6.21,2.42,12.43,3.79,19.43c-3.34-1.98-5.58-3.3-8.39-4.97c-0.47-1.89-1.2-4.83-1.69-6.83
		C371.86,316.85,370.34,316.63,368.81,316.42z"/>
	<path d="M379.38,347.35c-0.78,1.92-1.45,3.59-2.12,5.25c-0.31-6.89-2.9-12.19-7.48-16.91c-0.8-0.82-0.22-4.72,0.63-5.09
		c2.69-1.15,5.78-5.16,8.82-0.22c0.29,0.47,1.57,0.26,2.35,0.49c2.31,0.68,4.22,1.18,3.36,4.71c-0.56,2.27,0.75,4.99,1.33,8.06
		c-1.98-0.46-3.33-0.78-4.83-1.13c5.63,4.25,8.18,14.18,5.11,24.53C384.2,360.62,381.87,354.2,379.38,347.35z"/>
	<path d="M197.91,334.65c1.37,0.14,2.73,0.28,4.13,0.42c0.45,1.86,0.95,3.93,1.79,7.41c-1.03,0.25-3.11,0.75-4.96,1.2
		c0.11,0.14,0.78,1.03,1.06,1.39c-2.45,2.6-4.53,4.82-6.65,7.08c-0.48-0.86-0.9-1.62-1.39-2.49c-2.03,2.76-3.84,5.24-5.66,7.72
		c-0.38-0.25-0.76-0.49-1.14-0.74c0.64-1.28,1.27-2.55,1.97-3.96c-2.17,0.13-4.12,0.25-6.07,0.37c-0.04-0.41-0.08-0.82-0.12-1.24
		c0.83-0.52,1.67-1.04,1.83-1.14c-1.45-1.73-4.06-3.43-4.23-5.33c-0.36-4.17,5.54-6.4,9.23-3.26c-0.24-2.2-0.44-3.98-0.63-5.75
		c1.49,0.08,2.98,0.16,4.47,0.25c-0.16-0.24-0.32-0.48-0.48-0.72c1.84-0.71,3.69-1.43,5.53-2.14
		C197.05,334.02,197.48,334.33,197.91,334.65z"/>
	<path d="M414.8,395.36c-1.98-2.38-3.95-4.76-5.93-7.14c-0.23,0.28-0.46,0.56-0.7,0.83c-1.39-1.76-2.77-3.52-4.25-5.4
		c-0.59-3.68-1.26-7.89-2-12.57c-1.02,0.35-2.48,0.84-4.07,1.39c0.69-2.16,1.38-4.3,2.31-7.16c1.67-0.09,4.29-0.8,4.7,3.26
		c0.08,0.78,1.23,1.52,2.01,2.14c2.9,2.29,5.2,4.73,3.94,8.94c-0.19,0.63,0.77,1.98,1.53,2.46
		C417.71,385.47,415.09,390.51,414.8,395.36z"/>
	<path d="M1.14,209.55c3.02,3.66,6.21,4.79,10.62,2.09c1.25-0.76,4.76-0.21,5.41,0.85c2.85,4.65,6.9,6.29,12,6.6
		c0.95,0.06,1.82,1.32,2.73,2.02c-0.84,0.55-1.62,1.22-2.52,1.64c-2.47,1.15-4.98,2.19-7.27,3.19c-3.29-2.58-7.35-5.97-11.66-8.98
		c-0.84-0.59-2.71,0.29-4.11,0.5c-1.75,0.26-4.6,1.29-5.04,0.65c-1.06-1.53-1.15-3.83-1.3-5.84
		C-0.06,211.41,0.73,210.48,1.14,209.55z"/>
	<path d="M63.41,286.54c0.34,2.2,0.74,4.77,1.14,7.36c-9.34,3.03-15.15,1.28-18.53-6.04C52.1,288.98,56.83,280.9,63.41,286.54z"/>
	<path d="M95.11,384.83c0,1.9,0,3.81,0,7.03c-1.74-1.53-2.32-1.99-2.84-2.51c-0.55-0.56-1.05-1.17-1.73-1.92
		c-0.39,2.65-0.72,4.89-1.12,7.64c-2.82,3.26-9.49-1.1-12.52,4.62c-0.33,0.62-2.88,0.07-4.4,0.06c0.27-1.2,0.33-2.49,0.84-3.58
		c1.43-3.02,3.84-4.7,7.06-5.92c2.95-1.11,5.42-2.92,7.95,1.43c-0.1-5.6,3.85-5.62,6.9-6.71C95.26,384.97,95.11,384.83,95.11,384.83
		z"/>
	<path d="M389.85,350.99c-1.38-8.07-2.82-16.43-4.16-24.28c1.72,1.1,4.04,2.58,6.5,4.14c0.27,1.66-0.04,4.4,1.14,6.12
		C397.8,343.47,396.26,346.61,389.85,350.99z"/>
	<path d="M197.91,334.65c-0.43-0.31-0.86-0.63-1.29-0.94c-1.12-0.69-2.24-1.38-4.23-2.61c2.21-1.7,4.37-2.93,5.93-4.7
		c1.49-1.69,2.34-3.94,4.45-5.47c-0.36,1.27-0.72,2.53-1,3.53c1.93,1.05,3.7,2.01,5.08,2.77C203.51,330,200.71,332.33,197.91,334.65
		z"/>
	<path d="M57.36,409.59c-0.26,0.3-0.98,1.15-2.27,2.64c1.59-0.34,2.49-0.54,3.39-0.73c0.17,0.32,0.33,0.65,0.5,0.97
		c-5.44,2.92-10.88,5.84-16.32,8.77c-0.31-0.62-0.62-1.25-0.93-1.87c1.57-0.59,3.68-0.76,4.58-1.88c1.39-1.72,1.99-4.1,2.85-6.23
		c0.33-0.8,0.19-2.15,0.72-2.44c1.07-0.6,2.47-0.94,3.69-0.84C54.71,408.08,55.79,408.89,57.36,409.59z"/>
	<path d="M30.13,425.54c2.52-3.24,4.93-6.57,7.66-9.62c0.47-0.52,2.28,0.15,4.89,0.42c-4.42,4.02-7.8,7.11-11.18,10.19
		C31.04,426.2,30.58,425.87,30.13,425.54z"/>
	<path d="M100.37,136.78c-1.48-1.93-2.95-3.86-4.43-5.79c0.78-0.48,2.16-1.47,2.25-1.37c1.51,1.82,2.87,3.77,4.26,5.7
		C101.75,135.8,101.06,136.29,100.37,136.78z"/>
	<path d="M249.49,296.42c3.02-3.99,5.67-7.49,8.28-10.94C258.87,288.16,254.18,294.97,249.49,296.42z"/>
	<path class="st0" d="M109.95,140.8c1.34-1.36,2.68-2.72,4.03-4.08c1.86,2.49,9.02-0.53,6.68,6.2c-4.75,4.14-7.29-1.35-10.86-2.3
		C109.79,140.62,109.95,140.8,109.95,140.8z"/>
	<path class="st0" d="M80.35,276.68c-1.22-0.69-2.44-1.38-3.66-2.06c0.05-0.36,0.1-0.72,0.14-1.08c3.37,0.96,6.73,1.91,10.1,2.87
		c-0.61,1.3-1.23,2.6-2.38,5.06c-0.96-2.57-1.42-3.79-2.02-5.38c-1.14,0.78-2.14,1.47-3.14,2.15
		C79.71,277.72,80.03,277.2,80.35,276.68z"/>
</g>
</svg>
