<?xml version="1.0" encoding="utf-8"?>
<!-- Generator: Adobe Illustrator 23.0.3, SVG Export Plug-In . SVG Version: 6.00 Build 0)  -->
<svg version="1.1" id="Layer_1" xmlns="http://www.w3.org/2000/svg" xmlns:xlink="http://www.w3.org/1999/xlink" x="0px" y="0px"
	 viewBox="0 0 283.96 539.8" style="enable-background:new 0 0 283.96 539.8;" xml:space="preserve">
<g>
	<path d="M153.91,518.26c-2.34-1.72-4.2-3.09-6.63-4.88c5.56-2.8,5.89-6.52,4.8-11.29c-0.97-4.23,0.05-9-1.29-13.05
		c-1.98-5.97-5.27-11.5-8.07-17.36c-2.22,0.43-3.96,0.77-6.15,1.19c-0.48-1.09-0.96-2.26-1.51-3.4c-1.03-2.11-0.67-4.86-4.8-4.96
		c-1.96-0.05-3.75-4.26-5.73-6.48c-3.14-3.51-7.68-6.43-9.26-10.52c-2.27-5.87-10.21-7.46-10.03-14.73
		c0.03-1.15-0.99-2.45-1.77-3.49c-3.38-4.5-6.85-8.93-9.93-12.93c-1.48,0.79-3.83,2.05-6.18,3.31c-0.94-2.88-1.77-5.81-2.88-8.63
		c-0.47-1.2-1.45-2.23-2.3-3.25c-2.36-2.82-4.77-5.6-7.52-8.82c-4.2,2.51-8.81,1.12-13.09-2.76c1.01-1.69,1.94-3.25,3.13-5.24
		c-2.38-2.03-4.73-4.04-6.67-5.7c-2.48,1.52-4.57,2.81-6.66,4.1c-1.68-4.14-3.06-7.56-4.45-10.98c0.24-0.05,0.49-0.1,0.73-0.14
		c-0.94-3.84-1.89-7.69-2.83-11.54c-2.21-0.43-4.15-0.8-6.08-1.18c0.35-0.3,0.7-0.59,1.06-0.89c-3.32-4.88-6.64-9.76-10.08-14.81
		c-5.49,5-7.46,4.4-10.81-0.59c-1.5-2.23-4.33-3.99-6.93-4.97c-5.75-2.16-8.41-5.29-8.39-11.66c1.38,0,2.76,0,4.19,0
		c-0.08-0.67,0-1.12-0.18-1.26c-6.88-5.58-7.63-12.93-7.6-21.33C0.25,208.88,0.16,107.73,0.16,6.58c0-2.11,0-4.22,0-6.58
		c94.85,0,189.1,0,283.8,0c0,179.67,0,359.33,0,539.43c-2,0.12-3.59,0.31-5.19,0.31c-35.33,0.02-70.65-0.02-105.98,0.07
		c-3.1,0.01-5.37-0.34-6.57-3.74c-0.46-1.32-2.22-2.31-3.56-3.17C156.9,529.23,153.99,524.04,153.91,518.26z"/>
</g>
</svg>
