<?xml version="1.0" encoding="utf-8"?>
<!-- Generator: Adobe Illustrator 23.0.3, SVG Export Plug-In . SVG Version: 6.00 Build 0)  -->
<svg version="1.1" id="Layer_1" xmlns="http://www.w3.org/2000/svg" xmlns:xlink="http://www.w3.org/1999/xlink" x="0px" y="0px"
	 viewBox="0 0 460.64 539.26" style="enable-background:new 0 0 460.64 539.26;" xml:space="preserve">
<g>
	<path d="M0,426.96c1.69-1.34,3.03-2.42,4.38-3.49c-0.34-0.12-0.68-0.24-1.02-0.37c1.35-2.79,2.69-5.58,4.06-8.36
		c0.22-0.45,0.69-0.82,0.77-1.27c1.22-6.83,4.85-8.51,9.72-5.2c3.26-3.33,5.51-6.8,8.69-8.61c5.42-3.07,4.31-7.56,4-12.09
		c-0.6-8.98-3.32-11.64-12.31-12.17c-4.37-0.26-6.44-2.53-5.29-6.8c1.6-5.95,2.21-11.34-1.09-17.21c-1.05-1.87,1.3-6.18,2.92-8.88
		c1.77-2.95,4.99-5.05,6.67-8.03c2.47-4.4,5.09-9.09,5.94-13.95c1.53-8.7,1.23-17.72,2.74-26.42c1.56-9,6.99-15.9,14.57-21.12
		c4.08-2.81,8.22-5.67,11.72-9.12c3.67-3.62,3.88-7.96,0.22-11.59c-4.16-4.13-9.24-7.33-13.88-10.98c-0.97-0.76-2-1.62-2.57-2.67
		c-0.7-1.29-1.11-2.8-1.38-4.26c-1.92-10.62-5.84-20.19-12.46-28.95c-4.95-6.55-5.68-14.33-1.81-22.15
		c0.48-0.97-0.57-2.68-0.99-4.38c5.49-2.39,5.8-7.37,4.85-12.57c-1.57-8.64-3.86-17.17-5.11-25.85c-1.3-9.03-1.82-18.18-2.47-27.29
		c-0.11-1.53,0.84-3.14,1.28-4.72c0.34-1.25,1.18-2.66,0.88-3.75c-1.45-5.26-3.36-10.4-4.78-15.68c-0.35-1.31-0.01-3.43,0.87-4.34
		c3.52-3.64,7.79-5.61,13.07-4.31c3.9,0.96,7.71,3.45,11.94,0.39c0.39-0.28,3.94,2.33,4.49,4.08c1.23,3.9,3.34,7.54,7.18,6.95
		c2.67-0.41,5.07-4.02,7.14-6.56c2.07-2.54,3.75-5.45,5.26-8.38c0.85-1.63,1.4-3.6,1.44-5.44c0.55-21.16,0.98-42.32,1.46-63.48
		C71.2,5.49,71.41,3.03,71.59,0c124.81,0,249.22,0,374.12,0c4.97,178.44,9.95,357.1,14.94,536.07c-1.11,0.13-2.05,0.32-2.99,0.34
		c-51.99,0.99-103.97,2-155.96,2.85c-3.38,0.06-6.97-0.61-10.14-1.8C195.53,501.17,99.56,464.77,3.58,428.39
		C2.65,428.04,1.73,427.65,0,426.96z"/>
</g>
</svg>
