<?xml version="1.0" encoding="utf-8"?>
<!-- Generator: Adobe Illustrator 23.0.3, SVG Export Plug-In . SVG Version: 6.00 Build 0)  -->
<svg version="1.1" id="Layer_1" xmlns="http://www.w3.org/2000/svg" xmlns:xlink="http://www.w3.org/1999/xlink" x="0px" y="0px"
	 viewBox="0 0 598.8 515.57" style="enable-background:new 0 0 598.8 515.57;" xml:space="preserve">
<g>
	<path d="M429.21,490.53c-4.72,3.01-9.32,5.94-14.08,8.98c2.87,5.35,5.59,10.42,8.62,16.07c-117.96,0-235.15,0-352.94,0
		c0-2,0-3.78,0-5.56c0-20.67-0.07-41.33,0.07-62c0.02-3.2-0.79-5.21-3.66-6.83c-4.91-2.78-9.59-5.96-14.52-9.07
		c-3.69,3.11-7.34,6.01-10.76,9.14c-1.87,1.72-3.52,2.32-5.56,0.5c-0.12-0.11-0.28-0.19-0.42-0.28c-6.32-4.01-15-6.67-18.27-12.41
		c-3.15-5.52-0.84-14.23-0.69-21.53c1.54-76.64,3.49-153.28,4.41-229.93c0.21-17.18-2.75-34.45-4.89-51.6
		C11.9,88.98,6.86,52.03,1.99,15.05C1.36,10.27,0.72,5.49,0,0.09c2.06,0,3.84,0,5.63,0C181.95,0.09,358.28,0.11,534.6,0
		c4.12,0,6.21,1.07,7.55,5.1c2.14,6.46,4.83,12.76,7.56,19c1.23,2.81,0.82,4.74-1.06,7.14c-10.7,13.63-21.2,27.41-31.77,41.14
		c-0.98,1.28-1.91,2.61-3.32,4.56c2.4,0.11,4.13,0.25,5.86,0.25c21,0.02,42,0.21,62.99-0.12c5.54-0.09,9.61,1.2,12.5,5.98
		c0.94,1.54,2.31,2.82,3.89,4.69c-5.22,7.19-10.09,14.73-15.89,21.47c-2.15,2.49-6.47,3.13-9.82,4.57c-2.28,0.98-4.6,1.88-7.66,3.12
		c3.34,5.96,6.54,11.68,10.1,18.03c-8.1,4.97-16.09,9.89-24.28,14.92c1.5,4.47,2.91,8.67,4.5,13.41c-5.32,0-10.11,0-15.72,0
		c3.71,14.14,7.28,27.7,10.83,41.21c-0.43,0.29-0.72,0.65-0.92,0.61c-8.68-1.93-12.13,2.94-13.79,10.4c-0.5,2.23-1.59,4.33-2.5,6.74
		c-4.41,0-8.69,0-13.69,0c2.51,5.12,4.75,9.68,7.19,14.66c-8.45,3.43-16.81,6.62-24.96,10.3c-2.08,0.94-3.7,3.26-5.07,5.27
		c-0.99,1.45-1.07,3.49-1.82,5.15c-5,11.03-4.76,22.31-3.01,34.09c0.89,6-1.18,12.46-2.03,18.69c-0.09,0.67-0.94,1.25-1.49,1.83
		c-0.22,0.23-0.58,0.32-0.87,0.48c-6.44,3.65-14.47,5.99-18.88,11.33c-4.47,5.41-5.85,13.65-7.65,20.89
		c-1.45,5.79-4.2,7.96-10.01,7.09c-2.89-0.43-5.9-0.08-10.27-0.08c4.86,4.28,8.75,7.71,13.26,11.68
		c-8.17,5.14-15.02,9.45-22.1,13.91c0.92,1.15,1.67,2.18,2.52,3.13c6,6.76,5.74,6.63,2.22,14.68c-2.85,6.52-6.35,11.21-13.95,13.18
		c-8.34,2.16-8.48,3.69-8.14,12.51c0.24,5.99,0.34,12.01,0.09,17.99c-0.14,3.37,0.76,5.87,3.68,7.46
		c9.61,5.24,11.79,12.41,6.93,22.4c-1.31,2.68-0.46,6.69,0.14,9.96C426.42,482.71,427.95,486.44,429.21,490.53z"/>
</g>
</svg>
