<?xml version="1.0" encoding="utf-8"?>
<!-- Generator: Adobe Illustrator 23.0.3, SVG Export Plug-In . SVG Version: 6.00 Build 0)  -->
<svg version="1.1" id="Layer_1" xmlns="http://www.w3.org/2000/svg" xmlns:xlink="http://www.w3.org/1999/xlink" x="0px" y="0px"
	 viewBox="0 0 802.82 811.5" style="enable-background:new 0 0 802.82 811.5;" xml:space="preserve">
<style type="text/css">
	.st0{fill:#FFFFFF;}
</style>
<g>
	<path d="M389.97,686.82c0.55-1.56,0.72-3.98,1.76-4.44c1.24-0.55,3.22,0.6,5.09,1.06c0.45-2.47-5.73-6.1,0.52-9.59
		c-0.51-0.4-1.02-0.81-1.53-1.21c-1.16,0.81-2.29,1.65-3.48,2.41c-1.5,0.96-3.04,1.86-4.87,2.97c-1.18-2.01-2.15-3.67-3.31-5.66
		c-1.15,1.09-2.21,2.1-3.27,3.1c3-10.59,10.94-19.76,6.83-32.8c-0.85,3-2.24,5.36-1.99,7.53c0.7,6.05-0.55,11.08-5.11,15.31
		c-1.14,1.06-1.58,2.86-2.46,4.54c-4.39-0.79-7.97-2.32-8.88-8.19c-1.4,1.99-2.8,3.99-4.69,6.67c-4.86-4.19,0.95-8.69-1.31-12.9
		c-0.73,2.02-1.25,4.14-2.23,6.02c-1.23,2.36-2.84,4.53-4.28,6.79c-1.56-1.26-3.12-2.52-4.69-3.77c-0.51-0.41-1.07-0.76-1.7-1.21
		c-4.89,3.52-9.26,1.76-13.76-1.36c1.09-1.6,2.13-3.14,4-5.9c-5.74,2.52-9.43,8.46-15.7,3.92c3.6-1.81,6.97-3.32,10.15-5.15
		c2.19-1.26,5.44-1.9,4.43-5.85c-0.11-0.42,1.69-1.33,3.23-2.48c-4.39-1.97-4.58-8.59-10.66-6.38c0,0,0.12-0.11,0.12-0.11
		c-2.25-0.11-4.49-0.21-6.86-0.33c0.75-3.31,0.75-3.31,7.87-3.8c-2.07-2.18-4.19-4.42-6.48-6.83c0.04-0.03-0.56,0.15-0.66,0.49
		c-2.3,7.77-2.29,7.74-8.98,2.7c-0.76-0.57-2.6-0.95-3.03-0.52c-3.06,3.08-6.05,2.3-9.35,0.36c1.47,1.79,2.94,3.59,4.77,5.83
		c-9.03,1.34-16.44-4.52-18.81-14.1c4.8-1.8,5.48,3.78,9.52,4.11c-2.18-2.8-4.37-5.59-6.84-8.76c5.5-0.81,10.98,5.77,15.48-0.57
		c-4.65-0.53-9.23-1.04-13.8-1.56c0-0.57,0-1.14,0.01-1.72c-3.16,2.02-6.32,4.04-9.92,6.35c-1.32-3.61-2.52-6.91-3.9-10.68
		c3.5-3.74,10.36-4.32,14.43-0.25c0.68-1.17,1.32-2.26,1.59-2.73c-3.47-9.02-11.59-0.97-16.44-4.96c4.07-9.15,10.94-3.1,15.72-3.33
		c-1.69-2.39-4.57-4.75-5.02-7.5c-0.68-4.21,2.71-6.88,7.09-6.92c1.5-0.01,3,0.1,4.5,0.13c1.45,0.02,2.91,0.01,4.46-0.99
		c-4.15-0.6-8.29-1.21-12.81-1.86c1.45-2.43,2.98-4.98,4.5-7.53c-0.36-0.23-0.72-0.46-1.08-0.69c-2.4,3.3-6.39,5.2-6.97,10.2
		c-0.21,1.83-2.24,3.63-3.8,5.04c-0.78,0.7-2.39,0.49-3.62,0.69c-0.12-1.07-0.42-2.14-0.34-3.19c0.19-2.31,1.17-4.81-2.86-4.79
		c-0.74,0-2.11-1.85-2.13-2.86c-0.07-4.83-0.15-9.84,4.78-12.83c3.5-2.12,6.44-4.46,7.24-8.92c0.26-1.42,2.17-2.53,3.31-3.76
		c1.19,1.56,1.96,2.57,2.72,3.58c0.4-2.08,0.8-4.15,1.21-6.23c3.99-4.05,8.64-8.36,15.76-6.8c0.98,0.22,2.27-0.93,3.2-1.88
		c-8.46-0.96-8.46-0.96-9.88-11.31c-2.02,1.1-4.32,3.39-6.09,3.04c-1.95-0.39-3.42-3.21-5.56-5.47c0.77,3.43,2.36,6.38,1.66,8.61
		c-0.71,2.27-3.52,4.1-5.77,5.57c-0.78,0.51-2.64-0.63-4.84-1.25c-0.55,0.62-1.93,2.17-3.38,3.82c-2.09-3.66-1.06-11.18,1.83-15.1
		c-3.52,0.31-3.73,0.62-5.51,8.86c-1.18,0.06-2.44,0.12-3.99,0.19c0.26,1.36,0.89,2.67,0.61,3.74c-0.25,0.95-1.51,1.63-2.32,2.43
		c-0.59-0.28-1.19-0.55-1.78-0.83c0.96-3.67,1.85-7.36,2.9-11.01c1-3.48,2.18-6.91,2.27-10.62c-2.83,5.94-5.65,11.89-8.91,18.73
		c-2.51-4.18-2.78-6.36,0.61-8.6c1.4-0.92,2.02-3.6,2.26-5.57c0.74-6.08,3.01-14.25,6.65-15.37c0.59-3.78,1.1-7.05,1.64-10.55
		c-0.12-0.02-0.79-0.33-1.32-0.17c-4.01,1.22-8.39,1.88-11.83,4.04c-2.37,1.48-4.36,4.92-4.84,7.76c-0.82,4.88-0.12,10-0.52,14.98
		c-0.11,1.39-1.84,2.65-3.71,3.61c-0.31,2.05-0.62,4.11-0.93,6.16c-0.41,0.12-0.83,0.24-1.24,0.36c-0.72-1.09-1.63-2.11-2.14-3.29
		c-3.31-7.69-2.55-10.87,2.08-14.65c0.96-7.29,1.72-13.1,2.48-18.91c-0.31-0.17-0.62-0.35-0.93-0.52c-2.08,4.05-4.16,8.1-6.78,13.22
		c-2.42-4.47-4.94-8.13-6.29-12.17c-0.46-1.37,2.04-3.72,3.46-6.06c-0.57-0.4-1.35-1.33-2.29-1.53c-4.92-1.08-6.05-3.38-3.03-7.45
		c2.23-3,4.33-5.73,3.63-9.84c-0.14-0.84,1.56-2.86,2.34-2.82c1.88,0.09,4.05,0.65,5.49,1.79c1.99,1.57,3.57,3.74,5.07,5.84
		c1.28,1.8,2.51,3.75,3.17,5.83c1.13,3.54,1.8,7.22,3.39,10.7c-0.03-5.85,2.6-12.66-2.84-16.91c-7.7-6-8.49-14.41-10.34-23.28
		c7.87-1.85,8.45,9.5,16.15,8.63c-1-1.39-1.45-2.56-2.3-3.12c-6-3.97-7.46-9.97-7.09-16.5c0.1-1.82,1.7-3.85,3.14-5.22
		c2.27-2.14,5.37-3.65,1.84-7.21c-0.4-0.4-0.05-1.53-0.05-2.91c-7.32,5.93-14.21,11.51-21.98,17.81c-0.57,3.61-1.34,8.53-2.2,13.96
		c-5.57-2.61-7.36-7.5-9.85-11.94c-1.94-3.47-4.7-6.48-6.66-9.94c-2.92-5.13-6.22-10.26-7.85-15.83c-0.84-2.84,1.6-6.65,2.55-10.02
		c0.67-0.06,1.34-0.13,2.01-0.19c1.12,2.19,2.3,4.35,3.34,6.58c1.02,2.2,1.31,5.45,5.57,3.06c-1.16-1.04-2.34-1.63-2.72-2.54
		c-0.84-2.03-2.06-4.42-1.61-6.29c0.27-1.13,3.35-1.68,5.23-2.32c3.24-1.11,6.52-2.08,9.79-3.11c-0.17-0.55-0.34-1.1-0.51-1.65
		c-6.52,0.47-13.04,1.2-19.57,1.31c-3.17,0.05-8.64,1.99-6.92-5.21c0.14-0.61-1.75-1.7-2.94-2.79c1.16-1.1,2.16-2.05,3.64-3.45
		c-2.57-0.47-4.45-0.81-6.45-1.17c0.51-4.6,1.02-9.14,1.57-14.04c7.29,3.4,3.96,14.55,11.98,17.77c0.32-3.71,0.61-7.05,0.9-10.45
		c-5.7-0.32-8.36-2.7-9.44-9.8c-0.23-1.48,0.85-3.17,1.32-4.76c1.75,0.54,3.72,0.76,5.17,1.74c1.12,0.75,1.65,2.44,2.31,3.78
		c0.7,1.44,1.24,2.97,1.86,4.45c0.99-0.62,1.98-1.24,2.97-1.86c-5.27-7.52-5.93-15.32-3.07-24.04c4.89,2.45,9.25,5.15,15.55,2.1
		c-1.88-0.95-2.82-1.64-3.87-1.91c-7.97-2.01-8.92-4.99-3.75-11.43c4.46-5.56,8.75-11.25,13.38-17.23
		c-4.59-0.12-8.56-1.27-7.56-7.65c-0.57,0.1-1.15,0.2-1.72,0.29c-0.48,2.39-1.55,4.84-1.34,7.18c0.91,10.14-4.4,17.36-10.75,24.18
		c-0.31,0.33-0.8,0.51-1.23,0.72c-0.11,0.05-0.31-0.08-1.34-0.41c0.59-1.2,0.95-2.45,1.71-3.36c2.99-3.54,3.99-7.55,3.44-12.1
		c-1.52-12.47,0.58-24.47,4.01-36.46c1.04-3.62,1.12-10.26-0.89-11.53c-9.95-6.29-13.54-18.37-23.41-24.36
		c-7.38-4.47-14.74-9.05-22.49-12.79c-5.07-2.45-7.63-5.57-7.1-11.13c0.02-0.17,0.07-0.36,0-0.5c-1.87-4.29-5.35-8.61-5.23-12.84
		c0.16-5.56-1.01-9.18-5.51-12.11c-0.77-0.5-1.02-2.12-1.13-3.26c-0.31-3.22,0.22-6.66-0.72-9.65
		c-7.19-22.67-14.66-45.25-22.02-67.87c-0.4-1.23-1.08-2.81-0.64-3.8c2.4-5.44-0.09-9.87-2.88-13.99
		c-6.49-9.58-10.9-20.04-15.35-30.68c-3.98-9.54-10.23-18.22-16.17-26.8c-2.63-3.8-4.2-6.8-2.08-11.26c0.77-1.61,1.08-4.3,0.25-5.68
		c-3.25-5.41-6.91-10.59-10.75-15.6c-0.66-0.86-2.96-0.87-4.41-0.65c-4.95,0.75-9.84,2.04-14.8,2.6c-3.7,0.42-6.53,0.85-6.32,5.66
		c0.06,1.38-1.35,3.5-2.65,4.13c-4.53,2.2-6.67,5.9-7.6,10.5c-0.94,4.66-4.02,7.01-8.36,7.18c-7,0.26-13.34,2.07-19.38,5.64
		c-4.3,2.54-7.15,0.9-6.54-3.94c1.52-12.11-1.65-22.83-7.51-33.34C8.94,20.08,4.87,10.25,0,0c12.85,3.15,24.86,6.27,36.95,9.04
		c45.3,10.39,90.99,18.76,137.1,24.44c50.56,6.23,101.19,12.08,151.93,16.59c41.61,3.7,83.39,5.53,125.13,7.56
		c33.08,1.61,66.22,2.26,99.8,3.36c0.18,1.01,0.56,2.24,0.6,3.48c1.47,38.6,2.86,77.2,4.38,115.8c1.86,47.08,3.86,94.15,5.73,141.23
		c1.75,43.92,3.43,87.85,5.07,131.78c0.23,6.12,3.66,10.48,7.34,14.79c0.82,0.96,1.75,1.84,2.73,2.87
		c-2.68,1.13-4.97,2.09-7.25,3.05c1.72,1.68,3.49,3.33,5.15,5.07c0.55,0.58,1,1.38,1.19,2.16c1.05,4.3,3.11,5.84,7.59,3.81
		c1.17-0.53,3.62,0.69,4.9,1.78c1.16,0.98,2.05,2.86,2.14,4.4c0.37,6.22,6.65,6.01,9.66,9.31c1.53-1.44,3.06-2.89,4.52-4.26
		c1.23,0.94,3.15,2.42,5.08,3.89c0.52,0.39,1.35,0.6,1.57,1.1c1.86,4.21,3.75,8.42,5.33,12.74c0.96,2.59,2.26,3.39,4.9,2.41
		c1.24-0.46,2.7-0.29,4.06-0.41c-0.01,1.48,0.01,2.96-0.05,4.44c-0.02,0.48-0.47,1.28-0.34,1.37c5.96,4.2,1.01,11.69,4.97,16.47
		c0.31,0.38,0.52,0.85,0.74,1.3c1.16,2.28,2.3,4.57,3.45,6.86c2.09-1.13,4.19-3.22,6.26-3.18c3.64,0.07,7.27,1.41,10.85,2.41
		c0.07,0.02-0.13,2.75-0.89,3.62c-1.1,1.26-2.83,1.97-3.27,2.25c2.26,3.58,3.89,6.79,6.17,9.46c0.85,1,3.35,1.31,4.83,0.92
		c2.67-0.72,5.14-2.2,7.85-3.43c0.43,0.64,1.13,1.18,1.09,1.68c-0.49,6.99,3.36,10.89,9.05,14.04c1.59,0.88,2.11,3.77,3.02,5.78
		c0.95,2.09,1.78,4.24,2.63,6.3c1.3-0.44,1.68-0.46,1.9-0.66c5.98-5.26,8.58-4.53,12.39,2.75c1.93,3.7,5.06,6.77,7.05,10.45
		c1.48,2.73,2.02,5.97,2.92,9.01c0.26,0.88-0.05,2.31,0.48,2.68c3.86,2.76,7.86,5.32,12.24,8.23c-0.32,1.22-0.72,2.74-1.25,4.7
		c3.22,1.04,6.48,2.09,9.73,3.13c3.63,1.16,5.45,3.43,5.13,7.44c-0.33,4.17-0.27,7.21,5.85,8.03c3.4,0.45,7.33,5.48,8.89,9.32
		c2.9,7.12,3.49,7.83,10.08,3.4c0.31,0.11,0.79,0.13,0.89,0.35c6.82,13.57,15.62,26.15,16.82,42.26c0.42,5.59,0.02,10.9-0.04,16.35
		c-0.02,2.18,1.06,5.45,2.68,6.36c3.68,2.06,4.18,4.83,3.85,8.34c-0.27,2.79,1.77,4.34,2.86,6.4c2.58,4.86,7.58,5.04,10.76,8.03
		c2.81,2.65,4.63,6.34,7.6,10.57c-6.17,0.77-11.15,1.62-16.17,1.97c-39.02,2.76-78.03,5.76-117.08,7.96
		c-18.77,1.06-37.63,0.6-56.45,0.72c-26.32,0.17-52.64,0.49-78.96,0.27c-23.14-0.19-46.27-1.04-69.41-1.6
		c-1.16-0.03-2.31-0.16-3.41-0.25c-1.35-4.94-1.35-4.94-9.35-0.07c-2.36-4.58-1.18-6.12,9.85-13.08c3.18,0.97,6.05,1.86,8.92,2.74
		c0.15-0.4,0.31-0.8,0.46-1.21c-1.51-0.76-3.02-1.51-4.91-2.46c0.88-1.48,1.72-2.9,2.8-4.71c-7.25,4.05-14.1,7.87-20.95,11.7
		c2.38-3.07-6.32-8.11,2.21-9.81c-5.86-3.43-6.23-14.17-0.78-24.16c-1.55,0.7-2.93,0.87-3.32,1.58c-2.67,4.87-9.89,6.57-9.51,13.71
		c0.03,0.52-4.12,2.14-4.54,1.66c-1.85-2.09-3.86-4.64-4.27-7.26c-0.44-2.83-0.41-6.5,3.59-7.84c0.71-0.24,1.3-0.85,1.61-2.2
		c-2.42,0.67-4.83,1.35-7.63,2.13c-1.42-8.44-7.1-16.44-0.46-25.16c1.23-1.61,0.77-4.84,0.38-7.2c-0.17-1.02-2.12-1.76-3.54-2.14
		c3.03,5.67,1.74,12.73-3.08,17.7c-1.66,1.71-2.66,4.06-3.96,6.12c0.25,0.61,0.5,1.22,0.74,1.83c-4.13,0.12-8.68,1.39-12.25,0.04
		c-3.41-1.28-5.83-5.24-8.6-8.1c-0.89-0.92-1.43-2.19-2.31-3.13c-3.12-3.32-3.8-6.69-1.25-10.79c2.37-3.81,2.14-3.98-1.37-5.69
		L389.97,686.82z M507.71,745.24c-11.54,2.33-20.58,14.7-34.31,7.31c0.65,1.1,1.13,1.61,1.72,1.82c12.42,4.34,22.1-2.61,32.18-7.88
		C507.58,746.35,507.58,745.68,507.71,745.24z"/>
	<path d="M338.98,739.75c-0.11-1.81-0.21-3.63-0.34-5.76c-2.49-0.38-5-0.75-7.87-1.18c-0.28,0.84-0.84,2.48-1.39,4.13
		c-0.41,0.11-0.82,0.23-1.24,0.34c-1.02-2.31-2.04-4.61-3.01-6.81c-0.99,1.06-2.27,2.43-3.65,3.9c-3.1-5.14-2.72-14.04,0.76-14.63
		c5.1-0.86,10.46-0.22,15.71-0.22c0.06-0.43,0.12-0.86,0.18-1.29c-4.59-0.58-9.19-1.16-14.09-1.78c0.32-1.58,0.59-2.95,1.07-5.33
		c-1.72,1.55-2.71,2.44-4.79,4.32c-1.25-4.83-2.29-8.88-3.56-13.79c-3.82-0.48-8.68-1.1-13.87-1.76c-0.51,1.19-1.18,2.76-1.92,4.5
		c-4.72-5.69-4.74-6.8-0.58-18.49c-2.42-0.27-4.76-0.53-7.35-0.82c0,1.13,0,2.71,0,6.03c-2.88-1.79-5.89-2.58-6.67-4.35
		c-2.08-4.73-4.82-5.18-9.15-3.39c-1.68,0.69-3.87,0.17-5.83,0.19c0.68-1.84,0.94-4.03,2.14-5.43c2.18-2.56,1.88-4.97-0.57-6.29
		c-4.16-2.25-4.28-5.16-2.64-9.03c3.26-0.74,6.92-2.67,9.9-1.91c2.65,0.67,4.53,4.33,7.37,7.33c0.36-4.99-4.63-9.4,1.26-13.12
		c-6-1.96-11.34-3.71-16.68-5.46c-0.16,0.41-0.32,0.82-0.48,1.23c3.65,1.61,7.3,3.22,11.85,5.22c-2.24,1.07-3.84,2.03-5.58,2.63
		c-9.8,3.38-17.56-0.89-20.26-10.75c-0.89-3.26-2.51-6.31-3.92-9.75c13.14-4.51,24.69-4.29,35.35,6.56
		c5.25,5.34,13.01,8.2,19.62,12.18c10.26,6.18,21.86,8.46,33.19,11.63c5.12,1.43,9.82,4.86,14.96,5.57
		c7.5,1.04,9.96,6.84,10.43,11.88c0.62,6.7,4.09,11.47,7.06,16.67c3.04,5.33,7.35,9.95,10.18,15.37c1.55,2.98,1.17,6.96,1.7,10.48
		c0.17,1.12,0.07,2.71,0.75,3.25c4.81,3.83,9.57,7.79,14.78,11.02c5.81,3.6,13.26,5.34,17.77,10.03c3.47,3.6,10.69,7.27,7.31,15.01
		c-0.22,0.5,0.54,1.43,0.85,2.15c2.01,4.63,7.43,7.58,5.23,14.4c-0.93,2.88,2.26,7.08,3.65,10.9c0.83-2.25,1.75-4.74,3.14-8.51
		c0.87,3.92,1.33,6.36,1.97,8.74c0.5,1.83,1.3,3.59,1.85,5.41c0.3,0.99,0.68,2.14,0.44,3.06c-0.17,0.66-1.52,1.65-2,1.48
		c-5.45-1.87-6.93,2.63-9.51,5.99c-1.43-1.72-6.27,0.34-4.2-4.94c-6.75,3.13-11.53-1.74-16.75-3.92
		c-7.3-3.06-14.49-6.59-21.26-10.69c-7.51-4.54-14.49-9.95-21.73-15c5.58-5.03,10.69-9.63,15.8-14.24
		c-0.32-0.43-0.64-0.87-0.96-1.31c-2.51,4.42-6.04,4.25-10.37,3.71c-4.1-0.52-8.42,0.97-12.66,1.08c-2,0.05-4.37-0.56-5.96-1.71
		c-3.16-2.27-5.9-5.11-9.18-8.06c2.75-0.96,4.88-1.7,7-2.45c-0.08-0.38-0.16-0.76-0.23-1.14c-1.66,0.11-3.32,0.22-5.17,0.34
		c-0.97-1.3-2.04-2.74-3.85-5.17c2.47,0.17,4.07,0.28,5.6,0.39c-0.7-3.26-0.7-3.26-9.33-3.72c1.06-2.06,1.96-3.81,2.96-5.77
		c-1.03,0.21-2.19,0.45-3.35,0.69L338.98,739.75z"/>
	<path d="M134.28,461.09c1.38,1.86,2.19,2.94,3.81,5.12c-6.55-0.97-13.13,1.3-17-3.54c-2.77-3.46-2.99-8.95-4.35-13.54
		c0.42-0.19,0.84-0.39,1.26-0.58c2.25,1.08,4.5,2.15,6.74,3.23c0.23-0.3,0.46-0.6,0.69-0.9c-2.94-3.22-5.89-6.43-9.24-10.09
		c-3.41,0.48-5.65-1.35-7.24-7.27c1.54,0.84,2.8,1.52,4.05,2.21c0.31-0.21,0.63-0.42,0.94-0.64c-1.83-3.73-3.3-7.7-5.57-11.14
		c-3.42-5.19-1.73-10,0.08-14.98c0.99-2.72,2.17-5.4,2.8-8.21c0.92-4.13,2.44-4.86,6.14-2.64c1.38,0.83,2.9,1.57,4.46,1.91
		c6.2,1.37,7.27,3.18,4.98,8.9c-0.28,0.71-0.53,1.43-0.67,1.81c3.68-2.07,7.44-4.19,12.08-6.8c1.1,6.99,5.66,12.44,2.44,18.7
		c-3.15,6.12-9.62,7.27-15.78,8.55c0,0.47,0,0.95,0,1.42c1.91,0.19,3.81,0.38,6.01,0.6c-0.13,0.79-0.33,1.96-0.52,3.08
		c0.55,0.23,0.94,0.56,1.13,0.46c7.95-3.86,11.52-10.24,11.07-19.04c-0.27-5.34,1.09-5.98,6.52-6.51c4.39-0.43,8.63-2.36,13.56-3.8
		c-1.98,4.57-3.99,9.09-5.91,13.65c-2.08,4.94-3.46,10.3-6.26,14.78c-4.35,6.97-4.13,14.77-5.63,22.29
		c-0.69,3.43-2.27,5.6-6.26,3.26C137.71,460.85,136.26,461.2,134.28,461.09z"/>
	<path d="M153.71,475.63c-4.8,0-8.99,0-12.87,0c-3.3,7.32,3.67,11.42,4.99,17.44c-1.35,0.2-2.43,0.36-3.52,0.52
		c0.46,4.09,5.84,8.45-0.9,11.86c-4.46-6.39-4.46-6.39-3.53-17.46c-1.76,2.04-3.03,3.5-5.36,6.2c-1.63-5.23-3.69-9.41-4.02-13.73
		c-0.25-3.25-0.55-5.22-3.75-6.53c-1.2-0.49-1.81-2.39-2.69-3.65c1.09-0.74,2.11-1.96,3.29-2.14c6.9-1.1,14.19,0.06,20.63-3.8
		c0.52-0.31,2.34,0.48,2.75,1.21C150.49,468.66,151.93,471.93,153.71,475.63z"/>
	<path d="M225.59,475.12c-2.72-6.42-5.38-12.86-8.18-19.24c-1.43-3.27-3.14-6.42-4.65-9.67c-1.97-4.23-3.86-8.5-5.79-12.75
		c0.54-0.43,1.08-0.87,1.62-1.3c2.16,1.47,5.11,2.47,6.33,4.51c5.37,8.92,10.7,17.94,14.99,27.39c1.26,2.77-0.94,7.11-1.55,10.73
		C227.45,474.9,226.52,475.01,225.59,475.12z"/>
	<path d="M210.87,466.39c-8.89-2.28-8.47-11.9-15.08-16.31c10.86-2.05,22.18,17.81,24.54,28.38
		C213.98,478.01,210.34,473.39,210.87,466.39z"/>
	<path d="M152.56,523.86c-7.83-1.95-14.2-3.54-20.69-5.16c-0.35-3.47-0.35-3.47,8.68-12.33
		C144.42,512.01,148.24,517.57,152.56,523.86z"/>
	<path d="M314.63,703.6c0.93,4.69,1.88,8.88,2.54,13.11c0.2,1.3-0.38,2.73-0.6,4.1c-1.65-0.44-3.74-0.41-4.87-1.43
		c-2.14-1.94-4.01-4.32-5.48-6.82c-2.57-4.36,2.41-2.82,3.4-3.99c-1.44-1.34-2.92-2.71-4.41-4.09c0.3-0.48,0.61-0.96,0.91-1.44
		C308.81,703.22,311.52,703.4,314.63,703.6z"/>
	<path d="M263.64,534.67c0.67-7.62,1.23-14.85,1.97-22.05c0.24-2.38,5.42-5.65,7.29-4.48c0.86,0.54,1.36,2.83,0.97,3.97
		c-1.16,3.43-3.03,6.62-4.25,10.04c-0.99,2.78-1.45,5.74-2.14,8.62c0.39,0.2,0.79,0.39,1.18,0.59
		C266.97,532.47,265.28,533.58,263.64,534.67z"/>
	<path d="M198.82,433.07c2.1-3.58,3.61-6.17,5.83-9.96c-3.87,2.49-6.39,4.11-8.91,5.74c-0.24-0.35-0.47-0.7-0.71-1.04
		c-0.61,1.5-1.22,3-1.87,4.59c-4.32-4.61-2.04-7.79,10.34-14.8c4.18,4.86,4.2,11.02-0.29,15.38
		C202.48,433.67,200.49,433.07,198.82,433.07z"/>
	<path d="M165.2,530.3c1.28,1.69,2.35,3.1,3.5,4.61c-1.81,0.33-3.31,0.59-4.69,0.84c2.44,2.15,5.85,3.75,6.02,5.64
		c0.22,2.38-2.21,5.01-3.42,7.39c-2.72-2.39-4.47-3.93-6.88-6.05c1.9-2.54-3.84-6.75,0.6-10.56c1.01,0.94,1.83,1.7,3.01,2.8
		C163.97,533.38,164.48,532.11,165.2,530.3z"/>
	<path d="M397.4,712.65c5.77,5.84,11.54,11.69,17.73,17.96c-7.95,2.44-19.93-9.16-19.08-16.93
		C396.5,713.34,396.95,712.99,397.4,712.65z"/>
	<path d="M288.86,555.56c-2.91-8.68,4.91-11.1,9.22-15.45c1.64-1.65,4.1-2.49,6.36-3.81c2.62,4.39,1.07,6.77-2.32,9.06
		c-4.63,3.12-8.97,6.67-13.43,10.04C288.7,555.4,288.86,555.56,288.86,555.56z"/>
	<path d="M332.07,640.25c1.28,0.68,3.22,1.05,3.7,2.09c0.97,2.11,2.33,5.72,1.42,6.67c-1.77,1.84-4.97,2.9-7.65,3.05
		c-1.83,0.1-3.79-1.88-5.68-2.92c1.42-1.58,2.83-3.19,4.28-4.75c1.32-1.43,2.68-2.82,4.04-4.23
		C332.19,640.14,332.07,640.25,332.07,640.25z"/>
	<path d="M272.27,575.06c-2.13-3.07-3.72-5.38-5.25-7.59c1.13-2.21,2-4.69,3.54-6.66c0.98-1.25,2.94-1.72,4.46-2.55
		c0.73,1.6,2.37,3.45,2.01,4.74C275.92,566.97,274.05,570.72,272.27,575.06z"/>
	<path d="M152.03,487.35c-8.98-1.47-10.73-3.59-8.2-9.96C152.85,477.7,154.41,479.58,152.03,487.35z"/>
	<path d="M276.18,596.82c-1.88-1.44-5.5-3.21-5.31-4.25c0.58-3.04-5.15-6.78,0.83-9.16c0.51-0.2,0.48-1.52,0.99-2.04
		c0.46-0.47,1.31-0.57,1.98-0.83c0.25,0.69,0.59,1.36,0.72,2.07c0.34,1.87,0.55,3.76,0.88,5.62c0.42,2.39,0.9,4.77,1.35,7.15
		C277.14,595.87,276.66,596.34,276.18,596.82z"/>
	<path d="M243.17,523.54c-3.37-6.44-6.09-11.63-8.81-16.82c0.42-0.32,0.84-0.64,1.26-0.96c4.64,2.58,6.98,7.49,9.98,11.6
		C246.13,518.1,244.43,520.47,243.17,523.54z"/>
	<path d="M254.98,447.45c-2.22,5.08-4.43,10.16-7.18,16.45C245.3,452.19,246,450.46,254.98,447.45z"/>
	<path d="M389.82,686.66c-1.03,1.27-2.27,2.43-3.04,3.84c-1.08,1.97-1.8,4.13-3,6.96c-1.3-1.86-2.17-3.09-3.13-4.45
		c1.64-2.16,3.19-4.2,5.11-6.74c-0.04-1.44-4.8-4.6,0.64-5.84c1.36,2.44,2.46,4.41,3.56,6.37
		C389.97,686.82,389.82,686.66,389.82,686.66z"/>
	<path d="M240.59,471.68c2.13,3.72,1.17,7.54-0.21,11.23c-0.28,0.75-1.92,1.6-2.66,1.4c-0.82-0.22-2-1.75-1.84-2.44
		c0.8-3.6,1.98-7.13,3.03-10.68C239.47,471.35,240.03,471.52,240.59,471.68z"/>
	<path d="M313.43,636.9c3.58,1.2,6.07,1.83,8.35,2.9c0.76,0.36,0.99,1.85,1.47,2.83c-2.55,0.3-5.13,0.96-7.63,0.73
		c-1.27-0.11-3.01-1.64-3.4-2.88C311.87,639.38,313.09,637.78,313.43,636.9z"/>
	<path d="M424.54,732.82c-6.78-2.93-8.67-9.37-4.76-16.28C421.47,722.35,422.88,727.17,424.54,732.82z"/>
	<path d="M436.13,772.24c2.07,3.25,4.14,6.5,6.39,10.05c-1.14,0.79-2.22,2.02-3.46,2.23c-0.94,0.16-2.84-0.84-3.02-1.61
		c-0.74-3.24-0.99-6.58-1.41-9.89C435.13,772.75,435.63,772.5,436.13,772.24z"/>
	<path d="M156.69,503.28c-2.68,0.78-4.43,1.29-6.56,1.91c-0.3-1.7-0.73-4.15-1.35-7.64c3.01,0.28,5.67,0.04,7.8,0.99
		C157.3,498.86,156.69,502.18,156.69,503.28z"/>
	<path d="M371.2,680.77c3.95,1.99,4.01,2.27,3.38,15.53c-0.47,0.11-0.94,0.22-1.42,0.34c-1.22-5.1-2.43-10.2-3.65-15.31
		C370.08,681.15,370.64,680.96,371.2,680.77z"/>
	<path d="M230.29,480.68c1.79,2.5,3.83,4.87,5.22,7.57c0.49,0.96-0.63,2.74-1.02,4.15c-0.99-0.79-2.12-1.45-2.93-2.4
		c-1.14-1.35-2.38-2.79-2.94-4.42c-0.49-1.4-0.1-3.11-0.1-4.69C229.11,480.82,229.7,480.75,230.29,480.68z"/>
	<path d="M209.54,450.85c-8.13-3.79-8.89-6.82-3.51-12.7C207.19,442.33,208.23,446.1,209.54,450.85z"/>
	<path d="M271.78,548.1c-0.63,3.4-1.27,6.8-2.15,11.57c-1.81-2.13-3.78-3.54-3.56-4.35c0.78-2.81,2.33-5.41,3.58-8.09
		C270.36,547.52,271.07,547.81,271.78,548.1z"/>
	<path d="M368.25,677.11c1.51-1.95,2.75-4.3,4.69-5.62c0.58-0.4,3.11,2.06,4.75,3.21c-0.08,0.52-0.16,1.04-0.24,1.56
		c-2.69,0.71-5.38,1.42-8.07,2.13C369,677.96,368.63,677.53,368.25,677.11z"/>
	<path d="M338.82,739.6c-0.15,1.41-0.29,2.83-0.54,5.16c-2.04-1.09-3.93-1.58-4.92-2.79c-0.78-0.97-0.46-2.83-0.62-4.3
		c1.47,0.22,2.97,0.32,4.4,0.7c0.68,0.18,1.22,0.9,1.83,1.38C338.98,739.75,338.82,739.6,338.82,739.6z"/>
	<path d="M201.4,389c-1.12-4.11-2.06-7.54-3.22-11.78C204.06,380.17,204.95,383.65,201.4,389z"/>
	<path d="M288.7,555.4c-0.71,2.2-1.09,4.6-2.24,6.54c-0.71,1.2-2.59,1.72-3.94,2.54c-0.43-0.53-0.86-1.06-1.29-1.6
		c2.54-2.44,5.08-4.88,7.63-7.32C288.86,555.56,288.7,555.4,288.7,555.4z"/>
	<path d="M189.42,389.15c-1.37-4.85-0.01-6.76,2.89-7.51c0.6-0.15,1.58,1.19,2.39,1.85C193.18,385.12,191.66,386.75,189.42,389.15z"
		/>
	<path class="st0" d="M507.71,745.24c-0.13,0.44-0.13,1.11-0.41,1.25c-10.08,5.27-19.76,12.22-32.18,7.88
		c-0.59-0.21-1.08-0.72-1.72-1.82C487.13,759.94,496.17,747.58,507.71,745.24z"/>
</g>
</svg>
