<?xml version="1.0" encoding="utf-8"?>
<!-- Generator: Adobe Illustrator 23.0.3, SVG Export Plug-In . SVG Version: 6.00 Build 0)  -->
<svg version="1.1" id="Layer_1" xmlns="http://www.w3.org/2000/svg" xmlns:xlink="http://www.w3.org/1999/xlink" x="0px" y="0px"
	 viewBox="0 0 466.58 541.2" style="enable-background:new 0 0 466.58 541.2;" xml:space="preserve">
<g>
	<path d="M328.92,541.18c0.07-6.17-0.34-12.02-7.43-14.6c3.81-5.13-1.47-5.72-3.68-8.12c2.48-4.62,1.8-8.85-1.85-12.63
		c-0.53-0.55-1.2-1.64-0.98-2.11c2.4-5.21-1.99-6.29-4.93-7.99c-7.92-4.57-14.5-10.5-19.29-17.75c-3.88,0-7.69,0.57-11.19-0.23
		c-1.89-0.44-3.45-3.08-4.79-4.98c-2.03-2.89-3.88-5.92-5.54-9.03c-2.32-4.35-6.32-2.66-9.76-3.02c-11.96-1.25-22.85-5-31.02-14.29
		c-1.87-2.13-2.66-5.2-4.15-8.25c-4.21,4.11-8.09,1.31-11.67-0.27c-4.96-2.19-9.78-2.39-15.07-1.77
		c-5.76,0.67-11.66,0.65-17.46,0.32c-5.7-0.33-8.21-3.88-8.39-9.71c-0.16-5.26,1.69-10.98-3.82-15.21c-1.2-0.92-1.34-4.47-0.67-6.35
		c1.9-5.36-1.02-7.67-5.21-9.34c0.12-1.6,0.14-2.9,0.32-4.18c0.68-4.67-1.09-6.79-5.58-9.24c-6.06-3.3-10.79-9.04-16.04-13.8
		c-0.39-0.36-0.62-1.3-0.45-1.81c2.99-8.92-3.69-12.95-8.96-17.59c-1.85-1.63-4.01-3.15-6.29-4.02c-7.48-2.84-11.09-9.4-13.29-15.94
		c-1.53-4.56,0.36-10.27,0.74-15.73c2.2,0.2,3.43,0.31,5.51,0.49c-1.63-6.78-3.19-13.27-4.89-20.36
		c-5.97,3.12-10.52,0.07-15.28-1.41c-0.72-0.22-1.85-0.92-1.85-1.39c0.05-5.31-4.98-7.08-7.2-10.74c-1.48-2.44-2.96-5.33-3.08-8.07
		c-0.29-6.93-2.67-14.24,2.97-21.44c1.16,2.11,1.9,4.14,3.22,5.66c1.86,2.15,3.85,4.65,6.34,5.7c3.51,1.48,7.15-2.28,5.76-5.88
		c-1.02-2.63-3.16-4.89-5.02-7.13c-1.92-2.31-4.11-4.41-6.18-6.59c0.62-0.06,1.24-0.11,1.85-0.17c1.33-3.24,3.1-6.39,3.78-9.76
		c0.26-1.31-1.66-3.93-3.11-4.44c-1.32-0.46-3.79,0.7-4.99,1.9c-2.39,2.39-5.71,4.32-3.73,9.17c1.09,2.66-4.15,5.16-7.17,3.73
		c-2.5-1.18-5.08-2.54-7.75-2.95c-6.78-1.04-8.54-1.8-7.76-8.52c1-8.57-3.15-14.02-8.14-19.85c-8.73-10.21-16.99-20.82-25.43-31.27
		c-0.51-0.63-1.17-1.36-1.25-2.1c-0.9-8.92-2.07-17.83-2.43-26.77c-0.26-6.53,0.06-12.98-3.89-18.7c-0.59-0.86-1.02-2.47-0.61-3.25
		c2.11-4.04-0.29-5.66-3.31-7.38c-1.31-0.75-2.14-2.32-3.28-3.42c-2.8-2.71-5.81-5.22-8.43-8.09c-1.71-1.87-3.03-4.14-4.3-6.36
		C-1.83,95.9-0.39,88.2,4.59,80.47c3.03-4.71,5.36-9.92,7.56-15.1c0.54-1.27-0.19-3.72-1.19-4.88c-2.85-3.3-2.4-6.65-1.02-10.2
		c0.72-1.86,1.6-3.66,2.37-5.5c3.33-7.93,5.28-15.73-1.64-23c-0.94-0.99-1.58-2.66-1.62-4.04C8.86,11.95,8.96,6.14,8.96,0
		C72.57,0,135.8,0,199.81,0c0,1.88,0,3.81,0,5.73c0,55.49,0.03,110.98-0.07,166.46c-0.01,3.62,0.97,6.11,3.67,8.62
		c78.33,73.1,156.6,146.27,234.74,219.56c2.85,2.67,5.11,6.54,6.29,10.28c1.65,5.23,4.08,9.65,7.68,13.73
		c2.37,2.68,3.85,6.13,6,9.03c1.43,1.93,3.12,3.84,5.09,5.17c3.73,2.53,4.61,5.07,1.4,8.34c-3.61,3.68-7.87,6.73-12.87,10.92
		c-0.75,5.17-1.73,12.1-2.76,19.03c-0.29,1.95-0.99,3.89-0.99,5.83c-0.01,4.25-1.2,7.57-4.81,10.3c-4.79,3.62-4.51,4.9-0.87,9.36
		c1.17,1.43,1.41,3.78,1.7,5.76c0.28,1.94,0.06,3.94,0.06,5.04c3.21,2.3,7.05,3.66,8.38,6.3c2.43,4.81-1.04,9.2-7,9.87
		c-12.57,1.43-25.16,2.77-37.75,4.07c-25.51,2.62-51.03,5.18-76.54,7.76C330.52,541.23,329.89,541.18,328.92,541.18z"/>
</g>
</svg>
