<?xml version="1.0" encoding="utf-8"?>
<!-- Generator: Adobe Illustrator 23.0.3, SVG Export Plug-In . SVG Version: 6.00 Build 0)  -->
<svg version="1.1" id="Layer_1" xmlns="http://www.w3.org/2000/svg" xmlns:xlink="http://www.w3.org/1999/xlink" x="0px" y="0px"
	 viewBox="0 0 540.23 395.33" style="enable-background:new 0 0 540.23 395.33;" xml:space="preserve">
<g>
	<path d="M148.94,332.54c-1.5,0.46-3.36,0.51-4.42,1.45c-3.6,3.18-7.22,6.43-10.25,10.13c-3.18,3.88-5.55,4.55-10.1,2.05
		c-1.14-0.62-3.02-0.51-4.34-0.07c-4.41,1.47-8.69,3.32-13.07,4.87c-3.02,1.07-6.14,1.87-9.8,2.97c0.1,0.22,0.62,1.37,1.01,2.25
		c-1.73,1.17-3.44,2.33-5.33,3.62c-1.3-0.72-2.81-1.57-5.37-3c0.82,2.94,1.4,4.98,1.57,5.62c-2.72,3.82-4.82,6.76-6.99,9.81
		c-2.72-0.32-6.21-0.73-9.75-1.15c-0.78,1.88-1.41,3.4-2.17,5.23c-3.19-1.3-6.39-2.59-9.85-3.99c-1.54,3.95-2.78,7.11-4.14,10.62
		c-1.2-1.32-2.6-2.86-3.86-4.24c-3.5,4.56-6.74,8.79-9.98,13.02c-0.48-0.29-0.96-0.58-1.43-0.87c0.18-2.52,5.67-4.55,0.86-7.76
		c-0.86,0.91-1.7,1.81-2.81,2.99c-0.96-1.33-1.78-2.47-2.32-3.23c-6.15,4.15-12.21,8.24-18.45,12.45c-0.04-0.35-0.44-1.22-0.17-1.74
		c2.93-5.53-0.21-9.71-2.85-14.12C9.96,371.23,5.16,362.9,0,354.1c23.28-13.88,46.1-27.48,69.5-41.43
		c-3.98-6.43-7.18-12.93-11.6-18.42c-6.5-8.07-7.04-16.8-6.17-26.57c2.66-29.85,4.73-59.74,6.98-89.63
		c2.25-29.88,4.55-59.76,6.65-89.66c1.91-27.24,3.63-54.49,5.33-81.75c0.43-6.86,0.26-6.79,7.18-6.58
		c36.97,1.15,73.93,2.24,110.9,3.38c20.65,0.64,41.29,1.42,61.94,1.92c4.1,0.1,5.21,1.7,4.86,5.46c-0.27,2.94-0.05,5.92-0.05,9.85
		c4.6-0.83,8.83-1.29,12.84-2.52c1.1-0.34,1.82-2.89,2.18-4.54c1.45-6.56,2.17-7.48,8.74-7.18c10.3,0.47,20.79,0.32,30.8,2.38
		c5.81,1.19,10.75-0.05,16.15-0.28c18.27-0.79,36.59-0.98,54.89-0.81c24.99,0.23,49.97,1.05,74.96,1.51
		c24.66,0.46,49.31,0.9,73.97,1.08c4.31,0.03,5.25,1.6,5.35,5.5c0.83,32.98,1.99,65.95,2.73,98.92c0.87,38.64,1.41,77.3,2.09,115.94
		c0.03,1.93,0,3.86,0,4.5c-3.84,1.57-6.66,2.49-9.26,3.84c-3.28,1.7-3.1,4.58-2.42,7.8c0.7,3.3,0.82,6.73,1.2,10.1
		c0.13,1.14,0.12,2.31,0.39,3.41c1.8,7.24,1.29,8.19-6.01,10.86c-3.46-3.57-6.83-7.4-12.29-2.6c-0.69,0.61-2.99-0.61-5.21-1.14
		c-0.34,0.43-1.11,1.41-2.16,2.73c-3.17-1.7-6.44-3.61-9.86-5.18c-1.23-0.56-3.67-0.92-4.13-0.31c-2.86,3.83-5.31,7.97-8.39,12.76
		c-1.99-6.39-1.84-6.17-6.44-3.11c-1.16,0.77-3.59-0.31-5.42-0.63c-1.21-0.21-2.77-1.23-3.52-0.79c-3.58,2.11-4.98,0-5.82-2.81
		c-1.46-4.89-2.66-9.86-3.97-14.79c-0.5,0.05-1.01,0.09-1.51,0.14c0.36,4.73,0.41,9.51,1.18,14.18c0.66,3.99,0.57,7.6-3.36,9.45
		c-4.03,1.89-8.46,2.62-11.94-1.28c-2.13-2.38-3.81-2.25-5.22-1.22c-2.85-1.07-6.12-3.61-8.47-2.94c-6,1.72-1.92,7.37-3.13,11.66
		c-1.38-1.19-2.46-2.37-3.77-3.21c-2.95-1.89-5.76-2.3-8.84,0.25c-2.28,1.89-4.99,3.54-7.78,4.44c-3.73,1.21-7.72,1.58-10.81,2.17
		c-2.25-2.98-4.2-5.18-5.68-7.66c-0.95-1.59-2.04-3.84-1.61-5.39c1.58-5.6,0.15-9.15-4.67-12.78c-2.9-2.18-5.35-4.67-9.96-5.78
		c2.18,4.01-0.69,10.04,7.04,10.26c1.32,0.04,3.56,3.36,3.6,5.2c0.1,4.16-0.92,8.35-1.57,13.19c0.25,0.1,1.64,0.64,3.64,1.42
		c-2.12,1.03-3.64,1.77-5.16,2.51c0.14,0.33,0.27,0.67,0.41,1c1.85-0.18,3.7-0.36,5.56-0.55c0.16,0.64,0.32,1.29,0.47,1.93
		c-3.48,0.93-6.95,1.86-10.81,2.9c-1.48-5.02-4.45-7.23-9.35-6.25c-3.93,0.78-7.89,1.4-11.81,2.23c-1.05,0.22-1.96,1.09-3.01,1.35
		c-3.43,0.86-6.89,1.58-10.34,2.35c-0.03,0.53-0.06,1.05-0.09,1.58c-0.6-1.02-1.2-2.03-2.25-3.79c-2.27,2.44-4.38,4.72-6.89,7.42
		c-5.47-8.89-14.37-7.51-22.75-7.73c-8.22-0.21-14.84,4.11-22.37,9.53c0.44-3,0.61-4.16,0.63-4.27c-5.26-1.93-10.08-5-14.98-5.13
		c-4.75-0.13-9.6,2.69-14.35,4.38c-1.32,0.47-2.44,1.5-3.66,2.28c-0.4-0.48-0.8-0.97-1.2-1.45c1.51-0.61,3.03-1.23,4.54-1.84
		c-4.94-2.11-4.94-2.11-7.53,2.05c-0.25-0.41-0.49-0.82-0.74-1.24c-1.7,0.72-3.38,1.54-5.12,2.14c-3.14,1.08-6.28,2.23-9.52,2.83
		c-0.59,0.11-1.76-2.19-2.43-3.5c-0.48-0.94-0.3-2.26-0.86-3.12c-3.94-6.01-3.66-7.69,2.21-11.9c0.38-0.27,0.75-0.67,0.94-1.09
		c0.19-0.42,0.13-0.95,0.24-1.88c-6.37,0.97-9.3,5.68-12.93,10.13c1.69,1.21,2.98,2.14,4.41,3.16c-0.39,0.72-0.56,1.44-1.02,1.8
		c-6.42,5.19-12.89,10.32-19.33,15.48c-0.87,0.7-2.01,1.31-2.45,2.24c-2.45,5.11-6.81,2.98-10.6,2.93
		c-1.06-0.01-2.64-0.82-3.09-0.37c-5.06,5.08-10.06,10.23-14.76,15.64c-0.73,0.85,0.14,3.09,0.32,5.3c-3.12,0.61-6.31,1.24-9.5,1.87
		c0.06-0.55,0.11-1.11,0.17-1.66c-1.5-0.64-3.14-1.07-4.46-1.96c-1.75-1.18-3.1-3-4.9-4.04c-1.72-0.99-3.81-1.33-5.74-1.95
		c-0.17,0.53-0.35,1.05-0.52,1.58c1.67,0.85,3.35,1.71,5.36,2.73c-3.45,2.22-6.74,4.33-10.03,6.45c-0.34-0.34-0.68-0.67-1.02-1.01
		c2.22-1.29,4.43-2.58,6.65-3.88C149.91,333.91,149.43,333.23,148.94,332.54z"/>
</g>
</svg>
