<?xml version="1.0" encoding="utf-8"?>
<!-- Generator: Adobe Illustrator 23.0.3, SVG Export Plug-In . SVG Version: 6.00 Build 0)  -->
<svg version="1.1" id="Layer_1" xmlns="http://www.w3.org/2000/svg" xmlns:xlink="http://www.w3.org/1999/xlink" x="0px" y="0px"
	 viewBox="0 0 247.34 599.62" style="enable-background:new 0 0 247.34 599.62;" xml:space="preserve">
<g>
	<path d="M79.88,0c7.7,1.91,15.69,3.07,23,5.96c6.47,2.55,12.19,7.03,19.63,11.48c-4.63,3.64-7.63,6.44-11.04,8.58
		c-6.44,4.04-10.78,9.27-11.42,17.1c-0.71,8.7-4.96,15.72-10.44,22.19c-2.04,2.42-4.14,4.83-5.86,7.47
		c-3.61,5.53-8.31,9.42-14.82,10.95c-3.65,0.86-5.67,3.23-6.28,6.9c-0.13,0.81-0.27,1.7-0.67,2.39c-4.96,8.45-2.03,14.47,4.79,20.7
		c10.7,9.77,11.59,20.84,4.13,33.27c-5.87,9.78-6.27,17.25,1.28,25.63c11.44,12.69,17.66,28.04,24.83,43.02
		c0.93,1.94,3.71,3.09,5.79,4.33c2.04,1.21,4.89,1.52,6.35,3.15c11.67,13.09,17.79,28.81,19.55,46c0.72,6.99-0.78,14.25-1.57,21.35
		c-0.98,8.74-0.57,17.18,2.6,25.56c1.28,3.38,1.49,7.45,1.13,11.1c-0.63,6.35-0.8,11.92,6.47,14.84c1.97,0.79,3.85,2.79,4.9,4.7
		c6.62,12.1,13.62,24.09,15.91,37.99c0.57,3.43,0.71,6.98,0.59,10.45c-0.17,4.58,1.43,8.27,5.03,10.84
		c12.71,9.04,22.11,21.02,30.76,33.76c6.98,10.27,16.85,15.05,29.36,14.6c11.1-0.41,12.1,0.85,12.87,12
		c0.85,12.29,2.22,24.54,2.97,36.84c0.29,4.83-0.48,9.72-0.77,14.58c-0.52-0.01-1.05-0.03-1.57-0.04
		c-0.31-4.36-0.48-8.73-0.96-13.07c-0.8-7.36-3.61-9.8-10.88-9.81c-1,0-2,0-3,0c-9.17,0-9.28,0.18-5.62,8.84
		c1.02,2.42,2.03,4.85,3.46,8.29c-2.46-0.38-3.98-0.85-5.48-0.79c-1.5,0.06-2.98,0.64-4.47,1c-0.21,0.63-0.42,1.26-0.63,1.89
		c5.05,3.08,10.09,6.17,15.85,9.68c-2.44,1.56-5.15,3.98-8.32,5.18c-5.11,1.94-10.47,3.32-15.83,4.48c-4.8,1.04-7.12,4.35-9.46,8.42
		c1.95,0.3,3.53,0.55,6.03,0.93c-2.02,2.9-3.68,5.26-6.4,9.15c3.57-0.74,6.12-0.83,8.27-1.81c4.9-2.25,9.5-5.15,14.42-7.36
		c3.25-1.46,5.71,0.22,7.35,3.25c0.71,1.31,1.64,2.5,2.5,3.73c2.26,3.26,4.62,3.58,7.06,0.19c3.6-4.99,9.09-9.09,7.69-16.47
		c-0.1-0.54,0.82-1.27,2.27-3.36c1,4.01,2.74,6.95,2.19,9.37c-3.49,15.36-0.31,30,3.45,44.77c0.98,3.82,0.08,8.18-0.28,12.27
		c-0.29,3.31-2.72,3.75-5.09,2.36c-3.58-2.09-6.78-4.31-10.19,0.31c-0.53,0.71-2.52,0.46-3.83,0.46
		c-65.33-0.08-130.66-0.22-195.98-0.2c-4.68,0-6.28-1.47-6.51-6.26c-2.46-52.91-5.19-105.81-7.73-158.72
		c-1.55-32.28-2.81-64.57-4.33-96.86c-2.16-45.76-4.49-91.51-6.66-137.27c-1.51-31.78-2.85-63.57-4.3-95.36
		c-0.6-13.15-1.23-26.29-1.96-39.43c-0.21-3.71,0.41-6.55,3.1-9.71c4.05-4.76,6.79-10.64,10.08-16.04c2.69-4.41,5.59-8.7,8.03-13.24
		C30.33,9.62,45.79,3.51,63.49,1.08C66.29,0.7,69.08,0.36,71.88,0C74.55,0,77.21,0,79.88,0z"/>
</g>
</svg>
