<?xml version="1.0" encoding="utf-8"?>
<!-- Generator: Adobe Illustrator 23.0.3, SVG Export Plug-In . SVG Version: 6.00 Build 0)  -->
<svg version="1.1" id="Layer_1" xmlns="http://www.w3.org/2000/svg" xmlns:xlink="http://www.w3.org/1999/xlink" x="0px" y="0px"
	 viewBox="0 0 537.77 411.12" style="enable-background:new 0 0 537.77 411.12;" xml:space="preserve">
<g>
	<path d="M374.52,0.06c5.83,0,11.67-0.17,17.49,0.13c1.31,0.07,3.51,1.62,3.65,2.7c2.9,23.46,11.67,45.07,21.38,66.26
		c7.75,16.92,16.1,33.63,25.35,49.77c4.35,7.6,11.34,13.72,17.34,20.33c6.15,6.78,12.62,13.27,18.78,20.05
		c0.86,0.95,1.48,3.25,0.93,4.16c-3.23,5.41-2.82,11.15-0.85,16.43c3.07,8.2,6.18,16.63,10.89,23.92
		c14.47,22.38,29.21,44.57,40.48,68.82c5.11,10.99,8.39,22.12,7.2,34.67c-1.07,11.22-1.07,22.7,0.06,33.91
		c0.79,7.8,1.57,14.28-4.22,20.95c-4.6,5.3-3.5,12.87-3.07,19.77c0.13,2.18-0.43,5.23-1.88,6.52c-5.8,5.15-11.88,10.04-18.24,14.48
		c-3.57,2.5-7.85,3.08-12.41,1.8c-4.51-1.26-8.79-0.32-10.97,4.43c-1.31,2.86-2.99,2.05-4.79,1.02c-4.49-2.58-6.66-6.97-6.47-11.7
		c0.58-14.66-8.23-24.44-17.1-34.13c-2.59-2.83-6.26-5.08-9.88-6.42c-2.08-0.77-5.01,0.91-7.59,1.27c-2.07,0.29-4.95,1.19-6.16,0.21
		c-6.82-5.55-13.28-11.4-14.54-21.05c-1.08-8.34-5.98-14.47-13.46-18.08c-3.37-1.62-3.86-3.36-3.58-6.86
		c0.58-7.1,0.5-14.27,0.27-21.39c-0.05-1.66-1.52-4.28-2.82-4.62c-1.37-0.36-3.55,1.22-4.95,2.44c-1.6,1.4-2.81,3.28-4.04,5.06
		c-3.56,5.16-3.6,5.24-7.89,0.34c-9.67-11.01-19.4-21.99-28.85-33.19c-4.68-5.55-4.14-6.97,0.82-12.13
		c5.29-5.52,10.54-11.14,15.18-17.2c4.07-5.32,3.35-7.05-2.74-9.49c-4.93-1.97-9.97-3.7-15.04-5.28c-1.43-0.44-3.13,0.01-4.71,0.06
		c0.33,1.69,0.48,3.45,1.04,5.06c1.24,3.56,3.04,6.97,3.89,10.61c0.38,1.61-0.98,3.63-1.56,5.47c-1.33-1.14-2.93-2.09-3.96-3.46
		c-9.9-13.18-12.69-27.6-9.07-43.86c2.29-10.29,3.16-21,3.62-31.56c0.27-6.32-1.75-12.27-8.65-15.55c-2.48-1.18-4.35-4.62-5.45-7.44
		c-1.44-3.72-3.74-5.82-7.47-6.35c-5.19-0.74-10.43-1.16-15.61-1.96c-0.97-0.15-2.47-1.34-2.55-2.16c-0.57-6.3-3.22-10.4-9.22-13.52
		c-3.86-2.01-6.12-7.08-9.13-10.75c-1.19-1.45-2.28-3.07-3.74-4.19c-5.75-4.41-11.58-8.71-17.48-12.93
		c-2.2-1.57-4.54-3.02-7.01-4.09c-5.09-2.2-10.31-4.12-15.49-6.12c-0.75-0.29-1.57-0.64-2.35-0.61
		c-10.06,0.43-19.16,3.58-23.74,13.04c-7.67,15.81-21.02,23.4-36.91,27.98c-1.91,0.55-3.88,0.96-5.86,1.25
		c-2.3,0.34-4.63,0.49-6.95,0.72c-0.13-2.08,0.21-4.34-0.5-6.19c-1.29-3.34-2.58-7.05-5.01-9.48c-3.47-3.47-7.66-6.54-12.07-8.69
		c-11.06-5.38-22.37-10.26-33.67-15.13c-14.26-6.15-29.31-5.45-44.3-4.57c-15.52,0.91-30.75,3.47-45.3,9.26
		c-0.31,0.12-0.64,0.16-0.97,0.25c-7.96,2.13-7.98,2.13-8.28-6.09c-0.36-9.66-0.82-19.31-0.95-28.97c-0.04-3.17-0.9-5.34-3.73-6.91
		c-2.32-1.29-4.66-2.74-6.51-4.6C1.74,35.01,1.03,32.83,0,30.97c1.6-0.81,3.15-2.17,4.82-2.33c16.08-1.57,32.17-2.92,48.26-4.35
		c28.53-2.54,57.05-5.11,85.58-7.65c2.32-0.21,4.78,0.08,6.96-0.57c9.71-2.89,16.67,0.69,21.9,8.76c2.86,4.4,6.7,5.17,11.92,4.87
		c36.92-2.08,73.87-3.72,110.81-5.51c13.98-0.68,27.96-1.22,41.92-2.14c4.14-0.27,5.05,1.16,5,4.98c-0.12,9.2-1.27,8.1,8.27,8.13
		c3.98,0.01,9.17,1.22,11.58-0.79c2.3-1.92,1.7-7.32,2.38-11.19c0.11-0.66,0.24-1.31,0.34-1.97c0.97-6.1,1.93-12.13-3.92-16.72
		c-0.97-0.76-1.1-2.58-1.62-3.92c1.27-0.19,2.55-0.53,3.82-0.55c5.5-0.06,10.99-0.03,16.49-0.03
		C374.52,0.03,374.52,0.04,374.52,0.06z"/>
</g>
</svg>
