<?xml version="1.0" encoding="utf-8"?>
<!-- Generator: Adobe Illustrator 23.0.3, SVG Export Plug-In . SVG Version: 6.00 Build 0)  -->
<svg version="1.1" id="Layer_1" xmlns="http://www.w3.org/2000/svg" xmlns:xlink="http://www.w3.org/1999/xlink" x="0px" y="0px"
	 viewBox="0 0 706.04 811.12" style="enable-background:new 0 0 706.04 811.12;" xml:space="preserve">
<g>
	<path d="M501.24,774.91c-21.51-1.41-43.76-2.81-66-4.32c-40.2-2.73-80.38-5.74-120.59-8.22c-40.88-2.51-81.79-4.57-122.69-6.73
		c-23.61-1.24-47.22-2.33-70.84-3.41c-8.75-0.4-15.86-6.27-17.64-14.92c-0.44-2.11-1-4.3-0.87-6.41c0.36-5.84-2.29-10.35-5-15.28
		c-2.47-4.49-5.16-9.04-5.8-14.72c-1.12-9.95-4.65-19.27-12.62-26.19c-0.6-0.52-1.25-1.3-1.36-2.04c-0.8-5.64-1.51-11.3-2.15-16.97
		c-0.06-0.52,0.55-1.1,0.79-1.68c1.05-2.57,2.54-5.08,3.02-7.76c0.85-4.84,0.95-9.81,1.61-14.7c0.89-6.63,2.92-13.26,3.69-19.65
		c1.02-8.54-1.44-17.73-7.55-24.91c-2.58-3.03-3.76-5.9-3.37-10.29c0.49-5.62-1-11.42-1.71-17.14c-0.56-4.56-0.21-8.3,2.84-12.62
		c5.13-7.27,8.79-15.67,8.46-25.09c-0.16-4.43-1.4-9.2-0.14-13.19c1.22-3.86,4.59-7.38,7.77-10.19c5.25-4.64,11.1-8.58,16.7-12.82
		c-0.03-0.75-0.06-1.49-0.09-2.24c-4.38-2.73-8.54-5.93-13.19-8.05c-4.21-1.92-4.47-3.37-2.18-7.37c2.21-3.87,2.83-8.66,4.05-13.07
		c0.13-0.49-0.29-1.58-0.68-1.7c-4.79-1.53-3.21-5.81-4.34-9.05c-1.48-4.26-3.61-8.62-6.56-11.97c-4.59-5.21-7.31-10.72-7.57-17.7
		c-0.07-1.87-2.31-3.55-2.9-5.52c-1.25-4.21-1.99-8.57-3.09-12.82c-0.38-1.47-1.33-2.79-1.87-4.22c-0.95-2.49-1.84-5.01-2.64-7.55
		c-0.18-0.57,0.44-1.48,0.17-1.91c-6.32-9.93-5.98-21.55-7.93-32.48c-6.75-37.85-12.89-75.8-19.18-113.73
		c-6.16-37.11-12-74.27-18.4-111.33C15.51,91.18,9.07,57.51,2.99,23.76C1.81,17.24,1.05,10.63,0,3.43c2.21-0.1,3.95-0.25,5.69-0.26
		c44.15-0.25,88.29-0.57,132.44-0.7c38.97-0.12,77.93,0,116.9-0.03c11.83-0.01,23.66-0.04,35.48-0.33
		c24.95-0.61,49.9-1.41,74.84-2.1c1.44-0.04,2.89,0.14,5.25,0.26c-3.38,5.43-2.98,11.34-9.31,15.35
		c-5.8,3.67-13.51,7.08-15.06,15.59c-0.11,0.6-1.51,1.02-2.36,1.41c-3.58,1.63-11.88,16.75-9.86,19.66
		c2.91,4.18,7.1,7.57,11.12,10.83c4.16,3.37,7.74,8.12,14.32,7.14c0.87-0.13,2.15,2.58,3.25,3.97c3.66,4.6,7.8,8.91,11.71,13.16
		c3.09,3.36,8.07,8.62,14.74,5.28c0.28-0.14,0.65-0.11,0.98-0.15c13.29-1.57,15.84,0.28,18.57,13.58c0.88,4.26,1.64,8.44,5.99,10.95
		c1.14,0.66,1.55,2.71,2.11,4.19c1.13,3,1.22,6.5,5.11,7.91c0.91,0.33,1.43,2.41,1.69,3.76c0.71,3.76,1.04,7.59,1.78,11.33
		c0.84,4.26,2.35,7.73,6.64,10.37c3.16,1.95,4.78,6.39,7.06,9.74c0.46,0.67,0.76,1.45,1.15,2.18c3.03,5.66,6.21,11.24,9.04,16.99
		c1.29,2.62,1.98,5.19,5.83,4.95c1.23-0.07,2.84,1.5,3.81,2.69c4.01,4.95,8.42,8.83,14.65,11.41c5.64,2.33,10.34,7.08,15.25,11.02
		c2.68,2.14,4.93,4.81,7.38,7.24c0.35,0.35,0.86,0.62,1.04,1.03c2.59,6.2,5.36,12.34,7.6,18.66c1.26,3.57,6.35,9.14,10.02,9.63
		c9.11,1.21,14.77,7.08,19.83,14.09c1.92,2.66,4.56,5.03,7.34,6.76c3.67,2.29,5.82,4.73,4.4,9.28c-1.04,3.33-2.09,6.7-2.58,10.14
		c-0.19,1.29,0.82,3.27,1.92,4.13c3.21,2.5,6.73,4.59,9.78,6.6c0.68,1.42,1.44,2.84,2.06,4.33c0.28,0.68,0.35,1.48,0.38,2.24
		c0.06,1.46-0.58,3.46,0.14,4.29c1.93,2.22,4.3,4.15,6.79,5.74c0.68,0.44,2.38-0.72,4.43-1.43c0,2.2-0.31,4.16,0.08,5.97
		c0.48,2.24,0.9,5.3,2.46,6.36c5.02,3.42,10.57,6.07,15.89,9.06c2.49,1.39,5.01,2.76,7.39,4.32c3.61,2.37,7.05,5,10.69,7.33
		c3.3,2.12,4.55,4.58,3.93,8.76c-0.47,3.15,0.42,6.73,1.52,9.83c1.99,5.6,4.38,11.1,8.73,15.42c0.32,0.32,0.54,0.9,0.55,1.36
		c0.2,6.04,0.3,12.08,0.54,18.11c0.07,1.68,0.19,3.47,0.82,4.99c1.44,3.42,2.47,6.7,0.78,10.39c-0.47,1.02-0.63,2.94-0.02,3.58
		c3.95,4.17,7.46,8.94,14.11,9.36c1.82,0.11,3.86,1.75,5.22,3.22c4.19,4.53,8.1,9.32,12.41,14.35c-2.53,3.45-2.05,6.4,0.89,10.28
		c3.94,5.21,6.48,11.51,9.37,17.46c0.48,0.99,0.17,2.91-0.52,3.85c-4.78,6.5-4.68,6.34-0.32,12.47c1.2,1.68,1.65,4.36,1.44,6.49
		c-0.65,6.64,2.06,11.1,8.01,13.6c1.52,0.64,3.85,1.03,5.08,0.31c3.04-1.79,5.08-1.12,7.45,1.08c5.13,4.75,10.49,9.12,17.92,9.99
		c0.95,0.11,2.33,2.59,2.3,3.95c-0.09,3.67-6.09,9.83-9.72,10.48c-0.78,0.14-2.01,0.29-2.38-0.13c-3.03-3.44-5.3-1.5-6.24,1.4
		c-0.42,1.3,1.72,3.44,3.33,6.33c-1.45,1.59-4.08,4.48-6.68,7.34c-2.98-1.07-5.86-2.11-8.9-3.2c-0.97,2.99-1.77,5.44-2.62,8.08
		c1.55,0.47,3.17,0.96,6.33,1.92c-4.03,4.65-8.04,8.17-10.64,12.54c-3.77,6.34-9.04,2.75-13.71,2.95c-0.45,5.04-0.02,5.31,8.26,5.46
		c1.77,8.47,0.54,16.34-4.47,23.49c-6.27-0.91-12.66,1.44-13.22,5.35c2.55-0.15,4.99-0.38,7.43-0.4c1.14-0.01,2.84,0.04,3.27,0.71
		c0.55,0.85,0.46,2.58-0.06,3.55c-2.19,4.1-4.79,7.99-6.95,12.11c-2.3,4.38-4.75,8.79-6.19,13.47c-0.7,2.28,0.76,5.22,2.26,7.6
		c-0.8,3.18-1.7,6.34-2.39,9.54c-0.97,4.54-0.81,9.38-6.85,11.24c-2,0.62-3.05,4.09-4.7,6.13c-1.38,1.71-3.08,3.15-4.48,4.84
		c-0.84,1.02-1.8,2.22-1.98,3.45c-0.35,2.29,0.27,4.76-0.3,6.96c-1.04,3.97,0.65,9.66-6.68,10.08c-2.25,0.13-4.33,3.31-7.24,5.71
		c4,1.52,6.57,2.49,9.85,3.74c0.69-0.93,1.56-2.11,3.11-4.19c0.53,2.29,1.3,3.69,1.07,4.91c-1.31,6.97-1.82,14.35-4.59,20.72
		c-2.96,6.8-4.66,13.04-1.92,19.85c-8.28-0.59-16.74-0.1-24.59-2.03c-9.14-2.24-19.03-3.19-26.76-9.76
		c-0.92-0.78-2.84-0.3-4.25-0.61c-2.55-0.56-5.16-1.06-7.59-1.99c-3.82-1.46-7.5-3.25-11.44-4.99c-1.32,3.59-2.21,6-3.17,8.59
		c-2.05-0.77-3.7-1.39-4.28-1.6c-1.75,2.74-4.48,5.08-4.47,7.4c0.02,6.13-4.43,12.29-0.32,18.35c6.5,9.59,3.42,19.77,2.08,29.85
		c-0.54,4.1-1.47,8.15-1.91,12.25c-0.44,4.18-2.4,5.99-6.58,5.31c-3.28-0.53-6.51-1.35-9.8-1.83c-7.34-1.08-10.42-4.75-9.38-12.19
		c0.63-4.54,1.34-8.42-2.64-12.32C501.13,782.86,501.78,778.56,501.24,774.91z"/>
</g>
</svg>
