<svg xmlns="http://www.w3.org/2000/svg" width="36" height="36" viewBox="0 0 36 36">
  <g id="Group_3517" data-name="Group 3517" transform="translate(-441.208 -351.356)">
    <path class="to_fill" id="Path_1865" data-name="Path 1865" d="M459.208,351.356a18,18,0,1,0,18,18A18,18,0,0,0,459.208,351.356Zm10.732,17.866a2.707,2.707,0,0,1-2.707,2.707h-5.452v5.451a2.706,2.706,0,1,1-5.413,0v-5.451h-5.452a2.707,2.707,0,0,1-2.707-2.707h0a2.707,2.707,0,0,1,2.708-2.706h5.451v-5.452h0a2.706,2.706,0,1,1,5.413,0v5.452h5.454a2.707,2.707,0,0,1,2.705,2.707Z" fill="#b7b7b7"/>
    <path id="Path_1100" data-name="Path 1100" d="M467.233,366.515h-5.452v-5.452a2.707,2.707,0,0,0-2.707-2.707h0a2.706,2.706,0,0,0-2.706,2.706h0v5.452h-5.451a2.707,2.707,0,0,0-2.708,2.706h0a2.707,2.707,0,0,0,2.707,2.707h5.452v5.451a2.706,2.706,0,1,0,5.413,0h0v-5.451h5.452a2.707,2.707,0,0,0,2.707-2.707h0a2.707,2.707,0,0,0-2.705-2.707Z" fill="#fff"/>
  </g>
</svg>
