<svg xmlns="http://www.w3.org/2000/svg" width="31.981" height="31.959" viewBox="0 0 31.981 31.959">
  <g id="Group_2612" data-name="Group 2612" transform="translate(-11.991 -7.998)">
    <path id="Path_1527" data-name="Path 1527" d="M167.1,167.532a1.13,1.13,0,0,0-1.576,0l-3.737,3.756V154.641a1.135,1.135,0,1,0-2.268,0V171.28l-3.735-3.756a1.13,1.13,0,0,0-1.6.029,1.146,1.146,0,0,0,0,1.586l5.671,5.7a1.13,1.13,0,0,0,1.6,0h0l5.671-5.7a1.144,1.144,0,0,0-.026-1.606Z" transform="translate(-131.514 -135.216)" fill="#606060"/>
    <path id="Path_1528" data-name="Path 1528" d="M29.546,10.764A8.833,8.833,0,0,0,29.7,9.15,9.138,9.138,0,0,0,11.975,6.059,4.563,4.563,0,0,0,5.844,9.227,6.828,6.828,0,0,0,6.86,22.813H12.57a1.138,1.138,0,0,0,0-2.276H6.86a4.555,4.555,0,1,1,0-9.111A1.14,1.14,0,0,0,8,10.29a2.286,2.286,0,0,1,3.887-1.622,1.143,1.143,0,0,0,1.929-.628,6.844,6.844,0,1,1,13.5,2.238q-.056.332-.144.659a1.136,1.136,0,0,0,.48,1.252,4.551,4.551,0,0,1-2.514,8.347H21.7a1.138,1.138,0,0,0,0,2.276H25.13a6.825,6.825,0,0,0,4.416-12.044Z" transform="translate(11.999 7.943)" fill="#606060"/>
  </g>
</svg>
