<?xml version="1.0" encoding="utf-8"?>
<!-- Generator: Adobe Illustrator 23.0.3, SVG Export Plug-In . SVG Version: 6.00 Build 0)  -->
<svg version="1.1" id="Layer_1" xmlns="http://www.w3.org/2000/svg" xmlns:xlink="http://www.w3.org/1999/xlink" x="0px" y="0px"
	 viewBox="0 0 523.82 334.74" style="enable-background:new 0 0 523.82 334.74;" xml:space="preserve">
<g>
	<path d="M494.79,244.86c2-0.38,3.28-0.65,4.57-0.85c3.52-0.54,6.35,0.71,6.41,4.42c0.11,8.1,5.75,11.69,11.7,14.68
		c7.99,4.01,8.28,6.47,1.78,13.03c-9.26,9.33-20.4,15.33-32.49,19.87c-1.63,0.61-3.81,1.17-5.25,0.58c-3.97-1.64-6.47,0.2-9.44,2.39
		c-5.67,4.17-11.89,7.58-17.44,11.89c-2.65,2.06-4.88,5.19-6.24,8.3c-2.87,6.54-6.64,12.16-11.1,15.57
		c-6.68-3.54-12.31-6.94-18.28-9.54c-5.13-2.24-10.2-9.79-9.3-15.37c0.61-3.78,1.26-7.55,1.96-11.31c1.02-5.51,0.7-10.61-1.77-15.98
		c-2.88-6.27-4.23-13.22-6.59-19.76c-0.84-2.33-2.27-4.8-4.14-6.32c-3.07-2.49-6.5-10.48-4.19-13.52
		c2.88-3.81,6.88-6.77,10.43-10.07c0.8-0.75,1.9-1.24,2.54-2.09c2.69-3.55,5.23-7.21,7.88-10.8c2.25-3.05,1.29-5.61-0.46-8.66
		c-2.51-4.39-5.2-9.03-6.15-13.88c-1.59-8.17,2.8-11.65,10.18-8.13c6.49,3.09,12.26,7.64,18.51,11.27c2.03,1.18,4.55,1.54,6.88,2.14
		c1.27,0.33,2.69,0.15,3.92,0.56c13.8,4.56,26.99,10.2,38.36,19.65c5.79,4.82,9.74,9.9,7.76,17.88
		C494.56,241.87,494.79,243.06,494.79,244.86z"/>
	<path d="M317.1,120.61c0.54-1.51,1.14-4.36,2.53-6.74c2.47-4.23,7.21-5.05,10.9-1.75c2.66,2.38,5.08,5.27,6.8,8.37
		c1.99,3.58,4.16,4.33,7.64,2.45c1.89-1.02,3.9-1.84,5.88-2.71c7.08-3.09,11.83-1.9,17.38,3.64c4.83,4.81,11.14,7.24,17.32,9.83
		c5.57,2.33,7.2,6.38,3.8,11.18c-1.99,2.82-5.13,5.45-8.32,6.66c-7.16,2.72-14.66,4.57-22.07,6.62c-2.22,0.61-4.57,0.96-6.87,1
		c-7.03,0.12-8.24-1.21-8.87-8.12c-0.36-3.96-0.87-7.98-2.02-11.75c-0.37-1.21-3.27-2.74-4.59-2.41
		C326.99,139.31,316.78,128.7,317.1,120.61z"/>
	<path d="M155.26,51.87c1.56-0.1,2.87-0.27,4.17-0.24c7.11,0.17,13.68-0.61,17.02-8.29c0.5-1.14,1.72-2.02,2.74-2.86
		c5.95-4.97,10.8-3.14,12.85,4.56c0.61,2.28,1.87,4.56,3.37,6.4c2.23,2.74,5.75,4.55,4.18,9.25c-0.21,0.63,3.25,2.88,5.29,3.75
		c1.23,0.53,2.98-0.15,3.87-0.23c1,7.31,2.92,13.2,9.49,16.79c-2.88,2.63-4.94,6.17-9.37,3.46c-0.35-0.22-1.13-0.21-1.44,0.04
		c-4.57,3.74-8,0.36-11.9-1.56c-5.97-2.94-12.32-2.88-18.59-0.79c-3.91,1.31-5.45-0.16-6.93-3.89c-1.67-4.19-4.8-7.78-7.04-11.78
		c-1.41-2.52-2.18-5.38-3.5-7.96C158.39,56.38,156.92,54.45,155.26,51.87z"/>
	<path d="M97.77,10.24c-0.72,2.11-1.5,3.95-1.97,5.86c-0.84,3.45-1.27,7.02-2.3,10.41c-0.66,2.18-1.82,4.35-3.24,6.14
		c-4.8,6.03-11.21,6-18.1,4.66c-4.67-0.91-8.9-1.95-12.08-6.03c-1.27-1.63-3.89-2.37-6.04-3.1c-6.73-2.29-7.36-7.36-4.55-13.5
		c3.75-8.19,12.16-9.03,17.73-14.06c0.35-0.32,0.9-0.63,1.34-0.61c7.38,0.27,14.8,0.18,22.11,1.05C95.58,1.63,96.2,6.51,97.77,10.24
		z"/>
	<path d="M316.28,95.36c-5.61,11.49-14.95,16.19-25.24,11.36c-10.38-4.87-20.58-1.6-30.84-2.07c-1.94-0.09-3.87-0.3-6.9-0.54
		c2.59-4.92,4.77-9.07,7.31-13.9c8.63-0.05,18.18,6.03,28.98,1.56c3.03,4.35,8.43,3.9,14.24,3.16
		C307.75,94.42,311.84,95.16,316.28,95.36z"/>
	<path d="M285.41,120.96c6.69,1.22,12.21,2.36,16.86,7.02c4.81,4.82,4.74,9.99-1.45,12.98c-2.89,1.39-6.39,2.12-9.57,2.01
		c-1.4-0.05-3.62-2.84-3.85-4.59c-0.56-4.36-1.21-8.12-5.99-9.91c-0.88-0.33-1.88-3.14-1.51-3.52
		C281.47,123.35,283.53,122.24,285.41,120.96z"/>
	<path d="M19.7,24.1c-0.69,4.2-1.1,7.28-1.74,10.32c-0.18,0.85-0.92,2.17-1.53,2.24c-6.8,0.81-9.6,5.77-11.51,11.53
		c-4.2-1.06-5.75-3.76-4.49-6.81c1.39-3.36,3.78-6.42,6.21-9.21c2.3-2.64,5.03-5.02,7.93-7C16.02,24.19,18.26,24.37,19.7,24.1z"/>
	<path d="M334.39,166.19c-4.48,0.66-8.39,1.46-12.34,1.69c-1.32,0.08-3.4-0.97-3.9-2.07c-0.41-0.91,0.62-3.12,1.66-3.91
		c2.35-1.8,5.01-3.27,7.71-4.53c3.92-1.82,5.79-0.29,5.79,4.23C333.32,162.99,333.94,164.36,334.39,166.19z"/>
</g>
</svg>
