<?xml version="1.0" encoding="utf-8"?>
<!-- Generator: Adobe Illustrator 23.0.3, SVG Export Plug-In . SVG Version: 6.00 Build 0)  -->
<svg version="1.1" id="Layer_1" xmlns="http://www.w3.org/2000/svg" xmlns:xlink="http://www.w3.org/1999/xlink" x="0px" y="0px"
	 viewBox="0 0 319.06 496.5" style="enable-background:new 0 0 319.06 496.5;" xml:space="preserve">
<g>
	<path d="M3.56,496.5c0.62-22.66,1.22-44.8,1.82-66.95c0.23-8.49,0.78-16.99,0.65-25.48c-0.27-17.07,3.21-33.33,9.57-49.09
		c2.56-6.35,1.97-8.61-3.99-11.92c-12.83-7.13-14.26-16.57-8-29.56c0.79-1.64,1.54-3.47,2.8-4.7c9.54-9.27,14.26-21.57,20.56-32.84
		c2.3-4.12,3.33-8.95,5.09-13.4c1.46-3.69,2.95-7.39,4.76-10.91c4.27-8.32,3.46-12.94-2.82-19.74c-3.47-3.75-5.63-8.8-9.35-12.21
		c-6.28-5.76-7.67-12.19-5.93-20.18c0.43-1.98-0.88-5.32-2.5-6.55c-3.02-2.27-3.42-4.77-3.24-8.1c2.6-46.74,5.12-93.48,7.65-140.22
		c0.8-14.79,1.56-29.57,2.36-44.66c14.5,0,28.72,0,43.23,0c0,5.34,0.03,10.46-0.01,15.58c-0.08,11.66,0.03,23.33-0.38,34.99
		c-0.24,6.78-1.28,13.54-2.05,20.3c-0.32,2.8-0.46,4.95,3.04,6.31c2.24,0.87,4.04,3.36,5.57,5.46c3.69,5.08,7.17,10.32,10.56,15.61
		c0.61,0.95,0.98,3.19,0.5,3.55c-4.52,3.33-2.51,7.38-1.59,11.35c0.45,1.94,0.81,3.9,2,5.16c2.57,2.6,5.51,4.92,7.61,7.86
		c2.62,3.66,5.49,6.35,9.91,7.83c2.61,0.88,4.94,3.19,6.87,5.33c3.88,4.31,7.5,8.87,11.03,13.48c2.61,3.4,4.97,7,7.34,10.58
		c2.36,3.57,4.45,7.44,9.79,6.44c0.32-0.06,0.88-0.18,0.96-0.05c4.13,6.44,7.39,1.65,10.69-0.97c4.47,5.05,4.36,12.4-0.61,17.46
		c-3.02,3.08-4.38,6.34-4.46,10.64c-0.05,2.88-1.04,5.87-2.2,8.57c-1.95,4.55-2.15,8.41,1.63,12.32c3.54,3.67,3.13,6.31-0.73,9.73
		c-3.12,2.77-5.32,5.51-2.33,9.83c0.64,0.93,0.22,2.85-0.14,4.19c-1.26,4.62,0.01,7.62,4.36,9.71c8.16,3.92,15.68-0.47,17.34-11.27
		c2.62,1.42,5.22,2.31,7.08,4.01c1.63,1.49,3.06,3.76,3.51,5.91c2.39,11.45,8.35,20.78,15.92,29.46c3.49,4.01,6.21,8.84,3.54,14.73
		c3.97,4.31,8.4,7.2,14.49,7.91c2.4,0.28,5.07,2.73,6.59,4.91c1.42,2.03,1.76,4.98,2.1,7.58c0.97,7.37,2.99,13.62,12.68,13.13
		c5.29-7.79,13.23-5.96,21.43-3.94c0.41-6.46,4.28-5.09,8.49-4.45c3.74,0.57,7.66-0.2,11.49-0.15c2.91,0.04,6.05-0.15,8.68,0.83
		c4.04,1.51,11.98,1.31,14.48-2.06c1.58-2.13,1.49-5.49,2.38-9.25c1.79,0.17,4.27-0.04,6.45,0.67c8.83,2.89,15.27,11.78,15.47,21.08
		c1.14,53.47,2.25,106.94,3.37,160.41c0.04,1.81,0,3.61,0,5.76C213.89,496.5,109.04,496.5,3.56,496.5z"/>
</g>
</svg>
