<?xml version="1.0" encoding="utf-8"?>
<!-- Generator: Adobe Illustrator 23.0.3, SVG Export Plug-In . SVG Version: 6.00 Build 0)  -->
<svg version="1.1" id="Layer_1" xmlns="http://www.w3.org/2000/svg" xmlns:xlink="http://www.w3.org/1999/xlink" x="0px" y="0px"
	 viewBox="0 0 299.34 538.19" style="enable-background:new 0 0 299.34 538.19;" xml:space="preserve">
<style type="text/css">
	.st0{fill:#FFFFFF;}
</style>
<g>
	<path class="st0" d="M170.06,530.23c2.96-1.86,5.83-3.19,8.09-5.2c2.7-2.4,4.81-5.45,7.32-8.09c3.42-3.6,7.91-3.77,11.21-0.88
		c8.61,7.53,20.38,7.57,29.66,14.1c1.25-4.34,5.8-7.57,1.95-11.88c-5.86-6.55-4.06-13.37-1.1-20.83c4.77,0.65,9.78,1.24,13.05-4
		c0.51-0.82,2.76-0.72,4.22-0.75c4.05-0.09,8.1-0.03,12.87-0.03c-1.89-4.71-2.93-8.45-4.8-11.71c-2.84-4.94-2.18-8.45,2.11-12.36
		c5.27-4.8,5.47-8.81,1.79-15.44c1.1-0.54,2.45-1.2,3.56-1.74c-1-1.62-2.08-2.58-1.95-3.3c0.67-3.48,1.66-6.9,2.74-11.12
		c3.26,0.06,3.93-2.94,4.06-6.66c0.05-1.32,1.11-2.7,1.96-3.86c1.63-2.24,3.45-4.36,4.65-5.85c-0.79-2.92-1.35-4.99-1.91-7.07
		c1.36,0.22,2.73,0.43,4.1,0.65c8.79-13.36,8.88-13.56,7.7-17.68c2.09-0.88,4.19-1.78,6.29-2.67c-0.03-2.75,0.78-4.79,1.69-6.79
		c0.4-0.87,1.61-1.89,1.4-2.45c-1.44-3.8,1.42-4.78,3.68-6.43c5.53-4.05,6.59-10.7,2.35-15.92c-1.79-2.2-1.84-3.96-0.6-6.26
		c0.93-1.73,1.54-3.64,2.43-5.8c-4.39-1.05-5.07-3.76-4.29-7.56c0.23-1.15-0.73-3.24-1.77-3.84c-6.1-3.51-6.35-5.12-1.31-9.91
		c2.2-2.1,4.52-4.38,0.62-7.25c-0.74-0.55-1.46-2.33-1.12-2.93c1.4-2.46,3.22-4.68,4.88-6.99c1.11,0.37,1.19,0.04,1.19-0.29
		c0.01-76.82,0.02-153.63,0-230.45c0-1.28-0.24-2.63-0.69-3.82c-2.04-5.35-4.82-10.5-6.16-16c-2.05-8.46-4.23-16.61-9.49-23.87
		c-4.87-6.71-7.7-14.12-4.97-22.94c1.21-3.91,0.55-8.4,0.75-13c-3.03,0-5.18,0-7.32,0c-65.32,0-130.64,0.02-195.96-0.05
		c-2.87,0-5.74-0.75-9.76-1.3c1.08,2.08,1.73,4.38,3.19,5.88c2.79,2.84,6.05,5.22,9.1,7.79c2.71,2.29,5.41,4.07,5.36,8.67
		c-0.03,2.63,2.92,5.8,5.3,7.83c3.52,3,7.87,5.01,11.55,7.84c1.42,1.1,2.8,3.32,2.78,5.02c-0.07,8.16-0.74,16.31-0.96,24.47
		c-0.08,3.08-1.21,4.84-4.08,6c-2.05,0.83-4.72,1.99-5.48,3.72c-1.92,4.36-3.06,9.09-4.21,13.75c-0.6,2.42-7.16,9.17-9.41,8.4
		c-5.03-1.72-7.7,1.44-10.88,4.06c-1.21,1-2.82,1.8-4.36,2.06c-6.72,1.16-13.46,2.44-20.24,3c-5.03,0.41-7.95,2-8.29,7.45
		c-0.18,2.95-1.28,5.84-1.93,8.76c-1.28,5.71,0.81,9.18,6.36,11.09c1.03,0.36,2.24,1.54,2.5,2.57c0.9,3.54,2.02,7.19,1.92,10.77
		c-0.1,3.62-0.38,8.54-2.65,10.55c-6.49,5.73-9.44,12.57-9.99,20.83c-0.22,3.26-1.82,4.74-5.02,5.7c-17.3,5.22-15.4,1-14.6,20.64
		c0.12,3.02-0.66,4.93-2.97,6.8c-1.7,1.38-3.5,3.33-4.02,5.34c-2.96,11.53-3.59,22.97,2.56,33.91c0.82,1.47,1.54,3.82,0.92,5.11
		c-1.64,3.45-0.17,5.59,1.89,7.99c1.15,1.34,1.7,3.18,2.66,4.71c2.5,3.99,4.94,8.05,7.69,11.87c1.83,2.55,4.43,4.57,6.22,7.14
		c6.63,9.54,14.74,17.56,24.05,24.45c2.54,1.88,5.18,3.74,7.3,6.05c1.81,1.96,3.38,4.38,4.27,6.87c1.67,4.67,0.01,9.6,0.09,14.12
		c0.12,6.41,1.79,14.62,11.08,16.91c2.13-1.88,4.53-4.17,7.13-6.22c1.05-0.83,2.66-1.81,3.77-1.58c8.18,1.73,15.89,4.6,22.33,10.91
		c-5.54,5.86-8.56,12.71-8.16,20.75c0.28,5.76-1.22,10.95-4.89,15.29c-5.58,6.6-5.16,14.47-5.18,22.27c0,1.06,0.39,2.45,1.12,3.13
		c4.62,4.26,6.84,11.38,14.39,12.25c0.62,0.07,1.29,0.95,1.66,1.61c2.96,5.25,7.83,7.74,13.3,9.51c-0.51,1.14-1.08,2.39-1.76,3.9
		c2.45,1.09,5.31,3.39,6.53,2.71c4.09-2.25,5.61,0.98,8.02,2.59c4.96,3.32,7.41,9.05,13.14,12.1c4.02,2.14,6.09,7.97,9.28,12.51
		c-5.18,1.4-3.93,4.43-2.45,7.1c1.52,2.75,3.99,5.04,5.22,7.88c0.85,1.98,1.31,5.74,0.22,6.66c-4.37,3.67-8.32,5.79-2.13,12.14
		c3.42,3.5,3.69,10.16,5.15,15.46c1.21,4.42,6.72,6.9,9.96,4.22c2.57,2.55,4.3,7.42,9.76,3.21
		C174.9,534.44,172.57,532.41,170.06,530.23z"/>
	<path d="M170.06,530.23c2.51,2.18,4.84,4.22,7.24,6.31c-5.45,4.21-7.18-0.66-9.76-3.21c-3.25,2.68-8.75,0.2-9.96-4.22
		c-1.46-5.3-1.73-11.96-5.15-15.46c-6.19-6.35-2.24-8.47,2.13-12.14c1.09-0.91,0.64-4.68-0.22-6.66c-1.23-2.85-3.7-5.13-5.22-7.88
		c-1.47-2.67-2.72-5.71,2.45-7.1c-3.19-4.54-5.25-10.36-9.28-12.51c-5.73-3.05-8.17-8.78-13.14-12.1c-2.4-1.61-3.93-4.84-8.02-2.59
		c-1.22,0.67-4.08-1.63-6.53-2.71c0.68-1.5,1.24-2.75,1.76-3.9c-5.47-1.77-10.34-4.26-13.3-9.51c-0.37-0.66-1.05-1.54-1.66-1.61
		c-7.55-0.87-9.77-7.99-14.39-12.25c-0.73-0.67-1.12-2.07-1.12-3.13c0.02-7.8-0.4-15.68,5.18-22.27c3.68-4.35,5.17-9.54,4.89-15.29
		c-0.4-8.04,2.62-14.89,8.16-20.75c-6.45-6.31-14.15-9.18-22.33-10.91c-1.11-0.23-2.72,0.75-3.77,1.58c-2.6,2.05-5,4.34-7.13,6.22
		c-9.3-2.29-10.97-10.5-11.08-16.91c-0.08-4.53,1.57-9.45-0.09-14.12c-0.89-2.5-2.47-4.92-4.27-6.87c-2.12-2.3-4.76-4.16-7.3-6.05
		c-9.3-6.89-17.42-14.92-24.05-24.45c-1.79-2.58-4.38-4.59-6.22-7.14c-2.75-3.82-5.18-7.87-7.69-11.87
		c-0.96-1.53-1.51-3.37-2.66-4.71c-2.07-2.41-3.53-4.54-1.89-7.99c0.61-1.29-0.1-3.64-0.92-5.11c-6.14-10.94-5.51-22.38-2.56-33.91
		c0.52-2.01,2.32-3.96,4.02-5.34c2.31-1.87,3.09-3.78,2.97-6.8c-0.8-19.64-2.7-15.43,14.6-20.64c3.2-0.96,4.8-2.44,5.02-5.7
		c0.55-8.26,3.5-15.1,9.99-20.83c2.27-2,2.54-6.93,2.65-10.55c0.1-3.58-1.02-7.23-1.92-10.77c-0.26-1.02-1.47-2.21-2.5-2.57
		c-5.55-1.91-7.64-5.37-6.36-11.09c0.66-2.92,1.75-5.81,1.93-8.76c0.34-5.45,3.26-7.04,8.29-7.45c6.79-0.56,13.52-1.84,20.24-3
		c1.54-0.27,3.15-1.07,4.36-2.06c3.19-2.62,5.85-5.78,10.88-4.06c2.25,0.77,8.81-5.98,9.41-8.4c1.16-4.66,2.3-9.39,4.21-13.75
		c0.76-1.73,3.44-2.89,5.48-3.72c2.87-1.16,4-2.92,4.08-6c0.21-8.16,0.88-16.31,0.96-24.47c0.02-1.7-1.36-3.93-2.78-5.02
		c-3.68-2.84-8.03-4.84-11.55-7.84c-2.38-2.03-5.33-5.2-5.3-7.83c0.05-4.6-2.65-6.39-5.36-8.67c-3.06-2.58-6.32-4.95-9.1-7.79
		c-1.47-1.5-2.11-3.8-3.19-5.88c4.01,0.56,6.88,1.3,9.76,1.3c65.32,0.07,130.64,0.05,195.96,0.05c2.14,0,4.29,0,7.32,0
		c-0.2,4.6,0.46,9.09-0.75,13c-2.73,8.82,0.1,16.22,4.97,22.94c5.26,7.26,7.44,15.4,9.49,23.87c1.34,5.51,4.12,10.65,6.16,16
		c0.45,1.19,0.69,2.54,0.69,3.82c0.02,76.82,0.01,153.63,0,230.45c0,0.33-0.08,0.66-1.19,0.29c-1.66,2.31-3.48,4.53-4.88,6.99
		c-0.34,0.6,0.38,2.38,1.12,2.93c3.89,2.87,1.58,5.15-0.62,7.25c-5.04,4.8-4.79,6.41,1.31,9.91c1.03,0.59,2,2.69,1.77,3.84
		c-0.78,3.8-0.11,6.51,4.29,7.56c-0.89,2.16-1.5,4.07-2.43,5.8c-1.23,2.3-1.18,4.06,0.6,6.26c4.23,5.23,3.18,11.87-2.35,15.92
		c-2.26,1.66-5.12,2.64-3.68,6.43c0.21,0.55-1,1.57-1.4,2.45c-0.91,2-1.73,4.04-1.69,6.79c-2.1,0.89-4.21,1.78-6.29,2.67
		c1.18,4.12,1.09,4.32-7.7,17.68c-1.37-0.22-2.74-0.43-4.1-0.65c0.56,2.08,1.12,4.15,1.91,7.07c-1.2,1.49-3.01,3.6-4.65,5.85
		c-0.85,1.17-1.91,2.55-1.96,3.86c-0.13,3.72-0.81,6.72-4.06,6.66c-1.08,4.22-2.08,7.64-2.74,11.12c-0.14,0.72,0.95,1.68,1.95,3.3
		c-1.11,0.54-2.46,1.2-3.56,1.74c3.68,6.63,3.47,10.65-1.79,15.44c-4.29,3.91-4.95,7.42-2.11,12.36c1.88,3.26,2.91,7,4.8,11.71
		c-4.77,0-8.82-0.06-12.87,0.03c-1.45,0.03-3.7-0.07-4.22,0.75c-3.27,5.24-8.28,4.65-13.05,4c-2.96,7.46-4.77,14.28,1.1,20.83
		c3.86,4.31-0.7,7.54-1.95,11.88c-9.28-6.53-21.05-6.57-29.66-14.1c-3.3-2.88-7.78-2.71-11.21,0.88c-2.51,2.64-4.62,5.69-7.32,8.09
		C175.89,527.04,173.02,528.37,170.06,530.23z"/>
</g>
</svg>
