<?xml version="1.0" encoding="utf-8"?>
<!-- Generator: Adobe Illustrator 23.0.3, SVG Export Plug-In . SVG Version: 6.00 Build 0)  -->
<svg version="1.1" id="Layer_1" xmlns="http://www.w3.org/2000/svg" xmlns:xlink="http://www.w3.org/1999/xlink" x="0px" y="0px"
	 viewBox="0 0 342.84 538.57" style="enable-background:new 0 0 342.84 538.57;" xml:space="preserve">
<g>
	<path d="M3.45,536.92c5.39-5.26-3.75-6.78-3.45-11.24c8.52-2.37,7.6-10.87,7.11-16.49c-0.45-5.19,1.08-6.14,3.54-6.87
		c-0.21-2.1-0.86-3.77-0.4-5.03c0.78-2.16,2.22-4.08,3.43-6.07c1.59-2.61,2.09-4.73-0.31-7.6c-1.19-1.43-0.72-5.01,0.14-7.17
		c0.77-1.93,1.34-5.34,5.84-3.21c2.02,0.96,6.6-1.31,8.83-3.39c5.62-5.25,8.92-11.9,8.48-20.33c2.94-1.49,6.22-2.99,9.3-4.81
		c0.74-0.44,0.8-1.98,1.21-3c2.26-5.66,3.57-12.02,7.03-16.82c6.1-8.48,7.6-17.48,6.66-27.41c-0.43-4.56-0.08-9.22-0.81-13.72
		c-0.37-2.29-2.35-4.31-4.13-7.37c1.62-4.61-0.32-9.5-5.14-12.73c-4.29-2.87-3.2-5.39-0.92-8.62c1.61-2.28,3.78-4.64,4.16-7.2
		c0.58-3.99-0.15-8.17-0.32-12.27c-0.65-0.23-1.29-0.45-1.94-0.68c2-1.5,3.83-3.32,6.03-4.41c2.7-1.34,3.27-3.24,3.3-6.01
		c0.59-43.82,1.26-87.65,1.93-131.47c0.93-60.65,1.87-121.3,2.81-181.95c0.02-1.13,0.13-2.26,0.31-5.09
		c3.7,3.94,6.07,7.67,9.45,9.73c3.68,2.24,8.24,3.7,12.54,4.1c8.84,0.82,17.19-2.04,24.96-5.97c6.96-3.52,13.46-7.93,20.26-11.78
		c1.78-1.01,3.91-1.98,5.88-1.98C205.37-0.02,271.53,0,337.69,0.01c0.5,0,0.99,0.08,2.32,0.19c0,1.51-0.01,3.09,0,4.66
		c0.61,116.65,1.21,233.3,1.92,349.95c0.02,4.01-0.84,6.78-4.2,9.27c-4.14,3.07-4.47,7.69-1.04,11.21c2.78,2.86,2.9,5.6,1.5,9.06
		c-2.95,7.31-2.85,7.35,4.64,8.04c-0.46,1.42-0.98,2.79-1.35,4.21c-0.33,1.28-0.49,2.6-0.64,3.45c-5.55,1.29-11.08,1.91-16.03,3.94
		c-4.51,1.85-8.48,5.12-12.54,7.97c-3.53,2.47-6.61,3.18-10.26-0.06c-5.61-4.99-14.12-6-19.53-2.8c-5.31,3.13-7.5,9.71-5.9,17.71
		c2.58,12.92,1.44,15.31-10.88,20.54c-5.81,2.47-8.91,6.34-9.56,12.73c-1.01,9.88-1.67,10.25-11.21,11.83
		c-7.71,1.28-11.1,7.13-13.84,13.51c-0.78,1.82-1.46,3.8-1.6,5.75c-0.68,9.51-4.38,16.94-11.77,19.78
		c-5.44-1.05-9.29-2.45-13.13-2.41c-9.19,0.11-11.26-1.55-11.36-10.75c-0.07-6.21-3.74-11.51-9.72-13.07
		c-1.15-0.3-3.62,1.34-4.18,2.64c-0.93,2.19-0.82,4.83-1.05,6.52c-2.78,0.14-5.86-0.54-7.66,0.67c-1.27,0.86-0.82,4.28-1.21,7.15
		c-6.06,2.61-8.85,9.63-6.31,18.28c-5.02,1.14-10,2.53-15.07,3.27c-1.59,0.23-3.73-0.94-5.09-2.1c-1.32-1.12-1.83-3.14-2.93-4.59
		c-4.33-5.68-8.55-5.87-13.91-1.31c-2.05,1.74-4.74,3-7.35,3.76c-6.17,1.8-10.21,5.16-11.25,11.85c-0.41,2.65-1.75,5.15-2.41,7.02
		c-4.91-3.5-9.25-6.93-13.92-9.85c-4.91-3.08-9.99-6.01-15.28-8.35c-2.07-0.92-4.95-0.28-7.42,0.02c-2.72,0.32-5.38,1.23-8.1,1.5
		c-0.79,0.08-2.51-1.24-2.46-1.78c0.37-3.73-2.33-4.56-4.69-4.21c-1.9,0.28-4.61,2.01-5.07,3.63c-1.02,3.61-3.29,4.43-6.37,4.91
		c-1.96,0.3-3.89,0.92-5.79,1.51c-4.52,1.41-8.53,1.13-11.61-3.04c-1.91-2.58-4.3-2.92-6.98-1.16c-2.8,1.84-5.13,3.94-3.66,7.75
		c0.59,1.54,1.7,2.94,2.03,4.52c0.33,1.58,0.54,3.66-0.24,4.82c-0.49,0.74-2.92,0.37-4.43,0.18C8.54,537.98,5.97,537.39,3.45,536.92
		z"/>
</g>
</svg>
