<?xml version="1.0" encoding="utf-8"?>
<!-- Generator: Adobe Illustrator 23.0.3, SVG Export Plug-In . SVG Version: 6.00 Build 0)  -->
<svg version="1.1" id="Layer_1" xmlns="http://www.w3.org/2000/svg" xmlns:xlink="http://www.w3.org/1999/xlink" x="0px" y="0px"
	 viewBox="0 0 539.33 344.72" style="enable-background:new 0 0 539.33 344.72;" xml:space="preserve">
<g>
	<path d="M78,322.58c-3.6-4.55-7.2-9.1-10.63-13.44c3.68-9,4.23-18.69,2.74-27.52c-0.92-5.45-3.21-11.13-2.53-16.63
		c0.81-6.54-1.33-12.09-2.57-18.13c-1.12-5.48,0.46-11.52,0.88-17.77c-2.95-0.89-5.91-1.79-9.04-2.74c0-2.16,0-4.26-0.01-6.37
		c-6.44,2.35-7.68,1.34-8.39-5.59c-0.79-7.68-1.37-15.23,1.89-22.58c0.49-1.1,0.04-2.94-0.56-4.15c-1.93-3.92-6.84-6.7-4.36-12.33
		c0.19-0.43-1.81-2.19-3.05-2.84c-5.24-2.75-6.7-7.27-6.93-12.81c-0.08-2.01-1.28-4.25-2.6-5.88c-1.75-2.17-4.12-3.84-6.06-5.57
		c0-0.63-0.14-1.09,0.02-1.25c4.72-4.84,3.47-8.96-0.91-13.43c-1.59-1.62-1.96-4.7-2.33-7.2c-0.51-3.41-0.48-6.89-0.64-9.62
		c-8.61-4.37-17.8-6.29-22.94-15.19c3.47-2.29,7.02-4.63,10.64-7.01C4.43,88.41,4.25,87.57,7.4,79.6
		c2.63-6.65,5.43-13.25,7.81-19.99c0.83-2.36,0.64-5.08-0.03-7.8c0.22-0.25,0.39-0.66,0.65-0.73c5.65-1.41,6.59-4.95,4.82-10.02
		c-0.76-2.18-0.65-4.66-1.43-6.82c-0.48-1.33-1.88-3.27-2.9-3.29c-5.29-0.09-6.49-3.7-7.52-7.69c6.17-3.6,6.72-9.73,1.74-15.12
		C9.38,6.9,8.37,4.38,8.87,3.04c0.51-1.35,2.9-2.2,4.63-2.82c1.18-0.43,2.64-0.09,3.97-0.09c143,0.06,286,0.12,429,0.18
		c1.82,0,3.65,0,6.39,0c0,4.29,0.17,8.37-0.06,12.44c-0.15,2.76,0.79,4.38,3.38,5.27c1.41,0.48,2.72,1.25,4.07,1.9
		c6.12,2.93,6.98,5.64,2.92,11.1c-7.17,9.64-9.28,19.9-4.99,31.34c1.28,3.42,2.66,6.96,2.99,10.54
		c1.19,12.89,10.53,17.28,20.84,20.85c0.47,0.16,0.93,0.37,1.41,0.52c12.23,3.74,14.77,6.95,16.21,19.97
		c0.14,1.28,1.15,2.66,2.13,3.61c2.26,2.21,4.59,4.41,7.18,6.2c5.9,4.08,9.65,9.29,10.56,16.59c0.2,1.64,1.76,3.52,3.22,4.51
		c4.53,3.1,9.4,5.69,13.95,8.78c1.28,0.87,2.69,2.76,2.67,4.15c-0.17,9.15-0.48,18.31-1.31,27.41c-0.18,2.03-2.2,4.51-4.07,5.65
		c-4.74,2.91-6.7,7.15-8.63,12.15c-2.16,5.58-5.91,10.58-9.24,15.65c-0.63,0.96-2.55,1.07-3.89,1.55c-3.48,1.24-7.66,1.65-10.3,3.88
		c-5.74,4.83-12.65,4.59-19.21,5.95c-4.07,0.84-8.2,1.65-12.33,1.88c-3.47,0.19-5.05,1.62-5.61,4.91c-0.48,2.78-0.96,5.67-2.15,8.19
		c-3.21,6.85,0.15,11.82,5,15.44c3.49,2.61,4.87,5.5,5.49,9.39c1.1,6.92,1.52,13.64-4.37,18.9c-6.74,6.02-8.31,14.11-8.83,22.51
		c-0.18,2.9-1.51,4.04-4.04,4.71c-3.86,1.02-7.66,2.25-11.48,3.43c-5.32,1.64-6.76,3.81-6.42,9.5c0.3,4.95,0.57,9.91,0.9,15.55
		c-4.28-0.55-7.98-1.03-11.96-1.54c-0.26-1.74-0.5-3.32-0.55-3.68c-2.6-2.64-4.48-4.52-6.34-6.42c-3.89-4-7.6-8.19-11.74-11.91
		c-1.08-0.97-3.45-0.7-5.23-0.66c-44.99,0.98-89.97,2.52-134.96,2.89c-62.5,0.52-125,0.18-187.5,0.21c-1.15,0-2.3,0-3.45,0
		C77.42,323.26,77.71,322.92,78,322.58z"/>
</g>
</svg>
