<?xml version="1.0" encoding="utf-8"?>
<!-- Generator: Adobe Illustrator 23.0.3, SVG Export Plug-In . SVG Version: 6.00 Build 0)  -->
<svg version="1.1" id="Layer_1" xmlns="http://www.w3.org/2000/svg" xmlns:xlink="http://www.w3.org/1999/xlink" x="0px" y="0px"
	 viewBox="0 0 598.55 308.98" style="enable-background:new 0 0 598.55 308.98;" xml:space="preserve">
<g>
	<path d="M0,308.98C0,205.94,0,103.34,0,0.17c1.62,0,3.42,0,5.21,0c177.31,0,354.62,0.05,531.93-0.17
		c6.93-0.01,9.32,5.48,13.96,8.15c3.06,1.76,5.57,4.52,8.72,6.03c1.17,0.56,3.65-0.85,5.15-1.9c4.86-3.41,5.64-3.27,7.41,2.07
		c0.15,0.45,0.37,1.09,0.72,1.23c3.96,1.6,3.58,4.93,4.26,8.41c0.94,4.8-0.5,5.01-4.19,3.9c-0.76-0.23-1.6-0.2-1.57-0.2
		c-2.33,3.02-4.41,5.44-6.16,8.07c-1.05,1.59-1.6,3.51-2.34,5.29c-0.48,1.15-0.64,3.09-1.42,3.37c-4.95,1.83-2.34,4.31-0.52,6.27
		c4.38,4.73,9.05,9.2,13.5,13.88c0.56,0.59,0.36,1.83,0.74,2.67c1.4,3.05,2.88,6.07,4.38,9.07c0.36,0.72,1.31,1.32,1.34,2
		c0.3,6.24,5.78,6.49,9.73,8.26c2.44,1.09,5.31,1.24,7.72,1.76c0,73.83,0,147.07,0,220.63C399.12,308.98,200.06,308.98,0,308.98z"/>
</g>
</svg>
