<?xml version="1.0" encoding="utf-8"?>
<!-- Generator: Adobe Illustrator 23.0.3, SVG Export Plug-In . SVG Version: 6.00 Build 0)  -->
<svg version="1.1" id="Layer_1" xmlns="http://www.w3.org/2000/svg" xmlns:xlink="http://www.w3.org/1999/xlink" x="0px" y="0px"
	 viewBox="0 0 486.43 210.99" style="enable-background:new 0 0 486.43 210.99;" xml:space="preserve">
<g>
	<path d="M91.76,199.04c0,4.4,0,7.85,0,11.94c-30.85-0.97-61.23-1.93-91.76-2.9c1.58-4.98,3.94-6.5,10.75-7.36
		c9.1-1.15,8.99-1.16,10.02-10.74c0.31-2.9,1.05-5.91,2.3-8.52c2.02-4.22,1.75-7.81-1.89-10.72c-4.07-3.25-3.76-6.73-0.94-10.39
		c2.63-3.42,5.23-6.93,8.31-9.93c3.29-3.21,7.01-3.53,10.52,0.16c1,1.05,2.6,2.61,3.6,2.4c5.21-1.07,7.19,2.9,10.13,5.65
		c2.16,2.02,4.58,3.97,7.23,5.2c3.72,1.73,7.31,0.6,9.84-2.58c2.7-3.4,1.23-6.59-1.29-9.42c-1.33-1.49-3.14-2.64-4.14-4.31
		c-1.11-1.84-2.68-4.66-1.99-6.03c1.06-2.13,3.68-3.7,5.96-4.93c1.99-1.08,4.45-1.27,6.64-2.02c6.81-2.34,13.59-4.77,21.32-7.5
		c-0.57-1.22-1.37-3.61-2.72-5.62c-3-4.49-3.07-6.74,1.22-9.63c4.7-3.18,8.62-6.45,9.68-12.57c0.26-1.52,3.65-3.26,5.74-3.46
		c1.63-0.16,3.41,2.05,5.25,2.93c1.37,0.66,2.97,1.26,4.44,1.19c2.41-0.1,4.84-0.65,7.2-1.23c1.57-0.39,3.14-1.01,4.53-1.83
		c6.59-3.87,12.65-3.18,18.14,2.16c1.91,1.86,3.7,3.88,5.82,5.45c3.64,2.71,6.46,2,8.58-1.94c1.03-1.9,1.66-4.01,2.77-5.86
		c2.54-4.25,8.54-4.35,10.36,0.14c1.69,4.17,3.88,6.22,8.49,5.8c5.01-0.45,9.12-2.1,11.21-6.97c0.98-2.28,1.44-4.79,2.38-7.09
		c0.93-2.29,1.8-4.76,3.35-6.61c4.21-5.05,7.79-4.42,9.89,1.75c1.62,4.74,4.37,6.82,9.39,5.7c1.27-0.28,2.66-0.36,3.95-0.19
		c6.82,0.91,8.01,0.14,9.38-6.58c0.4-1.95,0.61-3.95,0.82-5.94c0.66-6.2,4.41-10.54,10.63-11.05c4.8-0.39,7.28-2.83,9.59-6.71
		c1.55-2.61,4.15-5.01,6.85-6.44c4.4-2.33,3.7-5.54,2.37-8.88c-1.68-4.19-2.18-8.15,1.33-11.52c1.44-1.38,3.46-2.15,5.22-3.2
		c1.03,1.89,2.17,3.74,3.04,5.7c0.37,0.83,0.15,1.91,0.25,3.67c4.59-2.55,8.62-5.08,12.91-7.08c4.11-1.92,8.36-3.91,12.76-4.75
		c7.21-1.37,8.36-2.54,7.01-9.97c-0.66-3.6-1.21-7.22-1.68-10.85c-0.19-1.46-0.03-2.97-0.03-4.59c5.61-2.23,10.44-0.37,15.25,2.13
		c1.87,0.97,4.07,2.45,5.88,2.17c5.07-0.79,6.69,2.28,7.46,6c2.14,10.38,8.18,15.8,18.87,16.51c6.27,0.41,11.3,3.83,15.19,8.7
		c2.71,3.38,5.54,3.93,8.92,1.11c6.32-5.29,12.96-5.28,19.88-1.25c7.81,4.55,14.96,4.66,21.56-2.56c1.79-1.96,4.83-2.79,8.57-4.85
		c-0.46,3.37-0.57,4.98-0.9,6.54c-1.11,5.16,0.6,7.87,5.91,8.58c2.79,0.37,5.65,0.14,8.48,0.26c3.88,0.16,5.8,2.56,4.59,5.98
		c-3.13,8.81,0.6,17.49-0.02,26.22c-0.12,1.64,0.71,3.87,1.89,5c8.07,7.69,11.97,17.92,16.96,27.46c2.41,4.59,5.65,7.51,10.76,8.79
		c4.59,1.15,8.66,3.45,10.72,8.85c-2.63,1.88-5.39,3.68-7.94,5.74c-5.15,4.14-10.15,8.46-15.28,12.63
		c-1.66,1.35-3.35,2.98-5.31,3.58c-12.97,3.96-19.44,14.67-25.65,25.22c-3.25,5.51-5.77,10.86-12.93,11.57
		c-0.16,0.02-0.33,0.09-0.47,0.16c-9.94,5.42-19.13,12.23-30.26,15.43c-2.48,0.72-4.4,3.39-5.92,4.62
		C285.64,203.41,189.12,201.24,91.76,199.04z"/>
</g>
</svg>
