<?xml version="1.0" encoding="utf-8"?>
<!-- Generator: Adobe Illustrator 23.0.3, SVG Export Plug-In . SVG Version: 6.00 Build 0)  -->
<svg version="1.1" id="Layer_1" xmlns="http://www.w3.org/2000/svg" xmlns:xlink="http://www.w3.org/1999/xlink" x="0px" y="0px"
	 viewBox="0 0 569.58 536.3" style="enable-background:new 0 0 569.58 536.3;" xml:space="preserve">
<g>
	<path d="M432.54,516.1c-1.59-3.26-2.97-5.73-4-8.34c-0.47-1.2-0.45-2.69-0.3-4.02c0.37-3.47,0.93-6.92,1.42-10.38
		c-0.52-0.13-1.04-0.27-1.55-0.4c-0.81,1.06-1.62,2.11-2.62,3.43c-2.26-2.88-4.48-5.71-7.19-9.15c-1.33,2.58-2.56,4.98-3.74,7.28
		c-1.72-4.68-3.34-9.05-4.89-13.26c-2.93,3.01-4.76,6.39-7.31,7.06c-2.43,0.64-7.19,4.1-8.48-2.47c-1.68,1.01-3.13,1.89-5.04,3.04
		c1.44,1.08,2.51,1.89,3.37,2.54c-0.6,2.63-1.12,4.87-1.68,7.33c-0.82-0.65-1.79-1.43-3.49-2.78c-0.56,3.88-1.03,7.21-1.41,9.81
		c-5.61,4.01-10.85,8.06-19.05,3.79c1.75-0.4,3.5-0.79,5.25-1.19c-0.49-0.52-0.99-1.04-1.48-1.55c-2.28-0.67-4.55-1.33-6.61-1.93
		c-1.65,1.73-3.36,3.53-5.18,5.44c-4.6-3.3-7.65-8.96-14.84-6.84c0.63-1.65,1.06-2.75,2.1-5.45c-2.6,1.13-4.03,1.87-5.53,2.37
		c-1.66,0.55-3.56,1.55-5.07,1.18c-4.88-1.23-9.61-3.05-14.44-4.53c-5.77-1.78-11.27-3.84-14.14-11.47
		c7.72,3.12,7.34-5.41,12.2-7.13c0.99,4.23,2.76,7.19,7.32,5.84c0.36,3.69,0.7,7.13,1.08,10.99c4.78-2.17,6.12-8.92,3.33-11.87
		c-1.25-1.32-2.57-2.87-4.18-3.52c-5.3-2.12-6.62-7.64-10-11.36c-2.9-3.18-1.62-9.06,1.82-12.66c3.29-3.45,3.06-5.08-1.18-7.51
		c-1.99,5.37-3.97,10.71-5.87,15.83c-4.85-1.59-9.5-3.11-14.39-4.71c0.26-1.27,0.54-2.64,0.9-4.39c-5.1,1.26-9.89,2.44-13.83,3.42
		c-0.92-5.38-1.67-9.78-2.45-14.31c-3.11,0.44-5.73,0.81-8.79,1.24c0.47-3.45,0.68-6.07,1.2-8.63c0.95-4.72-1.52-6.92-5.65-6.53
		c-5.35,0.5-10.62,1.92-15.91,3c-1.4,0.28-2.75,0.78-5.62,1.61c0.35-4.11,0.56-7.18,1.03-10.22c0.02-0.13,2.35,0.09,3.6,0.15
		c-0.06-4.07-4.08-6.55-8.49-5.32c-2.45,0.68-5.01,1.01-6.73,1.34c-6.63,3.72-12.83,7.19-19.14,10.73c-0.38-0.98-0.87-2.2-1.35-3.43
		c-2.09,0.77-3.85,1.42-6.2,2.29c0.64,1.91,1.44,4.32,2.28,6.82c2.9-0.8,5.34-1.47,7.78-2.14c0.11,0.25,0.22,0.5,0.33,0.76
		c-1.09,0.94-2.18,1.87-3.56,3.06c1.15,2.57,2.35,5.25,3.54,7.88c2.73-0.68,5.3-1.32,8.89-2.2c-2.04,2.43-3.26,3.89-4.48,5.35
		c0.23,0.26,0.46,0.53,0.69,0.79c-0.27,0.18-0.57,0.55-0.81,0.52c-8.07-1.16-14.96,2.54-22.4,4.55c-6.54,1.77-14.3-0.67-21.48-1.62
		c-8.63-1.14-17.48-1.79-25.74-4.29c-7.81-2.37-14.98-6.83-22.4-10.44c-1.18-0.57-2.07-1.84-3.27-2.23
		c-11.82-3.88-23.64-7.75-35.54-11.37c-2.47-0.75-5.36-1.03-7.89-0.58c-14.59,2.57-29.32,2.19-44.01,2.92
		c-4.77,0.24-9.74,3.08-13.97,5.75c-4.19,2.65-6.61,1.45-8.35-2.18c-1.26-2.63-1.93-5.64-2.25-8.55c-0.09-0.81,1.88-2.23,3.16-2.72
		c2.22-0.85,5.78-0.44,6.74-1.91c2.21-3.35,3.67-7.41,4.49-11.38c0.55-2.66-0.5-5.65-0.84-8.49c-0.59-0.04-1.17-0.09-1.76-0.13
		c1.19-1.74,2.24-3.6,3.61-5.19c5.9-6.87,8.15-14.39,4.67-23.14c-0.34-0.87-0.55-2.14-0.17-2.89c2.06-4.08,0.37-6.88-2.04-10.35
		c-2.61-3.75-3.04-9.08,0.16-12.65c5.02-5.6,3.69-10.99,1.75-17.04c-0.57-1.78,0.38-4.3,1.24-6.22c1.14-2.54,2.92-4.79,4.31-7.23
		c0.48-0.84,0.29-2.33,0.93-2.78c5.38-3.79,5.53-10.19,8.07-15.41c2.16-4.43,4.42-8.58,2.88-13.73c-0.25-0.84-0.09-2.34,0.47-2.79
		c4.06-3.22,2.93-6.23,0.23-9.68c-2.04-2.6-1.11-4.56,2.2-5.37c1.2-0.3,2.3-1.02,3.9-1.76c-1.18-1.59-2.06-2.72-2.89-3.89
		c-1.64-2.32-3.13-4.46-1.48-7.69c0.92-1.78,0.86-4.28,0.6-6.37c-0.13-1.07-1.94-2.93-2.56-2.77c-4.11,1.06-4.09-1.75-4.98-4.35
		c-1.04-3.06-2.13-6.59-4.36-8.66c-3.73-3.47-4.27-6.45-1.44-9.64c-1.78-3.69-3.37-7.02-5.01-10.33c-0.35-0.71-0.74-1.73-1.35-1.95
		c-4.41-1.61-3.47-4.06-0.72-7.07c-2.38-1.3-4.78-2.1-6.51-3.65c-4.07-3.64-7.27-7.5-4.85-13.87c2.27-5.97,0.58-12.34-1.78-17.8
		c-3-6.98-6.17-13.76-13.17-18.77C5.1,141.94-0.13,137.02,0,128.35C0.61,87.69,0.33,47.02,0.36,6.36c0-1.96,0-3.92,0-6.36
		c108.62,0,216.71,0,325.21,0c-0.16,4.15,1.9,6.29,6.36,7.35c4.88,1.16,5.63,5.77,1.38,9.46c-3.78,3.28-4.7,7.4-5.78,11.72
		c-1.08,4.3-0.18,7.02,4.92,7.59c1.47,0.16,2.72,2.26,4.07,3.47c-1.4,1.38-2.62,3.04-4.24,4.07c-1.89,1.21-5.95,1.96-5.91,2.75
		c0.17,3.14,0.61,7.54,2.7,9.03c4.6,3.31,4.72,6.86,3.6,11.55c-1.24,5.22,1.19,8.67,6.05,10.53c3.32,1.27,5.76,3.2,6.09,7.08
		c0.34,3.99,3.75,3.63,6.37,4.23c3.66,0.84,4.87,2.46,2.62,5.97c-3.47,5.39-6.84,10.85-10.05,16.39c-1.5,2.59-2.8,4.51-6.42,4.21
		c-3.65-0.3-4.75,2.4-2.69,5.6c3.95,6.12,2.1,11.8-4.53,15.38c-2.41,1.3-4.46,3.48-6.26,5.62c-3.74,4.43-6.73,9.5-13.39,10.37
		c-1.82,0.24-4.26,1.99-4.94,3.66c-2.69,6.53-5.07,13.22-7.03,20.01c-1.23,4.28-1.12,8.95-2.37,13.22c-0.62,2.1-2.71,4.03-4.59,5.45
		c-7.2,5.43-7.7,7.71-3.85,15.9c0.88,1.87,0.45,4.4,0.44,6.62c0,0.76-0.8,1.51-0.84,2.29c-0.37,8.06-3.3,12.75-12.61,11.39
		c-3.52-0.52-4.55,3.06-1.27,6.26c3.14,3.06,2.75,5.6,1.5,9.18c-0.65,1.85-0.08,4.68,0.97,6.47c3.94,6.73,4.1,6.63-1.83,11.65
		c-0.63,0.53-1.24,1.1-2.85,2.53c72.97,0,144.89,0,217.35,0c-0.29,2.79-0.09,4.88-0.77,6.64c-2.67,6.9-6.57,13.49-8.17,20.6
		c-1.35,6.02-7.02,12.1-1.33,19.02c1.33,1.62,0.42,4.93,1.06,7.33c0.45,1.69,1.52,3.4,2.77,4.64c3.18,3.16,6.62,6.04,9.93,9.08
		c0.6,0.55,1.29,1.19,1.52,1.93c2.04,6.51,3.78,13.11,6.01,19.55c1.82,5.26,3.97,10.45,6.49,15.41c0.5,0.99,3.31,0.8,6.77,1.5
		c-3.49,2.21-5.96,3.76-8.42,5.32c-0.31-0.31-0.62-0.62-0.92-0.93c0.25-0.89,0.51-1.78,0.74-2.59c-3.87,0-7.56-0.06-11.24,0.02
		c-3.32,0.07-6.38,0.3-5.91-4.72c0.3-3.16-2.14-2.78-4.53-2.75c-2.38,0.03-4.78-0.91-7.17-1.45c-2.31-0.52-4.63-1.58-6.9-1.48
		c-4.4,0.2-7.52-0.54-9.53-5.18c-3.22-7.39-16.83-13.79-24.69-11.52c-2.74,0.79-5.1,3.49-7.21,5.72
		c-4.55,4.81-8.62,10.07-13.26,14.78c-3.43,3.48-5.46,7.28-4.24,12.05c1.27,4.97,5.14,7.59,9.84,9.01c4.85,1.46,9.81,2.62,14.6,4.26
		c10.17,3.48,31.48-1.73,36.73-13.24c1.48-3.26,3.08-2.56,4.89,0.18c1.35,2.05,3.5,3.56,5.68,5.69c2.58-4,4.62-7.15,6.65-10.31
		c0.2,0.06,0.4,0.12,0.6,0.18c-0.81,2.62-1.63,5.24-2.65,8.52c3.42-1.89,5.95-3.3,9.45-5.23c-2.04-0.56-2.96-0.81-3.91-1.07
		c0.22-0.45,0.27-0.85,0.49-0.98c3.68-2.25,4.81,1.04,6.87,2.86c-3.43,4.82-6.65,9.37-10.15,14.3c-2.95-1.56-6.7-4.93-10.73-0.79
		c-2.88,2.95-1.69,6.37,0.08,9.24c3.43,5.53,8.12,1.78,12.46,0.87c-1.41,4.83,0.13,8.28,4.23,10.09c4.05,1.79,8.41,0.28,10.4-4.14
		c1.05-2.34,0.93-5.19,1.73-7.68c0.61-1.9,1.51-4.79,2.85-5.16c4.58-1.26,6.38-4.31,7.1-9.33c2.74,1.64,4.97,2.96,7.19,4.29
		c-0.22,0.36-0.44,0.72-0.66,1.07c2.06-0.69,4.12-1.37,6.18-2.06c0.32,0.54,0.65,1.07,0.97,1.61c-3.72,2.49-10.84,1.93-8.73,9.75
		c1-0.08,2.67-0.63,4.05-0.2c1.33,0.41,2.35,1.82,3.5,2.79c-1.25,0.31-2.5,0.63-3.75,0.94c-1,0.25-2.01,0.51-2.97,0.75
		c0.94,5.25,3.98,3.32,7.36,2.99c-0.72,1.22-1.43,2.43-2.13,3.61c1.56,0,3.23,0,4.96,0c-0.13,4.19-6.6,6.61-2.07,11.01
		c-1.85,0.91-3.54,1.74-5.68,2.79c-1.57-2.36-3.46-5.17-5.47-8.2c-3.44,4.62-5.46,7.74-7.94,10.44c-0.91,0.99-3.12,0.66-4.41,1.45
		c-1.48,0.91-3.52,2.33-3.62,3.67c-0.11,1.4,2.14,4.38,2.75,4.22c5.8-1.46,6.99,3.64,11.15,7.07c-8.46-2.92-15.49-5.35-22.55-7.78
		c1.78,2.77,3.67,5.72,6.26,9.75c-4.89-0.96-8.76-1.72-12.54-2.46c2.33,13.27,11.94,18.73,22.81,21.86c0,3.47,0,6.12,0,9.7
		c6.22,0,13.52,0,20.81,0c0.06,0.41,0.11,0.81,0.17,1.22c-1.33,0.68-2.66,1.36-4.23,2.16c2.17,3.27,4.87,3.22,7.9,2.32
		c2.51-0.75,3.97-0.75,5.72,2.44c2.96,5.4,4.55-0.62,6.76-1.76c3.22,3.49,6.48,7.03,10.38,11.27c-1.29,0.88-2.34,1.61-3.4,2.34
		c3.71,4.3,8.82,4.25,14.09,4.27c-1.43,1.65-0.2,6.19-4.68,3.35c-0.71-0.45-3.15,1.82-4.79,2.83c0.16,0.4,0.32,0.8,0.48,1.2
		c2.4,0.15,4.79,0.31,8.02,0.52c-1.21,2.5-2.25,4.63-3.67,7.55c-1.05-1.92-1.81-3.3-2.57-4.68c-0.47,0.33-0.94,0.66-1.41,0.99
		c0.26,1.14,0.53,2.28,0.79,3.42c-5.31,0.34-8.15,5.94-5.68,12.92c-6.91-3.12-7.12-10.68-12.4-15.09c0.49,5.04-1.98,6.66-6.02,7.13
		c-0.95,0.11-1.83,2.07-2.47,3.32c-2.37,4.68-4.69,9.37-9.18,12.33c-0.49-0.21-0.97-0.42-1.46-0.63c0.6-1.8,1.02-3.69,1.85-5.38
		c1.62-3.29,3.44-6.49,5.25-9.68c0.37-0.65,1-1.34,1.67-1.6c5.54-2.1,4.96-7.42,7.1-11.3c-0.42-0.23-0.84-0.47-1.26-0.7
		c-0.61,1.17-1.22,2.33-2.38,4.55c-0.48-3.13-0.78-5.12-1.08-7.11c-0.44-0.01-0.87-0.03-1.31-0.04c0,1.73-0.18,3.48,0.04,5.18
		c0.49,3.96-2.05,5.75-5.13,5.94c-1.11,0.07-2.47-2.96-3.61-4.65c-0.62-0.92-0.8-2.25-1.58-2.95c-3.59-3.18-6.75-10.48-5.1-14.96
		c-2.54,1.39-4.05,2.22-6.43,3.53c-12.41-2.75-12.65-2.97-12.48-13.23c-6.21,5.92-12.97,3.8-19.25,2.92
		c1.67-2.07,4.07-3.91,4.69-6.22c0.44-1.62-1.56-3.9-2.52-5.98c-1.3-0.33-3.89-0.24-4.65-1.37c-0.9-1.34-0.21-3.73-0.21-6.32
		c-0.25-0.09-1.39-0.51-2.72-1.01c-0.62,1.67-1.12,3.05-1.35,3.65c-4.71-1.13-9.41-1.62-13.53-3.44c-4.36-1.92-8.05-5.32-12.28-7.61
		c-1.43-0.77-3.62-0.12-6.45-0.12c-0.69-0.87-2.22-2.79-4.02-5.06c-1.19,2.15-4.72,3.43-0.92,6.05c-0.73,0.48-1.54,1.01-2.94,1.92
		c7.16,3.58,13.87,6.93,19.37,9.68c0,3.47,0.12,5.81-0.05,8.12c-0.08,1.02-0.82,1.98-1.12,3.01c-0.22,0.76-0.58,1.81-0.25,2.35
		c1.01,1.65,2.33,3.11,4.39,5.77c-2.51-0.83-4.03-1.32-5.57-1.83c-4.47,9.45-4.47,9.45,1.09,10.61
		C449.01,508.69,440.11,511.93,432.54,516.1z"/>
	<path d="M263.25,453.85c-2.25,2.57-5.08,5.79-7.91,9.01c-3.5,2.64-6.96,1.33-10.69-1.15c-4.23-2.81-9.11-4.62-13.6-7.08
		c-1.33-0.73-2.27-2.17-3.39-3.28c1.28-1.17,2.39-2.64,3.87-3.46c2.66-1.47,5.44-3.1,8.36-3.61c2.43-0.43,5.38,0.1,7.66,1.16
		C252.91,447.93,258.01,451,263.25,453.85z"/>
</g>
</svg>
