<?xml version="1.0" encoding="utf-8"?>
<!-- Generator: Adobe Illustrator 23.0.3, SVG Export Plug-In . SVG Version: 6.00 Build 0)  -->
<svg version="1.1" id="Layer_1" xmlns="http://www.w3.org/2000/svg" xmlns:xlink="http://www.w3.org/1999/xlink" x="0px" y="0px"
	 viewBox="0 0 359.19 537.37" style="enable-background:new 0 0 359.19 537.37;" xml:space="preserve">
<style type="text/css">
	.st0{fill:#FFFFFF;}
</style>
<g>
	<path d="M344.93,315.86c1.34,1.82,2.68,3.65,4.52,6.15c0-2.63,0-5.07,0-7.52c0.27-0.21,0.54-0.43,0.81-0.64
		c1.85,3.07,3.69,6.14,5.82,9.69c0.45-0.08,1.7-0.31,3.07-0.55c0,0.37,0.09,0.72-0.01,0.8c-3.96,3-8.08,5.79-11.83,9.03
		c-1.36,1.17-1.5,3.66-2.74,5.08c-2.48,2.86-5.34,5.4-9.25,9.27c-0.81-1.76-1.46-3.18-2.11-4.59c-0.32,0.14-0.63,0.29-0.95,0.43
		c0,1.58,0,3.16,0,5.73c-4.15-3.01-6.13-6.06-5.27-10.47c-2.7,0.38-5.06,0.72-7.71,1.09c1.19,3.29,4.71,7.73-1.05,12.03
		c-0.85-2.74-1.69-5.46-2.54-8.18c-0.35,0.06-0.71,0.12-1.06,0.18c0.21,2.13,0.42,4.27,0.67,6.75c-3.78,2.18-4.55-0.86-5.15-2.79
		c-1.84-0.7-3.13-1.18-4.83-1.82c-0.51,3.99-1.08,8.5-1.74,13.62c-1.31,0.23-3.03,0.54-4.73,0.83c-0.43-1.17-0.78-2.12-1.49-4.02
		c-2.64,3.86-4.77,6.98-6.89,10.09c-0.49-0.16-0.99-0.33-1.48-0.49c0-4.06,0-8.12,0-13.16c-1.56,3.81-2.75,6.74-3.95,9.67
		c-0.27-0.1-0.55-0.21-0.82-0.31c0.75-4.17,1.5-8.35,2.25-12.52c-0.41-0.09-0.83-0.19-1.24-0.28c-4.83,7.87-8.95,16.02-10.56,25.66
		c-0.36-2.65-0.72-5.31-1.08-7.96c-0.33-0.03-0.67-0.06-1-0.09c-0.28,2.76-0.55,5.52-0.97,9.65c-1.13-2.32-1.65-3.36-2.39-4.89
		c-2.67,4.55-5.19,8.85-7.74,13.2c0.06,0.02-0.2,0.02-0.24-0.07c-1.85-4.46-3.77-8.9-5.46-13.42c-0.83-2.24-1.2-4.65-1.78-6.98
		c-0.5,0.07-1,0.14-1.5,0.2c-0.39,1.06-0.77,2.13-1.34,3.7c-1.4-1.12-2.43-1.95-3.63-2.9c-0.35,1.17-0.63,2.09-1.03,3.4
		c-1.12-1.29-2.07-2.37-3.2-3.67c-0.53,1.05-1.13,2.25-2,3.97c-1.69-1.27-3.79-2.84-5.22-3.92c-1.89,4.02-3.74,7.95-5.59,11.88
		c-0.53-0.19-1.06-0.38-1.6-0.57c0-3.55,0-7.11,0-10.66c-0.35-0.2-0.7-0.4-1.05-0.59c-0.67,1.2-1.6,2.33-1.96,3.62
		c-1.32,4.63-4.83,7.28-9.99,6.62c1.19,6.17,2.33,12.12,3.6,18.75c-7.14-0.9-13.45-3.78-19.09-9.48c-1.59,1.08-3.4,2.3-5.21,3.52
		c-0.45-0.18-0.9-0.36-1.35-0.54c0.57-1.89,0.88-3.93,1.8-5.63c0.52-0.96,2.05-1.37,3.99-2.55c0.3-0.78,1.12-2.9,1.97-5.1
		c-0.36-0.19-1.23-0.64-2.14-1.12c-0.87,1.9-1.73,3.78-2.79,6.06c-0.69-2.13-1.22-3.78-1.75-5.42c0.39,0.12,0.77,0.24,1.16,0.37
		c2.35-5.21,4.7-10.42,7.04-15.59c-4.41-3.61-10.08-5.97-9.2-13.78c-2.19,3.29-2.7,5.32,0.12,7.78c3.91,3.4,2.33,7.88,1.36,12.06
		c-0.2,0.86-0.7,1.66-1.1,2.47c-0.37,0.74-0.81,1.46-1.21,2.19c-0.51-0.51-0.94-1.13-1.53-1.5c-1.35-0.84-2.78-1.56-4.29-2.39
		c-2.12,3.05-4.15,5.97-6.86,9.88c0.35,0.71,1.81,2.64,2.23,4.78c0.48,2.41,1.05,6.35-0.18,7.27c-4.34,3.25-5.56,7.94-7.37,12.4
		c-2.18,5.35-4.07,10.82-6.3,16.81c1.86-0.44,3.2-0.76,5.58-1.33c-1.48,2.74-2.61,4.84-4.59,8.52c-0.95-2.33-1.5-3.7-2.35-5.78
		c-0.99,1.74-1.38,2.1-1.34,2.4c0.52,3.72,0.45,6.93-4.69,6.89c-0.6,0-1.81,1.34-1.71,1.85c0.86,4.22-2,5.23-5.46,6.2
		c-1.18-1.65-2.49-3.49-3.88-5.43c-1.13,0.27-2.64,0.63-4.17,0.99c-1.04-5.44,5.28-10.53-0.31-14.84
		c-3.57,9.75-7.22,19.7-11.2,30.55c-3.09-5.31-5.39-9.28-7.7-13.25c1.87,2.88-3.51,8.11,3.15,9.82c-1.58,0.34-1.87,4.93-4.49,0.46
		c-0.53-0.9-2.97-0.47-4.11-1.26c-1.53-1.07-2.64-2.72-3.94-4.12c1.6-0.99,3.2-1.98,4.72-2.92c-2.29-2.55-4.4-2.36-5.6,1.46
		c-1.13,3.62-1.39,7.49-2.32,11.18c-0.78,3.11-0.47,6.67-5.21,7.84c-2.15,0.53-3.54,4.11-6.17,7.45
		c-0.87-8.44-1.59-15.48-2.31-22.51c-0.33-0.05-0.65-0.1-0.98-0.15c-0.36,3.41-0.73,6.81-1.09,10.22c-0.25-0.01-0.5-0.02-0.75-0.03
		c0-1.08,0-2.17,0-4.44c-1.54,3.25-2.55,5.41-3.82,8.1c-0.54-3.55-0.94-6.18-1.36-8.92c-1.18-0.42-2.53-0.9-3.87-1.38
		c-2.52,3.98-2.52,3.97-8.28,3.93c-0.38,0-0.95,0.29-1.13,0.61c-2.26,3.92-6.97,5.81-8.41,10.52c-0.48,1.58-2.48,2.7-4.15,4.4
		c1.46,4.29,3.23,9.47,5,14.64c-4.76,0.77-9.14,0.37-12,2.27c-2.73,1.81-4.2,5.88-5.5,9.24c-0.33,0.86,2.09,2.78,3.25,4.23
		c-1.47,2.52-3.17,6.01-5.43,9.08c-1.06,1.44-3.16,2.78-4.89,2.93c-5.96,0.5-12.75,6.25-11.53,11.72c1.09,4.9-1.16,7.65-3.24,11.08
		c-1.65,2.73-2.89,5.72-4.28,8.53c-1.36-0.88-3.31-2.14-5.41-3.5c-0.71,1.39-1.26,2.47-1.94,3.8c-2.37-2.04-4.83-3.58-6.45-5.74
		c-0.98-1.31-1.41-3.88-0.81-5.37c2.21-5.48-0.18-9.13-3.88-12.7c-3-2.89-6.05-5.84-8.42-9.22c-1.17-1.66-1.62-4.6-1.06-6.57
		c2.9-10.17,2.8-20.49,2.67-30.9c-0.87-66.98-1.6-133.97-2.51-200.96c-0.05-3.53,1.09-4.74,4.43-4.91c2.11-0.1,4.19-0.9,7.64-1.69
		c0.94,3.77,2.03,8.15,3.12,12.53c0.61-0.03,1.22-0.07,1.83-0.1c1.27-6.62,7.07-12.05,4.18-19.84c-0.37-1,0.83-3.15,1.91-3.92
		c0.76-0.54,3.32-0.08,3.74,0.67c2.63,4.77,6.73,3.04,10.58,3.07c1.43-4.36-0.39-7.4-3.33-9.85c-3.14-2.62-3.02-5.32-1.36-8.75
		c4.66-9.66,12.46-15.86,21.91-20.18c4.05-1.85,6.6-3.79,3.93-8.61c-0.46-0.83-0.07-2.53,0.51-3.45c1.15-1.79,2.51-3.56,4.15-4.89
		c5.67-4.62,5.73-4.55,8.9-12.13c-1.72-1.07-3.47-2.17-5.18-3.23c-1.88-3.7,2.61-7.51,0.06-11.62c-0.24-0.39,1.42-2.65,2.57-3.1
		c3.77-1.48,4.1-5.17,2.37-6.91c-5.35-5.39-1-9.64,0.72-14.23c0.89-2.39,1.94-4.75,3.23-6.94c0.8-1.36,1.98-2.73,3.33-3.49
		c7-3.97,11.07-9.41,11.42-17.87c0.58-13.79,5.49-25.94,13.79-37.23c17.94-24.43,35.1-49.43,52.61-74.17c4.4-6.22,5.34-6.29,12-2.45
		c1.51,0.87,3.58,0.76,5.09,1.62c1.05,0.6,2.22,2.1,2.22,3.2c0,1.91-1.07,3.8-1.32,5.74c-1.36,10.78,2.32,16.94,12.38,20.48
		c1.09,0.38,2.81-0.34,3.97-1.02c5.23-3.05,10.45-5.61,16.84-5.45c1.84,0.05,3.58-2.77,5.65-3.51c3.47-1.23,7.13-2.12,10.78-2.61
		c1.95-0.26,4.05,0.6,6.36,1c0.26-1.53,0.53-2.47,0.57-3.41c0.29-7.61,2.09-9.15,9.54-7.31c2.66,0.66,5.32,2.03,7.5,3.71
		c5.52,4.27,11.08,8.58,16.01,13.48c3.23,3.21,5.35,7.53,8.1,11.26c1.05,1.43,2.23,3.07,3.75,3.77c4.02,1.86,5.1,4.62,5.13,9.03
		c0.22,40.99,0.68,81.99,1.24,122.98c0.05,3.83,1.45,7.62,1.95,11.47c0.14,1.09-0.57,2.37-1.11,3.45c-0.5,0.99-1.99,2.52-1.87,2.65
		c5.52,5.58-3.56,12.02,1.06,17.81c0.76,0.95-1.01,3.68-1.08,5.6c-0.06,1.73,0.61,3.48,0.95,5.22c1.77-0.8,3.57-1.56,5.29-2.45
		c0.25-0.13,0.15-0.92,0.76-1.8c2.54,7.58,9.04,9.26,15.28,11.09c1.54,0.45,3.54,0.06,5.12-0.53c2.9-1.08,5.52,1.41,5.51,5.5
		c0,1.92,0,3.83,0,5.96c-0.54,0.23-1.44,0.57-2.31,0.97c-0.89,0.42-1.76,0.9-3.12,1.6c0.76,2.33,0.81,5.48,2.39,6.79
		c6.42,5.34,3.67,10.74,0.23,15.65c-1.81,2.58-1.48,4.27,0.02,6.12c3.36,4.12,2.91,10.32,8.23,13.53c4.29,2.59,5.58,2.68,7.46-2.08
		c0.24-0.61,0.41-1.24,0.67-2.06c6.01,2.2,12.14,3.71,14.36,10.92c1.04,3.38,2.95,6.51,4.65,9.66c2.01,3.73,1.61,7.18-0.77,11.38
		c-0.7-1.37-0.89-2.44-1.5-2.79c-1.01-0.57-2.28-0.68-3.45-0.98c-0.05,1.3-0.39,2.67-0.06,3.87c0.28,1,1.33,1.79,2.04,2.68
		c-2.84-0.89-5.67-1.77-8.51-2.66c-0.2,0.27-0.4,0.55-0.6,0.82c2.99,2.41,5.98,4.82,9.13,7.35
		C344.42,318.34,344.68,317.1,344.93,315.86z M117.5,433.07c-0.43-0.42-0.87-0.85-1.3-1.27c-1.27,1.43-2.53,2.86-3.84,4.33
		c-0.21-1.21-0.38-2.25-0.56-3.29c-0.17,0.03-0.35,0.06-0.52,0.08c-0.4,2.37-0.79,4.75-1.19,7.12c0.41,0.16,0.82,0.33,1.23,0.49
		C113.38,438.04,115.44,435.55,117.5,433.07z M105.15,430.06c1.37-3.7,2.91-7.87,4.58-12.4
		C104.32,421.15,102.39,425.22,105.15,430.06z"/>
	<path d="M238.04,382.16c0.92,3.88,2,7.73,2.67,11.65c0.2,1.2-0.4,2.85-1.21,3.78c-0.46,0.53-2.21,0.33-3.18-0.05
		c-1.32-0.51-2.79-1.25-3.62-2.33c-2.02-2.63-5.31-4.78-2.73-9.17c2.15-3.66,3.23-7.93,5.09-11.77c1.58-3.26,8.22-3.18,10.19-0.16
		c0.97,1.48,2.38,2.69,3.56,4.04c2.6,2.97,3.35,6.52,0.7,9.41c-1.54,1.68-4.58,2.4-7.01,2.57c-0.69,0.05-1.71-3.29-2.42-5.14
		c-0.37-0.96-0.42-2.05-0.61-3.07C238.99,382,238.51,382.08,238.04,382.16z"/>
	<path d="M207.1,391.9c2.26,1.45,4.02,2.58,6.22,3.99c-1.31,2.18-2.47,4.1-3.66,6.08c0,1.28,0.3,3.03-0.18,4.53
		c-0.15,0.48-3.09,0.85-3.52,0.3c-0.88-1.12-0.64-3.07-1.38-4.38C202.2,398.2,205.96,395.73,207.1,391.9z"/>
	<path d="M198.06,417.75c-1.06,1.01-2.47,3.43-4.01,3.51c-1.67,0.09-4.78-0.6-4.21-4.19c0.1-0.64-2.12-1.43-2.74-2.47
		c-0.42-0.7-0.25-2.27,0.3-2.85c0.42-0.45,2.05-0.3,2.77,0.17C192.59,413.49,194.83,415.32,198.06,417.75z"/>
	<path d="M209.09,424.63c0.3-3.56-1.29-7.77,4.51-8.91C214.14,419.82,215.18,423.77,209.09,424.63z"/>
	<path d="M223.22,405.49c2.45-0.5,4.89-1.23,7.36-1.33c0.49-0.02,1.08,2.33,1.63,3.59c-1,0.4-2.05,1.23-2.97,1.1
		c-1.91-0.27-3.75-1.05-5.62-1.62C223.48,406.65,223.35,406.07,223.22,405.49z"/>
	<path d="M185.35,408.4c2.39-1.77,4.77-3.54,7.56-5.61c0.94,1.73,1.59,2.92,2.59,4.76c-3.6,0.69-6.69,1.29-9.78,1.88
		C185.6,409.09,185.47,408.74,185.35,408.4z"/>
	<path class="st0" d="M344.93,315.86c-0.26,1.24-0.51,2.48-0.92,4.46c-3.15-2.54-6.14-4.94-9.13-7.35c0.2-0.27,0.4-0.55,0.6-0.82
		c2.84,0.89,5.67,1.77,8.51,2.66C344.3,315.16,344.62,315.51,344.93,315.86z"/>
	<path class="st0" d="M117.5,433.07c-2.06,2.49-4.13,4.97-6.19,7.46c-0.41-0.16-0.82-0.33-1.23-0.49c0.4-2.37,0.79-4.75,1.19-7.12
		c0.17-0.03,0.35-0.06,0.52-0.08c0.18,1.04,0.36,2.08,0.56,3.29c1.31-1.47,2.57-2.9,3.84-4.33
		C116.64,432.22,117.07,432.64,117.5,433.07z"/>
	<path class="st0" d="M105.15,430.06c-2.75-4.84-0.83-8.91,4.58-12.4C108.05,422.19,106.51,426.36,105.15,430.06z"/>
</g>
</svg>
