<?xml version="1.0" encoding="utf-8"?>
<!-- Generator: Adobe Illustrator 23.0.3, SVG Export Plug-In . SVG Version: 6.00 Build 0)  -->
<svg version="1.1" id="Layer_1" xmlns="http://www.w3.org/2000/svg" xmlns:xlink="http://www.w3.org/1999/xlink" x="0px" y="0px"
	 viewBox="0 0 512.73 598.04" style="enable-background:new 0 0 512.73 598.04;" xml:space="preserve">
<style type="text/css">
	.st0{fill:#FFFFFF;}
</style>
<g>
	<path d="M25.3,598.04c-0.77-9.86-1.58-19.46-2.26-29.07c-4.33-60.82-8.69-121.64-12.92-182.47C6.7,337.31,3.43,288.1,0.11,238.9
		c-0.09-1.33-0.1-2.66-0.1-4C0,158.07,0,81.24,0,4.41C0,3.08,0,1.76,0,0c94.26,0,188.32,0,282.86,0c0,4.84-0.21,10,0.08,15.13
		c0.19,3.37,0.96,6.73,1.71,10.04c1.24,5.43,2.17,10.23-1.24,15.86c-2.33,3.86-1.26,9.78-1.69,14.62c6.22,2.45,6.71,3.55,4.71,8.13
		c2.32,0.6,5.23,0.56,6.91,1.98c1.98,1.67,2.91,4.6,4.64,7.59c1.42-0.71,3.11-1.27,4.45-2.3c1.21-0.93,2.04-2.36,3.21-3.79
		c0.44,2.48,0.77,4.32,1.1,6.17c0.26,0,0.52-0.01,0.77-0.01c0.46-1.48,0.92-2.96,1.51-4.87c8.27,0,16.79,0,25.57,0
		c1.19,4,2.58,5.77,6.3,1.54c3-3.41,7.55-1.58,7.61,3.07c0.17,11.75,5.93,21.04,11.92,30.42c1.36,2.13,1.68,4.92,2.57,7.37
		c2.4,6.62,4.67,13.28,7.32,19.8c2.2,5.42,5.05,10.58,7.25,16c1.99,4.9,1.35,9.7-1.43,14.32c-3.54,5.9-6.88,11.91-13.84,14.72
		c7.47-3.37,14.94-6.74,22.41-10.1c0.34,0.57,0.68,1.13,1.01,1.7c-2.77,2.16-5.54,4.32-8.74,6.81c1.8-0.35,3.35-0.3,4.53-0.94
		c15.19-8.23,32.24-10.99,48.41-16.28c7.62-2.49,15.64-0.45,22.86,2.44c9.52,3.81,18.44,9.13,27.96,12.93
		c5.11,2.04,11.02,1.96,16.44,3.34c5.11,1.3,10.06,3.25,15.56,5.08c-17.46,15.48-34.59,30.05-51.03,45.38
		c-40.22,37.5-79.76,75.73-120.29,112.89c-21.1,19.34-43.6,37.16-65.73,55.34c-4.4,3.61-6.2,7.06-6.18,12.88
		c0.22,62.16,0.09,124.33,0.05,186.49c0,1.31-0.15,2.62-0.25,4.31C188.05,598.04,107,598.04,25.3,598.04z M300.88,96.85
		c3.71-5.28,3.71-5.28,3.58-19.93C303.29,83.43,302.12,89.94,300.88,96.85z"/>
	<path class="st0" d="M300.88,96.85c1.24-6.92,2.41-13.42,3.58-19.93C304.59,91.57,304.59,91.57,300.88,96.85z"/>
</g>
</svg>
