<?xml version="1.0" encoding="utf-8"?>
<!-- Generator: Adobe Illustrator 23.0.3, SVG Export Plug-In . SVG Version: 6.00 Build 0)  -->
<svg version="1.1" id="Layer_1" xmlns="http://www.w3.org/2000/svg" xmlns:xlink="http://www.w3.org/1999/xlink" x="0px" y="0px"
	 viewBox="0 0 599.51 308.78" style="enable-background:new 0 0 599.51 308.78;" xml:space="preserve">
<g>
	<path d="M485.46,38.73c3.03-5.31,5.38-9.41,7.72-13.51c-0.55-0.41-1.1-0.82-1.65-1.23c-6.71,6.38-13.42,12.77-20.13,19.15
		c-0.47-0.24-0.94-0.48-1.41-0.71c3.11-7.01,6.22-14.02,9.33-21.03c-0.47-0.26-0.94-0.53-1.41-0.79c-0.56,0.28-1.47,0.43-1.63,0.86
		c-2.41,6.41-7.65,6.09-13.1,5.92c-3.97-0.13-10.06,8.13-8.84,11.89c0.36,1.11,2.05,2.18,3.33,2.54c4.63,1.29,4.3,3.88,1.48,6.36
		c-4.22,3.7-8.86,6.91-13.32,10.33c-1.3,1-2.59,2.02-4.19,3.27c-5.65-5.87,0.56-12.73-1.85-20c-1.75,2.48-3.54,3.9-3.74,5.52
		c-0.64,5.24-3.37,10.39-0.13,15.97c0.8,1.38-1.72,4.68-2.72,7.1c-0.41-0.16-0.82-0.33-1.23-0.49c-0.92-3.64-1.98-7.25-2.72-10.93
		c-0.78-3.87-2.88-4.88-6.45-3.64c-1.98,0.69-4.01,1.25-5.9,1.84c2.66,2.05,6.25,3.52,7.06,5.92c0.55,1.65-2.77,4.6-4.64,7.4
		c-1.96-0.34-4.33-0.75-8.01-1.38c1.86,2.92,3.26,4.82,4.32,6.9c0.59,1.15,0.61,2.58,0.88,3.89c-1.29-0.67-2.82-1.1-3.81-2.07
		c-2.06-2.02-3.84-4.34-6.21-6.13c0.67,7.49,4.11,11.44,10.47,13.12c-2.52,4.16-9.11,4.29-13.02,0.75c-2.9-2.61-6.21-5.01-9.74-6.57
		c-1.79-0.79-4.49,0.47-6.25,0.73c5.37,5.76,10.63,11.41,16.19,17.36c0.88-0.37,2.34-0.99,4.68-1.97
		c-0.02,6.52,6.34,10.78,4.56,17.1c-4.24-1.64-8.16-3.15-12.08-4.67c-0.37,0.32-0.74,0.63-1.11,0.95c1.3,1.23,2.43,2.76,3.93,3.63
		c3.28,1.9,6.89,3.26,10.08,5.29c1.15,0.74,1.84,2.74,1.98,4.23c0.05,0.5-2.26,1.27-3.53,1.82c-1.49,0.65-3.01,1.2-5.26,2.09
		c-2.76-3.27-5.67-6.82-8.71-10.27c-1.03-1.17-2.31-2.15-3.62-3.01c-0.14-0.09-1.86,1.51-1.72,1.82c0.7,1.56,1.43,3.53,2.77,4.3
		c6.98,4.03,9.84,11.01,13.23,17.64c0.21,0.41,0.24,0.95,0.22,1.43c-0.02,0.29-0.3,0.57-0.87,1.56c-3.45-2.91-6.83-5.76-10.21-8.61
		c-0.69,0.54-1.38,1.09-2.08,1.63c1.26,2.15,2.4,4.39,3.83,6.42c1.21,1.73,2.76,3.22,4.17,4.81c-1.97,0.43-3.94,0.86-5.71,1.24
		c0,2.89,0,5.99,0,9.69c1.64-0.62,3.21-1.21,4.77-1.8c0.72,3.76,0.23,4.77-3.53,7.34c-5.3,3.62-5.6,6.7-1.72,11.96
		c1.19,1.61,1.84,3.92,1.96,5.96c0.49,8.4-0.17,16.96,1.3,25.16c0.83,4.67,4.92,8.77,7.59,13.1c3.03,4.91,6.35,9.66,9.08,14.72
		c1.34,2.48,1.88,5.83-1.88,7.08c-3.4,1.12-7.58,1.61-9.03-2.57c-1.78-5.15-5.05-7.46-10.07-8.21c-0.75-0.11-1.62-0.69-2.08-1.31
		c-5.42-7.32-13.12-13.16-13.28-23.7c-0.1-6.16-1.82-12.3-2.82-18.45c-0.54,0.07-1.07,0.14-1.61,0.21c0.8,7.8,1.86,15.59,2.34,23.41
		c0.76,12.31,6.88,20.41,18.09,25.19c1.65,0.7,3.06,2.86,3.79,4.66c2.87,7.08,5.27,8.63,12.77,7.53c4.18-0.62,6.3,1.65,4.35,5.52
		c-2.61,5.16-1.28,8.45,2.67,12.21c4.44,4.22,7.24,9.22,4.53,16.12c-0.98,2.49,0.83,6.06,1.31,8.82c-4.05-2.97-8.64-6.07-12.84-9.61
		c-1.16-0.98-1.29-3.28-1.69-5.02c-0.72-3.07-1.28-6.18-2.95-9.04c-0.79,3.15-1.59,6.3-2.56,10.16c-2-1.66-3.25-2.69-4.79-3.97
		c-0.73,1.51-1.43,2.98-2.51,5.23c-0.87-1.61-1.54-2.46-1.82-3.43c-3.93-13.57-9.92-17.68-23.54-16.11
		c-9.58,1.1-13.73-2.44-14.37-12.52c-0.35-5.51-2.25-9.95-7.49-12.82c1.54,6.38,3.02,12.54,4.51,18.7
		c-0.66,0.35-1.31,0.69-1.97,1.04c-7.45-1.8-11.69-8.12-15.21-13.99c-3.63-6.05-5.18-13.36-8.01-21.14
		c-1.86,3.44-2.73,5.84-4.28,7.65c-1.11,1.3-3.14,1.82-4.76,2.69c-0.6-1.6-1.29-3.17-1.77-4.8c-0.22-0.74-0.04-1.6-0.04-2.41
		c-0.51-0.18-1.01-0.35-1.52-0.53c-0.38,1.26-1.34,2.69-1.04,3.76c1.29,4.49-1.25,8.53-7.43,11.76c-4.66,2.43-6.47-1.01-8.15-3.94
		c-5.04-8.76-3.97-17.64,1-25.91c1.33-2.21,4.84-3.12,7.32-4.61c-0.68-0.94-2.11-2.43-1.9-2.71c1.12-1.52,2.77-3.97,4.01-3.85
		c5.72,0.58,6.3-3.73,7-7.19c0.98-4.81,3.75-7.14,8.15-8.3c2.48-0.66,3.62-1.56,4.02-4.94c0.44-3.69,1.35-6.93-0.15-10.62
		c-0.4-0.99,1.03-3,2.01-4.23c3.11-3.9,6.4-7.66,9.84-11.73c-4.9-7-9.73-13.9-14.91-21.3c-3.48,3.77-6.61,7.16-9.26,10.02
		c-4.67-1.63-9.01-2.95-13.17-4.69c-1.64-0.69-3.85-2.12-4.14-3.55c-1.77-8.76-8.15-11.69-15.71-11.79
		c-8.33-0.1-14.16-3.75-19.15-9.81c-2.8-3.41-3.16-6.46,0.47-9.47c1.15-0.95,2.28-1.98,3.21-3.14c2.97-3.75,1.87-7.04-2.28-9.22
		c-2.78-1.46-5.03-3.89-7.57-5.83c-1.39-1.07-2.74-2.53-4.33-2.93c-5.9-1.5-11.87-2.74-17.85-3.86c-4.14-0.78-7.06-3.54-5.84-7.15
		c2.53-7.48,0.69-11.85-6.92-13.36c1.11-3.73,2.04-6.87,2.95-9.95c-1.71-0.22-4.66,0.21-6.26-1.07c-1.14-0.91-0.44-4.11-1.72-6.47
		c-0.83,1.24-1.66,2.48-2.87,4.27c-0.93-2.83-1.69-5.15-2.52-7.7c1.29-0.7,3-1.09,3.72-2.16c0.95-1.42,2.07-4.17,1.44-4.89
		c-1.15-1.32-3.87-2.59-5.34-2.1c-8.56,2.83-15.89,2.78-22.17-5.1c-4.18-5.24-8.84-10.87-16.65-10.35c-2.54,0.17-5.2,1.57-7.37,3.06
		c-2,1.37-3.62,3.46-5.02,5.5c-1.99,2.9-4.36,3-7.7,2.87c-4.96-0.19-9.98,1.03-15.54,1.71c1.03,2.06,1.87,3.76,2.83,5.68
		c-2.14,0.61-4.24,1.21-6.34,1.81c-0.32,0.58-0.63,1.17-0.95,1.75c1.64,0.44,3.28,0.88,4.91,1.32c-0.2,0.63-0.4,1.25-0.6,1.88
		c-1.84,1.2-3.62,3.32-5.52,3.42c-6.98,0.38-14.15,0.97-20.95-0.23c-5.5-0.97-10.7-4.15-15.69-6.95c-1.08-0.61-0.7-3.81-1-5.81
		c0.55-0.17,1.1-0.33,1.65-0.5c-1.43-1.35-2.85-2.71-5-4.75c-2.09,4.33-3.98,8.27-6.08,12.64c-1.69,1.67-4.02,3.81-6.14,6.14
		c-3.92,4.3-7.63,8.8-11.62,13.03c-2.14,2.27-4.38,1.43-6.61-0.39c-7.57-6.15-11.94-4.68-16.66,3.98c-2.18,4-6.08,7.37-9.87,10.1
		c-4.46,3.22-9.5,5.55-11.52,11.24c-0.29,0.81-1.31,1.89-2.06,1.93c-8.64,0.55-12.72,7.88-18.69,12.39
		c-1.93,1.46-3.82,2.98-5.89,4.6C0,59.4,0,29.89,0,0c166.76,0,332.64,0,499.04,0c3.45,72.99,6.89,145.81,10.36,219.17
		c28.22,0,55.95,0,83.39,0c-0.61,2.43-1.11,4.41-1.77,7.08c-2.47-0.56-5.57-1.27-8.68-1.97c-0.28,0.38-0.56,0.77-0.85,1.15
		c5.86,0.98,7.21,4.41,5.79,9.21c5.41,0.98,6.28,2.38,4.06,7.15c-2.1,4.51-4.29,9.02-7,13.17c-0.98,1.5-3.58,1.96-6.26,3.3
		c0.26-2.51,0.38-3.58,0.49-4.66c-0.31-0.26-0.61-0.52-0.92-0.78c-1.83,2.06-4.34,3.83-5.35,6.24c-2.1,4.99-3.38,10.32-5.03,15.51
		c-0.34,1.08-0.81,2.13-1.2,3.13c-6.4-0.7-7.42,0.08-8.93,6.66c-1.89,8.19-2.51,8.72-10.99,9.76c-6.28,0.77-12.56,1.53-18.83,2.38
		c-6.23,0.84-6.22,0.89-9.24,6.2c-10.23-2-20.76-4.58-28.12,6.11c-6.06-4.29,0.21-6.78,0.56-10.57c-1.56,0.62-2.77,1.1-4.28,1.69
		c0.04-0.71-0.04-1.32,0.12-1.87c2.02-7.11,9.62-8.86,13.62-14.09c1.35-1.77,2.91-3.38,4.87-5.63c-5.33,1.62-9.76,2.96-14.2,4.31
		c-0.3-0.53-0.61-1.06-0.91-1.59c3.29-3.28,6.57-6.56,10.31-10.3c-2.01-0.23-3.98-0.63-5.96-0.65c-2.94-0.03-6.02-0.3-8.78,0.46
		c-2.3,0.64-4.22,2.63-6.28,4.01c-1.85-3.49-1.15-9.52,2.38-11.63c3.76-2.24,7.97-3.7,13.26-6.08c-2.65-0.58-3.97-0.94-5.32-1.14
		c-5.9-0.89-7.91-3.68-5.89-9.27c1.23-3.4,3.52-6.41,5.04-9.72c1.24-2.71,2.06-5.61,3.06-8.42c-0.63-0.27-1.26-0.55-1.89-0.82
		c-5.03,8.53-10.05,17.06-14.68,24.9c-0.9-1.76-2.61-4.39-3.53-7.27c-0.39-1.23,0.43-3.51,1.48-4.41c3.25-2.8,3.4-2.63,1.29-8.47
		c-3.17,4-5.86,7.29-8.39,10.7c-0.28,0.38,0.11,1.49,0.47,2.09c2.63,4.36,1.25,8.15-1.59,12.65c-1.67-2.65-2.78-4.85-4.31-6.72
		c-1.4-1.72-3.28-3.04-4.87-4.62c-1.12-1.11-2.17-2.29-3.13-3.53c-3.35-4.35-6.65-8.74-9.98-13.11c-0.6,0.3-1.21,0.61-1.81,0.91
		c0.51,3.57,1.02,7.15,1.53,10.72c-0.27,0.09-0.54,0.18-0.81,0.28c-3.71-7.27-7.39-14.54-11.14-21.79c-0.52-1-1.6-1.75-1.98-2.78
		c-0.53-1.44-0.83-3.04-0.8-4.56c0.01-0.43,1.95-1.39,2.33-1.13c1.22,0.84,2.23,2.06,3.11,3.28c0.44,0.61,0.42,1.55,1.69,3.2
		c0.2-0.65,0.47-1.3,0.58-1.97c0.9-5.27,2.36-9.82,8.67-11.23c1.25-0.28,1.87-3.74,2.55-5.81c0.1-0.31-1.13-1.54-1.61-1.47
		c-1.28,0.2-2.82,0.56-3.65,1.43c-2.91,3.08-3.55,3.36-8.99,2.13c-1.05-3.61,6.5-6.23,1.39-9.95c4.28-0.24,8.48-0.48,12.75-0.73
		c0.49,0.65,1.14,2.43,2.28,2.85c4.16,1.54,8.54,2.44,12.73,3.92c7.62,2.69,11.63,0.53,13.22-7.38c0.34-1.67,0.77-3.32,1.47-6.34
		c-4.45,4.1-4.49,11.77-11.69,9.62c-3.9-1.16-7.43-3.18-7.36-7.78c-2.52,0.25-4.92,0.49-7.33,0.72c-0.17-0.53-0.34-1.06-0.51-1.59
		c2.05-1.36,4.1-2.71,6.81-4.5c-4.31-0.75-12.71,4.58-8.97-6.16c-0.95,1.9-1.89,3.8-3.22,6.47c-2.48-4.08-5.26-6.9-2.43-11.25
		c0.61-0.93-0.25-2.82-0.44-4.26c-1.13,0.74-2.4,1.33-3.35,2.25c-1.59,1.53-2.97,3.28-5.52,4.39c0.27-2.72,0.54-5.43,0.89-8.99
		c-4.2,3.68-4.3,8.13-4.19,12.19c0.1,3.65-1.27,4.73-5.24,5.01c0.2-2.2,0.11-4.12,0.57-5.9c1.33-5.15,2.46-10.41,4.52-15.27
		c1.04-2.45,4.05-5.84,5.93-5.7c2.37,0.18,4.61,3.42,6.69,5.56c1.78,1.84,2.87,4.59,4.93,5.86c4.98,3.08,8.76,0.36,8.7-5.07
		c-2.16,0.64-4.52,1.82-6.85,1.76c-0.77-0.02-1.82-3.23-2.07-5.07c-0.46-3.33,1.75-5.09,4.56-6.29c1.59-0.69,3.11-1.54,5.59-2.79
		c-4.85-1.44-7.37-3.69-7.2-8.47c-0.81,1.77-1.63,3.54-2.8,6.1c-3.69-3.98,0.75-12.07-7.56-12.53c-2.37,3.28-5.07,6.27-10.42,7.07
		c-5.23,0.79-0.96,4.49-0.06,7.64c-1.59,1.02-3.37,2.16-5.14,3.3c-0.58-0.31-1.17-0.62-1.75-0.93c1.97-9.52,3.95-19.04,6.26-30.17
		c3.06,2.4,4.68,3.87,6.49,5.06c2.02,1.33,4.23,3.42,6.31,3.36c3.05-0.08,6.67-1.1,8.85-3.05c1.19-1.06-0.09-4.88-0.29-7.91
		c3.64-4.4,7.81-9.45,12.38-14.98c-4.22-0.57-7.06,6.53-11.62,1.28c-3.7,0.65-3.64,4.43-4.61,7.49c-0.92,2.9-1.77,5.82-2.65,8.73
		c-0.71-0.14-1.42-0.27-2.13-0.41c0-3.03,0.26-6.1-0.08-9.09c-0.27-2.36-0.59-5.8-2.12-6.72c-3.93-2.37-2.61-4.68-1.25-7.49
		c2.17-4.49,4.34-8.98,6.32-13.55c1.24-2.86,2.07-5.9,3.24-8.8c0.46-1.14,1.2-2.83,2.08-3.02c3.19-0.7,4.59-2.54,5.7-5.49
		c0.47-1.26,3.1-2.34,4.78-2.4c9.47-0.36,18.95-0.39,28.43-0.53c1.14-0.02,2.27-0.1,3.41-0.15c0.16-0.46,0.32-0.93,0.48-1.39
		c-2.03-0.67-4.03-1.77-6.11-1.93c-4.31-0.34-8.67-0.02-12.99-0.28c-4.21-0.25-5.01-2.12-2.45-5.42c1.32-1.71,2.91-3.21,4.34-4.83
		c3.45-3.9,7.38-5.46,12.43-3c1.51,0.73,3.32,0.84,5.72,1.41C489,42.36,486.7,40,485.46,38.73z"/>
	<path d="M572.38,289.85c6.18-14.62,12.37-29.24,18.55-43.87c0.33,0.1,0.66,0.2,0.99,0.3c-0.17,0.97-0.19,2-0.53,2.91
		c-3.62,9.92-7.06,19.92-11.05,29.69c-1.69,4.15-4.56,7.81-6.9,11.7C573.1,290.34,572.74,290.1,572.38,289.85z"/>
	<path d="M465.35,288.88c6.8,3.71,7.2,5.26,3.33,13.11c-1.85-1.15-3.66-2.27-6.8-4.22c3.26-0.38,4.93-0.58,6.87-0.8
		C468.67,293.84,461.5,293.85,465.35,288.88z"/>
	<path d="M464.34,269.91c-1.92-2.15-3.2-3.58-4.49-5.01c1.38-1.19,3.42-3.65,4.01-3.34c1.76,0.92,3.08,2.84,4.2,4.61
		C468.23,266.41,466.29,267.99,464.34,269.91z"/>
	<path d="M599.51,219.77c-0.96,5.92-1.92,11.84-2.88,17.75c-0.66-0.1-1.33-0.19-1.99-0.29c1.01-5.87,2.02-11.75,3.02-17.62
		C598.28,219.66,598.89,219.71,599.51,219.77z"/>
</g>
</svg>
