<?xml version="1.0" encoding="utf-8"?>
<!-- Generator: Adobe Illustrator 23.0.3, SVG Export Plug-In . SVG Version: 6.00 Build 0)  -->
<svg version="1.1" id="Layer_1" xmlns="http://www.w3.org/2000/svg" xmlns:xlink="http://www.w3.org/1999/xlink" x="0px" y="0px"
	 viewBox="0 0 599 367.79" style="enable-background:new 0 0 599 367.79;" xml:space="preserve">
<g>
	<path d="M420.24,130.47c-0.34,2.6-0.53,4.05-0.76,5.83c2.23,0.66,4.85,0.75,6.27,2.1c0.95,0.9,0.18,3.6,0.18,6.71
		c3.86-0.92,8.17-1.94,12.49-2.96c0.2,0.45,0.4,0.9,0.6,1.35c2.31-1.58,3.29-2.94,0.58-5.68c-1.9-1.93-2.66-4.97-3.93-7.52
		c0.44-0.27,0.89-0.54,1.33-0.8c1.44,1.54,2.66,3.39,4.35,4.57c3.59,2.51,7.17,5.39,11.21,6.84c8.19,2.93,14.01,9.45,14.72,17.94
		c0.07,0.81,0.03,1.78,0.45,2.4c3.84,5.57,7.77,11.07,11.67,16.6c0.47,0.67,1.43,1.5,1.3,2.02c-1.5,5.71,2.74,9.28,4.87,13.64
		c0.64,1.31,1.55,3.67,1.04,4.13c-1.23,1.12-3.23,1.41-5.82,2.37c2.63-5.68,1.54-9.87-3.25-14.18c-0.81,4-1.55,7.63-2.28,11.2
		c-1.73,0.1-3.25,0.19-5.82,0.34c4.61,4.68,8.3,8.89,12.52,12.48c1.36,1.16,4.19,1.24,6.18,0.88c4.12-0.76,6.98,1.05,7.68,4.52
		c1.26,6.23,2.74,12.81,1.94,18.96c-0.85,6.5,1.45,10.31,5.79,14.18c8.57,7.63,18.76,10.34,29.9,10.53
		c1.49,0.02,2.98,0.25,4.47,0.39c0.14,0.01,0.27,0.13,0.96,0.5c-3.15,0.63-5.84,1.17-8.53,1.71c3.97,3.33,8.3,3.41,12.22,1.86
		c10.58-4.2,20.97-8.9,31.44-13.4c0.46-0.2,0.89-0.61,1.35-0.62c5.38-0.12,9.4-2.41,11.04-7.64c1.86-5.92,1.6-11.82-1.48-17.4
		c-0.4-0.72-0.77-1.45-1.28-2.42c1.79-0.8,3.49-1.55,6.04-2.69c-2.18-0.99-3.67-1.46-4.93-2.27c-6.16-3.99-6.13-4.02-7.41,3.18
		c-0.11,0.64-0.29,1.29-0.55,1.88c-0.1,0.24-0.5,0.35,0.04,0c-2.09-9.24-3.95-18.84-6.6-28.22c-0.75-2.67-3.44-5.21-5.88-6.88
		c-3.56-2.44-6.56-0.74-9.01,4.32c0.8,0.57,1.61,1.14,2.42,1.72c-0.25,0.48-0.5,0.97-0.76,1.45c-1.65-0.74-3.6-1.16-4.89-2.31
		c-2.07-1.85-3.91-4.05-5.45-6.37c-0.64-0.97-0.85-3.15-0.23-3.83c1.16-1.26,3-2.27,4.7-2.57c2.19-0.38,4.52,0.05,6.79,0.13
		c1.14,0.04,2.47-0.26,3.39,0.21c13.46,6.99,24.86,16.06,29.64,31.25c2.73,8.67,5.08,17.45,8.04,27.7c-2.71-1.65-4.64-2.83-7.05-4.3
		c-0.51,3.59-0.99,6.97-1.49,10.46c6.35-1.82,7.19-1.29,7.35,5.49c0.18,7.45,0.04,14.92,0.04,21.11c-8.8,1.18-16.26,2.2-23.72,3.17
		c-4.78,0.63-9.56,1.19-14.34,1.78c-6.68,0.83-13.09,2.16-16.66,8.88c-0.27,0.51-0.88,0.84-1.93,1.8c0.51-2.68,0.87-4.57,1.3-6.78
		c-7.18,1.34-14.04,2.62-21.84,4.08c-0.4-0.44-1.67-1.85-3.62-4.01c-2.03,3.12-4.01,5.68-5.48,8.51c-3.57,6.9-9.09,9.92-16.83,10.48
		c-4.66,0.33-9.19,2.47-13.76,3.85c-2.46,0.75-4.89,1.62-7.62,2.06c6.58-9.4,3.86-19.67,3.58-29.53c-0.09-3.14-0.11-5.53,1.91-8.26
		c1.67-2.26,1.91-5.58,2.78-8.42c-0.59-0.19-1.17-0.38-1.76-0.57c-1,1.36-2,2.72-3.02,4.1c-3.24-2-6.41-3.97-10.63-6.58
		c0,5.35,0,9.39,0,13.75c-6.63-1.09-4.63,7.05-9.13,9.16c-2.26-2.43-3.95-3.16-5.7,1.07c-0.81,1.96-4.13,2.87-6.56,4.42
		c0.11,2.05,0.24,4.56,0.37,7.06c-0.4,0.15-0.79,0.3-1.19,0.45c-2.36-3.53-4.72-7.06-7.09-10.59c-0.47,0.2-0.94,0.39-1.41,0.59
		c-0.35,6.33-6.25,11.17-4.33,18.35c0.29,1.08-3.37,3.54-5.51,4.85c-2.26,1.39-5.08,1.88-7.33,3.27c-3.27,2.03-6.31,2.95-8.43,1.26
		c0.59-3.72,1.06-6.69,1.51-9.54c-3.67,1.61-6.35,2.8-8.12,3.58c-1.7,2.22-2.9,4.2-4.49,5.77c-3.19,3.15-6.6,6.08-11.16,10.22
		c-0.64-3.82-1.19-6.63-1.57-9.46c-0.26-1.94-0.04-3.96-0.42-5.87c-2.88-14.68-2.48-28.71,6.45-41.66
		c3.32-4.82,5.62-10.35,8.38-15.56c-0.61-0.34-1.21-0.68-1.82-1.03c-2.05,3.59-4.28,7.09-6.09,10.8c-1.81,3.69-3.34,6.93-8.54,4.46
		c-0.94-0.45-3.12,1.72-3.78,2.11c-4.78-4.17-10-8.07-14.35-12.77c-2.1-2.28-3.31-5.98-3.62-9.17c-0.42-4.24,0.5-8.6,0.69-12.91
		c0.1-2.38,0.08-4.95-3.52-4.54c-3.71,0.43-3.97-1.99-4.08-4.71c-0.28-7.29-0.63-14.58-0.98-22.47c-3.87,0-7.32-0.06-10.77,0.01
		c-15.16,0.29-30.33,0.92-45.49,0.79c-7.67-0.07-15.31-2.03-22.98-2.21c-37.32-0.88-74.65-2.13-111.97-1.75
		c-12.64,0.13-25.27-2.27-38.23-0.12c-0.1,4.86-3.42,5.43-7.82,4.92c-0.32-1.57-0.67-3.27-1.17-5.7
		c-10.25-0.52-20.69-1.13-31.13-1.55c-25.81-1.04-51.62-1.99-77.43-3c-5.73-0.22-8.48-3.98-6.98-9.58
		c12.62-47.08,25.29-94.15,37.83-141.26c1.26-4.75,3.46-6.71,8.71-6.51c72.27,2.75,144.55,5.33,216.83,7.88
		c33.31,1.18,66.63,2.08,99.93,3.41c5.49,0.22,9.2-1.82,12.53-5.66c1.17-1.35,2.49-3.16,4.02-3.52c5.73-1.32,8.34-5.03,10.28-10.29
		c2.4-6.52,5.1-7.31,12.41-7.22c2.43,0.03,5.69-1.44,7.21-3.33c5.63-7,14.11-8.49,21.56-11.9c1.46-0.67,3.8,0.52,5.73,0.9
		c3.92,0.78,7.84,1.59,12.74,2.59c0.32,2.22,0.84,5.86,1.44,10.04c-3.18,0.14-5.72,0.25-9.79,0.43c2.49,1.66,3.69,3.05,5.08,3.29
		c5.62,0.95,7.04,5.35,8.55,9.74c1.35,3.93,2.63,7.88,3.94,11.83c-0.47,0.21-0.94,0.42-1.41,0.63c-1.87-2.51-3.75-5.02-5.79-7.76
		c-1.22,6.44-1.22,6.44,12.12,14.7c-1.46,0.7-2.72,1.31-4.53,2.18c1.2,1.14,2.13,2.68,3.42,3.1c2.18,0.7,4.79,0.23,6.84,1.13
		c1.65,0.73,2.74,2.74,5.2,5.41c-0.14-7.1-0.09-13,6.31-13.94c2.24,2.41,4.11,4.42,5.98,6.43c0.29-0.23,0.59-0.47,0.88-0.7
		c0.14,2.07,0.29,4.15,0.39,5.6c-1.63,1.79-3.02,3.26-4.35,4.8c-1.9,2.19-3.55,4.32-7.14,2.54c-0.91-0.45-3.04,1.33-4.51,2.25
		c-2.37,1.49-4.45,3.73-7.01,4.57c-5.98,1.98-12.12,3.5-18.27,4.88c-6.01,1.35-8.13,5.84-10.41,12.31c2.71-1.85,4.34-2.96,6.28-4.28
		c0.96,1.48,1.9,2.94,3.31,5.12c-4.65,2.43-9.17,4.52-13.34,7.16c-0.88,0.56-1.01,3.28-0.54,4.7c0.47,1.44,2.11,2.49,3.2,3.67
		c-2.63,1.54-2.63,1.54-7.33-3.46c-4.12,1.5-5.89,3.98-4.44,8.66c1.01,3.26,1.33,6.73,2.09,10.77c-2.74-1.95-4.91-3.5-7.09-5.06
		c-0.32,0.35-0.64,0.69-0.96,1.04c0.46,1.28,0.92,2.55,1.55,4.28c-2.78-0.93-5.21-1.73-7.63-2.54c-0.17,0.5-0.35,0.99-0.52,1.49
		c1.64,1.42,3.29,2.83,5.18,4.47c-2.94,1.71-6.67,2.2-4.66,6.57C414.03,133.7,416.65,132.87,420.24,130.47z"/>
	<path d="M446.17,341.58c11.21,2.98,15.83-3.37,21.21-11.25c4.04-5.91,10.62-11.38,19.56-12.12c-0.18,1.56-0.34,2.91-0.67,5.72
		c2.19-2.52,3.58-4.11,4.93-5.66c5.51,3.31,5.42,5.03-1.12,10.95c3.57,1.03,6.58,1.91,10.07,2.92c0.45,3.19,0.95,6.72,1.67,11.75
		c-6.27,0-11.85,0.14-17.42-0.03c-9.42-0.3-18.21,0.98-25.32,8.09c-0.74,0.74-3.68,0.44-4.67-0.43c-2.9-2.56-5.34-5.65-7.95-8.53
		C446.36,342.53,446.26,342.05,446.17,341.58z"/>
	<path d="M547.92,360.18c7.46-1.72,14.5-4.78,22.01-1.83c3.83,1.5,12.31-5.41,13.95-11.87c-1.89,1.45-3.27,2.23-4.27,3.35
		c-1.09,1.22-1.83,2.76-3.6,3.56c1.85-6.4,7.08-11.69,2.25-19.03c0.59-0.09,1.18-0.18,1.77-0.27c0.85,0.77,2.09,1.37,2.5,2.32
		c2.96,6.82,5.97,13.64,8.52,20.61c2.2,6.02-1.49,11-8.79,10.75c-7.36-0.25-14.73-1.72-21.98-3.22
		C556.04,363.68,552.03,361.68,547.92,360.18z"/>
	<path d="M511.34,328.7c0,4.72,0,9.44,0,14.4c-4.35,0.3-7.49-2.84-7.32-5.38c0.22-3.36,3.23-6.54,5.04-9.79
		C509.82,328.18,510.58,328.44,511.34,328.7z"/>
	<path d="M583.26,300.98c3.04-8.17,5.73-15.38,8.45-22.68C593.9,281.48,588.11,298.27,583.26,300.98z"/>
</g>
</svg>
