<?xml version="1.0" encoding="utf-8"?>
<!-- Generator: Adobe Illustrator 23.0.3, SVG Export Plug-In . SVG Version: 6.00 Build 0)  -->
<svg version="1.1" id="Layer_1" xmlns="http://www.w3.org/2000/svg" xmlns:xlink="http://www.w3.org/1999/xlink" x="0px" y="0px"
	 viewBox="0 0 537.21 524.45" style="enable-background:new 0 0 537.21 524.45;" xml:space="preserve">
<g>
	<path d="M510.99,455.77c-3.92,1.4-6.24,4.08-4.95,9.49c0.85,3.56-1.25,6.71-5.02,7.39c-9.77,1.76-13.46,8.64-15.45,17.25
		c-1.27,5.49-0.66,11.65-5.59,15.85c-2.93,2.49-6.28,4.64-8.7,7.56c-2.25,2.71-3.5,6.25-5.2,9.45c-28.55,0.56-57.83,1.14-87.36,1.72
		c-0.34-1.75-0.64-3.31-1.01-5.22c-44.42,0-88.67,0-132.97,0c0.09-0.68,0.03-1.15,0.17-1.23c11.18-6,15.03-17.31,20.95-27.46
		c6.56-11.24,13.26-22.23,15.64-35.11c3.25-17.62,4.56-35.3-3-52.32c-2.15-4.85-5.21-9.3-7.34-14.16
		c-2.96-6.78-5.94-13.63-7.87-20.73c-0.7-2.6,0.82-6.65,2.7-8.9c3.24-3.88,4.36-7.71,2.94-12.39c-1.32-4.35-2.93-8.63-4.01-13.04
		c-0.34-1.37,0.16-3.48,1.09-4.54c7.88-8.94,15.16-18.05,16.91-30.49c0.79-5.58,2.38-10.78-0.2-16.5c-1.54-3.41,2.49-4.19,4.83-4.97
		c8.58-2.84,8.59-2.75,7.97-11.73c-0.08-1.1,0.13-2.22,0.25-3.92c5.1,2.82,7.57-0.07,9.62-4.22c1.21,0.66,2.17,1.17,3.13,1.7
		c2.95,1.61,4.84,0.76,6.39-2.21c2.6-4.97,5.14-10.07,8.49-14.52c1.5-2,4.91-2.57,7.45-3.79c0.37,0.42,0.73,0.84,1.1,1.26
		c-1.83,1.8-3.66,3.6-6.09,5.98c0.53,1.22,1.36,3.11,2.26,5.16c-1.47,1.66-3.03,3.43-4.6,5.2c0.59,0,1.18,0.01,1.77,0.01
		c0.5,1.8,2.02,4.32,1.34,5.27c-3.17,4.44-1.68,8.76-0.64,13.92c1.29-0.99,2.21-1.69,3.18-2.43c0.47,0.62,1.2,1.58,2.04,2.69
		c6.66-7.23,12.14-14.56,11.91-24.56c-0.08-3.78,0.05-7.7-0.93-11.28c-1.26-4.59,0.44-6.3,4.06-9.03
		c6.49-4.89,13.65-2.49,20.38-3.88c1.58-0.33,3.05-1.13,4.58-1.71c-0.06-0.45-0.13-0.89-0.19-1.34c-1-0.22-1.99-0.6-2.99-0.65
		c-6.16-0.3-9.16-2.56-10.49-7.99c-1.2-4.93,0.57-8.17,5.59-11.29c1.73-1.07,2.94-2.97,4.54-4.65c-1.01-1.35-1.86-2.49-2.71-3.64
		c0.24-0.23,0.42-0.55,0.65-0.59c4.58-0.7,9.44,2.49,13.87-1.02c0.38-0.3,1.59,0.19,2.27,0.56c4.76,2.62,9.35,5.57,14.26,7.85
		c2.42,1.13,5.41,1.56,8.11,1.44c9.1-0.4,13.94,2.4,18.39,10.51c0.79,1.44,3.35,2.77,5.04,2.7c5.35-0.2,9.77,1.08,13.35,5.26
		c0.89,1.04,2.5,1.58,3.89,2.05c3.14,1.04,6.39,1.77,9.52,2.85c6.18,2.12,12.31,4.39,19.34,6.92c-4.44,4.32-1.87,7.47-0.04,9.9
		c2.15,2.85,4.37,5.19,3.24,9.13c-0.17,0.59,0.97,1.56,2.12,3.28c-2.22-1.23-3.9-1.83-5.14-2.92c-3.04-2.69-4.8-0.93-5.98,1.7
		c-1.82,4.11-0.24,9.63,3.87,11.52c3,1.38,4.42,3.48,4.6,6.17c0.35,5.44,2.96,10.65,0.13,16.49c-2,4.15-2.68,9.28-2.66,13.97
		c0.02,5.72-1.03,10.48-5.77,14.01c-0.62,0.46-1.23,1.33-1.84,1.32c-7.54-0.09-6.88,6.08-7.6,10.56c-0.61,3.79-0.22,7.08-5.18,8.54
		c-2.43,0.72-3.31,4.48-6.99,5.22c-9.65,1.92-9.56,2.26-10.88,12.81c-0.29,2.33-1.68,4.79-1.21,6.89c0.82,3.71,3.46,6.36,7.46,7.18
		c1.14,0.24,2.58,0.12,3.37,0.78c6.14,5.21,9.74,1.04,13.87-3.15c2.47-2.51,6.37-3.63,8.8-6.17c3.39-3.54,5.98-7.83,8.94-11.78
		c2.69-3.59,5.29-6.84,10.7-6.69c3.46,0.1,6.4-2.1,9.31-4.63c4.36-3.8,16.12-0.78,19.64,4.6c4.86,7.43,9.81,14.72,9.54,24.48
		c-0.14,5.11,2.22,10.26,3.23,15.44c0.66,3.4,1.09,6.87,1.36,10.33c0.66,8.58,0.94,17.17,5.97,24.77c0.97,1.47,0.77,4.09,0.37,6.03
		c-0.82,3.99-2.31,7.84-3.21,11.82c-0.94,4.15-1.37,8.42-2.31,12.57c-0.86,3.75-4.12,4.37-6.97,1.5c-3.87-3.9-10.95-3.83-13.69,0.48
		C509.97,451.56,510.83,453.72,510.99,455.77z"/>
	<path d="M412.52,159.26c1.48,2.91,2.65,4.36,6.51,3.28c2.86-0.8,6.47,1.1,10.07,1.87c-3.24,3.92-0.76,8.64,4.21,9.7
		c1.78,0.38,3.47,1.2,5.2,1.82c-0.09,0.63-0.18,1.25-0.27,1.88c-2,0.4-4.03,1.24-6,1.12c-5.64-0.35-11.26-1.1-16.89-1.68
		c-4.88-0.5-9.84-3.53-14.56,0.49c-0.87-1.82-4.4,2.1-4.57-2.18c-0.03-0.71-3.74-1.27-6.57-2.15c0.11,2.26,0.19,3.87,0.3,5.91
		c-4.08,1.59-2.62,5.31-1.74,9.38c-1.45-0.18-2.96,0.08-3.85-0.54c-4.3-2.99-8.29-6.44-12.67-9.29c-3.63-2.36-7.47-4.71-11.55-6
		c-6.45-2.03-13.16-3.27-19.8-4.63c-5.43-1.11-9.63,1.08-12.72,5.54c-2.93,4.23-6.41,6.18-11.9,4.64c-2.63-0.74-6.42-0.41-8.59,1.06
		c-2.61,1.77-4.45,0.43-6.69,0.51c-6.13,0.2-12.6,0.11-18.2,2.15c-3.04,1.11-4.58,6.33-7.53,10.82
		c-6.51,1.63-12.96,6.15-16.98,14.87c-1.8-1.19-3.56-2.34-5.19-3.42c3.93-3.57,7.3-6.62,10.65-9.67c0.56-1.24,1.37-2.84,2-4.51
		c0.4-1.05,0.53-2.19,0.78-3.3c-1.26-0.15-2.57-0.59-3.77-0.38c-1.22,0.22-2.3,1.46-3.51,1.56c-2.83,0.24-5.7,0.08-8.9,0.08
		c-0.65,7.64-5.71,11.84-14.55,12.67c-0.67-5.81-4.41-11.65,1.09-17.88c-0.47-0.09-0.94-0.18-1.41-0.27
		c-0.7,0.51-1.83,0.89-2.03,1.55c-1.38,4.47-6.14,7.51-5.13,13.16c0.22,1.23-2.39,3.62-4.17,4.43c-8.14,3.7-10.7,11.75-14.97,18.46
		c-4.15,6.52-7.81,13.37-12.29,19.65c-2.03,2.85-5.53,4.65-8.63,7.14c-0.97-0.86-3.04-2.7-5.5-4.89c1.62-2.96,3.6-5.77,4.68-8.89
		c0.59-1.72-0.02-4.09-0.79-5.87c-0.2-0.46-3.02,0.13-4.62,0.36c-2.77,0.41-5.52,0.91-8.28,1.37c-0.36-0.51-0.72-1.01-1.08-1.52
		c1.82-3.48,3.65-6.96,5.28-10.08c0-2.58-0.31-5.06,0.06-7.44c1.01-6.54-3.26-12.98-9.43-15.12c-3.16-1.1-5.74-3.57-9.57-2.18
		c-0.67,0.24-2.12-1.66-3.15-2.53c2.78-4.54,1.51-8.76-3.41-9.92c-5.74-1.36-11.72-1.66-17.57-2.6c-1.89-0.31-3.88-0.88-5.49-1.87
		c-3.22-1.97-6.25-1.43-9.4-0.08c-0.55,0.24-1.2,0.66-1.69,0.54c-5.82-1.49-12.27-1.96-17.3-4.86
		c-10.65-6.14-22.33-8.22-33.91-10.96c-15.52-3.68-31.04-7.34-46.82-11.08C17.96,138.86,13.09,131.03,0,131.6
		c0.11-0.66,0.22-1.32,0.33-1.97c4.44-1.6,8.87-3.2,13.83-4.99c0,1.83,0,3.14,0,4.4c7.22,0.84,11.66-3.93,16.1-7.92
		c5.52-4.96,11.42-5.33,18.56-5.83c10.64-0.75,22.67-1.39,29.94-11.29c3.37-4.59,7.86-1.92,11.4-3.85c1.68-0.91,4.34-0.97,5.2-2.3
		c5.72-8.83,14.57-13.29,23.53-17.68c0.58-0.29,1.42-0.27,1.81-0.7c6.36-6.91,14.58-10.87,22.98-14.54c0.6-0.26,1.11-0.82,1.73-0.93
		c9.78-1.78,19.55-4.35,29.53-1.68c1.65,0.44,2.96,2.13,4.43,3.24c-0.23,0.56-0.45,1.13-0.68,1.69c-5.44,0.4-10.87,0.8-16.8,1.23
		c0.7,1.54,1.2,2.63,1.68,3.69c-6.02,3.68-11.96,7.28-17.86,10.95c-0.5,0.31-1.07,1.01-1.08,1.54c-0.1,4.71-4.99,6.05-6.62,9.36
		c-2.97,6-9.82,9.66-10.25,17.04c-0.13,2.29,0.31,4.61,0.46,6.55c5.18-4.38,10.54-8.91,15.91-13.44c0.3,0.35,0.59,0.7,0.89,1.04
		c-1.48,2.47-2.96,4.93-4.44,7.4c0.21,0.21,0.42,0.41,0.63,0.62c0.97-1.07,2.09-2.04,2.88-3.23c2.98-4.51,7.33-4.83,12.11-4.29
		c5.07,0.57,10.27,0.47,15.21,1.58c3.2,0.72,5.9,3.44,9.06,4.61c3.76,1.39,5.2,3.89,6.97,7.42c2.15,4.3,6.8,7.34,10.3,11
		c1.08,1.13,2.54,2.39,2.77,3.76c0.68,4,3.25,5.45,6.7,5.14c5.51-0.5,10.97-1.68,16.48-2.26c1.64-0.17,3.67,0.26,5.04,1.16
		c2.18,1.44,3.8,3.72,5.97,5.18c0.94,0.64,3.38,0.69,3.91,0.03c2.65-3.31,4.67-2.79,7.21,0.13c0.95,1.1,2.84,1.39,3.59,1
		c5.72-3.3,11.41-6.65,17.17-9.88c4.78-2.67,9.65-5.19,14.49-7.76c1.14-0.61,2.26-1.49,3.48-1.67c5.07-0.72,10.16-1.6,15.25-1.7
		c6.94-0.13,13.9,0.78,20.82,0.54c4.84-0.16,9.95-0.7,14.39-2.46c7.26-2.89,14.07-6.69,22.36-4.97c1.79,0.37,3.84-0.49,4.72-0.62
		c-1.19,6.22-2.67,12.53-3.39,18.91c-0.13,1.16,2.65,3.3,4.44,3.88c3.31,1.07,6.88,1.45,10.37,1.84c1.89,0.21,4.04,0.32,5.73-0.38
		c7.58-3.1,7.96-3.09,12.48,4.07c4.4-2.37,8.85-4.75,13.28-7.16c2.75-1.5,4.92-0.83,6.14,1.95c1.63,3.73,2.98,7.59,4.44,11.39
		c0.57,1.47,1.12,2.95,1.93,5.06C416.2,156.51,414.57,157.73,412.52,159.26z"/>
	<path d="M129.51,2.02c-1.9,1.76-3.98,3.36-5.63,5.32c-1.07,1.28-1.1,3.9-2.31,4.5c-3.46,1.73-7.26,2.77-10.95,4.03
		c-5.03,1.72-10.08,3.4-15.12,5.1c0.08,0.49,0.16,0.99,0.24,1.48c0.66,0.34,1.33,0.67,1.99,1.01c-0.83,2.37-13.86,4.1-16.54,2.33
		c1.05-8.28,8.26-9.28,14.06-11.74c4.2-1.78,8.8-2.64,13-4.42c2.88-1.22,5.26-3.62,8.11-4.96c3.89-1.83,8.01-3.15,12.03-4.69
		C128.76,0.67,129.13,1.35,129.51,2.02z"/>
	<path d="M453.41,167.19c2.57,1.16,5.5,1.89,7.63,3.6c2.32,1.86,3.9,4.64,6.19,7.5c-0.42,4.96-5.33,4.65-8.14,3.37
		c-3.03-1.38-5.53-0.5-8.22-0.85c-3.75-0.49-7.34-2.16-11.43-3.47c0.94-1.25,1.51-2.01,2.08-2.77c4.22,3.18,6.62-2.27,10.34-2.21
		c3.14,0.05,3.19-0.66,0.89-3.62C452.97,168.22,453.19,167.7,453.41,167.19z"/>
	<path d="M327.07,195.81c3.5,2.56,5.94,10.46,4.01,12.57c-2.16,2.36-4.66,5.54-8.97,1.43C323.66,205.46,325.3,200.81,327.07,195.81z
		"/>
	<path d="M413.16,136.54c3.44-1.38,6.69-2.69,9.93-3.99c0.63,0.33,1.25,0.66,1.88,0.99c-6.41,6.14-4.84,11.44,0.21,16.69
		C418.47,148.71,417.41,142.03,413.16,136.54z"/>
	<path d="M393.02,190.85c5.45,1.36,9.76,2.44,14.13,3.52C403.93,200.7,402.94,200.48,393.02,190.85z"/>
	<path d="M336.42,256.88c-1.56,4.91-2.83,8.9-4.09,12.9c-0.56-0.21-1.13-0.41-1.69-0.62C333.02,265.49,327.91,259.01,336.42,256.88z
		"/>
	<path d="M296.6,253.25c-1.22-2.19-2.45-4.38-3.67-6.56c1.52-0.37,3.04-0.74,4.55-1.11c0.53,2.28,1.06,4.56,1.6,6.83
		C298.25,252.69,297.42,252.97,296.6,253.25z"/>
	<path d="M252.03,138.77c-0.68-2.07-1.35-4.12-2.09-6.41c5.84-2.41,5.16,2.31,5.81,5.5C254.65,138.13,253.34,138.45,252.03,138.77z"
		/>
</g>
</svg>
