<?xml version="1.0" encoding="utf-8"?>
<!-- Generator: Adobe Illustrator 23.0.3, SVG Export Plug-In . SVG Version: 6.00 Build 0)  -->
<svg version="1.1" id="Layer_1" xmlns="http://www.w3.org/2000/svg" xmlns:xlink="http://www.w3.org/1999/xlink" x="0px" y="0px"
	 viewBox="0 0 484.59 538.57" style="enable-background:new 0 0 484.59 538.57;" xml:space="preserve">
<g>
	<path d="M49.77,538.57c0-2.54,0-4.53,0-6.52c-0.03-49.49-0.06-98.98-0.08-148.47c0-8.41-2.48-11.21-10.64-12.52
		c-1.61-0.26-3.66-1.01-4.52-2.23c-4.12-5.83-7.89-11.9-11.56-17.53c5.68-5.04,11.2-9.73,16.43-14.73c1.27-1.22,2.05-3.41,2.23-5.23
		c0.56-5.46,1.15-10.98,0.94-16.45c-0.32-8.77-1.25-17.52-1.98-26.27c-0.06-0.77-0.49-1.58-0.94-2.24
		c-7.95-11.66-10.53-24.64-11.05-38.6c-0.94-25.28-2.82-50.52-4.4-75.78c-0.13-2.12-0.92-4.22-1.58-6.27
		c-2.83-8.7-5.02-17.69-8.73-26c-8.95-20.06-7.15-41.36-8.34-62.35c-0.03-0.49-0.13-1.14,0.12-1.47c5.22-6.89,1.1-13.43-0.66-20.07
		c-1.7-6.42-3.27-12.87-5-19.69c40.96,0,81.53,0,122.52,0c-2.37,4.22-0.73,7.45,2.99,9.76c2.93,1.82,5.9,2.02,8.31-1.05
		c1.03-1.31,1.85-2.8,3-4c2.82-2.96,7.08-2.79,9.03,0.73c2.72,4.9,6.55,7.67,12.07,8.44c1.07,0.15,2.55,1.17,2.89,2.12
		c3.15,8.89,8.02,12.49,17.33,12.49c2.33,0,4.67-0.01,7,0.01c0.83,0.01,2.14-0.18,2.41,0.25c5.15,8.05,13.75,4.11,20.64,5.61
		c4.69,1.02,7.71,2.07,8.52,6.95c0.66,3.98,2.78,5.01,6.7,3.9c3.17-0.9,6.57-0.99,9.87-1.43c2.69-0.36,5.83,0.06,5.88-4.23
		c0.01-0.68,1.64-1.45,2.63-1.99c8.87-4.84,18.48-4.23,27.79-2.57c4.03,0.72,7.41,4.59,11.33,6.52c2.42,1.2,5.31,1.41,7.97,2.14
		c0.98,0.27,1.89,0.78,2.84,1.18c-0.54,0.86-1.05,1.73-1.63,2.56c-0.86,1.25-1.76,2.47-2.65,3.7c1.7,0.69,3.36,1.7,5.13,1.97
		c1.76,0.27,3.83-0.76,5.41-0.21c1.76,0.62,4.61,2.7,4.42,3.6c-1.55,7.21,4.46,11.39,5.8,17.69c2.28-0.82,3.95-1.43,5.37-1.94
		c0.3-0.62,0.63-0.97,0.56-1.19c-1.22-3.66-2.98-7.62,1.92-9.82c4.79-2.15,12.43,0.05,13.95,4.32c2.4,6.72,7.38,8.76,13.69,9.41
		c1.8,0.19,3.55,0.82,5.78,1.36c0.16,2.34,0.33,4.77,0.53,7.67c2.92,0.34,5.84,0.68,9.1,1.06c0,1.48,0,2.99,0,5.01
		c9.21-1.52,18.08-0.85,25.69-8.07c5.07-4.8,12.72-6.87,18.94-10.03c1.97,4.35,3.54,8.22,5.5,11.87c0.54,1,2.74,2.23,3.36,1.88
		c5.43-3.02,10.62,0.25,15.89,0.23c4.97-0.01,9.98-0.08,14.88-0.77c4.21-0.6,7.8-0.44,11.02,2.71c1.77,1.73,4.08,2.91,5.93,4.57
		c3.21,2.89,6.03,3.81,10.65,1.92c3.78-1.54,8.69-0.31,13.1-0.31c0.18,0.64,0.36,1.28,0.53,1.93c-6.54,3.76-13.18,7.35-19.58,11.33
		c-14.89,9.25-32.74,11.34-47.87,19.96c-13.19,7.51-23.82,18.01-34.13,28.98c-10.01,10.64-20.38,20.96-30.83,31.17
		c-3.91,3.83-8.35,7.17-12.81,10.37c-6.99,5.02-12.72,11.07-17.43,18.3c-1.65,2.53-4.72,4.12-7.14,6.14
		c-0.54-0.36-1.08-0.73-1.61-1.09c0,8.29,0.02,16.59-0.01,24.88c-0.03,7.33-0.13,14.66-0.17,22c-0.03,5.28-1.32,9.08-7.17,11.34
		c-6.25,2.41-11.94,6.39-17.58,10.14c-1.66,1.1-2.68,3.61-3.32,5.69c-1.23,3.99-2.9,7.05-6.3,10.09c-2.59,2.32-2.38,8.07-2.7,12.35
		c-0.06,0.81,3.15,2.48,4.99,2.71c5.84,0.75,5.64,7.06,9.28,9.95c1.02,0.81-0.49,6.51-2.3,8.85c-6.03,7.83-5.2,17.31-7.21,26.08
		c-0.15,0.65,0.29,1.87,0.81,2.16c3.93,2.13,2.94,5.3,2.21,8.63c-0.89,4.06-1.87,8.16-2.06,12.28c-0.11,2.38,0.57,5.41,2.06,7.15
		c4.13,4.82,8.61,9.44,13.52,13.43c1.71,1.39,5.11,0.98,7.72,0.92c3.15-0.06,5.08,1.12,7,3.68c1.9,2.53,4.6,4.63,7.31,6.34
		c3.51,2.2,7.56,3.54,11.03,5.79c2.54,1.65,6.22,3.99,6.48,6.33c1.36,12.54,14.19,15.3,19.69,24.16c0.64,1.02,2.56,1.62,3.94,1.74
		c5.58,0.5,9,3.54,11.21,8.5c1.01,2.26,2.33,4.45,3.85,6.41c3.59,4.63,4.41,9.48,3.37,15.35c-0.8,4.5,0.32,9.34,0.6,14.35
		C270.32,538.57,160.34,538.57,49.77,538.57z"/>
	<path d="M132.51,0c3.04,0.42,5.49,0.54,7.81,1.14c2.64,0.68,5.05,1.81,4.58,5.37c-0.17,1.3,0.06,2.66,0.12,3.99
		c0.23,5.06-2.58,8.53-7.52,8.64c-2.33,0.05-5.26-0.07-5.24-3.78c0.02-4.16-0.02-8.32,0-12.48C132.26,1.9,132.42,0.93,132.51,0z"/>
</g>
</svg>
