<?xml version="1.0" encoding="utf-8"?>
<!-- Generator: Adobe Illustrator 23.0.3, SVG Export Plug-In . SVG Version: 6.00 Build 0)  -->
<svg version="1.1" id="Layer_1" xmlns="http://www.w3.org/2000/svg" xmlns:xlink="http://www.w3.org/1999/xlink" x="0px" y="0px"
	 viewBox="0 0 301.69 538.19" style="enable-background:new 0 0 301.69 538.19;" xml:space="preserve">
<g>
	<path d="M0,444.05c0-4.18,0-7.37,0-10.77c8.11-2.21,9.96-3.84,10.2-9.76c-1.55-0.38-3.14-0.79-4.74-1.15
		c-1.42-0.32-2.85-0.58-4.64-0.94c0.41-1.78,0.72-3.15,1.07-4.66c3.44,0.56,6.58,1.07,10.9,1.78c-1.83-3.73-3.11-6.38-4.43-9.01
		c-1.77-3.53-1.39-6.57,2.34-8.43c5.4-2.68,6.93-7.25,6.85-12.8c-0.05-3.28-0.01-6.57-0.01-9.7c4.27-0.66,7.69-1.2,11.11-1.73
		c-0.07-0.59-0.14-1.17-0.21-1.76c-2.88,0.38-5.77,0.77-9.12,1.22c-0.07-4.93,0.71-8.82,4.43-10.79c1.86,1.42,3.28,2.51,5.2,3.98
		c0.44-11.14,7.83-17.18,14.31-24.19c-3.47-2.45-6.83-4.81-10.19-7.18c0.25-0.4,0.49-0.79,0.74-1.19c1.67,0.83,3.33,1.66,4.51,2.24
		c1.61-1.18,2.89-2.75,4.46-3.13c3.36-0.82,7.45-1.5,6.83-5.55c-0.31-2.04-4.31-3.52-7.73-6.07c0,3.2,0,4.56,0,6.07
		c-1.73,0-3.14,0.01-4.55,0c-1.47-0.01-2.95-0.03-4.42-0.05c0.08-1.76-0.3-3.71,0.33-5.25c2.08-5.11,7.62-6.78,15.47-4.58
		c-0.85-2.34-1.74-4.26-2.19-6.28c-0.21-0.96,0.11-2.68,0.75-3.03c0.94-0.52,2.48-0.42,3.6-0.06c2,0.66,4.77,2.97,5.64,2.35
		c2.77-1.95,2.35-4.96,0.48-7.77c-0.34-0.52,0.11-1.56,0.2-2.39c-10.2-0.18-10.85-0.83-7.49-8.53c-1.67,0-3.09-0.33-4.27,0.06
		c-3.07,1.02-6.24,0.86-7.24-2.22c-0.86-2.65-0.37-5.99,0.37-8.81c0.66-2.52,2.47-4.74,3.77-7.09c-0.51-0.32-1.02-0.64-1.52-0.96
		c-1.55,1.31-3.11,2.62-4.78,4.02c-1.17-1.27-2.17-2.36-3.45-3.75c3.99-2.77,9.43-5.09,7.44-11.14c-0.64-1.94-4.09-2.95-7.33-5.1
		c0.62-1.11,1.55-3.38,3.01-5.25c4.67-6.01,4.92-10.91,0.6-14.95c-1.03-0.96-1.78-2.21-2.83-3.54c-3.3,0.7-4.97,2.72-4.99,6.56
		c-0.01,1.48-1.24,3.14-2.33,4.34c-0.35,0.38-2.92-0.37-2.95-0.73c-0.14-1.61-0.26-3.66,0.59-4.84c2.8-3.85,6.03-7.39,9.71-11.77
		c-3.59-2.22-7.58-4.68-11.57-7.14c0.02-0.45,0.04-0.91,0.06-1.36c5.26-0.37,12.07,1.65,13.13-5.98c0.84-6.04-3.14-10.2-7.29-13.82
		c1.41-2.99,3.01-5.73,4.01-8.67c1.35-3.99,1.23-8.03-2.24-11.04c-4.2-3.65-4.11-7.61-1.47-12.02c0.85-1.42,1.55-2.94,2.28-4.44
		c1.88-3.85,1.95-6.91-3.6-7.33c0.75-6.94,9.17-2.97,10.7-8.8c-3.45-5.86-2.82-12.7-1.07-19.54c0.98-3.81,3.11-6.31,7.55-6.81
		c1.86-0.21,4.55-2.13,4.95-3.75c0.46-1.9-1.01-4.37-1.92-6.47c-0.81-1.88-1.98-3.6-3.36-6.07c6.91,0.7,7.59-0.01,7.83-5.93
		c0.14-3.51,0.55-7.01,0.86-10.82c1.7,0.37,2.41,0.35,2.95,0.66c6.43,3.64,8.54,3.2,12.9-2.94c4.24-5.96,6.17-12.36,6.72-19.91
		c0.4-5.54,2.09-10.18-1.96-15.24c-1.33-1.66,0.28-5.67,0.58-8.97c6.62,0.23,9.83-3.37,11.12-9.54c0.3-1.44,2.29-2.73,3.76-3.66
		c1.81-1.14,3.88-1.88,5.88-2.7c3.43-1.4,6.77-3.4,6.22-7.42c-0.38-2.76-2.65-5.27-4.11-7.96c6.4-0.48,14.04-1.12,21.69-1.63
		c37.07-2.48,74.14-4.93,111.2-7.4c15.79-1.05,31.58-2.17,47.38-3.08c1.47-0.08,3.35,0.75,4.44,1.79c2.61,2.49,5.07,5.21,7.15,8.14
		c0.91,1.29,1.07,3.35,1.03,5.04c-0.68,25.15-1.55,50.3-2.17,75.45c-1.29,52.81-2.49,105.62-3.67,158.43
		c-0.59,26.32-1.66,52.65-1.38,78.97c0.18,16.75,2,33.52,3.88,50.2c3.89,34.58,8.32,69.1,12.5,103.65
		c1.14,9.44,2.18,18.89,3.25,28.17c-8.78,4.58-13.46,4.02-17.87-1.23c-3.27,1.33-6.13,3.1-9.19,3.59c-3.4,0.55-6.44-0.65-9-3.71
		c-3.09-3.68-12.91-4.15-18.34-0.95c4.78,0,8.52,0,12.25,0c0,0.27,0,0.53,0.01,0.8c-13.21,3.97-26.42,7.94-39.76,11.95
		c0-1.77,0-3.84,0-6.91c-3.41,1.17-6.03,2.06-9.5,3.25c5.34,2.57,5.75,4.72,1.82,7.32c-4.32,2.86-7.65,5.93-6.57,11.18
		c-3.86,1.09-7.13,2.02-10.81,3.06c-1.68-1.97-3.88-4.2-5.63-6.73c-1.2-1.73-2.52-3.89-2.5-5.84c0.09-9.67-3.89-17.02-11.49-22.79
		c-4.62-3.51-6.43-8.25-8.05-14.06c-1.21-4.34-2.16-8.25-1.44-12.47c0.52-3.06,2.14-5.91,2.97-8.94c1.65-6.08,3.09-12.22,4.89-19.42
		c-57.92,3.18-114.97,6.31-172.32,9.46C4.85,450.72,4.6,449.21,0,444.05z"/>
</g>
</svg>
