<?xml version="1.0" encoding="utf-8"?>
<!-- Generator: Adobe Illustrator 23.0.3, SVG Export Plug-In . SVG Version: 6.00 Build 0)  -->
<svg version="1.1" id="Layer_1" xmlns="http://www.w3.org/2000/svg" xmlns:xlink="http://www.w3.org/1999/xlink" x="0px" y="0px"
	 viewBox="0 0 528.39 469.82" style="enable-background:new 0 0 528.39 469.82;" xml:space="preserve">
<g>
	<path d="M88.97,420c0-90.92,0-181.15,0-272.06c-3.04-0.92-6.49-1.97-9.94-3.02c-8.32-2.54-11.51-6.74-12.53-15.31
		c-0.27-2.23-1.81-4.56-3.34-6.35c-4.28-5.02-8.86-9.79-12.98-14.29c4.13-6.26,7.72-11.7,11.57-17.54c5.62-0.23,7.31-1.66,6.48-6.02
		c-2.11,0-4.2,0-6.3,0c-0.09-0.43-0.17-0.85-0.26-1.28c1.54-0.56,3.08-1.13,4.94-1.81c0.73-4.47-1.2-8.27-4.03-11.59
		c-2.24-2.63-5.22-3.11-7.89-0.57c-3.08,2.94-5.04,2.79-8.07-0.62c-3.99-4.49-8.86-8.27-13.69-11.9c-4.55-3.42-6.58-8.05-8.51-13.13
		c-1.92-5.07-3.55-11.38-7.44-14.3c-5.45-4.09-6.33-9.25-8.1-14.71c-1.07-3.3-3.16-6.28-4.9-9.35C2.99,4.36,1.77,2.7,0,0
		c2.94,0,4.84,0,6.74,0c98.98,0,197.96,0,296.93,0c3.94,0,7.37-0.42,9.46,4.88c1.51,3.82,6.29,6.28,9.34,9.6
		c2.83,3.09,5.38,6.46,7.85,9.85c0.38,0.52-0.3,1.83-0.53,2.76c-2.73,10.68-3.39,21.23,0.52,31.92c1.55,4.25,1.59,9.04,2.35,13.59
		c0.19,1.11,0.15,2.68,0.85,3.23c3.89,3.04,4.86,7.21,5.65,11.76c0.33,1.91,2.01,3.82,3.53,5.25c5.09,4.8,10.99,8.87,15.44,14.18
		c6.77,8.06,15.04,14.16,23.07,20.73c9.3,7.61,10.68,19.08,12.43,30.19c0.63,4.03,1.95,8.04,3.55,11.8
		c1.29,3.02,4.01,3.95,6.11,0.74c4.73-7.23,11.22-7.11,18.03-4.36c5.18,2.09,10.26,4.69,14.92,7.77c3.77,2.49,4.62,6.56,1.97,10.54
		c-2.91,4.37-2.67,9.4-3.85,14.14c-2,8.1-4.69,16.46-9.12,23.41c-4.02,6.3-4.39,12.08-1.37,17.7c2.74,5.09,6.92,9.75,11.41,13.46
		c5.85,4.84,12.63,8.55,19.01,12.75c-0.47,0.18-0.95,0.35-1.42,0.53c0.29,2.77-0.46,6.72,1.07,8.07c3.75,3.29,7.34,0.21,11.18-2.98
		c4.17,3.35,10.1,5.95,12.19,10.36c2.56,5.41,6.72,6.97,10.97,9.48c3.38,1.99,5.8,10.46,5.13,14.33c-0.35,2.01,0,4.34,0.73,6.27
		c0.8,2.14,2.47,3.93,3.6,5.96c3.8,6.82,2.93,10.47-2.93,14.11c3.44,8.08,6.84,16.1,10.32,24.29c0.05-0.02,0.51-0.1,0.8-0.37
		c5.7-5.35,5.47-5.2,10.27,1.37c1.54,2.11,4.43,3.8,7.02,4.45c3.95,1,5.16,3.26,4.98,6.82c-0.09,1.65-0.44,3.3-0.74,4.94
		c-0.3,1.63-0.69,3.25-0.85,3.99c-2.06,1.6-3.57,2.77-5.08,3.95c1.62,1.15,3.24,2.3,4.85,3.47c0.69,0.5,1.34,1.06,2.02,1.59
		c-0.79,0.62-1.49,1.5-2.38,1.82c-1.98,0.71-5.81,1.17-5.8,1.69c0.04,3.35,0.93,6.68,1.51,10.02c0.39,2.26,1.39,4.69,0.91,6.78
		c-0.84,3.73-3.91,4.59-7.3,2.74c-2.16-1.19-4.38-2.28-6.91-3.59c-3.75,6.38-1.75,16.18-11.9,18.47c2.55,5.11,0.41,7.9-4.73,8.86
		c3.03,7.71,2.35,10.12-3.21,12.79c1.09,2.47,3.18,5.01,2.97,7.34c-0.22,2.4-2.71,4.58-4.14,6.89c-1.21,1.94-2.33,3.94-3.83,6.5
		c-18.38,0.96-37.45,1.96-58.29,3.05c2.93-4.37,4.78-8.13,7.54-11.04c5.78-6.11,12.1-11.71,18.07-17.66
		c2.77-2.76,1.04-10.88-2.43-12.88c-0.86-0.49-1.85-1.51-1.97-2.4c-0.64-4.82-3.4-5.93-7.94-5.93
		c-104.64,0.1-209.29,0.08-313.93,0.08C112.83,420,101.03,420,88.97,420z"/>
</g>
</svg>
