<?xml version="1.0" encoding="utf-8"?>
<!-- Generator: Adobe Illustrator 23.0.3, SVG Export Plug-In . SVG Version: 6.00 Build 0)  -->
<svg version="1.1" id="Layer_1" xmlns="http://www.w3.org/2000/svg" xmlns:xlink="http://www.w3.org/1999/xlink" x="0px" y="0px"
	 viewBox="0 0 598.91 333.67" style="enable-background:new 0 0 598.91 333.67;" xml:space="preserve">
<g>
	<path d="M103.09,241.54c-2.42,2.92-4.64,6.05-7.33,8.7c-2.12,2.09-4.62,4.14-7.34,5.13c-1.62,0.59-4.15-0.63-6-1.58
		c-2.23-1.13-4.17-2.84-7.09-4.9c0.25-0.89,1.05-2.74,1.25-4.65c0.19-1.83,0.21-3.92-0.48-5.56c-1.59-3.77-0.55-7.12,3.25-8.78
		c2.88-1.26,3.47-7.25,1.49-9.84c-1.23-1.61-1.5-4.01-2.01-6.1c-0.46-1.9-0.64-3.87-0.38-5.53c0.48-2.26,0.95-4.53,1.46-6.79
		c0.93-4.13,1.96-8.24,2.81-12.39c1.21-5.89,2.29-11.81,3.59-18.54c-4.33,0.87-7.6,1.72-10.93,2.13c-2.86,0.36-5.17,0.05-4.68-4.17
		c0.37-3.18-2.01-3.57-5.35-1.38c-1.66-1.84-3.41-3.43-4.72-5.32c-1.7-2.43-3.01-5.13-4.56-7.67c-0.74-1.23-1.55-2.42-2.45-3.54
		c-5.63-7.03-11.29-14.03-16.94-21.05c-0.42-0.52-0.77-1.44-1.24-1.5c-8.69-1.08-11.34-10.78-20.12-13.23
		c2.09-0.98,3.28-1.54,4.72-2.22c-1.35-2.15-2.62-4.18-3.88-6.19c4.19-4.47,0.77-8.47-1.31-11.84c-4.22-6.81-9.27-13.1-13.89-19.67
		c-0.61-0.87-0.93-2.14-0.93-3.22C-0.01,48.03,0,24.22,0,0c199.45,0,398.63,0,598.91,0c0,96.63,0,193.32,0,290.58
		c-116.02,0-232.72,0-349.78,0c0,11.84,0,23.12,0,34.39c-0.4,0.27-0.79,0.54-1.19,0.81c-2.31-2.49-4.84-4.81-6.87-7.51
		c-1.66-2.2-2.52-5-4.14-7.24c-0.93-1.28-3.22-3.09-3.92-2.73c-1.66,0.85-2.77,2.81-4.03,4.38c-0.57,0.7-1.22,1.5-1.38,2.34
		c-0.4,2.05-0.55,4.15-0.73,5.68c-4,0.66-8.91,1.47-13.82,2.29c-0.16,0.03-0.38,0.2-0.47,0.14c-6.58-4.12-13.77,1.23-20.49-1.36
		c-3.67-1.42-6.39-0.14-7.58,3.78c-0.8,2.62-1.98,3.13-4.78,2.01c-3.01-1.2-6.46-1.43-9.74-1.83c-5.84-0.7-8.98,2.02-9.32,7.95
		c-8.39-3.22-10-10.14-11.33-18.04c-0.7-4.15-4.31-8-7.22-11.47c-0.83-0.99-3.84-0.15-6.85-0.15c-0.4-0.31-1.97-1.21-3.13-2.48
		c-2.17-2.39-5.25-4.42-2.39-8.6c1.83-2.68-1.62-8.05-4.09-11.31c-3.79-5-6.65-10.78-9.4-16.47c-1.89-3.91-3.16-8.17-4.23-12.4
		c-0.62-2.45,1.09-5.26-2.98-6.75c-1.98-0.73-2.95-4.22-4.38-6.46C104.14,240.21,103.61,240.88,103.09,241.54z"/>
</g>
</svg>
