<?xml version="1.0" encoding="utf-8"?>
<!-- Generator: Adobe Illustrator 23.0.3, SVG Export Plug-In . SVG Version: 6.00 Build 0)  -->
<svg version="1.1" id="Layer_1" xmlns="http://www.w3.org/2000/svg" xmlns:xlink="http://www.w3.org/1999/xlink" x="0px" y="0px"
	 viewBox="0 0 514.43 236.85" style="enable-background:new 0 0 514.43 236.85;" xml:space="preserve">
<g>
	<path d="M117.06,236.85c0-26.61,0-52.4,0-78.85c-39,0-77.69,0-117.06,0C4.01,105.09,7.97,52.87,11.94,0.4
		c1.39-0.16,2.5-0.42,3.6-0.39C99.16,1.63,182.78,3.28,266.4,4.93c17.16,0.34,34.32,1.14,51.47,0.84
		c8.18-0.14,12.03,4.57,15.44,10.28c1.43,2.39,2.63,3.57,5.35,3.06c0.78-0.15,2.01-0.2,2.4,0.26c5.31,6.09,10.7,1.37,16.03,0.21
		c5.92-1.29,11.77-3.04,17.74-3.92c5.9-0.87,11.93-1.05,17.9-1.22c1.49-0.04,3.8,0.72,4.39,1.83c3.75,7.07,11.18,8.93,17.22,12.75
		c0.68,0.43,1.63,0.44,2.32,0.87c4.08,2.52,7.89,5.64,12.24,7.52c4.19,1.81,8.92,2.36,13.82,3.56c-1.01,4.38-1.97,8.51-3.02,13.07
		c6.84,1.04,7.35,6,8.6,11.23c1.06,4.43,3.4,9.09,6.52,12.38c4.95,5.21,6.98,10.67,5.78,17.64c-0.53,3.1-0.65,6.29-0.79,9.45
		c-0.23,5.21,1.93,9,6.93,10.95c7.66,2.97,10.56,9.07,11.23,16.77c0.81,9.25,2,18.48,2.64,27.74c0.25,3.57-0.87,7.22-0.81,10.82
		c0.05,2.63,0.61,5.43,1.68,7.83c1.59,3.57,3.7,6.94,5.84,10.23c1.88,2.88,4.11,5.52,6.18,8.27c0.39-0.24,0.78-0.48,1.17-0.72
		c0.75,5.28,1.5,10.55,2.29,16.07c8.33,2.83,13.24,9.68,17.45,18.6C381.61,233.15,249.63,235,117.06,236.85z"/>
</g>
</svg>
