<?xml version="1.0" encoding="utf-8"?>
<!-- Generator: Adobe Illustrator 23.0.3, SVG Export Plug-In . SVG Version: 6.00 Build 0)  -->
<svg version="1.1" id="Layer_1" xmlns="http://www.w3.org/2000/svg" xmlns:xlink="http://www.w3.org/1999/xlink" x="0px" y="0px"
	 viewBox="0 0 374.97 549.62" style="enable-background:new 0 0 374.97 549.62;" xml:space="preserve">
<g>
	<path d="M8.83,0c117.57,0.41,234.78,0.82,352.37,1.24c0.37,11.08,0.81,22.7,1.15,34.32c2.81,96.95,5.55,193.9,8.42,290.84
		c1.28,43.14,2.86,86.27,4.2,129.41c0.05,1.64-0.84,3.36-1.47,4.97c-1.68,4.29-3.45,8.54-5.37,13.26c-4.6-1.72-8.99-3.68-13.57-4.99
		c-4.7-1.33-9.55-2.66-14.39-2.85c-8.58-0.34-12.5,6.86-7.99,14.37c2.5,4.15,3.24,8.4,3.59,13.18c0.8,11.09,1.62,22.28,3.89,33.12
		c1.68,8.05-0.29,15.04-2.29,22.76c-0.91-0.63-1.62-0.99-2.18-1.51c-78.51-72.18-157.19-144.18-235.43-216.66
		c-32.64-30.24-64.29-61.53-96.48-92.25c-2.52-2.4-3.41-4.74-3.27-8.24c1.62-40.13,3.04-80.26,4.52-120.39
		c1.34-36.3,2.68-72.6,4.03-108.91C8.6,0.86,8.81,0.08,8.83,0z"/>
</g>
</svg>
