<?xml version="1.0" encoding="utf-8"?>
<!-- Generator: Adobe Illustrator 23.0.3, SVG Export Plug-In . SVG Version: 6.00 Build 0)  -->
<svg version="1.1" id="Layer_1" xmlns="http://www.w3.org/2000/svg" xmlns:xlink="http://www.w3.org/1999/xlink" x="0px" y="0px"
	 viewBox="0 0 597.55 495.64" style="enable-background:new 0 0 597.55 495.64;" xml:space="preserve">
<style type="text/css">
	.st0{fill:#FFFFFF;}
</style>
<g>
	<path d="M333.24,396c4.71-4.73,9.65-9.32,14.03-14.38c1.03-1.19,0.15-4.02,0.15-6.1c-0.56-0.23-1.13-0.46-1.69-0.69
		c-3.05,4.46-6.09,8.92-9.32,13.65c-2.72,0.65-6.29,1.5-9.71,2.31c0.34,9.8,8.66,8.48,13.82,10.71c-5.5,5.17-10.5,9.87-15.5,14.58
		c-5.22-6.62-7.93-7.38-13.71-2.95c3.28,0.19,5.69,0.32,8.11,0.46c0.3,0.42,0.6,0.85,0.91,1.27c-1.65,1.26-3.24,3.49-4.97,3.62
		c-5.61,0.4-9.02,4.62-13.54,6.84c-1.87,0.92-3.62,2.08-5.36,3.08c-1.15-4.01-2.15-7.51-3.53-12.33
		c-6.84,3.74-12.71,6.93-18.56,10.16c-4.47,2.47-5.35,2.47-7.51,0.47c-2.73,1.15-5.1,2.14-8.38,3.52c0.49-3.07,0.77-4.84,1.24-7.78
		c-4.79,1.94-8.59,3.47-12.52,5.07c-4.34-4.91-3.97-6.15,2.78-9.48c-3.01-2.38-6.2-4.93-9.43-7.42c-0.34-0.26-1.19-0.44-1.38-0.25
		c-2.48,2.56-6.16,3.07-8.75,4.95c-1.52,1.1-0.87,5.2-1.2,7.95c-0.02,0.15-0.14,0.29-0.45,0.9c-5.5-2.12-8.58-6.98-9.14-11.87
		c-0.56-4.83-3.85-5.64-7.09-7.72c0.32,2.01,0.64,4.02,0.99,6.18c-0.3,0.16-0.73,0.61-1.12,0.57c-5.17-0.53-9.76-0.13-12.5,5.42
		c-0.31,0.62-4.74,0.32-6.05-0.88c-4.63-4.23-9.13-8.74-12.78-13.79c-1.11-1.54-0.18-5.77,1.25-7.72c3.89-5.3,3.74-9.94-0.28-14.89
		c-1.13-1.39-1.87-3.13-2.63-4.79c-1.34-2.93-0.77-5.1,1.96-7.3c1.97-1.58,3.9-4.22,4.25-6.63c0.86-5.79-2.03-7.7-7.86-7.93
		c-6.2-0.25-12.51-1.15-18.45-2.87c-3.33-0.96-6.02-4.16-8.72-6.14c-3.05-1.4-7.69-2.1-8.38-4.14c-1.33-3.93-1.38-8.9-0.17-12.9
		c1.06-3.5,3.46-6.16,0.47-9.87c-0.61-0.76,0.35-3.37,1.26-4.63c1.73-2.39,2.7-4.3,0.59-7.12c-0.94-1.26-0.76-3.47-0.8-5.26
		c-0.85-48.82-1.67-97.64-2.49-146.46c-0.09-5.49-0.06-10.27-6.56-13.49c-4.3-2.12-6.92-7.66-10.29-11.66
		c-1.39-1.65-2.53-3.68-4.26-4.83c-5.9-3.93-12.04-7.5-18.01-11.33c-1.5-0.96-2.57-2.66-4.12-3.48c-4.16-2.21-8.3-4.89-12.78-5.92
		c-4.1-0.94-7.9,1.6-9.4,5.77c-1.44,4.02-4.07,4.49-7.4,3.39c-7.19-2.4-13.25,0.25-18.34,4.74c-2.64,2.33-5.02,3.11-8.32,3.4
		c-4.06,0.36-8.63,0.73-11.93,2.78c-8.43,5.22-16,5.09-23.57-1.21c-0.75-0.63-1.99-0.78-2.56-1.5c-1.4-1.75-2.97-3.59-3.52-5.64
		c-0.17-0.65,2.55-2.55,4.21-3.12c14.16-4.8,28.34-9.54,42.58-14.07c11.23-3.57,19-12.08,27.61-19.28c2.09-1.75,2.94-5.91,3.01-9
		c0.31-13.66,0.14-27.33,0.14-40.99c0-1.79,0-3.57,0-5.83c10.1,0,19.69,0,29.87,0c0-3.51,0-6.58,0-9.95c19.33,0,38.06,0,56.72,0
		c0.27,0.4,0.63,0.69,0.6,0.93c-0.74,6.09,1.84,8.71,8.03,9.63c4.81,0.71,9.55,2.95,13.88,5.32c2.46,1.34,4.04,4.31,6,6.53
		c0.76-0.63,0.94-0.71,1.01-0.85c4.26-8.69,5.07-9.46,14.31-7.23c4.71,1.14,8.51,0.05,12.4-1.91c5.53-2.78,10.89-5.22,16.35,0.3
		c0.76,0.77,2.89,0.83,4.03,0.36c0.67-0.28,0.99-2.28,0.87-3.45c-0.69-6.99,3.49-11.69,10.39-11.21c3.62,0.25,7.21,0.95,10.81,1.45
		c0.49,0.07,1.04,0.32,1.47,0.19c6.71-2.02,13.65-3.52,20.02-6.32c4.84-2.13,20.37-6.81,24.12-5.8c0.65,7.06,2,7.78,9.03,9.34
		c6.31,1.4,12.23,4.47,18.49,6.19c9.25,2.54,18.59,4.9,28.01,6.68c8.51,1.61,14.39,5.66,16.79,14.19c0.45,1.6,0.94,3.21,1.63,4.71
		c2.6,5.74,5.28,11.44,8.09,17.5c-0.09,0.06-1.45,0.9-3.28,2.05c1.45,1.56,2.65,2.85,4.24,4.56c3.26-7.12,8.92-8.32,15.81-8.34
		c3.01-0.01,6.39-2.59,8.96-4.76c12.94-10.97,28.2-16.24,44.64-18.68c1.55-0.23,3.23,0.49,5.42,0.87c-3.51,2.78-6.61,5.24-9.7,7.69
		c0.26,0.51,0.53,1.03,0.79,1.54c4.44-1.02,8.86-2.15,13.33-3.01c3.9-0.75,7.88-1.76,11.77-1.53c2.02,0.12,5.31,2.43,5.56,4.12
		c0.5,3.36-2.86,3.25-5.4,3.3c-0.78,0.02-1.56,0.18-3.41,0.41c3.88,2.46,9.69,1.09,8.6,8.17c0.49-0.34,0.98-0.67,1.47-1.01
		c0.67-2.5,0.69-5.54,2.18-7.35c1.56-1.89,4.55-2.59,5.96-3.31c-2.17-3.18-5.08-5.8-4.57-7.04c1.01-2.5,3.55-5.06,6.07-6.07
		c2.52-1.01,6.26-3.18,8.67,1.39c0.23,0.43,5.73,0.53,6.37-3.56c0.19-1.22,0.39-2.43,0.86-3.6c-0.35,14.25-15.39,30.55-30.73,33.3
		c1.64,7.37-3.58,11.43-7.98,15.9c-3,3.04-2.96,5.77,0.52,7.9c-1.87,2.48-3.71,4.93-6.06,8.03c2.41-1.13,4.07-1.91,6.6-3.09
		c-1.45,5.55-2.66,10.14-3.57,13.62c-1.56,0.16-3.58-0.04-3.77,0.45c-1.26,3.31-2.48,6.72-3.01,10.2c-0.34,2.23,0.12,4.8-2.89,4.73
		c-6.75-0.16-8.88,6.03-13.22,9.14c-2.37,1.7-4.1,4.32-6.53,5.88c-7.36,4.74-14.92,9.17-22.74,13.92c5.7,0,11.52,0,17.72,0
		c-0.2,1.84-0.39,3.55-0.75,6.76c4.92-2.1,8.97-3.72,12.92-5.55c3.85-1.78,7.64-5.13,10.84,1.06c0.33,0.64,3.69,0.77,4.25,0.05
		c5.02-6.41,11.23-2.74,16.27-2.72c0.23,3.17,0.16,5.92,0.68,8.56c0.71,3.63,0.52,6.06-3.54,7.96c-6.38,2.98-9.46,12.02-6.28,18.6
		c2.69,5.57,6.48,10.61,9.51,15.46c-1.3,1.52-3.14,3.67-4.99,5.82c0.35,0.5,0.71,1,1.06,1.5c4.17-4.55,7.2-0.5,10.31,0.76
		c1.27-1.1,2.42-2.08,3.56-3.06c0.88,1.32,2.49,2.63,2.5,3.95c0.02,3.8-0.36,7.65-1.07,11.39c-0.56,2.95-0.71,5.1,1.8,7.57
		c2.4,2.36,3.44,5.85-2.16,8.56c5.88,1.24,10.53,3.08,11.25,9.11c0.77,6.44-1.51,9.83-7.85,11.4c4.24,2.04,10.06,0.3,13.68-4.1
		c4.44,3.55,4.07,5.34,0.89,9.68c-1.76,2.4-1.45,6.32-2.17,10.07c7.64-2.07,13.92-2.77,20.57-0.62c2.84,0.92,6.43-0.61,9.69-0.86
		c7.24-0.56,10.59,1.59,14.24,8.11c0.47,0.83,3.15,0.43,4.81,0.6c0.08-0.42,0.16-0.85,0.24-1.27c0.94,0.88,1.89,1.75,2.72,2.53
		c0.53,0,0.98,0.14,1.15-0.02c5.08-4.58,10.7-3.5,16.37-1.58c3.61,1.22,7.13,2.74,10.77,3.84c6.34,1.91,7.55,3.57,7.02,9.97
		c-8.82,5.73-18.3,7.04-28.37,6.03c-2.04-0.21-4.28,1.5-6.54,2.37c0.67,1.4,0.78,1.72,0.97,1.99c1.34,1.89,2.69,3.76,4.04,5.64
		c-2.3,0.38-4.7,0.49-6.89,1.21c-2.72,0.9-6.02,1.66-7.74,3.64c-4.05,4.63-7.3,9.95-10.96,15.11c-3.47-0.72-4.71-6.99-10.99-5.05
		c1.7,1.25,2.56,1.89,3.18,2.35c-3.51,3.81-7.06,7.62-10.55,11.49c-1.35,1.5-3.05,2.96-3.71,4.76c-1.55,4.2-3.92,4.35-7.28,2.37
		c1.32-2.45,2.8-4.65,3.74-7.06c1.43-3.64,2.39-7.13-2.03-10.02c-1.48-0.97-1.61-4-2.43-6.32c-4.86,1.03-4.55-5.15-8.88-7.49
		c1.15,2.37,1.54,4.23,2.67,5.32c3.85,3.72,2.55,7.24-0.21,10.56c-2.33,2.8-5.07,5.26-7.86,8.1c0.66,1.03,1.44,2.24,2.19,3.41
		c-7.36,2.59-7.74,10.92-12.67,15.42c-6.09-4.39-14.67-3.56-19.99,2.46c-3.34,3.78-7.08,6.11-11.96,7.35
		c-15.83,4.03-30.09,11.47-43.54,20.59c-2.6,1.76-5.47,3.12-8.23,4.65c-0.43,0.24-1.2,0.28-1.32,0.6
		c-3.29,8.59-12.83,6.42-18.54,10.81c-1.18,0.9-2.49,1.67-3.51,2.72c-2.3,2.36-4.46,3.86-7.64,1.14c-0.63-0.54-2.78-0.06-3.71,0.65
		c-5.59,4.21-11.3,7.51-18.57,4.28c-1.03-0.46-2.8-0.72-2.97-1.4c-1.82-7.08-8.28-7.36-13.47-9.5
		C333.39,396.2,333.17,395.94,333.24,396z M495.51,299.19c0.39-7.05-2.06-11.03-7.02-12.27C490.64,290.67,493.11,295,495.51,299.19z
		"/>
	<path d="M242.62,494.8c0.69-3.48,0.91-7.15,2.18-10.41c2.02-5.17,4.49-10.22,7.29-15.02c1.36-2.33,3.74-4.56,7.04-2.22
		c2.56,1.81,1.51,3.83,1.55,6.47c0.08,5.14,3.24,10.28,5.38,15.31c0.57,1.35,2.06,2.3,3.13,3.43c-0.73,0.56-1.82,1.75-2.14,1.57
		c-1.29-0.73-2.66-1.67-3.42-2.9c-2.88-4.64-12.83-3.92-16.53,1.24c-0.88,1.23-2.06,2.24-3.1,3.35
		C243.54,495.36,243.08,495.08,242.62,494.8z"/>
	<path d="M503.7,27.3c1.02-2.47,1.49-3.81,2.12-5.07c1.9-3.8,3.81-7.6,5.86-11.33c0.5-0.91,1.55-2.08,2.36-2.1
		c0.86-0.02,2.04,1.03,2.56,1.92c2.74,4.7,1.27,9.59-3.62,12.19C510.38,24.3,507.66,25.44,503.7,27.3z"/>
	<path class="st0" d="M495.51,299.19c-2.4-4.19-4.87-8.52-7.02-12.27C493.45,288.16,495.9,292.14,495.51,299.19z"/>
</g>
</svg>
