<?xml version="1.0" encoding="utf-8"?>
<!-- Generator: Adobe Illustrator 23.0.3, SVG Export Plug-In . SVG Version: 6.00 Build 0)  -->
<svg version="1.1" id="Layer_1" xmlns="http://www.w3.org/2000/svg" xmlns:xlink="http://www.w3.org/1999/xlink" x="0px" y="0px"
	 viewBox="0 0 274.5 539.37" style="enable-background:new 0 0 274.5 539.37;" xml:space="preserve">
<g>
	<path d="M2.57,485.17c2.32-1.35,4.15-2.41,6.11-3.55c-1.07-1.19-1.96-2.18-3.57-3.97c4.62-1.29,8.5-2.37,12.77-3.56
		c-2.99-4.9-3.82-9.36-0.04-14.55c1.72-2.36,1.95-7.37,0.61-10.05c-2.38-4.78-0.69-9.12-0.63-13.63c0.01-0.77,0.99-1.57,0.89-2.28
		c-0.95-7.25,2.79-12.87,5.89-18.89c0.96-1.87,0.28-5.25-0.8-7.35c-2.2-4.3-1.33-8.36-0.4-12.59c1.15-5.2,2.46-10.37,3.24-15.63
		c0.37-2.51-0.41-5.17-0.55-7.77c-0.08-1.41-0.08-2.87,0.17-4.25c0.47-2.59,0.92-5.23,1.81-7.69c0.61-1.69,1.61-3.83,3.04-4.53
		c3.2-1.58,3.74-3.94,4.29-7.13c1.06-6.17,2.57-12.33,4.62-18.24c0.83-2.4,3.65-4.06,5.39-6.2c1.04-1.29,2.8-3.36,2.4-4.24
		c-1.67-3.68,0.32-5.47,2.32-8.15c3.79-5.08,6.7-10.83,9.97-16.29c0.34-0.56,0.7-1.12,1.08-1.65c3.74-5.2,7.5-10.4,11.12-15.42
		c-3.06-4.19-3.86-7.57-0.41-11.38c1.9-2.1,2.85-5.05,4.3-7.58c1.03-1.79,2.24-3.48,3.25-5.28c0.92-1.64,3.63-3.28,0.12-5.18
		c-0.48-0.26-0.76-1.93-0.41-2.52c2.61-4.49,0.38-8.12-1.48-12.12c-1.3-2.79-1.71-6.12-1.92-9.26c-0.17-2.56,1.04-5.19-2.3-6.84
		c-0.67-0.33-0.93-3.53-0.21-4.28c3.66-3.85,7.25-8.11,11.74-10.72c4.86-2.83,10.63-4.17,16.11-5.79c1.96-0.58,4.24-0.09,6.27-0.09
		c1.28-6.32,5.05-9.25,13.06-9.96c9.07-0.81,14.89-5.32,18.92-13.56c2.36-4.82,6.81-8.61,10.4-12.97c-2.42-4.88-2.42-4.88,4.79-9.99
		c-0.93-6.36-1.77-12.04-2.65-18.1c-1.11,0.6-1.78,1.02-2.5,1.33c-1.05,0.46-2.14,0.84-3.21,1.25c-0.3-1.15-1.18-2.58-0.79-3.4
		c1.74-3.64,1-6.69-1.3-9.74c-2.45-3.25-2.43-6.56,0.71-9.32c5.38-4.74,5.93-11.71,8.58-17.72c1.03-2.33,2.64-4.52,4.39-6.4
		c2.79-2.98,3.95-5.83,1.89-9.84c-1.49-2.92-2.13-6.27-3.17-9.42c-1.22-3.69-0.04-5.78,3.95-6.16c1.57-0.15,3.12-0.5,4.68-1.66
		c-1.28-0.37-2.57-0.74-2.89-0.83c-3.63-8.46,1.74-13.45,5.98-19c2.84-3.71,2.61-4.3-0.1-7.91c0.54-0.74,1.11-1.55,1.71-2.32
		c6.04-7.79,5.93-9.58-0.33-15.11c3.47-1.44,8.72-2,10.64-4.83c2.53-3.71,6.23-5.19,9.11-7.96c2.46-2.37,4.33-1.61,5.88,1.17
		c4.04,7.24,10.08,10.49,17.65,8.11c2.3-0.73,3.54-5.05,5.12-7.8c0.78-1.35,1.24-2.89,1.84-4.35c0.5,0.1,0.99,0.21,1.49,0.31
		c0.2,2.09,0.48,4.17,0.58,6.26c3.14,67.91,6.24,135.82,9.39,203.73c2.24,48.27,4.56,96.53,6.84,144.8
		c0.05,0.99-0.22,2.34,0.32,2.92c4.73,5.23,1.45,10.84,1.03,16.33c-0.11,1.48,0.39,2.99,0.31,4.48c-0.18,3.18-0.4,6.37-0.91,9.51
		c-0.33,2.05-1.86,4.07-1.68,6c0.45,4.77,1.33,9.55,2.53,14.19c0.48,1.85,2.25,3.36,3.44,5.02c1.33-1.23,2.66-2.47,4.27-3.97
		c1.86,2.73,3.66,5.73,5.84,8.43c2.36,2.92,5.32,5.38,7.55,8.39c1.11,1.49,1.8,3.85,1.57,5.67c-0.75,5.86-2.01,11.65-3.09,17.55
		c-1.77-0.08-4.14-0.2-7.43-0.35c8.72,9.2-4.54,10.52-5.11,15.71c4.63,0,8.81,0,13.85,0c-1.61-1.85-2.79-3.21-4.06-4.66
		c0.67-2.1,1.36-4.26,2.13-6.64c1.1,0,2.54-0.45,3.31,0.08c3.4,2.34,6.97,4.62,9.69,7.64c1.06,1.18,0.14,4.25-0.08,6.44
		c-0.19,1.85-0.66,3.67-1.01,5.5c0.59,0.13,1.18,0.27,1.77,0.4c0.74-1.33,1.48-2.66,2.22-3.98c-0.58,4.09,0.68,8.29-3.43,11.92
		c-2.7,2.39-3.43,7-5.08,10.6c-0.67,1.45-1.35,2.91-2.19,4.27c-0.37,0.59-0.91,2.92-0.94,3.53c-0.06,1.07-0.19,2.76-0.83,3.06
		c-1.65,0.78-3.65,1.43-5.4,1.22c-1.49-0.18-2.73-2.11-4.25-2.43c-2.43-0.5-5.06-0.66-7.5-0.28c-1.88,0.29-3.55,2.22-5.41,2.39
		c-7.79,0.73-13.4,3.74-13.99,12.42c-5.42-0.19-9.71-4.08-15.12,0.04c-5.5,4.19-2.76,9.31-3.72,14.88
		c-7.56-4.55-11.13,0.08-14.76,5.51c-0.99,1.48-3.79,2.55-5.71,2.48c-23.98-0.88-47.95-1.99-71.91-3.08
		c-31.96-1.45-63.91-3-95.88-4.31c-3.5-0.14-5.09-1.55-6.02-4.57c-0.64-2.09-0.62-4.74-4.31-4.25c-0.76,0.1-2.11-2.77-2.84-4.43
		c-1.79-4.07-3.66-8.14-4.9-12.39c-0.55-1.88-0.38-4.73,0.73-6.19C4.56,495.48,4.66,490.69,2.57,485.17z"/>
</g>
</svg>
