<?xml version="1.0" encoding="utf-8"?>
<!-- Generator: Adobe Illustrator 23.0.3, SVG Export Plug-In . SVG Version: 6.00 Build 0)  -->
<svg version="1.1" id="Layer_1" xmlns="http://www.w3.org/2000/svg" xmlns:xlink="http://www.w3.org/1999/xlink" x="0px" y="0px"
	 viewBox="0 0 504.72 569.35" style="enable-background:new 0 0 504.72 569.35;" xml:space="preserve">
<g>
	<path d="M198.56,503.62c2.86,8.6,3.16,17.2,11.32,22.11c-46.72,0-93.44,0-140.77,0c0,14.62,0,29,0,43.62c-23.34,0-46.08,0-69.11,0
		C0,379.56,0,189.98,0,0c167.8,0,335.66,0,504.15,0c0,1.78,0,3.55,0,5.31c0.02,12.83,0.18,25.67-0.06,38.49
		c-0.05,2.87,2.66,7.06-2.77,8.59c-0.51,0.14-0.28,3.11-0.29,4.77c-0.47,109.15-0.9,218.31-1.38,327.46
		c-0.17,38-0.43,75.99-0.65,113.99c-0.01,1.48,0,2.96,0,5.01C398.95,503.62,299.23,503.62,198.56,503.62z"/>
</g>
</svg>
