<?xml version="1.0" encoding="utf-8"?>
<!-- Generator: Adobe Illustrator 23.0.3, SVG Export Plug-In . SVG Version: 6.00 Build 0)  -->
<svg version="1.1" id="Layer_1" xmlns="http://www.w3.org/2000/svg" xmlns:xlink="http://www.w3.org/1999/xlink" x="0px" y="0px"
	 viewBox="0 0 539.24 421.46" style="enable-background:new 0 0 539.24 421.46;" xml:space="preserve">
<style type="text/css">
	.st0{fill:#FFFFFF;}
</style>
<g>
	<path d="M401.89,412.74c-3.76,0.18-9.05,1.46-10.17-2.53c-0.86-3.05,2.31-7.24,3.69-10.91c-3.35-0.18-2.05-2.82-1.06-5.29
		c2.39-5.97,4.81-11.92,7.27-18.01c-2.33-1.48-3.84-2.47-5.38-3.4c-14.83-8.93-29.69-17.83-44.49-26.81
		c-1.96-1.19-3.57-2.94-5.46-4.27c-2.78-1.95-5.44-4.39-8.56-5.5c-7.55-2.68-13.35-7.39-16.18-14.65
		c-1.38-3.55-0.09-8.08-0.43-12.13c-0.24-2.9-0.36-6.4-2.01-8.42c-1.88-2.31-5.27-4.09-8.26-4.6c-3.25-0.56-3.44-2.43-4.05-4.65
		c-2.1-7.65-2.13-7.66-10.12-7.67c-96.49-0.1-192.98-0.19-289.47-0.28c-2.15,0-4.31,0-7.22,0c0-8.16-0.07-16.06,0.1-23.97
		c0.02-0.84,1.32-1.82,2.22-2.43c2.35-1.58,4.92-2.84,7.2-4.5c5.04-3.67,9.85-7.66,14.97-11.21c3.68-2.54,7.47-5.26,11.63-6.67
		c6.14-2.09,8.68-7.21,12.1-11.77c1.59-2.12,3.24-4.47,5.43-5.82c9.82-6.06,9.16-7.82,5.09-15.88c-1.89-3.75-4.17-6.31-6.52-9.39
		c-2.3-3.01-3.29-8.01-4.08-12.14c-0.83-4.3,0.53-9.02,1-14.32c14.1-3.5,28.14-9.87,43.84-9.77c12.45,0.07,24.82-0.43,37.26,1.74
		c6.23,1.09,10.51,4.45,15.05,7.8c3.92,2.89,7.42,2.46,12.03,1.58c11.39-2.16,23.08-5.75,33.75,0.03c2.75-1.53,5.01-3.4,7.6-4.1
		c6.14-1.67,10.8-4.82,15.17-9.63c4.13-4.55,9.98-7.59,15.26-11c0.97-0.63,2.86-0.07,4.25,0.27c5.44,1.3,8.61-1.12,10.38-6.3
		c2.52-7.38-1.26-13.84-1.99-20.72c-0.09-0.83-1.58-1.44-2.24-2.29c-0.64-0.83-1.7-2.35-1.44-2.68c0.69-0.89,2.08-1.93,3.04-1.81
		c4.37,0.59,6.53-1,7.42-5.42c0.39-1.93,2.41-3.54,3.88-5.55c-2.57,0.66-5.22,1.34-9.09,2.33c2.27-3.55,3.53-5.52,4.8-7.5
		c-1.42-0.62-2.88-1.82-4.24-1.71c-2.02,0.16-3.96,1.25-5.93,1.94c0.17,0.54,0.34,1.08,0.51,1.62c1.31-0.06,2.63-0.13,4.98-0.25
		c-1.28,2.18-2.11,3.6-3.76,6.41c-1.24-3.68-1.98-5.98-2.8-8.25c-0.26-0.72-0.58-1.77-1.14-1.99c-2.77-1.07-4.47-3.19-3.15-5.73
		c1.61-3.1,1.88-7.69,7.17-7.89c3.28-0.12,6.2-1.41,6.36-5.6c0.03-0.81,0.8-1.96,1.54-2.32c4.27-2.06,9.04-3.35,12.84-6.02
		c3.93-2.77,7.12-6.67,10.31-10.36c2.36-2.72,3.91-6.16,6.32-8.81c5.27-5.79,10.96-11.2,16.31-16.91
		c6.11-6.52,12.86-11.95,21.33-15.22c3.01-1.16,5.53-3.58,8.35-5.29c6.16-3.75,12.01-8.38,20.14-4.91c1.82,0.78,4.49-0.72,6.77-0.73
		c27.82-0.14,55.63-0.19,83.45-0.26c4.67-0.01,7.29,4.49,5.09,9.76c-1.42,3.42-2.79,5.83-0.06,9.75c1.47,2.11-0.02,6.82-1.09,10.05
		c-1.95,5.86-1.08,10.87,2.26,15.96c2.67,4.07,3.12,8.54,0.98,13.31c-0.86,1.92-0.62,4.57-0.2,6.75c0.74,3.87-0.14,6.7-2.54,10.04
		c-3.84,5.35-5.55,11.53-3.94,18.55c1.38,5.99,0.26,12.75,2.44,18.31c2.96,7.55-2.68,12.85-2.84,19.35
		c-0.04,1.5,0.14,3.01,0.23,4.52c0.4,0.07,0.81,0.14,1.21,0.21c0.66-1.35,1.01-3.05,2.06-3.94c0.95-0.82,2.65-0.78,3.35-0.96
		c6.34,7.06,5.12,14.97,4.66,22.9c-0.96,16.63-2.88,33.37-1.88,49.91c0.91,14.88-4.15,28.01-7.66,41.64
		c-3.76,14.59-7.51,28.97-7.62,44.29c-0.12,16.97-2.09,33.92-2.71,50.89c-0.17,4.64,1.62,9.36,2.68,14.91
		c-2.47,1.6-5.99,4.12-9.73,6.22c-3.69,2.08-4.33,4.77-2.46,8.3c2.08,3.94,3.36,7.46-2.75,8.99c-1.1,0.28-1.9,1.78-2.83,2.73
		c-3.59,3.65-3.24,10.63-11.15,10.62c0.44,0.5,0.87,1,1.31,1.5c3.74-0.6,7.48-1.21,12.21-1.97c0.05-0.9,0.15-2.73,0.3-5.41
		c1.7,0.65,3.16,1.22,3.85,1.48c1.72-1.85,3.4-3.86,5.33-5.58c0.48-0.42,1.94-0.13,2.72,0.27c1.45,0.75,2.74,1.83,4.87,3.31
		c0-3.07,0-4.68,0-6.29c0.63-0.58,1.26-1.15,1.89-1.73c0.79,1.6,1.58,3.21,2.37,4.81c0.03-0.5,0.06-0.99,0.09-1.49
		c3.23,0,6.46-0.1,9.69,0.03c3.49,0.13,7.24,1.51,9.09-3.32c0.33-0.85,2.55-1.38,3.9-1.38c6.48,0.03,12.97,0.65,19.43,0.37
		c6.99-0.31,13.83-1.54,19.29-6.78c2.87-2.75,6.11-5.19,9.44-7.38c2.33-1.54,5.08-2.42,7.07-3.34c-3.91,4.3-7.62,8.88-11.87,12.89
		c-3.39,3.2-7.44,5.69-11.17,8.48c6.94,3.06,8.94,2.6,15.33-4.03c2.26-2.35,4.24-4.25,8.08-4.13c2.49,0.08,5.05-2.11,7.42-3.21
		c4.76,6.1,5.27,6.01,10.89,1.26c2.26-1.91,5.07-3.15,7.64-4.69c0.36,0.6,0.72,1.21,1.09,1.81c-1.58,1.05-3.07,2.3-4.76,3.12
		c-9.88,4.8-19.77,9.56-29.74,14.14c-1.32,0.6-3.27-0.29-4.71,0.18c-2.92,0.96-5.68,2.36-8.51,3.6c-2.27,1-4.47,2.19-6.81,2.99
		c-2.51,0.86-5.79,0.63-7.59,2.19c-3.89,3.37-8.46,1.84-12.63,2.8c-5.81,1.34-11.85,1.73-17.59,3.28c-1.47,0.4-2.18,3.6-3.25,5.52
		c0.32,0.62,0.63,1.24,0.95,1.85c-11.1,1.18-22.19,2.34-33.29,3.54c-2.14,0.23-4.27,0.56-6.4,0.85c1.84-1.4,3.68-2.81,5.92-4.51
		C403.3,406.55,402.59,406.95,401.89,412.74z"/>
	<path d="M376.88,421.46c-0.62-7.58,5.06-15.26,9.14-14.38c1.24,0.27,2.86,1.24,3.26,2.29c0.38,0.98-0.23,2.96-1.1,3.68
		C384.9,415.8,381.33,418.2,376.88,421.46z"/>
	<path class="st0" d="M401.89,412.74c0.7-5.79,1.41-6.19,8.94-4.38c-2.24,1.71-4.08,3.11-5.92,4.51
		C403.9,412.83,402.89,412.78,401.89,412.74z"/>
</g>
</svg>
