<?xml version="1.0" encoding="utf-8"?>
<!-- Generator: Adobe Illustrator 23.0.3, SVG Export Plug-In . SVG Version: 6.00 Build 0)  -->
<svg version="1.1" id="Layer_1" xmlns="http://www.w3.org/2000/svg" xmlns:xlink="http://www.w3.org/1999/xlink" x="0px" y="0px"
	 viewBox="0 0 312.35 599.42" style="enable-background:new 0 0 312.35 599.42;" xml:space="preserve">
<g>
	<path d="M163.03,0c7.87,4.95,15.68,10,23.61,14.85c40.49,24.75,80.97,49.5,121.57,74.06c3.49,2.11,4.88,4.56,3.77,8.03
		c-3.23,10.09-5.79,20.57-10.5,29.96c-4.44,8.83-8.9,17.32-10.14,27.27c-0.24,1.93-1.69,3.95-3.09,5.46
		c-3.36,3.67-6.88,7.23-10.63,10.49c-1.52,1.32-3.83,1.72-6.73,2.94c1.31-4.99,2.26-8.59,3.2-12.18c-0.53-0.35-1.05-0.69-1.58-1.04
		c-1.62,2.07-3.26,4.12-4.87,6.2c-1.87,2.42-3.9,4.74-5.52,7.31c-2.16,3.41-4.7,6.81-5.81,10.59c-1.67,5.67-3.38,10.77-7.94,15.12
		c-2.06,1.96-1.52,6.67-2.12,10.15c-0.31,1.78-0.19,3.73-0.88,5.34c-2.11,4.9-0.52,8.02,4.12,10.27c5.6,2.71,11.32,1.88,17.04,2.55
		c8.8,1.03,17.23,5.26,25.8,8.19c1.96,0.67,3.82,1.59,6.08,1.89c-1.52-5.33-5.09-9.81-3.03-15.13c0.76-0.21,1.53-0.42,2.29-0.63
		c1.15,3.39,2.97,6.71,3.32,10.18c1.02,10.27,1.49,20.6,2.09,30.91c0.09,1.47,0.2,3.25-0.5,4.4c-7.21,11.92-5.97,26.33-11.56,38.7
		c-1.3,2.87-2.64,5.72-3.96,8.58c5.39,5.22,5.62,9.35,3.27,17.02c-2.15,7.02-3.02,14.45-4.24,21.74c-1.91,11.45-3.62,22.94-5.5,34.4
		c-0.14,0.83-0.96,1.54-2.21,3.43c0.99-13.63,1.75-25.9,2.87-38.14c0.23-2.54,2.32-4.89,2.68-7.45c0.91-6.33,1.42-12.72,1.82-19.11
		c0.08-1.29-1.01-2.66-1.82-4.63c-1.67,1.43-2.85,2.44-3.64,3.12c1.26,1.79,3.37,3.92,3.03,4.45c-1.62,2.48-3.57,5.09-6.06,6.56
		c-2.26,1.33-5.76,0.7-6.14,5.06c1.17,0.17,2.33,0.34,4.94,0.72c-1.77,4.24-3.41,8.14-5.11,12.21c1.57,0.67,3.78,1.62,7.06,3.02
		c-6.33,4.14-7.65,9.66-7.2,15.96c0.08,1.13-1.08,2.32-1.62,3.51c-2.48,5.4-5.18,10.71-7.33,16.24c-1.52,3.91-1.44,7.73,2.8,10.53
		c0.84,0.56,1.05,3.37,0.44,4.58c-2.23,4.44-4.8,8.73-7.51,12.9c-0.94,1.43-2.7,2.32-4.06,3.49c-1.48,1.28-2.94,2.58-4.35,3.93
		c-2.58,2.48-4.85,5.36-7.71,7.44c-4.83,3.52-6.65,9.25-4,14.49c0.68,1.33,1.91,2.69,1.86,4c-0.05,1.35-1.35,2.66-2.11,3.99
		c-0.8-0.85-1.93-1.56-2.35-2.57c-2-4.8-5.75-6.89-10.97-6.46c-1.82,0.15-3.74-0.82-5.95-1.36c0.02,5.08-0.93,9.99,3.48,14.64
		c1.57,1.65-0.31,6.56-0.6,9.83c-4.06,0-8.14-1.2-9.68,0.26c-2.77,2.63-4.02,6.87-6.17,10.92c6.66,0.02,8.34,1.9,11.09,11.26
		c-6.87,3.87-13.8,7.78-20.73,11.69c-0.46-0.49-0.92-0.98-1.38-1.47c2.88-3.86,5.75-7.72,8.87-11.91c-1.21-0.88-2.62-1.91-4.59-3.34
		c-3.53,5.21-9.43,8.75-8.15,16.18c-6.57,1.7-14.43-2.65-19.53,4.64c6.11,4.56,12.55,4.79,19.52,2.27
		c-5.6,5.7-11.88,10.9-16.6,17.26c-4.69,6.31-7.81,13.79-11.09,19.79c-3,0.79-5.39,1.41-7.78,2.04c0.14,0.47,0.27,0.95,0.41,1.42
		c6.63,2.13,6.98,3.61,2.3,9.12c-3.22,3.79-4.71,9.41-10.91,10.02c-0.41,0.04-1.1,1.37-0.98,1.96c1.81,8.64-4.5,12.87-9.99,16.71
		c-5.22,3.66-11.45,5.97-17.42,8.43c-1.41,0.58-3.84-0.21-5.23-1.19c-0.68-0.48-0.16-2.85,0.06-4.33c0.16-1.13,1.07-2.23,1-3.31
		c-0.69-11.78,5.59-21.31,9.74-31.6c1.78-4.41,3.11-9.91,2.1-14.34c-2.04-9-8.45-11.58-18.79-9.29c-1.71,0.38-3.44,0.62-5.12,0.91
		c-1.72-6.91-7.55-8.4-14.83-4.23c-1.14,0.66-2.12,1.61-3.19,2.39c-3.88,2.83-10.3,0.58-9.87-4.06c0.75-8.01-5.32-9.83-9.85-13.29
		c-0.91-0.7-2.57-1.14-2.75-1.95c-1.19-5.28-4.81-5.53-9.32-5.91c-2.19-0.18-4.55-3.21-6.05-5.47c-1.94-2.91-2.25-7.56-7.71-4.66
		c-0.58,0.31-2.29-0.91-3.12-1.76c-8.67-8.92-17.28-17.9-25.88-26.89c-1.38-1.44-3.02-2.81-3.85-4.55
		c-0.82-1.73-2.53-3.21,0.33-5.88c4.34-4.05,2.62-17.77-1.72-22.33c-5.65-5.94-5.38-7.47,1.25-12.44c1.79-1.34,3.74-3.62,3.97-5.65
		c0.55-4.91,3.76-7.92,6.47-11.39c0.77-0.98,2.07-2.09,2.01-3.08c-0.47-8.79,5.03-14.27,10.95-19.14
		c8.24-6.78,17.79-10.64,28.53-12.12c5.63-0.77,10.89-4.46,16.52-5.1c5.93-0.67,8.54-4.84,12.2-7.94c-1.22-3.54-2.4-7-3.03-8.81
		c4.23-3.09,8.1-4.71,10.1-7.62c4.09-5.95,7.66-12.06,15.04-14.56c1.31-0.44,2.5-1.7,3.39-2.86c4.18-5.41,10.12-7.97,15.78-11.42
		c7.42-4.52,15.17-7.59,22.95-11.05c7.42-3.3,8.06-8.6,2.62-14.66c-7.64-8.52-15.47-16.87-23.12-25.38
		c-1.32-1.46-1.87-3.67-3.29-4.97c-7.27-6.63-14.03-13.54-15.05-23.4c-1.27-0.42-1.59-0.63-1.89-0.6c-2.94,0.27-7.33,1.93-8.54,0.63
		c-3.33-3.58-6.13-8.15-7.61-12.81c-1.42-4.48-0.93-9.56-1.26-14.38c-0.55-8.02-6.93-13.49-14.87-12.03
		c-4.75,0.88-6.98-0.29-7.21-5.17c-0.31-6.73-1.04-13.46-1.04-20.19c0-6.91,0.19-13.89,1.22-20.7c0.44-2.95,3.18-5.56,4.88-8.33
		c8.56,1.46,10.48-0.08,12.14-8.47c0.51-2.54,1.95-5.31,3.81-7.07c3.28-3.1,4.42-6.86,2.55-10.33c-2.44-4.53-5.74-8.84-9.49-12.38
		c-5.15-4.87-5.73-12.18-0.21-16.82c2.39-2.02,5-4.16,7.88-5.14c9.11-3.08,14.17-9.65,17.34-18.24c0.37-1,1.29-1.97,2.21-2.58
		c12.28-8.14,17.83-20.49,21.85-33.98c1.03-3.46,3.21-6.69,5.35-9.68c2.48-3.46,5.15-6.95,8.39-9.66c2.65-2.23,6.25-3.33,9.42-4.95
		c1.94-0.99,3.87-2.01,5.8-3.01C162.36,0,162.69,0,163.03,0z"/>
	<path d="M211.47,478.3c1.35,1.03,2.98,1.83,3.99,3.13c2.81,3.59,4.91,3.53,6.72-0.63c1.67-3.83,3.13-7.75,5.33-13.25
		c1.88,0.13,5.55,0.38,9.83,0.67c-3.28,5.1-5.63,9.83-9.02,13.62c-2.13,2.39-5.68,4.26-8.86,4.8c-4.73,0.8-7.36-2.75-9.04-6.83
		C210.77,479.31,211.12,478.81,211.47,478.3z"/>
	<path d="M274.92,398.02c-2.02,10.9-4.28,21.48-12.89,29.49c-3.11,2.9-4.77,7.42-6.89,11.31c-2.58,4.74-4.94,9.59-7.96,14.09
		c1.45-10.74,8.59-18.58,13.52-27.56C265.63,416.35,270.19,407.14,274.92,398.02z"/>
</g>
</svg>
