<?xml version="1.0" encoding="utf-8"?>
<!-- Generator: Adobe Illustrator 23.0.3, SVG Export Plug-In . SVG Version: 6.00 Build 0)  -->
<svg version="1.1" id="Layer_1" xmlns="http://www.w3.org/2000/svg" xmlns:xlink="http://www.w3.org/1999/xlink" x="0px" y="0px"
	 viewBox="0 0 584.27 575.99" style="enable-background:new 0 0 584.27 575.99;" xml:space="preserve">
<g>
	<path d="M25.75,69.48c-1.91-8.22-3.68-15.98-5.54-23.71c-0.81-3.38-2.44-5.91-6.13-7.17c-1.97-0.67-4.36-2.6-4.95-4.46
		C5.82,23.7,2.99,13.11,0.04,2.56C-0.11,2.01,0.19,1.34,0.37,0c2.46,1.57,4.79,2.57,6.5,4.22c8.84,8.55,17.66,17.13,26.18,25.99
		c4.12,4.29,7.3,9.4,13.38,11.57c1.99,0.71,3.4,3.07,5.06,4.69c2.86,2.77,5.39,6.04,8.65,8.23c6.07,4.07,10.2,9.41,13.01,16.02
		c1.84,4.32,4.08,8.12,9.09,9.91c2.24,0.8,4.08,3.39,5.54,5.55c2.88,4.27,6.52,7.11,11.71,7.6c6.34,0.59,10.53,4,12.64,9.8
		c2.15,5.91,4.18,11.9,5.68,18c0.91,3.69,2.69,5.77,6.19,6.99c4.53,1.58,9.08,3.27,13.36,5.42c4.22,2.12,5.76,5.79,4.25,10.5
		c-0.76,2.37-1.3,4.82-2.03,7.2c-1.38,4.49-1.53,8.83,1.17,12.95c0.45,0.69,0.89,1.49,0.99,2.28c1.13,9.31,7.85,12.78,15.66,15.2
		c10.95,3.39,22.07,6.38,32.74,10.52c4.55,1.77,8.74,5.49,12.02,9.26c4.12,4.73,8.46,6.66,14.82,7.14
		c12.54,0.94,24.99,3.2,37.44,5.14c4.87,0.76,8.98-0.45,12.37-3.77c2.7-2.65,5.59-3.31,9.11-2.28c6.86,1.99,13.82,3.68,20.6,5.91
		c5.18,1.7,6.35,4.9,3.63,9.64c-1.18,2.06-3.19,3.74-5.07,5.3c-2.68,2.22-5.97,3.8-8.32,6.29c-14.3,15.13-28.62,30.26-42.43,45.83
		c-3.38,3.81-5.11,9.19-7.11,14.05c-0.51,1.25,0.4,3.67,1.47,4.75c0.56,0.56,3.22-0.18,4.35-1.07c9.35-7.37,17.79-15.46,22.11-27.06
		c1.36-3.65,3.69-7.14,6.27-10.1c6.45-7.4,12.99-14.78,20.08-21.56c8.4-8.03,16.76-7,23.54,2.42c2.69,3.74,5.56,5.04,10.2,3.83
		c9.05-2.37,17.51-1.53,25.57,4.32c6.83,4.96,14.55,8.72,21.94,12.89c2.1,1.18,3.55,2.25,2.3,4.96c-5.03,10.9-0.1,19.5,6.31,27.94
		c5.01,6.6,9.68,13.46,14.29,20.35c2.32,3.46,2.11,7.05-0.11,10.78c-6.75,11.31-13.86,22.3-23.79,31.51
		c-4.89-6.05-9.77-11.73-14.23-17.72c-2.78-3.73-5.62-4.13-9.86-2.56c-49.26,18.23-98.57,36.35-147.91,54.38
		c-7.96,2.91-16.14,5.2-24.2,7.86c-7.02,2.32-13.72,1.76-20.32-1.57c-3.41-1.72-7-3.08-10.53-4.55c-4-1.66-6.31-0.63-6.73,4.02
		c-0.83,9.12-2.01,18.2-2.69,27.33c-0.33,4.47-2.5,6.32-6.62,6.14c-8.82-0.38-17.39-1.38-25.32-6.18c-3.13-1.9-7.52-2.09-11.38-2.33
		c-4.13-0.25-8.3,0.38-12.46,0.59c-4.2,0.22-6.54-1.91-7.28-5.94c-0.93-5.07-1.88-10.15-2.76-15.23c-1.6-9.28-4.97-10.93-13.02-6.65
		c-4.34,2.31-8.81,5.46-13.98,2.33c-3.39-2.05-6.24-3.8-3.73-9.35c4.76-10.5-0.03-20.46-10.3-25.71
		c-12.2-6.23-19.93-16.42-23.81-29.44c-1.43-4.8-0.02-8.6,4.17-12.25c3.06-2.67,4.15-7.58,6.21-11.44c1.75-3.28,3.56-6.53,5.5-9.69
		c1.89-3.09,4.21-5.93,5.92-9.12c1.39-2.6,3.08-3.97,5.95-3.02c5.81,1.92,11.84,3.44,17.28,6.13c8.04,3.97,13.58,3.34,18.48-4.09
		c2.69-4.08,5.87-5.4,10.51-4.72c5.1,0.74,10.25,1.21,15.4,1.54c2.8,0.18,3.93,1.47,3.75,4.08c-0.36,5.36-1.11,10.03-6.49,13.57
		c-4.83,3.18-8.29,8.4-12.5,12.57c-2.47,2.45-5.16,4.68-7.85,6.88c-4.57,3.75-4.63,6.23-0.09,10.01c5.02,4.18,14.87,3.39,19.6-2.03
		c6.44-7.38,13.99-10.06,23.65-7.71c7.98,1.95,14.56-0.99,17.59-8.62c2.14-5.39,3.02-11.52,3.26-17.37c0.21-5.14-2.7-6.22-6.57-2.75
		c-5.41,4.85-11.56,5.41-18.22,4.13c-5.35-1.03-7.03-3.36-5.31-8.44c1.48-4.39,3.17-8.86,5.66-12.72c8.6-13.29,3.96-24.97-3.56-36.6
		c-2.09-3.24-3.43-6.96-5.4-10.29c-4.88-8.25-9.33-16.85-15.11-24.43c-3.74-4.9-7.25-9.53-8.03-15.67
		c-2.11-16.49-4.03-33.01-6.12-49.51c-0.46-3.61-1.04-7.25-2.04-10.73c-1.34-4.62-4.54-7.37-9.26-8.92
		c-4.21-1.38-8.38-3.33-12.08-5.76c-5.53-3.64-6.64-8.69-3.11-14.28c2.65-4.19,2.49-8.01,1.72-12.73c-0.77-4.73,0.5-9.85,1.22-14.75
		c0.7-4.81-0.05-6.09-4.94-6.33c-3.16-0.16-6.33-0.01-9.49-0.01C31.29,69.48,28.31,69.48,25.75,69.48z"/>
	<path d="M493.65,533.46c-3.85,1.54-7.27,3.47-10.94,4.22c-3.57,0.73-7.38,0.15-11.08,0.35c-1.91,0.11-4.02,0.25-5.66,1.11
		c-6.04,3.16-11.96,6.57-17.85,10c-7.38,4.3-15.27,6.83-23.54,9.15c-16.75,4.71-33.14,10.78-49.47,16.84
		c-4.71,1.75-7.48,0.81-10.26-2.78c-5.07-6.54-5.16-14.11-0.53-21.87c2.19-3.67,4.2-7.59,5.41-11.66c1.13-3.79,0.49-7.42-3.91-9.69
		c-1.49-0.77-2.05-3.63-2.67-5.64c-0.24-0.77,0.31-2.02,0.87-2.78c7.17-9.65,6.16-20.49,5.35-31.6
		c-2.48-34.02-0.36-67.93,3.3-101.78c0.25-2.32,0.5-4.64,0.58-6.97c0.62-17.75,10.96-29,25.1-37.78c3.08-1.91,6.14-1.76,7.81,1.27
		c2.43,4.39,5.32,9.11,5.78,13.91c1.79,18.65,0.43,37.22-3.18,55.64c-0.86,4.39-1.08,8.91-0.76,13.92c2.63-3.28,5.83-6.25,7.73-9.91
		c2.22-4.29,5.48-4.83,9.48-4.55c0.99,0.07,1.98,0.29,2.96,0.48c9.42,1.78,10.71,3.46,10.23,13.01c-0.11,2.13-0.02,4.28-0.02,7.08
		c7.76-0.46,15.17,0.57,22.83-2.99c10.81-5.02,22.26-8.79,33.67-12.34c4.09-1.28,8.98-1.09,13.3-0.36
		c9.01,1.54,13.23,9.99,9.86,18.55c-2.58,6.55,1.42,12.03,8.72,11.63c4.65-0.25,9.25-1.22,13.9-1.46c5.36-0.28,7.32,1.52,6.29,6.82
		c-0.79,4.09-2.83,8.09-5,11.72c-1.75,2.93-4.53,5.25-7.09,8.1c5.44,5.67-0.34,15.14,6.32,20.3c3.68-5.06,6.72-9.94,10.47-14.21
		c3.81-4.33,5.79-3.73,8.23,1.63c0.48,1.06,0.83,2.17,1.21,3.27c2.94,8.46,4.92,9.07,12.52,4.01c2.28-1.52,4.77-2.73,7.89-4.49
		c0.65,3.12,1.4,5.31,1.52,7.52c0.52,9.65,0.98,19.3,1.22,28.96c0.18,7.24-2.71,13.35-8.02,18.16c-6.22,5.63-12.38,4.59-16.58-2.49
		c-0.64-1.08-1.58-1.99-3.02-3.78c-1.78,2.71-3.13,4.88-4.6,6.97c-2.79,3.96-5.79,3.92-7.01-0.71c-2.15-8.16-3.1-16.64-4.99-24.88
		c-1.02-4.44-2.91-8.68-4.52-12.97c-0.17-0.45-1.09-0.62-2.56-1.39c-0.47,2.59-1.18,4.71-1.19,6.83c-0.02,5.35-1.84,9.93-5.95,13.21
		c-7.43,5.94-10.72,13.76-11.45,22.95c-0.09,1.16-0.22,2.32-0.41,3.47c-2.78,17.36-10.57,23.17-28.04,20.9
		c-5.11-0.66-6.12-2.82-2.95-6.88c1.94-2.48,4.3-4.63,6.5-6.91C494.69,547.26,496.07,541.28,493.65,533.46z"/>
</g>
</svg>
