<?xml version="1.0" encoding="utf-8"?>
<!-- Generator: Adobe Illustrator 23.0.3, SVG Export Plug-In . SVG Version: 6.00 Build 0)  -->
<svg version="1.1" id="Layer_1" xmlns="http://www.w3.org/2000/svg" xmlns:xlink="http://www.w3.org/1999/xlink" x="0px" y="0px"
	 viewBox="0 0 528.62 211.43" style="enable-background:new 0 0 528.62 211.43;" xml:space="preserve">
<g>
	<path d="M424.5,153.58c2.12,1.62,3.59,2.75,6.05,4.63c-14.83,9.35-27.82,20.2-32.42,38.14c-0.37-0.21-0.73-0.42-1.1-0.63
		c-0.76-2.76-1.51-5.51-2.27-8.27c-0.27,0.06-0.55,0.12-0.82,0.18c0.29,3.7,0.88,7.41,0.75,11.09c-0.08,2.36-0.98,4.81-1.99,7
		c-1.09,2.38-2.71,3.33-5.95,2.85c-3.9-0.58-7.95-0.85-12.17-0.32c-5.76,0.73-11.49,0.68-16.99,3.12c-0.9,0.4-3.26-1.81-4.58-3.17
		c-20.88-21.53-41.75-43.08-62.48-64.75c-2.63-2.75-5.28-3.98-9.08-4.01c-19.49-0.18-38.99-0.6-58.48-0.96
		c-1.79-0.03-3.58-0.22-6.1-0.39c3.98-9.76-3.44-14.86-7.54-21.74c-2.55,1.58-4.77,2.95-7.24,4.49c-0.4-0.91-1.18-1.89-0.95-2.28
		c3.03-5.15,0.18-5.49-4.1-5.77c-21.11-1.38-42.2-3.05-63.3-4.52c-3.31-0.23-6.65,0.13-9.96-0.03c-1.54-0.08-3.05-0.76-4.47-1.14
		c-4.65,1.48-9.49,3-14.33,4.55c-1.09,0.35-2.54,0.46-3.15,1.23c-2.03,2.53-4.12,2.98-7.53,2.92c-4.29-0.07-8.57,2.4-12.95,3.36
		c-4.01,0.88-8.16,1.81-12.22,1.67c-22.14-0.74-44.28-1.79-66.41-2.75c-0.81-0.04-1.62-0.21-2.69-0.36
		c0.71-4.58,1.36-8.99,2.09-13.38c0.78-4.67,3.55-6.24,8.05-4.96c1.95,0.55,4.12,0.93,6.09,0.66c2.92-0.39,5.11-1.01,5.29-5.44
		c0.18-4.2,1.88-8.15,6.57-11.56c8.02-5.83,15.99-6.97,25.27-6.68c3.15,0.1,6.47-3.38,9.63-5.35c4.97-3.1,9.7-6.64,14.88-9.32
		c2.46-1.27,5.73-0.95,8.64-1.35c0.51,0.58,1.01,1.16,1.52,1.75c1.58-3.74,2.85-7.66,4.87-11.14c0.94-1.61,3.34-2.37,5.43-3
		c2.55-2.38,4.93-4.97,7.68-7.07c2.52-1.91,4.36-1.67,4,2.3c-0.11,1.27,0.24,3.41,0.99,3.74c1.05,0.45,2.99-0.02,3.99-0.81
		c1.79-1.4,3.67-3.09,4.61-5.09c2.81-6.02,8.89-5.8,13.84-7.34c1.4-0.44,3.76,2.23,6.4,4.87c2.53-2.53,5.3-4.87,7.51-7.66
		c1.94-2.45,2.89-5.72,4.94-8.05c2.74-3.12,5.96-6.19,10.32-2.52c0.78-5.91,1.36-11.29,2.24-16.61c0.66-3.99,3.67-3.89,6.89-3.61
		c52.01,4.61,104.15,5.62,156.31,4.7c58.64-1.04,117.27-2.83,175.9-4.29c0.81-0.02,1.63,0,2.52,0c-2.12,6.39,5.54,8.19,4.56,13.85
		c0.49-0.13,0.99-0.26,1.48-0.38c0.48-0.88,0.95-1.76,1.03-1.9c3.08,7.92,6.28,16.17,9.48,24.41c-0.46,0.26-0.92,0.53-1.38,0.79
		c-0.98-1.89-1.96-3.77-2.92-5.67c-1.04-2.07-2.02-4.17-3.08-6.22c-1.07-2.07-2.21-4.1-3.63-6.72c0.65,4.24,1.18,7.74,1.9,12.5
		c-5.09-3.79-9.58-7.14-14.07-10.48c-0.19,0.27-0.38,0.54-0.57,0.81c3.03,3.31,6.05,6.62,9.5,10.4c-6.41,2.57-10.87,1.63-14.94-2.82
		c1.41,2.2,2.83,4.39,4.24,6.59c-0.2,0.38-0.39,0.75-0.59,1.13c-4.38-2.17-8.76-4.34-13.14-6.51c-0.14,0.21-0.28,0.42-0.42,0.62
		c2.3,1.66,4.6,3.32,7.78,5.62c-2.81,0.3-4.52,0.48-6.23,0.66c0.22,0.25,0.45,0.5,0.67,0.74c-2.29,1.68-4.38,3.97-6.95,4.8
		c-1.47,0.48-3.71-1.41-6.28-2.53c-1.27,0.71-2.89,2.1-4.24-2.21c-1.58-5.04-2.56-9.43,0.72-14.05c0.51-0.72-0.14-2.28-0.25-3.45
		c-0.61-0.01-1.22-0.02-1.83-0.04c-0.5,5.29-1.18,10.56-1.39,15.86c-0.06,1.66,1.33,3.33,1.73,5.07c0.5,2.18,0.68,4.44,1.2,8.13
		c3.93-0.73,9.1-1.81,14.31-2.59c1.79-0.27,3.68,0.27,5.53,0.39c1.85,0.12,3.48,2.22,5.43-1.07c2.49-4.21,12.29-4.36,16.22-1.07
		c-0.78,0.73-1.56,1.46-2.34,2.2c0.84,0.44,1.68,0.89,1.75,0.92c-0.75,6.89-1.47,13.41-2.2,20.15c0.9,0.22,2.35,0.58,4.94,1.22
		c0.46-4.98,0.92-9.81,1.33-14.63c0.46-5.49,2.08-7.13,7.5-7.42c-0.38-0.97-0.75-1.91-1.12-2.86c0.44-0.34,0.89-0.68,1.33-1.03
		c1.74,2.2,4.33,4.16,5.04,6.65c1.3,4.6,1.62,9.51,1.99,14.32c0.05,0.61-2.08,1.38-3.77,2.43c0.45,1.01,1.14,2.57,2,4.5
		c-0.86,1.17-1.97,2.67-3.25,4.42c-1.76-0.88-3.55-1.78-4.92-2.46c-3.36,4.56-7.04,9.45-10.6,14.42c-1.04,1.45-1.34,3.74-2.66,4.63
		c-4.67,3.14-9.09,0.55-13.95-1.07c-0.24,0.41-0.71,1.21-1.66,2.81c-1.23-3.18-2.14-5.54-3.01-7.78c-1.44,1.3-3.13,2.82-5.56,5.02
		c-0.38-2.79-0.68-4.93-0.97-7.06c0.38-0.14,0.76-0.28,1.15-0.42c-1.2-0.72-2.39-1.45-4.17-2.52c2.67-1.47,7.89,1.69,6.76-3.64
		c-4.08,0-7.96,0-12.35,0c1.13,0.96,1.94,1.66,2.98,2.54c-1.25,0.78-2.44,1.52-5.11,3.19c8.19-2.1,4.01,3.47,6.97,6.19
		c-8.96-1.69-16.39-3.08-24.1-4.54c0.18,0.95,0.4,2.17,0.4,2.14c6.84,2.99,13.03,5.69,20.32,8.88c0.09,0.19,0.72,1.61,1.3,2.91
		c0.91-1.24,2.06-3.43,2.51-3.29c2.15,0.64,4.16,1.83,6.05,3.07c0.19,0.12-0.44,2.39-1.19,2.88c-2.97,1.92-6.19,3.44-9.2,5.29
		c-0.9,0.55-1.44,1.69-2.21,2.64c3.2-0.42,6.26-0.83,9.31-1.23c0.22,0.28,0.44,0.55,0.66,0.83c-2.03,1.25-4.05,2.51-6.26,3.88
		c0.69,0.39,1.62,0.91,2.53,1.42c-3.76,2.92-7.45,5.86-11.25,8.67c-0.53,0.39-1.87,0.48-2.28,0.11c-3.47-3.15-6.83-6.41-10.18-9.69
		c-1.37-1.34-2.61-2.8-4.45-4.79c0.48,3.19,0.77,5.15,1.12,7.43c0.11-0.05,0.87-0.4,1.42-0.65c2.53,3.8,5.05,7.59,7.49,11.26
		c3.81-1.26,7.14-0.9,9.43,3.26c2.29-1.79,2.54-7.6,7.36-3.8c0.51-1.59,0.97-3.01,1.43-4.43c1.11,0.86,2.22,1.73,3.18,2.47
		c0.43-1.12,0.91-2.38,1.4-3.65c1,0.55,2.01,1.1,3.11,1.71c0.49-2.27,1.04-4.77,1.87-8.6c1.77,4.56,2.94,7.81-0.55,11.2
		c0.37,0.23,0.74,0.47,1.11,0.7c2.52-1.59,5.04-3.19,8.11-5.12c0.26,0.67,1.42,2.48,1.47,4.32c0.02,0.85-2.1,1.76-2.54,3.16
		c-0.6,0.99-1.16,2.78-1.81,2.82c-2.51,0.14-3.2,1.94-4.23,3.6c-1.75,2.81-3.58,5.57-6.09,9.43c-1.22-1.64-2.46-3.29-3.7-4.94
		c-0.68,2.05-1.36,4.1-2.26,6.83c-1.6-2.83-2.64-4.68-3.49-6.18c-1.45,2.25-2.48,4.83-3.15,4.74c-6.48-0.87-12.52,0.23-18.35,3.04
		c-0.7,0.34-1.6,0.25-2.02,0.3c-0.91-2.17-1.73-4.12-2.54-6.06c1.36,9.81-9.18,10.13-11.64,16.76c-2.18-1.59-3.61-2.64-5.04-3.69
		c2.94-4.33,1.67-9.08-2.82-10.88C423.89,146.97,434.13,151.54,424.5,153.58z"/>
</g>
</svg>
