<?xml version="1.0" encoding="utf-8"?>
<!-- Generator: Adobe Illustrator 23.0.3, SVG Export Plug-In . SVG Version: 6.00 Build 0)  -->
<svg version="1.1" id="Layer_1" xmlns="http://www.w3.org/2000/svg" xmlns:xlink="http://www.w3.org/1999/xlink" x="0px" y="0px"
	 viewBox="0 0 599.99 360.62" style="enable-background:new 0 0 599.99 360.62;" xml:space="preserve">
<g>
	<path d="M1.84,360.62C1.22,240.29,0.61,120.34,0,0c182.08,0,363.8,0,545.36,0c3.38,11.78,7.01,23.46,9.96,35.31
		c0.82,3.28,0.52,7.47-0.85,10.54c-2.32,5.21-2.54,10-1.27,15.46c0.86,3.69,0.11,7.76,0.05,11.66c-0.01,0.83-0.35,1.73-0.12,2.47
		c2.48,7.66,1.02,15.45,1.08,23.21c0.03,3.72,1.24,7.54,2.48,11.12c2.16,6.22,4.98,12.22,7.05,18.47c0.78,2.35-0.35,5.33,0.45,7.67
		c2.2,6.51,5.07,12.79,7.46,19.24c3.51,9.46,5.14,19.18,3.81,29.32c-0.26,1.99,0.41,4.11,0.76,6.16c0.16,0.96,0.77,1.87,0.8,2.81
		c0.31,9.27,0.36,18.55,0.85,27.81c0.37,7.03,1.18,14.05,2.02,21.04c0.15,1.23,1.53,2.28,2.2,3.49c0.5,0.9,1.36,2.21,1.06,2.86
		c-4.53,9.5,0.02,19.64-2.22,29.27c-0.07,0.31-0.1,0.73,0.05,0.99c6.25,11.26,3.16,26.15,13.87,35.74c1.11,1,1.73,2.89,1.98,4.46
		c1.12,7.13,2.06,14.28,3,21.44c0.17,1.31,0.18,2.66,0.09,3.98c-0.35,5.19-0.77,10.37-1.2,16.1
		C400.68,360.62,201.69,360.62,1.84,360.62z"/>
</g>
</svg>
