<?xml version="1.0" encoding="utf-8"?>
<!-- Generator: Adobe Illustrator 23.0.3, SVG Export Plug-In . SVG Version: 6.00 Build 0)  -->
<svg version="1.1" id="Layer_1" xmlns="http://www.w3.org/2000/svg" xmlns:xlink="http://www.w3.org/1999/xlink" x="0px" y="0px"
	 viewBox="0 0 591.84 405.57" style="enable-background:new 0 0 591.84 405.57;" xml:space="preserve">
<style type="text/css">
	.st0{fill:#FFFFFF;}
</style>
<g>
	<path d="M496.81,123.97c1.95-0.87,4.12-1.44,5.8-2.67c10.8-7.86,21.44-15.94,32.28-23.74c2.19-1.57,5.01-2.26,7.27-4
		c-4.61-0.42-8.62-0.63-12.33,3.46c-4.42,4.88-10.11,8.62-15.36,12.71c-0.99,0.78-2.49,0.91-4.17,0.63
		c10.96-9.86,17.68-24.37,32.64-29.09c2.82,3.67,5.21,6.79,7.87,10.26c-1.32,1.7-2.82,3.63-4.37,5.63c1.29,1.35,2.6,2.73,4.76,4.99
		c0-2.34-0.45-3.92,0.09-4.99c1.41-2.77,2.68-6.45,5.08-7.66c2.59-1.3,6.61-1,7.97,3.56c0.24,0.8,2.8,1.09,4.33,1.29
		c2.96,0.38,5.81,0.69,4.78,4.69c3.72-0.64,7.14-1.22,11.39-1.95c-2.49,3.83-4.35,6.69-6.22,9.56c0.3,0.2,0.6,0.41,0.91,0.61
		c1.27-0.6,2.55-1.19,3.82-1.79c0.19,0.29,0.37,0.58,0.56,0.87c-3.63,2.58-7.25,5.17-11.13,7.94c0.86,3.45,0.86,3.45,9.74,2.41
		c1.38,2.41,2.74,4.79,4.18,7.3c-6.77,1.85-13.11,3.02-19.85,8.94c-2.28,0.93-8.09-2.71-12.36,2.69c2.9,1.79,5.46,3.38,8.55,5.29
		c-4.27,1.35-7.52,2.3-10.7,3.42c-1.06,0.37-2.7,1.03-2.84,1.78c-0.99,5.6-5.8,5.54-9.68,7.05c-2.13,0.83-3.94,2.43-6.02,3.43
		c-2.04,0.99-4.42,2.66-6.33,2.31c-6.87-1.25-11.99,3.27-18.01,4.7c-2.82,0.67-5.47,2.02-8.2,3.07c0.06-0.46,0.12-0.93,0.17-1.39
		c-1.91-0.93-3.86-1.8-5.73-2.81c-2.18-1.19-4.29-2.5-6.6-3.85c-7.84,3.04-16.46,6.39-25.31,9.82c-2.29-3.16-5.06-5.11-9.26-2.79
		c-3.02,1.67-3.66,3.07-0.48,5.34c6,4.29,5.59,7.6-1.31,10.73c-5.59,2.54-11.31,4.83-16.97,7.23c-0.05,0.54-0.09,1.09-0.14,1.63
		c1.81,0.51,3.62,1.45,5.43,1.46c6.16,0.04,12.34-0.57,18.49-0.31c6.1,0.26,12.21,1.06,18.22,2.12c1.77,0.31,3.24,2.31,4.24,3.08
		c-1.88,2.89-3.32,5.12-4.77,7.34c-0.43,0.66-0.79,1.64-1.4,1.87c-1.79,0.65-3.69,0.99-5.55,1.46c0-1.55,0-3.1,0-4.88
		c-4.71-1.13-4.18,2.81-4.31,6.99c-1.42-2.1-2.19-3.24-2.34-3.47c-2.97-0.45-5.05-0.66-7.08-1.09c-2.81-0.6-7.32,3.39-7.47,6.31
		c-0.05,0.98-1.36,2.58-2.26,2.7c-5.76,0.78-11.57,1.64-17.36,1.62c-2.96-0.01-5.91-1.78-8.17-2.53c0.73,2.6,1.56,5.56,2.77,9.88
		c-2.97-1.29-4.88-2.88-6.65-2.75c-3.81,0.3-7.6,1.32-11.28,2.42c-0.99,0.29-1.41,2.13-2.38,2.91c-4.08,3.26-6.01-0.11-8.06-3.08
		c-1.99,0.87-3.82,1.68-6.44,2.83c1.77,0.87,2.88,1.42,4.8,2.37c-7.76,1.3-14.76,2.05-21.51,3.79c-3.39,0.88-6.32,3.56-9.45,5.44
		c-0.25,0.15-0.35,0.59-0.6,0.7c-4.57,2.04-7.24,4.57-9.39,9.49c-0.74-2.27-1.25-3.84-1.66-5.09c-2.32,0.77-4.64,1.53-7.61,2.52
		c0.57,1.37,1.3,3.11,2.62,6.28c-1.84-1.43-2.41-2.14-3.15-2.39c-1.85-0.64-4.71-2.12-5.49-1.42c-3.76,3.39-8.36,2.85-12.67,3.65
		c-3.13,0.58-5.03,2-4.95,5.57c0.02,0.73-1.59,2.13-2.45,2.13c-4.37,0.02-8.73-0.32-13.74-0.57c-0.05-0.62-0.23-2.72-0.45-5.28
		c-1.47,0.16-2.82,0.3-4.54,0.48c0.91,3.42,6.56,6.88-0.36,9.68c-1.91-4.13-3.83-8.27-5.84-12.6c-0.84,3.53-1.66,6.96-2.77,11.6
		c-1.31-2.01-1.86-2.86-2.42-3.72c-1.21,1.48-2.42,2.95-3.9,4.76c-1.31-2.26-2.34-4.01-3.52-6.05
		c-4.96,11.94-4.98,12.05-12.69,10.47c-1.32-0.27-2.37-1.85-3.55-2.83c0.16-0.51,0.32-1.01,0.48-1.52
		c-1.34,0.38-2.67,0.76-4.58,1.31c0.62,0.89,1.14,1.3,1.22,1.78c0.32,1.9,0.5,3.82,0.74,5.74c-1.62-0.09-3.49,0.3-4.81-0.38
		c-3.15-1.61-6.04-3.73-8.94-5.58c1.74,5.51,3.74,10.82,4.95,16.31c0.34,1.56-1.53,3.69-2.64,5.39c-0.12,0.19-1.97-0.76-3.65-1.44
		c-0.28,0.37-1.01,1.36-1.59,2.13c-5.17-0.71-10.19-1.4-15.81-2.17c-0.51-1.39-0.3-5.23-4.68-1.53c-2.87,2.43-7.73-0.62-7.22-4.5
		c0.68-5.12,2.38-10.09,3.54-14.74c-3.25,1.15-7.97,2.36-12.14,4.61c-1.12,0.6-1.01,4.43-0.61,6.63c0.36,2,1.88,3.78,1.49,4.72
		c-0.78,1.51-1.41,3.12-2.37,4.5c-0.66,0.95-1.77,1.59-2.68,2.38c-0.86-1.11-2.04-2.11-2.5-3.37c-0.42-1.17,0.4-2.89-0.17-3.88
		c-0.98-1.7-2.43-3.33-4.08-4.31c-0.48-0.28-2.68,1.54-3.49,2.79c-1.69,2.59-1.53,2.69-7.47-0.21c-2.6,3.69,1.58,10.21-6.53,12.66
		c2.31,2.12,4.05,3.72,5.94,5.44c0.11-0.16-0.3,0.44-0.82,1.19c2.39,0.53,4.67,1.03,6.96,1.53c-0.05,0.43-0.09,0.85-0.14,1.28
		c-3.27-0.18-6.54-0.37-11.16-0.63c1.43,2.24,2.35,3.69,3.28,5.13c0.32-0.16,0.64-0.31,0.96-0.47c0.06-0.81,0.11-1.62,0.17-2.43
		c0.77,0.16,2.2,0.28,2.21,0.47c0.06,1.27-0.19,2.55-0.35,3.87c1.03,0.24,2.13,0.49,3.22,0.74c-2.05,4.79-5.37,4.23-9.09,2.18
		c-4.29,5.09-8.51,10.08-13,15.41c-2.29,0-5.25,0-8.2,0c0,0.39-0.01,0.78-0.01,1.17c1.48,0.52,2.95,1.04,4.4,1.55
		c-1.13,6.02-2.74,6.88-13.29,7.56c0.97,1.68,3.22,4.9,2.92,5.16c-2.66,2.29-5.68,4.22-8.78,5.92c-2.17,1.19-4.64,1.86-7.71,3.04
		c2.42,2.56,3.76,3.98,5.26,5.58c-1.71,1.91-3.3,3.69-5.64,6.3c-1.29-2.88-2.36-5.26-3.43-7.64c-0.73,0.67-1.46,1.35-2.19,2.02
		c0.52,2.53,1.04,5.06,1.55,7.6c-0.55,0.27-1.1,0.54-1.64,0.81c-1.68-2.31-3.35-4.63-5.03-6.94c-0.39,0.16-0.77,0.32-1.16,0.48
		c0.65,1.67,1.93,3.39,1.78,4.98c-0.19,2.01-1.56,3.91-2.42,5.85c-1.11-1.19-2.34-2.29-3.29-3.59c-0.73-1.02-1.1-2.29-2.01-3.43
		c-0.45,4.35,4.83,10.17-3.73,12.13c-0.18-1.13-0.39-2.44-0.73-4.54c-1.68,3.05-2.99,5.44-4.31,7.84c-0.33-0.05-0.65-0.09-0.98-0.14
		c0.26-1.97,0.52-3.94,0.87-6.55c-1.16,1.57-1.97,2.67-3.14,4.26c-1.6-3.73-3-6.96-4.39-10.2c-0.56,0.14-1.11,0.28-1.67,0.43
		c0.43,2.14,1.26,4.3,1.17,6.42c-0.09,2.24-1.06,4.45-1.65,6.67c-1.95-0.62-3.99-1.05-5.78-1.98c-0.5-0.26-0.32-1.94-0.36-2.98
		c-0.05-1.48-0.01-2.95-0.01-4.43c-0.75-0.1-1.5-0.21-2.26-0.31c-0.37,2.01-1.49,4.24-0.96,5.97c1.02,3.32,2.24,6.2-0.75,9.19
		c-0.6,0.6-0.09,2.31-0.09,3.72c-2.36-0.29-4.91-0.61-7.72-0.95c0.46,0.86,1.03,1.93,1.61,3.02c-5.68,1.05-4.23,5.96-4.71,10.74
		c-3.52-4.58-6.31-8.22-9.22-12.02c-2.81,2.37-5.49,4.65-8.84,7.48c2.28,0.62,3.61,0.98,5.62,1.53c-1.91,2.96-3.57,5.55-5.39,8.37
		c-1.56-1.72-2.81-3.1-4.06-4.48c4.81-3.44,4.67-4.12-0.81-6.86c-0.88-0.44-1.51-1.94-1.72-3.05c-0.29-1.49-0.07-3.08-1.06-4.73
		c-0.26,0.61-0.52,1.22-0.94,2.21c-5.43-3.74-0.29-9.17-2.54-13.67c-0.58,0.34-1.15,0.68-1.44,0.84
		c-3.39-5.63-6.78-11.27-10.51-17.46c-1.67,2.19-2.79,3.64-4.36,5.69c-1.14-2.94-2.02-5.24-2.91-7.54
		c-0.48,0.14-0.95,0.28-1.43,0.42c0.65,2.73,1.06,5.55,2.01,8.17c1.25,3.45,1.4,3.32-1.44,5.15c-0.52,0.34-0.59,1.39-1.19,2.96
		c-1.03-2.31-1.72-3.84-2.59-5.8c-0.95,0.89-1.7,1.59-2.84,2.66c-0.13-1.69-0.24-3.03-0.37-4.73c-1.27,0.67-2.24,1.18-3.84,2.03
		c0-3.73,0-7.11,0-10.43c-3.35,0.3-4.52-1.62-3.67-5.7c1.59-7.66,2.26-15.09-2.64-22.35c-1.37-2.03,0.41-6.51,1.36-9.68
		c1.26-4.22,3.91-8.14,4.59-12.41c1.69-10.62,9.01-16.89,16.46-23.19c2.4-2.03,5.23-3.56,7.63-5.59c0.89-0.76,1.12-2.3,1.95-4.13
		c-5.3,0.12-9.3,0.14-12.76,3.68c-5.87,6.01-12.17,11.6-18.61,17c8.64-14.58,23.12-22.47,37.37-32.32
		c0.95,3.67,1.81,6.99,2.86,11.07c8.42-1.88,13.62-8.74,19.64-14.44c-6.11,2.59-12.22,5.18-18.33,7.76
		c-0.44-0.42-0.88-0.83-1.32-1.25c1.41-2.08,2.48-4.52,4.3-6.14c2.46-2.2,5.37-3.95,8.27-5.57c11.02-6.12,22.18-11.99,33.16-18.18
		c8.66-4.88,17.4-9.69,25.63-15.24c11.96-8.07,25.07-12.82,39.05-15.73c3.01-0.62,6-2.04,8.57-3.74c1.57-1.04,2.73-3.22,3.21-5.1
		c0.14-0.55-2.66-1.9-4.17-2.79c-0.53-0.31-1.21-0.37-1.69-1.2c3.61,0.63,7.31,0.96,10.79,2c2.3,0.69,4.18,2.27,1.77,5.21
		c-1.09,1.33-1.88,3.19-2.09,4.9c-0.59,4.79-0.81,9.63-1.18,14.45c0.69,0.19,1.38,0.38,2.07,0.57c1.15-1.56,2.3-3.12,3.42-4.64
		c8.38,2.99,14.45,9.6,15.45,16.32c1.25-1.75,2.51-3.5,3.47-4.83c-3.25-3.54-6.11-6.65-8.81-9.59
		c7.45-13.32,20.94-13.57,32.57-17.45c3.69-1.23,7.21-2.96,10.86-4.31c1.16-0.43,2.49-0.46,3.75-0.55c3.78-0.29,7.6-0.88,11.35-0.64
		c2.5,0.16,4.93,1.52,7.35,2.34c2.1-1.75,4.82-4.03,7.62-6.36c-12.21-1.52-24.23-6.1-36.9-4.05c-3.39,0.55-6.5,2.77-10.09,4.39
		c-0.25-5.1-3.78-4.17-7.38-3.88c-2.12,0.17-4.33-1.12-6.49-1.1c-4.73,0.04-9.5,0.17-14.17,0.84c-5.59,0.8-11.07,2.43-16.66,3.22
		c-1.55,0.22-3.32-1.29-5.01-1.95c-6.65-2.59-13.41-4.47-19.95-0.08c-1.58,1.06-2.1,3.58-3.36,5.25c-1.28,1.7-2.87,3.18-4.46,4.9
		c-2.65-6.49-8.39-8.01-18.15-4.18c1.75-4.5,2.14-8.91,4.56-11.04c5.26-4.65,11.58-8.09,17.38-12.13c1.94-1.35,3.64-3.05,5.42-4.61
		c0.61-0.53,1.09-1.24,1.75-1.68c4.99-3.39,10.03-6.69,14.98-10.13c0.89-0.62,1.88-1.68,2.04-2.66c1.01-6.49,5.76-9.83,10.66-13.07
		c0.45-0.3,1.16-0.2,3.1-0.49c-1.82,3.15-3.11,5.38-4.4,7.61c0.47,0.38,0.94,0.75,1.41,1.13c0.24-1.7,2.35,0.67,2.67-3.56
		c0.61-8.1,6.43-14.56,12.15-20.36c0.89-0.9,2.76-0.86,4.19-1.19c1.28-0.3,3.35-0.1,3.73-0.82c2.19-4.1,5.24-3.46,8.38-1.8
		c2.63,1.4,5.14,3.09,7.53,4.88c4.14,3.1,8.15,6.39,12.7,9.98c-0.53,0.24-1.55,0.69-2.9,1.29c3.11,0.38,5.31,0.64,7.9,0.96
		c0-0.04,0.09-1.52,0.18-3c6.92-0.16,13.88-3.18,20.58,1.19c-1.27,0-2.55,0-4.55,0c1.48,1.34,2.57,2.33,4.57,4.14
		c-3.32,0-5.7,0-8.08,0c-0.02,0.68-0.05,1.36-0.07,2.04c8.02,0,16.04,0,24.06,0c0.14,0.4,0.29,0.81,0.43,1.21
		c-4.09,1.48-8.17,2.96-12.06,4.36c3.47,4.26,8.26,4.28,16.09-0.67c-0.38,1.67-0.68,2.96-1.01,4.44c3.94-1.07,7.8-2.13,12.22-3.33
		c-0.94-1.21-2.01-2.6-3.44-4.44c12.65,2.1,24.75,4.1,36.85,6.11c0.08-0.21,0.15-0.42,0.23-0.64c-1.28,0.28-2.57,0.57-5.3,1.17
		c4.83,1.39,8.28,2.39,11.72,3.38c0.06,0.62,0.11,1.23,0.17,1.85c-4.11,1.67-8.21,3.33-12.32,5c3.63,0.07,4.15,1.91,2.5,4.98
		c3.62-2.25,6.67-5.5,10.09-5.94c3.91-0.5,8.15,1.48,12.55,2.45c-0.59,1.46-1.25,3.1-1.91,4.74c0.25,0.24,0.51,0.48,0.76,0.72
		c3.76-2.26,7.51-4.52,11.27-6.78c-0.09-0.31-0.18-0.62-0.27-0.92c-1.35,0-2.69,0-4.04,0c15.36-2.89,27.21-11.83,38.74-21.47
		c2.04-1.71,4.92-2.42,6.65-3.24c0.23,4.51,0.35,8.03,0.62,11.54c0.07,0.97,0.79,1.88,0.87,2.85c0.82,10.27,9.9,11.6,16.75,14.61
		c3.38,1.49,7.77-0.21,10.98-3.61c2.49-2.64,5.94-4.36,10.3-7.42c-1.04-3.21-2.83-8.05-4.17-13.01c-1.16-4.3-1.83-8.74-2.7-13.11
		c-0.1-0.49-0.15-0.99-0.19-1.48c-0.51-7.17-0.45-7.28,4.67-12.87c0.53-0.58,1.09-1.43,1.09-2.16c-0.02-6.71,4.71-10.13,9.61-12.79
		c7.06-3.82,10.31-10.49,14.26-16.74c1.32-2.08,2.58-4.29,4.28-6.03c3.49-3.59,7.27-6.83,7.58-12.43c0.07-1.27,1.73-2.37,2.32-3.71
		c0.54-1.24,0.78-2.66,0.87-4.03c0.14-2.05,0.04-4.11,0.04-6.17c0.58,0,1.16,0,1.74,0.01c-0.07,1.22-0.14,2.44-0.2,3.66
		c0.39,0.16,0.77,0.32,1.16,0.48c3.18-5.75,6.12-11.65,9.63-17.18c1.9-2.99,4.29-6.48,7.3-7.81c8.59-3.78,12.69-10.87,16.09-18.77
		c2.7-6.27,4.24-7.37,10.28-4.34c3.99,2,6.94,2.25,10.34-0.53c0.72-0.59,2.11-0.35,4.91-0.72c-4.07,5.44-7.27,9.72-10.14,13.57
		c1.1,1.54,1.85,3.72,3.19,4.19c2.3,0.8,5.19,1.24,7.45,0.57c4.52-1.35,5.81,0.99,5.34,4.38c-0.7,5.07-2.01,10.1-3.57,14.98
		c-0.43,1.36-2.62,2.15-4.01,3.21c4,3.29,4.34,5.74,1.52,10.08c-0.9,1.39-1.98,2.81-2.39,4.37c-2.96,11.26-9.89,20.5-15.28,30.52
		c-0.99,1.84-1.52,3.92-1.91,6.11c4.47-5.06,7.81-11.2,14.47-13.65c0.57,0.29,1.14,0.57,1.71,0.86c-0.95,2.49-1.36,5.44-2.97,7.39
		c-3.81,4.61-8.18,8.74-12.33,13.06c-3.26,3.4-6.61,5.86-11.91,6.02c-3.36,0.1-6.53,4.1-9.97,4.42c-5.61,0.52-9.26,2.7-12.73,7.06
		c-1.77,2.23-5.87,2.56-8.85,3.91c-1.68,0.76-3.23,1.84-4.49,3.36c5.32,0.32,10.31,1.25,13.91-4.31
		c3.06-4.72,16.74-10.01,21.97-9.54c-2.54,4.47-4.99,8.79-7.44,13.11c-3.38,1.17-6.69,2.93-10.16,3.35
		c-5.42,0.65-10.45,1.66-15.24,6.23c5.36,0.08,10.14-6.18,14.56,0.45c-1.86,1.32-3.5,2.78-5.4,3.76c-3.56,1.83-7.33,3.27-10.88,5.13
		c-1.05,0.55-2.15,1.88-2.35,3c-0.33,1.85,0.07,3.82,0.2,6.62c2.7,1.57,6.3,1.73,9.93-1.11c1.96-1.53,4.03-3.07,6.29-4.01
		c4.24-1.75,8.26-0.59,11.54,2.36c3.65,3.28-0.72,5.08-1.75,7.49c-0.11,0.26-0.08,0.57-0.12,0.87c1.36-0.69,2.85-1.18,4-2.09
		c1.82-1.45,5.16-3.94,4.84-4.67c-2.74-6.25,0.29-8.95,5.58-10.76c0.58-0.2,1.17-0.71,1.51-1.24c4.2-6.38,10.23-10.4,16.95-13.7
		c2.12-1.04,3.83-2.91,5.73-4.4c-6.24,1.49-11.83,4.19-17.66,6.14c-4.33,1.45-8.92,8.36-13.57,0.25c-0.15-0.27-1.14,0.01-1.39-0.28
		C498.49,126.33,497.68,125.13,496.81,123.97z"/>
	<path d="M478.84,179.35c0.17-1.05,0.33-2.1,0.38-2.42c-3.6-1.88-6.83-3.56-10.34-5.4c7.2-8.26,14.76-5.28,22.4-3.19
		c-1.04,0.41-2.23,0.62-3.08,1.27c-1.47,1.13-3.02,2.34-4.03,3.86c-1.41,2.14-2.36,4.58-3.51,6.9
		C480.07,180.03,479.45,179.69,478.84,179.35z"/>
	<path d="M558.57,348.41c11.64,1.68,22.8,3.12,33.28-3.13C585.83,354,566.85,355.69,558.57,348.41z"/>
	<path d="M8.89,299.8c-2.53,3.47-5.05,6.94-7.58,10.41c-0.44-0.28-0.87-0.57-1.31-0.85c2.31-3.65,4.61-7.31,6.92-10.96
		C7.58,298.87,8.23,299.34,8.89,299.8z"/>
	<path class="st0" d="M496.81,123.97c0.87,1.16,1.68,2.36,2.64,3.44c0.25,0.28,1.24,0.01,1.39,0.28c4.65,8.11,9.24,1.2,13.57-0.25
		c5.83-1.95,11.41-4.65,17.66-6.14c-1.9,1.49-3.61,3.36-5.73,4.4c-6.72,3.3-12.75,7.32-16.95,13.7c-0.35,0.52-0.93,1.04-1.51,1.24
		c-5.3,1.81-8.32,4.51-5.58,10.76c0.32,0.73-3.01,3.22-4.84,4.67c-1.15,0.91-2.64,1.4-4,2.09c0.04-0.3,0.01-0.62,0.12-0.87
		c1.03-2.41,5.4-4.21,1.75-7.49c-3.28-2.95-7.3-4.12-11.54-2.36c-2.27,0.94-4.34,2.48-6.29,4.01c-3.64,2.84-7.23,2.68-9.93,1.11
		c-0.13-2.8-0.53-4.78-0.2-6.62c0.2-1.13,1.3-2.45,2.35-3c3.55-1.86,7.32-3.29,10.88-5.13c1.89-0.98,3.54-2.44,5.4-3.76
		c-4.42-6.63-9.2-0.37-14.56-0.45c4.79-4.57,9.82-5.58,15.24-6.23c3.47-0.41,6.78-2.18,10.16-3.35
		C496.81,124.01,496.81,123.97,496.81,123.97z"/>
</g>
</svg>
