<?xml version="1.0" encoding="utf-8"?>
<!-- Generator: Adobe Illustrator 23.0.3, SVG Export Plug-In . SVG Version: 6.00 Build 0)  -->
<svg version="1.1" id="Layer_1" xmlns="http://www.w3.org/2000/svg" xmlns:xlink="http://www.w3.org/1999/xlink" x="0px" y="0px"
	 viewBox="0 0 491.34 542.71" style="enable-background:new 0 0 491.34 542.71;" xml:space="preserve">
<g>
	<path d="M351.78,464.43c-3.27-1.66-5.23-2.65-7.45-3.77c-1.63,2.77-2.92,5.65-4.87,7.96c-0.87,1.03-3.09,0.92-4.7,1.32
		c0.05-1.6-0.56-3.77,0.26-4.7c2.78-3.2,0.94-6.08-0.84-8.06c-2.78-3.11-6.4-5.49-9.81-7.99c-0.48-0.35-2.01,0.17-2.66,0.74
		c-2.46,2.16-5.48,4.13-6.96,6.88c-2.85,5.28-4.67,11.11-7.18,16.59c-1.16,2.52-2.49,5.31-4.56,6.98c-3.53,2.86-5.28,5.38-2.04,9.52
		c0.86,1.1,1.24,2.73,1.44,4.17c0.76,5.35,1.43,10.71,1.98,16.08c0.36,3.54-1.78,5.1-5.86,4.5c-6.29-0.94-7.77,0.04-9.14,6.4
		c-0.81,3.73-1.4,7.52-2,11.29c-0.57,3.61-2.28,5.15-6.24,5.62c-5.83,0.69-11.5,2.72-17.28,3.96c-7.6,1.63-6.99,1.2-10.61-5.48
		c-2.78-5.14-7.21-9.49-11.33-13.77c-1.26-1.31-3.94-1.64-6-1.72c-6.66-0.26-10.53-4.11-10.89-10.75
		c-0.29-5.5-0.76-11.02-1.61-16.46c-0.51-3.31-3.34-3.39-5.88-2.47c-3.44,1.25-6.44,4.1-10.57,2.64c-0.24-0.09-0.78,0.1-0.91,0.32
		c-2.76,4.65-9.22,5.3-11.27,11.04c-1.46,4.07-5.36,6.37-9.74,4.77c-4.3-1.56-7.68-1.16-10.61,2.31c-0.67-0.44-1.36-0.65-1.41-0.97
		c-1.26-7.59-7.13-9.28-13.36-10.52c-1.29-0.26-3.01-0.09-3.81-0.87c-5.42-5.26-11.52-3.06-17.39-1.58
		c-1.45,0.37-3.02,2.45-3.51,4.05c-1.28,4.2-2.91,6.25-7.32,3.25c-1.46-0.99-3.41-1.24-5.14-1.84c-0.77-0.27-2.19-0.57-2.19-0.87
		c-0.09-6.51-7.35-7.49-9.55-12.45c-0.72-1.62-3.04-2.58-4.72-3.7c-0.49-0.33-1.54,0.08-1.92-0.28c-5.37-5.13-11.64-2.31-17.71-2.52
		c-5.51-0.18-11.15-1.98-16.3-4.11c-1.85-0.76-2.65-4.48-3.57-6.97c-1.41-3.8-2.38-7.77-3.8-11.57c-1.14-3.06-3.13-5.86-3.91-8.99
		c-1.31-5.28-4.24-8.5-9.51-9.69c-4.16-0.94-6.84-3.09-6.97-7.81c-0.04-1.26-1.13-3.33-2.05-3.52c-1.29-0.27-2.9,0.82-4.33,1.41
		c-1.86,0.76-3.66,1.66-5.52,2.4c-0.75,0.3-1.88,0.05-2.38,0.53c-6.81,6.59-11.04,0.05-15.41-3.35c-5.18-4.03-6.66-4.59-12.68-0.55
		C3.6,301.55,7.18,171.99,10.78,41.58C61,40.56,110.95,39.56,161.2,38.54c-1.06,2.67-1.87,4.71-2.4,6.02
		c2.41,0.15,4.89,0.48,7.36,0.43c3.16-0.06,6.3-0.42,9.46-0.63c0.44-0.03,1.02-0.09,1.31,0.14c3.54,2.81,6.92,5.85,10.61,8.45
		c2,1.41,4.44,2.73,6.81,3c6.35,0.72,10.36,3.97,13.88,9.22c3.29,4.91,8.33,7.95,14.89,7.07c4.33-0.58,6.6-2.72,6.63-7.19
		c0.01-1.04,0.54-2.07,2.15-3.46c1.29,2.57,2.59,5.13,3.97,7.89c1.96,0,5.01-0.18,7.98,0.21c0.41,0.05,0.46,2.89,0.75,5.02
		c-8.87,0.77-17.27,1.08-25.51,2.42c-3.63,0.59-6.92,3.27-11.48,5.57c9.18-0.76,18.47,7.87,24.83-4.86
		c3.59,4.52,7.78,4.54,12.58,3.85c2.4-0.35,5.14,1.69,8.04,2.77c-1.65-2.11-3.18-4.07-3.91-5.01c4.95,3.47,10.74,7.55,16.56,11.61
		c2.9,2.02,5.56,1.94,8.72-0.07c5.61-3.58,11.49-6.81,18.67-5.64c1.02,0.17,2.39-0.32,3.27-0.96c6.08-4.43,12.4-8.4,19.94-9.75
		c3.28-0.59,6.69-0.97,9.99-0.76c5.75,0.37,11.46,1.33,17.2,1.91c2.11,0.21,4.33,0.43,6.36,0c2.26-0.48,4.58-1.38,6.48-2.68
		c2.68-1.83,4.95-4.25,7.5-6.3c2.7-2.18,5.59-4.12,8.26-6.33c9.52-7.9,18.57-16.46,28.63-23.61c6.2-4.4,13.83-6.85,20.93-9.9
		c12.29-5.28,24.67-10.35,37.01-15.52c5.76-2.41,11.48-4.94,17.27-7.25c3.49-1.39,7.11-2.48,12.09-4.19
		c0,13.48-0.2,25.78,0.03,38.07c1.02,52.98,2.17,105.95,3.26,158.93c0.12,5.86-2.83,8.12-8.67,7.39c-1.6-0.2-4.12,0.64-4.91,1.85
		c-1.2,1.84-2,4.57-1.61,6.67c0.59,3.18,2.75,6.05,3.51,9.23c0.85,3.56,1.77,7.49,1.08,10.95c-0.99,4.94-0.27,9.44,0.41,14.24
		c0.63,4.43,0.71,9.4-4.14,12.33c-0.42,0.25-0.95,0.58-1.08,0.98c-2.12,6.32-4.85,12.54-6.11,19.03
		c-2.01,10.43-3.04,21.05-4.52,31.85c-1.56,0.16-2.98,0.3-4.87,0.49c0,0.89-0.36,2.06,0.07,2.69c1.49,2.23,1.7,4-0.51,6.01
		c-0.78,0.71-0.64,2.42-0.92,3.67c-0.31,1.43-0.12,3.46-1.01,4.18c-4.92,4.02-4.06,8.17-0.86,12.62c0.27,0.37,0.25,0.95-0.57,1.22
		c-0.97,3.06-2.2,6.07-2.83,9.2c-0.67,3.29-2.35,4.33-5.47,5.82c-5.01,2.38-9.37,6.56-13.28,10.67c-3.99,4.18-7.07,9.22-10.66,13.8
		c-0.65,0.83-1.84,1.27-2.82,1.81c-1.73,0.96-4.39,1.43-5.1,2.87c-3.79,7.63-12.49,7.19-18.19,11.6c-2.76,2.14-4.73,1.07-6.12-2.12
		c-3.37-7.71-4.19-7.04-11.07-1.81c-5.7,4.33-8.88,9.01-8.88,16.41c-2.81-0.44-5.17-1.36-7.27-0.97c-2.34,0.43-6.42,2.23-6.34,3.15
		c0.39,4.67-2.9,6.6-5.13,9.58c-1.3,1.74-1.35,5-0.89,7.37c1.54,7.94,1.13,8.89-7.98,10.78c1.63,2.86,3.2,5.25,4.37,7.82
		c0.69,1.53,0.85,3.33,1.06,5.04c0.19,1.54-0.02,3.13,0.21,4.65C350.46,459.77,351.01,461.4,351.78,464.43z"/>
	<path d="M240.64,58.76c1.77-5.81,4.52-2.16,7.28-1.37C246.17,62.05,243.63,60.62,240.64,58.76z"/>
</g>
</svg>
