<?xml version="1.0" encoding="utf-8"?>
<!-- Generator: Adobe Illustrator 23.0.3, SVG Export Plug-In . SVG Version: 6.00 Build 0)  -->
<svg version="1.1" id="Layer_1" xmlns="http://www.w3.org/2000/svg" xmlns:xlink="http://www.w3.org/1999/xlink" x="0px" y="0px"
	 viewBox="0 0 569.28 272.91" style="enable-background:new 0 0 569.28 272.91;" xml:space="preserve">
<g>
	<path d="M468.94,253.9c-2.66,0.75-6.39,1.8-10.11,2.87c-0.63,0.18-1.42,0.24-1.85,0.66c-2.94,2.88-5.33,6.52-10.4,5.92
		c-0.53-0.06-1.39,2.64-2.52,4.91c-1.57-1.84-2.6-3.43-4-4.59c-1.4-1.17-3.11-2.02-4.77-2.81c-3.9-1.86-9.22-1.96-9.5-8.15
		c-0.03-0.65-1.23-1.59-2.02-1.75c-0.74-0.15-2.21,0.37-2.41,0.93c-1.59,4.5-3.9,4.18-8.08,2.84c-3.62-1.16-6.3-1.81-7.14-5.91
		c-0.13-0.62-2.29-1.29-3.38-1.11c-0.98,0.16-2.24,1.29-2.56,2.27c-0.84,2.52-0.99,5.09-4.6,5.69c-0.92,0.15-1.53,3.24-1.94,5.06
		c-0.56,2.43-0.76,6.05-4.04,4.54c-2.01-0.92-2.89-4.64-3.86-7.25c-0.29-0.79,1.11-2.07,1.15-3.16c0.04-1.01-0.43-2.43-1.17-2.94
		c-0.53-0.36-1.94,0.38-2.87,0.8c-3.51,1.57-6.93,3.4-10.54,4.69c-0.92,0.33-3.41-0.84-3.49-1.51c-0.44-3.89-2.75-4.26-5.96-4.33
		c-1.14-0.03-2.86-1.76-3.23-3.03c-1.18-4.09-3.34-5.23-6.7-2.68c-2.37,1.8-4.15,4.42-6.62,6.04c-2.07,1.36-4.73,2.39-7.17,2.47
		c-2.42,0.08-4.35-1.51-3.56-4.67c0.93-3.73-0.27-6.1-4.41-6.46c-5.68-0.49-4.96-4.65-4.83-8.49c0.03-0.78-0.25-1.56-0.36-2.15
		c-5.47,0-10.66-0.17-15.84,0.12c-1.34,0.07-2.88,1.33-3.84,2.46c-2.84,3.32-5.93,3.88-8.64,0.57c-3.44-4.2-6.62-5.92-12.34-3.6
		c-2.83,1.14-7.81,0-10.41-1.97c-5.34-4.04-11.28-3.07-16.97-3.55c-4.22-0.36-5.42-1.86-5.41-5.79c0.01-4.92-2.67-8.34-6.96-10.7
		c-1.51-0.83-2.7-2.23-4.42-3.7c-0.53,1.4-1.18,2.38-1.25,3.4c-0.28,3.99-2.51,3.76-5.14,2.44c-2.65-1.32-4.81-1.72-7.86-0.11
		c-1.75,0.93-5.48-0.25-7.42-1.69c-3.43-2.54-5.95-6.31-9.3-8.99c-2.76-2.2-6.17-3.58-10.75-6.13c0-50.04,0-102.05,0-154.41
		c-66.83,0-132.94,0-199.45,0C0,27.21,0,13.81,0,0c185.48,0,371.16,0,557.61,0c0,1.39,0.08,2.98-0.01,4.57
		c-1.81,31.33,3.37,62.09,7.45,92.94c2.62,19.8,4.89,39.52,4.07,59.66c-1.5,36.45-1.72,72.95-2.47,109.44c-0.03,1.64,0,3.27,0,6.3
		c-6.49-2.64-12.09-4.9-17.68-7.19c-0.74-0.3-1.4-1.05-2.13-1.1c-5.55-0.38-8.18-4.59-11.87-7.9c-4.58-4.11-10.66-6.6-16.22-9.55
		c-0.73-0.38-2.64,0.34-3.3,1.14c-4.9,5.97-13.2,8.98-17.79,3.95c-5.38-5.89-8.57-1.93-12.71-0.17c-1.82,0.77-3.37,2.82-5.13,2.93
		C476.64,255.24,473.41,254.44,468.94,253.9z"/>
</g>
</svg>
