<?xml version="1.0" encoding="utf-8"?>
<!-- Generator: Adobe Illustrator 23.0.3, SVG Export Plug-In . SVG Version: 6.00 Build 0)  -->
<svg version="1.1" id="Layer_1" xmlns="http://www.w3.org/2000/svg" xmlns:xlink="http://www.w3.org/1999/xlink" x="0px" y="0px"
	 viewBox="0 0 455.72 504.82" style="enable-background:new 0 0 455.72 504.82;" xml:space="preserve">
<g>
	<path d="M261.2,484.94c1.45-3.84,11.54-19.54,15.69-21.95c5.51-3.2,5.54-7.39,5.49-13.02c-0.07-7.71,1.52-15.48,2.95-23.13
		c0.37-1.97,2.69-3.68,4.34-5.28c4.98-4.85,5.86-7.42,2.79-13.7c-2.06-4.22-5.18-7.92-7.78-11.89c-0.51-0.78-0.83-1.67-1.29-2.61
		c7.35-0.83,9.66,0.73,12.53,6.22c1.04,1.99,0.27,6.67,4.39,5.61c1.36,3.43,2.67,6.73,4.17,10.53c5.65-5.13,8.39,1.07,12.44,2.98
		c2.11,0.99,5.44,2.21,6.83,1.27c2-1.35,3.46-4.44,0.29-7.12c-0.53-0.45,0.44-2.65,0.6-3.48c2.73,0.85,4.69,1.8,6.71,1.92
		c0.77,0.05,1.65-1.81,2.48-2.8c-1.13,0.03-2.28-0.04-3.4,0.12c-0.62,0.09-1.18,0.57-1.75,0.87c-3.13-5.69-9.71-9.67-8.45-17.65
		c-1.06-0.18-2.46-0.42-3.88-0.66c0-1.66,0-3.11,0-4.55c-0.42,0.27-0.84,0.54-1.25,0.81c-1.8-2.33-3.74-4.58-5.36-7.03
		c-1.27-1.91-2.01-4.17-3.27-6.08c-0.55-0.82-1.82-1.6-2.79-1.63c-5.65-0.15-11.31-0.07-17.49-0.07c0.52-2,0.82-3.18,1.2-4.66
		c-2.69,0.58-5.17,1.11-7.66,1.65c-0.17-0.42-0.34-0.84-0.51-1.26c0.91-0.72,1.81-1.43,3.18-2.51c-1.18-0.53-1.84-1.05-2.51-1.08
		c-15.03-0.65-29.68-3.22-43.93-8.21c-3.64-1.27-7.5-1.37-7.27-6.72c0.02-0.39-3.15-1.26-4.85-1.3c-2.48-0.06-4.97,0.43-8.37,0.77
		c1.4-5.41,2.47-9.55,3.72-14.38c-1.99-0.62-4.97-1.56-9.36-2.94c2.37-3.52,4.43-6.58,7.01-10.42c-5.39-4.72-12.65-10.15-2.99-20.06
		c-4.71-0.53-7.77-1.56-10.56-1.06c-11.17,1.98-16.49-1.65-18.48-12.74c-0.75-4.2-1.87-8.47-3.7-12.29
		c-1.85-3.88-4.78-5.52-10.03-4.79c-8.24,1.15-15.56-3.05-22.28-7.64c-4.25-2.91-9.55-2.24-12.18,2.18
		c-2.38,3.99-4.2,8.31-6.59,12.3c-1.22,2.04-3.13,3.65-4.73,5.46c-0.51-0.39-1.01-0.77-1.52-1.16c1.22-2.08,2.44-4.16,3.73-6.37
		c-5.72-0.81-7.21,0.44-9.22,5.66c-0.95,2.48-3.16,4.46-4.77,6.7c-2.35,3.28-5.08,1.11-7.67,0.55c-6.98-1.52-13.97-3.01-20.89-4.73
		c-1.25-0.31-2.23-1.67-4.08-3.15c2.8-0.63,4.35-0.99,5.9-1.34c0.05-0.69,0.3-1.29,0.1-1.65c-1.36-2.42-9.52-2.56-10.9-0.23
		c-2.2,3.73-6.89,4.8-10.6,2.5c-3.21-1.99-5.6-4-6.86-8.23c-1.35-4.53-6.72-4.13-10.35,0.42c-2.16-3.44-4.26-6.78-6.35-10.13
		c-0.26-0.42-0.34-1.06-0.7-1.3c-5.1-3.34-2.22-6.09,1.25-8.8c-0.43-0.38-0.86-0.76-1.29-1.13c-1.81,1.11-3.63,2.22-5.84,3.57
		c-1.16-2.79-2.59-6.21-4.02-9.64c-0.5-0.05-0.99-0.09-1.49-0.14c-0.05,1.75-0.86,4.14-0.02,5.12c2.58,3.01,1.38,5.96-0.91,7.05
		c-2.12,1.01-6.41,0.81-7.75-0.66c-2.03-2.24-3.75-3.33-6.62-3.38c-1.04-0.02-2.17-0.72-3.07-1.38c-1.89-1.39-3.58-3.04-5.47-4.41
		c-1.9-1.38-3.46-2.67-0.33-4.28c4.35-2.23,8.76-4.34,13.72-6.79c1.06-1.88,2.7-4.78,4.67-8.27c-1.61-1.01-4.07-2.54-6.76-4.23
		c3.24-6.87-6.45-13.68,0.38-21.07c-1.71,0-2.92,0-5.02,0c0.3,5.11,0.6,10.15,0.88,15.04c-3.94,0.3-7.15,0.55-10.95,0.85
		c0.56,1.58,1.03,2.87,1.63,4.57c-1.08,0.46-2.33,0.99-4.07,1.73c0-1.89-0.14-3.18,0.02-4.42c2.04-16.02,4.11-32.04,6.19-48.05
		c2.19-16.84,4.33-33.69,6.72-50.5c0.29-2.04,1.48-4.5,3.06-5.74C64.34,77.49,112.73,39.58,161.12,1.67
		c0.78-0.61,1.62-1.12,2.41-1.67c8.53,8.29,17.84,15.71,22.19,27.32c0.77,2.04,3.18,3.92,5.29,4.91c7.27,3.43,14.81,6.29,22.09,9.69
		c2.31,1.08,4.2,3.12,6.2,4.82c2.59,2.2,5.26,4.34,7.57,6.82c0.87,0.93,1.41,2.9,1.05,4.08c-0.58,1.88-2.04,3.5-2.69,5.99
		c7.54-9.21,18.18-0.56,24.92-4.82c3.44,1.42,5.76,2.8,8.26,3.33c5.84,1.23,11.77,2.05,17.65,3.06c0.58,0.1,1.17,0.23,1.7,0.47
		c1.5,0.68,2.97,1.44,5.34,2.59c-2.25,4.48,3.45,10.56-1.17,16.62c-4.54,5.95-3.3,12.54-0.52,18.98c1.76,4.08,2.22,8.03,0.15,12.45
		c-0.96,2.05,0.58,5.15,0.42,7.74c-0.16,2.63-0.44,5.57-1.72,7.75c-2.02,3.45-2.43,5.52,0.94,8.73c4.04,3.84,6.99,8.85,10.2,13.51
		c2.33,3.38,2.13,6.09-2.52,7.46c-1.92,0.56-3.59,2.01-4.97,4.18c1.34,0,2.69,0.07,4.03-0.02c1.31-0.09,2.91-0.93,3.87-0.44
		c4.65,2.35,9.88,4.29,13.47,7.83c3.73,3.67,6.21,8.83,8.44,13.71c0.93,2.04-0.19,5.02-0.37,7.5c2.55,0.42,5.46,0.41,7.93,1.44
		c2.53,1.06,4.63,3.15,7.3,5.06c0.99-3.85,1.87-7.23,2.74-10.62c0.51,0.09,1.02,0.17,1.53,0.26c0.08,1.72,0.23,3.43,0.24,5.15
		c0.38,41.49,0.72,82.98,1.13,124.48c0.12,12.75,5.43,22.87,14.41,32.02c6.54,6.67,14.26,8.43,22.36,8.36
		c8.49-0.07,13.3,3.76,16.6,10.68c2.21,4.63,4.77,5.56,8.32,1.34c0.26-0.32,0.9-0.39,1.37-0.43c0.28-0.02,0.59,0.24,1.27,0.55
		c-0.48,1.25-0.97,2.51-1.84,4.79c3.13,1.93,6.23,4.94,9.83,5.79c4.25,1,8.89-0.05,12.54,3.61c0.67,0.67,3.33,0.3,4.39-0.5
		c6.68-5.01,14.37-7.37,22.42-8.51c2.54-0.36,5.3,0.81,8.43,1.36c-1.65,4.46-3.27,8.4,1.41,10.84c-2.12,5.14-6.3,7.17-10.93,9.16
		c-10.01,4.31-15.41,13.73-22.32,21.42c-4.15,4.61-9.39,7.11-15.29,8.28c-3.91,0.77-8.92,5.93-9.04,9.87
		c-0.09,2.66-3.09,5.06-4.94,3.74c-9.94-7.1-20.37-4.31-30.82-1.77c-1.29,0.31-2.62,0.54-3.94,0.64
		c-10.24,0.81-17.61,6.33-23.52,14.27c-0.29,0.39-0.73,0.68-1.02,1.08c-1.29,1.76-2.54,3.55-3.81,5.32
		c2.31,0.94,4.56,2.42,6.94,2.69c3.16,0.35,6.42-0.25,10.43-0.49c0.41,3.13,0.9,6.93,1.48,11.37c-11.64,0.87-23.08,1.11-34,7.77
		c2.53,1.12,4.09,1.82,6.71,2.98c-2.07,0.42-3.23,0.95-4.31,0.82c-4.28-0.52-8.86-0.47-12.74-2.06c-11.75-4.82-19.54,0.35-26.7,8.93
		c-1.9,2.28-5.03,3.58-7.69,5.17c-2.76,1.66-5.48,3.8-8.51,4.52c-4.16,0.99-8.59,0.85-12.91,1.19c-0.21-3.08-1.01-6.28-0.44-9.21
		c0.47-2.43,2.79-3.64,5.49-1.77c0.77,0.53,1.95,1.11,2.72,0.89c2.51-0.73,5.22-1.45,7.17-3.01
		C264.24,491.3,262.33,487.85,261.2,484.94z"/>
	<path d="M279.69,387.23c-8.58-7.79-21.68-5.49-30.34-14.92c3.68-0.72,6.08-1.2,8.42-1.66c3.46,5.79,3.46,5.79,10.77,0.99
		c3.42,0.66,5.99,0.69,8.12,1.68c3.07,1.43,5.91,3.44,8.6,5.54c0.35,0.28-0.56,2.65-1.31,3.76
		C282.93,384.11,281.5,385.31,279.69,387.23z"/>
	<path d="M8.94,224.27c3.72,1.32,9.55-2.4,8.77,5.31C11.25,231.29,10.28,230.78,8.94,224.27z"/>
	<path d="M234.45,365.55c2.9,0.93,4.89,1.43,6.69,2.3c0.26,0.12-0.22,2.97-0.62,3.04C237.84,371.37,235.22,371.22,234.45,365.55z"/>
	<path d="M236.02,363.71c-2.3-0.76-4.68-1.36-6.85-2.41c-0.54-0.26-0.41-1.93-0.59-2.96c1.01,0.04,2.2-0.26,2.98,0.18
		c1.68,0.94,3.16,2.26,4.72,3.43C236.19,362.54,236.11,363.13,236.02,363.71z"/>
</g>
</svg>
