<?xml version="1.0" encoding="utf-8"?>
<!-- Generator: Adobe Illustrator 23.0.3, SVG Export Plug-In . SVG Version: 6.00 Build 0)  -->
<svg version="1.1" id="Layer_1" xmlns="http://www.w3.org/2000/svg" xmlns:xlink="http://www.w3.org/1999/xlink" x="0px" y="0px"
	 viewBox="0 0 597.19 434.24" style="enable-background:new 0 0 597.19 434.24;" xml:space="preserve">
<g>
	<path d="M16.12,298.15c0.38,1.71,0.76,3.43,1.32,5.93c2.45-4.68,0.52-10.65,5.52-12.72c1.96,2.18,3.65,4.06,5.34,5.94
		c0.38-0.32,0.76-0.64,1.13-0.96c-1.42-3.1-2.83-6.2-4.54-9.94c-2.16,2.31-4.13,4.42-6.1,6.52c-0.22-0.09-0.44-0.17-0.66-0.26
		c3.5-10.48,6.99-20.96,10.42-31.24c2.65,0.73,4.06,1.12,6.51,1.8c-4.62-4.86-4.87-4.8-8.75,0.6c0.75-5.23,1.74-10.45,2.22-15.71
		c1.35-14.94,2.42-29.9,3.78-44.83c0.37-4.09,1.18-8.17,2.24-12.14c0.26-0.96,2.29-1.44,3.99-2.43c-6.92-0.58-4.66-5.21-4.2-9.01
		c0.37-3.13,0.95-6.24,1.48-9.65c1.28,0.11,2.44,0.2,3.63,0.3c0-0.61,0.07-1.19-0.01-1.22c-3.76-1.06-4-4.26-3.9-7.18
		c0.27-7.87-0.95-15.91,2.82-23.44c0.96-1.92,0.62-4.49,0.91-6.76c1.33-10.39,2.73-20.78,3.95-31.18c0.2-1.74,0.29-4.25-0.71-5.23
		c-3.04-2.94-0.26-5.11,1.03-6.51c1.75-1.91,2.11-2.39,0.6-4.95c-1.61-2.74-1.2-6.66-0.98-10.31c1.83,2.62,1.96,7.16,7.56,3.84
		c-2.42-2.85-5.4-5.07-6.44-7.99c-0.85-2.38,0.35-5.66,1.17-8.39c0.43-1.43,1.98-2.51,3-3.72c-3.75-1.02-7.26-7.46-5.98-11.15
		c1.64-4.73,1.24-10.55-1.11-15.58c9.76-9.38,2.27-18.9-0.5-29.41c2.21,0.98,3.63,1.53,4.97,2.22c2.26,1.16,4.64,2.18,6.64,3.7
		c1.15,0.87,1.64,2.59,2.46,3.97c3.51-3.89-1.44-4.38-3.36-6.62c2.1-0.66,3.99-1.26,5.81-1.83c4.3,4.15,6.64,4.08,11.84-0.24
		c4.52-3.75,9.17-3.03,12.57,1.94c4.18,6.1,12.33,6.84,18.31,2.17c1.7-1.33,4.92-2.12,6.86-1.45c4.16,1.43,8.05,3.78,11.81,6.15
		c1.75,1.1,3.56,2.87,4.26,4.74c3.11,8.34,8.52,15.89,7.59,25.66c-0.47,4.91,1.05,10.05,1.91,15.05c0.91,5.28,6.46,8.64,12.64,8.11
		c1.71-0.15,3.53,0.1,5.21,0.5c5.92,1.41,11.75,3.25,17.72,4.32c2.03,0.36,4.43-0.96,6.58-1.74c8.26-3,16.74-5.37,23.56-11.57
		c1.83-1.66,5.43-1.49,8.25-1.91c1.43-0.21,3.07,0.56,4.39,0.16c10.32-3.11,20.53-0.41,30.71,0.69c2.36,0.25,5.21,2.88,6.41,5.16
		c1.69,3.2,2.94,3.89,6.5,2.75c3.75-1.2,7.94-1.08,11.94-1.45c1.63-0.15,3.49,0.41,4.9-0.18c5.57-2.32,10.97-5.02,16.51-7.43
		c1.43-0.62,3.34-1.34,4.62-0.88c9.29,3.38,18.22,0.04,27.07-1.66c4.44-0.86,8.2-4.82,12.63-6.32c7.51-2.55,15.25-4.45,22.98-6.27
		c3.95-0.93,7.75-1.56,10.36-5.19c0.74-1.02,2.45-1.78,3.77-1.88c10.42-0.81,20.87-1.34,31.29-2.2c2.21-0.18,5.13-0.74,6.33-2.24
		c2.63-3.27,5.77-3.31,9.32-3.31c48.33-0.01,96.66-0.08,144.99-0.13c1.81,0,3.62,0,4.12,0c3.67,6.02,6.12,11.8,10.16,16.08
		c3.31,3.51,8.5,5.26,12.88,7.75c0.41,0.23,1,0.13,1.45,0.33c5.51,2.37,9.41,17.78,6.23,22.83c-2.96,4.71-4.79,10.14-7.86,14.77
		c-4.56,6.87-4.72,15.02-7.56,22.33c-1.96,5.05-4.86,9.76-7.58,14.48c-1.59,2.76-2.31,5.13-2.07,8.66
		c0.57,8.36-3.09,16.16-9.58,21.02c-6.69,5.01-8.27,12.05-11.23,18.77c-1.28,2.91-3.39,5.47-4.53,8.42
		c-1.44,3.74-2.77,7.65-3.2,11.6c-0.37,3.35,0.35,6.89,1.06,10.25c0.72,3.42,3.63,4.01,6.08,2.37c3.64,0.91,6.51,1.62,9.62,2.4
		c1.41,1.74,3.18,4.11,5.14,6.31c2.57,2.88,0.83,7.73-4.33,10.46c4.63,6.32,1.39,12.85,0.28,19.39c-0.16,0.97-0.2,2.23-0.81,2.83
		c-4.59,4.45-3.03,10.06-3.03,15.34c0.06,55.83,0.16,111.66,0.25,167.49c0,1.95,0,3.9,0,6.2c-2.35,0.1-4.14,0.25-5.92,0.25
		c-173.82,0.01-347.64,0.01-521.46,0.01c-5.89,0-14.82-7.9-16.08-13.8c-1.23-5.8-2.88-11.5-4.25-17.27c-0.34-1.45-0.48-3-0.39-4.48
		c0.5-8.28,1.89-16.61,1.36-24.82c-0.29-4.48-3.23-9.11-5.93-13.02c-3.38-4.89-5.68-9.43-2.67-15.28
		c6.94-13.5,9.86-28.04,11.04-43.04c0.13-1.67,1.53-3.24,2.35-4.86C15.23,297.82,15.67,297.98,16.12,298.15z"/>
</g>
</svg>
