<svg xmlns="http://www.w3.org/2000/svg" width="44" height="19.086" viewBox="0 0 44 19.086"><path d="M-524.7-158v1.08l-8.3-.262c.143-.45.356-.588.972-.666.823-.1.813-.1.906-.971a2.4,2.4,0,0,1,.208-.771.714.714,0,0,0-.171-.97.593.593,0,0,1-.085-.94,8.242,8.242,0,0,1,.752-.9.6.6,0,0,1,.952.014c.09.095.235.236.326.217.471-.1.65.262.916.511a2.6,2.6,0,0,0,.654.47.7.7,0,0,0,.89-.233c.244-.308.111-.6-.117-.852a2.971,2.971,0,0,1-.375-.39c-.1-.166-.242-.422-.18-.545a1.249,1.249,0,0,1,.539-.446,3.888,3.888,0,0,1,.6-.183c.616-.212,1.229-.431,1.928-.678a3.237,3.237,0,0,0-.246-.508c-.271-.406-.278-.61.11-.871a1.7,1.7,0,0,0,.876-1.137c.024-.137.33-.295.519-.313.147-.014.308.185.475.265a.884.884,0,0,0,.4.108,3.348,3.348,0,0,0,.651-.111,1.552,1.552,0,0,0,.41-.166,1.242,1.242,0,0,1,1.641.2,5.408,5.408,0,0,0,.526.493.458.458,0,0,0,.776-.175c.093-.172.15-.363.251-.53a.518.518,0,0,1,.937.013.678.678,0,0,0,.768.525,1.082,1.082,0,0,0,1.014-.63c.089-.206.13-.433.215-.641a2.216,2.216,0,0,1,.3-.6c.381-.457.7-.4.895.158a.652.652,0,0,0,.849.516,1.054,1.054,0,0,1,.357-.017c.617.082.724.013.848-.6.036-.176.055-.357.074-.537a1.026,1.026,0,0,1,.961-1,1.036,1.036,0,0,0,.867-.607,1.646,1.646,0,0,1,.62-.582c.4-.211.335-.5.214-.8a.861.861,0,0,1,.12-1.042,2.528,2.528,0,0,1,.472-.289c.093.171.2.338.275.516a1.191,1.191,0,0,1,.023.332c.415-.231.78-.459,1.168-.64a5.039,5.039,0,0,1,1.154-.43c.652-.124.756-.23.634-.9-.06-.326-.109-.653-.152-.981a3.321,3.321,0,0,1,0-.415,1.572,1.572,0,0,1,1.379.193c.169.088.368.222.532.2.459-.071.605.206.675.543a1.687,1.687,0,0,0,1.707,1.493,1.914,1.914,0,0,1,1.374.787.5.5,0,0,0,.807.1,1.439,1.439,0,0,1,1.8-.113,1.4,1.4,0,0,0,1.95-.232,3.3,3.3,0,0,1,.775-.439c-.042.3-.052.45-.081.592-.1.467.054.712.535.776.252.033.511.013.767.024.351.014.525.232.415.541-.283.8.054,1.582,0,2.372a.641.641,0,0,0,.171.452,8.8,8.8,0,0,1,1.534,2.484,1.435,1.435,0,0,0,.973.8,1.273,1.273,0,0,1,.97.8c-.238.17-.488.333-.718.519-.466.374-.918.765-1.382,1.142a1.579,1.579,0,0,1-.48.324,4.293,4.293,0,0,0-2.32,2.281c-.294.5-.522.982-1.169,1.046a.139.139,0,0,0-.042.014,13.856,13.856,0,0,1-2.737,1.4c-.224.065-.4.307-.535.418C-507.164-157.609-515.894-157.805-524.7-158Z" transform="translate(533 176.01)" fill="#b7b7b7"/></svg>