<?xml version="1.0" encoding="utf-8"?>
<!-- Generator: Adobe Illustrator 23.0.3, SVG Export Plug-In . SVG Version: 6.00 Build 0)  -->
<svg version="1.1" id="Layer_1" xmlns="http://www.w3.org/2000/svg" xmlns:xlink="http://www.w3.org/1999/xlink" x="0px" y="0px"
	 viewBox="0 0 539.78 317.2" style="enable-background:new 0 0 539.78 317.2;" xml:space="preserve">
<g>
	<path d="M0.14,317.2c0-2.34,0-4.16,0-5.98c0-90.81,0.05-181.63-0.14-272.44c-0.01-4.68,1.53-6.64,5.61-8.27
		c7.84-3.12,15.91-6.1,22.99-10.55c4.2-2.64,9.01-2.92,12.96-5.6c4.26-2.89,8.45-5.97,13.02-8.28C59.38,3.65,64.6,2.05,69.87,0
		c0,10.39,0,21.08,0,32.37c2.46,0,4.57,0,6.69,0c130.47,0,260.95,0,391.42,0.01c3.34,0,5.69,0.05,8.37,3.84
		c2.73,3.86,6.11,6.96,6.95,11.95c0.13,0.76,2.03,1.68,3.16,1.75c8.78,0.53,9.08,2.49,12.94,9.97c2.68,5.19,1.79,10.1,3.09,14.99
		c0.44,1.67-0.36,3.66-0.46,5.51c-0.05,0.89-0.05,1.94,0.36,2.68c2.15,3.92,4.43,7.76,6.68,11.62c0.33,0.57,0.6,1.39,1.11,1.61
		c4.77,2.06,9.46,4.45,14.43,5.86c3.89,1.11,8.06,0.79,10.52,5.07c1.65,2.88,1.94,5.13-1.46,6.39c-6.17,2.27-8.73,7.31-10.63,12.99
		c-2.12,6.34-4.24,12.53-10.51,16.42c-1.94,1.2-2.48,4.46-4.17,6.31c-2.49,2.7-5.32,5.14-8.22,7.39c-2.55,1.98-3.3,4.18-1.61,6.88
		c1.14,1.82,2.76,3.33,4.02,5.09c1.76,2.45,3.86,4.91,0.34,7.73c-0.58,0.46-0.32,1.86-0.72,2.68c-0.92,1.86-1.7,4.89-3.1,5.24
		c-8.09,2.02-5.43,8.01-5.42,13.11c0.01,2.8-0.32,5.62-0.12,8.4c0.21,2.96,1.35,4.79,5.12,4.37c5.78-0.63,7.76,1.56,7.73,7.53
		c-0.01,2.16-0.22,4.33-0.22,6.49c-0.01,3.7,1.38,5.75,5.58,6.05c2.04,0.15,4.76,1.79,5.76,3.56c4.14,7.34,8.8,14.05,16.19,18.49
		c0.83,0.5,1.49,1.33,2.14,2.08c5.94,6.88,5.57,7.92-3.52,9.76c-0.32,0.07-0.74,0-0.97,0.18c-7.54,5.81-15.07,11.64-22.59,17.48
		c-0.91,0.7-1.67,1.73-2.68,2.13c-3.21,1.26-4.24,3.52-3.57,6.75c0.56,2.68-0.15,4.32-3.11,5.12c-4.91,1.33-9.71,3.08-14.55,4.65
		c-0.47,0.15-1.16,0.12-1.39,0.43c-4.55,6.12-9.67,3.72-15.54,1.97c-10.21-3.05-19.65,2.72-25.37,14.29
		C295.28,317.2,148.02,317.2,0.14,317.2z"/>
</g>
</svg>
