<?xml version="1.0" encoding="utf-8"?>
<!-- Generator: Adobe Illustrator 23.0.3, SVG Export Plug-In . SVG Version: 6.00 Build 0)  -->
<svg version="1.1" id="Layer_1" xmlns="http://www.w3.org/2000/svg" xmlns:xlink="http://www.w3.org/1999/xlink" x="0px" y="0px"
	 viewBox="0 0 600.15 342.59" style="enable-background:new 0 0 600.15 342.59;" xml:space="preserve">
<g>
	<path d="M410.2,342.59c-7.35-2.1-14.34-3.48-20.8-6.15c-5.43-2.24-10.24-5.98-15.88-9.39c2.39-1.3,3.93-2.13,6.05-3.28
		c-6.01-3.01-13.59-3.01-15.76-11.36c3.59,0,7.02,0,11.04,0c-2.53-4.39-4.77-6.53-9.85-5.51c-7.37,1.48-15,1.73-22.81,1.44
		c15.46-2.56,26.6-12.27,37.88-22.3c-1.12-7.44-5.6-7.59-10.99-2.65c-2.44,2.24-4.94,4.43-7.65,6.85
		c-4.34-8.43-3.51-11.7,3.13-15.67c-1.61-5.86-9.38-9.7-13.9-6.64c0.66,1.25,1.33,2.53,2.16,4.1c-1,0.35-1.9,0.97-2.76,0.92
		c-2.29-0.15-4.71-0.19-6.81-0.97c-7.91-2.97-15.72-6.21-23.83-9.46c0.9-4.47,4.58-6.17,7.82-8.33c1.43-0.95,3.67-2.34,3.66-3.5
		c-0.05-4.18,2.23-4.62,6.17-3.91c-1.41-6.51,3.33-7.15,7.35-8.81c4.1-1.69,7.98-3.9,11.96-5.88c-0.21-0.54-0.43-1.08-0.64-1.62
		c-0.75-0.08-1.67-0.5-2.23-0.21c-6.95,3.64-15.06,4.05-21.62,9.46c-5.09,4.2-10.52,7.61-14.09,13.46
		c-1.71,2.81-4.07,2.13-6.47-0.41c-2.78-2.94-6.34-5.15-9.55-7.68c-0.37,0.42-0.74,0.84-1.11,1.26c1.25,2.47,2.47,4.97,3.77,7.42
		c1.45,2.74,0.67,4.11-2.29,5.15c-2.7,0.96-5.03,2.92-7.67,4.11c-2.3,1.04-4.77,1.83-7.25,2.33c-1.84,0.37-3.81,0.07-5.71,0.07
		c-0.09,0.71-0.18,1.43-0.28,2.14c4.25,0.63,8.49,1.33,12.74,1.88c5.46,0.7,8.84-1.95,10.26-6.85c0.76-0.1,1.18-0.29,1.37-0.15
		c2.42,1.77,6.41,3.27,6.85,5.47c0.79,3.94-3.29,5.73-6.63,6.86c-5.63,1.89-10.7,4.04-15.43,8.25c-2.56,2.27-9.3,1.13-13.65-0.17
		c-10.13-3.01-20.64-5.86-29.66-11.08c-5.61-3.25-14.07-2.31-17.13-10.22c-0.37-0.94-4.48-1.57-5.94-0.74
		c-4.75,2.69-9.08,3.93-13.85,0.27c-0.79-0.6-2.46-0.91-3.26-0.49c-5.55,2.93-10.36,0.31-15.23-1.78c-2.9-1.25-6.13-2.19-8.48-4.15
		c-2.91-2.42-6.09-5.39-7.29-8.78c-2.16-6.09-6.87-8.65-11.85-11.36c-3.77-2.05-7.68-3.92-11.17-6.38
		c-1.68-1.19-2.54-3.55-4.31-6.19c2.39,0,3.54,0,5.07,0c-1.27-2.63-2.4-4.96-4.02-8.31c7.06,2.12,13.25,3.99,19.45,5.85
		c0.16-0.28,0.32-0.57,0.48-0.85c-3.03-2.37-6.06-4.74-9.75-7.62c2.61-1.06,4.67-1.9,6.74-2.74c0.01-0.48,0.01-0.97,0.02-1.45
		c-3.09-0.45-6.16-1.17-9.26-1.27c-3.82-0.12-7.67,0.56-11.48,0.38c-2.89-0.13-5.72-1.15-8.6-1.63c-2.32-0.38-4.69-0.47-7.01-0.82
		c-1.27-0.19-2.74-0.33-3.7-1.05c-5.61-4.23-7.19-4.24-12.98-0.68c-4.3,2.64-8.83,3.94-14.2,3.17c-7.85-1.13-15.84-1.4-23.78-1.77
		c-5.52-0.26-8.62-3.2-7.22-8.09c0.57-1.99,2.78-3.52,4.25-5.25c0.5,0.3,1,0.6,1.51,0.91c0-5.62,0.01-11.23-0.01-16.85
		c-0.01-1.16-0.35-2.34-0.21-3.47c0.72-5.89,0.95-12.21,9.73-11.63c-0.44-2.06-0.7-3.3-1.02-4.81c4.44-0.87,3.59-2.58,2.09-6.18
		c-1.97-4.74-1.94-10.31-2.74-15.4c-2.92,2.65-6.65,5.91-10.22,9.33c-2.47,2.36-4.5,2.94-7.81,0.85c-14.74-9.35-30.78-12.68-47.79-8
		c-8.13,2.24-12.17-1.08-14.69-8.71c-4.63-14,3.09-23.67,11.24-32.91c4.11-4.66,9.58-8.2,14.73-11.84
		c4.71-3.33,8.19-7.23,9.06-13.09c1.41-9.52,6.38-17.04,13.43-23.25c8.24-7.25,16.63-14.34,25.03-21.41
		C84.14,15.55,93.48,7.87,102.94,0c2.68,3.1,3.5,6.74,2.09,11.14c-3.83,12.03-3.38,23.79,2.06,35.42c0.94,2.02,0.4,5.6-0.84,7.59
		c-2.54,4.06-6.1,7.47-9.07,11.27c-1.2,1.53-2.18,3.32-2.88,5.14c-0.88,2.27-0.89,4.88-4.58,4.74c-1.03-0.04-2.15,2.15-3.35,3.46
		c-1.02-0.12-2.32-0.27-3.34-0.39c-1.03,3.38-2,6.6-3.14,10.34c5.4,9.76,10.12,11.47,21.64,7.96c2.11-0.64,4.72,0.33,7.58,0.61
		c-1.21,3.96-2.02,6.62-2.45,8.03c7.4,7.39,14.29,14.24,21.15,21.12c0.94,0.94,2.42,1.94,2.51,3c0.23,2.82-0.16,5.7-0.3,8.55
		c-2.11-0.18-4.21-0.35-6.53-0.55c-0.23,3.04,1.87,4.78,5.35,5.42c7.09,1.3,5.7-5.28,7.78-8.55c5.4,1.83,5.81,3.27,4.19,8.29
		c-0.56,1.75,0.9,4.15,0.3,5.58c-2.35,4.53-5.07,8.91-6.95,13.63c-1.97,4.97-5.09,7.63-10.33,8.83c-7.24,1.65-7.93,3.22-6.52,8.58
		c4.99-1.93,10.09-3.86,15.16-5.89c2.28-0.91,4.76-1.67,6.67-3.12c3.42-2.6,5.75-1.88,7.66,1.59c1.81,3.28,2.65,6.31-2.2,7.75
		c-0.6,0.18-1.11,0.69-1.9,1.19c0.81,4.31,2.82,7.14,7.49,7.92c5.58,0.93,11.07,2.33,16.64,3.35c3.85,0.71,7.38,0.26,9.13-4.07
		c-3.11-5.15-6.23-10.31-9.59-15.88c3.69-1.49,6.34-2.56,10.48-4.23c-3.69-1.74-5.95-2.81-8.21-3.88
		c4.08-8.82,7.93-11.69,17.4-10.24c9.82,1.51,19.51,4.11,29.11,6.79c3.62,1.01,6.8,3.56,10.7,5.69c-0.08,0.69-0.23,2.31-0.47,3.92
		c-0.49,3.32-2.88,7.29,3.8,7.36c1.49,0.01,2.98,3.3,4.42,5.12c2.1,2.65,3.9,2.58,5.87-0.27c3.85-5.57,3.45-8.11-2.59-10.72
		c10.7-2.25,20.36-0.55,29.35,3.81c2.34,1.13,3.73,5.29,4.49,8.33c0.9,3.58,2.46,5.84,5.4,8.26c3.97,3.26,9.65,4.54,12.15,9.82
		c0.19,0.4,5.7-0.4,6.42-1.81c2.25-4.43,5.7-4.16,9.35-3.63c15.55,2.27,31.17,3.06,46.83,1.95c9.27-0.65,18.54-1.75,27.7-3.31
		c4.66-0.79,8.18-0.88,10.13,4.14c0.2,0.51,1.02,0.78,2.42,1.78c1.1-2.45,2.06-4.58,3.23-7.18c8.6-4.82,18.32-2.33,27.98-1
		c8.08,1.11,16.16,2.27,24.24,3.34c1.01,0.13,2.07-0.13,3.11-0.22c0.07-0.49,0.14-0.98,0.21-1.46c-9.17-1.71-18.35-3.41-27.52-5.12
		c0.03-0.65,0.07-1.29,0.1-1.94c2.95-0.66,5.9-1.39,8.87-1.97c5.66-1.1,11.33-2.11,17-3.16c0.64-0.12,1.31-0.53,1.9-0.42
		c16.42,2.91,32.74-1.75,49.13-0.66c3.98,0.27,8.06-0.32,11.97,0.28c11.92,1.83,23.43,0.02,35.12-2.25
		c6.21-1.2,12.97-0.48,19.35,0.38c11.5,1.55,22.74,4.38,34.33,9.42c-5.16,4.26-9.21,8.85-14.27,11.54
		c-13.47,7.17-27.35,13.58-41.13,20.15c-4.84,2.31-9.12,2.03-12.68-2.9c-1.68-2.33-4.53-3.81-7.88-6.51
		c0.83,2.48,1.44,3.74,1.64,5.06c0.28,1.82,0.93,4.91,0.23,5.3c-1.8,1-4.45,1.49-6.42,0.94c-4.12-1.15-8-3.13-12.01-4.7
		c-0.56-0.22-1.25-0.1-2.46-0.17c2,5,3.84,9.58,5.93,14.8c-4.26,0.68-8.83,1.42-13.12,2.11c1.78,2.55,4.09,5.87,6.4,9.18
		c-0.27,0.61-0.55,1.23-0.82,1.84c-3.29,0.15-6.63,0.75-9.85,0.34c-4.1-0.52-8.06-2.14-12.16-2.72c-2.86-0.41-5.86,0.11-8.79,0.22
		c-0.01,0.48-0.02,0.95-0.03,1.43c4.46,1.88,8.93,3.76,13.38,5.66c3.56,1.52,4.64,5.06,3.56,7.79c-0.74,1.88-4.3,3.47-6.76,3.72
		c-8.33,0.86-16.5,0.59-24-4.4c-2.3-1.53-6.34-4.71-8.83,1.03c7.29,3.42,15.72,4.49,20.07,11.99c-0.2,0.47-0.41,0.94-0.61,1.42
		c-7.25-2.84-14.5-5.68-21.74-8.53c-0.29,0.64-0.58,1.29-0.88,1.93c1.9,1.17,3.8,2.33,6.15,3.77c-2.67,0.72-5.03,1.36-7.4,2
		c-0.03,0.51-0.05,1.02-0.08,1.53c5.6,0.93,11.21,1.86,16.54,2.74c-0.91,4.72-1.66,8.67-2.5,13.03c5.98,0.76,11.04,1.4,16.52,2.09
		c0.31-5.74-5.21-5.44-8.33-7.63c4.65-2.24,7.76-0.59,10.21,2.84c3.73,5.21,6.84,14.79,0.83,21.12c-1.46,1.53-3.98,3.42-5.67,3.13
		c-8.16-1.37-13.56,4.19-20.81,7.09c9.53,4.01,18.22,7.98,28.34,3.34c-3,5.41-4.74,10.82-11.38,12.91
		c-16.62,5.22-33.48,6.59-50.59,4.04C413.45,336.71,411.95,340.32,410.2,342.59z"/>
</g>
</svg>
