<?xml version="1.0" encoding="utf-8"?>
<!-- Generator: Adobe Illustrator 23.0.3, SVG Export Plug-In . SVG Version: 6.00 Build 0)  -->
<svg version="1.1" id="Layer_1" xmlns="http://www.w3.org/2000/svg" xmlns:xlink="http://www.w3.org/1999/xlink" x="0px" y="0px"
	 viewBox="0 0 436 532.36" style="enable-background:new 0 0 436 532.36;" xml:space="preserve">
<g>
	<path d="M170.8,479.6c6.4,1.92,11.34-1.25,15.51-4.59c3.85-3.08,6.38-7.78,9.64-11.64c1.57-1.86,3.52-3.38,5.25-5.11
		c1.49-1.5,3.36-2.84,4.3-4.65c6.19-11.99,17.38-18.29,28.4-24.39c12.31-6.82,24.8-13.79,38.02-18.33c13-4.46,27.04-5.76,39.39,3.49
		c1.74,1.3,2.88,3.39,5.25,6.27c-2.65-0.62-3.77-0.87-4.18-0.97c0.93,3.03,1.86,6.09,2.82,9.22c-6.81,0.15-12.32,1.17-16.23,7.04
		c-1.8,2.71-5.22,4.43-8.12,6.28c-1.14,0.73-2.99,1.06-4.28,0.71c-3.62-1.01-7.12-2.47-10.67-3.75c0.02,0.55,0.04,1.1,0.06,1.65
		c-3.39,0.47-6.91,0.55-10.15,1.53c-3.61,1.09-6.96,3.04-10.45,4.55c-4.48,1.94-8.35,2.16-12.64-1.5c-1.88-1.61-6.2-0.78-9.33-0.38
		c-1.84,0.23-3.52,1.78-5.55,2.88c-1.56,13.87-1.56,13.87-13.46,17.16c-3.12-5.04-3.96-5.17-7.54-0.1
		c-4.49,6.38-10.01,12.48-12.62,19.61c-2.72,7.42-9.04,13.59-8.03,22.69c0.27,2.45-3.76,5.56-6.13,8.06
		c-2.06,2.17-5.03,3.76-2.47,6.53c-1.62,1.25-3.08,2.38-5.1,3.94c-2.26-0.13-5.45-0.32-9.43-0.55c0.37-0.29-0.28-0.04-0.37,0.32
		c-1.68,7.55-6.97,7.06-13.01,6.57c-16.77-1.35-33.58-2.16-50.37-3.21c-1.63-0.1-3.24-0.41-6.01-0.77c4.68-2.21,6.57-4.8,4.21-8.88
		c-0.14-0.25,0.01-0.65-0.01-0.99c-0.15-2.24,0.39-6-0.59-6.45c-2.98-1.37-6.7-2.4-9.86-1.88c-6.14,1.02-12.08,3.19-18.1,4.88
		c-0.47,0.13-1.23,0.5-1.38,0.33c-2.97-3.3-6.91-2.94-10.83-3.44c-5.66-0.72-3.81-6.39-5.4-9.82c-0.5-1.07-0.6-2.32-1.1-4.39
		c-1.59,1.75-2.48,2.73-4.27,4.7c-2.02-2.79-3.59-5.5-5.67-7.71c-2.54-2.7-5.2-5.58-8.4-7.29c-3.98-2.14-8.45-3.64-12.89-4.57
		c-6.8-1.43-9.77-6.2-12.12-11.9c-1.45-3.53-3.1-6.97-4.46-10.53c-2.94-7.73-2.92-15.5-1.6-23.74c5.56-34.85,10.5-69.8,15.83-104.69
		c0.67-4.41-0.21-10.13,6.93-11.43c2.01,3.76,4.05,7.56,6.04,11.28c3.23-4.3,2.15-9.05-0.44-12.54c3.36-4.6,6.39-8.67,9.31-12.81
		c0.63-0.89,1.08-2,1.28-3.07c0.26-1.4,0.74-3.18,0.15-4.25c-3.4-6.11-6-17.28-4.9-25.09c0.92-6.53,2.78-12.93,3.59-19.47
		c0.36-2.91,1.05-6.26-2.04-8.96c-1.23-1.08-1.07-3.88-1.33-5.92c-0.3-2.39-0.36-4.81-0.58-8.2c6.54-2.16,14.57-3.82,21.64-7.38
		c10.27-5.17,21.77-9.05,27.8-20.31c1.59-2.97,5.06-5.2,5.9-8.25c1.82-6.58,2.52-13.47,3.64-20.24c2.07-12.54-2.14-24.31-5.08-36.09
		c-1.01-4.05-5.15-7.45-8.25-10.8c-2.85-3.08-6.28-5.62-9.3-8.56c-0.99-0.96-1.49-2.43-2.21-3.66c-0.32,0.33-0.64,0.67-0.96,1
		c0.61-2.48,1.22-4.95,1.8-7.32c4.85-4.4,9.76-8.84,14.65-13.27c-1.05-2.21-7.46-3.32-1.19-6.89c0.81-0.46,0.4-3.04,0.61-5.13
		c1.48,0.98,2.64,1.75,4.43,2.93c1.63-3.72,3.14-7.16,4.87-11.09c-1.58-0.61-3.13-1.22-3.93-1.53c0.37-5.24,0.72-10.1,1.07-14.97
		c-0.43-0.09-0.86-0.18-1.3-0.27c1.02-0.94,2.04-1.87,3.76-3.45c-5.4,0-9.96,0-14.15,0c4.03-2.61,9.16-4.54,12.07-8.22
		c2.82-3.57,3.37-8.95,5.26-14.57c-2.28-3.3-6.02-7.46-5.04-13.45c0.26-1.61-0.05-3.32-0.1-4.98c-0.16-4.68,6.07-7.54,3.66-12.86
		c1.94-0.69,3.92-2.07,5.82-1.96c7.14,0.41,12.78,3.81,18.12,8.66c2.73,2.48,6.07,6.09,11.54,3.8c2.29-0.95,5.93,1.36,9.54,2.34
		c4.15-2.09,9.06-4.56,14.74-7.42c3.65,3.12,8.1,6.93,12.55,10.73c0.38-0.31,0.75-0.62,1.13-0.93c0.14,1.74,0.28,3.49,0.31,3.96
		c4.68,4.56,8.79,8.56,11.57,11.26c-0.13,4.51-1.57,8.71-0.07,10.79c4.86,6.75,12.44,7.7,20.52,6.82c0.14,1.08,0.09,2.23,0.45,3.24
		c0.52,1.46,1.33,2.83,2.01,4.23c1.89-1.05,5.48-0.22,4.59-4.39c-0.17-0.79,0.88-1.84,1.63-3.27c1.46,4.5,2.71,7.63-1.29,11.49
		c-2.25,2.18-2.2,7.46-2.01,11.29c0.3,6.3-0.1,7.37-6.84,8.17c1.42,0.58,2.19,1.11,3,1.2c4.74,0.54,7.26,4.13,5.9,8.57
		c-0.93,3.04-1.92,6.06-2.66,8.38c2.91,0.57,5.19,1.01,7.47,1.45c-0.04,0.54-0.07,1.08-0.11,1.62c-1.25,0.66-2.5,1.32-3.63,1.92
		c2.52,1.2,4.78,2.27,7.03,3.34c-0.6,1.14-1.19,2.28-1.79,3.42c-0.34-0.17-0.68-0.33-1.02-0.5c0.22-0.93,0.45-1.86,0.67-2.79
		c-0.29-0.11-0.58-0.22-0.88-0.32c-0.93,2.69-1.86,5.37-2.97,8.58c-1.21-2.11-2.04-3.55-2.87-4.99c1.48,4.33-1.42,5.79-4.01,6.91
		c1.53,1.87,2.92,3.58,4.43,5.43c2.69-5.74,8.76-6.7,14.87-6.26c2.16,0.16,5.31,2.69,5.93,4.77c1.22,4.06,3.1,5.78,7.33,5.02
		c0.13,1.62,0.25,3.04,0.45,5.47c1.14-1.74,1.75-2.67,3.02-4.62c0,3.94,0,6.74,0,8.91c5.39-2.35,10.83-4.67,16.19-7.14
		c0.8-0.37,1.46-1.43,1.81-2.32c0.9-2.24,1.6-4.57,2.66-7.7c2.33,2.14,4.14,3.8,5.95,5.46c0.36-0.18,0.72-0.36,1.08-0.55
		c-0.58-1.68-1.16-3.37-1.86-5.41c0.91-0.24,1.79-0.47,2.38-0.63c-0.3-0.93-1.02-1.96-0.87-2.86c0.47-2.88,1.05-5.78,1.98-8.55
		c0.91-2.72,2.3-5.29,3.49-7.92c0.13-0.29,0.59-0.61,0.53-0.78c-3.52-9.81,5.19-16.96,5.61-25.9c0.06-1.37,0.01-2.75,0.01-5.44
		c2.74,2.21,4.71,3.8,7.3,5.88c-3.12,0.57-5.07,0.92-8.22,1.49c2.28,1.72,3.47,2.62,5.55,4.19c-1.6,1.21-2.89,2.18-4.57,3.45
		c0.85,0.77,1.71,1.56,1.84,1.67c0,4.93,0,9.24,0,14.18c2.2-1.07,3.89-1.89,6.5-3.15c-2.71,6.19-2.4,11.2,2.19,16.25
		c-2.42-0.42-4.85-0.85-7.68-1.34c0.12,8.42,9.38,3.67,11.23,8.95c3.66-2.07,7.12-4.6,11.63,0.03c-2.74,0.88-5.03,1.44-7.16,2.37
		c-1.08,0.47-1.87,1.59-2.79,2.42c0.9,0.71,1.7,1.72,2.72,2.06c3.3,1.11,2.33,2.37,0.53,4.17c-2.51,2.51-5.57,4.93-6.84,8.02
		c-0.62,1.5,2.25,6.39,3.61,6.42c6.08,0.13,5.54,5.48,6.53,8.36c2.33,6.8,1.37,14.11,0.5,21.23c-0.04,0.33,0.08,0.73-0.06,0.99
		c-2.67,4.77-3.51,9.44,1.12,13.42c-1.65,1.43-2.78,2.41-3.9,3.38c1.34,1.27,2.69,2.55,4.35,4.12c-0.57,1.11-1.37,2.69-2.25,4.44
		c2.81,0.57,5.02,1.01,7.98,1.61c-1.75,1.63-2.9,2.71-3.34,3.12c0.75,4.72,1.41,8.86,2.17,13.65c0.68,0.06,2.61,0.23,4.85,0.43
		c-1.21,2.33-6.77,4.57-0.83,6.75c-0.42,2.14-1.05,4.13-1.16,6.14c-0.17,2.94-1.05,4.48-4.73,2.62c0,2.17,0,3.77,0,5.37
		c0,1.1,0.01,2.2,0.01,3.29c-1.53-0.14-3.65,0.32-4.5-0.52c-2.81-2.76-5.24-4.78-9.37-2.07c-0.65,0.43-3.47-1.66-4.72-3.08
		c-2.23-2.54-3.84-3.88-6.54-0.34c-1.43,1.88-3.85,3.18-6.07,4.22c-0.85,0.4-2.72-0.31-3.55-1.11c-3.95-3.78-7.7-7.77-11.55-11.67
		c-0.54-0.55-1.2-0.99-2.22-1.83c-3.45,5.17,0.04,9.81,0.31,14.58c-7.6,2.03-8.12-6.35-12.55-8.8c-0.41,0.28-0.82,0.57-1.23,0.85
		c1.96,3.56,3.93,7.11,5.94,10.75c-1.9,2.54-3.39,5.89-7.72,5.63c-0.78-0.05-2.24,0.85-2.33,1.46c-0.58,4.03-1.7,8.26-1.01,12.12
		c0.65,3.62,3.59,6.78,5.04,10.33c1.3,3.18,3.02,5.06,6.66,5.15c1.12,0.03,2.21,1.29,3.26,1.95c-0.52,3.23-1.01,6.26-1.55,9.6
		c-2.29-0.76-3.96-1.31-5.63-1.87c-2.24,6.06-0.18,9.4,8.66,14.05c1.84-3.25,3.66-6.49,5.75-10.18c4.33,3.97,2.4,7.88,2.05,11.42
		c-0.43,4.25-1.47,8.44-1.89,12.69c-0.1,0.96,1.28,2.07,2.54,3.94c0.5-2.18,0.79-3.42,1.36-5.88c1.72,3.27,2.96,5.63,3.65,6.94
		c3.35,0.45,6.02,0.81,8.89,1.2c1.06-1.9,2.54-4.56,4.46-8c3.87,4.51,6.98,7.72,9.57,11.31c1.35,1.87,1.74,4.41,2.63,6.62
		c1.01,2.52,2.14,3.45,4.5,0.94c0.93-0.99,2.98-0.93,3.48-1.06c1.38-7.48,2.66-14.38,3.94-21.27c0.06-0.33,0.32-0.7,0.23-0.96
		c-2.57-7.21,1.01-9.34,7.52-11.07c3.85-1.03,4.87,0.58,7.77,2.91c-3.19,0.51-5.56,0.45-7.5,1.33c-1.74,0.79-3.57,2.37-4.28,4.06
		c-0.35,0.83,1.4,3.23,2.73,3.99c4.42,2.54,3.37,5.98,1.9,10.33c41.3-2.23,81.86-8.37,122.5-13.82c0,5.85,0,11.63,0,17.44
		c-4.9,0.24-9.23,1.7-13.17,5.87c-4.13,4.37-9.67,7.41-14.64,10.98c-1.89,1.36-3.77,2.46-3.05,5.43c0.5,2.06,0.04,3.83-2.89,3.82
		c-0.72,0-1.44,1.53-2.17,2.36c-2.59,2.96-5.18,5.91-7.76,8.88c-0.52,0.6-0.88,1.35-1.44,1.9c-1.83,1.8-3.43,4.47-5.63,5.13
		c-9.62,2.91-19.41,5.24-28.53,7.62c-3.3-0.72-6.44-1.76-9.63-2.02c-6.78-0.54-13.82-2.84-20.1,2.07c-0.56,0.44-1.63,0.38-2.43,0.3
		c-6.38-0.62-12.75-1.54-19.14-1.85c-3.53-0.17-7.11,0.76-10.68,0.97c-6.54,0.4-13.47-0.62-19.53,1.25
		c-8.65,2.67-18.08,5.46-22.22,15.13c-0.95,2.22-1.12,4.82-1.39,7.27c-0.71,6.47-1.96,7.73-8.2,7.83c-2.65,0.04-5.94-0.88-7.83,0.35
		c-4.47,2.92-8.3,6.84-12.34,10.4c-0.67,0.59-1,1.63-1.73,2.06c-3.28,1.93-6.12,3.68-7.47,7.97c-0.88,2.79-5.04,4.38-7.13,6.99
		c-2.75,3.42-5.47,7.08-7.19,11.07c-2.74,6.35-7.12,10.99-12.57,14.88c-0.39,0.28-1.13,0.37-1.25,0.7
		C183.16,469.96,176.51,474.24,170.8,479.6z"/>
	<path d="M301.52,386.43c11.06-5.07,49.86,6.81,57.67,20.35c-6.97,0-13.38,0.82-19.47-0.24c-5.72-1-12.98-2.46-16.21-6.45
		C317.7,392.92,309.05,391.56,301.52,386.43z"/>
</g>
</svg>
