<?xml version="1.0" encoding="utf-8"?>
<!-- Generator: Adobe Illustrator 23.0.3, SVG Export Plug-In . SVG Version: 6.00 Build 0)  -->
<svg version="1.1" id="Layer_1" xmlns="http://www.w3.org/2000/svg" xmlns:xlink="http://www.w3.org/1999/xlink" x="0px" y="0px"
	 viewBox="0 0 428.47 539.66" style="enable-background:new 0 0 428.47 539.66;" xml:space="preserve">
<g>
	<path d="M53.58,5.4C131.1,3.59,207.85,1.8,285.28,0c-0.6,32.21-1.2,64.09-1.8,96.5c8.17-1.78,15.77-3.43,23.91-5.21
		c0.13,1.69,0.32,3.1,0.32,4.51c0,1.33-0.59,2.76-0.24,3.96c4.91,17.24-0.93,33.97-2.24,50.91c-1.23,15.93,5.05,28.08,19.19,35.91
		c4.51,2.5,9.02,5.02,13.59,7.4c14.81,7.71,23.13,21.24,31.06,34.99c1.21,2.1,0.91,5.75,0.01,8.21c-0.84,2.28-3.42,3.91-5.23,5.83
		c-1.77-1.68-3.84-3.14-5.23-5.09c-1.51-2.12-2.38-4.69-3.53-7.07c-0.79,0.25-1.58,0.49-2.36,0.74c0.77,3.29,1.06,6.81,2.43,9.83
		c1.91,4.22,4.88,7.94,6.93,12.11c2.23,4.52,1.2,8.17-2.69,11.97c-3.11,3.05-4.49,7.83-6.85,11.72c-0.9,1.49-2.38,2.63-3.59,3.92
		c-1.16-1.44-2.51-2.77-3.44-4.34c-2.07-3.5-3.56-7.4-5.97-10.62c-2.14-2.87-4.64-2.2-5.91,1.25c-0.81,2.18-1.11,4.57-2.1,6.64
		c-0.71,1.49-2.18,2.61-3.31,3.89c-1.21-1.44-3.18-2.74-3.48-4.34c-1.21-6.52,0.43-12.44,4.42-17.87c1.32-1.8,2.29-4.56,2.02-6.7
		c-0.86-6.8,0.76-12.74,4.1-18.61c5.17-9.07,4.86-18.66,1.51-29.81c-2.08,2.99-3.68,4.97-4.92,7.15c-1.99,3.52-5.2,4.02-7.01,0.39
		c-1.31-2.62-0.89-6.05-1.63-9.03c-0.45-1.8-1.64-3.41-2.5-5.1c-1.39,1.5-4.04,3.12-3.92,4.48c0.33,3.63,1.42,7.38,3.07,10.64
		c1.13,2.24,3.69,3.77,5.64,5.57c6.51,6.01,6.91,14.8,0.54,22.62c-0.83-1.37-2.08-2.5-2.18-3.72c-0.55-6.65-5.35-8.78-10.66-10.09
		c-4.12-1.01-5.95-2.78-7.17-7.33c-1.26-4.7-5.47-8.6-8.4-12.84c-0.52-0.75-1.18-1.42-1.65-2.19c-0.24-0.4-0.1-1.02-0.31-1.45
		c-3.18-6.42-4.07-12.93-3.96-20.28c0.08-5.31-3.97-11.12-7.3-15.93c-3.43-4.95-3.73-9.16-0.96-14.28
		c2.44-4.52,4.62-9.24,6.34-14.08c1.59-4.47,1.8-9.12-2.23-13.76c-1.69,5.2-3.16,9.9-4.74,14.57c-1.28,3.78-2.67,7.52-4.04,11.27
		c-1.17,3.2-2.78,5.78-7.43,4.05c0.24,5.84,1.59,10.47,6.04,13.53c4.17,2.87,5.27,6.18,2.71,10.63c-0.4,0.7-0.85,1.6-0.75,2.34
		c1.23,9.21,0.58,18.84,6.09,27.13c0.63,0.94,0.43,2.61,0.24,3.88c-0.37,2.42-1.39,4.78-1.47,7.19c-0.25,7.43,1.62,9.29,9.15,10.08
		c2.57,0.27,5.1,0.83,7.87,2.46c-1.51,0.73-2.97,1.88-4.56,2.12c-3.94,0.61-5.22,2.48-4.62,6.45c0.77,5.11,0.67,10.04-2.77,14.67
		c-1.5,2.02-1.24,5.38-1.71,8.14c-0.42,2.48,0.38,5.85-3.57,5.9c-2.62,0.04-7.27-5.72-6.27-7.83c2.57-5.43-0.72-5.82-4.66-6.19
		c-8.59-0.8-17.16-1.72-26.64-2.69c0.28,4.45,0.19,8.75,0.92,12.91c0.75,4.33,2.9,5.12,6.85,3.27c5.79-2.7,13.2,1.93,13.21,8.2
		c0.01,4-0.12,8.03,0.32,11.98c0.44,3.95,1.52,7.83,2.36,11.99c-1.88,0.51-3.71,1.01-5.77,1.57c0.42,0.74,0.54,1.28,0.87,1.49
		c7.16,4.44,7.18,4.87,1.05,10.31c-0.88,0.78-1.8,2.22-1.67,3.22c0.1,0.74,1.86,1.27,2.89,1.89c1.55,0.93,4.47,1.97,4.4,2.77
		c-0.18,2.25-1.05,5.74-2.6,6.37c-6.06,2.44-12.5,3.95-18.79,5.81c-1.41,0.42-3.89,0.72-4,1.38c-0.25,1.56,0.07,3.88,1.13,4.89
		c12.19,11.67,14.23,26.94,15.41,42.52c0.11,1.43-0.24,3.08-0.89,4.36c-3.74,7.3-3.31,14.74-1.33,22.38
		c0.9,3.46,2.29,7.21-3.64,8.27c-0.98,0.17-2.37,5.35-1.47,7.18c2.31,4.7-0.76,8.34-1.25,12.43c-0.09,0.73-1.56,1.47-2.52,1.9
		c-9.01,4.01-10.42,6.35-8.47,15.73c1.09,5.24,0.21,9.94-2.74,14.26c-2.25,3.3-4.71,6.45-7.09,9.66
		c-4.48,6.04-8.05,12.34-4.97,22.06c-2.94-1.23-4.81-1.63-6.2-2.67c-3.11-2.33-5.7-5.46-9.02-7.36c-3.77-2.16-4.16-5.05-1.23-6.96
		c8.98-5.86,9.54-13.53,6.3-22.58c-0.49-1.37-0.4-2.95-0.59-4.43c-0.02-0.15-0.15-0.28-0.28-0.52c-3.05-0.62-4.47,0.89-5.22,3.75
		c-2.32,8.78-4.68,17.55-7.29,26.24c-0.33,1.11-2.14,2.3-3.43,2.53c-13.58,2.46-27.24,4.52-40.79,7.1
		c-16.64,3.18-32.62,8.6-46.88,17.78c-10.58,6.81-21.96,9.75-34.18,11.2c-13.71,1.63-27.37,3.84-40.98,6.17
		c-3.67,0.63-7.23,2.35-10.62,4.03c-4.29,2.13-8.35,4.73-13.06,7.45c-1.56-4.89-4.63-4.39-8.01-2.87c-1.06,0.48-2.2,1.16-3.27,1.11
		c-1.31-0.06-2.6-0.8-3.89-1.24c0.61-1.41,0.87-3.57,1.91-4.07c2.02-0.96,4.47-1.25,6.76-1.33c4.83-0.18,7.91-2.26,10.15-6.69
		c1.5-2.96,4.09-5.59,6.72-7.72c5.37-4.35,6.53-6.98,4.07-13.31c-2.06-5.3-2.83-10.56-1.21-16.09c1.62-5.53,0.74-10.78-1.62-16.01
		c-2.23-4.96-3-10.39,1.62-14.3c4.61-3.91,9.55-7.8,16.6-5.07c5.23,2.02,5.57,1.54,5.61-4.66c0.64-91.32,1.28-182.64,1.9-273.96
		c0.37-54.33,0.71-108.65,1.06-162.98C53.58,9,53.58,7.52,53.58,5.4z"/>
	<path d="M385.25,259.27c1.39,0.92,2.03,1.54,2.78,1.8c9.59,3.33,19.16,6.73,28.82,9.85c5.57,1.8,6.33,2.8,5.57,8.33
		c-0.6,4.4-0.68,8.88-1.29,13.28c-0.34,2.42-1.04,4.87-2.02,7.11c-2.79,6.42-3.12,12.46,1.63,18.21c0.99,1.2,1.8,2.9,1.93,4.44
		c2.01,24.04,3.89,48.1,5.78,72.15c0.05,0.62-0.16,1.26-0.28,2.16c-6.47,0.24-10.45,3.08-12.09,9.66c-0.56,2.23-3.9,3.75-5.94,5.64
		c-3.32,3.09-6.33,6.6-9.99,9.2c-3.95,2.8-8.48,4.79-12.83,6.96c-0.19,0.09-1.7-1.45-1.69-2.22c0.02-1.25,0.71-2.52,1.24-3.73
		c3.28-7.58,3.34-14.7-2.15-21.52c-3.68-4.56-6.15-9.58-2.25-15.51c0.56-0.84,0.34-2.78-0.27-3.71c-3.15-4.79-2.83-9.84-1.94-15.13
		c0.27-1.6,0.01-4.46-0.92-4.92c-6.35-3.14-5.87-8.97-6.47-14.47c7.03-1.26,7.92-2.41,6.14-9.82c-1.18-4.92-1.22-9.37,1.4-13.93
		c0.94-1.63,1.33-4.58,0.47-6.09c-5.81-10.27-4.05-21.09-2.28-31.69C380.05,276.74,382.88,268.35,385.25,259.27z"/>
	<path d="M371.82,276.22c0.41,7,1.24,12.94,0.83,18.8c-0.14,2.05-3.04,4.99-5.21,5.57c-4.02,1.07-5.49,3.21-5.79,6.94
		c-0.33,4.14-1.09,8.26-1.1,12.39c-0.01,2.89,0.86,5.79,1.44,8.67c0.81,3.99,2.21,7.93,2.47,11.95c0.39,5.96-0.12,11.98,0.02,17.97
		c0.05,1.91,0.48,4.12,1.55,5.63c2.97,4.2,2.8,8.47,0.85,12.79c-1.98,4.39-4.29,8.63-6.53,12.9c-2.09,3.97-2.48,7.65,0.31,11.68
		c2.96,4.27,1.81,7.92-4.12,12.22c2.43-6.87-0.73-10.29-5.66-12.45c-2.43-1.07-4.76-1.48-5.68,2.3c-0.89,3.65-3.08,3.03-5.61,1.23
		c-5.28-3.76-8.51-2.21-9.86,3.98c-1.43,6.53-3.41,12.94-5.36,20.17c-2-1.37-3.12-1.95-4.01-2.79c-3.07-2.86-5.67-2.26-8.75,0.32
		c-1.77,1.49-4.45,1.9-6.74,2.76c-0.74,0.28-1.66,0.22-2.27,0.64c-2.05,1.43-3.74,4.43-6.4,0.62c-3.13-4.48-3.32-9.03-0.27-11.68
		c3.47-3.02,6.9-6.08,9.65-8.5c1.62,1.12,3.31,3.24,5.11,3.33c3.03,0.15,7.57-5.12,7.36-7.66c-0.59-7.09-1.18-14.18-1.95-21.26
		c-0.17-1.59-1.15-3.08-1.6-4.66c-0.56-1.97-0.96-3.99-1.49-6.3c8.34,0.46,8.85,0.46,8.87-6.84c0.02-10.55,2.85-19.9,8.8-28.6
		c1.99-2.91,2.63-6.75,3.82-10.19c0.92-2.66,1.3-5.62,2.72-7.97c2.94-4.86,4.64-9.83,4.38-15.58c-0.08-1.84,0.49-4.51,1.77-5.49
		c6.49-4.97,10.47-12.94,19.28-15.32C365.69,282.96,368.04,279.46,371.82,276.22z"/>
	<path d="M272.94,397.98c3.48,0.54,6.5,1.01,9.1,1.41c0.15-3.08,0.44-5.47,0.33-7.85c-0.08-1.72-0.26-3.68-1.14-5.06
		c-3.94-6.18-5.65-12.37-3.17-19.77c1.83-5.47,2.12-11.43,3.45-17.09c0.79-3.36,1.86-6.79,3.54-9.78c2.37-4.21,6.24-4.14,8.53,0.03
		c2.64,4.8,3.43,9.86,2,15.41c-1.21,4.7-1.68,9.63-2.12,14.49c-0.3,3.3,0,6.65,0.07,9.98c0.02,0.98-0.21,2.55,0.27,2.84
		c5.03,3,1.62,5.49-0.04,8.51c-0.99,1.81-0.98,4.37-0.8,6.55c0.15,1.75,1.33,3.38,1.89,5.12c1.44,4.44-0.23,6.98-4.62,5.97
		c-5.51-1.26-7.8,0.33-7.9,5.91c-0.02,1.22-1.34,2.4-2.02,3.62c-0.64,1.16-1.27,2.34-1.84,3.54c-1.27,2.71-2.51,5.43-3.75,8.15
		c-0.6-0.21-1.2-0.43-1.8-0.64C272.94,418.98,272.94,408.65,272.94,397.98z"/>
	<path d="M308.75,320.03c0.86-3.83,1.75-7.66,2.58-11.51c0.52-2.43,1.15-4.86,1.38-7.32c0.34-3.65-1.07-6.01-5.11-6.57
		c-1.89-0.26-3.92-1.06-5.42-2.22c-3.36-2.59-3.7-6.17-0.5-8.95c3.15-2.74,3.96-5.48,2.23-9.19c-0.41-0.87-0.7-2.01-0.5-2.9
		c0.31-1.34,1.12-2.57,1.71-3.84c1.39,0.68,3.56,1.03,4.01,2.11c1.18,2.85,2.29,6.02,2.21,9.04c-0.18,6.88,2.66,11.11,8.81,14.14
		c10.25,5.05,12.16,10.15,7.8,20.63c-1.95,4.69-4.61,9.28-7.85,13.15c-1.68,2.01-5.35,2.35-8.12,3.44
		c-0.79-2.28-1.68-4.53-2.34-6.85c-0.26-0.92-0.04-1.99-0.04-2.98C309.3,320.15,309.03,320.09,308.75,320.03z"/>
	<path d="M346.09,283.82c-2.71,2.25-4.17,3.92-6.01,4.69c-0.54,0.23-3.3-2.51-3.06-3.16c0.61-1.68,2.11-3.46,3.71-4.2
		C341.59,280.75,343.41,282.41,346.09,283.82z"/>
</g>
</svg>
