<?xml version="1.0" encoding="utf-8"?>
<!-- Generator: Adobe Illustrator 23.0.3, SVG Export Plug-In . SVG Version: 6.00 Build 0)  -->
<svg version="1.1" id="Layer_1" xmlns="http://www.w3.org/2000/svg" xmlns:xlink="http://www.w3.org/1999/xlink" x="0px" y="0px"
	 viewBox="0 0 312.46 570.88" style="enable-background:new 0 0 312.46 570.88;" xml:space="preserve">
<g>
	<path d="M114.56,43.08c7.33,0.69,14.26,1.65,21.22,1.92c10.77,0.4,21.61,0.96,32.34,0.24c7.72-0.52,14.83-0.09,21.84,3.29
		c3.71,1.79,7.75,2.95,11.74,4.07c0.97,0.27,2.3-0.73,3.46-1.15c-0.57-1.03-0.88-2.54-1.76-3.03
		c-16.46-9.08-32.84-18.48-51.32-22.87c-6.01-1.43-11.75-2.38-16.91-6.44c-2.2-1.73-6.57-0.94-9.94-0.85
		c-1.51,0.04-2.99,1.17-5.94,1.12c1.45-6.01,2.74-12.07,4.54-17.98c0.26-0.86,3.11-1.61,4.56-1.33
		c32.51,6.33,64.96,12.95,97.48,19.22c26.96,5.2,53.97,10.15,81.03,14.85c4.97,0.86,6,3.11,5.45,7.39
		c-2.61,20.15-5.14,40.3-7.75,60.45c-1.11,8.59-2.24,17.17-3.59,25.72c-0.76,4.78-2.88,8.13-7.29,11.47
		c-6.12,4.63-10.73,11.6-14.97,18.22c-1.56,2.43-0.52,6.76-0.1,10.15c0.48,3.94,2.51,7.89,2.17,11.68
		c-0.4,4.39-2.51,8.67-4.16,12.88c-0.51,1.31-2.26,2.11-2.86,3.41c-0.95,2.07-1.4,4.36-2.06,6.56c2.14-0.64,4.37-1.08,6.39-1.98
		c3.35-1.49,6.57-3.27,9.85-4.93c0.4,3.55,1.35,7.14,1.12,10.64c-2.01,30.59-4.23,61.16-6.38,91.74
		c-1.85,26.26-3.68,52.52-5.55,78.77c-2.2,30.91-4.44,61.81-6.64,92.72c-2.2,30.91-4.36,61.82-6.53,92.73
		c-0.06,0.83-0.07,1.67-0.17,2.49c-0.85,7.32-1.05,7.09-8.29,6.19c-16.36-2.03-32.75-3.95-49.17-5.3
		c-32.29-2.66-63.88-9.19-95.39-16.36c-34.07-7.75-68.19-15.29-102.29-22.91c-0.33-0.07-0.66-0.1-0.98-0.19
		c-8.55-2.2-8.59-2.3-6.58-10.69c37.33-155.48,74.66-310.96,112-466.44C113.47,46.93,113.94,45.35,114.56,43.08z"/>
</g>
</svg>
