<?xml version="1.0" encoding="utf-8"?>
<!-- Generator: Adobe Illustrator 23.0.3, SVG Export Plug-In . SVG Version: 6.00 Build 0)  -->
<svg version="1.1" id="Layer_1" xmlns="http://www.w3.org/2000/svg" xmlns:xlink="http://www.w3.org/1999/xlink" x="0px" y="0px"
	 viewBox="0 0 539.15 339.29" style="enable-background:new 0 0 539.15 339.29;" xml:space="preserve">
<g>
	<path d="M520.62,325.36c-3.85-0.59-7.51-0.96-8.82-5.12c-0.11-0.35-0.79-0.6-1.25-0.76c-4.47-1.5-8.86-3.68-13.44-4.26
		c-6.12-0.77-11.05-2.61-14.33-8.09c-0.44-0.73-2-1.14-3.03-1.11c-9.62,0.3-19.23,0.87-28.85,1.04c-2.55,0.04-5.27-0.66-7.63-1.67
		c-4.2-1.8-6.21,0.13-7.7,3.65c-2.96,6.97-8.39,8.1-13.34,2.48c-5.18-5.89-12.72-6.9-19.26-9.96c-3.81-1.78-7.63-3.11-9.01-7.76
		c-0.28-0.95-2.14-1.67-3.4-2.01c-1.24-0.34-2.65-0.08-3.98-0.08c-126.8,0-253.61,0-380.41,0c-2.12,0-4.24,0-6.17,0
		C0,194.18,0,97.14,0,0c176.73,0,352.77,0,528.99,0c0.65,10.08-1.28,18.49-10.56,23.67c-2.03,1.13-4.11,2.35-5.75,3.95
		c-2.64,2.58-4.02,5.66-1.63,9.28c1.47,2.22,2.84,4.51,4.34,6.71c3.41,5.01,5.66,10.28,13.32,11.69c8.09,1.48,9.36,5.13,9.36,13.55
		c0,55.99,0,111.97,0.01,167.96c0,1.8,0,3.59,0,5.81c-3.43,0-6.37,0-9.41,0c-1.11,3.28-1.75,5.85,1.33,8.24
		c4.82,3.75,4.11,9.7-1.26,12.38c0.06,5.06,1.85,8.34,7.57,7.19c4.37,12.43,3.64,14.04-1.74,17.3c1.17,8.2-2.18,14.95-6.03,21.39
		c-1.9,3.18-5.12,5.83-2.57,9.88c1.47,2.33,3.26,4.63,5.39,6.34c4.15,3.34,1.27,7.09,0.85,10.57c-0.15,1.2-2.21,2.29-3.56,3.17
		c-0.54,0.35-1.67,0.28-2.29-0.05C523.17,337.32,519.69,329.42,520.62,325.36z"/>
</g>
</svg>
