<?xml version="1.0" encoding="utf-8"?>
<!-- Generator: Adobe Illustrator 23.0.3, SVG Export Plug-In . SVG Version: 6.00 Build 0)  -->
<svg version="1.1" id="Layer_1" xmlns="http://www.w3.org/2000/svg" xmlns:xlink="http://www.w3.org/1999/xlink" x="0px" y="0px"
	 viewBox="0 0 538.33 440.37" style="enable-background:new 0 0 538.33 440.37;" xml:space="preserve">
<style type="text/css">
	.st0{fill:#FFFFFF;}
</style>
<g>
	<path d="M174.44,278.3c-5.15-0.44-8.98-2.29-9.11-8.08c-0.11-5.09-4.67-7.4-7.65-9.44c-5.19-3.56-2.58-8.03-1.67-10.8
		c1.47-4.49,0.87-6.57-2.91-8.97c-2.41-1.53-4.48-3.96-6.04-6.42c-3.18-5-7.17-8.66-13.04-10.13c-4.22-1.06-6.66-3.97-8.31-7.92
		c-3.57-8.53-6.14-17.71-14.57-23.24c-3.76-2.46-7.39-5.11-11.06-7.72c-8-5.69-14.34-12.63-18.61-21.72
		c-2.58-5.47-7.07-10.01-10.3-15.22c-1.85-2.99-3.93-6.44-4.05-9.76c-0.28-7.44-3.4-13.35-7.39-19.23c-2-2.95-3.74-6.34-4.55-9.78
		c-2.34-9.88-4.52-11.95-14.46-10.11c-5.69,1.05-8.74-1.7-11.74-5.5c-3.47-4.39-6.89-8.82-10.49-13.1
		c-0.65-0.77-2.26-0.63-3.16-1.28c-4.92-3.53-9.92-6.99-14.49-10.94c-1.03-0.89-1.03-3.84-0.49-5.52
		c2.5-7.78,7.67-13.96,13.18-19.71c2.62-2.74,6.14-5.12,9.7-6.32c3.2-1.08,3.93-2.76,4.5-5.55c0.62-2.97,2.21-5,5.67-5.94
		c9.31-2.52,18.43-5.71,27.68-8.43c2.22-0.65,4.16-2.41,7.24-0.31c1.26,0.86,5.47-2.52,8.28-4.06c0.49-0.27,0.63-1.33,1.09-1.45
		c8.34-2.28,16.76-4.25,25.01-6.81c2.51-0.78,4.54-3.1,6.97-4.85c0.52,1.03,1.1,2.16,1.73,3.41c1.53,0,3.13-0.02,4.73,0
		c9.94,0.15,19.9-0.07,29.82,0.53c33.76,2.04,67.5,4.36,101.24,6.58c2.33,0.15,4.66,0.23,6.98,0.46c4.91,0.49,6.3,2.93,4.79,7.72
		c-0.67,2.11-0.75,4.41-1.1,6.62c0.48,0.21,0.96,0.43,1.45,0.64c3.99-2.55,7.98-5.1,12.45-7.96c5.37,7.5,10.9,14.78,15.83,22.43
		c1.13,1.75,0.34,4.82,0.19,7.27c-0.19,3.1-0.63,6.19-1,9.56c1.91,0.11,3.38,0.24,4.85,0.27c38.66,0.6,77.32,1.13,115.97,1.92
		c2.62,0.05,5.85,1.4,7.69,3.24c39.53,39.65,78.94,79.44,118.25,119.31c2.15,2.18,3.48,5.29,4.74,8.16
		c0.26,0.59-1.28,2.68-2.35,3.05c-30.1,10.57-47.62,34.05-62.13,60.54c-1.6,2.92-1.9,6.56-2.91,10.25c-0.66-0.25-1.49-0.57-1.5-0.57
		c-0.35,6.21-0.69,12.38-1.04,18.54c-0.41,0.09-0.82,0.17-1.23,0.26c-0.56-4.09-1.12-8.17-1.7-12.38c-0.82-0.04-1.46-0.08-2.1-0.09
		c-1.83-0.05-3.66-0.08-5.5-0.12c0.54-1.52,1.43-3.01,1.54-4.56c0.13-1.9-0.39-3.85-0.69-6.3c-6.13,8.36-4.83,14.37,3.53,18.85
		c4.59,2.46,4.72,9.71,0.51,14.42c-1.56-1.89-2.99-3.98-4.83-5.61c-0.51-0.45-2.24,0.46-4.4,0.99c3.42,1.88,7.47,1.83,6.81,6.4
		c-2.7-1.34-5.11-2.53-7.51-3.72c-0.08,0.2-0.17,0.39-0.25,0.59c1.15,1.23,3.45,2.82,3.2,3.62c-0.51,1.62-2.36,2.84-3.72,4.17
		c-0.34,0.33-0.88,0.46-1.34,0.65c-6.5,2.65-6.5,2.65-4.35,8.67c-4.24,1.02-8.5,2.03-12.43,2.97c-1.19-1.44-2.26-3.94-3.8-4.28
		c-1.62-0.35-4.17,0.92-5.47,2.29c-3.22,3.39-5.91,7.25-4.14,12.61c1.38-0.45,2.75-0.89,4.11-1.33c0.32,0.37,0.63,0.74,0.95,1.11
		c-1.23,1.06-2.3,2.5-3.73,3.11c-5.74,2.46-11.31,4.92-13.63,11.51c-0.36,1.03-1.88,1.79-3.02,2.39c-3.9,2.06-7.87,3.99-11.35,5.73
		c-2.37-2-4.48-3.77-6.94-5.84c0.53-1.93,1.27-4.62,2.38-8.66c-1.79,2.07-2.65,3.06-3.54,4.08c-1.81-2.21-3.48-4.24-5.2-6.34
		c1.23,4.5,2.38,8.73,3.53,12.96c-0.5,0.24-0.99,0.47-1.49,0.71c-1.16-1.72-2.31-3.43-3.47-5.15c-0.27,0.18-0.54,0.37-0.81,0.55
		c1.36,2.02,2.35,4.55,4.19,5.92c2.27,1.69,5.27,2.41,8.1,3.61c-1.74,9.35-8.35,12.2-16.58,13.62c0.64,1.07,1.13,1.91,2.17,3.66
		c-18.29-0.68-30.31,12.79-46.18,18.57c0.21-1.6,0.36-2.79,0.59-4.56c-8.26,4.11-12.02-0.83-15.72-6.93
		c0.79,2.21,1.58,4.43,2.36,6.64c-0.31,0.31-0.63,0.62-0.94,0.93c-1.69-1.85-3.38-3.7-6.11-6.68c0.71,2.77,1.14,4.41,1.7,6.57
		c-4.28-0.78-8.37-1.53-12.47-2.28c-0.24,0.26-0.48,0.51-0.72,0.77c0.64,0.66,1.19,1.74,1.95,1.91c3.18,0.71,6.42,1.15,9.65,1.67
		c0.97,0.16,2.41,0.74,2.86,0.31c3.45-3.34,5.11,0.41,8.97,1.85c-4.92,1-8.4,1.71-11.89,2.42c0,0.32,0.01,0.63,0.01,0.95
		c3.02,0.15,6.08,0.06,9.05,0.49c6.22,0.9,9.42,6.31,6.82,11.32c-0.46,0.88-1.48,1.47-2.5,2.44c0.3,0.52,0.88,1.54,1.77,3.09
		c-7.35,2.86-14.39,5.6-22.12,8.62c-0.57-5.47-1.04-9.98-1.52-14.61c-6.13-2.86-0.97-8.27-1.86-12.42
		c-2.45,3.25-2.73,9.2-1.23,12.87c0.84,2.06,0.7,4.53,1.14,7.91c-2.3-1.06-3.62-1.25-4.19-2c-3.98-5.23-7.93-10.5-11.62-15.94
		c-1.89-2.78-2.51-5.86,0.89-7.73c-2.66-2.31-5.1-4.43-6.73-5.84c1,4.98,2.14,10.67,3.3,16.36c0.1,0.48,0.15,1.2,0.45,1.36
		c5.91,3.09,0.73,7.57,1.26,11.33c0.12,0.88-2.2,2.1-3.56,3.31c3.29,2.84,4.52-0.1,5.89-3.42c0.91,1.5,1.39,2.79,2.28,3.65
		c1.34,1.29,2.84,2.95,4.51,3.27c5.91,1.15,8.12,5.68,4.16,10.13c-3.38,3.81-6.98,8.6-11.42,10.01c-6.45,2.05-9.97,6.97-15.04,10.99
		c-1.25-1.14-2.28-2.56-3.67-3.24c-2.87-1.39-5.89-3.23-8.92-3.35c-7.46-0.29-10.35-3.34-9.57-10.71c0.19-1.83-0.71-4.37-2.03-5.65
		c-2.29-2.22-2.35-4.02-0.82-6.54c4.07-6.74,3.37-6.6-0.69-13.35c-2.51-4.19-6.4-8.15-5.15-14.56c0.51-2.63-3.58-6.91-6.52-9.26
		c-4.39-3.52-9.53-6.13-14.5-8.87c-3.32-1.83-5.32-3.7-3.18-7.78c0.59-1.12,0.11-2.9-0.13-4.33c-0.54-3.2-1.93-6.42-1.71-9.54
		c0.45-6.4-0.71-12.02-4.38-17.39c-2.09-3.06-3.2-6.81-4.63-10.3c-0.26-0.64-0.05-1.58,0.19-2.29c1.88-5.45,1.01-6.36-3.86-9.08
		c-7.76-4.32-15.41-8.99-22.48-14.35c-2.07-1.57-2.03-5.95-2.94-9.05C174.78,279.94,174.64,279.14,174.44,278.3z M338.71,360.08
		c1.72,0,4.02,0,5.61,0c3.13-4.27,6.04-8.23,8.94-12.19c-0.3-0.32-0.61-0.65-0.91-0.97C347.8,351.31,343.25,355.7,338.71,360.08z
		 M287.04,413.41c-0.34-0.09-0.67-0.18-1.01-0.27c-0.56,1.57-1.13,3.13-1.59,4.42c-2.61-0.21-4.89-0.39-7.03-0.56
		c-0.12-0.71-0.24-1.48-0.37-2.25c-0.28,0.01-0.56,0.01-0.84,0.02c-0.27,1.55-0.54,3.11-0.71,4.11c3.56,0.43,6.67,0.8,10.22,1.22
		C286.14,418.01,286.59,415.71,287.04,413.41z"/>
	<path class="st0" d="M338.71,360.08c4.54-4.38,9.09-8.77,13.64-13.16c0.3,0.32,0.61,0.65,0.91,0.97c-2.9,3.96-5.81,7.91-8.94,12.19
		C342.73,360.08,340.43,360.08,338.71,360.08z"/>
	<path class="st0" d="M287.04,413.41c-0.45,2.3-0.91,4.59-1.32,6.69c-3.55-0.42-6.66-0.8-10.22-1.22c0.17-1.01,0.44-2.56,0.71-4.11
		c0.28-0.01,0.56-0.01,0.84-0.02c0.13,0.77,0.25,1.54,0.37,2.25c2.14,0.17,4.42,0.35,7.03,0.56c0.46-1.29,1.03-2.85,1.59-4.42
		C286.37,413.24,286.71,413.32,287.04,413.41z"/>
</g>
</svg>
