<?xml version="1.0" encoding="utf-8"?>
<!-- Generator: Adobe Illustrator 23.0.3, SVG Export Plug-In . SVG Version: 6.00 Build 0)  -->
<svg version="1.1" id="Layer_1" xmlns="http://www.w3.org/2000/svg" xmlns:xlink="http://www.w3.org/1999/xlink" x="0px" y="0px"
	 viewBox="0 0 597.51 145.36" style="enable-background:new 0 0 597.51 145.36;" xml:space="preserve">
<g>
	<path d="M0,144.46c3.28-3.36,6.2-6.36,10.27-10.53c5.05-0.64,5.57-1.49,3.77-8.83c-0.67-2.74-1.52-5.5-1.6-8.28
		c-0.05-1.8,0.92-3.75,1.82-5.42c1.65-3.09,3.31-6.24,5.5-8.94c1.4-1.73,3.75-2.7,6.27-4.42c-0.46-1.07-1.14-2.66-1.9-4.43
		c0.87-1.07,1.79-2.22,2.65-3.28c-0.07-0.48-0.02-0.86-0.18-1.11c-3.82-6.08-3.82-6.05,2.99-9.08c2.27-1.01,4.56-2.03,6.71-3.28
		c1.26-0.73,2.26-1.91,4.33-3.72c-1.74-1.11-3.22-2.05-4.64-2.96c2.22-3.46,2.22-3.46,8.34-2.28c-6.09-7.84-5.26-14.32,3.23-19.72
		c-1.73-3.14-3.44-6.23-5.32-9.62c3.14-0.4,5.91-0.75,9.14-1.17c-2.1-2.4-3.63-4.14-5.92-6.76c7.27-0.44,8.88-3.35,6.43-8.91
		c-0.51-1.15,0.79-3.09,1.26-4.67c1.02,1.12,2.04,2.24,3.47,3.8c4.97-6.24,12.27-3.65,18.9-3.71c24.99-0.22,49.99-0.08,74.98-0.08
		c1.79,0,3.58,0,6.52,0c-0.8-5.6-1.51-10.59-2.43-17.07c5.38,1.33,10.43,2.64,15.51,3.79c1.74,0.4,3.57,0.58,5.35,0.56
		c34.98-0.31,69.98-1.56,104.94-0.8c56.79,1.23,113.55,4.35,170.34,5.53c38.24,0.8,76.52-0.3,114.77-0.69
		c9.23-0.1,18.45-0.8,27.68-1.16c1.59-0.06,3.18,0.23,4.31,0.32c-1.46,7.51-2.85,14.71-4.3,22.18c-8.85-2.56-12.53,4.6-16.34,11.8
		c-1.53,2.89-3.38,5.69-5.52,8.14c-1.81,2.07-3.95,2.11-5.68-0.65c-1.71-2.73-3.89-2.87-7.13-1.87c-6.92,2.13-12.92,4.9-16.15,11.94
		c-0.6,1.31-2.53,2.08-3.93,2.95c-2.95,1.85-4.74,0.52-4.49-2.5c0.47-5.67-2.24-5.19-5.52-3.07c-3.41,2.22-6.49,4.93-9.72,7.43
		c0.19,0.44,0.37,0.88,0.56,1.32c-1.17-0.46-2.53-1.53-3.46-1.24c-1.45,0.45-3.13,1.57-3.79,2.88c-1.49,2.98-2.25,6.33-3.68,9.35
		c-0.43,0.92-2.19,1.89-3.19,1.75c-7.06-1.03-11.81,3.51-17.02,6.82c-5.75,3.65-10.93,8.5-17.09,11.12
		c-4.19,1.79-9.85-0.18-14.45,1.05c-4.82,1.28-9.17,4.35-13.69,6.7c-0.56,0.29-0.88,1.23-1.41,1.33c-6.44,1.23-6.17,7.13-7.64,11.48
		c-1.97,5.81-4.41,7.71-10.68,6.59c-4.95-0.88-6.79,0.41-7.4,5.5c-0.65,5.44-1.13,10.89-1.69,16.5c-1.07,0.14-1.87,0.34-2.66,0.33
		c-72.47-0.74-144.94-1.1-217.4-2.45c-25.61-0.48-51.07,1.88-76.63,1.8c-37.49-0.12-74.98-0.16-112.47-0.24
		C3.3,144.46,1.65,144.46,0,144.46z"/>
</g>
</svg>
