<?xml version="1.0" encoding="utf-8"?>
<!-- Generator: Adobe Illustrator 23.0.3, SVG Export Plug-In . SVG Version: 6.00 Build 0)  -->
<svg version="1.1" id="Layer_1" xmlns="http://www.w3.org/2000/svg" xmlns:xlink="http://www.w3.org/1999/xlink" x="0px" y="0px"
	 viewBox="0 0 538.56 514.64" style="enable-background:new 0 0 538.56 514.64;" xml:space="preserve">
<g>
	<path d="M177.19,326.76c-1.22,2.8-3.43,4.12-7.37,4.06c-6.4-0.09-10.53,4.65-12.61,13.01c-1.06,4.27-1.87,8.61-3.1,12.83
		c-0.32,1.1-1.7,2.01-2.77,2.75c-2.99,2.07-6.07,4.01-9.11,6c0.61,0.73,1.23,1.46,1.84,2.18c-6.34-0.07-12.33-0.96-16.7-6.47
		c-0.63-0.79-2.05-0.92-3.03-1.47c-2.46-1.38-4.83-2.92-7.35-4.2c-1.59-0.8-3.52-0.98-5.02-1.9c-3.98-2.43-7.77-5.16-11.71-7.67
		c-2.33-1.48-4.9-2.6-7.17-4.17c-9.19-6.33-13.28-15.48-13.64-26.32c-0.15-4.4-1.2-8.07-4.22-11.29c-1.09-1.16-2.07-2.74-2.4-4.27
		c-2.22-10.44-9.66-15.33-18.71-19.48c-4.51-2.06-7.87-6.68-11.65-10.26c-5.5-5.2-10.28-11.46-16.52-15.5
		c-5.81-3.76-10.32-7.89-13.67-13.86c-1.24-2.2-4.47-3.2-6.51-5.07C3.54,233.66,0,231.27,0,229.03c0-3.15,2.55-5.58,7.19-5.56
		c44.66,0.26,89.32,0.17,133.98,0.17c1.96,0,3.92,0,6.43,0c0-74.76,0-149.02,0-223.65c41.96,0,83.35,0,125.22,0
		c0,32.15,0,64.23,0,94.73c3.74,3.56,6.53,6.03,9.11,8.7c4.34,4.48,5.15,4.57,9.46,0.22c1.55,1.14,3.11,2.3,5.01,3.71
		c0.87-1.4,1.6-2.57,2.32-3.72c4.9,1.72,6.01,3.27,7.45,10.12c5.97,1.68,11.79,3.42,17.67,4.89c1.34,0.33,2.92-0.49,4.39-0.47
		c1.36,0.02,3.28-0.04,3.97,0.77c3.32,3.93,5.91,3.96,7.83-0.69c3.63,0.44,6.93,0.85,10.59,1.3c-0.54,3.79,0.62,7.07,6.34,6.45
		c-0.28,1.75-0.51,3.15-0.71,4.4c3.08,3.07,5.48,2.57,8.11-0.39c2.12-2.38,4.01-5.99,7.99-0.89c1.28,1.65,5.89,1.2,6.4,5.23
		c1.03-0.18,2.16-0.13,3.05-0.57c2-0.99,3.89-2.21,5.97-3.43c0.74,2.79,1.27,4.79,1.8,6.78c1.44-1.42,2.67-3.18,4.36-4.18
		c2.42-1.43,4.58-10.67,8.13-0.58c0.33,0.93,3.47,0.88,5.56,1.35c0.91-1.21,1.89-2.5,3.06-4.04c1.84,2.01,3.41,4.19,5.43,5.8
		c2.19,1.74,4.8,2.94,7.54,4.56c3.77-2.77,7.45-6.78,13.73-6.57c3.47,0.11,6.95-2.24,10.51-2.65c3.36-0.38,6.86,0.21,10.28,0.59
		c4.21,0.47,8.74,2.33,11.39-4.47c4.37,2.88,8.23,5.77,12.42,8.08c3.45,1.9,7.43,2.86,10.91,4.71c3.1,1.65,5.79,4.07,8.81,5.89
		c1,0.6,2.5,0.63,3.73,0.54c12.72-1,12.72-1.03,12.7,11.76c-0.03,20.33-0.17,40.66,0.03,60.99c0.02,2.5,1.23,5.47,2.86,7.39
		c4.2,4.95,7.83,9.83,6.37,16.86c-0.17,0.81,0.47,1.86,0.9,2.72c2.49,5,5.09,9.95,7.55,14.96c5.17,10.5,2.3,20.28-2.98,29.7
		c-2.82,5.03-3.72,10.99-2.35,15.77c2.13,7.42-0.11,12.79-3.68,18.65c-1.6,2.62-2.04,5.96-3.19,9.56
		c-11.93,1.09-22.74,8.49-34.47,15.17c-1.39-3.6-2.15-6.51-0.12-10.02c1.45-2.49,1.86-5.58,2.73-8.4c-0.57-0.37-1.13-0.75-1.7-1.12
		c-3.21,1.87-6.41,3.73-9.62,5.6c-0.68-0.27-1.36-0.54-2.04-0.81c0.56,2.64,0.54,5.59,1.77,7.85c3.68,6.73,1.86,12.33-5.19,15.19
		c-1.46,0.59-3.23,1.92-3.69,3.3c-3.81,11.5-13.69,15.08-23.72,18.07c-6.14,1.83-6.3,1.29-8.13,4.75
		c-4.14,0.39-7.39,0.69-10.81,1.01c0.17-1.07,0.37-2.41,0.65-4.16c-3.83,1.35-7.13,3.25-10.52,3.45c-2.18,0.13-4.51-2.23-7.15-3.69
		c-0.13,2.92,0.2,5.32,3.17,7.14c2.05,1.26,4.19,2.99,5.3,5.05c1.6,2.95,0.56,5.75-2.61,7.4c-20.1,10.45-30.44,28.36-35.95,49.18
		c-2.42,9.13-0.41,18.81,2.09,28.12c2.65,9.88,4.64,19.94,7.02,30.37c-5.09,0.54-9.47,0.26-10.17,6.66c-2.81-2-5.29-3.15-6.89-5.05
		c-3.82-4.51-8.68-5.96-14.23-5.74c-7.72,0.32-14.96,0.06-21.74-4.99c-4.43-3.3-10.99-2.93-14.95-8.15
		c-1.27-1.68-5.45-1.03-8.24-1.69c-5.34-1.26-7.56-5.26-7.86-10.26c-0.36-5.86-3.07-10.25-6.93-14.44c-1.89-2.06-3.06-5.06-3.8-7.84
		c-0.93-3.5,0.87-7.76-3.2-10.4c-0.38-0.25-0.03-1.84,0.2-2.76c1.61-6.45-0.38-9.12-5.81-12.55c-3.93-2.48-7.24-6.57-9.69-10.62
		c-3.2-5.3-5.97-10.56-11.37-14.19c-2.56-1.71-4.54-4.73-5.99-7.56c-4.43-8.66-8.5-17.5-12.67-26.29c-0.49-1.04-0.88-2.16-1.1-3.28
		c-1.47-7.51-5.9-12.9-11.99-17.21c-4.09-2.9-8.36-5.66-11.99-9.08c-2.57-2.42-4.06-5.95-6.3-8.77c-0.85-1.07-2.37-2-3.7-2.2
		c-5.4-0.79-10.85-1.17-16.26-1.9C189.96,328.86,183.96,327.82,177.19,326.76z"/>
</g>
</svg>
