<?xml version="1.0" encoding="utf-8"?>
<!-- Generator: Adobe Illustrator 23.0.3, SVG Export Plug-In . SVG Version: 6.00 Build 0)  -->
<svg version="1.1" id="Layer_1" xmlns="http://www.w3.org/2000/svg" xmlns:xlink="http://www.w3.org/1999/xlink" x="0px" y="0px"
	 viewBox="0 0 459.45 764.1" style="enable-background:new 0 0 459.45 764.1;" xml:space="preserve">
<g>
	<path d="M233.11,764.03c-12.41,0-24.39,0.18-36.36-0.03c-41.99-0.75-83.97-1.59-125.95-2.48c-8.49-0.18-16.98-0.86-25.47-1.05
		c-4.38-0.1-7.09-1.85-8.67-5.99c-0.92-2.42-2.92-4.42-3.91-6.82c-0.9-2.19-2.19-5.16-1.4-6.95c5.93-13.47,4.85-27.8,5.43-41.85
		c2.73-66.43,5.22-132.88,7.62-199.32c0.08-2.34-1.04-5.43-2.7-6.99c-5.72-5.36-8.02-11.94-8.89-19.44
		c-0.23-2.02-1.58-5.2-2.97-5.54c-4.57-1.11-9.39-1.25-14.13-1.49c-0.46-0.02-1.3,1.8-1.47,2.85c-0.27,1.63-0.13,3.32-0.17,4.99
		c-0.16,8.06-3.16,10.58-11,8.55c-1.38-0.36-3.22-3.21-3.02-4.66c0.78-5.73,1.72-11.57,3.65-16.99c4.29-12.03,9.02-23.9,13.94-35.69
		c3.06-7.33,3.36-8.09-2.34-13.44c-3.99-3.75-5.97-7.77-4.47-13.33c0.77-2.87,0.76-5.94,1.23-8.9c1.01-6.42-0.16-12.29-2.5-18.45
		c-2.24-5.9-2.36-12.6-3.63-18.9c-0.92-4.53-1.62-9.25-3.46-13.42c-2.84-6.43-2.99-12.32,0.14-18.65
		c2.58-5.21,4.21-10.87,6.76-16.09c3.12-6.4,4.51-12.88,2.6-19.81c-0.74-2.66,0.11-4.16,2.25-5.82c5.64-4.39,10.99-9.17,16.54-13.69
		c3.09-2.52,3.83-5.66,3.09-9.37c-0.26-1.31-0.4-2.65-0.8-3.91c-2.96-9.4-1.89-18.27,2.8-26.95c1.36-2.52,1.07-5.92,2.32-8.54
		c1.11-2.32,2.92-4.96,5.1-5.96c4.41-2.02,6.22-4.1,5.09-9.39c-1.14-5.29-0.59-10.95-0.7-16.45c-0.06-2.89-0.9-4.73-3.94-6.04
		c-8.3-3.58-8.83-5.64-4.46-13.6c1.84-3.34,3.87-6.58,6.12-10.39c1.93,1.35,3.56,2.68,5.35,3.7c1.77,1,3.72,1.68,5.92,2.65
		c1.35-5.35-0.21-8.47-4.32-10.61c-5.9-3.07-6.77-4.39-4.5-10.65c3.88-10.71,1.25-21.86,3.01-32.65c0.5-3.06,1.96-6.15,3.66-8.79
		c2.6-4.04,5.79-7.7,8.72-11.53c2.45-3.2,1.96-5.74-2.12-6.52c-5.1-0.97-5.76-3.65-4.63-8.21c1.91-7.75,3.09-15.68,4.98-23.43
		c0.92-3.75-0.34-6.11-3.2-8.08c-2.47-1.69-4.83-3.65-7.51-4.91c-3.62-1.7-3.69-4.22-2.6-7.36c2.48-7.16,9.2-10.23,14.45-14.67
		c0.42-0.36,2.87,0.91,3.71,1.95c5.79,7.2,7.86,7.13,12.24-1.07c1.21-2.27,1.66-4.94,2.69-8.14c1.69,0,3.8,0,5.91,0
		c85.16,0,170.33,0.09,255.49-0.09c14.3-0.03,28.61-1.97,42.89-1.7c14.1,0.27,28.17,2.17,42.24,3.46c4.28,0.39,8.53,1.76,10.68-4.06
		c0.58-1.56,3.36-3.12,5.21-3.23c4.86-0.29,9.77,0.22,15.83,0.46c-3.07,3.87-5.41,6.38-7.24,9.22c-3.2,4.95-3.08,8.2,1.4,11.89
		c5.7,4.69,6.82,9.68,3.58,16.21c-1.76,3.55-2.68,7.51-4.16,11.21c-0.54,1.34-1.3,2.99-2.45,3.63c-5.26,2.91-6.42,7.59-6.56,13.06
		c-0.18,7.17-2.48,13.24-9.17,17.13c-4.76,2.76-5.69,7.05-4.67,12.47c2.48,13.13,7.18,25.23,14.87,36.18
		c1.52,2.17,3.18,4.49,3.77,6.98c0.48,2.02-0.2,4.54-1.05,6.56c-0.59,1.4-2.21,2.49-3.57,3.41c-4.62,3.11-6.78,6.12-3.48,12.16
		c2.84,5.2-0.63,10.54-5.06,13.34c-6.89,4.35-10.75,9.75-12.14,17.89c-0.97,5.72-5.78,9.2-11.61,10.46
		c-4.72,1.03-9.46,1.95-14.23,2.68c-3.63,0.56-6.16,2.21-7.41,5.75c-0.44,1.25-1.21,2.37-1.71,3.6
		c-3.68,8.93-9.91,13.24-19.91,14.65c-10.74,1.52-21.34,5.11-31.53,9.04c-10.92,4.21-14.44,11.74-9.88,21.3
		c2.58,5.41,6.84,9.61,0.74,15.01c0.73,11.07,1.06,22.2,2.35,33.2c0.63,5.42,0.52,9.74-3.1,14.34c-3.95,5.02-7.2,10.82-9.61,16.74
		c-1.15,2.82-0.6,7.18,0.83,10.01c2.4,4.75,1.24,7.41-2.97,9.66c-0.86,0.46-1.65,1.06-2.42,1.55c1.87,8.03,1.19,10.09-6.44,13.94
		c-4.62,2.33-6.1,5.56-6.73,10.52c-1.44,11.25-0.38,23.33-8.11,32.93c-2.82,3.49-6.42,6.61-10.22,9.02
		c-17.23,10.9-14.52,5.59-14.49,26.44c0,3.41-1.62,6.85-2.61,10.24c-1.05,3.61-2.9,7.14-3.15,10.78c-0.25,3.52-1.1,6.18-4.01,8.01
		c-6.15,3.86-7.94,9.5-8.2,16.55c-0.79,21.8-1.76,43.6-3.47,65.34c-0.47,6.05-3.74,11.88-5.71,17.82
		c-1.14,3.41-2.85,6.76-3.27,10.25c-0.91,7.76-1.54,15.6-1.55,23.41c-0.01,4.73,0.92,9.59,2.21,14.16
		c2.14,7.56,1.37,14.55-2.91,21.01c-1.93,2.92-2.55,5.49-1.09,8.8c3.71,8.38,2.21,17.24-6.13,20.74
		c-11.76,4.94-11.57,15.35-14.54,24.5c-1.12,3.43-0.91,7.27-1.66,10.84c-2.35,11.14,1.41,19.9,9.97,27
		C227.75,747.8,232.09,754.85,233.11,764.03z"/>
	<path d="M17.98,50.59c0-3.33-0.03-6.65,0.01-9.98c0.03-3.29,0.13-6.08-3.27-8.6c-4.22-3.14-2.67-8.51,2.38-10.32
		c1.56-0.56,3.18-0.97,4.78-1.39c9.94-2.58,12.41-1.11,14.75,8.69c0.76,3.17,0.2,5.24-2.75,7.57c-2.73,2.16-4.57,5.97-5.79,9.42
		c-2.09,5.92-3.25,12.17-5.14,18.18c-0.43,1.38-2.23,2.33-3.4,3.48c-0.53-1.36-1.45-2.7-1.51-4.08
		C17.85,59.25,17.98,54.92,17.98,50.59z"/>
	<path d="M34.67,70.27c3.83,13.63,4.21,19.57-5.67,23.96C25.91,88.21,27.94,79.63,34.67,70.27z"/>
	<path d="M40.2,48.64c5.88,2.02,5.83,5.59,4.75,9.33c-0.27,0.96-2.27,2.37-2.36,2.28c-1.67-1.44-4.2-2.94-4.45-4.71
		C37.83,53.34,39.45,50.88,40.2,48.64z"/>
	<path d="M39.49,92.97c3.08,2.69,7.21,3.77,5.37,8.23c-0.47,1.13-3.61,2.43-4.51,1.9C35.84,100.47,38.88,97.02,39.49,92.97z"/>
</g>
</svg>
