<?xml version="1.0" encoding="utf-8"?>
<!-- Generator: Adobe Illustrator 23.0.3, SVG Export Plug-In . SVG Version: 6.00 Build 0)  -->
<svg version="1.1" id="Layer_1" xmlns="http://www.w3.org/2000/svg" xmlns:xlink="http://www.w3.org/1999/xlink" x="0px" y="0px"
	 viewBox="0 0 538.23 234.82" style="enable-background:new 0 0 538.23 234.82;" xml:space="preserve">
<g>
	<path d="M538.23,117.34c-2.02,2.79-4.05,5.58-6.35,8.75c-2.29-2.57-3.93-2.19-5.72,0.93c-1.62,2.83-4.49,4.91-6.31,7.65
		c-1.74,2.63-2.87,5.68-4.21,8.58c-0.46,0.98-0.58,2.81-1.16,2.94c-4.2,0.98-2.44,3.36-1.63,5.67c0.5,1.41,0.71,2.93,1.05,4.39
		c-0.46,0.13-0.93,0.26-1.39,0.38c-0.44-1.78-0.88-3.55-1.11-4.49c-2.76,2.35-5.23,4.44-7.69,6.54c-0.46,0.4-1.06,0.78-1.27,1.31
		c-3.33,8.12-9.05,15.37-8.93,24.74c0.01,0.62-0.38,1.24-0.77,2.43c-2.65-4.28-5.2-7.69-2.5-12.88c1.51-2.89,1.46-6.63,1.93-10.01
		c1.01-7.24,3.23-13.97,7.61-19.94c3.01-4.1,3.77-9.58,8.79-12.56c2.53-1.5,3.48-4.71-0.12-6.2c2.36-2.53,4.25-5.93,7.09-7.22
		c3.23-1.47,7.32-1.06,10.34-1.39c1.42,2.17,2.65,5.03,3.31,4.9c2.04-0.39,3.89-1.86,5.75-3.03c1.16-0.73,2.2-1.66,3.29-2.51
		C538.23,116.68,538.23,117.01,538.23,117.34z"/>
	<path d="M471.15,171.99c-3.51-3.1-6.22-5.48-9.14-8.06c0,3.66,0,6.82,0,10.21c0.46,0.16,1.42,0.5,3,1.05
		c-4.26,3.73-3.06,6.44,0.87,8.67c5.09,2.88,4.13,8.24,5.59,12.44c-2.92,1.34-5.38,2.47-7.59,3.49c-4.05-3.54-8.28-7.18-12.42-10.93
		c-0.64-0.58-1.18-1.68-1.14-2.51c0.24-5.14-2.08-6.61-6.79-5.13c-1.22,0.38-2.52,0.49-5.16,0.99c2.73,2.29,4.68,3.85,6.52,5.52
		c0.88,0.8,2.34,2.01,2.18,2.72c-0.82,3.64,1.82,4.35,4.03,5.85c3.79,2.58,9.55,4.27,5.16,12.37c5.21-2.21,9.74-0.55,12.76-4.82
		c0.72-1.01,3.62-1.89,4.22-1.36c5.1,4.53,10.98,2.42,16.6,2.47c4.59,9.36,2.47,18.99,0.52,28.92c-0.41,0.05-1.35,0.26-2.3,0.27
		c-94.15,0.07-188.34,1.68-282.45-0.35c-67.14-1.45-134.26-2.77-201.41-2.88c-1.27,0-2.53-0.13-3.8-0.2
		c-0.13-0.51-0.27-1.03-0.4-1.54c3.87-1.32,7.71-2.71,11.6-3.94c6.74-2.14,13.55-4.06,20.22-6.38c1.08-0.38,1.97-2.25,2.33-3.6
		c1.11-4.17,3.82-5.83,7.93-6.01c5.13-0.22,8.5-2.1,7.95-8.2c-0.1-1.07,2.08-2.72,3.53-3.47c2.73-1.41,4.47-3.08,4.71-6.4
		c0.1-1.32,1.43-2.76,2.57-3.73c1.24-1.06,2.86-1.68,4.36-2.4c14.19-6.84,27.23-15.35,38.49-26.46c0.82-0.81,1.8-1.48,2.75-2.15
		c0.21-0.15,0.61-0.02,1.84-0.02c-0.76,1.66-1.35,2.95-1.46,3.18c1.03,2.9,1.43,5.21,2.59,7.02c2.06,3.2,4.32,6.37,7.02,9.04
		c2.01,1.99,4.74,3.32,7.3,4.64c1.77,0.91,4.26,2.35,5.66,1.75c5.77-2.48,11.25-5.65,17.75-9.04c1.62,1.43,4.56,4.03,6.54,5.78
		c8.65-2.82,16.46-5.36,24-7.82c0-2.2,0-4.24,0-7.69c9.6,9.73,15.15-0.74,23.23-3.04c0.64,0.9,1.58,2.22,2.8,3.94
		c3.5-2.23,6.8-4.34,10.5-6.71c-3.62-5.13,1.73-6.24,3.91-8.84c-4.11-7.21-4.06-7.33,1.72-14.56c4.68-5.85,9.64-11.54,13.79-17.75
		c2.41-3.6,3.36-8.15,5.19-12.17c0.71-1.57,1.87-3,3.08-4.25c1.97-2.05,5.38-3.17,4.07-7.09c-0.08-0.25,0.08-0.78,0.3-0.91
		c7.7-4.68,6-13.47,8.91-20.24c0.19-0.44,0.46-0.84,0.67-1.23c4.82,0.2,8.28,1.91,9.72,6.93c0.77,2.69,11.15,7.15,13.72,5.97
		c1.16-0.53,1.97-2.12,2.64-3.39c5.53-10.43,10.98-20.9,17.05-32.48c2.21,3.09,4.03,5.64,6.37,8.92c1.85-3.88,2.71-6.61,4.32-8.8
		c1.61-2.18,2.05-6.41,6.7-4.89c0.55,0.18,1.68-1.81,2.71-2.56c1.26-0.92,2.72-1.56,4.04-2.41c0.73-0.47,1.95-1.14,1.92-1.67
		c-0.22-4.54,3.28-6.61,5.85-9.34c2.18-2.32,3.65-4.19,4-8.27C335.4,12.1,337.95,5.2,343.65,0c9.39,8.11,18.67,16.12,28.26,24.39
		c1.96-3.85,3.75-7.4,5.56-10.94c2.02-3.95,9.3-5.6,12.49-2.68c2.19,2.01,4.09,4.33,6.43,6.86c-0.97,0.75-2.53,1.4-3.08,2.53
		c-0.69,1.41-1.32,4.13-0.64,4.7c2.6,2.18,4.64,4.92,8.8,5.41c9.69,1.14,15.62,8.25,20.64,15.72c1.43,2.14,0.42,5.83,0.83,8.76
		c0.46,3.34-2.88,4.72-3.51,6.58c-1.81,5.4-7.21,5.72-10.06,9.13c-4.64,5.54-4.46,11.8-1.45,18.27c5.64,2.13,10.4-0.54,15.02-3.99
		c0.71,0.81,1.55,1.4,1.46,1.72c-1.57,5.39,2.16,9.34,4.56,12.98c1.86,2.81,6.34,4.47,9.96,5.36c3.6,0.89,7.6,0.2,10.73,0.2
		c4.66,7.97,9.94,14.01,17.89,17.31c7.08,2.95,6.92,2.91,4.54,10.21c-1.56,4.79-2.58,9.76-4.23,16.13
		c-3.75-3.55-6.76-6.4-10.12-9.57c0,2.57,0,4.55,0,6.52c-4.8-5.8-6-14.5-15.35-15.49c0.1-0.17-0.26,0.25-0.19,0.35
		c4.35,5.93,8.1,12.52,13.36,17.49c3.17,2.99,8.71,3.46,13.56,5.2c-1.38,0.91-2.66,1.76-4.05,2.68c3.13,3.35,9.66,4.02,8.27,10.6
		C472.97,168.27,471.96,169.98,471.15,171.99z"/>
</g>
</svg>
