<?xml version="1.0" encoding="utf-8"?>
<!-- Generator: Adobe Illustrator 23.0.3, SVG Export Plug-In . SVG Version: 6.00 Build 0)  -->
<svg version="1.1" id="Layer_1" xmlns="http://www.w3.org/2000/svg" xmlns:xlink="http://www.w3.org/1999/xlink" x="0px" y="0px"
	 viewBox="0 0 827.58 540.71" style="enable-background:new 0 0 827.58 540.71;" xml:space="preserve">
<style type="text/css">
	.st0{fill:#FFFFFF;}
</style>
<g>
	<path d="M54.55,415.64c3.57-17.17-1.61-34.56,4.29-51.04c0.49-0.08,0.97-0.15,1.46-0.23c0.48,1.72,1.39,3.44,1.37,5.15
		c-0.07,6.15-0.52,12.3-0.69,18.45c-0.09,3.16-0.11,6.35,0.27,9.47c0.18,1.44,1.39,2.75,2.13,4.12c1.05-0.93,2.02-1.95,3.15-2.75
		c1.26-0.9,2.67-1.6,4.67-2.77c-1.03-2.66-3.34-5.73-2.86-8.29c0.4-2.14,4.05-3.68,7.05-6.13c-1.43-3.05-3.42-7-5.14-11.06
		c-1.29-3.05-2.91-6.28,1.53-8.52c0.85-0.43,1-2.06,1.74-2.91c1.37-1.58,2.91-3.04,4.43-4.48c0.88-0.83,2.64-1.54,2.63-2.27
		c-0.02-1-1.26-2.72-2.15-2.83c-3.36-0.45-6.82-0.67-10.19-0.42c-3.11,0.23-6.15,1.49-9.27,1.69c-2.45,0.16-5.1-0.99-4.14-4.12
		c1.84-5.93-0.48-11.11-2.08-16.51c-0.85-2.89-2.34-6.04,1.52-8.93c0.28,1.09,0.35,1.82,0.65,2.44c0.52,1.06,1.13,2.83,1.79,2.88
		c1.07,0.07,2.97-0.81,3.21-1.67c1.99-7.01,7.89-6.56,13.24-7.44c3.65-0.6,7.23-1.62,10.84-2.45c0.09-0.67,0.18-1.34,0.28-2.02
		c-1.88-0.88-3.69-2.15-5.67-2.54c-2.91-0.57-5.95-0.61-8.94-0.7c-3.1-0.09-4.95-0.97-5.02-4.61c-0.1-4.65-4.06-5.31-7.47-5.73
		c-3.95-0.49-3.62,3.01-4.22,5.49c-0.68,2.79-1.35,5.58-2.03,8.37c-0.66,0-1.31-0.01-1.97-0.01c-0.35-2.24-0.89-4.47-1.02-6.73
		c-0.76-13.41-1.31-26.84-2.25-40.24c-0.16-2.28-1.44-4.9-3.02-6.58c-6.19-6.59-8.55-14.41-8.81-23.23
		c-0.38-12.61,0.31-25.29-3.9-37.58c-4.79-14-10.42-27.24-22.14-37.21c-5.23-4.45-4.36-11.5-4.94-17.78
		c-0.58-6.22-1.35-12.42-2.35-18.58c-0.46-2.81-1.32-5.06,1.1-7.78c1.48-1.66,0.92-5.03,1.6-7.54c0.86-3.14,1.54-6.52,3.25-9.18
		c1.57-2.45,1.23-3.83,0.03-6.18c-1.06-2.07-1.85-5.46-0.86-7.15c1.74-2.96,4.58-1.05,6.93,0.38c6.78,4.13,13.55,8.28,20.45,12.22
		c5.05,2.88,10.41,5.21,15.4,8.18c6.27,3.73,12.21,8.01,18.47,11.75c2.61,1.56,5.62,2.62,8.58,3.42c3.98,1.07,8.09,1.67,12.14,2.47
		c0.81,0.16,1.65,0.52,2.44,0.45c18.32-1.65,35.32,5.34,52.99,7.95c2.74,0.4,5.61,0.18,8.38-0.09c1.79-0.18,3.51-1,5.27-1.5
		c13.73-3.88,15.6-2.59,18.02,11.59c0.33,1.94,2.03,3.64,3.09,5.45c0.59-0.26,1.18-0.51,1.78-0.77c0-1.24,0.01-2.49,0-3.73
		c-0.03-2.6,0.13-5.93,3.39-5.33c2.08,0.38,3.99,3.26,5.35,5.41c0.73,1.15,0.13,3.15,0.13,5c4.33-0.06,5.23-1.9,4.65-5.41
		c-1.01-6.08,1.36-9.66,7.27-10.94c1.32-0.29,2.9,0.65,4.36,1.02c-0.45,1.2-0.9,2.39-1.28,3.37c2.68,5.27,5.48,10.66,8.15,16.13
		c0.56,1.14,1.22,2.79,0.81,3.76c-1.92,4.52-2.15,8.57,1.35,12.54c1.12,1.27,1.41,3.27,2.29,5.44c-2.17,0-3.88,0-5.94,0
		c-0.25,3.17,0.2,6.56-4.22,7.57c-1.05,0.24-1.51,3.42-2.1,5.29c-1.53,4.86-2.96,9.75-4.47,14.62c-0.25,0.8-0.74,1.52-1.11,2.27
		c-0.72-0.3-1.43-0.61-2.15-0.91c0.32-2.29-0.05-5.04,1.09-6.8c3.72-5.72,3.95-11.91,3.44-18.28c-0.13-1.61-1.04-3.16-2.04-5.98
		c-0.61,5.52-1.05,9.5-1.5,13.49c-0.42,0.01-0.84,0.02-1.25,0.02c-0.65-1.85-1.3-3.71-1.95-5.56c-0.5,0.02-1,0.04-1.51,0.06
		c-0.22,1.55-0.85,3.16-0.59,4.62c1.6,9.19-3.67,15.79-8.32,22.63c-0.55,0.81-1.53,1.33-2.05,2.16
		c-7.43,11.76-14.87,23.52-22.14,35.38c-1.08,1.77-1.72,4.06-1.79,6.14c-0.14,4.36,2.61,6.02,6.79,4.74
		c3.01-0.92,6.16-2.27,9.17-2.1c8.57,0.47,13.56-5.37,19.28-10c0.65-0.53,0.77-1.72,1.64-3.8c-2.72,0.83-4.62,1.09-6.2,1.94
		c-5.65,3.01-11.13,6.36-16.82,9.3c-3.01,1.55-4.38,0.85-8.25-3c0.32-0.65,0.48-1.58,1.04-2.07c6.7-5.9,9.84-14.08,13.8-21.68
		c4.45-8.54,10.3-14.51,20.74-13.81c4.48,0.3,4.92-2.34,5.81-6.1c1.37-5.81,3.8-11.53,6.72-16.77c2.02-3.63,5.62-6.37,8.74-9.77
		c1.32,1.82,2.02,2.8,2.85,3.94c5.71-5.52-2.36-9.85-0.93-14.81c6.21,1.21,12.13,15.77,8.72,19.96c1.26,2.79,2.44,5.42,3.62,8.04
		c-0.44,0.36-0.87,0.73-1.31,1.09c-2.54-0.96-5.07-1.93-6.89-2.62c-1.74,2.7-3.37,5.21-5,7.73c-2-2.28-4.01-4.56-6.29-7.15
		c0,1.48-0.71,3.83,0.12,4.67c5.26,5.38,2.31,12.25,3.61,18.3c0.77,3.58,0.48,7.58-3.55,11.34c-1.57-3.6-2.85-6.54-4.13-9.47
		c-0.64,0.13-1.28,0.27-1.91,0.4c0.36,2.43,0.45,4.94,1.15,7.27c0.55,1.83,1.83,3.44,3.37,6.2c3.56-1.88,7.79-4.13,11.98-6.35
		c1.42,2.92,3.23,5.6,3.94,8.53c0.42,1.76-0.36,4.33-1.5,5.86c-2.97,3.99-5.85,7.79-3.91,13.16c0.11,0.29,0.16,0.82,0,0.96
		c-4.43,3.93-3.74,9.19-2.82,14.52c-0.41,0.01-0.82,0.03-1.23,0.04c-0.89-0.79-1.79-1.58-2.78-2.46c-1.05,0.7-2.08,1.96-2.92,1.84
		c-1.65-0.22-3.69-0.82-4.61-2.01c-0.64-0.82-0.13-3.22,0.66-4.34c2.58-3.64,5.85-6.91,4.14-12.5c-4.61,2.18-8.9,3.56-10.86,9.26
		c-1.94,5.63-4.01,10.47-0.35,16.26c0.82,1.3-1.5,4.6-2.37,6.97c-1.61-1.17-3.65-2.03-4.75-3.56c-3.35-4.69-1.6-9.41,1.26-13.44
		c3.23-4.56,2.15-9.22,1.36-13.92c-0.22-1.3-1.78-2.37-3.02-3.9c-0.86,1.39-1.69,2.1-1.64,2.74c0.6,7.16-2.83,11.9-8.69,15.49
		c-1.46,0.89-2.78,2.66-3.3,4.3c-1.94,6.15-6.08,7.31-12,5.54c1.14-2.33,2.31-4.73,3.49-7.13c-0.25-0.13-0.51-0.27-0.76-0.4
		c-3.27,2.99-6.53,5.99-11.17,10.24c6.6,0.68,11.91,1.23,17.23,1.78c0.1,0.54,0.2,1.08,0.3,1.62c-3.23,1.13-6.46,2.26-10.26,3.6
		c1.06,0.75,1.73,1.22,2.73,1.93c-2.25,2.37-4.46,4.71-6.68,7.04c0.34,0.48,0.69,0.95,1.03,1.43c3.93-2.75,7.86-5.5,12.27-8.57
		c0.42,5.83-8.34,7.87-5.01,14.34c2.75-3.35,5.37-6.54,8.83-10.77c1.63,5.57-2.46,10.66,3.73,14.21c0.44-6.61,0.84-12.6,1.24-18.6
		c0.74-0.07,1.49-0.14,2.23-0.21c1.16,3.98,2.33,7.97,3.49,11.95c0.63-0.1,1.26-0.2,1.9-0.3c-0.58-4.65-1.15-9.3-1.73-13.96
		c0.63-0.15,1.26-0.3,1.89-0.45c0.97,1.97,2.03,3.91,2.91,5.93c3.04,6.99,7.22,7.96,12.32,2.58c5.52-5.82,10.64-11.86,12.08-20.26
		c0.46-2.7,2.41-5.14,3.71-7.77c4.15,1.93,4.68,8.12,10.76,5.84c-3.03-6.53,1.65-7.3,6.3-8.38c4.42-1.03,7.07-6.64,4.68-11.72
		c-2.8-5.93-1.88-12.96-6.54-18.44c-1.76-2.07-0.99-6.39-1.11-9.69c-0.02-0.63,1.13-1.71,1.88-1.85c0.61-0.11,1.67,0.73,2.07,1.42
		c0.65,1.12,0.92,2.45,1.5,4.11c3.66-3.04,3.36-6.19,0.9-9.15c-1.33-1.6-3.45-2.54-5.14-3.87c-2.61-2.05-3.76-4.73-0.95-7.13
		c2.73-2.33,2.84-4.95,2.62-8.05c-0.44-6.2-0.32-12.2,3.85-17.57c1.64-2.11,1.62-5.43,2.94-7.88c1.61-2.98,3.27-7.03,5.94-8.15
		c7.47-3.13,7.51-9.32,8.63-15.96c-6.04-1.15-12.42-2.38-14.34-8.62c-1.67-5.39-1.54-11.33-2.26-17.4c-2.87,0.38-6.02,0.44-8.9,1.36
		c-1.07,0.34-2.48,3.15-2.06,4.05c1.73,3.67,4.07,7.05,6.25,10.49c1.57,2.47,3.23,4.88,4.85,7.32c-0.51,0.37-1.02,0.74-1.53,1.1
		c-1.14-1.25-2.19-2.6-3.43-3.72c-2.52-2.28-5.31-4.29-7.68-6.72c-1.65-1.69-3.32-3.7-4.05-5.88c-1.19-3.55-1.62-7.36-2.38-11.08
		c6.37-1.47,11.92-7.62,17.51-0.05c3.12-5.13,2.09-10.96-2.58-14.62c-5.16-4.04-8.48-8.53-5.33-16.1c-3.16,0.8-5.58,1.4-8.4,2.11
		c-0.4-1.95-0.75-3.63-1.19-5.73c-1.05,0.4-2,0.55-2.66,1.06c-3.83,2.96-7.07,1.72-8.21-2.82c-0.62-2.47-2.17-4.71-3.29-7.04
		c5.69-2.36,7.52-1.57,10.96,5.28c0.68-1.87,1.25-3.42,1.99-5.47c0.81,1.4,1.14,2.85,1.97,3.25c1.81,0.86,3.94,1.72,5.81,1.49
		c0.83-0.1,2.09-2.98,1.84-4.36c-0.56-3.03-1.89-5.94-3.04-8.84c-0.7-1.76-1.65-3.42-1.56-5.88c1.34,1.03,2.57,2.28,4.06,3.01
		c1.16,0.57,3.18,1.11,3.84,0.54c0.82-0.7,1.16-2.75,0.78-3.92c-1.68-5.18-3.72-10.25-5.57-15.38c-0.43-1.19-1.31-2.73-0.9-3.62
		c2.34-5.14-0.77-7.63-4.61-9.28c-4.31-1.84-6.91,0.49-8.3,4.6c-0.22,0.66-0.97,1.14-2.26,2.59c0.85-11.64-4.48-19.62-11.5-26.81
		c1.43-2.15,2.74-4.14,4.05-6.12c-0.61-0.55-0.83-0.8-1.09-0.97c-1.74-1.18-3.5-2.34-5.25-3.5c2.14-1.18,4.2-2.56,6.45-3.45
		c1.14-0.46,2.63-0.03,3.97-0.04c47.66-0.05,95.33-0.08,142.99-0.17c40.49-0.07,80.99-0.34,121.48-0.3
		c99.99,0.09,199.98,0.31,299.97,0.47c10.15,0.02,20.3,0,31.3,0c0,2.49,0,4.56,0,6.63c0.06,129.83,0.1,259.66,0.25,389.48
		c0,2.83,1.49,5.64,1.77,8.51c0.17,1.7-0.2,3.82-1.15,5.18c-2.17,3.08-1.78,4.87,0.53,8.14c4.03,5.71,8.14,11.24,10.24,18.68
		c2.13,7.55,2.44,13.34-1.49,19.8c-0.55,0.91,0.28,2.81,0.75,4.16c1.45,4.16,3.03,8.28,4.93,13.42c-3.18,0-5.11,0-7.03,0
		c-69.83,0-139.66,0.03-209.5-0.07c-4.62-0.01-8.02,1.07-11.45,4.54c-3.71,3.75-8.58,6.41-13.18,9.14c-0.98,0.58-3.25-0.2-4.5-1.01
		c-4.86-3.15-9.63-3.16-14.6-0.41c-8.69,4.81-17.68,4.67-26.98,1.97c-1.21-0.35-3.85,1.02-4.44,2.26
		c-2.45,5.07-6.25,6.98-11.75,7.78c-12.23,1.78-24.8,2.62-35.79,9.38c-1.49,0.91-3.5,1.45-5.24,1.39c-3.82-0.12-5.88,1.92-8.24,4.58
		c-2.04,2.3-5.13,4.32-8.09,5c-7.75,1.79-15.68,2.76-23.53,4.1c-4.12,0.71-7.81,1.94-9.66-4.15c-1.46-4.82-11.38-5.43-15.19-1.05
		c-2.88,3.3-5.69,5.1-10.24,4.69c-1.68-0.15-4.11,1.46-5.21,2.98c-2.38,3.27-5.06,3.84-8.99,3.68c-6.28-0.25-12.63,0.44-18.9,1.21
		c-1.6,0.2-3.37,1.95-4.4,3.44c-3.18,4.6-4.03,4.85-9.34,1.25c0.79-1.32,1.59-2.67,2.5-4.2c-5.08-7.11-12.44-8.81-20.49-9.39
		c-5.25-0.38-10.54-1.04-15.67-2.22c-6.28-1.45-12.09-1.08-17.98,1.65c-1.81,0.84-4.85,1.1-6.36,0.12
		c-5.89-3.81-11.59-2.91-16.15,1.21c-8.12,7.33-18.2,10.25-27.56,14.96c-9.47,4.76-17.79,3.67-26.67,1.91
		c-10.43-2.06-20.73-4.83-30.96-7.73c-8.95-2.53-10.58-6.27-9.88-15.57c0.29-3.77-1.87-7.71-2.87-11.58
		c-0.58-2.24-1.84-4.64-1.46-6.73c1.61-8.94-1.8-17.09-3.34-25.53c-0.24-1.31-0.53-2.61-0.74-3.92
		c-1.23-8.01-3.48-14.82-12.37-18.12c-6.3-2.34-11.78-6.81-17.76-10.09c-4.04-2.22-7.73-2.12-11.05,1.95
		c-3.1,3.79-6.73,4.08-10.34,0.43c-4.06-4.1-7.69-8.75-10.8-13.62c-2.15-3.37-4.6-4.44-8.24-4.04c-3.64,0.4-7.29,0.73-10.94,0.97
		c-3.01,0.2-5.17-0.67-5.45-4.25c-0.33-4.33-2.68-3.9-4.76-1.38c-2.66,3.23-5.54,3.49-9.33,2.48c-1.59-0.42-4.36,0.25-5.32,1.44
		c-2.96,3.7-5.24,2.55-7.72-0.22c-0.44-0.49-0.82-1.05-1.19-1.6C63.41,414.72,63.41,414.72,54.55,415.64z M260.22,236.66
		c0.52-3.17,0.98-5.1,1.12-7.04c0.13-1.92,0.2-3.92-0.19-5.78c-0.64-3.12-1.77-6.13-2.46-9.24c-0.16-0.73,0.36-2.07,0.98-2.44
		c3.62-2.16,3.36-3.8-0.1-6.02c-3.79-2.42-5.03-7.45-3.33-11.36c-3.64,1.79-5.21,7.74-2.39,11.04c3.22,3.77,2.2,5.58-2.23,6.41
		c2.9,5.34-1.45,12.41,4.49,16.08c-0.45,1.39-1.57,3.17-1.11,3.8C256.21,233.75,258.11,234.9,260.22,236.66z"/>
	<path d="M211.78,121.74c9.17-2.88,10.41,2.92,11.67,8.25c1.36,5.75,2.27,11.62,3.35,17.44c0.18,0.97-0.07,2.2,0.44,2.89
		c0.69,0.94,1.92,1.49,2.92,2.2c0.52-0.93,1.41-1.84,1.49-2.81c0.21-2.54,0.07-5.11,0.07-7.19c4.14,3.45,8.38,6.73,12.31,10.34
		c3.37,3.09,3.09,11.04-0.46,17.52c-7.67-1.37-6.71-9.44-10.66-14c-1.26,1.01-2.5,2.01-3.31,2.67c-1.89-1.76-4.2-3.15-5.36-5.18
		c-1.32-2.33-1.87-5.2-2.28-7.91c-0.61-4.09-0.52-8.29-1.28-12.35c-0.44-2.32-1.48-4.13-5.06-4.1c-6.31,0.05-12.59-12.4-9.44-17.84
		c1-1.72,2.25-3.3,3.39-4.93c2.74-3.91,5.37-7.89,8.29-11.67c0.89-1.16,2.56-1.72,3.87-2.56c0.64,1.39,2.02,2.93,1.78,4.15
		c-0.79,4.08,0.3,6.16,4.6,6.91c1.45,0.25,2.92,2.13,3.76,3.62c0.61,1.09,0.66,3.01,0.07,4.07c-0.43,0.77-2.36,1.12-3.54,0.97
		c-2.28-0.29-4.5-1.07-6.17-1.5C218.95,114.21,215.98,117.32,211.78,121.74z"/>
	<path d="M192.85,48.39c1.06,2.52,2.28,4.99,3.13,7.58c0.5,1.52,0.43,3.23,0.61,4.85c-1.67-0.2-3.37-0.28-5.01-0.63
		c-2.21-0.47-4.34-1.42-6.56-1.68c-2.94-0.35-4.38-3.17-2.5-5.87c2.07-2.97,4.37-5.79,6.69-8.57c0.58-0.69,1.61-1.2,2.51-1.39
		c3.6-0.76,15.63,4.84,16.87,8.22c0.42,1.14-0.59,3.59-1.69,4.32c-1.27,0.84-3.71,1.1-4.99,0.4c-1.38-0.75-1.88-3-3.01-4.4
		c-1.2-1.49-2.67-2.76-4.03-4.12C194.2,47.52,193.53,47.95,192.85,48.39z"/>
	<path d="M225.22,202.59c2.02,0.91,4.03,1.16,4.63,2.22c1.02,1.81,1.24,4.11,1.65,6.23c0.28,1.47,0.09,3.06,0.52,4.47
		c0.87,2.89,2.45,5.63,2.88,8.56c0.23,1.53-1.36,3.33-2.3,5.37c0.18,0.12,1.12,0.74,2.41,1.59c-3.42,2-5,0.07-6.42-2.25
		c-1.25-2.04-1.91-4.76-5.48-3.64c-0.42,0.13-2.31-2.26-2.35-3.51c-0.08-2.77,0.34-5.63,1.02-8.33
		C222.72,209.64,224.08,206.08,225.22,202.59z"/>
	<path d="M168.66,57c3.78,3,7.5,5.63,10.77,8.74c1.08,1.02,1.38,3.28,1.34,4.96c-0.07,3.49-0.6,6.97-0.93,10.34
		C167.94,76.77,163.17,66.68,168.66,57z"/>
	<path d="M198.62,74.3c1.1,3.26-0.03,7.93,5.44,9.58c0.87,0.26,1.18,3.45,1.08,5.26c-0.03,0.54-2.35,1.37-3.59,1.34
		c-3.83-0.11-5.21-3.36-7.64-5.65c-4.14-3.91-2.72-7.64-2.03-11.53c0.31-1.76,2.19-4.45,3.56-4.58
		C198.53,68.42,199.64,70.79,198.62,74.3z"/>
	<path d="M235.05,235.71c4.06,7.01,1.52,12.49-0.67,18.02c-0.61,1.54-1,3.17-1.64,4.69c-0.4,0.95-1.11,1.77-1.68,2.65
		c-0.81-0.88-2.16-1.68-2.32-2.67c-0.31-1.91-0.37-4.07,0.21-5.89C230.7,247.1,232.81,241.8,235.05,235.71z"/>
	<path d="M217.34,56.63c0.43,3.45,0.97,6.89,1.15,10.35c0.02,0.38-2.84,1.41-2.96,1.22c-1.4-2.17-3.25-4.44-3.5-6.84
		c-0.17-1.61,2.04-3.46,3.19-5.2C215.92,56.32,216.63,56.47,217.34,56.63z"/>
	<path d="M188.39,268.36c0.99,5.41,1.85,10.12,2.82,15.46C184.51,280.93,183.46,274.1,188.39,268.36z"/>
	<path d="M222.03,63.59c2.56,1.81,5.49,3.87,9.11,6.43C221.21,71.21,221.21,71.21,222.03,63.59z"/>
	<path d="M203.59,70.97c-0.53-3.38-5.23-5.44-1.36-8.82c0.88-0.77,4.05-0.57,4.6,0.24C209.3,66.01,206.65,68.28,203.59,70.97z"/>
	<path d="M214.56,39.72c3.76,4.78,6.98,8.86,10.2,12.95c-0.38,0.29-0.76,0.58-1.14,0.87C218.44,50.65,213.32,43.66,214.56,39.72z"/>
	<path d="M214.53,148.84c-0.53-2.71-1.07-5.42-1.83-9.26c4.13,4.29,4.59,8.09,1.7,14.28c-1.9-4.11-3.36-7.25-4.81-10.38
		c0.39-0.2,0.78-0.4,1.17-0.6c1.06,2.06,2.11,4.11,3.17,6.17C214.14,148.97,214.33,148.91,214.53,148.84z"/>
	<path class="st0" d="M260.22,236.66c-2.12-1.76-4.01-2.91-5.22-4.56c-0.46-0.62,0.66-2.4,1.11-3.8
		c-5.94-3.67-1.59-10.74-4.49-16.08c4.43-0.83,5.45-2.64,2.23-6.41c-2.82-3.3-1.25-9.25,2.39-11.04c-1.7,3.91-0.47,8.94,3.33,11.36
		c3.46,2.21,3.72,3.85,0.1,6.02c-0.62,0.37-1.14,1.71-0.98,2.44c0.69,3.11,1.82,6.13,2.46,9.24c0.39,1.86,0.32,3.86,0.19,5.78
		C261.21,231.56,260.75,233.49,260.22,236.66z"/>
</g>
</svg>
