<?xml version="1.0" encoding="utf-8"?>
<!-- Generator: Adobe Illustrator 23.0.3, SVG Export Plug-In . SVG Version: 6.00 Build 0)  -->
<svg version="1.1" id="Layer_1" xmlns="http://www.w3.org/2000/svg" xmlns:xlink="http://www.w3.org/1999/xlink" x="0px" y="0px"
	 viewBox="0 0 538.14 537.72" style="enable-background:new 0 0 538.14 537.72;" xml:space="preserve">
<g>
	<path d="M96.02,493.91c-5.01,0-9.98,0.27-14.89-0.14c-1.81-0.15-4.16-1.48-5.08-2.99c-2.19-3.59-4.52-5.55-8.89-7.17
		c-6.83-2.54-15.43-4.27-18.1-12.99c-1.71-5.57-6.82-7.21-10.72-10.3c-1.53-1.21-3.57-2.54-4.03-4.2c-1.04-3.78-2.43-5.8-6.71-7.17
		c-3.64-1.16-4.34-5.94-1.62-9.66c-6.18-3.8-11.22-7.79-14.14-14.12c-0.72-1.56-3.19-2.75-5.08-3.23c-4.04-1.03-5.48-3.14-3.17-6.63
		c2.05-3.11,1.6-5.35-0.51-8.06c-0.82-1.05-1.38-3.73-0.81-4.21c4.88-4.17,1.63-8.47,0.48-12.68c-0.81-2.96-1.92-5.84-2.75-8.34
		c6.16-3.74,11.46-7.23,17.04-10.21c1.99-1.06,4.66-1.33,6.98-1.19c3.78,0.23,6.12-0.48,6.16-4.9c0.06-5.36,0.59-10.71,0.66-16.06
		c0.06-4.31,2.61-5.79,6.28-6.31c6.18-0.88,7.25-3.09,4.97-8.92c-1.23-3.14-1.58-6.62-2.53-9.89c-0.52-1.79-1.06-3.88-2.31-5.1
		c-2.86-2.78-2.56-5.45-0.06-7.78c3.98-3.72,5.54-7.59,2.98-12.82c-1.06-2.17,4.47-15.38,6.18-17.06c1.66-1.64,2.74-3.85,3.61-5.12
		c2.93,0.83,5.74,1.71,8.6,2.41c3.81,0.94,6.78,5.71,5.87,9.62c-0.47,2.02-2.78,4.85,1.32,5.35c3.3,0.4,6.38-0.61,6.87-4.78
		c0.29-2.42,0.59-4.83,1-8.19c1.8,1.35,2.71,2.55,3.77,2.7c1.58,0.22,3.57,0.15,4.8-0.67c0.7-0.47,0.64-2.8,0.24-4.07
		c-1.11-3.46-2.58-6.8-2.91-10.8c-1.35-0.53-3.03-0.73-3.98-1.67c-1.05-1.04-1.94-2.76-1.94-4.18c0-0.84,1.79-2.23,2.93-2.4
		c3.72-0.56,3.92-3.12,2.94-5.53c-2.45-6.02-3.03-11.52,2.36-16.32c0.26-0.23,0.23-0.86,0.22-1.3c-0.23-7.89,0.13-8.33,7.55-7.72
		c3.39,0.28,4.99-1.33,5.31-4.47c0.23-2.31-0.06-4.73,0.47-6.95c0.38-1.58,1.61-3.04,2.72-4.33c1.77-2.04,4.02-3.71,5.61-5.87
		c1.93-2.64,3.27-2.37,4.77,0.2c0.92,1.57,1.67,3.3,2.85,4.65c2.57,2.91,5.82,2.53,8.6-0.12c2.7-2.58,6.25-4.33,8.74-7.07
		c4.88-5.35,8.73-11.66,14.91-15.79c0.39-9.4,7.89-15.23,12.3-22.33c3.65-5.87,8.05-10.16,7.76-18.06
		c-0.11-2.99,2.76-6.05-0.98-8.82c-0.11-0.08-0.2-0.31-0.18-0.45c0.9-5.92,1.81-11.84,2.72-17.76c0.23-1.47,0.86-3,0.62-4.39
		c-0.38-2.24-0.51-3.8,2.31-4.38c0.86-0.18,2.17-1.66,2.08-2.41c-0.44-4.03-1.41-8-1.9-12.03c-0.52-4.33-0.73-8.71-1.04-13.07
		c-0.15-2.18-0.27-4.37-0.32-6.55c-0.06-2.78-0.13-5.57-0.02-8.35c0.05-1.29,0.45-2.58,0.83-3.84c0.81-2.69,1.29-5.6,2.69-7.96
		c2.1-3.52,1.81-10.32-0.67-15.07c-1.54-2.96-2.14-6.41-3.2-9.62c-1.37-4.16-2.71-8.33-4.2-12.45c-1.01-2.78-3.15-5.46-3.2-8.21
		c-0.05-2.81,1.12-6.4,3.08-8.28c2.51-2.41,6.34-3.45,10.13-5.34c9.82,45.57,19.78,91.75,29.84,138.45
		c40.09-9.22,79.76-18.35,120-27.61c5.1,25.68,10.13,51.07,15.44,77.82c4.25-6.04,7.73-11.17,11.42-16.13
		c1.02-1.37,2.7-3.26,4.02-3.22c4.73,0.14,5.75-2.62,5.68-6.29c-0.1-5.74,5.14-8.15,7.44-12.39c2.56-4.7,9.03-6.83,8.87-13.55
		c-0.02-0.74,2.88-2.36,4.19-2.15c2.46,0.39,4.75,1.82,7.98,3.19c5.51-10.47,15.1-19.62,15.47-33.54c1.6,0,3.13,0,5.11,0
		c-0.5,1.97-0.87,3.48-1.27,5.03c6.41,3.42,12.84,4.3,19.85,2.97c2.76-0.52,5.84,0.83,8.8,1.17c6.34,0.71,8.08-0.58,9.64-6.55
		c-1.42-1.57-2.68-2.96-3.94-4.36c1.75-0.79,3.49-1.57,5.58-2.52c-0.95-1.1-1.94-2.24-3.5-4.05c7.06,0.37,11.03-9.23,17.57-4.07
		c2.47-3.08,4.53-5.6,6.51-8.18c0.65-0.84,0.97-1.94,1.65-2.74c0.78-0.92,2.2-2.52,2.64-2.32c5.12,2.39,11.1-0.78,16.3,3.65
		c3.81,3.25,9.74,4,14.73,5.86c0.05-0.48,0.1-0.97,0.15-1.45c2.15-1.2,4.3-2.39,7.69-4.28c1.49,0.96,3.92,2.52,6.35,4.08
		c-1.54,1.39-3.07,2.79-5.09,4.62c0.89,1.21,2.01,2.73,3.32,4.5c1.25-0.87,2.25-1.56,3.93-2.73c0,2.22,0,3.82,0,6.19
		c2.81-0.23,5.45-0.45,8.55-0.71c-0.58,3.39-1.13,6.64-1.73,10.18c1.69,0.39,3.23,0.73,3.31,0.75c3.26,4.92,5.9,8.89,9.21,13.89
		c-2.66,8.21-5.81,17.98-9.12,28.18c-22.86-9.91-45.37-19.66-67.89-29.42c-0.45,0.31-0.9,0.63-1.34,0.94
		c1.85,4.44,3.69,8.88,5.79,13.94c-1.03,2.19-3.13,5.33-3.96,8.78c-0.69,2.87-0.6,6.34,0.39,9.1c1.82,5.11,0.83,8.72-2.35,13.21
		c-3.44,4.85-4.86,11.11-7.31,16.7c-1.23,2.8-2.55,5.61-4.2,8.17c-2.89,4.46-5.88,8.9-9.25,13c-1.23,1.5-3.74,1.87-5.47,3.04
		c-1.7,1.15-3.91,2.37-4.59,4.08c-2.76,6.93-5.03,14.05-7.52,21.25c-4.26-1.8-8.16-3.59-12.17-5.07c-1.25-0.46-2.95-0.47-4.13,0.04
		c-0.49,0.21-0.07,2.34-0.22,3.57c-0.19,1.5-0.05,3.47-0.94,4.36c-3.8,3.82-3.97,8.16-2.72,12.95c0.83,3.18,0.71,5.92-2.02,8.63
		c-1.65,1.64-2.09,4.65-2.71,7.14c-0.51,2.06,0.3,4.98-0.86,6.25c-4.1,4.51-3.47,9.38-3.09,14.81c0.55,7.73-6.8,13.04-14.38,11.29
		c-1.77-0.41-3.74-1.1-5.37-0.68c-6.46,1.64-10.16-1.76-13.01-6.7c-4.15-7.18-10.06-10.19-18.32-8.45
		c-3.23,0.68-4.62,2.19-4.89,5.72c-0.86,11.29,2.25,23.16-4.62,33.66c-0.52,0.8-0.46,2.47,0.02,3.37
		c3.47,6.49,0.32,11.64-3.42,16.46c-3.01,3.88-5.87,7.53-5.58,12.88c0.1,1.87-0.72,3.99-1.68,5.68c-2.7,4.74-4.25,9.55-3.53,15.17
		c0.22,1.71-1.2,4.17-2.62,5.46c-4.16,3.8-7.72,7.15-8.99,13.56c-1.19,6.01-5.96,11.36-9.4,16.85c-4.67,7.43-5.49,15.5-4.88,22.91
		c2.79,1.72,6.58,3.01,6.58,4.29c0,2.51-1.73,5.33-3.45,7.45c-3.38,4.16-3.12,7.45,1.59,10.6c-2.67,2.7-5.26,5.46-8.03,8.02
		c-0.87,0.8-2.22,1.15-3.41,1.53c-0.91,0.29-2.59,0.03-2.78,0.49c-2.5,5.99-6.1,5.58-10.89,2.61c-1-0.62-3.79,0.8-5.27,1.93
		c-5.16,3.94-10.13,8.13-15.12,12.28c-5.13,4.27-8.35,4.43-14.01,1.13c-1.44-0.84-4.83-1.26-4.96-0.92
		c-0.88,2.18-1.55,4.65-1.39,6.96c0.12,1.82,2.72,4.31,2.16,5.19c-2.33,3.65-4.99,7.39-8.39,9.95c-2.78,2.09-6.72,2.81-10.26,3.68
		c-6.29,1.56-11.71,4.25-16.27,9.07c-5.01,5.29-7.71,5.15-13.29,0.69c-1.43-1.14-2.95-2.17-4.47-3.17
		c-2.93-1.93-5.46-1.62-7.97,1.03c-4.81,5.06-9.64,10.13-14.81,14.79c-5.25,4.73-12.59,6.87-18.61,5.21
		c-6.17-1.71-13.08-3.27-18.41-6.43c-6.56-3.89-14.74-8.12-14.92-18.05c-0.01-0.54-0.73-1.52-1.12-1.52
		c-7.39,0.05-6.13-7.54-9.48-11.06C93.91,499.17,95.61,495.77,96.02,493.91z"/>
</g>
</svg>
