<?xml version="1.0" encoding="utf-8"?>
<!-- Generator: Adobe Illustrator 23.0.3, SVG Export Plug-In . SVG Version: 6.00 Build 0)  -->
<svg version="1.1" id="Layer_1" xmlns="http://www.w3.org/2000/svg" xmlns:xlink="http://www.w3.org/1999/xlink" x="0px" y="0px"
	 viewBox="0 0 516.8 538.9" style="enable-background:new 0 0 516.8 538.9;" xml:space="preserve">
<g>
	<path d="M0,170.69c0.35-5.53,0.59-10.67,1.05-15.79c0.09-0.99,0.81-2.45,1.61-2.76c6.82-2.7,8.77-8.76,10.22-14.93
		c1.16-4.9,4.08-7.44,8.48-9.41c3.39-1.52,6.26-4.2,9.04-6.89c3.14,0.01,6.48,0.87,8.05-4.02c0.31-0.96,4.42-0.7,7.13-1.05
		c3.05-5.89,5.66-12.09,5.42-19.78C50.4,76.08,50.8,56.08,50.8,35.6c1.27,0.39,2.03,0.5,2.67,0.84c4.86,2.58,6.45,1.29,7.13-4.08
		c0.34-2.66,2.9-5.05,4.95-8.36c3.44,3.06,6.14,5.64,9.05,7.96c1.13,0.9,2.86,1.85,4.13,1.64c7.02-1.18,14.07-2.4,20.95-4.2
		c6.75-1.76,13.23-4.54,19.99-6.28c7.39-1.91,14.03-4.9,19.87-9.89c1.23-1.05,3.7-0.59,5.55-1.02c1.65-0.38,3.2-1.3,4.85-1.54
		c6.18-0.9,11.29-3.36,13.38-7.98c4.4-1.01,7.63-1.76,11.71-2.69c8.89,5.45,8.84,5.42,3.42,15.24c-3.18,5.76-6.85,11.12-6.84,18.38
		c0.01,3.66-3.03,7.32-4.69,10.99c0.44,0.51,0.88,1.01,1.32,1.52c4.52-2.4,9.46-4.25,13.44-7.34c4.15-3.22,7.38-3.47,10.33,0.7
		c4.09,5.78,10.97,5.55,16.54,8.09c1.18,0.54,3.13-0.61,5.02-1.05c0,1.32,0,2.67,0,3.84c10.44,2.28,17.98,7.79,21.06,17.91
		c1.66,5.46,4.38,8.67,10.02,10.17c21.05,5.6,41.91,11.95,63.04,17.2c11.99,2.97,23.14,7.11,32.8,14.85
		c3.88,3.11,8.22,4.67,13.19,5.2c3.04,0.32,5.89,2.36,8.94,2.74c2.3,0.29,4.76-0.9,7.17-1.31c2.65-0.45,5.63-2.96,7.59,1.44
		c0.31,0.69,2.8,0.68,4.22,0.52c4.23-0.46,7.64,0.97,11.09,3.38c1.97,1.37,4.85,2.04,7.3,2.02c7.05-0.06,11.68,3.03,12.14,9.66
		c0.14,2.04-2.13,4.24-3.31,6.4c3.07,6.48,8.62,3.71,12.52,3.37c1.67,1.85,2.84,4.23,3.97,4.21c6.12-0.1,9.14,3.86,12.27,8.5
		c-0.72,0.99-1.53,2.1-2.33,3.2c4.76,8.15,4.55,11.16-0.86,12.76c2.24,7.45-1,14.28-2.37,21.33c-0.22,1.14-0.53,3.01,0.01,3.39
		c0.98,0.7,2.65,0.89,3.89,0.64c2.6-0.52,5.08-1.63,7.67-2.17c1.62-0.34,4.54-0.63,4.82-0.02c0.78,1.71,0.98,4.04,0.49,5.88
		c-1.11,4.17-2.75,8.19-4.21,12.27c-2.9,8.13-0.01,13.42,8.65,15.56c-0.5,2.85-0.74,5.8-1.58,8.56c-1.16,3.82-3.25,6.82-7.93,6.94
		c-5.17,0.13-8.73,2.08-9,8.08c-0.07,1.49-1.76,3.1-3.04,4.3c-5.37,5.09-8.73,11.14-10.06,18.48c-0.8,4.4-2.08,8.74-3.5,12.99
		c-1,2.99-1.54,6.12,2.01,6.83c2.44,0.49,6.59-0.32,7.74-2.04c2.81-4.2,5.73-7.46,10.77-8.79c1.02-0.27,1.69-2.2,2.36-3.45
		c2.96-5.55,5.93-11.09,8.75-16.71c2.29-4.56,6.22-6.07,10.91-6.76c2.31-0.34,4.51-1.43,7.44-2.4c0.28,0.31,1.2,1.36,2.18,2.48
		c0.27-0.43,0.55-0.67,0.55-0.91c0.09-8.44,4.96-14.99,8.59-22.05c1.67-3.24,3-6.65,4.77-9.83c0.59-1.05,2.02-2.21,3.14-2.28
		c4.37-0.3,7.18-2.92,7.56-6.65c0.63-6.16,4.61-8.31,10.12-10.34c0.34,2.49,0.67,4.84,1.03,7.47c-1.44,0.31-2.63,0.58-3.83,0.84
		c-1.22,3.18,1.77,7.64-3.07,9.52c2.76,5.71-3.3,8.08-4.69,12.23c-0.67,2-2.32,3.64-3.16,5.61c-0.95,2.21-1.48,4.6-1.07,7.27
		c-4.47,6.38-9.82,12.33-13.24,19.23c-8.74,17.63-16.11,35.85-17.23,55.89c-0.12,2.11-0.38,4.55,0.49,6.31
		c2.99,6.04,0.41,10.18-5.08,14.67c-0.76,0.62-2.3,0.76-2.54,1.45c-3.23,9.34-6.56,18.67-9.24,28.17c-0.8,2.86,0.02,6.33,0.65,9.41
		c2.1,10.11-1.9,18.93-5.53,27.85c-0.25,0.61-0.93,1.22-0.86,1.77c1.03,8.92-4.75,15.59-7.63,23.2c-3.15,8.33-1.74,16.74-0.79,25.16
		c0.07,0.66,0.52,1.33,0.43,1.94c-1.43,9.86,2.9,19.02,3.47,28.65c0.14,2.31,1.05,4.94,2.49,6.72c2.38,2.95,3.07,5.64,2.38,9.49
		c-1.22,6.83-1.59,13.83-2.14,20.77c-0.23,2.94-0.04,5.91-0.04,9.39c-2.2,0-3.82,0.01-5.43,0c-75.82-0.36-151.65-0.72-227.47-1.09
		c-1,0-2-0.07-3-0.04c-5.05,0.15-8.53-1.65-9.54-7.08c-1.16-6.24-5-9.7-11.34-10.6c-2.28-0.32-4.49-1.24-6.68-2.02
		c-9.48-3.4-17.86-7.6-18.86-19.54c-0.39-4.71-2.34-9.36-4.02-13.87c-3.99-10.69-2.48-20.38,4.21-29.58
		c4.17-5.74,2.23-12.15-4.7-14.55c-4.33-1.5-5.62-3.67-5.14-7.93c0.87-7.77-1.33-14.91-3.71-22.32c-1.65-5.14-0.48-11.39,0.24-17.04
		c0.48-3.72,0.1-6.7-1.99-9.82c-3.98-5.95-7.83-12-11.33-18.24c-1.74-3.1-4.01-4.76-7.36-5.04c-5.63-0.48-9.6-3.43-13.54-7.37
		c-5.01-5.01-11-9.03-16.33-13.74c-1.68-1.49-2.95-3.7-3.81-5.82c-3.17-7.83-4.12-17.01-14.58-19.69
		c-3.94-1.01-7.42-3.75-11.26-5.32c-5.57-2.27-10.24-5.19-12.47-11.26c-0.49-1.35-2.86-2.47-4.54-2.81
		c-2.74-0.55-5.64-0.45-8.47-0.49c-6.06-0.08-9.12-4.01-11.95-8.66c-1.32-2.17-3.38-4.14-5.54-5.5
		c-8.34-5.21-11.71-11.93-8.18-21.69c1.34-3.71,1.98-7.8,2.14-11.75c0.11-2.78-0.58-5.91-1.9-8.36c-1.92-3.57-1.32-6.06,1.23-8.89
		c1.03-1.14,1.67-3.34,1.38-4.85c-1.65-8.66-2.67-17.09,3.84-24.48c1.42-1.61,2.5-3.53,3.66-5.36c2.65-4.13,1.89-7.99-1.44-11.48
		c-1.9-2-2.91-4.82-4.56-7.11c-0.76-1.06-1.96-2.11-3.16-2.47C7.14,172.09,3.84,171.53,0,170.69z"/>
	<path d="M516.78,193.15c0.44,5.68-5.1,3.87-8.09,7.46c0.71-3.34,1.13-5.3,1.59-7.46C512.56,193.15,514.65,193.15,516.78,193.15z"/>
</g>
</svg>
