<?xml version="1.0" encoding="utf-8"?>
<!-- Generator: Adobe Illustrator 23.0.3, SVG Export Plug-In . SVG Version: 6.00 Build 0)  -->
<svg version="1.1" id="Layer_1" xmlns="http://www.w3.org/2000/svg" xmlns:xlink="http://www.w3.org/1999/xlink" x="0px" y="0px"
	 viewBox="0 0 587.85 547.8" style="enable-background:new 0 0 587.85 547.8;" xml:space="preserve">
<g>
	<path d="M0.12,0c4.79,0.67,8.85,1.52,12.93,1.73c5.9,0.29,11.87-0.34,17.73,0.24c6.82,0.68,13.55,2.32,20.33,3.4
		c1.73,0.27,4.18,0.74,5.22-0.15c4.76-4.04,8.56-1.08,13.77,1.34c-2.52,0.23-3.87,0.36-5.37,0.5c6.85,5.82,13.45,11.61,20.28,17.11
		c1.68,1.35,4.1,1.86,6.26,2.41c0.19,0.05,1.03-2.47,1.42-3.42c5.96,11.65,19.23,12.02,29.86,16.59c7.95,3.41,16.67,5.21,25.21,6.94
		c3.26,0.66,6.95-0.83,11.08-1.44c0,24.76,0,49.6,0,74.23c8.48,2.8,8.48,2.8,8.24,11.03c-0.01,0.46-0.07,0.98,0.1,1.39
		c3.2,7.7,2.92,9.16-3.14,14.95c0.94,3.16,0.96,7.97,3.12,9.31c2.81,1.74,7.33,0.87,11.11,0.88c21.17,0.05,42.33,0.02,63.5,0.02
		c1.57,0,3.13,0,4.7,0c0.01,0.21,0.02,0.42,0.03,0.63c-2.4,0.43-4.8,0.85-7.95,1.41c11.78,7.66,12.58,8.95,9.32,14.28
		c1.94,3.27,3.88,6.55,5.5,9.28c-0.33,2.48-0.64,4.84-0.95,7.2c-0.14-0.19-0.29-0.37-0.43-0.56c-1.58,2.92-3.17,5.84-4.37,8.06
		c3.17,1.75,6.16,2.68,7.93,4.69c0.89,1.01,0.1,4.27-0.88,5.95c-0.89,1.53-3.08,2.3-4.73,3.43c1.17,1.34,2.59,2.26,2.92,3.47
		c1.21,4.48,4.93,5.99,9.16,3.45c6.03-3.62,8.85-4.16,15.88-2.88c-0.77,1.68-1.48,3.25-2.39,5.23c2.83,0.36,4.98,1.72,7.36-2
		c1.39-2.18,4.83-8.58,9.13-1.56c0.23,0.37,1.86-0.3,2.77-0.11c1.13,0.23,2.17,0.85,3.58,1.43c-3.59,2.24-6.4,3.99-10.69,6.67
		c9.75,3.06,12.56,10.18,15.29,15.88c-1.77,3.8-3.07,7-4.76,10c-0.55,0.98-2.16,1.31-3.14,2.12c-4.55,3.76-9.06,7.59-13.58,11.39
		c0.24,0.52,0.49,1.04,0.73,1.55c1.9-0.41,3.99-1.49,5.64-1.03c1.44,0.4,2.4,2.55,4.35,4.84c0.18,0.02,1.78,0.18,3.46,0.34
		c1.31,4.85-9.19,5-3.34,10.8c-1.96,1.23-3.33,2.09-5.65,3.55c1.6,1,2.72,2.29,3.86,2.3c7.91,0.07,13.92,3.43,19,9.41
		c2.28,2.68,5.75,4.35,8.99,6.71c-1.02,1.74-2.42,4.14-4.21,7.2c6.01,0.79,10.8,3.01,15.18-2.11c0.92-1.08,5.82-0.51,7.15,0.92
		c2.18,2.34,7.5,2.1,6.59,7.22c-0.03,0.16,1.27,0.36,1.54,0.79c1.26,2.03,4.59,3.28,2.56,6.63c-0.26,0.42-0.15,1.46,0.2,1.8
		c3.71,3.63,6.03,8.59,11.47,10.62c2.61,0.98,4.48,3.83,6.86,5.6c2.18,1.63,4.56,3.02,6.94,4.36c0.97,0.55,2.17,0.7,3.26,1.02
		c-0.02,0.45-0.05,0.89-0.07,1.34c-2.37,0.47-4.74,0.95-7.11,1.42c-0.23,0.58-0.46,1.16-0.7,1.74c7.94,0.9,15.51,2.36,18.52,11.56
		c-2.76,2.91-5.95,6.26-9.12,9.6c4.65,2.79,9.4,4.59,11.78,9.88c0.86,1.91,4.32,2.65,6.59,3.93c0.32-0.35,0.63-0.69,0.95-1.04
		c0,0.6,0.26,1.45-0.04,1.76c-5.86,6.16-5.34,9.05,2.3,13.59c4.28,2.54,8.43,5.31,12.72,8.03c-3.67,2.59-5.49,8.66-4.53,13.05
		c0.34,1.56-0.43,3.36-0.85,6.09c4.18,1.02,9.06,2.22,14.92,3.65c5.22-3.51,6.98-3.14,12.13,3.43c1.85,2.36,3.94,4.54,5.72,6.95
		c1.13,1.53,1.9,3.33,2.9,5.13c4.66-0.34,7.49,1.51,8.18,6.69c0.2,1.49,2.21,2.98,3.71,4.01c5.66,3.93,10.7,9.98,18.93,6.09
		c0.46-0.22,1.25,0.28,1.9,0.42c4.54,0.95,5.95,4.89,6.89,8.42c1,3.77,0.88,7.9,0.84,11.86c-0.02,1.57-1.14,3.13-2.04,5.43
		c1.35,0,3.18,0,5.18,0c0.81,5.86,1.61,11.68,2.35,17.05c2.98,0.86,5.23,1.51,8.35,2.41c2.5-1.41,5.5-3.79,9.95-1.03
		c2.43,1.51,6.26,0.75,5.12-5.74c2.14,1.61,3.61,2.18,4.12,3.22c1.39,2.87,2.76,2.9,4.03,0.19c1.83-3.91,3.89-2.15,6.81-1.23
		c6.56,2.07,13.07,6.24,20.36,0.68c2.36-1.8,6.64-1.08,10.04-1.51c1.64-5.48,3.89-7.16,9.57-4.86c2.22,0.9,3.21,5.21,4.37,8.12
		c0.31,0.78-0.51,2.7-1.33,3.13c-4.6,2.42-2.41,4.43,0.04,6.75c1.91,1.81,3.58,3.87,6.22,6.77c3.46-0.27,4.56,2.49,5.03,7.1
		c0.32,3.16,3.17,6.02,4.7,9.11c0.98,1.98,1.6,4.13,2.37,6.2c-1.82,0.46-3.65,1.32-5.47,1.32c-169.66,0.06-339.31,0.06-508.97,0.05
		c-7.04,0-9.53-3.45-7.35-10.03c0.87-2.64,1.7-5.3,2.96-9.27c-9.93,1.54-19.7-2.1-27.66,5.17c-3.53,3.23-6.81,3.91-11.11,1.57
		c-3.18-1.73-6.77-2.71-10.53-4.16c-0.95,1.23-1.92,2.47-3.03,3.91c-4.68-1.34-9.35-2.49-13.87-4.09c-1.15-0.41-2.11-2.1-2.6-3.41
		c-0.44-1.17-0.1-2.63-0.1-3.97c0-172.32,0-344.64,0-516.97C0.12,4.58,0.12,2.6,0.12,0z"/>
</g>
</svg>
