<svg xmlns="http://www.w3.org/2000/svg" width="138.342" height="47.698" viewBox="0 0 138.342 47.698">
  <g id="Group_8059" data-name="Group 8059" transform="translate(430.545 -340.551)">
    <g id="Group_8056" data-name="Group 8056">
      <path id="Path_7127" data-name="Path 7127" d="M-346.257,356.1H-405.43v31.4h65.376V342.187l-5.858,13.682A.375.375,0,0,1-346.257,356.1Zm-37.787,27.761a.366.366,0,0,1-.395.331v.005H-400a.366.366,0,0,1-.395-.331v-5.984a.366.366,0,0,1,.395-.331h15.563a.366.366,0,0,1,.395.331Z" fill="#eee"/>
      <path id="Path_7128" data-name="Path 7128" d="M-333.481,355.869l-5.823-13.6V387.5h24.611V356.1h-18.444A.374.374,0,0,1-333.481,355.869Z" fill="#eee"/>
    </g>
    <g id="Group_8057" data-name="Group 8057">
      <path id="Path_7129" data-name="Path 7129" d="M-384.439,377.547H-400a.366.366,0,0,0-.395.331v5.984a.366.366,0,0,0,.395.331h15.563v-.005a.366.366,0,0,0,.395-.331v-5.979A.366.366,0,0,0-384.439,377.547Zm-8.27,5.012h-5.816a.228.228,0,0,1-.227-.228.227.227,0,0,1,.227-.227h5.816a.227.227,0,0,1,.227.227A.228.228,0,0,1-392.709,382.559Zm6.269-1.462h-12.085a.227.227,0,0,1-.227-.227.227.227,0,0,1,.227-.227h12.085a.227.227,0,0,1,.227.227A.227.227,0,0,1-386.44,381.1Zm0-1.462h-12.085a.227.227,0,0,1-.227-.227.227.227,0,0,1,.227-.227h12.085a.227.227,0,0,1,.227.227A.227.227,0,0,1-386.44,379.635Z" fill="#fff"/>
      <path id="Path_7130" data-name="Path 7130" d="M-406,341.3l-6.016,14.044H-346.5l6.014-14.044H-406Z" fill="#fff"/>
      <path id="Path_7131" data-name="Path 7131" d="M-314.318,341.88l-.248-.578H-338.9l6.014,14.044h24.338Z" fill="#fff"/>
    </g>
    <path id="Path_7132" data-name="Path 7132" d="M-333.481,355.869l-5.823-13.6V387.5h24.611V356.1h-18.444A.374.374,0,0,1-333.481,355.869Z" fill="none"/>
    <path id="Path_7133" data-name="Path 7133" d="M-346.257,356.1H-405.43v31.4h65.376V342.187l-5.858,13.682A.375.375,0,0,1-346.257,356.1Z" fill="none"/>
    <path id="Path_7134" data-name="Path 7134" d="M-340.49,341.3H-406l-6.016,14.044H-346.5Z" fill="none"/>
    <path id="Path_7135" data-name="Path 7135" d="M-314.318,341.88l-.248-.578H-338.9l6.014,14.044h24.338Z" fill="none"/>
    <path id="Path_7136" data-name="Path 7136" d="M-346.257,356.1H-405.43v31.4h65.376V342.187l-5.858,13.682A.375.375,0,0,1-346.257,356.1Z" fill="none"/>
    <path id="Path_7137" data-name="Path 7137" d="M-314.318,341.88l-.248-.578H-338.9l6.014,14.044h24.338Z" fill="none"/>
    <path id="Path_7138" data-name="Path 7138" d="M-333.481,355.869l-5.823-13.6V387.5h24.611V356.1h-18.444A.374.374,0,0,1-333.481,355.869Z" fill="none"/>
    <path id="Path_7139" data-name="Path 7139" d="M-340.49,341.3H-406l-6.016,14.044H-346.5Z" fill="none"/>
    <g id="Group_8058" data-name="Group 8058">
      <path id="Path_7140" data-name="Path 7140" d="M-386.44,379.181h-12.085a.227.227,0,0,0-.227.227.227.227,0,0,0,.227.227h12.085a.227.227,0,0,0,.227-.227A.227.227,0,0,0-386.44,379.181Z" fill="#aaa"/>
      <path id="Path_7141" data-name="Path 7141" d="M-386.44,380.643h-12.085a.227.227,0,0,0-.227.227.227.227,0,0,0,.227.227h12.085a.227.227,0,0,0,.227-.227A.227.227,0,0,0-386.44,380.643Z" fill="#aaa"/>
      <path id="Path_7142" data-name="Path 7142" d="M-392.709,382.1h-5.816a.227.227,0,0,0-.227.227.228.228,0,0,0,.227.228h5.816a.228.228,0,0,0,.227-.228A.227.227,0,0,0-392.709,382.1Z" fill="#aaa"/>
      <path id="Path_7143" data-name="Path 7143" d="M-292.578,387.5h-21.365V356.1h5.96a.375.375,0,0,0,.313-.168.375.375,0,0,0,.032-.354l-6.334-14.792a.384.384,0,0,0-.125-.152l-.034-.022a.364.364,0,0,0-.187-.057H-406.25a.375.375,0,0,0-.345.227l-6.337,14.8a.378.378,0,0,0,.032.354.375.375,0,0,0,.313.168h6.407v31.4h-23.99a.375.375,0,0,0-.375.375.375.375,0,0,0,.375.375h137.592a.375.375,0,0,0,.375-.375A.375.375,0,0,0-292.578,387.5ZM-405.8,355.346h-6.214L-406,341.3h65.512l-6.014,14.044Zm65.751,32.153H-405.43V356.1h59.173a.375.375,0,0,0,.345-.227l5.858-13.682Zm25.361,0H-339.3V342.272l5.823,13.6a.374.374,0,0,0,.344.227h18.444Zm-18.2-32.153L-338.9,341.3h24.338l.247.578,5.767,13.466h-24.338Z" fill="#aaa"/>
    </g>
  </g>
</svg>
