<svg xmlns="http://www.w3.org/2000/svg" width="52.244" height="27.597" viewBox="0 0 52.244 27.597">
  <g id="Group_8050" data-name="Group 8050" transform="translate(397.849 -344.58)">
    <path id="Path_7125" data-name="Path 7125" d="M-353.224,357.732h-.009c-.1,0-.192.022-.289.026a7.124,7.124,0,0,1,1.442,4.211v.173a.409.409,0,0,1-.4.4.4.4,0,0,1-.4-.4v-.158a6.353,6.353,0,0,0-1.626-4.158.387.387,0,0,1-.248-.146,4.571,4.571,0,0,0-.48-.557,6.307,6.307,0,0,0-3.16-1.374c-.036,0-.071-.007-.107-.007-.013,0-.023-.011-.036-.012a6.168,6.168,0,0,0-.8-.043,6.383,6.383,0,0,0-6.3,6.431,3.879,3.879,0,0,1,2.245,3.508.4.4,0,0,1-.4.4.4.4,0,0,1-.4-.4,3.088,3.088,0,0,0-3.084-3.085,3.089,3.089,0,0,0-3.085,3.085.4.4,0,0,1-.4.4.4.4,0,0,1-.4-.4,3.888,3.888,0,0,1,3.885-3.884,3.84,3.84,0,0,1,.85.1,7.178,7.178,0,0,1,7.076-6.954h.089c.071,0,.141.009.212.011a12.993,12.993,0,0,0-15.44-9.172,13,13,0,0,0-9.337,8.494h.024a6.136,6.136,0,0,1,6.129,6.129.4.4,0,0,1-.4.4.4.4,0,0,1-.4-.4,5.335,5.335,0,0,0-5.329-5.329,5.336,5.336,0,0,0-5.329,5.329.4.4,0,0,1-.4.4.4.4,0,0,1-.4-.4,6.14,6.14,0,0,1,4.308-5.852,8.576,8.576,0,0,0-2.754-.462,8.684,8.684,0,0,0-2.8.468,8.62,8.62,0,0,0-4.986,4.382,8.685,8.685,0,0,0,3.957,11.611,8.721,8.721,0,0,0,3.827.889h35.559a.361.361,0,0,1,.114-.029,6.824,6.824,0,0,0,6.278-7.317A6.847,6.847,0,0,0-353.224,357.732Z" fill="#fff"/>
    <path id="Path_7126" data-name="Path 7126" d="M-353.223,356.933c-.006,0-.011,0-.014,0a7.5,7.5,0,0,0-.934.069c-.146-.148-.3-.287-.459-.421a5.45,5.45,0,0,0-3.552-1.634,13.806,13.806,0,0,0-16.482-10.007,13.817,13.817,0,0,0-9.955,9.069,9.484,9.484,0,0,0-12.259,4.516,9.483,9.483,0,0,0,4.321,12.681,9.518,9.518,0,0,0,4.179.971h35.7a.359.359,0,0,0,.169-.042,7.628,7.628,0,0,0,6.877-8.165A7.649,7.649,0,0,0-353.223,356.933Zm.519,14.416a.336.336,0,0,0-.114.029h-35.559a8.719,8.719,0,0,1-3.827-.89,8.683,8.683,0,0,1-3.957-11.61,8.619,8.619,0,0,1,4.986-4.383,8.707,8.707,0,0,1,2.8-.468,8.6,8.6,0,0,1,2.754.462,6.14,6.14,0,0,0-4.308,5.853.4.4,0,0,0,.4.4.4.4,0,0,0,.4-.4,5.336,5.336,0,0,1,5.329-5.33,5.336,5.336,0,0,1,5.329,5.33.4.4,0,0,0,.4.4.4.4,0,0,0,.4-.4,6.136,6.136,0,0,0-6.129-6.129h-.024a13,13,0,0,1,9.337-8.495,12.993,12.993,0,0,1,15.44,9.172c-.071,0-.141-.01-.212-.01h-.089a7.179,7.179,0,0,0-7.076,6.955,3.847,3.847,0,0,0-.851-.1,3.889,3.889,0,0,0-3.884,3.885.4.4,0,0,0,.4.4.4.4,0,0,0,.4-.4,3.088,3.088,0,0,1,3.084-3.085,3.089,3.089,0,0,1,3.085,3.085.4.4,0,0,0,.4.4.4.4,0,0,0,.4-.4,3.881,3.881,0,0,0-2.245-3.509,6.383,6.383,0,0,1,6.3-6.43,6.169,6.169,0,0,1,.8.042c.013,0,.023.013.036.013.036,0,.071.006.107.007a6.305,6.305,0,0,1,3.16,1.373,4.668,4.668,0,0,1,.48.558.384.384,0,0,0,.248.145,6.355,6.355,0,0,1,1.626,4.159v.157a.4.4,0,0,0,.4.4.41.41,0,0,0,.4-.4v-.173a7.123,7.123,0,0,0-1.442-4.21c.1-.005.192-.026.289-.026h.009a6.846,6.846,0,0,1,6.8,6.3A6.825,6.825,0,0,1-352.7,371.349Z" fill="#b7b7b7"/>
  </g>
</svg>
