<svg xmlns="http://www.w3.org/2000/svg" width="41.001" height="41.976" viewBox="0 0 41.001 41.976">
  <g id="Group_8043" data-name="Group 8043" transform="translate(423.479 -264.24)">
    <g id="Group_8041" data-name="Group 8041">
      <path id="Path_7105" data-name="Path 7105" d="M-412.667,290.983h-.006l-2.72.006.005,3.408,2.721-.006a1.7,1.7,0,0,0,1.7-1.7v-.008A1.7,1.7,0,0,0-412.667,290.983Z" fill="#fff"/>
      <path id="Path_7106" data-name="Path 7106" d="M-382.479,275.631h-9.352a2.176,2.176,0,0,1-2.25-2.1l-.007-9.3h-26.379a3.158,3.158,0,0,0-3.012,3.083v36a2.9,2.9,0,0,0,2.91,2.89h35.889a2.439,2.439,0,0,0,2.2-2.462h0Zm-30.058,20.421h-.13v0l-2.716.007.005,2.828-1.812,0-.024-9.615c1.511,0,3.021-.019,4.534-.027a3.4,3.4,0,0,1,3.469,3.328A3.4,3.4,0,0,1-412.537,296.052Zm12.007,2.808v.014l-5.069-6.485.015,6.483H-407.4l-.022-9.615h1.468l4.722,5.949-.011-5.974h1.814l.022,9.628Zm7.829.2c-3.612.009-5.088-2.364-5.092-4.892a4.887,4.887,0,0,1,4.543-5.209,5.162,5.162,0,0,1,.528-.007,5.065,5.065,0,0,1,3.574,1.461l-1.131,1.157a3.687,3.687,0,0,0-2.448-.954,3.278,3.278,0,0,0-3.312,3.245h0a2.737,2.737,0,0,0,.01.3,3.045,3.045,0,0,0,2.862,3.216h0a2.867,2.867,0,0,0,.454-.008,3.191,3.191,0,0,0,2.168-.774v-1.7l-2.46.006v-1.622l4.123-.009.008,4.052A4.785,4.785,0,0,1-392.7,299.057Z" fill="#fff"/>
    </g>
    <g id="Group_8042" data-name="Group 8042">
      <path id="Path_7107" data-name="Path 7107" d="M-391.831,275.631h9.352l-11.609-11.391.007,9.3A2.176,2.176,0,0,0-391.831,275.631Z" fill="#f9d96e"/>
      <path id="Path_7108" data-name="Path 7108" d="M-412.68,289.253c-1.513.008-3.023.027-4.534.027l.024,9.615,1.812,0-.005-2.828,2.716-.007v0h.13a3.4,3.4,0,0,0,3.326-3.471A3.4,3.4,0,0,0-412.68,289.253Zm1.714,3.438a1.7,1.7,0,0,1-1.7,1.7l-2.721.006-.005-3.408,2.72-.006h.006a1.7,1.7,0,0,1,1.7,1.7Z" fill="#f9d96e"/>
      <path id="Path_7109" data-name="Path 7109" d="M-401.24,289.232l.01,5.974-4.721-5.949h-1.469l.022,9.615h1.813l-.015-6.483,5.069,6.485v-.014h1.126l-.022-9.628Z" fill="#f9d96e"/>
      <path id="Path_7110" data-name="Path 7110" d="M-393,293.276V294.9l2.46-.006v1.7a3.191,3.191,0,0,1-2.168.774,2.867,2.867,0,0,1-.454.008h0a3.045,3.045,0,0,1-2.862-3.216,2.737,2.737,0,0,1-.01-.3h0a3.278,3.278,0,0,1,3.312-3.245,3.687,3.687,0,0,1,2.448.954l1.131-1.157a5.065,5.065,0,0,0-3.574-1.461,5.162,5.162,0,0,0-.528.007,4.887,4.887,0,0,0-4.543,5.209c0,2.528,1.48,4.9,5.092,4.892a4.785,4.785,0,0,0,3.829-1.738l-.008-4.052Z" fill="#f9d96e"/>
    </g>
  </g>
</svg>
