<svg xmlns="http://www.w3.org/2000/svg" width="41.001" height="41.976" viewBox="0 0 41.001 41.976">
  <g id="Group_8040" data-name="Group 8040" transform="translate(479.563 -264.24)">
    <g id="Group_8037" data-name="Group 8037">
      <path id="Path_7099" data-name="Path 7099" d="M-458.791,290.871l-2.721.018.026,3.41,2.719-.018a1.705,1.705,0,0,0,1.693-1.717A1.7,1.7,0,0,0-458.791,290.871Z" fill="#fff"/>
      <path id="Path_7100" data-name="Path 7100" d="M-438.563,275.631h-9.352a2.176,2.176,0,0,1-2.25-2.1l-.007-9.3h-26.514a3.042,3.042,0,0,0-2.877,3.083v36a2.9,2.9,0,0,0,2.91,2.89h35.889a2.44,2.44,0,0,0,2.2-2.462h0Zm-30.408,23.4h0a4.1,4.1,0,0,1-.508.007,3.9,3.9,0,0,1-4.238-3.53,3.911,3.911,0,0,1-.006-.631l1.786-.011a2.171,2.171,0,0,0,1.826,2.467,2.2,2.2,0,0,0,.623,0,2.318,2.318,0,0,0,2.415-2.217h0a2.461,2.461,0,0,0-.017-.393l-.027-3.824-2.9.018-.013-1.689,4.713-.032.041,5.512A4.021,4.021,0,0,1-468.971,299.027Zm10.363-3.084h-.148v0l-2.719.018.019,2.83-1.812.012-.065-9.612c1.511-.01,3.022-.035,4.532-.044a3.4,3.4,0,0,1,3.5,3.3A3.4,3.4,0,0,1-458.608,295.943Zm9.593,2.975c-3.616.027-5.1-2.341-5.114-4.869a4.888,4.888,0,0,1,4.521-5.229,4.838,4.838,0,0,1,.525-.01,5.066,5.066,0,0,1,3.583,1.447l-1.119,1.162a3.69,3.69,0,0,0-2.446-.946,3.28,3.28,0,0,0-3.3,3.259,2.481,2.481,0,0,0,.013.307,3.045,3.045,0,0,0,2.881,3.2,3.1,3.1,0,0,0,.452-.009,3.2,3.2,0,0,0,2.163-.787l-.012-1.7-2.458.017-.014-1.621,4.12-.028.026,4.051A4.79,4.79,0,0,1-449.015,298.918Z" fill="#fff"/>
    </g>
    <g id="Group_8039" data-name="Group 8039">
      <path id="Path_7101" data-name="Path 7101" d="M-447.915,275.631h9.352l-11.609-11.391.007,9.3A2.176,2.176,0,0,0-447.915,275.631Z" fill="#ffbc81"/>
      <g id="Group_8038" data-name="Group 8038">
        <path id="Path_7102" data-name="Path 7102" d="M-470.028,289.226l.013,1.689,2.9-.018.027,3.824a2.461,2.461,0,0,1,.017.393h0a2.318,2.318,0,0,1-2.415,2.217,2.2,2.2,0,0,1-.623,0,2.171,2.171,0,0,1-1.826-2.467l-1.786.011a3.911,3.911,0,0,0,.006.631,3.9,3.9,0,0,0,4.238,3.53,4.1,4.1,0,0,0,.508-.007h0a4.021,4.021,0,0,0,3.7-4.321l-.041-5.512Z" fill="#ffbc81"/>
        <path id="Path_7103" data-name="Path 7103" d="M-458.8,289.143c-1.51.009-3.021.034-4.532.044l.065,9.612,1.812-.012-.019-2.83,2.719-.018v0h.148a3.4,3.4,0,0,0,3.3-3.5A3.4,3.4,0,0,0-458.8,289.143Zm.034,5.138-2.719.018-.026-3.41,2.721-.018a1.7,1.7,0,0,1,1.717,1.693A1.705,1.705,0,0,1-458.767,294.281Z" fill="#ffbc81"/>
        <path id="Path_7104" data-name="Path 7104" d="M-449.34,293.139l.014,1.621,2.458-.017.012,1.7a3.2,3.2,0,0,1-2.163.787,3.1,3.1,0,0,1-.452.009,3.045,3.045,0,0,1-2.881-3.2,2.481,2.481,0,0,1-.013-.307,3.28,3.28,0,0,1,3.3-3.259,3.69,3.69,0,0,1,2.446.946l1.119-1.162a5.066,5.066,0,0,0-3.583-1.447,4.838,4.838,0,0,0-.525.01,4.888,4.888,0,0,0-4.521,5.229c.014,2.528,1.5,4.9,5.114,4.869a4.79,4.79,0,0,0,3.821-1.756l-.026-4.051Z" fill="#ffbc81"/>
      </g>
    </g>
  </g>
</svg>
