<svg xmlns="http://www.w3.org/2000/svg" width="41.001" height="41.976" viewBox="0 0 41.001 41.976">
  <g id="Group_8046" data-name="Group 8046" transform="translate(373.268 -264.24)">
    <g id="Group_8044" data-name="Group 8044">
      <path id="Path_7111" data-name="Path 7111" d="M-364.184,291.3H-366.2v6.268h2.015a3.135,3.135,0,0,0,3.05-3.218A3.134,3.134,0,0,0-364.184,291.3Z" fill="#fff"/>
      <path id="Path_7112" data-name="Path 7112" d="M-352.781,291.046a3.223,3.223,0,0,0-3.487,2.936,3.22,3.22,0,0,0,0,.564,3.214,3.214,0,0,0,3.1,3.324,3.213,3.213,0,0,0,3.324-3.1q0-.12,0-.24A3.223,3.223,0,0,0-352.781,291.046Z" fill="#fff"/>
      <path id="Path_7113" data-name="Path 7113" d="M-332.268,275.631h-9.352a2.175,2.175,0,0,1-2.25-2.1l-.007-9.3h-26.379a3.158,3.158,0,0,0-3.012,3.083v36a2.9,2.9,0,0,0,2.91,2.89h35.889a2.44,2.44,0,0,0,2.2-2.462h0Zm-31.295,23.706a4.6,4.6,0,0,1-.621.005h-3.848V289.55h3.847a4.625,4.625,0,0,1,4.895,4.338c.009.157.01.315,0,.473A4.64,4.64,0,0,1-363.563,299.337Zm10.515.2a5.029,5.029,0,0,1-5.036-5.023,5.031,5.031,0,0,1,4.872-5.186,5.031,5.031,0,0,1,5.186,4.872c0,.1,0,.2,0,.3A5.03,5.03,0,0,1-353.048,299.54Zm11.569.028a4.816,4.816,0,0,1-5.18-4.422,4.887,4.887,0,0,1-.008-.629,4.93,4.93,0,0,1,4.685-5.164,5.024,5.024,0,0,1,.506,0,5.048,5.048,0,0,1,3.6,1.5l-1.229,1.188a3.368,3.368,0,0,0-2.361-.922,3.21,3.21,0,0,0-3.374,3.036,3.156,3.156,0,0,0,0,.364,3.138,3.138,0,0,0,2.948,3.318,3.017,3.017,0,0,0,.425,0,3.6,3.6,0,0,0,2.463-.994l1.249,1.274A5.17,5.17,0,0,1-341.479,299.568Z" fill="#fff"/>
    </g>
    <g id="Group_8045" data-name="Group 8045">
      <path id="Path_7114" data-name="Path 7114" d="M-341.62,275.631h9.352l-11.609-11.391.007,9.3A2.175,2.175,0,0,0-341.62,275.631Z" fill="#5673aa"/>
      <path id="Path_7115" data-name="Path 7115" d="M-364.185,289.55h-3.847v9.792h3.848a4.6,4.6,0,0,0,.621-.005,4.64,4.64,0,0,0,4.277-4.976c.006-.158.005-.316,0-.473A4.625,4.625,0,0,0-364.185,289.55Zm0,8.016H-366.2V291.3h2.015a3.134,3.134,0,0,1,3.05,3.05A3.135,3.135,0,0,1-364.184,297.566Z" fill="#5673aa"/>
      <path id="Path_7116" data-name="Path 7116" d="M-353.212,289.331a5.031,5.031,0,0,0-4.872,5.186,5.029,5.029,0,0,0,5.036,5.023,5.03,5.03,0,0,0,5.023-5.036c0-.1,0-.2,0-.3A5.031,5.031,0,0,0-353.212,289.331Zm.043,8.539a3.214,3.214,0,0,1-3.1-3.324,3.22,3.22,0,0,1,0-.564,3.223,3.223,0,0,1,3.487-2.936,3.223,3.223,0,0,1,2.936,3.486q0,.12,0,.24A3.213,3.213,0,0,1-353.169,297.87Z" fill="#5673aa"/>
      <path id="Path_7117" data-name="Path 7117" d="M-341.469,297.834a3.017,3.017,0,0,1-.425,0,3.138,3.138,0,0,1-2.948-3.318,3.156,3.156,0,0,1,0-.364,3.21,3.21,0,0,1,3.374-3.036,3.368,3.368,0,0,1,2.361.922l1.229-1.188a5.048,5.048,0,0,0-3.6-1.5,5.024,5.024,0,0,0-.506,0,4.93,4.93,0,0,0-4.685,5.164,4.887,4.887,0,0,0,.008.629,4.816,4.816,0,0,0,5.18,4.422,5.17,5.17,0,0,0,3.722-1.454l-1.249-1.274A3.6,3.6,0,0,1-341.469,297.834Z" fill="#5673aa"/>
    </g>
  </g>
</svg>
