<svg xmlns="http://www.w3.org/2000/svg" width="41.001" height="41.976" viewBox="0 0 41.001 41.976">
  <g id="Group_8049" data-name="Group 8049" transform="translate(318.7 -264.24)">
    <g id="Group_8047" data-name="Group 8047">
      <path id="Path_7118" data-name="Path 7118" d="M-298.322,291.067l-2.009.013.039,6.245,2.011-.009a3.126,3.126,0,0,0,3.028-3.22A3.127,3.127,0,0,0-298.322,291.067Z" fill="#fff"/>
      <path id="Path_7119" data-name="Path 7119" d="M-307.033,291.126h-.1l-2.761.018.022,3.458,2.76-.017a1.731,1.731,0,0,0,1.771-1.689A1.73,1.73,0,0,0-307.033,291.126Z" fill="#fff"/>
      <path id="Path_7120" data-name="Path 7120" d="M-277.7,275.631h-9.352a2.176,2.176,0,0,1-2.25-2.1l-.007-9.3h-26.379a3.158,3.158,0,0,0-3.012,3.083v36a2.9,2.9,0,0,0,2.91,2.89H-279.9a2.439,2.439,0,0,0,2.2-2.462h0Zm-29.143,20.638c-.087,0-.174,0-.261,0h0l-2.763.017.019,2.876-1.84.011-.062-9.762c1.534-.009,3.067-.032,4.6-.043a3.453,3.453,0,0,1,3.6,3.3A3.454,3.454,0,0,1-306.843,296.269Zm13.415-2.181a4.624,4.624,0,0,1-4.23,4.988,4.566,4.566,0,0,1-.619.009l-3.834.024-.061-9.763,3.836-.024a4.609,4.609,0,0,1,4.9,4.294,4.351,4.351,0,0,1,.007.471Zm3.623-.367,4.893-.027.012,1.7-4.894.027.024,3.611-1.838.01-.067-9.746,7.014-.045.011,1.771-5.173.035Z" fill="#fff"/>
    </g>
    <g id="Group_8048" data-name="Group 8048">
      <path id="Path_7121" data-name="Path 7121" d="M-287.052,275.631h9.352l-11.609-11.391.007,9.3A2.176,2.176,0,0,0-287.052,275.631Z" fill="#f36868"/>
      <path id="Path_7122" data-name="Path 7122" d="M-307.147,289.369c-1.535.011-3.068.034-4.6.043l.062,9.762,1.84-.011-.019-2.876,2.763-.017h0c.087,0,.174,0,.261,0a3.454,3.454,0,0,0,3.3-3.6A3.453,3.453,0,0,0-307.147,289.369Zm.032,5.217-2.76.017-.022-3.458,2.761-.018h.1a1.73,1.73,0,0,1,1.689,1.771A1.731,1.731,0,0,1-307.115,294.586Z" fill="#f36868"/>
      <path id="Path_7123" data-name="Path 7123" d="M-298.336,289.322l-3.836.024.061,9.763,3.834-.024a4.566,4.566,0,0,0,.619-.009,4.624,4.624,0,0,0,4.23-4.988h0a4.351,4.351,0,0,0-.007-.471A4.609,4.609,0,0,0-298.336,289.322Zm.055,7.994-2.011.009-.039-6.245,2.009-.013a3.127,3.127,0,0,1,3.069,3.029A3.126,3.126,0,0,1-298.281,297.316Z" fill="#f36868"/>
      <path id="Path_7124" data-name="Path 7124" d="M-284.661,289.253l-7.014.046.067,9.746,1.838-.01-.024-3.612,4.894-.027-.012-1.7-4.893.027-.018-2.663,5.173-.034Z" fill="#f36868"/>
    </g>
  </g>
</svg>
