<svg xmlns="http://www.w3.org/2000/svg" width="31.729" height="31.719" viewBox="0 0 31.729 31.719">
  <g id="Big" transform="translate(-406.093 -40.651)">
    <path id="Path_7081" data-name="Path 7081" d="M433.32,66.446a.457.457,0,0,0,.04-.6l-.273-.356a4.2,4.2,0,0,1-.6-4.286c.09-.209.175-.415.256-.624a4.039,4.039,0,0,1,3.34-2.541l.535-.066a.468.468,0,0,0,.4-.458V55.5a.468.468,0,0,0-.4-.455l-.542-.068a4.035,4.035,0,0,1-3.332-2.535c-.081-.214-.166-.419-.255-.625a4.2,4.2,0,0,1,.6-4.3l.264-.344a.461.461,0,0,0-.036-.608l-1.424-1.424a.458.458,0,0,0-.606-.038l-.349.273a4.219,4.219,0,0,1-4.291.6c-.211-.1-.416-.177-.622-.256a4.058,4.058,0,0,1-2.544-3.333l-.067-.536a.457.457,0,0,0-.452-.4h-2.014a.425.425,0,0,0-.444.4l-.068.544a4.054,4.054,0,0,1-2.533,3.322c-.221.081-.421.163-.621.254a4.244,4.244,0,0,1-4.319-.6l-.343-.265a.435.435,0,0,0-.59.031l-1.424,1.424a.459.459,0,0,0-.038.608l.275.354a4.2,4.2,0,0,1,.592,4.288c-.09.208-.175.413-.254.623a4.039,4.039,0,0,1-3.341,2.541l-.538.066a.461.461,0,0,0-.4.456v2.012a.459.459,0,0,0,.4.455l.543.067a4.038,4.038,0,0,1,3.332,2.535c.081.214.166.421.255.627a4.208,4.208,0,0,1-.6,4.3l-.27.346a.456.456,0,0,0,.037.6l1.426,1.425a.444.444,0,0,0,.587.038l.355-.273a4.225,4.225,0,0,1,4.3-.594c.21.092.415.176.624.256a4.037,4.037,0,0,1,2.541,3.34l.067.536a.457.457,0,0,0,.454.4h2.013a.46.46,0,0,0,.455-.4l.068-.543a4.028,4.028,0,0,1,2.535-3.331c.212-.081.418-.165.623-.256a4.208,4.208,0,0,1,4.3.6l.344.266a.454.454,0,0,0,.6-.037Zm-4.98-9.392a.579.579,0,0,1-.005.093c-.016.16-.043.316-.072.472-.01.062-.019.125-.032.187-.031.151-.07.3-.112.445-.018.065-.036.129-.056.193-.045.142-.1.282-.15.419-.027.068-.055.134-.084.2-.057.13-.116.259-.181.385-.038.072-.079.143-.119.214-.066.117-.132.232-.2.343-.052.08-.109.156-.165.234-.07.1-.14.2-.216.292s-.151.173-.228.259-.135.157-.209.231l-.017.019h0c-.15.15-.307.291-.468.423-.084.069-.172.13-.258.194s-.159.122-.243.178c-.106.071-.216.134-.326.2-.069.041-.137.085-.208.124-.116.062-.235.115-.353.17-.072.033-.141.068-.213.1-.123.051-.248.093-.373.136-.072.025-.143.053-.216.076-.138.042-.277.075-.417.107-.064.015-.125.034-.189.047-.186.037-.372.064-.559.085a.559.559,0,0,0-.059.009c-.214.021-.431.033-.651.033-.072,0-.139-.009-.21-.011s-.145-.006-.218-.011a6.413,6.413,0,0,1-.853-.106c-.032-.007-.063-.017-.1-.024-.173-.037-.345-.08-.516-.132-.035-.011-.07-.025-.1-.037-.165-.054-.328-.111-.488-.178-.026-.011-.051-.024-.076-.036-.167-.072-.332-.149-.493-.237l-.03-.018a6.326,6.326,0,0,1-2.547-2.549l-.012-.019c-.089-.165-.169-.333-.242-.5-.01-.022-.021-.042-.03-.064-.07-.165-.129-.332-.184-.5-.01-.032-.023-.062-.032-.094-.055-.176-.1-.354-.138-.533,0-.026-.013-.051-.019-.077a6.451,6.451,0,0,1-.107-.854c-.005-.073-.009-.147-.011-.22s-.011-.139-.011-.209a5.933,5.933,0,0,1,.033-.653l.005-.036c.021-.2.05-.39.089-.583.011-.057.028-.112.041-.169.034-.146.068-.293.112-.437.021-.068.047-.132.07-.2.044-.131.089-.262.143-.391.027-.065.059-.128.089-.192.057-.126.114-.251.18-.374.034-.063.073-.123.109-.185.068-.117.136-.235.212-.349.049-.074.1-.143.157-.214.071-.1.138-.193.214-.286.11-.135.229-.262.349-.387.025-.026.046-.054.072-.079h0a5.821,5.821,0,0,1,.465-.421c.021-.017.044-.032.065-.048.143-.115.29-.226.443-.329l.029-.017a6.377,6.377,0,0,1,3.532-1.073h0a6.423,6.423,0,0,1,6.42,6.413c0,.187-.018.369-.033.551Z" fill="#fff"/>
    <path id="Path_7082" data-name="Path 7082" d="M436.722,54.247l-.551-.068a3.239,3.239,0,0,1-2.677-2.029c-.083-.22-.173-.439-.267-.653a3.4,3.4,0,0,1,.494-3.486l.269-.351a1.258,1.258,0,0,0-.1-1.662l-1.426-1.424a1.261,1.261,0,0,0-1.664-.1l-.354.277a3.424,3.424,0,0,1-3.473.49c-.217-.1-.435-.185-.653-.268a3.255,3.255,0,0,1-2.038-2.68l-.068-.542a1.257,1.257,0,0,0-1.246-1.1h-2.019a1.257,1.257,0,0,0-1.247,1.1l-.069.549a3.253,3.253,0,0,1-2.027,2.669c-.226.084-.446.173-.654.267a3.416,3.416,0,0,1-3.489-.491l-.348-.269a1.256,1.256,0,0,0-1.663.1L410.028,46a1.257,1.257,0,0,0-.1,1.665l.278.359a3.4,3.4,0,0,1,.484,3.476c-.093.219-.183.435-.264.65a3.239,3.239,0,0,1-2.686,2.035l-.547.067a1.266,1.266,0,0,0-1.1,1.249v2.008a1.261,1.261,0,0,0,1.1,1.25l.551.068a3.239,3.239,0,0,1,2.677,2.029c.083.22.172.437.266.654a3.409,3.409,0,0,1-.487,3.484l-.274.35a1.259,1.259,0,0,0,.1,1.665l1.425,1.424a1.258,1.258,0,0,0,1.66.106l.361-.278a3.4,3.4,0,0,1,3.475-.487c.218.1.434.184.651.267a3.239,3.239,0,0,1,2.035,2.686l.068.543a1.259,1.259,0,0,0,1.247,1.1h2.016a1.258,1.258,0,0,0,1.247-1.1l.069-.551a3.236,3.236,0,0,1,2.029-2.676q.332-.126.653-.267a3.4,3.4,0,0,1,3.485.491l.347.269a1.259,1.259,0,0,0,1.667-.1l1.421-1.423a1.255,1.255,0,0,0,.109-1.662l-.277-.361a3.4,3.4,0,0,1-.49-3.476c.094-.217.184-.434.266-.649a3.248,3.248,0,0,1,2.687-2.036l.545-.068a1.272,1.272,0,0,0,1.1-1.248V55.49A1.272,1.272,0,0,0,436.722,54.247Zm-.1,3.721-.535.066a4.039,4.039,0,0,0-3.34,2.541c-.081.209-.166.415-.256.624a4.2,4.2,0,0,0,.6,4.286l.273.356a.457.457,0,0,1-.04.6L431.9,67.871a.458.458,0,0,1-.608.037l-.344-.266a4.2,4.2,0,0,0-4.3-.6c-.2.091-.411.175-.623.256a4.028,4.028,0,0,0-2.535,3.331l-.068.543a.46.46,0,0,1-.455.4h-2.017a.457.457,0,0,1-.454-.4l-.067-.536a4.037,4.037,0,0,0-2.541-3.34c-.209-.08-.414-.164-.624-.256a4.2,4.2,0,0,0-4.286.594l-.355.273a.453.453,0,0,1-.311.092.462.462,0,0,1-.289-.13L410.6,66.444a.455.455,0,0,1-.037-.6l.27-.346a4.208,4.208,0,0,0,.6-4.3c-.089-.206-.174-.413-.255-.627a4.038,4.038,0,0,0-3.332-2.535l-.543-.067a.459.459,0,0,1-.4-.455V55.5a.461.461,0,0,1,.4-.456l.538-.066a4.039,4.039,0,0,0,3.341-2.541c.079-.21.164-.415.254-.623a4.2,4.2,0,0,0-.592-4.288l-.275-.354a.459.459,0,0,1,.038-.608l1.424-1.424a.456.456,0,0,1,.607-.031l.343.265a4.223,4.223,0,0,0,4.306.6c.2-.091.4-.173.621-.254a4.054,4.054,0,0,0,2.533-3.322l.068-.544a.425.425,0,0,1,.444-.4h2.013a.459.459,0,0,1,.453.4l.067.536a4.054,4.054,0,0,0,2.543,3.332c.206.079.411.16.622.256a4.224,4.224,0,0,0,4.291-.6l.349-.273a.458.458,0,0,1,.606.038h0l1.424,1.424a.461.461,0,0,1,.036.608l-.264.344a4.2,4.2,0,0,0-.6,4.3c.089.206.174.411.255.625a4.036,4.036,0,0,0,3.331,2.534l.542.068a.466.466,0,0,1,.4.455v2.015A.467.467,0,0,1,436.622,57.968Z" fill="#b7b7b7"/>
    <path id="Path_7084" data-name="Path 7084" d="M421.953,50.09a6.377,6.377,0,0,0-3.533,1.065l-.029.017c-.153.1-.3.214-.443.329-.021.016-.044.031-.065.048-.161.133-.317.273-.465.421-.026.026-.048.055-.074.082-.12.125-.239.252-.349.387-.076.093-.143.19-.214.286-.052.071-.108.14-.157.214-.076.114-.144.232-.212.349-.036.062-.075.122-.109.185-.066.123-.123.248-.18.374-.03.064-.062.127-.089.192-.054.129-.1.26-.143.391-.023.067-.049.131-.07.2-.044.144-.078.291-.112.437-.013.057-.03.112-.041.169-.039.193-.068.387-.089.583l-.005.036a5.94,5.94,0,0,0-.033.653c0,.07.009.139.011.209s.006.147.011.22a6.446,6.446,0,0,0,.107.854c.006.026.014.051.019.077.039.179.083.357.138.533.009.032.022.062.032.094.055.168.114.335.184.5.009.022.02.042.03.064a5.489,5.489,0,0,0,.242.5l.012.019a6.431,6.431,0,0,0,2.546,2.552l.03.018c.161.088.326.165.493.237.025.012.05.025.076.036.16.067.323.124.488.178l.1.037a4.764,4.764,0,0,0,.516.132c.032.007.063.017.1.024a6.412,6.412,0,0,0,.853.106c.073.005.145.009.218.011s.139.011.21.011c.22,0,.437-.012.651-.033.02,0,.039-.007.059-.009.187-.021.373-.048.56-.085.063-.013.125-.032.188-.047.141-.032.279-.065.417-.107.073-.023.145-.051.216-.076.125-.043.25-.085.373-.136.072-.031.141-.066.213-.1.119-.055.237-.108.353-.17.072-.039.139-.083.208-.124.11-.064.22-.127.326-.2.084-.056.162-.119.243-.178s.175-.125.258-.194a6.2,6.2,0,0,0,.468-.423h0l.017-.019c.073-.074.14-.154.209-.231s.156-.17.228-.259.146-.194.216-.292c.056-.078.113-.154.165-.234.073-.111.14-.226.2-.343.04-.071.081-.142.119-.214.065-.126.124-.255.181-.385.029-.067.057-.133.084-.2.055-.137.105-.277.15-.419.02-.064.038-.128.056-.193.042-.147.081-.294.112-.445.013-.062.021-.125.032-.187.029-.156.055-.312.072-.472a.58.58,0,0,1,.005-.093c.015-.182.031-.365.031-.551A6.422,6.422,0,0,0,421.953,50.09Zm3.971,10.383h0a5.615,5.615,0,1,1,1.641-3.969,5.618,5.618,0,0,1-1.641,3.969Z" fill="#b7b7b7"/>
  </g>
</svg>
