<svg xmlns="http://www.w3.org/2000/svg" width="51.24" height="17.558" viewBox="0 0 51.24 17.558">
  <g id="Group_8026" data-name="Group 8026" transform="translate(-140.572 -121.446)">
    <path id="Path_7083" data-name="Path 7083" d="M153.082,129.372a5.407,5.407,0,0,1,1.189.19,5.472,5.472,0,0,1,3.332,2.692.4.4,0,1,1-.707.375,4.651,4.651,0,0,0-6.379-1.883,4.624,4.624,0,0,0-2.208,2.793.4.4,0,0,1-.385.291.415.415,0,0,1-.109-.015.4.4,0,0,1-.275-.494,5.435,5.435,0,0,1,1-1.932,3.544,3.544,0,0,0-.689-.075h-.005a3.447,3.447,0,0,0-3.227,2.2.4.4,0,0,1-.372.254h-.008a.411.411,0,0,1-.185.011,3.224,3.224,0,0,0-.447-.045,2.236,2.236,0,0,0,0,4.472h45.347a2.062,2.062,0,1,0,0-4.124.4.4,0,0,1-.371-.258l-.02.009a2.222,2.222,0,0,0-2.482-1.414c.056.153.111.308.153.468a.4.4,0,0,1-.287.488.389.389,0,0,1-.1.013.4.4,0,0,1-.387-.3,4.277,4.277,0,0,0-8.139-.438.4.4,0,1,1-.748-.283,5.044,5.044,0,0,1,2.66-2.831,5.111,5.111,0,0,1,.974-.325,9.911,9.911,0,0,0-14.717-5.466,4.407,4.407,0,0,1,3.646,4.331.4.4,0,1,1-.8,0,3.608,3.608,0,1,0-7.216,0,.4.4,0,0,1-.8,0,4.406,4.406,0,0,1,2.6-4.011c-.171-.025-.341-.049-.512-.064l-.067.008c0-.005-.006-.008-.008-.013A9.363,9.363,0,0,0,153.082,129.372Z" fill="#fff"/>
    <path id="Path_7084" data-name="Path 7084" d="M189.189,133.3a2.992,2.992,0,0,0-3.449-1.621,5.024,5.024,0,0,0-4.732-2.579,10.734,10.734,0,0,0-16.656-5.561,10.179,10.179,0,0,0-12.131,5.772.365.365,0,0,0-.015.073,5.423,5.423,0,0,0-2.079.659,5.493,5.493,0,0,0-.953.685,4.29,4.29,0,0,0-1.323-.218h-.006a4.23,4.23,0,0,0-3.85,2.457,2.847,2.847,0,0,0-.379-.039,2.883,2.883,0,0,0-2.149.883A3.036,3.036,0,0,0,143.6,139h45.349a2.855,2.855,0,0,0,.24-5.7ZM162.407,124c.171.015.341.039.512.064a4.406,4.406,0,0,0-2.6,4.011.4.4,0,0,0,.8,0,3.608,3.608,0,1,1,7.216,0,.4.4,0,1,0,.8,0,4.407,4.407,0,0,0-3.646-4.331,9.911,9.911,0,0,1,14.717,5.466,5.111,5.111,0,0,0-.974.325,5.044,5.044,0,0,0-2.66,2.831.4.4,0,1,0,.748.283,4.277,4.277,0,0,1,8.139.438.4.4,0,0,0,.387.3.389.389,0,0,0,.1-.013.4.4,0,0,0,.287-.488c-.042-.16-.1-.315-.153-.468a2.222,2.222,0,0,1,2.482,1.414l.02-.009a.4.4,0,0,0,.371.258,2.062,2.062,0,1,1,0,4.124H143.6a2.236,2.236,0,0,1,0-4.472,3.224,3.224,0,0,1,.447.045.411.411,0,0,0,.185-.011h.008a.4.4,0,0,0,.372-.254,3.447,3.447,0,0,1,3.227-2.2h.005a3.544,3.544,0,0,1,.689.075,5.435,5.435,0,0,0-1,1.932.4.4,0,0,0,.275.494.415.415,0,0,0,.109.015.4.4,0,0,0,.385-.291,4.654,4.654,0,0,1,5.744-3.208,4.674,4.674,0,0,1,2.843,2.3.4.4,0,1,0,.707-.375,5.472,5.472,0,0,0-3.332-2.692,5.407,5.407,0,0,0-1.189-.19,9.363,9.363,0,0,1,9.25-5.378Z" fill="#b7b7b7"/>
  </g>
</svg>
