<svg xmlns="http://www.w3.org/2000/svg" xmlns:xlink="http://www.w3.org/1999/xlink" width="51.659" height="13.077" viewBox="0 0 51.659 13.077">
  <defs>
    <clipPath id="clip-path">
      <rect width="51.659" height="13.077" fill="none"/>
    </clipPath>
  </defs>
  <g id="Repeat_Grid_1" data-name="Repeat Grid 1" clip-path="url(#clip-path)">
    <g id="Group_8025" data-name="Group 8025" transform="translate(-339.818 -82.851)">
      <path id="Path_7062" data-name="Path 7062" d="M389.448,92.621a.221.221,0,0,1-.035-.008.245.245,0,0,1-.037.008h0a.4.4,0,0,1-.4-.4v-.175a5,5,0,0,0-6.7-4.726,4.2,4.2,0,0,1,2.29,3.732.4.4,0,1,1-.8,0,3.418,3.418,0,0,0-6.836-.005v.005a.4.4,0,0,1-.8,0,4.218,4.218,0,0,1,4.218-4.218c.094,0,.182.022.275.028a6.541,6.541,0,0,0-11.7.893,5.005,5.005,0,0,1,1.116,1.98.4.4,0,0,1-.267.5l-.006,0a.41.41,0,0,1-.111.01.4.4,0,0,1-.384-.289,4.219,4.219,0,0,0-8.107,0,.4.4,0,1,1-.778-.186l.01-.035a4.945,4.945,0,0,1,.648-1.353,5.379,5.379,0,0,0-8.835,1.6,2.565,2.565,0,0,1,1.059.5,2.6,2.6,0,0,1,.836,1.183.4.4,0,0,1-.247.509.387.387,0,0,1-.131.022.4.4,0,0,1-.378-.269,1.8,1.8,0,0,0-3.109-.533,1.78,1.78,0,0,0-.3.532.4.4,0,0,1-.756-.26,2.591,2.591,0,0,1,1.745-1.646,3.776,3.776,0,0,0-6.661,2.432,3.874,3.874,0,0,0,.059.671.4.4,0,0,1-.322.465h0a.4.4,0,0,1-.07.006c-.02,0-.034-.017-.053-.02a.391.391,0,0,1-.184-.067.259.259,0,0,1-.031-.027.4.4,0,0,1-.129-.188,1.482,1.482,0,1,0-1.44,1.837h47.349a1.254,1.254,0,0,0,0-2.507Z" fill="#fff"/>
      <path id="Path_7063" data-name="Path 7063" d="M389.762,91.857a5.8,5.8,0,0,0-8.283-5.079,7.332,7.332,0,0,0-13.178.39,4.991,4.991,0,0,0-6.76.57,6.188,6.188,0,0,0-10,1.766,4.556,4.556,0,0,0-8.01,2.367,2.281,2.281,0,1,0-1.433,4.057h47.465a.4.4,0,0,0,.139-.028,2.044,2.044,0,0,0,.061-4.043Zm-.314,3.271H342.1a1.482,1.482,0,1,1,1.44-1.837.4.4,0,0,0,.129.188.259.259,0,0,0,.031.027.391.391,0,0,0,.184.067c.019,0,.033.02.053.02a.4.4,0,0,0,.07-.006h0a.4.4,0,0,0,.322-.465,3.874,3.874,0,0,1-.059-.671,3.776,3.776,0,0,1,6.661-2.432,2.591,2.591,0,0,0-1.745,1.646.4.4,0,0,0,.756.26,1.78,1.78,0,0,1,.3-.532,1.8,1.8,0,0,1,3.109.533.4.4,0,0,0,.378.269.387.387,0,0,0,.131-.022.4.4,0,0,0,.247-.509,2.6,2.6,0,0,0-.836-1.183,2.565,2.565,0,0,0-1.059-.5,5.379,5.379,0,0,1,8.835-1.6,4.945,4.945,0,0,0-.648,1.353l-.01.035a.4.4,0,1,0,.778.186,4.219,4.219,0,0,1,8.107,0,.4.4,0,0,0,.384.289.41.41,0,0,0,.111-.01l.006,0a.4.4,0,0,0,.267-.5,5.005,5.005,0,0,0-1.116-1.98,6.541,6.541,0,0,1,11.7-.893c-.093-.006-.181-.028-.275-.028a4.218,4.218,0,0,0-4.218,4.218.4.4,0,0,0,.8,0v-.005a3.418,3.418,0,0,1,6.836.005.4.4,0,1,0,.8,0,4.2,4.2,0,0,0-2.29-3.732,5,5,0,0,1,6.7,4.726v.175a.4.4,0,0,0,.4.4h0a.245.245,0,0,0,.037-.008.221.221,0,0,0,.035.008,1.254,1.254,0,0,1,0,2.507Z" fill="#b7b7b7"/>
    </g>
  </g>
</svg>
