<svg xmlns="http://www.w3.org/2000/svg" width="59" height="20.218" viewBox="0 0 59 20.218">
  <g id="Group_8029" data-name="Group 8029" transform="translate(-140.572 -121.445)">
    <path id="Path_7083" data-name="Path 7083" d="M154.855,130.45a6.226,6.226,0,0,1,1.369.219,6.3,6.3,0,0,1,3.837,3.1.461.461,0,0,1-.814.432,5.356,5.356,0,0,0-7.345-2.168,5.324,5.324,0,0,0-2.542,3.216.461.461,0,0,1-.443.335.478.478,0,0,1-.125-.017.46.46,0,0,1-.317-.569,6.258,6.258,0,0,1,1.151-2.225,4.08,4.08,0,0,0-.793-.086h-.006a3.969,3.969,0,0,0-3.716,2.532.46.46,0,0,1-.428.292h-.009a.473.473,0,0,1-.213.013,3.713,3.713,0,0,0-.515-.052,2.575,2.575,0,0,0-.006,5.149h52.215a2.374,2.374,0,1,0,0-4.749.458.458,0,0,1-.427-.3l-.023.01a2.558,2.558,0,0,0-2.858-1.628c.064.176.128.355.176.539a.462.462,0,0,1-.33.562.448.448,0,0,1-.116.015.46.46,0,0,1-.446-.345,4.924,4.924,0,0,0-9.372-.5.46.46,0,1,1-.861-.326,5.808,5.808,0,0,1,3.063-3.26,5.884,5.884,0,0,1,1.122-.374,11.412,11.412,0,0,0-16.946-6.294,5.074,5.074,0,0,1,4.2,4.987.46.46,0,1,1-.92,0,4.154,4.154,0,1,0-8.309,0,.461.461,0,0,1-.921,0,5.073,5.073,0,0,1,3-4.618c-.2-.029-.393-.056-.59-.074l-.077.009c0-.006-.007-.009-.009-.015A10.781,10.781,0,0,0,154.855,130.45Z" transform="translate(0.121 0.122)" fill="#fff"/>
    <path id="Path_7084" data-name="Path 7084" d="M196.552,135.1a3.445,3.445,0,0,0-3.971-1.867,5.785,5.785,0,0,0-5.449-2.97,12.36,12.36,0,0,0-19.179-6.4,11.721,11.721,0,0,0-13.968,6.646.421.421,0,0,0-.017.084,6.245,6.245,0,0,0-2.394.759,6.324,6.324,0,0,0-1.1.789,4.94,4.94,0,0,0-1.523-.251h-.007a4.871,4.871,0,0,0-4.433,2.829,3.278,3.278,0,0,0-.436-.045,3.319,3.319,0,0,0-2.474,1.017,3.5,3.5,0,0,0,2.456,5.975h52.217a3.287,3.287,0,0,0,.276-6.563Zm-30.838-10.714c.2.017.393.045.59.074a5.073,5.073,0,0,0-3,4.618.461.461,0,0,0,.921,0,4.154,4.154,0,1,1,8.309,0,.46.46,0,1,0,.92,0,5.074,5.074,0,0,0-4.2-4.987,11.412,11.412,0,0,1,16.946,6.294,5.884,5.884,0,0,0-1.122.374,5.808,5.808,0,0,0-3.063,3.26.46.46,0,1,0,.861.326,4.924,4.924,0,0,1,9.372.5.46.46,0,0,0,.446.345.448.448,0,0,0,.116-.015.462.462,0,0,0,.33-.562c-.048-.184-.112-.363-.176-.539a2.558,2.558,0,0,1,2.858,1.628l.023-.01a.458.458,0,0,0,.427.3,2.374,2.374,0,1,1,0,4.749H144.061a2.575,2.575,0,0,1,.006-5.149,3.713,3.713,0,0,1,.515.052.473.473,0,0,0,.213-.013h.009a.46.46,0,0,0,.428-.292,3.969,3.969,0,0,1,3.716-2.532h.006a4.08,4.08,0,0,1,.793.086,6.258,6.258,0,0,0-1.151,2.225.46.46,0,0,0,.317.569.478.478,0,0,0,.125.017.461.461,0,0,0,.443-.335,5.359,5.359,0,0,1,6.614-3.694,5.381,5.381,0,0,1,3.274,2.646.461.461,0,0,0,.814-.432,6.3,6.3,0,0,0-3.837-3.1,6.226,6.226,0,0,0-1.369-.219,10.781,10.781,0,0,1,10.651-6.192Z" transform="translate(0)" fill="#b7b7b7"/>
  </g>
</svg>
