<svg xmlns="http://www.w3.org/2000/svg" width="16.227" height="16.237" viewBox="0 0 16.227 16.237">
  <g id="Small" transform="translate(-220.696 -128.391)">
    <path id="Path_7079" data-name="Path 7079" d="M235.985,137.053l-.248-.072a2.034,2.034,0,0,1-1.229-1,2.006,2.006,0,0,1-.192-.519c-.023-.119-.046-.225-.071-.334a2.085,2.085,0,0,1,.663-2.046l.158-.142a.2.2,0,0,0,.025-.253l-.563-.8a.192.192,0,0,0-.247-.063l-.21.106a2.081,2.081,0,0,1-2.132-.074c-.1-.062-.189-.121-.283-.174a2.059,2.059,0,0,1-.967-1.858l.013-.264a.187.187,0,0,0-.04-.126.192.192,0,0,0-.115-.068l-.975-.168a.194.194,0,0,0-.221.132l-.08.259A2,2,0,0,1,227.756,131c-.119.02-.218.041-.32.068a2.1,2.1,0,0,1-2.058-.66l-.143-.162a.2.2,0,0,0-.256-.023l-.8.566a.2.2,0,0,0-.059.253l.1.191a2.078,2.078,0,0,1-.072,2.143c-.066.1-.121.186-.174.275a2.043,2.043,0,0,1-1.852.959l-.246-.008a.218.218,0,0,0-.206.167l-.168.971a.2.2,0,0,0,.023.134.191.191,0,0,0,.106.082l.258.079a2.035,2.035,0,0,1,1.412,1.521q.032.15.066.3a2.1,2.1,0,0,1-.655,2.08l-.159.142a.2.2,0,0,0-.023.257l.561.794a.2.2,0,0,0,.251.064l.2-.1a2.058,2.058,0,0,1,1.006-.261,2.094,2.094,0,0,1,1.13.331c.1.069.2.125.288.179a2.024,2.024,0,0,1,.963,1.86l-.014.259a.194.194,0,0,0,.041.127.19.19,0,0,0,.117.067l.973.172a.2.2,0,0,0,.222-.138l.079-.254a1.994,1.994,0,0,1,1.509-1.416c.112-.022.218-.044.318-.071a2.1,2.1,0,0,1,2.061.662l.141.153a.191.191,0,0,0,.255.031l.807-.567a.194.194,0,0,0,.06-.249l-.1-.2a2.074,2.074,0,0,1,.071-2.138c.043-.063.078-.121.112-.177l.072-.115a2.015,2.015,0,0,1,1.845-.945l.256.01a.191.191,0,0,0,.2-.16l.165-.98a.192.192,0,0,0-.028-.135A.2.2,0,0,0,235.985,137.053Zm-4.552.355c-.007.022-.012.045-.02.066a2.818,2.818,0,0,1-.167.356c-.019.034-.035.069-.055.1a2.793,2.793,0,0,1-.208.295c-.03.038-.059.075-.091.111a2.883,2.883,0,0,1-.241.241c-.04.036-.083.07-.125.1a2.628,2.628,0,0,1-.267.189c-.052.032-.108.06-.162.088a2.865,2.865,0,0,1-.28.133c-.071.028-.147.047-.221.069s-.172.055-.262.072a2.7,2.7,0,0,1-.5.05l-.021,0h0a2.786,2.786,0,0,1-2.747-3.248v-.009a2.669,2.669,0,0,1,.111-.389,2.771,2.771,0,0,1,3.1-1.874h0a2.781,2.781,0,0,1,2.31,2.74A2.736,2.736,0,0,1,231.433,137.408Z" fill="#fff"/>
    <path id="Path_7080" data-name="Path 7080" d="M236.216,136.286l-.256-.073a1.234,1.234,0,0,1-.857-.91c-.023-.12-.048-.235-.075-.353a1.294,1.294,0,0,1,.415-1.267l.165-.148a1,1,0,0,0,.141-1.307l-.565-.8a.987.987,0,0,0-1.271-.316l-.217.109a1.283,1.283,0,0,1-1.323-.039c-.107-.069-.214-.136-.3-.188a1.243,1.243,0,0,1-.577-1.123l.014-.264a.987.987,0,0,0-.825-1.032l-.967-.168a1,1,0,0,0-1.127.686l-.082.267a1.2,1.2,0,0,1-.9.851c-.126.021-.249.047-.362.077a1.3,1.3,0,0,1-1.266-.411l-.15-.17a1,1,0,0,0-1.308-.143l-.808.569a1,1,0,0,0-.3,1.28l.1.2a1.281,1.281,0,0,1-.035,1.318c-.07.1-.136.208-.192.3a1.216,1.216,0,0,1-1.129.574l-.256-.009a1,1,0,0,0-1.023.832l-.168.967a.992.992,0,0,0,.687,1.127l.264.081a1.215,1.215,0,0,1,.852.907c.021.109.046.215.079.354a1.284,1.284,0,0,1-.415,1.265l-.167.151a1,1,0,0,0-.138,1.309l.564.8a1,1,0,0,0,1.278.312l.2-.106a1.288,1.288,0,0,1,1.316.033c.107.073.215.137.316.2a1.209,1.209,0,0,1,.573,1.121l-.013.267a.994.994,0,0,0,.823,1.027l.974.171a.841.841,0,0,0,.166.014,1,1,0,0,0,.955-.7l.083-.267a1.2,1.2,0,0,1,.9-.858c.124-.023.248-.05.352-.078a1.3,1.3,0,0,1,1.272.42l.145.158a.993.993,0,0,0,1.308.146l.806-.567a.992.992,0,0,0,.307-1.277l-.107-.2a1.282,1.282,0,0,1,.034-1.316c.045-.064.087-.133.128-.2l.066-.106a1.2,1.2,0,0,1,1.127-.573l.26.01a.984.984,0,0,0,1.032-.825l.168-.972A1.008,1.008,0,0,0,236.216,136.286Zm-.262,1.963a.191.191,0,0,1-.2.16l-.256-.01a2.015,2.015,0,0,0-1.845.945l-.072.115c-.034.056-.069.114-.112.177a2.074,2.074,0,0,0-.071,2.138l.1.2a.194.194,0,0,1-.06.249l-.807.567a.191.191,0,0,1-.255-.031l-.141-.153a2.1,2.1,0,0,0-2.061-.662c-.1.027-.206.049-.318.071a1.994,1.994,0,0,0-1.509,1.416l-.079.254a.2.2,0,0,1-.222.138l-.973-.172a.19.19,0,0,1-.117-.067.194.194,0,0,1-.045-.133l.014-.259a2.008,2.008,0,0,0-.959-1.854c-.092-.054-.185-.11-.288-.179a2.094,2.094,0,0,0-1.13-.331,2.058,2.058,0,0,0-1.006.261l-.2.1a.2.2,0,0,1-.251-.064l-.561-.794,0-.006a.2.2,0,0,1,.023-.257l.159-.142a2.1,2.1,0,0,0,.655-2.08c-.023-.1-.045-.193-.066-.3a2.017,2.017,0,0,0-1.408-1.515l-.258-.079a.191.191,0,0,1-.106-.082.194.194,0,0,1-.027-.14l.168-.971a.218.218,0,0,1,.206-.167l.246.008a2.043,2.043,0,0,0,1.852-.959c.053-.089.108-.179.174-.275a2.078,2.078,0,0,0,.072-2.143l-.1-.191a.2.2,0,0,1,.059-.253l.8-.566a.2.2,0,0,1,.256.023l.143.162a2.1,2.1,0,0,0,2.058.66,3.237,3.237,0,0,1,.32-.068,2,2,0,0,0,1.515-1.411l.08-.259a.194.194,0,0,1,.221-.132l.975.168a.2.2,0,0,1,.159.2l-.013.264a2.048,2.048,0,0,0,.963,1.852c.094.053.187.112.283.174a2.081,2.081,0,0,0,2.132.074l.21-.106a.192.192,0,0,1,.247.063l.567.806h0a.2.2,0,0,1-.025.253l-.158.142a2.085,2.085,0,0,0-.663,2.046c.025.109.048.215.071.334a2.006,2.006,0,0,0,.192.519,2.032,2.032,0,0,0,1.225,1l.248.072a.2.2,0,0,1,.11.087.192.192,0,0,1,.028.135Z" fill="#b7b7b7"/>
    <path id="Path_7081" data-name="Path 7081" d="M229.286,133.765h0a2.869,2.869,0,0,0-3.214,2.263h0v.009a2.786,2.786,0,0,0,2.746,3.248h0l.021,0a2.7,2.7,0,0,0,.5-.05c.09-.017.175-.047.262-.072s.15-.041.221-.069a2.865,2.865,0,0,0,.28-.133c.054-.028.11-.056.162-.088a2.628,2.628,0,0,0,.267-.189c.042-.033.085-.067.125-.1a2.883,2.883,0,0,0,.241-.241c.032-.036.061-.073.091-.111a2.793,2.793,0,0,0,.208-.295c.02-.033.036-.068.055-.1a2.818,2.818,0,0,0,.167-.356c.008-.021.013-.044.02-.066a2.736,2.736,0,0,0,.163-.9A2.781,2.781,0,0,0,229.286,133.765Zm1.473,3.078a1.98,1.98,0,0,1-3.9-.675v-.007a1.98,1.98,0,0,1,3.9.682Z" fill="#b7b7b7"/>
  </g>
</svg>
