<svg id="Component_4682_24" data-name="Component 4682 – 24" xmlns="http://www.w3.org/2000/svg" width="32" height="32" viewBox="0 0 32 32">
  <rect id="Rectangle_6258" data-name="Rectangle 6258" width="32" height="32" rx="3" fill="#fff"/>
  <path id="Path_10764" data-name="Path 10764" d="M682.147,382.721a2.051,2.051,0,1,0,3.5,1.247l6.595-2.874a.64.64,0,0,0,.336-.35.628.628,0,0,0-.006-.486v0a10.6,10.6,0,0,0-.815-1.479.647.647,0,0,0-.895-.184l-.082.053a8.985,8.985,0,1,0,1.736,7.291.641.641,0,0,0-.505-.755.643.643,0,0,0-.757.5,7.774,7.774,0,1,1-1.547-6.333l-.688.455a6.96,6.96,0,0,0-9.538-1.149,6.917,6.917,0,1,0,10.968,6.863.641.641,0,0,0-.5-.756.655.655,0,0,0-.485.093.644.644,0,0,0-.276.41A5.7,5.7,0,0,1,678,383.106a5.7,5.7,0,0,1,9.942-2.587l-.685.455a4.81,4.81,0,1,0,1.12,4.129.644.644,0,0,0-1.264-.246,3.578,3.578,0,0,1-6.477,1.285,3.565,3.565,0,0,1,3.668-5.472,3.578,3.578,0,0,1,1.875,1.02l-1.309.863A2.062,2.062,0,0,0,682.147,382.721Z" transform="translate(-667.625 -368.179)" fill="#dadada"/>
</svg>
