<svg xmlns="http://www.w3.org/2000/svg" width="46" height="44" viewBox="0 0 46 44">
  <g id="STOP" transform="translate(-668 -1155)">
    <path id="Path_2989" data-name="Path 2989" d="M564.235,956.129a21.725,21.725,0,0,0-42.947-2.334c-1.316,6.555-2.952,26.41-2.952,26.41s19.748.376,26.372-.259A21.8,21.8,0,0,0,564.235,956.129Z" transform="translate(149.664 218.685)" fill="#6c6c6c"/>
    <path id="Path_2991" data-name="Path 2991" d="M703.859,377.981a18,18,0,1,1-24.584-6.588h0A18,18,0,0,1,703.859,377.981Z" transform="translate(3.727 790.021)" fill="#fff"/>
    <path id="Path_2991-2" data-name="Path 2991" d="M690.8,374.48a11,11,0,1,1-15.023-4.026h0A11,11,0,0,1,690.8,374.48Z" transform="translate(10.727 797.021)" fill="#6c6c6c"/>
  </g>
</svg>
