<svg xmlns="http://www.w3.org/2000/svg" xmlns:xlink="http://www.w3.org/1999/xlink" width="44" height="44" viewBox="0 0 44 44">
  <defs>
    <filter id="Rectangle_3106" x="0" y="0" width="44" height="44" filterUnits="userSpaceOnUse">
      <feOffset input="SourceAlpha"/>
      <feGaussianBlur stdDeviation="2" result="blur"/>
      <feFlood flood-opacity="0.149"/>
      <feComposite operator="in" in2="blur"/>
      <feComposite in="SourceGraphic"/>
    </filter>
    <clipPath id="clip-path">
      <rect id="Rectangle_3105" data-name="Rectangle 3105" width="18" height="18" fill="none"/>
    </clipPath>
  </defs>
  <g id="Full_Screen" data-name="Full Screen" transform="translate(6 6)">
    <g transform="matrix(1, 0, 0, 1, -6, -6)" filter="url(#Rectangle_3106)">
      <rect id="Rectangle_3106-2" data-name="Rectangle 3106" width="32" height="32" rx="2" transform="translate(6 6)" fill="#fff" opacity="0.8"/>
    </g>
    <g id="Group_5692" data-name="Group 5692" transform="translate(7 7)" opacity="0.7">
      <g id="Group_5692-2" data-name="Group 5692" transform="translate(0 -0.001)" clip-path="url(#clip-path)">
        <path id="Path_3536" data-name="Path 3536" d="M6.378,0H.643A.643.643,0,0,0,0,.643V6.378a.643.643,0,0,0,.643.643H1.28a.643.643,0,0,0,.643-.643V1.923H6.378a.643.643,0,0,0,.643-.643V.643A.643.643,0,0,0,6.378,0" transform="translate(0 0)" fill="#919191"/>
        <path id="Path_3537" data-name="Path 3537" d="M23.456,0H17.721a.643.643,0,0,0-.643.643V1.28a.643.643,0,0,0,.643.643h4.456V6.378a.643.643,0,0,0,.643.643h.637a.643.643,0,0,0,.643-.643V.643A.643.643,0,0,0,23.456,0" transform="translate(-6.099 0)" fill="#919191"/>
        <path id="Path_3538" data-name="Path 3538" d="M6.378,22.177H1.923V17.721a.643.643,0,0,0-.643-.643H.643A.643.643,0,0,0,0,17.721v5.736a.643.643,0,0,0,.643.643H6.378a.643.643,0,0,0,.643-.643v-.637a.643.643,0,0,0-.643-.643" transform="translate(0 -6.099)" fill="#919191"/>
        <path id="Path_3539" data-name="Path 3539" d="M23.456,17.078h-.637a.643.643,0,0,0-.643.643v4.456H17.721a.643.643,0,0,0-.643.643v.636a.643.643,0,0,0,.643.643h5.736a.643.643,0,0,0,.643-.643V17.721a.643.643,0,0,0-.643-.643" transform="translate(-6.099 -6.099)" fill="#919191"/>
      </g>
    </g>
  </g>
</svg>
