<svg xmlns="http://www.w3.org/2000/svg" width="21.263" height="21.263" viewBox="0 0 21.263 21.263">
  <g id="Group_32828" data-name="Group 32828" transform="translate(414.605 -1004.175) rotate(65)">
    <path id="Path_26453" data-name="Path 26453" d="M8,0A8,8,0,1,1,0,8,8,8,0,0,1,8,0Z" transform="translate(741 787)" fill="#6c6c6c" opacity="0.2"/>
    <g id="Path_26452" data-name="Path 26452" transform="translate(746 792)" fill="#fff">
      <path d="M 3 7 C 0.7943900227546692 7 -1 5.205609798431396 -1 3 C -1 0.7943900227546692 0.7943900227546692 -1 3 -1 C 5.205609798431396 -1 7 0.7943900227546692 7 3 C 7 5.205609798431396 5.205609798431396 7 3 7 Z" stroke="none"/>
      <path d="M 3 0 C 1.34315013885498 0 0 1.34315013885498 0 3 C 0 4.65684986114502 1.34315013885498 6 3 6 C 4.65684986114502 6 6 4.65684986114502 6 3 C 6 1.34315013885498 4.65684986114502 0 3 0 M 3 -2 C 5.757009983062744 -2 8 0.2429900169372559 8 3 C 8 5.757009983062744 5.757009983062744 8 3 8 C 0.2429900169372559 8 -2 5.757009983062744 -2 3 C -2 0.2429900169372559 0.2429900169372559 -2 3 -2 Z" stroke="none" fill="#6c6c6c"/>
    </g>
  </g>
</svg>
