<svg xmlns="http://www.w3.org/2000/svg" width="25" height="42.595" viewBox="0 0 25 42.595">
  <g id="Group_39594" data-name="Group 39594" transform="translate(-696.596 -915.247)">
    <g id="Group_39507" data-name="Group 39507" transform="matrix(0.974, -0.225, 0.225, 0.974, -199.544, 342.111)">
      <path id="Path_26451" data-name="Path 26451" d="M8,0A8,8,0,1,1,0,8,8,8,0,0,1,8,0Z" transform="translate(741 787)" fill="#ff5d5d" opacity="0.2"/>
      <g id="Path_26450" data-name="Path 26450" transform="translate(746 792)" fill="#fff">
        <path d="M 3 7 C 0.7943900227546692 7 -1 5.205609798431396 -1 3 C -1 0.7943900227546692 0.7943900227546692 -1 3 -1 C 5.205609798431396 -1 7 0.7943900227546692 7 3 C 7 5.205609798431396 5.205609798431396 7 3 7 Z" stroke="none"/>
        <path d="M 3 0 C 1.34315013885498 0 0 1.34315013885498 0 3 C 0 4.65684986114502 1.34315013885498 6 3 6 C 4.65684986114502 6 6 4.65684986114502 6 3 C 6 1.34315013885498 4.65684986114502 0 3 0 M 3 -2 C 5.757009983062744 -2 8 0.2429900169372559 8 3 C 8 5.757009983062744 5.757009983062744 8 3 8 C 0.2429900169372559 8 -2 5.757009983062744 -2 3 C -2 0.2429900169372559 0.2429900169372559 -2 3 -2 Z" stroke="none" fill="#ff5d5d"/>
      </g>
    </g>
    <g id="map_indicator" data-name="map indicator" transform="translate(-500.032 386.63)">
      <g id="Locator" transform="translate(1196.627 528.617)">
        <path id="Path_2805" data-name="Path 2805" d="M542.368,162.338a12.64,12.64,0,0,0-12.5,12.776,12.909,12.909,0,0,0,2.446,7.593c2.277,3.145,10.08,11.63,10.08,11.63s7.751-8.486,10.028-11.63a12.908,12.908,0,0,0,2.446-7.593A12.64,12.64,0,0,0,542.368,162.338Z" transform="translate(-529.868 -162.338)" fill="#ff5d5d"/>
        <path id="Path_2808" data-name="Path 2808" d="M8.811,0A8.811,8.811,0,1,1,0,8.811,8.811,8.811,0,0,1,8.811,0Z" transform="translate(3.689 3.798)" fill="#fff"/>
      </g>
    </g>
  </g>
</svg>
