<svg xmlns="http://www.w3.org/2000/svg" width="32" height="32" viewBox="0 0 32 32">
  <g id="Group_34431" data-name="Group 34431" transform="translate(-167 14775)">
    <rect id="Rectangle_14832" data-name="Rectangle 14832" width="32" height="32" rx="3" transform="translate(167 -14775)" fill="#fff"/>
    <g id="Group_34150" data-name="Group 34150" transform="translate(-503.272 -15146.601)">
      <path id="Path_10980" data-name="Path 10980" d="M684.584,389.947l-.008.008a2.246,2.246,0,0,1-3.179-.021,2.27,2.27,0,0,1,.038-3.179l.4-.4a.516.516,0,0,0,.121-.52,5.532,5.532,0,0,1-.3-1.641v-.041l-.429-.429a.49.49,0,0,0-.421.142l-1.152,1.155a4.723,4.723,0,1,0,6.677,6.682l1.436-1.434-1.753-1.753Z" transform="translate(0 2.443)" fill="#ff5d5d"/>
      <path id="Path_10981" data-name="Path 10981" d="M684.493,382.919a.518.518,0,0,0-.295-.094.5.5,0,0,0-.347.139l2.456,2.457.006,0a4.779,4.779,0,0,0-1.182-1.968A5.338,5.338,0,0,0,684.493,382.919Z" transform="translate(3.311 1.914)" fill="#ff5d5d"/>
      <path id="Path_10982" data-name="Path 10982" d="M683.611,387.2l-2.459-2.459a4.709,4.709,0,0,0,1.184,1.97,4.558,4.558,0,0,0,.637.539.49.49,0,0,0,.285.091v0A.507.507,0,0,0,683.611,387.2Z" transform="translate(1.709 3.05)" fill="#ff5d5d"/>
      <path id="Path_10983" data-name="Path 10983" d="M685.5,382.748a2.236,2.236,0,0,1,1.593-.658,2.213,2.213,0,0,1,1.594.669,2.264,2.264,0,0,1-.032,3.174l-.411.408a.5.5,0,0,0-.115.521,5.812,5.812,0,0,1,.3,1.64v.046l.421.422a.564.564,0,0,0,.073,0v0a.477.477,0,0,0,.354-.142l1.16-1.154a4.732,4.732,0,0,0-6.693-6.693l-1.434,1.433,1.751,1.761Z" transform="translate(2.397 0)" fill="#ff5d5d"/>
      <rect id="Rectangle_7696" data-name="Rectangle 7696" width="3.187" height="19.441" rx="0.5" transform="translate(678.276 381.854) rotate(-45.002)" fill="#ff5d5d"/>
    </g>
  </g>
</svg>
