<svg xmlns="http://www.w3.org/2000/svg" width="18" height="18" viewBox="0 0 18 18">
  <g id="Group_9624" data-name="Group 9624" transform="translate(-305.545 -17.027)">
    <path id="Path_8060" data-name="Path 8060" d="M314.547,17.027a8.985,8.985,0,0,0-6.994,3.365l-1.5-1.5a.3.3,0,0,0-.512.212v4.432a.3.3,0,0,0,.3.3h4.429a.3.3,0,0,0,.212-.513l-1.516-1.517a6.995,6.995,0,1,1,.834,9.363,1,1,0,0,0-1.357,1.472,9,9,0,1,0,6.1-15.615Z" transform="translate(0)" fill="#aaa"/>
    <path id="Path_8061" data-name="Path 8061" d="M314.532,21.262a.85.85,0,0,0-.85.85v3.905a.847.847,0,0,0,.249.6l2.126,2.127a.85.85,0,1,0,1.2-1.2l-1.877-1.877V22.112A.85.85,0,0,0,314.532,21.262Z" transform="translate(0.007 0.008)" fill="#aaa"/>
  </g>
</svg>
