<svg id="Component_1510_21" data-name="Component 1510 – 21" xmlns="http://www.w3.org/2000/svg" width="17.997" height="18.001" viewBox="0 0 17.997 18.001">
  <g id="Settings" transform="translate(-270.518 -89.42)">
    <g id="Group_8882" data-name="Group 8882">
      <g id="Group_8883" data-name="Group 8883">
        <path id="Path_1103" data-name="Path 1103" d="M274.074,91.25l-1.112,1a1.015,1.015,0,0,0-.075,1.429l.575.639a7.241,7.241,0,0,0-.942,1.971l-.858-.046a1.016,1.016,0,0,0-1.064.957l-.079,1.494a1.015,1.015,0,0,0,.956,1.063l.858.045a7.29,7.29,0,0,0,.728,2.06l-.638.574a1.014,1.014,0,0,0-.076,1.428l1,1.112a1.014,1.014,0,0,0,1.428.076l.638-.574a7.258,7.258,0,0,0,1.972.941l-.046.857a1.017,1.017,0,0,0,.957,1.064l1.494.079a1.014,1.014,0,0,0,1.063-.956l.045-.858a7.284,7.284,0,0,0,2.059-.728l.575.638a1.013,1.013,0,0,0,1.428.075l1.112-1a1.014,1.014,0,0,0,.075-1.428l-.574-.638a7.288,7.288,0,0,0,.941-1.972l.858.046a1.016,1.016,0,0,0,1.063-.958l.079-1.494a1.015,1.015,0,0,0-.957-1.063l-.858-.045a7.291,7.291,0,0,0-.728-2.06l.639-.575a1.015,1.015,0,0,0,.075-1.429l-1-1.111a1.015,1.015,0,0,0-1.428-.076l-.639.574a7.259,7.259,0,0,0-1.972-.941l.046-.857a1.014,1.014,0,0,0-.956-1.063l-1.494-.079a1.012,1.012,0,0,0-1.063.956l-.045.857a7.218,7.218,0,0,0-2.06.728l-.574-.639a1.014,1.014,0,0,0-1.428-.076Zm2.223,3.59a4.815,4.815,0,1,1-.36,6.8h0A4.816,4.816,0,0,1,276.3,94.84Z" fill="#b7b7b7"/>
        <circle id="Ellipse_418" data-name="Ellipse 418" cx="2.474" cy="2.474" r="2.474" transform="translate(277.045 95.945)" fill="#b7b7b7"/>
      </g>
    </g>
  </g>
</svg>
