<svg xmlns="http://www.w3.org/2000/svg" width="16" height="16" viewBox="0 0 16 16">
  <g id="Group_39217" data-name="Group 39217" transform="translate(-590 14736.976)">
    <g id="Group_39135" data-name="Group 39135" transform="translate(-1209.063 -14896.23)">
      <rect id="Rectangle_7554" data-name="Rectangle 7554" width="16" height="16" rx="2" transform="translate(1799.063 159.254)" fill="#eee"/>
    </g>
    <g id="map_indicator" data-name="map indicator" transform="translate(-604.327 -15263.594)">
      <g id="Locator" transform="translate(1197.627 528.617)">
        <path id="Path_2805" data-name="Path 2805" d="M534.582,162.338a4.753,4.753,0,0,0-4.714,4.791,4.822,4.822,0,0,0,.922,2.847c.859,1.179,3.8,4.361,3.8,4.361s2.924-3.182,3.783-4.361a4.827,4.827,0,0,0,.922-2.847A4.753,4.753,0,0,0,534.582,162.338Z" transform="translate(-529.868 -162.338)" fill="#b7b7b7"/>
        <path id="Path_2808" data-name="Path 2808" d="M3.323,0A3.323,3.323,0,1,1,0,3.323,3.323,3.323,0,0,1,3.323,0Z" transform="translate(1.391 1.424)" fill="#eee"/>
      </g>
    </g>
  </g>
</svg>
