<svg xmlns="http://www.w3.org/2000/svg" width="8.75" height="13.996" viewBox="0 0 8.75 13.996"><defs><style>.a{fill:#b7b7b7;}.b{fill:#5673aa;}</style></defs><g transform="translate(0 -0.002)"><path id="one" class="a" d="M6.012,5.188l-4.8,3.327a1.163,1.163,0,0,1-.631.235C.222,8.75,0,8.458,0,7.97V.779C0,.291.222,0,.58,0a1.153,1.153,0,0,1,.628.236l4.8,3.327a1,1,0,0,1,.48.812A1,1,0,0,1,6.012,5.188Z" transform="translate(8.75 7.51) rotate(90)"/><path id="two" class="b" d="M6.012,3.562,1.212.235A1.163,1.163,0,0,0,.581,0C.222,0,0,.292,0,.78V7.971c0,.488.222.779.58.779a1.153,1.153,0,0,0,.628-.236l4.8-3.327a1,1,0,0,0,.48-.812A1,1,0,0,0,6.012,3.562Z" transform="translate(0 6.49) rotate(-90)"/></g></svg>