<svg xmlns="http://www.w3.org/2000/svg" width="16" height="16" viewBox="0 0 16 16">
  <g id="Group_39044" data-name="Group 39044" transform="translate(-1799.063 -159.254)">
    <rect id="Rectangle_7554" data-name="Rectangle 7554" width="16" height="16" rx="2" transform="translate(1799.063 159.254)" fill="#eee"/>
    <path id="clock" d="M14,8a6,6,0,1,0,6,6A6,6,0,0,0,14,8Zm1.381,8.47-2.134-1.551a.292.292,0,0,1-.119-.235V10.613a.291.291,0,0,1,.29-.29h1.161a.291.291,0,0,1,.29.29v3.331l1.536,1.118a.29.29,0,0,1,.063.406l-.682.939A.292.292,0,0,1,15.381,16.47Z" transform="translate(1793.063 153.254)" fill="#b7b7b7"/>
  </g>
</svg>
