<svg xmlns="http://www.w3.org/2000/svg" width="18" height="22" viewBox="0 0 18 22">
  <g id="map_indicator" data-name="map indicator" transform="translate(-1193 -520)">
    <g id="Pin" transform="translate(1193 520)">
      <path id="Path_2805" data-name="Path 2805" d="M538.868,162.338a8.894,8.894,0,0,0-9,8.784,8.606,8.606,0,0,0,1.761,5.22c1.639,2.162,7.239,8,7.239,8s5.6-5.834,7.239-8a8.607,8.607,0,0,0,1.761-5.22A8.894,8.894,0,0,0,538.868,162.338Z" transform="translate(-529.868 -162.338)" fill="#6c6c6c"/>
      <path id="Path_2808" data-name="Path 2808" d="M6,0A6,6,0,1,1,0,6,6,6,0,0,1,6,0Z" transform="translate(3 3)" fill="#fff"/>
    </g>
  </g>
</svg>
