<svg xmlns="http://www.w3.org/2000/svg" width="314" height="177" viewBox="0 0 314 177">
  <g id="Rectangle_1713" data-name="Rectangle 1713" fill="#f3f3f3" stroke="#fff" stroke-width="2" stroke-dasharray="4 5">
    <rect width="314" height="177" rx="3" stroke="none"/>
    <rect x="1" y="1" width="312" height="175" rx="2" fill="none"/>
  </g>
  <text id="Drag_file_here_or_click_to_add" data-name="Drag file here or click to add" transform="translate(158.714 162)" fill="#919191" font-size="12" font-family="Montserrat-SemiBold, Montserrat" font-weight="600"><tspan x="-87.966" y="0">Drag file here or click to add</tspan></text>
  <g id="Group_34538" data-name="Group 34538" transform="translate(-695 -306.664)">
    <circle id="Ellipse_3223" data-name="Ellipse 3223" cx="9.317" cy="9.317" r="9.317" transform="translate(817.555 423.225) rotate(-45)" fill="#b7b7b7" opacity="0.2" style="mix-blend-mode: multiply;isolation: isolate"/>
    <g id="Bcg" transform="translate(803.585 330.209)">
      <path id="Path_12272" data-name="Path 12272" d="M667.89,682.954c.385-5.662,2-29.41,19.882-40.832,20.465-13.072,51.471-3.125,66.986,16.68,9.453,12.067,16.641,32.242,8.807,49.372C750.243,737.3,700.015,743.35,679.1,722.185,666.115,709.047,667.509,688.547,667.89,682.954Z" transform="translate(-667.653 -636.21)" fill="#fff"/>
      <circle id="Ellipse_3224" data-name="Ellipse 3224" cx="3.864" cy="3.864" r="3.864" transform="translate(57.85 1.788)" fill="#5673aa"/>
      <circle id="Ellipse_3225" data-name="Ellipse 3225" cx="2.229" cy="2.229" r="2.229" transform="translate(68.273 100.832) rotate(-45)" fill="#5673aa"/>
    </g>
    <g id="Lock" transform="translate(820.73 412.714)">
      <circle id="Ellipse_3226" data-name="Ellipse 3226" cx="9.317" cy="9.317" r="9.317" fill="#24c1a1"/>
      <g id="Group_32972" data-name="Group 32972" transform="translate(3.633 3.802)">
        <path id="Path_12292" data-name="Path 12292" d="M1252.331,3107.235l-1.8,1.7a4.13,4.13,0,0,0-.172,5.821l.333.353a4.129,4.129,0,0,0,5.82.172l1.8-1.7a.953.953,0,0,0,.04-1.347l-4.674-4.958A.953.953,0,0,0,1252.331,3107.235Z" transform="translate(-1249.242 -3105.013)" fill="#fff"/>
        <path id="Path_12293" data-name="Path 12293" d="M1389.556,3054.881l1.209-1.14a2.079,2.079,0,0,1,2.852,3.025l-1.209,1.14.785.833,1.209-1.14a3.224,3.224,0,1,0-4.422-4.692l-1.209,1.139Z" transform="translate(-1383.785 -3052.032)" fill="#fff"/>
        <path id="Path_12294" data-name="Path 12294" d="M1341.318,3210.6a.973.973,0,1,0-1.58-.368l-.606.572a.379.379,0,0,0,.519.551l.607-.572A.974.974,0,0,0,1341.318,3210.6Z" transform="translate(-1335.805 -3203.311)" fill="#52d1bd"/>
      </g>
    </g>
    <g id="Blue" transform="translate(841.563 351.249)">
      <path id="Path_12273" data-name="Path 12273" d="M1879.458,1381.369a1.824,1.824,0,0,1-.2-.011l-44.955-5.027a1.825,1.825,0,0,1-1.607-2.012l6.617-59.176a1.825,1.825,0,0,1,2.011-1.607l44.955,5.027a1.825,1.825,0,0,1,1.607,2.012l-6.618,59.176a1.826,1.826,0,0,1-1.807,1.618Zm-38.34-67.406a1.388,1.388,0,0,0-1.373,1.228l-6.618,59.176a1.387,1.387,0,0,0,1.22,1.527l44.955,5.027a1.387,1.387,0,0,0,1.527-1.22l6.617-59.176a1.387,1.387,0,0,0-1.22-1.527l-44.955-5.027A1.367,1.367,0,0,0,1841.118,1313.963Z" transform="translate(-1829.036 -1310.367)" fill="#344566"/>
      <g id="Group_32970" data-name="Group 32970" transform="translate(0)">
        <path id="Path_12274" data-name="Path 12274" d="M1775.386,1297.875l-43.54-12.267a1.606,1.606,0,0,1-1.107-1.975l16.147-57.314a1.606,1.606,0,0,1,1.975-1.107l43.54,12.267a1.606,1.606,0,0,1,1.107,1.975l-16.147,57.314A1.606,1.606,0,0,1,1775.386,1297.875Z" transform="translate(-1730.679 -1225.152)" fill="#5673aa"/>
        <path id="Path_12275" data-name="Path 12275" d="M2465.92,1560.317l-21.138-5.955a1.188,1.188,0,0,1-.819-1.461h0a1.188,1.188,0,0,1,1.461-.819l21.138,5.955a1.188,1.188,0,0,1,.819,1.461h0A1.188,1.188,0,0,1,2465.92,1560.317Z" transform="translate(-2418.437 -1540.358)" fill="#b3cef6"/>
        <path id="Path_12276" data-name="Path 12276" d="M2255.635,1701.357l-33.3-9.381a1.188,1.188,0,0,1-.819-1.461h0a1.188,1.188,0,0,1,1.461-.819l33.3,9.381a1.188,1.188,0,0,1,.819,1.461h0A1.188,1.188,0,0,1,2255.635,1701.357Z" transform="translate(-2203.941 -1673.057)" fill="#344566"/>
        <path id="Path_12277" data-name="Path 12277" d="M2214.239,1848.29l-33.3-9.381a1.188,1.188,0,0,1-.819-1.461h0a1.188,1.188,0,0,1,1.461-.819l33.3,9.381a1.188,1.188,0,0,1,.819,1.461h0A1.188,1.188,0,0,1,2214.239,1848.29Z" transform="translate(-2164.023 -1814.741)" fill="#344566"/>
        <path id="Path_12278" data-name="Path 12278" d="M2172.842,1995.224l-33.3-9.381a1.188,1.188,0,0,1-.819-1.461h0a1.188,1.188,0,0,1,1.461-.819l33.3,9.381a1.188,1.188,0,0,1,.819,1.461h0A1.188,1.188,0,0,1,2172.842,1995.224Z" transform="translate(-2124.105 -1956.425)" fill="#344566"/>
        <path id="Path_12279" data-name="Path 12279" d="M2131.445,2142.157l-33.3-9.381a1.188,1.188,0,0,1-.819-1.461h0a1.188,1.188,0,0,1,1.461-.819l33.3,9.381a1.188,1.188,0,0,1,.819,1.461h0A1.188,1.188,0,0,1,2131.445,2142.157Z" transform="translate(-2084.188 -2098.109)" fill="#344566"/>
        <path id="Path_12280" data-name="Path 12280" d="M2090.049,2289.091l-33.3-9.381a1.188,1.188,0,0,1-.819-1.461h0a1.188,1.188,0,0,1,1.461-.819l33.3,9.381a1.188,1.188,0,0,1,.819,1.461h0A1.188,1.188,0,0,1,2090.049,2289.091Z" transform="translate(-2044.27 -2239.793)" fill="#344566"/>
        <path id="Path_12281" data-name="Path 12281" d="M2048.652,2436.024l-33.3-9.381a1.188,1.188,0,0,1-.819-1.461h0a1.188,1.188,0,0,1,1.461-.819l33.3,9.381a1.188,1.188,0,0,1,.819,1.461h0A1.188,1.188,0,0,1,2048.652,2436.024Z" transform="translate(-2004.352 -2381.477)" fill="#344566"/>
        <path id="Path_12282" data-name="Path 12282" d="M2007.255,2582.958l-33.3-9.381a1.188,1.188,0,0,1-.819-1.461h0a1.188,1.188,0,0,1,1.461-.819l33.3,9.381a1.188,1.188,0,0,1,.819,1.461h0A1.188,1.188,0,0,1,2007.255,2582.958Z" transform="translate(-1964.434 -2523.162)" fill="#b3cef6"/>
        <path id="Path_12283" data-name="Path 12283" d="M1965.859,2729.891l-33.3-9.381a1.188,1.188,0,0,1-.819-1.461h0a1.188,1.188,0,0,1,1.461-.819l33.3,9.381a1.188,1.188,0,0,1,.819,1.461h0A1.188,1.188,0,0,1,1965.859,2729.891Z" transform="translate(-1924.517 -2664.845)" fill="#344566"/>
      </g>
    </g>
    <g id="Yellow" transform="translate(799 333.736)">
      <path id="Path_12274-2" data-name="Path 12274" d="M564.986,811.6h-.007c-.066,0-.125,0-.18-.007l-.024,0h-.008c-.05,0-.1-.012-.153-.021l-.011,0-.041-.007c-.055-.011-.11-.024-.163-.039l-.046-.014-.01,0c-.043-.013-.086-.028-.128-.043h0l-.058-.022c-.043-.018-.086-.037-.131-.059l-.065-.033c-.051-.027-.094-.052-.134-.076l-.058-.038-.017-.012c-.028-.019-.057-.039-.084-.059l-.066-.052c-.029-.024-.059-.049-.092-.079l-.012-.011-.038-.035c-.048-.046-.09-.091-.13-.137l-.017-.021,0,0c-.034-.041-.069-.085-.1-.13l-.033-.047,0,0c-.027-.039-.053-.081-.077-.123l-.007-.012-.023-.04c-.036-.065-.065-.124-.09-.182l-.136-.312L539.494,756.33c-.027-.062-.051-.127-.075-.2-.005-.015-.009-.03-.013-.046l-.005-.018c-.012-.041-.025-.088-.036-.137,0-.02-.008-.039-.012-.059l0-.017c-.009-.049-.016-.09-.02-.128s-.006-.053-.008-.079c0-.042-.006-.084-.007-.125s0-.053,0-.079,0-.078,0-.124v-.014c0-.022,0-.043,0-.065,0-.044.011-.086.017-.122l0-.02c0-.019.006-.038.009-.056.008-.039.017-.075.025-.109l0-.009a2.184,2.184,0,0,1,.093-.289l.014-.031,0-.009c.026-.061.051-.114.077-.163l.024-.042.009-.016c.029-.052.056-.094.083-.135.013-.019.027-.039.041-.058l0-.005c.03-.042.06-.081.091-.118l.054-.063c.03-.034.063-.068.1-.1l.005-.005.057-.054c.041-.036.082-.07.114-.095l.016-.013.05-.039c.046-.033.092-.062.134-.088l.017-.011.046-.029a2.175,2.175,0,0,1,.213-.107l42.109-18.324a2.179,2.179,0,0,1,.224-.083l.052-.014.02-.005c.046-.013.1-.027.155-.038l.065-.011.021,0c.045-.007.093-.014.144-.019l.077,0h.011c.052,0,.1,0,.142,0l.087,0c.045,0,.092.007.142.013h0l.078.011c.045.007.091.017.147.03l.018,0,.054.013c.05.013.1.03.163.052l.013,0,.036.013a2.169,2.169,0,0,1,.28.132l.012.007c.028.015.057.031.087.05l.046.031.017.011c.033.022.068.046.1.074l.05.04.008.007c.036.03.068.057.1.084l.054.052c.03.03.06.061.089.094l.05.058c.026.031.051.064.081.1l.01.014.034.047c.028.04.053.082.076.12l.01.016.025.041c.037.066.067.128.094.19l23.48,53.957c.025.057.048.117.071.189l.013.043,0,.014c.014.046.026.093.037.14l0,.01c0,.017.008.033.011.05.011.054.019.109.026.163v.006c0,.008,0,.017,0,.025.007.062.01.123.011.19,0,.016,0,.033,0,.051v.017c0,.044,0,.083,0,.12s0,.056-.007.084-.008.067-.014.1a2.209,2.209,0,0,1-.074.323l-.012.036,0,.015c-.021.061-.044.12-.069.177-.008.019-.017.039-.026.059h0c-.027.056-.056.112-.091.171l-.007.012-.018.032a2.171,2.171,0,0,1-.141.2l-.015.018c-.044.055-.093.109-.145.162l-.041.039-.014.013c-.042.04-.086.078-.128.113l-.068.053c-.043.032-.09.064-.143.1l-.017.011-.049.03a2.189,2.189,0,0,1-.226.116l-42.109,18.324c-.056.024-.117.047-.187.071l-.006,0-.034.011c-.062.019-.124.036-.184.049l-.024,0-.01,0c-.059.012-.115.021-.17.027h-.007l-.023,0c-.058.006-.117.01-.183.011Zm18.629-76.219-.088,0h-.011l-.059,0c-.038,0-.078.009-.115.015l-.024,0-.044.007c-.041.008-.085.02-.124.031l-.031.008-.027.007a1.755,1.755,0,0,0-.18.066L540.8,753.852a1.777,1.777,0,0,0-.171.086l-.024.015-.026.017c-.036.022-.074.046-.108.07l-.034.026-.02.016c-.028.022-.06.048-.091.075l-.045.042-.005,0c-.03.03-.057.057-.081.084l-.043.05c-.024.029-.048.06-.073.094l0,.006-.031.045c-.021.031-.042.066-.066.108l-.012.02-.015.026c-.02.038-.04.08-.061.13l-.01.023,0,.01a1.734,1.734,0,0,0-.074.232l0,.01c-.008.03-.015.058-.02.085,0,.012,0,.024-.006.036l0,.026c0,.03-.01.065-.013.1,0,.016,0,.031,0,.047v.015c0,.038,0,.07,0,.1s0,.042,0,.063,0,.066.006.1,0,.042.007.064.009.061.016.1l0,.019c0,.014,0,.028.008.042.008.036.019.074.029.109l.007.027c0,.008,0,.017.007.025.019.058.038.11.06.159l23.48,53.957c.02.045.043.092.072.145l.016.028.008.014c.02.034.041.067.062.1l0,0,.025.037c.026.036.053.071.081.1l.013.017,0,0c.03.035.064.071.1.108l.025.023.015.013c.026.024.05.044.073.063l.053.041.067.047.019.013.041.027c.031.019.066.039.107.061l.052.026c.037.018.071.033.1.047l.046.018c.036.014.071.025.105.036l.011,0,.035.01c.043.012.087.022.131.031l.028,0,.013,0c.042.007.083.013.123.017l.017,0h.009c.042,0,.089.005.143.005h.038c.053,0,.1,0,.146-.009l.024,0c.044-.005.089-.013.136-.022l.028-.005c.048-.01.1-.023.147-.039l.026-.008.006,0c.058-.019.106-.037.15-.057l42.109-18.324a1.764,1.764,0,0,0,.181-.093l.031-.019.022-.014c.044-.027.081-.053.115-.078l.053-.042c.034-.028.068-.057.1-.09l.017-.016.026-.025a1.715,1.715,0,0,0,.118-.132l.013-.015a1.741,1.741,0,0,0,.11-.158l.008-.014.012-.021c.028-.047.052-.092.073-.136h0c.007-.016.014-.031.021-.047.02-.046.039-.093.055-.141l.006-.018.008-.023a1.775,1.775,0,0,0,.06-.259c0-.027.008-.053.011-.08s0-.045.006-.067,0-.061,0-.1v-.02c0-.011,0-.022,0-.033,0-.054,0-.1-.009-.151v0l0-.02c-.005-.043-.012-.087-.021-.13,0-.013-.005-.025-.008-.037l0-.011c-.008-.037-.018-.075-.03-.112l0-.016-.009-.03c-.019-.059-.037-.107-.057-.152l-23.48-53.957c-.021-.049-.046-.1-.076-.152l-.013-.022-.014-.023c-.022-.037-.041-.068-.06-.1l-.024-.034-.012-.016c-.024-.033-.045-.059-.064-.083l-.041-.046c-.023-.026-.047-.051-.071-.074l-.044-.042c-.022-.021-.047-.042-.078-.067l-.01-.008-.037-.03c-.026-.02-.055-.04-.083-.058l-.022-.015-.029-.019c-.021-.013-.044-.025-.066-.038l-.013-.007a1.752,1.752,0,0,0-.225-.106l-.014,0-.025-.008c-.051-.018-.092-.031-.131-.042l-.035-.008-.022-.005c-.046-.011-.083-.018-.118-.024l-.061-.008h0c-.04,0-.077-.008-.113-.01l-.07,0Z" transform="translate(-539.313 -734.945)" fill="#344566"/>
      <path id="Path_12275-2" data-name="Path 12275" d="M690.746,900.8l.032-.049q.046-.072.086-.147c.008-.014.016-.029.023-.043a1.978,1.978,0,0,0,.112-.277c.009-.029.018-.058.026-.087s.013-.049.018-.073.015-.07.021-.106c0-.02.007-.04.01-.06.008-.056.014-.112.017-.169,0-.009,0-.019,0-.028q0-.074,0-.149c0-.018,0-.037,0-.055q0-.065-.013-.13c0-.018,0-.035-.007-.053-.01-.06-.021-.119-.037-.179l-.085-.328h0l-14.467-55.938h0l-.182-.7c-.016-.062-.035-.123-.057-.182-.007-.019-.015-.037-.023-.056-.016-.04-.032-.08-.05-.118-.01-.021-.021-.04-.031-.06-.018-.035-.037-.07-.057-.1l-.037-.058c-.021-.033-.043-.064-.066-.1l-.041-.054c-.024-.031-.049-.06-.075-.089l-.045-.049c-.027-.028-.054-.054-.082-.08s-.033-.031-.05-.046-.053-.043-.08-.064a1.976,1.976,0,0,0-.231-.157l-.041-.022c-.045-.025-.091-.048-.138-.069l-.062-.025c-.042-.017-.084-.033-.127-.047l-.072-.022c-.041-.012-.083-.023-.125-.032l-.077-.015c-.042-.007-.084-.013-.127-.018l-.079-.008c-.043,0-.087,0-.131,0h-.077c-.047,0-.1.007-.143.012l-.067.007a2.011,2.011,0,0,0-.211.042l-44.461,11.5a2,2,0,0,0-.2.065c-.021.008-.041.018-.061.026-.045.019-.089.038-.132.059l-.067.037c-.039.022-.077.044-.114.068l-.064.044c-.036.025-.071.051-.1.079l-.057.048c-.034.03-.066.06-.1.092l-.049.05c-.032.035-.063.071-.092.108-.013.016-.026.031-.038.047-.033.043-.063.088-.091.134l-.022.033a1.981,1.981,0,0,0-.124.245c-.014.033-.029.066-.041.1s-.015.045-.022.067-.023.07-.032.106-.011.046-.016.069-.016.072-.022.109-.007.047-.01.071-.008.074-.011.112,0,.047,0,.071,0,.077,0,.116c0,.023,0,.046,0,.069,0,.042.008.084.013.127,0,.02,0,.04.007.06.01.062.022.125.038.187l.182.705h0l14.466,55.935h0l.085.33c.015.06.034.117.055.174.006.017.013.033.019.05q.024.061.051.12l.024.05c.023.045.046.088.072.13l.014.025c.03.048.063.095.1.14.012.016.025.032.038.048s.046.056.07.083l.051.055c.021.022.044.043.066.064s.04.038.06.056.071.058.107.086l.054.039c.035.025.071.048.107.07l.053.031q.052.03.107.056l.048.023q.069.031.14.057l.044.015q.065.022.132.04l.029.008c.052.013.105.023.158.031l.042.006c.054.008.109.013.164.016h.028q.076,0,.154,0h.032c.056,0,.113-.009.17-.017l.037-.006c.059-.01.118-.021.177-.036l44.461-11.5a1.982,1.982,0,0,0,.217-.071l.065-.028c.048-.021.1-.043.141-.067l.067-.037c.045-.026.088-.053.13-.082l.056-.039a1.971,1.971,0,0,0,.154-.126l.013-.011a1.945,1.945,0,0,0,.153-.159l.029-.036C690.679,900.9,690.714,900.852,690.746,900.8Z" transform="translate(-624.793 -836.973)" fill="#6c6c6c" opacity="0.2" style="mix-blend-mode: multiply;isolation: isolate"/>
      <g id="Group_32971" data-name="Group 32971" transform="translate(3.416 2.124)">
        <path id="Path_12286" data-name="Path 12286" d="M683.268,795.884,698,852.854a1.972,1.972,0,0,1-1.414,2.4l-44.461,11.5a1.971,1.971,0,0,1-2.4-1.414l-14.734-56.97a1.97,1.97,0,0,1,1.414-2.4l44.461-11.5a1.97,1.97,0,0,1,2.4,1.414Z" transform="translate(-634.93 -794.407)" fill="#ffc06e"/>
        <path id="Path_12287" data-name="Path 12287" d="M683.269,795.881l.182.7-2.2,6.836L660.9,808.956l-20.489,5.029-5.233-4.914-.182-.705a1.969,1.969,0,0,1,1.414-2.4l44.461-11.5A1.969,1.969,0,0,1,683.269,795.881Z" transform="translate(-634.931 -794.405)" fill="#d89444"/>
        <path id="Path_12288" data-name="Path 12288" d="M1094.994,2327.268l.085.328a1.97,1.97,0,0,1-1.414,2.4l-44.461,11.5a1.97,1.97,0,0,1-2.4-1.414l-.085-.329,1.525-4.47a1.23,1.23,0,0,1,.841-.777l41.295-10.68a1.238,1.238,0,0,1,1.114.272Z" transform="translate(-1032.007 -2269.149)" fill="#d89444"/>
        <path id="Path_12289" data-name="Path 12289" d="M1113.968,2328.861a1.965,1.965,0,0,1-1.356,1.231l-44.461,11.5a1.966,1.966,0,0,1-1.783-.419l.928-5.764a1,1,0,0,1,.735-.808l41.295-10.68a1,1,0,0,1,1.036.35Z" transform="translate(-1050.954 -2269.245)" fill="#ffad43"/>
        <path id="Path_12290" data-name="Path 12290" d="M687.559,794.78,686.33,803.3a.6.6,0,0,1-.446.5L646,814.116a.6.6,0,0,1-.633-.219l-5.207-6.857a1.966,1.966,0,0,1,1.29-1.071l44.461-11.5A1.965,1.965,0,0,1,687.559,794.78Z" transform="translate(-639.975 -794.407)" fill="#ffad43"/>
        <path id="Path_12291" data-name="Path 12291" d="M1273.416,1052.546a1.871,1.871,0,0,1-1.809-1.4l-3.923-15.171a1.873,1.873,0,0,1,1.341-2.276l.908-.235a1.87,1.87,0,0,1,2.276,1.341l3.923,15.171a1.873,1.873,0,0,1-1.341,2.276h0l-.908.235A1.865,1.865,0,0,1,1273.416,1052.546Zm-3.016-18.609a1.334,1.334,0,0,0-.334.043l-.908.235a1.339,1.339,0,0,0-.958,1.626l3.923,15.171a1.336,1.336,0,0,0,1.626.958l.908-.235a1.339,1.339,0,0,0,.958-1.626l-3.923-15.171A1.337,1.337,0,0,0,1270.4,1033.938Z" transform="translate(-1245.02 -1024.865)" fill="#444"/>
        <circle id="Ellipse_3223-2" data-name="Ellipse 3223" cx="2.609" cy="2.609" r="2.609" transform="translate(21.333 10.897) rotate(-45)" fill="#fff"/>
        <circle id="Ellipse_3224-2" data-name="Ellipse 3224" cx="2.609" cy="2.609" r="2.609" transform="translate(26.244 23.102)" fill="#fff"/>
      </g>
    </g>
    <g id="Whitepaper" transform="translate(836.595 348.313)">
      <path id="Path_12276-2" data-name="Path 12276" d="M1676.971,1177.591l-36.524-3.807a2.6,2.6,0,0,0-2.86,2.32l-5.969,57.265a2.6,2.6,0,0,0,2.32,2.86l44.414,4.629a2.6,2.6,0,0,0,2.86-2.32l5.146-49.376Z" transform="translate(-1630.175 -1172.669)" fill="#6c6c6c" opacity="0.25" style="mix-blend-mode: multiply;isolation: isolate"/>
      <g id="Group_32973" data-name="Group 32973">
        <path id="Path_12296" data-name="Path 12296" d="M1636.983,1146.785l-36.524-3.807a2.6,2.6,0,0,0-2.86,2.32l-5.969,57.265a2.6,2.6,0,0,0,2.32,2.86l44.414,4.629a2.6,2.6,0,0,0,2.86-2.32l5.146-49.376Z" transform="translate(-1591.615 -1142.964)" fill="#fff"/>
        <path id="Path_12297" data-name="Path 12297" d="M2838.078,1257.807a2.6,2.6,0,0,0,2.32,2.86l7.889.822-9.387-11.572Z" transform="translate(-2793.532 -1246.097)" fill="#ededed"/>
        <path id="Path_12298" data-name="Path 12298" d="M2891.991,1548.7l8.159,2.226.138-1.328Z" transform="translate(-2845.534 -1534.2)" fill="#cecece"/>
        <path id="Path_12299" data-name="Path 12299" d="M2106.964,1472.344l-22.335-2.328a1.1,1.1,0,0,1-.981-1.209h0a1.1,1.1,0,0,1,1.209-.981l22.336,2.328a1.1,1.1,0,0,1,.981,1.209h0A1.1,1.1,0,0,1,2106.964,1472.344Z" transform="translate(-2066.063 -1456.215)" fill="#24c1a1"/>
        <path id="Path_12300" data-name="Path 12300" d="M1895.692,1660.617l-36.925-3.849a1.1,1.1,0,0,1-.981-1.209h0a1.1,1.1,0,0,1,1.209-.981l36.925,3.849a1.1,1.1,0,0,1,.981,1.209h0A1.1,1.1,0,0,1,1895.692,1660.617Z" transform="translate(-1848.272 -1636.295)" fill="#eee"/>
        <path id="Path_12301" data-name="Path 12301" d="M1879.43,1816.641l-36.925-3.849a1.1,1.1,0,0,1-.981-1.209h0a1.1,1.1,0,0,1,1.209-.981l36.925,3.849a1.1,1.1,0,0,1,.981,1.209h0A1.1,1.1,0,0,1,1879.43,1816.641Z" transform="translate(-1832.591 -1786.744)" fill="#eee"/>
        <path id="Path_12302" data-name="Path 12302" d="M1863.168,1972.666l-36.925-3.849a1.1,1.1,0,0,1-.981-1.209h0a1.1,1.1,0,0,1,1.209-.981l36.925,3.849a1.1,1.1,0,0,1,.981,1.209h0A1.1,1.1,0,0,1,1863.168,1972.666Z" transform="translate(-1816.909 -1937.195)" fill="#eee"/>
        <path id="Path_12303" data-name="Path 12303" d="M1846.906,2128.69l-36.925-3.848a1.1,1.1,0,0,1-.981-1.209h0a1.1,1.1,0,0,1,1.209-.981l36.925,3.849a1.1,1.1,0,0,1,.981,1.209h0A1.1,1.1,0,0,1,1846.906,2128.69Z" transform="translate(-1801.229 -2087.645)" fill="#eee"/>
        <path id="Path_12304" data-name="Path 12304" d="M1830.643,2284.714l-36.925-3.849a1.1,1.1,0,0,1-.981-1.209h0a1.1,1.1,0,0,1,1.209-.981l36.925,3.849a1.1,1.1,0,0,1,.981,1.209h0A1.1,1.1,0,0,1,1830.643,2284.714Z" transform="translate(-1785.546 -2238.095)" fill="#eee"/>
        <path id="Path_12305" data-name="Path 12305" d="M1814.381,2440.739l-36.925-3.849a1.1,1.1,0,0,1-.981-1.209h0a1.1,1.1,0,0,1,1.209-.981l36.925,3.849a1.1,1.1,0,0,1,.981,1.209h0A1.1,1.1,0,0,1,1814.381,2440.739Z" transform="translate(-1769.865 -2388.546)" fill="#eee"/>
        <path id="Path_12306" data-name="Path 12306" d="M2282.653,2672.407a.211.211,0,0,0-.346-.166,3.5,3.5,0,0,1-.629.433l-.33.131q-.328.172-.366-.274a.208.208,0,0,0-.277-.309,1.4,1.4,0,0,1-.952.445,1.165,1.165,0,0,1-.332-.113,1.4,1.4,0,0,0,.206-.194.211.211,0,0,0,.012-.209,2.621,2.621,0,0,0-.228-.431,7.9,7.9,0,0,0,1.935-3.042.209.209,0,0,0-.335-.221,6.49,6.49,0,0,0-1.886,2.1,1.527,1.527,0,0,0-.235.957,1.03,1.03,0,0,0,.028.1,6.646,6.646,0,0,1-.641.533,3.447,3.447,0,0,1-.981.509c-.255.08-.639.2-.815-.045.58-.325,1.048-.785.8-1.359-.375-.863-1.271.439-1.318,1.166a4.763,4.763,0,0,1-.882.3.208.208,0,0,0,.088.406,5.915,5.915,0,0,0,.891-.3c.492.866,2.047-.02,2.571-.415.156-.117.311-.246.463-.383.119.213.127.177-.17.378a.211.211,0,0,0,.028.382,2.125,2.125,0,0,0,1.015.3,1.147,1.147,0,0,0,.323-.094.2.2,0,0,0,.083.141,1.713,1.713,0,0,0,1.84-.3,2.769,2.769,0,0,1-.948,1.69,3.125,3.125,0,0,1-2.709.307c-.259-.051-.394.342-.133.393a3.675,3.675,0,0,0,2.961-.27A3.1,3.1,0,0,0,2282.653,2672.407Zm-6.013-.755c.321-.249.1.223-.01.338a1.447,1.447,0,0,1-.241.191A1.135,1.135,0,0,1,2276.64,2671.652Zm2.7-.584a3.054,3.054,0,0,1,.557-.944,6.073,6.073,0,0,1,.74-.816,7.952,7.952,0,0,1-1.323,1.909A1.229,1.229,0,0,1,2279.343,2671.068Z" transform="translate(-2250.511 -2613.914)" fill="#eee"/>
        <path id="Path_12307" data-name="Path 12307" d="M2614.193,2693.545a3.976,3.976,0,1,1,4.551-3.3A3.981,3.981,0,0,1,2614.193,2693.545Zm1.112-7.005a3.117,3.117,0,1,0,2.59,3.566A3.12,3.12,0,0,0,2615.3,2686.54Z" transform="translate(-2574.427 -2630.527)" fill="#eee"/>
        <path id="Path_12308" data-name="Path 12308" d="M2677.829,2718.536l-.039.006a9.444,9.444,0,0,0-1.33.32l-.632.206-.606.241a17.476,17.476,0,0,0-2.3,1.136,18.8,18.8,0,0,0-2.121,1.382c-.382.278-.75.575-1.111.882-.205-.189-.417-.373-.638-.55-.295-.258-.628-.488-.953-.724a9.673,9.673,0,0,0-1.067-.641l-.035-.018a.081.081,0,0,0-.1.118c.862,1.262,1.751,2.5,2.641,3.746a.15.15,0,0,0,.208.033c1.375-.975,2.742-1.959,4.093-2.968l2.034-1.5c.682-.5,1.345-1.016,2.018-1.524a.081.081,0,0,0-.061-.144Z" transform="translate(-2629.116 -2664.037)" fill="#24c1a1"/>
      </g>
    </g>
  </g>
</svg>
