<svg xmlns="http://www.w3.org/2000/svg" width="44" height="36" viewBox="0 0 44 36">
  <path id="Path_10649" data-name="Path 10649" d="M720.58,597.3a10.906,10.906,0,0,1-7.146,4.369,8.473,8.473,0,0,0-4.22-1.91,7.685,7.685,0,0,0-6.1-4.368A8.005,8.005,0,0,0,700.905,591c0-.049-.016-.092-.019-.141a11.176,11.176,0,0,1,10.583-11.689,10.42,10.42,0,0,1,2.005.121.535.535,0,0,1,.2.982,8.94,8.94,0,0,0-4.092,7.855,8.684,8.684,0,0,0,8.829,8.549,8.5,8.5,0,0,0,1.65-.211.519.519,0,0,1,.61.416A.539.539,0,0,1,720.58,597.3Z" transform="translate(-676.676 -579.165)" fill="#fcc751" opacity="0.6" style="isolation: isolate"/>
  <path id="Path_10667" data-name="Path 10667" d="M715.74,595.539h-.11a5.435,5.435,0,0,0-9.589-2.474,7.57,7.57,0,0,0-10.287-3.423,7.831,7.831,0,0,0-4.151,6.292,6.764,6.764,0,0,0-4.135,8.524,6.589,6.589,0,0,0,6.256,4.582H715.74a6.752,6.752,0,0,0,0-13.5Z" transform="translate(-684.935 -573.04)" fill="#cbebff"/>
  <path id="Path_10668" data-name="Path 10668" d="M690.43,597.867a9.679,9.679,0,0,1,16.768-4.554,7.486,7.486,0,0,1,2.538-.908,5.507,5.507,0,0,0-5.371-4.616h-1.207a5.474,5.474,0,0,0-6.438-4.381,5.536,5.536,0,0,0-4.284,4.381h-1.21a5.571,5.571,0,0,0-5.471,5.664,5.629,5.629,0,0,0,3.489,5.2A8.985,8.985,0,0,1,690.43,597.867Z" transform="translate(-685.755 -576.536)" fill="#cbebff" opacity="0.7"/>
</svg>
