<svg xmlns="http://www.w3.org/2000/svg" width="22" height="22" viewBox="0 0 22 22">
  <g id="cloud-snow" transform="translate(0 0)">
    <path id="Path_10624" data-name="Path 10624" d="M5.483,353.594,5.14,353a.344.344,0,0,0-.468-.125l-1.2.692v-1.22A.344.344,0,0,0,3.124,352H2.437a.344.344,0,0,0-.344.344v1.22l-1.2-.692A.344.344,0,0,0,.422,353l-.344.6a.344.344,0,0,0,.125.468l1.2.688-1.2.688a.344.344,0,0,0-.125.468l.344.6a.344.344,0,0,0,.468.125l1.2-.692v1.22a.344.344,0,0,0,.344.344h.687a.344.344,0,0,0,.344-.344v-1.22l1.2.692a.344.344,0,0,0,.468-.125l.344-.6a.344.344,0,0,0-.125-.468l-1.2-.687,1.2-.687A.344.344,0,0,0,5.483,353.594Zm8.25,1.375-.344-.6a.344.344,0,0,0-.468-.125l-1.2.692v-1.22a.344.344,0,0,0-.344-.344h-.687a.344.344,0,0,0-.344.344v1.22l-1.2-.692a.344.344,0,0,0-.468.125l-.344.6a.344.344,0,0,0,.125.468l1.2.688-1.2.688a.344.344,0,0,0-.125.468l.344.6A.344.344,0,0,0,9.14,358l1.2-.692v1.22a.344.344,0,0,0,.344.344h.688a.344.344,0,0,0,.344-.344v-1.22l1.2.692a.344.344,0,0,0,.468-.125l.344-.6a.344.344,0,0,0-.125-.468l-1.2-.687,1.2-.687a.344.344,0,0,0,.125-.468Zm8.125.468-1.2-.687,1.2-.687a.344.344,0,0,0,.125-.468l-.344-.6a.344.344,0,0,0-.468-.125l-1.2.692v-1.22a.344.344,0,0,0-.344-.344h-.687a.344.344,0,0,0-.344.344v1.22l-1.2-.692a.344.344,0,0,0-.468.125l-.344.6a.344.344,0,0,0,.125.468l1.2.688-1.2.688a.344.344,0,0,0-.125.468l.344.6a.344.344,0,0,0,.468.125l1.2-.692v1.22a.344.344,0,0,0,.344.344h.688a.344.344,0,0,0,.344-.344v-1.22l1.2.692a.344.344,0,0,0,.468-.125l.344-.6A.344.344,0,0,0,21.859,355.438Z" transform="translate(-0.031 -336.875)" fill="#cbebff" opacity="0.7"/>
    <path id="Path_10625" data-name="Path 10625" d="M0,9.625a4.111,4.111,0,0,1,2.84-3.9,4.886,4.886,0,0,1-.09-.911,4.8,4.8,0,0,1,9.066-2.2,3.424,3.424,0,0,1,6.059,2.2,3.355,3.355,0,0,1-.069.7c.021,0,.043-.009.069-.009a4.125,4.125,0,0,1,0,8.25H4.125A4.125,4.125,0,0,1,0,9.625Z" transform="translate(0 0)" fill="#cbebff"/>
  </g>
</svg>
