<svg xmlns="http://www.w3.org/2000/svg" width="44" height="44" viewBox="0 0 44 44">
  <g id="cloud-rain" opacity="0.7">
    <path id="Path_10620" data-name="Path 10620" d="M51.437,368.549C50.337,372.365,48,373.4,48,376.085a4.129,4.129,0,1,0,8.25,0c0-2.7-2.337-3.7-3.437-7.536a.71.71,0,0,0-1.375,0Zm13.75,0c-1.1,3.816-3.437,4.846-3.437,7.536a4.129,4.129,0,1,0,8.25,0c0-2.7-2.337-3.7-3.437-7.536a.71.71,0,0,0-1.375,0Zm15.125,0a.71.71,0,0,0-1.375,0c-1.1,3.816-3.437,4.846-3.437,7.536a4.129,4.129,0,1,0,8.25,0C83.75,373.387,81.413,372.382,80.313,368.549Z" transform="translate(-43.875 -336.39)" fill="#cbebff" opacity="0.7"/>
    <path id="Path_10621" data-name="Path 10621" d="M44,19.25a8.25,8.25,0,0,1-8.25,8.25H8.25A8.229,8.229,0,0,1,5.68,11.447,9.773,9.773,0,0,1,5.5,9.625a9.592,9.592,0,0,1,18.133-4.4,6.848,6.848,0,0,1,12.117,4.4,6.711,6.711,0,0,1-.138,1.392c.043,0,.086-.017.138-.017A8.25,8.25,0,0,1,44,19.25Z" fill="#cbebff"/>
  </g>
</svg>
