<svg xmlns="http://www.w3.org/2000/svg" width="27" height="22" viewBox="0 0 27 22">
  <g id="fog" transform="translate(0 0)">
    <path id="Path_10643" data-name="Path 10643" d="M8.775,372.125h-5.4a.681.681,0,0,0-.675.688v.687a.681.681,0,0,0,.675.688h5.4a.681.681,0,0,0,.675-.688v-.687A.681.681,0,0,0,8.775,372.125Zm17.55,0H12.15a.681.681,0,0,0-.675.688v.687a.681.681,0,0,0,.675.688H26.325A.681.681,0,0,0,27,373.5v-.687A.681.681,0,0,0,26.325,372.125Zm-2.025-2.75v-.687a.681.681,0,0,0-.675-.687H.675a.681.681,0,0,0-.675.688v.688a.681.681,0,0,0,.675.687h22.95A.681.681,0,0,0,24.3,369.375Z" transform="translate(0 -352.188)" fill="#cbebff" opacity="0.7"/>
    <path id="Path_10644" data-name="Path 10644" d="M64,9.625a4.1,4.1,0,0,1,2.789-3.9,4.974,4.974,0,0,1-.089-.911,4.855,4.855,0,0,1,1.383-3.4,4.654,4.654,0,0,1,7.518,1.2,3.326,3.326,0,0,1,2.573-1.237A3.407,3.407,0,0,1,81.55,4.812a3.414,3.414,0,0,1-.068.7c.021,0,.042-.009.068-.009a4.126,4.126,0,0,1,0,8.25H68.05A4.088,4.088,0,0,1,64,9.625Z" transform="translate(-61.3)" fill="#cbebff"/>
  </g>
</svg>
