<svg xmlns="http://www.w3.org/2000/svg" width="44" height="44" viewBox="0 0 44 44">
  <g id="moon-stars" opacity="0.7">
    <path id="Path_10651" data-name="Path 10651" d="M261.5,2.75,260.125,0,258.75,2.75,256,4.125,258.75,5.5l1.375,2.75L261.5,5.5l2.75-1.375Zm11.92,12.83L271.125,11l-2.295,4.58-4.58,2.295,4.58,2.295,2.295,4.58,2.295-4.58L278,17.875Z" transform="translate(-234)" fill="#fcc751" opacity="0.4"/>
    <path id="Path_10652" data-name="Path 10652" d="M28.548,153.6a.772.772,0,0,1,.739,1.246,16.491,16.491,0,1,1-9.78-26.615.776.776,0,0,1,.241,1.435,12.924,12.924,0,0,0,8.8,23.934Z" transform="translate(0 -116.953)" fill="#fcc751"/>
  </g>
</svg>
