<svg xmlns="http://www.w3.org/2000/svg" width="44" height="36" viewBox="0 0 44 36">
  <path id="Path_10661" data-name="Path 10661" d="M727.979,532.789l-5.378,1.79-2.525-5.065a.928.928,0,0,0-1.662,0l-2.538,5.065-5.378-1.79a.931.931,0,0,0-1.165.615.919.919,0,0,0,0,.555l1.793,5.372-5.069,2.54a.927.927,0,0,0,0,1.663l5.065,2.535-1.793,5.372a.935.935,0,0,0,.6,1.178.915.915,0,0,0,.58,0l3.046-1.013a8.991,8.991,0,0,1,1.434-.97,10.04,10.04,0,0,1,.75-2.077,6.77,6.77,0,0,1-1.327-10.7,6.865,6.865,0,0,1,9.688,0,6.72,6.72,0,0,1,1.721,3.026,7.867,7.867,0,0,1,1.467-1.327l1.876-5.593a.927.927,0,0,0-1.182-1.17Z" transform="translate(-705.54 -528.999)" fill="#fcc751" opacity="0.6" style="isolation: isolate"/>
  <path id="Path_10662" data-name="Path 10662" d="M715.715,534.581a4.551,4.551,0,0,0-2.3,8.483,10.081,10.081,0,0,1,6.865-3.819v-.1a4.574,4.574,0,0,0-4.564-4.566Z" transform="translate(-702.007 -525.448)" fill="#fcc751" style="isolation: isolate"/>
  <path id="Path_10663" data-name="Path 10663" d="M738.2,545.494h-.109a5.476,5.476,0,0,0-9.586-2.422,7.654,7.654,0,0,0-14.432,2.8,6.579,6.579,0,0,0,2.119,12.815h22a6.6,6.6,0,0,0,0-13.2Z" transform="translate(-702.99 -522.692)" fill="#cbebff"/>
  <path id="Path_10664" data-name="Path 10664" d="M736.026,537.923h-1.209a5.5,5.5,0,0,0-10.78,0h-1.213a5.489,5.489,0,0,0-4.55,2.414,9.819,9.819,0,0,1,5.2,2.977,7.6,7.6,0,0,1,3.749-1,7.733,7.733,0,0,1,7.02,4.531,8.77,8.77,0,0,1,3.781,1.677,5.487,5.487,0,0,0-2-10.6Z" transform="translate(-697.519 -526.122)" fill="#cbebff" opacity="0.6"/>
</svg>
