<svg xmlns="http://www.w3.org/2000/svg" width="18" height="18" viewBox="0 0 18 18">
  <g id="raindrops" transform="translate(0 -31.999)">
    <path id="Path_10686" data-name="Path 10686" d="M6.8,32.276a.39.39,0,0,0-.747,0c-.6,1.981-1.876,2.519-1.876,3.913a2.25,2.25,0,0,0,4.5,0C8.679,34.788,7.4,34.265,6.8,32.276ZM1.876,39.991C1.278,41.972,0,42.51,0,43.9a2.25,2.25,0,1,0,4.5,0c0-1.4-1.278-1.925-1.876-3.913A.39.39,0,0,0,1.876,39.991Z" transform="translate(0 0)" fill="#b7b7b7" opacity="0.6"/>
    <path id="Path_10687" data-name="Path 10687" d="M197.995,128.621c1.374,4.375,4.291,5.525,4.291,8.614a5.148,5.148,0,0,1-10.286,0c0-3.074,2.921-4.259,4.287-8.614A.9.9,0,0,1,197.995,128.621Z" transform="translate(-184.286 -92.154)" fill="#b7b7b7"/>
  </g>
</svg>
