<svg xmlns="http://www.w3.org/2000/svg" width="27" height="22" viewBox="0 0 27 22">
  <g id="snowflakes" transform="translate(0.037 1)">
    <path id="Path_10632" data-name="Path 10632" d="M26.215,5.156a.341.341,0,0,0,.337.344h.675a.341.341,0,0,0,.337-.344V3.936l1.181.692A.332.332,0,0,0,29,4.664a.338.338,0,0,0,.206-.161l.337-.6a.347.347,0,0,0-.127-.468L28.246,2.75l1.175-.687a.347.347,0,0,0,.122-.468L29.205,1a.334.334,0,0,0-.46-.125l-1.181.692V.344A.341.341,0,0,0,27.227,0h-.675a.341.341,0,0,0-.337.344v1.22L25.033.872a.334.334,0,0,0-.46.125l-.337.6a.347.347,0,0,0,.123.468l1.181.688-1.181.688a.347.347,0,0,0-.122.468l.337.6a.334.334,0,0,0,.46.125l1.181-.692Zm4.556,6.531L29.592,11l1.178-.687a.347.347,0,0,0,.122-.468l-.337-.6a.334.334,0,0,0-.46-.125l-1.181.692V8.594a.341.341,0,0,0-.337-.344H27.9a.341.341,0,0,0-.337.344v1.22l-1.181-.692a.334.334,0,0,0-.46.125l-.337.6a.347.347,0,0,0,.123.468L26.889,11l-1.181.688a.347.347,0,0,0-.122.468l.337.6a.334.334,0,0,0,.46.125l1.181-.692v1.22a.341.341,0,0,0,.337.344h.675a.341.341,0,0,0,.337-.344v-1.22l1.181.692a.332.332,0,0,0,.258.036.338.338,0,0,0,.206-.161l.337-.6A.347.347,0,0,0,30.77,11.688ZM6.7,17.372a.666.666,0,0,0,.46.812l.629.172a.651.651,0,0,0,.8-.468l.8-3.039L7,16.255ZM7.8,3.562l-.629.172a.666.666,0,0,0-.46.812L7,5.663,9.394,7.07l-.8-3.04A.651.651,0,0,0,7.8,3.562Zm1.97,15.372a.691.691,0,0,0,.007.964l.477.486a.669.669,0,0,0,.953,0l.831-.846,0-2.916L9.774,18.928ZM5.1,11.726a.651.651,0,0,0-.8.468l-.169.64a.666.666,0,0,0,.46.812l1.1.3,2.394-1.406Zm-.8-2.007a.651.651,0,0,0,.8.468L8.09,9.371,5.7,7.962l-1.095.3a.656.656,0,0,0-.4.31.677.677,0,0,0-.066.506Zm17.369.468a.652.652,0,0,0,.8-.468l.169-.64a.666.666,0,0,0-.46-.812l-1.1-.3L18.7,9.373Zm-1.894,6.063-2.39-1.406.8,3.039a.651.651,0,0,0,.8.468l.629-.172a.666.666,0,0,0,.46-.812Zm2.7-4.052a.652.652,0,0,0-.8-.468l-2.981.816,2.391,1.406,1.1-.3a.666.666,0,0,0,.46-.812Zm-2.4-7.653a.666.666,0,0,0-.46-.812l-.629-.172a.651.651,0,0,0-.8.468l-.8,3.04,2.391-1.407ZM16.531,1.534a.669.669,0,0,0-.953,0l-.837.846V5.3l2.266-2.307a.7.7,0,0,0,0-.971Zm-1.79,15.082-.007,2.919.829.845a.669.669,0,0,0,.953,0l.477-.486a.7.7,0,0,0,0-.971ZM10.257,1.534l-.479.486-.007.007a.691.691,0,0,0,.007.964L12.041,5.3V2.38l-.831-.846a.669.669,0,0,0-.952,0Z" transform="translate(-3.978 -0.957)" fill="#cbebff" opacity="0.6"/>
    <path id="Path_10633" data-name="Path 10633" d="M18.778,14.729l0,.006-.653,1.152a.652.652,0,0,1-.394.31.64.64,0,0,1-.494-.065l-6.47-3.8-.008,7.984A.681.681,0,0,1,10.08,21H8.73a.681.681,0,0,1-.675-.687l0-7.979-6.464,3.8a.648.648,0,0,1-.89-.245L.049,14.739a.673.673,0,0,1,.24-.907L6.8,10,.3,6.167a.67.67,0,0,1-.242-.9L.71,4.113A.644.644,0,0,1,1.6,3.868h0l6.466,3.8V-.312A.681.681,0,0,1,8.738-1h1.35a.681.681,0,0,1,.675.688V7.671l6.467-3.8a.648.648,0,0,1,.89.245l.654,1.152a.673.673,0,0,1-.24.907L12.022,10l6.517,3.833a.664.664,0,0,1,.239.9Z" fill="#cbebff"/>
  </g>
</svg>
