<svg xmlns="http://www.w3.org/2000/svg" width="27" height="22" viewBox="0 0 27 22">
  <g id="snow-blowing" transform="translate(-0.008)">
    <path id="Path_10626" data-name="Path 10626" d="M303.176,105.581h-7.533a1.349,1.349,0,0,0-.751.232l-1.856,1.259a.689.689,0,0,0,.376,1.259h9.845a1.415,1.415,0,0,1,1.409,1.143,1.377,1.377,0,0,1-1.006,1.561,1.348,1.348,0,0,1-1.609-.895.667.667,0,0,0-.642-.434h-1.385a.673.673,0,0,0-.52.252.7.7,0,0,0-.142.569,4.055,4.055,0,0,0,4.777,3.224,4.133,4.133,0,0,0-.962-8.169Zm-5.918-1.375h6.074a4.031,4.031,0,0,0,3.156-1.544,4.191,4.191,0,0,0,.8-3.471,4.074,4.074,0,0,0-3.084-3.141,4,4,0,0,0-3.093.585,4.138,4.138,0,0,0-1.754,2.66.673.673,0,0,0,.667.786h1.384a.663.663,0,0,0,.641-.434,1.348,1.348,0,0,1,1.61-.9,1.377,1.377,0,0,1,1.005,1.566,1.41,1.41,0,0,1-1.408,1.144h-6a.681.681,0,0,0-.675.687v1.375A.681.681,0,0,0,297.258,104.206Z" transform="translate(-280.377 -91.833)" fill="#cbebff" opacity="0.7"/>
    <path id="Path_10627" data-name="Path 10627" d="M12.322,13.924l-.494.133a.512.512,0,0,1-.629-.369L10.571,11.3l-2.127-1.25v2.445l1.7,1.727a.522.522,0,0,1,0,.73l-.359.365a.5.5,0,0,1-.717,0l-.624-.636v1.3a.511.511,0,0,1-.506.516H6.93a.511.511,0,0,1-.506-.516v-1.3l-.624.636a.5.5,0,0,1-.717,0l-.359-.365a.522.522,0,0,1,0-.73l1.7-1.727V10.049L4.293,11.3l-.629,2.389a.514.514,0,0,1-.629.369l-.494-.133a.526.526,0,0,1-.363-.64l.233-.876-1.122.657a.5.5,0,0,1-.389.054.513.513,0,0,1-.312-.243l-.51-.9a.529.529,0,0,1-.053-.4.52.52,0,0,1,.238-.317L1.383,10.6l-.861-.236a.526.526,0,0,1-.363-.64l.131-.5A.514.514,0,0,1,.918,8.85l2.35.644L5.387,8.249,3.268,7l-2.346.64a.512.512,0,0,1-.629-.369l-.131-.5a.523.523,0,0,1,.363-.64l.861-.236L.263,5.237A.52.52,0,0,1,.025,4.92a.529.529,0,0,1,.053-.4l.51-.9A.513.513,0,0,1,.9,3.379a.5.5,0,0,1,.389.054l1.118.657-.232-.876a.531.531,0,0,1,.052-.4.514.514,0,0,1,.312-.243l.494-.137a.512.512,0,0,1,.629.369L4.294,5.2,6.42,6.449V4l-1.7-1.727a.522.522,0,0,1,0-.73l.359-.365a.5.5,0,0,1,.717,0l.625.636V.516A.511.511,0,0,1,6.926,0H7.938a.511.511,0,0,1,.506.516v1.3l.62-.636a.5.5,0,0,1,.717,0l.359.365a.522.522,0,0,1,0,.73L8.444,4V6.449L10.571,5.2,11.2,2.81a.514.514,0,0,1,.629-.369l.494.133a.526.526,0,0,1,.363.64l-.233.876,1.122-.657a.5.5,0,0,1,.389-.054.513.513,0,0,1,.312.243l.51.9a.529.529,0,0,1,.053.4.52.52,0,0,1-.238.317l-1.122.657.861.236a.526.526,0,0,1,.363.64l-.131.5a.514.514,0,0,1-.629.369L11.6,7,9.478,8.249,11.6,9.495l2.346-.64a.512.512,0,0,1,.629.369l.131.5a.523.523,0,0,1-.363.64l-.861.236,1.122.657a.52.52,0,0,1,.238.317.529.529,0,0,1-.053.4l-.51.9a.513.513,0,0,1-.312.243.5.5,0,0,1-.389-.054l-1.123-.657.232.876a.528.528,0,0,1-.05.4.511.511,0,0,1-.312.243Z" transform="translate(0 0)" fill="#cbebff"/>
  </g>
</svg>
