<svg xmlns="http://www.w3.org/2000/svg" width="44" height="44" viewBox="0 0 44 44">
  <g id="sun" transform="translate(0.004 0.004)">
    <path id="Path_10608" data-name="Path 10608" d="M43.173,20.664,35.035,16.6l2.879-8.628a1.486,1.486,0,0,0-1.882-1.882L27.4,8.968,23.329.822a1.488,1.488,0,0,0-2.664,0L16.6,8.96,7.963,6.081A1.486,1.486,0,0,0,6.081,7.963L8.96,16.591.822,20.664a1.488,1.488,0,0,0,0,2.664L8.96,27.393,6.081,36.03a1.486,1.486,0,0,0,1.882,1.882l8.629-2.879,4.065,8.138a1.488,1.488,0,0,0,2.664,0l4.066-8.138,8.628,2.879A1.486,1.486,0,0,0,37.9,36.03L35.018,27.4l8.138-4.065a1.489,1.489,0,0,0,.017-2.673Zm-13.4,9.109a11,11,0,1,1,0-15.555A11.011,11.011,0,0,1,29.775,29.774Z" transform="translate(0 0)" fill="#fcc751" opacity="0.6"/>
    <path id="Path_10609" data-name="Path 10609" d="M176.5,168.25a8.25,8.25,0,1,1-8.25-8.25A8.25,8.25,0,0,1,176.5,168.25Z" transform="translate(-146.254 -146.254)" fill="#fcc751"/>
  </g>
</svg>
