<svg xmlns="http://www.w3.org/2000/svg" width="12" height="12" viewBox="0 0 12 12">
  <g id="sunrise" transform="translate(0 -0.042)">
    <path id="Path_10628" data-name="Path 10628" d="M52.16,227.516a2.077,2.077,0,0,0-.947.974h3.4A1.842,1.842,0,0,0,52.16,227.516Zm5.3-.471-2.163-.178-.154-2.5a.411.411,0,0,0-.218-.35.319.319,0,0,0-.369.068l-1.639,1.641-1.639-1.641a.319.319,0,0,0-.369-.068.411.411,0,0,0-.218.35l-.154,2.5-2.163.178a.363.363,0,0,0-.3.252.46.46,0,0,0,.059.426l.577.768h1.779c0-.012,0-.023.008-.033a2.515,2.515,0,0,1,3.427-1.638,2.855,2.855,0,0,1,1.428,1.671h1.779l.577-.766a.46.46,0,0,0,.06-.426A.363.363,0,0,0,57.457,227.045Z" transform="translate(-46.913 -218.698)" fill="#f7d27f"/>
    <path id="Path_10629" data-name="Path 10629" d="M11.667,10.917H.333A.356.356,0,0,0,0,11.292v.375a.356.356,0,0,0,.333.375H11.667A.356.356,0,0,0,12,11.667v-.375A.356.356,0,0,0,11.667,10.917ZM3.975,3.041H5.333V4.916a.356.356,0,0,0,.333.375h.667a.356.356,0,0,0,.333-.375V3.041H8.025A.382.382,0,0,0,8.258,2.4L6.25.158a.327.327,0,0,0-.5,0L3.742,2.4A.382.382,0,0,0,3.975,3.041Z" transform="translate(0 0)" fill="#b7b7b7"/>
  </g>
</svg>
