<svg id="sunset" xmlns="http://www.w3.org/2000/svg" width="12" height="12" viewBox="0 0 12 12">
  <path id="Path_10630" data-name="Path 10630" d="M52.16,227.566a2.069,2.069,0,0,0-.947.973h3.4A1.842,1.842,0,0,0,52.16,227.566Zm5.3-.471-2.163-.178-.154-2.5a.411.411,0,0,0-.218-.35.319.319,0,0,0-.369.069l-1.639,1.641-1.639-1.641a.319.319,0,0,0-.369-.069.411.411,0,0,0-.218.35l-.154,2.5-2.163.178a.363.363,0,0,0-.3.252.46.46,0,0,0,.059.426l.577.766h1.779c0-.012,0-.023.008-.033a2.515,2.515,0,0,1,3.427-1.638,2.855,2.855,0,0,1,1.428,1.671h1.779l.577-.766a.46.46,0,0,0,.059-.426A.363.363,0,0,0,57.457,227.095Z" transform="translate(-46.913 -218.788)" fill="#f7d27f"/>
  <path id="Path_10631" data-name="Path 10631" d="M11.667,10.875H.333A.356.356,0,0,0,0,11.25v.375A.356.356,0,0,0,.333,12H11.667A.356.356,0,0,0,12,11.625V11.25A.356.356,0,0,0,11.667,10.875ZM5.75,5.133a.327.327,0,0,0,.5,0L8.258,2.89a.384.384,0,0,0-.235-.642H6.667V.375A.356.356,0,0,0,6.333,0H5.667a.356.356,0,0,0-.333.375V2.25H3.975a.382.382,0,0,0-.233.642Z" fill="#b7b7b7"/>
</svg>
