<svg xmlns="http://www.w3.org/2000/svg" width="44" height="44.006" viewBox="0 0 44 44.006">
  <g id="thunderstorm" opacity="0.7">
    <path id="Path_10618" data-name="Path 10618" d="M176.3,202.184l-8.422,16.672a1.289,1.289,0,0,1-2.372-.945l2.716-12.16h-6.961a1.289,1.289,0,0,1-1.281-1.461l1.375-11.172A1.3,1.3,0,0,1,162.633,192h7.047a1.289,1.289,0,0,1,1.246,1.624l-1.94,6.626h6.194a1.289,1.289,0,0,1,1.117,1.934Z" transform="translate(-146.219 -175.5)" fill="#fcc751" opacity="0.7"/>
    <path id="Path_10619" data-name="Path 10619" d="M44,19.25a8.25,8.25,0,0,1-8.25,8.25H33.172A4.02,4.02,0,0,0,29.3,22.344H26.684l.937-3.515a4.039,4.039,0,0,0-3.9-5.079h-7.3a4.048,4.048,0,0,0-4,3.506L11.043,27.5H8.25A8.229,8.229,0,0,1,5.68,11.447,9.773,9.773,0,0,1,5.5,9.625a9.592,9.592,0,0,1,18.133-4.4,6.848,6.848,0,0,1,12.117,4.4,6.711,6.711,0,0,1-.138,1.392c.043,0,.086-.017.138-.017A8.25,8.25,0,0,1,44,19.25Z" fill="#cbebff"/>
  </g>
</svg>
