<svg xmlns="http://www.w3.org/2000/svg" width="44" height="37.999" viewBox="0 0 44 37.999"><defs><style>.a_wind{fill:#e0f3ff;}.b_wind{fill:#cbebff;}</style></defs><path class="a_wind" d="M266.489,267.764a9.639,9.639,0,0,1-18.4.882,1.362,1.362,0,0,1,1.314-1.79h2.9a1.428,1.428,0,0,1,1.246.645,4.144,4.144,0,0,0,4.974,1.817,4.059,4.059,0,0,0,2.665-4.526,4.1,4.1,0,0,0-4.063-3.365H247.12A10.7,10.7,0,0,0,243.7,256h13.432A9.548,9.548,0,0,1,266.489,267.764Z" transform="translate(-222.758 -236.999)"/><path class="b_wind" d="M13.471,50.958H1.375A1.366,1.366,0,0,0,0,52.315v2.714a1.366,1.366,0,0,0,1.375,1.357H13.6a2.863,2.863,0,0,1,2.871,2.256,2.72,2.72,0,0,1-2.05,3.081,2.761,2.761,0,0,1-3.278-1.766A1.36,1.36,0,0,0,9.836,59.1H7.015a1.357,1.357,0,0,0-1.367,1.561,8.237,8.237,0,0,0,9.473,6.721,8.155,8.155,0,0,0,6.81-9.35,8.4,8.4,0,0,0-8.459-7.073ZM38.313,38.345a8.17,8.17,0,0,0-6.283-6.2,8.36,8.36,0,0,0-6.3,1.154,8.157,8.157,0,0,0-3.573,5.251A1.343,1.343,0,0,0,23.514,40.1h2.819a1.35,1.35,0,0,0,1.306-.857,2.755,2.755,0,0,1,3.3-1.835,2.714,2.714,0,0,1,2.033,3.149,2.858,2.858,0,0,1-2.87,2.258H1.375A1.366,1.366,0,0,0,0,44.173v2.714a1.366,1.366,0,0,0,1.375,1.357H30.25a8.309,8.309,0,0,0,6.43-3.047A8.079,8.079,0,0,0,38.313,38.345Z" transform="translate(0 -31.956)"/></svg>