<svg xmlns="http://www.w3.org/2000/svg" width="21" height="21" viewBox="0 0 21 21">
  <g id="Group_33766" data-name="Group 33766" transform="translate(-754 -931)">
    <path id="Path_11901" data-name="Path 11901" d="M10.5,0A10.5,10.5,0,1,1,0,10.5,10.5,10.5,0,0,1,10.5,0Z" transform="translate(754 931)" fill="#a16caf" opacity="0.2"/>
    <path id="Path_11902" data-name="Path 11902" d="M9.13,0A9.13,9.13,0,1,1,0,9.13,9.13,9.13,0,0,1,9.13,0Z" transform="translate(755.37 932.37)" fill="#a16caf" opacity="0.4"/>
    <path id="Path_11903" data-name="Path 11903" d="M5.478,0A5.478,5.478,0,1,1,0,5.478,5.478,5.478,0,0,1,5.478,0Z" transform="translate(759.022 936.023)" fill="#fff"/>
    <path id="Path_12455" data-name="Path 12455" d="M-1.942-8.548a1.614,1.614,0,0,1,.966.469,1.293,1.293,0,0,1,.336.907A1.432,1.432,0,0,1-.86-6.4a1.526,1.526,0,0,1-.668.565,2.558,2.558,0,0,1-1.1.212,3.77,3.77,0,0,1-1-.134,2.567,2.567,0,0,1-.832-.38l.431-.849a2.09,2.09,0,0,0,.633.318,2.441,2.441,0,0,0,.736.113A1.167,1.167,0,0,0-2-6.717a.517.517,0,0,0,.24-.455q0-.589-.9-.589h-.507v-.733l.986-1.116H-4.215v-.89H-.86v.719Z" transform="translate(766.975 949.603)" fill="#a16caf"/>
  </g>
</svg>
