<svg xmlns="http://www.w3.org/2000/svg" xmlns:xlink="http://www.w3.org/1999/xlink" width="251.999" height="92.6" viewBox="0 0 251.999 92.6">
  <defs>
    <filter id="Union_127" x="0" y="0" width="251.999" height="92.6" filterUnits="userSpaceOnUse">
      <feOffset input="SourceAlpha"/>
      <feGaussianBlur stdDeviation="2" result="blur"/>
      <feFlood flood-opacity="0.149"/>
      <feComposite operator="in" in2="blur"/>
      <feComposite in="SourceGraphic"/>
    </filter>
  </defs>
  <g id="Group_11760" data-name="Group 11760" transform="translate(-448 -1162.291)">
    <g transform="matrix(1, 0, 0, 1, 448, 1162.29)" filter="url(#Union_127)">
      <path id="Union_127-2" data-name="Union 127" d="M-877,20067.063a5,5,0,0,1-5-5v-65a5,5,0,0,1,5-5h106.574l7.259-5.219a1.994,1.994,0,0,1,2.332,0l7.259,5.219H-647a5,5,0,0,1,5,5v65a5,5,0,0,1-5,5Z" transform="translate(888 -19980.46)" fill="#fff"/>
    </g>
    <text id="Are_you_sure_you_want_to_delete_" data-name="Are you sure you want to delete?" transform="translate(574 1199)" fill="#606060" font-size="12" font-family="Montserrat-SemiBold, Montserrat" font-weight="600"><tspan x="-101.376" y="0">Are you sure you want to delete?</tspan></text>
    <g id="Component_1500_10" data-name="Component 1500 – 10" transform="translate(574 1217)">
      <path id="Rectangle_1870" data-name="Rectangle 1870" d="M0,0H120a0,0,0,0,1,0,0V27a5,5,0,0,1-5,5H0a0,0,0,0,1,0,0V0A0,0,0,0,1,0,0Z" fill="#f9f9f9"/>
      <text id="Yes" transform="translate(60.189 22)" fill="#ff5d5d" font-size="16" font-family="Montserrat-Bold, Montserrat" font-weight="700" opacity="0.7"><tspan x="-14.224" y="0">Yes</tspan></text>
    </g>
    <g id="Component_1499_9" data-name="Component 1499 – 9" transform="translate(454 1217)">
      <path id="Rectangle_3215" data-name="Rectangle 3215" d="M0,0H120a0,0,0,0,1,0,0V32a0,0,0,0,1,0,0H5a5,5,0,0,1-5-5V0A0,0,0,0,1,0,0Z" fill="#f9f9f9"/>
      <text id="No" transform="translate(60 22)" fill="#b7b7b7" font-size="16" font-family="Montserrat-Bold, Montserrat" font-weight="700" opacity="0.7"><tspan x="-11.704" y="0">No</tspan></text>
    </g>
  </g>
</svg>
