<svg xmlns="http://www.w3.org/2000/svg" width="16.385" height="20" viewBox="0 0 16.385 20">
  <path id="Path_8072" data-name="Path 8072" d="M176.584,19.3a8.25,8.25,0,0,0-6.843-1.72,8.021,8.021,0,0,0-5.3,3.63,8.194,8.194,0,0,0,.328,9.255c1.155,1.555,4.479,5.152,5.854,6.625a1.032,1.032,0,0,0,.751.333h0a1.024,1.024,0,0,0,.751-.333c1.368-1.476,4.676-5.078,5.822-6.622A8.171,8.171,0,0,0,176.584,19.3Zm.75,6.3a5.972,5.972,0,1,1-5.984-5.96h.013a5.972,5.972,0,0,1,5.971,5.965Z" transform="translate(-163.171 -17.42)" fill="#6c6c6c"/>
</svg>
