<svg xmlns="http://www.w3.org/2000/svg" width="20" height="20" viewBox="0 0 20 20">
  <g id="Group_9065" data-name="Group 9065" transform="translate(-17.5 -17.429)">
    <path id="Path_8038" data-name="Path 8038" d="M37.5,19.3A18.121,18.121,0,0,1,19.383,37.429h-.007a.937.937,0,0,1-.913-.727l-.5-2.182-.285-1.239-.15-.643a.949.949,0,0,1,.549-1.079l4.371-1.877a.933.933,0,0,1,1.094.269l.492.6.824,1.006.622.762A14.481,14.481,0,0,0,32.4,25.4l-.758-.622-1.005-.826-.6-.492a.93.93,0,0,1-.269-1.094l1.872-4.377a.939.939,0,0,1,1.073-.539l.648.146,1.239.284,2.178.5A.939.939,0,0,1,37.5,19.3Z" transform="translate(0)" fill="#6c6c6c"/>
  </g>
</svg>
