<svg xmlns="http://www.w3.org/2000/svg" width="26" height="26" viewBox="0 0 26 26">
  <g id="Group_31984" data-name="Group 31984" transform="translate(-1200 -711)">
    <rect id="Rectangle_9389" data-name="Rectangle 9389" width="26" height="26" rx="3" transform="translate(1200 711)" fill="#f7f7f7"/>
    <path id="Path_11700" data-name="Path 11700" d="M144.3,364.874a1.017,1.017,0,0,1-.754-.342l-3.377-3.7a1.25,1.25,0,0,1,0-1.653,1,1,0,0,1,1.507,0l2.623,2.875,6.238-6.837a1,1,0,0,1,1.507,0,1.248,1.248,0,0,1,0,1.652l-6.991,7.664A1.018,1.018,0,0,1,144.3,364.874Z" transform="translate(1067.139 364.125)" fill="#24c1a1" opacity="0.7"/>
  </g>
</svg>
