<svg xmlns="http://www.w3.org/2000/svg" width="26" height="26" viewBox="0 0 26 26">
  <g id="Group_31985" data-name="Group 31985" transform="translate(-1228 -663)">
    <rect id="Rectangle_9404" data-name="Rectangle 9404" width="26" height="26" rx="3" transform="translate(1228 663)" fill="#f7f7f7"/>
    <path id="Path_11709" data-name="Path 11709" d="M390.45,376.616l-3.239-3.239,3.159-3.159a1.051,1.051,0,1,0-1.486-1.486l-3.159,3.159-3.239-3.239a.939.939,0,0,0-1.328,0l-.159.159a.939.939,0,0,0,0,1.327l3.239,3.239-3.159,3.159a1.051,1.051,0,1,0,1.486,1.486l3.16-3.159,3.239,3.239a.938.938,0,0,0,1.327,0l.159-.159A.939.939,0,0,0,390.45,376.616Z" transform="translate(855.275 302.623)" fill="#ff5d5d" opacity="0.7"/>
  </g>
</svg>
