<svg xmlns="http://www.w3.org/2000/svg" width="30" height="30" viewBox="0 0 30 30">
  <g id="Group_30871" data-name="Group 30871" transform="translate(-314 -9)">
    <rect id="Rectangle_9282" data-name="Rectangle 9282" width="30" height="30" rx="3" transform="translate(314 9)" fill="#b7b7b7"/>
    <g id="Group_8884" data-name="Group 8884" transform="translate(297 30)">
      <path id="Path_7775" data-name="Path 7775" d="M250.137,200.172l-1.874-1.88a1.505,1.505,0,0,0-2.123,0l-1.361,1.361h0a.377.377,0,0,0,0,.533l0,0h0l3.461,3.464h0a.375.375,0,0,0,.531,0l0,0h0l1.361-1.361h-.008A1.5,1.5,0,0,0,250.137,200.172Z" transform="translate(-210.571 -211.855)" fill="#fff"/>
      <path id="Path_7776" data-name="Path 7776" d="M246.162,204.891l-3.466-3.466h0a.377.377,0,0,0-.533,0l0,0h0l-8.4,8.4-.4,3.57a.653.653,0,0,0,0,.167.748.748,0,0,0,.827.66l3.57-.4,8.4-8.4h0A.377.377,0,0,0,246.162,204.891Z" transform="translate(-209.356 -212.226)" fill="#fff"/>
    </g>
  </g>
</svg>
