<svg xmlns="http://www.w3.org/2000/svg" width="30" height="30" viewBox="0 0 30 30">
  <g id="Group_30872" data-name="Group 30872" transform="translate(-314 -41)">
    <rect id="Rectangle_9284" data-name="Rectangle 9284" width="30" height="30" rx="3" transform="translate(314 41)" fill="#ff5d5d" opacity="0.7"/>
    <g id="Group_9057" data-name="Group 9057" transform="translate(321 47)">
      <path id="Path_7970" data-name="Path 7970" d="M54.713,128.666v-1.125a.567.567,0,0,1,.572-.563H59.57l.335-.657a.848.848,0,0,1,.764-.468h4.083a.863.863,0,0,1,.768.468l.336.658h4.286a.567.567,0,0,1,.572.563h0v1.124a.567.567,0,0,1-.572.563H55.284A.566.566,0,0,1,54.713,128.666Z" transform="translate(-54.713 -125.853)" fill="#fff"/>
      <path id="Path_8022" data-name="Path 8022" d="M55.85,130.211l.743,12.144h0a1.669,1.669,0,0,0,1.71,1.5h8.781a1.669,1.669,0,0,0,1.71-1.5l.743-12.144Z" transform="translate(-54.695 -125.853)" fill="#fff"/>
    </g>
  </g>
</svg>
