<svg xmlns="http://www.w3.org/2000/svg" width="39.457" height="16.996" viewBox="0 0 39.457 16.996">
  <g id="Truck3" transform="translate(-0.004 -0.003)" opacity="0.7">
    <path id="Path_1229" data-name="Path 1229" d="M-2230.72-500.472h22.831a.211.211,0,0,0,.21-.211v-10.188a1.639,1.639,0,0,0-1.639-1.639h-21.4a1.639,1.639,0,0,0-1.639,1.639v8.757a1.639,1.639,0,0,0,1.637,1.642Z" transform="translate(2232.641 512.513)" fill="#6c6c6c"/>
    <path id="Path_1230" data-name="Path 1230" d="M-2226.266-493.176h-6.074a.083.083,0,0,1-.081-.083.081.081,0,0,0-.082-.08h-.209a.081.081,0,0,0-.081.081v1.809a.266.266,0,0,0,.078.188.265.265,0,0,0,.188.078h5.342a2.688,2.688,0,0,1,.042-.472A2.55,2.55,0,0,1-2226.266-493.176Z" transform="translate(2232.797 505.647)" fill="#6c6c6c"/>
    <path id="Path_1231" data-name="Path 1231" d="M-2220.951-493.339a2.379,2.379,0,0,0-2.413,2.345,2.379,2.379,0,0,0,2.412,2.346,2.379,2.379,0,0,0,2.411-2.346A2.379,2.379,0,0,0-2220.951-493.339Z" transform="translate(2229.413 505.647)" fill="#6c6c6c"/>
    <path id="Path_1232" data-name="Path 1232" d="M-2181.682-493.339a2.378,2.378,0,0,0-2.412,2.345,2.379,2.379,0,0,0,2.412,2.346,2.38,2.38,0,0,0,2.413-2.346A2.38,2.38,0,0,0-2181.682-493.339Z" transform="translate(2215.305 505.647)" fill="#6c6c6c"/>
    <path id="Path_1233" data-name="Path 1233" d="M-2187.5-496.434l-.01-.214h0s-.1-1.542-.282-2.556a1.662,1.662,0,0,0-1.011-1.289,51.713,51.713,0,0,0-5.286-1.542s-.208.121-.521-.45h0l-.308-.685-.759-1.654-.126-.272a.509.509,0,0,0-.462-.3h-4.558a.793.793,0,0,0-.793.793v7.106h-15.021a2.555,2.555,0,0,1,.877,1.518,2.711,2.711,0,0,1,.041.472h8.013a4.3,4.3,0,0,1,.007.452h.466a2.4,2.4,0,0,0-.006-.687h.691v.9a.233.233,0,0,0,0,.026.411.411,0,0,0,.409.373h10.067a2.925,2.925,0,0,1-.162-.961,2.9,2.9,0,0,1,2.892-2.906,2.893,2.893,0,0,1,2.61,1.654h0l.031.069.024.054c.012.029.024.057.035.086h0v.008a.886.886,0,0,1,.037.1h0a4.415,4.415,0,0,1,.152,1,11.567,11.567,0,0,1,0,1.281v.011h.1c1.807-.033,2.21-.395,2.573-.668a.7.7,0,0,0,.276-.557v-1.167Zm-11.966-5.449a.623.623,0,0,1-.55-.611v-1.932a.344.344,0,0,1,.106-.243.343.343,0,0,1,.248-.095l2.927.037a.586.586,0,0,1,.524.332l1.263,2.858Zm10.511,2.3a1.361,1.361,0,0,1,.717,1.153,7,7,0,0,0-1.788-1.236c-.853-.438-.9-.8-.9-.8s1.238.489,1.966.881Z" transform="translate(2226.96 509.964)" fill="#6c6c6c"/>
  </g>
</svg>
