<svg xmlns="http://www.w3.org/2000/svg" width="29.701" height="11.963" viewBox="0 0 29.701 11.963">
  <g id="_4c83e2ff" data-name="#4c83e2ff" opacity="0.7">
    <path id="Path_1368" data-name="Path 1368" d="M6.239,0H9.727a.642.642,0,0,0,.132.017c1.9.022,3.808.047,5.712.1.446.02.892.016,1.338.037.644.029,1.289.031,1.932.073a8.138,8.138,0,0,1,1.6.3,1.112,1.112,0,0,1,.418.176c.861.6,1.64,1.312,2.437,2,.435.389.874.775,1.307,1.168a1.425,1.425,0,0,0,.2.17c.106-.007.191-.082.293-.1a7.623,7.623,0,0,1,.853.1,6.875,6.875,0,0,1,1.4.352,3,3,0,0,1,1.38.927,2.931,2.931,0,0,1,.244.844,6.5,6.5,0,0,1,.043,1.325c.188,0,.377,0,.565,0a.13.13,0,0,1,.12.153c0,.341,0,.682,0,1.022a1.425,1.425,0,0,1-1.4,1.405c-.336,0-.673,0-1.009,0a2.994,2.994,0,0,0-1.032-2.49,2.662,2.662,0,0,0-3.264-.158,2.933,2.933,0,0,0-1.247,2.405c0,.081,0,.161,0,.242q-6.128,0-12.256,0a3.185,3.185,0,0,0-.5-1.872,2.827,2.827,0,0,0-1-.931,2.678,2.678,0,0,0-1.716-.29,2.75,2.75,0,0,0-1.555.843,3,3,0,0,0-.769,1.694,4.9,4.9,0,0,0-.009.556H.908A.891.891,0,0,1,0,9.261V8.345a.316.316,0,0,1,.112-.2c.142-.12.342-.061.511-.075A33.1,33.1,0,0,1,.762,3.907a9.446,9.446,0,0,1,.873-3.3,1.3,1.3,0,0,1,.279-.43A.714.714,0,0,1,2.358.071C2.926.065,3.494.048,4.063.035,4.735.033,5.408.013,6.081.01c.053,0,.1,0,.157-.01M16.9,1.136c0,.814,0,1.627,0,2.441a.471.471,0,0,0,.457.478h6.045c-.186-.206-.38-.4-.577-.6a20.79,20.79,0,0,0-2.33-2.1A3.183,3.183,0,0,0,19.268.848,6.386,6.386,0,0,0,18.045.781c-.274,0-.548,0-.821,0a.323.323,0,0,0-.32.353M27.882,5.377a.2.2,0,0,0-.2.218c.013.147.032.294.049.44h1.134a2.752,2.752,0,0,0-.194-.66c-.263,0-.527,0-.79,0m-.1,1.4a1.052,1.052,0,0,0-.011.271c-.007.059.058.081.107.074.339,0,.678,0,1.016,0,.081-.025.046-.126.055-.188s.022-.185-.078-.183c-.35,0-.7-.005-1.049,0Z" fill="#6c6c6c"/>
    <path id="Path_1369" data-name="Path 1369" d="M157.788,266.263a2.208,2.208,0,0,1,3.448,1.343,2.168,2.168,0,0,1-.087,1.219,2.246,2.246,0,0,1-.981,1.158,2.329,2.329,0,0,1-1.061.29h-.076a2.322,2.322,0,0,1-1.051-.29,2.209,2.209,0,0,1-.192-3.72Z" transform="translate(-152.409 -258.31)" fill="#6c6c6c"/>
    <path id="Path_1370" data-name="Path 1370" d="M784.727,266.135a2.211,2.211,0,0,1,3.07,2.959,2.271,2.271,0,0,1-.807.843,2.306,2.306,0,0,1-1.1.313h-.078a2.213,2.213,0,0,1-1.377-.521,2.175,2.175,0,0,1-.667-.96,2.2,2.2,0,0,1,.107-1.712A2.233,2.233,0,0,1,784.727,266.135Z" transform="translate(-761.398 -258.287)" fill="#6c6c6c"/>
  </g>
</svg>
