<svg xmlns="http://www.w3.org/2000/svg" width="32.829" height="8.371" viewBox="0 0 32.829 8.371">
  <path id="Path_10409" data-name="Path 10409" d="M159.1,722.9a1.385,1.385,0,0,0-.318-.193s0-.037,0-.159-.047-2.068-.059-2.13a.774.774,0,0,0-.168-.268,2.677,2.677,0,0,0-.7-.212c-.293-.056-7.653-.661-7.772-.661a3.969,3.969,0,0,0-.574.144,6.805,6.805,0,0,0-.97-.6,34.638,34.638,0,0,0-3.251-1.722,9.288,9.288,0,0,0-1.43-.28,53.555,53.555,0,0,0-5.426-.031,30.5,30.5,0,0,0-4.348.462,4.023,4.023,0,0,0-1.2.623c-.449.318-1.965,1.478-2.021,1.5s-3.3.674-3.318.68-.393.1-.449.131a.262.262,0,0,0-.106.14c0,.022-.04.062-.106.24s-.181,1.634-.206,1.662a.619.619,0,0,0-.031.218c0,.041-.312.193-.312.193a1.782,1.782,0,0,0-.031.3,4.469,4.469,0,0,0,.075.752.441.441,0,0,1-.009.053,4.465,4.465,0,0,0,.134.446.651.651,0,0,0,.368.112c.212.022,4.224.455,4.224.455a2.643,2.643,0,1,1,5.162-.8,3.367,3.367,0,0,1-.255,1.156l15.625-.1.527-.019a2.645,2.645,0,1,1,4.9-.111c.23-.006.991-.058,1.243-.1a1.307,1.307,0,0,0,.677-.434.087.087,0,0,0-.065-.094c-.022-.006.193-.284.206-.4A4.756,4.756,0,0,0,159.1,722.9Zm-23.714-3.19s1-1.572,1.142-1.8.193-.281.249-.293c.017,0,.251-.043.62-.095l-.918,2.145C135.656,719.685,135.388,719.712,135.388,719.712Zm2.526-.044c-.323,0-.607,0-.858,0l.849-2.207a26.249,26.249,0,0,1,3.145-.237c.036.536.138,2.089.159,2.432C139.792,719.666,138.539,719.672,137.914,719.668Zm4.463-.023-.526-2.413a21.986,21.986,0,0,1,2.3.1,6.124,6.124,0,0,1,1.828.683,17.391,17.391,0,0,1,1.971,1.4.805.805,0,0,1,.147.172S145.16,719.621,142.377,719.645Z" transform="translate(-126.307 -716.739)" fill="#6c6c6c" fill-rule="evenodd"/>
</svg>
