<svg xmlns="http://www.w3.org/2000/svg" width="29.701" height="16" viewBox="0 0 29.701 16">
  <g id="Trucak" transform="translate(-0.003 -0.005)" opacity="0.7">
    <path id="Path_1223" data-name="Path 1223" d="M-2230.245-615.271a2.415,2.415,0,0,1,.988-1.4h-.973l-.591.4v2.155l.266.227v-.007l.005,0Z" transform="translate(2230.824 628.568)" fill="#6c6c6c"/>
    <path id="Path_1224" data-name="Path 1224" d="M-2219.464-617.238h-.89l.969-.217a.176.176,0,0,0,.137-.157.141.141,0,0,0,0-.05.176.176,0,0,0-.212-.13l-2.319.518-.157.035a2.419,2.419,0,0,1,1.008,1.485h.461A2.415,2.415,0,0,1-2219.464-617.238Z" transform="translate(2226.361 629.215)" fill="#6c6c6c"/>
    <path id="Path_1225" data-name="Path 1225" d="M-2205.578-641.467c-.183-.009-.352-.015-.508-.018h-.124a.648.648,0,0,0-.459.178.613.613,0,0,0-.192.443v9.852a1.07,1.07,0,0,0,.977.961v.008h.148v.54h-5.48a2.342,2.342,0,0,1,1.008,1.442h.157c.01.062.018.124.023.187a4.223,4.223,0,0,1,.015.527h.424a2.078,2.078,0,0,0-.005-.605h.627v.793a.191.191,0,0,0,.2.185c.4,0,1.286,0,1.291,0a1.068,1.068,0,0,1,0,.168h8.022a2.488,2.488,0,0,1-.147-.847,2.594,2.594,0,0,1,2.626-2.561,2.632,2.632,0,0,1,2.37,1.457l.028.061c.008.015.014.031.021.047s.022.05.032.076h0v.007a.905.905,0,0,1,.033.09h0a3.778,3.778,0,0,1,.138.878,9.9,9.9,0,0,1,0,1.129v.01h.09a4.8,4.8,0,0,0,2.714-.589.61.61,0,0,0,.251-.49v-1.027l-.019-.189h.009s-.088-1.359-.256-2.253a1.473,1.473,0,0,0-.917-1.136,44.037,44.037,0,0,0-5.178-1.36h0l-1.4-2.4.519-.021h.067c.23,0,.382-.125.149-.348l-.243-.223a1.4,1.4,0,0,0-.445-.274,1.458,1.458,0,0,0-.521-.1l-.316-.457c-1.647-3.1-2.759-3.547-2.759-3.547a7.716,7.716,0,0,0-2.967-.6m3.032,8.094a.554.554,0,0,1-.5-.537v-1.7a.3.3,0,0,1,.1-.215.317.317,0,0,1,.225-.084l2.658.033a.534.534,0,0,1,.476.292l1.147,2.52Zm10.571,3.044a12.005,12.005,0,0,0-2-1.089c-.774-.386-.813-.7-.813-.7a16.44,16.44,0,0,1,2.164.778,1.2,1.2,0,0,1,.655,1.009Z" transform="translate(2221.008 641.49)" fill="#6c6c6c"/>
    <path id="Path_1226" data-name="Path 1226" d="M-2184.8-616.97a2.159,2.159,0,0,0-2.189,2.128,2.16,2.16,0,0,0,2.189,2.129,2.161,2.161,0,0,0,2.189-2.129,2.16,2.16,0,0,0-2.189-2.128Z" transform="translate(2208.832 628.717)" fill="#6c6c6c"/>
    <path id="Path_1227" data-name="Path 1227" d="M-2216.3-616.97a2.159,2.159,0,0,0-2.189,2.128,2.16,2.16,0,0,0,2.189,2.129,2.159,2.159,0,0,0,2.188-2.129A2.159,2.159,0,0,0-2216.3-616.97Z" transform="translate(2224.635 628.717)" fill="#6c6c6c"/>
    <path id="Path_1228" data-name="Path 1228" d="M-2226.225-616.823a2.241,2.241,0,0,0-.8-.147,2.236,2.236,0,0,0-.8.147,2.131,2.131,0,0,0-1.387,1.981,2.16,2.16,0,0,0,2.189,2.129,2.16,2.16,0,0,0,2.189-2.129,2.131,2.131,0,0,0-1.388-1.981Z" transform="translate(2230.018 628.717)" fill="#6c6c6c"/>
  </g>
</svg>
