<svg xmlns="http://www.w3.org/2000/svg" width="33.51" height="16.005" viewBox="0 0 33.51 16.005">
  <g id="Truck" transform="translate(0 -0.01)">
    <path id="Path_1217" data-name="Path 1217" d="M-2182.359-577.869a2.1,2.1,0,0,0-2.127,2.068,2.1,2.1,0,0,0,2.127,2.068,2.1,2.1,0,0,0,2.126-2.068,2.1,2.1,0,0,0-2.126-2.068Z" transform="translate(2210.356 589.749)" fill="#919191"/>
    <path id="Path_1218" data-name="Path 1218" d="M-2190.093-586.648l-.029-.022a.076.076,0,0,0,.024-.061c-.022-.309-.1-1.411-.244-2.173a1.468,1.468,0,0,0-.891-1.139,41.443,41.443,0,0,0-5.023-1.36h-.014a.468.468,0,0,1-.41-.3h0l-.9-2.008a.079.079,0,0,1,0-.073.078.078,0,0,1,.063-.037l.082,0h.378c.164,0,.285-.068.251-.192h.006l-.022-.04a.211.211,0,0,0-.011-.021,5.731,5.731,0,0,0-.856-1.229l-.011-.006-.869-.4a.074.074,0,0,1-.029-.022c-.165-.208-2.157-2.589-7.939-3.309a.086.086,0,0,1-.034-.013,2.471,2.471,0,0,0-1.161-.317h0c-.177-.009-.343-.015-.494-.019h-.109c-.262,0-.465,0-.567,0a.077.077,0,0,0-.076.078v11.261h0a1.258,1.258,0,0,1-.212.642.078.078,0,0,1-.057.027h-4.582a.078.078,0,0,0-.073.051.079.079,0,0,0,.023.086,2.344,2.344,0,0,1,.783,1.249.078.078,0,0,0,.076.057.077.077,0,0,1,.055.023.078.078,0,0,1,.023.055v1.9a.077.077,0,0,0,.023.055.077.077,0,0,0,.055.023h14.629a.4.4,0,0,0,.333-.2.4.4,0,0,0,0-.391l-.108-.2-.005-.012a2.565,2.565,0,0,1-.141-.842,2.559,2.559,0,0,1,2.551-2.566,2.55,2.55,0,0,1,2.283,1.417.077.077,0,0,0,.067.043h-.046c.01.021.018.041.027.061l.021.047c.011.025.021.05.031.076h0v.005a.735.735,0,0,1,.032.09h0a3.878,3.878,0,0,1,.133.879,10.114,10.114,0,0,1,0,1.132v.009h.087a4.552,4.552,0,0,0,2.637-.591.617.617,0,0,0,.244-.492Zm-7.06-4.325-3.854-.3a.548.548,0,0,1-.484-.538v-1.7a.305.305,0,0,1,.093-.215.3.3,0,0,1,.218-.085l2.581.034a.517.517,0,0,1,.462.293l1.061,2.406a.076.076,0,0,1-.006.074.077.077,0,0,1-.066.035Zm3.768,1.129a.079.079,0,0,1,0-.091.078.078,0,0,1,.086-.029,13.949,13.949,0,0,1,1.93.727,1.185,1.185,0,0,1,.607.811.078.078,0,0,1-.033.081.077.077,0,0,1-.087,0,20.291,20.291,0,0,0-1.8-.966,1.957,1.957,0,0,1-.705-.53Z" transform="translate(2223.594 599.41)" fill="#919191"/>
    <path id="Path_1219" data-name="Path 1219" d="M-2218.449-577.869a2.1,2.1,0,0,0-2.126,2.068,2.1,2.1,0,0,0,2.126,2.068,2.1,2.1,0,0,0,2.126-2.068,2.1,2.1,0,0,0-2.126-2.068Z" transform="translate(2226.545 589.749)" fill="#919191"/>
    <path id="Path_1220" data-name="Path 1220" d="M-2227.084-577.727a2.168,2.168,0,0,0-.778-.143,2.177,2.177,0,0,0-.779.143,2.07,2.07,0,0,0-1.347,1.924,2.1,2.1,0,0,0,2.127,2.068,2.1,2.1,0,0,0,2.126-2.068A2.069,2.069,0,0,0-2227.084-577.727Z" transform="translate(2230.769 589.749)" fill="#919191"/>
    <path id="Path_1221" data-name="Path 1221" d="M-2221.2-578.052h-.864l.941-.21a.171.171,0,0,0,.134-.152.142.142,0,0,0,0-.049.172.172,0,0,0-.206-.126l-2.252.5-.153.034a2.348,2.348,0,0,1,.979,1.443h.447a2.348,2.348,0,0,1,.979-1.443Z" transform="translate(2227.895 590.07)" fill="#919191"/>
    <path id="Path_1222" data-name="Path 1222" d="M-2229.89-577.609h-.945l-.571.386v2.093l.259.221v-.049a6.244,6.244,0,0,1,.281-1.209.671.671,0,0,0,.039-.154,2.348,2.348,0,0,1,.938-1.288Z" transform="translate(2231.406 589.632)" fill="#919191"/>
  </g>
</svg>
