<svg xmlns="http://www.w3.org/2000/svg" width="38.28" height="16" viewBox="0 0 38.28 16">
  <g id="Tow" transform="translate(0 0)" opacity="0.7">
    <path id="Path_1234" data-name="Path 1234" d="M-2210.783-556.666l-.294-.239a.234.234,0,0,0-.25-.034.228.228,0,0,0-.133.211v.412a.836.836,0,0,0,.26.588.254.254,0,0,1,.075.18v12.586a.384.384,0,0,0,.372.385.381.381,0,0,0,.272-.107.37.37,0,0,0,.113-.266V-555.8a1.12,1.12,0,0,0-.414-.868Z" transform="translate(2234.407 556.96)" fill="#6c6c6c"/>
    <path id="Path_1235" data-name="Path 1235" d="M-2195.014-539.964v0a1.736,1.736,0,0,0-.685-.975l-.581-.264v-2.757a.59.59,0,0,0-.122-.352.588.588,0,0,1,.122.352v2.755l.581.264h.286a.281.281,0,0,0,.2-.083.281.281,0,0,0,.082-.2v-.263a.318.318,0,0,0-.208-.3l-.387-.144v-1.962a.694.694,0,0,0-.694-.694h-6.5v-.04a.131.131,0,0,0-.131-.131h-1.289a.13.13,0,0,0-.093.038.13.13,0,0,0-.038.093v2.709a.131.131,0,0,0,.131.131h1.289a.132.132,0,0,0,.128-.1.132.132,0,0,1-.128.1h-1.289a.131.131,0,0,1-.131-.131v-2.709a.131.131,0,0,1,.131-.131h.145l-.489-2.426a.713.713,0,0,0-.7-.572h-3.017a.906.906,0,0,0-.906.906v8.094h0a.193.193,0,0,0,.193.193h.193v.373a.231.231,0,0,0,.231.231h4.877a.231.231,0,0,0,.231-.231v-.566h1.864v-.021a2.845,2.845,0,0,1,2.922-2.762,3.032,3.032,0,0,1,1.446.363,2.738,2.738,0,0,1,1.475,2.4,2.677,2.677,0,0,1-.021.331,2.66,2.66,0,0,1-.1.469.182.182,0,0,0,.026.162.181.181,0,0,0,.147.074h.132a.691.691,0,0,0,.691-.691v-1.456a.273.273,0,0,0-.013-.074Zm-13.058-6.695a.24.24,0,0,1,.24-.24h2.29a.228.228,0,0,1,.216.156l.435,2.037-3.182-.145Z" transform="translate(2233.281 552.61)" fill="#6c6c6c"/>
    <path id="Path_1236" data-name="Path 1236" d="M-2230.548-546.631l-1.858-.024,1.684-3.712a.16.16,0,0,0-.011-.153.16.16,0,0,0-.135-.073h-.915a.16.16,0,0,0-.159.16h0v.521l-2.594,3.226.578.007-2.287-.03,1.287-1.823a.084.084,0,0,0,.01-.084.084.084,0,0,0-.068-.051h-3.248a.272.272,0,0,0-.21.1l-.2.248-4.975-.647a2,2,0,0,0-2.029-1.932,2.025,2.025,0,0,0-1.947,1.413c-1.8-.235-3.231-.423-3.555-.469v-.075h-.319l-.174.19-.389-.105a.544.544,0,0,0-.4.041.528.528,0,0,0-.278.463v.863h.022v.411h-.174a.838.838,0,0,0-.446.123.817.817,0,0,0-.385.694v6.537a.209.209,0,0,0,.193.222.68.68,0,0,0,.679-.68v-3.587h.016a1.87,1.87,0,0,0,.9-.243h0a1.867,1.867,0,0,0,.835-.989l.078-.212a1.871,1.871,0,0,0-.148-1.589l-.033-.058v-.507l1.324.282a.921.921,0,0,0,.653.557l3.159.714a.174.174,0,0,0,.16-.049l.039-.005.525.333-.018.037a.145.145,0,0,0,.05.183l1.732,1.146a.289.289,0,0,0,.343-.017h0a.289.289,0,0,0,.107-.239.29.29,0,0,0-.13-.228l-1.76-1.169a.144.144,0,0,0-.113-.02.144.144,0,0,0-.092.069l-.15-.109a2.062,2.062,0,0,0,.757-.27l1.309.26a.553.553,0,0,0,.073.419.552.552,0,0,0,.349.243l.915.2a.548.548,0,0,0,.351-.04l.6-.283.152.038-.85,1.1h0l-.334.354h-9.461l-1.272.591v3.1a.559.559,0,0,0,.559.56h0l.648-1.848a.79.79,0,0,1,.746-.528h1.793a.789.789,0,0,1,.7.425l.255.489a.373.373,0,0,0,.332.2h.813a.375.375,0,0,0,.326-.19l.247-.437a.79.79,0,0,1,.687-.4h1.872a.79.79,0,0,1,.7.424l1.349,2.58h11.492v-6.371A.282.282,0,0,0-2230.548-546.631Zm-21.428-1.654a.967.967,0,0,1-.237.636h0a.344.344,0,0,1-.344-.344v-.164h-.068v-.411h.02v-.541a.328.328,0,0,1,.308-.1.328.328,0,0,1,.243.214l.078.226Zm2.331-1.142-.075.123-1.465-.4v-.12l.062.009.418.058,1.488.2,1.554.2a1.885,1.885,0,0,0-.043.268Zm5.917,1.041a1.859,1.859,0,0,0,.073-.447l4.883.636-.21.258h-1.345a.254.254,0,0,0-.162.058l-.062.052Z" transform="translate(2253.722 554.024)" fill="#6c6c6c"/>
    <rect id="Rectangle_1320" data-name="Rectangle 1320" width="2.689" height="0.808" transform="translate(13.152 4.657)" fill="#6c6c6c"/>
    <path id="Path_1237" data-name="Path 1237" d="M-2191.994-535.342a2.2,2.2,0,0,0-2.229,2.166,2.158,2.158,0,0,0,.023.312,2.21,2.21,0,0,0,2.206,1.854,2.238,2.238,0,0,0,1.957-1.13,2.112,2.112,0,0,0,.271-1.037A2.2,2.2,0,0,0-2191.994-535.342Z" transform="translate(2226.478 547.01)" fill="#6c6c6c"/>
    <path id="Path_1238" data-name="Path 1238" d="M-2239.294-535.342a2.2,2.2,0,0,0-2.229,2.166,2.2,2.2,0,0,0,2.229,2.166,2.2,2.2,0,0,0,2.229-2.166,2.2,2.2,0,0,0-2.229-2.166Z" transform="translate(2248.14 547.01)" fill="#6c6c6c"/>
    <path id="Path_1239" data-name="Path 1239" d="M-2248.253-535.342a2.2,2.2,0,0,0-2.228,2.166,2.2,2.2,0,0,0,2.228,2.166,2.2,2.2,0,0,0,2.228-2.166A2.2,2.2,0,0,0-2248.253-535.342Z" transform="translate(2252.26 547.01)" fill="#6c6c6c"/>
  </g>
</svg>
