<svg xmlns="http://www.w3.org/2000/svg" width="17" height="17" viewBox="0 0 17 17">
  <path id="usd-circle" d="M8,8a8,8,0,1,0,8,8A8,8,0,0,0,8,8Zm.774,12.129v.516a.518.518,0,0,1-.516.516H7.742a.518.518,0,0,1-.516-.516v-.523a2.866,2.866,0,0,1-1.5-.487.518.518,0,0,1-.074-.813l.387-.365a.523.523,0,0,1,.635-.052,1.255,1.255,0,0,0,.642.174H8.771a.714.714,0,0,0,.661-.755.754.754,0,0,0-.49-.732l-2.329-.706a2.3,2.3,0,0,1-1.587-2.213,2.26,2.26,0,0,1,2.2-2.3v-.516a.518.518,0,0,1,.516-.516h.516a.518.518,0,0,1,.516.516v.523a2.866,2.866,0,0,1,1.5.487.518.518,0,0,1,.074.813l-.387.365a.523.523,0,0,1-.635.052,1.255,1.255,0,0,0-.642-.174H7.229a.714.714,0,0,0-.661.755.754.754,0,0,0,.49.732l2.323.706a2.3,2.3,0,0,1,1.587,2.213A2.252,2.252,0,0,1,8.774,20.129Z" transform="translate(0.5 -7.5)" fill="#f35252" stroke="rgba(0,0,0,0)" stroke-width="1"/>
</svg>
