<svg xmlns="http://www.w3.org/2000/svg" width="19.882" height="18.668" viewBox="0 0 19.882 18.668">
  <g id="Group_34037" data-name="Group 34037" transform="translate(1.133 1.667)">
    <path id="Subtraction_113" data-name="Subtraction 113" d="M-5263.15,6741.167a1.171,1.171,0,0,1-.662-.21l-3.137-2.144a1.17,1.17,0,0,0-.664-.206,1.166,1.166,0,0,0-.663.206l-3.138,2.144a1.171,1.171,0,0,1-.661.21,1.2,1.2,0,0,1-.954-.486,1.141,1.141,0,0,1-.175-1.032l1.076-3.6a1.181,1.181,0,0,0-.415-1.272l-2.993-2.277a1.152,1.152,0,0,1-.407-1.3,1.151,1.151,0,0,1,1.089-.815l3.787-.1a1.179,1.179,0,0,0,1.078-.781l1.269-3.562a1.149,1.149,0,0,1,1.107-.782,1.151,1.151,0,0,1,1.109.782l1.2,3.378a3.479,3.479,0,0,1-.336.378,1.144,1.144,0,0,0-.316.8,1.169,1.169,0,0,0,1.169,1.167h2.166v.167a1.842,1.842,0,0,0,1.45,1.792l-1.514,1.152a1.183,1.183,0,0,0-.415,1.272l1.078,3.6a1.145,1.145,0,0,1-.176,1.033A1.2,1.2,0,0,1-5263.15,6741.167Z" transform="translate(5274.868 -6724.166)" fill="#6c6c6c"/>
    <path id="bell" d="M4.666,10.667A1.333,1.333,0,0,0,6,9.334H3.334A1.333,1.333,0,0,0,4.666,10.667ZM9.154,7.548A3.876,3.876,0,0,1,8,4.334,3.29,3.29,0,0,0,5.333,1.1V.667A.666.666,0,1,0,4,.667V1.1A3.29,3.29,0,0,0,1.334,4.334,3.876,3.876,0,0,1,.179,7.548.651.651,0,0,0,0,8a.667.667,0,0,0,.669.667h8A.667.667,0,0,0,9.333,8,.651.651,0,0,0,9.154,7.548Z" transform="translate(9.415 -1.667)" fill="#30c862"/>
  </g>
</svg>
