<svg xmlns="http://www.w3.org/2000/svg" width="16.002" height="16.002" viewBox="0 0 16.002 16.002">
  <path id="Subtraction_58" data-name="Subtraction 58" d="M13444,16722a8,8,0,1,1,8-8A8.007,8.007,0,0,1,13444,16722Zm0-13.5a1.02,1.02,0,0,0-.4.082l-4.126,1.717a1.019,1.019,0,0,0-.634.951c0,4.254,2.468,7.219,4.76,8.172a.986.986,0,0,0,.395.08,1.012,1.012,0,0,0,.4-.08,7.62,7.62,0,0,0,3.068-2.588,9.579,9.579,0,0,0,1.69-5.584,1.038,1.038,0,0,0-.634-.951l-4.125-1.717A1,1,0,0,0,13444,16708.5Zm-.689,8.307a.336.336,0,0,1-.241-.1l-2.237-2.232a.351.351,0,0,1-.1-.248.334.334,0,0,1,.1-.24l.487-.486a.347.347,0,0,1,.486,0l1.5,1.508,3.228-3.229a.352.352,0,0,1,.486,0l.482.486a.34.34,0,0,1,0,.488l-3.953,3.953A.337.337,0,0,1,13443.313,16716.8Z" transform="translate(-13436 -16705.998)" fill="#f35252"/>
</svg>
