<?xml version="1.0" encoding="utf-8"?>
<!-- Generator: Adobe Illustrator 24.0.0, SVG Export Plug-In . SVG Version: 6.00 Build 0)  -->
<svg version="1.1" id="Layer_1" xmlns="http://www.w3.org/2000/svg" xmlns:xlink="http://www.w3.org/1999/xlink" x="0px" y="0px"
	 viewBox="0 0 2242.9 862.1" style="enable-background:new 0 0 2242.9 862.1;" xml:space="preserve">
<style type="text/css">
	.st0{fill-rule:evenodd;clip-rule:evenodd;fill:#2267AD;}
	.st1{fill-rule:evenodd;clip-rule:evenodd;fill:#CD2E29;}
</style>
<path class="st0" d="M975.6,463.3c31.1,12.1,62.2,25,92.4,39.7c-96.8,38.8-190.3,85.3-279.7,139c-30.2-15.6-61.3-31.1-92.4-44.9
	C785.6,545.3,878.9,500.4,975.6,463.3z M859.9,422.7C759.8,454.7,663,496,570.7,546.2c29.4,11.2,58.7,22.5,87.2,34.5
	c89-52.7,183-96.7,280.6-131.2C912.5,440,886.6,430.5,859.9,422.7z"/>
<path class="st1" d="M1587.6,612.7c1.7,5.2,6.1,6.9,10.4,6.9c2.6,0,5.2,0,6.9-1.7c1.1-1.2,1.7-2.7,1.7-4.3c0-3.4-2.6-5.2-6.1-5.2
	l-6-1.7c-1.7-0.9-4.3-0.9-6.1-2.6c-1.7-1.7-2.6-4.3-2.6-6.9c0-6.9,6.1-9.5,12.1-9.5c5.2,0,10.4,2.6,12.1,8.6l-4.3,0.9
	c0-3.5-4.3-6-8.6-6c-2.6,0-6.9,1.7-6.9,5.2c0,4.3,2.6,5.2,6.1,6l5.2,0.9c2.6,0.9,5.2,1.7,6.9,2.6c1.7,2.6,2.6,4.3,2.6,7.8
	c0,2.6-0.9,6-3.5,7.8c-2.6,1.7-6.1,2.6-9.5,2.6c-6.9,0-11.2-3.5-13.8-10.4L1587.6,612.7L1587.6,612.7z M1621.3,623h-3.4v-34.5h6
	l11.3,27.6l9.5-27.6h6.9V623h-4.3v-30.2L1636,623h-3.5l-11.2-30.2L1621.3,623L1621.3,623z M1185.3,459
	c-79.3-37.9-161.2-69.9-245.2-95.8c-30.2,8.6-59.6,18.1-88.1,27.6c86.4,26,170.7,58.6,252.1,97.5C1131,478,1157.7,468.5,1185.3,459
	L1185.3,459z M1314,421c-80.3-35.4-164-64.7-249.5-88.1c-27.6,5.2-54.4,11.2-81.1,18.1c84.6,25,167.5,56.1,246.9,94.1
	C1257.8,436.5,1286.3,427.9,1314,421L1314,421z M1521.2,490.1c-202.9,68.2-392.8,165.8-564.6,287.5c43.2,26.8,84.6,54.4,125.2,84.6
	c163.5-129.5,343.8-236.1,536.1-316.8C1586.3,525.7,1554,507.3,1521.2,490.1L1521.2,490.1z M1381.3,424.4
	c-210.7,55.3-408.3,145-587.1,264.2c39.7,19.9,79.4,40.6,118.3,63c175.3-120.9,369.5-215.8,576.7-278
	C1453.8,456.4,1418.4,439.1,1381.3,424.4L1381.3,424.4z"/>
<path class="st0" d="M802,71.7c50.9,0,76.8,38,76.8,88.9c0,52.7-25,89.8-76.8,89.8c-52.7,0-76.8-37.1-76.8-89.8
	C725.2,109.6,751.1,71.7,802,71.7L802,71.7z M802,215.8c13.8,0,19.9-12.1,19.9-55.3c0-39.7-4.3-54.4-19.9-54.4
	c-15.5,0-19.9,14.7-19.9,54.4C782.2,203.7,788.2,215.8,802,215.8z M914.3,114.8h-22.5v-38h22.5v-19c0-42.3,20.7-57.8,57-57.8
	c10.4,0,19,1.7,27.6,2.6v42.3c-3.4-1.1-6.8-1.6-10.3-1.7c-14.7,0-19.9,6-19.9,16.4v17.3h30.2v38h-30.2v132.1h-54.4V114.8z
	 M272.8,124.3c0-10.4-4.3-17.3-13.8-17.3c-13.8,0-18.1,12.1-18.1,22.4l-48.4-10.4c6-32.8,37.1-46.6,68.2-46.6
	c32.8,0,67.3,13.8,67.3,51.8v95c0,19,2.6,25,5.2,27.6h-57c-0.9-5.2-1.7-13-1.7-15.5c-9.5,9.5-25.9,19-41.4,19
	c-27.6,0-48.4-19-47.5-50.1c0.9-44,50.9-57.8,87.2-62.2L272.8,124.3L272.8,124.3z M272.8,164.9c-19,1.7-33.7,9.5-33.7,31.1
	c0,12.1,6,18.1,16.4,18.1c6,0,13-4.3,17.3-10.4V164.9z M415.3,125.2v121.7H360V76.8h53.5l0.9,17.3c12.1-12.1,26.8-21.6,48.3-21.6
	c24.2,0,38,16.4,38,39.7v134.7h-55.3V129.5c0-9.5-3.5-14.7-13-14.7C426.5,114.8,420.4,118.3,415.3,125.2L415.3,125.2z M534.4,5.2
	h55.3v122.6h0.9l40.6-50.9h54.4l-45.7,51.8l45.7,118.3h-57l-26.8-74.3h-0.9l-11.2,13v61.3h-55.3L534.4,5.2L534.4,5.2z M126.9,120.9
	c25.9,8.6,44.9,30.2,44.9,61.3c0,41.4-32.8,64.7-79.4,64.7H0V5.2h95c43.2,0,70.8,25.9,70.8,58.7c0,31.9-21.6,48.4-38.8,55.3
	L126.9,120.9L126.9,120.9L126.9,120.9z M58.7,202h22.4c13.8,0,31.1-6,31.1-30.2c0-18.1-11.2-30.2-31.1-30.2H58.7V202L58.7,202z
	 M58.7,101h20.7c21.6,0,30.2-12.1,30.2-25.9c0-23.3-15.5-26.8-29.4-26.8H58.7V101L58.7,101z M2113.4,124.3
	c0-10.4-5.2-17.3-14.7-17.3c-13,0-17.3,12.1-18.1,22.4l-47.5-10.4c6-32.8,37.1-46.6,68.2-46.6c32.8,0,67.3,13.8,67.3,51.8v95
	c0,19,2.6,25,4.3,27.6h-56.1c-0.9-5.2-1.7-13-1.7-15.5c-9.5,9.5-25.9,19-42.3,19c-26.7,0-48.3-19-47.5-50.1
	c1.7-44,51.8-57.8,88.1-62.2V124.3L2113.4,124.3z M2113.4,164.9c-19,1.7-33.7,9.5-33.7,31.1c0,12.1,6,18.1,15.5,18.1
	c6.9,0,12.9-4.3,18.1-10.4L2113.4,164.9L2113.4,164.9L2113.4,164.9z M1547.9,173.5c-0.9,14.7,3.5,40.6,25.9,40.6
	c12.9,0,24.2-10.4,26.7-23.3l37.1,13c-2.6,7.8-19,46.6-68.2,46.6c-52.7,0-76.8-42.3-76.8-89.8c0-48.4,25.9-88.9,76-88.9
	c52.7,0,71.7,45.8,71.7,90.6v11.2H1547.9z M1589.4,140.7c0-15.5-1.7-34.5-20.7-34.5c-15.5,0-21.6,19-20.7,34.5H1589.4z M1787.9,76.8
	h55.3v170.1h-55.3V76.8z M1787.9,5.2h55.3v49.2h-55.3V5.2z M1964.9,139.9c0-6.9,0-15.5-2.6-21.6c-2.6-6.9-6.9-12.1-15.5-12.1
	c-18.1,0-20.7,22.4-20.7,57c0,38,6,50.9,20.7,50.9c19,0,20.7-19.9,20.7-32.8l43.2,6c-4.3,41.4-28.5,63-68.2,63
	c-49.2,0-75.1-43.2-75.1-85.5c0-46.6,25.9-93.2,77.7-93.2c57.9,0,67.4,50.9,67.4,68.2L1964.9,139.9L1964.9,139.9z M1094.7,5.2h80.3
	l50.9,241.7h-58.7l-9.5-49.2h-56.1l-11.2,49.2h-52.7L1094.7,5.2z M1109.4,155.4h39.7L1131.8,57h-1.8L1109.4,155.4L1109.4,155.4z
	 M1662.7,76.8h53.5v22.5h0.9c11.2-18.1,31.9-26.8,53.5-26.8v55.3c-6.9-2.6-12.9-4.3-22.4-4.3c-14.7,0-24.2,5.2-30.2,13v110.5h-55.3
	V76.8z M1383.9,125.2v121.7h-54.4V130.4c0-9.5-2.6-15.5-12.9-15.5c-5.2,0-13.8,4.3-18.1,10.3v121.7H1244V76.8h53.5l0.9,17.3
	c12.1-11.2,29.4-21.6,49.2-21.6c17.2,0,28.5,9.5,33.7,22.4h0.9c9.5-10.4,25.9-22.4,48.4-22.4c23.3,0,38.8,14.7,38.8,38.8v135.5H1415
	V130.4c0-9.5-2.6-15.5-12.9-15.5C1395.1,114.8,1387.4,120.9,1383.9,125.2L1383.9,125.2z M2195.4,227c0-13,10.3-23.3,24.2-23.3
	c12.8-0.1,23.3,10.3,23.3,23.1c0,0.1,0,0.1,0,0.2c0.1,12.8-10.3,23.3-23.1,23.3c-0.1,0-0.1,0-0.2,0
	C2205.8,250.4,2195.4,240,2195.4,227z M2199.7,227c0,10.3,8.6,18.1,19.9,18.1c10.4,0,19-7.8,19-18.1c0-10.4-8.6-19-19-19
	C2208.4,208,2199.7,216.7,2199.7,227z"/>
<path class="st0" d="M2230.8,240h-4.3l-7.8-12.1h-4.3V240h-4.3v-25.9h12.1c1.7,0,4.3,0,6.1,0.9c2.6,1.7,3.5,3.4,3.5,6
	c0,5.2-4.3,6.9-8.6,6.9L2230.8,240z M2218.7,224.5c3.4,0,8.6,0.9,8.6-3.5c0-3.4-2.6-4.3-6.1-4.3h-6.9v7.8L2218.7,224.5L2218.7,224.5
	z"/>
</svg>
