<svg id="Group_6065" data-name="Group 6065" xmlns="http://www.w3.org/2000/svg" width="101.586" height="28.145" viewBox="0 0 101.586 28.145">
  <path id="Path_4755" data-name="Path 4755" d="M358.727,172.719a30.951,30.951,0,0,1,0,6.7l-.365-.1a6.769,6.769,0,0,0-3.912-5,13.269,13.269,0,0,0-5.155-.226l-.3.46.426,22.459c.678,1.378,2.613,1.261,4.066,1.357.117.2-.117.82-.117.82l-15.423-.163c-.18-.1-.306-.3-.125-.46,1.57-.266,3.866-.074,4.341-1.817l-.247-22.612c-2.24-.241-4.9-.329-6.648.858a6.106,6.106,0,0,0-2.377,4.308c-.18.205-.485.052-.665.107a40.4,40.4,0,0,1,0-6.6l5.078-.131Zm-75.443,5.349a5.2,5.2,0,0,1-2.073,5.335,13.329,13.329,0,0,1-4.036,1.866,18.642,18.642,0,0,0,2.608.907c2.428.956,4.681,2.989,4.76,5.389a6,6,0,0,1-2.674,5.592c-4.995,3.152-12.266,1.558-18.37,2l-5.865-.013c-.117-.152-.063-.357-.066-.563,1.269-.315,3.023.032,3.739-1.3l.289-1.894-.235-20.408c-.436-1.586-2.432-1.371-3.885-1.615-.117-.1-.242-.357-.063-.51l.18-.1c6.895.215,13.363-.641,19.843.549,2.486.747,5.283,2.419,5.844,4.771Zm-14.665-3.75c.029,3.478,0,7.416.147,10.384,2.6.343,5.141-.336,6.455-2.288a6.151,6.151,0,0,0-.351-6.343C273.4,174.392,270.971,174,268.618,174.318Zm.1,12.127-.05,8.748c.009.872-.109,1.64.867,2.246a5.615,5.615,0,0,0,6.275-8.787c-1.1-2.451-4.492-2.578-7.092-2.206Z" transform="translate(-257.322 -172.04)" fill="#922b3f" fill-rule="evenodd"/>
  <path id="Path_4756" data-name="Path 4756" d="M348.869,174.207a4.667,4.667,0,0,1-.567,4.921,15.677,15.677,0,0,1-2.888,2.522,37.384,37.384,0,0,0,5.09,6.929l2.263,2.239c1.029-.312,1.26-1.594,1.982-2.366.172-1.333,2.039-2.877.327-4.148-.366-.255-1.154.007-.978-.609,2.363-.219,5.032-.131,7.881-.2,0,.205.244.408.067.564-.482.411-1.271.212-1.817.468-3.563,1.555-3.777,5.14-6,7.608.618,1.171,2.077,1.831,3.173,2.642a3.676,3.676,0,0,0,3.689-1.148c.3,0,.488.153.488.408a6.936,6.936,0,0,1-4.154,4.422,5.736,5.736,0,0,1-3.7.329,17.033,17.033,0,0,1-3.836-2.076,32.184,32.184,0,0,0-2.955,1.707,14.461,14.461,0,0,1-11.034.269,14.225,14.225,0,0,1-4.944-3.866h-.307c-2.1,2.724-5.607,3.866-9.49,3.794l-16.666-.056c-.244-.049-.063-.255-.125-.408,1.087-.262,2.363-.167,3.265-.889l.655-1.232c.234-7.573-.117-14.07-.18-21.643-.617-1.481-2.5-1.523-4.016-1.615v-.51q7.555-.2,15.1-.089c3.883.18,7.886.619,10.1,3.779a4.717,4.717,0,0,1,.647,4.857c-1.075,2.055-3.43,3.294-5.729,3.921a14.3,14.3,0,0,1,6.4,3.749h.244a14.591,14.591,0,0,1,6.925-5.824c-.99-2.451-3.438-5.1-1.583-7.923a8.374,8.374,0,0,1,8.466-3.015A6.607,6.607,0,0,1,348.869,174.207Zm-33.471-.262a96.741,96.741,0,0,0,.147,10.283l1.213.1a6.125,6.125,0,0,0,5.435-2.745,5.639,5.639,0,0,0-.533-5.984,6.444,6.444,0,0,0-6.262-1.651Zm27.053,1.171c-1.016,1.9.878,3.372,1.679,4.956a5.066,5.066,0,0,0,3.135-2.476,2.611,2.611,0,0,0-.507-2.71,3.221,3.221,0,0,0-4.306.235Zm-3.563,9.433c-1.629,1.187-2.766,2.929-2.141,4.874a9.078,9.078,0,0,0,6.475,6.153c1.523.3,3.4.184,4.3-.844A51.02,51.02,0,0,1,342.993,190a53.7,53.7,0,0,0-4.11-5.45Zm-23.4,1.472c.088,3.375-.247,6.857.143,10.184a2.95,2.95,0,0,0,2.556,1.054,6.072,6.072,0,0,0,4.231-1.765,6.9,6.9,0,0,0-.433-8.236A7.254,7.254,0,0,0,315.49,186.021Z" transform="translate(-279.051 -171.51)" fill="#922b3f" fill-rule="evenodd"/>
</svg>
