<svg xmlns="http://www.w3.org/2000/svg" width="336.428" height="36.333" viewBox="0 0 336.428 36.333">
  <g id="Group_8480" data-name="Group 8480" transform="translate(-0.065 -0.001)">
    <g id="Group_8479" data-name="Group 8479" transform="translate(39.362 0.002)">
      <g id="g21079" transform="translate(0 0.541)">
        <path id="path21081" d="M74.618,25.247c0,5.522-1.921,8.323-8.563,8.323H61.893V17.8h4.4c6.162,0,8.323,2.161,8.323,7.443m8.883.56c0-6.642-5.282-8.883-11.924-9.123v-.24c5.522-.56,10.244-2.8,10.244-8.323,0-6.4-5.282-7.443-10.8-7.443-6.882,0-14.965.24-21.848,0V2.359c1.36,0,4.962,0,4.962,1.921v27.37c0,1.681-3.6,1.921-4.962,1.921V35.25c6.642-.24,14.645,0,21.287,0C77.1,35.49,83.5,33.009,83.5,25.807M73.257,9.161c0,4.4-1.921,6.882-6.882,6.882H62.214V2.759h4.4c4.962-.48,6.642,2,6.642,6.4" transform="translate(-49.169 -0.678)" fill="#0079c1"/>
      </g>
      <g id="g21083" transform="translate(37.699 0.675)">
        <path id="path21085" d="M137.49,35.418h-9.443V33.737c1.36,0,5.282,0,5.282-1.921V6.368h0l-14.405,29.61h-1.36L103.719,6.368h0V31.817c0,1.921,4.161,1.921,5.522,1.921v1.681a116.77,116.77,0,0,0-12.965,0V33.737c1.36,0,4.962-.24,4.962-1.921V4.447c0-1.921-3.6-1.921-4.962-1.921V.846a127.072,127.072,0,0,0,13.525,0l11.924,24.889L133.889.846a116.768,116.768,0,0,0,12.965,0V2.527c-1.36,0-4.962,0-4.962,1.921v27.37c0,1.921,3.6,1.921,4.962,1.921v1.681H137.49" transform="translate(-96.276 -0.846)" fill="#0079c1"/>
      </g>
      <g id="g21087" transform="translate(90.942)">
        <path id="path21089" d="M202.021,18.008C202.021,6.4,195.138,0,182.414,0s-19.607,6.4-19.607,18.006,6.882,18.006,19.607,18.006,19.607-6.722,19.607-18.006m-9.123,0c0,6.882-.56,16.326-10.484,16.326S171.93,24.891,171.93,18.008s.8-16.326,10.484-16.326S192.9,11.046,192.9,18.008" transform="translate(-162.807 -0.002)" fill="#0079c1"/>
      </g>
    </g>
    <g id="g21091" transform="translate(0.065 0.001)">
      <path id="path21093" d="M18.231,0A18.166,18.166,0,1,0,36.4,18.167,18.2,18.2,0,0,0,18.231,0" transform="translate(-0.065 -0.001)" fill="#ed1d24"/>
    </g>
    <g id="g21095" transform="translate(9.817 8.61)">
      <path id="path21097" d="M20.254,15.081,17.133,11a.772.772,0,0,0-1.12,0l-3.761,4.722v7.363l3.681-4.722a.729.729,0,0,1,.56-.24.6.6,0,0,1,.56.32l3.121,4.081a.57.57,0,0,0,.48.24.724.724,0,0,0,.56-.24l3.121-4.081a.813.813,0,0,1,.56-.32.727.727,0,0,1,.56.24l3.681,4.722V15.722L25.376,11a.772.772,0,0,0-1.12,0l-3.121,4.081a.729.729,0,0,1-.56.24c-.24,0-.16-.08-.32-.24m-8,7.923H29.3v5.361H12.251Z" transform="translate(-12.251 -10.759)" fill="#fff"/>
    </g>
    <g id="g21099" transform="translate(179.688 1.058)">
      <path id="path21101" d="M247.484,35.654V33.973c1.36,0,4.962,0,4.962-1.681V19.008H236.12V32.293c0,1.681,3.6,1.681,4.962,1.681v1.681c-5.282-.24-11.364-.24-16.566,0V33.973c1.36,0,4.962,0,4.962-1.681V4.683C229.478,3,225.876,3,224.516,3V1.322c5.282.24,11.364.24,16.566,0V3c-1.36,0-4.962,0-4.962,1.681V16.847h16.326V4.683C252.446,3,248.844,3,247.484,3V1.322c5.282.24,11.364.24,16.566,0V3c-1.36,0-4.962,0-4.962,1.681v27.37c0,1.681,3.6,1.681,4.962,1.681v1.681c-5.282-.08-11.364-.08-16.566.24" transform="translate(-224.516 -1.322)" fill="#0079c1"/>
    </g>
    <g id="g21103" transform="translate(222.231 11.3)">
      <path id="path21105" d="M293.121,25.164c-4.962.56-9.123.8-9.123,6.4,0,2.241.8,4.722,3.841,4.722,4.161,0,5.282-3.6,5.282-6.642V25.164Zm4.161,13.045c-1.921,0-3.841-.24-3.841-2.481a11.507,11.507,0,0,1-8,2.8c-5.282,0-7.763-2.481-7.763-7.2,0-8,9.683-7.443,15.765-7.763v-3.6c0-2.481-1.36-4.161-4.4-4.161-3.281,0-4.4,1.681-4.4,4.4,0,1.36-1.12,1.36-2.241,1.36-1.681,0-3.041,0-3.041-1.921,0-4.4,5.282-5.522,9.123-5.522,6.4,0,10.8.8,10.8,7.443V32.606c0,3.281.24,3.6,3.841,3.841v1.681c-2,.08-3.921.08-5.842.08" transform="translate(-277.676 -14.12)" fill="#0079c1"/>
    </g>
    <g id="g21107" transform="translate(249.405 11.625)">
      <path id="path21109" d="M330.758,21.969c-4.722,0-.8-5.282-4.161-5.282-3.6,0-4.4,5.842-4.4,8.323v9.923c0,1.921,3.041,1.921,4.4,1.921v1.681c-4.962-.24-9.923-.24-14.965,0V36.854c1.36,0,4.161,0,4.161-1.921V18.367c0-1.681-2.8-1.921-4.161-1.921v-1.36h10.244v3.6h0c1.36-2.241,3.6-4.161,6.4-4.161,3.041,0,4.962,1.681,4.962,4.4.24,1.921-.32,3.041-2.481,3.041" transform="translate(-311.631 -14.526)" fill="#0079c1"/>
    </g>
    <g id="g21111" transform="translate(274.069 11.625)">
      <path id="path21113" d="M361.578,21.969c-4.722,0-.8-5.282-4.161-5.282-3.6,0-4.4,5.842-4.4,8.323v9.923c0,1.921,3.041,1.921,4.4,1.921v1.681c-4.962-.24-9.923-.24-14.965,0V36.854c1.36,0,4.161,0,4.161-1.921V18.367c0-1.681-2.8-1.921-4.161-1.921v-1.36h10.244v3.6h0c1.36-2.241,3.6-4.161,6.4-4.161,3.041,0,4.962,1.681,4.962,4.4.24,1.921,0,3.041-2.481,3.041" transform="translate(-342.451 -14.526)" fill="#0079c1"/>
    </g>
    <g id="g21115" transform="translate(299.062 1.014)">
      <path id="path21117" d="M381.2,7.829a3.427,3.427,0,0,1-3.6-3.281c0-1.921,1.36-3.281,3.6-3.281a3.427,3.427,0,0,1,3.6,3.281,3.922,3.922,0,0,1-3.6,3.281m-7.523,27.61V33.758c1.361,0,4.161-.24,4.161-1.921V15.272c0-1.681-3.041-1.681-4.161-1.681v-1.36c3.281,0,6.882.24,10.484,0V32.158c0,1.681,3.041,1.921,4.161,1.921v1.681a88.755,88.755,0,0,0-14.645-.32" transform="translate(-373.681 -1.267)" fill="#0079c1"/>
    </g>
    <g id="g21119" transform="translate(317.426 11.726)">
      <path id="path21121" d="M405.511,38.66a32.688,32.688,0,0,1-8.883-1.36V30.1h2.481c0,3.6,1.921,7.2,6.4,7.2,2.8,0,5.522-1.12,5.522-3.841,0-5.842-14.085-3.041-14.085-11.364,0-5.282,4.4-7.443,9.683-7.443a24.381,24.381,0,0,1,7.443,1.36v6.082h-2.241c-.24-3.281-1.681-5.842-5.842-5.842-2.481,0-4.4.8-4.4,3.281,0,5.522,14.085,2.241,14.085,11.6.4,5.282-5.2,7.523-10.164,7.523" transform="translate(-396.628 -14.652)" fill="#0079c1"/>
    </g>
  </g>
</svg>
