<svg id="Group_6069" data-name="Group 6069" xmlns="http://www.w3.org/2000/svg" width="187.188" height="28.123" viewBox="0 0 187.188 28.123">
  <g id="logo" transform="translate(158.912)">
    <path id="logo-ne" d="M572.205,405.623a.976.976,0,0,0-.977.975v6.992h18.46l-8.436-7.967H572.2" transform="translate(-562.076 -405.623)" fill="#117aca"/>
    <path id="logo-se" d="M600.034,423.4a.977.977,0,0,0-.977-.977h-6.992v18.457l7.967-8.436V423.4" transform="translate(-571.758 -413.427)" fill="#117aca"/>
    <path id="logo-sw" d="M572.863,451.231a.976.976,0,0,0,.977-.975v-7H555.382l8.436,7.967h9.049" transform="translate(-554.714 -423.108)" fill="#117aca"/>
    <path id="logo-nw" d="M554.135,424.354a.976.976,0,0,0,.975.977H562.1V406.875l-7.967,8.435v9.049" transform="translate(-554.135 -406.205)" fill="#117aca"/>
  </g>
  <g id="type">
    <path id="H" d="M334.1,405.623v11.113H318.5V405.623h-5.645v28.052H318.5V421.624h15.525v12.051h5.642V405.623H334.1" transform="translate(-283.125 -405.623)" fill="#211e1e"/>
    <path id="E" d="M492.1,405.623v27.984h24.866l-3.163-4.955h-15.99v-7.03h15.524v-4.752H497.808v-6.427H513.8l3.091-4.82H492.1" transform="translate(-366.399 -405.623)" fill="#211e1e"/>
    <path id="C" d="M266.193,405.623c-5.848,0-8.871,3.616-8.871,8.771v10.443c0,6.026,3.83,8.838,8.8,8.838h17.743l-3.294-5.088H267.268c-2.823,0-4.1-1-4.1-4.218v-9.506c0-3.079,1.009-4.285,4.167-4.285h13.442l3.159-4.955H266.193" transform="translate(-257.322 -405.623)" fill="#211e1e"/>
    <path id="S" d="M439.917,405.623c-3.428,0-6.855,2.008-6.855,7.3v1.338c0,5.49,3.36,7.565,6.72,7.565h11.76c1.211,0,2.218.2,2.218,2.277v2.41c0,1.874-.937,2.276-2.285,2.276H435.952l-3.158,4.955h19.018c4.57,0,7.733-2.276,7.733-7.5V424.3c0-5.088-2.89-7.5-7.393-7.5H440.929c-1.277,0-2.083-.335-2.083-2.208v-1.942c0-1.54.606-2.142,2.017-2.142h14.785l3.086-4.821-18.817-.067" transform="translate(-338.848 -405.623)" fill="#211e1e"/>
    <path id="A" d="M381.863,405.623,368.49,433.675h6.318l2.621-5.758h14.516l2.621,5.758h6.318l-13.441-28.052Zm2.757,5.824,5.107,11.649H379.512l5.108-11.649" transform="translate(-308.971 -405.623)" fill="#211e1e"/>
  </g>
</svg>
