<svg id="Group_8135" data-name="Group 8135" xmlns="http://www.w3.org/2000/svg" width="115.805" height="33.277" viewBox="0 0 115.805 33.277">
  <path id="Path_7176" data-name="Path 7176" d="M383.317,537.8a9.064,9.064,0,0,0-6.8,3.243,9.089,9.089,0,0,0-6.8-3.243s-7.78-.587-7.78,8.5v14.715h5.641V547.136c0-4.071,2.726-4.157,3.26-4.036a3.083,3.083,0,0,1,1.88.983,10.545,10.545,0,0,0-1.932,5.3s-.4,7.642,5.727,7.642,5.727-7.642,5.727-7.642a10.545,10.545,0,0,0-1.932-5.3,3.083,3.083,0,0,1,1.88-.983c.517-.121,3.26-.035,3.26,4.036v13.887H391.1V546.308C391.08,537.216,383.317,537.8,383.317,537.8ZM376.5,552.881c-1.208,0-1.6-1.518-1.622-2.967a7.039,7.039,0,0,1,1.622-4.365,6.93,6.93,0,0,1,1.622,4.365C378.125,551.362,377.71,552.881,376.5,552.881Z" transform="translate(-305.93 -528.126)" fill="#1ec677"/>
  <path id="Path_7177" data-name="Path 7177" d="M351.12,538.519h-5.641v22.857h5.641Z" transform="translate(-298.28 -528.462)" fill="#1ec677"/>
  <path id="Path_7178" data-name="Path 7178" d="M347.784,520.024a3.407,3.407,0,1,0,3.381,3.381A3.42,3.42,0,0,0,347.784,520.024Z" transform="translate(-297.756 -519.869)" fill="#1ec677"/>
  <path id="Path_7179" data-name="Path 7179" d="M307.279,531.326V519.734H301.69v32.914h5.589V536.174c9.264-4.5,8.919,2.622,8.919,2.622v13.852H321.8V538.8C321.788,525.409,310.091,529.826,307.279,531.326Z" transform="translate(-277.936 -519.734)" fill="#1ec677"/>
  <path id="Path_7180" data-name="Path 7180" d="M426.044,550.73a22.633,22.633,0,0,0,6.814.966c9.04-.051,8.781-6.624,8.781-6.624-.224-7.4-8.919-7.263-8.919-7.263-7.194,0-12.23,4.934-12.23,11.989s4.934,11.61,12.559,11.61a14.683,14.683,0,0,0,8.487-2.467v-5.434a11.877,11.877,0,0,1-7.832,2.984C433.72,556.492,425.888,556.889,426.044,550.73Zm.69-4.813a5.646,5.646,0,0,1,5.71-3.657c2.294,0,3.622.966,3.622,2.5,0,2.156-2.432,2.346-4.709,2.346a18.313,18.313,0,0,1-4.244-.4l-.6-.138Z" transform="translate(-333.131 -528.132)" fill="#1ec677"/>
  <path id="Path_7181" data-name="Path 7181" d="M269.5,561.409a13.86,13.86,0,0,0,8.453-2.761V553.18a13.319,13.319,0,0,1-7.935,3.071,6.643,6.643,0,0,1-6.987-6.9A6.183,6.183,0,0,1,269.4,542.8a12.354,12.354,0,0,1,3.4.621,13.376,13.376,0,0,0,3.8.69,8.831,8.831,0,0,0,1.345-.1v-5.21c-.38.035-.741.069-1.121.069a17.468,17.468,0,0,1-3.691-.5,19.253,19.253,0,0,0-4.192-.552,11.3,11.3,0,0,0-11.61,11.8C257.322,556.562,262.325,561.409,269.5,561.409Z" transform="translate(-257.322 -528.132)" fill="#1ec677"/>
  <path id="Path_7182" data-name="Path 7182" d="M468.132,540.59a2.58,2.58,0,0,0-.165-.94,2.2,2.2,0,0,0-.458-.737,2.029,2.029,0,0,0-.685-.474,2.053,2.053,0,0,0-.842-.173,2.124,2.124,0,0,0-.857.173,2.029,2.029,0,0,0-.685.474,2.211,2.211,0,0,0-.459.737,2.592,2.592,0,0,0-.165.94,2.671,2.671,0,0,0,.15.9,2.246,2.246,0,0,0,.429.737,2.2,2.2,0,0,0,2.429.519,2.129,2.129,0,0,0,.685-.481,2.216,2.216,0,0,0,.458-.73A2.6,2.6,0,0,0,468.132,540.59Zm.6,0a2.853,2.853,0,0,1-.225,1.151,2.621,2.621,0,0,1-.6.888,2.658,2.658,0,0,1-.88.571,2.735,2.735,0,0,1-1.046.2,2.908,2.908,0,0,1-1.121-.211,2.716,2.716,0,0,1-.873-.594,2.822,2.822,0,0,1-.571-.888,3.047,3.047,0,0,1-.2-1.121,2.935,2.935,0,0,1,.218-1.151,2.782,2.782,0,0,1,.6-.888,2.751,2.751,0,0,1,.887-.571,2.811,2.811,0,0,1,1.061-.2,2.736,2.736,0,0,1,1.046.2,2.669,2.669,0,0,1,.88.571,2.627,2.627,0,0,1,.6.888A2.853,2.853,0,0,1,468.734,540.59ZM466,540.432c.1,0,.186,0,.271-.008a.643.643,0,0,0,.233-.068.436.436,0,0,0,.158-.143.517.517,0,0,0,.061-.271.346.346,0,0,0-.068-.225.4.4,0,0,0-.158-.128.613.613,0,0,0-.218-.053,1.947,1.947,0,0,0-.233-.015h-.617v.91Zm-.572,1.767h-.511v-3.113h1.181a1.427,1.427,0,0,1,.85.211.793.793,0,0,1,.286.684.759.759,0,0,1-.233.617,1.053,1.053,0,0,1-.579.233l.872,1.369h-.579l-.8-1.331h-.482Z" transform="translate(-352.981 -528.117)" fill="#1ec677"/>
  <path id="Path_7183" data-name="Path 7183" d="M466.758,538.442a2,2,0,0,0-.821-.169,2.077,2.077,0,0,0-.837.169h0a1.975,1.975,0,0,0-.667.462,2.149,2.149,0,0,0-.448.72,2.531,2.531,0,0,0-.162.921,2.615,2.615,0,0,0,.147.885,2.191,2.191,0,0,0,.419.72,2.144,2.144,0,0,0,2.37.506,2.064,2.064,0,0,0,.667-.469,2.188,2.188,0,0,0,.449-.713,2.562,2.562,0,0,0,.162-.929,2.533,2.533,0,0,0-.162-.921,2.159,2.159,0,0,0-.448-.72,1.965,1.965,0,0,0-.667-.462Zm.021,4.262a2.14,2.14,0,0,1-.842.165,2.037,2.037,0,0,1-1.587-.685,2.246,2.246,0,0,1-.429-.737,2.671,2.671,0,0,1-.15-.9,2.591,2.591,0,0,1,.165-.94,2.211,2.211,0,0,1,.459-.737,2.03,2.03,0,0,1,.685-.474,2.124,2.124,0,0,1,.857-.173,2.053,2.053,0,0,1,.842.173,2.029,2.029,0,0,1,.685.474,2.2,2.2,0,0,1,.458.737,2.775,2.775,0,0,1,0,1.888,2.217,2.217,0,0,1-.458.73A2.128,2.128,0,0,1,466.779,542.7Zm-1.984.491a2.774,2.774,0,0,1-.889-.606h0a2.859,2.859,0,0,1-.582-.9h0a3.094,3.094,0,0,1-.207-1.139,3,3,0,0,1,.222-1.171h0a2.834,2.834,0,0,1,.613-.9h0a2.8,2.8,0,0,1,.9-.583,2.859,2.859,0,0,1,1.08-.207,2.782,2.782,0,0,1,1.065.207,2.723,2.723,0,0,1,.9.583,2.676,2.676,0,0,1,.614.9,3.1,3.1,0,0,1,0,2.342,2.671,2.671,0,0,1-.614.9,2.715,2.715,0,0,1-.9.583,2.783,2.783,0,0,1-1.065.207,2.974,2.974,0,0,1-1.14-.214Zm2.187-.04a2.659,2.659,0,0,0,.88-.571,2.621,2.621,0,0,0,.6-.888,3.049,3.049,0,0,0,0-2.3,2.627,2.627,0,0,0-.6-.888,2.667,2.667,0,0,0-.88-.571,2.737,2.737,0,0,0-1.046-.2,2.813,2.813,0,0,0-1.061.2,2.75,2.75,0,0,0-.887.571,2.782,2.782,0,0,0-.6.888,2.936,2.936,0,0,0-.218,1.151,3.046,3.046,0,0,0,.2,1.121,2.821,2.821,0,0,0,.571.888,2.716,2.716,0,0,0,.873.594,2.908,2.908,0,0,0,1.121.211A2.736,2.736,0,0,0,466.982,543.155Zm-.417-3.45v0a.347.347,0,0,0-.138-.111.555.555,0,0,0-.2-.048h0a1.853,1.853,0,0,0-.227-.014h-.565v.806h.52c.094,0,.183,0,.267-.007a.586.586,0,0,0,.213-.062.384.384,0,0,0,.139-.125.471.471,0,0,0,.052-.243.3.3,0,0,0-.056-.193Zm.048.465a.436.436,0,0,1-.158.143.642.642,0,0,1-.233.068c-.085,0-.176.007-.271.007h-.572v-.91H466a1.96,1.96,0,0,1,.233.015.611.611,0,0,1,.218.053.4.4,0,0,1,.158.128.346.346,0,0,1,.068.225A.517.517,0,0,1,466.613,540.17Zm-1.182,2.037h-.615V538.99h1.233a1.473,1.473,0,0,1,.88.221.844.844,0,0,1,.307.726.812.812,0,0,1-.252.656,1.079,1.079,0,0,1-.526.234l.88,1.38h-.7l-.8-1.331h-.4Zm-.052-1.383h.482l.8,1.331h.579l-.872-1.368.057-.008a1.035,1.035,0,0,0,.522-.226.759.759,0,0,0,.233-.617.793.793,0,0,0-.286-.684,1.427,1.427,0,0,0-.85-.21h-1.181v3.113h.511Z" transform="translate(-352.936 -528.072)" fill="#1ec677" fill-rule="evenodd"/>
</svg>
