<svg id="layer1" xmlns="http://www.w3.org/2000/svg" width="158.151" height="41.265" viewBox="0 0 158.151 41.265">
  <g id="g4940">
    <path id="path1274" d="M276.771,685.179l-.114.11a8.667,8.667,0,0,1-6.169,2.871c-4.585,0-7.912-3.439-7.912-8.185s3.327-8.181,7.912-8.181a8.658,8.658,0,0,1,6.169,2.88l.114.113,2.948-3.565-.079-.1a11.25,11.25,0,0,0-9.01-4.308,13.677,13.677,0,0,0-9.338,3.424,13.926,13.926,0,0,0,0,19.473,13.631,13.631,0,0,0,9.338,3.428,11.249,11.249,0,0,0,9.01-4.308l.079-.09Z" transform="translate(-257.322 -651.938)" fill="#003b70"/>
    <path id="path1276" d="M304.719,693.016h5.208V667.591h-5.208v25.425Z" transform="translate(-279.343 -652.297)" fill="#003b70"/>
    <path id="path1278" d="M338.846,680.642A7.549,7.549,0,0,1,335,681.914c-1.683,0-2.444-.888-2.444-2.867V665.557h5.3v-4.788h-5.3v-7.911l-5.1,2.732v5.179h-4.4v4.788h4.4v14.351c0,3.91,2.316,6.582,5.774,6.651a8.21,8.21,0,0,0,4.623-1.164l.05-.037,1.254-4.9-.308.188Z" transform="translate(-287.86 -645.451)" fill="#003b70"/>
    <path id="path1280" d="M360.611,693.016h5.212V667.591h-5.212v25.425Z" transform="translate(-305.311 -652.297)" fill="#003b70"/>
    <path id="path1282" d="M459.41,649.521v24.253l1.622-2.525c0,.011,7.289-10.546,8.224-11.892h3.249c-.692.929-6.424,8.818-6.424,8.818s7.467,15.56,7.9,16.446h-3.191c-.175-.363-6.59-13.943-6.59-13.943l-4.789,6.71v7.233h-2.973v-33.4c.26-.149,2.273-1.3,2.973-1.7Zm-24.419,12.848a7.88,7.88,0,0,1,6.746-3.556c5.6,0,8.575,3.574,8.575,10.338v15.47h-2.98V669.792c0-5.755-2-8.427-6.327-8.427-4.143,0-6.617,3.151-6.617,8.427v14.829h-2.971V659.357h2.971v3.918Zm-18.271-3.556c5.767,0,8.571,2.637,8.571,8.064v17.744h-2.973v-3.686l-.578.638a9.972,9.972,0,0,1-7.689,3.594c-2.343,0-7.795-.775-7.795-7.968,0-5.879,4.853-7.966,9.4-7.966a13.045,13.045,0,0,1,6.174,1.443l.489.271v-3.627c0-4.021-1.964-6.058-5.845-6.058a13.346,13.346,0,0,0-6.768,1.852c-.2-.449-.882-1.968-1.073-2.4a17.607,17.607,0,0,1,8.088-1.9Zm-7.549,18.139c0,3.777,1.957,5.858,5.512,5.858a9.178,9.178,0,0,0,7.58-4.029l.056-.089v-5.539l-.165-.1a12.578,12.578,0,0,0-6.7-1.518C411.524,671.539,409.171,673.562,409.171,676.952Zm-22.954-27.431v13.515l.576-.63a9.694,9.694,0,0,1,7.4-3.593c5.576,0,8.776,4.647,8.776,12.752,0,8.263-3.635,13.6-9.262,13.6a8.666,8.666,0,0,1-6.909-3.344l-.579-.674v3.471H383.25v-33.4c.253-.149,2.269-1.3,2.967-1.7Zm.071,15.716-.071.094v13.151l.053.081a8.571,8.571,0,0,0,7.154,4.055c4.391,0,6.617-3.7,6.617-11,0-6.519-2.466-10.253-6.765-10.253-2.606,0-4.958,1.3-6.988,3.872" transform="translate(-315.829 -643.901)" fill="#003b70"/>
    <path id="path1284" d="M339.97,649.807a25.332,25.332,0,0,0-41.473,0l-.244.348h6l.067-.072a20.463,20.463,0,0,1,29.82,0l.066.072h6Z" transform="translate(-276.339 -639.025)" fill="#d9261c"/>
  </g>
</svg>
