<?xml version="1.0" encoding="utf-8"?>
<!-- Generator: Adobe Illustrator 24.0.0, SVG Export Plug-In . SVG Version: 6.00 Build 0)  -->
<svg version="1.1"
	 id="svg344" xmlns:cc="http://creativecommons.org/ns#" xmlns:dc="http://purl.org/dc/elements/1.1/" xmlns:inkscape="http://www.inkscape.org/namespaces/inkscape" xmlns:rdf="http://www.w3.org/1999/02/22-rdf-syntax-ns#" xmlns:sodipodi="http://sodipodi.sourceforge.net/DTD/sodipodi-0.dtd" xmlns:svg="http://www.w3.org/2000/svg"
	 xmlns="http://www.w3.org/2000/svg" xmlns:xlink="http://www.w3.org/1999/xlink" x="0px" y="0px" viewBox="0 0 179.6 38.5"
	 style="enable-background:new 0 0 179.6 38.5;" xml:space="preserve">
<style type="text/css">
	.st0{filter:url(#Adobe_OpacityMaskFilter);}
	.st1{fill-rule:evenodd;clip-rule:evenodd;fill:#FFFFFF;}
	.st2{mask:url(#mask-2-9_1_);fill-rule:evenodd;clip-rule:evenodd;fill:#5B8F22;}
	.st3{fill-rule:evenodd;clip-rule:evenodd;fill:#1C4094;}
</style>
<sodipodi:namedview  bordercolor="#666666" borderopacity="1.0" fit-margin-bottom="0" fit-margin-left="0" fit-margin-right="0" fit-margin-top="0" id="base" inkscape:current-layer="layer1" inkscape:cx="134.2077" inkscape:cy="19.2545" inkscape:document-units="mm" inkscape:pageopacity="0.0" inkscape:pageshadow="2" inkscape:window-height="744" inkscape:window-maximized="1" inkscape:window-width="1280" inkscape:window-x="-4" inkscape:window-y="-4" inkscape:zoom="2.9879061" pagecolor="#ffffff" showgrid="false" units="px">
	</sodipodi:namedview>
<g id="Group-3" transform="translate(0,0.5083)">
	<g id="Clip-2">
	</g>
	<defs>
		<filter id="Adobe_OpacityMaskFilter" filterUnits="userSpaceOnUse" x="0" y="-0.5" width="43.7" height="38.5">
			<feColorMatrix  type="matrix" values="1 0 0 0 0  0 1 0 0 0  0 0 1 0 0  0 0 0 1 0"/>
		</filter>
	</defs>
	<mask maskUnits="userSpaceOnUse" x="0" y="-0.5" width="43.7" height="38.5" id="mask-2-9_1_">
		<g id="use12765_1_" class="st0">
			<polygon id="path-1-1_1_" class="st1" points="0,38 43.7,38 43.7,-0.5 0,-0.5 			"/>
		</g>
	</mask>
	<path id="Fill-1" inkscape:connector-curvature="0" class="st2" d="M43.7,11c0-6.4-5.2-11.5-11.6-11.5H0v27C0,32.8,5.2,38,11.6,38
		h32.1V23.6V11z"/>
</g>
<path id="Fill-4" inkscape:connector-curvature="0" class="st1" d="M32.1,2.1h-30v25c0,5.2,4.3,9.4,9.5,9.4h30v-25
	C41.6,6.3,37.3,2.1,32.1,2.1"/>
<path id="Fill-6" inkscape:connector-curvature="0" class="st3" d="M32,3.4H3.4V27c0,4.5,3.7,8.1,8.2,8.1h28.6V11.6
	C40.3,7.1,36.5,3.4,32,3.4"/>
<path id="Fill-8" inkscape:connector-curvature="0" class="st1" d="M17.8,7.4l-0.1,5.5H7.1V7.4H17.8z M18.5,21.5
	c0.7-0.7,0.9-2.1,0.6-3.2c-0.3-1.1-0.9-2-1.9-2.6c-1.3-1-2.5-1-2.5-1H7.1c3.2,1.1,3.9,3.7,3.9,3.7c0.8,3.8-3.5,4.5-3.5,4.5h8.2
	C17.3,22.7,18.3,21.7,18.5,21.5z M33,22.9c1.8-0.3,2.5-1.2,2.8-1.5c0.7-0.7,1-2,0.7-3c-0.3-1.1-0.9-1.8-1.8-2.4
	c-1.2-0.9-2.4-0.9-2.4-0.9h-7c3,1,3.5,3.5,3.5,3.5s1.1,3.4-3.4,4.3c0,0-0.1,0,0,0c0.4,0.1,1.4,0.7,2.3,1.5c0.8,0.8,1.1,2,1.1,2
	c0.8,3.5-3.5,4.4-3.5,4.4H32c2.3,0,3.4-1.3,3.7-1.5c0.6-0.7,1.1-1.9,0.9-2.9c-0.2-1.2-0.9-1.9-1.3-2.3C34.4,23.5,33,22.9,33,22.9z
	 M19.6,31.4l6.6-24.6h-1.5l-6.5,24.7L19.6,31.4z"/>
<g>
	<path id="Fill-10" inkscape:connector-curvature="0" class="st3" d="M61.1,10.4c0,1.3-1.3,1.7-2.9,1.7h-3.9v3.6
		c1.3,0.2,2,0.8,2,1.2v0.1h-4.8V5.3c-0.8-0.2-1.4-0.8-1.4-1.1V4.1h12.2v3.2h-0.1c-0.4,0-1-0.6-1.2-1.4h-6.8v4.4h6.8L61.1,10.4z"/>
	<path id="Fill-12" inkscape:connector-curvature="0" class="st3" d="M68.1,16.9h-4.9v-0.1c0-0.3,0.5-0.9,1.2-1.2V7.3
		c-0.7-0.2-1.2-0.8-1.2-1.2V6h4.9v0.1c0,0.3-0.5,0.9-1.2,1.2v8.4C67.6,15.9,68.1,16.5,68.1,16.9"/>
	<path id="Fill-14" inkscape:connector-curvature="0" class="st3" d="M79,11.4c0,1.2-1.2,1.6-2.5,1.6h-3.2v2.6
		c1,0.1,1.9,0.8,1.9,1.2v0.1h-4.3V7.3c-0.7-0.2-1.2-0.8-1.2-1.2V6h10.5v2.9h-0.1c-0.4,0-1-0.5-1.2-1.1h-5.6v3.3H79L79,11.4z"/>
	<path id="Fill-16" inkscape:connector-curvature="0" class="st3" d="M91.6,6.1V9h-0.1c-0.4,0-1-0.5-1.2-1.1h-2.7v7.8
		c1,0.2,1.7,0.8,1.7,1.2v0.1h-5.7v-0.1c0-0.3,0.7-0.9,1.7-1.2V7.8h-3C82,8.5,81.4,9,81,9h-0.1V6.1L91.6,6.1z"/>
	<path id="Fill-18" inkscape:connector-curvature="0" class="st3" d="M96.1,10.5c0.8-0.1,1.8-0.3,3.4-0.3s2.6,0.1,3.4,0.3V7.3
		c-0.7-0.2-1.2-0.8-1.2-1.2V6h4.9v0.1c0,0.3-0.5,0.9-1.2,1.2v8.4c0.7,0.2,1.2,0.8,1.2,1.2v0.1h-3.6v-4.4c-1-0.1-1.8-0.3-3.4-0.3
		s-2.6,0.1-3.4,0.3v3.2c0.7,0.2,1.2,0.8,1.2,1.2v0.1h-3.6V7.4c-0.7-0.2-1.2-0.8-1.2-1.2V6.1h4.9v0.1c0,0.3-0.5,0.9-1.2,1.2v3.1
		L96.1,10.5z"/>
	<path id="Fill-20" inkscape:connector-curvature="0" class="st3" d="M129.1,4.1v3.2c-0.4,0-1-0.6-1.3-1.4h-4v9.8
		c0.8,0.2,1.4,0.8,1.4,1.2h-5.6c0-0.3,0.6-0.9,1.4-1.2V5.9h-4c-0.2,0.8-0.8,1.4-1.2,1.4h-0.1V4.1L129.1,4.1z"/>
	<path id="Fill-22" inkscape:connector-curvature="0" class="st3" d="M133.4,10.5c0.8-0.1,1.8-0.3,3.4-0.3c1.7,0,2.6,0.1,3.4,0.3
		V7.3c-0.7-0.2-1.2-0.8-1.2-1.2V6h4.9v0.1c0,0.3-0.5,0.9-1.2,1.2v8.4c0.7,0.2,1.2,0.8,1.2,1.2v0.1h-3.7v-4.4c-1-0.1-1.8-0.3-3.4-0.3
		c-1.7,0-2.6,0.1-3.4,0.3v3.2c0.7,0.2,1.2,0.8,1.2,1.2v0.1H131V7.4c-0.7-0.2-1.2-0.8-1.2-1.2V6.1h4.9v0.1c0,0.3-0.5,0.9-1.2,1.2v3.1
		L133.4,10.5z"/>
	<path id="Fill-24" inkscape:connector-curvature="0" class="st3" d="M150.3,16.9h-4.9v-0.1c0-0.3,0.5-0.9,1.2-1.2V7.3
		c-0.7-0.2-1.2-0.8-1.2-1.2V6h4.9v0.1c0,0.3-0.5,0.9-1.2,1.2v8.4C149.8,15.9,150.3,16.5,150.3,16.9"/>
	<path id="Fill-26" inkscape:connector-curvature="0" class="st3" d="M156.7,16.9h-3.6v-1.3V7.3C152.4,7,152,6.5,152,6.1V6h7.8
		c2.7,0,4.5,0.9,4.5,3.2c0,1.8-1.2,2.8-3.1,3.1l2.4,3.3c0.6,0.1,1.4,0.7,1.4,1.1v0.1h-3.4l-3-4.4h-3.1v3.2
		C156.2,15.9,156.7,16.5,156.7,16.9z M159.4,11c2,0,2.4-0.7,2.4-1.5c0-0.9-0.4-1.5-2.4-1.5h-3.9v3L159.4,11z"/>
	<path id="Fill-28" inkscape:connector-curvature="0" class="st3" d="M167.5,7.3c-0.7-0.2-1.2-0.8-1.2-1.2V6h7.7
		c3.1,0,5.6,1.7,5.6,5.4c0,3.7-2.4,5.4-5.6,5.4h-6.5V7.3z M173.2,15.1c2.6,0,3.9-0.8,3.9-3.7s-1.3-3.7-3.9-3.7h-3.3v7.4L173.2,15.1z
		"/>
</g>
<g>
	<path id="Fill-30" inkscape:connector-curvature="0" class="st3" d="M59.2,22.3c3,0,5.1,0.8,5.1,3.2c0,1.5-1,2.5-2.9,2.9
		c2.1,0.3,3.2,1.4,3.2,3.1c0,2.1-1.7,3.6-4.8,3.6h-8.3V23.6c-0.8-0.2-1.4-0.8-1.4-1.2v-0.1H59.2z M59,27.5c1.6,0,2.8-0.3,2.8-1.7
		c0-1.3-1.2-1.4-2.8-1.4H54v3.1H59z M59,33.1c2.2,0,3-0.6,3-1.7c0-1.1-0.8-1.8-3-1.8H54v3.6H59z"/>
	<path id="Fill-32" inkscape:connector-curvature="0" class="st3" d="M79.7,25.5c-0.7-0.2-1.2-0.8-1.2-1.2v-0.1h3.3l7.1,7.4v-6.1
		c-0.7-0.2-1.1-0.8-1.1-1.2v-0.1h4.5v0.1c0,0.3-0.5,0.9-1.2,1.2v8.4c0.7,0.2,1.2,0.8,1.2,1.2v0.1h-3.1l-7.4-7.6v6.3
		c0.7,0.2,1.2,0.8,1.2,1.2v0.1h-3.3L79.7,25.5z"/>
	<path id="Fill-34" inkscape:connector-curvature="0" class="st3" d="M102.1,25.4c-0.3-0.2-0.6-0.7-0.6-0.9v-0.1h4.5v0.1
		c0,0.6-0.7,1-1.3,1.1l-3.9,3.3l4.4,5.1c0.6,0.1,1.3,0.6,1.3,1.2v0.1h-3.3L99,30.4l-1.7,1.3v2.4c0.7,0.2,1.2,0.8,1.2,1.2v0.1H95
		v-9.7c-0.7-0.2-1.1-0.8-1.1-1.1v-0.1h4.7v0.1c0,0.3-0.5,0.9-1.2,1.1v3.7L102.1,25.4z"/>
	<path id="Fill-36" inkscape:connector-curvature="0" class="st3" d="M69.1,35.1L69.1,35.1l-4.5,0.1v-0.1c0-0.6,0.7-1,1.3-1.2
		l3.9-8.5c-0.5-0.2-0.9-0.7-0.9-1v-0.1h5.2v0.1c0,0.3-0.5,0.8-0.9,1l4.3,8.5c0.6,0.1,1.3,0.6,1.3,1.2v0.1h-5.1v-0.1
		c0-0.6,0.6-0.9,1.2-1.2l-0.7-1.4c-0.7-0.1-1.5-0.2-2.8-0.2c-1.2,0-2.1,0.1-2.6,0.2l-0.6,1.4C68.5,34.1,69.1,34.5,69.1,35.1
		L69.1,35.1z M71.2,26.9l-1.7,3.8c0.5-0.1,1.2-0.1,1.8-0.1c0.8,0,1.4,0,1.8,0.1l-1.8-3.8H71.2z"/>
</g>
</svg>
