<svg xmlns="http://www.w3.org/2000/svg" width="291.778" height="26.068" viewBox="0 0 291.778 26.068">
  <g id="Group_8205" data-name="Group 8205" transform="translate(-253.772 -797.191)">
    <g id="Group_8202" data-name="Group 8202" transform="translate(253.772 797.191)">
      <path id="Path_7285" data-name="Path 7285" d="M283.025,810.407v-5.434a7.8,7.8,0,0,0-7.781-7.781H253.772v7.636h0v10.658a7.8,7.8,0,0,0,7.781,7.759h21.472V810.407Z" transform="translate(-253.772 -797.191)" fill="#32b35e"/>
      <path id="Path_7286" data-name="Path 7286" d="M276.433,799.75h-20.1v16.9a6.39,6.39,0,0,0,6.372,6.371h20.1v-16.9A6.39,6.39,0,0,0,276.433,799.75Z" transform="translate(-254.94 -798.36)" fill="#fff"/>
      <path id="Path_7287" data-name="Path 7287" d="M277.151,801.455H258.036v15.914a5.521,5.521,0,0,0,5.505,5.505h19.115V806.96A5.521,5.521,0,0,0,277.151,801.455Z" transform="translate(-255.719 -799.138)" fill="#362092"/>
      <path id="Path_7288" data-name="Path 7288" d="M269.68,805.988l-.062,3.72-7.1.008v-3.74Zm.469,9.5a2.412,2.412,0,0,0,.357-2.176,3.245,3.245,0,0,0-1.244-1.789,3.461,3.461,0,0,0-1.734-.7l-5-.011a4.042,4.042,0,0,1,2.608,2.541c.53,2.557-2.4,3.043-2.4,3.043h5.485A2.9,2.9,0,0,0,270.149,815.49Zm9.683,1.005a3.211,3.211,0,0,0,1.886-1.016,2.272,2.272,0,0,0,.449-2.027,2.967,2.967,0,0,0-1.155-1.648,2.875,2.875,0,0,0-1.662-.588l-4.66-.011a3.614,3.614,0,0,1,2.378,2.367s.735,2.3-2.307,2.911c0,0-.041-.01-.008,0a4.7,4.7,0,0,1,1.588,1.065,3.118,3.118,0,0,1,.707,1.349c.492,2.382-2.374,2.968-2.374,2.968l4.55-.009a3.076,3.076,0,0,0,2.429-1.022,2.344,2.344,0,0,0,.589-1.944,2.715,2.715,0,0,0-.919-1.551,6.445,6.445,0,0,0-1.493-.852C279.818,816.489,279.832,816.495,279.832,816.495Zm-8.946,5.707,4.4-16.645-1.043-.034-4.4,16.681Z" transform="translate(-257.767 -800.996)" fill="#fff"/>
    </g>
    <g id="Group_8204" data-name="Group 8204" transform="translate(291.584 797.211)">
      <g id="Group_8203" data-name="Group 8203" transform="translate(0)">
        <path id="Path_7289" data-name="Path 7289" d="M344.65,810.063c0,2.678-2.593,3.47-5.562,3.47H331.4v7.276c2.675.462,3.887,1.589,3.887,2.3v.168h-9.115v-23.54c-1.589-.546-2.8-1.63-2.8-2.384v-.123h23.916v6.562h-.169c-.751,0-1.88-1.212-2.382-2.842H331.4v8.822H344.65Z" transform="translate(-323.367 -797.228)" fill="#274294"/>
        <path id="Path_7290" data-name="Path 7290" d="M380.22,826.685h-9.448v-.211c0-.71,1-1.879,2.341-2.3V807.2c-1.337-.417-2.341-1.588-2.341-2.3v-.207h9.448v.207c0,.712-1,1.882-2.34,2.3v16.977c1.338.419,2.34,1.588,2.34,2.3Z" transform="translate(-345.016 -800.637)" fill="#274294"/>
        <path id="Path_7291" data-name="Path 7291" d="M411.976,815.48c0,2.34-2.259,3.261-4.852,3.261h-6.312v5.435c1.922.334,3.637,1.588,3.637,2.3v.211h-8.4V807.2c-1.338-.417-2.341-1.588-2.341-2.3v-.207h20.487v5.937h-.209c-.711,0-1.881-1.006-2.3-2.341H400.813v6.858h11.164Z" transform="translate(-355.489 -800.637)" fill="#274294"/>
        <path id="Path_7292" data-name="Path 7292" d="M455.43,804.692v5.937h-.209c-.712,0-1.882-1.006-2.3-2.341h-5.376v15.888c1.755.419,3.178,1.588,3.178,2.3v.211H439.6v-.211c0-.71,1.423-1.879,3.178-2.3V808.288H437.06c-.419,1.336-1.59,2.341-2.3,2.341h-.208v-5.937Z" transform="translate(-374.143 -800.637)" fill="#274294"/>
        <path id="Path_7293" data-name="Path 7293" d="M483.209,813.721a30.015,30.015,0,0,1,6.69-.625,35.157,35.157,0,0,1,6.775.625V807.2c-1.338-.417-2.342-1.588-2.342-2.3v-.207h9.45v.207c0,.712-1.005,1.882-2.342,2.3v16.977c1.337.419,2.342,1.588,2.342,2.3v.211h-7.108v-8.948a35.093,35.093,0,0,0-6.775-.629,29.932,29.932,0,0,0-6.69.629v6.439c1.338.419,2.342,1.588,2.342,2.3v.211h-7.109V807.2c-1.338-.417-2.34-1.588-2.34-2.3v-.207h9.449v.207c0,.712-1,1.882-2.342,2.3Z" transform="translate(-393.118 -800.637)" fill="#274294"/>
        <path id="Path_7294" data-name="Path 7294" d="M586.3,797.228v6.562h-.083c-.8,0-1.924-1.212-2.468-2.842h-7.985v19.86c1.547.462,2.8,1.629,2.8,2.385v.082H567.7v-.082c0-.756,1.17-1.923,2.8-2.385v-19.86h-7.945c-.5,1.629-1.588,2.842-2.382,2.842h-.125v-6.562Z" transform="translate(-431.453 -797.228)" fill="#274294"/>
        <path id="Path_7295" data-name="Path 7295" d="M617.866,813.721a29.966,29.966,0,0,1,6.689-.625,35.163,35.163,0,0,1,6.774.625V807.2c-1.337-.417-2.342-1.588-2.342-2.3v-.207h9.45v.207c0,.712-1,1.882-2.342,2.3v16.977c1.339.419,2.342,1.588,2.342,2.3v.211h-7.108v-8.948a35.1,35.1,0,0,0-6.774-.629,29.884,29.884,0,0,0-6.689.629v6.439c1.338.419,2.341,1.588,2.341,2.3v.211H613.1V807.2c-1.338-.417-2.342-1.588-2.342-2.3v-.207h9.449v.207c0,.712-1,1.882-2.341,2.3Z" transform="translate(-454.612 -800.637)" fill="#274294"/>
        <path id="Path_7296" data-name="Path 7296" d="M677.014,826.685h-9.451v-.211c0-.71,1-1.879,2.343-2.3V807.2c-1.339-.417-2.343-1.588-2.343-2.3v-.207h9.451v.207c0,.712-1,1.882-2.344,2.3v16.977c1.34.419,2.344,1.588,2.344,2.3Z" transform="translate(-480.555 -800.637)" fill="#274294"/>
        <path id="Path_7297" data-name="Path 7297" d="M700.268,826.685H693.16V807.2c-1.334-.417-2.34-1.588-2.34-2.3v-.207h15.427c5.355,0,8.865,1.754,8.865,6.52,0,3.679-2.34,5.521-6.02,6.191l4.685,6.772c1.168.168,2.717,1.38,2.717,2.3v.211h-6.65l-5.939-8.948h-5.979v6.439c1.338.419,2.342,1.588,2.342,2.3Zm5.309-12.21c4.017,0,4.77-1.3,4.77-3.093s-.753-3.094-4.77-3.094h-7.651v6.187Z" transform="translate(-491.175 -800.637)" fill="#274294"/>
        <path id="Path_7298" data-name="Path 7298" d="M745.047,807.2c-1.338-.417-2.34-1.588-2.34-2.3v-.207h15.261c6.145,0,10.869,3.513,10.869,10.995s-4.724,11-10.869,11H745.047ZM756.3,823.09c5.224,0,7.774-1.592,7.774-7.4s-2.55-7.4-7.774-7.4h-6.484v14.8Z" transform="translate(-514.871 -800.637)" fill="#274294"/>
      </g>
    </g>
  </g>
</svg>
