<svg id="Group_6075" data-name="Group 6075" xmlns="http://www.w3.org/2000/svg" width="150.272" height="28.119" viewBox="0 0 150.272 28.119">
  <g id="Group_6074" data-name="Group 6074">
    <path id="Path_4766" data-name="Path 4766" d="M257.322,901.968v28.119h41.969V901.968ZM290.4,927.659a4.686,4.686,0,0,1-3.852-2.461h-.066v2.264c-1.395-.067-3.32-.266-4.716-.266h-5.976v-.732h1.794v-9.256c0-1.531-.8-2.264-1.794-2.264-1.992,0-3.653,2.929-3.653,4.727v6.857h1.727v.732h-5.976v-.732h1.727v-9.323c0-1.532-.8-2.264-1.794-2.264-1.992,0-3.654,2.929-3.654,5.389v6.192h1.789v.732h-5.975v-.732h1.592V915.076h-1.595v-.732h.532a13.58,13.58,0,0,0,3.653-.333v3.062h.07c1.13-1.8,1.992-3.062,4.383-3.062a3.266,3.266,0,0,1,3.454,3.062h.067c1.062-1.8,2.391-3.062,4.516-3.062,1.195,0,3.515.469,3.515,3.795v8.656h1.595l2.391-.067V905.289H282.3v-.732h.731a22.417,22.417,0,0,0,3.653-.266v11.917h.066a4.425,4.425,0,0,1,3.654-2.33c4.517,0,6.309,3.928,6.309,6.857C296.641,924.8,293.918,927.659,290.4,927.659Z" transform="translate(-257.322 -901.968)" fill="#ef3f35"/>
    <path id="Path_4767" data-name="Path 4767" d="M315.758,925.526a4.224,4.224,0,0,0-3.719,3.188c-.134.864-.134,3.653-.134,4.517,0,4.118,2.922,4.716,3.852,4.716,3.255,0,3.321-3.72,3.321-6.309C319.079,929.112,318.946,925.526,315.758,925.526Z" transform="translate(-282.682 -912.913)" fill="#ef3f35"/>
  </g>
  <path id="Path_4768" data-name="Path 4768" d="M355.4,908.932c0-1.533-1.46-2.132-2.655-2.132-3.055,0-5.313,2.4-5.313,7.994v1.6h-2.459v.732h2.461V928.65h-2.461v.732h7.505v-.732h-2.584V917.191h2.59v-.732h-2.59v-3.731c0-3.264,1-5.2,2.524-5.2.2,0,.731.067.731.2,0,.4-.266.468-.266.8,0,.866.469,1.532,1.262,1.532A1.239,1.239,0,0,0,355.4,908.932Zm4.051,7.327a16.931,16.931,0,0,1-3.653.333h-1.063v.732h2.188v11.391h-2.186v.732h6.708v-.732h-1.992Zm-1.327-2.731a1.632,1.632,0,1,0-1.594-1.731,1.662,1.662,0,0,0,1.59,1.731Zm17.34,5.928c0-3-2.723-3.264-3.852-3.264-2.392,0-3.653,1.4-4.517,3.464h-.067v-3.463a16.734,16.734,0,0,1-1.794.266,16.149,16.149,0,0,1-1.794.066h-.664v.732h1.794v11.457h-1.8v.732h6.045v-.732h-1.728v-6.127c0-2.461,1.66-5.529,3.919-5.529,1.262,0,2.059.333,2.059,2.731v8.86H371.4v.732h5.975v-.732h-1.724l-.2-9.193Zm29.156,0c0-3-2.723-3.264-3.852-3.264-2.391,0-3.653,1.4-4.517,3.464h-.067v-3.463a16.735,16.735,0,0,1-1.794.266,16.144,16.144,0,0,1-1.794.066h-.664v.732h1.794v11.457h-1.8v.732h6.045v-.732h-1.727v-6.127c0-2.461,1.66-5.529,3.919-5.529,1.262,0,2.059.333,2.059,2.731v8.86h-1.66v.732h5.975v-.732H404.61ZM389.4,928.65c-.664,0-.664-.533-.664-1.532v-7.861c0-1.332,0-3.264-4.452-3.264-3.853,0-5.181,2-5.181,3.2,0,.937.468,1.6,1.394,1.6a1.276,1.276,0,0,0,1.333-1.216,1.159,1.159,0,0,0,0-.183c0-1.067-1-1.266-1-1.533,0-.937,2.325-1.2,3.056-1.2,1.129,0,2.324.468,2.324,2v3.13c-4.982,0-8.036,1.732-8.17,4.8,0,2.461,1.727,3.264,3.786,3.264a5.459,5.459,0,0,0,4.383-2,2.109,2.109,0,0,0,2.126,2,2.794,2.794,0,0,0,2.789-2.731h-.532C390.4,927.717,390.067,928.65,389.4,928.65Zm-3.194-3.065a2.238,2.238,0,0,1-.731,2,3.5,3.5,0,0,1-2.524.937,2.393,2.393,0,0,1-2.529-2.248,2.467,2.467,0,0,1,.005-.35c0-3.064,3.586-3.4,5.712-3.464l.067,3.13Zm27.634,3.593a3.382,3.382,0,0,1-3.188-1.865,11.265,11.265,0,0,1-.664-3.931c0-4.335.8-6.595,3.919-6.595.731,0,2.789.333,2.789,1.266,0,.332-1.063.533-1.063,1.8a1.467,1.467,0,0,0,1.4,1.532c.041,0,.083,0,.124,0a1.587,1.587,0,0,0,1.464-1.7l0-.031c0-2.532-2.989-3.53-5.114-3.53-1.859,0-6.509,1.4-6.509,7.264a6.409,6.409,0,0,0,6.288,6.529c.1,0,.191,0,.287,0,3.387-.134,4.715-2.2,5.445-4.529h-.664C417.563,927.717,415.7,929.315,413.843,929.177Zm10.693-13.057a16.939,16.939,0,0,1-3.653.333h-1.063v.732h2.192V928.65h-2.192v.732h6.642v-.732h-1.926Zm-1.13-2.46A1.663,1.663,0,0,0,425.069,912c0-.023,0-.046,0-.069a1.726,1.726,0,0,0-1.66-1.6,1.667,1.667,0,0,0,0,3.331Zm16.937,13.525c-.2.533-.468,1.465-1.129,1.465s-.664-.533-.664-1.532v-7.862c0-1.332,0-3.264-4.452-3.264-3.852,0-5.18,2-5.18,3.2,0,.937.468,1.6,1.394,1.6a1.276,1.276,0,0,0,1.333-1.216,1.159,1.159,0,0,0,0-.183c0-1.067-1-1.266-1-1.533,0-.937,2.325-1.2,3.055-1.2,1.13,0,2.325.468,2.325,2v3.13c-4.982,0-8.036,1.732-8.17,4.8,0,2.461,1.727,3.264,3.785,3.264a5.459,5.459,0,0,0,4.383-2,2.109,2.109,0,0,0,2.125,2,2.794,2.794,0,0,0,2.79-2.731A2.042,2.042,0,0,1,440.343,927.185Zm-4.383-1.6a2.237,2.237,0,0,1-.731,2,3.5,3.5,0,0,1-2.523.937,2.394,2.394,0,0,1-2.524-2.6c0-3.064,3.587-3.4,5.712-3.465l.067,3.13Zm9.9,3.131v-22.05a21.174,21.174,0,0,1-3.587.266h-1.394v.734h2.461V928.65h-2.461v.732h7.439v-.732c0,.067-2.46.067-2.46.067Z" transform="translate(-298.043 -904.151)" opacity="0.3" style="isolation: isolate"/>
</svg>
