<?xml version="1.0" encoding="utf-8"?>
<!-- Generator: Adobe Illustrator 23.0.3, SVG Export Plug-In . SVG Version: 6.00 Build 0)  -->
<svg version="1.1" id="Layer_2" xmlns="http://www.w3.org/2000/svg" xmlns:xlink="http://www.w3.org/1999/xlink" x="0px" y="0px"
	 viewBox="0 0 233.83 72" style="enable-background:new 0 0 233.83 72;" xml:space="preserve">
<style type="text/css">
	.st0{fill:#EF3F35;}
	.st1{opacity:0.3;}
</style>
<g>
	<path class="st0" d="M0,0v72h71.38V0H0z M53.91,49.3c-2.45,0-4.61-1.68-5.78-3.66h-0.1v3.41c-2.13-0.14-4.98-0.43-7.13-0.39h-9.02
		v-1.13h2.74V33.62c0-2.3-1.18-3.43-2.74-3.43c-3.04,0-5.49,4.36-5.49,7.06v10.29H29v1.13h-9.02v-1.13h2.6V33.62
		c0-2.3-1.18-3.43-2.74-3.43c-3.04,0-5.49,4.36-5.49,8.08v9.26h2.74v1.13H8.08v-1.13h2.45V30.39H8.08v-1.13h0.78
		c1.81,0,3.72-0.05,5.49-0.49v4.65h0.1c1.71-2.74,3.04-4.65,6.61-4.65c2.79,0,4.95,1.67,5.24,4.61h0.1
		c1.57-2.69,3.58-4.61,6.76-4.61c1.81,0,5.29,0.69,5.29,5.73v13.03h2.37l3.58-0.07V15.74h-2.79v-1.14h1.13
		c1.81,0,3.72-0.1,5.49-0.45v17.89h0.1c0.93-1.78,3.23-3.46,5.54-3.46c6.81,0,9.46,5.88,9.46,10.33
		C63.32,45.05,59.16,49.3,53.91,49.3z"/>
	<path class="st0" d="M53.91,29.58c-3.23,0-5.49,3.36-5.59,4.84c-0.15,1.33-0.24,5.53-0.24,6.77c0,6.23,4.36,7.07,5.83,7.07
		c4.9,0,4.95-5.58,4.95-9.54C58.86,35.02,58.67,29.58,53.91,29.58z"/>
</g>
<path class="st1" d="M93.88,17.93c0-2.32-2.15-3.21-4-3.21c-4.58,0-7.96,3.56-7.96,12v2.42h-3.67v1.14h3.67v17.29h-3.67v1.14h11.25
	v-1.14h-3.86V30.28h3.86v-1.14h-3.86v-5.58c0-4.94,1.48-7.8,3.77-7.8c0.33,0,1.14,0.05,1.14,0.3c0,0.64-0.38,0.69-0.38,1.23
	c0,1.33,0.67,2.27,1.95,2.27C92.92,19.56,93.88,18.92,93.88,17.93z M99.99,28.88c-1.78,0.44-3.7,0.49-5.52,0.49h-1.63v1.12h3.3
	v17.09h-3.3v1.12h10.06v-1.12h-2.91V28.88z M98.02,24.84c1.43,0,2.51-1.07,2.51-2.59c0-1.27-1.33-2.34-2.51-2.34
	c-1.23,0-2.37,1.07-2.37,2.34C95.65,23.67,96.59,24.84,98.02,24.84z M124.07,33.66c0-4.52-4.06-4.92-5.81-4.92
	c-3.56,0-5.47,2.11-6.84,5.21h-0.1v-5.21c-0.88,0.2-1.81,0.34-2.74,0.39c-0.88,0.1-1.81,0.1-2.74,0.1h-1.03v1.13h2.69v17.2h-2.69
	v1.13h9.14v-1.13h-2.64v-9.14c0-3.69,2.54-8.26,5.86-8.26c1.95,0,3.08,0.54,3.08,4.13v13.27h-2.54v1.13h8.99v-1.13h-2.64V33.66z
	 M168,33.66c0-4.52-4.06-4.92-5.81-4.92c-3.57,0-5.47,2.11-6.84,5.21h-0.1v-5.21c-0.88,0.2-1.81,0.34-2.74,0.39
	c-0.88,0.1-1.81,0.1-2.74,0.1h-1.03v1.13h2.69v17.2h-2.69v1.13h9.14v-1.13h-2.64v-9.14c0-3.69,2.54-8.26,5.86-8.26
	c1.95,0,3.08,0.54,3.08,4.13v13.27h-2.54v1.13h8.99v-1.13H168V33.66z M145.1,47.51c-1.03,0-1.03-0.79-1.03-2.28v-11.8
	c0-1.98,0-4.86-6.66-4.86c-5.83,0-7.84,2.97-7.84,4.76c0,1.39,0.73,2.38,2.06,2.38c1.22,0,2.01-0.84,2.01-2.08
	c0-1.64-1.47-1.88-1.47-2.28c0-1.44,3.48-1.78,4.56-1.78c1.71,0,3.53,0.69,3.53,3.02v4.71c-7.5,0-12.15,2.58-12.3,7.19
	c0,3.67,2.65,4.86,5.73,4.86c2.5,0,4.95-0.94,6.61-3.02c0.34,1.83,1.37,3.02,3.18,3.02c2.25,0,4.02-1.74,4.17-4.07h-0.83
	C146.57,46.13,146.08,47.51,145.1,47.51z M140.25,42.95c0,2.08-0.69,2.63-1.08,3.02c-1.18,1.04-2.21,1.44-3.77,1.44
	c-2.25,0-3.77-1.49-3.77-3.92c0-4.56,5.44-5.11,8.62-5.16V42.95z M181.9,48.31c-2.55-0.15-4.07-1.18-4.8-2.81
	c-0.29-0.69-1.03-2.96-1.03-5.92c0-6.46,1.23-9.91,5.93-9.91c1.08,0,4.17,0.54,4.17,1.87c0,0.54-1.57,0.79-1.57,2.71
	c0,1.43,0.98,2.32,2.3,2.32c1.37,0,2.21-1.28,2.21-2.61c0-3.8-4.51-5.28-7.69-5.28c-2.79,0-9.8,2.12-9.8,10.9
	c0,3.4,2.3,9.76,9.9,9.76c5.1-0.2,7.06-3.25,8.18-6.76h-1.03C187.48,46.14,184.74,48.46,181.9,48.31z M198.02,28.71
	c-1.76,0.44-3.67,0.49-5.49,0.49h-1.62v1.13h3.28v17.23h-3.28v1.13h10v-1.13h-2.89V28.71z M196.27,25c1.42,0,2.5-1.09,2.5-2.63
	c0-1.29-1.32-2.38-2.5-2.38c-1.23,0-2.35,1.09-2.35,2.38C193.92,23.81,194.85,25,196.27,25z M221.78,45.28
	c-0.25,0.84-0.74,2.23-1.71,2.23c-1.03,0-1.03-0.79-1.03-2.28v-11.8c0-1.98,0-4.86-6.66-4.86c-5.83,0-7.84,2.97-7.84,4.76
	c0,1.39,0.73,2.38,2.06,2.38c1.22,0,2.01-0.84,2.01-2.08c0-1.64-1.47-1.88-1.47-2.28c0-1.44,3.48-1.78,4.56-1.78
	c1.71,0,3.53,0.69,3.53,3.02v4.71c-7.5,0-12.15,2.58-12.3,7.19c0,3.67,2.65,4.86,5.73,4.86c2.5,0,4.95-0.94,6.61-3.02
	c0.34,1.83,1.37,3.02,3.18,3.02c2.25,0,4.02-1.74,4.17-4.07H221.78z M215.21,42.95c0,2.08-0.69,2.63-1.08,3.02
	c-1.18,1.04-2.21,1.44-3.77,1.44c-2.25,0-3.77-1.49-3.77-3.92c0-4.56,5.44-5.11,8.62-5.16V42.95z M230.11,47.58V14.53
	c-1.74,0.34-3.63,0.44-5.43,0.44h-2.08v1.13h3.73v31.48h-3.73v1.13h11.24v-1.13H230.11z"/>
<path class="st1" d="M86.96,60.79c-1.26,0-2.51,0.91-3.02,1.87h-0.05v-9.68c-0.96,0.19-2,0.24-2.99,0.24h-0.62v0.61h1.52V71h-1.52
	v0.64c1.18-0.03,2.33,0.13,3.5,0.21v-1.84h0.05c0.64,1.07,1.82,1.98,3.16,1.98c2.86,0,5.13-2.3,5.13-5.61
	C92.12,63.97,90.68,60.79,86.96,60.79z M86.99,71.43c-0.8,0-3.18-0.45-3.18-3.83c0-0.67,0.05-2.94,0.13-3.66
	c0.05-0.8,1.28-2.62,3.05-2.62c2.59,0,2.7,2.94,2.7,4.94C89.69,68.41,89.66,71.43,86.99,71.43z M103.24,71
	c-0.56,0-0.56-0.43-0.56-1.23v-6.36c0-1.07,0-2.62-3.63-2.62c-3.18,0-4.28,1.6-4.28,2.57c0,0.75,0.4,1.28,1.12,1.28
	c0.67,0,1.09-0.45,1.09-1.12c0-0.88-0.8-1.02-0.8-1.23c0-0.78,1.9-0.96,2.49-0.96c0.94,0,1.92,0.37,1.92,1.63v2.54
	c-4.09,0-6.63,1.39-6.71,3.88c0,1.98,1.44,2.62,3.13,2.62c1.36,0,2.7-0.51,3.61-1.63c0.19,0.99,0.75,1.63,1.74,1.63
	c1.23,0,2.19-0.94,2.27-2.19h-0.45C104.04,70.25,103.77,71,103.24,71z M100.59,68.54c0,1.12-0.37,1.42-0.59,1.63
	c-0.64,0.56-1.2,0.78-2.06,0.78c-1.23,0-2.06-0.8-2.06-2.11c0-2.46,2.97-2.75,4.7-2.78V68.54z M116.11,63.46
	c0-2.46-2.22-2.67-3.18-2.67c-1.95,0-2.99,1.15-3.74,2.83h-0.05v-2.83c-0.48,0.11-0.99,0.19-1.5,0.21c-0.48,0.05-0.99,0.05-1.5,0.05
	h-0.56v0.61h1.47v9.36h-1.47v0.61h5v-0.61h-1.44v-4.97c0-2.01,1.39-4.49,3.21-4.49c1.07,0,1.69,0.3,1.69,2.25v7.22h-1.39v0.61h4.92
	v-0.61h-1.44V63.46z M122.44,52.98c-0.96,0.19-2,0.24-2.99,0.24h-0.48v0.61h1.39v17.19h-1.39v0.61h5.08v-0.61h-1.6V52.98z
	 M129.55,71.03l-5.08-6.15l3.69-3.21h1.63v-0.61h-4.38v0.61h1.58v0.08l-4.52,3.85l4.46,5.43h-1.34v0.61h5.08v-0.61H129.55z"/>
<g class="st1">
	<path d="M132.4,71.48v-4.72h0.51l0.87,2.21c0.2,0.5,0.44,1.13,0.6,1.65h0.01c-0.04-0.74-0.06-1.35-0.06-2.17v-1.69h0.48v4.72h-0.51
		l-0.9-2.27c-0.19-0.48-0.39-1.02-0.56-1.6h-0.01c0.04,0.63,0.06,1.23,0.06,2.24v1.63H132.4z"/>
	<path d="M135.83,71.13c0-0.24,0.16-0.41,0.36-0.41c0.22,0,0.36,0.16,0.36,0.41c0,0.25-0.13,0.41-0.36,0.41
		C135.98,71.53,135.83,71.37,135.83,71.13z"/>
	<path d="M138.08,70.06l-0.31,1.42h-0.52l1.08-4.72h0.6l1.05,4.72h-0.53l-0.32-1.42H138.08z M139.06,69.63l-0.25-1.2
		c-0.07-0.34-0.13-0.73-0.19-1.08h-0.03c-0.06,0.36-0.13,0.76-0.19,1.08l-0.25,1.2H139.06z"/>
	<path d="M140.74,71.13c0-0.24,0.16-0.41,0.36-0.41c0.22,0,0.36,0.16,0.36,0.41c0,0.25-0.13,0.41-0.36,0.41
		C140.89,71.53,140.74,71.37,140.74,71.13z"/>
</g>
</svg>
