<svg id="metabank" xmlns="http://www.w3.org/2000/svg" width="160.722" height="28.119" viewBox="0 0 160.722 28.119">
  <defs>
    <style>
      .cls-1 {
        fill: #1a428a;
      }
    </style>
  </defs>
  <path id="Path_5669" data-name="Path 5669" class="cls-1" d="M273.318,1792.531l-3.853,14.353-3.869-14.353h-6.078l-2.2,23.995h4.8l.828-14.762a.141.141,0,0,1,.277-.029l4.125,14.791h4.218l4.13-14.789a.14.14,0,0,1,.276.029l.828,14.762h4.8l-2.2-24Z" transform="translate(-257.322 -1788.503)"/>
  <path id="Path_5670" data-name="Path 5670" class="cls-1" d="M305.716,1811.957s-.538,9.555,6.936,9.555h3.127l2.386-3.4h-4.522a3.163,3.163,0,0,1-3.216-3.11c0-.059,0-.118,0-.176l.014-1.352h10.251V1810.6s0-7.315-7.387-7.315c-7.591,0-7.591,8.67-7.591,8.67m10.179-1.469h-5.264s-.2-3.9,2.778-3.9c2.806,0,2.486,3.894,2.486,3.894Z" transform="translate(-279.802 -1793.5)"/>
  <path id="Path_5671" data-name="Path 5671" class="cls-1" d="M340.968,1812.2c0-1.352.014-5.389.029-9.162h3.621l2.094-3.3h-5.7c.014-2.37.014-4.116.014-4.116l-4.464,1.406v2.705h-1.586v3.286h1.585v10.353s-.117,4.581,4.218,4.581h2.486v-3.325C343.25,1814.619,340.968,1814.925,340.968,1812.2Z" transform="translate(-293.401 -1789.941)"/>
  <path id="Path_5672" data-name="Path 5672" class="cls-1" d="M361.795,1803.287h-4.014l-2.094,3.3h4.159a2.438,2.438,0,0,1,2.694,2.152c0,.044.009.088.011.131v1.468h-2.331s-7.285-.6-7.285,5.8c0,0-.655,5.468,5.657,5.468,0,0,2.792.175,3.969-1v.916h4.3v-13.365C366.855,1803.448,361.795,1803.287,361.795,1803.287Zm-2.007,14.92a2.119,2.119,0,0,1-2.123-2.327c0-2.545,3.592-2.472,3.592-2.472h1.279v2.792A2.735,2.735,0,0,1,359.788,1818.207Z" transform="translate(-301.736 -1793.5)"/>
  <path id="Path_5673" data-name="Path 5673" class="cls-1" d="M394.443,1803.758a5.382,5.382,0,0,0,4.569-5.468c0-5.759-6.805-5.759-6.805-5.759h-8.015v23.995h7.65s8.158.218,8.158-5.6v-1.57S400.115,1804.848,394.443,1803.758Zm-7.5-9h4.377s4.464-.234,4.464,3.534v.873s.131,3.534-4.421,3.534h-4.42Zm4.8,19.588h-4.872v-9.2h4.74s5.425-.087,5.425,4v1.047s.077,4.159-5.3,4.159Z" transform="translate(-316.266 -1788.503)"/>
  <path id="Path_5674" data-name="Path 5674" class="cls-1" d="M424.412,1803.149h-4.377l-1.541,2.005s1.236-.029,4.552-.029a2.877,2.877,0,0,1,3.232,2.472,2.763,2.763,0,0,1,.025.339v1.757h-1.775c-5.177,0-8.259,3.01-8.259,6.679s2.6,5.162,5.452,5.162a5.943,5.943,0,0,0,4.509-2.37v2.269h2.577v-14.212C428.789,1802.928,424.412,1803.149,424.412,1803.149Zm1.716,13.553s-1.44,2.7-4,2.7-2.923-2.123-2.923-3.78,1.57-4.029,4.988-4.029h1.934Z" transform="translate(-331.169 -1793.436)"/>
  <path id="Path_5675" data-name="Path 5675" class="cls-1" d="M472.573,1788.6v24.431h2.748v-28.023Z" transform="translate(-357.329 -1785.008)"/>
  <path id="Path_5676" data-name="Path 5676" class="cls-1" d="M452.139,1802.764a7.071,7.071,0,0,0-5.624,2.812v-2.812h-2.46v18.511h2.46v-13.334a6.631,6.631,0,0,1,5.046-2.812,2.447,2.447,0,0,1,2.591,2.293,2.486,2.486,0,0,1,0,.34v13.513h2.793v-13.7a4.548,4.548,0,0,0-4.268-4.812A4.461,4.461,0,0,0,452.139,1802.764Z" transform="translate(-344.079 -1793.254)"/>
  <path id="Path_5677" data-name="Path 5677" class="cls-1" d="M481.081,1810.513l5.191-7.416h-3.345l-5.221,7.416,8.376,10.92h3.388Z" transform="translate(-359.714 -1793.412)"/>
  <g id="Group_6773" data-name="Group 6773" transform="translate(132.781)">
    <path id="Path_5678" data-name="Path 5678" class="cls-1" d="M526.852,1785.008H511.738a6.415,6.415,0,0,0-6.409,6.414v15.113a6.415,6.415,0,0,0,6.413,6.414h15.114a6.414,6.414,0,0,0,6.414-6.414v-15.113a6.406,6.406,0,0,0-6.4-6.414Zm.363,18.439a10.481,10.481,0,0,1-1.9,6.035,10.56,10.56,0,0,1-8.74-6.078,5.934,5.934,0,1,1,.088-10.5c.277,0,.553.014.829.029a10.52,10.52,0,0,1,8.639-4.493,8.147,8.147,0,0,1,.858.043,10.532,10.532,0,0,1-.844,10.339,10.3,10.3,0,0,1,1.076,4.625Z" transform="translate(-505.329 -1785.008)"/>
    <path id="Path_5679" data-name="Path 5679" class="cls-1" d="M526.411,1799.81a10.545,10.545,0,0,0-1.9,6.035,10.411,10.411,0,0,0,.974,4.42,8.214,8.214,0,0,0,.858.043,5.936,5.936,0,1,0,.073-10.5Z" transform="translate(-514.239 -1791.885)"/>
  </g>
</svg>
