<svg id="Group_6078" data-name="Group 6078" xmlns="http://www.w3.org/2000/svg" width="234.813" height="28.119" viewBox="0 0 234.813 28.119">
  <g id="Group_6076" data-name="Group 6076" transform="translate(83.002)">
    <path id="Path_4769" data-name="Path 4769" d="M412.4,1016.106h13.521v3.916h-8.275v4.754h7.66v3.915h-7.66v7.758h-5.3v-20.344Z" transform="translate(-412.353 -1016.057)"/>
    <path id="Path_4770" data-name="Path 4770" d="M440.275,1016.106h14.309v3.916h-9.063v4.236h8.545v3.916h-8.545v4.359H454.8v3.965H440.275Z" transform="translate(-425.326 -1016.057)"/>
    <path id="Path_4771" data-name="Path 4771" d="M470.36,1016.014h8.084c2.29,0,5.3.271,7.264,1.723,2.812,2.069,3.62,5.419,3.62,8.447,0,4.532-1.355,7.882-5.2,9.482a15.362,15.362,0,0,1-5.591.789h-8.152v-20.441Zm5.419,16.476h2.29c3.546-.049,5.788-1.625,5.788-6.379,0-6.209-4.36-6.209-5.935-6.209l-2.119-.049C475.779,1019.856,475.779,1032.49,475.779,1032.49Z" transform="translate(-439.303 -1016.014)"/>
    <path id="Path_4772" data-name="Path 4772" d="M508.218,1016.106h14.358v3.916h-9.113v4.236h8.595v3.916h-8.595v4.359h9.283v3.965H508.218Z" transform="translate(-456.893 -1016.057)"/>
    <path id="Path_4773" data-name="Path 4773" d="M538.027,1016.014h8.867c3.448,0,4.753.222,5.858,1.453a5.518,5.518,0,0,1,1.329,3.965c0,2.241-.837,3.227-1.774,3.793a6.828,6.828,0,0,1-2.906,1.054v.123c3.694.123,3.916,1.848,4.36,5.024a34.737,34.737,0,0,0,.887,5.024h-5.741a32.19,32.19,0,0,1-.616-4.63c-.222-2.461-.32-3.35-2.684-3.35h-2.241v7.98h-5.32Zm5.32,8.768h1.971a6.635,6.635,0,0,0,2.192-.172,2.386,2.386,0,0,0,1.406-2.343c0-2.511-2.069-2.511-3.62-2.511h-1.973v5.027Z" transform="translate(-470.742 -1016.014)"/>
    <path id="Path_4774" data-name="Path 4774" d="M577.305,1016.014h6.478l7.536,20.442h-5.985L584,1032.368h-7.66l-1.281,4.089h-5.3Zm5.493,12.561-2.461-8.545h-.1l-2.635,8.545Z" transform="translate(-485.489 -1016.014)"/>
    <path id="Path_4775" data-name="Path 4775" d="M611.077,1016.014h5.369v16.378h8.595v4.014H611.126v-20.392Z" transform="translate(-504.682 -1016.014)"/>
  </g>
  <g id="Group_6077" data-name="Group 6077" transform="translate(0 0.025)">
    <path id="Path_4776" data-name="Path 4776" d="M257.322,1016.06h7.315l6.478,15.2-.1-15.2h4.63V1036.5H268.5l-6.6-15.861.049,15.861h-4.63Z" transform="translate(-257.322 -1016.06)"/>
    <path id="Path_4777" data-name="Path 4777" d="M301.8,1016.06h6.478l7.537,20.442h-5.987l-1.329-4.089h-7.659l-1.281,4.089h-5.3Zm5.468,12.561-2.46-8.6h-.1l-2.635,8.546C302.069,1028.621,307.266,1028.621,307.266,1028.621Z" transform="translate(-274.484 -1016.06)"/>
    <path id="Path_4778" data-name="Path 4778" d="M327.013,1016.06h5.858l4.359,14.8,4.585-14.8h5.246l-6.97,20.442h-6.3Z" transform="translate(-289.701 -1016.06)"/>
    <path id="Path_4779" data-name="Path 4779" d="M370.2,1016.06l4.187,8.546,4.31-8.546h5.468l-7.438,13.225v7.216h-5.32v-7.487l-7.364-12.954Z" transform="translate(-306.906 -1016.06)"/>
  </g>
  <rect id="Rectangle_3321" data-name="Rectangle 3321" width="203.313" height="5.369" transform="translate(0 22.749)"/>
  <path id="Path_4780" data-name="Path 4780" d="M671.556,1030.036a13.963,13.963,0,0,0-12.757-13.923,10.863,10.863,0,0,0-1.235-.1,9.2,9.2,0,0,0-1.182.1,14.059,14.059,0,0,0-9.95,5.437h0l-.27.369-.271.369h0a13.792,13.792,0,0,0-2.389,7.774,13.963,13.963,0,0,0,12.758,13.923,8.075,8.075,0,0,0,2.512,0A14.077,14.077,0,0,0,671.556,1030.036Zm-7.56,10.31h-1.97a16,16,0,0,0,1.354-3.888h3.28a12.355,12.355,0,0,1-2.664,3.885Zm-15.515-3.888h3.28a20.3,20.3,0,0,0,1.355,3.888h-1.971a12.369,12.369,0,0,1-2.666-3.889Zm-3.991-6h1.827a16.54,16.54,0,0,0,.937,5.116h-1.5a11.89,11.89,0,0,1-1.262-5.119Zm4.138-7.183a12.774,12.774,0,0,1,2.537-3.567h1.971a15.067,15.067,0,0,0-1.133,2.952h0l-.1.418-.1.419h0c0,.049,0,.1-.049.1h-3.28c.053-.125.1-.224.151-.322Zm18.053.3H663.4a21.655,21.655,0,0,0-1.355-3.887h1.971a14.687,14.687,0,0,1,2.663,3.885Zm3.99,6.027h-1.823a16.553,16.553,0,0,0-.937-5.116h1.5a12.066,12.066,0,0,1,1.256,5.115Zm-2.684,0H664.1a25.9,25.9,0,0,0-.517-5.116H667a15.116,15.116,0,0,1,.987,5.115Zm-15.245-6.327a14.534,14.534,0,0,1,1.406-3.567h3.005v3.89H652.7a.672.672,0,0,1,.039-.32Zm.887-4.452h-1.455a12.372,12.372,0,0,1,2.487-1.406,8.6,8.6,0,0,0-1.034,1.408Zm3.52-1.865v1.874h-2.487A4.231,4.231,0,0,1,657.149,1016.951Zm.862,1.874v-1.874a4.079,4.079,0,0,1,2.438,1.874Zm3.03.861a17.349,17.349,0,0,1,1.453,3.887h-4.461v-3.894Zm-3.892,4.762v5.12h-5.2a30.845,30.845,0,0,1,.517-5.116Zm0,6v5.116H652.47a29.821,29.821,0,0,1-.566-5.116Zm0,6v3.887h-3.005a17.34,17.34,0,0,1-1.453-3.887Zm0,4.772v1.875a4.079,4.079,0,0,1-2.438-1.875Zm.862,0h2.438a4.108,4.108,0,0,1-2.438,1.875Zm0-.886v-3.883h4.452a16.478,16.478,0,0,1-1.453,3.887Zm0-4.747v-5.139h5.176a30.215,30.215,0,0,1-.517,5.116h-4.655Zm0-6v-5.141h4.655a25.731,25.731,0,0,1,.517,5.116h-5.172Zm3.546-10.779a7.579,7.579,0,0,0-1.084-1.406,8.868,8.868,0,0,1,2.537,1.406Zm-10.024,5.638a30.5,30.5,0,0,0-.517,5.116h-3.892a15.479,15.479,0,0,1,.985-5.116Zm-5.272,5.141h-1.82a12.346,12.346,0,0,1,1.256-5.116h1.5a15.972,15.972,0,0,0-.937,5.12Zm.863.861h3.891a25.9,25.9,0,0,0,.517,5.116h-3.423a16.853,16.853,0,0,1-.983-5.114Zm6.5,10.779a7.565,7.565,0,0,0,1.084,1.406,8.851,8.851,0,0,1-2.537-1.406Zm7.93,0h1.453a9.821,9.821,0,0,1-2.537,1.406,10.264,10.264,0,0,0,1.085-1.407Zm2.069-5.633a30.054,30.054,0,0,0,.517-5.117h3.891a16.574,16.574,0,0,1-.985,5.117Zm5.222-5.141h1.823a12.742,12.742,0,0,1-1.256,5.116h-1.5a15.838,15.838,0,0,0,.935-5.119Zm.172-6.888h-1.406a14.986,14.986,0,0,0-2.389-3.887h.418a14.57,14.57,0,0,1,3.377,3.885Zm-19.507-3.886h.419a14.107,14.107,0,0,0-1.922,2.8h0l-.2.418-.2.418h0a.733.733,0,0,0-.1.271h-1.355a7.953,7.953,0,0,1,.715-1.181,13.879,13.879,0,0,1,2.635-2.733Zm-3.374,16.777h1.406a14.969,14.969,0,0,0,2.389,3.888h-.418a13.2,13.2,0,0,1-3.377-3.89Zm19.506,3.886h-.418a12.708,12.708,0,0,0,2.389-3.888h1.406a13.2,13.2,0,0,1-3.374,3.885Z" transform="translate(-436.743 -1016.014)"/>
</svg>
