<?xml version="1.0" encoding="utf-8"?>
<!-- Generator: Adobe Illustrator 24.0.0, SVG Export Plug-In . SVG Version: 6.00 Build 0)  -->
<svg version="1.1" id="Layer_1" xmlns="http://www.w3.org/2000/svg" xmlns:xlink="http://www.w3.org/1999/xlink" x="0px" y="0px"
	 viewBox="0 0 290 169.9" style="enable-background:new 0 0 290 169.9;" xml:space="preserve">
<style type="text/css">
	.st0{fill:#231F20;}
</style>
<g>
	<path d="M26.5,142.4c-1.1-4.5-3.8-7.8-9.1-7.8c-7.8,0-11.1,7.4-11.1,14.8c0,7.5,3.3,14.8,11.1,14.8c5.7,0,8.8-4.5,9.3-10.2H33
		c-0.5,9.3-6.7,15.8-15.5,15.8C6.5,169.9,0,160.6,0,149.5c0-11.1,6.5-20.4,17.5-20.4c8.2,0.1,14.7,4.9,15.5,13.3L26.5,142.4
		L26.5,142.4z"/>
	<path d="M36.7,140.7h5.5v5.5h0.1c0.7-3,4.1-6.2,7.7-6.2c1.3,0,1.7,0.1,2.2,0.2v6c-0.8-0.1-1.7-0.3-2.5-0.3c-4,0-7.1,3.4-7.1,9.7
		v13.4h-5.8V140.7z"/>
	<path d="M57.9,156.4c0,4.4,2.3,8.4,7.1,8.4c3.4,0,5.4-1.6,6.4-4.7h5.5c-1.3,6.2-6.2,9.6-11.9,9.6c-8.3,0-12.9-6.2-12.9-14.8
		c0-8,4.9-14.9,12.8-14.9c8.3,0,13.4,8,12.4,16.5H57.9z M71.5,152.3c-0.2-3.9-2.7-7.5-6.6-7.5c-4,0-6.8,3.3-6.9,7.5H71.5z"/>
	<path d="M105.3,168.9h-5.5v-3.8h-0.1c-1.5,3.2-4.9,4.6-8.2,4.6c-8.3,0-12.4-6.6-12.4-15.1c0-10.2,5.7-14.7,11.4-14.7
		c3.3,0,7,1.3,8.8,4.4h0.1V130h5.8L105.3,168.9L105.3,168.9z M92.3,164.8c5.2,0,7.4-5.1,7.4-10c0-6.2-2.8-9.9-7.3-9.9
		c-5.5,0-7.4,5.2-7.4,10.3C85,160,87.3,164.8,92.3,164.8z"/>
	<path d="M110.5,130h5.8v5.9h-5.8V130z M110.5,140.7h5.8v28.2h-5.8V140.7z"/>
	<path d="M118.7,140.7h4.4v-8.5h5.8v8.5h5.3v4.6h-5.3v15.1c0,2.6,0.2,3.9,2.8,3.9c0.8,0,1.6,0,2.4-0.2v4.8c-1.3,0.1-2.5,0.3-3.8,0.3
		c-6.1,0-7.2-2.5-7.3-7.2v-16.6h-4.4V140.7z"/>
	<path d="M149.2,130h6.4v22.7c0,5.2,0.3,11.3,8.6,11.3c8.3,0,8.6-6.1,8.6-11.3V130h6.4v24.9c0,10-6,15-14.9,15s-14.9-5-14.9-14.9
		L149.2,130L149.2,130z"/>
	<path d="M183.8,140.7h5.5v4.1l0.1,0.1c1.7-3.1,4.8-5,8.2-5c5.7,0,9.3,3.3,9.3,9.6v19.4h-5.8v-17.7c-0.1-4.4-1.7-6.3-5.2-6.3
		c-3.9,0-6.4,3.3-6.4,7.4v16.6h-5.8L183.8,140.7L183.8,140.7z"/>
	<path d="M212,130h5.8v5.9H212V130z M212,140.7h5.8v28.2H212V140.7z"/>
	<path d="M221.1,154.8c0-8.6,4.9-14.8,13.3-14.8s13.3,6.2,13.3,14.8c0,8.7-4.9,14.9-13.3,14.9S221.1,163.5,221.1,154.8z
		 M241.9,154.8c0-4.9-2.3-9.9-7.5-9.9s-7.5,5.1-7.5,9.9c0,4.9,2.3,10,7.5,10S241.9,159.7,241.9,154.8z"/>
	<path d="M250.8,140.7h5.5v4.1l0.1,0.1c1.7-3.1,4.8-5,8.2-5c5.7,0,9.3,3.3,9.3,9.6v19.4h-5.8v-17.7c-0.1-4.4-1.7-6.3-5.1-6.3
		c-3.9,0-6.4,3.3-6.4,7.4v16.6h-5.8V140.7z"/>
</g>
<g>
	<g>
		<path d="M0.9,57.7h30.7v8.9H12.8v10.8h17.4v8.9H12.8v17.6h-12V57.7z"/>
		<path d="M34.7,57.7h32.5v8.9H46.6v9.6H66v8.9H46.6V95h21.1v9h-33V57.7z"/>
		<path d="M71.3,57.6h18.3c5.2,0,12,0.6,16.5,3.9c6.4,4.7,8.2,12.3,8.2,19.2c0,10.3-3.1,17.9-11.8,21.5C98,104,92.8,104,89.8,104
			H71.3L71.3,57.6L71.3,57.6z M83.6,95h5.2c8-0.1,13.1-3.7,13.1-14.5c0-14.1-9.9-14.1-13.5-14.1l-4.8-0.1V95z"/>
		<path d="M117.3,57.7h32.6v8.9h-20.7v9.6h19.5v8.9h-19.5V95h21.1v9h-33L117.3,57.7L117.3,57.7z"/>
		<path d="M153.5,57.6h20.1c7.8,0,10.8,0.5,13.3,3.3c1.3,1.4,3,4,3,9c0,5.1-1.9,7.3-4,8.6c-2.8,1.9-5.4,2.2-6.6,2.4v0.3
			c8.4,0.3,8.9,4.2,9.9,11.4c0.4,3.1,1,8.1,2,11.4h-13c-0.7-2.8-1-6.4-1.4-10.5c-0.5-5.6-0.7-7.6-6.1-7.6h-5.1V104h-12.1L153.5,57.6
			L153.5,57.6z M165.6,77.5h4.5c2.6,0,4,0,5-0.4c2.6-0.9,3.2-3.8,3.2-5.3c0-5.7-4.7-5.7-8.2-5.7h-4.5L165.6,77.5L165.6,77.5z"/>
		<path d="M209.2,57.6h14.7L241,104h-13.6l-3-9.3h-17.4l-2.9,9.3h-12L209.2,57.6z M221.7,86.1l-5.6-19.4h-0.2l-6,19.4H221.7z"/>
		<path d="M242.3,57.6h12.2v37.2h19.5v9.1h-31.6V57.6z"/>
	</g>
	<g>
		<path d="M0.9,6.3h16.6l14.7,34.5L32,6.3h10.5v46.4H26.3l-15-36l0.1,36H0.9V6.3z"/>
		<path d="M62.9,6.3h14.7l17.1,46.4H81.1l-3-9.3H60.7l-2.9,9.3h-12L62.9,6.3z M75.3,34.8l-5.6-19.5h-0.2l-6,19.4
			C63.5,34.8,75.3,34.8,75.3,34.8z"/>
		<path d="M85.6,6.3h13.3l9.9,33.6l10.4-33.6h11.9l-15.8,46.4H101L85.6,6.3z"/>
		<path d="M144.6,6.3l9.5,19.4l9.8-19.4h12.4l-16.9,30v16.4h-12.1V35.7L130.6,6.3L144.6,6.3L144.6,6.3z"/>
	</g>
	<rect x="0.9" y="109.3" width="273" height="12.2"/>
	<path d="M248.5,27.1c0-14.1-10.8-25.7-24.6-26.9c-0.8-0.1-1.6-0.2-2.4-0.2c-0.8,0-1.5,0.1-2.3,0.2c-7.6,0.6-14.6,4.5-19.2,10.5l0,0
		l-0.5,0.7l-0.5,0.7l0,0c-3,4.4-4.6,9.6-4.6,15c0,14.1,10.8,25.7,24.6,26.9c0.8,0.1,1.6,0.2,2.4,0.2s1.6-0.1,2.4-0.2
		C237.7,52.7,248.5,41.1,248.5,27.1z M233.9,47h-3.8c1.1-2.1,2-4.7,2.6-7.5h6.3C237.7,42.4,236,45,233.9,47z M204,39.5h6.3
		c0.7,2.9,1.6,5.4,2.6,7.5h-3.8C207.1,45,205.3,42.4,204,39.5z M196.3,27.9h3.5c0.1,3.5,0.7,6.8,1.8,9.9h-2.9
		C197.2,34.8,196.4,31.4,196.3,27.9z M204.3,14c1.3-2.7,3-5,4.9-6.9h3.8c-0.8,1.6-1.6,3.5-2.2,5.7h0l-0.2,0.8l-0.2,0.8h0
		c0,0.1,0,0.2-0.1,0.2H204C204.1,14.4,204.2,14.2,204.3,14z M239.1,14.6h-6.3c-0.7-2.8-1.6-5.4-2.6-7.5h3.8
		C236,9.2,237.7,11.7,239.1,14.6z M246.8,26.2h-3.5c-0.1-3.5-0.7-6.8-1.8-9.9h2.9C245.9,19.4,246.7,22.7,246.8,26.2z M241.6,26.2
		h-7.5c0-3.5-0.4-6.8-1-9.9h6.6C240.9,19.4,241.5,22.7,241.6,26.2z M212.2,14c0.7-2.7,1.6-5,2.7-6.9h5.8v7.5h-8.6
		C212.1,14.4,212.1,14.2,212.2,14z M213.9,5.4h-2.8c1.5-1.1,3.1-2,4.8-2.7C215.2,3.5,214.5,4.4,213.9,5.4z M220.7,1.8v3.6h-4.8
		C217.4,3.4,219,2.1,220.7,1.8z M222.4,5.4V1.8c1.7,0.3,3.3,1.6,4.7,3.6H222.4z M228.2,7.1c1.1,2.1,2.1,4.6,2.8,7.5h-8.6V7.1H228.2z
		 M220.7,16.3v9.9h-10c0.1-3.4,0.4-6.8,1-9.9H220.7z M220.7,27.9v9.9h-9c-0.6-3-1-6.4-1.1-9.9C210.6,27.9,220.7,27.9,220.7,27.9z
		 M220.7,39.5V47h-5.8c-1.1-2.1-2.1-4.6-2.8-7.5H220.7z M220.7,48.7v3.6c-1.7-0.3-3.3-1.6-4.7-3.6H220.7z M222.4,48.7h4.7
		c-1.4,2-3,3.3-4.7,3.6V48.7z M222.4,47v-7.5h8.6c-0.7,2.9-1.7,5.5-2.8,7.5H222.4z M222.4,37.8v-9.9h10c-0.1,3.5-0.4,6.8-1,9.9
		H222.4z M222.4,26.2v-9.9h9c0.6,3,1,6.4,1,9.9H222.4z M229.2,5.4c-0.6-1-1.3-1.9-2.1-2.7c1.7,0.6,3.4,1.5,4.9,2.7H229.2z
		 M209.9,16.3c-0.6,3.1-0.9,6.4-1,9.9h-7.5c0.1-3.4,0.7-6.8,1.9-9.9H209.9z M199.7,26.2h-3.5c0.1-3.4,0.9-6.8,2.4-9.9h2.9
		C200.4,19.4,199.8,22.8,199.7,26.2z M201.4,27.9h7.5c0,3.5,0.4,6.8,1,9.9h-6.6C202.2,34.8,201.5,31.4,201.4,27.9z M213.9,48.7
		c0.6,1,1.3,1.9,2.1,2.7c-1.7-0.6-3.4-1.5-4.9-2.7H213.9z M229.2,48.7h2.8c-1.5,1.1-3.1,2.1-4.9,2.7
		C227.8,50.7,228.5,49.8,229.2,48.7z M233.2,37.8c0.6-3,0.9-6.4,1-9.9h7.5c-0.1,3.5-0.8,6.8-1.9,9.9H233.2z M243.3,27.9h3.5
		c-0.1,3.5-1,6.9-2.4,9.9h-2.9C242.6,34.7,243.2,31.4,243.3,27.9z M243.6,14.6h-2.7c-1.2-2.8-2.8-5.4-4.6-7.5h0.8
		C239.7,9.2,241.9,11.7,243.6,14.6z M234.6,5.4L234.6,5.4L234.6,5.4L234.6,5.4z M206,7.1h0.8c-1.4,1.6-2.7,3.4-3.7,5.4h0l-0.4,0.8
		l-0.4,0.8l0,0c-0.1,0.2-0.2,0.4-0.2,0.5h-2.6c0.4-0.8,0.9-1.6,1.4-2.3C202.4,10.3,204.1,8.6,206,7.1z M199.5,39.5h2.7
		c1.2,2.8,2.8,5.4,4.6,7.5H206C203.4,45,201.2,42.4,199.5,39.5z M208.5,48.7L208.5,48.7L208.5,48.7
		C208.5,48.7,208.5,48.7,208.5,48.7z M234.6,48.7L234.6,48.7L234.6,48.7C234.6,48.7,234.6,48.7,234.6,48.7z M237.1,47h-0.8
		c1.9-2.1,3.5-4.7,4.6-7.5h2.7C241.9,42.4,239.7,45,237.1,47z"/>
</g>
<g>
	<path class="st0" d="M283.5,108.2c3.6,0,6.4,2.9,6.4,6.5c0,3.7-2.8,6.6-6.4,6.6c-3.6,0-6.5-2.9-6.5-6.6
		C277,111.1,279.9,108.2,283.5,108.2L283.5,108.2z M283.5,109.2c-2.9,0-5.2,2.5-5.2,5.5c0,3.1,2.4,5.5,5.3,5.5
		c2.9,0,5.2-2.4,5.2-5.5S286.4,109.2,283.5,109.2L283.5,109.2z M282.3,118.5h-1.2v-7.3c0.6-0.1,1.2-0.2,2.1-0.2
		c1.1,0,1.8,0.2,2.3,0.6c0.4,0.3,0.7,0.8,0.7,1.5c0,1-0.6,1.5-1.4,1.8v0.1c0.6,0.1,1.1,0.7,1.2,1.8c0.2,1.1,0.4,1.6,0.5,1.8h-1.2
		c-0.2-0.2-0.4-0.9-0.5-1.9c-0.2-0.9-0.6-1.3-1.6-1.3h-0.8V118.5z M282.3,114.5h0.8c1,0,1.8-0.4,1.8-1.3c0-0.6-0.5-1.3-1.8-1.3
		c-0.4,0-0.6,0-0.8,0.1V114.5z"/>
</g>
</svg>
