<?xml version="1.0" encoding="utf-8"?>
<!-- Generator: Adobe Illustrator 24.0.0, SVG Export Plug-In . SVG Version: 6.00 Build 0)  -->
<svg version="1.1" id="Layer_1" xmlns="http://www.w3.org/2000/svg" xmlns:xlink="http://www.w3.org/1999/xlink" x="0px" y="0px"
	 viewBox="0 0 314.1 48.8" style="enable-background:new 0 0 314.1 48.8;" xml:space="preserve">
<style type="text/css">
	.st0{fill:#F58025;}
	.st1{fill:#0069AA;}
	.st2{fill-rule:evenodd;clip-rule:evenodd;fill:#0069AA;}
</style>
<g>
	<path class="st0" d="M44.8,44.2h0.4c0.3,0,0.4,0.1,0.4,0.5c0,0.3-0.1,0.6-0.4,0.6h-0.4V44.2 M44.8,45.8H45c0.7,0,0.6,0.4,0.6,0.8
		c0,0.3,0,0.5,0.1,0.7h0.9c-0.1-0.2-0.1-0.9-0.1-1.1c0-0.7-0.6-0.7-0.8-0.7v0c0.6-0.1,0.8-0.4,0.8-0.9c0-0.6-0.4-1-1-1h-1.6v3.8h0.9
		V45.8z M45.2,42.2c-1.8,0-3.3,1.5-3.3,3.3c0,1.8,1.5,3.3,3.3,3.3c1.8,0,3.3-1.5,3.3-3.3C48.5,43.7,47,42.2,45.2,42.2z M45.2,48.2
		c-1.5,0-2.7-1.2-2.7-2.7c0-1.5,1.2-2.7,2.7-2.7c1.5,0,2.7,1.2,2.7,2.7C47.8,47,46.6,48.2,45.2,48.2z"/>
	<path class="st0" d="M36.4,27.8h-5c0.3-0.7,0.1-1.5-0.3-2.3l-8.2-14.2c-1.2-2.1-2.4-3.7-3.6-4.9c0,0,0.1,0,0.1,0
		c3.3,1.8,9.8,5.5,22.4,12.9l0.7,0.4c2.3,1.3,3.7,3.4,3.3,5C45.2,26.6,41.8,27.8,36.4,27.8 M20,41.9l-0.7,0.4
		c-2.3,1.3-4.8,1.5-5.9,0.4c-1.5-1.5-0.8-5,1.9-9.7l2.5-4.3c0.5,0.6,1.2,0.9,2.2,0.9h16.4c2.4,0,4.4-0.2,6.1-0.6c0,0,0,0-0.1,0
		C39.2,30.9,32.7,34.8,20,41.9z M11.3,11.8l0-0.8c0-2.7,1.1-4.9,2.7-5.3c2-0.5,4.7,1.8,7.4,6.5l2.5,4.3c-0.7,0.1-1.4,0.6-1.8,1.4
		l-8.2,14.2c-1.2,2.1-2,3.9-2.5,5.6c0,0,0-0.1,0-0.1C11.2,33.9,11.1,26.4,11.3,11.8z M24.3,0C10.9,0,0,10.9,0,24.3
		s10.9,24.3,24.3,24.3s24.3-10.9,24.3-24.3S37.8,0,24.3,0z"/>
</g>
<g>
	<g>
		<path class="st1" d="M73.9,6.6H58h-0.4v1.6l0.3,0c5.7,0.7,6.3,1.4,6.3,4.3v30.2h6.5c0,0,0-15,0-15.7c0.6,0,2.6,0,2.6,0
			c6.1,0,18.9,0,18.9-10.2C92.2,6.6,80.3,6.6,73.9,6.6z M73.2,24.3c0,0-1.9,0-2.5,0c0-0.7,0-11.7,0-11.7c0-2.8,0-3.2,5.3-3.2
			c5.9,0,9.1,2.7,9.1,7.5C85.1,23.4,79.1,24.3,73.2,24.3z"/>
		<path class="st1" d="M128.8,6.6H125c0,0,0,26.4,0,28.2c-1-1.4-20.2-28.2-20.2-28.2H91.1v1.6l0.3,0c5.6,0.7,6.3,1,6.3,5v29.6h4.2
			c0,0,0-28.5,0-30.3c1,1.4,21.8,30.3,21.8,30.3h5.6V6.6H128.8z"/>
		<path class="st1" d="M134.1,23.5c0,9.9,6,19.8,19.5,19.8c6.4,0,9.5-0.7,12.5-1.5l0.3-0.1v-3l-0.5,0.1c-3.1,0.8-6.2,1.3-8.6,1.3
			c-10.8,0-16-5.9-16-18.1c0-8.1,3.9-13,10.3-13c4.4,0,6.9,1.7,7.6,5.1l0.1,0.3h7.1l0-0.4c-0.2-1.9-2-8.1-14.3-8.1
			C140.2,6,134.1,11.9,134.1,23.5z"/>
	</g>
	<path class="st1" d="M197.9,23.5c3.2-1,6.2-3.5,6.2-8c0-8.8-10.5-8.8-14-8.8h-18.3h-0.4v1.6l1.5,0.3c3.8,0.7,5.9,1.1,5.9,4.5v29.8
		h10.9c4.5,0,16.5,0,16.5-9.9C206.2,27.9,203.3,24.7,197.9,23.5z M184.8,13c0-3.2,0-3.6,4-3.6c5.8,0,8.6,2.1,8.6,6.5
		c0,5.8-5.7,6.4-10,6.4c0,0-2,0-2.6,0C184.8,21.6,184.8,13,184.8,13z M189.5,40c-4.7,0-4.7,0-4.7-3.9c0,0,0-10.3,0-10.9
		c0.6,0,2.6,0,2.6,0c3.6,0,12.1,0,12.1,7.8C199.5,37.6,196.2,40,189.5,40z"/>
	<path class="st1" d="M226.6,6.6h-0.2h-10.8v1.6l0.3,0.1c3.1,0.6,4.4,1.1,4.4,2.1c0,0.7-0.4,1.7-0.8,2.6l0,0.1
		c0,0-12.8,29.7-12.8,29.7h4.6c0,0,4.6-11.3,4.8-11.8c0.5,0,14.3,0,14.8,0c0.2,0.4,5.1,11.8,5.1,11.8h6.7L226.6,6.6z M217.1,28.2
		c0.4-0.9,5.8-13.4,6.3-14.7c0.6,1.4,5.9,13.8,6.3,14.7C228.8,28.2,218.1,28.2,217.1,28.2z"/>
	<path class="st2" d="M285,42.7h6c0,0,0-15.5,0-16.9c1.1,1.1,16.9,16.9,16.9,16.9l6.3-0.1l-19.4-19.2L314,6.6h-0.9h-1h-4.6
		c0,0-15.5,13.4-16.5,14.3c0-1.3,0-14.2,0-14.2h-11.9v1.5l0.6,0.1c4.9,0.7,5.3,0.9,5.3,4.5L285,42.7z"/>
	<path class="st1" d="M276.7,6.4h-3.8c0,0,0,26.5,0,28.2c-1-1.4-20.2-28.2-20.2-28.2h-13.7V8l0.3,0c5.5,0.7,6.3,1,6.3,5v29.6h4.2
		c0,0,0-28.6,0-30.4c1,1.4,21.8,30.4,21.8,30.4h5.6V6.4H276.7z"/>
</g>
</svg>
