<svg id="Group_6079" data-name="Group 6079" xmlns="http://www.w3.org/2000/svg" width="230.021" height="28.13" viewBox="0 0 230.021 28.13">
  <path id="Path_4781" data-name="Path 4781" d="M278.417,1163.464h-2.929a1.614,1.614,0,0,0-.176-1.347l-4.741-8.2a11.7,11.7,0,0,0-2.109-2.812h.058c1.932,1.055,5.678,3.164,12.936,7.44l.41.234c1.346.761,2.165,1.992,1.932,2.87-.352,1.113-2.282,1.816-5.39,1.816m-9.473,8.143-.41.234c-1.346.762-2.751.879-3.4.234-.878-.879-.469-2.87,1.111-5.624l1.464-2.46a1.555,1.555,0,0,0,1.289.527h9.423a15.118,15.118,0,0,0,3.515-.352h-.058C280,1165.222,276.252,1167.507,268.935,1171.607Zm-5.029-17.4v-.469c0-1.582.645-2.812,1.58-3.046,1.172-.293,2.7,1.054,4.273,3.749l1.463,2.461a1.452,1.452,0,0,0-1.054.82l-4.741,8.2a16.44,16.44,0,0,0-1.468,3.221v-.058C263.842,1166.979,263.79,1162.644,263.906,1154.208Zm7.487-6.854a14.059,14.059,0,1,0,14.048,14.071v-.011A14.1,14.1,0,0,0,271.393,1147.355Z" transform="translate(-257.322 -1147.355)" fill="#f58025"/>
  <path id="Path_4782" data-name="Path 4782" d="M332.149,1147.355H319.682v1.23h.234c4.39.527,4.8,1.113,4.8,3.339v23.549H329.7V1163.23h1.992c4.686,0,14.458,0,14.458-7.967S337.066,1147.355,332.149,1147.355Zm-.527,13.766h-1.931v-9.138c0-2.168,0-2.519,4.038-2.519,4.507,0,6.965,2.109,6.965,5.858.058,5.1-4.565,5.8-9.072,5.8Z" transform="translate(-286.295 -1147.355)" fill="#0069aa"/>
  <path id="Path_4783" data-name="Path 4783" d="M396.527,1147.355H393.6v21.909c-.7-1.113-15.453-21.909-15.453-21.909H367.67v1.23h.234c4.273.527,4.8.761,4.8,3.866v23.022h3.22v-23.549c.76,1.113,16.681,23.549,16.681,23.549h4.273v-28.118Z" transform="translate(-308.59 -1147.355)" fill="#0069aa"/>
  <path id="Path_4784" data-name="Path 4784" d="M429.275,1160.594c0,7.439,4.569,14.879,14.926,14.879a34.29,34.29,0,0,0,9.6-1.113l.234-.058v-2.285l-.41.058a29.737,29.737,0,0,1-6.561,1c-8.253,0-12.233-4.452-12.233-13.59-.059-6.092,2.929-9.783,7.844-9.783,3.4,0,5.272,1.289,5.795,3.808l.058.234h5.443v-.293c-.117-1.406-1.523-6.092-10.945-6.092C433.9,1147.413,429.275,1151.866,429.275,1160.594Z" transform="translate(-337.213 -1147.355)" fill="#0069aa"/>
  <path id="Path_4785" data-name="Path 4785" d="M502.928,1160.418a6.272,6.272,0,0,0,4.741-6.209c0-6.854-8.02-6.854-10.712-6.854H482.676v1.23l1.171.234c2.929.527,4.507.879,4.507,3.515v23.139h8.37c3.454,0,12.643,0,12.643-7.674C509.308,1163.816,507.084,1161.356,502.928,1160.418Zm-10.009-8.142c0-2.461,0-2.812,3.046-2.812,4.452,0,6.561,1.64,6.561,5.038,0,4.511-4.39,4.979-7.668,4.979h-1.992C492.919,1158.954,492.919,1152.276,492.919,1152.276Zm3.571,20.971c-3.571,0-3.571,0-3.571-3.046v-8.494h1.992c2.751,0,9.248,0,9.248,6.033,0,3.632-2.519,5.506-7.671,5.506Z" transform="translate(-362.023 -1147.355)" fill="#0069aa"/>
  <path id="Path_4786" data-name="Path 4786" d="M548.4,1147.355h-8.428v1.23l.234.058c2.4.468,3.4.879,3.4,1.64a5.812,5.812,0,0,1-.586,1.992v.058l-9.894,23.139h3.515s3.515-8.787,3.687-9.139H551.68c.176.293,3.921,9.139,3.921,9.139h5.155Zm-7.317,16.754c.293-.7,4.452-10.427,4.8-11.423.469,1.113,4.508,10.72,4.8,11.423Z" transform="translate(-385.461 -1147.355)" fill="#0069aa"/>
  <path id="Path_4787" data-name="Path 4787" d="M641.32,1175.473h4.569v-13.18c.82.879,12.936,13.18,12.936,13.18l4.8-.058-14.878-14.938,14.749-13.122h-4.975s-11.882,10.427-12.643,11.13v-11.072H636.75v1.172l.469.058c3.749.527,4.039.7,4.039,3.515v23.315Z" transform="translate(-433.607 -1147.355)" fill="#0069aa" fill-rule="evenodd"/>
  <path id="Path_4788" data-name="Path 4788" d="M608.32,1147.355h-2.929v21.909c-.762-1.113-15.453-21.909-15.453-21.909H579.463v1.23h.234c4.218.527,4.8.761,4.8,3.866v23.022h3.22v-23.608c.756,1.113,16.678,23.608,16.678,23.608h4.273v-28.118Z" transform="translate(-406.991 -1147.355)" fill="#0069aa"/>
</svg>
