<?xml version="1.0" encoding="utf-8"?>
<!-- Generator: Adobe Illustrator 24.1.1, SVG Export Plug-In . SVG Version: 6.00 Build 0)  -->
<svg version="1.1"
	 id="svg2" inkscape:version="0.47 r22583" sodipodi:docname="misc2svg_20100601_140101_cd6401981d.svg" xmlns:cc="http://creativecommons.org/ns#" xmlns:dc="http://purl.org/dc/elements/1.1/" xmlns:inkscape="http://www.inkscape.org/namespaces/inkscape" xmlns:rdf="http://www.w3.org/1999/02/22-rdf-syntax-ns#" xmlns:sodipodi="http://sodipodi.sourceforge.net/DTD/sodipodi-0.dtd" xmlns:svg="http://www.w3.org/2000/svg"
	 xmlns="http://www.w3.org/2000/svg" xmlns:xlink="http://www.w3.org/1999/xlink" x="0px" y="0px" viewBox="0 0 393.7 65.1"
	 style="enable-background:new 0 0 393.7 65.1;" xml:space="preserve">
<style type="text/css">
	.st0{fill:#6EC72E;}
	.st1{fill:#409629;}
</style>
<path id="path68" class="st0" d="M36.9,14.2L24.8,30.5l18.9,33.3L36.9,14.2z"/>
<path id="path70" class="st0" d="M71.3,32L71,31.6L56.4,63.9h38.7C95.1,63.9,71.3,32,71.3,32z"/>
<path id="path72" class="st0" d="M47.5,63.9l9.5-51.3L47.5,0L38,12.8L47.5,63.9C47.4,63.9,47.5,63.9,47.5,63.9z"/>
<path id="path74" class="st0" d="M23.8,32L0,63.9h38.3L24.1,31.6L23.8,32z"/>
<path id="path76" class="st0" d="M52.2,63.9l17.9-33.6L58,14.1l-6,49.8H52.2z"/>
<path id="path78" class="st1" d="M132.3,20.7h-3.5v18.9h3.1c3.6,0,6.3-0.1,8.2-1.9c1.8-1.7,2.7-4.2,2.7-7.5c0-2-0.4-3.8-1.2-5.1
	c-0.8-1.4-2-2.5-3.5-3.2C136.5,21.1,134.5,20.7,132.3,20.7 M131.2,42.2h-2.4v15.6c0,1.8,0.3,3.1,0.8,4c0.5,0.9,1.2,1.4,1.9,1.7
	c0.8,0.2,1.8,0.4,3,0.4v0.8h-21.9v-0.9c2.4,0,4-0.6,4.7-1.6c0.7-1.1,1-2.6,1-4.4V25.1c0-2.2-0.4-3.8-1.4-4.7
	c-0.9-0.9-2.4-1.4-4.4-1.4v-0.9h25.1c3.2,0,6,0.5,8.4,1.5c2.4,1,4.2,2.4,5.5,4.2c1.3,1.8,1.9,3.9,1.9,6.2c0,1.9-0.4,3.6-1.2,5.1
	c-0.8,1.5-1.9,2.7-3.2,3.6c-1.4,1-2.9,1.7-4.5,2.2c2.2,1.4,4.3,3.8,6.3,7.3l5.6,9.4c0.9,1.6,1.8,2.9,2.6,3.8
	c0.8,0.9,1.5,1.5,2.1,1.8c0.6,0.3,1.3,0.5,2,0.6v0.9h-14.4c-1.5-2.6-2.6-4.7-3.4-6.3c-2.5-4.9-4.3-8.2-5.4-10.1
	c-1.1-1.9-2.3-3.3-3.5-4.1C135.2,43.3,133.1,42.2,131.2,42.2"/>
<path id="path80" class="st1" d="M197,29.1l0,7.8l-1.2-0.1c-0.4-1.3-0.7-2.2-1.1-3.1c-0.4-0.9-1-1.5-1.8-2c-0.8-0.5-1.9-0.7-3.2-0.7
	h-8.4l0.1,14.6l6.4,0c1.9,0,3.2-0.4,4.1-1.1c0.9-0.8,2.2-1.4,2.4-2.9l1.1,0l0.1,10.7H194c-0.3-1.6-1.9-3.3-2.9-3.8s-2.2-0.8-3.6-0.8
	h-6.2l-0.1,10.8c0,4.2,2.3,4.8,5.6,4.8h2.4c1.6,0,2.9-0.5,3.9-0.9c1-0.4,1.8-1.1,2.5-2c0.7-0.9,0.7-2.3,1.3-4h1.1l0,8.6l-29.6,0
	v-0.7c2,0,3.4-0.4,4-1.3c0.6-0.8,0.9-2,0.9-3.3V34.5c0-1.3-0.3-2.4-0.8-3.3c-0.5-0.9-1.8-1.4-3.8-1.4h-0.3v-0.7L197,29.1L197,29.1z"
	/>
<path id="path82" class="st1" d="M239.1,40.3h-0.7c-1-2.5-3.3-6.4-5.6-8c-2.2-1.6-4.8-2.4-7.8-2.4c-2.3,0-4.2,0.5-5.8,1.5
	s-2.7,2.3-3.6,3.9s-1.4,3.4-1.8,5.3c-0.3,1.9-0.5,3.9-0.5,6.1c0,5.3,1,9.3,3.1,12.1c2.1,2.8,4.9,4.2,8.5,4.2c2.6,0,4.2-0.4,4.8-1.1
	c0.6-0.8,1-1.9,1-3.4v-4.2c0-0.8-0.1-1.6-0.2-2.2c-0.1-0.6-0.4-0.7-0.9-1.2c-0.6-0.5-2.5-0.8-3.6-0.9v-0.8h17.3V50
	c-2.2,0.3-4.5,1.1-4.5,3.6v8.9c-3.9,1.8-8.3,2.7-13.2,2.7c-2,0-3.8-0.1-5.4-0.4c-1.6-0.3-3-0.7-4.3-1.1c-1.3-0.5-2.3-1-3.2-1.6
	c-0.9-0.6-1.7-1.2-2.4-1.9c-1-1-2-2.1-2.8-3.4c-0.8-1.3-1.5-2.8-2-4.5c-0.5-1.7-0.8-3.6-0.8-5.6c0-2.8,0.5-5.3,1.5-7.5
	c1-2.3,2.4-4.2,4.2-5.9c1.8-1.7,3.9-2.9,6.2-3.8c2.3-0.9,4.8-1.3,7.3-1.3c1.4,0,2.8,0.2,3.9,0.5c1,0.2,2.7,1.2,5.2,2
	c0.8,0.2,1.6,0.4,2.6,0.4c1,0,2.4-1.3,2.7-2.5h0.7L239.1,40.3L239.1,40.3z"/>
<path id="path84" class="st1" d="M250.4,29v-0.7h17.7V29c-2,0-3.2,0.4-3.8,1.3c-0.6,0.9-0.9,1-0.9,2.5v26.5c0,0.8,0.1,1.6,0.2,2.3
	c0.2,0.7,0.6,1.3,1.2,1.8s1.7,0.8,3,0.8h0.2v0.7h-17.7v-0.7c1.9,0,3.2-0.4,3.8-1.3c0.6-0.9,0.9-2.1,0.9-3.5V32.8
	c0-1.7-0.4-1.9-1.1-2.7C253.2,29.3,252,29,250.4,29"/>
<path id="path86" class="st1" d="M285.6,45.4c0,2.5,0.2,5,0.6,7.5s1.4,4.8,3,6.9c1.6,2.1,4,3.2,7.3,3.2c4.5,0,7.5-1.8,8.7-5.4
	s1.9-7.3,1.9-11c0-2.9-0.3-5.6-0.8-8.2c-0.5-2.5-1.6-4.7-3.1-6.5c-1.6-1.8-3.8-2.7-6.7-2.7c-3.3,0-5.7,1-7.3,3.1
	c-1.6,2.1-2.6,4.3-3,6.6C285.8,41.1,285.6,43.3,285.6,45.4 M276.7,45.9c0-2.5,0.4-5,1.3-7.3c0.9-2.3,2.2-4.3,3.9-6.1
	c1.7-1.7,3.8-3.1,6.2-4.1c2.4-1,5.2-1.5,8.3-1.5c3.1,0,5.9,0.5,8.3,1.5c2.4,1,4.5,2.4,6.2,4.1c1.7,1.8,3,3.8,3.9,6.1
	c0.9,2.3,1.3,4.8,1.3,7.4c0,2.6-0.4,5-1.3,7.3c-0.8,2.3-2.1,4.3-3.7,6c-1.6,1.8-3.7,3.1-6.2,4.1c-2.5,1-5.3,1.5-8.4,1.5
	c-3.4,0-6.3-0.6-8.9-1.7c-2.5-1.1-4.6-2.6-6.2-4.5c-1.6-1.9-2.8-3.9-3.5-6.2C277.1,50.3,276.7,48.1,276.7,45.9"/>
<path id="path88" class="st1" d="M334,28.2l21.9,22.9V34.5c0-2.2-0.7-3.6-1.6-4.4c-0.9-0.8-1.6-0.9-3.4-1.2v-0.7h12.1v0.7
	c-1.4,0.2-2,0.1-2.9,0.7c-0.8,0.5-1.1,0.9-1.6,1.8c-0.4,0.7-0.5,2-0.5,3.1v30.3H357l-26.9-29v21.1c0,1.7,0.1,3.6,0.8,4.8
	c0.7,1.2,3.1,1.4,5,1.6v0.7H323v-0.7c3.6-0.3,4.4-2.1,4.3-5.4V33.4c-1.5-2.1-2-4.3-4.4-4.4l0-0.8H334L334,28.2z"/>
<path id="path90" class="st1" d="M391.6,36.8h-1c-0.7-2.3-1.8-4.1-3.3-5.4c-1.5-1.3-4.4-2-6.6-2c-1,0-2,0.2-2.9,0.6
	c-0.9,0.4-1.5,1-2.1,1.7s-0.8,1.6-0.8,2.6c0,0.6,0.1,1.1,0.3,1.7c0.2,0.5,0.7,1.2,1.4,2c0.8,0.8,1.9,1.7,3.4,2.6
	c1.7,1,2.8,1.7,3.1,2c2.2,1.3,4.6,2.6,6.3,4c1.6,1.2,2.2,2,2.9,3.3c0.7,1.3,1.1,2.8,1.1,4.5c0,1.5-0.3,2.9-0.9,4.2
	c-0.6,1.3-1.1,2.3-2.2,3.3s-2.5,1.6-4,2.1c-1.6,0.5-3.2,0.8-5.1,0.8c-1.9,0-4-0.3-6.5-1c-0.3-0.1-0.6-0.1-1-0.2
	c-0.4-0.1-0.8-0.1-1.1-0.1c-0.8,0-1.4,0.4-1.7,1.3h-0.9l0-11h0.7c0.3,2,1.2,4.8,2.3,6.1c1.2,1.4,2.5,1.9,3.9,2.5
	c1.4,0.6,2.7,0.8,4,0.8c1.9,0,3.5-0.7,4.7-1.7c1.2-1,1.9-2.3,1.9-3.8c0-1-0.3-1.9-0.8-2.6c-0.5-0.7-1.3-1.5-2.3-2.2s-3-2-5.9-3.8
	c-1.5-1-2.8-1.9-3.9-2.8c-1.1-0.9-1.9-1.8-2.5-2.6c-0.6-0.8-0.9-1.2-1.5-2.4c-0.4-0.8-0.6-1.7-0.7-2.6c-0.2-2,0.2-4,1.2-5.7
	c1-1.7,2.3-3.2,4-4.3c1.8-1.1,4.5-1.4,6.7-1.4c1,0,2,0.1,3,0.3c0.3,0,0.6,0.1,1,0.2c0.4,0.1,0.8,0.2,1.1,0.2
	c0.8,0.1,1.3,0.2,1.7,0.2c0.6,0,1-0.1,1.2-0.3c0.2-0.2,0.4-0.4,0.7-0.8h0.8L391.6,36.8L391.6,36.8z"/>
</svg>
