<svg id="Group_6080" data-name="Group 6080" xmlns="http://www.w3.org/2000/svg" width="217.564" height="28.119" viewBox="0 0 217.564 28.119">
  <path id="path68" d="M282.989,1290.384l-5.316,7.161,8.3,14.631Z" transform="translate(-266.777 -1284.102)" fill="#6ec72e"/>
  <path id="path70" d="M310.151,1304.758l-.132-.176-6.413,14.191h17Z" transform="translate(-278.825 -1290.698)" fill="#6ec72e"/>
  <path id="path72" d="M292.679,1306.724l4.174-22.538-4.174-5.536-4.173,5.624Z" transform="translate(-271.81 -1278.65)" fill="#6ec72e"/>
  <path id="path74" d="M267.779,1304.758l-10.457,14.015h16.827l-6.239-14.191Z" transform="translate(-257.322 -1290.698)" fill="#6ec72e"/>
  <path id="path76" d="M300.082,1312.1l7.864-14.762-5.315-7.118-2.636,21.88Z" transform="translate(-277.148 -1284.026)" fill="#6ec72e"/>
  <path id="path78" d="M361.541,1280.514h-2.109v11.335h1.845c2.154,0,3.779-.045,4.921-1.143a5.778,5.778,0,0,0,1.625-4.481,6.007,6.007,0,0,0-.7-3.076,4.745,4.745,0,0,0-2.108-1.933,8.425,8.425,0,0,0-3.47-.7m-.659,12.874h-1.45v9.358a4.972,4.972,0,0,0,.484,2.416,2.267,2.267,0,0,0,1.142,1.01,6.952,6.952,0,0,0,1.8.22v.482H349.766v-.527c1.45,0,2.416-.352,2.812-.967a4.684,4.684,0,0,0,.615-2.636V1283.15a3.6,3.6,0,0,0-.834-2.811,3.709,3.709,0,0,0-2.636-.835v-.527h15.026a13.25,13.25,0,0,1,5.009.879,7.68,7.68,0,0,1,3.295,2.5,6.127,6.127,0,0,1,1.143,3.691,6.483,6.483,0,0,1-.7,3.075,6.116,6.116,0,0,1-1.933,2.152,9.5,9.5,0,0,1-2.68,1.318,12.228,12.228,0,0,1,3.778,4.349l3.339,5.623a14.517,14.517,0,0,0,1.538,2.285,5.336,5.336,0,0,0,1.274,1.1,3.694,3.694,0,0,0,1.186.352v.527h-8.611c-.879-1.537-1.537-2.812-2.021-3.778-1.494-2.943-2.592-4.921-3.251-6.063a7.078,7.078,0,0,0-2.109-2.46,6.328,6.328,0,0,0-3.119-1.142" transform="translate(-300.252 -1278.801)" fill="#409629"/>
  <path id="path80" d="M429.306,1290.921v4.657l-.7-.045a14.354,14.354,0,0,0-.659-1.845,2.6,2.6,0,0,0-1.1-1.185,3.6,3.6,0,0,0-1.933-.439H419.9l.043,8.742h3.823a3.751,3.751,0,0,0,2.461-.658c.527-.483,1.318-.834,1.449-1.758h.66l.044,6.415h-.879a3.82,3.82,0,0,0-1.758-2.285,4.714,4.714,0,0,0-2.152-.484H419.9l-.088,6.458c0,2.5,1.362,2.855,3.339,2.855H424.6a6.292,6.292,0,0,0,2.328-.527,3.282,3.282,0,0,0,1.494-1.185c.439-.527.439-1.362.791-2.416h.66v5.14H412.171v-.44c1.186,0,2.021-.219,2.416-.791a3.4,3.4,0,0,0,.527-1.977v-15.026a3.869,3.869,0,0,0-.483-1.977c-.307-.527-1.1-.834-2.285-.834h-.176v-.44h17.135Z" transform="translate(-329.266 -1284.331)" fill="#409629"/>
  <path id="path82" d="M473.275,1297.016h-.439a12.6,12.6,0,0,0-3.339-4.789,7.635,7.635,0,0,0-4.657-1.449,6.676,6.676,0,0,0-3.47.879,6.068,6.068,0,0,0-2.152,2.328,12.242,12.242,0,0,0-1.1,3.163,23.5,23.5,0,0,0-.308,3.646,12.09,12.09,0,0,0,1.844,7.249,6,6,0,0,0,5.1,2.5c1.537,0,2.5-.22,2.855-.659a3.352,3.352,0,0,0,.615-2.021v-2.5a5.827,5.827,0,0,0-.131-1.318c-.044-.352-.221-.44-.527-.7a5,5,0,0,0-2.152-.528v-.484H475.78v.484c-1.318.176-2.68.659-2.68,2.152v5.315a18.31,18.31,0,0,1-7.908,1.625,18.586,18.586,0,0,1-3.251-.219c-.966-.176-1.8-.439-2.591-.659a11.268,11.268,0,0,1-1.933-.966,7.547,7.547,0,0,1-1.45-1.143,12.369,12.369,0,0,1-1.669-2.021,11.589,11.589,0,0,1-1.671-6.019A10.8,10.8,0,0,1,459.7,1290.6a12.117,12.117,0,0,1,4.349-.791,9.329,9.329,0,0,1,2.328.307c.615.131,1.625.7,3.119,1.186a5.649,5.649,0,0,0,1.539.219,2.142,2.142,0,0,0,1.625-1.494h.44l.176,6.985Z" transform="translate(-348.061 -1283.835)" fill="#409629"/>
  <path id="path84" d="M503.8,1290.579v-.44h10.587v.44c-1.185,0-1.933.219-2.284.791a1.933,1.933,0,0,0-.527,1.494v15.86a6.492,6.492,0,0,0,.133,1.361,2.259,2.259,0,0,0,.7,1.1,2.846,2.846,0,0,0,1.8.483h.131v.439H503.752v-.439c1.142,0,1.933-.219,2.285-.791a3.849,3.849,0,0,0,.527-2.109v-15.9a1.78,1.78,0,0,0-.659-1.625,2.71,2.71,0,0,0-2.109-.658" transform="translate(-371.815 -1283.988)" fill="#409629"/>
  <path id="path86" d="M538.608,1299.687a30.786,30.786,0,0,0,.352,4.482,8.9,8.9,0,0,0,1.8,4.129,5.127,5.127,0,0,0,4.349,1.933c2.68,0,4.481-1.1,5.228-3.251a21.218,21.218,0,0,0,1.143-6.591,25.233,25.233,0,0,0-.483-4.921,9.223,9.223,0,0,0-1.845-3.909,5.013,5.013,0,0,0-4-1.625,5.083,5.083,0,0,0-4.349,1.845,9.424,9.424,0,0,0-1.8,3.954,21.554,21.554,0,0,0-.4,3.954m-5.315.308a11.241,11.241,0,0,1,.791-4.349,11.008,11.008,0,0,1,2.328-3.646,12.049,12.049,0,0,1,3.69-2.46,12.672,12.672,0,0,1,4.964-.879,13.511,13.511,0,0,1,4.964.879,10.869,10.869,0,0,1,3.69,2.46,11.461,11.461,0,0,1,2.328,3.646,12.24,12.24,0,0,1,.791,4.437,11.081,11.081,0,0,1-.791,4.349,10.732,10.732,0,0,1-2.2,3.6,9.568,9.568,0,0,1-3.69,2.461,13.048,13.048,0,0,1-5.009.879,13.344,13.344,0,0,1-5.315-1.01,9.672,9.672,0,0,1-3.69-2.68,10.726,10.726,0,0,1-2.109-3.69,10.888,10.888,0,0,1-.747-4" transform="translate(-385.54 -1283.3)" fill="#409629"/>
  <path id="path88" d="M591.587,1290.139l13.093,13.708v-9.929a3.427,3.427,0,0,0-.966-2.636c-.527-.483-.967-.527-2.021-.7v-.44h7.25v.44c-.835.131-1.187.044-1.758.439a2.388,2.388,0,0,0-.966,1.1,4.638,4.638,0,0,0-.307,1.845v18.146H605.3l-16.081-17.4v12.654a5.85,5.85,0,0,0,.483,2.855c.439.7,1.845.834,2.987.966v.44h-7.733v-.44c2.153-.176,2.636-1.273,2.593-3.251v-14.675c-.879-1.273-1.187-2.591-2.636-2.636v-.483Z" transform="translate(-409.521 -1283.988)" fill="#409629"/>
  <path id="path90" d="M650.45,1294.67h-.615a7.283,7.283,0,0,0-1.977-3.251,6.584,6.584,0,0,0-3.958-1.186,4.825,4.825,0,0,0-1.757.352,4.049,4.049,0,0,0-1.275,1.01,2.1,2.1,0,0,0-.483,1.537,2.73,2.73,0,0,0,.176,1.01,6,6,0,0,0,.836,1.186,10.454,10.454,0,0,0,2.021,1.537,17.6,17.6,0,0,1,1.845,1.185,27.965,27.965,0,0,1,3.779,2.416,5.208,5.208,0,0,1,1.757,1.976,5.388,5.388,0,0,1,.66,2.68,5.943,5.943,0,0,1-.527,2.5,5.776,5.776,0,0,1-1.318,1.977,6.36,6.36,0,0,1-2.416,1.274,9.8,9.8,0,0,1-3.075.482,13.734,13.734,0,0,1-3.91-.615,5.22,5.22,0,0,1-.615-.132,1.79,1.79,0,0,0-.659-.043.977.977,0,0,0-1.01.791H637.4v-6.585h.439a8.645,8.645,0,0,0,1.362,3.646,5.418,5.418,0,0,0,2.328,1.494,6.077,6.077,0,0,0,2.417.483,4.454,4.454,0,0,0,2.812-1.01,2.917,2.917,0,0,0,1.142-2.285,2.474,2.474,0,0,0-.482-1.537,6.539,6.539,0,0,0-1.362-1.317c-.571-.44-1.8-1.186-3.515-2.285-.879-.615-1.669-1.142-2.328-1.669a9.52,9.52,0,0,1-1.494-1.537,5.959,5.959,0,0,1-.879-1.449,6.166,6.166,0,0,1-.439-1.537,5.77,5.77,0,0,1,.7-3.427,7.561,7.561,0,0,1,2.417-2.591,8.183,8.183,0,0,1,4-.834,8.338,8.338,0,0,1,1.8.176,1.92,1.92,0,0,1,.615.131,4.375,4.375,0,0,0,.66.131c.484.043.791.131,1.01.131.352,0,.615-.043.7-.176a5.685,5.685,0,0,0,.44-.483h.483l.22,5.843Z" transform="translate(-433.895 -1283.379)" fill="#409629"/>
</svg>
