<?xml version="1.0" encoding="utf-8"?>
<!-- Generator: Adobe Illustrator 24.1.1, SVG Export Plug-In . SVG Version: 6.00 Build 0)  -->
<svg version="1.1" id="Layer_1" xmlns="http://www.w3.org/2000/svg" xmlns:xlink="http://www.w3.org/1999/xlink" x="0px" y="0px"
	 viewBox="0 0 2100.2 617.5" style="enable-background:new 0 0 2100.2 617.5;" xml:space="preserve">
<style type="text/css">
	.st0{fill:#5A5A5A;}
	.st1{fill:#D1171E;}
	.st2{fill:#CF332C;}
	.st3{fill:#F6A52B;}
	.st4{fill:#F7A82A;}
	.st5{fill:#FBBF26;}
	.st6{fill:#F8AD2A;}
	.st7{fill:#FABA28;}
	.st8{fill:#F7AC2A;}
	.st9{fill:#F9B528;}
	.st10{fill:#F9BA27;}
	.st11{fill:#F8B128;}
	.st12{fill:#842A28;}
	.st13{fill:#F9B428;}
	.st14{fill:#A62F2B;}
	.st15{fill:#BD322B;}
	.st16{fill:#8B2C28;}
	.st17{fill:#B4312B;}
	.st18{fill:#922C29;}
	.st19{fill:#9F2E2A;}
	.st20{fill:#C6322C;}
	.st21{fill:#982D2A;}
	.st22{fill:#F8B028;}
	.st23{fill:#7C2927;}
	.st24{fill:#AD302A;}
	.st25{fill:#732726;}
	.st26{fill:#F5A01F;}
	.st27{fill:#FEFEFD;}
</style>
<g>
	<path class="st0" d="M1078.2,608.1c-33.2,0-66.3-0.1-99.5,0.1c-4.3,0-6-0.8-5.9-5.6c0.3-19.2,0.3-38.3,0-57.5
		c-0.1-4.6,1.4-5.5,5.6-5.4c15,0.3,30,0,45,0.2c3.6,0,4.8-0.8,4.8-4.7c-0.1-62.8-0.1-125.6,0-188.5c0-4.3-1.5-4.8-5.2-4.8
		c-18.3,0.1-36.7,0-55,0.1c-3.6,0-4.4-1-4.4-4.5c0.1-20.2,0.1-40.3-0.1-60.5c0-3.7,1.3-4.4,4.7-4.4c18.3,0.1,36.7,0,55,0.1
		c3.9,0,5-1,5-5c-0.2-32.2-0.2-64.3-0.1-96.5c0.1-18.6,2.7-36.9,9.6-54.3c13.5-33.5,39.1-52.5,73.3-61c27.1-6.8,54.5-6.1,81.9-2.6
		c7.9,1,15.8,2.5,23.7,3.5c3.3,0.4,4.8,1.5,4.7,5.3c-0.2,18.5-0.2,37,0,55.5c0.1,4.2-1.3,4.5-4.9,3.9c-18.7-2.8-37.4-4.6-56.2-1.9
		c-27.8,4-42.2,19.5-44,47.7c-0.7,10.3-0.4,20.6-0.4,31c0,22.5,0,45,0,67.5c0,7.5-1,6.8,6.5,6.8c23.8,0,47.7,0.1,71.5-0.1
		c4,0,5.1,1.1,5,5c-0.2,19.8-0.2,39.7,0,59.5c0.1,4.3-1.5,4.9-5.2,4.8c-24.3-0.1-48.7,0-73-0.2c-4,0-5,1.1-5,5
		c0.1,62.6,0.1,125.3,0,188c0,4,1.1,5,5,5c19.2-0.2,38.3,0,57.5-0.2c4.3,0,5.2,1.2,5.2,5.3c-0.2,19.5-0.2,39,0,58.5
		c0,3.8-1.1,4.7-4.8,4.7C1145.2,608,1111.7,608.1,1078.2,608.1z"/>
	<path class="st0" d="M919.4,343.5c0,17.2-0.1,34.3,0.1,51.5c0,3.6-0.5,5.3-4.8,5.2c-21.3-0.2-42.7-0.2-64,0c-3.5,0-4.5-1-4.5-4.5
		c0.2-18.8,0-37.7,0.1-56.5c0-3.1-0.6-4.6-4.1-5.3c-20.1-4.1-40.3-5.3-60.5-1c-31,6.5-52.2,24.9-62.2,54.7
		c-11.7,34.7-11.7,69.9,0.7,104.4c12.4,34.6,38.8,52.2,74.6,56.1c36.8,4,71-5.7,104.2-20.4c4.7-2.1,9.4-4.3,14-6.6
		c2-1,3.3-1.6,3.3,1.6c-0.1,21.2-0.1,42.3,0,63.5c0,3-2.1,3.5-4,4.4c-21.3,11.2-44,18.1-67.7,21.9c-35.7,5.8-71.4,6.3-106.7-2.9
		c-64.2-16.7-101.5-58.9-113.7-123.5c-6.3-33.6-5.8-67.4,2.7-100.7c16.3-63.8,57.5-102,121.3-116.1c42.7-9.4,85.2-5.4,127.3,4.4
		c13.3,3.1,26.3,7.2,39.3,11.4c3.5,1.1,4.5,2.8,4.5,6.4C919.3,308.9,919.4,326.2,919.4,343.5z"/>
	<path class="st0" d="M416.5,439.9c0-31-0.1-62,0.1-93c0-4-1.1-5.1-5-5c-16.3,0.2-32.7,0-49,0.2c-3.6,0-4.4-1.1-4.4-4.5
		c0.1-20,0.2-40,0-60c0-4.2,1.4-4.9,5.1-4.9c16,0.2,32-0.1,48,0.2c4.1,0.1,5.4-0.9,5.3-5.2c-0.2-25,0-50-0.2-75c0-4.1,1-5.4,5.3-5.3
		c25.8,0.2,51.7,0.2,77.5,0c4.2,0,5.3,1.2,5.3,5.3c-0.2,25,0,50-0.2,75c0,4.3,1.3,5.3,5.3,5.2c27-0.2,54,0,81-0.2
		c4.5,0,5.5,1.3,5.5,5.6c-0.2,19.7-0.2,39.3,0,59c0,3.7-1,4.8-4.8,4.8c-27.3-0.1-54.7,0-82-0.2c-4,0-5,1-5,5
		c0.1,54.3,0,108.7,0.1,163c0,25.5,9.3,35.9,34.5,38.5c19.5,2,38.6-0.7,57.2-6.5c4.9-1.5,5.4-0.3,5.4,4.2c-0.2,18.2-0.1,36.3,0,54.5
		c0,2.9-0.5,4.5-3.7,5.3c-35.6,9.4-71.6,13.6-108.4,8.2c-10.4-1.5-20.5-4.4-30-9.1c-23.7-11.6-35.6-31.6-40.1-56.8
		c-1.9-10.7-2.6-21.5-2.6-32.3C416.4,490.6,416.5,465.2,416.5,439.9z"/>
	<path class="st1" d="M1722.3,434.2c7.8-6.8,14.8-12.7,22.4-17.7c15.1-10,31-17.6,49.5-18.2c31.7-1,55,17.6,61.2,48.8
		c1.5,7.7,2.1,15.5,2.1,23.4c0,28.7,0,57.3,0,86c0,3,0.1,6,0.6,9c1.8,10.7,7.7,16.1,18.4,17c12,0.9,24,0.2,36,0.5
		c2.5,0,3.2-1.1,3-3.3c-0.1-0.8,0-1.7,0-2.5c0-91,0-182,0.1-273c0-4.8-1.1-6.3-6-6c-9,0.4-18,0-27,0.2c-3.6,0.1-4.6-1.1-4.4-4.5
		c0.3-5.6,0.2-11.3,0-17c-0.1-2.9,0.6-4.1,3.8-4.1c20.2,0.1,40.3,0.1,60.5,0c2.9,0,4,1,3.7,3.8c-0.1,1.3,0,2.7,0,4
		c0,98.8,0,197.6-0.1,296.5c0,4.7,1,6.3,5.9,6.1c8.6-0.5,17.3,0.1,26-0.2c3.6-0.1,4.5,1.1,4.4,4.5c-0.3,5.8-0.2,11.7,0,17.5
		c0.1,2.6-0.7,3.5-3.4,3.5c-35.3-0.2-70.7-0.2-106-0.4c-2.7,0-5.3-0.5-7.9-0.8c-25-3.2-37.6-16.6-37.9-41.9
		c-0.4-31.5-0.1-63-0.1-94.5c0-4.8,0.1-9.7-0.7-14.5c-4.3-25.8-20.2-36-45.6-29.5c-16.9,4.4-30.2,14.8-43.9,24.9
		c-11.2,8.3-15.3,17.8-14.9,31.9c1.1,39.8,0.3,79.6,0.5,119.5c0,4.2-1.1,5.5-5.3,5.3c-6.8-0.3-13.7-0.3-20.5,0
		c-4.1,0.2-5.3-0.9-5.3-5.2c0.2-43.3,0.1-86.7,0.1-130c0-13.2-0.1-26.3,0.1-39.5c0.1-3.5-0.9-4.5-4.4-4.4c-9.2,0.3-18.3,0-27.5,0.1
		c-3.1,0.1-4.5-0.6-4.3-4.1c0.3-6.1,0.2-12.3,0-18.5c-0.1-2.6,0.7-3.5,3.4-3.5c20,0.1,40,0.1,60,0c2.9,0,3.7,0.9,3.7,3.7
		C1722.2,415.6,1722.3,424.2,1722.3,434.2z"/>
	<path class="st1" d="M1306.4,421.7c7-4.2,13.2-8.1,19.8-11.1c19.4-9,39.7-12.6,60.8-8.6c31.8,6,52.2,25.5,62.7,55.4
		c10.1,28.6,10.5,58,1.6,86.9c-11.8,38.4-39.4,59.5-78,66.6c-31.9,5.9-63.4,0.9-94.6-6.1c-2.3-0.5-3-1.6-2.9-3.8
		c0.1-1.2,0-2.3,0-3.5c0-97.7-0.1-195.3,0.1-293c0-5.4-1.5-6.7-6.6-6.4c-8.8,0.4-17.7,0.1-26.5,0.3c-3.2,0.1-4.4-0.9-4.3-4.2
		c0.3-5.8,0.2-11.7,0-17.5c-0.1-2.6,0.4-4,3.5-4c20.3,0.1,40.7,0.1,61,0c4.3,0,3.2,2.9,3.2,5.1c0,44,0,88,0,132
		C1306.4,413.3,1306.4,417,1306.4,421.7z"/>
	<path class="st1" d="M1606.5,584.5c-7.1,5.3-13.4,9.9-20.1,13.8c-22.3,12.8-45.9,18.6-71.5,12.6c-25-5.9-40.9-24.3-43.8-50.3
		c-2.9-26.1,8.1-46.8,31.2-58.4c18.8-9.5,39.2-11.4,59.8-11.7c13.2-0.2,26.3,0,39.5,0c2.3,0,4.3,0.2,4.2-3.2
		c-0.2-10.2,0.4-20.4-1.6-30.4c-3.6-18.8-14.2-27.9-33.4-29.8c-27.2-2.6-53.4,2.1-78.8,11.4c-4,1.4-5.2,1.1-4.9-3.3
		c0.3-5.8,0.1-11.7,0.1-17.5c0-2.1,0.4-3.3,2.6-4.1c30.4-11,61.6-16.5,93.7-11.5c33.6,5.3,51.1,25.1,52.2,59.2
		c0.9,28.5,0.4,57,0.5,85.5c0,10.5,0.1,21-0.1,31.5c-0.1,3.5,1.1,4.5,4.5,4.5c9.2-0.2,18.3,0,27.5-0.1c3,0,4.6,0.5,4.4,4
		c-0.3,5.8-0.2,11.7,0,17.5c0.1,2.6-0.4,3.9-3.5,3.9c-19.7-0.1-39.3-0.1-59,0c-3.1,0-3.6-1.4-3.5-3.9
		C1606.6,598.1,1606.5,591.9,1606.5,584.5z"/>
	<path class="st2" d="M112,171.4c-3.5-5.3-7-10.5-10.5-15.8C69.1,105.9,36.6,56.2,4.1,6.4C2.9,4.6,1.8,2.8,0,0
		c8.3,1.2,15.7,2.1,23.1,3.4c46,7.9,91,19.4,134.6,36.2c2.6,1,5.1,2.3,7.7,3.5c-0.5,0.7-1.8,0.8-1.9,1.5
		c-2.5,10.8-8.6,20.2-11.7,30.8c-4.1,13.8-8.8,27.5-13.9,41c-6.4,16.9-14.3,33.3-18.7,50.9C118,171.8,116.1,172.7,112,171.4z"/>
	<path class="st3" d="M241.1,226c12.2-10.9,23.2-22.9,33.9-35.1c1.7,0.6,2.1,2,2.1,3.6c0,1.3,0,2.7,0,4c0,136.1,0,272.1,0,408.2
		c0,2.6,1.3,5.8-2,7.7c-8.4-11.6-15.5-24-23.3-36c-4.7-7.3-9.2-14.6-13.8-22c-0.3-1.3,0.4-2.5,1.4-3c4.4-2.3,4.2-6.1,4.2-10.3
		c-0.1-100.7-0.1-201.5,0-302.2c0-3.2,0.2-6.2-2.2-8.9C239.8,230.4,239.9,228.1,241.1,226z"/>
	<path class="st1" d="M2033.5,429.2c-9.6,0-19-0.1-28.4,0.1c-3.4,0.1-4.7-0.8-4.5-4.4c0.3-5.8,0.2-11.7,0-17.5
		c-0.1-2.8,0.4-4.2,3.8-4.2c30.8,0.1,61.6,0.1,92.5,0c2.6,0,3.5,0.8,3.4,3.4c-0.2,6.3-0.2,12.7,0,19c0.1,2.8-0.7,3.7-3.6,3.6
		c-7.8-0.2-15.7,0-23.5-0.1c-2.7,0-4.6,0.7-6.5,2.7c-22.3,23.9-44.6,47.7-67.1,71.4c-2.3,2.4-2.6,3.8-0.3,6.5
		c15.2,17.9,30.1,36,45.2,54c2.4,2.8,4.9,5.4,7.6,7.9c13.3,12.2,27.9,20.1,46.9,12.8c0,7.7-0.1,15,0.1,22.3c0.1,2.8-1.6,3.3-3.5,3.9
		c-13.5,4.3-26.6,3.3-39.5-2.3c-15.5-6.7-27.5-18-38.2-30.8c-18.3-22-36.3-44.3-54.6-66.4c-2.8-3.3-2.2-5.5,0.7-8.5
		c22.2-23,44.3-46.1,66.4-69.3C2031.5,432.4,2033,431.5,2033.5,429.2z"/>
	<path class="st4" d="M241.1,226c1.3,2-1.3,6.6,4.1,6.1c0.5,0,0.3,1.1,0.3,1.7c-0.1,103.7-0.2,207.4-0.3,311.2c0,1.5-0.1,3,0.3,4.5
		c0.6,2.2,0.6,3.4-2.3,3.5c-2.2,0-3.5,2.2-5.1,3.5c-7.9-11-15-22.6-22.2-34.2c2.6,0.1,4.1-0.7,4.8-3.5c0.6-2.5,1-4.9,1-7.4
		c0-85.3,0-170.5,0.1-255.8c0-4.5-1.8-8.4-2.6-12.6C226.4,237.3,233.8,231.7,241.1,226z"/>
	<path class="st3" d="M117,396.3c-11.9-11.2-23.4-22.7-36.1-33c-20.8-16.8-42.7-31.8-66.8-43.6c-0.8-0.4-2-0.6-2.3-2
		c14.2-3,28.3-5.8,42.3-9c21.1-4.7,42-10.4,62.6-17.1c0.8-0.3,1.6-0.3,2.4-0.5c3.5,0.3,3.1,2.8,2.1,4.7c-2.7,4.8-2.4,9.9-2.4,15
		c0,15.9,0,31.9,0,47.8c0,10-0.3,19.9,1.6,29.8C120.8,391.3,122.1,395.3,117,396.3z"/>
	<path class="st5" d="M187,480.5c-5.6-7.5-11.1-14.9-16.7-22.4c-2.2-6.3-1.6-12.9-1.6-19.3c-0.1-54.2-0.4-108.5,0.1-162.7
		c0-1.9,0.1-3.7,1.3-5.2c6.4-3.2,12.7-6.4,19.1-9.6c-0.5,6.4,0.6,12.8,0.6,19.3c0,60.4,0,120.8,0,181.2c0,4.7-0.7,9.3-0.6,14
		C189.2,477.6,188.7,479.4,187,480.5z"/>
	<path class="st6" d="M219.1,243c3.4,1.5,3,5,4,7.8c0.4,1.2,0.1,2.6,0.1,4c0,83,0,165.9,0,248.9c0,7.3,1,14.9-3.6,21.8
		c-1-1.1-1.8-2.8-3.7-3.2c-2.9-3.5-5.4-7.2-7.6-11.2c3-84.2,0.5-168.4,1.3-252.6c0-3-1.1-5.9-0.3-8.9
		C212.5,247.3,215.8,245.1,219.1,243z"/>
	<path class="st7" d="M170.1,270.9c0,55.6,0.1,111.2,0.1,166.8c0,6.8,1.3,13.6,0.2,20.5c-4.8-6-9.5-11.9-14.3-17.9
		c0-16.5-0.1-32.9-0.1-49.4c0-20.8,0.1-41.6,0-62.4c0-16.5-0.2-32.9,0.5-49.4c0-0.7-0.3-1.3-0.4-2
		C160.7,274.8,165.2,272.5,170.1,270.9z"/>
	<path class="st8" d="M117,396.3c3.5-2,2.4-5.4,1.9-8c-1.3-6.2-1.8-12.4-1.8-18.7c0.1-21.6,0.1-43.2,0-64.7c0-3.3,0.3-6.2,2.5-8.8
		c1.3-1.5,2.3-3.5-0.5-4.8c4.8-2.1,9.7-3.9,14.8-5.1c3.4,0.6,3.1,3.3,3.1,5.7c-0.6,32.7-0.1,65.5-0.2,98.2c0,7.3,0.2,14.6,0.9,21.9
		c0.2,1.9,0.8,4.5-2.8,3.5C128.9,408.9,123,402.6,117,396.3z"/>
	<path class="st9" d="M194.2,258.4c2.4-1.8,5-3.3,7.9-4.4c2.2,0.7,3,2.4,3.4,4.5c0.2,1.3,0.3,2.6,0.3,4c0,75.7,0,151.5,0,227.2
		c0,4.3-0.4,8.4-4.7,10.8c-2.7-3.2-5.1-6.5-7.1-10.2c1-8,0.6-16,0.6-24c0.1-63,0.1-126,0.1-189C194.6,271,194,264.7,194.2,258.4z"/>
	<path class="st10" d="M194.2,258.4c2,1.2,3.6,2.5,1.8,5.1c-1.8,2.6,0.2,5.1,0.2,7.7c-0.1,66.9,0,133.8-0.2,200.7
		c0,3.9,0.3,7.9,0.1,11.8c-0.1,2.3,0.7,5.1-2.2,6.6c-2.6-3-5-6.2-6.9-9.8c0.4-5.4,1.1-10.7,1.1-16.1c0.1-62.1,0.1-124.3,0-186.4
		c0-2,0.1-4-0.5-5.9c-1.1-3.8-0.9-7.5,1.5-10.8C190.9,260.3,192.6,259.4,194.2,258.4z"/>
	<path class="st11" d="M201,500.5c4.2-5.3,3.1-11.6,3.1-17.6c0-73.6,0-147.3,0-221c0-2.9,0-5.6-2.1-7.9c2.2-1.9,4.6-3.3,7.2-4.5
		c1.6,2.3,2,4.8,2,7.6c-0.1,80.1,0,160.2-0.1,240.3c0,4.6,0.6,9.6-2.9,13.7C205.4,507.8,203,504.3,201,500.5z"/>
	<path class="st12" d="M210.4,219.3c-6,4.6-12.2,8.7-19,12c-1.6,0.5-1.6-0.8-1.5-1.6c0.1-2.4,0.9-4.6,2-6.6
		c5.2-8.8,7.1-18.9,10.5-28.3c3.3-9.2,6.5-18.4,10.4-27.4c2.8-6.6,4.2-13.6,6.3-20.4c3.3-10.5,9.8-19.7,12.3-30.4
		c1.6-7,4-13.7,6.8-20.3c1.2-2.7,2.2-6.1,6.2-6.2c4,3.1,7.4,6.8,10.1,11c-2.1,0.7-2.9,2.4-3.6,4.4c-3.7,10.2-7.3,20.3-10,30.8
		c-1.3,5.2-3.8,10.3-5.9,15.3c-4,10-6.9,20.4-11.4,30.2c-2.5,5.4-4.6,11-6.6,16.6C214.4,205.3,212.8,212.4,210.4,219.3z"/>
	<path class="st13" d="M156.1,277.2c1.3,0.1,2.4-0.4,2.2,2c-1.4,15.5-0.9,31-0.8,46.5c0.1,8.8-0.2,17.7-0.3,26.6
		c-0.1,12.8-0.1,25.6-0.1,38.4c0,9.2-0.3,18.4,0.2,27.6c0.3,5.2-0.9,10.4,0.4,15.7c0.5,2,0.6,4.7-1.8,6.3c-4.1-5-8.1-9.9-12.2-14.9
		c1.7-7.2,0.2-14.5,0.3-21.8c0.3-12.6,0.2-25.2,0.1-37.8c-0.1-12.6,0.1-25.2-0.1-37.8c-0.1-11.8,0.1-23.5,0-35.3
		c-0.1-3.9,1.1-7.9,2.8-11.6C149.8,279.3,152.9,278.1,156.1,277.2z"/>
	<path class="st14" d="M201.2,60.2c3.2,1.3,6.2,2.9,8.9,5c-2.1,10.8-6.8,20.9-9.7,31.4c-2.8,10.1-8.5,19.1-11.8,29
		c-3.1,9.3-6,18.7-9.4,27.9c-4.2,11.7-9.6,23.1-12.2,35.3c-1.8,8-7.2,14.1-9.3,21.8c-1.4,5.1-3.2,10.2-5.8,14.9
		c-0.9,1.7-1.6,3.3-4,3c-3-3.9-5.6-8-7.7-12.4c1.7-1.5,2.9-3.1,3.7-5.4c5.6-14.6,10.3-29.5,16.9-43.7c5-10.8,8.2-22.5,11.9-33.9
		c2.9-9,6.3-17.9,9.1-26.9c3.8-12.1,9.3-23.4,14.2-35c0.9-2.2,1.3-4.5,2-6.7C198.7,62.9,198.6,60.5,201.2,60.2z"/>
	<path class="st15" d="M127.9,196.3c-2.9-3.8-5.5-7.8-7.7-12.1c1.9-3.5,3.3-7.1,4.3-10.9c1.5-5.9,6.3-10.2,7.8-16
		c2.9-11.9,8.4-22.9,11.4-34.7c1.4-5.4,4.7-10.6,6.3-16.1c2-7.4,6.2-13.9,7.4-21.6c0.6-4.1,4.7-6.8,5.7-10.9
		c1.6-6.4,2.7-12.9,6.5-18.7c1.3-2,1-4.8,0.6-7.3c-0.2-1.8,0.4-2.6,2.3-1.7c3.9,1.2,7.6,2.8,10.9,5c0.3,1.6,0.3,3.2-0.3,4.9
		c-5.5,15.3-11,30.6-15.7,46.2c-1.8,5.9-5.2,11.1-7.5,16.9c-4.1,10.5-7.3,21.4-11.3,32c-5.3,14-9.7,28.3-14.7,42.3
		C132.9,196.2,131.6,199,127.9,196.3z"/>
	<path class="st16" d="M244.4,90.1c-6.5,5.4-7.9,13.5-10.3,20.8c-2.1,6.6-3.6,13.4-6.8,19.6c-5,9.8-7.9,20.4-11.3,30.9
		c-3,9.3-6.4,18.5-10.4,27.6c-2.1,4.7-4.3,9.8-4.8,15.3c-0.6,6.3-4.5,11.6-6.9,17.4c-1.3,3.1-3.6,5.9-2.5,9.6
		c-3.8,2.9-8.1,5.1-12.6,6.9c-2-0.9-1.9-0.9-1.6-3.1c1.4-9.3,4.9-17.9,8.2-26.6c10.3-27,20.9-53.9,29.6-81.6
		c4.5-14.2,10.8-27.9,16-41.9c0.6-1.7,1.2-4.1,4.1-2.9C238.7,84.3,241.8,86.9,244.4,90.1z"/>
	<path class="st17" d="M127.9,196.3c3.1,1.1,4.3-0.7,4.9-3.3c2.7-12,7.4-23.5,11.6-34.9c5.9-15.9,10.2-32.5,17.9-47.8
		c5.4-10.6,7.8-22.3,11.8-33.3c2.7-7.4,5.1-15,8.4-22.2c0.6-1.4-2.5-3.4,0.8-3.6c3.6,1.2,6.9,2.8,10,5c-1.9,8.2-4.6,16.2-7.3,24.2
		c-6.7,19.6-13.9,39.1-21.1,58.6c-4,10.7-8,21.4-12,32.1c-4.1,11.1-8.3,22-12.1,33.2c-0.9,2.5-2.1,4.5-4.8,5.2
		C132.9,205.3,130.3,200.9,127.9,196.3z"/>
	<path class="st18" d="M235.2,82.2c-2.4,0.3-2.5,2.3-3.1,4c-5.1,13.1-10.7,26.1-15.3,39.5c-3,8.6-5.2,17.4-8.5,25.9
		c-5.4,13.8-8.9,28.4-15.9,41.7c-3.1,5.9-3.8,13.1-6.9,19c-4.1,7.9-4.9,16.5-7.6,24.7c-0.3,0.9,0.3,1.2,1,1.3
		c-3.7,2.8-8,4.7-12.4,6.1c-4,0.8-2.8-2.1-2.1-3.5c3.2-6.8,4.5-14.3,7.2-21.2c6.4-16.3,10.1-33.5,17.2-49.4c5-11,9.1-22.3,13-33.7
		c4.8-13.9,10.3-27.7,13.9-42c1.3-5.1,3.7-10,6.1-14.7c0.9-1.8,1.8-4.6,5-3.6C229.9,77.9,232.9,79.6,235.2,82.2z"/>
	<path class="st19" d="M148,228.5c3.5-2,3.6-6,5.3-9c2.3-4.1,3.4-8.9,4.9-13.5c1-3,2-5.6,4.4-8.1c2.9-3,2.2-7.7,3.5-11.6
		c3.1-9,6.9-17.7,9.6-26.8c2.7-8.8,6.5-17.1,8.9-26c2.4-9.1,6-18,10.6-26.3c3.6-6.5,4-14.2,7.2-20.8c3.3-6.9,3.2-14.9,7.8-21.3
		c3.4,1.5,6.6,3.4,9.4,5.8c-0.6,0.8-1.8,0.7-2.1,1.9c-4.9,18.8-12.5,36.8-18.3,55.3c-2,6.4-5.4,12.1-7.9,18.3
		c-5.9,14.5-10.6,29.4-15.5,44.2c-3.2,9.6-7,18.9-9.8,28.6c-1.7,5.8-5,11.2-7.5,16.8c-0.8,1.8-2.4,2.7-4.5,2.5
		C151.6,235.5,149.6,232.1,148,228.5z"/>
	<path class="st20" d="M172.4,46.1c-0.6,0.3-1.2-0.2-1.1,1.3c0.4,5.5,0.5,11.2-4.6,15.1c-0.8,0.6-1.6,1.4-1.3,2.5
		c1.9,7.2-2.1,12.4-6,17.4c-1.7,2.1-0.8,4.5-1.6,6.6c-3.3,9.5-6.3,19.1-10.2,28.2c-3.8,8.9-5.4,18.4-9.4,27
		c-2.9,6-2.8,13.1-6.5,18.3c-4.6,6.3-6.7,13.2-8.6,20.4c-0.4,1.7-2.2,0.1-2.9,1.2c-3.1-4-5.8-8.3-8.1-12.7c3.5,0.3,5.5-1.2,6.1-4.8
		c1.7-10.9,6.9-20.7,10.5-30.9c3.7-10.5,8.1-20.8,11.9-31.3c4.3-11.8,7.8-23.9,12.2-35.6c2.5-6.6,3.6-13.6,8.8-19.1
		c2-2.1-0.1-4.6-1.4-7.2c2,0.2,3.6,0.3,5.2,0.4C167.9,43.6,170.3,44.6,172.4,46.1z"/>
	<path class="st21" d="M154,238.6c5-2.1,4.8-7.4,6.9-11.3c5.2-9.3,8.3-19.6,11.4-29.6c3.8-12.1,8.3-23.9,12-36.1
		c2.6-8.3,5.6-16.5,9.6-24.4c3.2-6.4,5.4-13.3,7.4-20.3c1.6-5.4,3.6-10.6,5.6-15.9c3.5-9.4,6.6-19,9.2-28.7c0.7-2.7,2.4-0.8,3.5-1.4
		c2.8,1.3,5.4,2.8,7.4,5.2c-5.1,2.5-5.9,7.9-7.5,12.3c-6.5,18.5-12.2,37.2-18.5,55.7c-2.1,6.2-3.5,13.4-6.7,18.5
		c-6.3,10.1-9.1,21.1-12.6,31.9c-4.1,12.5-9.5,24.5-12.5,37.4c-0.7,2.9-2,5.6-3.3,8.3c-0.6,1.2-2.9,3.3,0.6,4.1
		c-0.4,0.3-0.8,0.6-1.2,0.8c-6.4,3-6.4,3-9.6-3C155,241,154.5,239.8,154,238.6z"/>
	<path class="st22" d="M146.9,281c1.5,1.8-0.2,3.4-0.5,5c-1.6,9.2-0.2,18.4-0.6,27.5c-0.3,7-0.3,13.9-0.3,20.8
		c0,6.6,0.3,13.3,0.1,19.8c-0.2,6.9,0.4,13.9-0.2,20.9c-0.6,6.9,0.5,13.9,0.4,20.8c-0.1,6.1-0.2,12.3-0.1,18.4
		c0,1.6-0.7,3.2,0.3,4.7c1.8,3-0.6,4.5-2.3,6.2c-3.4-3-6.2-6.5-9-10c1.3-0.2,2.2-0.5,1.7-2.2c-2-6.5-1.4-13.3-1.4-20
		c-0.1-32.3,0-64.5-0.1-96.8c0-3.4,2.4-7.2-1.2-10.3C138,283.8,142.4,282.3,146.9,281z"/>
	<path class="st23" d="M210.4,219.3c-0.7-0.2-1.8,0-1.4-1.4c2.7-8.9,6-17.7,8.8-26.6c2-6.5,5.6-12.5,8.4-18.7c0.5-1,0.7-2.2,1.1-3.2
		c3.6-10.6,6.8-21.4,12-31.3c1.1-2.1,0.5-4.3,1.2-6.3c3.3-9.7,6.8-19.4,10-29.2c0.9-2.9,2.1-2.5,4-1.4c3.3,3.6,5.9,7.6,7.6,12.1
		c-7.5,11.5-8.7,25.3-14.1,37.6c-5.4,12.1-9.5,24.8-13.6,37.4c-1.8,5.4-3.4,10.8-4.9,16.2C224,210.4,216.7,214.2,210.4,219.3z"/>
	<path class="st24" d="M136.1,209.4c4-4.1,5-9.6,6.9-14.6c4-10.3,8.4-20.5,11.3-31c3.4-12.5,9.8-23.6,13.3-36
		c3-10.5,7.4-20.5,11.1-30.8c4.6-13.1,9-26.3,13.6-39.4c0.2-0.6,0.7-1,1.1-1.6c2.6,1.4,5.6,1.9,7.9,4.1c-3.4,12-9.5,23-13.9,34.5
		c-2.7,7.1-5.1,14.6-7.5,22c-4.8,14.8-9.8,29.6-15.1,44.2c-3.1,8.4-7.6,16.4-10.4,24.9c-3.2,9.6-8.1,18.7-9.4,28.9
		c-0.6,4.5-3.5-0.1-4.7,1.5C138.3,214.3,137.3,211.8,136.1,209.4z"/>
	<path class="st25" d="M229.4,204.3c-1.1-1.9-0.4-3.9,0.1-5.6c3.1-10.2,5.7-20.7,10-30.5c4.7-10.7,7.7-22,12.7-32.5
		c2-4.1,1.8-8.9,3.5-13.3c1.4-3.7,3.4-6.6,6.3-9.1c8.4,15.5,8.2,31.5,1.7,47.4C256.5,178.4,244.2,192.3,229.4,204.3z"/>
	<path class="st26" d="M275.1,614.3c1.3-1.9,1.1-4.1,1.1-6.3c0-137,0-273.9,0-410.9c0-2.2,0.1-4.3-1.2-6.3c0.4-1.1,0.9-2.2,2.6-2.5
		c0,143,0,285.9,0,429.1C275.9,617.1,275.6,615.6,275.1,614.3z"/>
	<path class="st27" d="M1343.3,588c-11.2-0.4-22.2-1.8-33.3-3.8c-2.6-0.5-3.7-1.4-3.7-4.1c0.1-43,0.1-86,0-129
		c0-1.8,0.2-3.1,1.8-4.3c16.5-11.9,34.3-20.4,55.2-20.8c26-0.4,44.9,11.2,54.6,35c12,29.3,11.9,59.4-1.8,88.2
		c-11.6,24.3-33,35.1-58.9,37.9C1352.6,587.6,1347.9,587.7,1343.3,588z"/>
	<path class="st27" d="M1577.1,513.8c8.3,0,16.7,0.1,25,0c2.8,0,3.7,0.8,3.7,3.7c-0.1,12.7-0.1,25.3,0,38c0,1.9-0.4,3.5-1.9,4.8
		c-15.9,13.7-33,24.8-54.4,27.5c-8,1-16,0.7-23.7-1.7c-13.7-4.3-21.8-13.6-23.5-28c-1.7-14.8,2.7-27,16-35
		c10.9-6.5,23.1-8.3,35.4-8.9c7.8-0.4,15.7-0.1,23.5-0.1C1577.1,514,1577.1,513.9,1577.1,513.8z"/>
</g>
</svg>
