<svg xmlns="http://www.w3.org/2000/svg" width="171.24" height="50.569" viewBox="0 0 171.24 50.569">
  <g id="Group_8227" data-name="Group 8227" transform="translate(-3224 -856.157)">
    <g id="Group_8225" data-name="Group 8225" transform="translate(3324.887 878.338)">
      <path id="Path_7302" data-name="Path 7302" d="M439.179,1439.831a9.069,9.069,0,0,0-5,1.785v-12.2h-5.606v2.061h3.105v24.92l.047-.027-.012.027a18.218,18.218,0,0,0,5.833.721c3.916,0,8.863-1.951,8.863-8.739S442.422,1439.831,439.179,1439.831Zm-1.319,15.28a14.351,14.351,0,0,1-3.683-.339v-11.094a7.955,7.955,0,0,1,4.974-1.841c2.968,0,4.782,2.858,4.782,5.991S442.779,1455.111,437.86,1455.111Z" transform="translate(-428.571 -1429.415)" fill="#d2171e"/>
      <path id="Path_7303" data-name="Path 7303" d="M474.652,1452.362s.165-5.084-5.586-5.084a16.612,16.612,0,0,0-6.569,1.1v2.116a15.22,15.22,0,0,1,5.7-1.141c3.195,0,3.958,1.526,3.958,3.051v2.247h-4.823s-6.163,0-6.163,5.132c0,0-.247,4.782,5.339,4.782a8.52,8.52,0,0,0,5.647-2.455v2.084H477.6v-2.061h-2.948Zm-7.647,10.224c-2.824,0-3.339-1.752-3.339-2.948a3.368,3.368,0,0,1,3.648-3.071h4.844v3.648S469.829,1462.586,467.005,1462.586Z" transform="translate(-442.161 -1436.862)" fill="#d2171e"/>
      <path id="Path_7304" data-name="Path 7304" d="M510.642,1429.415h-5.607v2.061h3.106v23.229h-3.016a1.779,1.779,0,0,1-1.752-1.937v-7.579s.062-5.551-4.762-5.551a8.674,8.674,0,0,0-6.2,2.94V1440.1H486.8v2.061h3.106v14.583h2.5v-11.618c.575-.655,3.068-3.325,5.545-3.325,2.824,0,2.948,1.992,2.948,3.47v8.176s-.124,3.3,4.225,3.3h8.451v-2.041h-2.934Z" transform="translate(-452.847 -1429.415)" fill="#d2171e"/>
      <path id="Path_7305" data-name="Path 7305" d="M541.071,1449.7v-2.082H532.93v2.082h2.831l-6.095,6.312,4.356,5.382s2.254,3.366,5.359,3.366a4.95,4.95,0,0,0,1.69-.272v-2.073l-.1,0a3.44,3.44,0,0,1-1.251.275,4.478,4.478,0,0,1-3.106-1.773c-1.127-1.36-3.93-4.864-3.93-4.864l5.909-6.348Z" transform="translate(-470.717 -1437.005)" fill="#d2171e"/>
    </g>
    <path id="Path_7306" data-name="Path 7306" d="M256.838,1428.177c9.74,4.745,15.67,15.171,21.914,24.6V1417.5c-3.5,4.5-9.177,8.428-21.914,10.676" transform="translate(2967.912 -546.111)" fill="#f5a01f"/>
    <path id="Path_7307" data-name="Path 7307" d="M255.553,1391.376s11.737,17.856,12.986,20.166c1.623-.374,14.047-6.867,6.618-13.235C268.352,1393,255.553,1391.376,255.553,1391.376Z" transform="translate(2968.447 -535.219)" fill="#732726"/>
    <g id="Group_8226" data-name="Group 8226" transform="translate(3253.156 860.09)">
      <path id="Path_7308" data-name="Path 7308" d="M310.3,1444.409v-14.172h-4.745v-5.681H310.3V1417.5h7.18v7.055h7.429v5.681h-7.429v13.8c0,2.56,1.5,3.121,3.621,3.121a11.476,11.476,0,0,0,4.183-.687v5.244a28.233,28.233,0,0,1-6.493.937c-6.742,0-8.491-3.246-8.491-8.241" transform="translate(-305.554 -1406.201)" fill="#54595c"/>
      <path id="Path_7309" data-name="Path 7309" d="M342.171,1442.906c0-9.615,5.931-14.484,14.484-14.484a30.4,30.4,0,0,1,9.864,1.873v9.177h-5.931v-5.245a12.229,12.229,0,0,0-3.121-.374c-5.244,0-7.867,3.371-7.867,8.927,0,5.432,2.435,9.053,8.116,9.053a19.3,19.3,0,0,0,8.678-2.434v5.681a19.717,19.717,0,0,1-9.74,2.31c-8.928-.187-14.484-5.181-14.484-14.484" transform="translate(-320.819 -1410.754)" fill="#54595c"/>
      <path id="Path_7310" data-name="Path 7310" d="M391.057,1438.265h4.432v-16.232h-5.244v-5.681h5.244v-8.116c0-7.554,4.745-10.114,10.426-10.114a29.947,29.947,0,0,1,5.244.562v5.244a32.923,32.923,0,0,0-3.5-.25c-2.685,0-5.12.812-5.12,4.745v7.991h6.742v5.681h-6.742v16.232H408.1v5.557H391.057v-5.619Z" transform="translate(-340.861 -1398.122)" fill="#54595c"/>
    </g>
  </g>
</svg>
