<svg id="Group_6084" data-name="Group 6084" xmlns="http://www.w3.org/2000/svg" width="157.23" height="40.447" viewBox="0 0 157.23 40.447">
  <defs>
    <style>
      .cls-1 {
        fill: #d73749;
      }

      .cls-2 {
        fill: #fff;
      }

      .cls-3 {
        fill: #18488a;
      }
    </style>
  </defs>
  <path id="Path_4798" data-name="Path 4798" class="cls-1" d="M257.322,1531.012l.025,31.4,26.661,9.047,26.661-9.047v-31.4Z" transform="translate(-257.322 -1531.012)"/>
  <path id="Path_4799" data-name="Path 4799" class="cls-2" d="M287.078,1568.173h-8.149v-2.816h-.084a8.119,8.119,0,0,1-7.213,3.37,7.13,7.13,0,0,1-7.6-7.511V1546.03h8.445v11.605c0,2.561.3,4.353,2.775,4.353,1.446,0,3.371-.727,3.371-4.269V1546.03h8.445v22.14Zm15.751-15.7a2.167,2.167,0,0,0-.979-1.667,2.932,2.932,0,0,0-1.874-.636c-1.193,0-2.561.26-2.561,1.706,0,.642.505.94.979,1.147,1.407.6,4.606.766,7.427,1.706,2.815.894,5.293,2.562,5.293,6.189,0,6.143-5.89,7.809-11.261,7.809-5.209,0-10.924-2.088-11.054-7.809h8.062a2.714,2.714,0,0,0,1.025,1.965,3.5,3.5,0,0,0,2.264.642c1.109,0,2.865-.428,2.865-1.705s-.727-1.667-4.651-2.348c-6.441-1.109-9.048-3.158-9.048-6.954,0-5.585,6.02-7.037,10.449-7.037,4.781,0,10.541,1.323,10.756,7h-7.687Z" transform="translate(-260.436 -1537.735)"/>
  <path id="Path_4800" data-name="Path 4800" class="cls-3" d="M361.868,1531.05h8.447V1541.8h.084a7.249,7.249,0,0,1,6.067-2.985c7.427,0,9.437,6.312,9.437,11.521,0,5.547-3.034,11.735-9.3,11.735-4.139,0-5.417-1.576-6.487-2.99h-.084v2.432h-8.162Zm11.864,13.907c-3.034,0-3.708,2.865-3.708,5.462,0,2.646.674,5.5,3.708,5.5s3.708-2.865,3.708-5.5c0-2.6-.674-5.462-3.708-5.462m35.716,11.6a8.932,8.932,0,0,0,1.025,4.949h-8.62a5.98,5.98,0,0,1-.3-2.088h-.084a9,9,0,0,1-7.129,2.646c-4.269,0-7.81-2.049-7.81-6.7,0-7,8.193-6.741,12.5-7.55,1.154-.214,2.3-.551,2.3-1.965,0-1.492-1.407-2.049-2.771-2.049-2.6,0-3.114,1.323-3.16,2.257h-7.855c.259-6.236,6.143-7.247,11.4-7.247,10.58,0,10.5,4.392,10.5,8.659v9.1Zm-8.107-4.988a14.243,14.243,0,0,1-3.327,1.063c-1.874.428-2.865.9-2.865,2.386a2.433,2.433,0,0,0,2.646,2.049,3.356,3.356,0,0,0,3.536-3.165c.005-.1.006-.2,0-.294v-2.041Zm11.123-12.208h8.147v2.823h.084a8.124,8.124,0,0,1,7.206-3.37,7.13,7.13,0,0,1,7.6,7.511v15.193h-8.452V1549.91c0-2.561-.3-4.353-2.771-4.353-1.452,0-3.37.726-3.37,4.269v11.689h-8.445Zm26.039-8.315h8.446v14.719l5.378-6.4h9.562l-7.9,8.369,9.132,13.784H452.966l-4.522-8.017-1.492,1.621v6.4h-8.445V1531.05Z" transform="translate(-305.895 -1531.03)"/>
</svg>
