<?xml version="1.0" encoding="utf-8"?>
<!-- Generator: Adobe Illustrator 24.0.0, SVG Export Plug-In . SVG Version: 6.00 Build 0)  -->
<svg version="1.1" id="Layer_1" xmlns="http://www.w3.org/2000/svg" xmlns:xlink="http://www.w3.org/1999/xlink" x="0px" y="0px"
	 viewBox="0 0 2500 1304.5" style="enable-background:new 0 0 2500 1304.5;" xml:space="preserve">
<style type="text/css">
	.st0{fill:#B31E30;}
	.st1{fill:#FFCC02;}
</style>
<path class="st0" d="M0,1304.5h2500V0H0V1304.5z"/>
<path class="st1" d="M901,197.5v122.9h28.1c35.4,0,51.5-17.3,51.5-65.5v-7.6h41.3v190.7h-41.3v-8.2c0-47.8-16-66.1-51.5-66.1H901
	v137.5h117.8c53.6,0,73.1-35.6,79.4-103.3h42.7v147.1h-387v-43.7h32.8c20.4,0,31.2-5.6,31.2-41.2V230.8c0-25.6-11.7-33.3-38.9-33.3
	h-12c-28.1,0-41.5,6.6-51.5,35.9L609,544.9h-81.1l-61.9-203h-1.1l-68.6,203h-82.1L203.3,218.4c-4.9-16-13.2-21-35.7-21h-8.2v-43.6
	h171v43.6h-24.9c-12.9,0-18.3,7.7-18.3,15.5c0,5.9,2.2,13.2,5.3,21.4l74,218.2h1.3l70.4-205.3l-9.8-27.8
	c-6-17.4-17.9-21.9-35.2-21.9h-13.9v-43.6H556v43.6h-31.2c-12.1,0-16.7,5.2-16.7,13.1c0,5.9,2.8,14.3,4.9,19.8l64.7,218.2h1.1
	L654,235.4c2.2-7,4.5-12.7,4.5-20.1c0-9.3-4.5-17.9-25.3-17.9h-28.4v-43.6H1141v133.7h-44c-8.9-56.5-13.9-90-92.4-90L901,197.5z
	 M1543.6,544.9V397.8h-45c-6,67.2-18.3,103.3-79.4,103.3h-89V224.6c0-21.7,9-27.1,34.9-27.1h33.2v-43.6h-216.1v43.6h34.2
	c23.6,0,31.6,7.7,31.6,25.6v252c0,20.5-11.2,26.2-28,26.2h-37.8v43.7H1543.6z M1945,544.9V397.8h-45.4
	c-5.9,67.2-18.6,103.3-79,103.3h-89.1V224.6c0-21.7,9-27.1,34.9-27.1h32.9v-43.6h-216v43.6h34.2c23.9,0,31.8,7.7,31.8,25.6v252
	c0,20.5-11.2,26.2-27.8,26.2h-38.1v43.7H1945z M2242.5,183.4c-3.7-3.8-39.7-41.2-110-41.2c-73.8,0-148.5,37.4-148.5,117.7
	c0,72.7,57.9,105.7,124.6,120.1c22.1,4.6,35.3,7.2,55.4,11.5c50.1,10.5,83.4,25.7,83.4,60.5c0,26.3-28,54.6-83.1,54.6
	c-77.2,0-122.9-43-132.5-108.7h-45.3v147.1h40.1l13.1-35.2c9.4,8.4,47,46.8,118.5,46.8c91.1,0,159.9-40.5,159.9-120.5
	c0-77.6-64.1-110.9-142.4-126.5c-14.1-3.5-26.7-5.6-41.1-9c-48.7-10.4-79.9-22.5-79.9-57.4c0-30.2,31.9-50.9,80.1-50.9
	c72.1,0,100.1,46,115,95.3h44V154h-31.8L2242.5,183.4z M448,1154.4v-43.9h-29.5c-27.3,0-37.3-8.2-37.3-30.2V973.8h24.2
	c36.6,0,52.4,15.9,52.4,57.4v12.9h41.1v-180h-41.1v7.7c0,30.4-11,58.4-48.9,58.4H381V806.9H458c86.6,0,95.6,43.6,101.5,90h42.2
	V763.3H231.7v43.6h39.1c17.7,0,27.6,8,27.6,22.1v252.7c0,16.5-8.9,29-29.8,29h-36.8v43.9L448,1154.4z M2085.5,751.5
	c-128.2,0-213.2,89.7-213.2,207.4c0,117.4,84.9,207.8,213.2,207.8c128,0,212.9-90.4,212.9-207.8
	C2298.4,841.2,2213.3,751.5,2085.5,751.5 M2085.5,797.6c92.7,0,120.4,76.9,120.4,161.3s-27.7,161.3-120.4,161.3
	c-93.2,0-120.8-77.1-120.8-161.3S1992.3,797.6,2085.5,797.6 M1724.7,795.2c-8.4-7.5-45.1-43.7-117.4-43.7
	c-115.7,0-188.4,88.2-188.4,207.4c0,120.1,73.8,207.8,188.4,207.8c73.5,0,113.5-33.7,122.6-42l21.9,29.8h40.1v-135.5
	c0-23.1,8.4-29.2,31.4-29.2h11v-43.9h-180.7v43.9h26.7c19.4,0,31.2,8.7,31.2,27.7v22.8c0,44.9-27.4,75.9-87.3,75.9
	c-75.1,0-112.5-67.5-112.5-157.2c0-88.6,37.4-156.5,110.1-156.5c75.8,0,101.5,70.6,110.2,94.5h48.5V763.3h-41.3L1724.7,795.2z
	 M1399.3,1062.8v10.7c0,67.5-32.2,93.4-81,93.4c-57.1,0-76.3-27.6-76.3-80.7v-20.4c0-67.2-28.7-94.3-94.2-94.3h-30.9v118.1
	c0,15.7,7.2,21.1,24.2,21.1h43v44H793.4v-43.9h43.4c12,0,16.5-3,16.5-9.8c-0.3-5.5-1.5-11-3.5-16.2c-2.1-5.2-20.5-55.7-20.5-55.7
	H689.8l-20.1,54.3c-2.1,5.2-3.3,10.7-3.5,16.3c0,8.4,7,11.1,18.6,11.1h41.5v43.9H542v-43.9c31.4,0,51-4.5,62.1-31.8l124.7-315.5
	h74.9l128,315.5c10.7,27.7,30.9,31.8,62,31.8h15.9c16.9,0,24.5-5.6,24.5-21.1V828.4c0-15.7-6-21.4-24.5-21.4h-41.1v-43.6h256.9
	c85.2,0,125.4,40.4,125.4,101.2c0,75.9-75.4,90.8-110.7,92.8v0.8c41.2,3.1,76.1,20.2,76.1,80.4v22.9c0,40.1,8.6,49.1,22.8,49.1
	c13.9,0,21.2-11.1,21.2-37.3v-10.7L1399.3,1062.8z M813.3,985.7l-52.7-142.4h-1.8l-52.6,142.2L813.3,985.7z M1268.8,867.3
	c0-34.3-24.7-60.3-79.3-60.3h-72.7v120.8h72.7c50.3,0,79.2-22.8,79.2-60.5"/>
<path class="st1" d="M901,197.5v122.9h28.1c35.4,0,51.5-17.3,51.5-65.5v-7.6h41.3v190.7h-41.3v-8.2c0-47.8-16-66.1-51.5-66.1H901
	v137.5h117.8c53.6,0,73.1-35.6,79.4-103.3h42.7v147.1h-387v-43.7h32.8c20.4,0,31.2-5.6,31.2-41.2V230.8c0-25.6-11.7-33.3-38.9-33.3
	h-12c-28.1,0-41.5,6.6-51.5,35.9L609,544.9h-81.1l-61.9-203h-1.1l-68.6,203h-82.1L203.3,218.4c-4.9-16-13.2-21-35.7-21h-8.2v-43.6
	h171v43.6h-24.9c-12.9,0-18.3,7.7-18.3,15.5c0,5.9,2.2,13.2,5.3,21.4l74,218.2h1.3l70.4-205.3l-9.8-27.8
	c-6-17.4-17.9-21.9-35.2-21.9h-13.9v-43.6H556v43.6h-31.2c-12.1,0-16.7,5.2-16.7,13.1c0,5.9,2.8,14.3,4.9,19.8l64.7,218.2h1.1
	L654,235.4c2.2-7,4.5-12.7,4.5-20.1c0-9.3-4.5-17.9-25.3-17.9h-28.4v-43.6H1141v133.7h-44c-8.9-56.5-13.9-90-92.4-90L901,197.5z
	 M1543.6,544.9V397.8h-45c-6,67.2-18.3,103.3-79.4,103.3h-89V224.6c0-21.7,9-27.1,34.9-27.1h33.2v-43.6h-216.1v43.6h34.2
	c23.6,0,31.6,7.7,31.6,25.6v252c0,20.5-11.2,26.2-28,26.2h-37.8v43.7H1543.6z M1945,544.9V397.8h-45.4
	c-5.9,67.2-18.6,103.3-79,103.3h-89.1V224.6c0-21.7,9-27.1,34.9-27.1h32.9v-43.6h-216v43.6h34.2c23.9,0,31.8,7.7,31.8,25.6v252
	c0,20.5-11.2,26.2-27.8,26.2h-38.1v43.7H1945z M2242.5,183.4c-3.7-3.8-39.7-41.2-110-41.2c-73.8,0-148.5,37.4-148.5,117.7
	c0,72.7,57.9,105.7,124.6,120.1c22.1,4.6,35.3,7.2,55.4,11.5c50.1,10.5,83.4,25.7,83.4,60.5c0,26.3-28,54.6-83.1,54.6
	c-77.2,0-122.9-43-132.5-108.7h-45.3v147.1h40.1l13.1-35.2c9.4,8.4,47,46.8,118.5,46.8c91.1,0,159.9-40.5,159.9-120.5
	c0-77.6-64.1-110.9-142.4-126.5c-14.1-3.5-26.7-5.6-41.1-9c-48.7-10.4-79.9-22.5-79.9-57.4c0-30.2,31.9-50.9,80.1-50.9
	c72.1,0,100.1,46,115,95.3h44V154h-31.8L2242.5,183.4z M448,1154.4v-43.9h-29.5c-27.3,0-37.3-8.2-37.3-30.2V973.8h24.2
	c36.6,0,52.4,15.9,52.4,57.4v12.9h41.1v-180h-41.1v7.7c0,30.4-11,58.4-48.9,58.4H381V806.9H458c86.6,0,95.6,43.6,101.5,90h42.2
	V763.3H231.7v43.6h39.1c17.7,0,27.6,8,27.6,22.1v252.7c0,16.5-8.9,29-29.8,29h-36.8v43.9L448,1154.4z M2085.5,751.5
	c-128.2,0-213.2,89.7-213.2,207.4c0,117.4,84.9,207.8,213.2,207.8c128,0,212.9-90.4,212.9-207.8
	C2298.4,841.2,2213.3,751.5,2085.5,751.5 M2085.5,797.6c92.7,0,120.4,76.9,120.4,161.3s-27.7,161.3-120.4,161.3
	c-93.2,0-120.8-77.1-120.8-161.3S1992.3,797.6,2085.5,797.6 M1724.7,795.2c-8.4-7.5-45.1-43.7-117.4-43.7
	c-115.7,0-188.4,88.2-188.4,207.4c0,120.1,73.8,207.8,188.4,207.8c73.5,0,113.5-33.7,122.6-42l21.9,29.8h40.1v-135.5
	c0-23.1,8.4-29.2,31.4-29.2h11v-43.9h-180.7v43.9h26.7c19.4,0,31.2,8.7,31.2,27.7v22.8c0,44.9-27.4,75.9-87.3,75.9
	c-75.1,0-112.5-67.5-112.5-157.2c0-88.6,37.4-156.5,110.1-156.5c75.8,0,101.5,70.6,110.2,94.5h48.5V763.3h-41.3L1724.7,795.2z
	 M1399.3,1062.8v10.7c0,67.5-32.2,93.4-81,93.4c-57.1,0-76.3-27.6-76.3-80.7v-20.4c0-67.2-28.7-94.3-94.2-94.3h-30.9v118.1
	c0,15.7,7.2,21.1,24.2,21.1h43v44H793.4v-43.9h43.4c12,0,16.5-3,16.5-9.8c-0.3-5.5-1.5-11-3.5-16.2c-2.1-5.2-20.5-55.7-20.5-55.7
	H689.8l-20.1,54.3c-2.1,5.2-3.3,10.7-3.5,16.3c0,8.4,7,11.1,18.6,11.1h41.5v43.9H542v-43.9c31.4,0,51-4.5,62.1-31.8l124.7-315.5
	h74.9l128,315.5c10.7,27.7,30.9,31.8,62,31.8h15.9c16.9,0,24.5-5.6,24.5-21.1V828.4c0-15.7-6-21.4-24.5-21.4h-41.1v-43.6h256.9
	c85.2,0,125.4,40.4,125.4,101.2c0,75.9-75.4,90.8-110.7,92.8v0.8c41.2,3.1,76.1,20.2,76.1,80.4v22.9c0,40.1,8.6,49.1,22.8,49.1
	c13.9,0,21.2-11.1,21.2-37.3v-10.7L1399.3,1062.8z M813.3,985.7l-52.7-142.4h-1.8l-52.6,142.2L813.3,985.7z M1268.8,867.3
	c0-34.3-24.7-60.3-79.3-60.3h-72.7v120.8h72.7c50.3,0,79.2-22.8,79.2-60.5"/>
</svg>
