<svg id="wells-fargo-wide" data-name="Group 8134" xmlns="http://www.w3.org/2000/svg" width="221.538" height="32.747" viewBox="0 0 221.538 32.747">
  <path id="Path_7167" data-name="Path 7167" d="M257.322,1690.506H478.859v-32.747H257.322Z" transform="translate(-257.322 -1657.759)" fill="#b31e30"/>
  <g id="Group_8132" data-name="Group 8132" transform="translate(7.355 6.817)">
    <path id="Path_7168" data-name="Path 7168" d="M305.266,1673.507v5.669h1.3c1.635,0,2.374-.8,2.374-3.022v-.351h1.907v8.795h-1.907v-.376c0-2.205-.739-3.049-2.374-3.049h-1.3v6.343H310.7c2.471,0,3.372-1.641,3.664-4.767h1.972v6.784H298.489v-2.017H300c.941,0,1.44-.26,1.44-1.9v-10.572c0-1.181-.539-1.537-1.8-1.537h-.551a2.056,2.056,0,0,0-2.373,1.654l-4.923,14.373h-3.742l-2.854-9.366h-.052l-3.165,9.366h-3.788l-5.111-15.06c-.227-.74-.609-.966-1.647-.966h-.376v-2.01h7.887v2.01H277.8c-.6,0-.843.356-.843.714a3.026,3.026,0,0,0,.246.986l3.411,10.066h.058l3.249-9.469-.454-1.284a1.452,1.452,0,0,0-1.621-1.012H281.2v-2.01h8.147v2.01h-1.44c-.557,0-.771.24-.771.6a3.007,3.007,0,0,0,.227.915l2.983,10.066h.052l3.47-9.832a2.875,2.875,0,0,0,.208-.928c0-.428-.208-.823-1.167-.823H291.6v-2.01h24.737v6.168h-2.03c-.409-2.607-.642-4.151-4.261-4.151Z" transform="translate(-271.06 -1670.958)" fill="#ffcc02"/>
    <path id="Path_7169" data-name="Path 7169" d="M375.841,1689.534v-6.784h-2.075c-.279,3.1-.843,4.767-3.665,4.767H366v-12.758c0-1,.415-1.252,1.608-1.252h1.531v-2.01h-9.969v2.01h1.576c1.09,0,1.459.356,1.459,1.18v11.622c0,.947-.519,1.207-1.291,1.207h-1.745v2.017Z" transform="translate(-311.995 -1670.958)" fill="#ffcc02"/>
    <path id="Path_7170" data-name="Path 7170" d="M410.416,1689.534v-6.784h-2.1c-.272,3.1-.856,4.767-3.645,4.767h-4.112v-12.758c0-1,.415-1.252,1.608-1.252h1.518v-2.01h-9.963v2.01H395.3c1.1,0,1.466.356,1.466,1.18v11.622c0,.947-.519,1.207-1.284,1.207h-1.758v2.017Z" transform="translate(-328.052 -1670.958)" fill="#ffcc02"/>
    <path id="Path_7171" data-name="Path 7171" d="M440.187,1672.392a6.981,6.981,0,0,0-5.072-1.9c-3.405,0-6.849,1.725-6.849,5.429,0,3.353,2.672,4.877,5.746,5.539,1.018.214,1.628.331,2.555.532,2.309.486,3.846,1.187,3.846,2.789,0,1.213-1.291,2.516-3.833,2.516-3.56,0-5.668-1.985-6.109-5.014h-2.089v6.784h1.849l.6-1.621a7.622,7.622,0,0,0,5.467,2.16c4.2,0,7.375-1.868,7.375-5.558,0-3.58-2.958-5.117-6.57-5.837-.649-.162-1.232-.26-1.894-.415-2.244-.48-3.684-1.038-3.684-2.646,0-1.394,1.472-2.348,3.7-2.348,3.327,0,4.618,2.121,5.306,4.4h2.03v-6.161H441.1Z" transform="translate(-344.099 -1670.491)" fill="#ffcc02"/>
  </g>
  <g id="Group_8133" data-name="Group 8133" transform="translate(118.853 6.794)">
    <path id="Path_7172" data-name="Path 7172" d="M489.75,1673.477c4,0,4.411,2.01,4.683,4.151h1.946v-6.162H479.314v2.011h1.8c.818,0,1.272.369,1.272,1.018v11.655a1.232,1.232,0,0,1-1.375,1.336h-1.7v2.024h9.975v-2.024h-1.362c-1.258,0-1.719-.376-1.719-1.394v-4.917h1.115c1.687,0,2.419.733,2.419,2.646v.6h1.894v-8.3h-1.894v.357c0,1.4-.506,2.692-2.257,2.692H486.2v-5.688Z" transform="translate(-479.314 -1670.922)" fill="#ffcc02"/>
    <path id="Path_7173" data-name="Path 7173" d="M630.5,1670.449h0c-5.915,0-9.832,4.138-9.832,9.567s3.917,9.586,9.832,9.586,9.82-4.17,9.82-9.586S636.391,1670.449,630.5,1670.449Zm0,17.006c-4.3,0-5.571-3.554-5.571-7.439s1.271-7.439,5.571-7.439c4.275,0,5.552,3.548,5.552,7.439S634.77,1687.455,630.5,1687.455Z" transform="translate(-544.986 -1670.449)" fill="#ffcc02"/>
    <path id="Path_7174" data-name="Path 7174" d="M592.419,1681.436h1.233c.9,0,1.44.4,1.44,1.278v1.05c0,2.069-1.265,3.5-4.027,3.5-3.464,0-5.189-3.113-5.189-7.251,0-4.086,1.726-7.219,5.079-7.219,3.5,0,4.682,3.256,5.085,4.359h2.238v-6.162H596.37l-.668,1.472a7.6,7.6,0,0,0-5.416-2.017c-5.338,0-8.691,4.066-8.691,9.567,0,5.539,3.405,9.586,8.691,9.586a8.277,8.277,0,0,0,5.655-1.939l1.012,1.375H598.8v-6.252c0-1.064.389-1.349,1.446-1.349h.506v-2.024h-8.334Z" transform="translate(-526.834 -1670.449)" fill="#ffcc02"/>
    <path id="Path_7175" data-name="Path 7175" d="M543.8,1685.779c0,1.206-.337,1.719-.979,1.719s-1.05-.415-1.05-2.263v-1.057c0-2.776-1.609-3.567-3.509-3.71v-.039c1.628-.091,5.1-.779,5.1-4.281,0-2.809-1.855-4.67-5.785-4.67h-11.85v2.011h1.894c.85,0,1.129.259,1.129.986v12.051c0,.714-.35.973-1.129.973h-.733c-1.433,0-2.367-.188-2.86-1.465l-5.9-14.554H514.67l-5.753,14.554c-.512,1.258-1.42,1.465-2.867,1.465v2.024h8.5V1687.5h-1.913c-.532,0-.856-.123-.856-.512a2.308,2.308,0,0,1,.162-.752l.928-2.5H519.3s.85,2.328.947,2.568a2.412,2.412,0,0,1,.162.746c0,.318-.207.454-.759.454h-2v2.024h18.018v-2.03H533.68c-.785,0-1.116-.246-1.116-.973v-5.448h1.427c3.022,0,4.345,1.252,4.345,4.352v.94c0,2.452.889,3.723,3.522,3.723,2.251,0,3.736-1.193,3.736-4.307v-.492h-1.8Zm-30.179-4.06,2.426-6.557h.084l2.432,6.57Zm22.3-2.659h-3.353v-5.571h3.353c2.517,0,3.658,1.2,3.658,2.782h-.006C539.569,1678.009,538.239,1679.06,535.917,1679.06Z" transform="translate(-491.736 -1670.927)" fill="#ffcc02"/>
  </g>
</svg>
