<svg xmlns="http://www.w3.org/2000/svg" width="40" height="11.803" viewBox="0 0 40 11.803">
  <g id="Group_2123" data-name="Group 2123" transform="translate(-0.002 -0.001)" opacity="0.7">
    <path id="Path_1305" data-name="Path 1305" d="M2832.518,1896.61a1.945,1.945,0,1,0,2,1.948,1.972,1.972,0,0,0-2-1.948Z" transform="translate(-2819.115 -1888.699)" fill="#6c6c6c"/>
    <path id="Path_1306" data-name="Path 1306" d="M2804.876,1896.75a2.066,2.066,0,0,0-1.465,0,1.947,1.947,0,0,0-1.267,1.81,2,2,0,0,0,4,0,1.947,1.947,0,0,0-1.269-1.81Z" transform="translate(-2795.52 -1888.702)" fill="#6c6c6c"/>
    <path id="Path_1307" data-name="Path 1307" d="M2802.4,1853.122l-.2-.043-5.412-1.137-.722-.154-5.135-1.079-.693-.146-.394-.083H2782.5l-.025.012-6.845-1.454-.533-.113-.306-.065h0l-.654-.139-.7.136-8.426,1.646-.049.01-.4.077-.04.008-1.236.24a.353.353,0,0,0-.282.414.358.358,0,0,0,.419.278l1.292-.251.137-.027,1.312,3-.115.049,2.158,4.94h-4.875a.352.352,0,1,0,0,.7h5.917v-1.793h.122a2.141,2.141,0,0,1,.906-1.318,2.26,2.26,0,0,1,.477-.248,2.343,2.343,0,0,1,1.645,0,2.274,2.274,0,0,1,.441.224h0l.034.02.005,0a1.968,1.968,0,0,1,.555.563h0a2.078,2.078,0,0,1,.329.753h.415a2.145,2.145,0,0,1,.906-1.318,2.314,2.314,0,0,1,2.566,0,2.214,2.214,0,0,1,.58.571,2.084,2.084,0,0,1,.326.747h.093v1.793h14.026l.019.009,0-.009h.009v-.017l1.521-2.984h8.747v-3.707Zm-33.885,3.122v.147h0v1.826l-1.827-4.183-.114.048-1.274-2.917,8.831-1.724.345.073.636.135.333.071.645,1.478-.114.048,2.183,5Zm10.286-4.03-.136.064v3.392l-2.05-4.7-.114.049-.519-1.19,5.438,1.155-.421.2Zm.568,7.031v-1.255l1.967,1.255Zm3.283,0-3.283-2.094v-.033h0v-.871h-.011v-3.536l1.279-.6,2.352,7.133Zm1.553,0h-.487l-2.45-7.429,1.347-.631h1.59Zm6.027,0H2784.9v-8.06h4.887l.447.094Zm2.032,0h-1.338v-7.819l4.807,1.01Zm9.932-3h-7.6l1.863-3.658,5.742,1.206Z" transform="translate(-2762.979 -1848.721)" fill="#6c6c6c"/>
  </g>
</svg>
