<svg xmlns="http://www.w3.org/2000/svg" width="40" height="4.295" viewBox="0 0 40 4.295">
  <g id="Group_2127" data-name="Group 2127" transform="translate(-88.751 -784.002)" opacity="0.7">
    <path id="Path_1289" data-name="Path 1289" d="M2820.906,1991.05a1.913,1.913,0,1,0,1.967,1.913,1.94,1.94,0,0,0-1.968-1.913Z" transform="translate(-2720.719 -1206.58)" fill="#6c6c6c"/>
    <path id="Path_1290" data-name="Path 1290" d="M2793.286,1991.186a2.024,2.024,0,0,0-1.441,0,1.914,1.914,0,0,0-1.247,1.78,1.968,1.968,0,0,0,3.934,0A1.914,1.914,0,0,0,2793.286,1991.186Z" transform="translate(-2697.17 -1206.581)" fill="#6c6c6c"/>
    <path id="Path_1291" data-name="Path 1291" d="M2762.98,1988.28v.6h.56v2.129h.8v-.257l.909-1.656,1.846.015v2.922h.2v-1.818h.122a2.17,2.17,0,0,1,.906-1.335,2.26,2.26,0,0,1,.477-.252,2.315,2.315,0,0,1,1.645,0,2.27,2.27,0,0,1,.442.228h0l.033.021.005,0a1.98,1.98,0,0,1,.555.572h0a2.133,2.133,0,0,1,.33.763h.414a2.171,2.171,0,0,1,.905-1.335,2.288,2.288,0,0,1,2.566,0,2.233,2.233,0,0,1,.579.579,2.134,2.134,0,0,1,.326.756h.45v-1.053h17.155v3.314h-.261v.1h1.093v-.1h-.24v-2.788l1.063-1.063h7.115v-.348Z" transform="translate(-2674.229 -1204.277)" fill="#6c6c6c"/>
  </g>
</svg>
