<svg xmlns="http://www.w3.org/2000/svg" width="40" height="14.824" viewBox="0 0 40 14.824">
  <path id="Path_10410" data-name="Path 10410" d="M691.52,531.025v7.621l1.693.472,29.58.142,5.9-.911v-7.324Zm0,0v7.621l1.693.472,29.58.142,5.9-.911v-7.324Zm0,0v7.621l1.693.472,29.58.142,5.9-.911v-7.324Zm0,0v7.621l1.693.472,29.58.142,5.9-.911v-7.324Zm37.464-1.625H691.115a1.031,1.031,0,0,0-1.045,1.012v12.983a.046.046,0,0,0,.047.047h.04a.046.046,0,0,0,.047-.047v-2.111c0-.013.007-.02.02-.034a.051.051,0,0,1,.034-.013h.162a.058.058,0,0,0,.04-.02,2.181,2.181,0,0,1,.411-.486,2.439,2.439,0,0,1,3.2,0,2.214,2.214,0,0,1,.418.486.041.041,0,0,0,.04.02h2.2a.1.1,0,0,1,.041.013c.007.013.013.02.013.034v2.111a.046.046,0,0,0,.047.047h.034a.057.057,0,0,0,.054-.047v-2.111a.046.046,0,0,1,.047-.047h.094a.058.058,0,0,0,.04-.02,2.182,2.182,0,0,1,.411-.486,2.439,2.439,0,0,1,3.2,0,2.215,2.215,0,0,1,.418.486.041.041,0,0,0,.04.02h19.882a.037.037,0,0,1,.034.02l.89.964a.052.052,0,0,1,.014.034v1.834a.045.045,0,0,1-.047.04h-.169a.047.047,0,0,0,0,.094h1a.037.037,0,0,0,.034-.013.048.048,0,0,0-.034-.081h-.142c-.027,0-.054-.02-.054-.04v-2.853a.04.04,0,0,0-.047-.04l-.27.02.3-.027h.007l2.779-.465,3.554-.587a1.387,1.387,0,0,0,1.173-1.349v-8.329A1.071,1.071,0,0,0,728.984,529.4Zm-7,11.877v.492a.037.037,0,0,1-.02.034.045.045,0,0,1-.067,0l-.452-.492a.051.051,0,0,1-.013-.034.059.059,0,0,1,.054-.041h.533A.038.038,0,0,0,721.984,541.277Zm7.385-2.651a.4.4,0,0,1-.013.088.177.177,0,0,1-.047.1.16.16,0,0,1-.088.088.367.367,0,0,1-.088.047.09.09,0,0,1-.054.02l-6.157.951-.027.007a.131.131,0,0,1-.054.007l-29.762-.155-1.963-.546a.269.269,0,0,1-.121-.067.2.2,0,0,1-.088-.094.324.324,0,0,1-.04-.121.2.2,0,0,1-.02-.067v-8.194a.334.334,0,0,1,.337-.337h37.849a.338.338,0,0,1,.337.337Zm-37.849.02,1.693.472,29.58.142,5.9-.911v-7.324H691.52Zm0-7.621v7.621l1.693.472,29.58.142,5.9-.911v-7.324Zm0,0v7.621l1.693.472,29.58.142,5.9-.911v-7.324Z" transform="translate(-690.07 -529.4)" fill="#6c6c6c"/>
</svg>
