<svg xmlns="http://www.w3.org/2000/svg" width="40" height="15.173" viewBox="0 0 40 15.173">
  <g id="Group_2195" data-name="Group 2195" transform="translate(-8 -94.952)" opacity="0.7">
    <path id="Subtraction_34" data-name="Subtraction 34" d="M39.945,10.585H0V1.456A1.5,1.5,0,0,1,.4.483,1.766,1.766,0,0,1,1.7.01C2.234,0,5.971,0,11.7,0,21.91,0,37.46.011,38.579.03a1.247,1.247,0,0,1,.959.413,2.869,2.869,0,0,1,.449,1.886l-.042,8.256ZM36.581.528v9.33H37.5V.528Zm-1.836,0v9.33h.918V.528Zm-1.839,0v9.33h.918V.528Zm-1.99,0v9.33h.918V.528Zm-1.875,0v9.33h.918V.528Zm-1.878,0v9.33h.918V.528Zm-1.878,0v9.33H26.2V.528Zm-1.875,0v9.33h.918V.528Zm-1.878,0v9.33h.919V.528Zm-1.873,0v9.33h.918V.528Zm-1.876,0v9.33H18.7V.528Zm-1.878,0v9.33h.918V.528Zm-1.878,0v9.33h.918V.528Zm-1.876,0v9.33h.918V.528Zm-1.878,0v9.33h.918V.528ZM8.4.528v9.33h.918V.528Zm-1.987,0v9.33H7.33V.528Zm-1.837,0v9.33h.918V.528Zm-1.841,0v9.33h.918V.528Zm35.685.2V9.854h.918V1.121a.4.4,0,0,0-.4-.4ZM1.385.723h0A.491.491,0,0,0,.9,1.21V9.854h.918V.724H1.385Z" transform="translate(8.001 94.952)" fill="#6c6c6c"/>
    <path id="Path_1362" data-name="Path 1362" d="M2820.907,1757.07a1.91,1.91,0,1,0,1.964,1.909A1.939,1.939,0,0,0,2820.907,1757.07Z" transform="translate(-2801.481 -1650.764)" fill="#6c6c6c"/>
    <path id="Path_1363" data-name="Path 1363" d="M2793.275,1757.206a1.968,1.968,0,0,0-.718-.133,2,2,0,0,0-.721.133,1.911,1.911,0,0,0-1.247,1.777,1.965,1.965,0,0,0,3.929,0A1.905,1.905,0,0,0,2793.275,1757.206Z" transform="translate(-2777.915 -1650.765)" fill="#6c6c6c"/>
    <path id="Path_1364" data-name="Path 1364" d="M2794.049,1754.29h-31.072v.6h.56v2.126h.8v-.257l.908-1.656,1.842.014v2.919h.2v-1.816h.121a2.164,2.164,0,0,1,.9-1.333,2.206,2.206,0,0,1,.476-.251,2.284,2.284,0,0,1,2.085.228h0l.035.02h.006a1.942,1.942,0,0,1,.553.571h0a2.119,2.119,0,0,1,.329.761h.412a2.168,2.168,0,0,1,.906-1.333,2.262,2.262,0,0,1,3.14.578,2.19,2.19,0,0,1,.326.755h.449v-1.053h16.539v3.311h-.257v.095h1.087v-.095h-.239v-2.891l.412-.412.536-.536h7.811v-.346h-8.872Z" transform="translate(-2754.977 -1648.455)" fill="#6c6c6c"/>
  </g>
</svg>
