<svg xmlns="http://www.w3.org/2000/svg" width="40" height="15.45" viewBox="0 0 40 15.45">
  <g id="Group_193sad5" data-name="Group 193sad5" transform="translate(0.005 0)" opacity="0.7">
    <path id="Path_1249" data-name="Path 1249" d="M2819.555,776.458a2.01,2.01,0,1,0,2.088,2.009A2.05,2.05,0,0,0,2819.555,776.458Z" transform="translate(-2807.481 -765.027)" fill="#6c6c6c"/>
    <path id="Path_1250" data-name="Path 1250" d="M2792.016,776.6a2.173,2.173,0,0,0-1.53,0,2.014,2.014,0,0,0-1.323,1.87,2.09,2.09,0,0,0,4.176,0,2.015,2.015,0,0,0-1.323-1.87Z" transform="translate(-2784.357 -765.027)" fill="#6c6c6c"/>
    <path id="Subtraction_33" data-name="Subtraction 33" d="M31.552,15.449H30.371v-.1h.282v-1.93h-.507l-1.426-1.85h-13.8v1.4h-.463a2.275,2.275,0,0,0-.98-1.4,2.478,2.478,0,0,0-.517-.259,2.55,2.55,0,0,0-1.746,0,2.481,2.481,0,0,0-.518.259,2.275,2.275,0,0,0-.98,1.4H9.265a2.18,2.18,0,0,0-.357-.8,2.112,2.112,0,0,0-.6-.6l0,0-.011-.007a.117.117,0,0,0-.026-.014,2.469,2.469,0,0,0-.47-.235l-.012-.005a2.586,2.586,0,0,0-1.794.005,2.522,2.522,0,0,0-.505.26,2.3,2.3,0,0,0-.941,1.253.215.215,0,0,1-.2.153H4.326a.167.167,0,0,1-.117-.048.17.17,0,0,1-.057-.126V11.571H3.021L1.909,13.536v.025a.251.251,0,0,1-.248.245H1.038a.3.3,0,0,1-.3-.289V11.123A1.419,1.419,0,0,1,0,9.888V1.423A1.454,1.454,0,0,1,1.447,0H38.555A1.451,1.451,0,0,1,40,1.423V9.886a1.421,1.421,0,0,1-.851,1.292l.024-.007a1.51,1.51,0,0,0-.3.145,1.924,1.924,0,0,1-.964.26q-.083,0-.164-.007H33.366l-.029,0c-.023,0-.066-.005-.1-.005s-.045,0-.048.007l-1.442,1.85h-.454v1.93h.258v.1ZM36.222.295V10.936h.312V.295ZM31,.295V10.936h.315V.295Zm-5.219,0V10.936h.313V.295Zm-5.22,0V10.936h.313V.295Zm-5.219,0V10.936h.313V.295Zm-5.22,0V10.936h.313V.295ZM4.9.295V10.936h.311V.295Z" transform="translate(-0.005 0)" fill="#6c6c6c"/>
  </g>
</svg>
