<svg xmlns="http://www.w3.org/2000/svg" width="40" height="15" viewBox="0 0 40 15">
  <g id="Group_2122" data-name="Group 2122" transform="translate(23168.004 15934.997)" opacity="0.7">
    <g id="Group_2190" data-name="Group 2190" transform="translate(-23168.004 -15934.997)">
      <path id="Path_1282" data-name="Path 1282" d="M2805.889,1600.73a2.074,2.074,0,1,0,2.132,2.072A2.1,2.1,0,0,0,2805.889,1600.73Z" transform="translate(-2796.301 -1589.881)" fill="#6c6c6c"/>
      <path id="Path_1283" data-name="Path 1283" d="M2778.324,1600.871a2.2,2.2,0,0,0-1.561,0,2.074,2.074,0,0,0-1.354,1.929,2.132,2.132,0,0,0,4.263,0A2.075,2.075,0,0,0,2778.324,1600.871Z" transform="translate(-2773.125 -1589.88)" fill="#6c6c6c"/>
      <path id="Path_1284" data-name="Path 1284" d="M2927.072,1598.27h-.639v4.492h-.282v.1h1.181v-.1h-.258Z" transform="translate(-2896.27 -1587.874)" fill="#6c6c6c"/>
      <path id="Path_1285" data-name="Path 1285" d="M2802.936,1543.167a.985.985,0,0,0-.944-.717h-.124a.369.369,0,0,0-.218.071l-1.42.646H2777c-.158,0-.264,0-.3,0H2764.26l-.689,5.134-.562,3.887h-.034v.559h0v.658h.61v2.33h.869v-.281l.193-.352v1.754h.218v-1.991H2765a2.376,2.376,0,0,1,.979-1.461,2.444,2.444,0,0,1,.514-.276,2.472,2.472,0,0,1,1.778,0,2.426,2.426,0,0,1,.477.249h0l.036.022.006,0a2.151,2.151,0,0,1,.6.626h0a2.343,2.343,0,0,1,.356.835h.45a2.377,2.377,0,0,1,.979-1.461,2.447,2.447,0,0,1,2.774,0,2.4,2.4,0,0,1,.627.634,2.343,2.343,0,0,1,.352.828h.461v-1.144h5.981v-.918h21.609v-9.36h0a1,1,0,0,0-.04-.28Zm-35.742,9.022h-3.709l.883-6.842.257-1.791h2.568Zm29.812-8.631h2.366l-2.366,1.077Zm-25.606,8.631h-3.839v-8.631h3.839Zm4.207,0h-3.839v-8.631h3.839Zm4.206,0h-3.838v-8.631h3.838Zm4.206,0h-2.3l2.3-1.048Zm0-1.648-3.624,1.648h-.215v-8.631h3.839Zm4.207,1.648h-3.838v-1.215l3.838-1.745Zm0-3.561-3.838,1.745v-6.816h3.838Zm4.207,3.561h-3.838v-3.128l3.838-1.745Zm0-5.473-3.838,1.745v-4.9h3.838Zm4.206,5.473H2792.8v-5.041l3.838-1.745Zm0-7.387-3.838,1.745v-2.99h3.838Zm3.643,7.387h-3.275v-6.956l3.275-1.49Zm2.311,0h-1.929v-8.618l.03-.014h1.9Z" transform="translate(-2762.975 -1542.45)" fill="#6c6c6c"/>
    </g>
  </g>
</svg>
