<svg xmlns="http://www.w3.org/2000/svg" width="40" height="4.831" viewBox="0 0 40 4.831">
  <g id="Group_2128" data-name="Group 2128" transform="translate(-0.002 -0.005)" opacity="0.7">
    <path id="Path_1292" data-name="Path 1292" d="M2815.31,2087.84a1.948,1.948,0,1,0,2,1.947A1.975,1.975,0,0,0,2815.31,2087.84Z" transform="translate(-2804.64 -2086.957)" fill="#6c6c6c"/>
    <path id="Path_1293" data-name="Path 1293" d="M2769.2,2087.979a2.06,2.06,0,0,0-1.467,0,1.949,1.949,0,0,0-1.269,1.812,2,2,0,1,0,4.005,0,1.947,1.947,0,0,0-1.27-1.812Z" transform="translate(-2765.862 -2086.958)" fill="#6c6c6c"/>
    <path id="Path_1294" data-name="Path 1294" d="M2792.943,2082.72h-29.962v.885h0v3.344h.234V2085.1h.124a2.173,2.173,0,0,1,.211-.573,2.3,2.3,0,0,1,1.48-1.13,2.286,2.286,0,0,1,1.653.21h0a2.041,2.041,0,0,1,.184.11h0a.179.179,0,0,1,.034.02l.005,0a2.009,2.009,0,0,1,.565.583h0a2.168,2.168,0,0,1,.335.776h0v1.137h3.623V2085.1c.011-.052.025-.1.04-.154a2.193,2.193,0,0,1,.591-.963h0a2.287,2.287,0,0,1,1.033-.566,2.346,2.346,0,0,1,.558-.065,2.3,2.3,0,0,1,1.064.257h0a2.24,2.24,0,0,1,1.155,1.493h17.073l1.051-.312v2.613h-.262v.1h1.111v-.1h-.244v-2.791l.488-.145h7.9v-1.744Z" transform="translate(-2762.979 -2082.715)" fill="#6c6c6c"/>
  </g>
</svg>
