<svg xmlns="http://www.w3.org/2000/svg" width="40" height="5.347" viewBox="0 0 40 5.347">
  <g id="Group_2132" data-name="Group 2132" transform="translate(-105.939 -5.974)" opacity="0.7">
    <g id="Group_2191" data-name="Group 2191" transform="translate(105.939 5.974)">
      <path id="Path_1295" data-name="Path 1295" d="M2802.975,868.962a.508.508,0,0,0-.47-.5c-.835-.076-2.486-.193-2.684-.2-1.043-.077-2.088-.134-3.135-.14a9.113,9.113,0,0,0-3.02.311q-.129.044-.257.1a2.42,2.42,0,0,0-.989.687,3.243,3.243,0,0,0-.45,1.233c-.022.079-.113.554-.227.554h-12.588s-2.646-2.073-2.663-2.09h-13.127a.381.381,0,0,0-.386.375v2.368a.117.117,0,0,0,.109.118.114.114,0,0,0,.121-.112q0-.207,0-.414a1.753,1.753,0,0,1,.609-1.195l.064-.06c.021-.02.045-.039.068-.057a2.1,2.1,0,0,1,.18-.132,2.3,2.3,0,0,1,.358-.2c.042-.019.085-.036.128-.052s.064-.023.1-.034a2.391,2.391,0,0,1,.554-.108h.4c.036,0,.072.007.107.012a2.384,2.384,0,0,1,.511.128,2.322,2.322,0,0,1,.342.16c.036.021.072.042.107.064h0l.026.015.006,0h0a1.977,1.977,0,0,1,.565.565,2.069,2.069,0,0,1,.335.753h0v.357a.212.212,0,0,0,.2.213.208.208,0,0,0,.217-.2v-.366a2.142,2.142,0,0,1,.922-1.318l.057-.036.044-.026h0a2.332,2.332,0,0,1,.382-.182,2.385,2.385,0,0,1,.659-.142h.357a2.392,2.392,0,0,1,.658.142,2.34,2.34,0,0,1,.45.225h0l.035.02.005,0a1.989,1.989,0,0,1,.565.565,2.071,2.071,0,0,1,.335.753v.357a.213.213,0,0,0,.2.213.208.208,0,0,0,.217-.2v-.366c.006-.026.012-.051.019-.076a2.148,2.148,0,0,1,.9-1.241,2.39,2.39,0,0,1,2.613,0,2.013,2.013,0,0,1,.926,1.472c.031.342,0,.688,0,1.028v.378h17.192a.3.3,0,0,0,.3-.236.28.28,0,0,0-.168-.3l-.364-.158a2.64,2.64,0,0,0,.937-1.558,3.909,3.909,0,0,0,.086-1c1.142,0,7.558.038,7.544,0C2802.975,869.4,2802.975,869.18,2802.975,868.962Zm-8.744,2.937-.8-.346.363-1.312a2.012,2.012,0,0,1,1.463-.817,2.9,2.9,0,0,1-1.02,2.475Z" transform="translate(-2762.98 -868.095)" fill="#6c6c6c"/>
      <path id="Path_1296" data-name="Path 1296" d="M2796.828,877.527a2.124,2.124,0,0,0-1.467,0,1.9,1.9,0,0,0-1.269,1.758,2.006,2.006,0,0,0,4.005,0,1.9,1.9,0,0,0-1.27-1.758Z" transform="translate(-2788.727 -875.831)" fill="#6c6c6c"/>
      <path id="Path_1297" data-name="Path 1297" d="M2768.548,877.527a2.122,2.122,0,0,0-1.467,0,1.894,1.894,0,0,0-1.269,1.758,2.006,2.006,0,0,0,4,0A1.9,1.9,0,0,0,2768.548,877.527Z" transform="translate(-2765.325 -875.831)" fill="#6c6c6c"/>
      <path id="Path_1298" data-name="Path 1298" d="M2824.374,877.377a1.892,1.892,0,1,0,2,1.888A1.948,1.948,0,0,0,2824.374,877.377Z" transform="translate(-2812.21 -875.824)" fill="#6c6c6c"/>
    </g>
  </g>
</svg>
