<svg xmlns="http://www.w3.org/2000/svg" width="40" height="14.915" viewBox="0 0 40 14.915">
  <g id="Group_1934" data-name="Group 1934" transform="translate(0.004 0)" opacity="0.7">
    <g id="Group_2185" data-name="Group 2185" transform="translate(37.48 1.21)">
      <path id="Path_1244" data-name="Path 1244" d="M2981.875,563.354h-1.259v8.488h2.08a.437.437,0,0,0,.437-.437v-6.795A1.257,1.257,0,0,0,2981.875,563.354Zm.394,8.11a.065.065,0,0,1-.064.065h-1.041a.065.065,0,0,1-.065-.065v-1.041a.065.065,0,0,1,.065-.065h1.041a.065.065,0,0,1,.065.065Zm.534-3.663a.13.13,0,0,1-.129.13h-1.911v-4.246h.982a1.061,1.061,0,0,1,1.061,1.061Z" transform="translate(-2980.616 -563.354)" fill="#6c6c6c"/>
    </g>
    <path id="Path_1246" data-name="Path 1246" d="M2819.367,620.575a1.951,1.951,0,1,0,1.967,1.952A1.952,1.952,0,0,0,2819.367,620.575Z" transform="translate(-2808.044 -609.591)" fill="#6c6c6c"/>
    <path id="Path_1247" data-name="Path 1247" d="M2791.848,620.71a1.991,1.991,0,0,0-1.441,0,1.967,1.967,0,1,0,1.441,0Z" transform="translate(-2784.635 -609.591)" fill="#6c6c6c"/>
    <path id="Subtraction_32" data-name="Subtraction 32" d="M29.607,14.882H28.5v-.1h.265V12.927h-.475l-1.339-1.782H14V12.5h-.434a2.189,2.189,0,0,0-.921-1.351,2.281,2.281,0,0,0-.485-.251,2.345,2.345,0,0,0-1.639,0,2.294,2.294,0,0,0-.484.251,2.184,2.184,0,0,0-.92,1.351H8.692a2.13,2.13,0,0,0-.334-.771,1.993,1.993,0,0,0-.565-.58l-.005,0-.011-.007a.077.077,0,0,0-.024-.014,2.246,2.246,0,0,0-.438-.226l-.01-.005a2.342,2.342,0,0,0-.829-.152H6.469a2.39,2.39,0,0,0-.849.158,2.282,2.282,0,0,0-.474.25,2.207,2.207,0,0,0-.885,1.209.207.207,0,0,1-.191.148H4.064a.168.168,0,0,1-.167-.168V11.147H2.836L1.791,13.041v.023a.236.236,0,0,1-.236.236H.975a.28.28,0,0,1-.28-.279v-2.3A1.373,1.373,0,0,1,0,9.526V1.372A1.376,1.376,0,0,1,1.378,0H36.159a1.377,1.377,0,0,1,1.375,1.372V9.521a1.38,1.38,0,0,1-.8,1.245l.021-.006a1.337,1.337,0,0,0-.277.14,1.766,1.766,0,0,1-.909.252c-.05,0-.1,0-.149-.006H31.309l-.026,0c-.026,0-.064-.005-.094-.005s-.041,0-.044.007L29.79,12.927h-.426v1.858h.243v.1ZM.476,9.043v.294H37.184V9.043Zm0-1.027v.294H37.184V8.016Zm0-2.238v.294H37.184V5.778Zm0-1.028v.294H37.184V4.75Zm0-2.152v.294H37.184V2.6Zm0-1.028v.294H37.184V1.571Z" transform="translate(-0.004 0)" fill="#6c6c6c"/>
  </g>
</svg>
