<svg xmlns="http://www.w3.org/2000/svg" width="43.716" height="14.75" viewBox="0 0 43.716 14.75">
  <g id="Group_1937" data-name="Group 1937" transform="translate(-0.003 -0.001)">
    <g id="Group_2188" data-name="Group 2188" transform="translate(0.365 4.888)" opacity="0.2">
      <path id="Path_10489" data-name="Path 10489" d="M0,0H4.52V4.213H0Z" transform="translate(9.768)" fill="#929292"/>
      <path id="Path_10488" data-name="Path 10488" d="M0,0H4.52V4.213H0Z" transform="translate(4.884)" fill="#929292"/>
      <path id="Path_10487" data-name="Path 10487" d="M0,0H4.52V4.213H0Z" transform="translate(14.652)" fill="#929292"/>
      <path id="Path_10486" data-name="Path 10486" d="M0,0H4.52V4.213H0Z" transform="translate(19.536)" fill="#929292"/>
      <path id="Path_10485" data-name="Path 10485" d="M0,0H4.52V4.213H0Z" fill="#929292"/>
      <path id="Path_10484" data-name="Path 10484" d="M0,0H3.913V4.213H0Z" transform="translate(39.072)" fill="#929292"/>
      <path id="Path_10483" data-name="Path 10483" d="M0,0H4.52V4.213H0Z" transform="translate(29.304)" fill="#929292"/>
      <path id="Path_10482" data-name="Path 10482" d="M0,0H4.52V4.213H0Z" transform="translate(24.42)" fill="#929292"/>
      <path id="Path_10481" data-name="Path 10481" d="M0,0H4.52V4.213H0Z" transform="translate(34.188)" fill="#929292"/>
    </g>
    <path id="Path_1253" data-name="Path 1253" d="M2807.046,1450.57a2.028,2.028,0,1,0,2.147,2.025,2.09,2.09,0,0,0-2.147-2.025Z" transform="translate(-2797.166 -1439.904)" fill="#929292"/>
    <path id="Path_1254" data-name="Path 1254" d="M2767.836,1450.57a2.028,2.028,0,1,0,2.148,2.025A2.089,2.089,0,0,0,2767.836,1450.57Z" transform="translate(-2765.209 -1439.904)" fill="#929292"/>
    <path id="Path_1255" data-name="Path 1255" d="M2803.075,1441.65h-40.094v1.005h0v1.178h0v2.645h.149v-2.409h.258a2.636,2.636,0,0,1,4.43,0h2.49v2.409h.15v-2.409h.183a2.636,2.636,0,0,1,4.43,0h21.768l1,1.089v2.078h-.285v.1h1.191v-.1h-.262v-3.215l8.21-1.366h0v-1.005h-3.619Zm-5.234,3.141-.662-.721h.662Z" transform="translate(-2762.978 -1432.587)" fill="#929292"/>
    <path id="Path_1256" data-name="Path 1256" d="M2806.7,1394.353c-.913-2.569-4.46-3.6-4.46-3.6h0a15.2,15.2,0,0,1-4.885,0,15.212,15.212,0,0,1-4.884,0,15.2,15.2,0,0,1-4.885,0,15.212,15.212,0,0,1-4.884,0,15.212,15.212,0,0,1-4.884,0,15.21,15.21,0,0,1-4.884,0,15.212,15.212,0,0,1-4.884,0,15.21,15.21,0,0,1-4.884,0h0a.178.178,0,0,0-.127.051.18.18,0,0,0-.054.126v4.743h0v4.213h.364v-4.213h4.52v4.213h.365v-4.213h4.52v4.213h.364v-4.213h4.52v4.213H2778v-4.213h4.52v4.213h.364v-4.213h4.52v4.213h.364v-4.213h4.52v4.213h.365v-4.213h4.52v4.213h.364v-4.213h4.52v4.213h.365v-4.213h3.913v4.213h.365v-4.213h0Z" transform="translate(-2762.978 -1390.75)" fill="#929292"/>
  </g>
</svg>
