<svg xmlns="http://www.w3.org/2000/svg" width="40" height="8" viewBox="0 0 40 8">
  <g id="Group_1957" data-name="Group 1957" transform="translate(0.003 0)" opacity="0.7">
    <path id="Path_1288" data-name="Path 1288" d="M2802.975,969.954v-.544a.344.344,0,0,0-.343-.345h-8.992a.331.331,0,0,0-.331.332v.557h0v2.315h-30.2a.135.135,0,0,0-.135.135v.753h0a.135.135,0,0,0,.135.135h.435v2.176h.817v-.262l1.045-1.915h1.039v3.223h.205v-1.86h.126a2.276,2.276,0,0,1,1.142-1.5l.086-.044c.058-.029.118-.055.179-.078a2.294,2.294,0,0,1,.511-.132,2.385,2.385,0,0,1,.653,0,2.31,2.31,0,0,1,.511.132q.092.035.179.078l.085.044c.063.034.126.071.184.111h0a.28.28,0,0,1,.035.021l0,0a2.018,2.018,0,0,1,.566.585h0a2.18,2.18,0,0,1,.335.78h3.623c.011-.052.025-.1.04-.155a2.2,2.2,0,0,1,.589-.968,2.27,2.27,0,0,1,.526-.379,2.316,2.316,0,0,1,2.075-.026c.079.041.206.112.279.162a2.213,2.213,0,0,1,.928,1.365h14.875v2.313h-.266v.1h1.11v-.1h-.244v-2.313h.4a.379.379,0,0,0,.378-.379V970.81h7.072a.344.344,0,0,0,.343-.345v-.519Z" transform="translate(-2762.978 -969.065)" fill="#6c6c6c"/>
    <path id="Path_10512" data-name="Path 10512" d="M1.951,0A1.951,1.951,0,1,1,0,1.951,1.951,1.951,0,0,1,1.951,0Z" transform="translate(4.149 3.985)" fill="#6c6c6c"/>
    <path id="Path_10511" data-name="Path 10511" d="M1.951,0A1.951,1.951,0,1,1,0,1.951,1.951,1.951,0,0,1,1.951,0Z" transform="translate(12.175 3.985)" fill="#6c6c6c"/>
  </g>
</svg>
