<svg xmlns="http://www.w3.org/2000/svg" width="40" height="12.405" viewBox="0 0 40 12.405">
  <g id="Group_2034" data-name="Group 2034" transform="translate(-0.001 -0.004)" opacity="0.7">
    <path id="Path_1266" data-name="Path 1266" d="M2813.1,1139.805a2.04,2.04,0,0,0-1.41,0,1.856,1.856,0,0,0-1.168,1.267,1.705,1.705,0,0,0-.055.423,1.929,1.929,0,0,0,3.852,0,1.705,1.705,0,0,0-.055-.423,1.856,1.856,0,0,0-1.164-1.267Z" transform="translate(-2802.593 -1130.903)" fill="#6c6c6c"/>
    <path id="Path_1267" data-name="Path 1267" d="M2787.354,1139.805a2.042,2.042,0,0,0-1.411,0,1.823,1.823,0,0,0-1.22,1.69,1.93,1.93,0,0,0,3.852,0A1.823,1.823,0,0,0,2787.354,1139.805Z" transform="translate(-2781.116 -1130.903)" fill="#6c6c6c"/>
    <path id="Subtraction_35" data-name="Subtraction 35" d="M30.554,12.4H29.486v-.092h.256V8.807H24.588v2.463h-7.1V9.848H11.942a2.243,2.243,0,0,0-1.3-1.227.631.631,0,0,0-.076-.027,2.455,2.455,0,0,0-1.519,0,.738.738,0,0,0-.078.027c-.073.027-.132.052-.189.078l-.01.006c-.038.018-.1.054-.189.1l0,0,0,0a4.907,4.907,0,0,1-.407.559A1.721,1.721,0,0,0,8,9.605c-.089.14-.147.233-.307.233s-.213-.088-.3-.222a1.837,1.837,0,0,0-.182-.245,5.164,5.164,0,0,1-.347-.427l-.014-.019c-.031-.041-.06-.08-.09-.117a2.5,2.5,0,0,0-.312-.156L6.4,8.63l-.008,0L6.37,8.621a.635.635,0,0,0-.076-.027,2.454,2.454,0,0,0-1.518,0,.709.709,0,0,0-.078.027,2.313,2.313,0,0,0-.391.186,2.209,2.209,0,0,0-.73.7l0,0a2.011,2.011,0,0,0-.279.675,3.12,3.12,0,0,0-.042.467.15.15,0,0,1-.15.146h-.03a.15.15,0,0,1-.109-.043.144.144,0,0,1-.044-.1v-.465H2.5a.371.371,0,0,1-.372-.362V8.414C.957,8.414,0,6.527,0,4.207S.956,0,2.131,0h35.85V.006C39.113.13,40,2.058,40,4.395s-.886,4.267-2.017,4.393v.019H30.32v3.505h.234V12.4ZM.533,2.315A9.637,9.637,0,0,0,.3,4.239,8.439,8.439,0,0,0,.533,6.075l39.06-.006a8.672,8.672,0,0,0,.146-2.11A7.967,7.967,0,0,0,39.5,2.331L.533,2.315Z" transform="translate(0.001 0.004)" fill="#6c6c6c"/>
  </g>
</svg>
