<svg xmlns="http://www.w3.org/2000/svg" width="16" height="18" viewBox="0 0 16 18">
  <g id="snowflake" transform="translate(0.037)">
    <path id="Path_10688" data-name="Path 10688" d="M8.9,46.452a.552.552,0,0,0,.006.789l.4.4a.58.58,0,0,0,.807,0l.7-.693,0-2.386L8.905,46.447ZM7.232,33.875l-.532.141a.543.543,0,0,0-.389.664l.25.914,2.024,1.151-.678-2.487a.553.553,0,0,0-.674-.383Zm-.926,11.3a.543.543,0,0,0,.389.664l.532.141A.553.553,0,0,0,7.9,45.6l.678-2.487L6.556,44.26ZM18.983,39.3a.554.554,0,0,0,.675-.383l.143-.524a.543.543,0,0,0-.389-.664l-.928-.246-2.025,1.151Zm-14.7-.383a.553.553,0,0,0,.675.383l2.527-.668L5.455,37.475l-.927.246a.553.553,0,0,0-.337.254.538.538,0,0,0-.056.414Zm.674,1.642a.553.553,0,0,0-.675.383l-.143.524a.543.543,0,0,0,.389.664l.928.246,2.027-1.15Zm4.364-8.339-.407.4-.006.006a.552.552,0,0,0,.006.789L10.825,35.3V32.908l-.7-.693A.58.58,0,0,0,9.316,32.215ZM19.8,41.465l-.143-.524a.554.554,0,0,0-.675-.383l-2.524.668,2.024,1.151.928-.246A.543.543,0,0,0,19.8,41.465ZM17.629,34.68a.543.543,0,0,0-.389-.664l-.532-.141a.553.553,0,0,0-.675.383l-.678,2.487,2.024-1.151Zm-.25,9.577-2.024-1.151.678,2.487a.553.553,0,0,0,.675.383l.532-.141a.543.543,0,0,0,.389-.664Zm-4.269.3L13.1,46.944l.7.691a.58.58,0,0,0,.807,0l.4-.4a.559.559,0,0,0,0-.795Zm1.514-12.34a.58.58,0,0,0-.807,0l-.707.693V35.3l1.918-1.888a.559.559,0,0,0,0-.795Z" transform="translate(-4.005 -30.925)" fill="#b7b7b7" opacity="0.4"/>
    <path id="Path_10689" data-name="Path 10689" d="M15.891,12.869l0,.005-.552.942A.55.55,0,0,1,15,14.07a.558.558,0,0,1-.418-.053L9.106,10.905,9.1,17.438A.567.567,0,0,1,8.527,18H7.385a.567.567,0,0,1-.571-.562l0-6.529L1.344,14.02a.559.559,0,0,1-.753-.2l-.555-.942a.541.541,0,0,1,.2-.742L5.755,9,.245,5.864a.538.538,0,0,1-.2-.74L.6,4.184a.555.555,0,0,1,.75-.2h0L6.82,7.095V.563A.567.567,0,0,1,7.392,0H8.534a.567.567,0,0,1,.571.563V7.095L14.58,3.983a.559.559,0,0,1,.753.2l.554.942a.541.541,0,0,1-.2.742L10.172,9l5.517,3.136a.533.533,0,0,1,.2.733Z" fill="#b7b7b7"/>
  </g>
</svg>
