<svg xmlns="http://www.w3.org/2000/svg" width="19.04" height="19.002" viewBox="0 0 19.04 19.002">
  <g id="Group_12427" data-name="Group 12427" transform="translate(-985.703 -518.775)">
    <path id="Path_10690" data-name="Path 10690" d="M994.664,519.462a.262.262,0,0,0-.5,0c-.4,1.317-1.256,1.675-1.256,2.6a1.507,1.507,0,0,0,3.015,0C995.923,521.132,995.065,520.785,994.664,519.462Z" transform="translate(0.033)" fill="#b7b7b7" stroke="rgba(0,0,0,0)" stroke-width="1" opacity="0.6"/>
    <path id="Path_10691" data-name="Path 10691" d="M988.716,521.235c-.8,2.635-2.513,3.35-2.513,5.2a3.015,3.015,0,0,0,6.029,0c0-1.863-1.712-2.561-2.513-5.206a.524.524,0,0,0-1,.006Z" transform="translate(0 -0.004)" fill="#b7b7b7" stroke="rgba(0,0,0,0)" stroke-width="1"/>
    <path id="Path_10689" data-name="Path 10689" d="M990.016,535.018a.572.572,0,0,1-.806-.007h0l-.812-.805a.563.563,0,0,1-.006-.8l11.994-11.9a.573.573,0,0,1,.806.005h0l.812.805a.563.563,0,0,1,.005.8h0Z" transform="translate(0.01 -0.005)" fill="#b7b7b7" stroke="rgba(0,0,0,0)" stroke-width="1" opacity="0.6"/>
    <path id="Path_10692" data-name="Path 10692" d="M1001.512,534.738a.449.449,0,0,1-.439.458h-.878a.451.451,0,0,1-.44-.458v-1.626l-1.537.922a.422.422,0,0,1-.336.048.438.438,0,0,1-.269-.214l-.439-.8a.469.469,0,0,1,.165-.624l1.53-.916-1.531-.918a.468.468,0,0,1-.16-.624l.439-.8a.43.43,0,0,1,.578-.178l.021.012,1.538.922v-1.627a.449.449,0,0,1,.44-.458h.879a.448.448,0,0,1,.439.458v1.627l1.539-.922a.431.431,0,0,1,.588.145l.012.021.439.8a.469.469,0,0,1-.16.624l-1.539.916,1.539.916a.47.47,0,0,1,.16.625l-.439.8a.429.429,0,0,1-.578.178l-.022-.012-1.538-.922Z" transform="translate(0.053 -0.019)" fill="#b7b7b7" stroke="rgba(0,0,0,0)" stroke-width="1"/>
    <path id="Path_10693" data-name="Path 10693" d="M993.018,535.933l.768-.459-.768-.458a.235.235,0,0,1-.079-.312l.22-.4a.215.215,0,0,1,.288-.09l.011.006.769.464v-.817a.224.224,0,0,1,.22-.228h.439a.224.224,0,0,1,.22.228v.817l.769-.461a.215.215,0,0,1,.294.072l.006.011.219.4a.235.235,0,0,1-.079.312l-.77.458.77.459a.234.234,0,0,1,.079.311l-.219.4a.215.215,0,0,1-.289.089l-.011-.006-.769-.461v.814a.224.224,0,0,1-.22.229h-.439a.224.224,0,0,1-.22-.229v-.815l-.769.461a.212.212,0,0,1-.168.024.217.217,0,0,1-.135-.108l-.22-.4A.235.235,0,0,1,993.018,535.933Z" transform="translate(0.033 -0.032)" fill="#b7b7b7" stroke="rgba(0,0,0,0)" stroke-width="1" opacity="0.6"/>
  </g>
</svg>
