<svg xmlns="http://www.w3.org/2000/svg" width="594" height="177" viewBox="0 0 594 177">
  <g id="_594x177" data-name="594x177" fill="#f3f3f3" stroke-dasharray="4 5">
    <path d="M3,0H591a3,3,0,0,1,3,3V174a3,3,0,0,1-3,3H3a3,3,0,0,1-3-3V3A3,3,0,0,1,3,0Z" stroke="none"/>
    <path d="M 3 0 L 7 0 L 7 2 L 3 2 L 3 0 C 3 0 3 0 3 0 Z M 12 0 L 16 0 L 16 2 L 12 2 L 12 0 Z M 21 0 L 25 0 L 25 2 L 21 2 L 21 0 Z M 30 0 L 34 0 L 34 2 L 30 2 L 30 0 Z M 39 0 L 43 0 L 43 2 L 39 2 L 39 0 Z M 48 0 L 52 0 L 52 2 L 48 2 L 48 0 Z M 57 0 L 61 0 L 61 2 L 57 2 L 57 0 Z M 66 0 L 70 0 L 70 2 L 66 2 L 66 0 Z M 75 0 L 79 0 L 79 2 L 75 2 L 75 0 Z M 84 0 L 88 0 L 88 2 L 84 2 L 84 0 Z M 93 0 L 97 0 L 97 2 L 93 2 L 93 0 Z M 102 0 L 106 0 L 106 2 L 102 2 L 102 0 Z M 111 0 L 115 0 L 115 2 L 111 2 L 111 0 Z M 120 0 L 124 0 L 124 2 L 120 2 L 120 0 Z M 129 0 L 133 0 L 133 2 L 129 2 L 129 0 Z M 138 0 L 142 0 L 142 2 L 138 2 L 138 0 Z M 147 0 L 151 0 L 151 2 L 147 2 L 147 0 Z M 156 0 L 160 0 L 160 2 L 156 2 L 156 0 Z M 165 0 L 169 0 L 169 2 L 165 2 L 165 0 Z M 174 0 L 178 0 L 178 2 L 174 2 L 174 0 Z M 183 0 L 187 0 L 187 2 L 183 2 L 183 0 Z M 192 0 L 196 0 L 196 2 L 192 2 L 192 0 Z M 201 0 L 205 0 L 205 2 L 201 2 L 201 0 Z M 210 0 L 214 0 L 214 2 L 210 2 L 210 0 Z M 219 0 L 223 0 L 223 2 L 219 2 L 219 0 Z M 228 0 L 232 0 L 232 2 L 228 2 L 228 0 Z M 237 0 L 241 0 L 241 2 L 237 2 L 237 0 Z M 246 0 L 250 0 L 250 2 L 246 2 L 246 0 Z M 255 0 L 259 0 L 259 2 L 255 2 L 255 0 Z M 264 0 L 268 0 L 268 2 L 264 2 L 264 0 Z M 273 0 L 277 0 L 277 2 L 273 2 L 273 0 Z M 282 0 L 286 0 L 286 2 L 282 2 L 282 0 Z M 291 0 L 295 0 L 295 2 L 291 2 L 291 0 Z M 300 0 L 304 0 L 304 2 L 300 2 L 300 0 Z M 309 0 L 313 0 L 313 2 L 309 2 L 309 0 Z M 318 0 L 322 0 L 322 2 L 318 2 L 318 0 Z M 327 0 L 331 0 L 331 2 L 327 2 L 327 0 Z M 336 0 L 340 0 L 340 2 L 336 2 L 336 0 Z M 345 0 L 349 0 L 349 2 L 345 2 L 345 0 Z M 354 0 L 358 0 L 358 2 L 354 2 L 354 0 Z M 363 0 L 367 0 L 367 2 L 363 2 L 363 0 Z M 372 0 L 376 0 L 376 2 L 372 2 L 372 0 Z M 381 0 L 385 0 L 385 2 L 381 2 L 381 0 Z M 390 0 L 394 0 L 394 2 L 390 2 L 390 0 Z M 399 0 L 403 0 L 403 2 L 399 2 L 399 0 Z M 408 0 L 412 0 L 412 2 L 408 2 L 408 0 Z M 417 0 L 421 0 L 421 2 L 417 2 L 417 0 Z M 426 0 L 430 0 L 430 2 L 426 2 L 426 0 Z M 435 0 L 439 0 L 439 2 L 435 2 L 435 0 Z M 444 0 L 448 0 L 448 2 L 444 2 L 444 0 Z M 453 0 L 457 0 L 457 2 L 453 2 L 453 0 Z M 462 0 L 466 0 L 466 2 L 462 2 L 462 0 Z M 471 0 L 475 0 L 475 2 L 471 2 L 471 0 Z M 480 0 L 484 0 L 484 2 L 480 2 L 480 0 Z M 489 0 L 493 0 L 493 2 L 489 2 L 489 0 Z M 498 0 L 502 0 L 502 2 L 498 2 L 498 0 Z M 507 0 L 511 0 L 511 2 L 507 2 L 507 0 Z M 516 0 L 520 0 L 520 2 L 516 2 L 516 0 Z M 525 0 L 529 0 L 529 2 L 525 2 L 525 0 Z M 534 0 L 538 0 L 538 2 L 534 2 L 534 0 Z M 543 0 L 547 0 L 547 2 L 543 2 L 543 0 Z M 552 0 L 556 0 L 556 2 L 552 2 L 552 0 Z M 561 0 L 565 0 L 565 2 L 561 2 L 561 0 Z M 570 0 L 574 0 L 574 2 L 570 2 L 570 0 Z M 579 0 L 583 0 L 583 2 L 579 2 L 579 0 Z M 588 0 L 591 0 C 591.0037841796875 1.52587890625e-05 591.007568359375 -3.0517578125e-05 591.0113525390625 3.0517578125e-05 C 591.0146484375 3.0517578125e-05 591.017822265625 9.1552734375e-05 591.0211181640625 7.62939453125e-05 C 591.024169921875 9.1552734375e-05 591.0272827148438 0.0001068115234375 591.0303955078125 0.000152587890625 C 591.033447265625 0.0001678466796875 591.036376953125 0.000213623046875 591.0394897460938 0.0002593994140625 C 591.042724609375 0.0002899169921875 591.0457763671875 0.0003204345703125 591.0490112304688 0.000396728515625 C 591.0526123046875 0.000457763671875 591.0563354492188 0.0005340576171875 591.0599365234375 0.0005950927734375 C 591.0631103515625 0.000640869140625 591.0662231445312 0.0006561279296875 591.0693969726562 0.00079345703125 C 591.072509765625 0.0008544921875 591.0756225585938 0.0009307861328125 591.0787353515625 0.0010223388671875 C 591.0817260742188 0.0010833740234375 591.0846557617188 0.001190185546875 591.087646484375 0.001251220703125 C 591.0908813476562 0.0013580322265625 591.0940551757812 0.001617431640625 591.0972290039062 0.0015411376953125 C 591.1008911132812 0.001678466796875 591.1046142578125 0.0018157958984375 591.1082153320312 0.001922607421875 C 591.111328125 0.002044677734375 591.1144409179688 0.0021820068359375 591.1175537109375 0.00225830078125 C 591.12060546875 0.00238037109375 591.1234130859375 0.002410888671875 591.12646484375 0.00262451171875 C 591.1295166015625 0.00274658203125 591.132568359375 0.0028076171875 591.1356201171875 0.0030059814453125 C 591.1390380859375 0.003143310546875 591.1422119140625 0.0032501220703125 591.1456909179688 0.00347900390625 C 591.1492309570312 0.003662109375 591.1529541015625 0.0038909912109375 591.156494140625 0.0040130615234375 C 591.1594848632812 0.0041656494140625 591.162353515625 0.0042724609375 591.1653442382812 0.004486083984375 C 591.1682739257812 0.0046234130859375 591.1713256835938 0.0048370361328125 591.17431640625 0.004974365234375 C 591.17724609375 0.005157470703125 591.1803588867188 0.0053253173828125 591.1832885742188 0.0055084228515625 C 591.1865234375 0.005706787109375 591.1898193359375 0.0059051513671875 591.1930541992188 0.0061187744140625 C 591.1966552734375 0.0063629150390625 591.2000122070312 0.0066070556640625 591.20361328125 0.006805419921875 C 591.206787109375 0.0070037841796875 591.2098999023438 0.007232666015625 591.2130737304688 0.0074462890625 C 591.2160034179688 0.0076751708984375 591.218994140625 0.0078887939453125 591.221923828125 0.008087158203125 C 591.2249145507812 0.00830078125 591.22802734375 0.00848388671875 591.2310791015625 0.0087738037109375 C 591.2343139648438 0.009002685546875 591.2374877929688 0.009185791015625 591.2407836914062 0.009521484375 C 591.2442016601562 0.0097808837890625 591.2476806640625 0.010162353515625 591.2511596679688 0.0103607177734375 C 591.2542114257812 0.0106048583984375 591.2572631835938 0.0108489990234375 591.2603759765625 0.011138916015625 C 591.2633666992188 0.0113983154296875 591.2664184570312 0.0116729736328125 591.2694091796875 0.011932373046875 C 591.2756958007812 0.0124969482421875 591.2821655273438 0.0133056640625 591.2884521484375 0.0136871337890625 C 591.2918090820312 0.0140228271484375 591.2952270507812 0.0143890380859375 591.2985229492188 0.0146636962890625 C 591.3016357421875 0.014984130859375 591.3048095703125 0.0153350830078125 591.3079833984375 0.0156097412109375 C 591.310791015625 0.015899658203125 591.3136596679688 0.0160980224609375 591.3164672851562 0.0164947509765625 C 591.3255615234375 0.0174407958984375 591.3346557617188 0.0184478759765625 591.3436889648438 0.01947021484375 C 591.3468627929688 0.019805908203125 591.35009765625 0.02020263671875 591.353271484375 0.0205841064453125 C 591.3536376953125 0.0206298828125 591.35400390625 0.0206756591796875 591.3543701171875 0.020721435546875 C 591.3666381835938 0.02215576171875 591.3790893554688 0.0236968994140625 591.3912963867188 0.0252838134765625 C 591.3943481445312 0.0254974365234375 591.3973999023438 0.026092529296875 591.4004516601562 0.0265045166015625 C 591.4006958007812 0.0265350341796875 591.40087890625 0.02655029296875 591.401123046875 0.026580810546875 C 591.4135131835938 0.0282440185546875 591.4259033203125 0.02996826171875 591.438232421875 0.0317840576171875 C 591.438232421875 0.0317840576171875 591.438232421875 0.0317840576171875 591.438232421875 0.0317840576171875 C 591.4413452148438 0.032257080078125 591.4443359375 0.032989501953125 591.4475708007812 0.0331573486328125 C 591.6316528320312 0.060699462890625 591.8102416992188 0.104949951171875 591.9817504882812 0.164337158203125 L 591.3275146484375 2.054306030273438 C 591.2234497070312 2.018234252929688 591.1132202148438 2 591 2 L 588 2 L 588 0 Z M 592 4.287078857421875 L 594 4.287078857421875 C 594 4.287078857421875 594 8.287078857421875 594 8.287078857421875 L 592 8.287078857421875 L 592 4.287078857421875 Z M 592 13.28707885742188 L 594 13.28707885742188 C 594 13.28707885742188 594 17.28707885742188 594 17.28707885742188 L 592 17.28707885742188 L 592 13.28707885742188 Z M 592 22.28707885742188 L 594 22.28707885742188 C 594 22.28707885742188 594 26.28707885742188 594 26.28707885742188 L 592 26.28707885742188 L 592 22.28707885742188 Z M 592 31.28707885742188 L 594 31.28707885742188 C 594 31.28707885742188 594 35.28707885742188 594 35.28707885742188 L 592 35.28707885742188 L 592 31.28707885742188 Z M 592 40.28707885742188 L 594 40.28707885742188 C 594 40.28707885742188 594 44.28707885742188 594 44.28707885742188 L 592 44.28707885742188 L 592 40.28707885742188 Z M 592 49.28707885742188 L 594 49.28707885742188 C 594 49.28707885742188 594 53.28707885742188 594 53.28707885742188 L 592 53.28707885742188 L 592 49.28707885742188 Z M 592 58.28707885742188 L 594 58.28707885742188 C 594 58.28707885742188 594 62.28707885742188 594 62.28707885742188 L 592 62.28707885742188 L 592 58.28707885742188 Z M 592 67.28707885742188 L 594 67.28707885742188 C 594 67.28707885742188 594 71.28707885742188 594 71.28707885742188 L 592 71.28707885742188 L 592 67.28707885742188 Z M 592 76.28707885742188 L 594 76.28707885742188 C 594 76.28707885742188 594 80.28707885742188 594 80.28707885742188 L 592 80.28707885742188 L 592 76.28707885742188 Z M 592 85.28707885742188 L 594 85.28707885742188 C 594 85.28707885742188 594 89.28707885742188 594 89.28707885742188 L 592 89.28707885742188 L 592 85.28707885742188 Z M 592 94.28707885742188 L 594 94.28707885742188 C 594 94.28707885742188 594 98.28707885742188 594 98.28707885742188 L 592 98.28707885742188 L 592 94.28707885742188 Z M 592 103.2870788574219 L 594 103.2870788574219 C 594 103.2870788574219 594 107.2870788574219 594 107.2870788574219 L 592 107.2870788574219 L 592 103.2870788574219 Z M 592 112.2870788574219 L 594 112.2870788574219 C 594 112.2870788574219 594 116.2870788574219 594 116.2870788574219 L 592 116.2870788574219 L 592 112.2870788574219 Z M 592 121.2870788574219 L 594 121.2870788574219 C 594 121.2870788574219 594 125.2870788574219 594 125.2870788574219 L 592 125.2870788574219 L 592 121.2870788574219 Z M 592 130.2870788574219 L 594 130.2870788574219 C 594 130.2870788574219 594 134.2870788574219 594 134.2870788574219 L 592 134.2870788574219 L 592 130.2870788574219 Z M 592 139.2870788574219 L 594 139.2870788574219 C 594 139.2870788574219 594 143.2870788574219 594 143.2870788574219 L 592 143.2870788574219 L 592 139.2870788574219 Z M 592 148.2870788574219 L 594 148.2870788574219 C 594 148.2870788574219 594 152.2870788574219 594 152.2870788574219 L 592 152.2870788574219 L 592 148.2870788574219 Z M 592 157.2870788574219 L 594 157.2870788574219 C 594 157.2870788574219 594 161.2870788574219 594 161.2870788574219 L 592 161.2870788574219 L 592 157.2870788574219 Z M 592 166.2870788574219 L 594 166.2870788574219 C 594 166.2870788574219 594 170.2870788574219 594 170.2870788574219 L 592 170.2870788574219 L 592 166.2870788574219 Z M 591.9105224609375 174.4150695800781 L 593.7288208007812 175.2480773925781 C 593.3292236328125 176.1203155517578 592.5238037109375 176.7678527832031 591.5541381835938 176.9489135742188 C 591.5541381835938 176.9489135742188 591.553955078125 176.9489440917969 591.553955078125 176.9489440917969 C 591.5360107421875 176.9523010253906 591.5181884765625 176.9554595947266 591.5001220703125 176.95849609375 C 591.5 176.9585113525391 591.4999389648438 176.9585266113281 591.4998779296875 176.9585418701172 C 591.490966796875 176.9600372314453 591.48193359375 176.9615020751953 591.4730224609375 176.9629211425781 C 591.4684448242188 176.9636383056641 591.4640502929688 176.9643249511719 591.45947265625 176.9650268554688 C 591.4548950195312 176.9657287597656 591.4503784179688 176.9664154052734 591.44580078125 176.9671020507812 C 591.4415283203125 176.9677429199219 591.4371337890625 176.9683837890625 591.4328002929688 176.9690093994141 C 591.432373046875 176.9690704345703 591.431884765625 176.9691314697266 591.4315185546875 176.9691925048828 C 591.4229125976562 176.9704284667969 591.414306640625 176.9716339111328 591.4056396484375 176.9727935791016 C 591.4049682617188 176.9728851318359 591.404541015625 176.9729461669922 591.4038696289062 176.9730377197266 C 591.3953247070312 176.9741973876953 591.3866577148438 176.9753112792969 591.3781127929688 176.9763946533203 C 591.3776245117188 176.9764556884766 591.3768920898438 176.9765472412109 591.3764038085938 176.9766082763672 C 591.3677978515625 176.9776916503906 591.3593139648438 176.9787139892578 591.3507080078125 176.9797210693359 C 591.345947265625 176.9802703857422 591.3412475585938 176.9808044433594 591.3364868164062 176.9813385009766 C 591.33203125 176.9818267822266 591.3274536132812 176.9823303222656 591.322998046875 176.9828186035156 C 591.3182983398438 176.9833221435547 591.3135986328125 176.9838104248047 591.3088989257812 176.9842834472656 C 591.3043212890625 176.9847564697266 591.2996826171875 176.9852142333984 591.295166015625 176.9856567382812 C 591.290771484375 176.9860992431641 591.2864379882812 176.9864959716797 591.2820434570312 176.9869079589844 C 591.277099609375 176.9873809814453 591.272216796875 176.9878234863281 591.2672729492188 176.9882507324219 C 591.2628173828125 176.9886474609375 591.2587280273438 176.9889984130859 591.2542724609375 176.9893646240234 C 591.2493896484375 176.9897766113281 591.2442626953125 176.9902038574219 591.2393798828125 176.9905853271484 C 591.2352294921875 176.9909210205078 591.2310180664062 176.9912414550781 591.226806640625 176.9915466308594 C 591.2215576171875 176.991943359375 591.2166137695312 176.9923095703125 591.2113647460938 176.9926605224609 C 591.2070922851562 176.9929656982422 591.2030639648438 176.9932403564453 591.1987915039062 176.9935150146484 C 591.1936645507812 176.9938507080078 591.1884765625 176.9941711425781 591.183349609375 176.9944915771484 C 591.1790771484375 176.9947509765625 591.1749877929688 176.9949798583984 591.1707153320312 176.9952239990234 C 591.1655883789062 176.9955139160156 591.1605224609375 176.9957733154297 591.1554565429688 176.9960479736328 C 591.1510009765625 176.9962615966797 591.1467895507812 176.9964752197266 591.1423950195312 176.9966735839844 C 591.1376953125 176.9969024658203 591.1331787109375 176.9971008300781 591.1284790039062 176.9972991943359 C 591.1235961914062 176.9974975585938 591.1190795898438 176.9976806640625 591.1141967773438 176.9978637695312 C 591.1097412109375 176.9980316162109 591.1051635742188 176.9981842041016 591.1007080078125 176.9983367919922 C 591.0958251953125 176.9985046386719 591.0906372070312 176.9986572265625 591.0857543945312 176.9987945556641 C 591.081298828125 176.9989166259766 591.0770874023438 176.9990234375 591.0726318359375 176.9991302490234 C 591.0675048828125 176.9992523193359 591.0624389648438 176.9993591308594 591.0573120117188 176.9994659423828 C 591.052978515625 176.9995422363281 591.0487060546875 176.9996185302734 591.0443115234375 176.9996795654297 C 591.0391235351562 176.999755859375 591.0338745117188 176.9998168945312 591.0286865234375 176.9998626708984 C 591.0244140625 176.9999084472656 591.0203247070312 176.9999389648438 591.0160522460938 176.9999542236328 C 591.0106811523438 176.9999847412109 591.00537109375 177 591 177 C 591 177 590.4258422851562 177 590.4258422851562 177 L 590.4258422851562 175 L 591 175 C 591.390380859375 175 591.7477416992188 174.7703857421875 591.9105224609375 174.4150695800781 Z M 581.4258422851562 175 L 585.4258422851562 175 L 585.4258422851562 177 C 585.4258422851562 177 581.4258422851562 177 581.4258422851562 177 L 581.4258422851562 175 Z M 572.4258422851562 175 L 576.4258422851562 175 L 576.4258422851562 177 C 576.4258422851562 177 572.4258422851562 177 572.4258422851562 177 L 572.4258422851562 175 Z M 563.4258422851562 175 L 567.4258422851562 175 L 567.4258422851562 177 C 567.4258422851562 177 563.4258422851562 177 563.4258422851562 177 L 563.4258422851562 175 Z M 554.4258422851562 175 L 558.4258422851562 175 L 558.4258422851562 177 C 558.4258422851562 177 554.4258422851562 177 554.4258422851562 177 L 554.4258422851562 175 Z M 545.4258422851562 175 L 549.4258422851562 175 L 549.4258422851562 177 C 549.4258422851562 177 545.4258422851562 177 545.4258422851562 177 L 545.4258422851562 175 Z M 536.4258422851562 175 L 540.4258422851562 175 L 540.4258422851562 177 C 540.4258422851562 177 536.4258422851562 177 536.4258422851562 177 L 536.4258422851562 175 Z M 527.4258422851562 175 L 531.4258422851562 175 L 531.4258422851562 177 C 531.4258422851562 177 527.4258422851562 177 527.4258422851562 177 L 527.4258422851562 175 Z M 518.4258422851562 175 L 522.4258422851562 175 L 522.4258422851562 177 C 522.4258422851562 177 518.4258422851562 177 518.4258422851562 177 L 518.4258422851562 175 Z M 509.4258422851562 175 L 513.4258422851562 175 L 513.4258422851562 177 C 513.4258422851562 177 509.4258422851562 177 509.4258422851562 177 L 509.4258422851562 175 Z M 500.4258422851562 175 L 504.4258422851562 175 L 504.4258422851562 177 C 504.4258422851562 177 500.4258422851562 177 500.4258422851562 177 L 500.4258422851562 175 Z M 491.4258422851562 175 L 495.4258422851562 175 L 495.4258422851562 177 C 495.4258422851562 177 491.4258422851562 177 491.4258422851562 177 L 491.4258422851562 175 Z M 482.4258422851562 175 L 486.4258422851562 175 L 486.4258422851562 177 C 486.4258422851562 177 482.4258422851562 177 482.4258422851562 177 L 482.4258422851562 175 Z M 473.4258422851562 175 L 477.4258422851562 175 L 477.4258422851562 177 C 477.4258422851562 177 473.4258422851562 177 473.4258422851562 177 L 473.4258422851562 175 Z M 464.4258422851562 175 L 468.4258422851562 175 L 468.4258422851562 177 C 468.4258422851562 177 464.4258422851562 177 464.4258422851562 177 L 464.4258422851562 175 Z M 455.4258422851562 175 L 459.4258422851562 175 L 459.4258422851562 177 C 459.4258422851562 177 455.4258422851562 177 455.4258422851562 177 L 455.4258422851562 175 Z M 446.4258422851562 175 L 450.4258422851562 175 L 450.4258422851562 177 C 450.4258422851562 177 446.4258422851562 177 446.4258422851562 177 L 446.4258422851562 175 Z M 437.4258422851562 175 L 441.4258422851562 175 L 441.4258422851562 177 C 441.4258422851562 177 437.4258422851562 177 437.4258422851562 177 L 437.4258422851562 175 Z M 428.4258422851562 175 L 432.4258422851562 175 L 432.4258422851562 177 C 432.4258422851562 177 428.4258422851562 177 428.4258422851562 177 L 428.4258422851562 175 Z M 419.4258422851562 175 L 423.4258422851562 175 L 423.4258422851562 177 C 423.4258422851562 177 419.4258422851562 177 419.4258422851562 177 L 419.4258422851562 175 Z M 410.4258422851562 175 L 414.4258422851562 175 L 414.4258422851562 177 C 414.4258422851562 177 410.4258422851562 177 410.4258422851562 177 L 410.4258422851562 175 Z M 401.4258422851562 175 L 405.4258422851562 175 L 405.4258422851562 177 C 405.4258422851562 177 401.4258422851562 177 401.4258422851562 177 L 401.4258422851562 175 Z M 392.4258422851562 175 L 396.4258422851562 175 L 396.4258422851562 177 C 396.4258422851562 177 392.4258422851562 177 392.4258422851562 177 L 392.4258422851562 175 Z M 383.4258422851562 175 L 387.4258422851562 175 L 387.4258422851562 177 C 387.4258422851562 177 383.4258422851562 177 383.4258422851562 177 L 383.4258422851562 175 Z M 374.4258422851562 175 L 378.4258422851562 175 L 378.4258422851562 177 C 378.4258422851562 177 374.4258422851562 177 374.4258422851562 177 L 374.4258422851562 175 Z M 365.4258422851562 175 L 369.4258422851562 175 L 369.4258422851562 177 C 369.4258422851562 177 365.4258422851562 177 365.4258422851562 177 L 365.4258422851562 175 Z M 356.4258422851562 175 L 360.4258422851562 175 L 360.4258422851562 177 C 360.4258422851562 177 356.4258422851562 177 356.4258422851562 177 L 356.4258422851562 175 Z M 347.4258422851562 175 L 351.4258422851562 175 L 351.4258422851562 177 C 351.4258422851562 177 347.4258422851562 177 347.4258422851562 177 L 347.4258422851562 175 Z M 338.4258422851562 175 L 342.4258422851562 175 L 342.4258422851562 177 C 342.4258422851562 177 338.4258422851562 177 338.4258422851562 177 L 338.4258422851562 175 Z M 329.4258422851562 175 L 333.4258422851562 175 L 333.4258422851562 177 C 333.4258422851562 177 329.4258422851562 177 329.4258422851562 177 L 329.4258422851562 175 Z M 320.4258422851562 175 L 324.4258422851562 175 L 324.4258422851562 177 C 324.4258422851562 177 320.4258422851562 177 320.4258422851562 177 L 320.4258422851562 175 Z M 311.4258422851562 175 L 315.4258422851562 175 L 315.4258422851562 177 C 315.4258422851562 177 311.4258422851562 177 311.4258422851562 177 L 311.4258422851562 175 Z M 302.4258422851562 175 L 306.4258422851562 175 L 306.4258422851562 177 C 306.4258422851562 177 302.4258422851562 177 302.4258422851562 177 L 302.4258422851562 175 Z M 293.4258422851562 175 L 297.4258422851562 175 L 297.4258422851562 177 C 297.4258422851562 177 293.4258422851562 177 293.4258422851562 177 L 293.4258422851562 175 Z M 284.4258422851562 175 L 288.4258422851562 175 L 288.4258422851562 177 C 288.4258422851562 177 284.4258422851562 177 284.4258422851562 177 L 284.4258422851562 175 Z M 275.4258422851562 175 L 279.4258422851562 175 L 279.4258422851562 177 C 279.4258422851562 177 275.4258422851562 177 275.4258422851562 177 L 275.4258422851562 175 Z M 266.4258422851562 175 L 270.4258422851562 175 L 270.4258422851562 177 C 270.4258422851562 177 266.4258422851562 177 266.4258422851562 177 L 266.4258422851562 175 Z M 257.4258422851562 175 L 261.4258422851562 175 L 261.4258422851562 177 C 261.4258422851562 177 257.4258422851562 177 257.4258422851562 177 L 257.4258422851562 175 Z M 248.4258422851562 175 L 252.4258422851562 175 L 252.4258422851562 177 C 252.4258422851562 177 248.4258422851562 177 248.4258422851562 177 L 248.4258422851562 175 Z M 239.4258422851562 175 L 243.4258422851562 175 L 243.4258422851562 177 C 243.4258422851562 177 239.4258422851562 177 239.4258422851562 177 L 239.4258422851562 175 Z M 230.4258422851562 175 L 234.4258422851562 175 L 234.4258422851562 177 C 234.4258422851562 177 230.4258422851562 177 230.4258422851562 177 L 230.4258422851562 175 Z M 221.4258422851562 175 L 225.4258422851562 175 L 225.4258422851562 177 C 225.4258422851562 177 221.4258422851562 177 221.4258422851562 177 L 221.4258422851562 175 Z M 212.4258422851562 175 L 216.4258422851562 175 L 216.4258422851562 177 C 216.4258422851562 177 212.4258422851562 177 212.4258422851562 177 L 212.4258422851562 175 Z M 203.4258422851562 175 L 207.4258422851562 175 L 207.4258422851562 177 C 207.4258422851562 177 203.4258422851562 177 203.4258422851562 177 L 203.4258422851562 175 Z M 194.4258422851562 175 L 198.4258422851562 175 L 198.4258422851562 177 C 198.4258422851562 177 194.4258422851562 177 194.4258422851562 177 L 194.4258422851562 175 Z M 185.4258422851562 175 L 189.4258422851562 175 L 189.4258422851562 177 C 189.4258422851562 177 185.4258422851562 177 185.4258422851562 177 L 185.4258422851562 175 Z M 176.4258422851562 175 L 180.4258422851562 175 L 180.4258422851562 177 C 180.4258422851562 177 176.4258422851562 177 176.4258422851562 177 L 176.4258422851562 175 Z M 167.4258422851562 175 L 171.4258422851562 175 L 171.4258422851562 177 C 171.4258422851562 177 167.4258422851562 177 167.4258422851562 177 L 167.4258422851562 175 Z M 158.4258422851562 175 L 162.4258422851562 175 L 162.4258422851562 177 C 162.4258422851562 177 158.4258422851562 177 158.4258422851562 177 L 158.4258422851562 175 Z M 149.4258422851562 175 L 153.4258422851562 175 L 153.4258422851562 177 C 153.4258422851562 177 149.4258422851562 177 149.4258422851562 177 L 149.4258422851562 175 Z M 140.4258422851562 175 L 144.4258422851562 175 L 144.4258422851562 177 C 144.4258422851562 177 140.4258422851562 177 140.4258422851562 177 L 140.4258422851562 175 Z M 131.4258422851562 175 L 135.4258422851562 175 L 135.4258422851562 177 C 135.4258422851562 177 131.4258422851562 177 131.4258422851562 177 L 131.4258422851562 175 Z M 122.4258422851562 175 L 126.4258422851562 175 L 126.4258422851562 177 C 126.4258422851562 177 122.4258422851562 177 122.4258422851562 177 L 122.4258422851562 175 Z M 113.4258422851562 175 L 117.4258422851562 175 L 117.4258422851562 177 C 117.4258422851562 177 113.4258422851562 177 113.4258422851562 177 L 113.4258422851562 175 Z M 104.4258422851562 175 L 108.4258422851562 175 L 108.4258422851562 177 C 108.4258422851562 177 104.4258422851562 177 104.4258422851562 177 L 104.4258422851562 175 Z M 95.42584228515625 175 L 99.42584228515625 175 L 99.42584228515625 177 C 99.42584228515625 177 95.42584228515625 177 95.42584228515625 177 L 95.42584228515625 175 Z M 86.42584228515625 175 L 90.42584228515625 175 L 90.42584228515625 177 C 90.42584228515625 177 86.42584228515625 177 86.42584228515625 177 L 86.42584228515625 175 Z M 77.42584228515625 175 L 81.42584228515625 175 L 81.42584228515625 177 C 81.42584228515625 177 77.42584228515625 177 77.42584228515625 177 L 77.42584228515625 175 Z M 68.42584228515625 175 L 72.42584228515625 175 L 72.42584228515625 177 C 72.42584228515625 177 68.42584228515625 177 68.42584228515625 177 L 68.42584228515625 175 Z M 59.42584228515625 175 L 63.42584228515625 175 L 63.42584228515625 177 C 63.42584228515625 177 59.42584228515625 177 59.42584228515625 177 L 59.42584228515625 175 Z M 50.42584228515625 175 L 54.42584228515625 175 L 54.42584228515625 177 C 54.42584228515625 177 50.42584228515625 177 50.42584228515625 177 L 50.42584228515625 175 Z M 41.42584228515625 175 L 45.42584228515625 175 L 45.42584228515625 177 C 45.42584228515625 177 41.42584228515625 177 41.42584228515625 177 L 41.42584228515625 175 Z M 32.42584228515625 175 L 36.42584228515625 175 L 36.42584228515625 177 C 36.42584228515625 177 32.42584228515625 177 32.42584228515625 177 L 32.42584228515625 175 Z M 23.42584228515625 175 L 27.42584228515625 175 L 27.42584228515625 177 C 27.42584228515625 177 23.42584228515625 177 23.42584228515625 177 L 23.42584228515625 175 Z M 14.42584228515625 175 L 18.42584228515625 175 L 18.42584228515625 177 C 18.42584228515625 177 14.42584228515625 177 14.42584228515625 177 L 14.42584228515625 175 Z M 5.42584228515625 175 L 9.42584228515625 175 L 9.42584228515625 177 C 9.42584228515625 177 5.42584228515625 177 5.42584228515625 177 L 5.42584228515625 175 Z M 0 172.1387634277344 L 2 172.1387634277344 L 2 174 C 2 174.3079986572266 2.132080078125 174.5253143310547 2.242919921875 174.6533813476562 L 0.73046875 175.9620056152344 C 0.73040771484375 175.9619293212891 0.73040771484375 175.9619140625 0.7303466796875 175.9618530273438 C 0.7236328125 175.9541168212891 0.7169189453125 175.9462585449219 0.7103271484375 175.9384460449219 C 0.70989990234375 175.9379577636719 0.70947265625 175.9374847412109 0.70904541015625 175.9369812011719 C 0.707763671875 175.9354858398438 0.70654296875 175.9340057373047 0.70526123046875 175.9325103759766 C 0.70465087890625 175.9317932128906 0.7041015625 175.9311370849609 0.7034912109375 175.930419921875 C 0.702392578125 175.9290618896484 0.701171875 175.9276580810547 0.7000732421875 175.9262847900391 C 0.69940185546875 175.9255065917969 0.69866943359375 175.9246673583984 0.69805908203125 175.9238891601562 C 0.6968994140625 175.9225158691406 0.6956787109375 175.9210968017578 0.694580078125 175.9197235107422 C 0.69390869140625 175.9189300537109 0.69317626953125 175.9180755615234 0.6925048828125 175.9172821044922 C 0.69146728515625 175.9160461425781 0.69049072265625 175.9148101806641 0.689453125 175.9135589599609 C 0.6885986328125 175.9125518798828 0.68768310546875 175.9114532470703 0.68682861328125 175.9104461669922 C 0.68585205078125 175.9092254638672 0.68487548828125 175.9080657958984 0.68389892578125 175.9068450927734 C 0.6829833984375 175.90576171875 0.68206787109375 175.9046173095703 0.68115234375 175.9035339355469 C 0.68035888671875 175.9025421142578 0.6795654296875 175.9015655517578 0.6787109375 175.9005737304688 C 0.67755126953125 175.8991241455078 0.6763916015625 175.8977203369141 0.67523193359375 175.8962707519531 C 0.674560546875 175.8954772949219 0.67388916015625 175.8946533203125 0.6732177734375 175.8938751220703 C 0.6695556640625 175.8893585205078 0.66595458984375 175.8849182128906 0.66229248046875 175.8803863525391 C 0.6622314453125 175.8802947998047 0.66217041015625 175.8801879882812 0.66204833984375 175.8800811767578 C 0.6602783203125 175.8778228759766 0.65850830078125 175.8756713867188 0.65667724609375 175.8733978271484 C 0.6566162109375 175.873291015625 0.656494140625 175.8731689453125 0.65643310546875 175.8730621337891 C 0.6546630859375 175.8708648681641 0.65301513671875 175.8687744140625 0.6512451171875 175.8665618896484 C 0.6510009765625 175.8662414550781 0.65081787109375 175.8659973144531 0.6505126953125 175.8656616210938 C 0.64892578125 175.8636016845703 0.647216796875 175.8615112304688 0.6456298828125 175.8594512939453 C 0.64544677734375 175.8592529296875 0.645263671875 175.8590240478516 0.6451416015625 175.8588256835938 C 0.6435546875 175.8568267822266 0.64190673828125 175.8547821044922 0.640380859375 175.8527984619141 C 0.6400146484375 175.8523254394531 0.6396484375 175.8519134521484 0.6392822265625 175.8514404296875 C 0.63775634765625 175.8494415283203 0.63623046875 175.8475341796875 0.63470458984375 175.8455352783203 C 0.63446044921875 175.8452758789062 0.63421630859375 175.844970703125 0.634033203125 175.8446960449219 C 0.63232421875 175.8425598144531 0.630615234375 175.8403472900391 0.62896728515625 175.8381958007812 C 0.62890625 175.8381042480469 0.6287841796875 175.8379364013672 0.628662109375 175.8378295898438 C 0.3304443359375 175.4535217285156 0.12347412109375 174.9947204589844 0.04046630859375 174.4940948486328 C 0.04046630859375 174.4940490722656 0.04046630859375 174.4940338134766 0.04046630859375 174.4939880371094 C 0.036865234375 174.4723510742188 0.0335693359375 174.4507141113281 0.03045654296875 174.4289245605469 C 0.03045654296875 174.4288787841797 0.03045654296875 174.4288787841797 0.0303955078125 174.4288330078125 C 0.02996826171875 174.4258270263672 0.029541015625 174.4227752685547 0.02911376953125 174.4197540283203 C 0.02911376953125 174.4196319580078 0.02911376953125 174.4194183349609 0.029052734375 174.4192810058594 C 0.0286865234375 174.4163665771484 0.02825927734375 174.4133148193359 0.02783203125 174.4103851318359 C 0.02783203125 174.4102630615234 0.02783203125 174.4101409912109 0.02777099609375 174.4100036621094 C 0.02740478515625 174.4070739746094 0.0269775390625 174.4040832519531 0.026611328125 174.4011535644531 C 0.02655029296875 174.4009857177734 0.02655029296875 174.4008178710938 0.02655029296875 174.400634765625 C 0.0240478515625 174.3820953369141 0.021728515625 174.3634185791016 0.01959228515625 174.3447723388672 C 0.01953125 174.3443756103516 0.01953125 174.3440093994141 0.01947021484375 174.3435974121094 C 0.0191650390625 174.3409576416016 0.01885986328125 174.3383178710938 0.0185546875 174.3356628417969 C 0.01849365234375 174.3351287841797 0.0184326171875 174.3345336914062 0.01837158203125 174.3339996337891 C 0.01812744140625 174.3315582275391 0.017822265625 174.3290863037109 0.017578125 174.3266296386719 C 0.01751708984375 174.3258666992188 0.01739501953125 174.3251647949219 0.017333984375 174.3244018554688 C 0.01708984375 174.3220520019531 0.016845703125 174.3196258544922 0.0166015625 174.3172760009766 C 0.0164794921875 174.3166046142578 0.01641845703125 174.3159790039062 0.016357421875 174.3153076171875 C 0.01611328125 174.3129425048828 0.015869140625 174.3106994628906 0.015625 174.3083343505859 C 0.01556396484375 174.3074798583984 0.0155029296875 174.3066101074219 0.015380859375 174.3057708740234 C 0.01513671875 174.3033142089844 0.014892578125 174.3009490966797 0.0146484375 174.2984771728516 C 0.01458740234375 174.2979431152344 0.01458740234375 174.2974243164062 0.0145263671875 174.2968902587891 C 0.01422119140625 174.2941284179688 0.01397705078125 174.2913513183594 0.01373291015625 174.2885894775391 C 0.013671875 174.2882690429688 0.013671875 174.2879486083984 0.01361083984375 174.2876434326172 C 0.01300048828125 174.2814178466797 0.012451171875 174.2751007080078 0.01190185546875 174.2688751220703 C 0.01190185546875 174.2687835693359 0.0118408203125 174.2686920166016 0.0118408203125 174.2686004638672 C 0.0115966796875 174.2656402587891 0.0113525390625 174.2626495361328 0.0111083984375 174.2596740722656 C 0.01104736328125 174.2591400146484 0.010986328125 174.2586212158203 0.01092529296875 174.2580871582031 C 0.0107421875 174.2555999755859 0.010498046875 174.2530975341797 0.01031494140625 174.2506256103516 C 0.01025390625 174.2498168945312 0.01019287109375 174.2489929199219 0.0101318359375 174.2481842041016 C 0.00994873046875 174.2459106445312 0.009765625 174.2435760498047 0.00958251953125 174.2412872314453 C 0.009521484375 174.2404937744141 0.00946044921875 174.2396240234375 0.0093994140625 174.2388153076172 C 0.00921630859375 174.2366333007812 0.009033203125 174.2345886230469 0.00885009765625 174.2324066162109 C 0.0087890625 174.2313232421875 0.00872802734375 174.2302551269531 0.00860595703125 174.2291870117188 C 0.00848388671875 174.2270965576172 0.00830078125 174.2251434326172 0.0081787109375 174.2230529785156 C 0.00811767578125 174.2220611572266 0.00799560546875 174.2210845947266 0.0079345703125 174.2200927734375 C 0.0078125 174.2178192138672 0.00762939453125 174.215576171875 0.0074462890625 174.2132873535156 C 0.0074462890625 174.2125701904297 0.00738525390625 174.2118530273438 0.00732421875 174.2111206054688 C 0.00714111328125 174.2085418701172 0.0069580078125 174.2058715820312 0.00677490234375 174.2032928466797 C 0.00677490234375 174.2028350830078 0.0067138671875 174.2023468017578 0.0067138671875 174.2018890380859 C 0.00653076171875 174.1991119384766 0.00634765625 174.1963043212891 0.00616455078125 174.1935119628906 C 0.006103515625 174.1932067871094 0.006103515625 174.1928405761719 0.006103515625 174.1925201416016 C 0.00567626953125 174.1862487792969 0.00531005859375 174.1799774169922 0.00494384765625 174.1736907958984 C 0.00494384765625 174.1733245849609 0.0048828125 174.1729888916016 0.0048828125 174.1726226806641 C 0.0047607421875 174.169921875 0.00457763671875 174.1673278808594 0.00445556640625 174.1646270751953 C 0.00439453125 174.1637268066406 0.00433349609375 174.1627960205078 0.0042724609375 174.1618804931641 C 0.00421142578125 174.1597900390625 0.00408935546875 174.1576843261719 0.00396728515625 174.1555786132812 C 0.00390625 174.1544494628906 0.00384521484375 174.1533050537109 0.0037841796875 174.1521759033203 C 0.003662109375 174.1500854492188 0.00360107421875 174.1482238769531 0.00347900390625 174.1461334228516 C 0.00347900390625 174.1451263427734 0.00341796875 174.1441345214844 0.00335693359375 174.1431427001953 C 0.00323486328125 174.1411285400391 0.003173828125 174.1388854980469 0.0030517578125 174.1368865966797 C 0.0030517578125 174.1358032226562 0.00299072265625 174.1347503662109 0.0029296875 174.1336517333984 C 0.00286865234375 174.1316528320312 0.00274658203125 174.1296539306641 0.002685546875 174.1276550292969 C 0.00262451171875 174.1265563964844 0.0025634765625 174.1254272460938 0.00250244140625 174.1243438720703 C 0.00244140625 174.1223449707031 0.00238037109375 174.1204681396484 0.0023193359375 174.1184692382812 C 0.00225830078125 174.1172943115234 0.002197265625 174.1161346435547 0.00213623046875 174.1149597167969 C 0.0020751953125 174.1127471923828 0.00201416015625 174.1107482910156 0.001953125 174.1085510253906 C 0.00189208984375 174.1076354980469 0.00189208984375 174.1068267822266 0.0018310546875 174.1059112548828 C 0.00177001953125 174.1033020019531 0.00164794921875 174.1007080078125 0.0015869140625 174.0980987548828 C 0.0015869140625 174.0976104736328 0.00152587890625 174.0970611572266 0.00152587890625 174.0965576171875 C 0.00140380859375 174.0935516357422 0.0013427734375 174.0902709960938 0.001220703125 174.0872497558594 C 0.001220703125 174.086669921875 0.001220703125 174.0859527587891 0.001220703125 174.0853576660156 C 0.0010986328125 174.0829467773438 0.00103759765625 174.0805206298828 0.0009765625 174.0781097412109 C 0.0009765625 174.0770568847656 0.0009765625 174.0760040283203 0.00091552734375 174.0749664306641 C 0.0008544921875 174.0728454589844 0.00079345703125 174.0707550048828 0.00079345703125 174.0686492919922 C 0.000732421875 174.0676422119141 0.000732421875 174.0665740966797 0.000732421875 174.0655670166016 C 0.00067138671875 174.0635528564453 0.0006103515625 174.0615081787109 0.0006103515625 174.0594940185547 C 0.00054931640625 174.0583190917969 0.00054931640625 174.0570678710938 0.00048828125 174.0558776855469 C 0.00048828125 174.0539703369141 0.00042724609375 174.0522308349609 0.00042724609375 174.0503234863281 C 0.0003662109375 174.0489959716797 0.0003662109375 174.0476531982422 0.0003662109375 174.0463409423828 C 0.00030517578125 174.0446166992188 0.00030517578125 174.0428314208984 0.00030517578125 174.0411224365234 C 0.000244140625 174.0397491455078 0.000244140625 174.0384521484375 0.000244140625 174.0370941162109 C 0.00018310546875 174.0352783203125 0.00018310546875 174.0334320068359 0.00018310546875 174.0316162109375 C 0.00018310546875 174.0303802490234 0.0001220703125 174.0290985107422 0.0001220703125 174.0278625488281 C 0.0001220703125 174.0258483886719 0.0001220703125 174.0238647460938 6.103515625e-05 174.0218505859375 C 6.103515625e-05 174.0207977294922 6.103515625e-05 174.0197296142578 6.103515625e-05 174.0186920166016 C 6.103515625e-05 174.0161590576172 6.103515625e-05 174.0137329101562 0 174.0111999511719 C 0 174.0106201171875 0 174.0100555419922 0 174.0094604492188 C 0 174.0063323974609 0 174.0031280517578 0 174 C 0 174 0 174 0 174 L 0 172.1387634277344 Z M 0 163.1387634277344 L 2 163.1387634277344 L 2 167.1387634277344 L 0 167.1387634277344 L 0 163.1387634277344 Z M 0 154.1387634277344 L 2 154.1387634277344 L 2 158.1387634277344 L 0 158.1387634277344 L 0 154.1387634277344 Z M 0 145.1387634277344 L 2 145.1387634277344 L 2 149.1387634277344 L 0 149.1387634277344 L 0 145.1387634277344 Z M 0 136.1387634277344 L 2 136.1387634277344 L 2 140.1387634277344 L 0 140.1387634277344 L 0 136.1387634277344 Z M 0 127.1387710571289 L 2 127.1387710571289 L 2 131.1387634277344 L 0 131.1387634277344 L 0 127.1387710571289 Z M 0 118.1387710571289 L 2 118.1387710571289 L 2 122.1387710571289 L 0 122.1387710571289 L 0 118.1387710571289 Z M 0 109.1387710571289 L 2 109.1387710571289 L 2 113.1387710571289 L 0 113.1387710571289 L 0 109.1387710571289 Z M 0 100.1387710571289 L 2 100.1387710571289 L 2 104.1387710571289 L 0 104.1387710571289 L 0 100.1387710571289 Z M 0 91.13877105712891 L 2 91.13877105712891 L 2 95.13877105712891 L 0 95.13877105712891 L 0 91.13877105712891 Z M 0 82.13877105712891 L 2 82.13877105712891 L 2 86.13877105712891 L 0 86.13877105712891 L 0 82.13877105712891 Z M 0 73.13877105712891 L 2 73.13877105712891 L 2 77.13877105712891 L 0 77.13877105712891 L 0 73.13877105712891 Z M 0 64.13877105712891 L 2 64.13877105712891 L 2 68.13877105712891 L 0 68.13877105712891 L 0 64.13877105712891 Z M 0 55.13877105712891 L 2 55.13877105712891 L 2 59.13877105712891 L 0 59.13877105712891 L 0 55.13877105712891 Z M 0 46.13876342773438 L 2 46.13876342773438 L 2 50.13877105712891 L 0 50.13877105712891 L 0 46.13876342773438 Z M 0 37.13876342773438 L 2 37.13876342773438 L 2 41.13876342773438 L 0 41.13876342773438 L 0 37.13876342773438 Z M 0 28.13876342773438 L 2 28.13876342773438 L 2 32.13876342773438 L 0 32.13876342773438 L 0 28.13876342773438 Z M 0 19.13876342773438 L 2 19.13876342773438 L 2 23.13876342773438 L 0 23.13876342773438 L 0 19.13876342773438 Z M 0 10.13876342773438 L 2 10.13876342773438 L 2 14.13876342773438 L 0 14.13876342773438 L 0 10.13876342773438 Z M 0.5587158203125 1.255996704101562 L 2.1851806640625 2.419921875 C 2.1007080078125 2.537994384765625 2 2.734390258789062 2 3 L 2 5.138763427734375 L 0 5.138763427734375 L 0 3 C 0 3 0 3 0 3 C 0 2.995513916015625 0 2.99102783203125 6.103515625e-05 2.986541748046875 C 6.103515625e-05 2.985443115234375 6.103515625e-05 2.984405517578125 6.103515625e-05 2.983291625976562 C 6.103515625e-05 2.978851318359375 0.0001220703125 2.974502563476562 0.0001220703125 2.970062255859375 C 0.00018310546875 2.969467163085938 0.00018310546875 2.968765258789062 0.00018310546875 2.968154907226562 C 0.00018310546875 2.964111328125 0.000244140625 2.960098266601562 0.00030517578125 2.956069946289062 C 0.00030517578125 2.955154418945312 0.0003662109375 2.954254150390625 0.0003662109375 2.953353881835938 C 0.00042724609375 2.948959350585938 0.00048828125 2.944625854492188 0.0006103515625 2.940231323242188 C 0.0006103515625 2.939224243164062 0.0006103515625 2.938278198242188 0.00067138671875 2.937271118164062 C 0.000732421875 2.933319091796875 0.00079345703125 2.9293212890625 0.00091552734375 2.925369262695312 C 0.00091552734375 2.924774169921875 0.00091552734375 2.924102783203125 0.0009765625 2.923492431640625 C 0.0010986328125 2.919082641601562 0.00115966796875 2.914749145507812 0.0013427734375 2.910324096679688 C 0.0013427734375 2.909332275390625 0.00140380859375 2.908065795898438 0.00140380859375 2.907058715820312 C 0.00152587890625 2.902725219726562 0.001708984375 2.898406982421875 0.0018310546875 2.894073486328125 C 0.0018310546875 2.893966674804688 0.0018310546875 2.893722534179688 0.0018310546875 2.893630981445312 C 0.00201416015625 2.889251708984375 0.002197265625 2.884841918945312 0.0023193359375 2.880477905273438 C 0.00238037109375 2.879364013671875 0.00244140625 2.878128051757812 0.00250244140625 2.877029418945312 C 0.00262451171875 2.87274169921875 0.0028076171875 2.868362426757812 0.0030517578125 2.86407470703125 C 0.0030517578125 2.863372802734375 0.00311279296875 2.862716674804688 0.00311279296875 2.862014770507812 C 0.0032958984375 2.858078002929688 0.00347900390625 2.854202270507812 0.003662109375 2.85028076171875 C 0.00372314453125 2.849273681640625 0.0037841796875 2.848434448242188 0.00384521484375 2.847442626953125 C 0.0040283203125 2.843154907226562 0.0042724609375 2.838821411132812 0.0045166015625 2.834548950195312 C 0.00457763671875 2.833450317382812 0.00457763671875 2.83245849609375 0.004638671875 2.83135986328125 C 0.0048828125 2.827713012695312 0.00506591796875 2.824005126953125 0.00531005859375 2.820358276367188 C 0.00537109375 2.819366455078125 0.00537109375 2.818603515625 0.00543212890625 2.817596435546875 C 0.0057373046875 2.813385009765625 0.0059814453125 2.80908203125 0.0062255859375 2.804855346679688 C 0.00634765625 2.803665161132812 0.00640869140625 2.80267333984375 0.0064697265625 2.801483154296875 C 0.0067138671875 2.797454833984375 0.00701904296875 2.793487548828125 0.00726318359375 2.789474487304688 C 0.00732421875 2.78887939453125 0.00738525390625 2.788284301757812 0.00738525390625 2.787689208984375 C 0.0076904296875 2.783584594726562 0.00799560546875 2.779495239257812 0.00830078125 2.775405883789062 C 0.00836181640625 2.774124145507812 0.00848388671875 2.772994995117188 0.008544921875 2.771697998046875 C 0.00885009765625 2.767578125 0.00921630859375 2.763458251953125 0.009521484375 2.75933837890625 C 0.00958251953125 2.75823974609375 0.00970458984375 2.75726318359375 0.009765625 2.75616455078125 C 0.01007080078125 2.752670288085938 0.01031494140625 2.749160766601562 0.0106201171875 2.745651245117188 C 0.0107421875 2.744476318359375 0.01080322265625 2.743453979492188 0.01092529296875 2.742279052734375 C 0.01129150390625 2.738113403320312 0.01165771484375 2.733917236328125 0.01202392578125 2.729766845703125 C 0.0120849609375 2.728683471679688 0.01220703125 2.727523803710938 0.0123291015625 2.7264404296875 C 0.01263427734375 2.722869873046875 0.012939453125 2.719314575195312 0.0133056640625 2.715744018554688 C 0.01336669921875 2.714859008789062 0.01348876953125 2.7138671875 0.0135498046875 2.712982177734375 C 0.01397705078125 2.708831787109375 0.01434326171875 2.704681396484375 0.0147705078125 2.700531005859375 C 0.014892578125 2.699249267578125 0.0150146484375 2.698150634765625 0.01513671875 2.696868896484375 C 0.0155029296875 2.693008422851562 0.01593017578125 2.689132690429688 0.01629638671875 2.685256958007812 C 0.016357421875 2.6845703125 0.01641845703125 2.684005737304688 0.01654052734375 2.683319091796875 C 0.0169677734375 2.679290771484375 0.017333984375 2.67535400390625 0.017822265625 2.671340942382812 C 0.0179443359375 2.669967651367188 0.01812744140625 2.668594360351562 0.01824951171875 2.667221069335938 C 0.0186767578125 2.6632080078125 0.0191650390625 2.659194946289062 0.01959228515625 2.655181884765625 C 0.01971435546875 2.654098510742188 0.01983642578125 2.653060913085938 0.01995849609375 2.6519775390625 C 0.02032470703125 2.648788452148438 0.02069091796875 2.6456298828125 0.0211181640625 2.642440795898438 C 0.02130126953125 2.640869140625 0.02142333984375 2.63946533203125 0.0216064453125 2.637893676757812 C 0.0220947265625 2.634002685546875 0.0225830078125 2.630172729492188 0.0230712890625 2.626296997070312 C 0.023193359375 2.624923706054688 0.02337646484375 2.623611450195312 0.0235595703125 2.622238159179688 C 0.02392578125 2.619171142578125 0.02435302734375 2.616073608398438 0.02471923828125 2.613006591796875 C 0.02490234375 2.611648559570312 0.02508544921875 2.610244750976562 0.0252685546875 2.608871459960938 C 0.0257568359375 2.60504150390625 0.0262451171875 2.601211547851562 0.02679443359375 2.597381591796875 C 0.0269775390625 2.5958251953125 0.02716064453125 2.594406127929688 0.02740478515625 2.592849731445312 C 0.02783203125 2.589706420898438 0.02825927734375 2.586578369140625 0.0286865234375 2.58343505859375 C 0.0289306640625 2.581787109375 0.0291748046875 2.580123901367188 0.02935791015625 2.578475952148438 C 0.02984619140625 2.575180053710938 0.03033447265625 2.571823120117188 0.03082275390625 2.56854248046875 C 0.031005859375 2.566986083984375 0.03125 2.565353393554688 0.031494140625 2.563796997070312 C 0.03204345703125 2.560012817382812 0.0325927734375 2.556228637695312 0.03314208984375 2.552459716796875 C 0.03338623046875 2.551101684570312 0.0335693359375 2.5498046875 0.03375244140625 2.548446655273438 C 0.0341796875 2.545501708984375 0.03466796875 2.542587280273438 0.03509521484375 2.539657592773438 C 0.03533935546875 2.538101196289062 0.03558349609375 2.536468505859375 0.03582763671875 2.534912109375 C 0.036376953125 2.531265258789062 0.0369873046875 2.52764892578125 0.03753662109375 2.524002075195312 C 0.037841796875 2.522247314453125 0.0380859375 2.5205078125 0.03839111328125 2.518768310546875 C 0.038818359375 2.516143798828125 0.03924560546875 2.5135498046875 0.0396728515625 2.51092529296875 C 0.0399169921875 2.509384155273438 0.0401611328125 2.507843017578125 0.0404052734375 2.506301879882812 C 0.041015625 2.502655029296875 0.0416259765625 2.499008178710938 0.042236328125 2.495376586914062 C 0.04254150390625 2.493637084960938 0.0428466796875 2.4918212890625 0.04315185546875 2.490081787109375 C 0.04364013671875 2.487319946289062 0.04412841796875 2.48455810546875 0.04461669921875 2.481796264648438 C 0.044921875 2.479873657226562 0.0452880859375 2.4776611328125 0.045654296875 2.475738525390625 C 0.04620361328125 2.472763061523438 0.04669189453125 2.4697265625 0.0472412109375 2.466751098632812 C 0.04754638671875 2.465011596679688 0.04791259765625 2.463211059570312 0.0482177734375 2.461471557617188 C 0.048828125 2.458160400390625 0.0494384765625 2.454849243164062 0.050048828125 2.4515380859375 C 0.05035400390625 2.449722290039062 0.0506591796875 2.447998046875 0.051025390625 2.446182250976562 C 0.051513671875 2.44354248046875 0.052001953125 2.440902709960938 0.052490234375 2.438262939453125 C 0.0528564453125 2.436538696289062 0.05316162109375 2.434814453125 0.053466796875 2.433090209960938 C 0.05413818359375 2.429595947265625 0.05487060546875 2.426040649414062 0.0555419921875 2.42254638671875 C 0.055908203125 2.420730590820312 0.0562744140625 2.418853759765625 0.05657958984375 2.417037963867188 C 0.05706787109375 2.414718627929688 0.0574951171875 2.412399291992188 0.0579833984375 2.410079956054688 C 0.058349609375 2.40826416015625 0.0587158203125 2.406417846679688 0.05908203125 2.40460205078125 C 0.05975341796875 2.401123046875 0.06048583984375 2.397659301757812 0.06121826171875 2.394180297851562 C 0.06158447265625 2.39227294921875 0.06195068359375 2.390533447265625 0.06231689453125 2.388626098632812 C 0.06280517578125 2.386337280273438 0.06329345703125 2.384048461914062 0.06378173828125 2.38177490234375 C 0.06439208984375 2.37890625 0.06500244140625 2.375961303710938 0.06561279296875 2.37310791015625 C 0.06610107421875 2.370895385742188 0.06658935546875 2.36859130859375 0.0670166015625 2.36639404296875 C 0.06744384765625 2.364395141601562 0.06793212890625 2.362258911132812 0.068359375 2.360260009765625 C 0.06884765625 2.3580322265625 0.0693359375 2.3558349609375 0.06982421875 2.353607177734375 C 0.070556640625 2.350372314453125 0.07122802734375 2.347274780273438 0.07196044921875 2.34405517578125 C 0.07232666015625 2.34222412109375 0.07275390625 2.340408325195312 0.07318115234375 2.338592529296875 C 0.07366943359375 2.336318969726562 0.07415771484375 2.334197998046875 0.07464599609375 2.331924438476562 C 0.07537841796875 2.328842163085938 0.0760498046875 2.325759887695312 0.0767822265625 2.32269287109375 C 0.07733154296875 2.320327758789062 0.07781982421875 2.318069458007812 0.078369140625 2.315719604492188 C 0.0787353515625 2.314163208007812 0.07916259765625 2.31256103515625 0.07952880859375 2.311004638671875 C 0.0804443359375 2.30694580078125 0.0814208984375 2.302871704101562 0.0823974609375 2.298812866210938 C 0.08270263671875 2.297561645507812 0.0830078125 2.29632568359375 0.08331298828125 2.295059204101562 C 0.0838623046875 2.292617797851562 0.08447265625 2.290206909179688 0.0850830078125 2.287765502929688 C 0.08538818359375 2.28631591796875 0.0858154296875 2.2847900390625 0.08612060546875 2.283355712890625 C 0.087158203125 2.279312133789062 0.088134765625 2.275314331054688 0.089111328125 2.271286010742188 C 0.0894775390625 2.26995849609375 0.08978271484375 2.268722534179688 0.090087890625 2.26739501953125 C 0.09075927734375 2.264862060546875 0.09136962890625 2.262420654296875 0.09197998046875 2.259902954101562 C 0.09228515625 2.258651733398438 0.0926513671875 2.257308959960938 0.09295654296875 2.256057739257812 C 0.093994140625 2.252029418945312 0.094970703125 2.248153686523438 0.09600830078125 2.244140625 C 0.096435546875 2.242630004882812 0.0968017578125 2.2412109375 0.09716796875 2.239700317382812 C 0.0977783203125 2.23736572265625 0.09844970703125 2.234786987304688 0.09906005859375 2.232452392578125 C 0.09930419921875 2.231719970703125 0.0994873046875 2.230926513671875 0.09967041015625 2.230178833007812 C 0.10089111328125 2.225616455078125 0.1021728515625 2.220916748046875 0.1033935546875 2.216354370117188 C 0.103759765625 2.215042114257812 0.10406494140625 2.213760375976562 0.10443115234375 2.212448120117188 C 0.1058349609375 2.207229614257812 0.1072998046875 2.202041625976562 0.10870361328125 2.19683837890625 C 0.1087646484375 2.196731567382812 0.1087646484375 2.196609497070312 0.10882568359375 2.196502685546875 C 0.10955810546875 2.193817138671875 0.11029052734375 2.191238403320312 0.11102294921875 2.188552856445312 C 0.11126708984375 2.187667846679688 0.11151123046875 2.186782836914062 0.11175537109375 2.1859130859375 C 0.1131591796875 2.18109130859375 0.114501953125 2.176177978515625 0.11590576171875 2.171356201171875 C 0.1160888671875 2.170669555664062 0.11627197265625 2.170074462890625 0.116455078125 2.169387817382812 C 0.11724853515625 2.166793823242188 0.1180419921875 2.163986206054688 0.1187744140625 2.161392211914062 C 0.11895751953125 2.16070556640625 0.11920166015625 2.15997314453125 0.119384765625 2.159286499023438 C 0.12078857421875 2.15447998046875 0.1221923828125 2.149642944335938 0.1236572265625 2.144851684570312 C 0.1239013671875 2.14398193359375 0.1241455078125 2.143142700195312 0.1243896484375 2.14227294921875 C 0.1268310546875 2.134078979492188 0.12933349609375 2.125900268554688 0.1318359375 2.117721557617188 C 0.132080078125 2.11700439453125 0.13226318359375 2.1163330078125 0.13250732421875 2.115615844726562 C 0.13507080078125 2.107254028320312 0.1376953125 2.098907470703125 0.14031982421875 2.090576171875 C 0.140380859375 2.090316772460938 0.1405029296875 2.090087890625 0.14056396484375 2.089828491210938 C 0.1451416015625 2.07537841796875 0.14990234375 2.060897827148438 0.1546630859375 2.046539306640625 C 0.1546630859375 2.046539306640625 0.15472412109375 2.046524047851562 0.15472412109375 2.046524047851562 C 0.25018310546875 1.76153564453125 0.38720703125 1.495635986328125 0.5587158203125 1.256011962890625 Z" stroke="none" fill="#fff"/>
  </g>
  <text id="Drag_file_here_or_click_to_add" data-name="Drag file here or click to add" transform="translate(296 162)" fill="#919191" font-size="12" font-family="Montserrat-SemiBold, Montserrat" font-weight="600"><tspan x="-87.966" y="0">Drag file here or click to add</tspan></text>
  <g id="Group_34553" data-name="Group 34553" transform="translate(-555.001 -306.664)">
    <circle id="Ellipse_3223" data-name="Ellipse 3223" cx="9.317" cy="9.317" r="9.317" transform="translate(817.555 423.225) rotate(-45)" fill="#b7b7b7" opacity="0.2" style="mix-blend-mode: multiply;isolation: isolate"/>
    <g id="Bcg" transform="translate(803.585 330.209)">
      <path id="Path_12272" data-name="Path 12272" d="M667.89,682.954c.385-5.662,2-29.41,19.882-40.832,20.465-13.072,51.471-3.125,66.986,16.68,9.453,12.067,16.641,32.242,8.807,49.372C750.243,737.3,700.015,743.35,679.1,722.185,666.115,709.047,667.509,688.547,667.89,682.954Z" transform="translate(-667.653 -636.21)" fill="#fff"/>
      <circle id="Ellipse_3224" data-name="Ellipse 3224" cx="3.864" cy="3.864" r="3.864" transform="translate(57.85 1.788)" fill="#5673aa"/>
      <circle id="Ellipse_3225" data-name="Ellipse 3225" cx="2.229" cy="2.229" r="2.229" transform="translate(68.273 100.832) rotate(-45)" fill="#5673aa"/>
    </g>
    <g id="Lock" transform="translate(820.73 412.714)">
      <circle id="Ellipse_3226" data-name="Ellipse 3226" cx="9.317" cy="9.317" r="9.317" fill="#24c1a1"/>
      <g id="Group_32972" data-name="Group 32972" transform="translate(3.633 3.802)">
        <path id="Path_12292" data-name="Path 12292" d="M1252.331,3107.235l-1.8,1.7a4.13,4.13,0,0,0-.172,5.821l.333.353a4.129,4.129,0,0,0,5.82.172l1.8-1.7a.953.953,0,0,0,.04-1.347l-4.674-4.958A.953.953,0,0,0,1252.331,3107.235Z" transform="translate(-1249.242 -3105.013)" fill="#fff"/>
        <path id="Path_12293" data-name="Path 12293" d="M1389.556,3054.881l1.209-1.14a2.079,2.079,0,0,1,2.852,3.025l-1.209,1.14.785.833,1.209-1.14a3.224,3.224,0,1,0-4.422-4.692l-1.209,1.139Z" transform="translate(-1383.785 -3052.032)" fill="#fff"/>
        <path id="Path_12294" data-name="Path 12294" d="M1341.318,3210.6a.973.973,0,1,0-1.58-.368l-.606.572a.379.379,0,0,0,.519.551l.607-.572A.974.974,0,0,0,1341.318,3210.6Z" transform="translate(-1335.805 -3203.311)" fill="#52d1bd"/>
      </g>
    </g>
    <g id="Blue" transform="translate(841.563 351.249)">
      <path id="Path_12273" data-name="Path 12273" d="M1879.458,1381.369a1.824,1.824,0,0,1-.2-.011l-44.955-5.027a1.825,1.825,0,0,1-1.607-2.012l6.617-59.176a1.825,1.825,0,0,1,2.011-1.607l44.955,5.027a1.825,1.825,0,0,1,1.607,2.012l-6.618,59.176a1.826,1.826,0,0,1-1.807,1.618Zm-38.34-67.406a1.388,1.388,0,0,0-1.373,1.228l-6.618,59.176a1.387,1.387,0,0,0,1.22,1.527l44.955,5.027a1.387,1.387,0,0,0,1.527-1.22l6.617-59.176a1.387,1.387,0,0,0-1.22-1.527l-44.955-5.027A1.367,1.367,0,0,0,1841.118,1313.963Z" transform="translate(-1829.036 -1310.367)" fill="#344566"/>
      <g id="Group_32970" data-name="Group 32970" transform="translate(0)">
        <path id="Path_12274" data-name="Path 12274" d="M1775.386,1297.875l-43.54-12.267a1.606,1.606,0,0,1-1.107-1.975l16.147-57.314a1.606,1.606,0,0,1,1.975-1.107l43.54,12.267a1.606,1.606,0,0,1,1.107,1.975l-16.147,57.314A1.606,1.606,0,0,1,1775.386,1297.875Z" transform="translate(-1730.679 -1225.152)" fill="#5673aa"/>
        <path id="Path_12275" data-name="Path 12275" d="M2465.92,1560.317l-21.138-5.955a1.188,1.188,0,0,1-.819-1.461h0a1.188,1.188,0,0,1,1.461-.819l21.138,5.955a1.188,1.188,0,0,1,.819,1.461h0A1.188,1.188,0,0,1,2465.92,1560.317Z" transform="translate(-2418.437 -1540.358)" fill="#b3cef6"/>
        <path id="Path_12276" data-name="Path 12276" d="M2255.635,1701.357l-33.3-9.381a1.188,1.188,0,0,1-.819-1.461h0a1.188,1.188,0,0,1,1.461-.819l33.3,9.381a1.188,1.188,0,0,1,.819,1.461h0A1.188,1.188,0,0,1,2255.635,1701.357Z" transform="translate(-2203.941 -1673.057)" fill="#344566"/>
        <path id="Path_12277" data-name="Path 12277" d="M2214.239,1848.29l-33.3-9.381a1.188,1.188,0,0,1-.819-1.461h0a1.188,1.188,0,0,1,1.461-.819l33.3,9.381a1.188,1.188,0,0,1,.819,1.461h0A1.188,1.188,0,0,1,2214.239,1848.29Z" transform="translate(-2164.023 -1814.741)" fill="#344566"/>
        <path id="Path_12278" data-name="Path 12278" d="M2172.842,1995.224l-33.3-9.381a1.188,1.188,0,0,1-.819-1.461h0a1.188,1.188,0,0,1,1.461-.819l33.3,9.381a1.188,1.188,0,0,1,.819,1.461h0A1.188,1.188,0,0,1,2172.842,1995.224Z" transform="translate(-2124.105 -1956.425)" fill="#344566"/>
        <path id="Path_12279" data-name="Path 12279" d="M2131.445,2142.157l-33.3-9.381a1.188,1.188,0,0,1-.819-1.461h0a1.188,1.188,0,0,1,1.461-.819l33.3,9.381a1.188,1.188,0,0,1,.819,1.461h0A1.188,1.188,0,0,1,2131.445,2142.157Z" transform="translate(-2084.188 -2098.109)" fill="#344566"/>
        <path id="Path_12280" data-name="Path 12280" d="M2090.049,2289.091l-33.3-9.381a1.188,1.188,0,0,1-.819-1.461h0a1.188,1.188,0,0,1,1.461-.819l33.3,9.381a1.188,1.188,0,0,1,.819,1.461h0A1.188,1.188,0,0,1,2090.049,2289.091Z" transform="translate(-2044.27 -2239.793)" fill="#344566"/>
        <path id="Path_12281" data-name="Path 12281" d="M2048.652,2436.024l-33.3-9.381a1.188,1.188,0,0,1-.819-1.461h0a1.188,1.188,0,0,1,1.461-.819l33.3,9.381a1.188,1.188,0,0,1,.819,1.461h0A1.188,1.188,0,0,1,2048.652,2436.024Z" transform="translate(-2004.352 -2381.477)" fill="#344566"/>
        <path id="Path_12282" data-name="Path 12282" d="M2007.255,2582.958l-33.3-9.381a1.188,1.188,0,0,1-.819-1.461h0a1.188,1.188,0,0,1,1.461-.819l33.3,9.381a1.188,1.188,0,0,1,.819,1.461h0A1.188,1.188,0,0,1,2007.255,2582.958Z" transform="translate(-1964.434 -2523.162)" fill="#b3cef6"/>
        <path id="Path_12283" data-name="Path 12283" d="M1965.859,2729.891l-33.3-9.381a1.188,1.188,0,0,1-.819-1.461h0a1.188,1.188,0,0,1,1.461-.819l33.3,9.381a1.188,1.188,0,0,1,.819,1.461h0A1.188,1.188,0,0,1,1965.859,2729.891Z" transform="translate(-1924.517 -2664.845)" fill="#344566"/>
      </g>
    </g>
    <g id="Yellow" transform="translate(799 333.736)">
      <path id="Path_12274-2" data-name="Path 12274" d="M564.986,811.6h-.007c-.066,0-.125,0-.18-.007l-.024,0h-.008c-.05,0-.1-.012-.153-.021l-.011,0-.041-.007c-.055-.011-.11-.024-.163-.039l-.046-.014-.01,0c-.043-.013-.086-.028-.128-.043h0l-.058-.022c-.043-.018-.086-.037-.131-.059l-.065-.033c-.051-.027-.094-.052-.134-.076l-.058-.038-.017-.012c-.028-.019-.057-.039-.084-.059l-.066-.052c-.029-.024-.059-.049-.092-.079l-.012-.011-.038-.035c-.048-.046-.09-.091-.13-.137l-.017-.021,0,0c-.034-.041-.069-.085-.1-.13l-.033-.047,0,0c-.027-.039-.053-.081-.077-.123l-.007-.012-.023-.04c-.036-.065-.065-.124-.09-.182l-.136-.312L539.494,756.33c-.027-.062-.051-.127-.075-.2-.005-.015-.009-.03-.013-.046l-.005-.018c-.012-.041-.025-.088-.036-.137,0-.02-.008-.039-.012-.059l0-.017c-.009-.049-.016-.09-.02-.128s-.006-.053-.008-.079c0-.042-.006-.084-.007-.125s0-.053,0-.079,0-.078,0-.124v-.014c0-.022,0-.043,0-.065,0-.044.011-.086.017-.122l0-.02c0-.019.006-.038.009-.056.008-.039.017-.075.025-.109l0-.009a2.184,2.184,0,0,1,.093-.289l.014-.031,0-.009c.026-.061.051-.114.077-.163l.024-.042.009-.016c.029-.052.056-.094.083-.135.013-.019.027-.039.041-.058l0-.005c.03-.042.06-.081.091-.118l.054-.063c.03-.034.063-.068.1-.1l.005-.005.057-.054c.041-.036.082-.07.114-.095l.016-.013.05-.039c.046-.033.092-.062.134-.088l.017-.011.046-.029a2.175,2.175,0,0,1,.213-.107l42.109-18.324a2.179,2.179,0,0,1,.224-.083l.052-.014.02-.005c.046-.013.1-.027.155-.038l.065-.011.021,0c.045-.007.093-.014.144-.019l.077,0h.011c.052,0,.1,0,.142,0l.087,0c.045,0,.092.007.142.013h0l.078.011c.045.007.091.017.147.03l.018,0,.054.013c.05.013.1.03.163.052l.013,0,.036.013a2.169,2.169,0,0,1,.28.132l.012.007c.028.015.057.031.087.05l.046.031.017.011c.033.022.068.046.1.074l.05.04.008.007c.036.03.068.057.1.084l.054.052c.03.03.06.061.089.094l.05.058c.026.031.051.064.081.1l.01.014.034.047c.028.04.053.082.076.12l.01.016.025.041c.037.066.067.128.094.19l23.48,53.957c.025.057.048.117.071.189l.013.043,0,.014c.014.046.026.093.037.14l0,.01c0,.017.008.033.011.05.011.054.019.109.026.163v.006c0,.008,0,.017,0,.025.007.062.01.123.011.19,0,.016,0,.033,0,.051v.017c0,.044,0,.083,0,.12s0,.056-.007.084-.008.067-.014.1a2.209,2.209,0,0,1-.074.323l-.012.036,0,.015c-.021.061-.044.12-.069.177-.008.019-.017.039-.026.059h0c-.027.056-.056.112-.091.171l-.007.012-.018.032a2.171,2.171,0,0,1-.141.2l-.015.018c-.044.055-.093.109-.145.162l-.041.039-.014.013c-.042.04-.086.078-.128.113l-.068.053c-.043.032-.09.064-.143.1l-.017.011-.049.03a2.189,2.189,0,0,1-.226.116l-42.109,18.324c-.056.024-.117.047-.187.071l-.006,0-.034.011c-.062.019-.124.036-.184.049l-.024,0-.01,0c-.059.012-.115.021-.17.027h-.007l-.023,0c-.058.006-.117.01-.183.011Zm18.629-76.219-.088,0h-.011l-.059,0c-.038,0-.078.009-.115.015l-.024,0-.044.007c-.041.008-.085.02-.124.031l-.031.008-.027.007a1.755,1.755,0,0,0-.18.066L540.8,753.852a1.777,1.777,0,0,0-.171.086l-.024.015-.026.017c-.036.022-.074.046-.108.07l-.034.026-.02.016c-.028.022-.06.048-.091.075l-.045.042-.005,0c-.03.03-.057.057-.081.084l-.043.05c-.024.029-.048.06-.073.094l0,.006-.031.045c-.021.031-.042.066-.066.108l-.012.02-.015.026c-.02.038-.04.08-.061.13l-.01.023,0,.01a1.734,1.734,0,0,0-.074.232l0,.01c-.008.03-.015.058-.02.085,0,.012,0,.024-.006.036l0,.026c0,.03-.01.065-.013.1,0,.016,0,.031,0,.047v.015c0,.038,0,.07,0,.1s0,.042,0,.063,0,.066.006.1,0,.042.007.064.009.061.016.1l0,.019c0,.014,0,.028.008.042.008.036.019.074.029.109l.007.027c0,.008,0,.017.007.025.019.058.038.11.06.159l23.48,53.957c.02.045.043.092.072.145l.016.028.008.014c.02.034.041.067.062.1l0,0,.025.037c.026.036.053.071.081.1l.013.017,0,0c.03.035.064.071.1.108l.025.023.015.013c.026.024.05.044.073.063l.053.041.067.047.019.013.041.027c.031.019.066.039.107.061l.052.026c.037.018.071.033.1.047l.046.018c.036.014.071.025.105.036l.011,0,.035.01c.043.012.087.022.131.031l.028,0,.013,0c.042.007.083.013.123.017l.017,0h.009c.042,0,.089.005.143.005h.038c.053,0,.1,0,.146-.009l.024,0c.044-.005.089-.013.136-.022l.028-.005c.048-.01.1-.023.147-.039l.026-.008.006,0c.058-.019.106-.037.15-.057l42.109-18.324a1.764,1.764,0,0,0,.181-.093l.031-.019.022-.014c.044-.027.081-.053.115-.078l.053-.042c.034-.028.068-.057.1-.09l.017-.016.026-.025a1.715,1.715,0,0,0,.118-.132l.013-.015a1.741,1.741,0,0,0,.11-.158l.008-.014.012-.021c.028-.047.052-.092.073-.136h0c.007-.016.014-.031.021-.047.02-.046.039-.093.055-.141l.006-.018.008-.023a1.775,1.775,0,0,0,.06-.259c0-.027.008-.053.011-.08s0-.045.006-.067,0-.061,0-.1v-.02c0-.011,0-.022,0-.033,0-.054,0-.1-.009-.151v0l0-.02c-.005-.043-.012-.087-.021-.13,0-.013-.005-.025-.008-.037l0-.011c-.008-.037-.018-.075-.03-.112l0-.016-.009-.03c-.019-.059-.037-.107-.057-.152l-23.48-53.957c-.021-.049-.046-.1-.076-.152l-.013-.022-.014-.023c-.022-.037-.041-.068-.06-.1l-.024-.034-.012-.016c-.024-.033-.045-.059-.064-.083l-.041-.046c-.023-.026-.047-.051-.071-.074l-.044-.042c-.022-.021-.047-.042-.078-.067l-.01-.008-.037-.03c-.026-.02-.055-.04-.083-.058l-.022-.015-.029-.019c-.021-.013-.044-.025-.066-.038l-.013-.007a1.752,1.752,0,0,0-.225-.106l-.014,0-.025-.008c-.051-.018-.092-.031-.131-.042l-.035-.008-.022-.005c-.046-.011-.083-.018-.118-.024l-.061-.008h0c-.04,0-.077-.008-.113-.01l-.07,0Z" transform="translate(-539.313 -734.945)" fill="#344566"/>
      <path id="Path_12275-2" data-name="Path 12275" d="M690.746,900.8l.032-.049q.046-.072.086-.147c.008-.014.016-.029.023-.043a1.978,1.978,0,0,0,.112-.277c.009-.029.018-.058.026-.087s.013-.049.018-.073.015-.07.021-.106c0-.02.007-.04.01-.06.008-.056.014-.112.017-.169,0-.009,0-.019,0-.028q0-.074,0-.149c0-.018,0-.037,0-.055q0-.065-.013-.13c0-.018,0-.035-.007-.053-.01-.06-.021-.119-.037-.179l-.085-.328h0l-14.467-55.938h0l-.182-.7c-.016-.062-.035-.123-.057-.182-.007-.019-.015-.037-.023-.056-.016-.04-.032-.08-.05-.118-.01-.021-.021-.04-.031-.06-.018-.035-.037-.07-.057-.1l-.037-.058c-.021-.033-.043-.064-.066-.1l-.041-.054c-.024-.031-.049-.06-.075-.089l-.045-.049c-.027-.028-.054-.054-.082-.08s-.033-.031-.05-.046-.053-.043-.08-.064a1.976,1.976,0,0,0-.231-.157l-.041-.022c-.045-.025-.091-.048-.138-.069l-.062-.025c-.042-.017-.084-.033-.127-.047l-.072-.022c-.041-.012-.083-.023-.125-.032l-.077-.015c-.042-.007-.084-.013-.127-.018l-.079-.008c-.043,0-.087,0-.131,0h-.077c-.047,0-.1.007-.143.012l-.067.007a2.011,2.011,0,0,0-.211.042l-44.461,11.5a2,2,0,0,0-.2.065c-.021.008-.041.018-.061.026-.045.019-.089.038-.132.059l-.067.037c-.039.022-.077.044-.114.068l-.064.044c-.036.025-.071.051-.1.079l-.057.048c-.034.03-.066.06-.1.092l-.049.05c-.032.035-.063.071-.092.108-.013.016-.026.031-.038.047-.033.043-.063.088-.091.134l-.022.033a1.981,1.981,0,0,0-.124.245c-.014.033-.029.066-.041.1s-.015.045-.022.067-.023.07-.032.106-.011.046-.016.069-.016.072-.022.109-.007.047-.01.071-.008.074-.011.112,0,.047,0,.071,0,.077,0,.116c0,.023,0,.046,0,.069,0,.042.008.084.013.127,0,.02,0,.04.007.06.01.062.022.125.038.187l.182.705h0l14.466,55.935h0l.085.33c.015.06.034.117.055.174.006.017.013.033.019.05q.024.061.051.12l.024.05c.023.045.046.088.072.13l.014.025c.03.048.063.095.1.14.012.016.025.032.038.048s.046.056.07.083l.051.055c.021.022.044.043.066.064s.04.038.06.056.071.058.107.086l.054.039c.035.025.071.048.107.07l.053.031q.052.03.107.056l.048.023q.069.031.14.057l.044.015q.065.022.132.04l.029.008c.052.013.105.023.158.031l.042.006c.054.008.109.013.164.016h.028q.076,0,.154,0h.032c.056,0,.113-.009.17-.017l.037-.006c.059-.01.118-.021.177-.036l44.461-11.5a1.982,1.982,0,0,0,.217-.071l.065-.028c.048-.021.1-.043.141-.067l.067-.037c.045-.026.088-.053.13-.082l.056-.039a1.971,1.971,0,0,0,.154-.126l.013-.011a1.945,1.945,0,0,0,.153-.159l.029-.036C690.679,900.9,690.714,900.852,690.746,900.8Z" transform="translate(-624.793 -836.973)" fill="#6c6c6c" opacity="0.2" style="mix-blend-mode: multiply;isolation: isolate"/>
      <g id="Group_32971" data-name="Group 32971" transform="translate(3.416 2.124)">
        <path id="Path_12286" data-name="Path 12286" d="M683.268,795.884,698,852.854a1.972,1.972,0,0,1-1.414,2.4l-44.461,11.5a1.971,1.971,0,0,1-2.4-1.414l-14.734-56.97a1.97,1.97,0,0,1,1.414-2.4l44.461-11.5a1.97,1.97,0,0,1,2.4,1.414Z" transform="translate(-634.93 -794.407)" fill="#ffc06e"/>
        <path id="Path_12287" data-name="Path 12287" d="M683.269,795.881l.182.7-2.2,6.836L660.9,808.956l-20.489,5.029-5.233-4.914-.182-.705a1.969,1.969,0,0,1,1.414-2.4l44.461-11.5A1.969,1.969,0,0,1,683.269,795.881Z" transform="translate(-634.931 -794.405)" fill="#d89444"/>
        <path id="Path_12288" data-name="Path 12288" d="M1094.994,2327.268l.085.328a1.97,1.97,0,0,1-1.414,2.4l-44.461,11.5a1.97,1.97,0,0,1-2.4-1.414l-.085-.329,1.525-4.47a1.23,1.23,0,0,1,.841-.777l41.295-10.68a1.238,1.238,0,0,1,1.114.272Z" transform="translate(-1032.007 -2269.149)" fill="#d89444"/>
        <path id="Path_12289" data-name="Path 12289" d="M1113.968,2328.861a1.965,1.965,0,0,1-1.356,1.231l-44.461,11.5a1.966,1.966,0,0,1-1.783-.419l.928-5.764a1,1,0,0,1,.735-.808l41.295-10.68a1,1,0,0,1,1.036.35Z" transform="translate(-1050.954 -2269.245)" fill="#ffad43"/>
        <path id="Path_12290" data-name="Path 12290" d="M687.559,794.78,686.33,803.3a.6.6,0,0,1-.446.5L646,814.116a.6.6,0,0,1-.633-.219l-5.207-6.857a1.966,1.966,0,0,1,1.29-1.071l44.461-11.5A1.965,1.965,0,0,1,687.559,794.78Z" transform="translate(-639.975 -794.407)" fill="#ffad43"/>
        <path id="Path_12291" data-name="Path 12291" d="M1273.416,1052.546a1.871,1.871,0,0,1-1.809-1.4l-3.923-15.171a1.873,1.873,0,0,1,1.341-2.276l.908-.235a1.87,1.87,0,0,1,2.276,1.341l3.923,15.171a1.873,1.873,0,0,1-1.341,2.276h0l-.908.235A1.865,1.865,0,0,1,1273.416,1052.546Zm-3.016-18.609a1.334,1.334,0,0,0-.334.043l-.908.235a1.339,1.339,0,0,0-.958,1.626l3.923,15.171a1.336,1.336,0,0,0,1.626.958l.908-.235a1.339,1.339,0,0,0,.958-1.626l-3.923-15.171A1.337,1.337,0,0,0,1270.4,1033.938Z" transform="translate(-1245.02 -1024.865)" fill="#444"/>
        <circle id="Ellipse_3223-2" data-name="Ellipse 3223" cx="2.609" cy="2.609" r="2.609" transform="translate(21.333 10.897) rotate(-45)" fill="#fff"/>
        <circle id="Ellipse_3224-2" data-name="Ellipse 3224" cx="2.609" cy="2.609" r="2.609" transform="translate(26.244 23.102)" fill="#fff"/>
      </g>
    </g>
    <g id="Whitepaper" transform="translate(836.595 348.313)">
      <path id="Path_12276-2" data-name="Path 12276" d="M1676.971,1177.591l-36.524-3.807a2.6,2.6,0,0,0-2.86,2.32l-5.969,57.265a2.6,2.6,0,0,0,2.32,2.86l44.414,4.629a2.6,2.6,0,0,0,2.86-2.32l5.146-49.376Z" transform="translate(-1630.175 -1172.669)" fill="#6c6c6c" opacity="0.25" style="mix-blend-mode: multiply;isolation: isolate"/>
      <g id="Group_32973" data-name="Group 32973">
        <path id="Path_12296" data-name="Path 12296" d="M1636.983,1146.785l-36.524-3.807a2.6,2.6,0,0,0-2.86,2.32l-5.969,57.265a2.6,2.6,0,0,0,2.32,2.86l44.414,4.629a2.6,2.6,0,0,0,2.86-2.32l5.146-49.376Z" transform="translate(-1591.615 -1142.964)" fill="#fff"/>
        <path id="Path_12297" data-name="Path 12297" d="M2838.078,1257.807a2.6,2.6,0,0,0,2.32,2.86l7.889.822-9.387-11.572Z" transform="translate(-2793.532 -1246.097)" fill="#ededed"/>
        <path id="Path_12298" data-name="Path 12298" d="M2891.991,1548.7l8.159,2.226.138-1.328Z" transform="translate(-2845.534 -1534.2)" fill="#cecece"/>
        <path id="Path_12299" data-name="Path 12299" d="M2106.964,1472.344l-22.335-2.328a1.1,1.1,0,0,1-.981-1.209h0a1.1,1.1,0,0,1,1.209-.981l22.336,2.328a1.1,1.1,0,0,1,.981,1.209h0A1.1,1.1,0,0,1,2106.964,1472.344Z" transform="translate(-2066.063 -1456.215)" fill="#24c1a1"/>
        <path id="Path_12300" data-name="Path 12300" d="M1895.692,1660.617l-36.925-3.849a1.1,1.1,0,0,1-.981-1.209h0a1.1,1.1,0,0,1,1.209-.981l36.925,3.849a1.1,1.1,0,0,1,.981,1.209h0A1.1,1.1,0,0,1,1895.692,1660.617Z" transform="translate(-1848.272 -1636.295)" fill="#eee"/>
        <path id="Path_12301" data-name="Path 12301" d="M1879.43,1816.641l-36.925-3.849a1.1,1.1,0,0,1-.981-1.209h0a1.1,1.1,0,0,1,1.209-.981l36.925,3.849a1.1,1.1,0,0,1,.981,1.209h0A1.1,1.1,0,0,1,1879.43,1816.641Z" transform="translate(-1832.591 -1786.744)" fill="#eee"/>
        <path id="Path_12302" data-name="Path 12302" d="M1863.168,1972.666l-36.925-3.849a1.1,1.1,0,0,1-.981-1.209h0a1.1,1.1,0,0,1,1.209-.981l36.925,3.849a1.1,1.1,0,0,1,.981,1.209h0A1.1,1.1,0,0,1,1863.168,1972.666Z" transform="translate(-1816.909 -1937.195)" fill="#eee"/>
        <path id="Path_12303" data-name="Path 12303" d="M1846.906,2128.69l-36.925-3.848a1.1,1.1,0,0,1-.981-1.209h0a1.1,1.1,0,0,1,1.209-.981l36.925,3.849a1.1,1.1,0,0,1,.981,1.209h0A1.1,1.1,0,0,1,1846.906,2128.69Z" transform="translate(-1801.229 -2087.645)" fill="#eee"/>
        <path id="Path_12304" data-name="Path 12304" d="M1830.643,2284.714l-36.925-3.849a1.1,1.1,0,0,1-.981-1.209h0a1.1,1.1,0,0,1,1.209-.981l36.925,3.849a1.1,1.1,0,0,1,.981,1.209h0A1.1,1.1,0,0,1,1830.643,2284.714Z" transform="translate(-1785.546 -2238.095)" fill="#eee"/>
        <path id="Path_12305" data-name="Path 12305" d="M1814.381,2440.739l-36.925-3.849a1.1,1.1,0,0,1-.981-1.209h0a1.1,1.1,0,0,1,1.209-.981l36.925,3.849a1.1,1.1,0,0,1,.981,1.209h0A1.1,1.1,0,0,1,1814.381,2440.739Z" transform="translate(-1769.865 -2388.546)" fill="#eee"/>
        <path id="Path_12306" data-name="Path 12306" d="M2282.653,2672.407a.211.211,0,0,0-.346-.166,3.5,3.5,0,0,1-.629.433l-.33.131q-.328.172-.366-.274a.208.208,0,0,0-.277-.309,1.4,1.4,0,0,1-.952.445,1.165,1.165,0,0,1-.332-.113,1.4,1.4,0,0,0,.206-.194.211.211,0,0,0,.012-.209,2.621,2.621,0,0,0-.228-.431,7.9,7.9,0,0,0,1.935-3.042.209.209,0,0,0-.335-.221,6.49,6.49,0,0,0-1.886,2.1,1.527,1.527,0,0,0-.235.957,1.03,1.03,0,0,0,.028.1,6.646,6.646,0,0,1-.641.533,3.447,3.447,0,0,1-.981.509c-.255.08-.639.2-.815-.045.58-.325,1.048-.785.8-1.359-.375-.863-1.271.439-1.318,1.166a4.763,4.763,0,0,1-.882.3.208.208,0,0,0,.088.406,5.915,5.915,0,0,0,.891-.3c.492.866,2.047-.02,2.571-.415.156-.117.311-.246.463-.383.119.213.127.177-.17.378a.211.211,0,0,0,.028.382,2.125,2.125,0,0,0,1.015.3,1.147,1.147,0,0,0,.323-.094.2.2,0,0,0,.083.141,1.713,1.713,0,0,0,1.84-.3,2.769,2.769,0,0,1-.948,1.69,3.125,3.125,0,0,1-2.709.307c-.259-.051-.394.342-.133.393a3.675,3.675,0,0,0,2.961-.27A3.1,3.1,0,0,0,2282.653,2672.407Zm-6.013-.755c.321-.249.1.223-.01.338a1.447,1.447,0,0,1-.241.191A1.135,1.135,0,0,1,2276.64,2671.652Zm2.7-.584a3.054,3.054,0,0,1,.557-.944,6.073,6.073,0,0,1,.74-.816,7.952,7.952,0,0,1-1.323,1.909A1.229,1.229,0,0,1,2279.343,2671.068Z" transform="translate(-2250.511 -2613.914)" fill="#eee"/>
        <path id="Path_12307" data-name="Path 12307" d="M2614.193,2693.545a3.976,3.976,0,1,1,4.551-3.3A3.981,3.981,0,0,1,2614.193,2693.545Zm1.112-7.005a3.117,3.117,0,1,0,2.59,3.566A3.12,3.12,0,0,0,2615.3,2686.54Z" transform="translate(-2574.427 -2630.527)" fill="#eee"/>
        <path id="Path_12308" data-name="Path 12308" d="M2677.829,2718.536l-.039.006a9.444,9.444,0,0,0-1.33.32l-.632.206-.606.241a17.476,17.476,0,0,0-2.3,1.136,18.8,18.8,0,0,0-2.121,1.382c-.382.278-.75.575-1.111.882-.205-.189-.417-.373-.638-.55-.295-.258-.628-.488-.953-.724a9.673,9.673,0,0,0-1.067-.641l-.035-.018a.081.081,0,0,0-.1.118c.862,1.262,1.751,2.5,2.641,3.746a.15.15,0,0,0,.208.033c1.375-.975,2.742-1.959,4.093-2.968l2.034-1.5c.682-.5,1.345-1.016,2.018-1.524a.081.081,0,0,0-.061-.144Z" transform="translate(-2629.116 -2664.037)" fill="#24c1a1"/>
      </g>
    </g>
  </g>
</svg>
