<svg xmlns="http://www.w3.org/2000/svg" width="322" height="177" viewBox="0 0 322 177">
  <g id="_322x177" data-name="322x177" fill="#f3f3f3" stroke-dasharray="4 5">
    <path d="M3,0H319a3,3,0,0,1,3,3V174a3,3,0,0,1-3,3H3a3,3,0,0,1-3-3V3A3,3,0,0,1,3,0Z" stroke="none"/>
    <path d="M 3 0 L 7 0 L 7 2 L 3 2 L 3 0 C 3 0 3 0 3 0 Z M 12 0 L 16 0 L 16 2 L 12 2 L 12 0 Z M 21 0 L 25 0 L 25 2 L 21 2 L 21 0 Z M 30 0 L 34 0 L 34 2 L 30 2 L 30 0 Z M 39 0 L 43 0 L 43 2 L 39 2 L 39 0 Z M 48 0 L 52 0 L 52 2 L 48 2 L 48 0 Z M 57 0 L 61 0 L 61 2 L 57 2 L 57 0 Z M 66 0 L 70 0 L 70 2 L 66 2 L 66 0 Z M 75 0 L 79 0 L 79 2 L 75 2 L 75 0 Z M 84 0 L 88 0 L 88 2 L 84 2 L 84 0 Z M 93 0 L 97 0 L 97 2 L 93 2 L 93 0 Z M 102 0 L 106 0 L 106 2 L 102 2 L 102 0 Z M 111 0 L 115 0 L 115 2 L 111 2 L 111 0 Z M 120 0 L 124 0 L 124 2 L 120 2 L 120 0 Z M 129 0 L 133 0 L 133 2 L 129 2 L 129 0 Z M 138 0 L 142 0 L 142 2 L 138 2 L 138 0 Z M 147 0 L 151 0 L 151 2 L 147 2 L 147 0 Z M 156 0 L 160 0 L 160 2 L 156 2 L 156 0 Z M 165 0 L 169 0 L 169 2 L 165 2 L 165 0 Z M 174 0 L 178 0 L 178 2 L 174 2 L 174 0 Z M 183 0 L 187 0 L 187 2 L 183 2 L 183 0 Z M 192 0 L 196 0 L 196 2 L 192 2 L 192 0 Z M 201 0 L 205 0 L 205 2 L 201 2 L 201 0 Z M 210 0 L 214 0 L 214 2 L 210 2 L 210 0 Z M 219 0 L 223 0 L 223 2 L 219 2 L 219 0 Z M 228 0 L 232 0 L 232 2 L 228 2 L 228 0 Z M 237 0 L 241 0 L 241 2 L 237 2 L 237 0 Z M 246 0 L 250 0 L 250 2 L 246 2 L 246 0 Z M 255 0 L 259 0 L 259 2 L 255 2 L 255 0 Z M 264 0 L 268 0 L 268 2 L 264 2 L 264 0 Z M 273 0 L 277 0 L 277 2 L 273 2 L 273 0 Z M 282 0 L 286 0 L 286 2 L 282 2 L 282 0 Z M 291 0 L 295 0 L 295 2 L 291 2 L 291 0 Z M 300 0 L 304 0 L 304 2 L 300 2 L 300 0 Z M 309 0 L 313 0 L 313 2 L 309 2 L 309 0 Z M 318 0 L 319 0 C 319.0035705566406 0 319.0070190429688 1.52587890625e-05 319.0105895996094 1.52587890625e-05 C 319.0138244628906 3.0517578125e-05 319.0170288085938 6.103515625e-05 319.0202331542969 6.103515625e-05 C 319.0233764648438 0.0001068115234375 319.0265808105469 3.0517578125e-05 319.0297241210938 0.000152587890625 C 319.0331420898438 0.0001678466796875 319.0365295410156 0.0002899169921875 319.0399169921875 0.0002593994140625 C 319.0428466796875 0.0002899169921875 319.0458679199219 0.0002899169921875 319.0487670898438 0.000396728515625 C 319.05224609375 0.00042724609375 319.0557861328125 0.000518798828125 319.0592651367188 0.000579833984375 C 319.0621643066406 0.0006256103515625 319.0649719238281 0.000732421875 319.06787109375 0.0007476806640625 C 319.0713806152344 0.000823974609375 319.0750122070312 0.00091552734375 319.0785522460938 0.001007080078125 C 319.0815124511719 0.0010833740234375 319.084716796875 0.001251220703125 319.0876770019531 0.001251220703125 C 319.0908813476562 0.0013427734375 319.09423828125 0.001495361328125 319.097412109375 0.001556396484375 C 319.1007385253906 0.001678466796875 319.1040344238281 0.0018310546875 319.1073608398438 0.00189208984375 C 319.1105041503906 0.0019683837890625 319.1134643554688 0.0020751953125 319.1166076660156 0.002227783203125 C 319.1199645996094 0.0023651123046875 319.1234436035156 0.002471923828125 319.1268005371094 0.0026397705078125 C 319.1296691894531 0.0027313232421875 319.1325988769531 0.0029296875 319.135498046875 0.0030059814453125 C 319.1390075683594 0.0031585693359375 319.1423645019531 0.003326416015625 319.1458435058594 0.00347900390625 C 319.1488647460938 0.0036468505859375 319.1520690917969 0.003875732421875 319.1550903320312 0.003936767578125 C 319.158447265625 0.004119873046875 319.1615600585938 0.0042724609375 319.1649169921875 0.00445556640625 C 319.1681823730469 0.004638671875 319.1712646484375 0.0047607421875 319.1744995117188 0.0049896240234375 C 319.1776123046875 0.005157470703125 319.1806640625 0.005401611328125 319.1838073730469 0.0055389404296875 C 319.1871032714844 0.0057220458984375 319.1904296875 0.0058746337890625 319.1936950683594 0.0061492919921875 C 319.1967163085938 0.0063629150390625 319.1994934082031 0.0065765380859375 319.2025146484375 0.0067291259765625 C 319.2058715820312 0.0069427490234375 319.2094116210938 0.007110595703125 319.2127685546875 0.0074310302734375 C 319.2157287597656 0.0076446533203125 319.2184143066406 0.008056640625 319.2213134765625 0.0080413818359375 C 319.2247924804688 0.00830078125 319.2283630371094 0.008544921875 319.2318420410156 0.0088348388671875 C 319.2349548339844 0.009063720703125 319.2379150390625 0.0093994140625 319.2410278320312 0.0095367431640625 C 319.2442321777344 0.0098114013671875 319.2473754882812 0.010040283203125 319.2505798339844 0.01031494140625 C 319.2538146972656 0.0105743408203125 319.2571105957031 0.0109100341796875 319.2603149414062 0.011138916015625 C 319.2633361816406 0.011383056640625 319.2662963867188 0.011688232421875 319.269287109375 0.0119171142578125 C 319.272705078125 0.012237548828125 319.2759704589844 0.01251220703125 319.2793579101562 0.0128326416015625 C 319.2823486328125 0.0131072998046875 319.2850646972656 0.0133056640625 319.2880249023438 0.013641357421875 C 319.2913513183594 0.01397705078125 319.294921875 0.0142822265625 319.2982482910156 0.0146484375 C 319.3013000488281 0.01495361328125 319.30419921875 0.015106201171875 319.3072814941406 0.0155487060546875 C 319.3104858398438 0.0158538818359375 319.3136596679688 0.0161895751953125 319.3168640136719 0.01654052734375 C 319.3200988769531 0.0168609619140625 319.3232116699219 0.017181396484375 319.3264465332031 0.0175628662109375 C 319.3294982910156 0.0178985595703125 319.3325500488281 0.0182342529296875 319.3356018066406 0.0185699462890625 C 319.3388671875 0.0189361572265625 319.3422241210938 0.019256591796875 319.345458984375 0.019683837890625 C 319.3484191894531 0.02001953125 319.3511657714844 0.020355224609375 319.3541259765625 0.0206756591796875 C 319.357421875 0.02105712890625 319.3608703613281 0.02154541015625 319.3641967773438 0.021881103515625 C 319.3704223632812 0.02264404296875 319.3765869140625 0.0233306884765625 319.3828430175781 0.024200439453125 C 319.3890075683594 0.0249786376953125 319.395263671875 0.0257110595703125 319.4013977050781 0.0266265869140625 C 319.4046325683594 0.027069091796875 319.4078979492188 0.027496337890625 319.4111328125 0.0279388427734375 C 319.4140930175781 0.028350830078125 319.4169921875 0.0287628173828125 319.4199829101562 0.0291595458984375 C 319.4233703613281 0.0296478271484375 319.4264526367188 0.0301513671875 319.4298400878906 0.0305633544921875 C 319.4326171875 0.0309600830078125 319.4355163574219 0.0314483642578125 319.4382934570312 0.0317840576171875 C 319.4415893554688 0.0322723388671875 319.445068359375 0.0327606201171875 319.4483947753906 0.0332794189453125 C 319.4513549804688 0.033721923828125 319.4544372558594 0.0340728759765625 319.4574279785156 0.0346527099609375 C 319.4606018066406 0.035125732421875 319.4637756347656 0.0357208251953125 319.4669189453125 0.0361175537109375 C 319.469970703125 0.036590576171875 319.47314453125 0.0371856689453125 319.4761352539062 0.037567138671875 C 319.4790954589844 0.0380401611328125 319.4820556640625 0.038543701171875 319.4850158691406 0.03900146484375 C 319.4883117675781 0.03955078125 319.4916076660156 0.040008544921875 319.4949035644531 0.0406341552734375 C 319.4977416992188 0.0410919189453125 319.5005493164062 0.041839599609375 319.50341796875 0.04205322265625 C 319.5067443847656 0.0426177978515625 319.5101318359375 0.043212890625 319.5134887695312 0.0437774658203125 C 319.5196228027344 0.044830322265625 319.5257263183594 0.045928955078125 319.5318298339844 0.0469970703125 C 319.5347595214844 0.047515869140625 319.537841796875 0.0479583740234375 319.5408020019531 0.048614501953125 C 319.5438232421875 0.049163818359375 319.5469970703125 0.0497894287109375 319.5500183105469 0.0503082275390625 C 319.5531921386719 0.0508880615234375 319.5562744140625 0.0515289306640625 319.5594482421875 0.05206298828125 C 319.5624084472656 0.0526275634765625 319.5652770996094 0.0531463623046875 319.5682067871094 0.053741455078125 C 319.5714111328125 0.054351806640625 319.5745849609375 0.05487060546875 319.5777893066406 0.0555877685546875 C 319.5835266113281 0.05670166015625 319.5890808105469 0.0578155517578125 319.5948181152344 0.0589599609375 C 319.5981140136719 0.059661865234375 319.6012268066406 0.0602569580078125 319.6045227050781 0.0609283447265625 C 319.6073303222656 0.0618133544921875 319.6102294921875 0.0621185302734375 319.6130065917969 0.06268310546875 C 319.6162109375 0.0633392333984375 319.6195068359375 0.06402587890625 319.6226806640625 0.0647125244140625 C 319.6256713867188 0.0653076171875 319.628662109375 0.06597900390625 319.6316528320312 0.066619873046875 C 319.6345520019531 0.0671234130859375 319.6377258300781 0.0679168701171875 319.6406860351562 0.0685577392578125 C 319.64111328125 0.0686492919921875 319.6414489746094 0.0687255859375 319.6418762207031 0.068817138671875 C 319.6474609375 0.070037841796875 319.6532287597656 0.071319580078125 319.6588134765625 0.07257080078125 C 319.6591796875 0.0726470947265625 319.6595764160156 0.0727386474609375 319.6599426269531 0.07281494140625 C 319.6656188964844 0.0740966796875 319.6712036132812 0.0753631591796875 319.6768798828125 0.0766754150390625 C 319.6801452636719 0.0773773193359375 319.6832885742188 0.0781402587890625 319.6865234375 0.07891845703125 C 319.6893005371094 0.0795440673828125 319.6923828125 0.080291748046875 319.6951599121094 0.0809478759765625 C 319.6982116699219 0.081817626953125 319.7013549804688 0.082427978515625 319.7044067382812 0.083160400390625 C 319.7073669433594 0.0838623046875 319.7104797363281 0.084625244140625 319.7134399414062 0.0853424072265625 C 319.7165222167969 0.086181640625 319.7194213867188 0.0868072509765625 319.7225036621094 0.0875701904296875 C 319.7226867675781 0.087615966796875 319.7228698730469 0.0876617431640625 319.7230529785156 0.08770751953125 C 319.7287902832031 0.0891265869140625 319.7345886230469 0.090576171875 319.7402954101562 0.0920257568359375 C 319.7406005859375 0.09210205078125 319.7408752441406 0.0921783447265625 319.7411804199219 0.092254638671875 C 319.7469787597656 0.0937347412109375 319.752685546875 0.0951995849609375 319.7584838867188 0.096710205078125 C 319.7586059570312 0.09674072265625 319.7587890625 0.0967864990234375 319.7588806152344 0.0968170166015625 C 319.7676696777344 0.0991058349609375 319.7766723632812 0.1014862060546875 319.7854309082031 0.1038665771484375 C 319.7856140136719 0.103912353515625 319.7857055664062 0.1039276123046875 319.7858581542969 0.1039886474609375 C 319.7916564941406 0.1055450439453125 319.7973937988281 0.10711669921875 319.8031616210938 0.1087188720703125 C 319.8033447265625 0.1087646484375 319.8036499023438 0.108856201171875 319.8038024902344 0.1089019775390625 C 319.8094787597656 0.1104736328125 319.815185546875 0.1120758056640625 319.8208312988281 0.113677978515625 C 319.8210754394531 0.113739013671875 319.8214111328125 0.11383056640625 319.8216247558594 0.1139068603515625 C 319.827392578125 0.11553955078125 319.8331298828125 0.1171875 319.8388366699219 0.1188507080078125 C 319.8418273925781 0.119598388671875 319.8447265625 0.1205596923828125 319.8478088378906 0.1214752197265625 C 319.8479309082031 0.1215057373046875 319.8480224609375 0.1215362548828125 319.84814453125 0.1215667724609375 C 319.8538818359375 0.1232452392578125 319.8597717285156 0.125 319.865478515625 0.1267242431640625 C 319.8656005859375 0.1267547607421875 319.86572265625 0.126800537109375 319.8658447265625 0.1268310546875 C 319.8715515136719 0.1285552978515625 319.87744140625 0.1303558349609375 319.8831481933594 0.1320953369140625 C 319.8832092285156 0.1321258544921875 319.8833923339844 0.132171630859375 319.8834533691406 0.1321868896484375 C 319.8891296386719 0.133941650390625 319.8949584960938 0.1357574462890625 319.900634765625 0.137542724609375 C 319.9008178710938 0.1375885009765625 319.9009094238281 0.1376190185546875 319.9010620117188 0.1376800537109375 C 319.9096984863281 0.140380859375 319.9184875488281 0.1432037353515625 319.9270629882812 0.1459808349609375 C 319.9271850585938 0.146026611328125 319.9273986816406 0.146087646484375 319.927490234375 0.1461181640625 C 319.9389953613281 0.1498565673828125 319.9505920410156 0.1537017822265625 319.9620056152344 0.157562255859375 C 319.9621276855469 0.1576080322265625 319.9622192382812 0.157623291015625 319.9623413085938 0.1576690673828125 C 319.9768371582031 0.1625823974609375 319.9911193847656 0.16754150390625 320.0055236816406 0.17266845703125 C 320.0055847167969 0.1726837158203125 320.0056457519531 0.172698974609375 320.0057067871094 0.1727142333984375 C 320.011474609375 0.174774169921875 320.0169982910156 0.1767578125 320.0227661132812 0.1788482666015625 C 320.0228271484375 0.178863525390625 320.0229187011719 0.1789093017578125 320.0229797363281 0.1789398193359375 C 320.0287475585938 0.1810150146484375 320.0343627929688 0.183074951171875 320.0401000976562 0.1851959228515625 C 320.0401000976562 0.1851959228515625 320.0401306152344 0.185211181640625 320.0401306152344 0.185211181640625 C 320.0487365722656 0.188385009765625 320.0571899414062 0.191558837890625 320.0657653808594 0.19482421875 C 320.0658264160156 0.1948394775390625 320.0659484863281 0.19488525390625 320.0660095214844 0.194915771484375 C 320.0717163085938 0.19708251953125 320.0772705078125 0.19921875 320.0829772949219 0.201416015625 C 320.0829772949219 0.201416015625 320.0829772949219 0.2014312744140625 320.0829772949219 0.2014312744140625 C 320.0886840820312 0.2036285400390625 320.0943603515625 0.205841064453125 320.1000366210938 0.2080841064453125 C 320.1000366210938 0.2080841064453125 320.1000366210938 0.2080841064453125 320.1000366210938 0.2080841064453125 C 320.6888122558594 0.4402618408203125 321.1864318847656 0.8531951904296875 321.5245666503906 1.378631591796875 L 319.8427429199219 2.46099853515625 C 319.6569519042969 2.172332763671875 319.3419189453125 2 319 2 L 318 2 L 318 0 Z M 320 6.28704833984375 L 322 6.28704833984375 C 322 6.28704833984375 322 10.28704833984375 322 10.28704833984375 L 320 10.28704833984375 L 320 6.28704833984375 Z M 320 15.28704833984375 L 322 15.28704833984375 C 322 15.28704833984375 322 19.28704833984375 322 19.28704833984375 L 320 19.28704833984375 L 320 15.28704833984375 Z M 320 24.28704833984375 L 322 24.28704833984375 C 322 24.28704833984375 322 28.28704833984375 322 28.28704833984375 L 320 28.28704833984375 L 320 24.28704833984375 Z M 320 33.28704833984375 L 322 33.28704833984375 C 322 33.28704833984375 322 37.28704833984375 322 37.28704833984375 L 320 37.28704833984375 L 320 33.28704833984375 Z M 320 42.28704833984375 L 322 42.28704833984375 C 322 42.28704833984375 322 46.28704833984375 322 46.28704833984375 L 320 46.28704833984375 L 320 42.28704833984375 Z M 320 51.28704071044922 L 322 51.28704071044922 C 322 51.28704071044922 322 55.28704071044922 322 55.28704071044922 L 320 55.28704071044922 L 320 51.28704071044922 Z M 320 60.28704071044922 L 322 60.28704071044922 C 322 60.28704071044922 322 64.28704071044922 322 64.28704071044922 L 320 64.28704071044922 L 320 60.28704071044922 Z M 320 69.28704071044922 L 322 69.28704071044922 C 322 69.28704071044922 322 73.28704071044922 322 73.28704071044922 L 320 73.28704071044922 L 320 69.28704071044922 Z M 320 78.28704071044922 L 322 78.28704071044922 C 322 78.28704071044922 322 82.28704071044922 322 82.28704071044922 L 320 82.28704071044922 L 320 78.28704071044922 Z M 320 87.28704071044922 L 322 87.28704071044922 C 322 87.28704071044922 322 91.28704071044922 322 91.28704071044922 L 320 91.28704071044922 L 320 87.28704071044922 Z M 320 96.28704071044922 L 322 96.28704071044922 C 322 96.28704071044922 322 100.2870407104492 322 100.2870407104492 L 320 100.2870407104492 L 320 96.28704071044922 Z M 320 105.2870407104492 L 322 105.2870407104492 C 322 105.2870407104492 322 109.2870407104492 322 109.2870407104492 L 320 109.2870407104492 L 320 105.2870407104492 Z M 320 114.2870407104492 L 322 114.2870407104492 C 322 114.2870407104492 322 118.2870407104492 322 118.2870407104492 L 320 118.2870407104492 L 320 114.2870407104492 Z M 320 123.2870407104492 L 322 123.2870407104492 C 322 123.2870407104492 322 127.2870407104492 322 127.2870407104492 L 320 127.2870407104492 L 320 123.2870407104492 Z M 320 132.2870483398438 L 322 132.2870483398438 C 322 132.2870483398438 322 136.2870483398438 322 136.2870483398438 L 320 136.2870483398438 L 320 132.2870483398438 Z M 320 141.2870483398438 L 322 141.2870483398438 C 322 141.2870483398438 322 145.2870483398438 322 145.2870483398438 L 320 145.2870483398438 L 320 141.2870483398438 Z M 320 150.2870483398438 L 322 150.2870483398438 C 322 150.2870483398438 322 154.2870483398438 322 154.2870483398438 L 320 154.2870483398438 L 320 150.2870483398438 Z M 320 159.2870483398438 L 322 159.2870483398438 C 322 159.2870483398438 322 163.2870483398438 322 163.2870483398438 L 320 163.2870483398438 L 320 159.2870483398438 Z M 320 168.2870483398438 L 322 168.2870483398438 C 322 168.2870483398438 322 172.2870483398438 322 172.2870483398438 L 320 172.2870483398438 L 320 168.2870483398438 Z M 319.4563598632812 174.8905029296875 L 320.3729248046875 176.6681213378906 C 320.3666687011719 176.6713562011719 320.3603820800781 176.674560546875 320.3540954589844 176.677734375 C 320.353759765625 176.6779174804688 320.3533935546875 176.6781005859375 320.3530578613281 176.6782684326172 C 320.3503112792969 176.6796569824219 320.3475646972656 176.6810455322266 320.3448181152344 176.6824188232422 C 320.3429870605469 176.6833343505859 320.341064453125 176.6843109130859 320.3392333984375 176.6852264404297 C 320.3388061523438 176.6854400634766 320.3381958007812 176.6857452392578 320.3377685546875 176.6859436035156 C 320.3353576660156 176.6871643066406 320.3328857421875 176.6883850097656 320.3304443359375 176.6895904541016 C 320.32958984375 176.6900177001953 320.3289184570312 176.6903533935547 320.3280944824219 176.6907653808594 C 320.3260192871094 176.6917877197266 320.323974609375 176.6927947998047 320.3218994140625 176.6938171386719 C 320.3197326660156 176.6948699951172 320.3174743652344 176.6959838867188 320.3153381347656 176.6970367431641 C 320.3124389648438 176.6984405517578 320.3094787597656 176.6998748779297 320.3066101074219 176.7012786865234 C 320.3041687011719 176.7024688720703 320.3015747070312 176.7037048339844 320.2991333007812 176.7048797607422 C 320.2965087890625 176.7061614990234 320.2938842773438 176.7074127197266 320.2912292480469 176.7086791992188 C 320.2885131835938 176.7099761962891 320.28564453125 176.7113494873047 320.2828979492188 176.7126312255859 C 320.2804870605469 176.7137756347656 320.2781372070312 176.7148895263672 320.2757263183594 176.7160339355469 C 320.2734069824219 176.7171173095703 320.27099609375 176.7182464599609 320.2686767578125 176.7193298339844 C 320.2680969238281 176.7196044921875 320.2675476074219 176.7198638916016 320.2669982910156 176.7201232910156 C 320.2646789550781 176.7212066650391 320.26220703125 176.7223510742188 320.2598876953125 176.7234344482422 C 320.259521484375 176.7236022949219 320.2591857910156 176.7237548828125 320.2588195800781 176.7239227294922 C 320.253662109375 176.7263031005859 320.2483825683594 176.7287292480469 320.2432250976562 176.7310943603516 C 320.2430725097656 176.7311553955078 320.2428283691406 176.7312622070312 320.24267578125 176.7313232421875 C 320.2400207519531 176.7325439453125 320.2373657226562 176.7337493896484 320.2346801757812 176.7349700927734 C 320.234619140625 176.7349853515625 320.2345581054688 176.7350158691406 320.2344970703125 176.7350463867188 C 319.9548645019531 176.8614654541016 319.6525573730469 176.9462127685547 319.3351135253906 176.9814910888672 C 319.3350830078125 176.9814910888672 319.3350219726562 176.9815063476562 319.3349914550781 176.9815063476562 C 319.3254089355469 176.9825744628906 319.3159484863281 176.9835815429688 319.3063659667969 176.9845428466797 C 319.3001403808594 176.9851837158203 319.2940673828125 176.9857788085938 319.287841796875 176.9863739013672 C 319.287841796875 176.9863739013672 319.2877807617188 176.9863739013672 319.2877807617188 176.9863739013672 C 319.2846069335938 176.9866790771484 319.2813110351562 176.9869842529297 319.2781372070312 176.9872741699219 C 319.2685546875 176.9881591796875 319.2590026855469 176.9889831542969 319.2494201660156 176.9897766113281 C 319.2464294433594 176.9900207519531 319.2433471679688 176.9902801513672 319.2403564453125 176.9905090332031 C 319.2403564453125 176.9905090332031 319.2402954101562 176.9905090332031 319.2402954101562 176.9905090332031 C 319.2370910644531 176.9907684326172 319.23388671875 176.9910125732422 319.230712890625 176.9912567138672 C 319.2273864746094 176.9915161132812 319.22412109375 176.9917602539062 319.2207946777344 176.9920043945312 C 319.2177734375 176.9922180175781 319.2146301269531 176.9924468994141 319.2116088867188 176.9926605224609 C 319.2084655761719 176.9928741455078 319.2052917480469 176.9930877685547 319.2021789550781 176.9933013916016 C 319.1988220214844 176.9935150146484 319.1954956054688 176.9937286376953 319.192138671875 176.9939422607422 C 319.1890563964844 176.994140625 319.1860046386719 176.9943237304688 319.1828918457031 176.9945220947266 C 319.1798095703125 176.9947052001953 319.1765441894531 176.9948883056641 319.1734619140625 176.9950714111328 C 319.1700439453125 176.9952697753906 319.1667785644531 176.9954376220703 319.1633605957031 176.9956207275391 C 319.1601867675781 176.9958038330078 319.156982421875 176.9959564208984 319.1537780761719 176.9961242675781 C 319.1507568359375 176.9962768554688 319.1477966308594 176.9964294433594 319.144775390625 176.9965667724609 C 319.1413879394531 176.9967346191406 319.1380310058594 176.9968872070312 319.1346435546875 176.9970245361328 C 319.1314086914062 176.9971771240234 319.1281433105469 176.997314453125 319.1249084472656 176.9974517822266 C 319.121826171875 176.9975738525391 319.1189270019531 176.9976806640625 319.1158447265625 176.997802734375 C 319.1123962402344 176.9979400634766 319.1092224121094 176.998046875 319.1057739257812 176.9981689453125 C 319.1025695800781 176.9982757568359 319.099365234375 176.9983825683594 319.0961303710938 176.9984893798828 C 319.0930786132812 176.9985809326172 319.0900268554688 176.9986724853516 319.0869750976562 176.9987640380859 C 319.0835266113281 176.9988555908203 319.0800170898438 176.9989471435547 319.0765686035156 176.9990386962891 C 319.0733337402344 176.9991149902344 319.0701904296875 176.9991912841797 319.0669555664062 176.999267578125 C 319.0639343261719 176.9993286132812 319.0609741210938 176.9993896484375 319.0579833984375 176.9994506835938 C 319.0545654296875 176.99951171875 319.05126953125 176.9995727539062 319.0478515625 176.9996185302734 C 319.04443359375 176.9996795654297 319.0411376953125 176.9997253417969 319.0377197265625 176.9997711181641 C 319.0348510742188 176.9998016357422 319.0319213867188 176.9998321533203 319.029052734375 176.9998626708984 C 319.0255126953125 176.9998931884766 319.0221557617188 176.9999237060547 319.0186462402344 176.9999389648438 C 319.0153503417969 176.9999694824219 319.0119934082031 176.9999694824219 319.0086975097656 176.9999847412109 C 319.0057678222656 177 319.0029296875 177 319 177 C 319 177 319 177 319 177 C 319 177 316.4258728027344 177 316.4258728027344 177 L 316.4258728027344 175 L 319 175 C 319.1619262695312 175 319.3154602050781 174.9631652832031 319.4563598632812 174.8905029296875 Z M 307.4258728027344 175 L 311.4258728027344 175 L 311.4258728027344 177 C 311.4258728027344 177 307.4258728027344 177 307.4258728027344 177 L 307.4258728027344 175 Z M 298.4258728027344 175 L 302.4258728027344 175 L 302.4258728027344 177 C 302.4258728027344 177 298.4258728027344 177 298.4258728027344 177 L 298.4258728027344 175 Z M 289.4258728027344 175 L 293.4258728027344 175 L 293.4258728027344 177 C 293.4258728027344 177 289.4258728027344 177 289.4258728027344 177 L 289.4258728027344 175 Z M 280.4258728027344 175 L 284.4258728027344 175 L 284.4258728027344 177 C 284.4258728027344 177 280.4258728027344 177 280.4258728027344 177 L 280.4258728027344 175 Z M 271.4258728027344 175 L 275.4258728027344 175 L 275.4258728027344 177 C 275.4258728027344 177 271.4258728027344 177 271.4258728027344 177 L 271.4258728027344 175 Z M 262.4258728027344 175 L 266.4258728027344 175 L 266.4258728027344 177 C 266.4258728027344 177 262.4258728027344 177 262.4258728027344 177 L 262.4258728027344 175 Z M 253.4258728027344 175 L 257.4258728027344 175 L 257.4258728027344 177 C 257.4258728027344 177 253.4258728027344 177 253.4258728027344 177 L 253.4258728027344 175 Z M 244.4258728027344 175 L 248.4258728027344 175 L 248.4258728027344 177 C 248.4258728027344 177 244.4258728027344 177 244.4258728027344 177 L 244.4258728027344 175 Z M 235.4258728027344 175 L 239.4258728027344 175 L 239.4258728027344 177 C 239.4258728027344 177 235.4258728027344 177 235.4258728027344 177 L 235.4258728027344 175 Z M 226.4258728027344 175 L 230.4258728027344 175 L 230.4258728027344 177 C 230.4258728027344 177 226.4258728027344 177 226.4258728027344 177 L 226.4258728027344 175 Z M 217.4258728027344 175 L 221.4258728027344 175 L 221.4258728027344 177 C 221.4258728027344 177 217.4258728027344 177 217.4258728027344 177 L 217.4258728027344 175 Z M 208.4258728027344 175 L 212.4258728027344 175 L 212.4258728027344 177 C 212.4258728027344 177 208.4258728027344 177 208.4258728027344 177 L 208.4258728027344 175 Z M 199.4258728027344 175 L 203.4258728027344 175 L 203.4258728027344 177 C 203.4258728027344 177 199.4258728027344 177 199.4258728027344 177 L 199.4258728027344 175 Z M 190.4258728027344 175 L 194.4258728027344 175 L 194.4258728027344 177 C 194.4258728027344 177 190.4258728027344 177 190.4258728027344 177 L 190.4258728027344 175 Z M 181.4258728027344 175 L 185.4258728027344 175 L 185.4258728027344 177 C 185.4258728027344 177 181.4258728027344 177 181.4258728027344 177 L 181.4258728027344 175 Z M 172.4258728027344 175 L 176.4258728027344 175 L 176.4258728027344 177 C 176.4258728027344 177 172.4258728027344 177 172.4258728027344 177 L 172.4258728027344 175 Z M 163.4258728027344 175 L 167.4258728027344 175 L 167.4258728027344 177 C 167.4258728027344 177 163.4258728027344 177 163.4258728027344 177 L 163.4258728027344 175 Z M 154.4258728027344 175 L 158.4258728027344 175 L 158.4258728027344 177 C 158.4258728027344 177 154.4258728027344 177 154.4258728027344 177 L 154.4258728027344 175 Z M 145.4258728027344 175 L 149.4258728027344 175 L 149.4258728027344 177 C 149.4258728027344 177 145.4258728027344 177 145.4258728027344 177 L 145.4258728027344 175 Z M 136.4258728027344 175 L 140.4258728027344 175 L 140.4258728027344 177 C 140.4258728027344 177 136.4258728027344 177 136.4258728027344 177 L 136.4258728027344 175 Z M 127.4258728027344 175 L 131.4258728027344 175 L 131.4258728027344 177 C 131.4258728027344 177 127.4258728027344 177 127.4258728027344 177 L 127.4258728027344 175 Z M 118.4258728027344 175 L 122.4258728027344 175 L 122.4258728027344 177 C 122.4258728027344 177 118.4258728027344 177 118.4258728027344 177 L 118.4258728027344 175 Z M 109.4258728027344 175 L 113.4258728027344 175 L 113.4258728027344 177 C 113.4258728027344 177 109.4258728027344 177 109.4258728027344 177 L 109.4258728027344 175 Z M 100.4258728027344 175 L 104.4258728027344 175 L 104.4258728027344 177 C 104.4258728027344 177 100.4258728027344 177 100.4258728027344 177 L 100.4258728027344 175 Z M 91.42587280273438 175 L 95.42587280273438 175 L 95.42587280273438 177 C 95.42587280273438 177 91.42587280273438 177 91.42587280273438 177 L 91.42587280273438 175 Z M 82.42587280273438 175 L 86.42587280273438 175 L 86.42587280273438 177 C 86.42587280273438 177 82.42587280273438 177 82.42587280273438 177 L 82.42587280273438 175 Z M 73.42587280273438 175 L 77.42587280273438 175 L 77.42587280273438 177 C 77.42587280273438 177 73.42587280273438 177 73.42587280273438 177 L 73.42587280273438 175 Z M 64.42587280273438 175 L 68.42587280273438 175 L 68.42587280273438 177 C 68.42587280273438 177 64.42587280273438 177 64.42587280273438 177 L 64.42587280273438 175 Z M 55.42587280273438 175 L 59.42587280273438 175 L 59.42587280273438 177 C 59.42587280273438 177 55.42587280273438 177 55.42587280273438 177 L 55.42587280273438 175 Z M 46.42587280273438 175 L 50.42587280273438 175 L 50.42587280273438 177 C 50.42587280273438 177 46.42587280273438 177 46.42587280273438 177 L 46.42587280273438 175 Z M 37.42587280273438 175 L 41.42587280273438 175 L 41.42587280273438 177 C 41.42587280273438 177 37.42587280273438 177 37.42587280273438 177 L 37.42587280273438 175 Z M 28.42587280273438 175 L 32.42587280273438 175 L 32.42587280273438 177 C 32.42587280273438 177 28.42587280273438 177 28.42587280273438 177 L 28.42587280273438 175 Z M 19.42587280273438 175 L 23.42587280273438 175 L 23.42587280273438 177 C 23.42587280273438 177 19.42587280273438 177 19.42587280273438 177 L 19.42587280273438 175 Z M 10.42587280273438 175 L 14.42587280273438 175 L 14.42587280273438 177 C 14.42587280273438 177 10.42587280273438 177 10.42587280273438 177 L 10.42587280273438 175 Z M 2.500457763671875 174.8668823242188 C 2.652801513671875 174.9552154541016 2.820831298828125 175 3 175 L 5.425872802734375 175 L 5.425872802734375 177 C 5.425872802734375 177 3 177 3 177 C 3 177 3 177 3 177 C 2.996429443359375 177 2.9927978515625 176.9999847412109 2.989227294921875 176.9999847412109 C 2.986114501953125 176.9999694824219 2.982879638671875 176.9999542236328 2.97998046875 176.9999389648438 C 2.9766845703125 176.9999084472656 2.97320556640625 176.9998779296875 2.969940185546875 176.9998474121094 C 2.966827392578125 176.9998168945312 2.964324951171875 176.9997863769531 2.96063232421875 176.9997406005859 C 2.957366943359375 176.9997100830078 2.954010009765625 176.9996490478516 2.950653076171875 176.9996032714844 C 2.947509765625 176.9995422363281 2.9442138671875 176.9994964599609 2.9410400390625 176.9994354248047 C 2.93780517578125 176.9993743896484 2.934478759765625 176.9992980957031 2.931304931640625 176.9992218017578 C 2.928009033203125 176.9991455078125 2.924896240234375 176.9990692138672 2.92144775390625 176.9989929199219 C 2.9183349609375 176.9989166259766 2.9150390625 176.9988250732422 2.91192626953125 176.9987335205078 C 2.9085693359375 176.9986267089844 2.905181884765625 176.99853515625 2.902130126953125 176.9984283447266 C 2.89898681640625 176.9983367919922 2.895904541015625 176.9982299804688 2.89276123046875 176.9981231689453 C 2.88934326171875 176.9980010986328 2.885986328125 176.9978637695312 2.882537841796875 176.9977416992188 C 2.879547119140625 176.9976196289062 2.87646484375 176.9974975585938 2.873504638671875 176.9973754882812 C 2.870086669921875 176.9972381591797 2.86676025390625 176.9971008300781 2.86322021484375 176.9969329833984 C 2.86016845703125 176.9967956542969 2.857269287109375 176.9966583251953 2.854248046875 176.9965209960938 C 2.8507080078125 176.9963531494141 2.847198486328125 176.9961700439453 2.843780517578125 176.9960021972656 C 2.8408203125 176.995849609375 2.83795166015625 176.9956970214844 2.835052490234375 176.9955444335938 C 2.83154296875 176.9953460693359 2.828033447265625 176.9951629638672 2.824615478515625 176.9949493408203 C 2.821685791015625 176.9947814941406 2.818817138671875 176.9946136474609 2.81585693359375 176.9944458007812 C 2.812347412109375 176.9942321777344 2.808837890625 176.9940032958984 2.80523681640625 176.9937744140625 C 2.80242919921875 176.9935913085938 2.799713134765625 176.9934234619141 2.79693603515625 176.9932403564453 C 2.793365478515625 176.9929962158203 2.78955078125 176.9927368164062 2.786041259765625 176.9924774169922 C 2.783172607421875 176.9922790527344 2.780364990234375 176.9920806884766 2.777587890625 176.9918823242188 C 2.77392578125 176.9916076660156 2.770111083984375 176.9913177490234 2.76654052734375 176.9910430908203 C 2.763946533203125 176.9908447265625 2.761199951171875 176.9906311035156 2.758544921875 176.9904174804688 C 2.75506591796875 176.9901428222656 2.75128173828125 176.9898376464844 2.747711181640625 176.9895477294922 C 2.74444580078125 176.9892578125 2.741241455078125 176.9889984130859 2.7379150390625 176.9887084960938 C 2.7347412109375 176.9884338378906 2.731597900390625 176.9881591796875 2.728515625 176.9878845214844 C 2.72515869140625 176.9875793457031 2.721649169921875 176.9872589111328 2.7183837890625 176.9869537353516 C 2.71551513671875 176.9866790771484 2.7125244140625 176.9864044189453 2.709503173828125 176.9861145019531 C 2.70587158203125 176.9857635498047 2.702056884765625 176.9853820800781 2.6982421875 176.9850158691406 C 2.695526123046875 176.9847412109375 2.692962646484375 176.9844818115234 2.690338134765625 176.9842071533203 C 2.686309814453125 176.9837951660156 2.682281494140625 176.9833679199219 2.67816162109375 176.9829406738281 C 2.675872802734375 176.9826965332031 2.67376708984375 176.9824676513672 2.6715087890625 176.9822235107422 C 2.66754150390625 176.9817810058594 2.663543701171875 176.9813385009766 2.65960693359375 176.9808959960938 C 2.657318115234375 176.9806365966797 2.65496826171875 176.9803771972656 2.652679443359375 176.9801025390625 C 2.64849853515625 176.9796295166016 2.644378662109375 176.9791412353516 2.640350341796875 176.9786529541016 C 2.637664794921875 176.9783935546875 2.635833740234375 176.9781188964844 2.63372802734375 176.9778594970703 C 2.629974365234375 176.9773864746094 2.625518798828125 176.9768524169922 2.62139892578125 176.9763336181641 C 2.615081787109375 176.9756011962891 2.60906982421875 176.9747619628906 2.602783203125 176.9739379882812 C 2.602691650390625 176.9739227294922 2.602447509765625 176.9738922119141 2.60235595703125 176.973876953125 C 2.203948974609375 176.9211120605469 1.830230712890625 176.7901611328125 1.4970703125 176.5969543457031 L 2.500457763671875 174.8668823242188 Z M 0 168.1388397216797 L 2 168.1388397216797 L 2 172.1388397216797 L 0 172.1388397216797 L 0 168.1388397216797 Z M 0 159.1388397216797 L 2 159.1388397216797 L 2 163.1388397216797 L 0 163.1388397216797 L 0 159.1388397216797 Z M 0 150.1388397216797 L 2 150.1388397216797 L 2 154.1388397216797 L 0 154.1388397216797 L 0 150.1388397216797 Z M 0 141.1388244628906 L 2 141.1388244628906 L 2 145.1388397216797 L 0 145.1388397216797 L 0 141.1388244628906 Z M 0 132.1388244628906 L 2 132.1388244628906 L 2 136.1388244628906 L 0 136.1388244628906 L 0 132.1388244628906 Z M 0 123.1388320922852 L 2 123.1388320922852 L 2 127.1388320922852 L 0 127.1388320922852 L 0 123.1388320922852 Z M 0 114.1388320922852 L 2 114.1388320922852 L 2 118.1388320922852 L 0 118.1388320922852 L 0 114.1388320922852 Z M 0 105.1388320922852 L 2 105.1388320922852 L 2 109.1388320922852 L 0 109.1388320922852 L 0 105.1388320922852 Z M 0 96.13883209228516 L 2 96.13883209228516 L 2 100.1388320922852 L 0 100.1388320922852 L 0 96.13883209228516 Z M 0 87.13883209228516 L 2 87.13883209228516 L 2 91.13883209228516 L 0 91.13883209228516 L 0 87.13883209228516 Z M 0 78.13883209228516 L 2 78.13883209228516 L 2 82.13883209228516 L 0 82.13883209228516 L 0 78.13883209228516 Z M 0 69.13883209228516 L 2 69.13883209228516 L 2 73.13883209228516 L 0 73.13883209228516 L 0 69.13883209228516 Z M 0 60.13883209228516 L 2 60.13883209228516 L 2 64.13883209228516 L 0 64.13883209228516 L 0 60.13883209228516 Z M 0 51.13883209228516 L 2 51.13883209228516 L 2 55.13883209228516 L 0 55.13883209228516 L 0 51.13883209228516 Z M 0 42.13883972167969 L 2 42.13883972167969 L 2 46.13883972167969 L 0 46.13883972167969 L 0 42.13883972167969 Z M 0 33.13883972167969 L 2 33.13883972167969 L 2 37.13883972167969 L 0 37.13883972167969 L 0 33.13883972167969 Z M 0 24.13883972167969 L 2 24.13883972167969 L 2 28.13883972167969 L 0 28.13883972167969 L 0 24.13883972167969 Z M 0 15.13883972167969 L 2 15.13883972167969 L 2 19.13883972167969 L 0 19.13883972167969 L 0 15.13883972167969 Z M 0 6.138839721679688 L 2 6.138839721679688 L 2 10.13883972167969 L 0 10.13883972167969 L 0 6.138839721679688 Z M 3 0 L 3 2 C 2.673126220703125 2 2.376129150390625 2.153076171875 2.18511962890625 2.419952392578125 L 0.55865478515625 1.25604248046875 C 0.976898193359375 0.6716766357421875 1.599639892578125 0.243682861328125 2.322357177734375 0.07684326171875 C 2.322479248046875 0.076812744140625 2.322479248046875 0.076812744140625 2.322601318359375 0.0767974853515625 C 2.340728759765625 0.072601318359375 2.35870361328125 0.068634033203125 2.376983642578125 0.0647735595703125 C 2.377105712890625 0.06475830078125 2.377166748046875 0.0647430419921875 2.377288818359375 0.0647125244140625 C 2.3831787109375 0.0634765625 2.389068603515625 0.0622406005859375 2.39495849609375 0.06103515625 C 2.39520263671875 0.0609893798828125 2.39544677734375 0.0609283447265625 2.39569091796875 0.060882568359375 C 2.4046630859375 0.059051513671875 2.413665771484375 0.0572509765625 2.422637939453125 0.0554962158203125 C 2.425628662109375 0.0550537109375 2.42889404296875 0.054290771484375 2.432037353515625 0.0536956787109375 C 2.432098388671875 0.053680419921875 2.43212890625 0.0536651611328125 2.43218994140625 0.0536651611328125 C 2.438232421875 0.0525054931640625 2.44427490234375 0.051361083984375 2.4503173828125 0.0502471923828125 C 2.450469970703125 0.0502166748046875 2.45050048828125 0.050201416015625 2.45068359375 0.0501708984375 C 2.45672607421875 0.0490570068359375 2.462860107421875 0.047943115234375 2.468902587890625 0.0468597412109375 C 2.468902587890625 0.0468597412109375 2.468963623046875 0.0468597412109375 2.468963623046875 0.0468597412109375 C 2.47216796875 0.0462799072265625 2.4752197265625 0.0457763671875 2.478546142578125 0.0451507568359375 C 2.48760986328125 0.0435638427734375 2.49652099609375 0.04205322265625 2.505584716796875 0.0405426025390625 C 2.51123046875 0.0398712158203125 2.51800537109375 0.0384979248046875 2.524078369140625 0.03753662109375 C 2.526947021484375 0.036956787109375 2.530303955078125 0.0365447998046875 2.53350830078125 0.0360565185546875 C 2.5406494140625 0.0345306396484375 2.545654296875 0.0341796875 2.551788330078125 0.0332489013671875 C 2.5550537109375 0.0327606201171875 2.558258056640625 0.03228759765625 2.561492919921875 0.0318145751953125 C 2.568634033203125 0.0308685302734375 2.573760986328125 0.0300445556640625 2.579833984375 0.0291900634765625 C 2.58270263671875 0.0288543701171875 2.586395263671875 0.028289794921875 2.589569091796875 0.0278472900390625 C 2.59271240234375 0.0272216796875 2.595703125 0.0269927978515625 2.59881591796875 0.0265960693359375 C 2.60205078125 0.02642822265625 2.605010986328125 0.0257720947265625 2.608062744140625 0.0253753662109375 C 2.611175537109375 0.024871826171875 2.61456298828125 0.0245361328125 2.6177978515625 0.02410888671875 C 2.621795654296875 0.023468017578125 2.624053955078125 0.0233306884765625 2.627197265625 0.0229339599609375 C 2.630859375 0.0232086181640625 2.6331787109375 0.022216796875 2.63616943359375 0.0218353271484375 C 2.6396484375 0.0213623046875 2.64276123046875 0.0210418701171875 2.64605712890625 0.020660400390625 C 2.64605712890625 0.020660400390625 2.64617919921875 0.0206451416015625 2.64617919921875 0.0206451416015625 C 2.6494140625 0.020263671875 2.652679443359375 0.019866943359375 2.65594482421875 0.0195159912109375 C 2.659210205078125 0.0191497802734375 2.66253662109375 0.0187530517578125 2.665740966796875 0.0184173583984375 C 2.67193603515625 0.0177154541015625 2.678680419921875 0.0169219970703125 2.684356689453125 0.0164031982421875 C 2.6876220703125 0.0160675048828125 2.690887451171875 0.0156707763671875 2.6942138671875 0.0153961181640625 C 2.70037841796875 0.0147552490234375 2.706451416015625 0.0139007568359375 2.7127685546875 0.013580322265625 C 2.7158203125 0.013275146484375 2.71868896484375 0.0130157470703125 2.72216796875 0.0126953125 C 2.725067138671875 0.012420654296875 2.7281494140625 0.0128326416015625 2.731231689453125 0.011871337890625 C 2.734619140625 0.011566162109375 2.737823486328125 0.01129150390625 2.741180419921875 0.011016845703125 C 2.74444580078125 0.010711669921875 2.747222900390625 0.0104217529296875 2.75091552734375 0.01019287109375 C 2.75384521484375 0.00994873046875 2.756805419921875 0.0096893310546875 2.7598876953125 0.0094757080078125 C 2.763214111328125 0.00921630859375 2.766754150390625 0.00897216796875 2.77001953125 0.0086822509765625 C 2.77301025390625 0.008453369140625 2.776123046875 0.00823974609375 2.779052734375 0.0080108642578125 C 2.782196044921875 0.0077667236328125 2.785186767578125 0.00750732421875 2.788543701171875 0.0073394775390625 C 2.7918701171875 0.007110595703125 2.795166015625 0.0068206787109375 2.798583984375 0.00665283203125 C 2.801544189453125 0.0064544677734375 2.804840087890625 0.00634765625 2.807769775390625 0.0060577392578125 C 2.81109619140625 0.0058441162109375 2.81414794921875 0.0057220458984375 2.817352294921875 0.005462646484375 C 2.820709228515625 0.0052642822265625 2.8240966796875 0.005096435546875 2.827392578125 0.0048828125 C 2.833740234375 0.0045318603515625 2.8404541015625 0.0041656494140625 2.846343994140625 0.0038604736328125 C 2.849578857421875 0.003692626953125 2.853118896484375 0.0035247802734375 2.85601806640625 0.0034027099609375 C 2.858917236328125 0.003265380859375 2.862823486328125 0.00323486328125 2.8648681640625 0.00299072265625 C 2.868255615234375 0.002838134765625 2.871673583984375 0.0027313232421875 2.875091552734375 0.0025482177734375 C 2.87835693359375 0.0024261474609375 2.881622314453125 0.0022430419921875 2.884979248046875 0.002166748046875 C 2.887939453125 0.002044677734375 2.890869140625 0.0017852783203125 2.893798828125 0.0018463134765625 C 2.897186279296875 0.001708984375 2.900543212890625 0.0015716552734375 2.90399169921875 0.0015106201171875 C 2.907257080078125 0.00140380859375 2.91033935546875 0.0013885498046875 2.913665771484375 0.001220703125 C 2.9168701171875 0.0011444091796875 2.919921875 0.0009765625 2.923004150390625 0.0009765625 C 2.926361083984375 0.000885009765625 2.929473876953125 0.0008392333984375 2.93310546875 0.000732421875 C 2.93634033203125 0.00067138671875 2.939697265625 0.0006866455078125 2.94287109375 0.0005340576171875 C 2.94598388671875 0.0004730224609375 2.948944091796875 0.0003814697265625 2.951995849609375 0.0003814697265625 C 2.9554443359375 0.000335693359375 2.95892333984375 0.000335693359375 2.9622802734375 0.0002288818359375 C 2.965423583984375 0.0001983642578125 2.96826171875 0.0001678466796875 2.971282958984375 0.0001373291015625 C 2.974578857421875 9.1552734375e-05 2.97802734375 4.57763671875e-05 2.98126220703125 6.103515625e-05 C 2.984710693359375 3.0517578125e-05 2.987762451171875 1.52587890625e-05 2.9913330078125 1.52587890625e-05 C 2.9942626953125 0 2.9970703125 0 3 0 Z" stroke="none" fill="#fff"/>
  </g>
  <text id="Drag_file_here_or_click_to_add" data-name="Drag file here or click to add" transform="translate(161 162)" fill="#919191" font-size="12" font-family="Montserrat-SemiBold, Montserrat" font-weight="600"><tspan x="-87.966" y="0">Drag file here or click to add</tspan></text>
  <g id="Group_34555" data-name="Group 34555" transform="translate(-690.999 -306.664)">
    <circle id="Ellipse_3223" data-name="Ellipse 3223" cx="9.317" cy="9.317" r="9.317" transform="translate(817.555 423.225) rotate(-45)" fill="#b7b7b7" opacity="0.2" style="mix-blend-mode: multiply;isolation: isolate"/>
    <g id="Bcg" transform="translate(803.585 330.209)">
      <path id="Path_12272" data-name="Path 12272" d="M667.89,682.954c.385-5.662,2-29.41,19.882-40.832,20.465-13.072,51.471-3.125,66.986,16.68,9.453,12.067,16.641,32.242,8.807,49.372C750.243,737.3,700.015,743.35,679.1,722.185,666.115,709.047,667.509,688.547,667.89,682.954Z" transform="translate(-667.653 -636.21)" fill="#fff"/>
      <circle id="Ellipse_3224" data-name="Ellipse 3224" cx="3.864" cy="3.864" r="3.864" transform="translate(57.85 1.788)" fill="#5673aa"/>
      <circle id="Ellipse_3225" data-name="Ellipse 3225" cx="2.229" cy="2.229" r="2.229" transform="translate(68.273 100.832) rotate(-45)" fill="#5673aa"/>
    </g>
    <g id="Lock" transform="translate(820.73 412.714)">
      <circle id="Ellipse_3226" data-name="Ellipse 3226" cx="9.317" cy="9.317" r="9.317" fill="#24c1a1"/>
      <g id="Group_32972" data-name="Group 32972" transform="translate(3.633 3.802)">
        <path id="Path_12292" data-name="Path 12292" d="M1252.331,3107.235l-1.8,1.7a4.13,4.13,0,0,0-.172,5.821l.333.353a4.129,4.129,0,0,0,5.82.172l1.8-1.7a.953.953,0,0,0,.04-1.347l-4.674-4.958A.953.953,0,0,0,1252.331,3107.235Z" transform="translate(-1249.242 -3105.013)" fill="#fff"/>
        <path id="Path_12293" data-name="Path 12293" d="M1389.556,3054.881l1.209-1.14a2.079,2.079,0,0,1,2.852,3.025l-1.209,1.14.785.833,1.209-1.14a3.224,3.224,0,1,0-4.422-4.692l-1.209,1.139Z" transform="translate(-1383.785 -3052.032)" fill="#fff"/>
        <path id="Path_12294" data-name="Path 12294" d="M1341.318,3210.6a.973.973,0,1,0-1.58-.368l-.606.572a.379.379,0,0,0,.519.551l.607-.572A.974.974,0,0,0,1341.318,3210.6Z" transform="translate(-1335.805 -3203.311)" fill="#52d1bd"/>
      </g>
    </g>
    <g id="Blue" transform="translate(841.563 351.249)">
      <path id="Path_12273" data-name="Path 12273" d="M1879.458,1381.369a1.824,1.824,0,0,1-.2-.011l-44.955-5.027a1.825,1.825,0,0,1-1.607-2.012l6.617-59.176a1.825,1.825,0,0,1,2.011-1.607l44.955,5.027a1.825,1.825,0,0,1,1.607,2.012l-6.618,59.176a1.826,1.826,0,0,1-1.807,1.618Zm-38.34-67.406a1.388,1.388,0,0,0-1.373,1.228l-6.618,59.176a1.387,1.387,0,0,0,1.22,1.527l44.955,5.027a1.387,1.387,0,0,0,1.527-1.22l6.617-59.176a1.387,1.387,0,0,0-1.22-1.527l-44.955-5.027A1.367,1.367,0,0,0,1841.118,1313.963Z" transform="translate(-1829.036 -1310.367)" fill="#344566"/>
      <g id="Group_32970" data-name="Group 32970" transform="translate(0)">
        <path id="Path_12274" data-name="Path 12274" d="M1775.386,1297.875l-43.54-12.267a1.606,1.606,0,0,1-1.107-1.975l16.147-57.314a1.606,1.606,0,0,1,1.975-1.107l43.54,12.267a1.606,1.606,0,0,1,1.107,1.975l-16.147,57.314A1.606,1.606,0,0,1,1775.386,1297.875Z" transform="translate(-1730.679 -1225.152)" fill="#5673aa"/>
        <path id="Path_12275" data-name="Path 12275" d="M2465.92,1560.317l-21.138-5.955a1.188,1.188,0,0,1-.819-1.461h0a1.188,1.188,0,0,1,1.461-.819l21.138,5.955a1.188,1.188,0,0,1,.819,1.461h0A1.188,1.188,0,0,1,2465.92,1560.317Z" transform="translate(-2418.437 -1540.358)" fill="#b3cef6"/>
        <path id="Path_12276" data-name="Path 12276" d="M2255.635,1701.357l-33.3-9.381a1.188,1.188,0,0,1-.819-1.461h0a1.188,1.188,0,0,1,1.461-.819l33.3,9.381a1.188,1.188,0,0,1,.819,1.461h0A1.188,1.188,0,0,1,2255.635,1701.357Z" transform="translate(-2203.941 -1673.057)" fill="#344566"/>
        <path id="Path_12277" data-name="Path 12277" d="M2214.239,1848.29l-33.3-9.381a1.188,1.188,0,0,1-.819-1.461h0a1.188,1.188,0,0,1,1.461-.819l33.3,9.381a1.188,1.188,0,0,1,.819,1.461h0A1.188,1.188,0,0,1,2214.239,1848.29Z" transform="translate(-2164.023 -1814.741)" fill="#344566"/>
        <path id="Path_12278" data-name="Path 12278" d="M2172.842,1995.224l-33.3-9.381a1.188,1.188,0,0,1-.819-1.461h0a1.188,1.188,0,0,1,1.461-.819l33.3,9.381a1.188,1.188,0,0,1,.819,1.461h0A1.188,1.188,0,0,1,2172.842,1995.224Z" transform="translate(-2124.105 -1956.425)" fill="#344566"/>
        <path id="Path_12279" data-name="Path 12279" d="M2131.445,2142.157l-33.3-9.381a1.188,1.188,0,0,1-.819-1.461h0a1.188,1.188,0,0,1,1.461-.819l33.3,9.381a1.188,1.188,0,0,1,.819,1.461h0A1.188,1.188,0,0,1,2131.445,2142.157Z" transform="translate(-2084.188 -2098.109)" fill="#344566"/>
        <path id="Path_12280" data-name="Path 12280" d="M2090.049,2289.091l-33.3-9.381a1.188,1.188,0,0,1-.819-1.461h0a1.188,1.188,0,0,1,1.461-.819l33.3,9.381a1.188,1.188,0,0,1,.819,1.461h0A1.188,1.188,0,0,1,2090.049,2289.091Z" transform="translate(-2044.27 -2239.793)" fill="#344566"/>
        <path id="Path_12281" data-name="Path 12281" d="M2048.652,2436.024l-33.3-9.381a1.188,1.188,0,0,1-.819-1.461h0a1.188,1.188,0,0,1,1.461-.819l33.3,9.381a1.188,1.188,0,0,1,.819,1.461h0A1.188,1.188,0,0,1,2048.652,2436.024Z" transform="translate(-2004.352 -2381.477)" fill="#344566"/>
        <path id="Path_12282" data-name="Path 12282" d="M2007.255,2582.958l-33.3-9.381a1.188,1.188,0,0,1-.819-1.461h0a1.188,1.188,0,0,1,1.461-.819l33.3,9.381a1.188,1.188,0,0,1,.819,1.461h0A1.188,1.188,0,0,1,2007.255,2582.958Z" transform="translate(-1964.434 -2523.162)" fill="#b3cef6"/>
        <path id="Path_12283" data-name="Path 12283" d="M1965.859,2729.891l-33.3-9.381a1.188,1.188,0,0,1-.819-1.461h0a1.188,1.188,0,0,1,1.461-.819l33.3,9.381a1.188,1.188,0,0,1,.819,1.461h0A1.188,1.188,0,0,1,1965.859,2729.891Z" transform="translate(-1924.517 -2664.845)" fill="#344566"/>
      </g>
    </g>
    <g id="Yellow" transform="translate(799 333.736)">
      <path id="Path_12274-2" data-name="Path 12274" d="M564.986,811.6h-.007c-.066,0-.125,0-.18-.007l-.024,0h-.008c-.05,0-.1-.012-.153-.021l-.011,0-.041-.007c-.055-.011-.11-.024-.163-.039l-.046-.014-.01,0c-.043-.013-.086-.028-.128-.043h0l-.058-.022c-.043-.018-.086-.037-.131-.059l-.065-.033c-.051-.027-.094-.052-.134-.076l-.058-.038-.017-.012c-.028-.019-.057-.039-.084-.059l-.066-.052c-.029-.024-.059-.049-.092-.079l-.012-.011-.038-.035c-.048-.046-.09-.091-.13-.137l-.017-.021,0,0c-.034-.041-.069-.085-.1-.13l-.033-.047,0,0c-.027-.039-.053-.081-.077-.123l-.007-.012-.023-.04c-.036-.065-.065-.124-.09-.182l-.136-.312L539.494,756.33c-.027-.062-.051-.127-.075-.2-.005-.015-.009-.03-.013-.046l-.005-.018c-.012-.041-.025-.088-.036-.137,0-.02-.008-.039-.012-.059l0-.017c-.009-.049-.016-.09-.02-.128s-.006-.053-.008-.079c0-.042-.006-.084-.007-.125s0-.053,0-.079,0-.078,0-.124v-.014c0-.022,0-.043,0-.065,0-.044.011-.086.017-.122l0-.02c0-.019.006-.038.009-.056.008-.039.017-.075.025-.109l0-.009a2.184,2.184,0,0,1,.093-.289l.014-.031,0-.009c.026-.061.051-.114.077-.163l.024-.042.009-.016c.029-.052.056-.094.083-.135.013-.019.027-.039.041-.058l0-.005c.03-.042.06-.081.091-.118l.054-.063c.03-.034.063-.068.1-.1l.005-.005.057-.054c.041-.036.082-.07.114-.095l.016-.013.05-.039c.046-.033.092-.062.134-.088l.017-.011.046-.029a2.175,2.175,0,0,1,.213-.107l42.109-18.324a2.179,2.179,0,0,1,.224-.083l.052-.014.02-.005c.046-.013.1-.027.155-.038l.065-.011.021,0c.045-.007.093-.014.144-.019l.077,0h.011c.052,0,.1,0,.142,0l.087,0c.045,0,.092.007.142.013h0l.078.011c.045.007.091.017.147.03l.018,0,.054.013c.05.013.1.03.163.052l.013,0,.036.013a2.169,2.169,0,0,1,.28.132l.012.007c.028.015.057.031.087.05l.046.031.017.011c.033.022.068.046.1.074l.05.04.008.007c.036.03.068.057.1.084l.054.052c.03.03.06.061.089.094l.05.058c.026.031.051.064.081.1l.01.014.034.047c.028.04.053.082.076.12l.01.016.025.041c.037.066.067.128.094.19l23.48,53.957c.025.057.048.117.071.189l.013.043,0,.014c.014.046.026.093.037.14l0,.01c0,.017.008.033.011.05.011.054.019.109.026.163v.006c0,.008,0,.017,0,.025.007.062.01.123.011.19,0,.016,0,.033,0,.051v.017c0,.044,0,.083,0,.12s0,.056-.007.084-.008.067-.014.1a2.209,2.209,0,0,1-.074.323l-.012.036,0,.015c-.021.061-.044.12-.069.177-.008.019-.017.039-.026.059h0c-.027.056-.056.112-.091.171l-.007.012-.018.032a2.171,2.171,0,0,1-.141.2l-.015.018c-.044.055-.093.109-.145.162l-.041.039-.014.013c-.042.04-.086.078-.128.113l-.068.053c-.043.032-.09.064-.143.1l-.017.011-.049.03a2.189,2.189,0,0,1-.226.116l-42.109,18.324c-.056.024-.117.047-.187.071l-.006,0-.034.011c-.062.019-.124.036-.184.049l-.024,0-.01,0c-.059.012-.115.021-.17.027h-.007l-.023,0c-.058.006-.117.01-.183.011Zm18.629-76.219-.088,0h-.011l-.059,0c-.038,0-.078.009-.115.015l-.024,0-.044.007c-.041.008-.085.02-.124.031l-.031.008-.027.007a1.755,1.755,0,0,0-.18.066L540.8,753.852a1.777,1.777,0,0,0-.171.086l-.024.015-.026.017c-.036.022-.074.046-.108.07l-.034.026-.02.016c-.028.022-.06.048-.091.075l-.045.042-.005,0c-.03.03-.057.057-.081.084l-.043.05c-.024.029-.048.06-.073.094l0,.006-.031.045c-.021.031-.042.066-.066.108l-.012.02-.015.026c-.02.038-.04.08-.061.13l-.01.023,0,.01a1.734,1.734,0,0,0-.074.232l0,.01c-.008.03-.015.058-.02.085,0,.012,0,.024-.006.036l0,.026c0,.03-.01.065-.013.1,0,.016,0,.031,0,.047v.015c0,.038,0,.07,0,.1s0,.042,0,.063,0,.066.006.1,0,.042.007.064.009.061.016.1l0,.019c0,.014,0,.028.008.042.008.036.019.074.029.109l.007.027c0,.008,0,.017.007.025.019.058.038.11.06.159l23.48,53.957c.02.045.043.092.072.145l.016.028.008.014c.02.034.041.067.062.1l0,0,.025.037c.026.036.053.071.081.1l.013.017,0,0c.03.035.064.071.1.108l.025.023.015.013c.026.024.05.044.073.063l.053.041.067.047.019.013.041.027c.031.019.066.039.107.061l.052.026c.037.018.071.033.1.047l.046.018c.036.014.071.025.105.036l.011,0,.035.01c.043.012.087.022.131.031l.028,0,.013,0c.042.007.083.013.123.017l.017,0h.009c.042,0,.089.005.143.005h.038c.053,0,.1,0,.146-.009l.024,0c.044-.005.089-.013.136-.022l.028-.005c.048-.01.1-.023.147-.039l.026-.008.006,0c.058-.019.106-.037.15-.057l42.109-18.324a1.764,1.764,0,0,0,.181-.093l.031-.019.022-.014c.044-.027.081-.053.115-.078l.053-.042c.034-.028.068-.057.1-.09l.017-.016.026-.025a1.715,1.715,0,0,0,.118-.132l.013-.015a1.741,1.741,0,0,0,.11-.158l.008-.014.012-.021c.028-.047.052-.092.073-.136h0c.007-.016.014-.031.021-.047.02-.046.039-.093.055-.141l.006-.018.008-.023a1.775,1.775,0,0,0,.06-.259c0-.027.008-.053.011-.08s0-.045.006-.067,0-.061,0-.1v-.02c0-.011,0-.022,0-.033,0-.054,0-.1-.009-.151v0l0-.02c-.005-.043-.012-.087-.021-.13,0-.013-.005-.025-.008-.037l0-.011c-.008-.037-.018-.075-.03-.112l0-.016-.009-.03c-.019-.059-.037-.107-.057-.152l-23.48-53.957c-.021-.049-.046-.1-.076-.152l-.013-.022-.014-.023c-.022-.037-.041-.068-.06-.1l-.024-.034-.012-.016c-.024-.033-.045-.059-.064-.083l-.041-.046c-.023-.026-.047-.051-.071-.074l-.044-.042c-.022-.021-.047-.042-.078-.067l-.01-.008-.037-.03c-.026-.02-.055-.04-.083-.058l-.022-.015-.029-.019c-.021-.013-.044-.025-.066-.038l-.013-.007a1.752,1.752,0,0,0-.225-.106l-.014,0-.025-.008c-.051-.018-.092-.031-.131-.042l-.035-.008-.022-.005c-.046-.011-.083-.018-.118-.024l-.061-.008h0c-.04,0-.077-.008-.113-.01l-.07,0Z" transform="translate(-539.313 -734.945)" fill="#344566"/>
      <path id="Path_12275-2" data-name="Path 12275" d="M690.746,900.8l.032-.049q.046-.072.086-.147c.008-.014.016-.029.023-.043a1.978,1.978,0,0,0,.112-.277c.009-.029.018-.058.026-.087s.013-.049.018-.073.015-.07.021-.106c0-.02.007-.04.01-.06.008-.056.014-.112.017-.169,0-.009,0-.019,0-.028q0-.074,0-.149c0-.018,0-.037,0-.055q0-.065-.013-.13c0-.018,0-.035-.007-.053-.01-.06-.021-.119-.037-.179l-.085-.328h0l-14.467-55.938h0l-.182-.7c-.016-.062-.035-.123-.057-.182-.007-.019-.015-.037-.023-.056-.016-.04-.032-.08-.05-.118-.01-.021-.021-.04-.031-.06-.018-.035-.037-.07-.057-.1l-.037-.058c-.021-.033-.043-.064-.066-.1l-.041-.054c-.024-.031-.049-.06-.075-.089l-.045-.049c-.027-.028-.054-.054-.082-.08s-.033-.031-.05-.046-.053-.043-.08-.064a1.976,1.976,0,0,0-.231-.157l-.041-.022c-.045-.025-.091-.048-.138-.069l-.062-.025c-.042-.017-.084-.033-.127-.047l-.072-.022c-.041-.012-.083-.023-.125-.032l-.077-.015c-.042-.007-.084-.013-.127-.018l-.079-.008c-.043,0-.087,0-.131,0h-.077c-.047,0-.1.007-.143.012l-.067.007a2.011,2.011,0,0,0-.211.042l-44.461,11.5a2,2,0,0,0-.2.065c-.021.008-.041.018-.061.026-.045.019-.089.038-.132.059l-.067.037c-.039.022-.077.044-.114.068l-.064.044c-.036.025-.071.051-.1.079l-.057.048c-.034.03-.066.06-.1.092l-.049.05c-.032.035-.063.071-.092.108-.013.016-.026.031-.038.047-.033.043-.063.088-.091.134l-.022.033a1.981,1.981,0,0,0-.124.245c-.014.033-.029.066-.041.1s-.015.045-.022.067-.023.07-.032.106-.011.046-.016.069-.016.072-.022.109-.007.047-.01.071-.008.074-.011.112,0,.047,0,.071,0,.077,0,.116c0,.023,0,.046,0,.069,0,.042.008.084.013.127,0,.02,0,.04.007.06.01.062.022.125.038.187l.182.705h0l14.466,55.935h0l.085.33c.015.06.034.117.055.174.006.017.013.033.019.05q.024.061.051.12l.024.05c.023.045.046.088.072.13l.014.025c.03.048.063.095.1.14.012.016.025.032.038.048s.046.056.07.083l.051.055c.021.022.044.043.066.064s.04.038.06.056.071.058.107.086l.054.039c.035.025.071.048.107.07l.053.031q.052.03.107.056l.048.023q.069.031.14.057l.044.015q.065.022.132.04l.029.008c.052.013.105.023.158.031l.042.006c.054.008.109.013.164.016h.028q.076,0,.154,0h.032c.056,0,.113-.009.17-.017l.037-.006c.059-.01.118-.021.177-.036l44.461-11.5a1.982,1.982,0,0,0,.217-.071l.065-.028c.048-.021.1-.043.141-.067l.067-.037c.045-.026.088-.053.13-.082l.056-.039a1.971,1.971,0,0,0,.154-.126l.013-.011a1.945,1.945,0,0,0,.153-.159l.029-.036C690.679,900.9,690.714,900.852,690.746,900.8Z" transform="translate(-624.793 -836.973)" fill="#6c6c6c" opacity="0.2" style="mix-blend-mode: multiply;isolation: isolate"/>
      <g id="Group_32971" data-name="Group 32971" transform="translate(3.416 2.124)">
        <path id="Path_12286" data-name="Path 12286" d="M683.268,795.884,698,852.854a1.972,1.972,0,0,1-1.414,2.4l-44.461,11.5a1.971,1.971,0,0,1-2.4-1.414l-14.734-56.97a1.97,1.97,0,0,1,1.414-2.4l44.461-11.5a1.97,1.97,0,0,1,2.4,1.414Z" transform="translate(-634.93 -794.407)" fill="#ffc06e"/>
        <path id="Path_12287" data-name="Path 12287" d="M683.269,795.881l.182.7-2.2,6.836L660.9,808.956l-20.489,5.029-5.233-4.914-.182-.705a1.969,1.969,0,0,1,1.414-2.4l44.461-11.5A1.969,1.969,0,0,1,683.269,795.881Z" transform="translate(-634.931 -794.405)" fill="#d89444"/>
        <path id="Path_12288" data-name="Path 12288" d="M1094.994,2327.268l.085.328a1.97,1.97,0,0,1-1.414,2.4l-44.461,11.5a1.97,1.97,0,0,1-2.4-1.414l-.085-.329,1.525-4.47a1.23,1.23,0,0,1,.841-.777l41.295-10.68a1.238,1.238,0,0,1,1.114.272Z" transform="translate(-1032.007 -2269.149)" fill="#d89444"/>
        <path id="Path_12289" data-name="Path 12289" d="M1113.968,2328.861a1.965,1.965,0,0,1-1.356,1.231l-44.461,11.5a1.966,1.966,0,0,1-1.783-.419l.928-5.764a1,1,0,0,1,.735-.808l41.295-10.68a1,1,0,0,1,1.036.35Z" transform="translate(-1050.954 -2269.245)" fill="#ffad43"/>
        <path id="Path_12290" data-name="Path 12290" d="M687.559,794.78,686.33,803.3a.6.6,0,0,1-.446.5L646,814.116a.6.6,0,0,1-.633-.219l-5.207-6.857a1.966,1.966,0,0,1,1.29-1.071l44.461-11.5A1.965,1.965,0,0,1,687.559,794.78Z" transform="translate(-639.975 -794.407)" fill="#ffad43"/>
        <path id="Path_12291" data-name="Path 12291" d="M1273.416,1052.546a1.871,1.871,0,0,1-1.809-1.4l-3.923-15.171a1.873,1.873,0,0,1,1.341-2.276l.908-.235a1.87,1.87,0,0,1,2.276,1.341l3.923,15.171a1.873,1.873,0,0,1-1.341,2.276h0l-.908.235A1.865,1.865,0,0,1,1273.416,1052.546Zm-3.016-18.609a1.334,1.334,0,0,0-.334.043l-.908.235a1.339,1.339,0,0,0-.958,1.626l3.923,15.171a1.336,1.336,0,0,0,1.626.958l.908-.235a1.339,1.339,0,0,0,.958-1.626l-3.923-15.171A1.337,1.337,0,0,0,1270.4,1033.938Z" transform="translate(-1245.02 -1024.865)" fill="#444"/>
        <circle id="Ellipse_3223-2" data-name="Ellipse 3223" cx="2.609" cy="2.609" r="2.609" transform="translate(21.333 10.897) rotate(-45)" fill="#fff"/>
        <circle id="Ellipse_3224-2" data-name="Ellipse 3224" cx="2.609" cy="2.609" r="2.609" transform="translate(26.244 23.102)" fill="#fff"/>
      </g>
    </g>
    <g id="Whitepaper" transform="translate(836.595 348.313)">
      <path id="Path_12276-2" data-name="Path 12276" d="M1676.971,1177.591l-36.524-3.807a2.6,2.6,0,0,0-2.86,2.32l-5.969,57.265a2.6,2.6,0,0,0,2.32,2.86l44.414,4.629a2.6,2.6,0,0,0,2.86-2.32l5.146-49.376Z" transform="translate(-1630.175 -1172.669)" fill="#6c6c6c" opacity="0.25" style="mix-blend-mode: multiply;isolation: isolate"/>
      <g id="Group_32973" data-name="Group 32973">
        <path id="Path_12296" data-name="Path 12296" d="M1636.983,1146.785l-36.524-3.807a2.6,2.6,0,0,0-2.86,2.32l-5.969,57.265a2.6,2.6,0,0,0,2.32,2.86l44.414,4.629a2.6,2.6,0,0,0,2.86-2.32l5.146-49.376Z" transform="translate(-1591.615 -1142.964)" fill="#fff"/>
        <path id="Path_12297" data-name="Path 12297" d="M2838.078,1257.807a2.6,2.6,0,0,0,2.32,2.86l7.889.822-9.387-11.572Z" transform="translate(-2793.532 -1246.097)" fill="#ededed"/>
        <path id="Path_12298" data-name="Path 12298" d="M2891.991,1548.7l8.159,2.226.138-1.328Z" transform="translate(-2845.534 -1534.2)" fill="#cecece"/>
        <path id="Path_12299" data-name="Path 12299" d="M2106.964,1472.344l-22.335-2.328a1.1,1.1,0,0,1-.981-1.209h0a1.1,1.1,0,0,1,1.209-.981l22.336,2.328a1.1,1.1,0,0,1,.981,1.209h0A1.1,1.1,0,0,1,2106.964,1472.344Z" transform="translate(-2066.063 -1456.215)" fill="#24c1a1"/>
        <path id="Path_12300" data-name="Path 12300" d="M1895.692,1660.617l-36.925-3.849a1.1,1.1,0,0,1-.981-1.209h0a1.1,1.1,0,0,1,1.209-.981l36.925,3.849a1.1,1.1,0,0,1,.981,1.209h0A1.1,1.1,0,0,1,1895.692,1660.617Z" transform="translate(-1848.272 -1636.295)" fill="#eee"/>
        <path id="Path_12301" data-name="Path 12301" d="M1879.43,1816.641l-36.925-3.849a1.1,1.1,0,0,1-.981-1.209h0a1.1,1.1,0,0,1,1.209-.981l36.925,3.849a1.1,1.1,0,0,1,.981,1.209h0A1.1,1.1,0,0,1,1879.43,1816.641Z" transform="translate(-1832.591 -1786.744)" fill="#eee"/>
        <path id="Path_12302" data-name="Path 12302" d="M1863.168,1972.666l-36.925-3.849a1.1,1.1,0,0,1-.981-1.209h0a1.1,1.1,0,0,1,1.209-.981l36.925,3.849a1.1,1.1,0,0,1,.981,1.209h0A1.1,1.1,0,0,1,1863.168,1972.666Z" transform="translate(-1816.909 -1937.195)" fill="#eee"/>
        <path id="Path_12303" data-name="Path 12303" d="M1846.906,2128.69l-36.925-3.848a1.1,1.1,0,0,1-.981-1.209h0a1.1,1.1,0,0,1,1.209-.981l36.925,3.849a1.1,1.1,0,0,1,.981,1.209h0A1.1,1.1,0,0,1,1846.906,2128.69Z" transform="translate(-1801.229 -2087.645)" fill="#eee"/>
        <path id="Path_12304" data-name="Path 12304" d="M1830.643,2284.714l-36.925-3.849a1.1,1.1,0,0,1-.981-1.209h0a1.1,1.1,0,0,1,1.209-.981l36.925,3.849a1.1,1.1,0,0,1,.981,1.209h0A1.1,1.1,0,0,1,1830.643,2284.714Z" transform="translate(-1785.546 -2238.095)" fill="#eee"/>
        <path id="Path_12305" data-name="Path 12305" d="M1814.381,2440.739l-36.925-3.849a1.1,1.1,0,0,1-.981-1.209h0a1.1,1.1,0,0,1,1.209-.981l36.925,3.849a1.1,1.1,0,0,1,.981,1.209h0A1.1,1.1,0,0,1,1814.381,2440.739Z" transform="translate(-1769.865 -2388.546)" fill="#eee"/>
        <path id="Path_12306" data-name="Path 12306" d="M2282.653,2672.407a.211.211,0,0,0-.346-.166,3.5,3.5,0,0,1-.629.433l-.33.131q-.328.172-.366-.274a.208.208,0,0,0-.277-.309,1.4,1.4,0,0,1-.952.445,1.165,1.165,0,0,1-.332-.113,1.4,1.4,0,0,0,.206-.194.211.211,0,0,0,.012-.209,2.621,2.621,0,0,0-.228-.431,7.9,7.9,0,0,0,1.935-3.042.209.209,0,0,0-.335-.221,6.49,6.49,0,0,0-1.886,2.1,1.527,1.527,0,0,0-.235.957,1.03,1.03,0,0,0,.028.1,6.646,6.646,0,0,1-.641.533,3.447,3.447,0,0,1-.981.509c-.255.08-.639.2-.815-.045.58-.325,1.048-.785.8-1.359-.375-.863-1.271.439-1.318,1.166a4.763,4.763,0,0,1-.882.3.208.208,0,0,0,.088.406,5.915,5.915,0,0,0,.891-.3c.492.866,2.047-.02,2.571-.415.156-.117.311-.246.463-.383.119.213.127.177-.17.378a.211.211,0,0,0,.028.382,2.125,2.125,0,0,0,1.015.3,1.147,1.147,0,0,0,.323-.094.2.2,0,0,0,.083.141,1.713,1.713,0,0,0,1.84-.3,2.769,2.769,0,0,1-.948,1.69,3.125,3.125,0,0,1-2.709.307c-.259-.051-.394.342-.133.393a3.675,3.675,0,0,0,2.961-.27A3.1,3.1,0,0,0,2282.653,2672.407Zm-6.013-.755c.321-.249.1.223-.01.338a1.447,1.447,0,0,1-.241.191A1.135,1.135,0,0,1,2276.64,2671.652Zm2.7-.584a3.054,3.054,0,0,1,.557-.944,6.073,6.073,0,0,1,.74-.816,7.952,7.952,0,0,1-1.323,1.909A1.229,1.229,0,0,1,2279.343,2671.068Z" transform="translate(-2250.511 -2613.914)" fill="#eee"/>
        <path id="Path_12307" data-name="Path 12307" d="M2614.193,2693.545a3.976,3.976,0,1,1,4.551-3.3A3.981,3.981,0,0,1,2614.193,2693.545Zm1.112-7.005a3.117,3.117,0,1,0,2.59,3.566A3.12,3.12,0,0,0,2615.3,2686.54Z" transform="translate(-2574.427 -2630.527)" fill="#eee"/>
        <path id="Path_12308" data-name="Path 12308" d="M2677.829,2718.536l-.039.006a9.444,9.444,0,0,0-1.33.32l-.632.206-.606.241a17.476,17.476,0,0,0-2.3,1.136,18.8,18.8,0,0,0-2.121,1.382c-.382.278-.75.575-1.111.882-.205-.189-.417-.373-.638-.55-.295-.258-.628-.488-.953-.724a9.673,9.673,0,0,0-1.067-.641l-.035-.018a.081.081,0,0,0-.1.118c.862,1.262,1.751,2.5,2.641,3.746a.15.15,0,0,0,.208.033c1.375-.975,2.742-1.959,4.093-2.968l2.034-1.5c.682-.5,1.345-1.016,2.018-1.524a.081.081,0,0,0-.061-.144Z" transform="translate(-2629.116 -2664.037)" fill="#24c1a1"/>
      </g>
    </g>
  </g>
</svg>
