<svg xmlns="http://www.w3.org/2000/svg" width="186" height="177" viewBox="0 0 186 177">
  <g id="Rectangle_1713" data-name="Rectangle 1713" fill="#f3f3f3" stroke="#fff" stroke-width="2" stroke-dasharray="4 5">
    <rect width="186" height="177" rx="3" stroke="none"/>
    <rect x="1" y="1" width="184" height="175" rx="2" fill="none"/>
  </g>
  <text id="Drag_file_here_or_click_to_add" data-name="Drag file here
or click to add" transform="translate(93 147)" fill="#919191" font-size="12" font-family="Montserrat-SemiBold, Montserrat" font-weight="600"><tspan x="-42.534" y="0">Drag file here</tspan><tspan x="-43.776" y="15">or click to add</tspan></text>
  <g id="Group_34556" data-name="Group 34556" transform="translate(-751 -306.709)">
    <circle id="Ellipse_3223" data-name="Ellipse 3223" cx="7.996" cy="7.996" r="7.996" transform="translate(814.892 409.9) rotate(-45)" fill="#b7b7b7" opacity="0.2" style="mix-blend-mode: multiply;isolation: isolate"/>
    <g id="Bcg" transform="translate(802.935 330.209)">
      <path id="Path_12272" data-name="Path 12272" d="M667.856,676.262c.33-4.851,1.714-25.2,17.036-34.986,17.535-11.2,44.1-2.678,57.4,14.292,8.1,10.339,14.258,27.626,7.546,42.3-11.414,24.958-54.452,30.14-72.375,12C666.335,698.619,667.53,681.054,667.856,676.262Z" transform="translate(-667.653 -636.21)" fill="#fff"/>
      <circle id="Ellipse_3224" data-name="Ellipse 3224" cx="3.316" cy="3.316" r="3.316" transform="translate(49.562 1.534)" fill="#5673aa"/>
      <circle id="Ellipse_3225" data-name="Ellipse 3225" cx="1.913" cy="1.913" r="1.913" transform="translate(58.494 86.4) rotate(-45)" fill="#5673aa"/>
    </g>
    <g id="Lock" transform="translate(817.615 400.88)">
      <circle id="Ellipse_3226" data-name="Ellipse 3226" cx="7.996" cy="7.996" r="7.996" fill="#24c1a1"/>
      <g id="Group_32972" data-name="Group 32972" transform="translate(3.118 3.263)">
        <path id="Path_12292" data-name="Path 12292" d="M1251.894,3107.2l-1.546,1.457a3.544,3.544,0,0,0-.148,4.995l.286.3a3.544,3.544,0,0,0,5,.148l1.546-1.457a.818.818,0,0,0,.034-1.156l-4.011-4.255A.818.818,0,0,0,1251.894,3107.2Z" transform="translate(-1249.242 -3105.291)" fill="#fff"/>
        <path id="Path_12293" data-name="Path 12293" d="M1389.444,3054.477l1.038-.978a1.784,1.784,0,0,1,2.447,2.6l-1.038.978.674.715,1.038-.979a2.766,2.766,0,1,0-3.8-4.026l-1.038.978Z" transform="translate(-1384.492 -3052.032)" fill="#fff"/>
        <path id="Path_12294" data-name="Path 12294" d="M1340.991,3210.359a.835.835,0,1,0-1.356-.316l-.521.49a.325.325,0,1,0,.446.473l.52-.491A.835.835,0,0,0,1340.991,3210.359Z" transform="translate(-1336.26 -3204.106)" fill="#52d1bd"/>
      </g>
    </g>
    <g id="Blue" transform="translate(835.393 348.13)">
      <path id="Path_12273" data-name="Path 12273" d="M1872.825,1371.749a1.569,1.569,0,0,1-.175-.01l-38.581-4.314a1.566,1.566,0,0,1-1.379-1.726l5.679-50.785a1.566,1.566,0,0,1,1.726-1.379l38.581,4.314a1.567,1.567,0,0,1,1.379,1.727l-5.679,50.785a1.568,1.568,0,0,1-1.551,1.389Zm-32.9-57.848a1.19,1.19,0,0,0-1.178,1.054l-5.679,50.785a1.19,1.19,0,0,0,1.047,1.31l38.581,4.314a1.19,1.19,0,0,0,1.311-1.047l5.679-50.785a1.19,1.19,0,0,0-1.047-1.311l-38.581-4.314A1.179,1.179,0,0,0,1839.922,1313.9Z" transform="translate(-1829.553 -1310.815)" fill="#344566"/>
      <g id="Group_32970" data-name="Group 32970" transform="translate(0)">
        <path id="Path_12274" data-name="Path 12274" d="M1769.047,1287.563l-37.366-10.527a1.378,1.378,0,0,1-.95-1.7l13.858-49.187a1.378,1.378,0,0,1,1.7-.95l37.367,10.528a1.378,1.378,0,0,1,.95,1.7l-13.858,49.187A1.378,1.378,0,0,1,1769.047,1287.563Z" transform="translate(-1730.679 -1225.152)" fill="#5673aa"/>
        <path id="Path_12275" data-name="Path 12275" d="M2462.8,1559.143l-18.141-5.111a1.02,1.02,0,0,1-.7-1.254h0a1.02,1.02,0,0,1,1.254-.7l18.141,5.111a1.019,1.019,0,0,1,.7,1.254h0A1.019,1.019,0,0,1,2462.8,1559.143Z" transform="translate(-2422.05 -1542.014)" fill="#b3cef6"/>
        <path id="Path_12276" data-name="Path 12276" d="M2250.792,1699.7l-28.575-8.051a1.02,1.02,0,0,1-.7-1.254h0a1.019,1.019,0,0,1,1.254-.7l28.576,8.051a1.02,1.02,0,0,1,.7,1.254h0A1.02,1.02,0,0,1,2250.792,1699.7Z" transform="translate(-2206.427 -1675.41)" fill="#344566"/>
        <path id="Path_12277" data-name="Path 12277" d="M2209.4,1846.631l-28.575-8.051a1.019,1.019,0,0,1-.7-1.254h0a1.019,1.019,0,0,1,1.254-.7l28.575,8.051a1.019,1.019,0,0,1,.7,1.254h0A1.019,1.019,0,0,1,2209.4,1846.631Z" transform="translate(-2166.3 -1817.838)" fill="#344566"/>
        <path id="Path_12278" data-name="Path 12278" d="M2168,1993.565l-28.575-8.051a1.019,1.019,0,0,1-.7-1.254h0a1.019,1.019,0,0,1,1.254-.7l28.576,8.051a1.02,1.02,0,0,1,.7,1.254h0A1.02,1.02,0,0,1,2168,1993.565Z" transform="translate(-2126.172 -1960.267)" fill="#344566"/>
        <path id="Path_12279" data-name="Path 12279" d="M2126.6,2140.5l-28.575-8.051a1.02,1.02,0,0,1-.7-1.254h0a1.02,1.02,0,0,1,1.254-.7l28.576,8.051a1.02,1.02,0,0,1,.7,1.254h0A1.02,1.02,0,0,1,2126.6,2140.5Z" transform="translate(-2086.045 -2102.695)" fill="#344566"/>
        <path id="Path_12280" data-name="Path 12280" d="M2085.205,2287.432l-28.575-8.051a1.019,1.019,0,0,1-.7-1.254h0a1.02,1.02,0,0,1,1.254-.7l28.576,8.051a1.02,1.02,0,0,1,.7,1.254h0A1.02,1.02,0,0,1,2085.205,2287.432Z" transform="translate(-2045.918 -2245.124)" fill="#344566"/>
        <path id="Path_12281" data-name="Path 12281" d="M2043.808,2434.365l-28.576-8.051a1.02,1.02,0,0,1-.7-1.254h0a1.02,1.02,0,0,1,1.254-.7l28.576,8.051a1.02,1.02,0,0,1,.7,1.254h0A1.02,1.02,0,0,1,2043.808,2434.365Z" transform="translate(-2005.79 -2387.552)" fill="#344566"/>
        <path id="Path_12282" data-name="Path 12282" d="M2002.411,2581.3l-28.576-8.051a1.02,1.02,0,0,1-.7-1.254h0a1.02,1.02,0,0,1,1.254-.7l28.576,8.051a1.019,1.019,0,0,1,.7,1.254h0A1.019,1.019,0,0,1,2002.411,2581.3Z" transform="translate(-1965.662 -2529.981)" fill="#b3cef6"/>
        <path id="Path_12283" data-name="Path 12283" d="M1961.015,2728.232l-28.576-8.051a1.02,1.02,0,0,1-.7-1.254h0a1.019,1.019,0,0,1,1.254-.7l28.576,8.051a1.019,1.019,0,0,1,.7,1.254h0A1.019,1.019,0,0,1,1961.015,2728.232Z" transform="translate(-1925.536 -2672.409)" fill="#344566"/>
      </g>
    </g>
    <g id="Yellow" transform="translate(799 333.236)">
      <path id="Path_12274-2" data-name="Path 12274" d="M561.345,800.733h-.006c-.057,0-.107,0-.154-.006l-.021,0h-.007c-.042,0-.087-.01-.131-.018l-.009,0-.035-.006c-.047-.009-.094-.02-.14-.033l-.04-.012-.009,0c-.037-.011-.074-.024-.11-.037h0l-.05-.019c-.037-.015-.074-.032-.113-.051l-.056-.028c-.043-.023-.081-.044-.115-.065l-.049-.033-.015-.01-.072-.051-.056-.044c-.025-.02-.051-.043-.079-.068l-.01-.009-.032-.03c-.041-.039-.077-.078-.112-.117l-.015-.018,0,0c-.03-.035-.059-.073-.087-.111l-.028-.041,0,0c-.023-.034-.045-.069-.066-.105l-.006-.01-.02-.034c-.031-.056-.056-.107-.077-.156l-.117-.268L539.468,753.3c-.023-.053-.044-.109-.064-.17,0-.013-.008-.026-.012-.039l0-.016c-.01-.035-.022-.076-.031-.118,0-.017-.007-.034-.01-.051l0-.015c-.008-.042-.013-.077-.017-.109s-.005-.045-.007-.068-.005-.072-.006-.107,0-.045,0-.068,0-.067,0-.107v-.012c0-.019,0-.037,0-.056,0-.038.009-.074.014-.105l0-.017c0-.016,0-.032.008-.048.007-.034.014-.064.022-.094l0-.008a1.873,1.873,0,0,1,.08-.248l.012-.027,0-.008c.023-.052.044-.1.066-.14l.02-.036.008-.014c.025-.044.048-.081.071-.116l.035-.05,0,0c.026-.036.052-.069.078-.1l.047-.054c.026-.029.054-.058.087-.09l0,0,.049-.046c.035-.031.07-.06.1-.081l.014-.011.043-.033c.039-.028.079-.053.115-.076l.015-.009.04-.025a1.864,1.864,0,0,1,.183-.092L576.58,735.1a1.89,1.89,0,0,1,.192-.071l.044-.012.018,0c.04-.011.085-.023.133-.033l.056-.009.018,0c.039-.006.08-.012.124-.016l.066,0h.009c.045,0,.084,0,.122,0l.075,0c.039,0,.079.006.122.011h0l.067.009c.038.006.078.014.126.026l.016,0,.047.011c.043.012.087.026.14.044l.011,0,.031.011a1.877,1.877,0,0,1,.241.113l.01.006c.024.013.049.027.075.043l.039.026.014.01c.028.019.059.04.089.063l.043.034.007.006c.031.025.059.049.084.072l.046.045c.026.026.052.053.077.08l.043.049c.022.026.044.055.07.089l.009.012.029.041c.024.035.045.07.065.1l.009.014.021.035c.031.057.058.11.081.163L599.2,782.379c.021.049.041.1.061.163l.011.037,0,.012c.012.04.023.08.032.12l0,.009c0,.014.007.028.009.043.009.046.017.093.022.14v.005c0,.007,0,.014,0,.021.006.053.009.106.01.163,0,.014,0,.029,0,.043v.015c0,.038,0,.071,0,.1s0,.048-.006.072-.007.057-.012.086a1.888,1.888,0,0,1-.064.277l-.011.031,0,.013c-.018.052-.038.1-.059.152l-.023.05h0c-.023.048-.048.1-.078.146l-.006.01-.016.028a1.859,1.859,0,0,1-.121.173l-.013.015c-.038.047-.08.094-.124.139l-.035.034-.012.011c-.036.035-.073.067-.11.1l-.058.045c-.037.028-.078.055-.123.084l-.015.009-.042.026a1.9,1.9,0,0,1-.194.1l-36.139,15.726c-.048.021-.1.041-.161.061l0,0-.029.01c-.053.017-.106.031-.157.042l-.021,0-.008,0c-.05.01-.1.018-.146.023h-.006l-.02,0c-.049.005-.1.008-.157.009Zm15.987-65.411-.075,0h-.01l-.051,0c-.033,0-.067.008-.1.013l-.02,0-.038.006c-.035.007-.073.017-.106.026l-.026.007-.023.006a1.521,1.521,0,0,0-.154.057l-36.139,15.726a1.519,1.519,0,0,0-.146.074l-.021.013-.022.014c-.031.019-.063.039-.092.06l-.029.022-.017.013c-.024.019-.052.041-.078.065l-.038.036,0,0c-.026.025-.049.049-.069.072l-.037.043c-.021.025-.041.051-.062.081l0,0-.027.038c-.018.027-.036.056-.057.093l-.01.017-.013.023c-.017.032-.034.069-.053.111l-.009.02,0,.008a1.471,1.471,0,0,0-.064.2l0,.008c-.006.026-.013.05-.017.073s0,.02,0,.031l0,.022c0,.026-.009.056-.011.084s0,.027,0,.041v.013c0,.032,0,.06,0,.085s0,.036,0,.054,0,.057.005.086,0,.036.006.055.008.052.014.087l0,.016c0,.012,0,.024.007.036.007.031.016.064.025.094l.006.023c0,.007,0,.014.006.021.016.05.033.094.051.136l20.15,46.306c.017.038.037.079.062.125l.014.024.007.012c.017.029.035.057.053.084l0,0,.022.031c.022.031.045.061.069.089l.011.014,0,0c.026.03.055.061.088.092l.022.02.013.011c.022.02.043.038.063.054l.045.036.058.041.017.011.035.023c.027.017.057.034.092.052l.045.022c.032.015.061.029.09.041l.04.015c.031.012.061.022.09.031l.009,0,.03.009c.037.01.074.019.112.026l.024,0,.011,0c.036.006.071.011.105.014l.015,0h.008c.036,0,.076,0,.123,0h.032c.046,0,.087,0,.125-.008l.02,0c.038,0,.077-.011.117-.019l.024,0c.041-.009.083-.02.126-.033l.022-.007.005,0c.05-.017.091-.032.129-.049l36.139-15.726a1.493,1.493,0,0,0,.155-.08l.026-.017.019-.012c.037-.024.07-.045.1-.067l.046-.036c.029-.024.058-.049.088-.077l.015-.014.023-.022a1.469,1.469,0,0,0,.1-.113l.011-.013a1.469,1.469,0,0,0,.094-.136l.007-.012.01-.018c.024-.041.044-.079.062-.117h0l.018-.04c.017-.039.033-.08.047-.121l.005-.015.007-.02a1.525,1.525,0,0,0,.051-.222c0-.023.007-.046.009-.069s0-.038,0-.057,0-.052,0-.082v-.017c0-.01,0-.019,0-.029,0-.047,0-.089-.008-.13v0l0-.018c0-.037-.01-.075-.018-.112,0-.011,0-.021-.007-.032l0-.009c-.007-.032-.016-.064-.025-.1l0-.014-.008-.026c-.017-.05-.032-.092-.049-.13l-20.151-46.306c-.018-.042-.039-.084-.065-.131l-.011-.019-.012-.02c-.019-.032-.035-.058-.052-.082l-.021-.029-.01-.013c-.021-.028-.038-.051-.055-.071l-.035-.04c-.02-.022-.04-.044-.061-.064l-.038-.036c-.019-.018-.04-.036-.067-.057l-.008-.007-.032-.026c-.022-.017-.047-.034-.071-.05l-.019-.013-.025-.017-.057-.032-.011-.006a1.5,1.5,0,0,0-.193-.091l-.012,0-.021-.007c-.043-.015-.079-.027-.112-.036l-.03-.007-.019,0c-.039-.009-.072-.016-.1-.021l-.052-.007h0c-.035,0-.066-.007-.1-.009l-.06,0Z" transform="translate(-539.313 -734.945)" fill="#344566"/>
      <path id="Path_12275-2" data-name="Path 12275" d="M681.844,892.289l.027-.042q.04-.061.073-.126l.02-.037a1.683,1.683,0,0,0,.1-.237c.008-.025.016-.05.023-.075s.011-.042.016-.063.013-.06.018-.091.006-.034.009-.052c.007-.048.012-.1.014-.145,0-.008,0-.016,0-.024,0-.042,0-.085,0-.128,0-.016,0-.031,0-.047q0-.056-.011-.112c0-.015,0-.03-.006-.045-.008-.051-.018-.1-.031-.154l-.073-.282h0L669.6,842.623h0l-.156-.6c-.014-.053-.031-.105-.049-.156-.006-.016-.013-.032-.019-.048-.014-.034-.028-.068-.043-.1-.008-.018-.018-.035-.027-.052s-.032-.06-.049-.089l-.032-.05c-.018-.028-.037-.055-.057-.082l-.035-.046c-.021-.026-.042-.051-.064-.076l-.038-.042c-.023-.024-.047-.047-.071-.069l-.042-.04c-.022-.019-.046-.037-.069-.055a1.705,1.705,0,0,0-.2-.135l-.035-.019c-.039-.021-.078-.041-.118-.059l-.053-.022c-.036-.015-.072-.028-.109-.041l-.061-.019c-.035-.01-.071-.019-.107-.027l-.066-.013c-.036-.006-.072-.011-.109-.015l-.068-.007c-.037,0-.075,0-.112,0h-.066c-.041,0-.082.006-.123.01l-.057.006a1.76,1.76,0,0,0-.181.036l-38.157,9.868a1.739,1.739,0,0,0-.175.056l-.053.023c-.038.016-.076.032-.113.051l-.057.032c-.033.019-.066.038-.1.058l-.055.038c-.031.022-.06.044-.09.068l-.049.041c-.029.025-.057.052-.084.079l-.042.043c-.028.03-.054.061-.079.092l-.033.041c-.028.037-.054.076-.078.115l-.019.029a1.675,1.675,0,0,0-.106.21c-.012.029-.025.057-.035.086s-.013.039-.019.058-.019.06-.028.091-.009.04-.014.06-.013.062-.018.094-.006.041-.009.061-.007.064-.009.1,0,.041,0,.061,0,.066,0,.1,0,.039,0,.059c0,.036.007.072.011.109,0,.017,0,.034.006.051.009.053.019.107.033.16l.156.605h0l12.415,48h0l.073.283c.013.051.029.1.047.149.005.015.011.029.017.043q.02.053.044.1l.02.043q.029.057.062.112l.012.021c.026.041.054.081.083.12.01.014.022.027.033.041s.039.048.06.071l.044.047.057.055.052.048c.03.026.061.05.092.074l.046.033q.045.032.092.06l.045.026q.045.025.092.048l.042.02q.059.027.12.049l.038.013c.037.013.075.024.114.034l.024.007c.045.011.09.019.136.027l.036.005c.046.006.093.011.14.014h.024c.044,0,.088,0,.132,0h.028q.073,0,.146-.015l.032-.005c.05-.008.1-.018.152-.031l38.156-9.868a1.708,1.708,0,0,0,.187-.061l.055-.024c.042-.018.082-.036.121-.057l.058-.032c.038-.022.075-.046.111-.07l.048-.033a1.676,1.676,0,0,0,.132-.108l.011-.01a1.647,1.647,0,0,0,.132-.137l.025-.031C681.786,892.37,681.816,892.33,681.844,892.289Z" transform="translate(-625.242 -837.509)" fill="#6c6c6c" opacity="0.2" style="mix-blend-mode: multiply;isolation: isolate"/>
      <g id="Group_32971" data-name="Group 32971" transform="translate(2.932 1.823)">
        <path id="Path_12286" data-name="Path 12286" d="M676.414,795.674l12.644,48.892a1.692,1.692,0,0,1-1.213,2.06l-38.157,9.868a1.692,1.692,0,0,1-2.06-1.213l-12.644-48.892a1.691,1.691,0,0,1,1.213-2.06l38.157-9.868a1.691,1.691,0,0,1,2.06,1.213Z" transform="translate(-634.93 -794.407)" fill="#ffc06e"/>
        <path id="Path_12287" data-name="Path 12287" d="M676.415,795.672l.156.6-1.885,5.867-17.47,4.75-17.584,4.316-4.491-4.217-.156-.605a1.69,1.69,0,0,1,1.213-2.06l38.157-9.868A1.69,1.69,0,0,1,676.415,795.672Z" transform="translate(-634.931 -794.405)" fill="#d89444"/>
        <path id="Path_12288" data-name="Path 12288" d="M1088.149,2326.774l.073.281a1.69,1.69,0,0,1-1.213,2.06l-38.157,9.868a1.69,1.69,0,0,1-2.06-1.213l-.073-.283,1.309-3.836a1.056,1.056,0,0,1,.722-.667l35.439-9.165a1.063,1.063,0,0,1,.956.233Z" transform="translate(-1034.093 -2276.896)" fill="#d89444"/>
        <path id="Path_12289" data-name="Path 12289" d="M1107.219,2328.156a1.685,1.685,0,0,1-1.164,1.057l-38.157,9.868a1.687,1.687,0,0,1-1.53-.36l.8-4.947a.856.856,0,0,1,.631-.693l35.439-9.166a.859.859,0,0,1,.889.3Z" transform="translate(-1053.14 -2276.993)" fill="#ffad43"/>
        <path id="Path_12290" data-name="Path 12290" d="M680.838,794.727l-1.055,7.314a.516.516,0,0,1-.383.428l-34.228,8.852a.518.518,0,0,1-.543-.188l-4.468-5.885a1.687,1.687,0,0,1,1.107-.919l38.157-9.868A1.686,1.686,0,0,1,680.838,794.727Z" transform="translate(-640.002 -794.407)" fill="#ffad43"/>
        <path id="Path_12291" data-name="Path 12291" d="M1272.594,1049.832a1.606,1.606,0,0,1-1.552-1.2l-3.367-13.02a1.607,1.607,0,0,1,1.151-1.953l.779-.2a1.605,1.605,0,0,1,1.954,1.151l3.367,13.02a1.607,1.607,0,0,1-1.151,1.954h0l-.779.2A1.606,1.606,0,0,1,1272.594,1049.832Zm-2.589-15.97a1.142,1.142,0,0,0-.286.037l-.779.2a1.149,1.149,0,0,0-.822,1.4l3.367,13.02a1.146,1.146,0,0,0,1.4.822l.779-.2a1.149,1.149,0,0,0,.822-1.4l-3.367-13.02A1.147,1.147,0,0,0,1270.006,1033.862Z" transform="translate(-1248.225 -1026.076)" fill="#444"/>
        <circle id="Ellipse_3223-2" data-name="Ellipse 3223" cx="2.239" cy="2.239" r="2.239" transform="translate(18.308 9.352) rotate(-45)" fill="#fff"/>
        <circle id="Ellipse_3224-2" data-name="Ellipse 3224" cx="2.239" cy="2.239" r="2.239" transform="translate(22.523 19.826)" fill="#fff"/>
      </g>
    </g>
    <g id="Whitepaper" transform="translate(831.13 345.681)">
      <path id="Path_12276-2" data-name="Path 12276" d="M1670.538,1177.049l-31.345-3.267a2.235,2.235,0,0,0-2.455,1.991l-5.122,49.145a2.235,2.235,0,0,0,1.991,2.455l38.116,3.973a2.235,2.235,0,0,0,2.455-1.991l4.417-42.375Z" transform="translate(-1630.377 -1172.825)" fill="#6c6c6c" opacity="0.25" style="mix-blend-mode: multiply;isolation: isolate"/>
      <g id="Group_32973" data-name="Group 32973">
        <path id="Path_12296" data-name="Path 12296" d="M1630.55,1146.243l-31.345-3.267a2.235,2.235,0,0,0-2.455,1.991l-5.122,49.145a2.235,2.235,0,0,0,1.991,2.455l38.116,3.973a2.235,2.235,0,0,0,2.454-1.991l4.417-42.374Z" transform="translate(-1591.615 -1142.964)" fill="#fff"/>
        <path id="Path_12297" data-name="Path 12297" d="M2838.076,1256.689a2.235,2.235,0,0,0,1.991,2.455l6.771.706-8.056-9.931Z" transform="translate(-2799.847 -1246.639)" fill="#ededed"/>
        <path id="Path_12298" data-name="Path 12298" d="M2891.992,1548.7l7,1.91.118-1.139Z" transform="translate(-2852.122 -1536.255)" fill="#cecece"/>
        <path id="Path_12299" data-name="Path 12299" d="M2103.657,1471.7l-19.168-2a.947.947,0,0,1-.842-1.038h0a.948.948,0,0,1,1.038-.842l19.168,2a.948.948,0,0,1,.842,1.038h0A.947.947,0,0,1,2103.657,1471.7Z" transform="translate(-2068.556 -1457.86)" fill="#24c1a1"/>
        <path id="Path_12300" data-name="Path 12300" d="M1890.317,1659.76l-31.689-3.3a.948.948,0,0,1-.842-1.038h0a.947.947,0,0,1,1.037-.842l31.689,3.3a.947.947,0,0,1,.842,1.038h0A.947.947,0,0,1,1890.317,1659.76Z" transform="translate(-1849.62 -1638.886)" fill="#eee"/>
        <path id="Path_12301" data-name="Path 12301" d="M1874.055,1815.784l-31.689-3.3a.947.947,0,0,1-.842-1.038h0a.947.947,0,0,1,1.038-.842l31.689,3.3a.948.948,0,0,1,.842,1.038h0A.948.948,0,0,1,1874.055,1815.784Z" transform="translate(-1833.857 -1790.126)" fill="#eee"/>
        <path id="Path_12302" data-name="Path 12302" d="M1857.792,1971.809l-31.689-3.3a.947.947,0,0,1-.842-1.038h0a.947.947,0,0,1,1.038-.842l31.689,3.3a.948.948,0,0,1,.842,1.038h0A.948.948,0,0,1,1857.792,1971.809Z" transform="translate(-1818.093 -1941.368)" fill="#eee"/>
        <path id="Path_12303" data-name="Path 12303" d="M1841.531,2127.833l-31.689-3.3a.948.948,0,0,1-.842-1.038h0a.948.948,0,0,1,1.038-.842l31.689,3.3a.948.948,0,0,1,.842,1.038h0A.948.948,0,0,1,1841.531,2127.833Z" transform="translate(-1802.33 -2092.608)" fill="#eee"/>
        <path id="Path_12304" data-name="Path 12304" d="M1825.268,2283.857l-31.689-3.3a.948.948,0,0,1-.842-1.038h0a.947.947,0,0,1,1.038-.842l31.689,3.3a.948.948,0,0,1,.842,1.038h0A.947.947,0,0,1,1825.268,2283.857Z" transform="translate(-1786.565 -2243.849)" fill="#eee"/>
        <path id="Path_12305" data-name="Path 12305" d="M1809.005,2439.882l-31.689-3.3a.947.947,0,0,1-.842-1.037h0a.948.948,0,0,1,1.037-.842l31.689,3.3a.947.947,0,0,1,.842,1.038h0A.947.947,0,0,1,1809.005,2439.882Z" transform="translate(-1770.802 -2395.089)" fill="#eee"/>
        <path id="Path_12306" data-name="Path 12306" d="M2281.557,2671.841a.181.181,0,0,0-.3-.143,3,3,0,0,1-.539.372l-.283.113q-.282.148-.314-.235a.178.178,0,0,0-.237-.265,1.2,1.2,0,0,1-.817.382.989.989,0,0,1-.285-.1,1.226,1.226,0,0,0,.177-.167.182.182,0,0,0,.01-.18,2.24,2.24,0,0,0-.2-.37,6.774,6.774,0,0,0,1.66-2.61.18.18,0,0,0-.288-.189,5.566,5.566,0,0,0-1.618,1.8,1.31,1.31,0,0,0-.2.821.873.873,0,0,0,.023.088,5.7,5.7,0,0,1-.55.458,2.952,2.952,0,0,1-.842.437c-.219.068-.548.175-.7-.039.5-.279.9-.674.685-1.166-.322-.741-1.091.376-1.131,1a4.062,4.062,0,0,1-.757.258c-.222.054-.148.4.075.348a5.067,5.067,0,0,0,.764-.261c.422.743,1.756-.018,2.207-.356.134-.1.267-.211.4-.328.1.183.109.152-.146.324a.181.181,0,0,0,.024.328,1.825,1.825,0,0,0,.871.257.979.979,0,0,0,.278-.081.174.174,0,0,0,.071.121,1.47,1.47,0,0,0,1.58-.262,2.378,2.378,0,0,1-.814,1.45,2.682,2.682,0,0,1-2.325.264c-.222-.043-.338.294-.114.338a3.155,3.155,0,0,0,2.541-.232A2.66,2.66,0,0,0,2281.557,2671.841Zm-5.161-.648c.276-.214.087.191-.009.29a1.23,1.23,0,0,1-.207.164A.971.971,0,0,1,2276.4,2671.193Zm2.32-.5a2.627,2.627,0,0,1,.478-.81,5.259,5.259,0,0,1,.635-.7,6.835,6.835,0,0,1-1.135,1.638A1.089,1.089,0,0,1,2278.716,2670.692Z" transform="translate(-2253.973 -2621.642)" fill="#eee"/>
        <path id="Path_12307" data-name="Path 12307" d="M2613.718,2692.424a3.412,3.412,0,1,1,3.906-2.835A3.416,3.416,0,0,1,2613.718,2692.424Zm.954-6.011a2.675,2.675,0,1,0,2.223,3.061A2.678,2.678,0,0,0,2614.672,2686.413Z" transform="translate(-2579.59 -2638.342)" fill="#eee"/>
        <path id="Path_12308" data-name="Path 12308" d="M2676.277,2718.536l-.033.005a8.04,8.04,0,0,0-1.141.274l-.542.176-.52.207a14.979,14.979,0,0,0-1.973.975,16.171,16.171,0,0,0-1.82,1.186c-.328.239-.644.494-.953.757-.176-.162-.358-.32-.548-.472-.253-.221-.539-.419-.818-.621a8.276,8.276,0,0,0-.916-.551l-.03-.015a.07.07,0,0,0-.088.1c.74,1.083,1.5,2.148,2.267,3.215a.129.129,0,0,0,.179.028c1.18-.836,2.354-1.681,3.512-2.547l1.745-1.288c.585-.426,1.154-.873,1.732-1.308a.069.069,0,0,0-.053-.124Z" transform="translate(-2634.471 -2671.765)" fill="#24c1a1"/>
      </g>
    </g>
  </g>
</svg>
