<svg xmlns="http://www.w3.org/2000/svg" width="736" height="177" viewBox="0 0 736 177">
  <g id="_736x177" data-name="736x177" fill="#f3f3f3" stroke-dasharray="4 5">
    <path d="M3,0H733a3,3,0,0,1,3,3V174a3,3,0,0,1-3,3H3a3,3,0,0,1-3-3V3A3,3,0,0,1,3,0Z" stroke="none"/>
    <path d="M 3 0 L 7 0 L 7 2 L 3 2 L 3 0 C 3 0 3 0 3 0 Z M 12 0 L 16 0 L 16 2 L 12 2 L 12 0 Z M 21 0 L 25 0 L 25 2 L 21 2 L 21 0 Z M 30 0 L 34 0 L 34 2 L 30 2 L 30 0 Z M 39 0 L 43 0 L 43 2 L 39 2 L 39 0 Z M 48 0 L 52 0 L 52 2 L 48 2 L 48 0 Z M 57 0 L 61 0 L 61 2 L 57 2 L 57 0 Z M 66 0 L 70 0 L 70 2 L 66 2 L 66 0 Z M 75 0 L 79 0 L 79 2 L 75 2 L 75 0 Z M 84 0 L 88 0 L 88 2 L 84 2 L 84 0 Z M 93 0 L 97 0 L 97 2 L 93 2 L 93 0 Z M 102 0 L 106 0 L 106 2 L 102 2 L 102 0 Z M 111 0 L 115 0 L 115 2 L 111 2 L 111 0 Z M 120 0 L 124 0 L 124 2 L 120 2 L 120 0 Z M 129 0 L 133 0 L 133 2 L 129 2 L 129 0 Z M 138 0 L 142 0 L 142 2 L 138 2 L 138 0 Z M 147 0 L 151 0 L 151 2 L 147 2 L 147 0 Z M 156 0 L 160 0 L 160 2 L 156 2 L 156 0 Z M 165 0 L 169 0 L 169 2 L 165 2 L 165 0 Z M 174 0 L 178 0 L 178 2 L 174 2 L 174 0 Z M 183 0 L 187 0 L 187 2 L 183 2 L 183 0 Z M 192 0 L 196 0 L 196 2 L 192 2 L 192 0 Z M 201 0 L 205 0 L 205 2 L 201 2 L 201 0 Z M 210 0 L 214 0 L 214 2 L 210 2 L 210 0 Z M 219 0 L 223 0 L 223 2 L 219 2 L 219 0 Z M 228 0 L 232 0 L 232 2 L 228 2 L 228 0 Z M 237 0 L 241 0 L 241 2 L 237 2 L 237 0 Z M 246 0 L 250 0 L 250 2 L 246 2 L 246 0 Z M 255 0 L 259 0 L 259 2 L 255 2 L 255 0 Z M 264 0 L 268 0 L 268 2 L 264 2 L 264 0 Z M 273 0 L 277 0 L 277 2 L 273 2 L 273 0 Z M 282 0 L 286 0 L 286 2 L 282 2 L 282 0 Z M 291 0 L 295 0 L 295 2 L 291 2 L 291 0 Z M 300 0 L 304 0 L 304 2 L 300 2 L 300 0 Z M 309 0 L 313 0 L 313 2 L 309 2 L 309 0 Z M 318 0 L 322 0 L 322 2 L 318 2 L 318 0 Z M 327 0 L 331 0 L 331 2 L 327 2 L 327 0 Z M 336 0 L 340 0 L 340 2 L 336 2 L 336 0 Z M 345 0 L 349 0 L 349 2 L 345 2 L 345 0 Z M 354 0 L 358 0 L 358 2 L 354 2 L 354 0 Z M 363 0 L 367 0 L 367 2 L 363 2 L 363 0 Z M 372 0 L 376 0 L 376 2 L 372 2 L 372 0 Z M 381 0 L 385 0 L 385 2 L 381 2 L 381 0 Z M 390 0 L 394 0 L 394 2 L 390 2 L 390 0 Z M 399 0 L 403 0 L 403 2 L 399 2 L 399 0 Z M 408 0 L 412 0 L 412 2 L 408 2 L 408 0 Z M 417 0 L 421 0 L 421 2 L 417 2 L 417 0 Z M 426 0 L 430 0 L 430 2 L 426 2 L 426 0 Z M 435 0 L 439 0 L 439 2 L 435 2 L 435 0 Z M 444 0 L 448 0 L 448 2 L 444 2 L 444 0 Z M 453 0 L 457 0 L 457 2 L 453 2 L 453 0 Z M 462 0 L 466 0 L 466 2 L 462 2 L 462 0 Z M 471 0 L 475 0 L 475 2 L 471 2 L 471 0 Z M 480 0 L 484 0 L 484 2 L 480 2 L 480 0 Z M 489 0 L 493 0 L 493 2 L 489 2 L 489 0 Z M 498 0 L 502 0 L 502 2 L 498 2 L 498 0 Z M 507 0 L 511 0 L 511 2 L 507 2 L 507 0 Z M 516 0 L 520 0 L 520 2 L 516 2 L 516 0 Z M 525 0 L 529 0 L 529 2 L 525 2 L 525 0 Z M 534 0 L 538 0 L 538 2 L 534 2 L 534 0 Z M 543 0 L 547 0 L 547 2 L 543 2 L 543 0 Z M 552 0 L 556 0 L 556 2 L 552 2 L 552 0 Z M 561 0 L 565 0 L 565 2 L 561 2 L 561 0 Z M 570 0 L 574 0 L 574 2 L 570 2 L 570 0 Z M 579 0 L 583 0 L 583 2 L 579 2 L 579 0 Z M 588 0 L 592 0 L 592 2 L 588 2 L 588 0 Z M 597 0 L 601 0 L 601 2 L 597 2 L 597 0 Z M 606 0 L 610 0 L 610 2 L 606 2 L 606 0 Z M 615 0 L 619 0 L 619 2 L 615 2 L 615 0 Z M 624 0 L 628 0 L 628 2 L 624 2 L 624 0 Z M 633 0 L 637 0 L 637 2 L 633 2 L 633 0 Z M 642 0 L 646 0 L 646 2 L 642 2 L 642 0 Z M 651 0 L 655 0 L 655 2 L 651 2 L 651 0 Z M 660 0 L 664 0 L 664 2 L 660 2 L 660 0 Z M 669 0 L 673 0 L 673 2 L 669 2 L 669 0 Z M 678 0 L 682 0 L 682 2 L 678 2 L 678 0 Z M 687 0 L 691 0 L 691 2 L 687 2 L 687 0 Z M 696 0 L 700 0 L 700 2 L 696 2 L 696 0 Z M 705 0 L 709 0 L 709 2 L 705 2 L 705 0 Z M 714 0 L 718 0 L 718 2 L 714 2 L 714 0 Z M 723 0 L 727 0 L 727 2 L 723 2 L 723 0 Z M 732 0 L 733 0 C 733 0 733 0 733 0 C 733.0048828125 0 733.009765625 -1.52587890625e-05 733.0146484375 4.57763671875e-05 C 733.0186157226562 4.57763671875e-05 733.0226440429688 7.62939453125e-05 733.026611328125 0.0001220703125 C 733.0303955078125 0.000152587890625 733.033935546875 0.000244140625 733.0377807617188 0.0002288818359375 C 733.0424194335938 0.0002899169921875 733.0470581054688 0.000396728515625 733.0517578125 0.0004425048828125 C 733.055908203125 0.000518798828125 733.0598754882812 0.0005950927734375 733.0640869140625 0.00067138671875 C 733.0679931640625 0.0007476806640625 733.0715942382812 0.000823974609375 733.0755004882812 0.0009307861328125 C 733.0792846679688 0.0010223388671875 733.0830078125 0.0011444091796875 733.0867919921875 0.0012359619140625 C 733.0917358398438 0.001373291015625 733.0966186523438 0.0014801025390625 733.1015014648438 0.0016937255859375 C 733.1053466796875 0.001800537109375 733.109130859375 0.0019378662109375 733.1129760742188 0.0020904541015625 C 733.1168823242188 0.0022430419921875 733.1207275390625 0.002410888671875 733.1246337890625 0.0025482177734375 C 733.12890625 0.002716064453125 733.1332397460938 0.0029296875 733.1375122070312 0.0030975341796875 C 733.1419677734375 0.0032958984375 733.1463012695312 0.00347900390625 733.1506958007812 0.00372314453125 C 733.1544799804688 0.00390625 733.158447265625 0.0041046142578125 733.1622314453125 0.0043182373046875 C 733.1658935546875 0.004486083984375 733.1696166992188 0.00469970703125 733.1732788085938 0.0049285888671875 C 733.1782836914062 0.005218505859375 733.1832275390625 0.0055084228515625 733.188232421875 0.0058135986328125 C 733.1920166015625 0.0060577392578125 733.1961669921875 0.0063323974609375 733.199951171875 0.006561279296875 C 733.2034912109375 0.006805419921875 733.2071533203125 0.00701904296875 733.210693359375 0.007293701171875 C 733.2150268554688 0.0075836181640625 733.2193603515625 0.0079193115234375 733.2236938476562 0.008209228515625 C 733.2279663085938 0.008544921875 733.232177734375 0.00885009765625 733.2364501953125 0.009185791015625 C 733.2403564453125 0.009521484375 733.244140625 0.0098114013671875 733.248046875 0.0101165771484375 C 733.2515869140625 0.0103912353515625 733.2552490234375 0.0107269287109375 733.2588500976562 0.011016845703125 C 733.2635498046875 0.0114288330078125 733.2681884765625 0.011810302734375 733.27294921875 0.0122528076171875 C 733.27685546875 0.0126190185546875 733.2809448242188 0.01300048828125 733.284912109375 0.0133514404296875 C 733.2886352539062 0.013702392578125 733.2924194335938 0.01409912109375 733.2962036132812 0.014434814453125 C 733.2999877929688 0.0148162841796875 733.3036499023438 0.0151824951171875 733.3074951171875 0.01556396484375 C 733.312255859375 0.0160675048828125 733.3170166015625 0.016571044921875 733.3218383789062 0.017059326171875 C 733.3255615234375 0.0174713134765625 733.329345703125 0.017852783203125 733.3330688476562 0.018280029296875 C 733.3367309570312 0.0186920166015625 733.3403930664062 0.01910400390625 733.3440551757812 0.0195159912109375 C 733.3490600585938 0.0200958251953125 733.3538818359375 0.020660400390625 733.3588256835938 0.021240234375 C 733.3626708984375 0.0217132568359375 733.366455078125 0.02215576171875 733.3703002929688 0.0226287841796875 C 733.373779296875 0.0230560302734375 733.37744140625 0.023529052734375 733.3809204101562 0.023956298828125 C 733.3863525390625 0.024658203125 733.3915405273438 0.02532958984375 733.39697265625 0.026031494140625 C 733.4003295898438 0.0264892578125 733.4036254882812 0.02691650390625 733.4070434570312 0.0273895263671875 C 733.4105224609375 0.0278472900390625 733.4142456054688 0.0283966064453125 733.4177856445312 0.0288543701171875 C 733.42138671875 0.0293731689453125 733.4249267578125 0.0298614501953125 733.4285278320312 0.0303802490234375 C 733.43408203125 0.03118896484375 733.4395751953125 0.031982421875 733.445068359375 0.0327911376953125 C 733.4482421875 0.0332489013671875 733.4513549804688 0.0337371826171875 733.4545288085938 0.034210205078125 C 733.4581298828125 0.0347442626953125 733.461669921875 0.0352935791015625 733.4652709960938 0.0358734130859375 C 733.4664306640625 0.0360565185546875 733.467529296875 0.036224365234375 733.4686889648438 0.036407470703125 C 733.4764404296875 0.037628173828125 733.4842529296875 0.03887939453125 733.4920043945312 0.0401611328125 C 733.4954223632812 0.0406646728515625 733.4985961914062 0.0412445068359375 733.5020141601562 0.0418243408203125 C 733.5054931640625 0.0424041748046875 733.5089111328125 0.042999267578125 733.5123901367188 0.0435943603515625 C 733.51806640625 0.0445098876953125 733.5237426757812 0.045562744140625 733.5293579101562 0.04656982421875 C 733.532470703125 0.047149658203125 733.5355224609375 0.0476837158203125 733.5386352539062 0.0482330322265625 C 733.5419311523438 0.0488739013671875 733.5453491210938 0.049468994140625 733.5486450195312 0.0500640869140625 C 733.5494995117188 0.0502166748046875 733.5503540039062 0.0503692626953125 733.5512084960938 0.050537109375 C 733.5595703125 0.052093505859375 733.5679931640625 0.053680419921875 733.5762939453125 0.0553131103515625 C 733.579345703125 0.055877685546875 733.5823364257812 0.056488037109375 733.5853881835938 0.0570831298828125 C 733.5885620117188 0.057708740234375 733.592041015625 0.05841064453125 733.59521484375 0.059051513671875 C 733.5956420898438 0.0591278076171875 733.595947265625 0.0592041015625 733.5963745117188 0.0592803955078125 C 733.60498046875 0.0610198974609375 733.6133422851562 0.062744140625 733.6218872070312 0.064544677734375 C 733.6251831054688 0.06524658203125 733.62841796875 0.06591796875 733.6317138671875 0.0666351318359375 C 733.6320190429688 0.0666961669921875 733.6322631835938 0.066741943359375 733.632568359375 0.0668182373046875 C 733.6443481445312 0.0693359375 733.65625 0.0719757080078125 733.66796875 0.07464599609375 C 733.6682739257812 0.07470703125 733.6685180664062 0.07476806640625 733.6688232421875 0.0748291015625 C 733.683837890625 0.0782623291015625 733.6986694335938 0.081756591796875 733.713623046875 0.0854034423828125 C 733.713623046875 0.0854034423828125 733.7137451171875 0.0854339599609375 733.7137451171875 0.0854339599609375 C 734.470458984375 0.2700958251953125 735.1146850585938 0.7418670654296875 735.5245361328125 1.378646850585938 L 733.8427124023438 2.46099853515625 C 733.656982421875 2.17236328125 733.3419189453125 2 733 2 L 732 2 L 732 0 Z M 734 6.287094116210938 L 736 6.287094116210938 C 736 6.287094116210938 736 10.28709411621094 736 10.28709411621094 L 734 10.28709411621094 L 734 6.287094116210938 Z M 734 15.28709411621094 L 736 15.28709411621094 C 736 15.28709411621094 736 19.28709411621094 736 19.28709411621094 L 734 19.28709411621094 L 734 15.28709411621094 Z M 734 24.28709411621094 L 736 24.28709411621094 C 736 24.28709411621094 736 28.28709411621094 736 28.28709411621094 L 734 28.28709411621094 L 734 24.28709411621094 Z M 734 33.28709411621094 L 736 33.28709411621094 C 736 33.28709411621094 736 37.28709411621094 736 37.28709411621094 L 734 37.28709411621094 L 734 33.28709411621094 Z M 734 42.28709411621094 L 736 42.28709411621094 C 736 42.28709411621094 736 46.28709411621094 736 46.28709411621094 L 734 46.28709411621094 L 734 42.28709411621094 Z M 734 51.28709411621094 L 736 51.28709411621094 C 736 51.28709411621094 736 55.28709411621094 736 55.28709411621094 L 734 55.28709411621094 L 734 51.28709411621094 Z M 734 60.28709411621094 L 736 60.28709411621094 C 736 60.28709411621094 736 64.28709411621094 736 64.28709411621094 L 734 64.28709411621094 L 734 60.28709411621094 Z M 734 69.28709411621094 L 736 69.28709411621094 C 736 69.28709411621094 736 73.28709411621094 736 73.28709411621094 L 734 73.28709411621094 L 734 69.28709411621094 Z M 734 78.28709411621094 L 736 78.28709411621094 C 736 78.28709411621094 736 82.28709411621094 736 82.28709411621094 L 734 82.28709411621094 L 734 78.28709411621094 Z M 734 87.28709411621094 L 736 87.28709411621094 C 736 87.28709411621094 736 91.28709411621094 736 91.28709411621094 L 734 91.28709411621094 L 734 87.28709411621094 Z M 734 96.28709411621094 L 736 96.28709411621094 C 736 96.28709411621094 736 100.2870941162109 736 100.2870941162109 L 734 100.2870941162109 L 734 96.28709411621094 Z M 734 105.2870941162109 L 736 105.2870941162109 C 736 105.2870941162109 736 109.2870941162109 736 109.2870941162109 L 734 109.2870941162109 L 734 105.2870941162109 Z M 734 114.2870941162109 L 736 114.2870941162109 C 736 114.2870941162109 736 118.2870941162109 736 118.2870941162109 L 734 118.2870941162109 L 734 114.2870941162109 Z M 734 123.2870941162109 L 736 123.2870941162109 C 736 123.2870941162109 736 127.2870941162109 736 127.2870941162109 L 734 127.2870941162109 L 734 123.2870941162109 Z M 734 132.2870941162109 L 736 132.2870941162109 C 736 132.2870941162109 736 136.2870941162109 736 136.2870941162109 L 734 136.2870941162109 L 734 132.2870941162109 Z M 734 141.2870941162109 L 736 141.2870941162109 C 736 141.2870941162109 736 145.2870941162109 736 145.2870941162109 L 734 145.2870941162109 L 734 141.2870941162109 Z M 734 150.2870941162109 L 736 150.2870941162109 C 736 150.2870941162109 736 154.2870941162109 736 154.2870941162109 L 734 154.2870941162109 L 734 150.2870941162109 Z M 734 159.2870941162109 L 736 159.2870941162109 C 736 159.2870941162109 736 163.2870941162109 736 163.2870941162109 L 734 163.2870941162109 L 734 159.2870941162109 Z M 734 168.2870941162109 L 736 168.2870941162109 C 736 168.2870941162109 736 172.2870941162109 736 172.2870941162109 L 734 172.2870941162109 L 734 168.2870941162109 Z M 733.4563598632812 174.8905487060547 L 734.3729248046875 176.6680908203125 C 734.2861938476562 176.7128295898438 734.1969604492188 176.7534332275391 734.1055908203125 176.7897033691406 C 734.1054077148438 176.7897644042969 734.1053466796875 176.789794921875 734.1051635742188 176.7898712158203 C 734.10205078125 176.7910919189453 734.0990600585938 176.7922668457031 734.0960083007812 176.7934722900391 C 734.0955810546875 176.7936553955078 734.0950317382812 176.7938690185547 734.0945434570312 176.7940368652344 C 734.0916137695312 176.7952117919922 734.088623046875 176.7963714599609 734.0856323242188 176.7975311279297 C 734.0853881835938 176.7976226806641 734.0850830078125 176.7977447509766 734.0848388671875 176.7978515625 C 734.078125 176.8004302978516 734.071533203125 176.802978515625 734.0648193359375 176.8055267333984 C 734.064453125 176.8056640625 734.0640258789062 176.8058166503906 734.063720703125 176.8059539794922 C 734.06103515625 176.8069610595703 734.0582885742188 176.8079986572266 734.0556030273438 176.8089904785156 C 734.0524291992188 176.8102111816406 734.0491943359375 176.8114013671875 734.0459594726562 176.8126068115234 C 734.042724609375 176.8138275146484 734.0393676757812 176.8150482177734 734.0361328125 176.8162536621094 C 734.0325927734375 176.8175506591797 734.0289916992188 176.8188629150391 734.0254516601562 176.8201599121094 C 734.024658203125 176.8204498291016 734.0239868164062 176.8206939697266 734.023193359375 176.8209838867188 C 734.0200805664062 176.8220977783203 734.0170288085938 176.8231964111328 734.0139770507812 176.8242950439453 C 734.0108642578125 176.8254241943359 734.0077514648438 176.8265380859375 734.0045776367188 176.8276519775391 C 734.00146484375 176.8287658691406 733.998291015625 176.8298950195312 733.9951171875 176.8309936523438 C 733.9921264648438 176.8320617675781 733.9891357421875 176.8330993652344 733.986083984375 176.8341522216797 C 733.9832153320312 176.8351593017578 733.9801635742188 176.8362121582031 733.977294921875 176.8372039794922 C 733.9698486328125 176.8397674560547 733.9625244140625 176.8422546386719 733.955078125 176.8447570800781 C 733.9521484375 176.8457336425781 733.9492797851562 176.8466949462891 733.9463500976562 176.8476715087891 C 733.9432373046875 176.8487091064453 733.9398193359375 176.8498229980469 733.9367065429688 176.8508605957031 C 733.93359375 176.8518829345703 733.9306030273438 176.8528594970703 733.927490234375 176.8538665771484 C 733.9270629882812 176.85400390625 733.9266357421875 176.8541412353516 733.9262084960938 176.8542938232422 C 733.9151611328125 176.8578643798828 733.904052734375 176.8614044189453 733.8929443359375 176.8648529052734 C 733.8898315429688 176.8658142089844 733.8865966796875 176.8668212890625 733.8834838867188 176.8677825927734 C 733.8804931640625 176.8687133789062 733.8775024414062 176.86962890625 733.8744506835938 176.8705444335938 C 733.8744506835938 176.8705444335938 733.8744506835938 176.8705596923828 733.8743896484375 176.8705596923828 C 733.7330932617188 176.9135437011719 733.5875854492188 176.9463653564453 733.4382934570312 176.9682006835938 C 733.438232421875 176.9682159423828 733.4381713867188 176.9682312011719 733.4381103515625 176.9682312011719 C 733.4226684570312 176.9704895019531 733.4072875976562 176.9726257324219 733.3917846679688 176.9746551513672 C 733.3887939453125 176.9750366210938 733.3859252929688 176.9754028320312 733.3829345703125 176.9757843017578 C 733.3795776367188 176.9762115478516 733.3761596679688 176.9766387939453 733.372802734375 176.9770660400391 C 733.3726806640625 176.9770812988281 733.37255859375 176.9770812988281 733.3724975585938 176.9770965576172 C 733.3603515625 176.9786071777344 733.34814453125 176.9800415039062 733.3359375 176.9813995361328 C 733.3328857421875 176.9817352294922 733.3299560546875 176.9820556640625 733.326904296875 176.9823913574219 C 733.3236694335938 176.9827423095703 733.3203125 176.9830932617188 733.3170776367188 176.9834442138672 C 733.3138427734375 176.9837799072266 733.3104248046875 176.984130859375 733.3071899414062 176.9844665527344 C 733.298095703125 176.9853820800781 733.2890625 176.9862670898438 733.2799682617188 176.9871063232422 C 733.27685546875 176.9873962402344 733.2737426757812 176.9876708984375 733.2706298828125 176.9879455566406 C 733.2672729492188 176.9882507324219 733.2639770507812 176.9885406494141 733.2606201171875 176.9888305664062 C 733.2572021484375 176.9891204833984 733.2537231445312 176.9894256591797 733.2503051757812 176.9897003173828 C 733.24169921875 176.9904174804688 733.233154296875 176.9910888671875 733.2245483398438 176.9917144775391 C 733.22119140625 176.9919738769531 733.2177734375 176.9922180175781 733.2144165039062 176.9924468994141 C 733.2108764648438 176.9927062988281 733.2073974609375 176.9929351806641 733.2037963867188 176.9931793212891 C 733.2003784179688 176.993408203125 733.197021484375 176.9936370849609 733.193603515625 176.9938507080078 C 733.1849975585938 176.9944000244141 733.176513671875 176.9949035644531 733.1679077148438 176.9953765869141 C 733.1646118164062 176.9955596923828 733.1611938476562 176.9957427978516 733.1578979492188 176.9959106445312 C 733.1543579101562 176.99609375 733.1508178710938 176.9962768554688 733.1472778320312 176.9964447021484 C 733.143798828125 176.9966125488281 733.1400756835938 176.9967803955078 733.1365966796875 176.9969482421875 C 733.1331176757812 176.9971008300781 733.1295776367188 176.9972534179688 733.1260986328125 176.9973907470703 C 733.1215209960938 176.9975891113281 733.1172485351562 176.9977569580078 733.1126708984375 176.9979248046875 C 733.1087646484375 176.9980621337891 733.10498046875 176.9981994628906 733.10107421875 176.9983215332031 C 733.0972900390625 176.9984436035156 733.09375 176.9985656738281 733.0899047851562 176.9986724853516 C 733.0863647460938 176.998779296875 733.0829467773438 176.9988708496094 733.0794067382812 176.9989624023438 C 733.0758056640625 176.9990539550781 733.0722045898438 176.9991455078125 733.068603515625 176.9992218017578 C 733.0645141601562 176.9993286132812 733.060302734375 176.9994049072266 733.0562133789062 176.9994812011719 C 733.0519409179688 176.9995574951172 733.0477294921875 176.9996337890625 733.04345703125 176.9996948242188 C 733.039794921875 176.9997406005859 733.0360107421875 176.9997863769531 733.0323486328125 176.9998321533203 C 733.0286865234375 176.9998626708984 733.0252075195312 176.9998931884766 733.0215454101562 176.9999237060547 C 733.01806640625 176.9999389648438 733.0143432617188 176.9999694824219 733.0108032226562 176.9999847412109 C 733.0072021484375 176.9999847412109 733.0036010742188 177 733 177 C 733 177 730.4258422851562 177 730.4258422851562 177 L 730.4258422851562 175 L 733 175 C 733.1619262695312 175 733.3154296875 174.9631805419922 733.4563598632812 174.8905487060547 Z M 721.4258422851562 175 L 725.4258422851562 175 L 725.4258422851562 177 C 725.4258422851562 177 721.4258422851562 177 721.4258422851562 177 L 721.4258422851562 175 Z M 712.4258422851562 175 L 716.4258422851562 175 L 716.4258422851562 177 C 716.4258422851562 177 712.4258422851562 177 712.4258422851562 177 L 712.4258422851562 175 Z M 703.4258422851562 175 L 707.4258422851562 175 L 707.4258422851562 177 C 707.4258422851562 177 703.4258422851562 177 703.4258422851562 177 L 703.4258422851562 175 Z M 694.4258422851562 175 L 698.4258422851562 175 L 698.4258422851562 177 C 698.4258422851562 177 694.4258422851562 177 694.4258422851562 177 L 694.4258422851562 175 Z M 685.4258422851562 175 L 689.4258422851562 175 L 689.4258422851562 177 C 689.4258422851562 177 685.4258422851562 177 685.4258422851562 177 L 685.4258422851562 175 Z M 676.4258422851562 175 L 680.4258422851562 175 L 680.4258422851562 177 C 680.4258422851562 177 676.4258422851562 177 676.4258422851562 177 L 676.4258422851562 175 Z M 667.4258422851562 175 L 671.4258422851562 175 L 671.4258422851562 177 C 671.4258422851562 177 667.4258422851562 177 667.4258422851562 177 L 667.4258422851562 175 Z M 658.4258422851562 175 L 662.4258422851562 175 L 662.4258422851562 177 C 662.4258422851562 177 658.4258422851562 177 658.4258422851562 177 L 658.4258422851562 175 Z M 649.4258422851562 175 L 653.4258422851562 175 L 653.4258422851562 177 C 653.4258422851562 177 649.4258422851562 177 649.4258422851562 177 L 649.4258422851562 175 Z M 640.4258422851562 175 L 644.4258422851562 175 L 644.4258422851562 177 C 644.4258422851562 177 640.4258422851562 177 640.4258422851562 177 L 640.4258422851562 175 Z M 631.4258422851562 175 L 635.4258422851562 175 L 635.4258422851562 177 C 635.4258422851562 177 631.4258422851562 177 631.4258422851562 177 L 631.4258422851562 175 Z M 622.4258422851562 175 L 626.4258422851562 175 L 626.4258422851562 177 C 626.4258422851562 177 622.4258422851562 177 622.4258422851562 177 L 622.4258422851562 175 Z M 613.4258422851562 175 L 617.4258422851562 175 L 617.4258422851562 177 C 617.4258422851562 177 613.4258422851562 177 613.4258422851562 177 L 613.4258422851562 175 Z M 604.42578125 175 L 608.4258422851562 175 L 608.4258422851562 177 C 608.4258422851562 177 604.42578125 177 604.42578125 177 L 604.42578125 175 Z M 595.42578125 175 L 599.42578125 175 L 599.42578125 177 C 599.42578125 177 595.42578125 177 595.42578125 177 L 595.42578125 175 Z M 586.42578125 175 L 590.42578125 175 L 590.42578125 177 C 590.42578125 177 586.42578125 177 586.42578125 177 L 586.42578125 175 Z M 577.42578125 175 L 581.42578125 175 L 581.42578125 177 C 581.42578125 177 577.42578125 177 577.42578125 177 L 577.42578125 175 Z M 568.42578125 175 L 572.42578125 175 L 572.42578125 177 C 572.42578125 177 568.42578125 177 568.42578125 177 L 568.42578125 175 Z M 559.42578125 175 L 563.42578125 175 L 563.42578125 177 C 563.42578125 177 559.42578125 177 559.42578125 177 L 559.42578125 175 Z M 550.42578125 175 L 554.42578125 175 L 554.42578125 177 C 554.42578125 177 550.42578125 177 550.42578125 177 L 550.42578125 175 Z M 541.42578125 175 L 545.42578125 175 L 545.42578125 177 C 545.42578125 177 541.42578125 177 541.42578125 177 L 541.42578125 175 Z M 532.42578125 175 L 536.42578125 175 L 536.42578125 177 C 536.42578125 177 532.42578125 177 532.42578125 177 L 532.42578125 175 Z M 523.42578125 175 L 527.42578125 175 L 527.42578125 177 C 527.42578125 177 523.42578125 177 523.42578125 177 L 523.42578125 175 Z M 514.42578125 175 L 518.42578125 175 L 518.42578125 177 C 518.42578125 177 514.42578125 177 514.42578125 177 L 514.42578125 175 Z M 505.4258117675781 175 L 509.4258117675781 175 L 509.4258117675781 177 C 509.4258117675781 177 505.4258117675781 177 505.4258117675781 177 L 505.4258117675781 175 Z M 496.4258117675781 175 L 500.4258117675781 175 L 500.4258117675781 177 C 500.4258117675781 177 496.4258117675781 177 496.4258117675781 177 L 496.4258117675781 175 Z M 487.4258117675781 175 L 491.4258117675781 175 L 491.4258117675781 177 C 491.4258117675781 177 487.4258117675781 177 487.4258117675781 177 L 487.4258117675781 175 Z M 478.4258117675781 175 L 482.4258117675781 175 L 482.4258117675781 177 C 482.4258117675781 177 478.4258117675781 177 478.4258117675781 177 L 478.4258117675781 175 Z M 469.4258117675781 175 L 473.4258117675781 175 L 473.4258117675781 177 C 473.4258117675781 177 469.4258117675781 177 469.4258117675781 177 L 469.4258117675781 175 Z M 460.4258117675781 175 L 464.4258117675781 175 L 464.4258117675781 177 C 464.4258117675781 177 460.4258117675781 177 460.4258117675781 177 L 460.4258117675781 175 Z M 451.4258117675781 175 L 455.4258117675781 175 L 455.4258117675781 177 C 455.4258117675781 177 451.4258117675781 177 451.4258117675781 177 L 451.4258117675781 175 Z M 442.4258117675781 175 L 446.4258117675781 175 L 446.4258117675781 177 C 446.4258117675781 177 442.4258117675781 177 442.4258117675781 177 L 442.4258117675781 175 Z M 433.4258117675781 175 L 437.4258117675781 175 L 437.4258117675781 177 C 437.4258117675781 177 433.4258117675781 177 433.4258117675781 177 L 433.4258117675781 175 Z M 424.4258117675781 175 L 428.4258117675781 175 L 428.4258117675781 177 C 428.4258117675781 177 424.4258117675781 177 424.4258117675781 177 L 424.4258117675781 175 Z M 415.4258117675781 175 L 419.4258117675781 175 L 419.4258117675781 177 C 419.4258117675781 177 415.4258117675781 177 415.4258117675781 177 L 415.4258117675781 175 Z M 406.4258117675781 175 L 410.4258117675781 175 L 410.4258117675781 177 C 410.4258117675781 177 406.4258117675781 177 406.4258117675781 177 L 406.4258117675781 175 Z M 397.4258117675781 175 L 401.4258117675781 175 L 401.4258117675781 177 C 401.4258117675781 177 397.4258117675781 177 397.4258117675781 177 L 397.4258117675781 175 Z M 388.4258117675781 175 L 392.4258117675781 175 L 392.4258117675781 177 C 392.4258117675781 177 388.4258117675781 177 388.4258117675781 177 L 388.4258117675781 175 Z M 379.4258117675781 175 L 383.4258117675781 175 L 383.4258117675781 177 C 383.4258117675781 177 379.4258117675781 177 379.4258117675781 177 L 379.4258117675781 175 Z M 370.4258117675781 175 L 374.4258117675781 175 L 374.4258117675781 177 C 374.4258117675781 177 370.4258117675781 177 370.4258117675781 177 L 370.4258117675781 175 Z M 361.4258117675781 175 L 365.4258117675781 175 L 365.4258117675781 177 C 365.4258117675781 177 361.4258117675781 177 361.4258117675781 177 L 361.4258117675781 175 Z M 352.4258117675781 175 L 356.4258117675781 175 L 356.4258117675781 177 C 356.4258117675781 177 352.4258117675781 177 352.4258117675781 177 L 352.4258117675781 175 Z M 343.4258117675781 175 L 347.4258117675781 175 L 347.4258117675781 177 C 347.4258117675781 177 343.4258117675781 177 343.4258117675781 177 L 343.4258117675781 175 Z M 334.4258117675781 175 L 338.4258117675781 175 L 338.4258117675781 177 C 338.4258117675781 177 334.4258117675781 177 334.4258117675781 177 L 334.4258117675781 175 Z M 325.4258117675781 175 L 329.4258117675781 175 L 329.4258117675781 177 C 329.4258117675781 177 325.4258117675781 177 325.4258117675781 177 L 325.4258117675781 175 Z M 316.4258117675781 175 L 320.4258117675781 175 L 320.4258117675781 177 C 320.4258117675781 177 316.4258117675781 177 316.4258117675781 177 L 316.4258117675781 175 Z M 307.4258117675781 175 L 311.4258117675781 175 L 311.4258117675781 177 C 311.4258117675781 177 307.4258117675781 177 307.4258117675781 177 L 307.4258117675781 175 Z M 298.4258117675781 175 L 302.4258117675781 175 L 302.4258117675781 177 C 302.4258117675781 177 298.4258117675781 177 298.4258117675781 177 L 298.4258117675781 175 Z M 289.4258117675781 175 L 293.4258117675781 175 L 293.4258117675781 177 C 293.4258117675781 177 289.4258117675781 177 289.4258117675781 177 L 289.4258117675781 175 Z M 280.4258117675781 175 L 284.4258117675781 175 L 284.4258117675781 177 C 284.4258117675781 177 280.4258117675781 177 280.4258117675781 177 L 280.4258117675781 175 Z M 271.4258117675781 175 L 275.4258117675781 175 L 275.4258117675781 177 C 275.4258117675781 177 271.4258117675781 177 271.4258117675781 177 L 271.4258117675781 175 Z M 262.4258117675781 175 L 266.4258117675781 175 L 266.4258117675781 177 C 266.4258117675781 177 262.4258117675781 177 262.4258117675781 177 L 262.4258117675781 175 Z M 253.4258117675781 175 L 257.4258117675781 175 L 257.4258117675781 177 C 257.4258117675781 177 253.4258117675781 177 253.4258117675781 177 L 253.4258117675781 175 Z M 244.4258117675781 175 L 248.4258117675781 175 L 248.4258117675781 177 C 248.4258117675781 177 244.4258117675781 177 244.4258117675781 177 L 244.4258117675781 175 Z M 235.4258117675781 175 L 239.4258117675781 175 L 239.4258117675781 177 C 239.4258117675781 177 235.4258117675781 177 235.4258117675781 177 L 235.4258117675781 175 Z M 226.4258117675781 175 L 230.4258117675781 175 L 230.4258117675781 177 C 230.4258117675781 177 226.4258117675781 177 226.4258117675781 177 L 226.4258117675781 175 Z M 217.4258422851562 175 L 221.4258422851562 175 L 221.4258422851562 177 C 221.4258422851562 177 217.4258422851562 177 217.4258422851562 177 L 217.4258422851562 175 Z M 208.4258422851562 175 L 212.4258422851562 175 L 212.4258422851562 177 C 212.4258422851562 177 208.4258422851562 177 208.4258422851562 177 L 208.4258422851562 175 Z M 199.4258422851562 175 L 203.4258422851562 175 L 203.4258422851562 177 C 203.4258422851562 177 199.4258422851562 177 199.4258422851562 177 L 199.4258422851562 175 Z M 190.4258422851562 175 L 194.4258422851562 175 L 194.4258422851562 177 C 194.4258422851562 177 190.4258422851562 177 190.4258422851562 177 L 190.4258422851562 175 Z M 181.4258422851562 175 L 185.4258422851562 175 L 185.4258422851562 177 C 185.4258422851562 177 181.4258422851562 177 181.4258422851562 177 L 181.4258422851562 175 Z M 172.4258422851562 175 L 176.4258422851562 175 L 176.4258422851562 177 C 176.4258422851562 177 172.4258422851562 177 172.4258422851562 177 L 172.4258422851562 175 Z M 163.4258422851562 175 L 167.4258422851562 175 L 167.4258422851562 177 C 167.4258422851562 177 163.4258422851562 177 163.4258422851562 177 L 163.4258422851562 175 Z M 154.4258422851562 175 L 158.4258422851562 175 L 158.4258422851562 177 C 158.4258422851562 177 154.4258422851562 177 154.4258422851562 177 L 154.4258422851562 175 Z M 145.4258422851562 175 L 149.4258422851562 175 L 149.4258422851562 177 C 149.4258422851562 177 145.4258422851562 177 145.4258422851562 177 L 145.4258422851562 175 Z M 136.4258422851562 175 L 140.4258422851562 175 L 140.4258422851562 177 C 140.4258422851562 177 136.4258422851562 177 136.4258422851562 177 L 136.4258422851562 175 Z M 127.4258422851562 175 L 131.4258422851562 175 L 131.4258422851562 177 C 131.4258422851562 177 127.4258422851562 177 127.4258422851562 177 L 127.4258422851562 175 Z M 118.4258422851562 175 L 122.4258422851562 175 L 122.4258422851562 177 C 122.4258422851562 177 118.4258422851562 177 118.4258422851562 177 L 118.4258422851562 175 Z M 109.4258422851562 175 L 113.4258422851562 175 L 113.4258422851562 177 C 113.4258422851562 177 109.4258422851562 177 109.4258422851562 177 L 109.4258422851562 175 Z M 100.4258422851562 175 L 104.4258422851562 175 L 104.4258422851562 177 C 104.4258422851562 177 100.4258422851562 177 100.4258422851562 177 L 100.4258422851562 175 Z M 91.42584228515625 175 L 95.42584228515625 175 L 95.42584228515625 177 C 95.42584228515625 177 91.42584228515625 177 91.42584228515625 177 L 91.42584228515625 175 Z M 82.42584228515625 175 L 86.42584228515625 175 L 86.42584228515625 177 C 86.42584228515625 177 82.42584228515625 177 82.42584228515625 177 L 82.42584228515625 175 Z M 73.42584228515625 175 L 77.42584228515625 175 L 77.42584228515625 177 C 77.42584228515625 177 73.42584228515625 177 73.42584228515625 177 L 73.42584228515625 175 Z M 64.42584228515625 175 L 68.42584228515625 175 L 68.42584228515625 177 C 68.42584228515625 177 64.42584228515625 177 64.42584228515625 177 L 64.42584228515625 175 Z M 55.42584228515625 175 L 59.42584228515625 175 L 59.42584228515625 177 C 59.42584228515625 177 55.42584228515625 177 55.42584228515625 177 L 55.42584228515625 175 Z M 46.42584228515625 175 L 50.42584228515625 175 L 50.42584228515625 177 C 50.42584228515625 177 46.42584228515625 177 46.42584228515625 177 L 46.42584228515625 175 Z M 37.42584228515625 175 L 41.42584228515625 175 L 41.42584228515625 177 C 41.42584228515625 177 37.42584228515625 177 37.42584228515625 177 L 37.42584228515625 175 Z M 28.42584228515625 175 L 32.42584228515625 175 L 32.42584228515625 177 C 32.42584228515625 177 28.42584228515625 177 28.42584228515625 177 L 28.42584228515625 175 Z M 19.42584228515625 175 L 23.42584228515625 175 L 23.42584228515625 177 C 23.42584228515625 177 19.42584228515625 177 19.42584228515625 177 L 19.42584228515625 175 Z M 10.42584228515625 175 L 14.42584228515625 175 L 14.42584228515625 177 C 14.42584228515625 177 10.42584228515625 177 10.42584228515625 177 L 10.42584228515625 175 Z M 2.50042724609375 174.8669128417969 C 2.6527099609375 174.9551849365234 2.82080078125 175 3 175 L 5.42584228515625 175 L 5.42584228515625 177 C 5.42584228515625 177 3 177 3 177 C 2.9949951171875 177 2.99017333984375 176.9999847412109 2.98504638671875 176.9999542236328 C 2.98089599609375 176.9999389648438 2.97705078125 176.9999084472656 2.97283935546875 176.9998779296875 C 2.968994140625 176.9998474121094 2.96441650390625 176.9998016357422 2.96148681640625 176.999755859375 C 2.9564208984375 176.9996948242188 2.95159912109375 176.9996185302734 2.94635009765625 176.9995269775391 C 2.94232177734375 176.9994506835938 2.9385986328125 176.9993896484375 2.93438720703125 176.9992980957031 C 2.93060302734375 176.9992065429688 2.9267578125 176.9991302490234 2.9229736328125 176.9990234375 C 2.91815185546875 176.9989013671875 2.91357421875 176.9987640380859 2.9083251953125 176.9986267089844 C 2.9041748046875 176.9985046386719 2.89990234375 176.9983673095703 2.89593505859375 176.9982299804688 C 2.8922119140625 176.9980926513672 2.8880615234375 176.9979705810547 2.88458251953125 176.9978179931641 C 2.87957763671875 176.9976348876953 2.87506103515625 176.9974365234375 2.86968994140625 176.9972229003906 C 2.86578369140625 176.9970550537109 2.86151123046875 176.9968566894531 2.8577880859375 176.9966888427734 C 2.8538818359375 176.9965057373047 2.850341796875 176.9963226318359 2.84625244140625 176.9961242675781 C 2.8414306640625 176.9958801269531 2.83648681640625 176.9956359863281 2.8316650390625 176.9953460693359 C 2.82745361328125 176.9951171875 2.82342529296875 176.9948883056641 2.81939697265625 176.9946441650391 C 2.815673828125 176.9944305419922 2.8116455078125 176.9942016601562 2.80810546875 176.9939575195312 C 2.80322265625 176.99365234375 2.79827880859375 176.9933166503906 2.793212890625 176.9929809570312 C 2.78936767578125 176.9927215576172 2.78558349609375 176.9924468994141 2.78155517578125 176.9921722412109 C 2.7777099609375 176.9918823242188 2.77386474609375 176.9916076660156 2.77020263671875 176.9913330078125 C 2.7655029296875 176.990966796875 2.7607421875 176.9906158447266 2.7562255859375 176.990234375 C 2.7520751953125 176.9898986816406 2.748046875 176.9895629882812 2.74371337890625 176.9891967773438 C 2.7401123046875 176.9888916015625 2.73602294921875 176.9885559082031 2.73260498046875 176.9882354736328 C 2.72802734375 176.9878387451172 2.72332763671875 176.9874267578125 2.71917724609375 176.9870300292969 C 2.71478271484375 176.9866180419922 2.71044921875 176.9862060546875 2.706298828125 176.9858093261719 C 2.70245361328125 176.9854125976562 2.69866943359375 176.9850463867188 2.6947021484375 176.9846496582031 C 2.6905517578125 176.9842376708984 2.68621826171875 176.9837799072266 2.6820068359375 176.9833374023438 C 2.6776123046875 176.9828796386719 2.67327880859375 176.9823913574219 2.66864013671875 176.9819030761719 C 2.66497802734375 176.9814910888672 2.6612548828125 176.9810791015625 2.6572265625 176.9806365966797 C 2.65301513671875 176.9801635742188 2.64910888671875 176.9796752929688 2.644775390625 176.9791870117188 C 2.64019775390625 176.9786376953125 2.63555908203125 176.9781036376953 2.631103515625 176.9775390625 C 2.627197265625 176.9770660400391 2.62347412109375 176.9766235351562 2.61981201171875 176.9761352539062 C 2.6160888671875 176.9756469726562 2.6126708984375 176.9752044677734 2.60845947265625 176.9746856689453 C 2.60357666015625 176.9740447998047 2.5986328125 176.973388671875 2.59381103515625 176.9727325439453 C 2.5899658203125 176.9722137451172 2.58624267578125 176.9717102050781 2.58258056640625 176.97119140625 C 2.578857421875 176.9706726074219 2.57489013671875 176.9701232910156 2.5712890625 176.9696044921875 C 2.56658935546875 176.9689178466797 2.5618896484375 176.9682312011719 2.55694580078125 176.9675140380859 C 2.55316162109375 176.9669494628906 2.54937744140625 176.9663543701172 2.54541015625 176.9657897949219 C 2.54180908203125 176.9652252197266 2.538818359375 176.9647064208984 2.5343017578125 176.9640655517578 C 2.52972412109375 176.9633483886719 2.5247802734375 176.9626007080078 2.52032470703125 176.9618530273438 C 2.516357421875 176.9612274169922 2.5125732421875 176.9606170654297 2.50872802734375 176.9599609375 C 2.5048828125 176.9593353271484 2.50115966796875 176.9587097167969 2.497314453125 176.9580688476562 C 2.4930419921875 176.9573364257812 2.48846435546875 176.9566040039062 2.48419189453125 176.9558258056641 C 2.48016357421875 176.9551239013672 2.47613525390625 176.9544372558594 2.47216796875 176.9537048339844 C 2.4683837890625 176.9530487060547 2.4652099609375 176.9524841308594 2.4609375 176.9516906738281 C 2.45654296875 176.9508972167969 2.452392578125 176.9501037597656 2.4478759765625 176.9492950439453 C 2.44378662109375 176.9485473632812 2.43988037109375 176.9478149414062 2.4356689453125 176.9470062255859 C 2.431884765625 176.9462890625 2.42864990234375 176.9456634521484 2.42431640625 176.94482421875 C 2.420166015625 176.9440307617188 2.4169921875 176.943115234375 2.412353515625 176.9424743652344 C 2.4080810546875 176.9416198730469 2.4036865234375 176.9407653808594 2.3994140625 176.9398651123047 C 2.3956298828125 176.9391021728516 2.3914794921875 176.9383544921875 2.3880615234375 176.9375457763672 C 2.3802490234375 176.9359130859375 2.3724365234375 176.9342651367188 2.36456298828125 176.9325714111328 C 2.3612060546875 176.9317779541016 2.3564453125 176.9308166503906 2.35223388671875 176.9298858642578 C 2.3521728515625 176.9298706054688 2.35198974609375 176.9298400878906 2.3519287109375 176.9298095703125 C 2.34393310546875 176.9280548095703 2.33599853515625 176.92626953125 2.32806396484375 176.9244537353516 C 2.32794189453125 176.9244232177734 2.3280029296875 176.9244537353516 2.32794189453125 176.9244232177734 C 2.03192138671875 176.8566741943359 1.7525634765625 176.7451019287109 1.4970703125 176.5969085693359 L 2.50042724609375 174.8669128417969 Z M 0 168.1388244628906 L 2 168.1388244628906 L 2 172.1388244628906 L 0 172.1388244628906 L 0 168.1388244628906 Z M 0 159.1388244628906 L 2 159.1388244628906 L 2 163.1388244628906 L 0 163.1388244628906 L 0 159.1388244628906 Z M 0 150.1388244628906 L 2 150.1388244628906 L 2 154.1388244628906 L 0 154.1388244628906 L 0 150.1388244628906 Z M 0 141.1388244628906 L 2 141.1388244628906 L 2 145.1388244628906 L 0 145.1388244628906 L 0 141.1388244628906 Z M 0 132.1388244628906 L 2 132.1388244628906 L 2 136.1388244628906 L 0 136.1388244628906 L 0 132.1388244628906 Z M 0 123.1388168334961 L 2 123.1388168334961 L 2 127.1388168334961 L 0 127.1388168334961 L 0 123.1388168334961 Z M 0 114.1388168334961 L 2 114.1388168334961 L 2 118.1388168334961 L 0 118.1388168334961 L 0 114.1388168334961 Z M 0 105.1388168334961 L 2 105.1388168334961 L 2 109.1388168334961 L 0 109.1388168334961 L 0 105.1388168334961 Z M 0 96.13881683349609 L 2 96.13881683349609 L 2 100.1388168334961 L 0 100.1388168334961 L 0 96.13881683349609 Z M 0 87.13881683349609 L 2 87.13881683349609 L 2 91.13881683349609 L 0 91.13881683349609 L 0 87.13881683349609 Z M 0 78.13881683349609 L 2 78.13881683349609 L 2 82.13881683349609 L 0 82.13881683349609 L 0 78.13881683349609 Z M 0 69.13881683349609 L 2 69.13881683349609 L 2 73.13881683349609 L 0 73.13881683349609 L 0 69.13881683349609 Z M 0 60.13881683349609 L 2 60.13881683349609 L 2 64.13881683349609 L 0 64.13881683349609 L 0 60.13881683349609 Z M 0 51.13881683349609 L 2 51.13881683349609 L 2 55.13881683349609 L 0 55.13881683349609 L 0 51.13881683349609 Z M 0 42.13882446289062 L 2 42.13882446289062 L 2 46.13882446289062 L 0 46.13882446289062 L 0 42.13882446289062 Z M 0 33.13882446289062 L 2 33.13882446289062 L 2 37.13882446289062 L 0 37.13882446289062 L 0 33.13882446289062 Z M 0 24.13882446289062 L 2 24.13882446289062 L 2 28.13882446289062 L 0 28.13882446289062 L 0 24.13882446289062 Z M 0 15.13882446289062 L 2 15.13882446289062 L 2 19.13882446289062 L 0 19.13882446289062 L 0 15.13882446289062 Z M 0 6.138824462890625 L 2 6.138824462890625 L 2 10.13882446289062 L 0 10.13882446289062 L 0 6.138824462890625 Z M 3 0 L 3 2 C 2.673095703125 2 2.3760986328125 2.153091430664062 2.18511962890625 2.419906616210938 L 0.5587158203125 1.255996704101562 C 0.6097412109375 1.184707641601562 0.66375732421875 1.115798950195312 0.720703125 1.049346923828125 C 0.72076416015625 1.049285888671875 0.7208251953125 1.049163818359375 0.72088623046875 1.049087524414062 C 0.72308349609375 1.046539306640625 0.72528076171875 1.043960571289062 0.72747802734375 1.041427612304688 C 0.727783203125 1.041061401367188 0.72808837890625 1.040756225585938 0.7283935546875 1.0404052734375 C 0.73028564453125 1.038162231445312 0.7322998046875 1.035842895507812 0.7342529296875 1.033599853515625 C 0.73468017578125 1.033111572265625 0.7352294921875 1.032501220703125 0.73565673828125 1.032012939453125 C 0.73760986328125 1.029769897460938 0.73956298828125 1.027542114257812 0.74151611328125 1.025314331054688 C 0.7418212890625 1.02496337890625 0.74212646484375 1.024581909179688 0.742431640625 1.02423095703125 C 0.7447509765625 1.0216064453125 0.7470703125 1.018966674804688 0.74932861328125 1.016357421875 C 0.74957275390625 1.016143798828125 0.74969482421875 1.0159912109375 0.7498779296875 1.015777587890625 C 0.751953125 1.013381958007812 0.75408935546875 1.010986328125 0.7562255859375 1.00860595703125 C 0.75677490234375 1.007980346679688 0.75738525390625 1.007278442382812 0.7579345703125 1.006637573242188 C 0.75958251953125 1.00482177734375 0.76116943359375 1.0030517578125 0.7628173828125 1.001220703125 C 0.763671875 1.000244140625 0.76446533203125 0.9993743896484375 0.76531982421875 0.9983978271484375 C 0.76678466796875 0.9967803955078125 0.76812744140625 0.9952545166015625 0.76959228515625 0.9936370849609375 C 0.77056884765625 0.9925994873046875 0.7713623046875 0.9917144775390625 0.77227783203125 0.99066162109375 C 0.773681640625 0.989105224609375 0.775146484375 0.987518310546875 0.77655029296875 0.9859619140625 C 0.77734375 0.9850616455078125 0.7781982421875 0.984100341796875 0.779052734375 0.9832000732421875 C 0.78125 0.980804443359375 0.78338623046875 0.9784393310546875 0.78558349609375 0.976043701171875 C 0.786376953125 0.9751434326171875 0.78717041015625 0.9742889404296875 0.78802490234375 0.973388671875 C 0.7894287109375 0.971832275390625 0.79083251953125 0.97027587890625 0.79229736328125 0.9687347412109375 C 0.79339599609375 0.9674835205078125 0.79443359375 0.96636962890625 0.79559326171875 0.9651336669921875 C 0.79669189453125 0.96392822265625 0.7978515625 0.96270751953125 0.7989501953125 0.9615020751953125 C 0.80010986328125 0.9602508544921875 0.80126953125 0.958984375 0.80242919921875 0.9577484130859375 C 0.803466796875 0.9566192626953125 0.8045654296875 0.9554901123046875 0.80560302734375 0.9543609619140625 C 0.806884765625 0.9529876708984375 0.8082275390625 0.9515380859375 0.80950927734375 0.950164794921875 C 0.81036376953125 0.949249267578125 0.8111572265625 0.948394775390625 0.81201171875 0.947479248046875 C 0.815185546875 0.944122314453125 0.81829833984375 0.9408111572265625 0.82147216796875 0.9374847412109375 C 0.82171630859375 0.937225341796875 0.82196044921875 0.9369354248046875 0.82220458984375 0.9366912841796875 C 0.8236083984375 0.9351959228515625 0.824951171875 0.9337921142578125 0.82635498046875 0.9322967529296875 C 0.82733154296875 0.931304931640625 0.8282470703125 0.9303436279296875 0.82916259765625 0.929351806640625 C 0.83062744140625 0.9278717041015625 0.83203125 0.9263763427734375 0.83343505859375 0.9248809814453125 C 0.8341064453125 0.9241943359375 0.8348388671875 0.9234161376953125 0.83551025390625 0.9227142333984375 C 0.837158203125 0.9210357666015625 0.8387451171875 0.919342041015625 0.84039306640625 0.91766357421875 C 0.84088134765625 0.9171295166015625 0.8414306640625 0.9165802001953125 0.84197998046875 0.916046142578125 C 0.84735107421875 0.9104461669921875 0.852783203125 0.904876708984375 0.85821533203125 0.899322509765625 C 0.8587646484375 0.89874267578125 0.85931396484375 0.898193359375 0.85992431640625 0.8976287841796875 C 0.8614501953125 0.896026611328125 0.8629150390625 0.8945465087890625 0.864501953125 0.8929443359375 C 0.865234375 0.8922119140625 0.865966796875 0.8914642333984375 0.86669921875 0.8907318115234375 C 0.86822509765625 0.8892059326171875 0.869873046875 0.88751220703125 0.87139892578125 0.885986328125 C 0.87213134765625 0.88525390625 0.87286376953125 0.8845367431640625 0.87353515625 0.8838043212890625 C 0.8751220703125 0.8822174072265625 0.8765869140625 0.8807525634765625 0.878173828125 0.879150390625 C 0.8787841796875 0.8785552978515625 0.87939453125 0.8779449462890625 0.8800048828125 0.8773345947265625 C 0.88800048828125 0.869384765625 0.89605712890625 0.86138916015625 0.90411376953125 0.8535308837890625 C 0.9041748046875 0.85345458984375 0.904296875 0.8533782958984375 0.90435791015625 0.853302001953125 C 1.29266357421875 0.474212646484375 1.78350830078125 0.1995086669921875 2.331298828125 0.074798583984375 C 2.33447265625 0.0743560791015625 2.33746337890625 0.073394775390625 2.340576171875 0.0727081298828125 C 2.34063720703125 0.07269287109375 2.3406982421875 0.0726776123046875 2.34075927734375 0.072662353515625 C 2.352783203125 0.069976806640625 2.36474609375 0.067352294921875 2.3768310546875 0.0648040771484375 C 2.38037109375 0.06451416015625 2.382568359375 0.0635986328125 2.38555908203125 0.06298828125 C 2.3880615234375 0.0623321533203125 2.39178466796875 0.061676025390625 2.39483642578125 0.061065673828125 C 2.39544677734375 0.0609283447265625 2.39599609375 0.060821533203125 2.39666748046875 0.060699462890625 C 2.4080810546875 0.058349609375 2.41943359375 0.0561065673828125 2.430908203125 0.0539093017578125 C 2.4342041015625 0.0532684326171875 2.4373779296875 0.052642822265625 2.4407958984375 0.0520172119140625 C 2.44384765625 0.051483154296875 2.44720458984375 0.050811767578125 2.450439453125 0.0502166748046875 C 2.4505615234375 0.050201416015625 2.45062255859375 0.050201416015625 2.45068359375 0.0501708984375 C 2.45947265625 0.048553466796875 2.4683837890625 0.0469512939453125 2.4771728515625 0.04541015625 C 2.47998046875 0.0449066162109375 2.48321533203125 0.0443572998046875 2.486083984375 0.043853759765625 C 2.48931884765625 0.0433502197265625 2.49267578125 0.0427093505859375 2.49591064453125 0.04217529296875 C 2.49920654296875 0.041534423828125 2.50250244140625 0.0410614013671875 2.50579833984375 0.0405120849609375 C 2.506103515625 0.04046630859375 2.5064697265625 0.0404052734375 2.50677490234375 0.0403594970703125 C 2.5152587890625 0.0389404296875 2.52386474609375 0.037567138671875 2.5323486328125 0.0362396240234375 C 2.53558349609375 0.0356903076171875 2.53839111328125 0.035308837890625 2.54156494140625 0.0348052978515625 C 2.54486083984375 0.0342864990234375 2.54833984375 0.0337677001953125 2.55181884765625 0.0332489013671875 C 2.55255126953125 0.03314208984375 2.5533447265625 0.03302001953125 2.5540771484375 0.0329132080078125 C 2.56195068359375 0.0317535400390625 2.56982421875 0.030609130859375 2.57769775390625 0.0294952392578125 C 2.58099365234375 0.0290679931640625 2.58416748046875 0.0286102294921875 2.58734130859375 0.0281524658203125 C 2.59075927734375 0.0277099609375 2.5941162109375 0.0272369384765625 2.5975341796875 0.026763916015625 C 2.60089111328125 0.0263214111328125 2.6043701171875 0.02587890625 2.60772705078125 0.025421142578125 C 2.61114501953125 0.0249481201171875 2.6143798828125 0.0245361328125 2.61785888671875 0.02410888671875 C 2.6221923828125 0.0234527587890625 2.62835693359375 0.022796630859375 2.6336669921875 0.0221405029296875 C 2.63677978515625 0.02178955078125 2.64013671875 0.0213623046875 2.6434326171875 0.0209808349609375 C 2.64678955078125 0.02056884765625 2.65020751953125 0.020172119140625 2.65380859375 0.0197601318359375 C 2.6572265625 0.019378662109375 2.66064453125 0.01898193359375 2.66424560546875 0.018585205078125 C 2.66888427734375 0.0180511474609375 2.67333984375 0.0175628662109375 2.67816162109375 0.017059326171875 C 2.681640625 0.0166778564453125 2.68536376953125 0.01629638671875 2.6888427734375 0.0159454345703125 C 2.69268798828125 0.0155487060546875 2.6964111328125 0.0151519775390625 2.7000732421875 0.014801025390625 C 2.7037353515625 0.01446533203125 2.70721435546875 0.01409912109375 2.71075439453125 0.013763427734375 C 2.71429443359375 0.013427734375 2.71783447265625 0.0131072998046875 2.72137451171875 0.0127716064453125 C 2.72607421875 0.0123443603515625 2.73052978515625 0.0119476318359375 2.7352294921875 0.0115203857421875 C 2.73895263671875 0.0111846923828125 2.74285888671875 0.010833740234375 2.7467041015625 0.0105438232421875 C 2.750244140625 0.0102691650390625 2.75360107421875 0.0099639892578125 2.75726318359375 0.0096893310546875 C 2.76068115234375 0.0093994140625 2.76434326171875 0.0091400146484375 2.7679443359375 0.00885009765625 C 2.7713623046875 0.008575439453125 2.7750244140625 0.0083160400390625 2.77850341796875 0.008056640625 C 2.78338623046875 0.0077056884765625 2.78826904296875 0.007354736328125 2.79327392578125 0.00701904296875 C 2.797119140625 0.006744384765625 2.80059814453125 0.0064849853515625 2.8043212890625 0.00628662109375 C 2.8077392578125 0.0060272216796875 2.8115234375 0.0058135986328125 2.815185546875 0.0055999755859375 C 2.8187255859375 0.0053863525390625 2.82220458984375 0.0051727294921875 2.82562255859375 0.0049896240234375 C 2.8299560546875 0.0047454833984375 2.8343505859375 0.0045166015625 2.83868408203125 0.0042724609375 C 2.84283447265625 0.0040435791015625 2.8465576171875 0.0038604736328125 2.8505859375 0.003662109375 C 2.85430908203125 0.00347900390625 2.85797119140625 0.003326416015625 2.86181640625 0.0031280517578125 C 2.865478515625 0.0029754638671875 2.86907958984375 0.0028076171875 2.87261962890625 0.002655029296875 C 2.87615966796875 0.0025177001953125 2.87969970703125 0.0023651123046875 2.88323974609375 0.002227783203125 C 2.8876953125 0.002044677734375 2.89202880859375 0.001953125 2.8963623046875 0.0017547607421875 C 2.90032958984375 0.001617431640625 2.90472412109375 0.001495361328125 2.90875244140625 0.0013580322265625 C 2.91229248046875 0.001251220703125 2.916015625 0.00115966796875 2.919677734375 0.0010528564453125 C 2.92333984375 0.0009613037109375 2.927001953125 0.0009002685546875 2.93060302734375 0.00079345703125 C 2.934326171875 0.000701904296875 2.93780517578125 0.0006256103515625 2.94146728515625 0.0005645751953125 C 2.94622802734375 0.0004730224609375 2.95098876953125 0.00042724609375 2.95550537109375 0.0003204345703125 C 2.9593505859375 0.0002593994140625 2.96307373046875 0.0001983642578125 2.96697998046875 0.00018310546875 C 2.9708251953125 0.0001373291015625 2.9747314453125 0.0001373291015625 2.978271484375 7.62939453125e-05 C 2.98193359375 4.57763671875e-05 2.985595703125 3.0517578125e-05 2.98907470703125 1.52587890625e-05 C 2.99273681640625 1.52587890625e-05 2.99639892578125 0 3 0 C 3 0 3 0 3 0 Z" stroke="none" fill="#fff"/>
  </g>
  <text id="Drag_file_here_or_click_to_add" data-name="Drag file here or click to add" transform="translate(368 162)" fill="#919191" font-size="12" font-family="Montserrat-SemiBold, Montserrat" font-weight="600"><tspan x="-87.966" y="0">Drag file here or click to add</tspan></text>
  <g id="Group_34552" data-name="Group 34552" transform="translate(-484 -306.664)">
    <circle id="Ellipse_3223" data-name="Ellipse 3223" cx="9.317" cy="9.317" r="9.317" transform="translate(817.555 423.225) rotate(-45)" fill="#b7b7b7" opacity="0.2" style="mix-blend-mode: multiply;isolation: isolate"/>
    <g id="Bcg" transform="translate(803.585 330.209)">
      <path id="Path_12272" data-name="Path 12272" d="M667.89,682.954c.385-5.662,2-29.41,19.882-40.832,20.465-13.072,51.471-3.125,66.986,16.68,9.453,12.067,16.641,32.242,8.807,49.372C750.243,737.3,700.015,743.35,679.1,722.185,666.115,709.047,667.509,688.547,667.89,682.954Z" transform="translate(-667.653 -636.21)" fill="#fff"/>
      <circle id="Ellipse_3224" data-name="Ellipse 3224" cx="3.864" cy="3.864" r="3.864" transform="translate(57.85 1.788)" fill="#5673aa"/>
      <circle id="Ellipse_3225" data-name="Ellipse 3225" cx="2.229" cy="2.229" r="2.229" transform="translate(68.273 100.832) rotate(-45)" fill="#5673aa"/>
    </g>
    <g id="Lock" transform="translate(820.73 412.714)">
      <circle id="Ellipse_3226" data-name="Ellipse 3226" cx="9.317" cy="9.317" r="9.317" fill="#24c1a1"/>
      <g id="Group_32972" data-name="Group 32972" transform="translate(3.633 3.802)">
        <path id="Path_12292" data-name="Path 12292" d="M1252.331,3107.235l-1.8,1.7a4.13,4.13,0,0,0-.172,5.821l.333.353a4.129,4.129,0,0,0,5.82.172l1.8-1.7a.953.953,0,0,0,.04-1.347l-4.674-4.958A.953.953,0,0,0,1252.331,3107.235Z" transform="translate(-1249.242 -3105.013)" fill="#fff"/>
        <path id="Path_12293" data-name="Path 12293" d="M1389.556,3054.881l1.209-1.14a2.079,2.079,0,0,1,2.852,3.025l-1.209,1.14.785.833,1.209-1.14a3.224,3.224,0,1,0-4.422-4.692l-1.209,1.139Z" transform="translate(-1383.785 -3052.032)" fill="#fff"/>
        <path id="Path_12294" data-name="Path 12294" d="M1341.318,3210.6a.973.973,0,1,0-1.58-.368l-.606.572a.379.379,0,0,0,.519.551l.607-.572A.974.974,0,0,0,1341.318,3210.6Z" transform="translate(-1335.805 -3203.311)" fill="#52d1bd"/>
      </g>
    </g>
    <g id="Blue" transform="translate(841.563 351.249)">
      <path id="Path_12273" data-name="Path 12273" d="M1879.458,1381.369a1.824,1.824,0,0,1-.2-.011l-44.955-5.027a1.825,1.825,0,0,1-1.607-2.012l6.617-59.176a1.825,1.825,0,0,1,2.011-1.607l44.955,5.027a1.825,1.825,0,0,1,1.607,2.012l-6.618,59.176a1.826,1.826,0,0,1-1.807,1.618Zm-38.34-67.406a1.388,1.388,0,0,0-1.373,1.228l-6.618,59.176a1.387,1.387,0,0,0,1.22,1.527l44.955,5.027a1.387,1.387,0,0,0,1.527-1.22l6.617-59.176a1.387,1.387,0,0,0-1.22-1.527l-44.955-5.027A1.367,1.367,0,0,0,1841.118,1313.963Z" transform="translate(-1829.036 -1310.367)" fill="#344566"/>
      <g id="Group_32970" data-name="Group 32970" transform="translate(0)">
        <path id="Path_12274" data-name="Path 12274" d="M1775.386,1297.875l-43.54-12.267a1.606,1.606,0,0,1-1.107-1.975l16.147-57.314a1.606,1.606,0,0,1,1.975-1.107l43.54,12.267a1.606,1.606,0,0,1,1.107,1.975l-16.147,57.314A1.606,1.606,0,0,1,1775.386,1297.875Z" transform="translate(-1730.679 -1225.152)" fill="#5673aa"/>
        <path id="Path_12275" data-name="Path 12275" d="M2465.92,1560.317l-21.138-5.955a1.188,1.188,0,0,1-.819-1.461h0a1.188,1.188,0,0,1,1.461-.819l21.138,5.955a1.188,1.188,0,0,1,.819,1.461h0A1.188,1.188,0,0,1,2465.92,1560.317Z" transform="translate(-2418.437 -1540.358)" fill="#b3cef6"/>
        <path id="Path_12276" data-name="Path 12276" d="M2255.635,1701.357l-33.3-9.381a1.188,1.188,0,0,1-.819-1.461h0a1.188,1.188,0,0,1,1.461-.819l33.3,9.381a1.188,1.188,0,0,1,.819,1.461h0A1.188,1.188,0,0,1,2255.635,1701.357Z" transform="translate(-2203.941 -1673.057)" fill="#344566"/>
        <path id="Path_12277" data-name="Path 12277" d="M2214.239,1848.29l-33.3-9.381a1.188,1.188,0,0,1-.819-1.461h0a1.188,1.188,0,0,1,1.461-.819l33.3,9.381a1.188,1.188,0,0,1,.819,1.461h0A1.188,1.188,0,0,1,2214.239,1848.29Z" transform="translate(-2164.023 -1814.741)" fill="#344566"/>
        <path id="Path_12278" data-name="Path 12278" d="M2172.842,1995.224l-33.3-9.381a1.188,1.188,0,0,1-.819-1.461h0a1.188,1.188,0,0,1,1.461-.819l33.3,9.381a1.188,1.188,0,0,1,.819,1.461h0A1.188,1.188,0,0,1,2172.842,1995.224Z" transform="translate(-2124.105 -1956.425)" fill="#344566"/>
        <path id="Path_12279" data-name="Path 12279" d="M2131.445,2142.157l-33.3-9.381a1.188,1.188,0,0,1-.819-1.461h0a1.188,1.188,0,0,1,1.461-.819l33.3,9.381a1.188,1.188,0,0,1,.819,1.461h0A1.188,1.188,0,0,1,2131.445,2142.157Z" transform="translate(-2084.188 -2098.109)" fill="#344566"/>
        <path id="Path_12280" data-name="Path 12280" d="M2090.049,2289.091l-33.3-9.381a1.188,1.188,0,0,1-.819-1.461h0a1.188,1.188,0,0,1,1.461-.819l33.3,9.381a1.188,1.188,0,0,1,.819,1.461h0A1.188,1.188,0,0,1,2090.049,2289.091Z" transform="translate(-2044.27 -2239.793)" fill="#344566"/>
        <path id="Path_12281" data-name="Path 12281" d="M2048.652,2436.024l-33.3-9.381a1.188,1.188,0,0,1-.819-1.461h0a1.188,1.188,0,0,1,1.461-.819l33.3,9.381a1.188,1.188,0,0,1,.819,1.461h0A1.188,1.188,0,0,1,2048.652,2436.024Z" transform="translate(-2004.352 -2381.477)" fill="#344566"/>
        <path id="Path_12282" data-name="Path 12282" d="M2007.255,2582.958l-33.3-9.381a1.188,1.188,0,0,1-.819-1.461h0a1.188,1.188,0,0,1,1.461-.819l33.3,9.381a1.188,1.188,0,0,1,.819,1.461h0A1.188,1.188,0,0,1,2007.255,2582.958Z" transform="translate(-1964.434 -2523.162)" fill="#b3cef6"/>
        <path id="Path_12283" data-name="Path 12283" d="M1965.859,2729.891l-33.3-9.381a1.188,1.188,0,0,1-.819-1.461h0a1.188,1.188,0,0,1,1.461-.819l33.3,9.381a1.188,1.188,0,0,1,.819,1.461h0A1.188,1.188,0,0,1,1965.859,2729.891Z" transform="translate(-1924.517 -2664.845)" fill="#344566"/>
      </g>
    </g>
    <g id="Yellow" transform="translate(799 333.736)">
      <path id="Path_12274-2" data-name="Path 12274" d="M564.986,811.6h-.007c-.066,0-.125,0-.18-.007l-.024,0h-.008c-.05,0-.1-.012-.153-.021l-.011,0-.041-.007c-.055-.011-.11-.024-.163-.039l-.046-.014-.01,0c-.043-.013-.086-.028-.128-.043h0l-.058-.022c-.043-.018-.086-.037-.131-.059l-.065-.033c-.051-.027-.094-.052-.134-.076l-.058-.038-.017-.012c-.028-.019-.057-.039-.084-.059l-.066-.052c-.029-.024-.059-.049-.092-.079l-.012-.011-.038-.035c-.048-.046-.09-.091-.13-.137l-.017-.021,0,0c-.034-.041-.069-.085-.1-.13l-.033-.047,0,0c-.027-.039-.053-.081-.077-.123l-.007-.012-.023-.04c-.036-.065-.065-.124-.09-.182l-.136-.312L539.494,756.33c-.027-.062-.051-.127-.075-.2-.005-.015-.009-.03-.013-.046l-.005-.018c-.012-.041-.025-.088-.036-.137,0-.02-.008-.039-.012-.059l0-.017c-.009-.049-.016-.09-.02-.128s-.006-.053-.008-.079c0-.042-.006-.084-.007-.125s0-.053,0-.079,0-.078,0-.124v-.014c0-.022,0-.043,0-.065,0-.044.011-.086.017-.122l0-.02c0-.019.006-.038.009-.056.008-.039.017-.075.025-.109l0-.009a2.184,2.184,0,0,1,.093-.289l.014-.031,0-.009c.026-.061.051-.114.077-.163l.024-.042.009-.016c.029-.052.056-.094.083-.135.013-.019.027-.039.041-.058l0-.005c.03-.042.06-.081.091-.118l.054-.063c.03-.034.063-.068.1-.1l.005-.005.057-.054c.041-.036.082-.07.114-.095l.016-.013.05-.039c.046-.033.092-.062.134-.088l.017-.011.046-.029a2.175,2.175,0,0,1,.213-.107l42.109-18.324a2.179,2.179,0,0,1,.224-.083l.052-.014.02-.005c.046-.013.1-.027.155-.038l.065-.011.021,0c.045-.007.093-.014.144-.019l.077,0h.011c.052,0,.1,0,.142,0l.087,0c.045,0,.092.007.142.013h0l.078.011c.045.007.091.017.147.03l.018,0,.054.013c.05.013.1.03.163.052l.013,0,.036.013a2.169,2.169,0,0,1,.28.132l.012.007c.028.015.057.031.087.05l.046.031.017.011c.033.022.068.046.1.074l.05.04.008.007c.036.03.068.057.1.084l.054.052c.03.03.06.061.089.094l.05.058c.026.031.051.064.081.1l.01.014.034.047c.028.04.053.082.076.12l.01.016.025.041c.037.066.067.128.094.19l23.48,53.957c.025.057.048.117.071.189l.013.043,0,.014c.014.046.026.093.037.14l0,.01c0,.017.008.033.011.05.011.054.019.109.026.163v.006c0,.008,0,.017,0,.025.007.062.01.123.011.19,0,.016,0,.033,0,.051v.017c0,.044,0,.083,0,.12s0,.056-.007.084-.008.067-.014.1a2.209,2.209,0,0,1-.074.323l-.012.036,0,.015c-.021.061-.044.12-.069.177-.008.019-.017.039-.026.059h0c-.027.056-.056.112-.091.171l-.007.012-.018.032a2.171,2.171,0,0,1-.141.2l-.015.018c-.044.055-.093.109-.145.162l-.041.039-.014.013c-.042.04-.086.078-.128.113l-.068.053c-.043.032-.09.064-.143.1l-.017.011-.049.03a2.189,2.189,0,0,1-.226.116l-42.109,18.324c-.056.024-.117.047-.187.071l-.006,0-.034.011c-.062.019-.124.036-.184.049l-.024,0-.01,0c-.059.012-.115.021-.17.027h-.007l-.023,0c-.058.006-.117.01-.183.011Zm18.629-76.219-.088,0h-.011l-.059,0c-.038,0-.078.009-.115.015l-.024,0-.044.007c-.041.008-.085.02-.124.031l-.031.008-.027.007a1.755,1.755,0,0,0-.18.066L540.8,753.852a1.777,1.777,0,0,0-.171.086l-.024.015-.026.017c-.036.022-.074.046-.108.07l-.034.026-.02.016c-.028.022-.06.048-.091.075l-.045.042-.005,0c-.03.03-.057.057-.081.084l-.043.05c-.024.029-.048.06-.073.094l0,.006-.031.045c-.021.031-.042.066-.066.108l-.012.02-.015.026c-.02.038-.04.08-.061.13l-.01.023,0,.01a1.734,1.734,0,0,0-.074.232l0,.01c-.008.03-.015.058-.02.085,0,.012,0,.024-.006.036l0,.026c0,.03-.01.065-.013.1,0,.016,0,.031,0,.047v.015c0,.038,0,.07,0,.1s0,.042,0,.063,0,.066.006.1,0,.042.007.064.009.061.016.1l0,.019c0,.014,0,.028.008.042.008.036.019.074.029.109l.007.027c0,.008,0,.017.007.025.019.058.038.11.06.159l23.48,53.957c.02.045.043.092.072.145l.016.028.008.014c.02.034.041.067.062.1l0,0,.025.037c.026.036.053.071.081.1l.013.017,0,0c.03.035.064.071.1.108l.025.023.015.013c.026.024.05.044.073.063l.053.041.067.047.019.013.041.027c.031.019.066.039.107.061l.052.026c.037.018.071.033.1.047l.046.018c.036.014.071.025.105.036l.011,0,.035.01c.043.012.087.022.131.031l.028,0,.013,0c.042.007.083.013.123.017l.017,0h.009c.042,0,.089.005.143.005h.038c.053,0,.1,0,.146-.009l.024,0c.044-.005.089-.013.136-.022l.028-.005c.048-.01.1-.023.147-.039l.026-.008.006,0c.058-.019.106-.037.15-.057l42.109-18.324a1.764,1.764,0,0,0,.181-.093l.031-.019.022-.014c.044-.027.081-.053.115-.078l.053-.042c.034-.028.068-.057.1-.09l.017-.016.026-.025a1.715,1.715,0,0,0,.118-.132l.013-.015a1.741,1.741,0,0,0,.11-.158l.008-.014.012-.021c.028-.047.052-.092.073-.136h0c.007-.016.014-.031.021-.047.02-.046.039-.093.055-.141l.006-.018.008-.023a1.775,1.775,0,0,0,.06-.259c0-.027.008-.053.011-.08s0-.045.006-.067,0-.061,0-.1v-.02c0-.011,0-.022,0-.033,0-.054,0-.1-.009-.151v0l0-.02c-.005-.043-.012-.087-.021-.13,0-.013-.005-.025-.008-.037l0-.011c-.008-.037-.018-.075-.03-.112l0-.016-.009-.03c-.019-.059-.037-.107-.057-.152l-23.48-53.957c-.021-.049-.046-.1-.076-.152l-.013-.022-.014-.023c-.022-.037-.041-.068-.06-.1l-.024-.034-.012-.016c-.024-.033-.045-.059-.064-.083l-.041-.046c-.023-.026-.047-.051-.071-.074l-.044-.042c-.022-.021-.047-.042-.078-.067l-.01-.008-.037-.03c-.026-.02-.055-.04-.083-.058l-.022-.015-.029-.019c-.021-.013-.044-.025-.066-.038l-.013-.007a1.752,1.752,0,0,0-.225-.106l-.014,0-.025-.008c-.051-.018-.092-.031-.131-.042l-.035-.008-.022-.005c-.046-.011-.083-.018-.118-.024l-.061-.008h0c-.04,0-.077-.008-.113-.01l-.07,0Z" transform="translate(-539.313 -734.945)" fill="#344566"/>
      <path id="Path_12275-2" data-name="Path 12275" d="M690.746,900.8l.032-.049q.046-.072.086-.147c.008-.014.016-.029.023-.043a1.978,1.978,0,0,0,.112-.277c.009-.029.018-.058.026-.087s.013-.049.018-.073.015-.07.021-.106c0-.02.007-.04.01-.06.008-.056.014-.112.017-.169,0-.009,0-.019,0-.028q0-.074,0-.149c0-.018,0-.037,0-.055q0-.065-.013-.13c0-.018,0-.035-.007-.053-.01-.06-.021-.119-.037-.179l-.085-.328h0l-14.467-55.938h0l-.182-.7c-.016-.062-.035-.123-.057-.182-.007-.019-.015-.037-.023-.056-.016-.04-.032-.08-.05-.118-.01-.021-.021-.04-.031-.06-.018-.035-.037-.07-.057-.1l-.037-.058c-.021-.033-.043-.064-.066-.1l-.041-.054c-.024-.031-.049-.06-.075-.089l-.045-.049c-.027-.028-.054-.054-.082-.08s-.033-.031-.05-.046-.053-.043-.08-.064a1.976,1.976,0,0,0-.231-.157l-.041-.022c-.045-.025-.091-.048-.138-.069l-.062-.025c-.042-.017-.084-.033-.127-.047l-.072-.022c-.041-.012-.083-.023-.125-.032l-.077-.015c-.042-.007-.084-.013-.127-.018l-.079-.008c-.043,0-.087,0-.131,0h-.077c-.047,0-.1.007-.143.012l-.067.007a2.011,2.011,0,0,0-.211.042l-44.461,11.5a2,2,0,0,0-.2.065c-.021.008-.041.018-.061.026-.045.019-.089.038-.132.059l-.067.037c-.039.022-.077.044-.114.068l-.064.044c-.036.025-.071.051-.1.079l-.057.048c-.034.03-.066.06-.1.092l-.049.05c-.032.035-.063.071-.092.108-.013.016-.026.031-.038.047-.033.043-.063.088-.091.134l-.022.033a1.981,1.981,0,0,0-.124.245c-.014.033-.029.066-.041.1s-.015.045-.022.067-.023.07-.032.106-.011.046-.016.069-.016.072-.022.109-.007.047-.01.071-.008.074-.011.112,0,.047,0,.071,0,.077,0,.116c0,.023,0,.046,0,.069,0,.042.008.084.013.127,0,.02,0,.04.007.06.01.062.022.125.038.187l.182.705h0l14.466,55.935h0l.085.33c.015.06.034.117.055.174.006.017.013.033.019.05q.024.061.051.12l.024.05c.023.045.046.088.072.13l.014.025c.03.048.063.095.1.14.012.016.025.032.038.048s.046.056.07.083l.051.055c.021.022.044.043.066.064s.04.038.06.056.071.058.107.086l.054.039c.035.025.071.048.107.07l.053.031q.052.03.107.056l.048.023q.069.031.14.057l.044.015q.065.022.132.04l.029.008c.052.013.105.023.158.031l.042.006c.054.008.109.013.164.016h.028q.076,0,.154,0h.032c.056,0,.113-.009.17-.017l.037-.006c.059-.01.118-.021.177-.036l44.461-11.5a1.982,1.982,0,0,0,.217-.071l.065-.028c.048-.021.1-.043.141-.067l.067-.037c.045-.026.088-.053.13-.082l.056-.039a1.971,1.971,0,0,0,.154-.126l.013-.011a1.945,1.945,0,0,0,.153-.159l.029-.036C690.679,900.9,690.714,900.852,690.746,900.8Z" transform="translate(-624.793 -836.973)" fill="#6c6c6c" opacity="0.2" style="mix-blend-mode: multiply;isolation: isolate"/>
      <g id="Group_32971" data-name="Group 32971" transform="translate(3.416 2.124)">
        <path id="Path_12286" data-name="Path 12286" d="M683.268,795.884,698,852.854a1.972,1.972,0,0,1-1.414,2.4l-44.461,11.5a1.971,1.971,0,0,1-2.4-1.414l-14.734-56.97a1.97,1.97,0,0,1,1.414-2.4l44.461-11.5a1.97,1.97,0,0,1,2.4,1.414Z" transform="translate(-634.93 -794.407)" fill="#ffc06e"/>
        <path id="Path_12287" data-name="Path 12287" d="M683.269,795.881l.182.7-2.2,6.836L660.9,808.956l-20.489,5.029-5.233-4.914-.182-.705a1.969,1.969,0,0,1,1.414-2.4l44.461-11.5A1.969,1.969,0,0,1,683.269,795.881Z" transform="translate(-634.931 -794.405)" fill="#d89444"/>
        <path id="Path_12288" data-name="Path 12288" d="M1094.994,2327.268l.085.328a1.97,1.97,0,0,1-1.414,2.4l-44.461,11.5a1.97,1.97,0,0,1-2.4-1.414l-.085-.329,1.525-4.47a1.23,1.23,0,0,1,.841-.777l41.295-10.68a1.238,1.238,0,0,1,1.114.272Z" transform="translate(-1032.007 -2269.149)" fill="#d89444"/>
        <path id="Path_12289" data-name="Path 12289" d="M1113.968,2328.861a1.965,1.965,0,0,1-1.356,1.231l-44.461,11.5a1.966,1.966,0,0,1-1.783-.419l.928-5.764a1,1,0,0,1,.735-.808l41.295-10.68a1,1,0,0,1,1.036.35Z" transform="translate(-1050.954 -2269.245)" fill="#ffad43"/>
        <path id="Path_12290" data-name="Path 12290" d="M687.559,794.78,686.33,803.3a.6.6,0,0,1-.446.5L646,814.116a.6.6,0,0,1-.633-.219l-5.207-6.857a1.966,1.966,0,0,1,1.29-1.071l44.461-11.5A1.965,1.965,0,0,1,687.559,794.78Z" transform="translate(-639.975 -794.407)" fill="#ffad43"/>
        <path id="Path_12291" data-name="Path 12291" d="M1273.416,1052.546a1.871,1.871,0,0,1-1.809-1.4l-3.923-15.171a1.873,1.873,0,0,1,1.341-2.276l.908-.235a1.87,1.87,0,0,1,2.276,1.341l3.923,15.171a1.873,1.873,0,0,1-1.341,2.276h0l-.908.235A1.865,1.865,0,0,1,1273.416,1052.546Zm-3.016-18.609a1.334,1.334,0,0,0-.334.043l-.908.235a1.339,1.339,0,0,0-.958,1.626l3.923,15.171a1.336,1.336,0,0,0,1.626.958l.908-.235a1.339,1.339,0,0,0,.958-1.626l-3.923-15.171A1.337,1.337,0,0,0,1270.4,1033.938Z" transform="translate(-1245.02 -1024.865)" fill="#444"/>
        <circle id="Ellipse_3223-2" data-name="Ellipse 3223" cx="2.609" cy="2.609" r="2.609" transform="translate(21.333 10.897) rotate(-45)" fill="#fff"/>
        <circle id="Ellipse_3224-2" data-name="Ellipse 3224" cx="2.609" cy="2.609" r="2.609" transform="translate(26.244 23.102)" fill="#fff"/>
      </g>
    </g>
    <g id="Whitepaper" transform="translate(836.595 348.313)">
      <path id="Path_12276-2" data-name="Path 12276" d="M1676.971,1177.591l-36.524-3.807a2.6,2.6,0,0,0-2.86,2.32l-5.969,57.265a2.6,2.6,0,0,0,2.32,2.86l44.414,4.629a2.6,2.6,0,0,0,2.86-2.32l5.146-49.376Z" transform="translate(-1630.175 -1172.669)" fill="#6c6c6c" opacity="0.25" style="mix-blend-mode: multiply;isolation: isolate"/>
      <g id="Group_32973" data-name="Group 32973">
        <path id="Path_12296" data-name="Path 12296" d="M1636.983,1146.785l-36.524-3.807a2.6,2.6,0,0,0-2.86,2.32l-5.969,57.265a2.6,2.6,0,0,0,2.32,2.86l44.414,4.629a2.6,2.6,0,0,0,2.86-2.32l5.146-49.376Z" transform="translate(-1591.615 -1142.964)" fill="#fff"/>
        <path id="Path_12297" data-name="Path 12297" d="M2838.078,1257.807a2.6,2.6,0,0,0,2.32,2.86l7.889.822-9.387-11.572Z" transform="translate(-2793.532 -1246.097)" fill="#ededed"/>
        <path id="Path_12298" data-name="Path 12298" d="M2891.991,1548.7l8.159,2.226.138-1.328Z" transform="translate(-2845.534 -1534.2)" fill="#cecece"/>
        <path id="Path_12299" data-name="Path 12299" d="M2106.964,1472.344l-22.335-2.328a1.1,1.1,0,0,1-.981-1.209h0a1.1,1.1,0,0,1,1.209-.981l22.336,2.328a1.1,1.1,0,0,1,.981,1.209h0A1.1,1.1,0,0,1,2106.964,1472.344Z" transform="translate(-2066.063 -1456.215)" fill="#24c1a1"/>
        <path id="Path_12300" data-name="Path 12300" d="M1895.692,1660.617l-36.925-3.849a1.1,1.1,0,0,1-.981-1.209h0a1.1,1.1,0,0,1,1.209-.981l36.925,3.849a1.1,1.1,0,0,1,.981,1.209h0A1.1,1.1,0,0,1,1895.692,1660.617Z" transform="translate(-1848.272 -1636.295)" fill="#eee"/>
        <path id="Path_12301" data-name="Path 12301" d="M1879.43,1816.641l-36.925-3.849a1.1,1.1,0,0,1-.981-1.209h0a1.1,1.1,0,0,1,1.209-.981l36.925,3.849a1.1,1.1,0,0,1,.981,1.209h0A1.1,1.1,0,0,1,1879.43,1816.641Z" transform="translate(-1832.591 -1786.744)" fill="#eee"/>
        <path id="Path_12302" data-name="Path 12302" d="M1863.168,1972.666l-36.925-3.849a1.1,1.1,0,0,1-.981-1.209h0a1.1,1.1,0,0,1,1.209-.981l36.925,3.849a1.1,1.1,0,0,1,.981,1.209h0A1.1,1.1,0,0,1,1863.168,1972.666Z" transform="translate(-1816.909 -1937.195)" fill="#eee"/>
        <path id="Path_12303" data-name="Path 12303" d="M1846.906,2128.69l-36.925-3.848a1.1,1.1,0,0,1-.981-1.209h0a1.1,1.1,0,0,1,1.209-.981l36.925,3.849a1.1,1.1,0,0,1,.981,1.209h0A1.1,1.1,0,0,1,1846.906,2128.69Z" transform="translate(-1801.229 -2087.645)" fill="#eee"/>
        <path id="Path_12304" data-name="Path 12304" d="M1830.643,2284.714l-36.925-3.849a1.1,1.1,0,0,1-.981-1.209h0a1.1,1.1,0,0,1,1.209-.981l36.925,3.849a1.1,1.1,0,0,1,.981,1.209h0A1.1,1.1,0,0,1,1830.643,2284.714Z" transform="translate(-1785.546 -2238.095)" fill="#eee"/>
        <path id="Path_12305" data-name="Path 12305" d="M1814.381,2440.739l-36.925-3.849a1.1,1.1,0,0,1-.981-1.209h0a1.1,1.1,0,0,1,1.209-.981l36.925,3.849a1.1,1.1,0,0,1,.981,1.209h0A1.1,1.1,0,0,1,1814.381,2440.739Z" transform="translate(-1769.865 -2388.546)" fill="#eee"/>
        <path id="Path_12306" data-name="Path 12306" d="M2282.653,2672.407a.211.211,0,0,0-.346-.166,3.5,3.5,0,0,1-.629.433l-.33.131q-.328.172-.366-.274a.208.208,0,0,0-.277-.309,1.4,1.4,0,0,1-.952.445,1.165,1.165,0,0,1-.332-.113,1.4,1.4,0,0,0,.206-.194.211.211,0,0,0,.012-.209,2.621,2.621,0,0,0-.228-.431,7.9,7.9,0,0,0,1.935-3.042.209.209,0,0,0-.335-.221,6.49,6.49,0,0,0-1.886,2.1,1.527,1.527,0,0,0-.235.957,1.03,1.03,0,0,0,.028.1,6.646,6.646,0,0,1-.641.533,3.447,3.447,0,0,1-.981.509c-.255.08-.639.2-.815-.045.58-.325,1.048-.785.8-1.359-.375-.863-1.271.439-1.318,1.166a4.763,4.763,0,0,1-.882.3.208.208,0,0,0,.088.406,5.915,5.915,0,0,0,.891-.3c.492.866,2.047-.02,2.571-.415.156-.117.311-.246.463-.383.119.213.127.177-.17.378a.211.211,0,0,0,.028.382,2.125,2.125,0,0,0,1.015.3,1.147,1.147,0,0,0,.323-.094.2.2,0,0,0,.083.141,1.713,1.713,0,0,0,1.84-.3,2.769,2.769,0,0,1-.948,1.69,3.125,3.125,0,0,1-2.709.307c-.259-.051-.394.342-.133.393a3.675,3.675,0,0,0,2.961-.27A3.1,3.1,0,0,0,2282.653,2672.407Zm-6.013-.755c.321-.249.1.223-.01.338a1.447,1.447,0,0,1-.241.191A1.135,1.135,0,0,1,2276.64,2671.652Zm2.7-.584a3.054,3.054,0,0,1,.557-.944,6.073,6.073,0,0,1,.74-.816,7.952,7.952,0,0,1-1.323,1.909A1.229,1.229,0,0,1,2279.343,2671.068Z" transform="translate(-2250.511 -2613.914)" fill="#eee"/>
        <path id="Path_12307" data-name="Path 12307" d="M2614.193,2693.545a3.976,3.976,0,1,1,4.551-3.3A3.981,3.981,0,0,1,2614.193,2693.545Zm1.112-7.005a3.117,3.117,0,1,0,2.59,3.566A3.12,3.12,0,0,0,2615.3,2686.54Z" transform="translate(-2574.427 -2630.527)" fill="#eee"/>
        <path id="Path_12308" data-name="Path 12308" d="M2677.829,2718.536l-.039.006a9.444,9.444,0,0,0-1.33.32l-.632.206-.606.241a17.476,17.476,0,0,0-2.3,1.136,18.8,18.8,0,0,0-2.121,1.382c-.382.278-.75.575-1.111.882-.205-.189-.417-.373-.638-.55-.295-.258-.628-.488-.953-.724a9.673,9.673,0,0,0-1.067-.641l-.035-.018a.081.081,0,0,0-.1.118c.862,1.262,1.751,2.5,2.641,3.746a.15.15,0,0,0,.208.033c1.375-.975,2.742-1.959,4.093-2.968l2.034-1.5c.682-.5,1.345-1.016,2.018-1.524a.081.081,0,0,0-.061-.144Z" transform="translate(-2629.116 -2664.037)" fill="#24c1a1"/>
      </g>
    </g>
  </g>
</svg>
