<svg id="_5" data-name="5" xmlns="http://www.w3.org/2000/svg" width="44" height="55" viewBox="0 0 44 55">
  <path id="Path_2805" data-name="Path 2805" d="M551.868,162.338a21.953,21.953,0,0,0-17.7,35.01c4.008,5.4,17.741,19.99,17.741,19.99s13.641-14.585,17.649-19.99a21.953,21.953,0,0,0-17.7-35.01Zm0,37.234a15.274,15.274,0,1,1,15.3-15.274A15.288,15.288,0,0,1,551.868,199.572Z" transform="translate(-529.868 -162.338)" fill="#24C1A1"/>
  <path id="Path_2808" data-name="Path 2808" d="M15.4,0A15.4,15.4,0,1,1,0,15.4,15.4,15.4,0,0,1,15.4,0Z" transform="translate(6.6 6.6)" fill="#fff"/>
  <path id="Path_2994" data-name="Path 2994" d="M5.58-8.74A6.723,6.723,0,0,1,9.95-7.56,3.91,3.91,0,0,1,11.36-4.4a4.39,4.39,0,0,1-.64,2.33A4.47,4.47,0,0,1,8.77-.39,7.42,7.42,0,0,1,5.54.24,11.011,11.011,0,0,1,2.63-.15,7.5,7.5,0,0,1,.2-1.26L1.48-3.74a6.126,6.126,0,0,0,1.84.93,7.034,7.034,0,0,0,2.14.33,3.353,3.353,0,0,0,1.92-.48,1.535,1.535,0,0,0,.7-1.34,1.506,1.506,0,0,0-.73-1.36,5.038,5.038,0,0,0-2.53-.46H1.24L1.96-14H10.5v2.6H4.66L4.44-8.74Z" transform="translate(15.8 29)" fill="#24C1A1"/>
</svg>
