<svg xmlns="http://www.w3.org/2000/svg" width="18" height="16.004" viewBox="0 0 18 16.004">
  <path id="Subtraction_164" data-name="Subtraction 164" d="M22684.377,24706a.793.793,0,0,1-.676-.379l-1.576-2.648h-.818a2.273,2.273,0,0,1-2.307-2.23v-8.508a2.276,2.276,0,0,1,2.307-2.238h13.387a2.276,2.276,0,0,1,2.307,2.238v8.508a2.273,2.273,0,0,1-2.307,2.23h-8.072l-1.568,2.648A.808.808,0,0,1,22684.377,24706Zm3.613-13c-1.635,0-2.689.785-2.689,2a1.623,1.623,0,0,0,.813,1.438,1.773,1.773,0,0,0-1.061,1.65c0,1.307,1.152,2.15,2.938,2.15s2.959-.844,2.959-2.15a1.776,1.776,0,0,0-1.066-1.65,1.629,1.629,0,0,0,.818-1.437C22690.7,24693.785,22689.637,24693,22687.99,24693Zm0,6.051c-.8,0-1.3-.389-1.3-1.012s.5-1,1.3-1,1.322.383,1.322,1S22688.8,24699.051,22687.99,24699.051Zm0-3.119c-.664,0-1.078-.33-1.078-.861s.414-.881,1.078-.881,1.1.338,1.1.881C22689.088,24695.594,22688.656,24695.932,22687.99,24695.932Z" transform="translate(-22679 -24689.998)" fill="#d2d2d1"/>
</svg>
