<svg xmlns="http://www.w3.org/2000/svg" width="18" height="16.004" viewBox="0 0 18 16.004">
  <path id="Subtraction_158" data-name="Subtraction 158" d="M22684.377,24706a.793.793,0,0,1-.676-.379l-1.576-2.648h-.818a2.273,2.273,0,0,1-2.307-2.23v-8.508a2.276,2.276,0,0,1,2.307-2.238h13.387a2.276,2.276,0,0,1,2.307,2.238v8.508a2.273,2.273,0,0,1-2.307,2.23h-8.072l-1.568,2.648A.808.808,0,0,1,22684.377,24706Zm3.613-13c-1.82,0-2.994,1.42-2.994,3.619s1.174,3.621,2.994,3.621,3-1.42,3-3.621S22689.814,24693,22687.99,24693Zm0,5.871c-.875,0-1.357-.8-1.357-2.252s.482-2.25,1.357-2.25c.627,0,1.377.391,1.377,2.25C22689.367,24698.07,22688.877,24698.871,22687.99,24698.871Z" transform="translate(-22679 -24689.998)" fill="#d2d2d1"/>
</svg>
