<svg xmlns="http://www.w3.org/2000/svg" width="18" height="16.004" viewBox="0 0 18 16.004">
  <path id="Subtraction_161" data-name="Subtraction 161" d="M22684.377,24706a.793.793,0,0,1-.676-.379l-1.576-2.648h-.818a2.273,2.273,0,0,1-2.307-2.23v-8.508a2.276,2.276,0,0,1,2.307-2.238h13.387a2.276,2.276,0,0,1,2.307,2.238v8.508a2.273,2.273,0,0,1-2.307,2.23h-8.072l-1.568,2.648A.808.808,0,0,1,22684.377,24706Zm1.463-7.867-.639,1.232a4.833,4.833,0,0,0,2.666.75c2.148,0,2.914-1.2,2.914-2.318,0-1.4-1.027-2.17-2.895-2.17h-.572l.113-1.328h2.92v-1.3h-4.266l-.359,3.943h1.785c1.127,0,1.631.279,1.631.9,0,.563-.5.912-1.309.912A3.379,3.379,0,0,1,22685.84,24698.135Z" transform="translate(-22679 -24689.998)" fill="#d2d2d1"/>
</svg>
