<svg xmlns="http://www.w3.org/2000/svg" width="18" height="16.004" viewBox="0 0 18 16.004">
  <path id="Subtraction_152" data-name="Subtraction 152" d="M22684.377,24706a.793.793,0,0,1-.676-.379l-1.576-2.648h-.818a2.273,2.273,0,0,1-2.307-2.23v-8.508a2.276,2.276,0,0,1,2.307-2.238h13.387a2.276,2.276,0,0,1,2.307,2.238v8.508a2.273,2.273,0,0,1-2.307,2.23h-8.072l-1.568,2.648A.808.808,0,0,1,22684.377,24706Zm1.822-13v1.3h1.4v5.7h1.625v-7h-3.025Z" transform="translate(-22679 -24689.998)" fill="#d2d2d1"/>
</svg>
