<svg xmlns="http://www.w3.org/2000/svg" width="18" height="16.004" viewBox="0 0 18 16.004">
  <path id="Subtraction_163" data-name="Subtraction 163" d="M22684.377,24706a.793.793,0,0,1-.676-.379l-1.576-2.648h-.818a2.273,2.273,0,0,1-2.307-2.23v-8.508a2.276,2.276,0,0,1,2.307-2.238h13.387a2.276,2.276,0,0,1,2.307,2.238v8.508a2.273,2.273,0,0,1-2.307,2.23h-8.072l-1.568,2.648A.808.808,0,0,1,22684.377,24706Zm2.225-11.682h2.32l-2.512,5.68h1.762l2.6-5.947V24693h-5.611v2.461h1.443v-1.141Z" transform="translate(-22679 -24689.998)" fill="#d2d2d1"/>
</svg>
