<svg xmlns="http://www.w3.org/2000/svg" width="18" height="16.004" viewBox="0 0 18 16.004">
  <path id="Subtraction_167" data-name="Subtraction 167" d="M22684.377,24706a.793.793,0,0,1-.676-.379l-1.576-2.648h-.818a2.273,2.273,0,0,1-2.307-2.23v-8.508a2.276,2.276,0,0,1,2.307-2.238h13.387a2.276,2.276,0,0,1,2.307,2.238v8.508a2.273,2.273,0,0,1-2.307,2.23h-8.072l-1.568,2.648A.808.808,0,0,1,22684.377,24706Zm1.451-7.867-.627,1.232a4.774,4.774,0,0,0,2.666.75c2.143,0,2.9-1.217,2.9-2.258a1.981,1.981,0,0,0-1.9-2.008l1.576-1.8V24693h-4.9v1.3h2.982l-1.439,1.631V24697h.738c.855,0,1.309.3,1.309.861s-.49.9-1.309.9A3.424,3.424,0,0,1,22685.828,24698.135Z" transform="translate(-22679 -24689.998)" fill="#d2d2d1"/>
</svg>
