<svg xmlns="http://www.w3.org/2000/svg" width="16" height="16" viewBox="0 0 16 16">
  <g id="Cancel" opacity="0.7">
    <path id="Path_7153" data-name="Path 7153" d="M303.163,385.663a8,8,0,1,0,8,8A8,8,0,0,0,303.163,385.663Zm3.661,11.537-.123.123a.728.728,0,0,1-1.028,0l-2.509-2.509-2.448,2.447a.814.814,0,0,1-1.151-1.151l2.447-2.447-2.509-2.509a.727.727,0,0,1,0-1.028l.123-.123h0a.727.727,0,0,1,1.028,0l2.509,2.509,2.447-2.447a.814.814,0,0,1,1.151,1.151l-2.448,2.447,2.509,2.509A.727.727,0,0,1,306.824,397.2Z" transform="translate(-295.163 -385.663)" fill="#919191"/>
  </g>
</svg>
