<svg id="Edit_-_Circle" data-name="Edit - Circle" xmlns="http://www.w3.org/2000/svg" width="16" height="16" viewBox="0 0 16 16">
  <path id="Subtraction_29" data-name="Subtraction 29" d="M11677,17203a8,8,0,1,1,8-8A8.01,8.01,0,0,1,11677,17203Zm.452-10.7-4.722,4.727-.225,2.008a.3.3,0,0,0,0,.094.412.412,0,0,0,.414.371.183.183,0,0,0,.048,0l2.012-.225,4.724-4.723a.215.215,0,0,0,.063-.152.206.206,0,0,0-.06-.145l-1.951-1.953a.213.213,0,0,0-.3,0v0Zm2.154-1.8a.83.83,0,0,0-.595.25l-.769.764a.212.212,0,0,0,0,.3l1.947,1.951a.211.211,0,0,0,.151.064.207.207,0,0,0,.146-.061l0,0,.764-.766a.856.856,0,0,0,0-1.2l-1.054-1.053A.839.839,0,0,0,11679.6,17190.5Z" transform="translate(-11668.998 -17187)" fill="#6c6c6c" opacity="0.7"/>
</svg>
