<svg xmlns="http://www.w3.org/2000/svg" width="18" height="18" viewBox="0 0 18 18">
  <g id="Group_6801" data-name="Group 6801" transform="translate(-492 -553.418)">
    <circle id="Ellipse_1410" data-name="Ellipse 1410" cx="9" cy="9" r="9" transform="translate(492 553.418)" fill="#919191"/>
    <path id="Path_5681" data-name="Path 5681" d="M388.5,374.968l-2.591-2.591,2.527-2.527a.841.841,0,1,0-1.189-1.189l-2.527,2.527-2.591-2.591a.751.751,0,0,0-1.063,0l-.127.127a.752.752,0,0,0,0,1.062l2.591,2.591-2.527,2.527a.841.841,0,1,0,1.189,1.189l2.528-2.527,2.591,2.591a.75.75,0,0,0,1.062,0l.127-.127A.752.752,0,0,0,388.5,374.968Z" transform="translate(116.276 190.041)" fill="#fff"/>
  </g>
</svg>
