<svg xmlns="http://www.w3.org/2000/svg" xmlns:xlink="http://www.w3.org/1999/xlink" width="42.279" height="44.861" viewBox="0 0 42.279 44.861">
  <defs>
    <filter id="Path_4313" x="0" y="0" width="42.279" height="44.861" filterUnits="userSpaceOnUse">
      <feOffset input="SourceAlpha"/>
      <feGaussianBlur stdDeviation="0.5" result="blur"/>
      <feFlood flood-opacity="0.09"/>
      <feComposite operator="in" in2="blur"/>
      <feComposite in="SourceGraphic"/>
    </filter>
  </defs>
  <g id="Group_8012" data-name="Group 8012" transform="translate(1.5 1.5)">
    <g id="Group_6669" data-name="Group 6669" transform="translate(0 0)">
      <g transform="matrix(1, 0, 0, 1, -1.5, -1.5)" filter="url(#Path_4313)">
        <path id="Path_4313-2" data-name="Path 4313" d="M72.631,56.833,43.4,49.208a2.452,2.452,0,0,1-1.754-2.991L49.3,16.865a2.452,2.452,0,0,1,2.992-1.753l21.528,5.614,7.024,11.981L74.9,55.5a1.86,1.86,0,0,1-2.268,1.329" transform="translate(-40.07 -13.53)" fill="#fff"/>
      </g>
      <path id="Path_4314" data-name="Path 4314" d="M71.225,30.336l7.7,2.009L71.905,20.365l-2.009,7.7a1.859,1.859,0,0,0,1.329,2.268" transform="translate(-39.651 -14.671)" fill="#ffbc81"/>
      <path id="Path_4315" data-name="Path 4315" d="M54.841,41.344a3.438,3.438,0,0,1-4.43,2.645,3.337,3.337,0,0,1-2.584-4.378L49.3,40a1.856,1.856,0,0,0,1.476,2.582,1.982,1.982,0,0,0,2.559-1.626l.824-3.16-2.4-.626.363-1.4,3.9,1.018Z" transform="translate(-41.152 -13.628)" fill="#ffbc81"/>
      <path id="Path_4316" data-name="Path 4316" d="M59.449,43.714l-2.25-.587-.611,2.341-1.5-.391,2.075-7.957c1.25.326,2.5.641,3.754.967a2.909,2.909,0,1,1-1.468,5.626m-1.891-1.962,2.25.587a1.457,1.457,0,1,0,.736-2.819l-2.251-.587Z" transform="translate(-40.65 -13.536)" fill="#ffbc81"/>
      <path id="Path_4317" data-name="Path 4317" d="M69.941,42.5a3.159,3.159,0,0,0-1.815-1.323,2.806,2.806,0,0,0-3.5,2.218,2.6,2.6,0,0,0,2.046,3.376,2.736,2.736,0,0,0,1.961-.17L69,45.19l-2.034-.531.35-1.341,3.409.889-.874,3.354a4.1,4.1,0,0,1-3.545.6,3.961,3.961,0,0,1-3.147-5.155,4.18,4.18,0,0,1,5.328-3.21,4.335,4.335,0,0,1,2.638,1.986Z" transform="translate(-40.115 -13.366)" fill="#ffbc81"/>
    </g>
  </g>
</svg>
