<svg xmlns="http://www.w3.org/2000/svg" width="101.572" height="23.928" viewBox="0 0 101.572 23.928">
  <path id="Path_8857" data-name="Path 8857" d="M138.316,59.278a3.36,3.36,0,0,0-.716.077c.009-.177.016-.356.016-.535A10.367,10.367,0,0,0,117.193,56.3a5.989,5.989,0,0,0-7.7-1.3,9.953,9.953,0,0,0-17.063-3.392,10.852,10.852,0,0,0-13.59-1.979,14.2,14.2,0,0,0-26.467,3.71c-.192-.017-.386-.027-.581-.027a6.529,6.529,0,0,0-6.529,6.5,3.348,3.348,0,1,0-2.066,6.15l.032,0,.088,0c.022,0,.043,0,.064,0h95.045a1.763,1.763,0,0,0,.226-.017,3.349,3.349,0,0,0-.333-6.681Z" transform="translate(-40.093 -42.048)" fill="#eee"/>
</svg>
