<svg xmlns="http://www.w3.org/2000/svg" width="12.264" height="12.261" viewBox="0 0 12.264 12.261">
  <path id="Path_5543" data-name="Path 5543" d="M12.122,4.69l.134.772A.47.47,0,0,1,11.93,6l-.2.063a1.287,1.287,0,0,0-.9.966c-.017.091-.039.179-.06.27a1.342,1.342,0,0,0,.427,1.314l.129.116a.473.473,0,0,1,.067.623l-.451.638a.47.47,0,0,1-.608.147l-.153-.082a1.344,1.344,0,0,0-1.38.041c-.078.054-.155.1-.235.149a1.279,1.279,0,0,0-.606,1.178l.011.211a.472.472,0,0,1-.393.487l-.772.136a.474.474,0,0,1-.535-.328l-.063-.2a1.276,1.276,0,0,0-.966-.9c-.091-.017-.181-.037-.27-.06a1.347,1.347,0,0,0-1.316.429l-.116.127a.47.47,0,0,1-.621.069l-.641-.451a.47.47,0,0,1-.145-.608l.08-.153a1.339,1.339,0,0,0-.041-1.38c-.052-.075-.1-.155-.147-.233A1.289,1.289,0,0,0,.842,7.953L.63,7.962a.471.471,0,0,1-.49-.393L.007,6.8a.475.475,0,0,1,.328-.535l.2-.06a1.3,1.3,0,0,0,.9-.968c.017-.091.037-.179.058-.27a1.342,1.342,0,0,0-.427-1.313L.943,3.534a.472.472,0,0,1-.067-.621l.451-.641a.468.468,0,0,1,.606-.147l.155.082a1.344,1.344,0,0,0,1.38-.041c.078-.052.155-.1.235-.147A1.305,1.305,0,0,0,4.31.842L4.3.631a.469.469,0,0,1,.393-.49L5.464.008A.47.47,0,0,1,6,.333l.063.2a1.28,1.28,0,0,0,.966.9c.091.015.179.035.27.058a1.35,1.35,0,0,0,1.316-.427L8.727.944A.478.478,0,0,1,9.351.875l.641.451a.475.475,0,0,1,.145.61l-.08.151A1.338,1.338,0,0,0,10.1,3.469c.052.075.1.153.145.231a1.294,1.294,0,0,0,1.178.606l.214-.009A.474.474,0,0,1,12.122,4.69ZM8,5.805a1.892,1.892,0,1,0-1.54,2.187A1.89,1.89,0,0,0,8,5.805Z" fill="#dadada"/>
</svg>
