<svg xmlns="http://www.w3.org/2000/svg" width="45.076" height="14.615" viewBox="0 0 45.076 14.615">
  <path id="Path_8863" data-name="Path 8863" d="M229.023,82.141c-.031,0-.061,0-.092,0a2.188,2.188,0,0,0-2.893-1.409,4.022,4.022,0,0,0-4.332-2.447,9.117,9.117,0,0,0-14.8-4.462,7.778,7.778,0,0,0-10.277,4.446,4.092,4.092,0,0,0-.493-.031,4.017,4.017,0,0,0-3.358,1.811,2.933,2.933,0,0,0-4.041,2.232,2.023,2.023,0,1,0-.745,3.9l.032,0,.031,0h40.966a2.024,2.024,0,0,0,0-4.047Z" transform="translate(-185.97 -71.573)" fill="#fff"/>
</svg>
