<svg xmlns="http://www.w3.org/2000/svg" width="76" height="76.043" viewBox="0 0 76 76.043">
  <g id="Group_11403" data-name="Group 11403" transform="translate(-56.25 -226.664)">
    <circle id="Ellipse_631" data-name="Ellipse 631" cx="38" cy="38" r="38" transform="translate(56.25 226.664)" fill="#b7b7b7"/>
    <path id="Path_1749" data-name="Path 1749" d="M78.962,335.258a11.592,11.592,0,0,1,6.117-4.677l8.957-3.319h8.55l8.954,3.319a11.6,11.6,0,0,1,6.117,4.677Z" transform="translate(-5.325 -50.696)" fill="#eee"/>
    <path id="Path_1750" data-name="Path 1750" d="M144.158,355.251a24.5,24.5,0,0,0,3.059-1.032,30.4,30.4,0,0,0,5.453-2.812,34.364,34.364,0,0,0,4.109-2.859c-.813-14.15-10.918-14.359-10.918-14.359-8.041-1.947-3.658,10.49-3.658,10.49C141.993,347.676,143.294,350.664,144.158,355.251Z" transform="translate(-38.638 -54.304)" fill="#3d3d3d"/>
    <path id="Path_1760" data-name="Path 1760" d="M0,0H11.738V11.445H0Z" transform="translate(87.117 268.167)" fill="#eee"/>
    <path id="Path_1751" data-name="Path 1751" d="M119.808,314.446v-5.319H108.069v2.635C111.417,314.548,115.451,314.9,119.808,314.446Z" transform="translate(-20.951 -40.961)" fill="#d1d1d1"/>
    <path id="Path_1752" data-name="Path 1752" d="M106.789,352.3c.225-6.171,5.953-6.8,5.9-8.9-.123-4.689-1.125-8.651-4.216-12.132l-.015,0-8.368-2.729s1.76,3.08-5.931,3.08c0,0-5.066-.2-5.807-3.08l-8.5,2.729s-7.265,1.787-8.511,9.434l4.736,7.528,7.217,3.793a38.455,38.455,0,0,0,11.236,2.041A35.272,35.272,0,0,0,106.789,352.3Z" transform="translate(-1.234 -51.38)" fill="#606060"/>
    <path id="Path_1753" data-name="Path 1753" d="M144.148,261.137c0-2.72-.116-5.435-.052-8.152.041-1.737.2-1.289-1.81-1.479-2.788-.265-3.72,4.913-3.915,7.154-.27,3.089.4,6.414.913,9.425.185,1.087.135,3.267,1.274,3.777.973.436,1.99-.64,2.5-1.435,1.176-1.831.968-4.63,1.046-6.708C144.136,262.857,144.148,262,144.148,261.137Z" transform="translate(-37.188 -10.02)" fill="#3d3d3d"/>
    <path id="Path_1754" data-name="Path 1754" d="M119.54,272.445c-1.187,4.642-3.276,5.922-3.276,5.922l-2.8.546c-1.612-.2-4.394-.861-4.394-.861-6.4-2.176-8.256-2.763-9.249-5.2-.042-.1-5.046-17.474-5.046-17.474-.819-8.941,8.54-10.8,9.953-11.035,1.4-.322,10.308-2.8,12.941,5.784A46.617,46.617,0,0,1,119.54,272.445Z" transform="translate(-13.787 -5.871)" fill="#eee"/>
    <path id="Path_1755" data-name="Path 1755" d="M89.151,251.121c-3.11,1.5-3.216,4.275-3.071,7.432a22.5,22.5,0,0,0,1.745,6.909,29.129,29.129,0,0,0,2.816,6.378,27.114,27.114,0,0,0,4.716,5.4c-.769-3.047-.985-5.323-1.685-7.663a14.753,14.753,0,0,1,.655-9.455s.709-1.92,3.618-2.467h0l-8.795-6.535" transform="translate(-9.125 -9.816)" fill="#3d3d3d"/>
    <path id="Path_1756" data-name="Path 1756" d="M98.572,287.294s-1.582-3.448-4.069-1.405c0,0-1.132.884.262,3.191,0,0,2.026,3.317,4.452,1.479Z" transform="translate(-13.436 -28.137)" fill="#eee"/>
    <path id="Path_1757" data-name="Path 1757" d="M99.93,272.313s.01,6.172,1.144,9.445l-1.2.238s-.633-4.233-2.812-4.283Z" transform="translate(-15.041 -21.195)" fill="#3d3d3d"/>
    <path id="Path_1758" data-name="Path 1758" d="M121.19,237.9c10,10.188-20.27,10.085-20.27,10.085s-3.176,1.468-8.2-6.681c0,0-1.356-6.374,12.959-8.381C105.676,232.923,115.139,231.762,121.19,237.9Z" transform="translate(-12.691)" fill="#606060"/>
    <path id="Path_1759" data-name="Path 1759" d="M82.076,355.845c-5.992-1.706-12.575-6.924-12.568-7.142a11.14,11.14,0,0,1,.42-3.836c.778-4.253,2.843-8.025,7.389-9.106,2.081-.495,3.931.765,5.058,2.477C82.376,338.238,84.531,339.428,82.076,355.845Z" transform="translate(0 -55.201)" fill="#3d3d3d"/>
  </g>
</svg>
