<svg id="Group_38272" data-name="Group 38272" xmlns="http://www.w3.org/2000/svg" width="36.52" height="40.696" viewBox="0 0 36.52 40.696">
  <g id="Group_36012" data-name="Group 36012">
    <path id="Path_23667" data-name="Path 23667" d="M277.968,274.827V262.243H272.49v12.584c0,2.58-4.637,6.532-4.637,8.749v17.5a1.767,1.767,0,0,0,1.653,1.858h11.449a1.767,1.767,0,0,0,1.644-1.858v-17.5C282.6,281.359,277.968,277.4,277.968,274.827Zm-4.309,3.891c-.382.547-.913,1.32-1.519,2.247a10.763,10.763,0,0,0-1.51,3.26,11.374,11.374,0,0,0-.1,2.055c-.011.746-.027,1.5-.038,2.259-.052,3.027-.172,6.052-.307,8.322s-.262,3.785-.262,3.785-.133-1.515-.262-3.785-.255-5.3-.308-8.322c-.011-.757-.027-1.513-.038-2.259a13.758,13.758,0,0,1,.081-2.3,8.309,8.309,0,0,1,1.949-3.611,12.373,12.373,0,0,1,2.057-1.908,6.569,6.569,0,0,1,.877-.595Z" transform="translate(-267.85 -262.243)" fill="#b7b7b7"/>
  </g>
  <g id="Group_36014" data-name="Group 36014" transform="translate(12.74 4.253)">
    <g id="Group_36013" data-name="Group 36013">
      <path id="Path_23668" data-name="Path 23668" d="M276.544,265.03a6.336,6.336,0,0,0-2.155,8.684l3.807,6.319,7.176-4.323a6.92,6.92,0,0,1,.687-7.278l-.83-1.248A6.336,6.336,0,0,0,276.544,265.03Z" transform="translate(-273.485 -264.124)" fill="#b7b7b7"/>
    </g>
  </g>
  <g id="Group_36016" data-name="Group 36016" transform="translate(18.178 17.031)">
    <g id="Group_36015" data-name="Group 36015">
      <path id="Path_23669" data-name="Path 23669" d="M283.075,269.776l-7.185,4.33,3.733,6.186a6.36,6.36,0,1,0,10.9-6.563l-.76-1.255a6.921,6.921,0,0,1-6.683-2.695Z" transform="translate(-275.89 -269.776)" fill="#b7b7b7"/>
    </g>
  </g>
  <g id="Group_36018" data-name="Group 36018" transform="translate(25.328 12.141)">
    <g id="Group_36017" data-name="Group 36017">
      <path id="Path_23670" data-name="Path 23670" d="M283.295,273.726a5.6,5.6,0,0,0,6.575-3.439l-10.775-2.675A5.6,5.6,0,0,0,283.295,273.726Z" transform="translate(-279.053 -267.613)" fill="#b7b7b7"/>
    </g>
  </g>
  <g id="Group_36020" data-name="Group 36020" transform="translate(25.704 7.191)">
    <g id="Group_36019" data-name="Group 36019">
      <path id="Path_23671" data-name="Path 23671" d="M279.219,269.01l10.775,2.672a5.594,5.594,0,0,0-10.775-2.672Z" transform="translate(-279.219 -265.424)" fill="#b7b7b7"/>
    </g>
  </g>
</svg>
