<svg id="Group_38271" data-name="Group 38271" xmlns="http://www.w3.org/2000/svg" width="36.441" height="40.696" viewBox="0 0 36.441 40.696">
  <g id="Group_36046" data-name="Group 36046">
    <g id="frontal-truck-2">
      <path id="Path_23659-2" data-name="Path 23659-2" d="M213.267,287.958h-2.127a.574.574,0,0,0-.567.567v.016a.574.574,0,0,0,.567.567h3.084Zm-2.127,2.288a.563.563,0,0,0-.567.561v.023a.577.577,0,0,0,.567.57h.57l1.865-1.153Zm.228-4.578h-.228a.576.576,0,0,0-.567.57v.016a.575.575,0,0,0,.567.567h1.185Zm1.9,2.29h-2.127a.574.574,0,0,0-.567.567v.016a.574.574,0,0,0,.567.567h3.084Zm-2.127,2.288a.563.563,0,0,0-.567.561v.023a.577.577,0,0,0,.567.57h.57l1.865-1.153Zm.228-4.578h-.228a.576.576,0,0,0-.567.57v.016a.575.575,0,0,0,.567.567h1.185Zm16.7,12.093h2.469a.575.575,0,0,0,.568-.567v-3.165a.579.579,0,0,0-.568-.586h-.974v-.113l-1.413.617M226.413,263.3l-1.46-.959a.563.563,0,0,0-.782.143l-.013.02a.509.509,0,0,0-.1.31v6.9l-.439-1.169a3.994,3.994,0,0,0-3.748-2.614h-10a3.993,3.993,0,0,0-3.764,2.645l-.423,1.137v-6.9a.566.566,0,0,0-.561-.57h-.007a.6.6,0,0,0-.326.1l-1.46.959a.544.544,0,0,0-.26.47v21.508h-.583a2.285,2.285,0,0,0-2.29,2.281v5.883h-.972a.585.585,0,0,0-.586.581v3.17a.579.579,0,0,0,.586.567h2.467v1.526a1.136,1.136,0,0,0,1.135,1.135h3.052a1.136,1.136,0,0,0,1.137-1.135h0v-1.526h12.921l-.927-1.137-14.542-.762,6.1-3.767a1.136,1.136,0,0,1-.73-1.072v-7.19l-4.416-5.309,11.671,4.027.73-3.993H206.448v-5.65h12.4l.373-2.028,1.054,2.028h3.036v5.65h-.081l.925,1.784,2.516-1.395V263.772A.544.544,0,0,0,226.413,263.3Zm-20.37,26.36a1.075,1.075,0,0,1,1.087,1.063v.043a1.086,1.086,0,0,1-1.072,1.088h-1.965a1.089,1.089,0,0,1-1.087-1.088h0v-.034a1.078,1.078,0,0,1,1.078-1.072h1.958Zm7.223-1.7h-2.127a.574.574,0,0,0-.567.567v.016a.574.574,0,0,0,.567.567h3.084Zm-2.127,2.288a.563.563,0,0,0-.567.561v.023a.577.577,0,0,0,.567.57h.57l1.865-1.153Zm.228-4.578h-.228a.576.576,0,0,0-.567.57v.016a.575.575,0,0,0,.567.567h1.185Z" transform="translate(-198.641 -262.243)" fill="#B7B7B7"/>
    </g>
  </g>
  <g id="Path_23674" data-name="Path 23674" transform="translate(11.103 13.588)">
    <path id="Path_23835" data-name="Path 23835" d="M223.371,280.964l4.739.909-4.739,2.093-3,1.332-.213,7.547-.063,2.516-2.062-2.516-1.476-1.8-.7-.859-2.241-2.727-10.063-.52,3.782-2.338,1.266-.778,1.865-1.153.423-.26-.73-.877-.959-1.151-.941-1.137-.959-1.153-.956-1.135-.959-1.153-.633-.764-.552-.665,1.931.665,2.209.764,3.344,1.153.47.161.032-.161.213-1.153.129-.764.746-4.056.5-2.729,1.411,2.729,2.1,4.024,3.2-1.768,8.408-4.66-6.737,9.383L220.4,280.4Z" transform="translate(-203.552 -268.253)" fill="#B7B7B7"/>
  </g>
</svg>
