<svg id="Group_38279" data-name="Group 38279" xmlns="http://www.w3.org/2000/svg" width="40.696" height="30.522" viewBox="0 0 40.696 30.522">
  <g id="Group_36004" data-name="Group 36004">
    <g id="Group_36003" data-name="Group 36003">
      <g id="Group_36002" data-name="Group 36002">
        <path id="Path_23661" data-name="Path 23661" d="M348.745,264.492H316.529a4.244,4.244,0,0,0-4.241,4.239v.848h40.7v-.848A4.244,4.244,0,0,0,348.745,264.492Z" transform="translate(-312.288 -264.492)" fill="#b7b7b7"/>
      </g>
    </g>
  </g>
  <path id="Path_23662" data-name="Path 23662" d="M312.288,267.492v19.5a4.235,4.235,0,0,0,4.232,4.239h32.224a4.239,4.239,0,0,0,4.239-4.187V267.492Zm24.589,3.391h5.087a.848.848,0,1,1,0,1.7h-5.087a.848.848,0,1,1,0-1.7Zm-3.393,16.956H316.529a.848.848,0,0,1-.848-.848h0a4.624,4.624,0,0,1,2.019-3.832l.109-.072.118-.075.1-.038.093-.052.059-.029.081-.041h.011a4.631,4.631,0,0,1,.906-.332l2.548-.656.106-.427a5.636,5.636,0,0,1-1.323-2.627,1.581,1.581,0,0,1-.739-.8,1.353,1.353,0,0,1-.056-.16,1.434,1.434,0,0,1-.057-.255l-.185-1.481c0-.05-.009-.1-.009-.149V275.7c.011-.043.027-.086.043-.129s.023-.088.038-.133h0a1.25,1.25,0,0,1,.079-.2l.032-.063c.016-.025.029-.052.045-.077s.032-.052.047-.077l.054-.072.027-.034.023-.029h0l.039-.041.041-.041.016-.018.045-.041h0a.715.715,0,0,1,.079-.063.706.706,0,0,1,.084-.061l-.043-.864h0v-.034c-.011-.142-.018-.269-.018-.371,0-1.418.411-3.3,3.9-3.421a4.474,4.474,0,0,1,1-.473,5.956,5.956,0,0,1,1.942-.271,3.544,3.544,0,0,1,3.195,1.49,2.155,2.155,0,0,1-.095,2.885l-.154.156v.036h0l-.043.861a.686.686,0,0,1,.084.061c.027.02.054.043.079.065h0l.045.041.016.016.038.041.041.043h0l.02.027.029.036.052.072a.845.845,0,0,1,.05.075c.014.027.032.052.043.077l.034.063a1.371,1.371,0,0,1,.079.2h0c.014.043.027.088.038.133s.018.093.025.14v.262c.011.052.018.1.025.156l-.185,1.479a1.385,1.385,0,0,1-.057.255,1.58,1.58,0,0,1-.8.961,5.615,5.615,0,0,1-1.323,2.627l.109.427,2.546.633a4.647,4.647,0,0,1,.906.335h.011l.081.041.059.029.093.052.1.056.118.075.108.072A4.627,4.627,0,0,1,334.329,287,.848.848,0,0,1,333.484,287.84Zm15.261-10.174H336.877a.848.848,0,1,1,0-1.7h11.87a.848.848,0,0,1,0,1.7Zm0-5.087h-3.391a.848.848,0,0,1,0-1.7h3.391a.848.848,0,0,1,0,1.7Zm.848,9.272a.848.848,0,0,1-.848.848h-5.087a.848.848,0,0,1,0-1.7h5.087a.85.85,0,0,1,.85.848Zm-13.565,0a.848.848,0,0,1,.848-.846h3.389a.848.848,0,1,1,0,1.7h-3.387a.848.848,0,0,1-.85-.846Z" transform="translate(-312.288 -260.709)" fill="#b7b7b7"/>
</svg>
