<svg id="biohazard-symbol" xmlns="http://www.w3.org/2000/svg" width="40.696" height="38.039" viewBox="0 0 40.696 38.039">
  <path id="Path_23660" data-name="Path 23660" d="M323.587,277.038a12.774,12.774,0,0,0-1.28-.642,13.37,13.37,0,0,0,.095-1.533,12.819,12.819,0,0,0-8.429-12.008.815.815,0,0,0-.644,1.474,8.141,8.141,0,0,1,3.9,10.16A11.911,11.911,0,0,0,302,274.431a8.12,8.12,0,0,1,3.923-10.092.814.814,0,0,0-.644-1.474,12.776,12.776,0,0,0-8.338,13.531,11.481,11.481,0,0,0-1.289.651,12.792,12.792,0,0,0-6.163,13.3.814.814,0,0,0,1.605-.143.511.511,0,0,0,0-.117,8.14,8.14,0,0,1,4.072-7.4,7.981,7.981,0,0,1,2.67-.961,11.818,11.818,0,0,0-.154,1.917,11.967,11.967,0,0,0,7.863,11.225,8.141,8.141,0,0,1-10.753,1.709.8.8,0,0,0-.954,1.289,12.779,12.779,0,0,0,14.617,1.293,13.494,13.494,0,0,0,1.182-.778,11.793,11.793,0,0,0,1.189.778,12.779,12.779,0,0,0,14.617-1.293.816.816,0,0,0,.127-1.1.8.8,0,0,0-1.081-.192,8.126,8.126,0,0,1-10.775-1.732,11.948,11.948,0,0,0,7.814-11.194,12.819,12.819,0,0,0-.154-1.931,8.211,8.211,0,0,1,2.758.977,8.125,8.125,0,0,1,4.072,7.475.815.815,0,0,0,.71.846.8.8,0,0,0,.882-.66A12.854,12.854,0,0,0,323.587,277.038Zm-8.682.748a8.143,8.143,0,0,1-10.6-.036A7.9,7.9,0,0,1,314.906,277.786Zm-13.228,5.853a8.349,8.349,0,0,1,.163-1.608,8.143,8.143,0,0,1,5.388,9.159,7.909,7.909,0,0,1-5.555-7.551Zm10.362,7.52a8.075,8.075,0,0,1,.369-4.226,8.161,8.161,0,0,1,.592-1.266,8.586,8.586,0,0,1,.875-1.234,8.074,8.074,0,0,1,3.47-2.369,7.927,7.927,0,0,1-5.3,9.1Z" transform="translate(-289.288 -262.83)" fill="#b7b7b7"/>
</svg>
