<svg id="Group_38275" data-name="Group 38275" xmlns="http://www.w3.org/2000/svg" width="40.696" height="40.7" viewBox="0 0 40.696 40.7">
  <path id="Path_23664" data-name="Path 23664" d="M248.984,268.849a15.606,15.606,0,0,0-14-4.223,9.726,9.726,0,0,1-12.347,12.482,15.621,15.621,0,0,0,18.3,18.182,9.724,9.724,0,0,1,12.41-12.471A15.6,15.6,0,0,0,248.984,268.849Zm-21.8,11.442a.924.924,0,0,1-.925.925h-.676a.924.924,0,0,1-.925-.925v-.676a.926.926,0,0,1,.925-.927h.676a.926.926,0,0,1,.925.927Zm9.545-12.765a.924.924,0,0,1,.925-.925h.676a.924.924,0,0,1,.925.925v.678a.924.924,0,0,1-.925.925h-.676a.924.924,0,0,1-.925-.925Zm2.537,24.84a.924.924,0,0,1-.925.925h-.676a.924.924,0,0,1-.925-.925v-.676a.924.924,0,0,1,.925-.925h.676a.924.924,0,0,1,.925.925Zm2.973-8.693-.475.479a.925.925,0,0,1-1.309.009l-.007-.009L238.5,282.22a2.329,2.329,0,0,1-2.155-3.914h0a2.186,2.186,0,0,1,.389-.317V271.3a.924.924,0,0,1,.925-.925h.676a.924.924,0,0,1,.925.925v6.688a2.353,2.353,0,0,1,.371.3,2.328,2.328,0,0,1,.644,2.127l1.953,1.933a.927.927,0,0,1,.041,1.307l-.016.016Zm9.109-3.382a.924.924,0,0,1-.925.925h-.678a.924.924,0,0,1-.925-.925v-.676a.926.926,0,0,1,.925-.927h.678a.926.926,0,0,1,.925.927Z" transform="translate(-217.652 -259.605)" fill="#b7b7b7"/>
  <path id="Path_23665" data-name="Path 23665" d="M236.29,267.586a8.268,8.268,0,1,0-10.658,10.655,8.173,8.173,0,0,0,2.923.534,8.267,8.267,0,0,0,7.734-11.189Zm-5.96,7.583a5.028,5.028,0,0,1-3.475.07,5,5,0,1,1,3.468-9.369c.473.185.721.461.739.818.036.563-.54.879-.757,1a3.235,3.235,0,0,0,0,5.682c.219.118.794.43.757,1-.011.337-.262.61-.733.8Z" transform="translate(-220.288 -262.241)" fill="#b7b7b7"/>
  <path id="Path_23666" data-name="Path 23666" d="M242.164,273.464a8.267,8.267,0,1,0,5.345,7.734A8.222,8.222,0,0,0,242.164,273.464Zm2.525,8.284h-1.332a4.111,4.111,0,0,1-.816,1.976l.694.7a.548.548,0,0,1-.389.936.54.54,0,0,1-.387-.16l-.7-.694a4.145,4.145,0,0,1-1.978.818v1.329a.555.555,0,0,1-1.11,0V285.32a4.129,4.129,0,0,1-1.974-.818l-.7.694a.549.549,0,1,1-.778-.776l.7-.694a4.08,4.08,0,0,1-.66-1.262,4.3,4.3,0,0,1-.161-.714h-1.327a.555.555,0,1,1,0-1.11H235.1a4.109,4.109,0,0,1,.821-1.976l-.7-.7a.548.548,0,1,1,.775-.775l.7.7a4.109,4.109,0,0,1,1.976-.821V275.74a.554.554,0,0,1,1.108,0v1.327a4.277,4.277,0,0,1,.717.161,4.082,4.082,0,0,1,1.262.66l.694-.7a.548.548,0,1,1,.775.775l-.7.7a4.138,4.138,0,0,1,.818,1.976h1.329a.552.552,0,1,1,.007,1.1Z" transform="translate(-206.813 -248.764)" fill="#b7b7b7"/>
</svg>
