<svg xmlns="http://www.w3.org/2000/svg" width="41.696" height="41.705" viewBox="0 0 41.696 41.705">
  <g id="Group_36009" data-name="Group 36009" transform="translate(0.5 0.5)">
    <g id="Group_36008" data-name="Group 36008">
      <g id="Group_36007" data-name="Group 36007">
        <g id="Group_36006" data-name="Group 36006">
          <path id="Path_23663" data-name="Path 23663" d="M283.984,279v7.181a1.2,1.2,0,0,1-.907,1.162l-3.683.925a15.565,15.565,0,0,1-.6,1.46l2,3.305a1.2,1.2,0,0,1-.185,1.465l-5.078,5.078a1.2,1.2,0,0,1-1.467.185l-3.3-2c-.468.219-.959.418-1.461.6l-.925,3.685a1.2,1.2,0,0,1-1.162.907h-7.178a1.2,1.2,0,0,1-1.162-.907l-.925-3.685a15.2,15.2,0,0,1-1.46-.6l-3.181,1.929,6.878-6.88a10.777,10.777,0,0,0,13.357-14.413,1.2,1.2,0,0,0-1.569-.635,1.17,1.17,0,0,0-.38.255h0l-5.822,5.815-2.819-.554-.556-2.822,5.826-5.824a1.2,1.2,0,0,0-.382-1.949,10.77,10.77,0,0,0-14.411,13.355l-6.889,6.871,1.917-3.181c-.217-.468-.418-.959-.6-1.463l-3.685-.925a1.2,1.2,0,0,1-.9-1.158V279a1.2,1.2,0,0,1,.907-1.162l3.685-.925c.185-.5.371-.993.6-1.461l-2-3.3a1.2,1.2,0,0,1,.185-1.467l5.071-5.078a1.2,1.2,0,0,1,1.467-.185l3.305,2c.468-.219.956-.418,1.461-.6l.925-3.685a1.2,1.2,0,0,1,1.158-.9h7.181a1.2,1.2,0,0,1,1.162.907l.925,3.685a15.58,15.58,0,0,1,1.463.6l3.3-2a1.2,1.2,0,0,1,1.467.185l2.539,2.539,2.539,2.539a1.2,1.2,0,0,1,.185,1.467l-2.005,3.294c.219.468.418.959.6,1.463l3.683.925A1.2,1.2,0,0,1,283.984,279Z" transform="translate(-243.288 -262.24)" fill="#B7B7B7" stroke="rgba(0,0,0,0)" stroke-width="1"/>
        </g>
      </g>
    </g>
  </g>
</svg>
