<svg xmlns="http://www.w3.org/2000/svg" width="34.401" height="41.721" viewBox="0 0 34.401 41.721">
  <g id="frontal-truck" transform="translate(0.504 0.503)">
    <path id="Path_23659" data-name="Path 23659" d="M207.612,290.9l-1.189-5.593a2.223,2.223,0,0,0-2.636-1.712l-.57.12L198.876,263.3a.548.548,0,0,0-.339-.4l-1.58-.617a.555.555,0,0,0-.721.314.542.542,0,0,0-.027.317l1.395,6.557-.649-1.024a3.889,3.889,0,0,0-4.1-1.723l-9.5,2.019a3.9,3.9,0,0,0-3.043,3.265l-.165,1.162-1.393-6.543a.556.556,0,0,0-.66-.427.564.564,0,0,0-.28.154l-1.191,1.207a.547.547,0,0,0-.147.5l4.341,20.413-.57.12a2.222,2.222,0,0,0-1.707,2.636l1.189,5.591-.925.2a.557.557,0,0,0-.43.66h0l.64,3.007a.556.556,0,0,0,.66.427h0l2.347-.5.305,1.443a1.114,1.114,0,0,0,1.32.857h0l2.883-.613a1.116,1.116,0,0,0,.857-1.32h0l-.307-1.44,14.926-3.177.307,1.442a1.113,1.113,0,0,0,1.32.857h0l2.88-.613a1.113,1.113,0,0,0,.857-1.32h0l-.305-1.44,2.34-.5a.555.555,0,0,0,.427-.658l-.64-3.007a.556.556,0,0,0-.66-.427Zm-26.095-14.838,16.021-3.407,1.139,5.358-16.021,3.407Zm3.452,18.064-1.858.393a1.049,1.049,0,0,1-1.246-.809l-.007-.025a1.054,1.054,0,0,1,.809-1.248l1.858-.393a1.049,1.049,0,0,1,1.246.809l.007.025a1.052,1.052,0,0,1-.809,1.246Zm12.143-2.261-7.4,1.574a1.111,1.111,0,0,1-1.318-.857h0l-1.467-6.9a1.112,1.112,0,0,1,.857-1.32h0l7.4-1.574a1.113,1.113,0,0,1,1.318.857h0l1.467,6.891a1.114,1.114,0,0,1-.857,1.32Zm6.477-1.7-1.849.393a1.051,1.051,0,0,1-1.246-.809l-.007-.027a1.051,1.051,0,0,1,.809-1.246l1.849-.393a1.053,1.053,0,0,1,1.248.809l0,.027a1.049,1.049,0,0,1-.809,1.243Zm-7.723-3.351-7.081,1.506a.549.549,0,0,1-.651-.425l0-.009a.55.55,0,0,1,.423-.653l7.081-1.506a.549.549,0,0,1,.651.423l0,.011a.548.548,0,0,1-.425.647Zm-.463-2.175-7.079,1.506a.55.55,0,0,1-.653-.425l0-.018a.549.549,0,0,1,.425-.651l7.079-1.506a.551.551,0,0,1,.653.423l0,.011a.551.551,0,0,1-.421.653h0Zm1.388,6.525-7.081,1.506a.549.549,0,0,1-.651-.423l0-.025a.551.551,0,0,1,.423-.653l7.081-1.506a.549.549,0,0,1,.651.425l0,.009a.551.551,0,0,1-.414.66h-.007Zm-.461-2.175-7.081,1.506a.552.552,0,0,1-.653-.423l0-.011a.549.549,0,0,1,.425-.651L196.1,287.9a.549.549,0,0,1,.653.423v0a.55.55,0,0,1-.423.653h0Z" transform="translate(-176.467 -262.243)" fill="#b7b7b7" stroke="rgba(0,0,0,0)" stroke-width="1"/>
  </g>
</svg>
