<?xml version="1.0" encoding="utf-8"?>
<!-- Generator: Adobe Illustrator 24.0.0, SVG Export Plug-In . SVG Version: 6.00 Build 0)  -->
<svg version="1.1" id="Layer_1" xmlns="http://www.w3.org/2000/svg" xmlns:xlink="http://www.w3.org/1999/xlink" x="0px" y="0px" width="22"
	 viewBox="0 0 22 6" style="enable-background:new 0 0 22 6;" xml:space="preserve">
<style type="text/css">
	.st0{fill:#606060;}
</style>
<path id="Union_30" class="st0" d="M16,3c0-1.7,1.3-3,3-3s3,1.3,3,3s-1.3,3-3,3S16,4.7,16,3z M8,3c0-1.7,1.3-3,3-3s3,1.3,3,3
	s-1.3,3-3,3S8,4.7,8,3z M0,3c0-1.7,1.3-3,3-3s3,1.3,3,3S4.7,6,3,6S0,4.7,0,3z"/>
</svg>
