<svg xmlns="http://www.w3.org/2000/svg" width="416.784" height="354.915" viewBox="0 0 416.784 354.915">
  <g id="Layer_2" data-name="Layer 2" transform="translate(-353.7 -270.438)">
    <circle id="Ellipse_4168" data-name="Ellipse 4168" cx="12.714" cy="12.714" r="12.714" transform="translate(709.846 304.279)" fill="#ffac43"/>
    <circle id="Ellipse_4169" data-name="Ellipse 4169" cx="7.142" cy="7.142" r="7.142" transform="translate(400.424 430.626)" fill="#ffac43"/>
    <circle id="Ellipse_4170" data-name="Ellipse 4170" cx="7.142" cy="7.142" r="7.142" transform="translate(446.593 295.387)" fill="#ffac43"/>
    <path id="Path_23761" data-name="Path 23761" d="M909.639,697.932s-16.47-11.6-15.959-25.128,8.5-24.2,17.823-23.851,16.475,11.61,15.959,25.134S909.639,697.932,909.639,697.932Z" transform="translate(-246.469 -202.254)" fill="#5673a8"/>
    <ellipse id="Ellipse_4365" data-name="Ellipse 4365" cx="12.502" cy="23.661" rx="12.502" ry="23.661" transform="translate(656.979 486.28)" fill="#5673a8"/>
    <path id="Path_23762" data-name="Path 23762" d="M922.164,802.956c-7.664,5.332-5.24,22.079,5.436,37.407S970.208,851,970.208,851a113.569,113.569,0,0,0-14.844-29.933C944.683,805.739,929.817,797.629,922.164,802.956Z" transform="translate(-257.434 -271.806)" fill="#5673a8"/>
    <path id="Path_23763" data-name="Path 23763" d="M926.038,686.158a50.385,50.385,0,0,1-13.415,12.268s-16.475-11.61-15.959-25.134a33.359,33.359,0,0,1,2.5-11.632,30.9,30.9,0,0,0-5.484,16.948c-.511,13.523,15.959,25.128,15.959,25.128S921.8,696.48,926.038,686.158Z" transform="translate(-246.469 -208.058)" fill="#355585"/>
    <path id="Path_23764" data-name="Path 23764" d="M916.492,731a40.768,40.768,0,0,0-1.707,11.9c0,13.045,5.6,23.666,12.5,23.666,2.892,0,5.55-1.881,7.669-5-2.174,7.028-6.186,11.762-10.795,11.762-6.9,0-12.5-10.6-12.5-23.666C911.66,742.056,913.557,735.316,916.492,731Z" transform="translate(-254.681 -239.709)" fill="#355585"/>
    <path id="Path_23765" data-name="Path 23765" d="M921.373,805.61c-1.288,7.713,2.115,19.177,9.6,29.95,7.871,11.328,27.373,11.719,37.016,11.154,1.517,3.843,2.212,6.245,2.212,6.245S938.25,857.65,927.6,842.321C917.329,827.564,914.741,811.557,921.373,805.61Z" transform="translate(-257.447 -273.764)" fill="#355585"/>
    <path id="Path_23766" data-name="Path 23766" d="M960.014,876.872a8.9,8.9,0,0,0,1.256-.1,2.14,2.14,0,0,0,.255-.054l-.886,17.394,17.9,29.352H966.618L954.66,896.288Z" transform="translate(-274.308 -306.222)" fill="#355585"/>
    <path id="Path_23767" data-name="Path 23767" d="M950.52,698.8l38.94-19.638,10.784-39.087a8.615,8.615,0,0,0-11.665-10.219l-.462,7.74-5.332,40.69-32.249,14.969Z" transform="translate(-272.419 -193.231)" fill="#355585"/>
    <path id="Path_23768" data-name="Path 23768" d="M868.5,622.9s-10.48-41.669-20.954-46.87-29.689-1.734-27.944,10.42,5.24,5.207,5.24,3.473-3.495-3.473-3.495-3.473-1.745-8.691,8.746-10.42,15.714,0,19.209,3.473,13.589,28.053,13.768,29.651,3.7,13.757,3.7,13.757S868.5,624.639,868.5,622.9Z" transform="translate(-212.612 -167.906)" fill="#355585"/>
    <path id="Path_23769" data-name="Path 23769" d="M904.657,912.26,893.242,877.5l17.214-23.519V852.29L886.79,875.956l4.463,36.3Z" transform="translate(-243.329 -295.071)" fill="#355585"/>
    <path id="Path_23770" data-name="Path 23770" d="M793.641,663.71l39.337,31.01.81-5.669-40.44-31.977L739.031,613.16l-3.381,6.756Z" transform="translate(-174.341 -185.92)" fill="#355585"/>
    <path id="Path_23771" data-name="Path 23771" d="M1006.722,637.4l3.31-2.5s6.833-5.946,5.142-11.018-6.762-10.143-8.452-5.071-3.451,9.327-3.451,9.327Z" transform="translate(-296.497 -187.539)" fill="#355585"/>
    <path id="Path_23772" data-name="Path 23772" d="M708.464,563.36s13.79,21.84-6.2,21.356-9.148-21.2-9.148-21.2Z" transform="translate(-153.586 -163.189)" fill="#355585"/>
    <path id="Path_23773" data-name="Path 23773" d="M927.669,618.055s-14.632-39.614-11.246-47.528,16.029-11.11,21.046,0-.408,6.218-1.267,4.713.272-4.147.272-4.147-3.3-8.115-10.115-6.234-8.941,5.082-9.24,9.24,6.142,28.775,6.822,30.232,4.7,13.149,4.7,13.149S928.528,619.556,927.669,618.055Z" transform="translate(-256.623 -163.182)" fill="#355585"/>
    <ellipse id="Ellipse_4366" data-name="Ellipse 4366" cx="1.359" cy="1.631" rx="1.359" ry="1.631" transform="translate(655.62 463.935)" fill="#355585"/>
    <ellipse id="Ellipse_4367" data-name="Ellipse 4367" cx="1.359" cy="1.631" rx="1.359" ry="1.631" transform="translate(670.568 463.935)" fill="#355585"/>
    <path id="Path_12859" data-name="Path 12859" d="M432.524,727.428a6.642,6.642,0,0,0,4.571,8.219h0l139.149,39.57a6.653,6.653,0,0,0,8.218-4.577h0L637.9,582.773a6.653,6.653,0,0,0-4.593-8.219h0l-139.149-39.57a6.653,6.653,0,0,0-8.224,4.577Z" transform="translate(-35.862 -150.12)" fill="#6c6c6c" opacity="0.2"/>
    <line id="Line_3167" data-name="Line 3167" x1="92.403" transform="translate(640.129 617.216)" fill="none" stroke="#b5b5b5" stroke-miterlimit="10" stroke-width="2"/>
    <path id="Path_23774" data-name="Path 23774" d="M1008.354,606.213c-.043-.511.207-21.573-3.3-25.3l-.076-.19a.594.594,0,0,0,0,.1h0v-.092c.234-1.179.261-2.332.489-3.5a9.338,9.338,0,0,1,.679-2.859c.223-.4-.065-.625.087-.951a5.8,5.8,0,0,0,.348-1.087,4.426,4.426,0,0,1,2.283-2.718,5.976,5.976,0,0,0,.544-.418l.255-.294c.4-1.06,1.424-2.984-.261-4.088a7.683,7.683,0,0,0-5.012-.717c-1.815.7-3.484,1.386-5.218,2.142a17.393,17.393,0,0,0-3.115,3.359,27.948,27.948,0,0,0-4.066,8.469c-.13.467-.277.543-.794.407a86.118,86.118,0,0,0-12.909-2.256,8.632,8.632,0,0,0-5.436,1.207c-2.408,1.479-3.419,4.832-1.087,6.338a10.318,10.318,0,0,0,1.343.712c-3.261.19-4.767,1.12-5.332,2.968-.718,2.386.2,3.588,3.044,4.68-.2.081-.342.147-.484.2a4.137,4.137,0,0,0-2.788,3.446,3.111,3.111,0,0,0,1.777,3.424,8.985,8.985,0,0,0,1.772.663c-1.729.582-2.174,2.1-2.229,3.8a3.56,3.56,0,0,0,1.995,3.376c1.055.511,8.909,5.343,9.5,5.517h0a51.357,51.357,0,0,0,10.7,2.479c2.8.065,6.262-3.979,10.567-2.315C1001.544,612.61,1008.61,610.773,1008.354,606.213Z" transform="translate(-280.17 -163.476)" fill="#355585"/>
    <g id="Group_34749" data-name="Group 34749" transform="translate(414.303 389.516)">
      <path id="Path_12820" data-name="Path 12820" d="M614.337,769.228l-143.356-18.66a6.642,6.642,0,0,1-5.729-7.447L490.44,549.547a6.653,6.653,0,0,1,7.452-5.734l143.356,18.66a6.642,6.642,0,0,1,5.734,7.447L621.789,763.483a6.648,6.648,0,0,1-7.447,5.734Z" transform="translate(-465.196 -543.757)" fill="#fff"/>
      <circle id="Ellipse_4162" data-name="Ellipse 4162" cx="29.167" cy="29.167" r="29.167" transform="translate(56.983 134.514)" fill="#f3f3f3"/>
      <path id="Path_12822" data-name="Path 12822" d="M695.423,717.912l13.589,1.767a3.413,3.413,0,0,1,2.946,3.8h0a3.419,3.419,0,0,1-3.8,2.952h0l-13.589-1.767a3.419,3.419,0,0,1-2.946-3.8h0a3.413,3.413,0,0,1,3.8-2.946Z" transform="translate(-568.535 -623.241)" fill="#b3cef6"/>
      <path id="Path_12823" data-name="Path 12823" d="M646.843,711.587l13.589,1.767a3.413,3.413,0,0,1,2.946,3.8h0a3.414,3.414,0,0,1-3.8,2.946l-13.589-1.767a3.413,3.413,0,0,1-2.946-3.8h0A3.408,3.408,0,0,1,646.843,711.587Z" transform="translate(-546.36 -620.351)" fill="#b3cef6"/>
      <path id="Path_12824" data-name="Path 12824" d="M598.257,705.269l13.589,1.767a3.419,3.419,0,0,1,2.946,3.8h0a3.413,3.413,0,0,1-3.8,2.946h0L597.4,712.02a3.413,3.413,0,0,1-2.941-3.8h0A3.419,3.419,0,0,1,598.257,705.269Z" transform="translate(-524.185 -617.468)" fill="#b3cef6"/>
      <path id="Path_12825" data-name="Path 12825" d="M549.669,698.983l13.589,1.767a3.414,3.414,0,0,1,2.946,3.8h0a3.414,3.414,0,0,1-3.8,2.946h0l-13.589-1.761a3.424,3.424,0,0,1-2.952-3.8h0a3.419,3.419,0,0,1,3.8-2.946Z" transform="translate(-502.003 -614.601)" fill="#344566"/>
      <path id="Path_12826" data-name="Path 12826" d="M534.1,670.607l114.075,14.844a3.419,3.419,0,0,1,2.946,3.8h0a3.424,3.424,0,0,1-3.8,2.946l-114.1-14.822a3.414,3.414,0,0,1-2.946-3.8h0a3.419,3.419,0,0,1,3.827-2.968Z" transform="translate(-494.891 -601.645)" fill="#344566"/>
      <path id="Path_12827" data-name="Path 12827" d="M537.458,644.738l114.075,14.844a3.419,3.419,0,0,1,2.946,3.8h0a3.414,3.414,0,0,1-3.8,2.946h0l-114.1-14.823a3.419,3.419,0,0,1-2.946-3.832h0a3.413,3.413,0,0,1,3.8-2.941Z" transform="translate(-496.417 -589.838)" fill="#344566"/>
      <path id="Path_12828" data-name="Path 12828" d="M540.83,618.866,654.9,633.711a3.413,3.413,0,0,1,2.946,3.8h0a3.419,3.419,0,0,1-3.8,2.946l-114.1-14.828a3.414,3.414,0,0,1-2.952-3.8h0a3.419,3.419,0,0,1,3.832-2.962Z" transform="translate(-497.958 -578.028)" fill="#344566"/>
      <path id="Path_12829" data-name="Path 12829" d="M544.189,592.976l114.08,14.855a3.414,3.414,0,0,1,2.946,3.8h0a3.413,3.413,0,0,1-3.8,2.951h0l-114.1-14.828a3.414,3.414,0,0,1-2.946-3.8h0a3.408,3.408,0,0,1,3.821-2.979Z" transform="translate(-499.496 -566.21)" fill="#344566"/>
    </g>
    <path id="Path_23775" data-name="Path 23775" d="M636.66,827.293l-.31-.038a74.47,74.47,0,0,0-10.838-.543l-5.267.152-5.153.478a138.263,138.263,0,0,0-20.051,3.506,149.894,149.894,0,0,0-19.231,5.778c-3.528,1.266-6.99,2.718-10.425,4.234-1.141-1.9-2.343-3.767-3.626-5.626-1.663-2.631-3.691-5.1-5.637-7.637a77.575,77.575,0,0,0-6.686-7.267l-.228-.207a.631.631,0,0,0-.9.033.641.641,0,0,0-.141.63c3.74,11.534,7.74,22.976,11.73,34.418a1.191,1.191,0,0,0,1.517.712c12.638-4.348,25.248-8.784,37.782-13.442l18.834-6.881c6.294-2.245,12.5-4.729,18.763-7.1a.64.64,0,0,0-.141-1.234Z" transform="translate(-88.75 -280.31)" fill="#24c1a1"/>
    <path id="Path_23776" data-name="Path 23776" d="M374.051,289.719l14.4-2.984-14.187-2.941-3.191-22.954-3.234,23.253L353.7,286.735l14.361,2.685,3.017,23.21Z" transform="translate(0 9.598)" fill="#e5e5e5"/>
    <path id="Path_23777" data-name="Path 23777" d="M530.634,225.726c-.261,4.751,7.12,5.164,7.381.4S530.9,220.97,530.634,225.726Z" transform="translate(145.945 51.657)" fill="#e5e5e5"/>
    <path id="Path_23778" data-name="Path 23778" d="M561.271,234.979a1.727,1.727,0,0,0,2.761,2.071A1.727,1.727,0,0,0,561.271,234.979Z" transform="translate(132.12 46.204)" fill="#e5e5e5"/>
    <path id="Path_23779" data-name="Path 23779" d="M501.307,298.89a1.728,1.728,0,0,0-2.8,2.022A1.728,1.728,0,0,0,501.307,298.89Z" transform="translate(160.759 17.041)" fill="#e5e5e5"/>
    <path id="Path_23780" data-name="Path 23780" d="M414.075,392.683l8.784-1.549-8.653-1.533-1.946-11.931-1.973,12.089-8.626,1.375,8.762,1.392,1.837,12.067Z" transform="translate(-21.891 -43.729)" fill="#e5e5e5"/>
    <path id="Path_23781" data-name="Path 23781" d="M1109.64,387.358c-.464,8.456,12.673,9.191,13.138.716S1110.1,378.893,1109.64,387.358Z" transform="translate(-548.964 -93.945)" fill="#f3f3f3"/>
    <path id="Path_23782" data-name="Path 23782" d="M1140.548,394.509c-2.379,3.173,2.535,6.859,4.915,3.686S1142.9,391.346,1140.548,394.509Z" transform="translate(-549.95 -94.332)" fill="#f3f3f3"/>
    <path id="Path_23783" data-name="Path 23783" d="M1082.752,458.438c-2.312-3.2-7.295.387-4.983,3.6S1085.074,461.65,1082.752,458.438Z" transform="translate(-547.907 -96.414)" fill="#f3f3f3"/>
    <path id="Path_23784" data-name="Path 23784" d="M1013.051,400.719l14.4-2.984-14.187-2.941-3.191-22.954-3.234,23.253L992.7,397.735l14.361,2.685,3.017,23.21Z" transform="translate(-256.97 -41.068)" fill="#e5e5e5"/>
    <path id="Path_23787" data-name="Path 23787" d="M882.307,330.89a1.728,1.728,0,0,0-2.8,2.022A1.728,1.728,0,0,0,882.307,330.89Z" transform="translate(-239.852 -56.758)" fill="#fff"/>
  </g>
</svg>
