<svg id="Img" xmlns="http://www.w3.org/2000/svg" width="15.033" height="15.033" viewBox="0 0 15.033 15.033">
  <path id="Path_106" data-name="Path 106" d="M-3383.858,6317.2a6.918,6.918,0,0,1,5.86,3.614,7.486,7.486,0,0,0,1.652-4.7,7.519,7.519,0,0,0-7.517-7.52,7.518,7.518,0,0,0-7.516,7.52,7.491,7.491,0,0,0,1.657,4.708A6.923,6.923,0,0,1-3383.858,6317.2Z" transform="translate(3391.379 -6308.594)" fill="none"/>
  <circle id="Ellipse_50" data-name="Ellipse 50" cx="3.059" cy="3.059" r="3.059" transform="translate(4.485 1.951)" fill="#606060"/>
  <path id="Path_107" data-name="Path 107" d="M-3371.534,6354.33a6.925,6.925,0,0,0-5.863-3.6,6.929,6.929,0,0,0-5.868,3.611,7.513,7.513,0,0,0,5.863,2.8A7.513,7.513,0,0,0-3371.534,6354.33Z" transform="translate(3384.919 -6342.109)" fill="#606060"/>
</svg>
