<svg xmlns="http://www.w3.org/2000/svg" width="22.001" height="22.004" viewBox="0 0 22.001 22.004"><defs><style>.a{fill:#fff;}</style></defs><path class="a" d="M9340,40756h-18a2.007,2.007,0,0,1-2-2.008v-18a2,2,0,0,1,2-2h18a2,2,0,0,1,1.994,2v18A2,2,0,0,1,9340,40756Zm-9-9.062h0l3.65,3.66a1.378,1.378,0,0,0,.972.4,1.367,1.367,0,0,0,.972-2.34l-3.651-3.664,3.651-3.652a1.339,1.339,0,0,0,.406-.957,1.383,1.383,0,0,0-.406-.984,1.355,1.355,0,0,0-.968-.4,1.379,1.379,0,0,0-.976.4l-3.651,3.66-3.662-3.66a1.372,1.372,0,0,0-1.934,0,1.383,1.383,0,0,0-.406.984,1.339,1.339,0,0,0,.406.957l3.652,3.652-3.652,3.664a1.37,1.37,0,0,0,1.934,1.941l3.661-3.66Z" transform="translate(-9319.995 -40734)"/></svg>