<svg xmlns="http://www.w3.org/2000/svg" width="22" height="22" viewBox="0 0 22 22"><defs><style>.a{fill:#fff;}.b{fill:#b7b7b7;opacity:0.7;}</style></defs><g transform="translate(-1412 -22)"><path class="a" d="M518.795,364.643a11,11,0,1,0,11,11A11,11,0,0,0,518.795,364.643Zm6.585,10.94a1.654,1.654,0,0,1-1.654,1.654H520.4v3.332h0a1.654,1.654,0,0,1-3.309,0v-3.332h-3.332a1.654,1.654,0,0,1-1.654-1.654h0a1.654,1.654,0,0,1,1.654-1.654h3.331V370.6h0a1.654,1.654,0,1,1,3.309,0v3.332h3.333a1.653,1.653,0,0,1,1.652,1.654Z" transform="translate(904.205 -342.642)"/><path class="b" d="M525.684,375.884h-3.332v-3.332A1.655,1.655,0,0,0,520.7,370.9h0a1.654,1.654,0,0,0-1.654,1.654h0v3.332h-3.331a1.654,1.654,0,0,0-1.655,1.654h0a1.654,1.654,0,0,0,1.654,1.654h3.332v3.332a1.654,1.654,0,0,0,3.309,0h0v-3.332h3.332a1.654,1.654,0,0,0,1.654-1.654h0a1.654,1.654,0,0,0-1.653-1.654Z" transform="translate(902.248 -344.597)"/></g></svg>