<svg xmlns="http://www.w3.org/2000/svg" width="22" height="22" viewBox="0 0 22 22"><defs><style>.a{fill:#fff;}</style></defs><path class="a" d="M5734,20539h-18a2,2,0,0,1-2-2v-18a2,2,0,0,1,2-2h18a2,2,0,0,1,2,2v18A2,2,0,0,1,5734,20539Zm-15.042-10.861a1.293,1.293,0,0,0-.907.377l-.18.186a1.3,1.3,0,0,0,0,1.82l3.057,3.1a1.277,1.277,0,0,0,.9.381,1.221,1.221,0,0,0,.469-.094,1.371,1.371,0,0,0,.789-.381l9-9.107a1.422,1.422,0,0,0,0-2.006,1.359,1.359,0,0,0-.984-.412,1.44,1.44,0,0,0-1.006.412l-8.134,8.227-2.1-2.123a1.249,1.249,0,0,0-.887-.377Z" transform="translate(-5714 -20517.002)"/></svg>