<svg xmlns="http://www.w3.org/2000/svg" width="16" height="16" viewBox="0 0 16 16">
  <defs>
    <style>
      .todo-attach-1 {
        fill: #dadada;
      }
    </style>
  </defs>
  <path id="Path_5446" data-name="Path 5446" class="todo-attach-1" d="M690.063,378.357a4.741,4.741,0,0,0-4.547-1.883,4.584,4.584,0,0,0-1.841.659,7,7,0,0,0-1.168.966l-7.4,6.855a.7.7,0,0,0-.283.521.609.609,0,0,0,.236.481.693.693,0,0,0,.538.143.836.836,0,0,0,.442-.25q3.961-3.68,7.927-7.344a3.466,3.466,0,0,1,4.568.079c.043.039.085.08.127.121a2.917,2.917,0,0,1-.042,4.12q-1.719,1.629-3.445,3.255-2.226,2.1-4.45,4.209a3.223,3.223,0,0,1-.849.659,2.342,2.342,0,0,1-1.612.141,2.064,2.064,0,0,1-1.4-1.211,1.867,1.867,0,0,1,.091-1.628,3.182,3.182,0,0,1,.712-.8l5.581-5.19a.986.986,0,0,1,.93-.268.9.9,0,0,1,.684.634.833.833,0,0,1-.29.858q-2.759,2.578-5.519,5.153a.777.777,0,0,0-.272.424.6.6,0,0,0,.157.51.685.685,0,0,0,.5.215h.01a.9.9,0,0,0,.613-.322q2.5-2.333,4.992-4.665a3.756,3.756,0,0,0,.9-1.019,2.043,2.043,0,0,0-.451-2.474,2.437,2.437,0,0,0-3.192.074q-2.885,2.683-5.778,5.358a3.318,3.318,0,0,0-.944,1.325,3.094,3.094,0,0,0,.618,3.2,3.451,3.451,0,0,0,1.83,1.062,3.665,3.665,0,0,0,3.261-.815c2.57-2.42,5.146-4.854,7.653-7.23a7.068,7.068,0,0,0,1.182-1.263A4.1,4.1,0,0,0,690.063,378.357Z" transform="translate(-674.823 -376.419)"/>
</svg>
