<svg xmlns="http://www.w3.org/2000/svg" width="18" height="18" viewBox="0 0 18 18">
  <g id="Group_12639" data-name="Group 12639" transform="translate(-549 -481)">
    <path id="Path_10708" data-name="Path 10708" d="M18,9A9,9,0,1,1,9,0,9,9,0,0,1,18,9Zm0,0" transform="translate(549 481)" fill="#ff5d5d" opacity="0.7"/>
    <path id="Path_10761" data-name="Path 10761" d="M.563,0H10.688a.563.563,0,0,1,.563.563v2.25a.563.563,0,0,1-.562.563H.563A.563.563,0,0,1,0,2.813V.563A.562.562,0,0,1,.563,0Z" transform="translate(552.375 488.313)" fill="#fff"/>
  </g>
</svg>
