<svg xmlns="http://www.w3.org/2000/svg" width="13.999" height="19" viewBox="0 0 13.999 19"><g transform="translate(-550.528 -233)"><g transform="translate(550.664 249.815)"><g transform="translate(0 0)"><path id="path-1" d="M553.459,378.128l1.314,1.621a.574.574,0,0,0,.8,0l1.262-1.232,1.262,1.232a.574.574,0,0,0,.8,0l1.262-1.232,1.262,1.232a.574.574,0,0,0,.8,0l1.262-1.232,1.262,1.232a.574.574,0,0,0,.8,0l1.33-1.621C566.969,378.025,553.355,378.025,553.459,378.128Z" transform="translate(-553.249 -377.878)" fill="#606060"/><path  id="path-2" d="M556.929,378.77a.72.72,0,0,1-.5-.206l-1.157-1.13-1.157,1.13a.722.722,0,0,1-1.009,0l-1.42-1.725.1-.109c.182-.189,13.426-.193,13.625,0l.108.1-.1.111-1.324,1.614a.723.723,0,0,1-1.021.013l-1.157-1.13-1.157,1.13a.724.724,0,0,1-1.01,0l-1.157-1.131-1.157,1.13A.723.723,0,0,1,556.929,378.77Zm-4.744-1.81,1.137,1.4a.421.421,0,0,0,.579-.013l1.367-1.335,1.367,1.335a.423.423,0,0,0,.591,0l1.366-1.335,1.366,1.335a.424.424,0,0,0,.592,0l1.366-1.335,1.366,1.335a.423.423,0,0,0,.591,0l1.139-1.389C563.307,376.9,553.885,376.9,552.185,376.96Z" transform="translate(-551.681 -376.585)" fill="#606060"/></g></g><g transform="translate(550.528 233)"><path id="path-4" d="M552.528,233h10a1.992,1.992,0,0,1,2,1.983v14.873a1,1,0,0,1-1,.992h-12a1,1,0,0,1-1-.992V234.983A1.991,1.991,0,0,1,552.528,233Z" transform="translate(-550.528 -233)" fill="none"/><path id="path-3" d="M563.527,250.848h-12a1,1,0,0,1-1-.992V234.983a1.993,1.993,0,0,1,2-1.983h10a1.994,1.994,0,0,1,2,1.983v14.873A1,1,0,0,1,563.527,250.848Zm-11.7-1.29h11.4V234.983a.7.7,0,0,0-.7-.694h-10a.7.7,0,0,0-.7.694Z" transform="translate(-550.528 -233)" fill="#606060"/></g><g transform="translate(554.053 236.671)"><g transform="translate(0 0)"><path d="M584.526,269.784h-1.3a.912.912,0,1,1,0-1.8h2.608a.8.8,0,1,0,0-1.58h-1.043v-.9a.923.923,0,0,0-1.826,0v.913a2.659,2.659,0,0,0-2.608,2.472,2.7,2.7,0,0,0,2.869,2.483h1.3a.912.912,0,1,1,0,1.8h-2.608a.8.8,0,1,0,0,1.58h1.043v.9a.923.923,0,0,0,1.826,0v-.913a2.659,2.659,0,0,0,2.611-2.467A2.7,2.7,0,0,0,584.526,269.784Z" transform="translate(-580.357 -264.711)" fill="#606060"/></g></g></g></svg>