<svg xmlns="http://www.w3.org/2000/svg" width="20" height="20" viewBox="0 0 20 20"><defs><style>.a,.e{fill:none;}.a,.b{stroke:#919191;}.b,.c{fill:#919191;}.d{stroke:none;}</style></defs><g transform="translate(0.153)"><g class="a" transform="translate(-0.153 4)"><rect class="d" width="20" height="16" rx="2"/><rect class="e" x="0.5" y="0.5" width="19" height="15" rx="1.5"/></g><g class="b" transform="translate(-0.153 2)"><path class="d" d="M2,0H18a2,2,0,0,1,2,2V6a0,0,0,0,1,0,0H0A0,0,0,0,1,0,6V2A2,2,0,0,1,2,0Z"/><path class="e" d="M2,.5H18A1.5,1.5,0,0,1,19.5,2V5a.5.5,0,0,1-.5.5H1A.5.5,0,0,1,.5,5V2A1.5,1.5,0,0,1,2,.5Z"/></g><g class="b" transform="translate(1.847)"><path class="d" d="M1,0H1A1,1,0,0,1,2,1V7A0,0,0,0,1,2,7H0A0,0,0,0,1,0,7V1A1,1,0,0,1,1,0Z"/><path class="e" d="M1,.5H1a.5.5,0,0,1,.5.5V6.333a.167.167,0,0,1-.167.167H.667A.167.167,0,0,1,.5,6.333V1A.5.5,0,0,1,1,.5Z"/></g><g class="b" transform="translate(15.847)"><path class="d" d="M1,0H1A1,1,0,0,1,2,1V7A0,0,0,0,1,2,7H0A0,0,0,0,1,0,7V1A1,1,0,0,1,1,0Z"/><path class="e" d="M1,.5H1a.5.5,0,0,1,.5.5V6.333a.167.167,0,0,1-.167.167H.667A.167.167,0,0,1,.5,6.333V1A.5.5,0,0,1,1,.5Z"/></g><rect class="c" width="4" height="2" rx="1" transform="translate(1.847 10)"/><rect class="c" width="4" height="2" rx="1" transform="translate(1.847 15)"/><rect class="c" width="4" height="2" rx="1" transform="translate(7.847 10)"/><rect class="c" width="4" height="2" rx="1" transform="translate(7.847 15)"/><rect class="c" width="4" height="2" rx="1" transform="translate(13.847 10)"/></g></svg>