<svg xmlns="http://www.w3.org/2000/svg" width="16" height="20" viewBox="0 0 16 20">
  <path id="Component_462_2" data-name="Component 462 – 2" d="M15.015,0H5.735A3.4,3.4,0,0,0,2.377,3.438V16.562A3.4,3.4,0,0,0,5.735,20h9.281a3.4,3.4,0,0,0,3.358-3.438V3.438A3.4,3.4,0,0,0,15.015,0Zm1.793,13.142H14.435A2.872,2.872,0,0,0,11.6,16.05V18.4H5.735a1.817,1.817,0,0,1-1.793-1.838V3.438A1.817,1.817,0,0,1,5.735,1.6h9.281a1.817,1.817,0,0,1,1.793,1.838Z" transform="translate(-2.375)" fill="#606060" opacity="0.7"/>
</svg>
