<svg xmlns="http://www.w3.org/2000/svg" width="32" height="22" viewBox="0 0 32 22">
  <g id="Group_3977" data-name="Group 3977" transform="translate(-2692 -122)">
    <g id="Group_3974" data-name="Group 3974" transform="translate(1577 -255)">
      <g id="Path_1987" data-name="Path 1987" transform="translate(1115 377)" fill="none">
        <path class="card-path-1" d="M3,0H29a3.161,3.161,0,0,1,3,3.3V18.7A3.161,3.161,0,0,1,29,22H3a3.161,3.161,0,0,1-3-3.3V3.3A3.161,3.161,0,0,1,3,0Z" stroke="none"/>
        <path class="card-path-2" d="M 3 2 C 2.457939147949219 2 2 2.595329284667969 2 3.299999237060547 L 2 18.70000076293945 C 2 19.40467071533203 2.457939147949219 20 3 20 L 29 20 C 29.54206085205078 20 30 19.40467071533203 30 18.70000076293945 L 30 3.299999237060547 C 30 2.595329284667969 29.54206085205078 2 29 2 L 3 2 M 3 0 L 29 0 C 30.65685081481934 0 32 1.477460861206055 32 3.299999237060547 L 32 18.70000076293945 C 32 20.52253913879395 30.65685081481934 22 29 22 L 3 22 C 1.3431396484375 22 0 20.52253913879395 0 18.70000076293945 L 0 3.299999237060547 C 0 1.477460861206055 1.3431396484375 0 3 0 Z" stroke="none" fill="#919191"/>
      </g>
      <path class="card-path-3" id="Path_1986" data-name="Path 1986" d="M2.5,0h27a2.5,2.5,0,0,1,0,5H2.5a2.5,2.5,0,0,1,0-5Z" transform="translate(1115 382)" fill="#919191"/>
    </g>
    <rect class="card-path-4" id="Rectangle_2043" data-name="Rectangle 2043" width="7" height="4" rx="2" transform="translate(2696 136)" fill="#919191"/>
  </g>
</svg>
