<svg xmlns="http://www.w3.org/2000/svg" width="16.99" height="16.25" viewBox="0 0 16.99 16.25">
  <g id="edit" transform="translate(0.25)">
    <path id="Path_719" data-name="Path 719" d="M-76.767-35.5a2,2,0,0,1-2,2h-7.894a2,2,0,0,1-2-2v-7.894a2,2,0,0,1,2-2h7.544l1.223-1.223a3.331,3.331,0,0,0-.873-.119h-7.894A3.344,3.344,0,0,0-90-43.394V-35.5a3.345,3.345,0,0,0,3.341,3.341h7.894A3.345,3.345,0,0,0-75.424-35.5v-7.406l-1.343,1.343Z" transform="translate(90 48.159)" fill="#606060" stroke="#606060" stroke-width="0.5"/>
    <path id="Path_720" data-name="Path 720" d="M-71.249-48.493a1.256,1.256,0,0,0-.891-.369,1.256,1.256,0,0,0-.891.369L-74.6-46.919l-.988.988-6.75,6.75-.441,1.622a.506.506,0,0,0,.492.612.5.5,0,0,0,.108-.012l1.622-.441,6.174-6.174,1.259-1.259,1.88-1.88A1.259,1.259,0,0,0-71.249-48.493Z" transform="translate(87.62 48.862)" fill="#606060"/>
  </g>
</svg>
