<svg xmlns="http://www.w3.org/2000/svg" width="16.275" height="16.275" viewBox="0 0 16.275 16.275">
  <defs>
    <style>
      .cls-1 {
        fill: #606060;
        opacity: 0.7;
      }
    </style>
  </defs>
  <path id="Path_1587" data-name="Path 1587" class="cls-1" d="M.586,0H6.979A.581.581,0,0,1,7.39.17l8.719,8.718a.581.581,0,0,1,0,.822h0L9.715,16.1a.581.581,0,0,1-.822,0L.175,7.386A.581.581,0,0,1,0,6.975V.581A.581.581,0,0,1,.586,0ZM4.073,5.231A1.162,1.162,0,1,0,2.911,4.069,1.162,1.162,0,0,0,4.073,5.231Z" transform="translate(-0.004)"/>
</svg>
