<svg xmlns="http://www.w3.org/2000/svg" width="15.998" height="16" viewBox="0 0 15.998 16">
  <defs>
    <style>
      .cls-1 {
        opacity: 0.7;
      }

      .cls-2 {
        fill: #fff;
      }
    </style>
  </defs>
  <g id="Group_8884" data-name="Group 8884" class="cls-1" transform="translate(-233.356 -197.854)">
    <path id="Path_7775" data-name="Path 7775" class="cls-2" d="M250.137,200.172l-1.874-1.88a1.505,1.505,0,0,0-2.123,0l-1.361,1.361h0a.377.377,0,0,0,0,.533l0,0h0l3.461,3.464h0a.375.375,0,0,0,.531,0l0,0h0l1.361-1.361h-.008A1.5,1.5,0,0,0,250.137,200.172Z" transform="translate(-1.215)"/>
    <path id="Path_7776" data-name="Path 7776" class="cls-2" d="M246.162,204.891l-3.466-3.466h0a.377.377,0,0,0-.533,0l0,0h0l-8.4,8.4-.4,3.57a.653.653,0,0,0,0,.167.748.748,0,0,0,.827.66l3.57-.4,8.4-8.4h0A.377.377,0,0,0,246.162,204.891Z" transform="translate(0 -0.372)"/>
  </g>
</svg>
