<svg xmlns="http://www.w3.org/2000/svg" width="13.251" height="16.564" viewBox="0 0 13.251 16.564">
  <path id="Path_1424" data-name="Path 1424" d="M13.21,3.845l-.358-1.169a1.01,1.01,0,0,0-.949-.745H8.892v.037A.932.932,0,0,0,8,1H5.247a.932.932,0,0,0-.888.968V1.931H1.348A1.01,1.01,0,0,0,.4,2.675L.041,3.845a.943.943,0,0,0,.11.789A.787.787,0,0,0,.8,5h.374L2,16.1a1.531,1.531,0,0,0,1.461,1.469H9.955a1.531,1.531,0,0,0,1.461-1.469L12.24,5h.207a.787.787,0,0,0,.652-.364.943.943,0,0,0,.11-.789Zm-7.9-1.81H7.941v-.1H5.309ZM11.286,5ZM1.007,3.962,1.3,3a.05.05,0,0,1,.047-.037H11.9A.05.05,0,0,1,11.95,3l.294.959Zm0,0" transform="translate(0 -1)" fill="#ff5d5d"/>
</svg>
