<svg id="Component_578_1" data-name="Component 578 – 1" xmlns="http://www.w3.org/2000/svg" width="32" height="32" viewBox="0 0 32 32">
  <rect id="Rectangle_1796" data-name="Rectangle 1796" width="32" height="32" rx="16" fill="#606060" opacity="0.7"/>
  <path id="Path_1818" data-name="Path 1818" d="M6.644.645A6.159,6.159,0,0,1,3.571-.129,5.628,5.628,0,0,1,1.41-2.273a6.122,6.122,0,0,1-.786-3.1,6.122,6.122,0,0,1,.786-3.1,5.628,5.628,0,0,1,2.16-2.145,6.19,6.19,0,0,1,3.089-.773,6.23,6.23,0,0,1,2.613.532,5.26,5.26,0,0,1,1.962,1.53l-1.652,1.6A3.49,3.49,0,0,0,6.787-9.1a3.581,3.581,0,0,0-1.843.474A3.3,3.3,0,0,0,3.682-7.3a4.03,4.03,0,0,0-.453,1.929,4.03,4.03,0,0,0,.453,1.929A3.3,3.3,0,0,0,4.945-2.124a3.581,3.581,0,0,0,1.843.474,3.475,3.475,0,0,0,2.8-1.38l1.652,1.6A5.177,5.177,0,0,1,9.265.113,6.285,6.285,0,0,1,6.644.645Zm11.4,0a6.159,6.159,0,0,1-3.074-.773,5.628,5.628,0,0,1-2.16-2.145,6.122,6.122,0,0,1-.786-3.1,6.122,6.122,0,0,1,.786-3.1,5.628,5.628,0,0,1,2.16-2.145,6.19,6.19,0,0,1,3.089-.773,6.23,6.23,0,0,1,2.613.532A5.26,5.26,0,0,1,22.64-9.33l-1.652,1.6a3.49,3.49,0,0,0-2.8-1.363,3.581,3.581,0,0,0-1.843.474A3.3,3.3,0,0,0,15.087-7.3a4.03,4.03,0,0,0-.453,1.929,4.03,4.03,0,0,0,.453,1.929,3.3,3.3,0,0,0,1.263,1.322,3.581,3.581,0,0,0,1.843.474,3.475,3.475,0,0,0,2.8-1.38l1.652,1.6A5.177,5.177,0,0,1,20.67.113,6.285,6.285,0,0,1,18.049.645Z" transform="translate(4.376 21.391)" fill="#fff" opacity="0.7"/>
</svg>
