<svg id="Component_577_1" data-name="Component 577 – 1" xmlns="http://www.w3.org/2000/svg" width="32" height="32" viewBox="0 0 32 32">
  <rect id="Rectangle_1795" data-name="Rectangle 1795" width="32" height="32" rx="16" fill="#606060" opacity="0.7"/>
  <path id="Path_1812" data-name="Path 1812" d="M6.618.594a5.579,5.579,0,0,0,4.571-2.069L9.544-3.065A3.468,3.468,0,0,1,6.76-1.691,3.478,3.478,0,0,1,3.218-5.4,3.478,3.478,0,0,1,6.76-9.107,3.5,3.5,0,0,1,9.544-7.75l1.645-1.589a5.6,5.6,0,0,0-4.555-2.053A5.812,5.812,0,0,0,.624-5.4,5.809,5.809,0,0,0,6.618.594ZM12.913.4h5.029c3.622,0,6.1-2.285,6.1-5.794s-2.483-5.794-6.1-5.794H12.913Zm2.562-2.2V-8.992h2.341A3.375,3.375,0,0,1,21.453-5.4a3.375,3.375,0,0,1-3.638,3.592Z" transform="translate(3.65 21.392)" fill="#fff" opacity="0.7"/>
</svg>
