<svg id="Component_562_4" data-name="Component 562 – 4" xmlns="http://www.w3.org/2000/svg" width="32" height="31.999" viewBox="0 0 32 31.999">
  <path id="Union_4" data-name="Union 4" d="M497.191,399.592a.868.868,0,0,1-.46-1.127l.007-.017,2.331-4.4A15.985,15.985,0,0,1,511.607,368.1h.053a15.945,15.945,0,0,1,15.925,15.967v.01A16.035,16.035,0,0,1,511.564,400.1a15.424,15.424,0,0,1-5.327-.925l-8.548.482a.927.927,0,0,1-.149.012A.857.857,0,0,1,497.191,399.592Z" transform="translate(-495.585 -368.097)" fill="#606060" opacity="0.7"/>
  <g id="Group_1622" data-name="Group 1622" transform="translate(-495.585 -368.097)">
    <path id="Rectangle_980" data-name="Rectangle 980" d="M504.474,377.273h15.111a1.778,1.778,0,0,1,1.778,1.778h0a1.778,1.778,0,0,1-1.778,1.778H504.474a1.778,1.778,0,0,1-1.778-1.778h0A1.778,1.778,0,0,1,504.474,377.273Z" fill="#fff"/>
    <path id="Rectangle_981" data-name="Rectangle 981" d="M504.474,382.606h8a1.778,1.778,0,0,1,1.778,1.778h0a1.778,1.778,0,0,1-1.778,1.778h-8a1.778,1.778,0,0,1-1.778-1.778h0A1.778,1.778,0,0,1,504.474,382.606Z" fill="#fff"/>
    <path id="Rectangle_982" data-name="Rectangle 982" d="M504.474,387.94h15.111a1.778,1.778,0,0,1,1.778,1.777h0a1.778,1.778,0,0,1-1.778,1.778H504.474a1.778,1.778,0,0,1-1.778-1.778h0A1.778,1.778,0,0,1,504.474,387.94Z" fill="#fff"/>
  </g>
</svg>
