<svg xmlns="http://www.w3.org/2000/svg" width="12" height="16" viewBox="0 0 12 16">
  <path id="Path_2252" data-name="Path 2252" d="M5.814,0H6.16a5.993,5.993,0,0,1,4.047,1.7,6.061,6.061,0,0,1,1.756,3.716A6.22,6.22,0,0,1,10.8,9.738C9.21,11.831,7.582,13.9,6,16H5.973a2.539,2.539,0,0,0-.359-.527q-2.18-2.83-4.358-5.66A6.136,6.136,0,0,1,0,6.249V5.607A6.293,6.293,0,0,1,1.675,1.868,6,6,0,0,1,5.814,0M5.386,2.81a3.54,3.54,0,0,0-2.1,5.639A3.445,3.445,0,0,0,8.728,8.5,3.544,3.544,0,0,0,7.655,3.167,3.425,3.425,0,0,0,5.386,2.81Z" fill="#606060"/>
</svg>
