<svg xmlns="http://www.w3.org/2000/svg" width="12" height="12" viewBox="0 0 12 12">
  <path id="Path_7154" data-name="Path 7154" d="M301.163,385.663a6,6,0,1,0,6,6A6,6,0,0,0,301.163,385.663Zm2.746,8.653-.092.092a.546.546,0,0,1-.771,0l-1.882-1.882-1.836,1.835a.611.611,0,0,1-.863-.863l1.835-1.835-1.882-1.882a.545.545,0,0,1,0-.771l.092-.092h0a.545.545,0,0,1,.771,0l1.882,1.882L303,388.964a.611.611,0,0,1,.863.863l-1.836,1.835,1.882,1.882A.545.545,0,0,1,303.909,394.316Z" transform="translate(-295.163 -385.663)" fill="#fff"/>
</svg>
