<svg xmlns="http://www.w3.org/2000/svg" width="184" height="30" viewBox="0 0 184 30">
  <g id="Comdata" style="isolation: isolate">
    <rect id="Rectangle_1734" data-name="Rectangle 1734" width="184" height="30" fill="#fff"/>
    <g id="comdata-2" data-name="comdata" transform="translate(11 7.371)" style="mix-blend-mode: luminosity;isolation: isolate">
      <path id="Path_1610" data-name="Path 1610" d="M355.715,8h4.7c3.69,0,4.378,2.465,4.378,6.659,0,2.067.322,6.813-4.5,6.813H355.7L355.715,8Zm2.817,11.405h1.363c1.715,0,2.051-1.286,2.051-4.669,0-2.48,0-4.669-1.96-4.669h-1.454Z" transform="translate(-301.245 -6.775)" fill="#636466"/>
      <path id="Path_1611" data-name="Path 1611" d="M487.594,8v2.25h-3.138V21.487h-2.817V10.25H478.5V8Z" transform="translate(-405.246 -6.775)" fill="#636466"/>
      <path id="Path_1612" data-name="Path 1612" d="M130.775,14.659c0-4.195.689-6.659,4.378-6.659h2.955v2.067h-2.526c-1.96,0-1.96,2.189-1.96,4.669,0,3.383.337,4.669,2.051,4.669h2.449v2.067h-2.863c-4.807.015-4.486-4.731-4.486-6.813" transform="translate(-110.751 -6.775)" fill="#636466"/>
      <path id="Path_1613" data-name="Path 1613" d="M424.54,8h-2.327c-1.47.122-1.638,1.026-1.975,2.143L417.1,21.472h2.786l.765-2.985h3.843l.75,2.985H428.2ZM421.2,16.42l1.286-5.817h.031l1.363,5.817Z" transform="translate(-353.245 -6.775)" fill="#636466"/>
      <path id="Path_1614" data-name="Path 1614" d="M267.93,8c-.765.092-.98.444-1.24,1.393l-1.9,7.777h-.046l-1.776-7.746c-.26-.98-.475-1.332-1.271-1.424h-3.4V21.472h2.557V11.077h.031l2.6,10.395h2.388l2.74-10.395h.031V21.472H271.3V8Z" transform="translate(-218.756 -6.775)" fill="#636466"/>
      <path id="Path_1615" data-name="Path 1615" d="M534.356,8h-2.342c-1.378.122-1.607.9-1.914,1.929l-3.2,11.558h2.786l.766-2.985h3.843l.75,2.985h2.97Zm-3.337,8.42L532.3,10.6h.031L533.7,16.42Z" transform="translate(-446.236 -6.775)" fill="#636466"/>
      <path id="Path_1616" data-name="Path 1616" d="M195.061,14.213c0-2.664-.276-4.792-1.424-5.863a4.077,4.077,0,0,0-2.955-.949h-.827a4.145,4.145,0,0,0-2.955.949c-1.148,1.087-1.424,3.2-1.424,5.863,0,1.454-.153,4.394,1.424,5.909a4.225,4.225,0,0,0,3.077,1.056h.612a4.225,4.225,0,0,0,3.077-1.056c1.546-1.516,1.393-4.455,1.393-5.909m-6.751.077c0-2.48,0-4.654,1.944-4.669,1.944.015,1.944,2.189,1.944,4.669,0,3.307-.321,4.608-1.944,4.669-1.623-.061-1.944-1.363-1.944-4.669" transform="translate(-157.079 -6.267)" fill="#636466"/>
      <path id="Path_1618" data-name="Path 1618" d="M2.189.658V0H0V15.906H4.44c.628-3.582,3.2-6.246,9.186-6.246h2.281v-.8H9.691c-4.532,0-7.5-3.674-7.5-8.206M8.282,15.906h7.624V10.119c-3.644.122-6.721,2.082-7.624,5.787M11.237,0c.26,3.429,1.837,5.527,4.669,6.4V0ZM7.792,0H5.4a8.107,8.107,0,0,0,8.5,8.175h2.006V7.318H14.85C10.334,7.333,8.037,4.654,7.792,0" fill="#0090cb"/>
    </g>
  </g>
</svg>
