<?xml version="1.0" encoding="utf-8"?>

<!-- Generator: Adobe Illustrator 24.2.3, SVG Export Plug-In . SVG Version: 6.00 Build 0)  -->
<svg version="1.1" id="Layer_1" xmlns="http://www.w3.org/2000/svg" xmlns:xlink="http://www.w3.org/1999/xlink" x="0px" y="0px" width="36" height="36"
	 viewBox="0 0 36 36" style="enable-background:new 0 0 36 36;" xml:space="preserve">
<style>
	.comment-avatar-bg{
	fill:none;
	}
	.comment-avatar-fill{
	fill:#919191;
	}
</style>
<path id="Path_1872" class="comment-avatar-bg" d="M18,0L18,0C8.1,0,0,8.1,0,18v0c0,4.1,1.4,8.1,4,11.3c3.1-5.2,8.3-8.7,14-8.7s10.9,3.4,14,8.7
	c6.2-7.8,5-19.1-2.8-25.3C26.1,1.4,22.1,0,18,0L18,0z M18.1,19.3c-4,0-7.3-3.3-7.3-7.3s3.3-7.3,7.3-7.3c4,0,7.3,3.3,7.3,7.3
	C25.4,16,22.1,19.3,18.1,19.3C18.1,19.3,18.1,19.3,18.1,19.3L18.1,19.3z"/>
<circle id="Ellipse_50" class="comment-avatar-fill" cx="18.1" cy="12" r="7.3"/>
<path id="Path_107" class="comment-avatar-fill" d="M32.1,29.3c-3.1-5.2-8.3-8.6-14-8.6S7.1,24.1,4,29.3c6.2,7.8,17.6,9,25.4,2.7
	C30.3,31.2,31.2,30.3,32.1,29.3z"/>
</svg>
