<svg xmlns="http://www.w3.org/2000/svg" width="18" height="16.004" viewBox="0 0 18 16.004">
  <defs>
    <style>
      .cls-1 {
        fill: #d2d2d1;
      }
    </style>
  </defs>
  <path id="Subtraction_165" data-name="Subtraction 165" class="cls-1" d="M22684.377,24706a.793.793,0,0,1-.676-.379l-1.576-2.648h-.818a2.273,2.273,0,0,1-2.307-2.23v-8.508a2.276,2.276,0,0,1,2.307-2.238h13.387a2.276,2.276,0,0,1,2.307,2.238v8.508a2.273,2.273,0,0,1-2.307,2.23h-8.072l-1.568,2.648A.808.808,0,0,1,22684.377,24706Zm1.594-7.434-.6,1.189a3.737,3.737,0,0,0,1.939.482c2.2,0,3.572-1.443,3.572-3.77,0-2.207-1.141-3.471-3.131-3.471a2.394,2.394,0,0,0-2.648,2.33,2.2,2.2,0,0,0,2.406,2.176,2.4,2.4,0,0,0,1.742-.625,1.872,1.872,0,0,1-1.973,2.039A2.238,2.238,0,0,1,22685.971,24698.568Zm1.9-2.271a1.052,1.052,0,1,1-.02-2.088c.742,0,1.223.41,1.223,1.041A1.085,1.085,0,0,1,22687.867,24696.3Z" transform="translate(-22679 -24689.998)"/>
</svg>
