<svg xmlns="http://www.w3.org/2000/svg" width="18" height="16.004" viewBox="0 0 18 16.004">
  <defs>
    <style>
      .cls-1 {
        fill: #d2d2d1;
      }
    </style>
  </defs>
  <path id="Subtraction_170" data-name="Subtraction 170" class="cls-1" d="M22684.377,24706a.793.793,0,0,1-.676-.379l-1.576-2.648h-.818a2.273,2.273,0,0,1-2.307-2.23v-8.508a2.276,2.276,0,0,1,2.307-2.238h13.387a2.276,2.276,0,0,1,2.307,2.238v8.508a2.273,2.273,0,0,1-2.307,2.23h-8.072l-1.568,2.648A.808.808,0,0,1,22684.377,24706Zm3.447-11.639c.723,0,1.121.309,1.121.867,0,.357-.125.715-.73,1.291l-2.7,2.547v1.055h5.289v-1.32h-3.014l1.611-1.52a2.8,2.8,0,0,0,1.172-2.213c0-1.258-1.021-2.07-2.6-2.07a3.267,3.267,0,0,0-2.777,1.3l1.178.756A1.72,1.72,0,0,1,22687.824,24694.363Z" transform="translate(-22679 -24689.998)"/>
</svg>
