<svg xmlns="http://www.w3.org/2000/svg" width="18" height="16.004" viewBox="0 0 18 16.004">
  <defs>
    <style>
      .cls-1 {
        fill: #d2d2d1;
      }
    </style>
  </defs>
  <path id="Subtraction_166" data-name="Subtraction 166" class="cls-1" d="M22684.377,24706a.793.793,0,0,1-.676-.379l-1.576-2.648h-.818a2.273,2.273,0,0,1-2.307-2.23v-8.508a2.276,2.276,0,0,1,2.307-2.238h13.387a2.276,2.276,0,0,1,2.307,2.238v8.508a2.273,2.273,0,0,1-2.307,2.23h-8.072l-1.568,2.648A.808.808,0,0,1,22684.377,24706Zm-1.309-7.434-.6,1.189a3.75,3.75,0,0,0,1.941.482c2.2,0,3.57-1.443,3.57-3.77,0-2.207-1.141-3.471-3.131-3.471a2.394,2.394,0,0,0-2.648,2.33,2.226,2.226,0,0,0,2.412,2.176,2.383,2.383,0,0,0,1.736-.625,1.871,1.871,0,0,1-1.971,2.039A2.249,2.249,0,0,1,22683.068,24698.568Zm5.959-2.559v1.219h1.736v1.7h1.283v-1.7h1.742v-1.217h-1.742v-1.705h-1.283v1.705h-1.736Zm-4.057.287a1.052,1.052,0,1,1-.023-2.088c.74,0,1.221.41,1.221,1.041A1.081,1.081,0,0,1,22684.971,24696.3Z" transform="translate(-22679 -24689.998)"/>
</svg>
