<svg xmlns="http://www.w3.org/2000/svg" width="18" height="16.004" viewBox="0 0 18 16.004">
  <defs>
    <style>
      .cls-1 {
        fill: #d2d2d1;
      }
    </style>
  </defs>
  <path id="Subtraction_162" data-name="Subtraction 162" class="cls-1" d="M22684.377,24706a.793.793,0,0,1-.676-.379l-1.576-2.648h-.818a2.273,2.273,0,0,1-2.307-2.23v-8.508a2.276,2.276,0,0,1,2.307-2.238h13.387a2.276,2.276,0,0,1,2.307,2.238v8.508a2.273,2.273,0,0,1-2.307,2.23h-8.072l-1.568,2.648A.808.808,0,0,1,22684.377,24706Zm4.291-13c-2.2,0-3.566,1.443-3.566,3.77,0,2.207,1.141,3.471,3.131,3.471a2.394,2.394,0,0,0,2.648-2.33,2.23,2.23,0,0,0-2.412-2.184,2.386,2.386,0,0,0-1.73.621,1.87,1.87,0,0,1,1.973-2.027,2.286,2.286,0,0,1,1.309.346l.6-1.189A3.812,3.812,0,0,0,22688.668,24693Zm-.527,6.031c-.746,0-1.229-.41-1.229-1.041a1.088,1.088,0,0,1,1.209-1.047,1.051,1.051,0,1,1,.02,2.088Z" transform="translate(-22679 -24689.998)"/>
</svg>
