<?xml version="1.0" encoding="utf-8"?>
<!-- Generator: Adobe Illustrator 24.0.0, SVG Export Plug-In . SVG Version: 6.00 Build 0)  -->
<svg version="1.1" id="Layer_1" xmlns="http://www.w3.org/2000/svg" xmlns:xlink="http://www.w3.org/1999/xlink" x="0px" y="0px"
	 viewBox="0 0 16 14" style="enable-background:new 0 0 16 14;" xml:space="preserve">
<style type="text/css">
	.st0{opacity:0.7;fill:#606060;enable-background:new    ;}
</style>
<path id="Path_1948" class="st0" d="M8,0C3.6,0,0,2.9,0,6.5C0,8,0.6,9.4,1.6,10.4l0,0l0,0.1c-0.4,0.9-0.9,1.7-1.5,2.3
	c-0.3,0.3-0.2,0.7,0,0.9C0.3,13.9,0.5,14,0.7,14l0,0c1.6,0,3.1-0.5,4.3-1.5l0,0l0,0C6,12.8,7,13,8,13c4.4,0,8-2.9,8-6.5S12.4,0,8,0z
	 M8,11.7c-0.9,0-1.7-0.1-2.5-0.4l-0.7-0.2l-0.6,0.4c-0.6,0.4-1.2,0.7-1.8,0.9l-0.3,0.1l0.1-0.2c0.2-0.4,0.5-0.8,0.6-1.3l0.3-0.8
	L2.6,9.5c-0.8-0.8-1.3-1.9-1.3-3c0-2.9,3-5.2,6.7-5.2s6.7,2.3,6.7,5.2S11.7,11.7,8,11.7L8,11.7z"/>
</svg>
