<?xml version="1.0" encoding="utf-8"?>
<!-- Generator: Adobe Illustrator 24.1.1, SVG Export Plug-In . SVG Version: 6.00 Build 0)  -->
<svg version="1.1" id="Layer_1" xmlns="http://www.w3.org/2000/svg" xmlns:xlink="http://www.w3.org/1999/xlink" x="0px" y="0px"
	 viewBox="0 0 403.6 206.4" style="enable-background:new 0 0 403.6 206.4;" xml:space="preserve">
<style type="text/css">
	.compress-icon{opacity:0.4;}
</style>
<path d="M218.6,120.2l79.2,79.2c15.1,15.1,41,4.4,41-17l-1.4-45.2h51.2c8.3,0,15-6.7,15-15V84.3c0-8.3-6.7-15-15-15h-51.2l1.4-45.3
	c0-21.4-25.8-32-41-16.9l-79.2,79.2C209.3,95.6,209.3,110.8,218.6,120.2z"/>
<path class="compress-icon" d="M185,86.3L105.8,7.1c-15.1-15.1-41-4.4-41,17l1.4,45.2H15c-8.3,0-15,6.7-15,15v37.9c0,8.3,6.7,15,15,15h51.2
	l-1.4,45.3c0,21.4,25.8,32,41,16.9l79.2-79.2C194.3,110.8,194.3,95.7,185,86.3z"/>
</svg>
