<svg id="Component_633_1" data-name="Component 633 – 1" xmlns="http://www.w3.org/2000/svg" width="16" height="16" viewBox="0 0 16 16">
  <g id="Group_3366" data-name="Group 3366">
    <g id="Group_3365" data-name="Group 3365" opacity="0.7">
      <circle id="Ellipse_644" data-name="Ellipse 644" cx="0.78" cy="0.78" r="0.78" transform="translate(7.22 11.048)" fill="#606060"/>
      <path id="Path_1813" data-name="Path 1813" d="M8,0a8,8,0,1,0,8,8A8,8,0,0,0,8,0ZM8,14.75A6.75,6.75,0,1,1,14.75,8,6.746,6.746,0,0,1,8,14.75Z" fill="#606060"/>
      <path id="Path_1814" data-name="Path 1814" d="M178.5,128.5A2.5,2.5,0,0,0,176,131a.624.624,0,1,0,1.249,0,1.249,1.249,0,1,1,1.249,1.249.624.624,0,0,0-.624.624v1.561a.624.624,0,1,0,1.249,0v-1.016a2.5,2.5,0,0,0-.624-4.916Z" transform="translate(-170.497 -124.481)" fill="#606060"/>
    </g>
  </g>
</svg>
