<svg id="Group_6916" data-name="Group 6916" xmlns="http://www.w3.org/2000/svg" width="16" height="18" viewBox="0 0 16 18">
  <path id="Path_5812" data-name="Path 5812" d="M82.452,485.978V482.6H75.309a.85.85,0,0,0-.857.843v12.938a.851.851,0,0,0,.857.844h9.714a.851.851,0,0,0,.857-.844V485.978Z" transform="translate(-69.881 -482.603)" fill="#aaa" opacity="0.4" style="isolation: isolate"/>
  <path id="Path_5813" data-name="Path 5813" d="M68.239,496.384V485.978H65.667a.851.851,0,0,0-.857.844v12.938a.851.851,0,0,0,.857.844h9.714a.851.851,0,0,0,.857-.844v-1.406h-6A1.986,1.986,0,0,1,68.239,496.384ZM80.56,485.169l-2.357-2.32a.862.862,0,0,0-.607-.246h-.214v3.375H80.81v-.213A.837.837,0,0,0,80.56,485.169Z" transform="translate(-64.81 -482.603)" fill="#aaa"/>
</svg>
