<svg id="Component_580_1" data-name="Component 580 – 1" xmlns="http://www.w3.org/2000/svg" width="32" height="32" viewBox="0 0 32 32">
  <rect id="Rectangle_1798" data-name="Rectangle 1798" width="32" height="32" rx="16" fill="#d1d1d1" opacity="0.7"/>
  <path id="Path_1809" data-name="Path 1809" d="M1.328.409H6.369c3.631,0,6.12-2.287,6.12-5.8s-2.489-5.8-6.12-5.8H1.328ZM3.9-1.795V-8.989H6.243a3.381,3.381,0,0,1,3.646,3.6c0,2.221-3.646,3.6-3.646,3.6ZM19.734.608a5.6,5.6,0,0,0,4.582-2.072L22.667-3.055a3.478,3.478,0,0,1-2.79,1.376,3.484,3.484,0,0,1-3.551-3.713A3.484,3.484,0,0,1,19.877-9.1a3.51,3.51,0,0,1,2.79,1.359l1.649-1.591a5.62,5.62,0,0,0-4.566-2.055,5.823,5.823,0,0,0-6.024,6A5.819,5.819,0,0,0,19.734.608Z" transform="translate(3.212 21.392)" fill="#606060" opacity="0.7"/>
</svg>
