<svg id="Component_579_1" data-name="Component 579 – 1" xmlns="http://www.w3.org/2000/svg" width="32" height="32" viewBox="0 0 32 32">
  <rect id="Rectangle_1797" data-name="Rectangle 1797" width="32" height="32" rx="16" fill="#d1d1d1" opacity="0.7"/>
  <path id="Path_1810" data-name="Path 1810" d="M1.328,0H6.316C9.908,0,12.37-2.208,12.37-5.6s-2.463-5.6-6.054-5.6H1.328ZM3.869-2.128V-9.072H6.19A3.307,3.307,0,0,1,9.8-5.6,3.307,3.307,0,0,1,6.19-2.128ZM14.284,0h4.988c3.592,0,6.054-2.208,6.054-5.6s-2.463-5.6-6.054-5.6H14.284Zm2.541-2.128V-9.072h2.321A3.307,3.307,0,0,1,22.754-5.6a3.307,3.307,0,0,1-3.608,3.472Z" transform="translate(2.672 21.201)" fill="#606060" opacity="0.7"/>
</svg>
