<svg xmlns="http://www.w3.org/2000/svg" width="12" height="16" viewBox="0 0 12 16">
  <g id="Group_2450" data-name="Group 2450" transform="translate(-526 -510)">
    <path id="Path_1460" data-name="Path 1460" d="M11.962,3.576l-.324-1.059a.915.915,0,0,0-.859-.674H8.052V.876A.844.844,0,0,0,7.248,0h-2.5a.844.844,0,0,0-.8.876v.967H1.221a.915.915,0,0,0-.859.674L.037,3.576a.854.854,0,0,0,.1.714.713.713,0,0,0,.591.329h.339l.746,10.05A1.387,1.387,0,0,0,3.136,16H9.015a1.387,1.387,0,0,0,1.323-1.33l.746-10.05h.188a.713.713,0,0,0,.591-.329.854.854,0,0,0,.1-.714ZM4.808.937H7.191v.906H4.808ZM10.22,4.619ZM.912,3.682l.266-.868a.045.045,0,0,1,.043-.033h9.558a.045.045,0,0,1,.043.033l.266.868Zm0,0" transform="translate(526 510)" fill="#ff5d5d"/>
  </g>
</svg>
