<svg xmlns="http://www.w3.org/2000/svg" width="13.999" height="15.999" viewBox="0 0 13.999 15.999">
  <g id="Group_3447" data-name="Group 3447" transform="translate(0 0)">
    <path id="Path_1424" data-name="Path 1424" d="M13.955,4.541l-.378-1.147a1.057,1.057,0,0,0-1-.73H9.394A.961.961,0,0,0,8.456,2H5.543a.961.961,0,0,0-.938.663H1.424a1.057,1.057,0,0,0-1,.73L.043,4.541a.869.869,0,0,0,.117.774.848.848,0,0,0,.689.357h.4l.871,10.887A1.565,1.565,0,0,0,3.658,18h6.858a1.565,1.565,0,0,0,1.543-1.441l.871-10.887h.219a.849.849,0,0,0,.689-.357.869.869,0,0,0,.117-.774ZM5.609,3.015H8.39V2.663H5.609Zm5.45,13.461a.55.55,0,0,1-.542.507H3.658a.55.55,0,0,1-.542-.507L2.252,5.671h9.671Zm-10-11.821.31-.941a.052.052,0,0,1,.05-.036H12.575a.052.052,0,0,1,.05.036l.31.941Zm0,0" transform="translate(0 -2)" fill="#606060"/>
  </g>
</svg>
