<svg xmlns="http://www.w3.org/2000/svg" width="21" height="26" viewBox="0 0 21 26">
  <path id="Path_1424" data-name="Path 1424" d="M20.934,5.811,20.367,4.09a1.585,1.585,0,0,0-1.5-1.1H14.092V1.424A1.417,1.417,0,0,0,12.684,0H8.315A1.418,1.418,0,0,0,6.907,1.424V2.995H2.136a1.585,1.585,0,0,0-1.5,1.1L.065,5.811A1.3,1.3,0,0,0,.24,6.972a1.273,1.273,0,0,0,1.033.535h.593L3.173,23.839A2.347,2.347,0,0,0,5.488,26H15.776a2.347,2.347,0,0,0,2.315-2.161L19.4,7.507h.329a1.273,1.273,0,0,0,1.033-.535,1.3,1.3,0,0,0,.175-1.161ZM8.414,1.523h4.171V2.995H8.414ZM16.59,23.716a.825.825,0,0,1-.814.761H5.488a.825.825,0,0,1-.814-.761L3.378,7.507H17.886ZM1.6,5.984l.466-1.411a.078.078,0,0,1,.075-.054H18.863a.079.079,0,0,1,.075.054L19.4,5.984Zm0,0" transform="translate(0 0)" fill="#ff5d5d"/>
</svg>
