<svg xmlns="http://www.w3.org/2000/svg" width="16" height="16" viewBox="0 0 16 16">
  <defs>
    <style>
      .cls-1 {
        fill: #ff5d5d;
      }
    </style>
  </defs>
  <path id="Path_7316" data-name="Path 7316" class="cls-1" d="M233.773,379.372a8,8,0,1,0,8,8A8,8,0,0,0,233.773,379.372Zm3.817,5a.273.273,0,0,1-.273.273h-.271l-.364,6.327a.818.818,0,0,1-.817.767H231.68a.819.819,0,0,1-.815-.767l-.364-6.327h-.273a.273.273,0,0,1-.273-.273v-.545a.272.272,0,0,1,.273-.273h2.046l.16-.319a.4.4,0,0,1,.365-.227h1.948a.409.409,0,0,1,.364.227l.16.319h2.046a.272.272,0,0,1,.273.273Z" transform="translate(-225.773 -379.372)"/>
</svg>
