<svg xmlns="http://www.w3.org/2000/svg" width="16.997" height="23.181" viewBox="0 0 16.997 23.181"><defs><style>.a{fill:#ff5d5d;}</style></defs><path class="a" d="M8.237,0h.489A8.4,8.4,0,0,1,14.46,2.465a8.866,8.866,0,0,1,2.487,5.384,9.164,9.164,0,0,1-1.64,6.259c-2.259,3.034-4.565,6.03-6.808,9.073H8.462a3.683,3.683,0,0,0-.509-.764q-3.088-4.1-6.173-8.2A9.019,9.019,0,0,1,0,9.055V8.124A9.215,9.215,0,0,1,2.373,2.706,8.41,8.41,0,0,1,8.237,0M7.63,4.072A5.044,5.044,0,0,0,3.762,7.834a5.248,5.248,0,0,0,.9,4.407,4.815,4.815,0,0,0,7.7.069A5.193,5.193,0,0,0,13.43,8.459a5.1,5.1,0,0,0-2.583-3.87A4.758,4.758,0,0,0,7.63,4.072Z"/><circle class="a" cx="6.182" cy="6.182" r="6.182" transform="translate(2.415 3.091)"/></svg>