<svg xmlns="http://www.w3.org/2000/svg" width="16" height="16" viewBox="0 0 16 16">
  <path id="history" d="M24,15.985a8,8,0,0,1-13.021,6.244.774.774,0,0,1-.059-1.149l.363-.363a.776.776,0,0,1,1.029-.064,5.936,5.936,0,1,0-.379-8.977l1.637,1.637a.516.516,0,0,1-.365.881H8.516A.516.516,0,0,1,8,13.677V8.988a.516.516,0,0,1,.881-.365l1.593,1.593A8,8,0,0,1,24,15.985Zm-5.836,2.541.317-.407a.774.774,0,0,0-.136-1.086l-1.313-1.021V12.645a.774.774,0,0,0-.774-.774h-.516a.774.774,0,0,0-.774.774v4.376l2.11,1.641A.774.774,0,0,0,18.164,18.526Z" transform="translate(-8 -8)" fill="#dadada"/>
</svg>
