<svg xmlns="http://www.w3.org/2000/svg" width="21.21" height="6.589" viewBox="0 0 21.21 6.589">
  <g id="Group_11616" data-name="Group 11616" transform="translate(-21.513 -16.556)">
    <path id="Path_10464" data-name="Path 10464" d="M11.25.144A3.324,3.324,0,0,0,14.805-3.15,3.324,3.324,0,0,0,11.25-6.444,3.324,3.324,0,0,0,7.695-3.15,3.324,3.324,0,0,0,11.25.144Zm0-1.719A1.433,1.433,0,0,1,9.837-3.15,1.433,1.433,0,0,1,11.25-4.725,1.433,1.433,0,0,1,12.663-3.15,1.433,1.433,0,0,1,11.25-1.575Z" transform="translate(21 23)" fill="#919191"/>
    <path id="Path_10465" data-name="Path 10465" d="M.513.287H3.618A3.221,3.221,0,0,0,7.173-3.006,3.221,3.221,0,0,0,3.618-6.3H.513ZM2.637-1.444V-4.569h.891a1.419,1.419,0,0,1,1.5,1.562,1.419,1.419,0,0,1-1.5,1.562Z" transform="translate(21 22.857)" fill="#919191"/>
    <path id="Path_10466" data-name="Path 10466" d="M5.553-3.157a1.541,1.541,0,0,0,.873-1.421c0-1-.81-1.722-2.547-1.722H.513V.287H4.059C5.8.287,6.723-.381,6.723-1.529A1.672,1.672,0,0,0,5.553-3.157ZM3.591-4.747c.477,0,.693.169.693.489s-.216.489-.693.489H2.6v-.979Zm.288,3.482H2.6V-2.3H3.879c.468,0,.7.179.7.518S4.347-1.266,3.879-1.266Z" transform="translate(36 22.857)" fill="#919191"/>
  </g>
</svg>
