<svg id="Component_2108_1" data-name="Component 2108 – 1" xmlns="http://www.w3.org/2000/svg" width="13.995" height="19" viewBox="0 0 13.995 19">
  <g id="Group_1204" data-name="Group 1204">
    <path id="Path_860" data-name="Path 860" d="M59.921-46.429H57.708a1.016,1.016,0,0,1-.876.533h-2.22a1.015,1.015,0,0,1-.876-.533H51.345A1.067,1.067,0,0,0,50.3-45.348v12.5a1.067,1.067,0,0,0,1.049,1.081h8.576a1.067,1.067,0,0,0,1.049-1.081v-12.5A1.067,1.067,0,0,0,59.921-46.429Z" transform="translate(-48.635 49.105)" fill="none"/>
    <path id="Path_861" data-name="Path 861" d="M59.377-48.97H57.31A1.045,1.045,0,0,0,56.28-50H54.055a1.045,1.045,0,0,0-1.031,1.03H50.778a2.732,2.732,0,0,0-2.7,2.76v12.449A2.733,2.733,0,0,0,50.778-31h8.6a2.733,2.733,0,0,0,2.7-2.761V-46.21A2.732,2.732,0,0,0,59.377-48.97Zm1.052,15.209a1.066,1.066,0,0,1-1.052,1.076h-8.6a1.066,1.066,0,0,1-1.052-1.076V-46.21a1.066,1.066,0,0,1,1.052-1.076h2.4a1.018,1.018,0,0,0,.878.53H56.28a1.019,1.019,0,0,0,.878-.53h2.219a1.066,1.066,0,0,1,1.052,1.076Z" transform="translate(-48.08 50)" fill="#606060"/>
  </g>
  <g id="Group_1205" data-name="Group 1205" transform="translate(3.168 6.621)">
    <rect id="Rectangle_719" data-name="Rectangle 719" width="7.577" height="1.193" rx="0.597" transform="translate(0 0)" fill="#606060"/>
    <rect id="Rectangle_720" data-name="Rectangle 720" width="7.577" height="1.193" rx="0.597" transform="translate(0 2.637)" fill="#606060"/>
    <rect id="Rectangle_721" data-name="Rectangle 721" width="4.413" height="1.193" rx="0.597" transform="translate(0 5.273)" fill="#606060"/>
  </g>
</svg>
