<?xml version="1.0" encoding="utf-8"?>
<!-- Generator: Adobe Illustrator 24.0.0, SVG Export Plug-In . SVG Version: 6.00 Build 0)  -->
<svg version="1.1" id="Layer_1" xmlns="http://www.w3.org/2000/svg" xmlns:xlink="http://www.w3.org/1999/xlink" width="14"
	 viewBox="0 0 14.1 13.4" xml:space="preserve">
<style type="text/css">
	.st01{opacity:0.7;}
	.st1{fill:#FFFFFF;}
	.st2{fill:#606060;stroke:#606060;stroke-width:0.5;}
	.st3{fill:#606060;}
</style>
<g id="Edit_Profile" transform="translate(0.25)" class="st01">
	<g id="BG">
		<path id="Path_717" class="st1" d="M11.1,10.4c0,0.9-0.7,1.7-1.7,1.7H2.8c-0.9,0-1.7-0.7-1.7-1.7V3.8c0-0.9,0.8-1.7,1.7-1.7h6.3
			l1-1C9.9,1.1,9.6,1.1,9.4,1.1H2.8C1.3,1.1,0,2.3,0,3.8v6.6c0,1.5,1.3,2.8,2.8,2.8h6.6c1.5,0,2.8-1.2,2.8-2.8V4.3l-1.1,1.1
			L11.1,10.4z"/>
		<path id="Path_718" class="st1" d="M13.5,0.3C13.4,0.1,13.1,0,12.9,0c-0.3,0-0.5,0.1-0.7,0.3L11,1.5l-0.7,0.7L5.2,7.3L4.9,8.5
			c0,0.2,0.1,0.4,0.3,0.5c0,0,0.1,0,0.1,0c0,0,0.1,0,0.1,0l1.2-0.3L11.2,4L12.1,3l1.4-1.4C13.9,1.2,13.9,0.6,13.5,0.3
			C13.5,0.3,13.5,0.3,13.5,0.3z"/>
	</g>
	<g id="edit">
		<path id="Path_719" class="st2" d="M11.1,10.4c0,0.9-0.7,1.7-1.7,1.7H2.8c-0.9,0-1.7-0.7-1.7-1.7V3.8c0-0.9,0.8-1.7,1.7-1.7h6.3
			l1-1C9.9,1.1,9.6,1.1,9.4,1.1H2.8C1.3,1.1,0,2.3,0,3.8v6.6c0,1.5,1.3,2.8,2.8,2.8h6.6c1.5,0,2.8-1.2,2.8-2.8V4.3l-1.1,1.1
			L11.1,10.4z"/>
		<path id="Path_720" class="st3" d="M13.5,0.3C13.4,0.1,13.1,0,12.9,0c-0.3,0-0.5,0.1-0.7,0.3L11,1.5l-0.7,0.7L5.2,7.3L4.9,8.5
			c0,0.2,0.1,0.4,0.3,0.5c0,0,0.1,0,0.1,0c0,0,0.1,0,0.1,0l1.2-0.3L11.2,4L12.1,3l1.4-1.4C13.9,1.2,13.9,0.6,13.5,0.3
			C13.5,0.3,13.5,0.3,13.5,0.3z"/>
	</g>
</g>
</svg>
