<svg xmlns="http://www.w3.org/2000/svg" width="11.997" height="12.002" viewBox="0 0 11.997 12.002">
  <g id="Group_8679" data-name="Group 8679" transform="translate(-676.999 -378.501)">
    <path id="Path_7775" data-name="Path 7775" d="M688.672,380.24l-1.408-1.41a1.129,1.129,0,0,0-1.592,0l-1.021,1.021h0a.282.282,0,0,0,0,.4l2.6,2.6h0a.282.282,0,0,0,.4,0l1.021-1.021h-.006A1.128,1.128,0,0,0,688.672,380.24Z" fill="#6c6c6c"/>
    <path id="Path_7776" data-name="Path 7776" d="M686.6,383.5l-2.6-2.6h0a.282.282,0,0,0-.4,0l-6.3,6.3-.3,2.677a.522.522,0,0,0,0,.125.562.562,0,0,0,.62.495l2.677-.3,6.3-6.3h0A.283.283,0,0,0,686.6,383.5Z" fill="#6c6c6c"/>
  </g>
</svg>
