<svg xmlns="http://www.w3.org/2000/svg" width="14.014" height="14.008" viewBox="0 0 14.014 14.008">
  <g id="Edit_Profile" data-name="Edit Profile" transform="translate(0.001 0)">
    <g id="Group_2459" data-name="Group 2459" transform="translate(0 1.247)">
      <path id="Path_1456" data-name="Path 1456" d="M-78.991-36.9a1.709,1.709,0,0,1-1.662,1.75H-87.22a1.709,1.709,0,0,1-1.662-1.75v-6.91a1.709,1.709,0,0,1,1.662-1.75h6.276l1.018-1.071a2.642,2.642,0,0,0-.726-.1H-87.22A2.858,2.858,0,0,0-90-43.81v6.91a2.859,2.859,0,0,0,2.78,2.926h6.568A2.859,2.859,0,0,0-77.873-36.9v-6.485l-1.118,1.176Z" transform="translate(90 46.735)" fill="#fff"/>
    </g>
    <path id="Path_1457" data-name="Path 1457" d="M-78.991-36.9a1.709,1.709,0,0,1-1.662,1.75H-87.22a1.709,1.709,0,0,1-1.662-1.75v-6.91a1.709,1.709,0,0,1,1.662-1.75h6.276l1.018-1.071a2.642,2.642,0,0,0-.726-.1H-87.22A2.858,2.858,0,0,0-90-43.81v6.91a2.859,2.859,0,0,0,2.78,2.926h6.568A2.859,2.859,0,0,0-77.873-36.9v-6.485l-1.118,1.176Z" transform="translate(90 47.982)" fill="#606060"/>
    <path id="Path_1458" data-name="Path 1458" d="M-74.959-48.612a.853.853,0,0,0-.6-.25.853.853,0,0,0-.6.25l-1.068,1.068-.671.671-4.581,4.581-.3,1.1a.343.343,0,0,0,.068.287.343.343,0,0,0,.266.128.337.337,0,0,0,.073-.008l1.1-.3,4.19-4.19.854-.854,1.276-1.276a.854.854,0,0,0-.007-1.207Z" transform="translate(88.719 48.862)" fill="#606060"/>
  </g>
</svg>
