<svg xmlns="http://www.w3.org/2000/svg" width="14" height="12" viewBox="0 0 14 12">
  <path id="edit-solid" d="M9.785,2.048l2.192,2.114a.223.223,0,0,1,0,.324L6.669,9.606l-2.256.241a.465.465,0,0,1-.523-.5l.25-2.175L9.45,2.048a.244.244,0,0,1,.335,0Zm3.937-.537L12.537.367a.976.976,0,0,0-1.342,0l-.86.83a.223.223,0,0,0,0,.324l2.192,2.114a.244.244,0,0,0,.335,0l.86-.83a.894.894,0,0,0,0-1.294Zm-4.39,6.7V10.6H1.556V3.1H7.141a.3.3,0,0,0,.207-.082l.972-.938A.28.28,0,0,0,8.113,1.6H1.167A1.147,1.147,0,0,0,0,2.723v8.252A1.147,1.147,0,0,0,1.167,12.1H9.722a1.147,1.147,0,0,0,1.167-1.125v-3.7a.294.294,0,0,0-.5-.2l-.972.938A.283.283,0,0,0,9.333,8.213Z" transform="translate(0 -0.1)" fill="#fff"/>
</svg>
