<svg xmlns="http://www.w3.org/2000/svg" width="26" height="26" viewBox="0 0 26 26"><g transform="translate(-1779 -433)"><g transform="translate(1779 433)"><circle cx="13" cy="13" r="13" fill="#fff"/><circle cx="11" cy="11" r="11" transform="translate(2 2)" fill="#28529f" opacity="0.7"/><g transform="translate(5.963 5.963)"><path d="M1.876,0h0A1.876,1.876,0,0,1,3.753,1.876v9.288a0,0,0,0,1,0,0H0a0,0,0,0,1,0,0V1.876A1.876,1.876,0,0,1,1.876,0Z" transform="translate(10.564 0) rotate(45)" fill="#fff"/><path d="M0,0H3.753L2.543,2.274a.52.52,0,0,1-.533.357.579.579,0,0,1-.554-.359Z" transform="translate(1.86 8.704) rotate(45)" fill="#fff"/></g></g></g></svg>