<svg xmlns="http://www.w3.org/2000/svg" width="14" height="12" viewBox="0 0 14 12">
  <g id="Group_31691" data-name="Group 31691" transform="translate(0.001 0)">
    <path id="Path_1942" data-name="Path 1942" d="M949.556,532.979a1.252,1.252,0,0,0-1.859,0l-7.59,8.231-1.961-2.125a1.14,1.14,0,0,0-.832-.378H937.3a1.157,1.157,0,0,0-.844.378l-.171.186a1.369,1.369,0,0,0,0,1.819l2.855,3.1a1.142,1.142,0,0,0,.842.379,1.113,1.113,0,0,0,.438-.09,1.259,1.259,0,0,0,.734-.382l8.4-9.109A1.5,1.5,0,0,0,949.556,532.979Z" transform="translate(-935.941 -532.565)" fill="#fff" opacity="0.7"/>
  </g>
</svg>
