<svg xmlns="http://www.w3.org/2000/svg" width="184" height="30" viewBox="0 0 184 30">
  <g id="EFS_Logo" data-name="EFS Logo" style="isolation: isolate">
    <g id="logo-efs" transform="translate(35.633 -10.176)" style="mix-blend-mode: luminosity;isolation: isolate">
      <rect id="Rectangle_1735" data-name="Rectangle 1735" width="184" height="30" transform="translate(-35.633 10.176)" fill="#fff"/>
      <g id="Group_3052" data-name="Group 3052" transform="translate(-31)">
        <g id="_595a5cff" data-name="#595a5cff" transform="translate(35.008 17.434)">
          <path id="Path_1619" data-name="Path 1619" d="M1227.807,17.626a10.881,10.881,0,0,1,2.833-.173,17.16,17.16,0,0,1,2.651.372c.063,1.444.158,2.887.221,4.331h-.487c-.059-.4-.11-.81-.169-1.214a2.939,2.939,0,0,0-1.347-2.038,4.2,4.2,0,0,0-2.528-.551,2.909,2.909,0,0,0-1.932.875,2.284,2.284,0,0,0-.549,2.281,2.681,2.681,0,0,0,.9,1.156,10.2,10.2,0,0,0,1.861,1.1A20.917,20.917,0,0,1,1231.6,25a6.786,6.786,0,0,1,1.689,1.363,3.536,3.536,0,0,1,.832,1.907,4.419,4.419,0,0,1-.309,2.344,3.876,3.876,0,0,1-1.335,1.544,6.2,6.2,0,0,1-2.569.942,12.2,12.2,0,0,1-3.327-.023c-.694-.067-1.38-.2-2.067-.313-.067-1.465-.15-2.929-.227-4.393q.247,0,.5,0c.062.424.113.851.181,1.274a2.91,2.91,0,0,0,1.316,1.9,4.476,4.476,0,0,0,2.617.61,3.582,3.582,0,0,0,1.932-.642,2.764,2.764,0,0,0,1.152-2.238,2.189,2.189,0,0,0-.321-1.194,3.26,3.26,0,0,0-.623-.686,11.108,11.108,0,0,0-2.319-1.471c-.6-.31-1.221-.564-1.8-.914a5.45,5.45,0,0,1-1.909-1.707,4.031,4.031,0,0,1-.453-2.441,3.3,3.3,0,0,1,.95-2.078A4.519,4.519,0,0,1,1227.807,17.626Z" transform="translate(-1199.828 -17.434)" fill="#595a5c"/>
          <path id="Path_1622" data-name="Path 1622" d="M663.25,22.748h10.418q.125,2.23.255,4.459h-.4c-.105-.553-.2-1.108-.3-1.66a2.452,2.452,0,0,0-.674-1.322,2.3,2.3,0,0,0-1.243-.5,8.581,8.581,0,0,0-1.216-.044c-.567,0-1.134,0-1.7,0-.307.023-.695.026-.881.325a2.891,2.891,0,0,0-.2,1.222c0,1.524,0,3.048,0,4.572h2.039a5.7,5.7,0,0,0,1.376-.11,1.16,1.16,0,0,0,.76-.553,2.984,2.984,0,0,0,.253-1.326h.488q0,2.454,0,4.908h-.488a2.22,2.22,0,0,0-.481-1.509,2.112,2.112,0,0,0-1.427-.477c-.84,0-1.68,0-2.52,0q0,2.64,0,5.28a4.259,4.259,0,0,0,.12,1.121.566.566,0,0,0,.4.392,3.31,3.31,0,0,0,.78.058c.8,0,1.6,0,2.4,0a2.921,2.921,0,0,0,1.758-.519,2.969,2.969,0,0,0,.825-1.68c.2,0,.391,0,.587,0q-.082,1.567-.161,3.134h-8.767q0-6.577,0-13.154a3.11,3.11,0,0,0-.229-1.468,1.109,1.109,0,0,0-.719-.56,4.3,4.3,0,0,0-1.046-.1Q663.25,22.99,663.25,22.748Z" transform="translate(-663.25 -22.748)" fill="#595a5c"/>
          <path id="Path_1623" data-name="Path 1623" d="M942.994,22.693c3.468,0,6.935,0,10.4,0,.1,1.485.175,2.974.259,4.461H953.3c-.109-.535-.216-1.071-.332-1.6a2.671,2.671,0,0,0-.837-1.477,2.984,2.984,0,0,0-1.64-.443c-.8,0-1.6,0-2.4,0a1.168,1.168,0,0,0-.787.239,1.228,1.228,0,0,0-.223.662c-.058.6-.029,1.207-.036,1.811q0,1.7,0,3.406c.784,0,1.569,0,2.353,0a4.584,4.584,0,0,0,1-.113,1.148,1.148,0,0,0,.745-.55,2.908,2.908,0,0,0,.25-1.324h.489q0,2.454,0,4.907H951.4a1.7,1.7,0,0,0-1.912-1.985c-.813,0-1.626,0-2.439,0q0,3.891,0,7.782h-2.059q0-6.619,0-13.238a2.772,2.772,0,0,0-.276-1.456,1.15,1.15,0,0,0-.8-.516,4.849,4.849,0,0,0-.919-.074C942.993,23.015,942.993,22.854,942.994,22.693Z" transform="translate(-930.796 -22.69)" fill="#595a5c"/>
        </g>
        <g id="_e51937ff" data-name="#e51937ff" transform="translate(6.367 17.621)" style="mix-blend-mode: luminosity;isolation: isolate">
          <path id="Path_1644" data-name="Path 1644" d="M289.3,21.757a.583.583,0,0,1,.676.242,1.1,1.1,0,0,1-.1,1.377.574.574,0,0,1-.79,0A1.038,1.038,0,0,1,289.3,21.757Z" transform="translate(-276.482 -21.723)" fill="#e51937"/>
          <path id="Path_1645" data-name="Path 1645" d="M243.658,25.776a.5.5,0,0,1,.571.277.943.943,0,0,1-.152,1.1.479.479,0,0,1-.575.069.773.773,0,0,1-.322-.718A.759.759,0,0,1,243.658,25.776Z" transform="translate(-232.853 -25.582)" fill="#e51937"/>
          <path id="Path_1646" data-name="Path 1646" d="M339.689,25.788a.541.541,0,0,1,.607.292.932.932,0,0,1-.1,1.087.487.487,0,0,1-.656.019.932.932,0,0,1-.173-1.112A.578.578,0,0,1,339.689,25.788Z" transform="translate(-324.74 -25.591)" fill="#e51937"/>
          <path id="Path_1647" data-name="Path 1647" d="M205.793,30.967a.414.414,0,0,1,.5.206.762.762,0,0,1-.239,1.01.431.431,0,0,1-.587-.228A.753.753,0,0,1,205.793,30.967Z" transform="translate(-196.724 -30.54)" fill="#e51937"/>
          <path id="Path_1648" data-name="Path 1648" d="M381.324,30.949c.334-.088.6.252.625.554.058.306-.109.716-.464.722A.691.691,0,0,1,381.324,30.949Z" transform="translate(-364.63 -30.534)" fill="#e51937"/>
          <path id="Path_1649" data-name="Path 1649" d="M172.242,36.963c.246-.118.492.123.507.364.067.322-.191.773-.564.663A.593.593,0,0,1,172.242,36.963Z" transform="translate(-164.696 -36.269)" fill="#e51937"/>
          <path id="Path_1650" data-name="Path 1650" d="M418.143,37.02a.4.4,0,0,1,.5.2.621.621,0,0,1-.055.76.376.376,0,0,1-.54-.08A.6.6,0,0,1,418.143,37.02Z" transform="translate(-399.958 -36.325)" fill="#e51937"/>
          <path id="Path_1651" data-name="Path 1651" d="M138.8,44.193a.3.3,0,0,1,.379.181.541.541,0,0,1-.232.656.3.3,0,0,1-.39-.121A.525.525,0,0,1,138.8,44.193Z" transform="translate(-132.737 -43.194)" fill="#e51937"/>
          <path id="Path_1652" data-name="Path 1652" d="M454.5,44.23c.269-.076.49.215.485.461a.353.353,0,0,1-.287.412C454.272,45.113,454.1,44.4,454.5,44.23Z" transform="translate(-434.744 -43.237)" fill="#e51937"/>
          <path id="Path_1653" data-name="Path 1653" d="M105.442,52.273a.242.242,0,0,1,.307.164.446.446,0,0,1-.218.529.244.244,0,0,1-.327-.111A.441.441,0,0,1,105.442,52.273Z" transform="translate(-100.86 -50.928)" fill="#e51937"/>
          <path id="Path_1654" data-name="Path 1654" d="M490.387,52.354c.252-.066.449.232.416.46a.255.255,0,0,1-.3.25C490.192,53.005,490.077,52.482,490.387,52.354Z" transform="translate(-469.108 -51.009)" fill="#e51937"/>
          <path id="Path_1655" data-name="Path 1655" d="M72.813,62.695a.186.186,0,0,1,.219.017c.16.174-.038.527-.273.446C72.58,63.06,72.653,62.778,72.813,62.695Z" transform="translate(-69.764 -60.882)" fill="#e51937"/>
          <path id="Path_1656" data-name="Path 1656" d="M526.563,62.729c.2-.106.4.146.348.334a.164.164,0,0,1-.225.13A.283.283,0,0,1,526.563,62.729Z" transform="translate(-503.805 -60.917)" fill="#e51937"/>
          <path id="Path_1657" data-name="Path 1657" d="M39.456,72.98a.257.257,0,0,1,.264-.144.233.233,0,0,1-.18.4C39.423,73.229,39.405,73.062,39.456,72.98Z" transform="translate(-37.988 -70.607)" fill="#e51937"/>
          <path id="Path_1658" data-name="Path 1658" d="M561.276,72.919c.186-.122.431.187.272.345C561.357,73.386,561.122,73.075,561.276,72.919Z" transform="translate(-537.034 -70.66)" fill="#e51937"/>
          <path id="Path_1659" data-name="Path 1659" d="M289.464,82.8a.58.58,0,0,1,.622.228,1.132,1.132,0,0,1,.023,1.286.6.6,0,0,1-.524.274.617.617,0,0,1-.493-.3,1.177,1.177,0,0,1-.134-.871A.8.8,0,0,1,289.464,82.8Z" transform="translate(-276.609 -80.117)" fill="#e51937"/>
          <path id="Path_1660" data-name="Path 1660" d="M6.383,84.509c-.075-.165.13-.4.286-.267A.215.215,0,0,1,6.383,84.509Z" transform="translate(-6.367 -81.479)" fill="#e51937"/>
          <path id="Path_1661" data-name="Path 1661" d="M595.633,84.225c.153-.085.348.143.24.283C595.71,84.606,595.506,84.362,595.633,84.225Z" transform="translate(-569.902 -81.482)" fill="#e51937"/>
          <path id="Path_1662" data-name="Path 1662" d="M243.562,86.483a.494.494,0,0,1,.623.215.96.96,0,0,1-.039,1.056.506.506,0,0,1-.537.2.668.668,0,0,1-.431-.541A.857.857,0,0,1,243.562,86.483Z" transform="translate(-232.837 -83.617)" fill="#e51937"/>
          <path id="Path_1663" data-name="Path 1663" d="M339.759,86.534a.513.513,0,0,1,.567.212.953.953,0,0,1,.012,1.073.494.494,0,0,1-.552.205.747.747,0,0,1-.449-.663A.777.777,0,0,1,339.759,86.534Z" transform="translate(-324.814 -83.686)" fill="#e51937"/>
          <path id="Path_1664" data-name="Path 1664" d="M205.713,90.936a.427.427,0,0,1,.524.169.763.763,0,0,1-.17,1.009.416.416,0,0,1-.561-.1A.748.748,0,0,1,205.713,90.936Z" transform="translate(-196.687 -87.887)" fill="#e51937"/>
          <path id="Path_1665" data-name="Path 1665" d="M381.35,90.921a.438.438,0,0,1,.427.113.782.782,0,0,1,.079.96.421.421,0,0,1-.532.145A.709.709,0,0,1,381.35,90.921Z" transform="translate(-364.657 -87.889)" fill="#e51937"/>
          <path id="Path_1666" data-name="Path 1666" d="M172.182,95.535a.349.349,0,0,1,.438.092.644.644,0,0,1-.048.817.363.363,0,0,1-.47.054A.606.606,0,0,1,172.182,95.535Z" transform="translate(-164.682 -92.277)" fill="#e51937"/>
          <path id="Path_1667" data-name="Path 1667" d="M418.155,95.513a.407.407,0,0,1,.532.225.6.6,0,0,1-.131.748.383.383,0,0,1-.531-.139A.608.608,0,0,1,418.155,95.513Z" transform="translate(-399.974 -92.26)" fill="#e51937"/>
          <path id="Path_1668" data-name="Path 1668" d="M138.749,100.714a.305.305,0,0,1,.4.141.532.532,0,0,1-.133.646.313.313,0,0,1-.427-.051A.506.506,0,0,1,138.749,100.714Z" transform="translate(-132.732 -97.242)" fill="#e51937"/>
          <path id="Path_1669" data-name="Path 1669" d="M454.527,100.711a.355.355,0,0,1,.436.2.484.484,0,0,1-.109.613.325.325,0,0,1-.438-.106A.482.482,0,0,1,454.527,100.711Z" transform="translate(-434.784 -97.245)" fill="#e51937"/>
          <path id="Path_1670" data-name="Path 1670" d="M105.362,106.479a.266.266,0,0,1,.379.109.425.425,0,0,1-.194.549.263.263,0,0,1-.341-.143A.429.429,0,0,1,105.362,106.479Z" transform="translate(-100.869 -102.746)" fill="#e51937"/>
          <path id="Path_1671" data-name="Path 1671" d="M490.379,106.429a.321.321,0,0,1,.452.254c.054.17-.039.428-.246.424C490.253,107.121,490.123,106.61,490.379,106.429Z" transform="translate(-469.147 -102.701)" fill="#e51937"/>
          <path id="Path_1672" data-name="Path 1672" d="M72.848,113.589a.189.189,0,0,1,.28.169c.029.169-.143.364-.317.29A.269.269,0,0,1,72.848,113.589Z" transform="translate(-69.807 -109.559)" fill="#e51937"/>
          <path id="Path_1673" data-name="Path 1673" d="M526.582,113.62c.194-.126.417.14.338.329a.182.182,0,0,1-.251.123A.277.277,0,0,1,526.582,113.62Z" transform="translate(-503.82 -109.582)" fill="#e51937"/>
          <path id="Path_1674" data-name="Path 1674" d="M39.546,120.246a.156.156,0,0,1,.23.108c.041.155-.128.333-.283.253S39.417,120.306,39.546,120.246Z" transform="translate(-37.973 -115.934)" fill="#e51937"/>
          <path id="Path_1675" data-name="Path 1675" d="M561.373,120.271c.166-.068.34.152.252.3-.058.128-.257.086-.312-.025A.189.189,0,0,1,561.373,120.271Z" transform="translate(-537.083 -115.962)" fill="#e51937"/>
          <path id="Path_1676" data-name="Path 1676" d="M6.52,127.57c.074-.06.223-.036.221.076a.18.18,0,0,1-.255.188A.165.165,0,0,1,6.52,127.57Z" transform="translate(-6.43 -122.925)" fill="#e51937"/>
          <path id="Path_1677" data-name="Path 1677" d="M595.556,127.539c.141-.117.359.1.253.243C595.665,127.919,595.436,127.689,595.556,127.539Z" transform="translate(-569.835 -122.893)" fill="#e51937"/>
          <path id="Path_1678" data-name="Path 1678" d="M289.336,147.724a.592.592,0,0,1,.677.242,1.1,1.1,0,0,1-.125,1.4.562.562,0,0,1-.746,0,1.072,1.072,0,0,1-.286-1.006A.82.82,0,0,1,289.336,147.724Z" transform="translate(-276.515 -142.2)" fill="#e51937"/>
          <path id="Path_1679" data-name="Path 1679" d="M243.482,151.039a.506.506,0,0,1,.581.247.976.976,0,0,1,0,.986.521.521,0,0,1-.557.266.7.7,0,0,1-.473-.644A.784.784,0,0,1,243.482,151.039Z" transform="translate(-232.71 -145.378)" fill="#e51937"/>
          <path id="Path_1680" data-name="Path 1680" d="M339.764,151.035a.516.516,0,0,1,.586.245.955.955,0,0,1-.047,1.072.494.494,0,0,1-.6.146.814.814,0,0,1-.372-.79A.737.737,0,0,1,339.764,151.035Z" transform="translate(-324.809 -145.375)" fill="#e51937"/>
          <path id="Path_1681" data-name="Path 1681" d="M205.72,154.42a.442.442,0,0,1,.552.22.784.784,0,0,1-.12.917.427.427,0,0,1-.6-.026A.738.738,0,0,1,205.72,154.42Z" transform="translate(-196.7 -148.604)" fill="#e51937"/>
          <path id="Path_1682" data-name="Path 1682" d="M381.293,154.441a.424.424,0,0,1,.488.1.757.757,0,0,1-.036,1.043.419.419,0,0,1-.555-.016A.741.741,0,0,1,381.293,154.441Z" transform="translate(-364.643 -148.618)" fill="#e51937"/>
          <path id="Path_1683" data-name="Path 1683" d="M172.2,157.551a.359.359,0,0,1,.453.129.638.638,0,0,1-.078.811.356.356,0,0,1-.452.022A.6.6,0,0,1,172.2,157.551Z" transform="translate(-164.7 -151.593)" fill="#e51937"/>
          <path id="Path_1684" data-name="Path 1684" d="M418.182,157.509a.4.4,0,0,1,.5.233.623.623,0,0,1-.118.723.363.363,0,0,1-.479-.007A.609.609,0,0,1,418.182,157.509Z" transform="translate(-399.959 -151.563)" fill="#e51937"/>
          <path id="Path_1685" data-name="Path 1685" d="M138.75,160.723a.312.312,0,0,1,.381.126.5.5,0,0,1-.187.718.339.339,0,0,1-.405-.216A.487.487,0,0,1,138.75,160.723Z" transform="translate(-132.738 -154.641)" fill="#e51937"/>
          <path id="Path_1686" data-name="Path 1686" d="M454.511,160.752c.26-.122.515.168.49.42.02.222-.17.474-.411.422A.476.476,0,0,1,454.511,160.752Z" transform="translate(-434.762 -154.663)" fill="#e51937"/>
          <path id="Path_1687" data-name="Path 1687" d="M105.375,163.759c.227-.09.424.178.377.388a.317.317,0,0,1-.384.3A.38.38,0,0,1,105.375,163.759Z" transform="translate(-100.847 -157.549)" fill="#e51937"/>
          <path id="Path_1688" data-name="Path 1688" d="M490.421,163.745c.194-.1.4.091.419.284.044.2-.12.45-.34.4A.384.384,0,0,1,490.421,163.745Z" transform="translate(-469.147 -157.527)" fill="#e51937"/>
          <path id="Path_1689" data-name="Path 1689" d="M72.809,167.771a.2.2,0,0,1,.309.152c.037.145-.073.333-.238.307C72.66,168.213,72.63,167.869,72.809,167.771Z" transform="translate(-69.801 -161.372)" fill="#e51937"/>
          <path id="Path_1690" data-name="Path 1690" d="M526.6,167.746c.192-.1.385.16.3.335a.2.2,0,0,1-.317.1A.267.267,0,0,1,526.6,167.746Z" transform="translate(-503.803 -161.359)" fill="#e51937"/>
          <path id="Path_1691" data-name="Path 1691" d="M39.508,170.7a.174.174,0,0,1,.278.155.187.187,0,0,1-.26.185A.2.2,0,0,1,39.508,170.7Z" transform="translate(-37.981 -164.172)" fill="#e51937"/>
          <path id="Path_1692" data-name="Path 1692" d="M561.342,170.708a.2.2,0,0,1,.282.167.178.178,0,0,1-.245.188A.2.2,0,0,1,561.342,170.708Z" transform="translate(-537.06 -164.191)" fill="#e51937"/>
          <path id="Path_1693" data-name="Path 1693" d="M6.527,173.672c.095-.052.253,0,.229.126a.16.16,0,0,1-.247.136A.158.158,0,0,1,6.527,173.672Z" transform="translate(-6.444 -167.028)" fill="#e51937"/>
          <path id="Path_1694" data-name="Path 1694" d="M595.745,173.984c-.158-.037-.139-.321.037-.3.1-.014.14.081.178.151C595.932,173.93,595.852,174.027,595.745,173.984Z" transform="translate(-569.945 -167.06)" fill="#e51937"/>
          <path id="Path_1695" data-name="Path 1695" d="M289.336,207.021a.6.6,0,0,1,.687.263,1.156,1.156,0,0,1,.041,1.158.64.64,0,0,1-.533.359.63.63,0,0,1-.558-.341,1.17,1.17,0,0,1-.062-1A.739.739,0,0,1,289.336,207.021Z" transform="translate(-276.511 -198.911)" fill="#e51937"/>
          <path id="Path_1696" data-name="Path 1696" d="M243.6,210.017a.492.492,0,0,1,.524.177.955.955,0,0,1,.079,1.031.525.525,0,0,1-.575.291.705.705,0,0,1-.468-.644A.78.78,0,0,1,243.6,210.017Z" transform="translate(-232.829 -201.787)" fill="#e51937"/>
          <path id="Path_1697" data-name="Path 1697" d="M339.769,210.137a.513.513,0,0,1,.567.218.929.929,0,0,1-.1,1.16.486.486,0,0,1-.664-.005.93.93,0,0,1-.184-.973A.642.642,0,0,1,339.769,210.137Z" transform="translate(-324.811 -201.903)" fill="#e51937"/>
          <path id="Path_1698" data-name="Path 1698" d="M205.724,212.482a.428.428,0,0,1,.526.13.806.806,0,0,1,.106.76.476.476,0,0,1-.477.346.54.54,0,0,1-.433-.427A.712.712,0,0,1,205.724,212.482Z" transform="translate(-196.74 -204.123)" fill="#e51937"/>
          <path id="Path_1699" data-name="Path 1699" d="M381.379,212.482a.447.447,0,0,1,.6.249.712.712,0,0,1-.312.973c-.307.093-.571-.208-.594-.492A.707.707,0,0,1,381.379,212.482Z" transform="translate(-364.725 -204.123)" fill="#e51937"/>
          <path id="Path_1700" data-name="Path 1700" d="M172.269,214.177a.431.431,0,0,1,.5.371.563.563,0,0,1-.276.666.42.42,0,0,1-.518-.331A.562.562,0,0,1,172.269,214.177Z" transform="translate(-164.726 -205.773)" fill="#e51937"/>
          <path id="Path_1701" data-name="Path 1701" d="M418.222,214.17a.4.4,0,0,1,.47.271.634.634,0,0,1-.15.7.356.356,0,0,1-.409.041A.6.6,0,0,1,418.222,214.17Z" transform="translate(-399.951 -205.764)" fill="#e51937"/>
          <path id="Path_1702" data-name="Path 1702" d="M6.474,215.674c.1-.1.3,0,.262.151-.007.143-.222.158-.281.044A.152.152,0,0,1,6.474,215.674Z" transform="translate(-6.426 -207.181)" fill="#e51937"/>
          <path id="Path_1703" data-name="Path 1703" d="M105.35,216.153c.248-.1.462.183.41.411a.3.3,0,0,1-.338.278A.381.381,0,0,1,105.35,216.153Z" transform="translate(-100.855 -207.655)" fill="#e51937"/>
          <path id="Path_1704" data-name="Path 1704" d="M138.7,215.45c.249-.135.509.131.5.378.036.238-.161.525-.425.455A.479.479,0,0,1,138.7,215.45Z" transform="translate(-132.734 -206.969)" fill="#e51937"/>
          <path id="Path_1705" data-name="Path 1705" d="M454.555,215.471c.245-.138.512.132.487.38.027.246-.194.531-.458.446A.482.482,0,0,1,454.555,215.471Z" transform="translate(-434.802 -206.988)" fill="#e51937"/>
          <path id="Path_1706" data-name="Path 1706" d="M490.4,216.093a.262.262,0,0,1,.32.062.393.393,0,0,1-.129.612.272.272,0,0,1-.322-.121A.409.409,0,0,1,490.4,216.093Z" transform="translate(-469.113 -207.589)" fill="#e51937"/>
          <path id="Path_1707" data-name="Path 1707" d="M595.674,215.662c.093-.062.249,0,.235.123a.156.156,0,1,1-.235-.123Z" transform="translate(-569.91 -207.182)" fill="#e51937"/>
          <path id="Path_1708" data-name="Path 1708" d="M39.507,216.673a.189.189,0,0,1,.281.167.174.174,0,0,1-.247.183A.2.2,0,0,1,39.507,216.673Z" transform="translate(-37.982 -208.149)" fill="#e51937"/>
          <path id="Path_1709" data-name="Path 1709" d="M72.811,217.176a.227.227,0,0,1,.31.235.211.211,0,0,1-.241.238A.263.263,0,0,1,72.811,217.176Z" transform="translate(-69.799 -208.634)" fill="#e51937"/>
          <path id="Path_1710" data-name="Path 1710" d="M526.641,217.2a.2.2,0,0,1,.28.1c.086.165-.059.413-.256.365A.264.264,0,0,1,526.641,217.2Z" transform="translate(-503.832 -208.655)" fill="#e51937"/>
          <path id="Path_1711" data-name="Path 1711" d="M561.467,216.642a.188.188,0,1,1-.057.28A.218.218,0,0,1,561.467,216.642Z" transform="translate(-537.184 -208.113)" fill="#e51937"/>
          <path id="Path_1712" data-name="Path 1712" d="M6.426,258.79c.138-.114.346.081.255.231C6.555,259.185,6.287,258.934,6.426,258.79Z" transform="translate(-6.386 -248.421)" fill="#e51937"/>
          <path id="Path_1713" data-name="Path 1713" d="M595.72,258.728a.129.129,0,0,1,.2.122.188.188,0,0,1-.241.169A.168.168,0,0,1,595.72,258.728Z" transform="translate(-569.916 -248.377)" fill="#e51937"/>
          <path id="Path_1714" data-name="Path 1714" d="M39.494,263.891c.212-.107.4.256.2.366C39.484,264.349,39.3,264.006,39.494,263.891Z" transform="translate(-37.971 -253.313)" fill="#e51937"/>
          <path id="Path_1715" data-name="Path 1715" d="M561.409,263.9a.163.163,0,0,1,.236.16c0,.149-.18.287-.313.187A.218.218,0,0,1,561.409,263.9Z" transform="translate(-537.081 -253.318)" fill="#e51937"/>
          <path id="Path_1716" data-name="Path 1716" d="M72.8,268.035c.237-.091.421.258.258.428a.2.2,0,0,1-.3-.025A.261.261,0,0,1,72.8,268.035Z" transform="translate(-69.797 -257.281)" fill="#e51937"/>
          <path id="Path_1717" data-name="Path 1717" d="M289.373,268.178a.575.575,0,0,1,.5.116,1.055,1.055,0,0,1,.307.954.864.864,0,0,1-.449.677.574.574,0,0,1-.672-.171,1.133,1.133,0,0,1-.152-1.133A.728.728,0,0,1,289.373,268.178Z" transform="translate(-276.508 -257.418)" fill="#e51937"/>
          <path id="Path_1718" data-name="Path 1718" d="M526.649,268.045a.186.186,0,0,1,.254.122c.076.188-.145.461-.341.327A.276.276,0,0,1,526.649,268.045Z" transform="translate(-503.803 -257.29)" fill="#e51937"/>
          <path id="Path_1719" data-name="Path 1719" d="M105.333,270.09c.353-.112.567.436.3.648a.3.3,0,0,1-.43-.124A.368.368,0,0,1,105.333,270.09Z" transform="translate(-100.843 -259.247)" fill="#e51937"/>
          <path id="Path_1720" data-name="Path 1720" d="M490.452,270a.269.269,0,0,1,.365.2c.072.229-.116.547-.378.492C490.137,270.6,490.18,270.115,490.452,270Z" transform="translate(-469.133 -259.158)" fill="#e51937"/>
          <path id="Path_1721" data-name="Path 1721" d="M243.521,270.76a.52.52,0,0,1,.625.252.917.917,0,0,1-.162,1.162.5.5,0,0,1-.709-.158A.875.875,0,0,1,243.521,270.76Z" transform="translate(-232.793 -259.871)" fill="#e51937"/>
          <path id="Path_1722" data-name="Path 1722" d="M339.8,270.791a.511.511,0,0,1,.56.255.948.948,0,0,1-.072,1.066.491.491,0,0,1-.611.141.818.818,0,0,1-.346-.81A.724.724,0,0,1,339.8,270.791Z" transform="translate(-324.811 -259.916)" fill="#e51937"/>
          <path id="Path_1723" data-name="Path 1723" d="M138.715,271.816c.259-.119.5.167.5.413a.371.371,0,0,1-.342.441A.474.474,0,0,1,138.715,271.816Z" transform="translate(-132.743 -260.885)" fill="#e51937"/>
          <path id="Path_1724" data-name="Path 1724" d="M205.65,272.257a.466.466,0,0,1,.549.269.763.763,0,0,1-.12.889.4.4,0,0,1-.441.067A.711.711,0,0,1,205.65,272.257Z" transform="translate(-196.62 -261.312)" fill="#e51937"/>
          <path id="Path_1725" data-name="Path 1725" d="M381.535,272.254a.44.44,0,0,1,.5.246.761.761,0,0,1-.208.958.417.417,0,0,1-.577-.138A.73.73,0,0,1,381.535,272.254Z" transform="translate(-364.79 -261.316)" fill="#e51937"/>
          <path id="Path_1726" data-name="Path 1726" d="M454.589,271.809c.217-.11.449.115.446.332a.466.466,0,0,1-.329.518.316.316,0,0,1-.345-.223A.5.5,0,0,1,454.589,271.809Z" transform="translate(-434.798 -260.877)" fill="#e51937"/>
          <path id="Path_1727" data-name="Path 1727" d="M172.246,272.655c.279-.106.533.166.56.428.053.259-.087.617-.39.623A.578.578,0,0,1,172.246,272.655Z" transform="translate(-164.755 -261.692)" fill="#e51937"/>
          <path id="Path_1728" data-name="Path 1728" d="M418.176,272.635a.4.4,0,0,1,.544.328c.089.314-.147.778-.518.7A.591.591,0,0,1,418.176,272.635Z" transform="translate(-399.949 -261.66)" fill="#e51937"/>
          <path id="Path_1729" data-name="Path 1729" d="M6.483,304.705c.151-.106.363.139.246.276C6.577,305.071,6.371,304.844,6.483,304.705Z" transform="translate(-6.447 -292.342)" fill="#e51937"/>
          <path id="Path_1730" data-name="Path 1730" d="M595.676,304.7c.064-.035.177-.031.193.057.03.14-.139.3-.275.224A.2.2,0,0,1,595.676,304.7Z" transform="translate(-569.871 -292.341)" fill="#e51937"/>
          <path id="Path_1731" data-name="Path 1731" d="M39.5,314.184a.235.235,0,0,1,.23.369C39.528,314.693,39.279,314.3,39.5,314.184Z" transform="translate(-37.973 -301.425)" fill="#e51937"/>
          <path id="Path_1732" data-name="Path 1732" d="M561.4,314.231a.171.171,0,0,1,.19.014c.132.164-.1.462-.286.338A.237.237,0,0,1,561.4,314.231Z" transform="translate(-537.068 -301.456)" fill="#e51937"/>
          <path id="Path_1733" data-name="Path 1733" d="M72.734,322.183c.19-.092.383.13.345.316a.172.172,0,0,1-.238.152C72.663,322.59,72.568,322.3,72.734,322.183Z" transform="translate(-69.758 -309.062)" fill="#e51937"/>
          <path id="Path_1734" data-name="Path 1734" d="M526.586,322.483c-.255-.128-.051-.551.21-.495A.28.28,0,0,1,526.586,322.483Z" transform="translate(-503.792 -308.891)" fill="#e51937"/>
          <path id="Path_1735" data-name="Path 1735" d="M105.325,327.339c.269-.061.472.266.406.506a.243.243,0,0,1-.295.2C105.13,327.989,105.006,327.459,105.325,327.339Z" transform="translate(-100.832 -314.006)" fill="#e51937"/>
          <path id="Path_1736" data-name="Path 1736" d="M490.482,327.283a.245.245,0,0,1,.3.134.438.438,0,0,1-.209.552.253.253,0,0,1-.286-.054A.426.426,0,0,1,490.482,327.283Z" transform="translate(-469.118 -313.946)" fill="#e51937"/>
          <path id="Path_1737" data-name="Path 1737" d="M138.7,331.777c.208-.092.417.1.477.288s.022.518-.222.569C138.516,332.694,138.308,331.966,138.7,331.777Z" transform="translate(-132.73 -318.235)" fill="#e51937"/>
          <path id="Path_1738" data-name="Path 1738" d="M454.588,331.737c.214-.084.417.134.4.342.029.264-.2.6-.492.514A.489.489,0,0,1,454.588,331.737Z" transform="translate(-434.753 -318.202)" fill="#e51937"/>
          <path id="Path_1739" data-name="Path 1739" d="M289.333,333a.589.589,0,0,1,.652.213,1.127,1.127,0,0,1,.122,1.112.682.682,0,0,1-.575.455.637.637,0,0,1-.572-.367,1.133,1.133,0,0,1,.076-1.2A.638.638,0,0,1,289.333,333Z" transform="translate(-276.511 -319.401)" fill="#e51937"/>
          <path id="Path_1740" data-name="Path 1740" d="M172.148,334.687c.282-.136.562.147.6.416.063.26-.079.636-.392.621A.589.589,0,0,1,172.148,334.687Z" transform="translate(-164.695 -321.007)" fill="#e51937"/>
          <path id="Path_1741" data-name="Path 1741" d="M243.613,335.257a.546.546,0,0,1,.6.31.952.952,0,0,1-.1,1.056.475.475,0,0,1-.629.065.931.931,0,0,1-.3-.945A.634.634,0,0,1,243.613,335.257Z" transform="translate(-232.843 -321.57)" fill="#e51937"/>
          <path id="Path_1742" data-name="Path 1742" d="M339.728,335.28a.5.5,0,0,1,.545.235.958.958,0,0,1-.1,1.119.485.485,0,0,1-.6.107A.861.861,0,0,1,339.728,335.28Z" transform="translate(-324.726 -321.593)" fill="#e51937"/>
          <path id="Path_1743" data-name="Path 1743" d="M418.2,334.738a.344.344,0,0,1,.435.08.629.629,0,0,1-.184.909.332.332,0,0,1-.417-.094A.63.63,0,0,1,418.2,334.738Z" transform="translate(-399.968 -321.048)" fill="#e51937"/>
          <path id="Path_1744" data-name="Path 1744" d="M205.76,335.885a.5.5,0,0,1,.586.35.744.744,0,0,1-.154.824.409.409,0,0,1-.527-.013.792.792,0,0,1-.226-.78A.518.518,0,0,1,205.76,335.885Z" transform="translate(-196.739 -322.17)" fill="#e51937"/>
          <path id="Path_1745" data-name="Path 1745" d="M381.349,335.932a.425.425,0,0,1,.523.177.78.78,0,0,1-.173.991.411.411,0,0,1-.551-.053A.747.747,0,0,1,381.349,335.932Z" transform="translate(-364.649 -322.203)" fill="#e51937"/>
        </g>
      </g>
    </g>
  </g>
</svg>
