<svg xmlns="http://www.w3.org/2000/svg" width="26.2" height="18.2" viewBox="0 0 26.2 18.2">
  <g id="email" transform="translate(0.1 0.1)">
    <g id="Group_2444" data-name="Group 2444">
      <path id="Path_1448" data-name="Path 1448" d="M23.715,61H2.285A2.192,2.192,0,0,0,0,63.077V76.923A2.192,2.192,0,0,0,2.285,79h21.43A2.192,2.192,0,0,0,26,76.923V63.077A2.192,2.192,0,0,0,23.715,61ZM23.4,62.385,13.048,71.792,2.608,62.385ZM1.523,76.636V63.357L8.86,69.968Zm1.077.979,7.341-6.672,2.572,2.318a.817.817,0,0,0,1.075,0l2.508-2.28,7.3,6.636Zm21.876-.979L17.175,70l7.3-6.636Z" transform="translate(0 -61)" fill="#3d3d3d" stroke="#3d3d3d" stroke-width="0.2"/>
    </g>
  </g>
</svg>
