<?xml version="1.0" encoding="utf-8"?>
<!-- Generator: Adobe Illustrator 24.1.1, SVG Export Plug-In . SVG Version: 6.00 Build 0)  -->
<svg version="1.1" id="Layer_1" xmlns="http://www.w3.org/2000/svg" xmlns:xlink="http://www.w3.org/1999/xlink" x="0px" y="0px"
	 viewBox="0 0 403.6 206.4" style="enable-background:new 0 0 403.6 206.4;" xml:space="preserve">
<style type="text/css">
	.expand-alt-svg{opacity:0.4;}
</style>
<path d="M396.6,86.3L317.4,7.1c-15.1-15.1-41-4.4-41,17l1.4,45.2h-51.2c-8.3,0-15,6.7-15,15v37.9c0,8.3,6.7,15,15,15h51.2l-1.4,45.3
	c0,21.4,25.8,32,41,16.9l79.2-79.2C405.9,110.8,406,95.7,396.6,86.3z"/>
<path class="expand-alt-svg" d="M7,120.2l79.2,79.2c15.1,15.1,41,4.4,41-17l-1.4-45.2H177c8.3,0,15-6.7,15-15V84.3c0-8.3-6.7-15-15-15h-51.2
	l1.4-45.3c0-21.4-25.8-32-41-16.9L7,86.3C-2.3,95.6-2.3,110.8,7,120.2z"/>
</svg>
