<svg xmlns="http://www.w3.org/2000/svg" width="23.996" height="20.734" viewBox="0 0 23.996 20.734">
  <g id="Group_2664" data-name="Group 2664" transform="translate(-1396.005 -89.136)">
    <path id="Path_1549" data-name="Path 1549" d="M-1840,16406.9a10.46,10.46,0,0,1-4.578-1.135l1.241-1.24a8.577,8.577,0,0,0,3.337.721c4.834,0,9.03-4.855,10.2-6.344a22.46,22.46,0,0,0-3.984-3.934l1.168-1.168a23.789,23.789,0,0,1,4.464,4.611.857.857,0,0,1,0,.979,23.026,23.026,0,0,1-3.556,3.869,17.146,17.146,0,0,1-3.718,2.51,10.462,10.462,0,0,1-4.574,1.129Zm-7.2-2.76h0a23.234,23.234,0,0,1-4.644-4.748.867.867,0,0,1,0-.977,23.5,23.5,0,0,1,3.557-3.869c2.783-2.418,5.573-3.645,8.292-3.645a10.54,10.54,0,0,1,4.8,1.244l-1.234,1.232a8.72,8.72,0,0,0-3.564-.82c-4.834,0-9.03,4.857-10.2,6.346a22.259,22.259,0,0,0,4.172,4.066l-1.172,1.17Zm7.2-.486a4.687,4.687,0,0,1-2.019-.447l1.234-1.234a3.225,3.225,0,0,0,.785.1,3.17,3.17,0,0,0,3.167-3.17,3.172,3.172,0,0,0-.1-.783l1.232-1.234a4.716,4.716,0,0,1,.452,2.018,4.758,4.758,0,0,1-4.751,4.7Zm-4.2-2.52h0a4.759,4.759,0,0,1-.556-2.23,4.758,4.758,0,0,1,4.752-4.754,4.735,4.735,0,0,1,2.232.561l-1.2,1.2a3.2,3.2,0,0,0-1.033-.172,3.17,3.17,0,0,0-3.167,3.166,3.187,3.187,0,0,0,.172,1.035l-1.2,1.2Z" transform="translate(3248 -16299.863)" fill="#28529f"/>
    <path id="Path_1550" data-name="Path 1550" d="M.792,0H26.944a.793.793,0,0,1,0,1.585H.792A.793.793,0,1,1,.792,0Z" transform="translate(1397.29 108.749) rotate(-45)" fill="#28529f"/>
  </g>
</svg>
