<svg xmlns="http://www.w3.org/2000/svg" width="24" height="16" viewBox="0 0 24 16">
  <g id="eye" transform="translate(0)">
    <g id="Group_2622" data-name="Group 2622">
      <path id="Path_1524" data-name="Path 1524" d="M23.847,100.347c-.214-.307-5.323-7.512-11.848-7.512S.366,100.04.152,100.346a.859.859,0,0,0,0,.977c.214.307,5.323,7.512,11.848,7.512s11.633-7.205,11.848-7.511a.858.858,0,0,0,0-.977ZM12,107.18c-4.806,0-8.969-4.782-10.2-6.345C3.03,99.27,7.184,94.49,12,94.49s8.968,4.781,10.2,6.345C20.97,102.4,16.816,107.18,12,107.18Z" transform="translate(0 -92.835)" fill="#28529f"/>
    </g>
    <g id="Group_2623" data-name="Group 2623" transform="translate(7.249 3.249)">
      <path id="Path_1525" data-name="Path 1525" d="M159.473,154.725a4.751,4.751,0,1,0,4.751,4.751A4.751,4.751,0,0,0,159.473,154.725Zm0,7.919a3.167,3.167,0,1,1,3.167-3.167,3.167,3.167,0,0,1-3.167,3.167Z" transform="translate(-154.722 -154.725)" fill="#28529f"/>
    </g>
  </g>
</svg>
