<svg xmlns="http://www.w3.org/2000/svg" width="18.916" height="20.678" viewBox="0 0 18.916 20.678">
  <g id="fuel" transform="translate(-8.935 0)">
    <path id="Path_1597" data-name="Path 1597" d="M27.529.13A.739.739,0,0,0,26.5.322L24.869,2.708l-.008.013-.541.827a3.643,3.643,0,0,0-.6,1.99l-.029,10.424a.31.31,0,0,1-.31.309h-.022a.31.31,0,0,1-.309-.311l.017-5.941a2.2,2.2,0,0,0-2.113-2.2l.012-4.24a1.955,1.955,0,0,0-1.95-1.96L10.93,1.6a1.958,1.958,0,0,0-1.955,1.95l-.04,14.391a1.431,1.431,0,0,0,1.113,1.4l0,.578a.739.739,0,0,0,.737.741l8.28.023h0a.739.739,0,0,0,.739-.737l0-.578a1.432,1.432,0,0,0,1.121-1.391l.024-8.67a.714.714,0,0,1,.639.712l-.017,5.941a1.788,1.788,0,0,0,1.784,1.793h.026a1.791,1.791,0,0,0,1.788-1.783L25.2,5.541a2.171,2.171,0,0,1,.066-.522,1.542,1.542,0,0,0,.831.246h0a1.551,1.551,0,0,0,.786-2.89l.834-1.218A.739.739,0,0,0,27.529.13Zm-9.258,4.2-.009,3.154-6.571-.018L11.7,4.307Z" transform="translate(0)" fill="#707070"/>
    <circle id="Ellipse_630" data-name="Ellipse 630" cx="0.813" cy="0.813" r="0.813" transform="translate(25.289 2.899)" fill="#707070"/>
  </g>
</svg>
