<svg xmlns="http://www.w3.org/2000/svg" width="16" height="16" viewBox="0 0 16 16" class="a">
  <g id="Group_2811" data-name="Group 2811" transform="translate(0)">
    <circle id="Ellipse_342" data-name="Ellipse 342" cx="2.512" cy="2.512" r="2.512" transform="translate(5.487 5.487)" fill="#606060"/>
    <path id="Path_863" data-name="Path 863" d="M195.44-43.432l-1.609-.317a5.977,5.977,0,0,0-.472-1.136l.9-1.342a.694.694,0,0,0-.087-.876L193.1-48.167a.694.694,0,0,0-.876-.087l-1.343.895a6.011,6.011,0,0,0-1.135-.472l-.317-1.609a.694.694,0,0,0-.681-.56h-1.5a.694.694,0,0,0-.681.56l-.317,1.609a5.977,5.977,0,0,0-1.136.472l-1.342-.9a.694.694,0,0,0-.876.087L181.833-47.1a.694.694,0,0,0-.087.876l.895,1.342a6.017,6.017,0,0,0-.472,1.136l-1.609.317a.694.694,0,0,0-.56.681v1.5a.694.694,0,0,0,.56.681l1.609.317a6,6,0,0,0,.472,1.136l-.9,1.342a.694.694,0,0,0,.087.876l1.064,1.064a.694.694,0,0,0,.876.087l1.342-.895a6.016,6.016,0,0,0,1.136.472l.317,1.609a.694.694,0,0,0,.681.56h1.5a.694.694,0,0,0,.681-.56l.317-1.609a5.977,5.977,0,0,0,1.136-.472l1.342.9a.694.694,0,0,0,.876-.087l1.064-1.064a.694.694,0,0,0,.087-.876l-.895-1.343a6.01,6.01,0,0,0,.472-1.135l1.609-.317a.694.694,0,0,0,.56-.681v-1.5A.694.694,0,0,0,195.44-43.432Zm-4.277,2.324a3.236,3.236,0,0,1-2.271,2.271,3.293,3.293,0,0,1-4.054-4.054,3.236,3.236,0,0,1,2.271-2.271A3.292,3.292,0,0,1,191.163-41.108Z" transform="translate(-180 50)" fill="#606060"/>
  </g>
</svg>
