<svg xmlns="http://www.w3.org/2000/svg" xmlns:xlink="http://www.w3.org/1999/xlink" width="17.997" height="24.004" viewBox="0 0 17.997 24.004">
  <defs>
    <clipPath id="clip-path">
      <rect width="17.997" height="24.004" fill="none"/>
    </clipPath>
  </defs>
  <g id="refresh" clip-path="url(#clip-path)">
    <g id="refresh-2" data-name="refresh" transform="translate(-54.642)">
      <g id="Group_2624" data-name="Group 2624" transform="translate(54.637)">
        <path id="Path_1526" data-name="Path 1526" d="M54.7,12.84A9.464,9.464,0,0,1,55,9.21a8.9,8.9,0,0,1,8.369-6.586V.162a.17.17,0,0,1,.273-.127l4.887,3.723a.159.159,0,0,1,0,.249L63.641,7.73a.169.169,0,0,1-.273-.127V5.145A6.4,6.4,0,0,0,57.58,9.21a6.75,6.75,0,0,0,.9,6.679,1.291,1.291,0,0,1-.23,1.811,1.2,1.2,0,0,1-1.687-.244A9.21,9.21,0,0,1,54.7,12.84ZM68.806,8.111A6.665,6.665,0,0,1,70.2,11.888a6.8,6.8,0,0,1-.5,2.9,6.4,6.4,0,0,1-5.787,4.065V16.4a.17.17,0,0,0-.273-.127L58.758,20a.159.159,0,0,0,0,.249l4.882,3.723a.169.169,0,0,0,.273-.127V21.376a8.888,8.888,0,0,0,8.369-6.586,9.557,9.557,0,0,0,.3-3.63,9.163,9.163,0,0,0-1.861-4.612A1.2,1.2,0,0,0,69.032,6.3,1.3,1.3,0,0,0,68.806,8.111Z" transform="translate(-54.637)" fill="#28529f"/>
      </g>
    </g>
  </g>
</svg>
