<svg xmlns="http://www.w3.org/2000/svg" width="21.015" height="19.667" viewBox="0 0 21.015 19.667">
  <g id="Group_8545" data-name="Group 8545" transform="translate(-591.325 -344.659)">
    <g id="Group_3290" data-name="Group 3290" transform="translate(447.525 120.859)">
      <path id="Path_1428" data-name="Path 1428" d="M17.6,6.194h-.564V2.02A3.023,3.023,0,0,0,14.012-1H6.6a3.023,3.023,0,0,0-3.02,3.02V6.194H3.02A3.023,3.023,0,0,0,0,9.214v3.832a3.023,3.023,0,0,0,3.02,3.02h.564v.39A1.814,1.814,0,0,0,5.4,18.267h9.824a1.814,1.814,0,0,0,1.812-1.812v-.39H17.6a3.023,3.023,0,0,0,3.02-3.02V9.214A3.023,3.023,0,0,0,17.6,6.194ZM4.791,2.02A1.814,1.814,0,0,1,6.6.208h7.409A1.814,1.814,0,0,1,15.824,2.02V6.194H4.791ZM15.825,16.456a.6.6,0,0,1-.6.6H5.4a.6.6,0,0,1-.6-.6V12.844H15.824Zm3.583-3.41A1.814,1.814,0,0,1,17.6,14.857h-.564V12.844h.362a.6.6,0,0,0,0-1.208H3.221a.6.6,0,0,0,0,1.208h.362v2.013H3.02a1.814,1.814,0,0,1-1.812-1.812V9.214A1.814,1.814,0,0,1,3.02,7.4H17.6a1.814,1.814,0,0,1,1.812,1.812Z" transform="translate(144 225)" fill="#919191" stroke="#919191" stroke-width="0.4"/>
      <path id="Path_1431" data-name="Path 1431" d="M67.537,193H65.6a.6.6,0,0,0,0,1.208h1.933a.6.6,0,0,0,0-1.208Z" transform="translate(81.617 40.771)" fill="#919191" stroke="#919191" stroke-width="0.4"/>
    </g>
  </g>
</svg>
