<svg xmlns="http://www.w3.org/2000/svg" width="18" height="18" viewBox="0 0 18 18">
  <defs>
    <style>
      .cls-1 {
        fill: #919191;
      }
    </style>
  </defs>
  <path id="Path_8057" data-name="Path 8057" class="cls-1" d="M316.084,204.695a4.923,4.923,0,0,1,.342,6.569c-.22.271-.1.136-2.982,3.019a4.914,4.914,0,0,1-7.009-6.889l.061-.061c1.15-1.15,1.819-1.821,2.225-2.227a.421.421,0,0,1,.719.288,6.137,6.137,0,0,0,.167,1.328.419.419,0,0,1-.112.393l-1.609,1.608a2.948,2.948,0,0,0,4.169,4.17h0l2.639-2.64a2.951,2.951,0,0,0-.8-4.739.421.421,0,0,1-.231-.433,1.819,1.819,0,0,1,.52-1.067l.154-.153a.416.416,0,0,1,.482-.081,4.891,4.891,0,0,1,1.265.915Zm5.5-5.5a4.911,4.911,0,0,0-6.947,0h0c-2.883,2.884-2.761,2.749-2.981,3.02a4.914,4.914,0,0,0,1.607,7.483.418.418,0,0,0,.482-.08l.154-.154a1.813,1.813,0,0,0,.52-1.067.421.421,0,0,0-.231-.433,2.95,2.95,0,0,1-1.366-3.943,2.986,2.986,0,0,1,.567-.8l2.639-2.64a2.948,2.948,0,0,1,4.169,4.17l-1.609,1.608a.419.419,0,0,0-.112.393,6.137,6.137,0,0,1,.167,1.328.42.42,0,0,0,.719.288c.406-.405,1.075-1.077,2.225-2.227a4.912,4.912,0,0,0,0-6.947l0,0Z" transform="translate(-305.027 -197.753)"/>
</svg>
