<svg xmlns="http://www.w3.org/2000/svg" width="16" height="16" viewBox="0 0 16 16">
  <g id="align-left">
    <g id="Group_2872" data-name="Group 2872" transform="translate(4 3.6)">
      <g id="Group_2871" data-name="Group 2871">
        <path id="Path_1600" data-name="Path 1600" d="M11.242,118H.632a.822.822,0,0,0,0,1.6h10.61a.822.822,0,0,0,0-1.6Z" transform="translate(0 -118)" fill="#6C6C6C"/>
      </g>
    </g>
    <g id="Group_2874" data-name="Group 2874">
      <g id="Group_2873" data-name="Group 2873">
        <path id="Path_1601" data-name="Path 1601" d="M15.375,0H.625A.729.729,0,0,0,0,.8a.729.729,0,0,0,.625.8h14.75A.729.729,0,0,0,16,.8.729.729,0,0,0,15.375,0Z" fill="#6C6C6C"/>
      </g>
    </g>
    <g id="Group_2876" data-name="Group 2876" transform="translate(0 14.4)">
      <g id="Group_2875" data-name="Group 2875">
        <path id="Path_1602" data-name="Path 1602" d="M15.375,472H.625a.825.825,0,0,0,0,1.6h14.75a.825.825,0,0,0,0-1.6Z" transform="translate(0 -472)" fill="#6C6C6C"/>
      </g>
    </g>
    <g id="Group_2878" data-name="Group 2878" transform="translate(4.001 10.8)">
      <g id="Group_2877" data-name="Group 2877">
        <path id="Path_1603" data-name="Path 1603" d="M11.242,354H.632a.822.822,0,0,0,0,1.6h10.61a.822.822,0,0,0,0-1.6Z" transform="translate(0 -354)" fill="#6C6C6C"/>
      </g>
    </g>
    <g id="Group_2880" data-name="Group 2880" transform="translate(0 7.2)">
      <g id="Group_2879" data-name="Group 2879">
        <path id="Path_1604" data-name="Path 1604" d="M15.375,236H.625a.825.825,0,0,0,0,1.6h14.75a.825.825,0,0,0,0-1.6Z" transform="translate(0 -236)" fill="#6C6C6C"/>
      </g>
    </g>
  </g>
</svg>
