<svg id="icon-tag" xmlns="http://www.w3.org/2000/svg" width="15.999" height="15.999" viewBox="0 0 15.999 15.999">
  <g id="Group_2716" data-name="Group 2716" transform="translate(0)">
    <path id="Path_1568" data-name="Path 1568" d="M.576,0H6.861a.571.571,0,0,1,.4.167l8.571,8.571a.571.571,0,0,1,0,.808h0L9.551,15.832a.571.571,0,0,1-.808,0L.172,7.261A.571.571,0,0,1,0,6.857V.571A.571.571,0,0,1,.576,0ZM4,5.142A1.143,1.143,0,1,0,2.861,4,1.143,1.143,0,0,0,4,5.142Z" transform="translate(-0.004)" fill="#55b29c"/>
  </g>
</svg>
