<svg xmlns="http://www.w3.org/2000/svg" width="16" height="16" viewBox="0 0 16 16">
  <path id="B" d="M14.354-9.166A4.866,4.866,0,0,1,16.58-7.634a3.808,3.808,0,0,1,.788,2.423,3.676,3.676,0,0,1-1.762,3.257A9.331,9.331,0,0,1,10.5-.8H1.368v-16H10.04a8.654,8.654,0,0,1,4.9,1.143,3.526,3.526,0,0,1,1.658,3.04,3.663,3.663,0,0,1-.568,2.011A4.054,4.054,0,0,1,14.354-9.166ZM6.748-13.029v2.377H9.3q1.786,0,1.786-1.189T9.3-13.029ZM10.04-4.571q1.809,0,1.809-1.257T10.04-7.086H6.748v2.514Z" transform="translate(-1.368 16.8)" fill="#6C6C6C"/>
</svg>
