<?xml version="1.0" encoding="utf-8"?>
<!-- Generator: Adobe Illustrator 24.0.0, SVG Export Plug-In . SVG Version: 6.00 Build 0)  -->
<svg version="1.1" id="Component_366_1" xmlns="http://www.w3.org/2000/svg" xmlns:xlink="http://www.w3.org/1999/xlink" x="0px"
	 y="0px" width="20" height="20" viewBox="0 0 16 16" style="enable-background:new 0 0 16 16;" xml:space="preserve">
<style type="text/css">
	.st0{fill:#606060;}
</style>
<path id="Path_919" class="st0" d="M8,0C3.6,0,0,3.6,0,8s3.6,8,8,8s8-3.6,8-8S12.4,0,8,0z M9.2,12.6c0,0.7-0.6,1.2-1.2,1.2l0,0
	c-0.7,0-1.2-0.6-1.2-1.2l0,0V7.5c0-0.7,0.6-1.2,1.2-1.2l0,0c0.7,0,1.2,0.6,1.2,1.2l0,0V12.6z M8,5.2c-0.8,0-1.4-0.6-1.4-1.4l0,0
	C6.6,3,7.2,2.3,8,2.3c0,0,0,0,0,0c0.8,0,1.4,0.6,1.4,1.4l0,0C9.4,4.5,8.8,5.2,8,5.2C8,5.2,8,5.2,8,5.2L8,5.2z"/>
</svg>
