<?xml version="1.0" encoding="utf-8"?>
<!-- Generator: Adobe Illustrator 24.2.3, SVG Export Plug-In . SVG Version: 6.00 Build 0)  -->
<svg version="1.1" id="Layer_1" xmlns="http://www.w3.org/2000/svg" xmlns:xlink="http://www.w3.org/1999/xlink" x="0px" y="0px"
	 viewBox="0 0 36 36" style="enable-background:new 0 0 36 36;" xml:space="preserve">
<style type="text/css">
	.a{fill:#B7B7B7;}
</style>
<path id="Info" class="a" d="M18,0C8.1,0,0,8.1,0,18s8.1,18,18,18s18-8.1,18-18S27.9,0,18,0z M20.8,28.2c0,1.5-1.2,2.8-2.8,2.8
	c-1.5,0-2.8-1.2-2.8-2.8V16.8c0-1.5,1.2-2.8,2.8-2.8s2.8,1.2,2.8,2.8V28.2z M18,11.6c-1.8,0-3.2-1.4-3.2-3.2l0,0
	c0-1.8,1.4-3.2,3.2-3.2c0,0,0,0,0,0c1.8,0,3.2,1.4,3.2,3.2c0,0,0,0,0,0C21.2,10.2,19.8,11.6,18,11.6C18,11.6,18,11.6,18,11.6
	L18,11.6z"/>
</svg>
