<?xml version="1.0" encoding="utf-8"?>
<!-- Generator: Adobe Illustrator 23.1.0, SVG Export Plug-In . SVG Version: 6.00 Build 0)  -->
<svg version="1.1" id="Layer_1" xmlns="http://www.w3.org/2000/svg" xmlns:xlink="http://www.w3.org/1999/xlink" x="0px" y="0px"
	 viewBox="0 0 27.5 28.9" style="enable-background:new 0 0 27.5 28.9;" xml:space="preserve">
<style type="text/css">
	.st0{opacity:0.8;}
	.st1{fill:#28529F;}
</style>
<g transform="matrix(0.966, 0.259, -0.259, 0.966, -19.665, -23.987)" class="st0">
	<path class="st1" d="M44.3,17.7c2-1.6,4.8-1.6,6.8,0c1,0.8,1.7,1.9,1.9,3.1c0.3,1.2,0.2,2.5-0.3,3.6c-0.6,1.4-1.7,2.5-3.1,3
		c-1.5,0.5-3.1,0.4-4.5-0.4c-1.9,1.9-3.8,3.9-5.7,5.8c0.6,0.6,1.1,1.1,1.7,1.7c0.3,0.3,0.3,0.8,0,1.1c-0.4,0.4-0.8,0.8-1.1,1.2
		c-0.3,0.3-0.7,0.3-1,0.1c-0.6-0.6-1.2-1.2-1.7-1.8l-1.1,1.1c0.5,0.5,1,1,1.5,1.5c0.1,0.1,0.3,0.3,0.3,0.5c0.1,0.3,0,0.6-0.2,0.9
		c-0.4,0.4-0.8,0.8-1.1,1.2c-0.3,0.3-0.8,0.3-1.1,0c-0.6-0.6-1.1-1.1-1.7-1.7c-0.2,0.2-0.5,0.4-0.8,0.4c-0.6,0.1-1.2-0.1-1.5-0.6
		c-0.5-0.6-0.4-1.5,0.1-2.1c3.8-3.9,7.5-7.7,11.3-11.5c-0.6-1.2-0.8-2.7-0.5-4C42.7,19.5,43.4,18.4,44.3,17.7 M47.4,19.7
		c-0.4,0.1-0.8,0.2-1.1,0.5c-1.1,0.8-1.2,2.4-0.4,3.4c0,0,0.1,0.1,0.1,0.1c0.9,0.9,2.3,1,3.3,0.2c0,0,0,0,0.1-0.1
		c1-0.9,1-2.5,0.1-3.4c-0.1-0.1-0.1-0.1-0.2-0.2C48.7,19.8,48,19.6,47.4,19.7L47.4,19.7z"/>
</g>
</svg>
