<svg xmlns="http://www.w3.org/2000/svg" width="13.008" height="14.191" viewBox="0 0 13.008 14.191">
  <path id="Path_1168" data-name="Path 1168" d="M7.762.708a3.192,3.192,0,0,1,4,0,3.325,3.325,0,0,1,1.15,1.817,3.433,3.433,0,0,1-.184,2.152A3.261,3.261,0,0,1,10.87,6.443a3.205,3.205,0,0,1-2.633-.207L4.862,9.691,5.847,10.7a.49.49,0,0,1,0,.667l-.667.683a.465.465,0,0,1-.6.039c-.353-.34-.687-.7-1.034-1.049L2.9,11.7q.44.453.883.9a.726.726,0,0,1,.2.266.49.49,0,0,1-.107.508c-.222.228-.444.456-.667.683a.463.463,0,0,1-.642,0l-.984-1.007a.946.946,0,0,1-.484.255.924.924,0,0,1-.915-.36.983.983,0,0,1,.068-1.231Q3.584,8.3,6.919,4.887A3.429,3.429,0,0,1,6.625,2.5,3.288,3.288,0,0,1,7.762.708M9.548,1.922a1.375,1.375,0,0,0-.626.276,1.444,1.444,0,0,0-.17,2.09,1.364,1.364,0,0,0,1.96.067,1.441,1.441,0,0,0-.067-2.127A1.362,1.362,0,0,0,9.548,1.922Z" transform="translate(0 0)" fill="#606060"/>
</svg>
