<svg xmlns="http://www.w3.org/2000/svg" width="18" height="18" viewBox="0 0 18 18">
  <defs>
    <style>
      .add-1 {
        fill: #606060;
        opacity: 0.7;
      }
    </style>
  </defs>
  <path id="Path_1943" data-name="Path 1943" class="add-1" d="M9,0a9,9,0,1,0,9,9A9,9,0,0,0,9,0Zm3.694,10.225H10.225v2.469a1.225,1.225,0,0,1-2.451,0V10.225H5.306A1.225,1.225,0,0,1,4.08,9h0A1.225,1.225,0,0,1,5.306,7.775H7.775V5.306a1.225,1.225,0,0,1,2.451,0V7.775h2.469a1.225,1.225,0,0,1,0,2.451Z"/>
</svg>
