<svg id="Map_Legend" data-name="Map Legend" xmlns="http://www.w3.org/2000/svg" height="26" viewBox="0 0 28 26">
  <g id="Group_3070" data-name="Group 3070" transform="translate(0 0)">
    <path id="Map_Legend-2" data-name="Map Legend" d="M3.467,26a3.467,3.467,0,0,1,0-6.934h.067a3.467,3.467,0,1,1,0,6.934Zm6.579-1.733a1.734,1.734,0,1,1,0-3.467H26.267a1.733,1.733,0,1,1,0,3.467Zm-6.579-7.8a3.467,3.467,0,0,1,0-6.934h.067a3.467,3.467,0,1,1,0,6.934Zm6.579-1.733a1.733,1.733,0,0,1,0-3.466h12.72a1.733,1.733,0,1,1,0,3.466Zm-6.579-7.8A3.467,3.467,0,1,1,3.467,0h.067a3.467,3.467,0,1,1,0,6.934ZM10.046,5.2a1.734,1.734,0,1,1,0-3.467H26.267a1.734,1.734,0,0,1,0,3.467Z" fill="#606060"/>
  </g>
</svg>
