<svg id="Like" xmlns="http://www.w3.org/2000/svg" width="25" height="23.999" viewBox="0 0 25 23.999">
  <g id="Like-2" data-name="Like" transform="translate(-1356.958 -243)" opacity="0.7">
    <g id="Group_3407" data-name="Group 3407" transform="translate(1374.652 253.43)">
      <g id="Group_3406" data-name="Group 3406" transform="translate(0)">
        <path id="Path_1822" data-name="Path 1822" d="M4.7,224a2.613,2.613,0,0,1,2.609,2.61v8.351A2.613,2.613,0,0,1,4.7,237.57H1.566A2.59,2.59,0,0,1,0,237.041V224Z" transform="translate(0 -224)" fill="#b7b7b7"/>
      </g>
    </g>
    <g id="Group_3409" data-name="Group 3409" transform="translate(1356.958 243)">
      <g id="Group_3408" data-name="Group 3408">
        <path id="Path_1823" data-name="Path 1823" d="M170.667,25.015a2.314,2.314,0,0,1,.679-1.642,2.59,2.59,0,0,1-.668-1.992,2.7,2.7,0,0,1,2.722-2.366h6.447a15,15,0,0,1-.831-4.174c0-2.263,1.924-4.174,3.131-4.174a3.283,3.283,0,0,1,1.892.635.524.524,0,0,1,.2.408v3.538l3.006,6.51.125.064V33.006a6.839,6.839,0,0,1-2.609.617h-9.58a2.4,2.4,0,0,1-2.365-1.823A2.347,2.347,0,0,1,173,30.233a2.337,2.337,0,0,1-1.045-3.131A2.336,2.336,0,0,1,170.667,25.015Z" transform="translate(-170.667 -10.667)" fill="#b7b7b7"/>
      </g>
    </g>
  </g>
</svg>
