<svg id="url" xmlns="http://www.w3.org/2000/svg" width="16" height="15.963" viewBox="0 0 16 15.963">
  <path id="Path_1566" data-name="Path 1566" d="M152.309,4.593a4.381,4.381,0,0,0,.685,6.611.181.181,0,0,0,.227-.022,7.269,7.269,0,0,0,1.174-1.419.171.171,0,0,0-.067-.239,2.192,2.192,0,0,1-.84-.865h0a2.11,2.11,0,0,1-.179-1.441h0A4.668,4.668,0,0,1,154.676,5.4h0l2-2.042a2.052,2.052,0,0,1,2.915-.015,2.078,2.078,0,0,1,.03,2.929l-1.212,1.246a.213.213,0,0,0-.048.218,5.735,5.735,0,0,1,.161,2.812.025.025,0,0,0,.042.022l2.579-2.633a4.325,4.325,0,0,0-6.178-6.053l-2.643,2.7-.01.011Z" transform="translate(-146.368 -0.588)" fill="#606060"/>
  <path id="Path_1567" data-name="Path 1567" d="M10.739,176.448h0l0,0a4.424,4.424,0,0,0,.383-3.143h0a4.342,4.342,0,0,0-1.75-2.5.239.239,0,0,0-.265.012,4.2,4.2,0,0,0-1.161,1.4.194.194,0,0,0,.077.254,2.17,2.17,0,0,1,.831.848h0a1.987,1.987,0,0,1,.21,1.3h0c-.093.714-.814,1.369-1.388,1.96h0l-1.99,2.031a2.071,2.071,0,0,1-2.959-2.9l1.216-1.25A.212.212,0,0,0,4,174.254a6.044,6.044,0,0,1-.173-2.8.025.025,0,0,0-.042-.022L1.24,174.021a4.391,4.391,0,0,0,.031,6.147,4.337,4.337,0,0,0,6.116-.062c.578-.647,3.054-2.939,3.352-3.658Z" transform="translate(0 -165.435)" fill="#606060"/>
</svg>
