<svg xmlns="http://www.w3.org/2000/svg" width="22" height="18" viewBox="0 0 22 18">
	<style type="text/css">
		.p1{ animation: live 1.5s infinite; }
		.p2{ animation: live2 1.5s infinite; animation-delay: 0.2s; }
		@keyframes live {
			0% {opacity: 0}
			15%, 80%{opacity: 1}
			100% {opacity: 0}
		}
		
		@keyframes live2 {
			0% {opacity: 0}
			70%{opacity: 1}
			100% {opacity: 0}
		}
	</style>
  
  <g id="Group_12469" data-name="Group 12469" transform="translate(-669.913 -373.924)">
    <path class="p1" id="Path_10697" data-name="Path 10697" d="M678.97,387.381a5.957,5.957,0,0,1,.185-8.23,1.319,1.319,0,0,0,.057-1.683,1.213,1.213,0,0,0-1.769-.167c-.1.1-.2.2-.3.307a8.559,8.559,0,0,0,.3,11.815,1.219,1.219,0,0,0,.843.345h0a1.23,1.23,0,0,0,.9-.4,1.313,1.313,0,0,0-.055-1.809C679.081,387.5,679.024,387.439,678.97,387.381Z" transform="translate(-1.037 -0.447)" fill="#dadada"/>
    <path class="p2" id="Path_10698" data-name="Path 10698" d="M674.228,389.669a9.565,9.565,0,0,1-.3-13.2c.1-.105.2-.209.3-.307a1.326,1.326,0,0,0,.06-1.83,1.233,1.233,0,0,0-1.795-.039,12.184,12.184,0,0,0-.394,16.838c.128.138.259.274.4.408a1.239,1.239,0,0,0,.863.352,1.133,1.133,0,0,0,.848-.367l.63-.766h-.251A1.32,1.32,0,0,0,674.228,389.669Z" transform="translate(1)" fill="#dadada"/>
    <path class="p2" id="Path_10699" data-name="Path 10699" d="M693.571,374.746c-.139-.152-.282-.3-.454-.466a1.215,1.215,0,0,0-1.746.188,1.325,1.325,0,0,0,.075,1.7,9.564,9.564,0,0,1,.3,13.2c-.1.106-.2.209-.277.289a1.313,1.313,0,0,0-.181,1.8,1.222,1.222,0,0,0,.835.466,1.133,1.133,0,0,0,.132.008,1.2,1.2,0,0,0,.774-.282,1.18,1.18,0,0,0,.121-.114A12.171,12.171,0,0,0,693.571,374.746Z" transform="translate(-4.813 -0.01)" fill="#dadada"/>
    <path class="p1" id="Path_10700" data-name="Path 10700" d="M688.726,377.6c-.1-.1-.2-.206-.3-.307a1.2,1.2,0,0,0-.889-.347,1.215,1.215,0,0,0-.866.4,1.312,1.312,0,0,0,.054,1.811,5.923,5.923,0,0,1,.2,8.177c-.065.071-.132.14-.2.207a1.312,1.312,0,0,0-.056,1.812,1.215,1.215,0,0,0,.866.4h.041a1.209,1.209,0,0,0,.848-.346l0,0A8.56,8.56,0,0,0,688.726,377.6Z" transform="translate(-3.006 -0.44)" fill="#dadada"/>
    <path id="Path_10701" data-name="Path 10701" d="M682.99,381.946a2.137,2.137,0,1,0,2.069,2.136A2.106,2.106,0,0,0,682.99,381.946Z" transform="translate(-2.072 -1.169)" fill="#dadada"/>
  </g>
</svg>
