<svg xmlns="http://www.w3.org/2000/svg" width="12" height="12" viewBox="0 0 12 12">
  <path id="Path_7314" data-name="Path 7314" d="M288.234,366.223a6,6,0,1,0,6,6A6,6,0,0,0,288.234,366.223ZM290.2,371.9h0l-3.436,3.436-1.46.164a.306.306,0,0,1-.338-.27.286.286,0,0,1,0-.068l.164-1.46,3.436-3.436a.154.154,0,0,1,.218,0h0l1.418,1.418A.154.154,0,0,1,290.2,371.9Zm1.13-1.129-.557.557h0a.154.154,0,0,1-.218,0l-1.418-1.418h0a.154.154,0,0,1,0-.218l.557-.557a.616.616,0,0,1,.868,0l.768.769v0S291.567,370.526,291.327,370.766Z" transform="translate(-282.234 -366.223)" fill="#6c6c6c"/>
</svg>
