<svg xmlns="http://www.w3.org/2000/svg" width="14.26" height="19.228" viewBox="0 0 14.26 19.228">
  <defs>
    <style>
      .cls-1 {
        fill: #919191;
      }
    </style>
  </defs>
  <path id="Path_1069" data-name="Path 1069" class="cls-1" d="M6.91,0H7.32a7.083,7.083,0,0,1,4.809,2.045,7.318,7.318,0,0,1,2.086,4.466A7.537,7.537,0,0,1,12.84,11.7c-1.895,2.516-3.83,5-5.711,7.526H7.1a3.053,3.053,0,0,0-.427-.634q-2.591-3.4-5.178-6.8A7.427,7.427,0,0,1,0,7.51V6.738A7.6,7.6,0,0,1,1.99,2.244,7.089,7.089,0,0,1,6.91,0M6.4,3.377A4.21,4.21,0,0,0,3.156,6.5a4.314,4.314,0,0,0,.753,3.655,4.066,4.066,0,0,0,6.464.057,4.273,4.273,0,0,0,.892-3.194A4.228,4.228,0,0,0,9.1,3.806,4.031,4.031,0,0,0,6.4,3.377Z"/>
</svg>
