<?xml version="1.0" encoding="utf-8"?>
<!-- Generator: Adobe Illustrator 24.0.0, SVG Export Plug-In . SVG Version: 6.00 Build 0)  -->
<svg version="1.1" id="Layer_1" xmlns="http://www.w3.org/2000/svg" xmlns:xlink="http://www.w3.org/1999/xlink" x="0px" y="0px" width="28" height="28"
	 viewBox="0 0 23.6 26.2" style="enable-background:new 0 0 23.6 26.2;" xml:space="preserve">
<style type="text/css">
	.st0{fill:#606060;}
</style>
<path id="Path_1104" class="st0" d="M18.4,8.5v-2c0-3.6-2.9-6.6-6.6-6.6S5.2,2.9,5.2,6.6v2C2.3,8.6,0,11,0,14v6.9
	c0,3,2.4,5.4,5.4,5.4h12.8c3,0,5.4-2.4,5.4-5.4V14C23.6,11,21.3,8.6,18.4,8.5z M11.8,2.6c2.2,0,3.9,1.8,3.9,3.9v2H7.9v-2
	C7.9,4.4,9.6,2.6,11.8,2.6L11.8,2.6z M21,20.8c0,1.5-1.3,2.8-2.8,2.8H5.4c-1.5,0-2.8-1.3-2.8-2.8V14c0-1.5,1.3-2.8,2.8-2.8h12.8
	c1.5,0,2.8,1.3,2.8,2.8V20.8z"/>
<path id="Path_1105" class="st0" d="M11.8,13.5c-1.4,0-2.6,1.2-2.6,2.6c0,0.9,0.5,1.8,1.3,2.3V20c0,0.7,0.6,1.3,1.3,1.3
	c0.7,0,1.3-0.6,1.3-1.3c0,0,0,0,0-0.1v-1.7c1.3-0.7,1.7-2.3,1-3.6C13.6,13.9,12.8,13.4,11.8,13.5z"/>
</svg>
