<?xml version="1.0" encoding="utf-8"?>
<!-- Generator: Adobe Illustrator 24.0.0, SVG Export Plug-In . SVG Version: 6.00 Build 0)  -->
<svg version="1.1" id="Layer_1" xmlns="http://www.w3.org/2000/svg" xmlns:xlink="http://www.w3.org/1999/xlink" x="0px" y="0px"
	 viewBox="0 0 721.6 192.8" style="enable-background:new 0 0 721.6 192.8;" xml:space="preserve">
<style type="text/css">
	.st0{fill:#2E5FE4;}
	.st1{fill:#8E8E8E;}
</style>
<g>
	<path class="st0" d="M91.7,69.6h5.1c10.1-11.8,23.5-21.3,38.8-27.5c0.1-2.3-1.5-4.1-3.9-4.1h-19.4c-7,0-15.2,5.7-18.3,12.6l-5.8,13
		C86.8,66.7,88.6,69.6,91.7,69.6z"/>
	<path class="st0" d="M243.2,2.1h-13.7h-56.1h-11.7h-2c-11.9,0-22.1,6.5-28.9,17.2H119c-6.6,0-13.9,5.5-16.2,12.2l-0.4,1.3
		c3.3-1.5,6.8-2.3,10.1-2.3h27.6c4.1,0,6.6,3.5,5.3,7.4c-1,3-2.2,6.2-3.6,9.5l-9.9,22c-1.2,2.6-4,4.5-6.8,4.5l-97.1,0
		c-9.1,0-16.2,5.1-17,12.3l-5.4,45.4c0,0.2,0.1,0.3,0.3,0.3h16.7c2.5,0,4.9-1.1,6.7-2.9c7.9-8.2,19.1-13.3,31.4-13.3
		s23.5,5.1,31.4,13.3c1.8,1.8,4.2,2.9,6.7,2.9h2.3h4h26.6h6.5c6.6,0,13.9-5.5,16.2-12.2l19.5-58c1.7-5.1,3.5-9.8,5-14.2
		c0.9,6.3,0.4,13.7-1.7,21.8l-15.3,59.1c-1.7,6.5-8.2,12.1-14.8,12.7H89.5c-6-9.6-16.7-16-28.9-16s-22.8,6.4-28.9,16h-17H1
		c-0.6,0.6-1,1.4-1,2.3c0,11.6,9.5,21.1,21.1,21.1H27c2.6,16.2,16.6,28.7,33.6,28.7s31.1-12.4,33.6-28.7h113.6h13.7
		c0.9,0,1.7-0.1,2.6-0.2h0.2c1.9,0,3.2-1.7,2.8-3.5c-3.7-16.3-5.7-33.5-5.7-51.2c0-24.2,9.5-61,16-84.5c11.7,0,21.1-9.5,21.1-21.1
		V2.1H243.2z M60.6,176.6c-9.8,0-17.8-8-17.8-17.8c0-9.8,8-17.8,17.8-17.8s17.8,8,17.8,17.8C78.4,168.7,70.5,176.6,60.6,176.6z"/>
</g>
<path d="M321.5,124.9l1.2-5.9h11.7l-9.8,44.2h-11.7l1.3-5.5c-3.8,4.4-8,6.6-13.3,6.6c-10,0-16.8-6.6-16.8-18.3
	c0-13.4,8.3-28.1,23.3-28.1C313.4,118,318.6,120.6,321.5,124.9z M296.2,143.7c0,6.3,4.2,10.3,9.8,10.3c4.1,0,7.8-2.3,10.2-5.3
	l3.4-15.3c-1.9-3-5.7-5.1-10.3-5.1C301.6,128.3,296.2,135.6,296.2,143.7z"/>
<path d="M333.3,156.4l6.5-8.1c2.7,3.1,9.1,7,15.5,7c3.9,0,6.4-2.1,6.4-4.6c0-5.9-22.5-4.5-22.5-17.8c0-7.7,6.4-14.9,18.2-14.9
	c7.5,0,14.6,2.8,18.8,7.1l-6,7.8c-2.1-2.7-7.6-5.8-13-5.8c-4.1,0-6.4,1.8-6.4,4.1c0,5.4,22.5,4.2,22.5,17.7c0,8.4-7,15.5-19.1,15.5
	C346.1,164.4,338.3,161.6,333.3,156.4z"/>
<path d="M375.8,156.4l6.5-8.1c2.7,3.1,9.1,7,15.5,7c3.9,0,6.4-2.1,6.4-4.6c0-5.9-22.5-4.5-22.5-17.8c0-7.7,6.4-14.9,18.2-14.9
	c7.5,0,14.6,2.8,18.8,7.1l-6,7.8c-2.1-2.7-7.6-5.8-13-5.8c-4.1,0-6.4,1.8-6.4,4.1c0,5.4,22.5,4.2,22.5,17.7c0,8.4-7,15.5-19.1,15.5
	C388.5,164.4,380.7,161.6,375.8,156.4z"/>
<path d="M419.7,163.3l9.8-44.2h11.6l-9.8,44.2H419.7z"/>
<path d="M440.1,156.4l6.5-8.1c2.7,3.1,9.1,7,15.5,7c3.9,0,6.4-2.1,6.4-4.6c0-5.9-22.5-4.5-22.5-17.8c0-7.7,6.4-14.9,18.2-14.9
	c7.5,0,14.6,2.8,18.8,7.1l-6,7.8c-2.1-2.7-7.6-5.8-13-5.8c-4.1,0-6.4,1.8-6.4,4.1c0,5.4,22.5,4.2,22.5,17.7c0,8.4-7,15.5-19.1,15.5
	C452.8,164.4,445,161.6,440.1,156.4z"/>
<path d="M510,109.2c-0.9,0-1.8,0-2.7,0c-3.1,0-6-0.2-8.8-0.4l-2.3,10.3h-7.3l-2.3,10.2h7.3l-4.9,22.5c-0.3,1.1-0.4,2.5-0.4,3
	c0,6.6,5.3,9.6,13.2,9.6c2.8,0,5.6-0.7,7.2-1.9l-0.4-9.3c-0.5,0.5-2,0.9-3.2,0.9c-2.9,0-4.3-1.5-4.3-3.8c0-0.5,0-1,0.1-1.6l4.3-19.4
	h9l2.3-10.2h-9L510,109.2z"/>
<g>
	<path class="st1" d="M404.3,94.7l-12.8-29.3h-10.2v29.3h-28.2V1.5h49.7c21.8,0,33.5,14.5,33.5,32c0,16.1-9.4,24.6-16.8,28.2
		l16.9,33H404.3z M407.7,33.4c0-5-4.5-7.3-9.2-7.3h-17.2v14.7h17.2C403.2,40.8,407.7,38.5,407.7,33.4z"/>
	<path class="st1" d="M441.3,56.4V1.5H470v53.9c0,8.9,5.9,16.1,17.5,16.1c11.5,0,17.3-7.1,17.3-16.1V1.5h28.6v54.7
		c0,23.2-14.5,40.1-45.9,40.1S441.3,79.5,441.3,56.4z"/>
	<path class="st1" d="M537,48.2C537,19.4,559.1,0,588.3,0c24.4,0,36.7,14.2,42.3,27.1l-24.3,11.3c-2.4-7.3-9.6-13.5-18-13.5
		c-13.5,0-22.6,10.3-22.6,23.3c0,13,9.1,23.3,22.6,23.3c8.4,0,15.6-6.3,18-13.5l24.3,11.2c-5.4,12.4-17.9,27.2-42.3,27.2
		C559.1,96.4,537,76.8,537,48.2z"/>
	<path class="st1" d="M687.3,94.7l-20.9-32.8l-5.2,7v25.8h-28.2V1.5h28.2v34.9l24.4-34.9h34.5l-35.2,43.3l36.7,49.9H687.3z"/>
	<path class="st1" d="M295,95.3V26.7h-22.1V2.1h72.2v24.6h-21.9v68.6H295z"/>
</g>
</svg>
