<svg xmlns="http://www.w3.org/2000/svg" width="14" viewBox="0 0 13.789 14.5">
  <path id="Logout" d="M1.767,14A1.761,1.761,0,0,1,0,12.25V1.75A1.761,1.761,0,0,1,1.767,0h5.3a.584.584,0,1,1,0,1.167h-5.3a.586.586,0,0,0-.589.583v10.5a.586.586,0,0,0,.589.583h5.3a.584.584,0,1,1,0,1.167ZM8.7,10.912a.58.58,0,0,1,.006-.825l2.559-2.5H4.407a.584.584,0,1,1,0-1.167h6.858l-2.559-2.5A.579.579,0,0,1,8.7,3.088a.593.593,0,0,1,.833-.006l3.581,3.5a.58.58,0,0,1,0,.832l-3.581,3.5a.592.592,0,0,1-.833-.006Z" transform="translate(0.25 0.25)" fill="#606060" stroke="#606060" stroke-width="0.5" opacity="0.7"/>
</svg>
