<?xml version="1.0" encoding="utf-8"?>
<!-- Generator: Adobe Illustrator 24.1.1, SVG Export Plug-In . SVG Version: 6.00 Build 0)  -->
<svg version="1.1" id="Layer_1" xmlns="http://www.w3.org/2000/svg" xmlns:xlink="http://www.w3.org/1999/xlink" x="0px" y="0px"
	 viewBox="0 0 693.9 93" style="enable-background:new 0 0 693.9 93;" xml:space="preserve">
<style type="text/css">
	.st0{fill:#7B7B7B;}
</style>
<g>
	<path d="M498.6,53.6l1.2-5.9h11.7l-9.8,44.2h-11.7l1.3-5.5c-3.8,4.4-8,6.6-13.3,6.6c-10,0-16.8-6.6-16.8-18.3
		c0-13.4,8.3-28.1,23.3-28.1C490.4,46.6,495.6,49.2,498.6,53.6z M473.3,72.3c0,6.3,4.2,10.3,9.8,10.3c4.1,0,7.8-2.3,10.2-5.3
		l3.4-15.3c-1.9-3-5.7-5.1-10.3-5.1C478.7,56.9,473.3,64.2,473.3,72.3z"/>
	<path d="M510.4,85l6.5-8.1c2.7,3.1,9.1,7,15.5,7c3.9,0,6.4-2.1,6.4-4.6c0-5.9-22.5-4.5-22.5-17.8c0-7.7,6.4-14.9,18.2-14.9
		c7.5,0,14.6,2.8,18.8,7.1l-6,7.8c-2.1-2.7-7.6-5.8-13-5.8c-4.1,0-6.4,1.8-6.4,4.1c0,5.4,22.5,4.2,22.5,17.7c0,8.4-7,15.5-19.1,15.5
		C523.1,93,515.3,90.3,510.4,85z"/>
	<path d="M552.8,85l6.5-8.1c2.7,3.1,9.1,7,15.5,7c3.9,0,6.4-2.1,6.4-4.6c0-5.9-22.5-4.5-22.5-17.8c0-7.7,6.4-14.9,18.2-14.9
		c7.5,0,14.6,2.8,18.8,7.1l-6,7.8c-2.1-2.7-7.6-5.8-13-5.8c-4.1,0-6.4,1.8-6.4,4.1c0,5.4,22.5,4.2,22.5,17.7c0,8.4-7,15.5-19.1,15.5
		C565.5,93,557.8,90.3,552.8,85z"/>
	<path d="M596.8,91.9l9.8-44.2h11.6l-9.8,44.2H596.8z"/>
	<path d="M617.1,85l6.5-8.1c2.7,3.1,9.1,7,15.5,7c3.9,0,6.4-2.1,6.4-4.6c0-5.9-22.5-4.5-22.5-17.8c0-7.7,6.4-14.9,18.2-14.9
		c7.5,0,14.6,2.8,18.8,7.1l-6,7.8c-2.1-2.7-7.6-5.8-13-5.8c-4.1,0-6.4,1.8-6.4,4.1c0,5.4,22.5,4.2,22.5,17.7c0,8.4-7,15.5-19.1,15.5
		C629.9,93,622.1,90.3,617.1,85z"/>
	<path d="M687.1,37.8c-0.9,0-1.8,0-2.7,0c-3.1,0-6-0.2-8.8-0.4l-2.3,10.3H666l-2.3,10.2h7.3l-4.9,22.5c-0.3,1.1-0.4,2.5-0.4,3
		c0,6.6,5.3,9.6,13.2,9.6c2.8,0,5.6-0.7,7.2-1.9l-0.4-9.3c-0.5,0.5-2,0.9-3.2,0.9c-2.9,0-4.3-1.5-4.3-3.8c0-0.5,0-1,0.1-1.6
		l4.3-19.4h9l2.3-10.2h-9L687.1,37.8z"/>
</g>
<g>
	<path class="st0" d="M131.4,93l-12.8-29.3h-10.2V93H80.1V0h49.7c21.8,0,33.5,14.5,33.5,31.9c0,16-9.4,24.5-16.8,28.2L163.5,93
		H131.4z M134.7,31.8c0-5-4.5-7.3-9.2-7.3h-17.2v14.6h17.2C130.3,39.2,134.7,36.9,134.7,31.8z"/>
	<path class="st0" d="M168.4,53.8V0H197v52.9c0,8.8,5.9,15.8,17.5,15.8c11.5,0,17.3-7,17.3-15.8V0h28.6v53.7
		c0,22.7-14.5,39.3-45.9,39.3S168.4,76.4,168.4,53.8z"/>
	<path class="st0" d="M264.1,46.5c0-27.8,21.3-46.5,49.5-46.5c23.6,0,35.4,13.7,40.8,26.1l-23.5,10.9c-2.3-7-9.3-13.1-17.4-13.1
		c-13.1,0-21.8,10-21.8,22.5c0,12.5,8.8,22.5,21.8,22.5c8.1,0,15.1-6.1,17.4-13.1l23.5,10.8c-5.3,12-17.3,26.3-40.8,26.3
		C285.3,93,264.1,74.1,264.1,46.5z"/>
	<path class="st0" d="M414.3,93l-20.9-32.8l-5.2,7V93H360V0h28.2v34.9L412.6,0h34.5l-35.2,43.2L448.7,93H414.3z"/>
	<path class="st0" d="M22.1,93V24.5H0V0h72.2v24.5H50.3V93H22.1z"/>
</g>
</svg>
