<svg xmlns="http://www.w3.org/2000/svg" width="21.427" height="15.001" viewBox="0 0 21.427 15.001">
  <path
    d="M13654.3,16203.566a1.327,1.327,0,0,1-1.3-1.15l8.405-5.417,1.9,1.273a.674.674,0,0,0,.37.109.661.661,0,0,0,.365-.109l1.9-1.273,8.405,5.417a1.327,1.327,0,0,1-1.3,1.15Zm12.729-7.389,7.356-4.848v9.5Zm-14.07-4.848,7.356,4.848-7.356,4.648Zm.041-1.605a1.332,1.332,0,0,1,1.3-1.159h18.747a1.331,1.331,0,0,1,1.3,1.159l-10.67,7.161Z"
    transform="translate(-13652.955 -16188.565)" fill="#606060"/>
</svg>
