<?xml version="1.0" encoding="utf-8"?>
<!-- Generator: Adobe Illustrator 23.1.0, SVG Export Plug-In . SVG Version: 6.00 Build 0)  -->
<svg version="1.1" id="Layer_1" xmlns="http://www.w3.org/2000/svg" xmlns:xlink="http://www.w3.org/1999/xlink" x="0px" y="0px"
	 viewBox="0 0 24 17" style="enable-background:new 0 0 24 17;" xml:space="preserve">
<style type="text/css">
	.st0{opacity:0.8;}
	.st1{fill:#28529F;}
</style>
<g class="st0">
	<g transform="translate(16.051 3.191)">
		<path class="st1" d="M0,5.4l7.9,5.2V0L0,5.4z"/>
	</g>
	<g transform="translate(0 3.191)">
		<path class="st1" d="M0,0v10.6l7.9-5.2L0,0z"/>
	</g>
	<g transform="translate(0.044)">
		<path class="st1" d="M22.5,0h-21C0.7,0,0.1,0.6,0,1.3l12,8l12-8C23.8,0.6,23.2,0,22.5,0z"/>
	</g>
	<g transform="translate(0.047 9.637)">
		<path class="st1" d="M14.5,0l-2.1,1.4c-0.2,0.2-0.6,0.2-0.8,0L9.4,0L0,6.1c0.1,0.7,0.7,1.3,1.5,1.3h21c0.7,0,1.4-0.6,1.5-1.3
			L14.5,0z"/>
	</g>
</g>
</svg>
