<svg xmlns="http://www.w3.org/2000/svg" width="28" height="26" viewBox="0 0 28 26"><defs><style>.a{fill:#3d3d3d;}</style></defs><path class="a" d="M3.467,26a3.467,3.467,0,0,1,0-6.934h.067a3.467,3.467,0,1,1,0,6.934Zm6.579-1.733a1.734,1.734,0,1,1,0-3.467H26.267a1.733,1.733,0,0,1,0,3.467Zm-6.579-7.8a3.467,3.467,0,0,1,0-6.934h.067a3.467,3.467,0,1,1,0,6.934Zm6.579-1.733a1.733,1.733,0,0,1,0-3.466h12.72a1.733,1.733,0,1,1,0,3.466Zm-6.579-7.8A3.467,3.467,0,1,1,3.467,0h.067a3.467,3.467,0,1,1,0,6.934ZM10.046,5.2a1.734,1.734,0,1,1,0-3.467H26.267a1.734,1.734,0,0,1,0,3.467Z"/></svg>