<svg id="Component_657_1" data-name="Component 657 – 1" xmlns="http://www.w3.org/2000/svg" width="24" height="22" viewBox="0 0 24 22">
  <path id="Path_1881" data-name="Path 1881" d="M971.42,535.731a.956.956,0,0,0-.674-.29h0a.889.889,0,0,0-.345.07l-6.728,2.559a9.277,9.277,0,0,0,1.514-3.891,5.5,5.5,0,0,0-5.495-5.414h-.076a5.468,5.468,0,0,0-5.421,5.434,4.9,4.9,0,0,0,.326,1.514l-5.834,2.094a1.628,1.628,0,0,0-1,1.513V549.8a.954.954,0,0,0,.946.967.928.928,0,0,0,.345-.069l6.808-2.591,6.9,2.505a2.827,2.827,0,0,0,1.82.008l6.19-2.221a1.623,1.623,0,0,0,.994-1.512V536.408A.944.944,0,0,0,971.42,535.731Zm-1.568,10.931-5.32,1.9v-8.771l5.27-2.005ZM963.3,534.183c0,1.011-1.441,3.441-3.61,6.1-2.169-2.665-3.61-5.1-3.61-6.1a3.575,3.575,0,0,1,3.57-3.522h.043A3.6,3.6,0,0,1,963.3,534.183Zm-6.569,5.362c.7.982,1.454,1.937,2.237,2.848a.951.951,0,0,0,1.342.1.927.927,0,0,0,.1-.1c.419-.49,1.233-1.467,2.092-2.642l.145.051v8.752l-5.919-2.153Zm-1.887-1.911v8.775l-5.271,2.006-.049-8.874Z" transform="translate(-947.687 -528.764)" fill="#606060" opacity="0.7"/>
</svg>
