<svg id="Group_2492" data-name="Group 2492" xmlns="http://www.w3.org/2000/svg" width="16" height="16" viewBox="0 0 16 16">
  <path id="BG" d="M-274.38,12.424a10.4,10.4,0,0,0-1.448-1.555c-1.491-1.435-2.067-1.442-3.533.009a.755.755,0,0,1-1.068.154,11.611,11.611,0,0,1-4.258-4.094c-.6-.983-.6-.982.227-1.815a1.7,1.7,0,0,0,.115-2.742A14.02,14.02,0,0,0-286.44.405a1.5,1.5,0,0,0-2.111.113,4.334,4.334,0,0,0-1.4,3.515A6.676,6.676,0,0,0-288.832,7.8a20.654,20.654,0,0,0,6.861,6.8,10.322,10.322,0,0,0,3.783,1.37,4.044,4.044,0,0,0,3.578-1.165A1.6,1.6,0,0,0-274.38,12.424Z" transform="translate(289.953 -0.025)" fill="#919191"/>
  <path id="phone1" d="M-274.38,12.424a10.4,10.4,0,0,0-1.448-1.555c-1.491-1.435-2.067-1.442-3.533.009a.755.755,0,0,1-1.068.154,11.611,11.611,0,0,1-4.258-4.094c-.6-.983-.6-.982.227-1.815a1.7,1.7,0,0,0,.115-2.742A14.02,14.02,0,0,0-286.44.405a1.5,1.5,0,0,0-2.111.113,4.334,4.334,0,0,0-1.4,3.515A6.676,6.676,0,0,0-288.832,7.8a20.654,20.654,0,0,0,6.861,6.8,10.322,10.322,0,0,0,3.783,1.37,4.044,4.044,0,0,0,3.578-1.165A1.6,1.6,0,0,0-274.38,12.424Z" transform="translate(289.953 -0.025)" fill="#919191"/>
</svg>
