<svg xmlns="http://www.w3.org/2000/svg" width="32" height="32" viewBox="0 0 32 32"><defs><style>.a{fill:#dadada;}</style></defs><path class="a" fill="#dadada" d="M523.795,364.643a16,16,0,1,0,16,16A16,16,0,0,0,523.795,364.643Zm9.579,15.913a2.406,2.406,0,0,1-2.406,2.406h-4.846v4.846h0a2.406,2.406,0,0,1-4.812,0v-4.846h-4.846a2.406,2.406,0,0,1-2.406-2.406h0a2.4,2.4,0,0,1,2.407-2.4h4.845V373.3h0a2.406,2.406,0,1,1,4.812,0v4.847h4.848a2.4,2.4,0,0,1,2.4,2.406Z" transform="translate(-507.795 -364.643)"/></svg>