<svg xmlns="http://www.w3.org/2000/svg" width="32" height="32" viewBox="0 0 32 32">
  <g id="Icon" transform="translate(-1412 -22)">
    <path id="Path_7312" data-name="Path 7312" d="M523.795,364.643a16,16,0,1,0,16,16A16,16,0,0,0,523.795,364.643Zm9.579,15.913a2.406,2.406,0,0,1-2.406,2.406h-4.846v4.846h0a2.406,2.406,0,0,1-4.812,0v-4.846h-4.846a2.406,2.406,0,0,1-2.406-2.406h0a2.4,2.4,0,0,1,2.407-2.4h4.845V373.3h0a2.406,2.406,0,1,1,4.812,0v4.847h4.848a2.4,2.4,0,0,1,2.4,2.406Z" transform="translate(904.205 -342.643)" fill="#b7b7b7"/>
    <path id="Path_58" data-name="Path 58" d="M530.968,378.15h-4.846V373.3a2.407,2.407,0,0,0-2.407-2.407h0a2.406,2.406,0,0,0-2.405,2.406h0v4.846h-4.845a2.4,2.4,0,0,0-2.407,2.4h0a2.406,2.406,0,0,0,2.406,2.406h4.846v4.846a2.406,2.406,0,0,0,4.812,0h0v-4.846h4.846a2.406,2.406,0,0,0,2.406-2.406h0a2.4,2.4,0,0,0-2.4-2.406Z" transform="translate(904.205 -342.643)" fill="#fff"/>
  </g>
</svg>
