<svg id="Component_2037_48" data-name="Component 2037 – 48" xmlns="http://www.w3.org/2000/svg" width="32" height="32" viewBox="0 0 32 32">
  <g id="Group_8661" data-name="Group 8661" transform="translate(-1648 -255)">
    <path id="Rectangle_4959" data-name="Rectangle 4959" d="M0,0H27a5,5,0,0,1,5,5V27a5,5,0,0,1-5,5H0a0,0,0,0,1,0,0V0A0,0,0,0,1,0,0Z" transform="translate(1648 255)" fill="#f7f7f7"/>
    <path id="Path_7714" data-name="Path 7714" d="M102.159,286.762h-4.8v-4.8a1.6,1.6,0,0,0-3.2,0v4.8h-4.8a1.6,1.6,0,1,0,0,3.2h4.8v4.8a1.6,1.6,0,1,0,3.2,0v-4.8h4.8a1.6,1.6,0,0,0,0-3.2Z" transform="translate(1568.241 -17.362)" fill="#5673aa"/>
  </g>
</svg>
