<svg xmlns="http://www.w3.org/2000/svg" width="14" height="14" viewBox="0 0 14 14">
  <path id="B" d="M12.73-10.12a4.258,4.258,0,0,1,1.948,1.34,3.332,3.332,0,0,1,.69,2.12,3.217,3.217,0,0,1-1.542,2.85A8.165,8.165,0,0,1,9.362-2.8H1.368v-14H8.956a7.573,7.573,0,0,1,4.291,1A3.085,3.085,0,0,1,14.7-13.14a3.2,3.2,0,0,1-.5,1.76A3.547,3.547,0,0,1,12.73-10.12ZM6.075-13.5v2.08H8.307q1.562,0,1.562-1.04T8.307-13.5ZM8.956-6.1q1.583,0,1.583-1.1T8.956-8.3H6.075v2.2Z" transform="translate(-1.368 16.8)" fill="#919191"/>
</svg>
