<svg xmlns="http://www.w3.org/2000/svg" width="31.998" height="32.004" viewBox="0 0 31.998 32.004">
  <path id="Subtraction_87" data-name="Subtraction 87" d="M13307,18070a16,16,0,1,1,11.314-4.687A15.9,15.9,0,0,1,13307,18070Zm-2.5-8.5h0a2.5,2.5,0,1,0,5,0Zm2.5-17.5a1.248,1.248,0,0,0-1.247,1.248v.816a6.166,6.166,0,0,0-5,6.059c0,3.75-1.266,5.078-2.022,5.871-.049.051-.1.1-.146.154a1.207,1.207,0,0,0-.336.85,1.261,1.261,0,0,0,1.252,1.25h14.992a1.253,1.253,0,0,0,1.252-1.25,1.207,1.207,0,0,0-.336-.85l-.031-.033-.111-.117c-.757-.795-2.021-2.125-2.021-5.875a6.164,6.164,0,0,0-5-6.057v-.818A1.251,1.251,0,0,0,13307,18044Z" transform="translate(-13291.001 -18037.998)" fill="#dadada"/>
</svg>
