<svg xmlns="http://www.w3.org/2000/svg" width="14" height="14" viewBox="0 0 14 14">
  <g id="Group_30975" data-name="Group 30975" transform="translate(-1684.011 -630)">
    <rect id="Rectangle_9499" data-name="Rectangle 9499" width="9.992" height="1.6" rx="0.799" transform="translate(1698.011 643.467) rotate(-180)" fill="#919191"/>
    <rect id="Rectangle_9500" data-name="Rectangle 9500" width="9.992" height="1.6" rx="0.799" transform="translate(1698.011 637.785) rotate(-180)" fill="#919191"/>
    <rect id="Rectangle_9501" data-name="Rectangle 9501" width="9.992" height="1.6" rx="0.799" transform="translate(1698.011 632.104) rotate(180)" fill="#919191"/>
    <path id="Path_11752" data-name="Path 11752" d="M525.954,363.613v2.607h-.879v-1.944h-.446v-.663Z" transform="translate(1159.84 266.387)" fill="#919191"/>
    <path id="Path_11753" data-name="Path 11753" d="M526.412,371.25v.681h-2.088v-.54l.941-.871a.767.767,0,0,0,.164-.2.359.359,0,0,0,.041-.16.189.189,0,0,0-.065-.151.3.3,0,0,0-.188-.053.42.42,0,0,0-.223.063.41.41,0,0,0-.16.179l-.663-.332a1.082,1.082,0,0,1,.436-.441,1.383,1.383,0,0,1,.692-.162,1.4,1.4,0,0,1,.547.1.859.859,0,0,1,.372.287.716.716,0,0,1,.134.428.909.909,0,0,1-.091.4,1.519,1.519,0,0,1-.356.427l-.372.339Z" transform="translate(1159.84 266.387)" fill="#919191"/>
    <path id="Path_11754" data-name="Path 11754" d="M526.238,376.248a.713.713,0,0,1,.162.471.8.8,0,0,1-.128.438.914.914,0,0,1-.4.329,1.54,1.54,0,0,1-.665.127,2.568,2.568,0,0,1-.55-.06,1.7,1.7,0,0,1-.478-.175l.3-.648a1.372,1.372,0,0,0,.344.142,1.416,1.416,0,0,0,.356.048.5.5,0,0,0,.245-.052.163.163,0,0,0,.093-.149c0-.119-.1-.179-.308-.179h-.347V376l.384-.391h-.931v-.663h1.943v.54l-.484.492A.845.845,0,0,1,526.238,376.248Z" transform="translate(1159.84 266.387)" fill="#919191"/>
  </g>
</svg>
