<svg xmlns="http://www.w3.org/2000/svg" width="18.992" height="20.344" viewBox="0 0 18.992 20.344">
  <path id="Path_1393" data-name="Path 1393" d="M52.746,40.089a5.426,5.426,0,0,1,5.431,8.226,8.788,8.788,0,0,1-1.4,1.6q-4.593,4.663-9.2,9.311a4.072,4.072,0,0,1-3.81,1.019,3.988,3.988,0,0,1-2.132-1.327,4.087,4.087,0,0,1-.72-3.984,4.14,4.14,0,0,1,1.1-1.656q3.479-3.448,6.947-6.9a2.686,2.686,0,0,1,3.68-.092,2.631,2.631,0,0,1,.511,3.028,4.647,4.647,0,0,1-1.047,1.271q-3,3.008-6.006,6.011a.973.973,0,0,1-.666.387.684.684,0,0,1-.677-.787.874.874,0,0,1,.283-.467q3.322-3.319,6.64-6.64a1.243,1.243,0,1,0-1.758-1.751Q46.57,50.667,43.217,54a4.1,4.1,0,0,0-.875,1.055,2.707,2.707,0,0,0-.121,2.211A2.646,2.646,0,0,0,43.983,58.9,2.748,2.748,0,0,0,46,58.711a4.068,4.068,0,0,0,1.056-.879c3.154-3.208,6.331-6.393,9.483-9.6a4.069,4.069,0,0,0-5.749-5.752q-4.771,4.721-9.528,9.458a.892.892,0,0,1-.478.29A.679.679,0,0,1,40,51.551a.792.792,0,0,1,.291-.57q4.45-4.418,8.9-8.833a8.487,8.487,0,0,1,1.389-1.229A5.183,5.183,0,0,1,52.746,40.089Z" transform="translate(-40.002 -40.026)" fill="#606060"/>
</svg>
