<svg id="Password_Icon" data-name="Password Icon" xmlns="http://www.w3.org/2000/svg" width="16" height="14" viewBox="0 0 16 14">
  <path id="Path_8083" data-name="Path 8083" d="M741.756,532.132a4.951,4.951,0,0,0-5.586,4.312,5.088,5.088,0,0,0,4.146,5.809,4.951,4.951,0,0,0,5.586-4.312c.006-.045.013-.089.018-.134h0a5.012,5.012,0,0,0-4.153-5.674Zm.7,5.242a1.382,1.382,0,0,1-1.2-1.525,1.357,1.357,0,0,1,1.467-1.251,1.382,1.382,0,0,1,1.2,1.525l0,.029a1.334,1.334,0,0,1-1.452,1.221l-.012,0Z" transform="translate(-729.964 -532.076)" fill="#b1b1b1"/>
  <path id="Subtraction_30" data-name="Subtraction 30" d="M729.784,546.615l-.011,0a.733.733,0,0,1-.573-.811l.075-.608a.593.593,0,0,1,.212-.395l.372-.31,4.271-3.569,1.748-1.454a5.426,5.426,0,0,0,.3.851l-5.555,4.637a.236.236,0,0,0-.08.153.225.225,0,0,0,.043.159.189.189,0,0,0,.131.085.2.2,0,0,0,.162-.049l5.5-4.587a5.1,5.1,0,0,0,1.556,1.732l-1.658,1.383,0-.006a.485.485,0,0,1-.355.093l-1.151-.182-.116,1.234-.007.044a.509.509,0,0,1-.572.445l-1.152-.182-.115,1.233-.005.031a.52.52,0,0,1-.582.457h0l-.587-.093-1.831-.286-.006,0Z" transform="translate(-729.195 -533)" fill="#b1b1b1"/>
</svg>
