<?xml version="1.0" encoding="utf-8"?>
<!-- Generator: Adobe Illustrator 23.1.0, SVG Export Plug-In . SVG Version: 6.00 Build 0)  -->
<svg version="1.1" id="Layer_1" xmlns="http://www.w3.org/2000/svg" xmlns:xlink="http://www.w3.org/1999/xlink" x="0px" y="0px"
	 viewBox="0 0 24 24" style="enable-background:new 0 0 24 24;" xml:space="preserve">
<style type="text/css">
	.st0{fill:#28529F;}
	.st1{opacity:0.8;fill:#28529F;enable-background:new    ;}
</style>
<g transform="translate(289.966 -0.03)">
	<path class="st0" d="M-266.6,18.6c-0.6-0.8-1.4-1.6-2.2-2.3c-2.2-2.2-3.1-2.2-5.3,0c-0.2,0.2-0.5,0.4-0.8,0.5c-0.3,0-0.6,0-0.8-0.2
		c-2.6-1.5-4.8-3.6-6.4-6.1c-0.9-1.5-0.9-1.5,0.3-2.7c1.4-1.5,1.5-2.6,0.2-4.1c-0.9-1.1-2-2.1-3.1-3c-0.9-0.8-2.3-0.7-3.2,0.2
		c-1.5,1.3-2.2,3.3-2.1,5.3c0,2,0.6,4,1.7,5.7c2.6,4.2,6.1,7.7,10.3,10.2c1.7,1.1,3.7,1.7,5.7,2.1c2,0.3,4-0.3,5.4-1.7
		c0.6-0.4,0.9-1,1-1.7C-265.9,19.8-266.1,19.1-266.6,18.6z"/>
	<path class="st1" d="M-266.6,18.6c-0.6-0.8-1.4-1.6-2.2-2.3c-2.2-2.2-3.1-2.2-5.3,0c-0.2,0.2-0.5,0.4-0.8,0.5c-0.3,0-0.6,0-0.8-0.2
		c-2.6-1.5-4.8-3.6-6.4-6.1c-0.9-1.5-0.9-1.5,0.3-2.7c1.4-1.5,1.5-2.6,0.2-4.1c-0.9-1.1-2-2.1-3.1-3c-0.9-0.8-2.3-0.7-3.2,0.2
		c-1.5,1.3-2.2,3.3-2.1,5.3c0,2,0.6,4,1.7,5.7c2.6,4.2,6.1,7.7,10.3,10.2c1.7,1.1,3.7,1.7,5.7,2.1c2,0.3,4-0.3,5.4-1.7
		c0.6-0.4,0.9-1,1-1.7C-265.9,19.8-266.1,19.1-266.6,18.6z"/>
</g>
</svg>
