<svg xmlns="http://www.w3.org/2000/svg" width="24.019" height="24.005" viewBox="0 0 24.019 24.005">
  <g id="Group_1169" data-name="Group 1169" transform="translate(289.966 -0.03)">
    <path id="Path_1169" data-name="Path 1169" d="M-266.594,18.624a15.6,15.6,0,0,0-2.172-2.333c-2.237-2.153-3.1-2.163-5.3.013a1.132,1.132,0,0,1-.751.451,1.132,1.132,0,0,1-.849-.22,17.417,17.417,0,0,1-6.387-6.142c-.9-1.475-.9-1.474.341-2.723,1.443-1.451,1.5-2.56.173-4.113A21.025,21.025,0,0,0-284.683.6a2.253,2.253,0,0,0-3.166.169,6.5,6.5,0,0,0-2.1,5.273,10.013,10.013,0,0,0,1.679,5.651,30.981,30.981,0,0,0,10.291,10.2,15.483,15.483,0,0,0,5.674,2.056,6.067,6.067,0,0,0,5.366-1.748,2.394,2.394,0,0,0,.981-1.711,2.394,2.394,0,0,0-.636-1.866Z" fill="#fff"/>
    <path id="Path_1170" data-name="Path 1170" d="M-266.594,18.624a15.6,15.6,0,0,0-2.172-2.333c-2.237-2.153-3.1-2.163-5.3.013a1.132,1.132,0,0,1-.751.451,1.132,1.132,0,0,1-.849-.22,17.417,17.417,0,0,1-6.387-6.142c-.9-1.475-.9-1.474.341-2.723,1.443-1.451,1.5-2.56.173-4.113A21.025,21.025,0,0,0-284.683.6a2.253,2.253,0,0,0-3.166.169,6.5,6.5,0,0,0-2.1,5.273,10.013,10.013,0,0,0,1.679,5.651,30.981,30.981,0,0,0,10.291,10.2,15.483,15.483,0,0,0,5.674,2.056,6.067,6.067,0,0,0,5.366-1.748,2.394,2.394,0,0,0,.981-1.711,2.394,2.394,0,0,0-.636-1.866Z" fill="#fff" opacity="0.8"/>
  </g>
</svg>
