<svg xmlns="http://www.w3.org/2000/svg" width="18" height="18" viewBox="0 0 18 18">
  <path id="phone1" d="M-272.434,13.974a11.7,11.7,0,0,0-1.629-1.749c-1.678-1.615-2.325-1.622-3.974.01a.849.849,0,0,1-1.2.173,13.062,13.062,0,0,1-4.79-4.606c-.674-1.106-.676-1.105.256-2.042,1.082-1.088,1.128-1.92.13-3.085A15.772,15.772,0,0,0-286,.453a1.69,1.69,0,0,0-2.375.127,4.876,4.876,0,0,0-1.576,3.955,7.51,7.51,0,0,0,1.259,4.238,23.236,23.236,0,0,0,7.718,7.65,11.612,11.612,0,0,0,4.256,1.542,4.55,4.55,0,0,0,4.025-1.311A1.8,1.8,0,0,0-272.434,13.974Z" transform="translate(289.953 -0.025)" fill="#fff"/>
</svg>
