<?xml version="1.0" encoding="utf-8"?>
<!-- Generator: Adobe Illustrator 23.1.0, SVG Export Plug-In . SVG Version: 6.00 Build 0)  -->
<svg version="1.1" id="Layer_1" xmlns="http://www.w3.org/2000/svg" xmlns:xlink="http://www.w3.org/1999/xlink" x="0px" y="0px"
	 viewBox="0 0 17.9 24" style="enable-background:new 0 0 17.9 24;" xml:space="preserve">
<style type="text/css">
	.st0{fill:#28529F;}
</style>
<path class="st0" d="M8.7,0h0.5c2.3,0.1,4.4,1,6,2.6c1.5,1.5,2.4,3.5,2.6,5.6c0.2,2.3-0.4,4.6-1.7,6.5c-2.4,3.1-4.8,6.3-7.2,9.4h0
	c-0.1-0.3-0.3-0.6-0.5-0.8c-2.2-2.8-4.3-5.7-6.5-8.5C0.7,13.2,0,11.3,0,9.4v-1c0.2-2.1,1.1-4.1,2.5-5.6C4.1,1.1,6.3,0.1,8.7,0
	 M8,4.2C6,4.6,4.4,6.1,4,8.1c-0.4,1.6-0.1,3.3,0.9,4.6c1.7,2.3,4.9,2.7,7.2,1c0.4-0.3,0.7-0.6,0.9-0.9c1.8-2.3,1.4-5.7-0.9-7.5
	c-0.2-0.2-0.5-0.3-0.7-0.5C10.4,4.2,9.2,4,8,4.2z"/>
</svg>
