<svg id="pinnnn" xmlns="http://www.w3.org/2000/svg" width="15" height="19" viewBox="0 0 15 19">
  <g id="_28529fff" data-name="#28529fff">
    <path id="Path_1069" data-name="Path 1069" d="M7.268,0H7.7a7.694,7.694,0,0,1,5.059,2.021,7.125,7.125,0,0,1,.747,9.543C11.513,14.05,9.477,16.505,7.5,19H7.466a3.013,3.013,0,0,0-.449-.626q-2.725-3.36-5.447-6.722A7.061,7.061,0,0,1,0,7.421V6.658a7.306,7.306,0,0,1,2.094-4.44A7.674,7.674,0,0,1,7.268,0M6.732,3.337A4.317,4.317,0,0,0,3.319,6.421a4.062,4.062,0,0,0,.792,3.612,4.448,4.448,0,0,0,6.8.056,4.041,4.041,0,0,0,.938-3.156A4.183,4.183,0,0,0,9.569,3.761,4.478,4.478,0,0,0,6.732,3.337Z" fill="#fff"/>
  </g>
</svg>
