<svg xmlns="http://www.w3.org/2000/svg" width="24.4" height="24.4" viewBox="0 0 24.4 24.4">
  <g id="print" transform="translate(0.2 0.2)">
    <path id="Path_1428" data-name="Path 1428"
          d="M20.484,6.047h-.656V3.516A3.52,3.52,0,0,0,16.313,0H7.688A3.52,3.52,0,0,0,4.172,3.516V6.047H3.516A3.52,3.52,0,0,0,0,9.563v5.625A3.52,3.52,0,0,0,3.516,18.7h.656v3.188A2.112,2.112,0,0,0,6.281,24H17.719a2.112,2.112,0,0,0,2.109-2.109V18.7h.656A3.52,3.52,0,0,0,24,15.188V9.563A3.52,3.52,0,0,0,20.484,6.047ZM5.578,3.516A2.112,2.112,0,0,1,7.688,1.406h8.625a2.112,2.112,0,0,1,2.109,2.109V6.047H5.578ZM18.422,21.891a.7.7,0,0,1-.7.7H6.281a.7.7,0,0,1-.7-.7V14.953H18.422Zm4.172-6.7A2.112,2.112,0,0,1,20.484,17.3h-.656V14.953h.422a.7.7,0,0,0,0-1.406H3.75a.7.7,0,0,0,0,1.406h.422V17.3H3.516a2.112,2.112,0,0,1-2.109-2.109V9.563A2.112,2.112,0,0,1,3.516,7.453H20.484a2.112,2.112,0,0,1,2.109,2.109Z"
          fill="#3d3d3d" stroke="#3d3d3d" stroke-width="0.4"/>
    <path id="Path_1431" data-name="Path 1431" d="M67.953,193H65.7a.7.7,0,0,0,0,1.406h2.25a.7.7,0,0,0,0-1.406Z"
          transform="translate(-61.953 -183.953)" fill="#3d3d3d" stroke="#3d3d3d" stroke-width="0.4"/>
  </g>
</svg>
