<svg xmlns="http://www.w3.org/2000/svg" width="13.841" height="15.899" viewBox="0 0 13.841 15.899">
  <g id="replay" transform="translate(0.2 0.203)">
    <path id="Path_1032" data-name="Path 1032" d="M28.958,8.485a.291.291,0,0,1,.291.291,6.138,6.138,0,1,0,6.429-6.123V4.4a.291.291,0,0,1-.291.291.3.3,0,0,1-.1-.019L29.843,2.62a.292.292,0,0,1,0-.545L35.284.019a.292.292,0,0,1,.395.273V2.063a6.72,6.72,0,1,1-7.012,6.713A.291.291,0,0,1,28.958,8.485Z" transform="translate(-28.667 0)" fill="#606060" stroke="#606060" stroke-width="0.4"/>
  </g>
</svg>
