<svg xmlns="http://www.w3.org/2000/svg" width="385.535" height="355.346" viewBox="0 0 385.535 355.346">
  <g id="Layer_3" data-name="Layer 3" transform="translate(-451.25 -324.978)">
    <path id="Path_23835" data-name="Path 23835" d="M858.55,433.644s13.79-10.677,23.194-2.079-4.7,32.616,15.666,29.945" transform="translate(-163.948 -41.556)" fill="none" stroke="#24c0a0" stroke-linecap="round" stroke-miterlimit="10" stroke-width="2"/>
    <path id="Path_23836" data-name="Path 23836" d="M841.694,481.75s-30.824,11.7-15.194,31.3" transform="translate(-149.267 -63.105)" fill="none" stroke="#24c0a0" stroke-linecap="round" stroke-miterlimit="10" stroke-width="2"/>
    <path id="Path_23837" data-name="Path 23837" d="M690.515,410.856s-2.229-17.076-14.829-17.327-19.466,26.57-31.905,10.719" transform="translate(-77.498 -27.593)" fill="none" stroke="#24c0a0" stroke-linecap="round" stroke-miterlimit="10" stroke-width="2"/>
    <path id="Path_23838" data-name="Path 23838" d="M579.969,335.85s13.467,29.473-11.179,32.807" transform="translate(-47.313 -4.376)" fill="none" stroke="#24c0a0" stroke-linecap="round" stroke-miterlimit="10" stroke-width="2"/>
    <path id="Path_23839" data-name="Path 23839" d="M454,493.584s13.79-10.677,23.194-2.079-4.7,32.616,15.666,29.945" transform="translate(-1.107 -65.683)" fill="none" stroke="#24c0a0" stroke-linecap="round" stroke-miterlimit="10" stroke-width="2"/>
    <path id="Path_23840" data-name="Path 23840" d="M981.115,327.68s-30.824,11.7-15.194,31.3" transform="translate(-205.387 -1.088)" fill="none" stroke="#24c0a0" stroke-linecap="round" stroke-miterlimit="10" stroke-width="2"/>
    <path id="Path_23841" data-name="Path 23841" d="M618.227,739.836s-13.359,1.721-19.221-5.174-6.751-15.761-2-19.8,13.365-1.727,19.221,5.168S618.227,739.836,618.227,739.836Z" transform="translate(-57.442 -156.137)" fill="#919191"/>
    <ellipse id="Ellipse_4365" data-name="Ellipse 4365" cx="15.821" cy="9.04" rx="15.821" ry="9.04" transform="matrix(0.122, -0.993, 0.993, 0.122, 533.776, 608.177)" fill="#919191"/>
    <path id="Path_23842" data-name="Path 23842" d="M585.167,797.645c4.654,4.182,1.679,15.074-6.638,24.377s-29.139,3.585-29.139,3.585A76.023,76.023,0,0,1,561.7,806.959C570,797.657,580.512,793.486,585.167,797.645Z" transform="translate(-39.504 -189.611)" fill="#919191"/>
    <path id="Path_23843" data-name="Path 23843" d="M618.431,731.08a33.718,33.718,0,0,1-1.069,12.1s-13.36,1.727-19.221-5.174a22.307,22.307,0,0,1-4.021-6.859,20.626,20.626,0,0,0,4.953,10.826c5.861,6.895,19.221,5.174,19.221,5.174S621.006,738.076,618.431,731.08Z" transform="translate(-57.509 -163.466)" fill="#6c6c6c"/>
    <path id="Path_23844" data-name="Path 23844" d="M608.787,755a25.347,25.347,0,0,1,.257,8.048c-1.064,8.675-5.975,15.212-10.9,14.6-2.079-.251-3.83-1.733-5.1-3.991.98,4.851,3.477,8.365,6.787,8.753,4.953.6,9.834-5.927,10.9-14.6C611.357,762.767,610.538,758.113,608.787,755Z" transform="translate(-57.078 -173.094)" fill="#6c6c6c"/>
    <path id="Path_23845" data-name="Path 23845" d="M585.645,799.61c.227,5.222-2.987,12.547-8.807,19.089-6.148,6.877-19.119,5.551-25.476,4.391-1.314,2.426-1.972,3.961-1.972,3.961s20.822,5.718,29.139-3.585C586.529,814.511,589.564,804.091,585.645,799.61Z" transform="translate(-39.504 -191.051)" fill="#6c6c6c"/>
    <path id="Path_23846" data-name="Path 23846" d="M658.6,714.616l-9.07,17.859-27.645,11.089-.454,3.68L650.8,737.56l15.032-26.14Z" transform="translate(-68.501 -155.552)" fill="#6c6c6c"/>
    <path id="Path_23847" data-name="Path 23847" d="M591.5,699.165s3.125-27.777-2.043-33.321-17.6-7.767-19.3,0,1.99,4.362,2.39,3.3-1.326-2.91-1.326-2.91.914-5.688,7.66-4.374,9.56,3.549,10.856,6.459,1.852,20.171,1.607,21.192-.89,9.225-.89,9.225S591.1,700.24,591.5,699.165Z" transform="translate(-47.68 -135.184)" fill="#6c6c6c"/>
    <path id="Path_23848" data-name="Path 23848" d="M615.187,689.369s13.031-34.94,6.805-40.879-12.308-5.8-13.5-2.623-.645,8.2,1.195,6.477-.269-2.509-.269-2.509-2.39-3.3,2.641-3.842,9.261,1.04,9.8,6.064.538,5.025-.376,10.719-7.361,26.2-7.361,26.2S613.735,690.032,615.187,689.369Z" transform="translate(-63.041 -128.291)" fill="#6c6c6c"/>
    <path id="Path_23849" data-name="Path 23849" d="M561.75,699.912l-6.321-28.978a2.987,2.987,0,0,0-3.095-1.416s-3.185,2.892-1.9,4.678c6.13,8.52,9.882,31.218,9.882,31.218l20.219,21.808.956-1.792Z" transform="translate(-39.801 -138.667)" fill="#6c6c6c"/>
    <path id="Path_23850" data-name="Path 23850" d="M599.09,830.09a1.079,1.079,0,0,0,.108.125h0Z" transform="translate(-59.509 -203.32)" fill="#6c6c6c"/>
    <path id="Path_23851" data-name="Path 23851" d="M618.446,868.77h6.393l-9.978-29.587-10.886-9.864c-.2-.161-.938.155-1.195,0l9.691,11.274Z" transform="translate(-60.994 -202.99)" fill="#6c6c6c"/>
    <path id="Path_23852" data-name="Path 23852" d="M551.086,867.853H544l11.071-30.609,12.1-10.2c.221-.173,1.04.161,1.344,0L557.76,838.7Z" transform="translate(-37.334 -202.074)" fill="#6c6c6c"/>
    <line id="Line_3167" data-name="Line 3167" x1="79.787" transform="translate(496.431 665.779)" fill="none" stroke="#b5b5b5" stroke-miterlimit="10" stroke-width="2"/>
    <path id="Path_23853" data-name="Path 23853" d="M891,733.154s11.005,7.05,20.1,3.692,14.829-10.468,12.84-15.863-10.958-7.026-20.051-3.669S891,733.154,891,733.154Z" transform="translate(-177.01 -157.223)" fill="#919191"/>
    <path id="Path_23854" data-name="Path 23854" d="M903.622,765.054c-.251,8.675,3.585,15.212,8.622,14.6s9.249-8.132,9.476-16.8-3.627-15.212-8.61-14.6S903.873,756.385,903.622,765.054Z" transform="translate(-182.086 -170.363)" fill="#919191"/>
    <path id="Path_23855" data-name="Path 23855" d="M911.391,797.645c-5.24,4.182-3.919,15.074,2.987,24.377s28.494,3.585,28.494,3.585a63.581,63.581,0,0,0-9.524-18.653C926.436,797.657,916.625,793.486,911.391,797.645Z" transform="translate(-183.928 -189.611)" fill="#919191"/>
    <path id="Path_23856" data-name="Path 23856" d="M899.914,722.26a33.65,33.65,0,0,0-5.831,10.635s10.994,7.05,20.093,3.686a27.241,27.241,0,0,0,7.421-4.1,24.831,24.831,0,0,1-10.474,7.056C902.029,742.9,891,735.847,891,735.847S893.689,727.07,899.914,722.26Z" transform="translate(-177.01 -159.916)" fill="#6c6c6c"/>
    <path id="Path_23857" data-name="Path 23857" d="M907.476,755a26.889,26.889,0,0,0-1.464,8.048c-.245,8.675,3.585,15.212,8.616,14.6,2.1-.251,4.057-1.733,5.646-3.991-1.7,4.851-4.69,8.365-8.03,8.753-5.007.6-8.873-5.927-8.622-14.6A23.94,23.94,0,0,1,907.476,755Z" transform="translate(-182.086 -173.094)" fill="#6c6c6c"/>
    <path id="Path_23858" data-name="Path 23858" d="M910.844,799.61c-1,5.222,1.076,12.547,5.915,19.089,5.108,6.877,18.211,5.551,24.706,4.391.962,2.426,1.4,3.961,1.4,3.961s-21.581,5.718-28.494-3.585C907.743,814.511,906.291,804.091,910.844,799.61Z" transform="translate(-183.936 -191.051)" fill="#6c6c6c"/>
    <path id="Path_23859" data-name="Path 23859" d="M820.2,711.02l22.74,21.294L868.585,743.4l-.108,3.68L840.9,737.4,813.39,711.02Z" transform="translate(-145.77 -155.391)" fill="#6c6c6c"/>
    <path id="Path_23860" data-name="Path 23860" d="M934.861,710.211s12.732-24.712,20.428-27.239,19.974.765,17.148,8.06-4.182,2.85-3.961,1.792,2.8-1.9,2.8-1.9,2.348-5.18-4.38-6.877-10.45-.968-13.252.932-12.911,16.233-13.264,17.2-4.356,8.144-4.356,8.144S934.622,711.269,934.861,710.211Z" transform="translate(-194.654 -143.762)" fill="#6c6c6c"/>
    <path id="Path_23861" data-name="Path 23861" d="M925.17,693.45S933.14,658.611,942,656.2s14.166.227,13.443,3.394-4,7.17-4.684,4.959,1.643-2.008,1.643-2.008,3.961-1.792-.2-4.326-8.8-2.987-12.093,1.04-3.292,4-5.67,9.177-8.108,25.13-8.108,25.13S926.1,694.621,925.17,693.45Z" transform="translate(-190.764 -132.946)" fill="#6c6c6c"/>
    <path id="Path_23862" data-name="Path 23862" d="M948.672,702.138l-5.754-26.044c.777-1.076,8.329-1.792,6.811,0l2.725,27.239-26.367,26.116-.687-1.792Z" transform="translate(-190.857 -140.893)" fill="#6c6c6c"/>
    <path id="Path_23863" data-name="Path 23863" d="M918.915,830.09a1.256,1.256,0,0,1-.126.125h0Z" transform="translate(-188.196 -203.32)" fill="#6c6c6c"/>
    <path id="Path_23864" data-name="Path 23864" d="M875.083,868.77H868.69l14.417-29.587,12.308-9.864c.227-.161.908.155,1.195,0l-11.3,11.274Z" transform="translate(-168.03 -202.99)" fill="#6c6c6c"/>
    <path id="Path_23865" data-name="Path 23865" d="M943.3,867.853h7.1l-15.749-23.128-1.422-17.679c-.2-.173-1.064.161-1.338,0l-2.318,19.37Z" transform="translate(-192.535 -202.074)" fill="#6c6c6c"/>
    <line id="Line_3168" data-name="Line 3168" x1="73.012" transform="translate(692.804 665.779)" fill="none" stroke="#b5b5b5" stroke-miterlimit="10" stroke-width="2"/>
    <path id="Path_23866" data-name="Path 23866" d="M856.693,883.042l6.913.6-8.5-44.44-38.9-8.036c-.191-.173.275,1.852,0,1.691l36.9,8.365Z" transform="translate(-146.885 -203.747)" fill="#6c6c6c"/>
    <path id="Path_23867" data-name="Path 23867" d="M820.1,713.782l11.017-28.972a3.43,3.43,0,0,1,3.268-1.422s2.647,2.892,1.093,4.678c-7.432,8.52-14.9,31.218-14.9,31.218L796.955,741.1l-.645-1.792Z" transform="translate(-138.895 -144.256)" fill="#6c6c6c"/>
    <path id="Path_23868" data-name="Path 23868" d="M766.274,740.193c-3.173,5.975-.281,12.338,5.867,12.9a16.7,16.7,0,0,0,9.984-1.876c8.365-4.851,13.174-13.055,10.755-18.325s-11.107-5.6-19.454-.759A19.969,19.969,0,0,0,766.274,740.193Z" transform="translate(-126.281 -162.511)" fill="#919191"/>
    <path id="Path_23869" data-name="Path 23869" d="M774.119,783.136c2.987,7.6,9.213,11.764,13.933,9.3s6.118-10.617,3.137-18.217-9.189-11.764-13.9-9.3S771.155,775.536,774.119,783.136Z" transform="translate(-129.34 -176.8)" fill="#919191"/>
    <path id="Path_23870" data-name="Path 23870" d="M793.659,807.949c-6.273,1-11.46,11.788-11.579,24.114S801.42,850.8,801.42,850.8a79.971,79.971,0,0,0,3.435-22.334C804.939,816.129,799.956,806.946,793.659,807.949Z" transform="translate(-133.167 -194.377)" fill="#919191"/>
    <path id="Path_23871" data-name="Path 23871" d="M769.665,739.35a29.266,29.266,0,0,0-1.428,2.593c-2.641,5.377-.084,11.077,5.341,11.806a17.053,17.053,0,0,0,11.005-1.792,28.406,28.406,0,0,0,6.7-5.377,26.288,26.288,0,0,1-9.333,8.873,17.5,17.5,0,0,1-11.012,1.792c-5.377-.723-7.994-6.345-5.377-11.711A25.316,25.316,0,0,1,769.665,739.35Z" transform="translate(-126.105 -166.795)" fill="#6c6c6c"/>
    <path id="Path_23872" data-name="Path 23872" d="M773.2,774.84a22.335,22.335,0,0,0,1.524,7.528c2.987,7.6,9.207,11.764,13.927,9.3a8.837,8.837,0,0,0,4.093-5.646c.126,4.863-1.535,9.046-4.684,10.689-4.72,2.468-10.964-1.7-13.933-9.3A20.221,20.221,0,0,1,773.2,774.84Z" transform="translate(-129.344 -181.08)" fill="#6c6c6c"/>
    <path id="Path_23873" data-name="Path 23873" d="M792.948,808.29c-3.7,4.278-6.3,12.171-6.375,20.828-.084,9.112,10.51,14.991,16.054,17.44-.657,2.748-1.195,4.4-1.195,4.4s-19.472-6.393-19.352-18.737C782.193,820.365,787,809.957,792.948,808.29Z" transform="translate(-133.167 -194.545)" fill="#6c6c6c"/>
    <path id="Path_23874" data-name="Path 23874" d="M720.044,728.476l5.8,17.859,25.381,11.089-.179,3.68-27.341-9.685L713.49,725.28Z" transform="translate(-105.558 -161.131)" fill="#6c6c6c"/>
    <path id="Path_23875" data-name="Path 23875" d="M775.411,721.058s-2.169-26.4,0-30.561,7.642-3.86,8.622,3.716-.765,3.674-.974,2.611a4.641,4.641,0,0,1,.514-2.444s-.6-5.461-3.543-5.527-4.182,1.482-4.666,3.925-.269,18.384-.131,19.382.663,8.735.663,8.735S775.62,722.116,775.411,721.058Z" transform="translate(-130.094 -146.054)" fill="#6c6c6c"/>
    <path id="Path_23876" data-name="Path 23876" d="M797.373,709.574s-6.148-31.391-1.285-36.177,9.088-4.266,9.649-1.416-.245,7.211-1.386,5.586.4-2.181.4-2.181,1.942-2.73-1.518-3.525-6.572.311-7.367,4.666-.807,4.356-.651,9.386S798.15,709.3,798.15,709.3,798.341,710.25,797.373,709.574Z" transform="translate(-138.052 -138.806)" fill="#6c6c6c"/>
    <path id="Path_23877" data-name="Path 23877" d="M788.415,844c-.042.042-.078.09-.125.131h0Z" transform="translate(-135.667 -208.919)" fill="#6c6c6c"/>
    <path id="Path_23878" data-name="Path 23878" d="M730.447,885.921l-5.377-1.195,9.518-37.534,26.331-10.366c.227-.161-.364,3.967-.066,3.818l-24.1,7.958Z" transform="translate(-110.219 -206.03)" fill="#6c6c6c"/>
    <path id="Path_23879" data-name="Path 23879" d="M741.153,553.35s-2.031,13.007-10.1,16.622S714.416,572,711.93,566.434s2.031-13.007,10.1-16.622S741.153,553.35,741.153,553.35Z" transform="translate(-104.655 -90.091)" fill="#5673a8"/>
    <ellipse id="Ellipse_4366" data-name="Ellipse 4366" cx="8.837" cy="15.463" rx="8.837" ry="15.463" transform="matrix(0.214, -0.977, 0.977, 0.214, 620.742, 490.702)" fill="#5673a8"/>
    <path id="Path_23880" data-name="Path 23880" d="M785.692,592.972c4.469-4.147,14.823-.257,23.116,8.687s.831,28.679.831,28.679a74.212,74.212,0,0,1-17.022-13.664C784.317,607.729,781.223,597.1,785.692,592.972Z" transform="translate(-133.797 -107.206)" fill="#5673a8"/>
    <path id="Path_23881" data-name="Path 23881" d="M731.7,548.835a33.012,33.012,0,0,1,11.065,4.308s-2.031,13.007-10.1,16.622a21.8,21.8,0,0,1-7.534,1.9,20.153,20.153,0,0,0,11.507-1.691c8.072-3.585,10.1-16.622,10.1-16.622S738.968,548.321,731.7,548.835Z" transform="translate(-110.243 -90.093)" fill="#355585"/>
    <path id="Path_23882" data-name="Path 23882" d="M745.41,579.348a25.01,25.01,0,0,1,7.857.484c8.365,1.828,14.256,7.17,13.21,11.949-.436,2-2.037,3.585-4.35,4.595,4.81-.514,8.442-2.623,9.135-5.807,1.046-4.78-4.869-10.109-13.21-11.95C753.207,577.561,748.618,577.926,745.41,579.348Z" transform="translate(-118.406 -101.851)" fill="#355585"/>
    <path id="Path_23883" data-name="Path 23883" d="M788,592.567c5.1.257,11.949,4.027,17.775,10.312,6.13,6.614,3.651,19.119,1.942,25.19,2.24,1.5,3.674,2.282,3.674,2.282s7.463-19.717-.83-28.679C802.584,593.068,792.72,589.167,788,592.567Z" transform="translate(-135.55 -107.219)" fill="#355585"/>
    <path id="Path_23884" data-name="Path 23884" d="M824.135,611.2a7.492,7.492,0,0,1-.239.789c0,.054-.048.1-.066.155l10.444-18.109,29.127,18.3,1.081-5.975L835.057,589.63Z" transform="translate(-149.972 -106.529)" fill="#355585"/>
    <path id="Path_23885" data-name="Path 23885" d="M695.527,568.8s-25.207-10.522-31.828-7.17-12.1,14.393-5.24,18.127,4.636-.681,3.746-1.338-3.089.448-3.089.448-5.085-2.39-2.014-8.365,5.939-7.97,9.028-8.424,19.436,3.782,20.314,4.284,8.412,3.358,8.412,3.358S696.411,569.453,695.527,568.8Z" transform="translate(-82.134 -94.991)" fill="#355585"/>
    <path id="Path_23886" data-name="Path 23886" d="M692.292,547.458s-29.223-21.772-36.5-17.554-8.819,10-6.148,11.95,7.522,2.844,6.411.639-2.432-.43-2.432-.43-3.752,1.332-2.886-3.525,3.513-8.406,8.365-7.54,4.864.872,9.948,3.286,22.573,14.065,22.573,14.065S692.513,549.006,692.292,547.458Z" transform="translate(-79.365 -82.27)" fill="#355585"/>
    <path id="Path_23887" data-name="Path 23887" d="M844.67,585.478l-21.9-6.459-7.331,13.354-1.075-.239,6.722-15.743,23.134,4.8Z" transform="translate(-146.16 -101.199)" fill="#355585"/>
    <path id="Path_23888" data-name="Path 23888" d="M751.07,593.17l10.157,23.7,23.7-10.157-5.078-3.382-16.927,8.46-10.157-16.927Z" transform="translate(-120.685 -107.954)" fill="#355585"/>
    <path id="Path_23889" data-name="Path 23889" d="M765.24,558.471l13.545-10.157L770.318,528H775.4l6.769,20.314-15.236,11.848Z" transform="translate(-126.388 -81.721)" fill="#355585"/>
    <path id="Path_23890" data-name="Path 23890" d="M596.371,530s-2.2,17.327-14.937,17.865-19.717-26.385-32.264-10.091" transform="translate(-39.415 -82.526)" fill="none" stroke="#ffac43" stroke-linecap="round" stroke-miterlimit="10" stroke-width="2"/>
    <path id="Path_23891" data-name="Path 23891" d="M591.662,473.861S605.183,443.8,580.31,441" transform="translate(-51.95 -46.702)" fill="none" stroke="#ffac43" stroke-linecap="round" stroke-miterlimit="10" stroke-width="2"/>
    <path id="Path_23892" data-name="Path 23892" d="M735.18,424.689s13.658,10.5,22.764,1.792-5.025-32.551,14.979-30.137" transform="translate(-114.289 -28.658)" fill="none" stroke="#ffac43" stroke-linecap="round" stroke-miterlimit="10" stroke-width="2"/>
    <path id="Path_23893" data-name="Path 23893" d="M878.437,389.155s-30.364-11.316-15.271-31.1" transform="translate(-164.112 -13.312)" fill="none" stroke="#ffac43" stroke-linecap="round" stroke-miterlimit="10" stroke-width="2"/>
    <path id="Path_23894" data-name="Path 23894" d="M1048.071,488.58s-2.2,17.3-14.937,17.865-19.717-26.385-32.264-10.1" transform="translate(-221.235 -65.854)" fill="none" stroke="#ffac43" stroke-linecap="round" stroke-miterlimit="10" stroke-width="2"/>
    <path id="Path_23895" data-name="Path 23895" d="M488,408.421s13.521-30.071-11.388-32.861" transform="translate(-10.208 -20.361)" fill="none" stroke="#ffac43" stroke-linecap="round" stroke-miterlimit="10" stroke-width="2"/>
    <line id="Line_3169" data-name="Line 3169" x1="115.331" transform="translate(606.468 679.324)" fill="none" stroke="#b5b5b5" stroke-miterlimit="10" stroke-width="2"/>
    <path id="Path_23896" data-name="Path 23896" d="M939.157,566.9c-1.428-1.978-4.511.239-3.077,2.223A1.9,1.9,0,0,0,939.157,566.9Z" transform="translate(-195.006 -97.069)" fill="#e5e5e5"/>
    <path id="Path_23897" data-name="Path 23897" d="M989.157,516.9c-1.428-1.978-4.511.239-3.077,2.223A1.9,1.9,0,0,0,989.157,516.9Z" transform="translate(-215.132 -76.942)" fill="#e5e5e5"/>
    <path id="Path_23898" data-name="Path 23898" d="M912.3,528.8c1.392-2.008-1.721-4.182-3.119-2.169A1.9,1.9,0,0,0,912.3,528.8Z" transform="translate(-184.187 -80.847)" fill="#e5e5e5"/>
    <path id="Path_23899" data-name="Path 23899" d="M976.051,559.389c1.392-2.008-1.721-4.182-3.119-2.169A1.9,1.9,0,0,0,976.051,559.389Z" transform="translate(-209.848 -93.16)" fill="#e5e5e5"/>
    <path id="Path_23900" data-name="Path 23900" d="M1060.577,376.75c-1.428-1.978-4.511.239-3.077,2.223A1.9,1.9,0,0,0,1060.577,376.75Z" transform="translate(-243.88 -20.529)" fill="#f3f3f3"/>
    <path id="Path_23901" data-name="Path 23901" d="M983.721,388.649c1.392-2.008-1.721-4.182-3.119-2.169A1.9,1.9,0,0,0,983.721,388.649Z" transform="translate(-212.935 -24.433)" fill="#f3f3f3"/>
    <path id="Path_23902" data-name="Path 23902" d="M1047.471,419.239c1.392-2.008-1.721-4.182-3.119-2.169A1.9,1.9,0,0,0,1047.471,419.239Z" transform="translate(-238.596 -36.746)" fill="#f3f3f3"/>
    <path id="Path_23903" data-name="Path 23903" d="M830.577,375.75c-1.428-1.978-4.511.239-3.077,2.223A1.9,1.9,0,0,0,830.577,375.75Z" transform="translate(-151.3 -20.126)" fill="#e5e5e5"/>
    <path id="Path_23904" data-name="Path 23904" d="M753.721,387.649c1.392-2.008-1.721-4.182-3.119-2.169A1.9,1.9,0,0,0,753.721,387.649Z" transform="translate(-120.355 -24.031)" fill="#e5e5e5"/>
    <path id="Path_23905" data-name="Path 23905" d="M817.471,418.239c1.392-2.008-1.721-4.182-3.119-2.169A1.9,1.9,0,0,0,817.471,418.239Z" transform="translate(-146.016 -36.344)" fill="#e5e5e5"/>
    <path id="Path_23906" data-name="Path 23906" d="M655.577,457.75c-1.428-1.978-4.511.239-3.077,2.223A1.9,1.9,0,0,0,655.577,457.75Z" transform="translate(-80.858 -53.133)" fill="#e5e5e5"/>
    <path id="Path_23907" data-name="Path 23907" d="M578.721,469.649c1.392-2.008-1.721-4.182-3.119-2.169A1.9,1.9,0,0,0,578.721,469.649Z" transform="translate(-49.913 -57.038)" fill="#e5e5e5"/>
    <path id="Path_23908" data-name="Path 23908" d="M642.471,500.239c1.392-2.008-1.721-4.182-3.119-2.169A1.9,1.9,0,0,0,642.471,500.239Z" transform="translate(-75.574 -69.351)" fill="#e5e5e5"/>
    <path id="Path_23909" data-name="Path 23909" d="M619.577,487.75c-1.428-1.978-4.511.239-3.077,2.223A1.9,1.9,0,0,0,619.577,487.75Z" transform="translate(-66.367 -65.209)" fill="#e5e5e5"/>
    <path id="Path_23910" data-name="Path 23910" d="M542.721,499.649c1.392-2.008-1.721-4.182-3.119-2.169A1.9,1.9,0,0,0,542.721,499.649Z" transform="translate(-35.422 -69.113)" fill="#e5e5e5"/>
    <path id="Path_23911" data-name="Path 23911" d="M606.471,530.239c1.392-2.008-1.721-4.182-3.119-2.169A1.9,1.9,0,0,0,606.471,530.239Z" transform="translate(-61.083 -81.427)" fill="#e5e5e5"/>
    <path id="Path_23912" data-name="Path 23912" d="M531.577,430.75c-1.428-1.978-4.511.239-3.077,2.223A1.9,1.9,0,0,0,531.577,430.75Z" transform="translate(-30.945 -42.265)" fill="#f3f3f3"/>
    <path id="Path_23913" data-name="Path 23913" d="M454.721,442.649c1.392-2.008-1.721-4.182-3.119-2.169A1.9,1.9,0,0,0,454.721,442.649Z" transform="translate(0 -46.17)" fill="#f3f3f3"/>
    <path id="Path_23914" data-name="Path 23914" d="M518.471,473.239c1.392-2.008-1.721-4.182-3.119-2.169A1.9,1.9,0,0,0,518.471,473.239Z" transform="translate(-25.661 -58.483)" fill="#f3f3f3"/>
    <path id="Path_23915" data-name="Path 23915" d="M748.577,325.75c-1.428-1.978-4.511.239-3.077,2.223A1.9,1.9,0,0,0,748.577,325.75Z" transform="translate(-118.293 0)" fill="#f3f3f3"/>
    <path id="Path_23916" data-name="Path 23916" d="M671.721,337.649c1.392-2.008-1.721-4.182-3.119-2.169A1.9,1.9,0,0,0,671.721,337.649Z" transform="translate(-87.348 -3.904)" fill="#f3f3f3"/>
    <path id="Path_23917" data-name="Path 23917" d="M735.471,368.239c1.392-2.007-1.721-4.182-3.119-2.169A1.9,1.9,0,0,0,735.471,368.239Z" transform="translate(-113.009 -16.218)" fill="#e5e5e5"/>
    <path id="Path_23918" data-name="Path 23918" d="M1093.577,497.75c-1.428-1.978-4.511.239-3.077,2.223A1.9,1.9,0,0,0,1093.577,497.75Z" transform="translate(-257.164 -69.234)" fill="#f3f3f3"/>
    <path id="Path_23919" data-name="Path 23919" d="M1016.721,509.649c1.392-2.008-1.721-4.182-3.119-2.169A1.9,1.9,0,0,0,1016.721,509.649Z" transform="translate(-226.218 -73.139)" fill="#e5e5e5"/>
    <path id="Path_23920" data-name="Path 23920" d="M1080.471,540.239c1.392-2.008-1.721-4.182-3.119-2.169A1.9,1.9,0,0,0,1080.471,540.239Z" transform="translate(-251.879 -85.452)" fill="#f3f3f3"/>
    <path id="Path_23921" data-name="Path 23921" d="M1001.7,563.54s16.944,7.092,21.461,10.33,9.1,9.1,6.572,15.953,12.38,17.07,12.38,17.07-22.107-1.978-25.3-8.873-1.978-10.085-8.49-13.545-14.13-6.8-14.13-6.8l9.225-3.854Z" transform="translate(-218.55 -96.027)" fill="#24c0a0"/>
    <line id="Line_3170" data-name="Line 3170" x1="46.615" y2="83.557" transform="translate(746.851 470.064)" fill="none" stroke="#000" stroke-linecap="round" stroke-miterlimit="10" stroke-width="3.26"/>
    <path id="Path_23922" data-name="Path 23922" d="M452.31,594.866s9.679-15.612,13.593-19.561,10.42-7.552,16.783-3.955,18.815-9.53,18.815-9.53-5.449,21.551-12.756,23.582-10.277.358-14.716,6.244-8.962,12.864-8.962,12.864l-2.33-9.721Z" transform="translate(-0.427 -95.335)" fill="#5673a8"/>
    <line id="Line_3171" data-name="Line 3171" x2="75.157" y2="59.222" transform="translate(456.03 489.751)" fill="none" stroke="#000" stroke-linecap="round" stroke-miterlimit="10" stroke-width="3.26"/>
    <path id="Path_23923" data-name="Path 23923" d="M553.664,675.928s-9.56-5.975-5.377-9.56,8.962,4.182,8.365,5.377a3.184,3.184,0,0,1-1.96,1.512S552.469,672.941,553.664,675.928Z" transform="translate(-38.633 -137.04)" fill="#6c6c6c"/>
    <path id="Path_23924" data-name="Path 23924" d="M954.536,671.8s5.377-1.195,6.572,1.195-.6,5.975-.6,5.975l-4.182,3.585s.6-4.182-.6-4.182-.711,1.117-.711,1.117-1.081,1.87-1.679-.52S950.951,674.189,954.536,671.8Z" transform="translate(-201.71 -139.483)" fill="#6c6c6c"/>
  </g>
</svg>
