<svg version="1.1" id="Layer_1" xmlns="http://www.w3.org/2000/svg" xmlns:xlink="http://www.w3.org/1999/xlink" x="0px" y="0px"
	 viewBox="0 0 36 36" style="enable-background:new 0 0 36 36;" xml:space="preserve">
<style type="text/css">
	.st0{fill:#B7B7B7;}
</style>
<path id="Path_1103" class="a" d="M7.1,3.7l-2.2,2C4.1,6.4,4,7.7,4.7,8.5l1.1,1.3C5.1,11,4.4,12.3,4,13.7l-1.7-0.1
	c-1.1-0.1-2.1,0.8-2.1,1.9l-0.2,3c-0.1,1.1,0.8,2.1,1.9,2.1l1.7,0.1c0.3,1.4,0.8,2.8,1.5,4.1L3.8,26c-0.8,0.7-0.9,2-0.2,2.9l2,2.2
	c0.7,0.8,2,0.9,2.9,0.2l1.3-1.1c1.2,0.8,2.5,1.5,3.9,1.9l-0.1,1.7c-0.1,1.1,0.8,2.1,1.9,2.1l3,0.2c1.1,0.1,2.1-0.8,2.1-1.9l0.1-1.7
	c1.4-0.3,2.8-0.8,4.1-1.5l1.1,1.3c0.7,0.8,2,0.9,2.9,0.1l2.2-2c0.8-0.7,0.9-2,0.2-2.9l-1.1-1.3c0.8-1.2,1.5-2.5,1.9-3.9l1.7,0.1
	c1.1,0.1,2.1-0.8,2.1-1.9l0.2-3c0.1-1.1-0.8-2.1-1.9-2.1l-1.7-0.1c-0.3-1.4-0.8-2.8-1.5-4.1l1.3-1.1c0.8-0.7,0.9-2,0.2-2.9l-2-2.2
	c-0.7-0.8-2-0.9-2.9-0.2l-1.3,1.1C25,5.1,23.7,4.4,22.3,4l0.1-1.7c0.1-1.1-0.8-2.1-1.9-2.1l-3-0.2c-1.1-0.1-2.1,0.8-2.1,1.9
	l-0.1,1.7c-1.4,0.3-2.8,0.8-4.1,1.5L10,3.8C9.2,3,7.9,2.9,7.1,3.7L7.1,3.7z M11.6,10.8c4-3.6,10-3.2,13.6,0.7c3.6,4,3.2,10-0.7,13.6
	s-10,3.2-13.6-0.7c0,0,0,0,0,0C7.3,20.5,7.6,14.4,11.6,10.8z"/>
<circle id="Ellipse_418" class="a" cx="18" cy="18" r="5"/>
</svg>
