<svg xmlns="http://www.w3.org/2000/svg" width="17.206" height="15.545" viewBox="0 0 17.206 15.545">
  <g id="smile" transform="translate(0.05 0.05)">
    <g id="Group_1645" data-name="Group 1645">
      <g id="Group_1644" data-name="Group 1644">
        <path id="Path_1024" data-name="Path 1024" d="M7.646,0a7.62,7.62,0,1,0,7.646,7.62A7.633,7.633,0,0,0,7.646,0Zm0,14.151A6.531,6.531,0,1,1,14.2,7.62,6.543,6.543,0,0,1,7.646,14.151Z" fill="#606060" stroke="#606060" stroke-width="0.1"/>
      </g>
    </g>
    <g id="Group_1647" data-name="Group 1647" transform="translate(3.825 5.468)">
      <g id="Group_1646" data-name="Group 1646">
        <circle id="Ellipse_410" data-name="Ellipse 410" cx="1.054" cy="1.054" r="1.054" fill="#606060" stroke="#606060" stroke-width="0.2"/>
      </g>
    </g>
    <g id="Group_1649" data-name="Group 1649" transform="translate(9.29 5.468)">
      <g id="Group_1648" data-name="Group 1648">
        <circle id="Ellipse_411" data-name="Ellipse 411" cx="1.054" cy="1.054" r="1.054" fill="#606060" stroke="#606060" stroke-width="0.2"/>
      </g>
    </g>
    <g id="Group_1651" data-name="Group 1651" transform="translate(5.483 9.27)">
      <g id="Group_1650" data-name="Group 1650">
        <path id="Path_1025" data-name="Path 1025" d="M174.33,289.961a.527.527,0,0,0-.738-.107l-.029.024h0a2.121,2.121,0,0,1-2.5,0,.527.527,0,0,0-.689.8l.029.024a3.147,3.147,0,0,0,3.822,0A.527.527,0,0,0,174.33,289.961Z" transform="translate(-170.189 -289.75)" fill="#606060" stroke="#606060" stroke-width="0.2"/>
      </g>
    </g>
    <g id="Group_1652" data-name="Group 1652" transform="translate(10.542 8.881)">
      <path id="Path_334" data-name="Path 334" d="M3.307,0A3.307,3.307,0,1,0,6.614,3.307,3.307,3.307,0,0,0,3.307,0ZM4.664,3.757H3.757v.907a.45.45,0,0,1-.9,0V3.757H1.95a.45.45,0,0,1-.45-.45h0a.45.45,0,0,1,.45-.45h.907V1.95a.45.45,0,1,1,.9,0v.907h.907a.45.45,0,1,1,0,.9Z" transform="translate(0)" fill="#606060"/>
      <path id="Path_335" data-name="Path 335" d="M8.83,7.924H7.924V8.83a.45.45,0,0,1-.9,0V7.924H6.117a.45.45,0,0,1-.45-.45h0a.45.45,0,0,1,.45-.45h.907V6.117a.45.45,0,0,1,.9,0v.907H8.83a.45.45,0,0,1,0,.9Z" transform="translate(-4.167 -4.167)" fill="#fff"/>
    </g>
  </g>
</svg>
