<svg xmlns="http://www.w3.org/2000/svg" width="20.48" height="7.32" viewBox="0 0 20.48 7.32">
  <path
    d="M3.18.16a7.344,7.344,0,0,1-1.7-.2A4.544,4.544,0,0,1,.13-.56L.89-2.28a4.846,4.846,0,0,0,1.12.465A4.378,4.378,0,0,0,3.2-1.64a1.844,1.844,0,0,0,.7-.095.305.305,0,0,0,.21-.285q0-.22-.275-.33a5.914,5.914,0,0,0-.9-.24,10.263,10.263,0,0,1-1.35-.365A2.3,2.3,0,0,1,.64-3.6a1.736,1.736,0,0,1-.4-1.2A2.076,2.076,0,0,1,.61-6a2.444,2.444,0,0,1,1.105-.85A4.59,4.59,0,0,1,3.5-7.16a6.481,6.481,0,0,1,1.415.155A4.433,4.433,0,0,1,6.14-6.55L5.43-4.84a4.34,4.34,0,0,0-1.95-.52q-.91,0-.91.44,0,.21.27.315a5.718,5.718,0,0,0,.89.225,9.152,9.152,0,0,1,1.35.345,2.349,2.349,0,0,1,.955.635A1.7,1.7,0,0,1,6.44-2.2,2.053,2.053,0,0,1,6.07-1a2.491,2.491,0,0,1-1.105.85A4.525,4.525,0,0,1,3.18.16Zm6.57,0a7.344,7.344,0,0,1-1.695-.2A4.544,4.544,0,0,1,6.7-.56l.76-1.72a4.846,4.846,0,0,0,1.12.465,4.378,4.378,0,0,0,1.19.175,1.844,1.844,0,0,0,.7-.095.305.305,0,0,0,.21-.285q0-.22-.275-.33a5.914,5.914,0,0,0-.9-.24,10.263,10.263,0,0,1-1.35-.365,2.3,2.3,0,0,1-.94-.64,1.736,1.736,0,0,1-.4-1.2A2.076,2.076,0,0,1,7.18-6a2.444,2.444,0,0,1,1.105-.85,4.59,4.59,0,0,1,1.785-.31,6.481,6.481,0,0,1,1.415.155,4.433,4.433,0,0,1,1.225.455L12-4.84a4.34,4.34,0,0,0-1.95-.52q-.91,0-.91.44,0,.21.27.315a5.718,5.718,0,0,0,.89.225,9.152,9.152,0,0,1,1.35.345A2.349,2.349,0,0,1,12.6-3.4a1.7,1.7,0,0,1,.405,1.2A2.053,2.053,0,0,1,12.64-1a2.491,2.491,0,0,1-1.105.85A4.525,4.525,0,0,1,9.75.16ZM20.61-7V0H18.67L16.01-3.18V0h-2.3V-7h1.94l2.66,3.18V-7Z"
    transform="translate(-0.13 7.16)" fill="#606060"/>
</svg>
