<svg xmlns="http://www.w3.org/2000/svg" width="26" height="26" viewBox="0 0 26 26">
  <path id="star" d="M25.931,10.32a1.394,1.394,0,0,0-1.188-.99l-7.505-.711L14.271,1.372a1.361,1.361,0,0,0-2.543,0L8.763,8.619,1.256,9.33a1.4,1.4,0,0,0-1.188.99,1.485,1.485,0,0,0,.4,1.533l5.674,5.191L4.471,24.733a1.474,1.474,0,0,0,.537,1.489,1.331,1.331,0,0,0,1.519.07L13,22.254l6.471,4.038a1.334,1.334,0,0,0,1.52-.07,1.474,1.474,0,0,0,.537-1.489l-1.673-7.688,5.674-5.191a1.485,1.485,0,0,0,.4-1.533ZM13.124,22.176" transform="translate(0 -0.496)" fill="#D1D1D1" opacity="0.7"/>
</svg>
