<svg xmlns="http://www.w3.org/2000/svg" width="31.999" height="32.002" viewBox="0 0 31.999 32.002"><defs><style>.a{fill:#dadada;}</style></defs><path class="a" d="M-8186-10334a15.892,15.892,0,0,1-11.314-4.687A15.9,15.9,0,0,1-8202-10350a15.9,15.9,0,0,1,4.686-11.313A15.892,15.892,0,0,1-8186-10366a15.89,15.89,0,0,1,11.313,4.687A15.9,15.9,0,0,1-8170-10350a15.9,15.9,0,0,1-4.687,11.315A15.89,15.89,0,0,1-8186-10334Zm-1.845-24.221a.518.518,0,0,0-.077.006,8.789,8.789,0,0,0-5.487,3.057,8.926,8.926,0,0,0-2.086,6.062,8.87,8.87,0,0,0,2.723,6.067,8.725,8.725,0,0,0,6.1,2.528h.106a8.7,8.7,0,0,0,4.974-1.634.556.556,0,0,0,.231-.414.611.611,0,0,0-.174-.481l-5.729-5.783v-8.806A.6.6,0,0,0-8187.845-10358.22Zm3.023,9.407h0l5.812,5.864a.6.6,0,0,0,.427.177.567.567,0,0,0,.388-.151,8.967,8.967,0,0,0,2.69-5.229.567.567,0,0,0-.138-.452.6.6,0,0,0-.453-.209Zm-.1-10.688a.6.6,0,0,0-.578.6v8.3h8.226a.6.6,0,0,0,.44-.192.57.57,0,0,0,.156-.432,8.948,8.948,0,0,0-2.568-5.687,8.8,8.8,0,0,0-5.637-2.593Z" transform="translate(8201.999 10366.001)"/></svg>