<svg xmlns="http://www.w3.org/2000/svg" width="95.26" height="96.903" viewBox="0 0 95.26 96.903">
  <g id="Group_3782" data-name="Group 3782" transform="translate(-635.37 -336.041)">
    <path id="Path_1992" data-name="Path 1992" d="M677.226,400.839a2.263,2.263,0,0,0,1.585-.738l25.576-28.167a2.252,2.252,0,1,0-3.335-3.027l-23.973,26.4L664.9,382.922a2.232,2.232,0,0,0-1.586-.652h0a2.239,2.239,0,0,0-1.594.66,2.265,2.265,0,0,0-.027,3.162l13.844,14.073a2.267,2.267,0,0,0,1.554.674l.054,0Z" fill="#24c1a1"/>
    <g id="Group_3775" data-name="Group 3775">
      <path id="Path_1989" data-name="Path 1989" d="M682.973,337.684a47.63,47.63,0,1,0,.054,0l-.054-1.643h0Zm43.239,47.658a43.22,43.22,0,0,1-43.2,43.24h-.038a43.24,43.24,0,1,1,43.239-43.241h0Z" fill="#24c1a1"/>
    </g>
  </g>
</svg>
