<svg xmlns="http://www.w3.org/2000/svg" width="17.999" height="17.279" viewBox="0 0 17.999 17.279">
  <g id="Group_16352" data-name="Group 16352" transform="translate(-1324.958 -259.003)">
    <path id="Path_11011" data-name="Path 11011" d="M3.382,224a1.881,1.881,0,0,1,1.879,1.879v6.012a1.881,1.881,0,0,1-1.879,1.879H1.127A1.865,1.865,0,0,1,0,233.39V224Z" transform="translate(1337.697 42.512)" fill="#24c1a1"/>
    <path id="Path_11012" data-name="Path 11012" d="M170.667,21a1.666,1.666,0,0,1,.489-1.183,1.865,1.865,0,0,1-.481-1.434,1.942,1.942,0,0,1,1.96-1.7h4.642a10.8,10.8,0,0,1-.6-3.005c0-1.63,1.385-3.005,2.254-3.005a2.364,2.364,0,0,1,1.362.458.378.378,0,0,1,.141.294v2.548l2.164,4.687.09.046v8.052a4.924,4.924,0,0,1-1.879.444h-6.9a1.728,1.728,0,0,1-1.7-1.312,1.69,1.69,0,0,1,.136-1.128,1.683,1.683,0,0,1-.752-2.255A1.682,1.682,0,0,1,170.667,21Z" transform="translate(1154.291 248.336)" fill="#24c1a1"/>
  </g>
</svg>
