<svg xmlns="http://www.w3.org/2000/svg" width="19.827" height="26.158" viewBox="0 0 19.827 26.158">
  <g id="Group_19163" data-name="Group 19163" transform="translate(0.697 0.511)">
    <path id="Path_10806" data-name="Path 10806" d="M2.726.249,14.392,0c-.03,1.488-.06,2.961-.091,4.459l1.2-.241c.007.078.016.143.016.208s-.03.128-.012.183A5.955,5.955,0,0,1,15.4,6.961a1.594,1.594,0,0,0,.966,1.659c.227.116.454.232.684.342a3.889,3.889,0,0,1,1.564,1.617.471.471,0,0,1,0,.379c-.042.105-.172.181-.263.269a1.888,1.888,0,0,1-.263-.235,2.132,2.132,0,0,1-.178-.327l-.119.034a2.281,2.281,0,0,0,.122.454c.1.195.246.367.349.56a.409.409,0,0,1-.135.553,2.616,2.616,0,0,0-.345.541,1.245,1.245,0,0,1-.181.181,1.846,1.846,0,0,1-.173-.2,5.173,5.173,0,0,0-.3-.491c-.108-.133-.234-.1-.3.058-.041.1-.056.211-.106.307a.91.91,0,0,1-.167.18c-.061-.067-.16-.127-.175-.2a.966.966,0,0,1,.223-.826.452.452,0,0,0,.1-.31,1.249,1.249,0,0,1,.206-.86,1.542,1.542,0,0,0,.076-1.377c-.1.138-.185.23-.248.33-.1.163-.262.186-.353.018A1.926,1.926,0,0,1,16.3,9.2a1.158,1.158,0,0,0-.126-.236c-.07.069-.2.144-.2.207a1.3,1.3,0,0,0,.155.492,1.151,1.151,0,0,0,.284.257.681.681,0,0,1,.027,1.045c-.042-.063-.1-.116-.11-.172-.028-.307-.269-.406-.537-.466a.414.414,0,0,1-.361-.339,2.2,2.2,0,0,0-.423-.593c-.026-.035-.059-.066-.083-.1-.012-.018-.005-.047-.016-.067a1.821,1.821,0,0,1-.2-.937,1.4,1.4,0,0,0-.368-.736A.526.526,0,0,1,14.3,6.9a4.489,4.489,0,0,0,.319-.651.551.551,0,0,0-.112-.636c-.085.24-.159.457-.239.673-.064.175-.134.347-.2.521-.059.148-.14.267-.374.187a.7.7,0,0,0,.3.625c.21.133.265.286.136.491a.184.184,0,0,0-.038.108A2.571,2.571,0,0,0,14.4,9.468a.262.262,0,0,1,.012.179,2.731,2.731,0,0,0-.074.332c-.013.343.082.429.461.466a.992.992,0,0,1,.4.114.931.931,0,0,1-.23.1c-.2.028-.263.115-.233.3a.792.792,0,0,1-.139.678c-.076.093-.062.249-.086.376s.019.27-.18.273c-.132,0-.366-.264-.316-.362.129-.251-.036-.269-.235-.286-.433-.037-.864-.079-1.341-.124a5.053,5.053,0,0,0,.046.6c.038.2.146.237.345.151a.481.481,0,0,1,.665.379,4.713,4.713,0,0,0,.016.554c.022.182.077.362.119.554l-.291.073c.021.034.027.059.044.069.361.205.362.225.053.476a.206.206,0,0,0-.084.149c.005.034.094.059.146.087.078.043.225.091.222.128-.009.1-.053.265-.131.294-.305.113-.629.182-.946.268-.071.019-.2.033-.2.064a.271.271,0,0,0,.057.226,2.664,2.664,0,0,1,.776,1.965.373.373,0,0,1-.045.2,1.3,1.3,0,0,0-.067,1.034c.045.16.115.333-.183.382-.049.008-.119.247-.074.332.116.217-.038.385-.063.574,0,.034-.079.068-.127.088-.454.185-.525.293-.426.727a.766.766,0,0,1-.138.659c-.113.152-.237.3-.357.446A.97.97,0,0,0,11.542,23a1.782,1.782,0,0,1-.312-.123,4.828,4.828,0,0,0-.454-.34c-.19-.1-.209-.233-.062-.322a.746.746,0,0,0,.317-1.043.912.912,0,0,1-.03-.2c0-.007-.008-.013-.014-.024a.2.2,0,0,0-.263.173c-.117.406-.236.811-.367,1.212a.249.249,0,0,1-.173.117c-.684.114-1.372.209-2.054.328a6.969,6.969,0,0,0-2.36.821,4.174,4.174,0,0,1-1.721.517c-.69.075-1.378.177-2.063.285a2.128,2.128,0,0,0-.535.186c-.216.1-.42.219-.658.344-.079-.226-.233-.2-.4-.133a.425.425,0,0,1-.165.051.813.813,0,0,1-.2-.057c.031-.065.044-.165.1-.188a.948.948,0,0,1,.34-.061.549.549,0,0,0,.511-.309,1.2,1.2,0,0,1,.338-.357c.27-.2.329-.322.2-.615a1.034,1.034,0,0,1-.061-.743.957.957,0,0,0-.082-.74.489.489,0,0,1,.082-.661.825.825,0,0,1,.836-.234c.263.093.28.071.282-.215q.048-6.329.1-12.658Q2.7,4.247,2.727.482C2.726.416,2.726.347,2.726.249Z" transform="translate(-0.03)" fill="#dadada" stroke="rgba(0,0,0,0)" stroke-width="1"/>
  </g>
</svg>
