<svg xmlns="http://www.w3.org/2000/svg" width="89" height="49" viewBox="0 0 89 49">
  <g id="Small" transform="translate(0 0.001)">
    <path id="Path_1223" data-name="Path 1223" d="M-2229.093-612.465a7.245,7.245,0,0,1,2.964-4.209h-2.918l-1.773,1.194v6.466l.8.682v-.021l.016.014Z" transform="translate(2230.821 653.343)" fill="#b7b7b7"/>
    <path id="Path_1224" data-name="Path 1224" d="M-2214.507-616.121h-2.672l2.907-.65a.529.529,0,0,0,.412-.47.465.465,0,0,0-.014-.151.529.529,0,0,0-.638-.389l-6.958,1.553-.472.106a7.254,7.254,0,0,1,3.025,4.455h1.382A7.246,7.246,0,0,1-2214.507-616.121Z" transform="translate(2235.192 652.854)" fill="#b7b7b7"/>
    <path id="Path_1225" data-name="Path 1225" d="M-2194.3-641.429c-.548-.028-1.057-.045-1.525-.056h-.372a1.927,1.927,0,0,0-1.378.546,1.9,1.9,0,0,0-.574,1.359v30.212a3.246,3.246,0,0,0,2.93,2.948v.024h.445v1.655h-16.442a7.186,7.186,0,0,1,3.024,4.421h.469c.031.19.054.381.071.572a13.384,13.384,0,0,1,.046,1.617h1.271a6.505,6.505,0,0,0-.016-1.856h1.881v2.432a.578.578,0,0,0,.586.569c1.209,0,3.858.014,3.875,0a3.481,3.481,0,0,1,0,.515h24.069a7.767,7.767,0,0,1-.442-2.6,7.865,7.865,0,0,1,7.879-7.852,7.883,7.883,0,0,1,7.111,4.469l.084.187c.023.047.042.1.063.145.033.077.065.154.1.233h0v.023c.037.09.07.182.1.275h0a11.826,11.826,0,0,1,.414,2.691,31.143,31.143,0,0,1,0,3.462v.03h.27c4.931-.088,7.155-1.066,8.144-1.807a1.884,1.884,0,0,0,.752-1.5v-3.149l-.056-.581h.026s-.266-4.168-.77-6.907a4.5,4.5,0,0,0-2.751-3.483,129.786,129.786,0,0,0-15.535-4.17h0l-4.2-7.359,1.555-.063h.2c.691,0,1.147-.385.448-1.067l-.729-.682a4.171,4.171,0,0,0-1.335-.84,4.3,4.3,0,0,0-1.562-.294l-.948-1.4c-4.941-9.507-8.276-10.877-8.276-10.877a22.728,22.728,0,0,0-8.9-1.827m9.1,24.819a1.683,1.683,0,0,1-1.5-1.648v-5.217a.924.924,0,0,1,.288-.658.937.937,0,0,1,.674-.257l7.975.1a1.6,1.6,0,0,1,1.426.9l3.441,7.726Zm31.717,9.336a35.719,35.719,0,0,0-6.007-3.34c-2.323-1.184-2.44-2.155-2.44-2.155a48.672,48.672,0,0,1,6.493,2.386,3.671,3.671,0,0,1,1.964,3.095Z" transform="translate(2240.47 641.484)" fill="#b7b7b7"/>
    <path id="Path_1226" data-name="Path 1226" d="M-2180.42-616.97a6.478,6.478,0,0,0-6.569,6.385,6.479,6.479,0,0,0,6.569,6.389,6.483,6.483,0,0,0,6.569-6.389,6.48,6.48,0,0,0-6.569-6.385Z" transform="translate(2252.397 653.194)" fill="#b7b7b7"/>
    <path id="Path_1227" data-name="Path 1227" d="M-2211.921-616.97a6.479,6.479,0,0,0-6.568,6.385,6.481,6.481,0,0,0,6.568,6.389,6.48,6.48,0,0,0,6.567-6.389A6.479,6.479,0,0,0-2211.921-616.97Z" transform="translate(2236.892 653.194)" fill="#b7b7b7"/>
    <path id="Path_1228" data-name="Path 1228" d="M-2220.242-616.528a6.718,6.718,0,0,0-2.405-.442,6.71,6.71,0,0,0-2.406.442,6.394,6.394,0,0,0-4.162,5.943,6.482,6.482,0,0,0,6.568,6.389,6.481,6.481,0,0,0,6.569-6.389,6.4,6.4,0,0,0-4.163-5.943Z" transform="translate(2231.613 653.194)" fill="#b7b7b7"/>
  </g>
</svg>
