<svg xmlns="http://www.w3.org/2000/svg" width="108" height="17" viewBox="0 0 108 17">
  <g id="Bank-of-America-Logo-Featured" transform="translate(0 -163.644)">
    <g id="_0a51a1ff" data-name="#0a51a1ff" transform="translate(0 168.157)">
      <path id="Path_1513" data-name="Path 1513" d="M344.342,168.264a2.7,2.7,0,0,1,2.206-.323c0,.447,0,.894,0,1.341-.3-.043-.719-.1-.906.208a2.7,2.7,0,0,0-.055.839c.32,0,.642,0,.963,0,0,.406,0,.813,0,1.219h-.96q0,2.121,0,4.243c-.579,0-1.159,0-1.737,0q-.006-2.121,0-4.243c-.24,0-.48,0-.719,0,0-.406,0-.813,0-1.219.239,0,.479,0,.718,0A2.673,2.673,0,0,1,344.342,168.264Z" transform="translate(-314.653 -167.859)" fill="#0a51a1"/>
      <path id="Path_1514" data-name="Path 1514" d="M0,169.8c1.024,0,2.047,0,3.072,0a2.39,2.39,0,0,1,1.826.766,1.84,1.84,0,0,1,.242,1.916A2.112,2.112,0,0,1,4.03,173.5a2.728,2.728,0,0,1,.851.514,2.067,2.067,0,0,1,.024,2.919,2.787,2.787,0,0,1-1.916.644c-1,0-1.993,0-2.989,0V169.8m1.881,1.4c0,.559.008,1.119,0,1.678a2.691,2.691,0,0,0,1.222-.107.855.855,0,0,0-.118-1.529,4.836,4.836,0,0,0-1.1-.043m0,3c.007.644,0,1.287,0,1.931a3.139,3.139,0,0,0,1.233-.1,1.006,1.006,0,0,0-.062-1.755A3.4,3.4,0,0,0,1.88,174.2Z" transform="translate(0 -169.637)" fill="#0a51a1"/>
      <path id="Path_1515" data-name="Path 1515" d="M205.664,169.8h1.762c.007,1.321-.013,2.641.01,3.962.444-.542.876-1.1,1.307-1.649.582-.011,1.164,0,1.745-.006q-.728.835-1.461,1.667c.488,1.265.968,2.533,1.461,3.8-.607.013-1.213,0-1.821.006-.291-.8-.566-1.606-.866-2.4a2.014,2.014,0,0,0-.368.481c-.021.64,0,1.281-.007,1.922q-.881,0-1.761,0Q205.661,173.69,205.664,169.8Z" transform="translate(-188.595 -169.64)" fill="#0a51a1"/>
      <path id="Path_1516" data-name="Path 1516" d="M401.189,169.8c.856-.01,1.71,0,2.566,0,.534,2.594,1.09,5.184,1.62,7.78-.623-.01-1.247,0-1.871-.006-.1-.523-.2-1.044-.295-1.569-.6-.027-1.2-.008-1.8-.011-.124.525-.239,1.053-.36,1.58-.559.006-1.117-.005-1.675.008.588-2.6,1.212-5.184,1.809-7.777m.477,4.832h1.254c-.188-1.066-.335-2.144-.577-3.2C402.088,172.492,401.885,173.564,401.666,174.63Z" transform="translate(-366.235 -169.631)" fill="#0a51a1"/>
      <path id="Path_1517" data-name="Path 1517" d="M687.844,169.8h1.765c0,.529,0,1.058,0,1.588q-.881,0-1.761,0C687.839,170.862,687.844,170.332,687.844,169.8Z" transform="translate(-630.757 -169.64)" fill="#0a51a1"/>
      <path id="Path_1518" data-name="Path 1518" d="M72.526,196.068a3.012,3.012,0,0,1,2.486-.142,1.506,1.506,0,0,1,1.02,1.333c.018,1.112,0,2.227.009,3.339a2.294,2.294,0,0,0,.129.743c-.6-.015-1.2,0-1.792-.008-.017-.161-.032-.322-.047-.483a2.52,2.52,0,0,1-.922.537,1.523,1.523,0,0,1-1.6-.486,1.744,1.744,0,0,1-.262-1.46,1.781,1.781,0,0,1,.922-1.085,5.066,5.066,0,0,1,1.807-.517,2.119,2.119,0,0,0-.062-.779.484.484,0,0,0-.738-.1,1.011,1.011,0,0,0-.239.6c-.51-.128-1.028-.214-1.536-.347a1.776,1.776,0,0,1,.827-1.148m1.061,2.836a.943.943,0,0,0-.325,1.117.553.553,0,0,0,1.017-.261c0-.355,0-.71,0-1.065A1.7,1.7,0,0,0,73.588,198.9Z" transform="translate(-65.557 -193.396)" fill="#0a51a1"/>
      <path id="Path_1519" data-name="Path 1519" d="M140.322,196.415a2.264,2.264,0,0,1,1.2-.657,1.292,1.292,0,0,1,1.322.419,2.123,2.123,0,0,1,.246,1.332q0,1.913,0,3.825c-.589,0-1.178,0-1.768,0q0-1.873,0-3.746c.009-.2-.058-.461-.291-.486a.718.718,0,0,0-.676.308c.007,1.309,0,2.618,0,3.927q-.88,0-1.762,0c0-1.822,0-3.643,0-5.465.573,0,1.145-.013,1.717.006Q140.313,196.145,140.322,196.415Z" transform="translate(-127.088 -193.396)" fill="#0a51a1"/>
      <path id="Path_1520" data-name="Path 1520" d="M280.91,195.492a2.583,2.583,0,0,1,2.077.38,2.547,2.547,0,0,1,.914,1.568,4.17,4.17,0,0,1-.2,2.372,2.142,2.142,0,0,1-1.461,1.275,2.642,2.642,0,0,1-2.27-.418,2.713,2.713,0,0,1-.865-1.84,3.751,3.751,0,0,1,.437-2.378,2.14,2.14,0,0,1,1.365-.96m.349,1.112c-.331.26-.318.741-.349,1.126a6.105,6.105,0,0,0,.155,2,.5.5,0,0,0,.745.251.943.943,0,0,0,.284-.593,9.174,9.174,0,0,0,.059-1.668,2.208,2.208,0,0,0-.2-.969A.514.514,0,0,0,281.259,196.6Z" transform="translate(-255.917 -193.121)" fill="#0a51a1"/>
      <path id="Path_1521" data-name="Path 1521" d="M480.345,196.406a2.239,2.239,0,0,1,1.876-.65,1.143,1.143,0,0,1,.779.674,2.166,2.166,0,0,1,1.872-.679,1.14,1.14,0,0,1,.93,1.16q.006,2.209,0,4.417c-.578,0-1.157,0-1.734,0,0-1.223,0-2.445,0-3.667,0-.2,0-.472-.222-.548-.331-.107-.849.149-.773.547q.006,1.835,0,3.671-.866,0-1.734,0c-.007-1.251,0-2.5,0-3.755,0-.168-.026-.391-.208-.458a.769.769,0,0,0-.785.284c.012,1.309,0,2.617.007,3.925-.579.005-1.159,0-1.738,0,0-1.821,0-3.642,0-5.463.572-.009,1.144-.013,1.715,0C480.33,196.048,480.339,196.227,480.345,196.406Z" transform="translate(-438.889 -193.389)" fill="#0a51a1"/>
      <path id="Path_1522" data-name="Path 1522" d="M575.927,195.527a2.274,2.274,0,0,1,2.207.43,3.525,3.525,0,0,1,.826,2.739q-1.478,0-2.954,0c.005.461.086,1.06.568,1.257a.911.911,0,0,0,1.139-.7l1.171.41a2.267,2.267,0,0,1-1.287,1.341,2.583,2.583,0,0,1-1.988-.079,2.4,2.4,0,0,1-1.2-1.529,3.9,3.9,0,0,1,.141-2.6,2.244,2.244,0,0,1,1.381-1.271m.353,1.178a1.422,1.422,0,0,0-.275.926c.445,0,.889.018,1.335.013a1.662,1.662,0,0,0-.177-.88A.575.575,0,0,0,576.28,196.706Z" transform="translate(-526.59 -193.114)" fill="#0a51a1"/>
      <path id="Path_1523" data-name="Path 1523" d="M641.376,196.524a2.111,2.111,0,0,1,1.74-.884c0,.593,0,1.185,0,1.779a1.728,1.728,0,0,0-1.4.037c-.133.088-.307.195-.281.381-.006,1.14,0,2.281,0,3.421q-.879,0-1.759,0c0-1.82,0-3.641,0-5.461.572-.012,1.144-.011,1.716,0C641.382,196.039,641.381,196.281,641.376,196.524Z" transform="translate(-586.583 -193.318)" fill="#0a51a1"/>
      <path id="Path_1524" data-name="Path 1524" d="M719.29,196.034a2.353,2.353,0,0,1,2.806-.321,2.377,2.377,0,0,1,.965,1.862c-.508.028-1.016.005-1.524.015a1.563,1.563,0,0,0-.224-.929.511.511,0,0,0-.835.143,3.983,3.983,0,0,0-.187,1.559,2.963,2.963,0,0,0,.216,1.379.566.566,0,0,0,.912.013,1.526,1.526,0,0,0,.2-.832c.457.063.913.13,1.37.19a2.238,2.238,0,0,1-.779,1.614,2.357,2.357,0,0,1-3.272-.569,3.387,3.387,0,0,1-.406-2.723A2.979,2.979,0,0,1,719.29,196.034Z" transform="translate(-658.79 -193.09)" fill="#0a51a1"/>
      <path id="Path_1525" data-name="Path 1525" d="M780.284,196.042a3.035,3.035,0,0,1,2.435-.115,1.5,1.5,0,0,1,1.021,1.33c.017,1.113,0,2.228.009,3.342a2.829,2.829,0,0,0,.115.743c-.592-.013-1.185,0-1.777-.008-.017-.162-.034-.323-.047-.486a2.316,2.316,0,0,1-1.049.567,1.522,1.522,0,0,1-1.487-.5,1.665,1.665,0,0,1,.14-2.163,4.029,4.029,0,0,1,2.343-.909,2.1,2.1,0,0,0-.074-.772.488.488,0,0,0-.771-.07,1.181,1.181,0,0,0-.218.562c-.506-.115-1.017-.209-1.519-.343a1.787,1.787,0,0,1,.878-1.173m.964,2.9a.96.96,0,0,0-.278,1.083c.227.511,1.126.191,1.019-.342,0-.329,0-.658,0-.987A1.64,1.64,0,0,0,781.248,198.939Z" transform="translate(-714.506 -193.398)" fill="#0a51a1"/>
      <path id="Path_1526" data-name="Path 1526" d="M687.875,197.4c.572-.019,1.144,0,1.717-.009.024,1.823,0,3.647.01,5.47h-1.765c0-1.811-.01-3.621.006-5.432Z" transform="translate(-630.75 -194.922)" fill="#0a51a1"/>
    </g>
    <g id="_e7101cff" data-name="#e7101cff" transform="translate(74.59 163.644)">
      <path id="Path_1529" data-name="Path 1529" d="M378.62,319.412a24.479,24.479,0,0,1,2.6-.562,54.052,54.052,0,0,1,7.924,2.818c-.87.217-1.726.482-2.583.747-.094.044-.183-.023-.266-.056A55,55,0,0,0,378.62,319.412Z" transform="translate(-365.435 -318.85)" fill="#e7101c"/>
      <path id="Path_1530" data-name="Path 1530" d="M328.03,331.322c.881-.3,1.768-.586,2.661-.846a.538.538,0,0,1,.39.037,56.28,56.28,0,0,1,7.567,3.007c-.864.3-1.728.606-2.579.942A57.192,57.192,0,0,0,328.03,331.322Z" transform="translate(-319.044 -329.481)" fill="#e7101c"/>
      <path id="Path_1531" data-name="Path 1531" d="M323.929,354.287c.242-.053.5-.2.747-.064,1.094.455,2.168.96,3.223,1.5a65.864,65.864,0,0,0-18.394,8.937c-1.23-.725-2.5-1.37-3.765-2.033A62.2,62.2,0,0,1,323.929,354.287Z" transform="translate(-298.604 -351.215)" fill="#e7101c"/>
      <path id="Path_1532" data-name="Path 1532" d="M385.63,379.318c.171-.061.344-.118.52-.168,1.033.564,2.062,1.138,3.057,1.767A73.874,73.874,0,0,0,372.1,391.11c-1.286-.966-2.622-1.867-3.989-2.714A68.969,68.969,0,0,1,385.63,379.318Z" transform="translate(-355.797 -374.11)" fill="#e7101c"/>
      <path id="Path_1533" data-name="Path 1533" d="M219.75,357.162a52.318,52.318,0,0,1,9.23-3.972c.842.25,1.666.557,2.492.854a53.409,53.409,0,0,0-8.961,4.226C221.6,357.872,220.673,357.526,219.75,357.162Z" transform="translate(-219.75 -350.32)" fill="#0a51a1"/>
      <path id="Path_1534" data-name="Path 1534" d="M267.92,373.139a61.492,61.492,0,0,1,8.9-4.309,29.72,29.72,0,0,1,2.947,1.28,64.433,64.433,0,0,0-8.923,4.465C269.885,374.068,268.913,373.582,267.92,373.139Z" transform="translate(-263.922 -364.653)" fill="#0a51a1"/>
    </g>
  </g>
</svg>
