<svg id="Group_6531" data-name="Group 6531" xmlns="http://www.w3.org/2000/svg" width="96" height="14" viewBox="0 0 96 14">
  <path id="Path_4615" data-name="Path 4615" d="M7.24.332,6.883,2.407A8.363,8.363,0,0,1,9.031.8,5.718,5.718,0,0,1,11.924.029a5.3,5.3,0,0,1,2.642.419A3.474,3.474,0,0,1,16.2,2.372,7.483,7.483,0,0,1,18.05.911,6.9,6.9,0,0,1,21.519,0a4.2,4.2,0,0,1,3.525,1.184c1.164,1.317.668,3.05.4,4.5L23.917,14H19.06L20.5,6.171a2.407,2.407,0,0,0-.118-1.578c-.261-.457-1.012-.536-1.556-.536a3.223,3.223,0,0,0-2.011.567,2.873,2.873,0,0,0-1,1.629L14.387,14H9.531l1.461-7.933a1.581,1.581,0,0,0-.349-1.623,1.786,1.786,0,0,0-1.385-.419,2.785,2.785,0,0,0-1.855.49A2.884,2.884,0,0,0,6.271,6.4L4.761,14H0L2.515.339H7.24Z" transform="translate(0 0)" fill="#b7b7b7"/>
  <path id="Path_4616" data-name="Path 4616" d="M128.544,4.459a5.724,5.724,0,0,1,2.093-3.117C132.118.328,134.167,0,136.741,0c3.252,0,5.261.59,6.057,1.5a3.8,3.8,0,0,1,.51,3.477l-1.193,6.049a4.781,4.781,0,0,0-.159,1.724c.03.256.142.724.142.724l-4.572,0V12.282h-.067a5.967,5.967,0,0,1-2.133,1.283,12.445,12.445,0,0,1-3.828.422c-1.065,0-3.043-.1-4.05-1.138a3.039,3.039,0,0,1-.774-2.74,4.494,4.494,0,0,1,1.965-3.319c1.4-1.086,2.871-1.01,4.349-1.165l1.161-.077c1.632-.181,2.346-.1,3.206-.222.53-.074,1.249-.07,1.484-1.046a1.039,1.039,0,0,0-.5-1.14,5.42,5.42,0,0,0-2.085-.322,4.248,4.248,0,0,0-2.036.373,1.9,1.9,0,0,0-.975,1.268Zm9.8,2.921a26.594,26.594,0,0,1-2.989.535,11.135,11.135,0,0,0-3.032.55,1.445,1.445,0,0,0-.559,1.348,1.25,1.25,0,0,0,.488.965c.347.337,1.005.288,1.419.288a5.761,5.761,0,0,0,2.982-.7,3.573,3.573,0,0,0,1.576-2.09A2.47,2.47,0,0,0,138.344,7.38Z" transform="translate(-100.431 0)" fill="#b7b7b7"/>
  <path id="Path_4617" data-name="Path 4617" d="M298,4.46A5.726,5.726,0,0,1,300.1,1.343C301.578.328,303.628,0,306.2,0c3.252,0,5.262.59,6.058,1.5a3.8,3.8,0,0,1,.509,3.478l-1.193,6.049a4.781,4.781,0,0,0-.159,1.724c.031.256.142.724.142.724l-4.572,0V12.282h-.067a5.964,5.964,0,0,1-2.134,1.283,12.441,12.441,0,0,1-3.829.422c-1.065,0-3.044-.1-4.051-1.138a3.039,3.039,0,0,1-.774-2.74,4.494,4.494,0,0,1,1.965-3.32c1.4-1.087,2.871-1.01,4.35-1.166l1.161-.077c1.632-.181,2.346-.1,3.206-.221.531-.075,1.249-.07,1.485-1.046a1.039,1.039,0,0,0-.5-1.14,5.422,5.422,0,0,0-2.086-.322,4.251,4.251,0,0,0-2.036.373,1.9,1.9,0,0,0-.975,1.268H298Zm9.8,2.919a26.651,26.651,0,0,1-2.99.535,11.139,11.139,0,0,0-3.032.55,1.445,1.445,0,0,0-.559,1.349,1.25,1.25,0,0,0,.489.965c.347.337,1.006.288,1.419.288a5.76,5.76,0,0,0,2.982-.7,3.572,3.572,0,0,0,1.576-2.09A2.513,2.513,0,0,0,307.807,7.379Z" transform="translate(-234.833 0)" fill="#b7b7b7"/>
  <path id="Path_4618" data-name="Path 4618" d="M220.6,2.382A7.312,7.312,0,0,1,222.915.655a7.734,7.734,0,0,1,3.2-.654,4.579,4.579,0,0,1,3.521,1.069c1.11,1.157,1.158,2.7.819,4.525l-1.548,8.391h-4.86l1.4-7.61A2,2,0,0,0,224.9,4.4a1.789,1.789,0,0,0-1.4-.421,3.423,3.423,0,0,0-2.156.712A3.508,3.508,0,0,0,219.9,6.957l-1.319,7.03H213.85L216.371.325H221Z" transform="translate(-169.61 0)" fill="#b7b7b7"/>
  <path id="Path_4619" data-name="Path 4619" d="M400.071,8.219a9.043,9.043,0,0,1-3.019,4.237,9.867,9.867,0,0,1-6.092,1.53c-1.685,0-4.176-.148-5.692-1.579-.773-.717-1.8-2.348-1.216-5.289a8.3,8.3,0,0,1,3.087-5.264A11.169,11.169,0,0,1,393.806,0c2.924,0,4.544.767,5.41,1.611a5.144,5.144,0,0,1,1.235,3.9H395.7a1.923,1.923,0,0,0-.654-1.6,3.49,3.49,0,0,0-1.87-.652,4.234,4.234,0,0,0-2.681.877,4.924,4.924,0,0,0-1.736,3.809,3.04,3.04,0,0,0,.586,1.931c.394.691,1.539.851,2.367.851a4.591,4.591,0,0,0,2.3-.677,5.013,5.013,0,0,0,1.266-1.83h4.8Z" transform="translate(-304.471 0)" fill="#b7b7b7"/>
</svg>
