<svg xmlns="http://www.w3.org/2000/svg" width="100" height="14" viewBox="0 0 100 14">
  <g id="Group_12987" data-name="Group 12987" transform="translate(0 0)">
    <path id="Path_4527" data-name="Path 4527" d="M1052.992,0h.9a11.971,11.971,0,0,1,4.254.965,8.391,8.391,0,0,1,3.607,2.9,5.752,5.752,0,0,1,.99,2.936v.455a6.124,6.124,0,0,1-1.97,4.048,10.6,10.6,0,0,1-6.843,2.693h-1.073a10.638,10.638,0,0,1-6.758-2.659,6.271,6.271,0,0,1-1.9-3.3,5.4,5.4,0,0,1,.377-3.259,7.194,7.194,0,0,1,2.536-2.931A11.19,11.19,0,0,1,1052.992,0m-.159,2.051a3.08,3.08,0,0,0-1.814,1.332A6.4,6.4,0,0,0,1050.006,7a6.368,6.368,0,0,0,1.031,3.586,3.015,3.015,0,0,0,1.9,1.325,2.406,2.406,0,0,0,1.93-.588,4.811,4.811,0,0,0,1.429-2.368,7.313,7.313,0,0,0-.042-4.112,4.618,4.618,0,0,0-1.531-2.339A2.347,2.347,0,0,0,1052.833,2.051Z" transform="translate(-962.747 0)" fill="#b7b7b7"/>
    <path id="Path_4528" data-name="Path 4528" d="M310.414.436a12.561,12.561,0,0,1,7.641.344A8.619,8.619,0,0,1,322.265,4a5.426,5.426,0,0,1,.814,4.023,6.379,6.379,0,0,1-2.219,3.568,11.068,11.068,0,0,1-6.51,2.4h-1.244a10.713,10.713,0,0,1-7.113-2.926,5.876,5.876,0,0,1-1.762-3.935A5.674,5.674,0,0,1,305.572,3.4,9.423,9.423,0,0,1,310.414.436m2.723,1.61a2.819,2.819,0,0,0-1.4.773,5.346,5.346,0,0,0-1.392,2.841,6.961,6.961,0,0,0,.564,4.322,3.589,3.589,0,0,0,1.9,1.826,2.349,2.349,0,0,0,2.11-.293,4.416,4.416,0,0,0,1.608-2.244,7.165,7.165,0,0,0,.1-4.3,4.693,4.693,0,0,0-1.564-2.44A2.429,2.429,0,0,0,313.137,2.046Z" transform="translate(-280.531 0)" fill="#b7b7b7"/>
    <path id="Path_4529" data-name="Path 4529" d="M0,0Q7.054,0,14.108,0c0,.657,0,1.315.007,1.972-1.18.009-2.361.012-3.542.018q2.418,4.24,4.842,8.476a3.263,3.263,0,0,0,.3-.512q2.1-4,4.208-7.994c-.862,0-1.724,0-2.587,0,0-.654,0-1.307,0-1.961q4.859,0,9.72,0c0,.652,0,1.3-.009,1.955-1.081,0-2.162.018-3.243.016q-3.187,6.007-6.365,12.019H9.611c-2.129-4-4.232-8.011-6.374-12C2.158,2,1.079,1.992,0,2Z" transform="translate(0 0)" fill="#b7b7b7"/>
    <path id="Path_4530" data-name="Path 4530" d="M549.376,2c.008-.667-.014-1.335.011-2,4.281.018,8.561,0,12.841.008,0,.657,0,1.315,0,1.972q-1.6.013-3.2.017,0,4.9,0,9.8c1.043,0,2.085-.006,3.128.007a4.647,4.647,0,0,0,3.718-1.708,4.526,4.526,0,0,0,.871-2.609c.7,0,1.407,0,2.11,0q0,3.254,0,6.509c-6.551-.008-13.1.018-19.653-.017q0-1.091,0-2.183c1.142,0,2.284,0,3.426,0-.005-3.265,0-6.53-.009-9.8Q551,2,549.376,2Z" transform="translate(-506.456 0)" fill="#b7b7b7"/>
    <path id="Path_4531" data-name="Path 4531" d="M739.845,0h14.106c0,.66.015,1.32,0,1.979-1.179-.006-2.357.01-3.535.01q2.424,4.252,4.854,8.5,2.254-4.26,4.493-8.528c-.862,0-1.724,0-2.586,0,0-.652,0-1.3,0-1.956,3.241-.011,6.482,0,9.724,0,0,.652,0,1.3-.007,1.955-1.081,0-2.163.019-3.244.015q-3.19,6.006-6.365,12.019-3.913,0-7.826,0-3.185-6-6.363-12-1.624,0-3.248,0Q739.842,1,739.845,0Z" transform="translate(-682.73 0)" fill="#b7b7b7"/>
  </g>
</svg>
