<svg xmlns="http://www.w3.org/2000/svg" width="15" height="15" viewBox="0 0 15 15">
  <g id="Group_30985" data-name="Group 30985" transform="translate(-422.76 -459.87)">
    <path id="Path_11769" data-name="Path 11769" d="M435.345,469.018a3.557,3.557,0,0,1,.252,1.377,3.689,3.689,0,0,1-.6,2.017,4.017,4.017,0,0,1-1.828,1.434,7.376,7.376,0,0,1-2.926.524,9.178,9.178,0,0,1-2.966-.475c-.291-.1-.544-.194-.768-.291a.963.963,0,0,1-.739.349.807.807,0,0,1-.369-.078.969.969,0,0,1-.6-.9,1.168,1.168,0,0,1,.068-.359l.652-1.541a.954.954,0,0,1,.894-.592.889.889,0,0,1,.379.078.952.952,0,0,1,.593.892,1.019,1.019,0,0,1-.048.291,4.241,4.241,0,0,0,.525.2,6.929,6.929,0,0,0,2.382.417,4.238,4.238,0,0,0,2.362-.523,1.573,1.573,0,0,0,.739-1.338,1.29,1.29,0,0,0-.389-.97,2.515,2.515,0,0,0-.6-.417l.1-.368,2.858.165Z" fill="#6c6c6c" stroke="rgba(0,0,0,0)" stroke-width="1"/>
    <path id="Path_11770" data-name="Path 11770" d="M425.6,465.974a3.513,3.513,0,0,1-.34-1.61,3.656,3.656,0,0,1,.583-2.026,4.141,4.141,0,0,1,1.8-1.435,7.051,7.051,0,0,1,2.916-.533,9.036,9.036,0,0,1,2.373.32,7.524,7.524,0,0,1,.865.281.962.962,0,0,1,.71-.31.819.819,0,0,1,.369.077.978.978,0,0,1,.593.9,1.121,1.121,0,0,1-.068.359l-.651,1.541a.957.957,0,0,1-.9.592.889.889,0,0,1-.379-.078.952.952,0,0,1-.593-.892.975.975,0,0,1,.058-.329c-.184-.068-.379-.136-.573-.194a6.462,6.462,0,0,0-1.809-.262,3.9,3.9,0,0,0-2.313.553,1.572,1.572,0,0,0-.73,1.357,1.22,1.22,0,0,0,.389.969,2.9,2.9,0,0,0,1.05.621l-.078.378-3.227-.184Z" fill="#6c6c6c" stroke="rgba(0,0,0,0)" stroke-width="1"/>
    <path id="Path_11771" data-name="Path 11771" d="M437.26,467.5a.968.968,0,0,1-.972.97H424.232a.97.97,0,1,1,0-1.939h12.056A.967.967,0,0,1,437.26,467.5Z" fill="#6c6c6c" stroke="rgba(0,0,0,0)" stroke-width="1"/>
  </g>
</svg>
