<svg id="Component_1498_7" data-name="Component 1498 – 7" xmlns="http://www.w3.org/2000/svg" width="16" height="16" viewBox="0 0 22 22">
  <path id="Path_5856" data-name="Path 5856" d="M683.163,373.663a11,11,0,1,0,11,11A11,11,0,0,0,683.163,373.663Zm5.034,15.864-.169.169a1,1,0,0,1-1.414,0l-3.45-3.45-3.366,3.365a1.119,1.119,0,0,1-1.583-1.583l3.365-3.365-3.45-3.45a1,1,0,0,1,0-1.414l.169-.169h0a1,1,0,0,1,1.414,0l3.45,3.45,3.365-3.365a1.119,1.119,0,0,1,1.583,1.583l-3.366,3.365,3.45,3.45A1,1,0,0,1,688.2,389.527Z" transform="translate(-672.163 -373.663)" fill="#919191"/>
</svg>
