<?xml version="1.0" encoding="utf-8"?>
<!-- Generator: Adobe Illustrator 24.0.0, SVG Export Plug-In . SVG Version: 6.00 Build 0)  -->
<svg version="1.1" id="Layer_1" xmlns="http://www.w3.org/2000/svg" xmlns:xlink="http://www.w3.org/1999/xlink" x="0px" y="0px"
	 viewBox="0 0 16 16" style="enable-background:new 0 0 16 16;" xml:space="preserve">
<style type="text/css">
	.st0{opacity:0.7;}
	.st1{fill:#606060;}
</style>
<g id="icon-url" transform="translate(-0.004 -0.652)" class="st0">
	<path id="Path_1574" class="st1" d="M6.2,4.5c-1.6,1.7-1.5,4.4,0.2,6c0.2,0.1,0.3,0.3,0.5,0.4c0.1,0,0.2,0,0.2,0
		c0.4-0.4,0.8-0.9,1.1-1.4c0-0.1,0-0.2-0.1-0.2c0,0,0,0,0,0C7.9,9.1,7.6,8.8,7.4,8.5l0,0C7.2,8,7.1,7.5,7.2,7.1l0,0
		C7.5,6.4,8,5.8,8.6,5.3l0,0l2-2c0.8-0.8,2-0.8,2.8,0c0,0,0,0,0,0c0.8,0.8,0.8,2.1,0,2.9l-1.2,1.2c-0.1,0.1-0.1,0.1,0,0.2
		c0.3,0.9,0.3,1.8,0.2,2.7c0,0,0,0,0,0c0,0,0,0,0,0l2.5-2.6c1.6-1.7,1.5-4.4-0.2-6C13,0.3,10.4,0.3,8.8,1.8L6.2,4.5L6.2,4.5L6.2,4.5
		z"/>
	<path id="Path_1575" class="st1" d="M10.5,11.8L10.5,11.8c0.5-0.9,0.6-2,0.4-3.1l0,0c-0.3-1-0.9-1.9-1.7-2.4c-0.1,0-0.2,0-0.3,0
		C8.4,6.7,8,7.2,7.8,7.7c0,0.1,0,0.2,0.1,0.2c0.3,0.2,0.6,0.5,0.8,0.8l0,0C8.9,9.2,8.9,9.6,8.9,10l0,0c-0.1,0.7-0.8,1.3-1.4,1.9l0,0
		l-1.9,2c-0.8,0.8-2.1,0.7-2.9-0.1c-0.7-0.8-0.7-2,0-2.8l1.2-1.2c0.1-0.1,0.1-0.1,0-0.2C3.6,8.8,3.6,7.9,3.7,6.9c0,0,0,0,0,0
		c0,0,0,0,0,0L1.2,9.5c-1.6,1.7-1.6,4.3,0,6c1.7,1.6,4.3,1.6,6-0.1C7.8,14.8,10.2,12.5,10.5,11.8L10.5,11.8z"/>
</g>
</svg>
