<?xml version="1.0" encoding="utf-8"?>
<!-- Generator: Adobe Illustrator 24.0.0, SVG Export Plug-In . SVG Version: 6.00 Build 0)  -->
<svg version="1.1" id="Layer_1" xmlns="http://www.w3.org/2000/svg" xmlns:xlink="http://www.w3.org/1999/xlink" x="0px" y="0px"
	 viewBox="0 0 30 26.2" style="enable-background:new 0 0 30 26.2;" xml:space="preserve">
<style type="text/css">
	.st0{opacity:0.7;}
	.st1{fill:#D1D1D1;}
	.st2{fill:#606060;}
	.st3{fill:#FFFFFF;}
	.st4{fill:#28529F;}
</style>
<g id="Group_3647" transform="translate(-89 -194.846)">
	<g id="Group_2196" transform="translate(89 194.846)" class="st0">
		<circle id="Ellipse_519" class="st1" cx="13.1" cy="13.1" r="13.1"/>
		<path id="Path_1346" class="st2" d="M2.6,20.8L2.6,20.8c-4.3-5.8-3-14,2.8-18.3s14-3,18.3,2.8c3.4,4.6,3.4,10.9,0,15.5
			C19.3,15,11.2,13.8,5.3,18C4.3,18.8,3.3,19.8,2.6,20.8L2.6,20.8z M13.1,3.9c-2.9,0-5.3,2.4-5.3,5.3c0,2.9,2.4,5.3,5.3,5.3
			c2.9,0,5.3-2.4,5.3-5.3C18.4,6.3,16,3.9,13.1,3.9L13.1,3.9z"/>
	</g>
	<g id="Group_3637" transform="translate(107.376 195)">
		<circle id="Ellipse_692" class="st3" cx="5.6" cy="5.7" r="4.5"/>
		<path id="Path_1949" class="st4" d="M5.8,0C2.6,0,0,2.6,0,5.8s2.6,5.8,5.8,5.8s5.8-2.6,5.8-5.8l0,0C11.6,2.6,9,0,5.8,0z M8.2,6.6
			H6.6v1.6C6.6,8.6,6.2,9,5.8,9C5.4,9,5,8.6,5,8.2V6.6H3.4C3,6.6,2.6,6.2,2.6,5.8l0,0C2.6,5.4,3,5,3.4,5H5V3.4C5,3,5.4,2.6,5.8,2.6
			S6.6,3,6.6,3.4V5h1.6C8.6,5,9,5.4,8.9,5.9C8.9,6.3,8.6,6.6,8.2,6.6z"/>
	</g>
</g>
</svg>
