<?xml version="1.0" encoding="utf-8"?>
<!-- Generator: Adobe Illustrator 24.0.0, SVG Export Plug-In . SVG Version: 6.00 Build 0)  -->
<svg version="1.1" id="Layer_1" xmlns="http://www.w3.org/2000/svg" xmlns:xlink="http://www.w3.org/1999/xlink" height="20" x="0px" y="0px"
	 viewBox="0 0 20 20" style="enable-background:new 0 0 20 20;" xml:space="preserve">
<style type="text/css">
	.st00{fill:#FFFFFF;}
	.st11{fill:#24C1A1;}
</style>
<g id="Group_3674" transform="translate(-622.569 -363.325)">
	<path id="Path_1539" class="st00" d="M637.1,369.9c-0.3-0.3-0.8-0.3-1.1,0.1l-4.7,5.2l-2.3-2.3c-0.3-0.3-0.8-0.2-1.1,0.1
		c-0.3,0.3-0.3,0.7,0,1l2.9,2.9c0.1,0.1,0.3,0.2,0.6,0.2h0c0.2,0,0.4-0.1,0.6-0.3l5.3-5.8C637.5,370.6,637.4,370.1,637.1,369.9z"/>
	<path id="Path_1954" class="st11" d="M632.6,363.3c-5.5,0-10,4.5-10,10s4.5,10,10,10s10-4.5,10-10S638.1,363.3,632.6,363.3z
		 M637.2,370.9l-5.3,5.8c-0.1,0.2-0.3,0.2-0.6,0.3h0c-0.2,0-0.4-0.1-0.6-0.2l-2.9-2.9c-0.3-0.3-0.2-0.8,0.1-1.1c0.3-0.2,0.7-0.2,1,0
		l2.3,2.3l4.7-5.2c0.3-0.3,0.8-0.3,1.1-0.1C637.5,370.1,637.5,370.6,637.2,370.9L637.2,370.9L637.2,370.9z"/>
</g>
</svg>
