<?xml version="1.0" encoding="utf-8"?>
<!-- Generator: Adobe Illustrator 24.0.0, SVG Export Plug-In . SVG Version: 6.00 Build 0)  -->
<svg version="1.1" id="Layer_1" xmlns="http://www.w3.org/2000/svg" xmlns:xlink="http://www.w3.org/1999/xlink" x="0px" y="0px"
	 viewBox="0 0 389.3 502.8" style="enable-background:new 0 0 389.3 502.8;" xml:space="preserve">
<style type="text/css">
	.st0{opacity:0.4;enable-background:new    ;}
</style>
<rect x="15" y="15" class="st0" width="359.3" height="373.9"/>
<path d="M0,0v412v6.6V434h104.9v29.9H0.8v38.9h387.7v-38.9h-105V434h105.8v-15.3V412V0H0z M197.2,15h18.3v373.9h-18.3V15z M172.1,15
	h20.1v373.9h-20.1V15z M37.8,426.4c-8.4,0-15.1-6.8-15.1-15.1c0-8.4,6.8-15.1,15.1-15.1s15.2,6.7,15.2,15
	C53,419.6,46.2,426.4,37.8,426.4z M88.3,426.4c-8.4,0-15.1-6.8-15.1-15.1c0-8.4,6.8-15.1,15.1-15.1c8.4,0,15.1,6.8,15.1,15.1
	S96.7,426.4,88.3,426.4z M15,388.9v-40.3h21.6l16.8-4.6v-9.7v-9.7L36.6,320H15V215.1h21.6l16.8-4.6v-9.7v-9.7l-16.8-4.6H15V81.6
	h21.6L53.4,77v-9.7v-9.7L36.6,53H15V15h147.1v373.9H15z M244,463.9h-99.6V434H244V463.9z M302.8,426.4c-8.4,0-15.1-6.8-15.1-15.1
	c0-8.4,6.8-15.1,15.1-15.1s15.1,6.8,15.1,15.1C318,419.6,311.2,426.4,302.8,426.4z M353.3,426.4c-8.4,0-15.1-6.8-15.1-15.1
	c0-8.4,6.8-15.1,15.1-15.1c8.4,0,15.1,6.8,15.1,15.1S361.7,426.4,353.3,426.4z M374.3,53h-23l-16.8,4.6v9.7V77l16.8,4.6h23v104.9
	h-23l-16.8,4.6v9.7v9.7l16.8,4.6h23V320h-23l-16.8,4.6v9.7v9.7l16.8,4.6h23v40.3H225.4V15h148.9V53z"/>
</svg>
