<svg xmlns="http://www.w3.org/2000/svg" width="50" height="23.999" viewBox="0 0 50 23.999">
  <g id="Truck" transform="translate(0 -0.01)">
    <path id="Path_1217" data-name="Path 1217" d="M-2181.3-577.869a3.145,3.145,0,0,0-3.189,3.1,3.145,3.145,0,0,0,3.189,3.1,3.145,3.145,0,0,0,3.188-3.1,3.146,3.146,0,0,0-3.188-3.1Z" transform="translate(2223.031 595.677)" fill="#ffc061"/>
    <path id="Path_1218" data-name="Path 1218" d="M-2178.2-580.279l-.044-.033a.115.115,0,0,0,.036-.092c-.033-.463-.157-2.116-.365-3.258a2.2,2.2,0,0,0-1.336-1.707,62.18,62.18,0,0,0-7.532-2.04h-.021a.7.7,0,0,1-.615-.456h0l-1.353-3.011a.117.117,0,0,1,.007-.11.116.116,0,0,1,.094-.056l.122-.005h.567c.247,0,.428-.1.378-.287h.009l-.033-.06a.259.259,0,0,0-.017-.031,8.61,8.61,0,0,0-1.284-1.843l-.017-.009-1.3-.6a.111.111,0,0,1-.043-.034c-.247-.312-3.235-3.882-11.9-4.962a.127.127,0,0,1-.052-.019,3.7,3.7,0,0,0-1.741-.476h0c-.265-.014-.514-.022-.74-.028h-.163c-.394-.007-.7,0-.851,0a.116.116,0,0,0-.114.117v16.885h0a1.883,1.883,0,0,1-.319.963.115.115,0,0,1-.086.04h-6.871a.117.117,0,0,0-.109.077.117.117,0,0,0,.035.129,3.517,3.517,0,0,1,1.175,1.873.117.117,0,0,0,.114.086.115.115,0,0,1,.083.034.116.116,0,0,1,.034.083v2.85a.116.116,0,0,0,.034.083.116.116,0,0,0,.083.034h21.935a.6.6,0,0,0,.5-.3.6.6,0,0,0,.008-.586l-.163-.3-.008-.018a3.854,3.854,0,0,1-.21-1.262,3.837,3.837,0,0,1,3.824-3.848,3.824,3.824,0,0,1,3.424,2.124.115.115,0,0,0,.1.065H-2183c.015.031.028.061.041.092s.021.047.031.071.031.075.046.114h0v.008a1.057,1.057,0,0,1,.048.135h0a5.8,5.8,0,0,1,.2,1.318,15.132,15.132,0,0,1,0,1.7v.014h.131c2.391-.042,3.473-.522,3.953-.886a.925.925,0,0,0,.366-.737Zm-10.586-6.486-5.78-.448a.821.821,0,0,1-.726-.807v-2.556a.455.455,0,0,1,.14-.322.454.454,0,0,1,.326-.127l3.871.05a.776.776,0,0,1,.693.439l1.59,3.607a.117.117,0,0,1-.009.111.117.117,0,0,1-.1.052Zm5.649,1.693a.117.117,0,0,1,0-.136.117.117,0,0,1,.129-.044,20.921,20.921,0,0,1,2.895,1.09,1.776,1.776,0,0,1,.91,1.217.117.117,0,0,1-.05.121.116.116,0,0,1-.131,0,30.365,30.365,0,0,0-2.7-1.448,2.934,2.934,0,0,1-1.057-.795Z" transform="translate(2228.185 599.41)" fill="#ffc061"/>
    <path id="Path_1219" data-name="Path 1219" d="M-2217.387-577.869a3.144,3.144,0,0,0-3.189,3.1,3.144,3.144,0,0,0,3.188,3.1,3.145,3.145,0,0,0,3.188-3.1,3.146,3.146,0,0,0-3.188-3.1Z" transform="translate(2229.476 595.677)" fill="#ffc061"/>
    <path id="Path_1220" data-name="Path 1220" d="M-2225.633-577.655a3.259,3.259,0,0,0-1.167-.215,3.266,3.266,0,0,0-1.168.215,3.1,3.1,0,0,0-2.02,2.885,3.146,3.146,0,0,0,3.189,3.1,3.146,3.146,0,0,0,3.188-3.1,3.1,3.1,0,0,0-2.021-2.885Z" transform="translate(2231.159 595.677)" fill="#ffc061"/>
    <path id="Path_1221" data-name="Path 1221" d="M-2220-577.782h-1.3l1.41-.315a.257.257,0,0,0,.2-.229.209.209,0,0,0-.007-.073.257.257,0,0,0-.309-.189l-3.377.754-.229.051a3.523,3.523,0,0,1,1.469,2.163h.67a3.523,3.523,0,0,1,1.468-2.163Z" transform="translate(2230.039 595.797)" fill="#ffc061"/>
    <path id="Path_1222" data-name="Path 1222" d="M-2229.132-577.609h-1.417l-.856.579v3.139l.387.331v-.074a9.423,9.423,0,0,1,.421-1.813,1.006,1.006,0,0,0,.058-.231,3.524,3.524,0,0,1,1.407-1.931Z" transform="translate(2231.406 595.631)" fill="#ffc061"/>
  </g>
</svg>
