<svg xmlns="http://www.w3.org/2000/svg" xmlns:xlink="http://www.w3.org/1999/xlink" width="217.581" height="70.692" viewBox="0 0 217.581 70.692">
  <defs>
    <style>
      .cls-1 {
        fill: #b2b2b2;
      }

      .cls-2 {
        fill: #5673aa;
      }

      .cls-3 {
        fill: url(#linear-gradient);
      }

      .cls-4 {
        fill: url(#linear-gradient-2);
      }
    </style>
    <linearGradient id="linear-gradient" x1="0.5" x2="0.5" y2="1" gradientUnits="objectBoundingBox">
      <stop offset="0" stop-color="#5673aa"/>
      <stop offset="1" stop-color="#2b3a55"/>
    </linearGradient>
    <linearGradient id="linear-gradient-2" x2="0.146" y2="1.106" xlink:href="#linear-gradient"/>
  </defs>
  <g id="Group_33924" data-name="Group 33924" transform="translate(-241.009 -457.847)">
    <path id="Path_11668" data-name="Path 11668" class="cls-1" d="M6.127,11.912h6.994V-3.41H19.2V-8.834H.052V-3.41H6.127Zm27.295,0h7.468l-4.357-6.4a6.947,6.947,0,0,0,3.912-6.52c0-4.8-3.675-7.824-9.454-7.824H21V11.912H28V6.7h1.9ZM33.393-1.01c0,1.511-.919,2.43-2.845,2.43H28V-3.44h2.549C32.474-3.44,33.393-2.521,33.393-1.01Zm19.619,13.4c6.372,0,10.106-3.586,10.106-9.81V-8.834H56.242v11.2c0,3.171-1.215,4.357-3.171,4.357S49.9,5.54,49.9,2.369v-11.2H42.906V2.576C42.906,8.8,46.64,12.386,53.012,12.386Zm24.035,0c4.06,0,7.261-1.482,9.306-4.149L81.937,4.3A5.6,5.6,0,0,1,77.4,6.725c-2.9,0-4.86-2.015-4.86-5.186S74.5-3.647,77.4-3.647a5.6,5.6,0,0,1,4.534,2.43l4.416-3.942c-2.045-2.667-5.246-4.149-9.306-4.149-6.668,0-11.558,4.475-11.558,10.847S70.379,12.386,77.047,12.386ZM102,11.912h8.091L101.378.294l8.3-9.128H102.06L95.243-1.306V-8.834H88.368V11.912h6.876V6.784l1.571-1.749Z" transform="translate(294.189 471.957)"/>
    <g id="Group_26111" data-name="Group 26111" transform="translate(315.053 482.666)">
      <path id="Path_11614" data-name="Path 11614" class="cls-2" d="M39.146,17.018a26.212,26.212,0,0,1-8.547-1.37,16.009,16.009,0,0,1-6.239-3.606l1.154-1.875a19.233,19.233,0,0,0,5.951,3.39,21.836,21.836,0,0,0,7.754,1.37q6.059,0,8.944-2.056a6.643,6.643,0,0,0,2.885-5.734A5.483,5.483,0,0,0,49.5,3.026,9.454,9.454,0,0,0,45.638.79a55.638,55.638,0,0,0-6.2-1.443A58.36,58.36,0,0,1,32.186-2.42a10.8,10.8,0,0,1-4.58-2.921,7.952,7.952,0,0,1-1.875-5.626,8.807,8.807,0,0,1,3.5-7.1q3.5-2.849,10.206-2.849a23.837,23.837,0,0,1,6.924,1.046A16.624,16.624,0,0,1,51.985-17.1l-1.226,1.875a15.972,15.972,0,0,0-5.229-2.633,21.267,21.267,0,0,0-6.167-.9q-5.554,0-8.367,2.128a6.679,6.679,0,0,0-2.813,5.59A5.848,5.848,0,0,0,29.77-6.711,9.651,9.651,0,0,0,33.7-4.367a58.206,58.206,0,0,0,6.383,1.551,51.7,51.7,0,0,1,7,1.695,10.878,10.878,0,0,1,4.508,2.849,7.565,7.565,0,0,1,1.839,5.409,8.454,8.454,0,0,1-3.679,7.213Q46.07,17.018,39.146,17.018Zm33.9,0a26.212,26.212,0,0,1-8.547-1.37,16.009,16.009,0,0,1-6.239-3.606l1.154-1.875a19.233,19.233,0,0,0,5.951,3.39,21.836,21.836,0,0,0,7.754,1.37q6.059,0,8.944-2.056a6.643,6.643,0,0,0,2.885-5.734A5.483,5.483,0,0,0,83.4,3.026,9.453,9.453,0,0,0,79.538.79a55.637,55.637,0,0,0-6.2-1.443A58.36,58.36,0,0,1,66.086-2.42a10.8,10.8,0,0,1-4.58-2.921,7.952,7.952,0,0,1-1.875-5.626,8.807,8.807,0,0,1,3.5-7.1q3.5-2.849,10.206-2.849a23.838,23.838,0,0,1,6.924,1.046A16.624,16.624,0,0,1,85.885-17.1l-1.226,1.875a15.973,15.973,0,0,0-5.229-2.633,21.268,21.268,0,0,0-6.167-.9q-5.554,0-8.367,2.128a6.679,6.679,0,0,0-2.813,5.59A5.848,5.848,0,0,0,63.67-6.711,9.651,9.651,0,0,0,67.6-4.367a58.205,58.205,0,0,0,6.383,1.551,51.694,51.694,0,0,1,7,1.695,10.878,10.878,0,0,1,4.508,2.849,7.565,7.565,0,0,1,1.839,5.409,8.454,8.454,0,0,1-3.679,7.213Q79.97,17.018,73.046,17.018Zm52.293,0a26.212,26.212,0,0,1-8.547-1.37,16.009,16.009,0,0,1-6.239-3.606l1.154-1.875a19.233,19.233,0,0,0,5.951,3.39,21.836,21.836,0,0,0,7.754,1.37q6.059,0,8.944-2.056a6.643,6.643,0,0,0,2.885-5.734,5.483,5.483,0,0,0-1.551-4.111A9.453,9.453,0,0,0,131.83.79a55.638,55.638,0,0,0-6.2-1.443,58.362,58.362,0,0,1-7.249-1.767,10.8,10.8,0,0,1-4.58-2.921,7.952,7.952,0,0,1-1.875-5.626,8.807,8.807,0,0,1,3.5-7.1q3.5-2.849,10.206-2.849a23.838,23.838,0,0,1,6.924,1.046,16.624,16.624,0,0,1,5.626,2.777l-1.226,1.875a15.973,15.973,0,0,0-5.229-2.633,21.268,21.268,0,0,0-6.167-.9q-5.554,0-8.367,2.128a6.679,6.679,0,0,0-2.813,5.59,5.848,5.848,0,0,0,1.587,4.328,9.651,9.651,0,0,0,3.931,2.344,58.208,58.208,0,0,0,6.383,1.551,51.7,51.7,0,0,1,7,1.695,10.878,10.878,0,0,1,4.508,2.849,7.565,7.565,0,0,1,1.839,5.409,8.454,8.454,0,0,1-3.679,7.213Q132.263,17.018,125.339,17.018Z" transform="translate(-24.36 28.854)"/>
      <path id="Path_11615" data-name="Path 11615" class="cls-2" d="M96.651-17.1h2.38V20.336h-2.38Zm69.964,35.053a8.93,8.93,0,0,1-3.318,1.911,12.933,12.933,0,0,1-4.183.685,9.355,9.355,0,0,1-7.032-2.56,9.662,9.662,0,0,1-2.488-7.032V-15.006h-7.068V-17.1h7.068V-25.32h2.38V-17.1h12.334v2.092H151.973V10.6a8.283,8.283,0,0,0,1.875,5.842,7.116,7.116,0,0,0,5.482,2.02,8.659,8.659,0,0,0,6.059-2.236Z" transform="translate(-23.078 25.32)"/>
    </g>
    <g id="Group_26112" data-name="Group 26112" transform="translate(241.009 457.847)">
      <path id="Path_11665" data-name="Path 11665" class="cls-3" d="M2244.611,1196.728a12.8,12.8,0,0,0-17.528-4.655l-40.589,23.679h25.864l10.345-6.036a6.921,6.921,0,0,1,9.482,2.518l2.032,3.518h21.378Z" transform="translate(-2186.493 -1145.062)"/>
      <path id="Path_11666" data-name="Path 11666" class="cls-2" d="M2217.24,1203.041c12.927-7.542,19.453,0,25.932,12.712h21.379l-10.984-19.025a12.8,12.8,0,0,0-17.528-4.655Z" transform="translate(-2195.449 -1145.062)"/>
      <path id="Path_11667" data-name="Path 11667" class="cls-4" d="M2231.077,1158.968c.124-.17.239-.346.354-.522.1-.151.2-.3.291-.451s.184-.338.275-.507a12.3,12.3,0,0,0,.552-1.166c.04-.1.086-.192.124-.29.091-.238.167-.481.245-.725.035-.11.072-.217.1-.327.072-.251.133-.5.19-.759.022-.1.045-.2.064-.3.054-.269.1-.537.134-.809.011-.081.019-.162.029-.243.033-.294.059-.588.072-.885,0-.032,0-.064,0-.1a12.729,12.729,0,0,0-.538-4.143h0a12.781,12.781,0,0,0-1.157-2.7l-10.729-18.584-26.7,46.248h0l-3.342,5.79-1.165,2.016,0,0-3.26,5.647,40.561-23.663c.356-.208.7-.432,1.023-.668.109-.078.21-.163.316-.244.213-.163.422-.328.623-.5.119-.1.232-.212.348-.32.172-.162.341-.327.5-.5.117-.122.229-.244.339-.37.146-.167.287-.338.424-.511C2230.868,1159.243,2230.976,1159.108,2231.077,1158.968Z" transform="translate(-2186.53 -1126.458)"/>
    </g>
  </g>
</svg>
