<svg xmlns="http://www.w3.org/2000/svg" xmlns:xlink="http://www.w3.org/1999/xlink" width="126.182" height="129.081" viewBox="0 0 126.182 129.081">
  <defs>
    <style>
      .cls-1 {
        fill: url(#linear-gradient);
      }

      .cls-2 {
        fill: #5673aa;
      }

      .cls-3 {
        fill: url(#linear-gradient-2);
      }
    </style>
    <linearGradient id="linear-gradient" x1="0.5" x2="0.5" y2="1" gradientUnits="objectBoundingBox">
      <stop offset="0" stop-color="#5673aa"/>
      <stop offset="1" stop-color="#2f3e46"/>
    </linearGradient>
    <linearGradient id="linear-gradient-2" x2="0.146" y2="1.106" xlink:href="#linear-gradient"/>
  </defs>
  <g id="Group_29137" data-name="Group 29137" transform="translate(-623.149 -94.999)">
    <path id="Path_3526" data-name="Path 3526" class="cls-1" d="M2292.616,1202.014a23.364,23.364,0,0,0-32.007-8.5l-74.116,43.239h47.227l18.892-11.022a12.639,12.639,0,0,1,17.314,4.6l3.709,6.425h39.038Z" transform="translate(-1563.344 -1012.673)"/>
    <path id="Path_3527" data-name="Path 3527" class="cls-2" d="M2217.24,1213.541c23.6-13.771,35.521,0,47.351,23.212h39.039l-20.056-34.739a23.364,23.364,0,0,0-32.007-8.5Z" transform="translate(-1554.298 -1012.673)"/>
    <path id="Path_3528" data-name="Path 3528" class="cls-3" d="M2267.8,1185.821c.227-.312.436-.633.647-.955.179-.274.364-.543.532-.823.178-.3.336-.616.5-.925a22.891,22.891,0,0,0,1.008-2.129c.072-.177.157-.351.225-.529.167-.435.307-.879.448-1.323.063-.2.132-.4.189-.6.132-.458.243-.92.347-1.386.04-.185.083-.369.119-.555.1-.49.178-.981.244-1.476.02-.148.035-.3.052-.444.061-.537.108-1.074.132-1.616,0-.058,0-.118,0-.177a23.212,23.212,0,0,0-.982-7.565h0a23.293,23.293,0,0,0-2.113-4.925l-19.592-33.934-48.757,84.449h0l-6.1,10.572-2.126,3.682,0-.008-5.952,10.312,74.065-43.208c.649-.379,1.27-.789,1.868-1.22.2-.142.384-.3.577-.445.389-.3.771-.6,1.138-.918.218-.19.424-.387.634-.584.316-.3.624-.6.92-.909.212-.222.417-.445.619-.675.268-.305.525-.617.775-.934C2267.415,1186.322,2267.611,1186.077,2267.8,1185.821Z" transform="translate(-1563.305 -1031.459)"/>
  </g>
</svg>
