<svg xmlns="http://www.w3.org/2000/svg" width="14" height="14" viewBox="0 0 14 14">
  <path id="U" d="M.875,14a.875.875,0,1,1,0-1.75h12.25a.875.875,0,1,1,0,1.75Zm2.259-3.952A5,5,0,0,1,1.751,6.262V1.75H.875A.875.875,0,0,1,.875,0H5.25a.875.875,0,1,1,0,1.75H4.434V6.166q0,3,2.583,3a2.467,2.467,0,0,0,1.921-.727A3.3,3.3,0,0,0,9.6,6.166V1.75H8.75A.875.875,0,1,1,8.75,0h4.375a.875.875,0,0,1,0,1.75H12.25V6.262a5,5,0,0,1-1.383,3.786A5.36,5.36,0,0,1,7,11.375,5.356,5.356,0,0,1,3.133,10.048Z" fill="#919191"/>
</svg>
