<?xml version="1.0" encoding="utf-8"?>
<!-- Generator: Adobe Illustrator 24.0.0, SVG Export Plug-In . SVG Version: 6.00 Build 0)  -->
<svg version="1.1" id="Layer_1" xmlns="http://www.w3.org/2000/svg" xmlns:xlink="http://www.w3.org/1999/xlink" x="0px" y="0px" width="28" height="28"
	 viewBox="0 0 29.3 26" style="enable-background:new 0 0 29.3 26;" xml:space="preserve">
<style type="text/css">
	.a{fill:#606060;}
</style>
<path class="a" d="M21.9,0c-3.4,0.4-6,3.3-6,6.8v1.7H5.5c-3,0-5.5,2.4-5.5,5.4v6.8c0,3,2.5,5.4,5.5,5.4h13c3,0,5.5-2.4,5.5-5.4
	v-6.8c0-3-2.5-5.4-5.5-5.4h0.1V6.7c0-1.9,1.3-3.6,3.2-4c1.2-0.2,2.4,0,3.3,0.8c0.9,0.7,1.5,1.9,1.5,3v0.7c0,0.7,0.6,1.3,1.3,1.3
	c0,0,0,0,0,0c0.7,0,1.3-0.6,1.3-1.3V6.5c0-1.9-0.8-3.6-2.2-4.9C25.6,0.4,23.8-0.2,21.9,0z M21.3,13.8v6.8c0,1.6-1.3,2.8-2.8,2.8h-13
	c-1.6,0-2.8-1.2-2.9-2.8v-6.8c0-1.6,1.3-2.8,2.8-2.8h13C20,11,21.3,12.3,21.3,13.8L21.3,13.8z"/>
<path class="a" d="M12,13.3c-1.4,0-2.6,1.2-2.6,2.6c0,0,0,0,0,0c0,0.9,0.5,1.8,1.3,2.3v1.7c0,0.3,0.1,0.7,0.4,0.9
	c0.2,0.2,0.6,0.4,0.9,0.4c0.7,0,1.3-0.6,1.3-1.3c0,0,0,0,0,0v-1.7c0.8-0.5,1.3-1.3,1.3-2.3C14.6,14.5,13.4,13.3,12,13.3L12,13.3z"/>
</svg>
