<svg xmlns="http://www.w3.org/2000/svg" width="32" height="27.959" viewBox="0 0 32 27.959"><g transform="translate(-12 -7.999)"><path d="M154.2,159.661a1.278,1.278,0,0,0,1.54,0l3.653-3.029v13.416a1.128,1.128,0,0,0,2.217,0V156.632l3.651,3.029a1.275,1.275,0,0,0,1.568-.023.812.812,0,0,0,0-1.278l-5.543-4.6a1.275,1.275,0,0,0-1.568,0l0,0-5.543,4.6A.814.814,0,0,0,154.2,159.661Z" transform="translate(-131.33 -135.01)" fill="#606060"/><path d="M29.57,10.7a8.721,8.721,0,0,0,.151-1.6,9.157,9.157,0,0,0-17.74-3.074A4.588,4.588,0,0,0,6.043,8.553a4.488,4.488,0,0,0-.2.618,6.784,6.784,0,0,0,1.017,13.5h5.715a1.131,1.131,0,1,0,0-2.263H6.862a4.526,4.526,0,1,1,0-9.051,1.137,1.137,0,0,0,1.143-1.131,2.274,2.274,0,0,1,2.29-2.259,2.3,2.3,0,0,1,1.6.647A1.151,1.151,0,0,0,13.508,8.6a1.127,1.127,0,0,0,.314-.613,6.849,6.849,0,0,1,13.516,2.224q-.055.33-.144.654a1.126,1.126,0,0,0,.472,1.244,4.5,4.5,0,0,1,1.282,6.273,4.584,4.584,0,0,1-3.8,2.023H21.721a1.131,1.131,0,1,0,0,2.263H25.15A6.774,6.774,0,0,0,29.57,10.7Z" transform="translate(11.999 7.943)" fill="#606060"/></g></svg>