<svg xmlns="http://www.w3.org/2000/svg" width="16" height="16" viewBox="0 0 16 16">
  <defs>
    <style>
      .todo-url-1 {
        fill: #dadada;
      }
    </style>
  </defs>
  <g id="icon-url" transform="translate(-0.004 -0.652)">
    <path id="Path_1574" data-name="Path 1574" class="todo-url-1" d="M152.281,4.5a4.277,4.277,0,0,0,.668,6.454.177.177,0,0,0,.221-.021,7.1,7.1,0,0,0,1.143-1.386.166.166,0,0,0-.065-.233,2.139,2.139,0,0,1-.821-.845h0a2.06,2.06,0,0,1-.175-1.407h0a4.558,4.558,0,0,1,1.335-1.775h0l1.954-1.994a2,2,0,0,1,2.845-.015,2.028,2.028,0,0,1,.029,2.86l-1.182,1.218a.208.208,0,0,0-.047.208,5.6,5.6,0,0,1,.157,2.745.024.024,0,0,0,.041.022L160.9,7.756a4.222,4.222,0,0,0-6.027-5.91l-2.585,2.638-.01.01Z" transform="translate(-146.037)"/>
    <path id="Path_1575" data-name="Path 1575" class="todo-url-1" d="M10.484,176.308h0a4.318,4.318,0,0,0,.374-3.068h0A4.239,4.239,0,0,0,9.15,170.8a.234.234,0,0,0-.259.012,4.1,4.1,0,0,0-1.134,1.367.189.189,0,0,0,.075.247,2.119,2.119,0,0,1,.812.831h0a1.94,1.94,0,0,1,.208,1.273h0c-.09.7-.795,1.337-1.351,1.913h0l-1.943,1.983A2.022,2.022,0,0,1,2.669,175.6l1.187-1.22a.208.208,0,0,0,.048-.208,5.9,5.9,0,0,1-.169-2.738.024.024,0,0,0-.041-.022l-2.48,2.531a4.287,4.287,0,0,0,.031,6,4.234,4.234,0,0,0,5.971-.061c.564-.632,2.981-2.869,3.273-3.571Z" transform="translate(0 -164.493)"/>
  </g>
</svg>
