<svg xmlns="http://www.w3.org/2000/svg" width="15.000" height="15.000" viewBox="0 0 15.000 15.000">
  <g id="url" transform="translate(0 -0.588)">
    <path id="Path_1566" data-name="Path 1566" d="M152.237,4.351a4.116,4.116,0,0,0,.643,6.211.17.17,0,0,0,.213-.02,6.83,6.83,0,0,0,1.1-1.334.16.16,0,0,0-.063-.224,2.059,2.059,0,0,1-.79-.813h0a1.982,1.982,0,0,1-.168-1.354h0a4.386,4.386,0,0,1,1.285-1.708h0l1.88-1.919a1.928,1.928,0,0,1,2.738-.014,1.952,1.952,0,0,1,.028,2.752L157.966,7.1a.2.2,0,0,0-.045.2,5.389,5.389,0,0,1,.151,2.642.023.023,0,0,0,.039.021l2.424-2.474a4.063,4.063,0,0,0-5.8-5.688L152.247,4.34l-.01.01Z" transform="translate(-146.654 0)" fill="#606060"/>
    <path id="Path_1567" data-name="Path 1567" d="M10.09,176.1h0l0,0a4.156,4.156,0,0,0,.36-2.953h0a4.08,4.08,0,0,0-1.644-2.346.225.225,0,0,0-.249.012,3.944,3.944,0,0,0-1.091,1.316.182.182,0,0,0,.072.238,2.039,2.039,0,0,1,.781.8h0a1.867,1.867,0,0,1,.2,1.225h0c-.087.671-.765,1.287-1.3,1.841h0l-1.87,1.908a1.946,1.946,0,0,1-2.78-2.724l1.142-1.174a.2.2,0,0,0,.046-.2,5.679,5.679,0,0,1-.163-2.635.023.023,0,0,0-.039-.021l-2.387,2.436a4.126,4.126,0,0,0,.03,5.776,4.075,4.075,0,0,0,5.746-.059c.543-.608,2.869-2.761,3.15-3.437Z" transform="translate(0 -165.17)" fill="#606060"/>
  </g>
</svg>
