<svg id="Group_2824" data-name="Group 2824" xmlns="http://www.w3.org/2000/svg" width="16" height="13.386" viewBox="0 0 16 13.386">
  <path id="Path_874" data-name="Path 874" d="M192.43,6.4a2.223,2.223,0,1,0-2.223-2.223A2.223,2.223,0,0,0,192.43,6.4Z" transform="translate(-180.381 -1.868)" fill="#606060"/>
  <path id="Path_875" data-name="Path 875" d="M195.46,11.411a4.838,4.838,0,0,0-3.75-1.9,4.749,4.749,0,0,0-3.452,1.567,8.294,8.294,0,0,1,3.063,2.388,2.28,2.28,0,0,1,.382.708h0a5.442,5.442,0,0,0,3.645-1.4A1,1,0,0,0,195.46,11.411Z" transform="translate(-179.677 -4.582)" fill="#606060"/>
  <path id="Path_876" data-name="Path 876" d="M185.727,15.111a7.351,7.351,0,0,0-2.8-2.141,6.258,6.258,0,0,0-2.465-.517,6.816,6.816,0,0,0-5.285,2.683,1.415,1.415,0,0,0,.155,1.923,7.659,7.659,0,0,0,5.118,1.961h.012a7.662,7.662,0,0,0,5.127-1.968,1.415,1.415,0,0,0,.153-1.922Z" transform="translate(-174.873 -5.634)" fill="#606060"/>
  <path id="Path_877" data-name="Path 877" d="M180.58,7.783a3.125,3.125,0,1,0-1.82-2.834A3.107,3.107,0,0,0,180.58,7.783Z" transform="translate(-176.269 -1.818)" fill="#606060"/>
</svg>
