<svg id="warning" xmlns="http://www.w3.org/2000/svg" width="20" height="18.283" viewBox="0 0 20 18.283">
  <g id="Group_2657" data-name="Group 2657">
    <path id="Path_1535" data-name="Path 1535" d="M219.223,333.382a1,1,0,1,0,0,2,1,1,0,0,0,0-2Z" transform="translate(-209.224 -320.487)" fill="#ffc156"/>
    <path id="Path_1536" data-name="Path 1536" d="M19.513,37.372a3.51,3.51,0,0,0,.008-3.552L13.083,22.67a3.547,3.547,0,0,0-6.159,0L.477,33.828a3.561,3.561,0,0,0,3.083,5.336h12.86A3.541,3.541,0,0,0,19.513,37.372Zm-1.4-.806a1.943,1.943,0,0,1-1.7.983H3.557a1.916,1.916,0,0,1-1.677-.962,1.945,1.945,0,0,1,0-1.961L8.322,23.468a1.936,1.936,0,0,1,3.363,0L18.127,34.63A1.92,1.92,0,0,1,18.115,36.567Z" transform="translate(0 -20.882)" fill="#ffc156"/>
    <path id="Path_1537" data-name="Path 1537" d="M218.5,157.2a1.085,1.085,0,0,0-.77,1.09c.024.315.044.635.068.95.068,1.2.136,2.379.2,3.58a.731.731,0,0,0,.746.7.746.746,0,0,0,.746-.726c0-.247,0-.475.024-.726.044-.77.092-1.541.136-2.311.024-.5.068-1,.092-1.5a1.233,1.233,0,0,0-.092-.5A1,1,0,0,0,218.5,157.2Z" transform="translate(-208.743 -151.482)" fill="#ffc156"/>
  </g>
</svg>
