<svg xmlns="http://www.w3.org/2000/svg" width="17.883" height="24.023" viewBox="0 0 17.883 24.023"><defs><style>.a{opacity:0.8;}.b{fill:#606060;}</style></defs><g class="a"><path class="b" d="M8.667,0h.515a8.9,8.9,0,0,1,6.032,2.555,9.13,9.13,0,0,1,2.617,5.581A9.392,9.392,0,0,1,16.1,14.623c-2.376,3.144-4.8,6.25-7.163,9.4H8.9a3.814,3.814,0,0,0-.535-.792l-6.5-8.5A9.259,9.259,0,0,1,0,9.385V8.42A9.483,9.483,0,0,1,2.5,2.8,8.906,8.906,0,0,1,8.667,0M8.028,4.22a5.272,5.272,0,0,0-4.069,3.9A5.375,5.375,0,0,0,4.9,12.688a5.112,5.112,0,0,0,8.107.071,5.344,5.344,0,0,0-1.6-8A5.072,5.072,0,0,0,8.028,4.22Z"/></g></svg>