<svg xmlns="http://www.w3.org/2000/svg" width="14" height="12" viewBox="0 0 14 12">
  <g id="icon" transform="translate(17.001 -3.453)">
    <path id="Path_5699" data-name="Path 5699" d="M435.159,429.629h-2.379a2.87,2.87,0,0,1-2.719-3v-6a2.87,2.87,0,0,1,2.719-3h2.379a.359.359,0,0,1,.34.375v1.25a.359.359,0,0,1-.34.375h-2.379a.957.957,0,0,0-.906,1v6a.957.957,0,0,0,.906,1h2.379a.359.359,0,0,1,.34.375v1.25A.359.359,0,0,1,435.159,429.629Z" transform="translate(-447.061 -414.176)" fill="#fff" style="isolation: isolate"/>
    <path id="Path_5700" data-name="Path 5700" d="M445.637,418.944l4.3,4.75a.819.819,0,0,1,0,1.071l0,0-4.305,4.756a.634.634,0,0,1-.96,0l-.62-.691a.821.821,0,0,1,0-1.074l.019-.021,2.2-2.243H440.85a.719.719,0,0,1-.68-.753v-1.013a.72.72,0,0,1,.676-.757h5.428l-2.2-2.242a.818.818,0,0,1-.038-1.07l.018-.022.62-.691a.632.632,0,0,1,.96,0Z" transform="translate(-453.141 -414.779)" fill="#fff"/>
  </g>
</svg>
