<svg xmlns="http://www.w3.org/2000/svg" width="14" height="18" viewBox="0 0 14 18">
  <path id="Path_8037" data-name="Path 8037" d="M69.6,89.876a.509.509,0,0,0-.534.083l-1.293,1.125-1.293-1.125a.513.513,0,0,0-.667,0l-1.293,1.125L63.23,89.959a.512.512,0,0,0-.667,0l-1.3,1.126-1.293-1.125a.513.513,0,0,0-.667,0l-1.293,1.125L56.72,89.959a.511.511,0,0,0-.7.032.462.462,0,0,0-.129.318v16.525a1.024,1.024,0,0,0,1.045,1h11.91a1.024,1.024,0,0,0,1.045-1V90.311A.472.472,0,0,0,69.6,89.876Zm-5.95,9.639a3.254,3.254,0,0,0-.933-.363,4.25,4.25,0,0,1-1.318-.564,1.768,1.768,0,0,1-.713-1.509,2.127,2.127,0,0,1,1.624-2.032v-.235a.532.532,0,0,1,.176-.4.6.6,0,0,1,.819,0,.538.538,0,0,1,.17.394v.235A2.131,2.131,0,0,1,65.1,97.074a.526.526,0,0,1-.169.393.612.612,0,0,1-.825,0,.531.531,0,0,1-.169-.4,1.018,1.018,0,0,0-1.042-.991h0a1.04,1.04,0,0,0-.741.289.932.932,0,0,0-.305.7.743.743,0,0,0,.271.642,3.6,3.6,0,0,0,.933.359,4.4,4.4,0,0,1,1.327.568,1.8,1.8,0,0,1,.719,1.528,2.128,2.128,0,0,1-1.625,2.032v.23a.564.564,0,0,1-.567.559H62.89a.569.569,0,0,1-.411-.161.535.535,0,0,1-.173-.4v-.23a2.127,2.127,0,0,1-1.624-2.032.526.526,0,0,1,.168-.393.6.6,0,0,1,.82-.005l.005.005a.526.526,0,0,1,.168.393.937.937,0,0,0,.306.7,1.085,1.085,0,0,0,1.475,0,.928.928,0,0,0,.306-.7A.767.767,0,0,0,63.648,99.515Zm1.463,6.269H60.673a.475.475,0,1,1,0-.949h4.437a.475.475,0,1,1,0,.949Z" transform="translate(-55.891 -89.835)" fill="#e1e1e1"/>
</svg>
