<svg xmlns="http://www.w3.org/2000/svg" width="15" height="19" viewBox="0 0 15 19">
  <g id="Group_11342" data-name="Group 11342" transform="translate(-209.57 -155.511)">
    <path id="Subtraction_31" data-name="Subtraction 31" d="M11551,12567.4h-12a1,1,0,0,1-1-1v-16a1,1,0,0,1,1-1h12a1,1,0,0,1,1,1v16A1,1,0,0,1,11551,12567.4Zm-8.967-6.558a.562.562,0,0,0,0,1.123h2.252a.562.562,0,0,0,0-1.123Zm0-3a.561.561,0,1,0,0,1.122h5.626a.561.561,0,1,0,0-1.122Zm0-3.006a.563.563,0,0,0,0,1.126h5.626a.563.563,0,0,0,0-1.126Z" transform="translate(-11327.93 -12393.386)" fill="#e6e6e6" stroke="rgba(0,0,0,0)" stroke-miterlimit="10" stroke-width="1"/>
  </g>
</svg>
