<svg xmlns="http://www.w3.org/2000/svg" width="15" height="18" viewBox="0 0 15 18">
  <g id="Group_11340" data-name="Group 11340" transform="translate(-388.417 -228.395)">
    <path id="Path_9370" data-name="Path 9370" d="M355.911,203.769l-4.034-5.5a1.113,1.113,0,0,0-.9-.454h-8.062a1,1,0,0,0-1,1v16a1,1,0,0,0,1,1h12.207a1,1,0,0,0,1-1V204.426A1.11,1.11,0,0,0,355.911,203.769Zm-11.318-2.811a1.145,1.145,0,0,1,1.143-1.142h3.5a1.145,1.145,0,0,1,0,2.29h-3.5A1.145,1.145,0,0,1,344.592,200.958Zm4.283,10.857a2.184,2.184,0,0,1-2.032-2.03c0-1.9,2.18-3.863,2.18-3.863s2.18,2.249,2.18,3.863A2.184,2.184,0,0,1,348.875,211.815Z" transform="translate(46.5 30.58)" fill="#e1e1e1"/>
    <path id="Rectangle_5211" data-name="Rectangle 5211" d="M354.821,199.964a.554.554,0,0,1,.777.114l1.2,1.611a.556.556,0,0,1-.114.778l-1.123.836-1.836-2.5Z" transform="translate(46.512 30.58)" fill="#919191"/>
  </g>
</svg>
