<svg xmlns="http://www.w3.org/2000/svg" width="18" height="18" viewBox="0 0 18 18">
  <g id="Group_11341" data-name="Group 11341" transform="translate(-269.527 -89.433)">
    <path id="Path_9360" data-name="Path 9360" d="M287.518,97.619a1,1,0,0,0-1.009-1l-.872.006a7.323,7.323,0,0,0-.85-2.019l.614-.622a1,1,0,0,0-.008-1.418l-1.083-1.07a1,1,0,0,0-1.418.008l-.614.62a7.289,7.289,0,0,0-2.03-.825l0-.871a1,1,0,0,0-1.009-1l-1.522.009a1,1,0,0,0-1,1.009l.005.871a7.262,7.262,0,0,0-2.02.849l-.612-.606a1.018,1.018,0,0,0-1.434.008l0,0-1.062,1.074a1,1,0,0,0,.008,1.419l.622.615a7.235,7.235,0,0,0-.827,2.027l-.872.005a1,1,0,0,0-1,1.009l.009,1.523a1,1,0,0,0,1.009,1l.871-.006a7.322,7.322,0,0,0,.85,2.019l-.613.621a1,1,0,0,0,.008,1.418l1.082,1.07a1,1,0,0,0,1.418-.008l.613-.62a7.258,7.258,0,0,0,2.03.825l0,.872a1,1,0,0,0,1.009,1l1.523-.009a1,1,0,0,0,1-1.009l-.005-.872a7.317,7.317,0,0,0,2.019-.849l.621.613a1,1,0,0,0,1.418-.009l1.07-1.082a1,1,0,0,0-.008-1.418l-.621-.614a7.28,7.28,0,0,0,.826-2.028l.871-.005a1,1,0,0,0,1-1.009Zm-5.557,4.208a4.827,4.827,0,1,1-6.864-6.789h0a4.828,4.828,0,0,1,6.867,6.789Z" transform="translate(0)" fill="#dadada"/>
    <circle id="Ellipse_2707" data-name="Ellipse 2707" cx="2.474" cy="2.474" r="2.474" transform="translate(276.055 95.958)" fill="#dadada"/>
  </g>
</svg>
