<svg xmlns="http://www.w3.org/2000/svg" width="17" height="16" viewBox="0 0 17 16">
  <g id="Group_8537" data-name="Group 8537" transform="translate(-1266 -561)">
    <g id="Group_8539" data-name="Group 8539" transform="translate(1048.582 180.166)">
      <path id="Path_7699" data-name="Path 7699" d="M225.493,380.834h-.159a8,8,0,0,0,0,16h.168a8,8,0,0,0-.009-16Zm6.691,8a6.785,6.785,0,0,1-6.7,6.764h-.137a6.763,6.763,0,0,1,0-13.526h.142A6.775,6.775,0,0,1,232.184,388.834Z" fill="#919191"/>
      <path id="Path_7700" data-name="Path 7700" d="M223.791,387.631a1.2,1.2,0,1,0-1.2,1.2A1.2,1.2,0,0,0,223.791,387.631Z" transform="translate(-0.057 0.058)" fill="#919191"/>
      <circle id="Ellipse_2442" data-name="Ellipse 2442" cx="1.2" cy="1.2" r="1.2" transform="translate(226.996 386.488)" fill="#919191"/>
      <path id="Path_7701" data-name="Path 7701" d="M227.652,390.618a.643.643,0,0,0-.426-.256.651.651,0,0,0-.454.1l-.061.044a2.1,2.1,0,0,1-2.484.005.651.651,0,1,0-.849.987l.032.025a3.388,3.388,0,0,0,4.108,0,.653.653,0,0,0,.134-.909Z" transform="translate(-0.109 0.098)" fill="#919191"/>
    </g>
    <g id="Group_8540" data-name="Group 8540" transform="translate(1041.076 186.372)">
      <path id="Path_7703" data-name="Path 7703" d="M238.924,384.628a3,3,0,1,0,3,3A3,3,0,0,0,238.924,384.628Z" fill="#919191"/>
      <path id="Path_7702" data-name="Path 7702" d="M239.332,387.22V386.4a.409.409,0,1,0-.817,0v.823h-.823a.408.408,0,0,0-.408.408h0a.409.409,0,0,0,.409.407h.822v.823a.409.409,0,0,0,.817,0v-.823h.823a.408.408,0,1,0,0-.817Z" fill="#fff"/>
    </g>
  </g>
</svg>
