<svg xmlns="http://www.w3.org/2000/svg" width="41.999" height="42" viewBox="0 0 41.999 42">
  <path id="Subtraction_104" data-name="Subtraction 104" d="M-15216,18394h-36a3,3,0,0,1-3-3v-36a3,3,0,0,1,3-3h36a3.006,3.006,0,0,1,3,3v36A3,3,0,0,1-15216,18394Zm-21.913-30.186a1.326,1.326,0,0,0-.946.393,1.347,1.347,0,0,0,0,1.9l6.878,6.9-6.878,6.9a1.347,1.347,0,0,0,0,1.9,1.346,1.346,0,0,0,.946.393,1.352,1.352,0,0,0,.946-.393l7.824-7.848a1.333,1.333,0,0,0,.393-.951,1.319,1.319,0,0,0-.393-.945l-7.824-7.848A1.326,1.326,0,0,0-15237.912,18363.813Z" transform="translate(15254.997 -18351.998)" fill="#fff"/>
</svg>
