<svg xmlns="http://www.w3.org/2000/svg" width="18" height="18" viewBox="0 0 18 18">
  <path id="Path_10905" data-name="Path 10905" d="M304.163,385.663a9,9,0,1,0,9,9A9,9,0,0,0,304.163,385.663Zm4.119,12.98-.138.138a.819.819,0,0,1-1.157,0l-2.823-2.823-2.754,2.753a.916.916,0,1,1-1.3-1.3l2.753-2.753-2.823-2.823a.817.817,0,0,1,0-1.157l.138-.138h0a.818.818,0,0,1,1.157,0l2.823,2.823,2.753-2.753a.916.916,0,0,1,1.3,1.3l-2.754,2.753,2.823,2.823A.818.818,0,0,1,308.282,398.643Z" transform="translate(-295.163 -385.663)" fill="#B7B7B7"/>
</svg>
