<svg xmlns="http://www.w3.org/2000/svg" width="16" height="16" viewBox="0 0 16 16">
  <path id="times-octagon" d="M15.559,4.7A1.5,1.5,0,0,1,16,5.763v4.472a1.5,1.5,0,0,1-.441,1.059L11.3,15.559A1.5,1.5,0,0,1,10.238,16H5.766a1.5,1.5,0,0,1-1.059-.441L.441,11.3A1.5,1.5,0,0,1,0,10.238V5.766A1.5,1.5,0,0,1,.441,4.706L4.7.441A1.5,1.5,0,0,1,5.763,0h4.472a1.5,1.5,0,0,1,1.059.441ZM11.8,10.563a.375.375,0,0,0,0-.531L9.769,8,11.8,5.966a.375.375,0,0,0,0-.531L10.563,4.2a.375.375,0,0,0-.531,0L8,6.231,5.966,4.2a.375.375,0,0,0-.531,0L4.2,5.438a.375.375,0,0,0,0,.531L6.234,8,4.2,10.038a.375.375,0,0,0,0,.531l1.238,1.238a.375.375,0,0,0,.531,0L8,9.772l2.034,2.034a.375.375,0,0,0,.531,0L11.8,10.563Z" fill="#919191"/>
</svg>
