<svg xmlns="http://www.w3.org/2000/svg" xmlns:xlink="http://www.w3.org/1999/xlink" width="873" height="854.977" viewBox="0 0 873 854.977">
  <defs>
    <filter id="Path_12346" x="0" y="0" width="873" height="853" filterUnits="userSpaceOnUse">
      <feOffset input="SourceAlpha"/>
      <feGaussianBlur stdDeviation="2" result="blur"/>
      <feFlood flood-opacity="0.161"/>
      <feComposite operator="in" in2="blur"/>
      <feComposite in="SourceGraphic"/>
    </filter>
  </defs>
  <g id="Group_39365" data-name="Group 39365" transform="translate(-23900 14620)">
    <g id="Group_33007" data-name="Group 33007" transform="translate(23906 -13765.023) rotate(-90)">
      <path id="Path_12328" data-name="Path 12328" d="M56.383,57.851l.007,0Z" transform="translate(-53.202 -57.645)" fill="#fff"/>
      <path id="Path_12329" data-name="Path 12329" d="M46.628,1024.653h0Z" transform="translate(-46.628 -174.623)" fill="#fff"/>
      <path id="Path_12330" data-name="Path 12330" d="M59.124,57.294h0Z" transform="translate(-55.05 -57.271)" fill="#fff"/>
      <path id="Path_12331" data-name="Path 12331" d="M52.611,59.434c.066-.045.135-.086.2-.128C52.746,59.348,52.677,59.389,52.611,59.434Z" transform="translate(-50.66 -58.626)" fill="#fff"/>
      <path id="Path_12332" data-name="Path 12332" d="M53.774,58.751c.071-.039.145-.074.218-.11C53.919,58.677,53.845,58.711,53.774,58.751Z" transform="translate(-51.444 -58.178)" fill="#fff"/>
      <path id="Path_12333" data-name="Path 12333" d="M51.529,60.227c.06-.051.124-.1.187-.146C51.653,60.129,51.589,60.176,51.529,60.227Z" transform="translate(-49.931 -59.149)" fill="#fff"/>
      <path id="Path_12334" data-name="Path 12334" d="M55.008,58.185c.076-.033.155-.06.234-.089C55.163,58.125,55.084,58.152,55.008,58.185Z" transform="translate(-52.276 -57.811)" fill="#fff"/>
      <path id="Path_12335" data-name="Path 12335" d="M1865.455,65.772h0Z" transform="translate(-1022.837 -62.984)" fill="#fff"/>
      <path id="Path_12336" data-name="Path 12336" d="M1866.271,68.4h0Z" transform="translate(-1023.387 -64.755)" fill="#fff"/>
      <path id="Path_12337" data-name="Path 12337" d="M1866.483,69.79h0Z" transform="translate(-1023.53 -65.692)" fill="#fff"/>
      <path id="Path_12338" data-name="Path 12338" d="M1863.263,62.211c.028.033.054.067.081.1C1863.317,62.278,1863.291,62.244,1863.263,62.211Z" transform="translate(-1021.36 -60.584)" fill="#fff"/>
      <path id="Path_12339" data-name="Path 12339" d="M1864.022,63.2c.026.037.052.075.078.113C1864.074,63.279,1864.048,63.241,1864.022,63.2Z" transform="translate(-1021.871 -61.254)" fill="#fff"/>
      <path id="Path_12340" data-name="Path 12340" d="M1864.865,64.548h0Z" transform="translate(-1022.44 -62.159)" fill="#fff"/>
      <path id="Path_12341" data-name="Path 12341" d="M1861.474,1033.838c-.031.027-.061.054-.093.081C1861.413,1033.892,1861.443,1033.865,1861.474,1033.838Z" transform="translate(-1020.092 -180.813)" fill="#fff"/>
      <path id="Path_12342" data-name="Path 12342" d="M1863.265,1032.005c-.029.036-.059.07-.089.105C1863.206,1032.075,1863.236,1032.041,1863.265,1032.005Z" transform="translate(-1021.301 -179.578)" fill="#fff"/>
      <path id="Path_12343" data-name="Path 12343" d="M1862.308,1033.045c.034-.034.068-.068.1-.1C1862.376,1032.977,1862.342,1033.011,1862.308,1033.045Z" transform="translate(-1020.716 -180.21)" fill="#fff"/>
      <path id="Path_12344" data-name="Path 12344" d="M1864.081,1031.01c-.017.024-.035.048-.052.072C1864.046,1031.058,1864.065,1031.034,1864.081,1031.01Z" transform="translate(-1021.876 -178.907)" fill="#fff"/>
      <path id="Path_12345" data-name="Path 12345" d="M1864.879,1029.659c-.017.032-.031.065-.049.1C1864.847,1029.724,1864.862,1029.691,1864.879,1029.659Z" transform="translate(-1022.416 -177.997)" fill="#fff"/>
      <g transform="matrix(0, 1, -1, 0, 854.98, -6)" filter="url(#Path_12346)">
        <path id="Path_12346-2" data-name="Path 12346" d="M885.708,69.522a14.2,14.2,0,0,0-1.127-5.75l1.392-2.295c-1.091-2.394-2.659-3.973-4.424-4.21l-.13,3.491a2.6,2.6,0,0,0-.331-.022h-4.621V57.222h-5.083v3.514H866.3V57.222h-5.083v3.514h-5.083V57.222h-5.083v3.514h-5.083V57.222h-5.083v3.514H835.8V57.222h-5.083v3.514h-5.083V57.222h-5.083v3.514H815.47V57.222h-5.083v3.514H805.3V57.222h-5.083v3.514h-5.083V57.222h-5.083v3.514h-5.083V57.222H779.89v3.514h-5.083V57.222h-5.083v3.514h-5.083V57.222h-5.083v3.514h-5.083V57.222h-5.083v3.514h-5.083V57.222h-5.083v3.514h-5.083V57.222H729.06v3.514h-5.083V57.222h-5.083v3.514h-5.083V57.222h-5.083v3.514h-5.083V57.222h-5.083v3.514h-5.083V57.222H688.4v3.514h-5.083V57.222H678.23v3.514h-5.083V57.222h-5.083v3.514h-5.083V57.222H657.9v3.514h-5.083V57.222h-5.083v3.514h-5.083V57.222h-5.083v3.514h-5.083V57.222H627.4v3.514h-5.083V57.222h-5.083v3.514h-5.083V57.222h-5.083v3.514h-5.083V57.222H596.9v3.514H591.82V57.222h-5.083v3.514h-5.083V57.222h-5.083v3.514h-5.083V57.222h-5.083v3.514h-5.083V57.222h-5.083v3.514h-5.083V57.222h-5.083v3.514H540.99V57.222h-5.083v3.514h-5.083V57.222h-5.083v3.514h-5.083V57.222h-5.083v3.514h-5.083V57.222h-5.083v3.514h-5.083V57.222h-5.083v3.514H490.16V57.222h-5.083v3.514h-5.083V57.222h-5.083v3.514h-5.083V57.222h-5.083v3.514h-5.083V57.222H454.58v3.514H449.5V57.222h-5.083v3.514h-5.083V57.222h-5.083v3.514h-5.083V57.222h-5.083v3.514H419V57.222h-5.083v3.514h-5.083V57.222H403.75v3.514h-5.083V57.222h-5.083v3.514H388.5V57.222h-5.083v3.514h-5.083V57.222h-5.083v3.514h-5.083V57.222h-5.083v3.514H358V57.222H352.92v3.514h-5.083V57.222h-5.083v3.514h-5.083V57.222h-5.083v3.514h-5.083V57.222h-5.083v3.514H317.34V57.222h-5.083v3.514h-5.083V57.222h-5.083v3.514h-5.083V57.222h-5.083v3.514h-5.083V57.222h-5.083v3.514h-5.083V57.222h-5.083v3.514H266.51V57.222h-5.083v3.514h-5.083V57.222h-5.083v3.514h-5.083V57.222H241.1v3.514h-5.083V57.222h-5.083v3.514h-5.083V57.222h-5.083v3.514H215.68V57.222H210.6v3.514h-5.083V57.222h-5.083v3.514h-5.083V57.222h-5.083v3.514h-5.083V57.222H180.1v3.514h-5.083V57.222h-5.083v3.514h-5.083V57.222h-5.083v3.514h-5.083V57.222H149.6v3.514h-5.083V57.222h-5.083v3.514h-5.083V57.222H129.27v3.514h-5.083V57.222H119.1v3.514h-5.083V57.222h-5.083v3.514h-5.083V57.222H98.772v3.514H93.689V57.222H88.606v3.514H83.523V57.222H78.44v3.514H73.357V57.222H68.274v3.514H63.191V57.222H58.108v3.514H53.025a3.757,3.757,0,0,0-3.02,2.136L48.8,60.221a17.848,17.848,0,0,0-2.22,8.407l1.837.251c-.008.212-.012.429-.012.642v8.769H46.556v9.664H48.4V97.62H46.556v9.664H48.4v9.664H46.556v9.664H48.4v9.664H46.556v9.664H48.4v9.664H46.556v9.664H48.4v9.664H46.556V184.6H48.4v9.664H46.556v9.664H48.4v9.664H46.556v9.664H48.4v9.664H46.556v9.664H48.4v9.664H46.556v9.664H48.4v9.664H46.556v9.664H48.4v9.664H46.556v9.664H48.4v9.664H46.556V319.9H48.4v9.664H46.556v9.664H48.4v9.664H46.556v9.664H48.4v9.664H46.556v9.664H48.4v9.664H46.556v9.664H48.4v9.664H46.556v9.664H48.4v9.664H46.556v9.664H48.4v9.664H46.556V455.2H48.4v9.664H46.556v9.664H48.4v9.664H46.556v9.664H48.4v9.664H46.556v9.664H48.4v9.664H46.556v9.664H48.4v9.664H46.556v9.664H48.4v9.664H46.556v9.664H48.4v9.664H46.556V590.5H48.4v9.664H46.556v9.664H48.4v9.664H46.556v9.664H48.4v9.664H46.556v9.664H48.4v9.664H46.556v9.664H48.4v9.664H46.556v9.664H48.4v9.664H46.556v9.664H48.4v9.664H46.556V725.8H48.4v9.664H46.556v9.664H48.4v9.664H46.556v9.664H48.4v9.664H46.556v9.664H48.4v9.664H46.556v9.664H48.4v9.664H46.556v9.664H48.4v9.664H46.556v9.664H48.4v9.664H46.556V861.1H48.4v9.664H46.556v9.664H48.4v9.664H46.556v9.664H48.4v6.167a16.347,16.347,0,0,0,.184,2.467l-1.77.982a13.823,13.823,0,0,0,3.1,7.34l.889-3.079a3.1,3.1,0,0,0,2.218,1.075h1.842v3.514h5.083v-3.514h5.083v3.514h5.083v-3.514H75.2v3.514h5.083v-3.514h5.083v3.514h5.083v-3.514h5.083v3.514h5.083v-3.514H105.7v3.514h5.083v-3.514h5.083v3.514h5.083v-3.514h5.083v3.514h5.083v-3.514H136.2v3.514h5.083v-3.514h5.083v3.514h5.083v-3.514h5.083v3.514h5.083v-3.514h5.083v3.514h5.083v-3.514h5.083v3.514h5.083v-3.514h5.083v3.514h5.083v-3.514h5.083v3.514h5.083v-3.514h5.083v3.514h5.083v-3.514h5.083v3.514h5.083v-3.514h5.083v3.514h5.083v-3.514h5.083v3.514h5.083v-3.514h5.083v3.514H253.1v-3.514h5.083v3.514h5.083v-3.514h5.083v3.514h5.083v-3.514h5.083v3.514H283.6v-3.514h5.083v3.514h5.083v-3.514h5.083v3.514h5.083v-3.514h5.083v3.514H314.1v-3.514h5.083v3.514h5.083v-3.514h5.083v3.514h5.083v-3.514h5.083v3.514H344.6v-3.514h5.083v3.514h5.083v-3.514h5.083v3.514h5.083v-3.514h5.083v3.514h5.083v-3.514h5.083v3.514h5.083v-3.514h5.083v3.514h5.083v-3.514h5.083v3.514h5.083v-3.514h5.083v3.514h5.083v-3.514h5.083v3.514h5.083v-3.514h5.083v3.514h5.083v-3.514h5.083v3.514h5.083v-3.514h5.083v3.514h5.083v-3.514h5.083v3.514h5.083v-3.514h5.083v3.514h5.083v-3.514h5.083v3.514h5.083v-3.514H492v3.514h5.083v-3.514h5.083v3.514h5.083v-3.514h5.083v3.514h5.083v-3.514H522.5v3.514h5.083v-3.514h5.083v3.514h5.083v-3.514h5.083v3.514h5.083v-3.514H553v3.514h5.083v-3.514h5.083v3.514h5.083v-3.514h5.083v3.514h5.083v-3.514H583.5v3.514h5.083v-3.514h5.083v3.514h5.083v-3.514h5.083v3.514h5.083v-3.514h5.083v3.514h5.083v-3.514h5.083v3.514h5.083v-3.514h5.083v3.514h5.083v-3.514h5.083v3.514h5.083v-3.514h5.083v3.514h5.083v-3.514h5.083v3.514h5.083v-3.514h5.083v3.514h5.083v-3.514h5.083v3.514h5.083v-3.514h5.083v3.514H700.4v-3.514h5.083v3.514h5.083v-3.514h5.083v3.514h5.083v-3.514h5.083v3.514H730.9v-3.514h5.083v3.514h5.083v-3.514h5.083v3.514h5.083v-3.514h5.083v3.514H761.4v-3.514h5.083v3.514h5.083v-3.514h5.083v3.514h5.083v-3.514h5.083v3.514H791.9v-3.514h5.083v3.514h5.083v-3.514h5.083v3.514h5.083v-3.514h5.083v3.514H822.4v-3.514h5.083v3.514h5.083v-3.514h5.083v3.514h5.083v-3.514h5.083v3.514h5.083v-3.514h5.083v3.514h5.083v-3.514h5.083v3.514h5.083v-3.514h5.083v3.514h2.779a3.884,3.884,0,0,0,2.254-.783l-.642-3.28a7.892,7.892,0,0,0,2.593-4.584l1.674,1.458a21.907,21.907,0,0,0,.591-5.112v-4.387h-1.849v-9.664h1.849v-9.664h-1.849v-9.664h1.849v-9.664h-1.849v-9.664h1.849V843.55h-1.849v-9.664h1.849v-9.664h-1.849v-9.664h1.849v-9.664h-1.849v-9.664h1.849v-9.664h-1.849V775.9h1.849v-9.664h-1.849v-9.664h1.849v-9.664h-1.849v-9.664h1.849v-9.664h-1.849v-9.664h1.849V708.25h-1.849v-9.664h1.849v-9.664h-1.849v-9.664h1.849v-9.664h-1.849v-9.664h1.849v-9.664h-1.849V640.6h1.849v-9.664h-1.849v-9.664h1.849v-9.664h-1.849v-9.664h1.849v-9.664h-1.849v-9.664h1.849V572.95h-1.849v-9.664h1.849v-9.664h-1.849v-9.664h1.849v-9.664h-1.849v-9.664h1.849v-9.664h-1.849V505.3h1.849v-9.664h-1.849v-9.664h1.849v-9.664h-1.849v-9.664h1.849v-9.664h-1.849v-9.664h1.849V437.65h-1.849v-9.664h1.849v-9.664h-1.849v-9.664h1.849v-9.664h-1.849v-9.664h1.849v-9.664h-1.849V370h1.849v-9.664h-1.849v-9.664h1.849v-9.664h-1.849v-9.664h1.849v-9.664h-1.849v-9.664h1.849V302.35h-1.849v-9.664h1.849v-9.664h-1.849v-9.664h1.849v-9.664h-1.849v-9.664h1.849v-9.664h-1.849V234.7h1.849v-9.664h-1.849v-9.664h1.849v-9.664h-1.849v-9.664h1.849v-9.664h-1.849v-9.664h1.849V167.05h-1.849v-9.664h1.849v-9.664h-1.849v-9.664h1.849v-9.664h-1.849v-9.664h1.849v-9.664h-1.849V99.4h1.849V89.735h-1.849V80.071h1.849V70.407h-1.849Z" transform="translate(-51.22 893.56) rotate(-90)" fill="#fff" opacity="0.94"/>
      </g>
      <path id="Path_12347" data-name="Path 12347" d="M1860.331,1034.824l-.03.019Z" transform="translate(-1019.364 -181.478)" fill="#fff"/>
      <path id="Path_12348" data-name="Path 12348" d="M46.84,1026.044Z" transform="translate(-46.771 -175.56)" fill="#fff"/>
      <path id="Path_12349" data-name="Path 12349" d="M1859.228,1035.531h0Z" transform="translate(-1018.64 -181.954)" fill="#fff"/>
      <path id="Path_12350" data-name="Path 12350" d="M53.921,1035.549l-.061-.03Z" transform="translate(-51.502 -181.946)" fill="#fff"/>
      <path id="Path_12351" data-name="Path 12351" d="M56.392,1036.593h0Z" transform="translate(-53.208 -182.67)" fill="#fff"/>
      <path id="Path_12352" data-name="Path 12352" d="M55.123,1036.119c-.044-.017-.088-.034-.131-.052C55.035,1036.086,55.079,1036.1,55.123,1036.119Z" transform="translate(-52.265 -182.315)" fill="#fff"/>
      <path id="Path_12353" data-name="Path 12353" d="M59.124,1037.15h0Z" transform="translate(-55.05 -183.045)" fill="#fff"/>
      <path id="Path_12354" data-name="Path 12354" d="M1857.913,1036.007c-.052.024-.106.046-.159.068Q1857.834,1036.042,1857.913,1036.007Z" transform="translate(-1017.647 -182.275)" fill="#fff"/>
    </g>
    <g id="Group_34173" data-name="Group 34173" transform="translate(23966.959 -14731.704)">
      <g id="Group_33012" data-name="Group 33012" transform="translate(243.843 385)" opacity="0.8">
        <circle id="Ellipse_3223" data-name="Ellipse 3223" cx="22.173" cy="22.173" r="22.173" transform="translate(44.397 221.363) rotate(-45)" fill="#b7b7b7" opacity="0.2" style="mix-blend-mode: multiply;isolation: isolate"/>
        <g id="Bcg" transform="translate(11.151 0)">
          <path id="Path_12272" data-name="Path 12272" d="M668.216,747.453c.916-13.474,4.759-69.99,47.316-97.172,48.7-31.108,122.491-7.437,159.414,39.695,22.5,28.717,39.6,76.731,20.959,117.5-31.7,69.319-151.235,83.714-201.014,33.343C663.993,809.55,667.311,760.762,668.216,747.453Z" transform="translate(-667.653 -636.21)" fill="#f9f9f9"/>
          <ellipse id="Ellipse_3224" data-name="Ellipse 3224" cx="9.195" cy="9.195" rx="9.195" ry="9.195" transform="translate(137.673 4.255)" fill="#5673aa"/>
          <circle id="Ellipse_3225" data-name="Ellipse 3225" cx="5.303" cy="5.303" r="5.303" transform="translate(162.479 239.964) rotate(-45)" fill="#5673aa"/>
        </g>
        <g id="Lock" transform="translate(51.953 196.349)">
          <ellipse id="Ellipse_3226" data-name="Ellipse 3226" cx="22.173" cy="22.173" rx="22.173" ry="22.173" fill="#24c1a1"/>
          <g id="Group_32972" data-name="Group 32972" transform="translate(8.647 9.049)">
            <path id="Path_12292" data-name="Path 12292" d="M1256.594,3107.594l-4.286,4.04a9.828,9.828,0,0,0-.41,13.852l.792.84a9.827,9.827,0,0,0,13.852.41l4.286-4.04a2.268,2.268,0,0,0,.095-3.206l-11.123-11.8A2.268,2.268,0,0,0,1256.594,3107.594Z" transform="translate(-1249.242 -3102.304)" fill="#fff"/>
            <path id="Path_12293" data-name="Path 12293" d="M1390.639,3058.813l2.878-2.713a4.947,4.947,0,0,1,6.786,7.2l-2.878,2.712,1.869,1.983,2.878-2.712a7.672,7.672,0,1,0-10.525-11.166l-2.877,2.712Z" transform="translate(-1376.907 -3052.031)" fill="#fff"/>
            <path id="Path_12294" data-name="Path 12294" d="M1344.5,3212.918a2.317,2.317,0,1,0-3.76-.877l-1.443,1.361a.9.9,0,1,0,1.236,1.311l1.443-1.361A2.317,2.317,0,0,0,1344.5,3212.918Z" transform="translate(-1331.38 -3195.578)" fill="#52d1bd"/>
          </g>
        </g>
        <g id="Blue" transform="translate(101.532 50.073)">
          <path id="Path_12356" data-name="Path 12356" d="M4.573,0h106.7a4.573,4.573,0,0,1,4.573,4.573V144.8a4.573,4.573,0,0,1-4.573,4.573H4.573A4.573,4.573,0,0,1,0,144.8V4.573A4.573,4.573,0,0,1,4.573,0Z" transform="matrix(0.994, 0.113, -0.113, 0.994, 24.53, 7.624)" fill="#b7b7b7" opacity="0.2"/>
          <g id="Group_32970" data-name="Group 32970" transform="translate(0)">
            <path id="Path_12274" data-name="Path 12274" d="M1837.074,1398.219l-103.618-29.193a3.822,3.822,0,0,1-2.635-4.7l38.428-136.4a3.822,3.822,0,0,1,4.7-2.635l103.618,29.193a3.822,3.822,0,0,1,2.635,4.7l-38.428,136.4A3.822,3.822,0,0,1,1837.074,1398.219Z" transform="translate(-1730.679 -1225.152)" fill="#5673aa"/>
            <path id="Path_12275" data-name="Path 12275" d="M2496.277,1571.741l-50.3-14.173a2.827,2.827,0,0,1-1.949-3.477h0a2.827,2.827,0,0,1,3.478-1.949l50.306,14.173a2.827,2.827,0,0,1,1.949,3.478h0A2.828,2.828,0,0,1,2496.277,1571.741Z" transform="translate(-2383.277 -1524.244)" fill="#b3cef6"/>
            <path id="Path_12276" data-name="Path 12276" d="M2302.77,1717.509l-79.24-22.325a2.828,2.828,0,0,1-1.949-3.478h0a2.827,2.827,0,0,1,3.478-1.949l79.241,22.325a2.827,2.827,0,0,1,1.949,3.478h0A2.828,2.828,0,0,1,2302.77,1717.509Z" transform="translate(-2179.746 -1650.159)" fill="#344566"/>
            <path id="Path_12277" data-name="Path 12277" d="M2261.374,1864.442l-79.241-22.325a2.827,2.827,0,0,1-1.949-3.478h0a2.827,2.827,0,0,1,3.478-1.949l79.241,22.325a2.828,2.828,0,0,1,1.949,3.478h0A2.827,2.827,0,0,1,2261.374,1864.442Z" transform="translate(-2141.87 -1784.599)" fill="#344566"/>
            <path id="Path_12278" data-name="Path 12278" d="M2219.977,2011.376l-79.241-22.325a2.827,2.827,0,0,1-1.949-3.478h0a2.828,2.828,0,0,1,3.478-1.949l79.241,22.325a2.828,2.828,0,0,1,1.949,3.477h0A2.828,2.828,0,0,1,2219.977,2011.376Z" transform="translate(-2103.992 -1919.041)" fill="#344566"/>
            <path id="Path_12279" data-name="Path 12279" d="M2178.58,2158.309l-79.241-22.325a2.827,2.827,0,0,1-1.948-3.478h0a2.827,2.827,0,0,1,3.477-1.949l79.241,22.325a2.826,2.826,0,0,1,1.948,3.477h0A2.827,2.827,0,0,1,2178.58,2158.309Z" transform="translate(-2066.115 -2053.481)" fill="#344566"/>
            <path id="Path_12280" data-name="Path 12280" d="M2137.183,2305.243l-79.24-22.325a2.828,2.828,0,0,1-1.949-3.478h0a2.827,2.827,0,0,1,3.477-1.949l79.241,22.325a2.827,2.827,0,0,1,1.948,3.478h0A2.827,2.827,0,0,1,2137.183,2305.243Z" transform="translate(-2028.239 -2187.922)" fill="#344566"/>
            <path id="Path_12281" data-name="Path 12281" d="M2095.787,2452.176l-79.241-22.325a2.827,2.827,0,0,1-1.949-3.478h0a2.827,2.827,0,0,1,3.478-1.948l79.241,22.324a2.827,2.827,0,0,1,1.949,3.478h0A2.828,2.828,0,0,1,2095.787,2452.176Z" transform="translate(-1990.361 -2322.363)" fill="#344566"/>
            <path id="Path_12282" data-name="Path 12282" d="M2054.39,2599.11l-79.241-22.325a2.827,2.827,0,0,1-1.949-3.478h0a2.827,2.827,0,0,1,3.478-1.948l79.241,22.325a2.827,2.827,0,0,1,1.949,3.478h0A2.827,2.827,0,0,1,2054.39,2599.11Z" transform="translate(-1952.484 -2456.804)" fill="#b3cef6"/>
            <path id="Path_12283" data-name="Path 12283" d="M2012.994,2746.043l-79.241-22.325a2.827,2.827,0,0,1-1.949-3.478h0a2.827,2.827,0,0,1,3.478-1.949l79.241,22.325a2.827,2.827,0,0,1,1.948,3.478h0A2.828,2.828,0,0,1,2012.994,2746.043Z" transform="translate(-1914.608 -2591.245)" fill="#344566"/>
          </g>
        </g>
        <g id="Yellow" transform="translate(0 7.931)">
          <path id="Path_12357" data-name="Path 12357" d="M4.655,0H113.281a4.615,4.615,0,0,1,4.655,4.573V144.8a4.615,4.615,0,0,1-4.655,4.573H4.655A4.615,4.615,0,0,1,0,144.8V4.573A4.615,4.615,0,0,1,4.655,0Z" transform="translate(0 47.027) rotate(-23.5)" fill="#b7b7b7" opacity="0.2"/>
          <path id="Path_12275-2" data-name="Path 12275" d="M777.38,983.663c.026-.038.051-.077.076-.116q.11-.171.2-.349c.018-.034.037-.068.054-.1a4.715,4.715,0,0,0,.266-.659c.022-.069.043-.138.063-.208s.03-.116.043-.174c.019-.084.036-.168.05-.252.008-.048.017-.1.024-.144.019-.133.033-.267.04-.4,0-.022,0-.045,0-.067q.007-.176,0-.355c0-.043,0-.087-.008-.131q-.011-.154-.032-.31c-.006-.042-.011-.084-.018-.126-.023-.142-.051-.284-.087-.426l-.2-.781h0L743.426,845.939h0l-.433-1.675c-.038-.148-.084-.292-.136-.433-.016-.045-.036-.088-.054-.132-.038-.095-.077-.189-.12-.28-.023-.049-.049-.1-.074-.144-.043-.084-.088-.166-.136-.247-.028-.047-.058-.093-.087-.139q-.075-.116-.157-.227c-.032-.043-.064-.086-.1-.128-.057-.073-.117-.143-.179-.211-.035-.039-.07-.079-.106-.118-.063-.066-.129-.129-.2-.191-.039-.037-.077-.074-.118-.11-.062-.054-.127-.1-.191-.153a4.7,4.7,0,0,0-.55-.374c-.032-.019-.066-.034-.1-.052-.107-.059-.216-.115-.328-.164-.048-.022-.1-.04-.147-.06-.1-.041-.2-.079-.3-.112-.056-.018-.113-.035-.17-.051-.1-.028-.2-.054-.3-.075-.061-.013-.121-.025-.183-.036-.1-.018-.2-.031-.3-.042-.062-.007-.125-.014-.188-.018-.1-.007-.207-.009-.312-.009-.062,0-.123,0-.184,0-.113,0-.227.016-.341.028-.053.006-.106.009-.16.016a4.722,4.722,0,0,0-.5.1L631.472,868.263a4.738,4.738,0,0,0-.487.156c-.05.019-.1.042-.146.063-.106.044-.212.09-.314.141-.054.028-.106.058-.158.088-.093.051-.184.1-.272.161-.052.034-.1.069-.151.1-.085.06-.168.122-.248.187q-.069.056-.136.115c-.08.07-.157.143-.232.218-.039.039-.078.078-.116.119-.077.083-.149.169-.219.256-.03.038-.061.074-.09.113-.077.1-.149.21-.218.319-.017.027-.036.052-.052.079a4.736,4.736,0,0,0-.295.582c-.034.079-.068.158-.1.239-.019.053-.035.107-.052.16-.027.083-.054.167-.076.252-.014.055-.026.11-.038.165-.019.086-.037.172-.051.259-.009.056-.017.112-.024.169q-.017.133-.026.266c0,.056-.008.113-.009.17,0,.092,0,.184,0,.277,0,.055,0,.109.005.165.006.1.018.2.031.3.006.048.01.095.017.143.024.148.053.3.091.444l.434,1.679h0l34.426,133.116h0l.2.784c.037.142.081.279.13.415.015.04.031.079.046.119q.057.146.122.285c.019.04.037.08.057.119.054.106.11.209.171.31.012.019.022.04.034.059.072.115.149.225.23.333.029.039.06.076.09.114.054.067.109.133.167.2.04.044.08.088.122.131s.1.1.157.153.094.091.144.133c.082.072.168.139.255.2.042.031.084.062.128.092.083.058.168.114.255.167.041.025.083.049.125.073q.125.071.254.134c.038.019.076.038.115.055q.163.075.332.136c.035.013.07.024.106.036q.156.053.315.095l.068.019c.124.031.25.054.377.075l.1.015c.129.018.259.031.389.038l.066,0q.182.007.365,0l.077,0c.134-.008.269-.022.4-.041l.088-.014c.14-.023.28-.05.42-.086l105.809-27.364a4.732,4.732,0,0,0,.517-.169c.052-.02.1-.044.153-.066.115-.049.227-.1.336-.159.054-.028.107-.058.16-.088.106-.061.209-.126.309-.2.044-.031.09-.06.133-.092a4.737,4.737,0,0,0,.367-.3l.031-.027a4.637,4.637,0,0,0,.364-.38c.024-.028.045-.057.068-.085C777.219,983.887,777.3,983.777,777.38,983.663Z" transform="translate(-620.184 -831.294)" fill="#6c6c6c" opacity="0.2" style="mix-blend-mode: multiply;isolation: isolate"/>
          <g id="Group_32971" data-name="Group 32971" transform="translate(8.37 5.519)">
            <path id="Path_12286" data-name="Path 12286" d="M749.966,797.921,785.029,933.5a4.693,4.693,0,0,1-3.364,5.711L675.856,966.576a4.692,4.692,0,0,1-5.711-3.364L635.081,827.633a4.688,4.688,0,0,1,3.364-5.711l105.809-27.364a4.689,4.689,0,0,1,5.712,3.364Z" transform="translate(-634.93 -794.407)" fill="#ffc06e"/>
            <path id="Path_12287" data-name="Path 12287" d="M749.967,797.919l.433,1.676-5.226,16.269L696.73,829.036,647.971,841l-12.454-11.694-.434-1.679a4.686,4.686,0,0,1,3.364-5.711l105.809-27.364A4.686,4.686,0,0,1,749.967,797.919Z" transform="translate(-634.931 -794.405)" fill="#d89444"/>
            <path id="Path_12288" data-name="Path 12288" d="M1161.605,2332.07l.2.781a4.688,4.688,0,0,1-3.364,5.712l-105.809,27.364a4.688,4.688,0,0,1-5.712-3.364l-.2-.784,3.629-10.637a2.929,2.929,0,0,1,2-1.85l98.274-25.416a2.948,2.948,0,0,1,2.65.647Z" transform="translate(-1011.708 -2193.756)" fill="#d89444"/>
            <path id="Path_12289" data-name="Path 12289" d="M1179.648,2335.722a4.677,4.677,0,0,1-3.227,2.931l-105.809,27.364a4.677,4.677,0,0,1-4.244-1l2.209-13.718a2.374,2.374,0,0,1,1.75-1.921l98.274-25.416a2.381,2.381,0,0,1,2.465.832Z" transform="translate(-1029.686 -2193.848)" fill="#ffad43"/>
            <path id="Path_12290" data-name="Path 12290" d="M752.959,795.3l-2.925,20.283a1.432,1.432,0,0,1-1.061,1.186l-94.914,24.546a1.436,1.436,0,0,1-1.506-.522L640.162,824.47a4.678,4.678,0,0,1,3.07-2.549l105.809-27.364A4.675,4.675,0,0,1,752.959,795.3Z" transform="translate(-639.717 -794.407)" fill="#ffad43"/>
            <path id="Path_12291" data-name="Path 12291" d="M1281.408,1078.96a4.454,4.454,0,0,1-4.3-3.333l-9.337-36.1a4.457,4.457,0,0,1,3.191-5.417l2.16-.559a4.451,4.451,0,0,1,5.417,3.191l9.337,36.1a4.457,4.457,0,0,1-3.191,5.417h0l-2.16.559A4.456,4.456,0,0,1,1281.408,1078.96Zm-7.178-44.285a3.179,3.179,0,0,0-.795.1l-2.16.559A3.187,3.187,0,0,0,1269,1039.2l9.337,36.1a3.179,3.179,0,0,0,3.87,2.279l2.16-.559a3.187,3.187,0,0,0,2.279-3.87l-9.337-36.1A3.181,3.181,0,0,0,1274.23,1034.674Z" transform="translate(-1213.83 -1013.084)" fill="#444"/>
            <circle id="Ellipse_3223-2" data-name="Ellipse 3223" cx="6.208" cy="6.208" r="6.208" transform="translate(50.768 25.933) rotate(-45)" fill="#fff"/>
            <ellipse id="Ellipse_3224-2" data-name="Ellipse 3224" cx="6.208" cy="6.208" rx="6.208" ry="6.208" transform="translate(62.457 54.978)" fill="#fff"/>
          </g>
        </g>
        <g id="Whitepaper" transform="translate(89.709 43.085)">
          <path id="Path_12276-2" data-name="Path 12276" d="M1739.57,1182.863l-86.922-9.06a6.2,6.2,0,0,0-6.807,5.522l-14.2,136.281a6.2,6.2,0,0,0,5.522,6.807l105.7,11.017a6.2,6.2,0,0,0,6.807-5.522L1761.91,1210.4Z" transform="translate(-1628.204 -1171.15)" fill="#6c6c6c" opacity="0.25" style="mix-blend-mode: multiply;isolation: isolate"/>
          <g id="Group_32973" data-name="Group 32973">
            <path id="Path_12296" data-name="Path 12296" d="M1699.582,1152.057l-86.921-9.06a6.2,6.2,0,0,0-6.807,5.522l-14.2,136.281a6.2,6.2,0,0,0,5.522,6.807l105.7,11.017a6.2,6.2,0,0,0,6.807-5.522l12.247-117.505Z" transform="translate(-1591.615 -1142.964)" fill="#fff"/>
            <path id="Path_12297" data-name="Path 12297" d="M2838.1,1268.694a6.2,6.2,0,0,0,5.522,6.807l18.776,1.957-22.34-27.539Z" transform="translate(-2732.087 -1240.824)" fill="#ededed"/>
            <path id="Path_12298" data-name="Path 12298" d="M2891.991,1548.7l19.417,5.3.33-3.16Z" transform="translate(-2781.43 -1514.199)" fill="#cecece"/>
            <path id="Path_12299" data-name="Path 12299" d="M2139.145,1478.587l-53.155-5.54a2.629,2.629,0,0,1-2.335-2.877h0a2.628,2.628,0,0,1,2.878-2.334l53.155,5.54a2.627,2.627,0,0,1,2.334,2.878h0A2.628,2.628,0,0,1,2139.145,1478.587Z" transform="translate(-2041.808 -1440.201)" fill="#24c1a1"/>
            <path id="Path_12300" data-name="Path 12300" d="M1948,1668.957l-87.874-9.159a2.628,2.628,0,0,1-2.334-2.878h0a2.628,2.628,0,0,1,2.877-2.334l87.875,9.159a2.627,2.627,0,0,1,2.334,2.877h0A2.627,2.627,0,0,1,1948,1668.957Z" transform="translate(-1835.151 -1611.074)" fill="#eee"/>
            <path id="Path_12301" data-name="Path 12301" d="M1931.741,1824.981l-87.875-9.159a2.627,2.627,0,0,1-2.334-2.877h0a2.628,2.628,0,0,1,2.877-2.334l87.874,9.159a2.628,2.628,0,0,1,2.334,2.877h0A2.628,2.628,0,0,1,1931.741,1824.981Z" transform="translate(-1820.271 -1753.833)" fill="#eee"/>
            <path id="Path_12302" data-name="Path 12302" d="M1915.479,1981.006l-87.874-9.159a2.627,2.627,0,0,1-2.334-2.877h0a2.627,2.627,0,0,1,2.877-2.334l87.875,9.159a2.628,2.628,0,0,1,2.334,2.877h0A2.628,2.628,0,0,1,1915.479,1981.006Z" transform="translate(-1805.392 -1896.592)" fill="#eee"/>
            <path id="Path_12303" data-name="Path 12303" d="M1899.217,2137.03l-87.874-9.159a2.628,2.628,0,0,1-2.334-2.878h0a2.627,2.627,0,0,1,2.878-2.334l87.874,9.159a2.628,2.628,0,0,1,2.334,2.877h0A2.628,2.628,0,0,1,1899.217,2137.03Z" transform="translate(-1790.513 -2039.351)" fill="#eee"/>
            <path id="Path_12304" data-name="Path 12304" d="M1882.954,2293.055l-87.874-9.159a2.628,2.628,0,0,1-2.334-2.877h0a2.628,2.628,0,0,1,2.878-2.334l87.874,9.159a2.628,2.628,0,0,1,2.334,2.877h0A2.628,2.628,0,0,1,1882.954,2293.055Z" transform="translate(-1775.632 -2182.11)" fill="#eee"/>
            <path id="Path_12305" data-name="Path 12305" d="M1866.692,2449.08l-87.874-9.158a2.628,2.628,0,0,1-2.334-2.878h0a2.628,2.628,0,0,1,2.878-2.334l87.874,9.159a2.627,2.627,0,0,1,2.334,2.877h0A2.627,2.627,0,0,1,1866.692,2449.08Z" transform="translate(-1760.753 -2324.869)" fill="#eee"/>
            <path id="Path_12306" data-name="Path 12306" d="M2293.318,2677.919a.5.5,0,0,0-.822-.4,8.345,8.345,0,0,1-1.5,1.031l-.784.313q-.78.411-.871-.651a.494.494,0,0,0-.658-.736,3.328,3.328,0,0,1-2.267,1.058,2.8,2.8,0,0,1-.791-.268,3.307,3.307,0,0,0,.491-.462.5.5,0,0,0,.027-.5,6.156,6.156,0,0,0-.542-1.026,18.805,18.805,0,0,0,4.6-7.238.5.5,0,0,0-.8-.526,15.446,15.446,0,0,0-4.489,5,3.635,3.635,0,0,0-.559,2.277,2.286,2.286,0,0,0,.066.242,15.66,15.66,0,0,1-1.525,1.269,8.191,8.191,0,0,1-2.336,1.212c-.608.19-1.521.486-1.938-.107,1.379-.773,2.493-1.869,1.9-3.234-.893-2.054-3.026,1.044-3.138,2.774a11.338,11.338,0,0,1-2.1.714.494.494,0,0,0,.209.966,14.118,14.118,0,0,0,2.12-.723c1.17,2.062,4.87-.048,6.117-.986.372-.279.74-.586,1.1-.91.284.507.3.422-.4.9a.5.5,0,0,0,.067.907,5.049,5.049,0,0,0,2.416.713,2.727,2.727,0,0,0,.769-.223.485.485,0,0,0,.2.335c1.355.888,3.073.153,4.38-.725a6.59,6.59,0,0,1-2.257,4.021c-1.865,1.534-4.26,1.161-6.448.732-.616-.121-.937.814-.315.937,2.386.468,4.939.865,7.047-.643A7.376,7.376,0,0,0,2293.318,2677.919Zm-14.311-1.8c.765-.593.243.531-.024.805a3.456,3.456,0,0,1-.573.454A2.7,2.7,0,0,1,2279.008,2676.122Zm6.432-1.39a7.271,7.271,0,0,1,1.326-2.247,14.421,14.421,0,0,1,1.762-1.943,18.927,18.927,0,0,1-3.148,4.543A3.233,3.233,0,0,1,2285.44,2674.733Z" transform="translate(-2216.827 -2538.716)" fill="#eee"/>
            <path id="Path_12307" data-name="Path 12307" d="M2618.821,2704.451a9.463,9.463,0,1,1,10.829-7.863A9.473,9.473,0,0,1,2618.821,2704.451Zm2.646-16.671a7.417,7.417,0,1,0,6.163,8.488A7.425,7.425,0,0,0,2621.466,2687.78Z" transform="translate(-2524.183 -2554.479)" fill="#eee"/>
          </g>
        </g>
      </g>
      <g id="Group_33013" data-name="Group 33013" transform="translate(282.188 662.408)" opacity="0.8">
        <text id="Drop_file_here" data-name="Drop file here" transform="translate(82 22)" fill="#919191" font-size="23" font-family="Montserrat-SemiBold, Montserrat" font-weight="600"><tspan x="-81.788" y="0">Drop file here</tspan></text>
      </g>
    </g>
  </g>
</svg>
