<svg xmlns="http://www.w3.org/2000/svg" width="9" height="10.127" viewBox="0 0 9 10.127">
  <g id="Group_28904" data-name="Group 28904" transform="translate(-479.502 -672.935)">
    <path id="Path_7970" data-name="Path 7970" d="M54.713,127.435V126.8a.319.319,0,0,1,.322-.317h2.411l.189-.37a.477.477,0,0,1,.43-.263h2.3a.485.485,0,0,1,.432.263l.189.37h2.411a.319.319,0,0,1,.322.317h0v.632a.319.319,0,0,1-.322.317H55.034A.319.319,0,0,1,54.713,127.435Z" transform="translate(424.789 547.082)" fill="#b7b7b7" opacity="0.7"/>
    <path id="Path_8022" data-name="Path 8022" d="M55.85,130.211l.418,6.831h0a.939.939,0,0,0,.962.844h4.94a.939.939,0,0,0,.962-.844l.418-6.831Z" transform="translate(424.302 545.176)" fill="#b7b7b7" opacity="0.7"/>
  </g>
</svg>
