<svg id="Delete_-_Circle" data-name="Delete - Circle" xmlns="http://www.w3.org/2000/svg" width="18" height="18" viewBox="0 0 18 18">
  <path id="Subtraction_28" data-name="Subtraction 28" d="M9,18a9,9,0,1,1,9-9A9.011,9.011,0,0,1,9,18ZM5.153,6.387h0l.418,6.83a.933.933,0,0,0,.941.844h4.979a.934.934,0,0,0,.942-.844l.418-6.83Zm-.331-1.82a.32.32,0,0,0-.32.32v.631a.318.318,0,0,0,.32.316h8.359a.318.318,0,0,0,.32-.316V4.887a.32.32,0,0,0-.32-.32H10.773l-.19-.369a.493.493,0,0,0-.432-.262h-2.3a.484.484,0,0,0-.433.262l-.185.369Z" fill="#ff5d5d" />
</svg>
