<svg xmlns="http://www.w3.org/2000/svg" width="19.477" height="16" viewBox="0 0 19.477 16">
  <g id="Group_33438" data-name="Group 33438" transform="translate(-674.539 -376.607)" opacity="0.7">
    <path id="Path_12438" data-name="Path 12438" d="M690.744,381.421h-.006c.427-1.514-1.226-3.4-3.309-3.078a3.3,3.3,0,0,0-1.334.42,4.712,4.712,0,0,0-5.848-1.76,5.094,5.094,0,0,0-2.479,4.378v.054a3.82,3.82,0,0,0,.639,7.593h0a2.158,2.158,0,0,1-.289-1.041,2.183,2.183,0,0,1,2.148-2.209h1.179v-3.488a2.177,2.177,0,0,1,2.162-2.183h1.335a2.174,2.174,0,0,1,2.155,2.183v3.488h1.181a2.168,2.168,0,0,1,1.508.633l.449.444v.2a2.187,2.187,0,0,1,.2.905,2.159,2.159,0,0,1-.291,1.07h.025a3.824,3.824,0,0,0,.576-7.607Z" transform="translate(0)" fill="#fff"/>
    <path id="Path_12439" data-name="Path 12439" d="M688.339,387.108h0a.667.667,0,0,0-.461-.194H685.2v-5.005a.659.659,0,0,0-.653-.665h-1.313a.661.661,0,0,0-.657.664v5.007h-2.671a.667.667,0,0,0-.463,1.137l3.955,3.974a.691.691,0,0,0,.977,0l0,0,3.96-3.97A.665.665,0,0,0,688.339,387.108Z" transform="translate(0.385 0.379)" fill="#fff"/>
  </g>
</svg>
