<svg xmlns="http://www.w3.org/2000/svg" xmlns:xlink="http://www.w3.org/1999/xlink" width="14.663" height="15" viewBox="0 0 14.663 15"><defs><style>.a{fill:url(#a);}.b{fill:#5673aa;}.c{fill:url(#b);}</style><linearGradient id="a" x1="0.5" x2="0.5" y2="1" gradientUnits="objectBoundingBox"><stop offset="0" stop-color="#5673aa"/><stop offset="1" stop-color="#2b3a55"/></linearGradient><linearGradient id="b" x2="0.146" y2="1.106" xlink:href="#a"/></defs><g transform="translate(-182.149 -113.101)"><path class="a" d="M2198.824,1191.685a2.715,2.715,0,0,0-3.719-.988l-8.612,5.025h5.488l2.2-1.281a1.469,1.469,0,0,1,2.012.534l.431.747h4.536Z" transform="translate(-2004.344 -1067.622)"/><path class="b" d="M2217.24,1193.025c2.743-1.6,4.128,0,5.5,2.7h4.536l-2.331-4.037a2.715,2.715,0,0,0-3.719-.988Z" transform="translate(-2030.467 -1067.622)"/><path class="c" d="M2196.054,1133.356c.026-.036.051-.073.075-.111s.042-.063.062-.1.039-.072.058-.108a2.674,2.674,0,0,0,.117-.247c.009-.021.019-.041.026-.062.02-.051.036-.1.052-.154.007-.023.015-.046.022-.07.015-.053.028-.107.04-.161,0-.021.01-.043.014-.064.011-.057.021-.114.028-.172,0-.017,0-.035.006-.052.007-.063.013-.125.015-.188,0-.007,0-.014,0-.021a2.708,2.708,0,0,0-.115-.879h0a2.706,2.706,0,0,0-.245-.572l-2.277-3.943-5.666,9.813h0l-.709,1.228-.247.428h0l-.692,1.2,8.607-5.021c.076-.044.147-.092.217-.142.023-.016.045-.035.067-.052.045-.035.09-.07.132-.107.026-.022.05-.045.074-.068s.073-.069.107-.106.049-.052.072-.078.061-.072.09-.109S2196.033,1133.386,2196.054,1133.356Z" transform="translate(-2004.453 -1013.357)"/></g></svg>