<svg xmlns="http://www.w3.org/2000/svg" width="18" height="18" viewBox="0 0 18 18">
  <path id="Path_7315" data-name="Path 7315" d="M291.234,366.223a9,9,0,1,0,9,9A9,9,0,0,0,291.234,366.223Zm2.945,8.508h0l-5.155,5.155-2.19.245a.459.459,0,0,1-.507-.4.428.428,0,0,1,0-.1l.245-2.19,5.154-5.155a.231.231,0,0,1,.326,0l0,0,2.127,2.127A.231.231,0,0,1,294.179,374.731Zm1.7-1.694-.835.835v0a.231.231,0,0,1-.326,0l-2.127-2.127h0a.231.231,0,0,1,0-.326l.835-.835a.924.924,0,0,1,1.3,0l1.152,1.154v0A.923.923,0,0,1,295.874,373.038Z" transform="translate(-282.234 -366.223)" fill="#dadada"/>
</svg>
