<svg xmlns="http://www.w3.org/2000/svg" width="14.663" height="15" viewBox="0 0 14.663 15"><defs><style>.a{fill:#919191;}.b{fill:#b7b7b7;}</style></defs><g transform="translate(-266.001 -710)"><path class="a" d="M2198.825,1191.686a2.715,2.715,0,0,0-3.72-.988l-8.612,5.025h5.488l2.2-1.281a1.469,1.469,0,0,1,2.012.534l.431.747h4.536Z" transform="translate(-1920.492 -470.723)"/><path class="b" d="M2217.24,1193.025c2.743-1.6,4.128,0,5.5,2.7h4.536l-2.33-4.037a2.716,2.716,0,0,0-3.72-.988Z" transform="translate(-1946.615 -470.723)"/><path class="b" d="M2196.055,1133.357c.026-.036.051-.074.075-.111s.042-.063.063-.1.039-.072.058-.107a2.656,2.656,0,0,0,.117-.247c.008-.021.018-.041.026-.062.019-.051.036-.1.052-.154.007-.023.015-.046.022-.07.015-.053.029-.107.041-.161l.014-.064c.012-.057.021-.114.028-.172,0-.017,0-.035.006-.052.007-.062.013-.125.015-.188,0-.007,0-.014,0-.021a2.7,2.7,0,0,0-.114-.879h0a2.662,2.662,0,0,0-.245-.572l-2.277-3.944-5.666,9.813h0l-.708,1.229-.248.428h0l-.692,1.2,8.607-5.021c.075-.044.147-.092.216-.142.023-.016.045-.034.067-.052.045-.035.09-.07.132-.107l.074-.068c.037-.034.072-.069.107-.106s.048-.052.072-.078.061-.072.09-.108S2196.034,1133.386,2196.055,1133.357Z" transform="translate(-1920.603 -416.458)"/></g></svg>