<svg xmlns="http://www.w3.org/2000/svg" width="100.001" height="119" viewBox="0 0 100.001 119">
  <g id="Group_34925" data-name="Group 34925" transform="translate(-1772 -93)">
    <rect id="Rectangle_16196" data-name="Rectangle 16196" width="100" height="119" rx="3" transform="translate(1772 93)" fill="#919191"/>
    <path id="Path_12958" data-name="Path 12958" d="M-9936,16109h-94a3,3,0,0,1-3-3v-9.29a55.2,55.2,0,0,1,50-31.951,55.192,55.192,0,0,1,50,31.951v9.29A3,3,0,0,1-9936,16109Zm-47-49.226a24.987,24.987,0,0,1-25-24.916,24.989,24.989,0,0,1,25-24.92,24.987,24.987,0,0,1,25,24.92A24.985,24.985,0,0,1-9983,16059.774Zm49.592-68.276a3.015,3.015,0,0,0-2.009-1.439,3,3,0,0,1,2.011,1.438Zm-98.938-.364,0,0a3.017,3.017,0,0,1,1.694-1.062A3.04,3.04,0,0,0-10032.344,15991.134Z" transform="translate(11805 -15897)" fill="#d8d8d8"/>
  </g>
</svg>
