<svg xmlns="http://www.w3.org/2000/svg" width="101.003" height="100.5" viewBox="0 0 101.003 100.5">
  <g id="Group_35643" data-name="Group 35643" transform="translate(-1752.499 -99.5)">
    <path id="Path_23238" data-name="Path 23238" d="M50,0A50,50,0,1,1,0,50,50,50,0,0,1,50,0Z" transform="translate(1753 100)" fill="#d8d8d8"/>
    <g id="user" transform="translate(1753.001 99.999)">
      <path id="Subtraction_122" data-name="Subtraction 122" d="M-16320.976,15867.338v0h0a49.829,49.829,0,0,1-8.1-14.425,49.843,49.843,0,0,1-2.928-16.892,49.723,49.723,0,0,1,3.93-19.47,49.843,49.843,0,0,1,10.716-15.9,49.819,49.819,0,0,1,15.894-10.718A49.658,49.658,0,0,1-16282,15786a49.664,49.664,0,0,1,19.464,3.931,49.844,49.844,0,0,1,15.895,10.718,49.867,49.867,0,0,1,10.715,15.9,49.74,49.74,0,0,1,3.929,19.47,49.824,49.824,0,0,1-2.918,16.863,49.914,49.914,0,0,1-8.071,14.41c-8.988-15.05-23.56-24.035-38.979-24.035s-30.014,9-39.008,24.08Zm39.16-68.356a20.369,20.369,0,0,0-20.346,20.347,20.369,20.369,0,0,0,20.346,20.346,20.369,20.369,0,0,0,20.347-20.346A20.37,20.37,0,0,0-16281.815,15798.981Z" transform="translate(16332 -15786)" fill="#919191" stroke="rgba(0,0,0,0)" stroke-miterlimit="10" stroke-width="1"/>
    </g>
  </g>
</svg>
