<svg xmlns="http://www.w3.org/2000/svg" width="14" height="16" viewBox="0 0 14 16">
  <path id="Path_7698" data-name="Path 7698" d="M306.409,390.39v-1.6a.484.484,0,0,0-.213-.4.491.491,0,0,0-.455-.057l-5.556,2.065a.483.483,0,0,0-.29.29.476.476,0,0,0,.015.372.484.484,0,0,0,.274.254l5.559,2.076a.522.522,0,0,0,.172.03h0a.492.492,0,0,0,.49-.49v-1.554a6.041,6.041,0,0,1-.5,12.063h-.062a6.063,6.063,0,0,1-6.01-6.1.49.49,0,0,0-.49-.488.488.488,0,0,0-.489.489,6.978,6.978,0,0,0,6.637,6.956c.123.006.244.009.366.009a6.965,6.965,0,0,0,.546-13.91Z" transform="translate(-298.86 -388.299)" fill="#919191"/>
</svg>
