<svg xmlns="http://www.w3.org/2000/svg" width="18" height="18" viewBox="0 0 18 18">
  <g id="Group_21408" data-name="Group 21408" transform="translate(0 0)">
    <path id="Path_10811" data-name="Path 10811" d="M564.233,66.67,547.5,58.426a.592.592,0,0,0-.537.026.8.8,0,0,0-.3,1l1.773,6.609,4.258,1.33-4.269,1.334-1.761,6.566a.838.838,0,0,0-.023.608.639.639,0,0,0,.858.421l16.734-8.244a.938.938,0,0,0,.281-.343A.847.847,0,0,0,564.233,66.67Z" transform="translate(-546.594 -58.374)" fill="#b7b7b7"/>
  </g>
</svg>
