<svg xmlns="http://www.w3.org/2000/svg" width="18" height="18" viewBox="0 0 18 18">
  <path id="Icon" d="M-3916.539-2457.672q-1.013-1.015-2.029-2.025a.641.641,0,0,1-.092-.886,7.257,7.257,0,0,0,1.149-4.892,7.323,7.323,0,0,0-2.445-4.8,7.348,7.348,0,0,0-5.84-1.906,7.317,7.317,0,0,0-4.931,2.56,7.467,7.467,0,0,0-1.839,4.577,7.571,7.571,0,0,0,.933,4.04,7.562,7.562,0,0,0,7.569,3.857,7.209,7.209,0,0,0,3.144-1.16.608.608,0,0,1,.838.091q.883.89,1.77,1.774.908.907,1.814,1.817a1.488,1.488,0,0,0,.6.4h.507a1.091,1.091,0,0,0,.792-.838,1.069,1.069,0,0,0-.376-1.052Q-3915.761-2456.891-3916.539-2457.672Zm-4.742-3.055a5.167,5.167,0,0,1-3.6,1.5l-.144,0a5.154,5.154,0,0,1-3.737-1.506,5.515,5.515,0,0,1-1.7-3.906,5.494,5.494,0,0,1,1.634-3.863,5.372,5.372,0,0,1,3.852-1.6,5.515,5.515,0,0,1,5.4,5.473A5.512,5.512,0,0,1-3921.281-2460.727Z" transform="translate(3932.578 2472.222)" fill="#919191"/>
</svg>
