<svg xmlns="http://www.w3.org/2000/svg" width="12" height="12" viewBox="0 0 12 12">
  <path id="Path_2238" data-name="Path 2238" d="M392.395,378.264l-3.887-3.887,3.791-3.791a1.261,1.261,0,1,0-1.783-1.783l-3.791,3.791-3.887-3.887a1.127,1.127,0,0,0-1.594,0l-.19.19a1.127,1.127,0,0,0,0,1.593l3.887,3.887-3.791,3.791a1.261,1.261,0,1,0,1.783,1.783l3.792-3.791,3.887,3.887a1.125,1.125,0,0,0,1.593,0l.19-.19A1.127,1.127,0,0,0,392.395,378.264Z" transform="translate(-380.725 -368.377)" fill="#919191" opacity="0.7"/>
</svg>
