<svg xmlns="http://www.w3.org/2000/svg" xmlns:xlink="http://www.w3.org/1999/xlink" width="56" height="16" viewBox="0 0 56 16">
  <defs>
    <filter id="Path_24078" x="0" y="0" width="56" height="16" filterUnits="userSpaceOnUse">
      <feOffset input="SourceAlpha"/>
      <feGaussianBlur result="blur"/>
      <feFlood flood-opacity="0.149"/>
      <feComposite operator="in" in2="blur"/>
      <feComposite in="SourceGraphic"/>
    </filter>
  </defs>
  <g id="Group_38341" data-name="Group 38341" transform="translate(-932 -655)">
    <g transform="matrix(1, 0, 0, 1, 932, 655)" filter="url(#Path_24078)">
      <path id="Path_24078-2" data-name="Path 24078" d="M0,0H56V13a3,3,0,0,1-3,3H3a3,3,0,0,1-3-3Z" transform="translate(56 16) rotate(180)" fill="#f9f9f9"/>
    </g>
    <g id="Group_35638" data-name="Group 35638" transform="translate(-1 -33)">
      <g id="Group_21583" data-name="Group 21583" transform="translate(966.286 701) rotate(180)">
        <path id="bottom" d="M5.777,4.612,1.306.22A.776.776,0,0,0,.224.22a.741.741,0,0,0,0,1.061L4.155,5.143.224,9a.742.742,0,0,0,0,1.062.776.776,0,0,0,1.082,0L5.777,5.674a.743.743,0,0,0,0-1.062Z" transform="translate(0 8) rotate(-90)" fill="#6c6c6c"/>
      </g>
    </g>
  </g>
</svg>
