<svg xmlns="http://www.w3.org/2000/svg" xmlns:xlink="http://www.w3.org/1999/xlink" width="96" height="40" viewBox="0 0 96 40">
  <defs>
    <filter id="Union_1" x="0" y="0" width="96" height="40" filterUnits="userSpaceOnUse">
      <feOffset input="SourceAlpha"/>
      <feGaussianBlur stdDeviation="2" result="blur"/>
      <feFlood flood-opacity="0.149"/>
      <feComposite operator="in" in2="blur"/>
      <feComposite in="SourceGraphic"/>
    </filter>
  </defs>
  <g id="Group_34320" data-name="Group 34320" transform="translate(-1634 -258)">
    <g id="Group_8690" data-name="Group 8690" transform="translate(1171 89.301)">
      <g transform="matrix(1, 0, 0, 1, 463, 168.7)" filter="url(#Union_1)">
        <path id="Union_1-2" data-name="Union 1" d="M3,32.992H81a3,3,0,0,1,3,3v22a3,3,0,0,1-3,3H3a3,3,0,0,1-3-3v-22A3,3,0,0,1,3,32.992Z" transform="translate(6 -26.99)" fill="#fff"/>
      </g>
    </g>
    <rect id="Rectangle_5009" data-name="Rectangle 5009" width="22" height="28" transform="translate(1640 264)" opacity="0"/>
    <g id="Group_8691" data-name="Group 8691" transform="translate(1 -145)">
      <g id="Group_8682" data-name="Group 8682">
        <text id="Delete" transform="translate(1666 428)" fill="#ff5d5d" font-size="12" font-family="Montserrat-Regular, Montserrat" opacity="0.7"><tspan x="0" y="0">Delete</tspan></text>
        <g id="trash" transform="translate(1646 415)" opacity="0.7">
          <path id="Path_7317" data-name="Path 7317" d="M32.663,106.988,32,96H44l-.663,10.988a1.469,1.469,0,0,1-1.5,1.333H34.16a1.469,1.469,0,0,1-1.5-1.333Z" transform="translate(-31 -92.321)" fill="#ff5d5d"/>
          <path id="Path_7318" data-name="Path 7318" d="M0,2.5v-1A.5.5,0,0,1,.5,1H4.251L4.545.416A.741.741,0,0,1,5.214,0H8.787a.75.75,0,0,1,.672.416L9.753,1H13.5a.5.5,0,0,1,.5.5v1a.5.5,0,0,1-.5.5H.5A.5.5,0,0,1,0,2.5Z" transform="translate(0 0)" fill="#ff5d5d"/>
        </g>
      </g>
    </g>
  </g>
</svg>
