<svg id="Group_2297" data-name="Group 2297" xmlns="http://www.w3.org/2000/svg" width="20" height="24" viewBox="0 0 20 24">
  <rect id="Rectangle_1458" data-name="Rectangle 1458" width="20" height="24" rx="3" fill="#d8d8d8"/>
  <path id="Subtraction_2" data-name="Subtraction 2" d="M19627.98,16145.363v0a11.011,11.011,0,0,0-19.957,0,2.747,2.747,0,0,1-.023-.363v-18a3,3,0,0,1,3-3h14a3,3,0,0,1,3,3v18c0,.113-.008.227-.02.363ZM19618,16128a5,5,0,1,0,5,5A5,5,0,0,0,19618,16128Z" transform="translate(-19608 -16124)" fill="#919191"/>
</svg>
