<svg xmlns="http://www.w3.org/2000/svg" width="16" height="16" viewBox="0 0 16 16">
  <g id="Group_9685" data-name="Group 9685" transform="translate(0.105 0.104)">
    <circle id="Ellipse_1411" data-name="Ellipse 1411" cx="8" cy="8" r="8" transform="translate(-0.105 -0.104)" fill="#B7B7B7"/>
    <path id="Path_5683" data-name="Path 5683" d="M388.4,374.881l-2.557-2.557,2.494-2.494a.83.83,0,1,0-1.173-1.173l-2.494,2.494-2.557-2.557a.741.741,0,0,0-1.049,0l-.125.125a.741.741,0,0,0,0,1.048l2.557,2.557L381,374.818a.83.83,0,1,0,1.173,1.173l2.495-2.494,2.557,2.557a.74.74,0,0,0,1.048,0l.125-.125A.742.742,0,0,0,388.4,374.881Z" transform="translate(-376.777 -364.429)" fill="#fff"/>
  </g>
</svg>
