<svg xmlns="http://www.w3.org/2000/svg" width="22" height="22" viewBox="0 0 22 22">
  <g id="Group_35832" data-name="Group 35832" transform="translate(-28 -1297)" opacity="0.7">
    <rect id="Rectangle_16707" data-name="Rectangle 16707" width="22" height="22" rx="2" transform="translate(28 1297)" fill="#dadada"/>
    <path id="Add_Load" data-name="Add Load" d="M7.5,0A7.5,7.5,0,1,0,15,7.5,7.5,7.5,0,0,0,7.5,0Zm3.078,8.521H8.521v2.057a1.021,1.021,0,0,1-2.042,0V8.521H4.421A1.021,1.021,0,0,1,3.4,7.5h0A1.021,1.021,0,0,1,4.421,6.479H6.478V4.421a1.021,1.021,0,0,1,2.042,0V6.478h2.057a1.021,1.021,0,1,1,0,2.042Z" transform="translate(31.5 1300.52)" fill="#979797"/>
  </g>
</svg>
