<svg xmlns="http://www.w3.org/2000/svg" width="13.997" height="14.002" viewBox="0 0 13.997 14.002">
  <g id="Group_35211" data-name="Group 35211" transform="translate(-676.999 -378.502)">
    <path id="Path_7775" data-name="Path 7775" d="M689.356,380.53l-1.643-1.645a1.317,1.317,0,0,0-1.857,0l-1.191,1.191h0a.33.33,0,0,0,0,.466l3.033,3.033h0a.33.33,0,0,0,.466,0l1.191-1.191h-.007A1.316,1.316,0,0,0,689.356,380.53Z" transform="translate(1.261)" fill="#919191"/>
    <path id="Path_7776" data-name="Path 7776" d="M688.2,383.95l-3.033-3.033h0a.329.329,0,0,0-.465,0l-7.35,7.35L677,391.39a.614.614,0,0,0,0,.146.655.655,0,0,0,.723.577l3.123-.35,7.35-7.35h0A.33.33,0,0,0,688.2,383.95Z" transform="translate(0 0.386)" fill="#919191"/>
  </g>
</svg>
