<svg xmlns="http://www.w3.org/2000/svg" width="14" height="10.5" viewBox="0 0 14 10.5">
  <path id="Subtraction_115" data-name="Subtraction 115" d="M12.687,10.5H1.312A1.314,1.314,0,0,1,0,9.187V1.312A1.314,1.314,0,0,1,1.312,0H5.687l1.75,1.75h5.25A1.315,1.315,0,0,1,14,3.063V9.187A1.315,1.315,0,0,1,12.687,10.5ZM5.876,6.966H9.113V8.695a.434.434,0,0,0,.433.425h.005a.438.438,0,0,0,.3-.126L12.419,6.44a.449.449,0,0,0,0-.633L12.418,5.8,9.851,3.246a.43.43,0,0,0-.736.3V5.27H5.876a.429.429,0,0,0-.429.422v.85a.427.427,0,0,0,.426.424Z" fill="#919191"/>
</svg>
