<svg xmlns="http://www.w3.org/2000/svg" width="602.505" height="321" viewBox="0 0 602.505 321">
  <g id="Group_38076" data-name="Group 38076" transform="translate(-636.161 -333.999)">
    <g id="Artboard_34" data-name="Artboard 34" transform="translate(353.25 -40.539)">
      <g id="accident" transform="translate(327.749 374.538)">
        <rect id="Rectangle_15187" data-name="Rectangle 15187" width="240.931" height="52.075" rx="3" transform="translate(230.657 83.359)" fill="#f9f9f9"/>
        <rect id="Rectangle_15188" data-name="Rectangle 15188" width="240.931" height="52.075" rx="3" transform="translate(230.657 83.359)" fill="none" stroke="#919191" stroke-miterlimit="10" stroke-width="1" stroke-dasharray="4 6"/>
        <rect id="Rectangle_15189" data-name="Rectangle 15189" width="29.303" height="31.625" rx="3" transform="translate(85.414 67.601) rotate(180)" fill="#f2f2f2"/>
        <rect id="Rectangle_15190" data-name="Rectangle 15190" width="50.808" height="37.871" rx="3" transform="translate(506.858 47.517)" fill="#f2f2f2"/>
        <rect id="Rectangle_15191" data-name="Rectangle 15191" width="87.258" height="15.78" rx="2" transform="translate(187.405 153.945)" fill="#dadada"/>
        <rect id="Rectangle_15192" data-name="Rectangle 15192" width="87.249" height="25.249" rx="3" transform="translate(347.313 30.505)" fill="#e4e4e4"/>
        <path id="Path_21634" data-name="Path 21634" d="M885.627,1100.385H867.49l4.437-26.235h19.045l4.441,26.235Z" transform="translate(-634.972 -802.921)" fill="#b5b5b5"/>
        <path id="Path_21635" data-name="Path 21635" d="M898.118,971.079s-3.683,1.926-6.13.577-3.658-3.834-2.718-5.518,3.683-1.943,6.126-.582S898.118,971.079,898.118,971.079Z" transform="translate(-647.188 -740.612)" fill="#5673a8"/>
        <ellipse id="Ellipse_3374" data-name="Ellipse 3374" cx="2.796" cy="4.89" rx="2.796" ry="4.89" transform="translate(243.887 231.139)" fill="#5673a8"/>
        <path id="Path_21636" data-name="Path 21636" d="M889.216,1002.194c1.585,1.1,1.081,4.562-1.12,7.729s-8.805,2.2-8.805,2.2a23.353,23.353,0,0,1,3.072-6.186C884.563,1002.78,887.63,1001.091,889.216,1002.194Z" transform="translate(-641.689 -761.771)" fill="#5673a8"/>
        <path id="Path_21637" data-name="Path 21637" d="M897,968.69a10.4,10.4,0,0,1,1,3.623s-3.683,1.943-6.126.577a6.945,6.945,0,0,1-1.908-1.551,6.421,6.421,0,0,0,2.585,2.585c2.443,1.366,6.126-.577,6.126-.577A9.059,9.059,0,0,0,897,968.69Z" transform="translate(-647.762 -742.892)" fill="#355585"/>
        <path id="Path_21638" data-name="Path 21638" d="M898.886,983.49a7.813,7.813,0,0,1,.383,2.46c0,2.7-1.254,4.89-2.8,4.89a2.193,2.193,0,0,1-1.723-1.034c.487,1.452,1.383,2.43,2.412,2.43,1.542,0,2.8-2.188,2.8-4.89A6.687,6.687,0,0,0,898.886,983.49Z" transform="translate(-650.488 -751.317)" fill="#355585"/>
        <path id="Path_21639" data-name="Path 21639" d="M889.384,1003c.267,1.594-.431,3.963-1.986,6.191-1.628,2.339-5.656,2.421-7.651,2.3-.31.793-.457,1.292-.457,1.292s6.6.969,8.805-2.2C890.215,1007.528,890.754,1004.215,889.384,1003Z" transform="translate(-641.688 -762.422)" fill="#355585"/>
        <path id="Path_21640" data-name="Path 21640" d="M887.21,1021.552a1.05,1.05,0,0,1-.258-.021H886.9l-.737,4.243-2.779,5.407H885.1l1.723-5.755Z" transform="translate(-644.016 -772.969)" fill="#355585"/>
        <path id="Path_21641" data-name="Path 21641" d="M906.08,972.628l5.575-5.743,1.749-6.29-1.4-1.4-1.732,7.5-4.192,4.777Z" transform="translate(-656.937 -737.491)" fill="#355585"/>
        <path id="Path_21642" data-name="Path 21642" d="M880.924,957.468s-2.1-8.383-4.192-9.43-5.941-.349-5.6,2.094,1.047,1.047,1.047.7-.7-.7-.7-.7-.349-1.723,1.749-2.094,3.141,0,3.843.7,2.714,5.643,2.753,5.966.737,2.766.737,2.766S880.924,957.817,880.924,957.468Z" transform="translate(-637.033 -730.869)" fill="#355585"/>
        <path id="Path_21643" data-name="Path 21643" d="M889.979,949.2s0-11.528-2.447-12.575-4.192-.349-4.192.7.7,2.443,1.051,1.745-.349-.7-.349-.7-1.051-.7.349-1.4,2.792-.7,3.494.7a8.261,8.261,0,0,1,1.047,3.145c.349,1.749.7,8.383.7,8.383S889.63,949.55,889.979,949.2Z" transform="translate(-643.994 -724.347)" fill="#355585"/>
        <path id="Path_21644" data-name="Path 21644" d="M903.842,1027.534l1.529-6.8-4.192-5.239v-.353l4.89,4.894-.922,7.5Z" transform="translate(-654.148 -769.332)" fill="#355585"/>
        <path id="Path_21645" data-name="Path 21645" d="M885.81,991.828l4.877-5.058v1.047l-3.83,3.662,4.541,3.843-.7,1.4Z" transform="translate(-645.4 -753.184)" fill="#355585"/>
        <path id="Path_21646" data-name="Path 21646" d="M920.574,957.991l.681-.517s1.413-1.228,1.064-2.275-1.4-2.1-1.723-1.051-.715,1.93-.715,1.93Z" transform="translate(-664.792 -734.369)" fill="#355585"/>
        <path id="Path_21647" data-name="Path 21647" d="M970.75,743.362l-13.842,24.663-13.936,24.612-6.936,12.325L932.53,811.1c-1.18,2.042-2.387,4.067-3.593,6.091l-3.662,6.031c-1.241,2-2.46,4.019-3.722,6.031q-3.735,6.031-7.668,11.9l-.185-.108q3.175-6.333,6.544-12.554c1.111-2.081,2.257-4.14,3.39-6.208l3.446-6.173c1.163-2.051,2.331-4.1,3.515-6.135l3.6-6.091,7.285-12.118,14.5-24.288,14.591-24.228Z" transform="translate(-661.275 -614.571)"/>
        <path id="Path_21648" data-name="Path 21648" d="M920.388,952.863s2.718.271,2.37,1.667a3.817,3.817,0,0,1-1.211,2.038S918.127,952.6,920.388,952.863Z" transform="translate(-664.642 -733.876)" fill="#355585"/>
        <rect id="Rectangle_15194" data-name="Rectangle 15194" width="96.24" height="61.173" rx="3" transform="translate(300.067 319.573) rotate(180)" fill="#d9d9d9"/>
        <rect id="Rectangle_15195" data-name="Rectangle 15195" width="121.881" height="77.518" rx="3" transform="translate(378.989 234.737)" fill="#e4e4e4"/>
        <rect id="Rectangle_15196" data-name="Rectangle 15196" width="45.664" height="46.181" rx="3" transform="translate(117.065 265.297)" fill="#f2f2f2"/>
        <rect id="Rectangle_15197" data-name="Rectangle 15197" width="89.3" height="25.249" rx="3" transform="translate(390.892 209.44)" fill="#d9d9d9"/>
        <line id="Line_3035" data-name="Line 3035" x2="124.466" transform="translate(377.697 312.245)" fill="none" stroke="#dadada" stroke-miterlimit="10" stroke-width="2"/>
        <rect id="Rectangle_15198" data-name="Rectangle 15198" width="44.023" height="71.741" rx="3" transform="translate(328.349 306.918) rotate(-119.887)" fill="#f2f2f2"/>
        <path id="Path_21649" data-name="Path 21649" d="M1137.186,1113.08s4.355-.383,5.734-2.977,1.047-5.467-.741-6.419-4.355.384-5.734,2.977S1137.186,1113.08,1137.186,1113.08Z" transform="translate(-787.797 -819.557)" fill="#909090"/>
        <ellipse id="Ellipse_3375" data-name="Ellipse 3375" cx="2.934" cy="5.135" rx="2.934" ry="5.135" transform="matrix(0.841, -0.542, 0.542, 0.841, 351.057, 293.287)" fill="#909090"/>
        <path id="Path_21650" data-name="Path 21650" d="M1158.71,1139.695c-.771,1.87,1.637,4.64,5.385,6.186s9.026-3.072,9.026-3.072a24.738,24.738,0,0,0-6.229-3.713C1163.143,1137.554,1159.481,1137.821,1158.71,1139.695Z" transform="translate(-800.654 -839.318)" fill="#909090"/>
        <path id="Path_21651" data-name="Path 21651" d="M1136.026,1111.893a10.969,10.969,0,0,0,1.176,3.765s4.36-.383,5.738-2.977a7.269,7.269,0,0,0,.8-2.451,6.706,6.706,0,0,1-.823,3.774c-1.379,2.585-5.734,2.977-5.734,2.977A9.688,9.688,0,0,1,1136.026,1111.893Z" transform="translate(-787.796 -823.457)" fill="#6c6c6c"/>
        <path id="Path_21652" data-name="Path 21652" d="M1146.22,1126.05a8.185,8.185,0,0,0,1.064,2.387c1.534,2.386,3.877,3.606,5.247,2.727a2.292,2.292,0,0,0,.926-1.887c.4,1.559.159,2.934-.75,3.52-1.361.862-3.709-.345-5.247-2.727A7.031,7.031,0,0,1,1146.22,1126.05Z" transform="translate(-793.626 -832.462)" fill="#6c6c6c"/>
        <path id="Path_21653" data-name="Path 21653" d="M1158.657,1142.32c.672,1.559,2.636,3.248,5.273,4.334,2.766,1.142,6.371-1.081,8.064-2.318.728.526,1.137.862,1.137.862s-5.277,4.614-9.025,3.072C1160.488,1146.8,1158.145,1144.185,1158.657,1142.32Z" transform="translate(-800.665 -841.723)" fill="#6c6c6c"/>
        <path id="Path_21654" data-name="Path 21654" d="M1178.56,1152.533a2.606,2.606,0,0,0,.215-.164l.039-.039,2.86,6.992,2.391,8.1h-1.835l-1.374-8.009Z" transform="translate(-812.034 -847.421)" fill="#6c6c6c"/>
        <path id="Path_21655" data-name="Path 21655" d="M1155.663,1152.19l-7.733,3.787-.87,11.364h1.835l.047-11.145,6.919-3.7Z" transform="translate(-794.104 -847.341)" fill="#6c6c6c"/>
        <path id="Path_21656" data-name="Path 21656" d="M1139.519,1132.087l-3.554-3.347-1.185,1.055,4.915,3.92,1.043-3.1-.651-1.008Z" transform="translate(-787.114 -833.994)" fill="#6c6c6c"/>
        <path id="Path_21657" data-name="Path 21657" d="M1145.484,1091.208s-2.921-8.59-1.667-10.71,5.045-3.688,6.126-1.327-.328,1.521-.526,1.21.22-1.012.22-1.012a1.91,1.91,0,0,0-2.735-.862c-2.051.862-2.774,1.788-3.016,2.8s.814,6.526.961,6.837.922,2.86.922,2.86S1145.682,1091.518,1145.484,1091.208Z" transform="translate(-792.08 -805.107)" fill="#6c6c6c"/>
        <path id="Path_21658" data-name="Path 21658" d="M1134.579,1088.4s-6.561-10.175-5-12.493,3.5-2.692,4.1-1.766.775,2.555.069,2.154-.091-.814-.091-.814.53-1.21-1.1-1.034-2.86.974-2.684,2.585a8.837,8.837,0,0,0,.862,3.373c.685,1.74,4.153,7.8,4.153,7.8S1135.083,1088.512,1134.579,1088.4Z" transform="translate(-784.018 -802.648)" fill="#6c6c6c"/>
        <path id="Path_21659" data-name="Path 21659" d="M1154.722,1105.755l4.532-3.067.754-8.56,2.929-2.938c-.543,2.4-2.494,13.355-2.494,13.355l-5.3,2.081-.53-.823Z" transform="translate(-798.401 -812.62)" fill="#6c6c6c"/>
        <line id="Line_3036" data-name="Line 3036" x2="96.068" transform="translate(204.086 320)" fill="none" stroke="#b5b5b5" stroke-miterlimit="10" stroke-width="2"/>
        <rect id="Rectangle_15199" data-name="Rectangle 15199" width="41.921" height="25.249" rx="10" transform="translate(204.831 0)" fill="#eee"/>
        <rect id="Rectangle_15200" data-name="Rectangle 15200" width="21.255" height="55.224" rx="3" transform="translate(131.712 311.793) rotate(-90)" fill="#e4e4e4"/>
        <line id="Line_3037" data-name="Line 3037" x2="68.066" transform="translate(117.065 312.245)" fill="none" stroke="#dadada" stroke-miterlimit="10" stroke-width="2"/>
        <line id="Line_3038" data-name="Line 3038" x2="20.678" transform="translate(238.119 257.974)" fill="none" stroke="#b5b5b5" stroke-miterlimit="10" stroke-width="2"/>
        <line id="Line_3039" data-name="Line 3039" x2="34.485" transform="translate(341.919 320)" fill="none" stroke="#b5b5b5" stroke-miterlimit="10" stroke-width="2"/>
        <path id="Path_21660" data-name="Path 21660" d="M688.786,516.8c-3.485-3.412-5.523-7.879-8.668-11.558-.969-1.133-.758-3.253.952-3.6,2.425-.5,5.38.121,7.535-1.228a2.1,2.1,0,0,1,1.779-.164,2.418,2.418,0,0,0,2.115-3.007c.293-.293.569-.582.862-.862L650.82,469.917a4.308,4.308,0,0,0-5.958,1.383l-30.931,49.718a4.308,4.308,0,0,0,1.387,5.919l45.169,28.1a4.308,4.308,0,0,0,5.932-1.379L689.165,517.1A2.36,2.36,0,0,1,688.786,516.8Z" transform="translate(-490.279 -458.613)" fill="#5fceb7"/>
        <path id="Path_21661" data-name="Path 21661" d="M672.078,655.566a1.549,1.549,0,0,1,.039-.629,1.608,1.608,0,0,1,.3-.56,8.469,8.469,0,0,0-1.344.517c-1.417.9-4.834,1.086-4.98.06a5.123,5.123,0,0,1,2.52-5.122,4.926,4.926,0,0,1,1.159-.5l-1.753-1.865q-1-1.1-1.977-2.249a8.251,8.251,0,0,1-1.521-2.262,2.87,2.87,0,0,1-.2-1.292,2.033,2.033,0,0,1,.521-1.245,1.4,1.4,0,0,1,1.223-.431.2.2,0,0,1,.091,0c.37.108.6.431.431.745a.2.2,0,0,1-.142.082c-.452.056-.745-.276-.62-.6a.685.685,0,0,0-.233.026,1.374,1.374,0,0,0-.862,1.043,3.015,3.015,0,0,0,.508,2.326,16.567,16.567,0,0,0,1.615,2.068q1.6,1.861,3.261,3.589a4.738,4.738,0,0,1,.689-.1h.84a7.1,7.1,0,0,1-1.534-1.753A15.1,15.1,0,0,1,668.7,644.2a4.64,4.64,0,0,1-.431-1.7,2.421,2.421,0,0,1,1.008-1.628,16.421,16.421,0,0,1,1.9-1.167,1.522,1.522,0,0,1,1.9,0,.431.431,0,0,1,.065.569.836.836,0,0,1-.707.289c-.159,0-.306-.082-.306-.211a.6.6,0,0,1,.086-.315.95.95,0,0,1,.31-.319h-.095a1.809,1.809,0,0,0-.926.172,7.624,7.624,0,0,0-.922.431,6.346,6.346,0,0,0-1.435,1.077,1.68,1.68,0,0,0-.539,1.383,7.232,7.232,0,0,0,.431,1.409c.155.457.31.909.487,1.357a7.7,7.7,0,0,0,2.865,3.834l.159.052a3.016,3.016,0,0,1,1.542,1.124,2.059,2.059,0,0,1,.349,1.254,2.39,2.39,0,0,1-.37,1.163,3.148,3.148,0,0,1-.482.612s-.026,0-.03.039,0,0,.026,0l.22-.065a6.539,6.539,0,0,1,4.192.388,5.557,5.557,0,0,1,3.317,3.141,2.585,2.585,0,0,1,.862-.638,3.448,3.448,0,0,1,1.4-.3,4.973,4.973,0,0,1,1.951.383,9.377,9.377,0,0,1,1.249.659c4.971,3.136,3.446,8.81,3.24,9.305,0,.065,0,.065-.1,0a35.319,35.319,0,0,0-5.842-3.709c-.457-.3-.9-.6-1.331-.943a7.427,7.427,0,0,1-1.206-1.176,3.814,3.814,0,0,1-.672-1.258,3.5,3.5,0,0,1-.1-.521,2.224,2.224,0,0,1-.625.306,30.2,30.2,0,0,1,3.589,4.4,34.3,34.3,0,0,1,.465,3.52,31.112,31.112,0,0,0-.862-3.446,28.515,28.515,0,0,0-2.809-3.016c.37,1.03.685,2.059.952,3.076-.487,0-1.215,2.52-1.693,2.585.293-.039.827-2.546,1.124-2.585a35.392,35.392,0,0,0-1.366-3.942c-.181-.155-.366-.306-.556-.457a8.68,8.68,0,0,1-3.089-.582,9.743,9.743,0,0,1-2.107-1.073,2.011,2.011,0,0,0-.59-.586A2.434,2.434,0,0,0,672.078,655.566Z" transform="translate(-519.322 -555.458)" fill="#909090"/>
        <path id="Path_21662" data-name="Path 21662" d="M695.738,695.607c-.125.259-4.506,7.272-4.506,7.272l-1.822.431s5.437-7.871,5.721-8Z" transform="translate(-533.608 -587.284)" fill="#6c6c6c"/>
        <path id="Path_21663" data-name="Path 21663" d="M707.841,695.682c.039.862-.431,7.323-.431,7.323h1.723s-.685-6.242-.9-7.435Z" transform="translate(-543.854 -587.432)" fill="#6c6c6c"/>
        <path id="Path_21664" data-name="Path 21664" d="M675.278,647.391a7.716,7.716,0,0,0,.943,1.206,2.335,2.335,0,0,1,.31-.086,8.874,8.874,0,0,1-1.852-3.016c-.177-.431-.332-.9-.487-1.357a7.233,7.233,0,0,1-.431-1.409,1.681,1.681,0,0,1,.539-1.383,6.346,6.346,0,0,1,1.434-1.077,7.61,7.61,0,0,1,.922-.431,1.81,1.81,0,0,1,.926-.172h.095a.954.954,0,0,0-.31.319.6.6,0,0,0-.086.315c0,.129.146.194.306.211a.836.836,0,0,0,.707-.289.431.431,0,0,0-.065-.569,1.586,1.586,0,0,0-1.9,0,16,16,0,0,0-1.891,1.168,2.412,2.412,0,0,0-1.012,1.628,4.638,4.638,0,0,0,.431,1.7A15.1,15.1,0,0,0,675.278,647.391Z" transform="translate(-524.512 -555.438)" fill="#6c6c6c"/>
        <path id="Path_21665" data-name="Path 21665" d="M688.467,676.655c-2.283-1.12-3.49-3.205-4.213-5.665a8.411,8.411,0,0,1-3.782.5c-1.663-.052-3.679-.508-4.338-2.249a3.323,3.323,0,0,1-.129-.5,1.111,1.111,0,0,1,0-.862,1.758,1.758,0,0,1,.078-.258l-.2.06h-.026c-.026,0,0-.026.03-.039a3.149,3.149,0,0,0,.482-.612,2.374,2.374,0,0,0,.37-1.163,2.059,2.059,0,0,0-.349-1.254,2.506,2.506,0,0,0-.431-.5,1.607,1.607,0,0,1-.375.862c-4.062,4.739-6.759,2.908-7.138,2.555a5.834,5.834,0,0,0-.03,1.46c.146,1.025,3.563.836,4.98-.06a8.507,8.507,0,0,1,1.344-.517,1.612,1.612,0,0,0-.3.56,1.9,1.9,0,0,0,.379,1.6h-.026l.1.151h.03a4.139,4.139,0,0,0,.465.5,7.471,7.471,0,0,0,2.8,1.628,9.97,9.97,0,0,0,2.938.582c1.473,0,1.723-.353,1.921-.482a3.49,3.49,0,0,0,.1.521l.065.177a1.837,1.837,0,0,1,.362.53,1.292,1.292,0,0,1,.091.332c.047.073.1.151.155.22a7.417,7.417,0,0,0,1.206,1.176,15.4,15.4,0,0,0,1.331.944,35.276,35.276,0,0,1,5.842,3.709c.082.047.078.047.1,0a9.186,9.186,0,0,0,.383-2.369A15.261,15.261,0,0,1,688.467,676.655Z" transform="translate(-521.641 -569.524)" fill="#6c6c6c"/>
        <path id="Path_21666" data-name="Path 21666" d="M668.009,648.188q.814.883,1.637,1.723a2.049,2.049,0,0,1,.431.185l.1-.151h-.082c-1.1-1.155-2.2-2.348-3.261-3.589a16.581,16.581,0,0,1-1.615-2.068,3.016,3.016,0,0,1-.508-2.326,1.374,1.374,0,0,1,.862-1.042.691.691,0,0,1,.233-.026c-.125.328.168.659.62.6a.2.2,0,0,0,.142-.082c.19-.336-.043-.638-.431-.745a.2.2,0,0,0-.09,0,1.4,1.4,0,0,0-1.224.431,2.033,2.033,0,0,0-.521,1.245,2.868,2.868,0,0,0,.2,1.292,8.352,8.352,0,0,0,1.521,2.262Q667.009,647.09,668.009,648.188Z" transform="translate(-519.31 -556.174)" fill="#6c6c6c"/>
        <path id="Path_21667" data-name="Path 21667" d="M696.505,652.6l.194,5.144-5.656,4.584-.013.371,6.38-4.2,1.292-5.829Z" transform="translate(-534.53 -562.973)" fill="#909090"/>
        <path id="Path_21668" data-name="Path 21668" d="M687.235,657.29l.151-7.048-1.31-5.333-1.736-1.159,2.184,6.492v7.324Z" transform="translate(-530.722 -557.935)" fill="#909090"/>
        <g id="Group_1225" data-name="Group 1225" transform="translate(188.313 48.185)">
          <path id="Path_21669" data-name="Path 21669" d="M1025.064,620.19,827.41,592.33a84.383,84.383,0,0,1-9.732,4.429,71.371,71.371,0,0,1-15.276,4.484c-4.355.668-8.508-.065-12.855-.246-4.786-.2-7.246,2.8-9.637,6.66a2.193,2.193,0,0,1-2.947.771,21.371,21.371,0,0,0-6.031-2.654l-3.627,25.736c-.379,2.671,1.891,5.2,5.066,5.648l245.412,34.615c3.175.431,6.057-1.353,6.432-4.024l5.911-41.895C1030.509,623.205,1028.239,620.655,1025.064,620.19Z" transform="translate(-766.236 -576.852)" fill="#fff"/>
          <path id="Path_21670" data-name="Path 21670" d="M771.582,576.639c1.663-3.8,3.985-7.3,8.155-8.616,4.024-1.292,8.4-.862,12.493-1.9,5.019-1.292,9.8-4.123,14.186-6.807,1.516-.931,3.016-1.9,4.519-2.912l-40.495,2.029c-3.205.164-5.691,2.477-5.557,5.17l.6,11.968A23.424,23.424,0,0,1,771.582,576.639Z" transform="translate(-764.878 -556.4)" fill="#fff"/>
        </g>
        <text id="INS._CLAIM_6854FDSA" data-name="INS. CLAIM 6854FDSA" transform="matrix(0.991, 0.137, -0.137, 0.991, 212.161, 93.001)" fill="#ffab43" font-size="19" font-family="Montserrat-Black, Montserrat" font-weight="800"><tspan x="0" y="0">IN</tspan><tspan y="0" letter-spacing="0.02em">S</tspan><tspan y="0">. C</tspan><tspan y="0" letter-spacing="0.01em">L</tspan><tspan y="0">AIM 6854FDSA</tspan></text>
        <path id="Path_21671" data-name="Path 21671" d="M1309.789,777.592a1.472,1.472,0,0,1-.263-1.206,8.442,8.442,0,0,0-.935,1.1c-.819,1.46-3.73,3.261-4.347,2.434a5.169,5.169,0,0,1,.547-6.7q-1.211-.383-2.43-.8c-.939-.323-1.874-.663-2.809-1.03a8.305,8.305,0,0,1-2.421-1.258,2.879,2.879,0,0,1-.8-1.06,2.008,2.008,0,0,1-.138-1.344,1.391,1.391,0,0,1,.862-.969.178.178,0,0,1,.091-.021c.375-.086.724.069.715.452a.2.2,0,0,1-.082.142c-.37.267-.788.112-.836-.233a.669.669,0,0,0-.189.129,1.383,1.383,0,0,0-.267,1.331,3.05,3.05,0,0,0,1.56,1.805,16.822,16.822,0,0,0,2.408,1.043c1.525.586,3.059,1.107,4.575,1.594a5.3,5.3,0,0,1,.564-.431c.1-.069.211-.125.315-.185a3.894,3.894,0,0,1,.431-.228,7.142,7.142,0,0,1-2.184-.81,15.258,15.258,0,0,1-2.779-2.154,4.606,4.606,0,0,1-1.176-1.292,2.416,2.416,0,0,1,.112-1.913,16.088,16.088,0,0,1,1.107-1.93,1.581,1.581,0,0,1,1.654-.922.431.431,0,0,1,.327.465.836.836,0,0,1-.487.594c-.146.06-.3.073-.37-.039a.714.714,0,0,1-.073-.319.972.972,0,0,1,.121-.431l-.09.026a1.815,1.815,0,0,0-.732.59,7.983,7.983,0,0,0-.594.862,6.254,6.254,0,0,0-.746,1.633,1.7,1.7,0,0,0,.186,1.469,6.759,6.759,0,0,0,1.034,1.043c.353.327.707.655,1.077.961a7.691,7.691,0,0,0,4.347,2l.168-.03a3.016,3.016,0,0,1,1.926.284,2.087,2.087,0,0,1,.9.935,2.37,2.37,0,0,1,.228,1.2,3.512,3.512,0,0,1-.129.763.057.057,0,0,0,0,.052h0s.108-.112.164-.164a6.536,6.536,0,0,1,3.877-1.659,5.539,5.539,0,0,1,4.416,1.176,2.59,2.59,0,0,1,.431-.978,3.388,3.388,0,0,1,1.077-.926,5.008,5.008,0,0,1,1.9-.6,9.094,9.094,0,0,1,1.413,0c5.867.379,7.246,6.087,7.293,6.626,0,.069,0,.069-.082.065a35.25,35.25,0,0,0-6.893-.474,15.478,15.478,0,0,1-1.62-.19,7.514,7.514,0,0,1-1.624-.457,3.757,3.757,0,0,1-1.189-.784,2.616,2.616,0,0,1-.34-.431,2.186,2.186,0,0,1-.405.569,30.178,30.178,0,0,1,5.256,2.154c.762.939,5.385,4.454,6.031,5.419-.724-.887-5.445-4.308-6.311-5.17a29.051,29.051,0,0,0-3.877-1.292c.814.728,1.585,1.482,2.3,2.249-.431.246-.745,4.355-1.141,4.627.237-.172.4-4.192.642-4.355a34.655,34.655,0,0,0-3.08-2.813l-.706-.138a8.615,8.615,0,0,1-2.99.965,9.583,9.583,0,0,1-2.365.065,2,2,0,0,0-.8-.233A2.452,2.452,0,0,0,1309.789,777.592Z" transform="translate(-878.958 -625.866)" fill="#909090"/>
        <path id="Path_21672" data-name="Path 21672" d="M1352.32,803.14c0,.284-1.46,9.516-1.46,9.516l-1.37.53s1.964-9.775,2.154-10.025Z" transform="translate(-909.328 -648.661)" fill="#6c6c6c"/>
        <path id="Path_21673" data-name="Path 21673" d="M1359.76,800.563c.431.75,6.776,6.272,6.776,6.272l1.723-.431s-7.44-5.17-8.185-6.1Z" transform="translate(-915.174 -647.044)" fill="#6c6c6c"/>
        <path id="Path_21674" data-name="Path 21674" d="M1309.292,771.357a7.815,7.815,0,0,0,1.4.607,2.285,2.285,0,0,1,.233-.224,8.879,8.879,0,0,1-3.067-1.762c-.37-.306-.724-.633-1.077-.961a6.752,6.752,0,0,1-1.034-1.043,1.7,1.7,0,0,1-.185-1.469,6.243,6.243,0,0,1,.745-1.633,7.989,7.989,0,0,1,.594-.862,1.815,1.815,0,0,1,.732-.59l.09-.026a.962.962,0,0,0-.121.431.668.668,0,0,0,.073.319c.069.112.224.1.371.039a.835.835,0,0,0,.487-.595.431.431,0,0,0-.327-.465,1.581,1.581,0,0,0-1.654.922,15.8,15.8,0,0,0-1.107,1.934,2.4,2.4,0,0,0-.112,1.908,4.612,4.612,0,0,0,1.176,1.292,15.267,15.267,0,0,0,2.779,2.175Z" transform="translate(-884.113 -625.86)" fill="#6c6c6c"/>
        <path id="Path_21675" data-name="Path 21675" d="M1335.335,788.815c-2.542.108-4.6-1.146-6.41-2.96a8.633,8.633,0,0,1-3.08,2.24c-1.49.75-3.476,1.292-4.885.095a3.3,3.3,0,0,1-.358-.379,1.108,1.108,0,0,1-.4-.745,1.833,1.833,0,0,1-.056-.258c-.052.047-.1.095-.146.146h0a.056.056,0,0,1,0-.052,3.54,3.54,0,0,0,.129-.762,2.376,2.376,0,0,0-.228-1.2,2.09,2.09,0,0,0-.9-.935,2.737,2.737,0,0,0-.616-.232,1.646,1.646,0,0,1,.09.952c-1.292,6.122-4.553,5.786-5.053,5.656a5.954,5.954,0,0,0,.672,1.292c.616.827,3.528-.974,4.347-2.434a8.444,8.444,0,0,1,.935-1.1,1.521,1.521,0,0,0,0,.638,1.861,1.861,0,0,0,1.094,1.228h-.026l.164.086h.03a4.3,4.3,0,0,0,.642.211,7.386,7.386,0,0,0,3.244.091,9.951,9.951,0,0,0,2.856-.892c1.293-.694,1.361-1.142,1.461-1.344a2.627,2.627,0,0,0,.34.431l.138.125a1.8,1.8,0,0,1,.573.293,1.09,1.09,0,0,1,.237.25l.241.116a7.518,7.518,0,0,0,1.624.457,15.528,15.528,0,0,0,1.62.19,35.151,35.151,0,0,1,6.893.474c.095,0,.095,0,.082-.065a9.352,9.352,0,0,0-.8-2.266A15.933,15.933,0,0,1,1335.335,788.815Z" transform="translate(-888.797 -637.635)" fill="#6c6c6c"/>
        <path id="Path_21676" data-name="Path 21676" d="M1302.335,777.2c.758.263,1.516.508,2.266.745a2.385,2.385,0,0,1,.457-.039v-.177l-.069.052c-1.516-.487-3.046-1.008-4.575-1.594a16.792,16.792,0,0,1-2.408-1.043,3.05,3.05,0,0,1-1.559-1.805,1.383,1.383,0,0,1,.267-1.331.667.667,0,0,1,.189-.129c.047.345.465.5.836.233a.2.2,0,0,0,.082-.142c0-.383-.34-.538-.715-.452a.177.177,0,0,0-.091.021,1.391,1.391,0,0,0-.861.969,2.008,2.008,0,0,0,.138,1.344,2.884,2.884,0,0,0,.8,1.06,8.411,8.411,0,0,0,2.421,1.258Q1300.935,776.721,1302.335,777.2Z" transform="translate(-878.936 -630.649)" fill="#6c6c6c"/>
        <path id="Path_21677" data-name="Path 21677" d="M1343.187,760.9l-2.749,6.014-2.779,6.733.164.327,3.6-6.733,4.778-6.772Z" transform="translate(-902.594 -624.373)" fill="#909090"/>
        <path id="Path_21678" data-name="Path 21678" d="M1323.916,773.226l-1.736-.246,1.827,2.723,3.481,4.79.336.078-3.033-5.217Z" transform="translate(-893.783 -631.493)" fill="#909090"/>
        <path id="Path_21679" data-name="Path 21679" d="M767.287,614.326l-3.877-2.585,3.446-.862s4.308,4.739,5.169,4.308S770.734,616.05,767.287,614.326Z" transform="translate(-575.729 -539.226)" fill="#fff"/>
        <path id="Path_21680" data-name="Path 21680" d="M829.41,590.042l4.739-3.446s3.877-.862,2.154.862S831.133,589.611,829.41,590.042Z" transform="translate(-613.297 -525.28)" fill="#ffab43"/>
        <path id="Path_23037" data-name="Path 23037" d="M829.41,590.042l4.739-3.446s3.877-.862,2.154.862S831.133,589.611,829.41,590.042Z" transform="translate(-608.297 -505.56)" fill="#fff"/>
        <path id="Path_21681" data-name="Path 21681" d="M877.611,564.88s-2.154,6.462-6.031,7.323-5.17,2.585-5.17,2.585,6.462.862,9.047-1.292,5.17-8.185,5.17-8.185Z" transform="translate(-634.357 -513.042)" fill="#fff"/>
        <path id="Path_21682" data-name="Path 21682" d="M894.41,540.88l3.446,3.016,2.585-2.585Z" transform="translate(-650.295 -499.381)" fill="#fff"/>
        <path id="Path_21683" data-name="Path 21683" d="M831.41,531.172l.431,3.016,5.17-4.308Z" transform="translate(-614.435 -493.12)" fill="#fff"/>
        <path id="Path_21684" data-name="Path 21684" d="M915.7,536.88l-1.292,5.6,4.308-1.292Z" transform="translate(-661.679 -497.105)" fill="#fff"/>
        <path id="Path_21685" data-name="Path 21685" d="M748.995,623.88l-2.585,4.739,3.016.431Z" transform="translate(-566.053 -546.625)" fill="#fff"/>
        <path id="Path_21686" data-name="Path 21686" d="M953.564,557.88l-2.154,2.585,4.739.431Z" transform="translate(-682.739 -509.058)" fill="#ffab43"/>
        <path id="Path_23038" data-name="Path 23038" d="M953.564,557.88l-2.154,2.585,4.739.431Z" transform="translate(-677.739 -470.187)" fill="#fff"/>
        <path id="Path_21687" data-name="Path 21687" d="M736.749,589.88l-10.339.862,1.723,4.308Z" transform="translate(-554.669 -527.272)" fill="#fff"/>
        <line id="Line_3040" data-name="Line 3040" x1="17.663" transform="translate(152.786 115.596)" fill="none" stroke="#b5b5b5" stroke-miterlimit="10" stroke-width="2"/>
        <path id="Path_21688" data-name="Path 21688" d="M805.718,537.88l-4.308,6.031,9.478-.431s0-5.169-2.154-5.169A7.454,7.454,0,0,1,805.718,537.88Z" transform="translate(-597.359 -497.674)" fill="#5fceb7"/>
        <path id="Path_21689" data-name="Path 21689" d="M822.958,496.316l2.154,3.446,8.185-.862S820.374,488.992,822.958,496.316Z" transform="translate(-609.43 -472.48)" fill="#5fceb7"/>
        <path id="Path_21690" data-name="Path 21690" d="M846.01,516.88l-2.585,2.154-3.016-.431Z" transform="translate(-619.558 -485.721)" fill="#5fceb7"/>
        <path id="Path_21691" data-name="Path 21691" d="M804.571,589.465l2.154,3.446s-6.893,3.016-8.616,3.016S805,586.88,805,586.88Z" transform="translate(-595.35 -525.565)" fill="#5fceb7"/>
        <path id="Path_21692" data-name="Path 21692" d="M908.856,520.172l1.723-1.292-5.17,1.292,2.585,1.723Z" transform="translate(-656.556 -486.859)" fill="#5fceb7"/>
        <path id="Path_21693" data-name="Path 21693" d="M773.41,467.88v4.308l3.877-.431Z" transform="translate(-581.421 -457.83)" fill="#5fceb7"/>
        <path id="Path_21694" data-name="Path 21694" d="M826.41,476.9l5.17-3.016-2.585,3.016Z" transform="translate(-611.589 -461.245)" fill="#5fceb7"/>
        <path id="Path_21695" data-name="Path 21695" d="M660.009,977.383s-2.175,3.787-5.122,3.929-5.4-1.366-5.5-3.39,2.188-3.787,5.122-3.937S660.009,977.383,660.009,977.383Z" transform="translate(-510.824 -745.903)" fill="#909090"/>
        <ellipse id="Ellipse_3376" data-name="Ellipse 3376" cx="5.135" cy="2.934" rx="5.135" ry="2.934" transform="translate(138.506 243.858) rotate(-71.45)" fill="#909090"/>
        <path id="Path_21696" data-name="Path 21696" d="M639.55,1012.3c.771,1.874-1.641,4.644-5.389,6.191s-9.021-3.072-9.021-3.072a24.6,24.6,0,0,1,6.225-3.714C635.113,1010.163,638.775,1010.43,639.55,1012.3Z" transform="translate(-497.025 -766.806)" fill="#909090"/>
        <path id="Path_21697" data-name="Path 21697" d="M658.155,974.44a10.961,10.961,0,0,1,2.912,2.662s-2.188,3.787-5.122,3.938a7.241,7.241,0,0,1-2.585-.314,6.7,6.7,0,0,0,3.77.862c2.934-.151,5.122-3.937,5.122-3.937A9.541,9.541,0,0,0,658.155,974.44Z" transform="translate(-513.088 -746.165)" fill="#6c6c6c"/>
        <path id="Path_21698" data-name="Path 21698" d="M658.238,993.85a8.109,8.109,0,0,1-.431,2.585c-.9,2.688-2.878,4.45-4.416,3.937a2.3,2.3,0,0,1-1.361-1.6c0,1.607.564,2.882,1.59,3.227,1.538.513,3.515-1.249,4.416-3.938A6.97,6.97,0,0,0,658.238,993.85Z" transform="translate(-512.331 -757.214)" fill="#6c6c6c"/>
        <path id="Path_21699" data-name="Path 21699" d="M639.615,1014.93c-.672,1.559-2.641,3.248-5.273,4.334-2.77,1.142-6.371-1.081-8.064-2.318-.728.521-1.137.862-1.137.862s5.277,4.614,9.021,3.072C637.767,1019.41,640.123,1016.8,639.615,1014.93Z" transform="translate(-497.025 -769.212)" fill="#6c6c6c"/>
        <path id="Path_21700" data-name="Path 21700" d="M631.656,1025.143a2.057,2.057,0,0,1-.22-.164l-.039-.039-2.856,6.992-2.391,8.1h1.831l1.374-8.008Z" transform="translate(-497.6 -774.91)" fill="#6c6c6c"/>
        <path id="Path_21701" data-name="Path 21701" d="M650.2,1024.8l7.733,3.787.87,11.364h-1.835l-.052-11.145-6.914-3.7Z" transform="translate(-511.176 -774.83)" fill="#6c6c6c"/>
        <path id="Path_21702" data-name="Path 21702" d="M636.956,975.021s-6.548-6.285-9-6.031-5.475,3.016-3.8,4.984,1.516.349,1.323.039-1.012-.233-1.012-.233a1.887,1.887,0,0,1,.383-2.839c1.676-1.482,2.8-1.758,3.8-1.525s5.57,3.5,5.786,3.765,2.2,2.046,2.2,2.046S637.172,975.344,636.956,975.021Z" transform="translate(-496.193 -743.059)" fill="#6c6c6c"/>
        <path id="Path_21703" data-name="Path 21703" d="M639.8,963.716s-6.44-10.249-9.2-9.813-3.92,2.033-3.334,2.964,1.986,1.783,1.908.965-.7-.431-.7-.431-1.323-.039-.47-1.439,2.094-2.184,3.494-1.331a8.974,8.974,0,0,1,2.693,2.21c1.288,1.348,5.3,7.065,5.3,7.065S639.684,964.224,639.8,963.716Z" transform="translate(-498.15 -734.468)" fill="#6c6c6c"/>
        <path id="Path_21704" data-name="Path 21704" d="M656.674,981.9l6.2,8.65-5.76-3.446-.207.939,8.271,4.566s-4.308-8.237-4.42-8.655S655.51,977.307,656.674,981.9Z" transform="translate(-514.877 -749.455)" fill="#6c6c6c"/>
        <path id="Path_21705" data-name="Path 21705" d="M661.28,972.17s.913-2.154,2.064-1.09a2.873,2.873,0,0,1,1.06,2.2S661.926,971.687,661.28,972.17Z" transform="translate(-517.596 -744.085)" fill="#6c6c6c"/>
        <path id="Path_21706" data-name="Path 21706" d="M668.468,984.85l3.308,7.069-5.316-1.469.142-1.077,3.494,1.193-2.628-5.109Z" transform="translate(-520.545 -752.091)" fill="#6c6c6c"/>
        <path id="Path_21707" data-name="Path 21707" d="M649.823,749.079c-.026-.65-.073-1.292-.073-1.956q.03-15.427.078-30.841a10.952,10.952,0,0,1,.026-1.249,1.723,1.723,0,0,1,1.577-1.65,8.558,8.558,0,0,1,1.245-.034l28,.073h.892c1.391.1,1.9.616,1.982,1.986v.711q-.048,15.69-.086,31.379c0,.53-.06,1.064-.09,1.6a1.2,1.2,0,0,1-.564-.663,18.011,18.011,0,0,0-6.272-6.686,17.434,17.434,0,0,0-12.588-2.74,18.234,18.234,0,0,0-13.471,9.249C650.289,748.566,650.2,748.949,649.823,749.079Zm16.435-11.847a8.271,8.271,0,1,0-8.178-8.344C658.043,733.928,662.558,737.525,666.258,737.232Z" transform="translate(-511.033 -597.546)" fill="#dadada"/>
        <path id="Path_21708" data-name="Path 21708" d="M649.9,782.694c.375-.142.474-.513.646-.814a18.246,18.246,0,0,1,13.471-9.249,17.435,17.435,0,0,1,12.588,2.74,18.012,18.012,0,0,1,6.272,6.686,1.2,1.2,0,0,0,.564.663c0,.948.043,1.9,0,2.847-.056,1.327-.517,1.753-1.874,1.822h-.711l-28.316-.086a9.839,9.839,0,0,1-1.068,0c-1.03-.112-1.5-.547-1.56-1.577S649.9,783.706,649.9,782.694Z" transform="translate(-511.107 -631.161)" fill="#eee"/>
        <path id="Path_21709" data-name="Path 21709" d="M677.255,746.818c-3.7.293-8.215-3.3-8.185-8.332a8.319,8.319,0,1,1,8.185,8.332Z" transform="translate(-522.03 -607.133)" fill="#eee"/>
        <path id="Path_21710" data-name="Path 21710" d="M696.586,776.274h3.726a2.585,2.585,0,0,0,1.236-.3l-14.763-22.13a2.154,2.154,0,0,0-3.584,2.391Z" transform="translate(-529.868 -620.055)" fill="#f3f3f3"/>
        <path id="Path_21711" data-name="Path 21711" d="M652.489,776.169a9.807,9.807,0,0,0,1.068,0h3.119l13.355-19.985a2.154,2.154,0,1,0-3.584-2.391L651.67,775.919A2.386,2.386,0,0,0,652.489,776.169Z" transform="translate(-512.126 -620.026)" fill="#f3f3f3"/>
        <path id="Path_21712" data-name="Path 21712" d="M490.453,802.7c-.026-.655-.073-1.292-.073-1.956q.035-15.422.078-30.845a10.892,10.892,0,0,1,.022-1.245,1.723,1.723,0,0,1,1.577-1.65,8.049,8.049,0,0,1,1.249-.034l28,.073h.892c1.391.1,1.9.612,1.982,1.982v.715q-.039,15.69-.082,31.375c0,.534-.06,1.068-.095,1.6a1.189,1.189,0,0,1-.56-.659,18.045,18.045,0,0,0-6.272-6.686,17.46,17.46,0,0,0-12.588-2.744,18.229,18.229,0,0,0-13.471,9.253C490.923,802.18,490.828,802.555,490.453,802.7Zm16.435-11.851a8.263,8.263,0,1,0-8.181-8.327C498.673,787.546,503.188,791.139,506.888,790.846Z" transform="translate(-420.319 -628.065)" fill="#dadada"/>
        <path id="Path_21713" data-name="Path 21713" d="M490.519,836.311c.375-.142.47-.517.646-.814a18.251,18.251,0,0,1,13.471-9.253,17.46,17.46,0,0,1,12.588,2.744,18.046,18.046,0,0,1,6.272,6.686,1.189,1.189,0,0,0,.56.659c0,.952.047,1.9,0,2.852-.056,1.323-.521,1.749-1.874,1.822h-.711l-28.32-.073h-1.068c-1.03-.112-1.5-.547-1.56-1.577S490.519,837.319,490.519,836.311Z" transform="translate(-420.385 -661.679)" fill="#eee"/>
        <path id="Path_21714" data-name="Path 21714" d="M517.885,800.428c-3.7.293-8.215-3.3-8.185-8.327a8.319,8.319,0,1,1,8.185,8.327Z" transform="translate(-431.316 -637.648)" fill="#eee"/>
        <path id="Path_21715" data-name="Path 21715" d="M549.838,824.136h2.481c.991-.052,1.5-.3,1.723-.939l-6.363-25.146a2.154,2.154,0,1,0-4.174,1.06Z" transform="translate(-450.514 -644.812)" fill="#f3f3f3"/>
        <path id="Path_21716" data-name="Path 21716" d="M492.413,824.027c.353.035.711,0,1.068,0h1.831l6.311-24.956a2.154,2.154,0,1,0-4.174-1.06l-6.389,25.253A1.52,1.52,0,0,0,492.413,824.027Z" transform="translate(-420.707 -644.79)" fill="#f3f3f3"/>
        <path id="Path_21717" data-name="Path 21717" d="M327.819,673.709c-.022-.65-.073-1.292-.069-1.956q.034-15.423.078-30.841a10.959,10.959,0,0,1,.021-1.249,1.723,1.723,0,0,1,1.577-1.65,8.573,8.573,0,0,1,1.245-.035l28,.073h.892c1.4.1,1.9.616,1.982,1.986v.711q-.039,15.689-.086,31.379c0,.53-.06,1.064-.09,1.6a1.236,1.236,0,0,1-.564-.664,18.014,18.014,0,0,0-6.272-6.686,17.43,17.43,0,0,0-12.588-2.74,18.234,18.234,0,0,0-13.467,9.249C328.288,673.2,328.2,673.567,327.819,673.709Zm16.435-11.847a8.264,8.264,0,1,0-8.178-8.332C336.043,658.558,340.557,662.155,344.253,661.862Z" transform="translate(-327.749 -554.645)" fill="#dadada"/>
        <path id="Path_21718" data-name="Path 21718" d="M327.883,707.324c.379-.142.474-.513.65-.814A18.246,18.246,0,0,1,342,697.26,17.43,17.43,0,0,1,354.588,700a18.01,18.01,0,0,1,6.272,6.686,1.236,1.236,0,0,0,.564.663c0,.948.043,1.9,0,2.848-.052,1.327-.517,1.753-1.87,1.822h-.715l-28.316-.073a9.778,9.778,0,0,1-1.068,0c-1.03-.112-1.5-.547-1.564-1.577S327.883,708.336,327.883,707.324Z" transform="translate(-327.814 -588.26)" fill="#eee"/>
        <path id="Path_21719" data-name="Path 21719" d="M355.245,671.593c-3.7.293-8.211-3.3-8.185-8.332a8.319,8.319,0,1,1,8.185,8.332Z" transform="translate(-338.741 -564.376)" fill="#eee"/>
        <path id="Path_21720" data-name="Path 21720" d="M379.22,695.151h3.063a2.061,2.061,0,0,0,1.452-.478L371.918,668.7a2.154,2.154,0,1,0-3.92,1.783Z" transform="translate(-350.537 -571.396)" fill="#f3f3f3"/>
        <path id="Path_21721" data-name="Path 21721" d="M330.181,695.042a9.84,9.84,0,0,0,1.068,0h2.421l11.2-24.594a2.154,2.154,0,1,0-3.92-1.784L329.13,694.645A1.991,1.991,0,0,0,330.181,695.042Z" transform="translate(-328.535 -571.373)" fill="#f3f3f3"/>
        <line id="Line_3041" data-name="Line 3041" x2="30.587" transform="translate(124.354 265.121)" fill="none" stroke="#dadada" stroke-miterlimit="10" stroke-width="2"/>
        <rect id="Rectangle_15201" data-name="Rectangle 15201" width="56.865" height="40.857" rx="3" transform="translate(418.157 168.584)" fill="#f2f2f2"/>
        <path id="Path_21722" data-name="Path 21722" d="M1334.22,832.73c.082.065,34.546.065,34.546.065" transform="translate(-900.636 -665.503)" fill="none" stroke="#b5b5b5" stroke-miterlimit="10" stroke-width="2"/>
      </g>
    </g>
    <line id="Line_3102" data-name="Line 3102" x2="89.854" transform="translate(652.734 653.865)" fill="none" stroke="#b5b5b5" stroke-miterlimit="10" stroke-width="2"/>
    <path id="Path_23019" data-name="Path 23019" d="M480.09,1035.463c-1.872-1.711-2.561,3.1-1.775.681a96.52,96.52,0,0,0,4.268-29.27c0-28.405-10.753-51.434-24.021-51.434a11.457,11.457,0,0,0-1.479.1l-37.162,2.512-4.182,78.465,1.191-.109-.749,1.711-7.787-.165-11.134,3.235a.344.344,0,0,0,.094.678H483.3a.348.348,0,0,0,.344-.374A10.554,10.554,0,0,0,480.09,1035.463Z" transform="translate(257.818 -388.27)" fill="#b7b7b7"/>
    <path id="Path_23020" data-name="Path 23020" d="M437.638,1040.473c-.475-.225,4.227-13.886,4.227-26.619,0-28.409-10.756-51.434-24.021-51.434s-24.021,23.025-24.021,51.434c0,9.966,3.583,25.709,1.434,27.87a4.028,4.028,0,0,0-1.434,2.463h0a1.434,1.434,0,0,0,1.292,2.055h47.057a.775.775,0,0,0,.618-1.243A15.841,15.841,0,0,0,437.638,1040.473Z" transform="translate(259.896 -392.637)" fill="#dadada"/>
    <path id="Path_23021" data-name="Path 23021" d="M445.969,1045.616c0,17.907-6.312,24.938-14.1,24.938s-14.1-7.031-14.1-24.938,6.312-32.426,14.1-32.426S445.969,1027.72,445.969,1045.616Z" transform="translate(244.826 -424.398)" fill="#f9f9f9"/>
    <path id="Path_23022" data-name="Path 23022" d="M438.674,1074.608c-.955,3.557-2.2,5.743-3.227,8.57-1.067,2.595-1.913,5.837-3.036,6.091-1.007-.041-1.389-1.082-2.591-3.6a43.048,43.048,0,0,1-3.677-11.763c-.607-4.983-.625-7.593.442-10.446,1.026-2.572,3.137-5.388,5.826-4.216C437.012,1062.534,439.816,1067.24,438.674,1074.608Z" transform="translate(239.849 -453.037)" fill="#eee"/>
    <path id="Path_23023" data-name="Path 23023" d="M422.074,1087.106c-.217-1.213-.374-2.392-.524-3.523s-.24-2.246-.3-3.283c.041.052.086.1.127.15.026,1.007.086,2.048.21,3.171S421.872,1085.9,422.074,1087.106Z" transform="translate(242.649 -466.383)" fill="#b7b7b7"/>
    <path id="Path_23024" data-name="Path 23024" d="M421.5,1055.518a24.187,24.187,0,0,1,.472-2.793,18.665,18.665,0,0,1,.779-2.557c.075-.195.352-.12.6.154l.022.026a.88.88,0,0,1,.258.809,18.373,18.373,0,0,0-1,2.321,18.589,18.589,0,0,0-.689,2.572Z" transform="translate(242.493 -447.463)" fill="#b7b7b7"/>
    <path id="Path_23025" data-name="Path 23025" d="M436.108,1033.379c-.723-.749-1-1.37-.528-1.475a8.345,8.345,0,0,1,2.033-.2,8.021,8.021,0,0,1,3.4.951c.921.483,1.677.8,2.437,1.2a2.874,2.874,0,0,1,1.123,1.03c.228.374-.329.839-.775,1.048a3.4,3.4,0,0,0-.794.547c-.352.326-.592.337-.584-.071,0-.925-.67-1.344-1.479-1.5a9.9,9.9,0,0,0-2.692-.135,2.9,2.9,0,0,1-1.711-.947Z" transform="translate(233.83 -435.98)" fill="#b7b7b7"/>
    <path id="Path_23026" data-name="Path 23026" d="M464.988,1060.7a.821.821,0,0,1,1.1.648c.146.539.27,1.056.374,1.584s.213,1.018.307,1.535a.85.85,0,0,1-.8,1.033h-.183a.8.8,0,0,1-.955-.711c-.052-.442-.116-.884-.183-1.329s-.15-.951-.24-1.445a1.284,1.284,0,0,1,.565-1.333Z" transform="translate(215.665 -454.076)" fill="#b7b7b7"/>
    <path id="Path_23027" data-name="Path 23027" d="M473.954,1085.672c1.176.21,2.246,1.176,2.213,1.872-.026.524-.079,1.045-.154,1.561s-.154,1.011-.255,1.5c-.146.693-1.258.618-2.291.165l-.374-.15c-.97-.375-1.61-.981-1.557-1.584.041-.431.079-.861.1-1.288s.037-.861.049-1.288c0-.573.786-1.052,1.9-.872A2.349,2.349,0,0,0,473.954,1085.672Z" transform="translate(211.192 -469.666)" fill="#b7b7b7"/>
    <path id="Path_23028" data-name="Path 23028" d="M468.909,1112.4c.812.5,1.322,1.651,1.022,2.246-.206.427-.412.854-.625,1.284l-.648,1.355a.966.966,0,0,1-1.5.262h0a1.775,1.775,0,0,1-.607-1.775c.12-.509.232-1.011.341-1.5s.206-.94.3-1.4c.135-.655.794-1,1.565-.535Z" transform="translate(214.336 -486.295)" fill="#b7b7b7"/>
    <path id="Path_23029" data-name="Path 23029" d="M458.211,1142.62a1.836,1.836,0,0,1,.03,1.606c-.318.824-.663,1.685-1.048,2.546a22.864,22.864,0,0,1-1.325,2.55c-.318.513-.625.374-.674-.266h0a3.272,3.272,0,0,1,.341-1.617,19.552,19.552,0,0,0,.977-2.172c.285-.749.543-1.5.782-2.246.183-.577.513-.846.749-.592Z" transform="translate(221.416 -505.191)" fill="#b7b7b7"/>
    <path id="Path_23030" data-name="Path 23030" d="M442.762,1153.364c-.161.374-.4.46-.513.232-.3-.6-.58-1.228-.884-1.872l-1.041-2.246a.449.449,0,0,1,.124-.509h0a.244.244,0,0,1,.374.049q.565,1.026,1.074,1.928c.307.543.61,1.048.914,1.5a1.093,1.093,0,0,1-.056.9Z" transform="translate(230.736 -509.301)" fill="#b7b7b7"/>
    <path id="Path_23031" data-name="Path 23031" d="M429.316,1121.841c-.427-1.123-.842-2.269-1.224-3.463s-.749-2.422-1.082-3.658l.086.045c.374,1.247.749,2.479,1.183,3.665s.887,2.329,1.348,3.4Z" transform="translate(239.046 -487.916)" fill="#b7b7b7"/>
    <path id="Path_23032" data-name="Path 23032" d="M430.246,979.245,428,969.282s1.565-2.868.869-3.56l-.693-.693,1.733-1.389s.09,1.5,3.167,1.269,3.422.12,3.422.12Z" transform="translate(238.427 -393.398)" fill="#dadada"/>
    <path id="Path_23033" data-name="Path 23033" d="M376.154,897.057l-11.674-12.321s-1.269,2.482-5.882,2.269-5.32-4.867-5.32-4.867-2.819,1.026-4.118-.88-3.336-12.86,1.756-13.1,4.624,0,4.624,0-1.329-6.3,2.381-6.589a4.863,4.863,0,0,1,4.964,2.538s1.5-2.471,5.616-1.355,2.621,8.207,2.621,8.207,3.07-.154,4.055,2.265c2.49,6.121-3.107,7.248-3.107,7.248l4.83,15.47Z" transform="translate(288.7 -329.527)" fill="#f9f9f9"/>
    <path id="Path_23034" data-name="Path 23034" d="M366.43,905.246a19.043,19.043,0,0,0,2.407,1.149,4.355,4.355,0,0,0,2.415.322,1.827,1.827,0,0,0,.966-.55,11.075,11.075,0,0,0,.79-1.033A23.853,23.853,0,0,1,374.685,903a24.53,24.53,0,0,1-1.183,2.445c-.1.2-.213.4-.329.592a3.124,3.124,0,0,1-.183.3,2.973,2.973,0,0,1-.228.307,2.549,2.549,0,0,1-1.318.8,4.234,4.234,0,0,1-2.823-.52A7.714,7.714,0,0,1,366.43,905.246Z" transform="translate(276.945 -355.463)" fill="#dadada"/>
    <path id="Path_23035" data-name="Path 23035" d="M392.62,923.49c1.086.921,2.115,1.872,3.13,2.879s2,2,3,3.021,1.928,2.07,2.857,3.137,1.85,2.149,2.707,3.283c-1.086-.921-2.115-1.872-3.13-2.879s-2-2-2.976-3.025-1.932-2.07-2.86-3.137S393.481,924.621,392.62,923.49Z" transform="translate(260.561 -368.281)" fill="#dadada"/>
    <path id="Path_23036" data-name="Path 23036" d="M352.979,904.613a3.134,3.134,0,0,1-2.8.479,3.3,3.3,0,0,1-1.284-.82,5.139,5.139,0,0,1-.857-1.22,8.8,8.8,0,0,1-.779-2.763,12.246,12.246,0,0,1-.03-2.819c.213.917.374,1.827.6,2.711a12.507,12.507,0,0,0,.876,2.535,3.819,3.819,0,0,0,1.685,1.835A3.628,3.628,0,0,0,352.979,904.613Z" transform="translate(289 -352.002)" fill="#dadada"/>
  </g>
</svg>
