<svg xmlns="http://www.w3.org/2000/svg" width="491.576" height="301.798" viewBox="0 0 491.576 301.798">
  <g id="Account_2" data-name="Account 2" transform="translate(-79.97 -181.923)">
    <rect id="Rectangle_17662" data-name="Rectangle 17662" width="35.852" height="24.759" rx="3" transform="translate(472.744 446.143)" fill="#fff"/>
    <rect id="Rectangle_17652" data-name="Rectangle 17652" width="14.642" height="14.642" rx="2" transform="matrix(0.921, 0.391, -0.391, 0.921, 517.899, 444.818)" fill="#dadada" opacity="0.4"/>
    <rect id="Rectangle_17645" data-name="Rectangle 17645" width="252.57" height="43.46" rx="3" transform="translate(225.501 182.423)" fill="#dadada" stroke="#919191" stroke-miterlimit="10" stroke-width="1" stroke-dasharray="4 6" opacity="0.3"/>
    <rect id="Rectangle_17646" data-name="Rectangle 17646" width="101.84" height="37.545" rx="3" transform="translate(522.216 279.552) rotate(180)" fill="#e4e4e4"/>
    <rect id="Rectangle_17647" data-name="Rectangle 17647" width="27.717" height="13.771" rx="1" transform="translate(543.329 234.309)" fill="#f9f9f9" stroke="#dadada" stroke-miterlimit="10" stroke-width="1" stroke-dasharray="4 6"/>
    <line id="Line_3178" data-name="Line 3178" x2="30.016" transform="translate(446.588 279.552)" fill="none" stroke="#b5b5b5" stroke-miterlimit="10" stroke-width="2"/>
    <g id="Group_1225" data-name="Group 1225" transform="translate(270.763 199.417)">
      <path id="Rectangle_745" data-name="Rectangle 745" d="M602.347,303.058,835.33,263.891c3.016-.509,5.769.911,6.146,3.17l5.959,35.455c.366,2.262-1.757,4.5-4.759,5.011L609.693,346.694c-3.016.509-5.769-.911-6.15-3.17l-5.956-35.455C597.193,305.81,599.331,303.566,602.347,303.058Z" transform="translate(-597.541 -263.788)" fill="#fff"/>
    </g>
    <path id="Path_24117" data-name="Path 24117" d="M1095.612,407.691l8.785-6.955-5.125-4.026-.366,3.294,1.83,1.237-5.857,6.084Z" transform="translate(-642.07 -148.638)" fill="#919191"/>
    <path id="Path_24118" data-name="Path 24118" d="M1068.639,411.114s4.517,1.508,6.746-.366,2.5-4.872.853-6.223-4.437-.7-6.442,1.036S1068.664,411.077,1068.639,411.114Z" transform="translate(-625.327 -153.133)" fill="#919191"/>
    <path id="Path_24119" data-name="Path 24119" d="M1084.442,426.728c2.174,1.669,4.89,2.266,6.142.985s.366-4-2.042-5.718-5.22-1.768-6.223-.447S1082.267,425.047,1084.442,426.728Z" transform="translate(-633.853 -163.797)" fill="#919191"/>
    <path id="Path_24120" data-name="Path 24120" d="M1102.6,435.424c-.388,2.061,2.584,4.162,6.816,5.125,4.323,1.1,9.327-5.491,9.213-5.593a19.826,19.826,0,0,0-7.573-2.6C1106.668,431.822,1102.993,433.378,1102.6,435.424Z" transform="translate(-646.943 -171.168)" fill="#919191"/>
    <path id="Path_24121" data-name="Path 24121" d="M1069.057,411.26a10.123,10.123,0,0,0,.07,3.514s4.528,1.417,6.691-.531a5.642,5.642,0,0,0,1.464-2.053,5.329,5.329,0,0,1-1.874,3.269c-2.229,1.892-6.761.366-6.746.366A8.515,8.515,0,0,1,1069.057,411.26Z" transform="translate(-625.354 -157.862)" fill="#6c6c6c"/>
    <path id="Path_24122" data-name="Path 24122" d="M1082.22,428.67a8.216,8.216,0,0,0,1.794,1.735c2.229,1.6,4.964,2.134,6.172.831a2.324,2.324,0,0,0,.421-2.2c.9,1.413.992,2.906.168,3.759-1.252,1.281-3.968.685-6.142-.985A6.4,6.4,0,0,1,1082.22,428.67Z" transform="translate(-634.044 -168.899)" fill="#6c6c6c"/>
    <path id="Path_24123" data-name="Path 24123" d="M1102.593,439.034c1.051,1.343,3.43,2.562,6.432,3.155,3.166.666,6.728-2.65,8.192-4.619a14.117,14.117,0,0,1,1.428.772c.114.106-4.887,6.691-9.213,5.593C1105.36,443,1102.469,441.022,1102.593,439.034Z" transform="translate(-646.957 -174.541)" fill="#6c6c6c"/>
    <path id="Path_24124" data-name="Path 24124" d="M1129.86,448.223c.069-.077.143-.154.2-.238l.037-.055c1.289,1.032,3.77,3.294,3.77,3.294s5.8,6.728,5.879,9.451a21.6,21.6,0,0,0-4.026,0l-2.734-9.2S1130.933,449.255,1129.86,448.223Z" transform="translate(-664.245 -181.109)" fill="#6c6c6c"/>
    <path id="Path_24125" data-name="Path 24125" d="M1105.461,451c-.769,1.409-5.04,2.661-5.04,2.661l-.531,8.979,3.221.132-1.57-9.06s3.69-1.1,4.177-2.431Z" transform="translate(-645.246 -183.055)" fill="#6c6c6c"/>
    <path id="Path_24126" data-name="Path 24126" d="M1046.5,415.98l5.78,6.885,7.636-.586.948.681-8.042,1.329-7.35-4.188Z" transform="translate(-610.746 -160.854)" fill="#6c6c6c"/>
    <path id="Path_24127" data-name="Path 24127" d="M1084.57,388.706c.2-.073-1.442-8.543-.4-10.293,1.281-1.775,4.9-3.144,6.1-.611,1.135,2.562-.311,1.523-.5,1.182s.2-1.01.2-1.01a2.09,2.09,0,0,0-2.749-1.131c-2,.677-2.731,1.428-2.98,2.346-.15.9.293,6.2.3,6.534a29.114,29.114,0,0,1,.366,2.892S1084.7,389.072,1084.57,388.706Z" transform="translate(-635.058 -135.769)" fill="#6c6c6c"/>
    <path id="Path_24128" data-name="Path 24128" d="M1071.389,383.738c.249-.256-5-10.176-3.752-11.713,1.515-1.83,3.342-2.123,4-1.234s.856,2.394.146,1.944-.106-.732-.106-.732.472-1.065-1.135-1.014-2.782.637-2.621,2.024a8.482,8.482,0,0,0,.732,2.972c.681,1.5,3.192,7.614,3.1,7.687C1071.744,383.635,1071.88,383.965,1071.389,383.738Z" transform="translate(-624.677 -131.899)" fill="#6c6c6c"/>
    <text id="https:_website.com" data-name="https://website.com" transform="translate(294.085 264.948) rotate(-9.744)" fill="#919191" font-size="19" font-family="Montserrat-Black, Montserrat" font-weight="800" letter-spacing="-0.01em" opacity="0.3"><tspan x="0" y="0">https://website.com</tspan></text>
    <path id="Path_24131" data-name="Path 24131" d="M1250.064,574.777c5.579,0,10.981,0-3.854.022a3.259,3.259,0,0,1-3.434-3.4c.084-7.87.059-15.74,0-23.61a3.247,3.247,0,0,1,3.379-3.368c29.649.048,18.668.04,48.34,0a3.274,3.274,0,0,1,3.474,3.437c-.088,7.844-.062,15.689,0,23.529a3.254,3.254,0,0,1-3.419,3.408C1279.721,574.748,1264.892,574.777,1250.064,574.777Z" transform="translate(-735.828 -242.281)" fill="#fefefe"/>
    <path id="Path_24132" data-name="Path 24132" d="M1264.61,577.547h-8.137a2.949,2.949,0,0,1-3.239-3.217c0-5.4.033-10.791,0-16.186a3.218,3.218,0,0,1,3.375-3.371c5.348.1,10.7.07,16.04,0a3.217,3.217,0,0,1,3.39,3.357c-.092,5.366-.062,10.74,0,16.106a3.188,3.188,0,0,1-3.335,3.327C1269.983,577.463,1267.3,577.547,1264.61,577.547Z" transform="translate(-742.456 -248.839)" fill="#f0f0f0"/>
    <path id="Path_24133" data-name="Path 24133" d="M1268.034,581.148h-1.226v1.581h-3.016v-1.581H1259v-1.962l3.913-5.666h3.188l-3.478,5.234h1.252v-1.413h2.928v1.413h1.226Z" transform="translate(-746.115 -260.727)" fill="#dadada"/>
    <path id="Path_24134" data-name="Path 24134" d="M1293.7,581.148h-1.212v1.581h-3.016v-1.581h-4.784v-1.962l3.913-5.666h3.192l-3.481,5.234h1.248v-1.413h2.928v1.413h1.226Z" transform="translate(-762.401 -260.727)" fill="#dadada"/>
    <path id="Path_24135" data-name="Path 24135" d="M1337.658,581.1h-3.507l-.619,1.607h-3.163l4.026-9.224h3.056l4.026,9.224h-3.192Zm-.857-2.24-.9-2.317-.9,2.317Z" transform="translate(-791.36 -260.702)" fill="#dadada"/>
    <path id="Path_24136" data-name="Path 24136" d="M1363.354,573.48V582.7h-3.093v-6.878h-1.581V573.48Z" transform="translate(-809.308 -260.702)" fill="#dadada"/>
    <rect id="Rectangle_17650" data-name="Rectangle 17650" width="14.642" height="14.642" rx="2" transform="translate(505.755 456.257)" fill="#dadada"/>
    <rect id="Rectangle_17651" data-name="Rectangle 17651" width="14.642" height="14.642" rx="2" transform="translate(524.057 456.257)" fill="#dadada"/>
    <g id="Group_38092" data-name="Group 38092" transform="translate(76.696 -7.75)">
      <text id="Password" transform="matrix(0.682, 0.731, -0.731, 0.682, 397.811, 361.617)" fill="#f8f8f8" font-size="19" font-family="Montserrat-Black, Montserrat" font-weight="800" letter-spacing="-0.01em"><tspan x="0" y="0">Password</tspan></text>
      <path id="Path_24148" data-name="Path 24148" d="M444.407,483.39a2.98,2.98,0,1,1,1.458,2.667,2.98,2.98,0,0,1-1.458-2.667Z" transform="translate(454.148 -285.314) rotate(48)" fill="#dadada"/>
      <path id="Path_24190" data-name="Path 24190" d="M444.407,483.39a2.98,2.98,0,1,1,1.458,2.667,2.98,2.98,0,0,1-1.458-2.667Z" transform="translate(471.148 -267.314) rotate(48)" fill="#dadada"/>
      <path id="Path_24193" data-name="Path 24193" d="M444.407,483.39a2.98,2.98,0,1,1,1.458,2.667,2.98,2.98,0,0,1-1.458-2.667Z" transform="translate(488.064 -249.314) rotate(48)" fill="#dadada"/>
      <path id="Path_24149" data-name="Path 24149" d="M466.38,483.216a2.976,2.976,0,1,1,2.976,2.976A2.976,2.976,0,0,1,466.38,483.216Z" transform="translate(444.697 -295.553) rotate(48)" fill="#dadada"/>
      <path id="Path_24189" data-name="Path 24189" d="M466.38,483.216a2.976,2.976,0,1,1,2.976,2.976A2.976,2.976,0,0,1,466.38,483.216Z" transform="translate(461.697 -277.553) rotate(48)" fill="#dadada"/>
      <path id="Path_24192" data-name="Path 24192" d="M466.38,483.216a2.976,2.976,0,1,1,2.976,2.976A2.976,2.976,0,0,1,466.38,483.216Z" transform="translate(478.611 -259.553) rotate(48)" fill="#dadada"/>
      <path id="Path_24150" data-name="Path 24150" d="M488.35,483.216a2.976,2.976,0,1,1,2.976,2.976A2.976,2.976,0,0,1,488.35,483.216Z" transform="translate(435.377 -305.902) rotate(48)" fill="#dadada"/>
      <path id="Path_24188" data-name="Path 24188" d="M488.35,483.216a2.976,2.976,0,1,1,2.976,2.976A2.976,2.976,0,0,1,488.35,483.216Z" transform="translate(452.377 -287.902) rotate(48)" fill="#dadada"/>
      <path id="Path_24191" data-name="Path 24191" d="M488.35,483.216a2.976,2.976,0,1,1,2.976,2.976A2.976,2.976,0,0,1,488.35,483.216Z" transform="translate(469.293 -269.902) rotate(48)" fill="#dadada"/>
    </g>
    <rect id="Rectangle_17653" data-name="Rectangle 17653" width="14.642" height="14.642" rx="2" transform="matrix(0.891, 0.454, -0.454, 0.891, 541.129, 451.675)" fill="#b5b5b5"/>
    <rect id="Rectangle_17654" data-name="Rectangle 17654" width="161.103" height="50.338" rx="3" transform="translate(305.409 471.37) rotate(180)" fill="#e4e4e4"/>
    <rect id="Rectangle_17655" data-name="Rectangle 17655" width="86.697" height="61.466" rx="3" transform="translate(159.925 359.284)" fill="#f2f2f2"/>
    <line id="Line_3181" data-name="Line 3181" x2="202.513" transform="translate(106.223 471.359)" fill="none" stroke="#dadada" stroke-miterlimit="10" stroke-width="2"/>
    <rect id="Rectangle_17656" data-name="Rectangle 17656" width="211.518" height="100.816" rx="3" transform="translate(172.864 381.905)" fill="#f8f8f8"/>
    <line id="Line_3182" data-name="Line 3182" x1="209.981" transform="translate(174.156 482.721)" fill="none" stroke="#b5b5b5" stroke-miterlimit="10" stroke-width="2"/>
    <path id="Path_24153" data-name="Path 24153" d="M383.474,673l-9.074,3.294-7.321,9.151c-.447,1.16,1.171,2.2,2.716,1.706l.106-1.292,6.058-9.437,7.515-2.493Z" transform="translate(-180.628 -323.794)" fill="#6c6c6c"/>
    <ellipse id="Ellipse_4371" data-name="Ellipse 4371" cx="2.676" cy="5.066" rx="2.676" ry="5.066" transform="translate(200.167 346.717)" fill="#919191"/>
    <path id="Path_24154" data-name="Path 24154" d="M395.688,692.79c1.64,1.138,1.124,4.726-1.16,8.005s-9.118,2.277-9.118,2.277a24.26,24.26,0,0,1,3.177-6.406C390.868,693.376,394.045,691.648,395.688,692.79Z" transform="translate(-192.296 -336.117)" fill="#919191"/>
    <path id="Path_24155" data-name="Path 24155" d="M408.922,649.017a10.8,10.8,0,0,0,3.832-.663s.2-4.308-2.16-6a7.142,7.142,0,0,0-2.3-1.1,6.614,6.614,0,0,1,3.587,1.3c2.357,1.684,2.16,6,2.16,6A9.546,9.546,0,0,1,408.922,649.017Z" transform="translate(-206.807 -303.672)" fill="#355585"/>
    <path id="Path_24156" data-name="Path 24156" d="M409.623,669.13a8.715,8.715,0,0,1,.366,2.562c0,2.8-1.2,5.062-2.676,5.062a2.076,2.076,0,0,1-1.644-1.069c.465,1.5,1.325,2.518,2.313,2.518,1.464,0,2.676-2.269,2.676-5.066A7.321,7.321,0,0,0,409.623,669.13Z" transform="translate(-205.14 -321.34)" fill="#6c6c6c"/>
    <path id="Path_24157" data-name="Path 24157" d="M395.9,693.8c.278,1.655-.45,4.107-2.053,6.413-1.687,2.423-5.857,2.507-7.925,2.387-.326.824-.472,1.336-.472,1.336s6.838,1.007,9.118-2.277C396.75,698.5,397.306,695.074,395.9,693.8Z" transform="translate(-192.322 -336.98)" fill="#6c6c6c"/>
    <path id="Path_24158" data-name="Path 24158" d="M365.769,713.573a3.164,3.164,0,0,1-.322-.033l-3.767,6.977-16.75,10.516h4.513l13.518-10.052Z" transform="translate(-166.634 -349.494)" fill="#6c6c6c"/>
    <path id="Path_24159" data-name="Path 24159" d="M414.612,727.879l5-17.566L412.09,709v-.362L421,709.983l-3.514,17.9Z" transform="translate(-209.21 -346.388)" fill="#6c6c6c"/>
    <ellipse id="Ellipse_4372" data-name="Ellipse 4372" cx="5.758" cy="6.75" rx="5.758" ry="6.75" transform="translate(195.399 335.048) rotate(-12.46)" fill="#f9f9f9"/>
    <path id="Path_24160" data-name="Path 24160" d="M407.172,619.819a43.663,43.663,0,0,0,.867-5.692c-.091-.857-.531-1.464-1.867-1.655s-1.9,1.592-1.9,1.592a1.263,1.263,0,0,1,.091.853c-.154.34-1.157,1.519-.289-.941s3.346-2.167,4.07-.619c.406.867-.187,3.964-.791,6.523A.677.677,0,0,0,407.172,619.819Z" transform="translate(-203.908 -285.225)" fill="#6c6c6c"/>
    <path id="Path_24161" data-name="Path 24161" d="M386.572,616.619a2.624,2.624,0,0,1,4.539-1.8c.846.853,1.263,4.733,1.464,7.687a.549.549,0,0,0-.22-.022,48.181,48.181,0,0,0-1.1-6.838c-.414-.871-1.146-1.384-2.775-1.208s-1.654,2.2-1.654,2.2.469.472.414.871S386.436,619.452,386.572,616.619Z" transform="translate(-193.022 -286.403)" fill="#6c6c6c"/>
    <path id="Path_24162" data-name="Path 24162" d="M410,630.59c2.727,0,5.282,2.251,5.992,5.461.805,3.66-1.062,7.149-4.169,7.833a5,5,0,0,1-.692.1Z" transform="translate(-207.885 -296.907)"/>
    <path id="Path_24163" data-name="Path 24163" d="M397.975,644.4c1.464-.128,2.969-.366,4.455-.447a29.708,29.708,0,0,0,3.957-.165c.066.2.124.417.172.63a7.929,7.929,0,0,1,.183,1.9c-1.043.135-2.1.146-3.148.249-1.4.135-2.793.231-4.2.289-1.347.059-2.7.077-4.045.212a.677.677,0,0,0-.04-.165,7.779,7.779,0,0,1-.161-2.291C396.086,644.507,397.034,644.482,397.975,644.4Z" transform="translate(-198.455 -305.276)"/>
    <path id="Path_24164" data-name="Path 24164" d="M407.867,673.27l4.092,6.911,13.368,1.314.059,1.515-14-2.083-4.158-7.152Z" transform="translate(-206.129 -323.965)" fill="#6c6c6c"/>
    <path id="Path_24165" data-name="Path 24165" d="M453.189,699.793a1.677,1.677,0,0,1-1.856-.223c-1.054-.911-2.324-2.529.15-3.682,2.3-1.065,3.093.417,3.368,1.647a1.68,1.68,0,0,1-.879,1.859Z" transform="translate(-233.277 -338.071)" fill="#6c6c6c"/>
    <rect id="Rectangle_17657" data-name="Rectangle 17657" width="9.89" height="1.629" rx="0.814" transform="translate(223.028 357.929) rotate(153.68)" fill="#ffac43"/>
    <ellipse id="Ellipse_4373" data-name="Ellipse 4373" cx="0.93" cy="4.129" rx="0.93" ry="4.129" transform="translate(219.238 354.317) rotate(-26.32)" fill="#ffac43"/>
    <path id="Path_24166" data-name="Path 24166" d="M454.284,697.45a1.3,1.3,0,0,1-1.464-.264c-.871-.816-1.944-2.244-.029-3.122,1.775-.816,2.467.476,2.734,1.534a1.329,1.329,0,0,1-.622,1.545Z" transform="translate(-234.335 -336.984)" fill="#6c6c6c"/>
    <path id="Path_24167" data-name="Path 24167" d="M454.264,698.416a1.9,1.9,0,0,1-.663,1.054c-.505.271-1.2.366-.549-1.629.6-1.863,1.116-1.735,1.409-1.395a1.651,1.651,0,0,1,0,1.318Z" transform="translate(-235.011 -338.529)" fill="#6c6c6c"/>
    <path id="Path_24168" data-name="Path 24168" d="M547.041,578.4c-7.024,3.778-14.074,7.5-21.113,11.252l-21.165,11.168-10.564,5.6q-5.282,2.8-10.656,5.432l-5.388,2.6c-1.808.842-3.606,1.706-5.421,2.529-3.627,1.669-5.27,2.294-8.981,3.817l-.1-.2c3.422-2.1,4.878-3.085,8.377-5.032,1.735-.985,3.492-1.929,5.238-2.892l5.267-2.829q5.289-2.8,10.666-5.414l10.758-5.234,21.472-10.546c7.174-3.481,14.334-6.991,21.523-10.447Z" transform="translate(-241.897 -263.06)"/>
    <line id="Line_3183" data-name="Line 3183" x1="30.62" transform="translate(178.296 381.495)" fill="none" stroke="#b5b5b5" stroke-miterlimit="10" stroke-width="2.49"/>
    <path id="Path_24169" data-name="Path 24169" d="M644.34,621.224c.809-.051,1.614-.07,2.42-.077h2.412l-.428.366c.055-.673.11-1.343.187-2.013s.135-1.343.223-2.01.161-1.34.256-2.006l.289-2,.077-.513.494.059,2.017.242,2.013.278c.674.106,1.343.205,2.013.329s1.336.249,2,.4c-.681.029-1.362.044-2.043.037s-1.358,0-2.035-.029L652.2,614.2l-2.028-.121.567-.454-.249,2.006c-.084.666-.19,1.332-.282,2s-.2,1.332-.315,2-.227,1.329-.366,1.995l-.073.388-.366-.04c-.4-.044-.794-.1-1.193-.154s-.8-.106-1.193-.172C645.929,621.521,645.134,621.4,644.34,621.224Z" transform="translate(-368.447 -279.737)" fill="#ffac43"/>
    <path id="Path_24170" data-name="Path 24170" d="M674.39,552.268c-.846-.732-1.651-1.464-2.453-2.229s-1.581-1.534-2.361-2.31l.7-.037c-.571.8-1.135,1.611-1.72,2.4s-1.16,1.589-1.764,2.365l-.578.732-.366-.853c-.348-.846-.732-1.684-1.047-2.537s-.681-1.7-1-2.562-.637-1.72-.941-2.584-.593-1.739-.853-2.625c.465.8.893,1.611,1.321,2.423s.835,1.633,1.226,2.46.791,1.651,1.171,2.485.732,1.669,1.12,2.507l-.933-.113c.578-.794,1.193-1.567,1.786-2.35s1.219-1.545,1.83-2.313l.366-.447.366.41c.71.838,1.424,1.68,2.116,2.537S673.742,551.364,674.39,552.268Z" transform="translate(-374.649 -237.764)" fill="#ffac43"/>
    <path id="Path_24171" data-name="Path 24171" d="M738.508,671.762s-1.124-4.166.813-6.318,4.715-2.822,6.2-1.486,1.12,4.166-.816,6.322S738.508,671.762,738.508,671.762Z" transform="translate(-415.94 -317.625)" fill="#5673a8"/>
    <ellipse id="Ellipse_4375" data-name="Ellipse 4375" cx="2.676" cy="5.066" rx="2.676" ry="5.066" transform="translate(324.549 353.467)" fill="#5673a8"/>
    <path id="Path_24172" data-name="Path 24172" d="M747.338,710.273c-1.644,1.142-1.124,4.726,1.157,8.005s9.129,2.288,9.129,2.288a24.266,24.266,0,0,0-3.181-6.406C752.162,710.869,748.985,709.131,747.338,710.273Z" transform="translate(-421.134 -347.2)" fill="#5673a8"/>
    <path id="Path_24173" data-name="Path 24173" d="M743.6,671.349a10.768,10.768,0,0,1-3.884.183s-1.124-4.166.813-6.322a7.187,7.187,0,0,1,2.006-1.57,6.589,6.589,0,0,0-3.225,2.039c-1.936,2.152-.813,6.318-.813,6.318A9.518,9.518,0,0,0,743.6,671.349Z" transform="translate(-415.933 -317.86)" fill="#355585"/>
    <path id="Path_24174" data-name="Path 24174" d="M745.508,687.56a8.738,8.738,0,0,0-.366,2.562c0,2.8,1.2,5.066,2.676,5.066a2.074,2.074,0,0,0,1.64-1.069c-.461,1.5-1.321,2.515-2.31,2.515-1.464,0-2.676-2.266-2.676-5.062a7.321,7.321,0,0,1,1.036-4.012Z" transform="translate(-419.924 -333.024)" fill="#355585"/>
    <path id="Path_24175" data-name="Path 24175" d="M747.188,711.28c-.275,1.654.454,4.107,2.057,6.413,1.684,2.427,5.857,2.507,7.925,2.387.322.824.472,1.336.472,1.336s-6.841,1.007-9.122-2.277C746.328,715.984,745.767,712.554,747.188,711.28Z" transform="translate(-421.153 -348.061)" fill="#355585"/>
    <path id="Path_24176" data-name="Path 24176" d="M760.65,731.053a3.143,3.143,0,0,0,.322-.033L764.739,738l18.028,4.118h-4.513l-14.8-3.66Z" transform="translate(-430.182 -360.576)" fill="#355585"/>
    <path id="Path_24177" data-name="Path 24177" d="M756.83,688.306l6.285-2.533,11.713,13.91a4.356,4.356,0,0,0-.04-2.6L763.734,683.91l-6.9,3.207Z" transform="translate(-427.76 -330.71)" fill="#355585"/>
    <path id="Path_24178" data-name="Path 24178" d="M733.751,738.961,727.47,727.8l7.522-1.314v-.362l-8.9,1.343,4.792,11.5Z" transform="translate(-408.273 -357.469)" fill="#355585"/>
    <path id="Path_24179" data-name="Path 24179" d="M697.748,681.056l9.019,3.016.183-.553-9.272-3.108-12.453-4.272-.776.659Z" transform="translate(-381.875 -325.784)" fill="#355585"/>
    <line id="Line_3184" data-name="Line 3184" x1="30.62" transform="translate(320.943 381.495)" fill="none" stroke="#b5b5b5" stroke-miterlimit="10" stroke-width="2.49"/>
    <ellipse id="Ellipse_4376" data-name="Ellipse 4376" cx="5.758" cy="6.75" rx="5.758" ry="6.75" transform="translate(320.497 341.977)" fill="#f9f9f9"/>
    <path id="Path_24180" data-name="Path 24180" d="M739.52,643.329a43.544,43.544,0,0,1-2.075-5.37c-.1-.857.2-1.541,1.464-2.017s2.2,1.142,2.2,1.142a1.263,1.263,0,0,0,.1.853c.223.3,1.464,1.234.077-.981s-3.73-1.395-4.107.275c-.209.937,1.04,3.829,2.2,6.2A.685.685,0,0,1,739.52,643.329Z" transform="translate(-415.282 -300.089)" fill="#355585"/>
    <path id="Path_24181" data-name="Path 24181" d="M758.083,635.743a2.628,2.628,0,0,0-4.824-.78c-.641,1.018-.209,4.894.234,7.83a.609.609,0,0,1,.209-.07,48.077,48.077,0,0,1-.406-6.911c.212-.941.816-1.6,2.449-1.779s2.09,1.8,2.09,1.8-.366.564-.216.941S758.815,638.478,758.083,635.743Z" transform="translate(-425.29 -298.872)" fill="#355585"/>
    <path id="Path_24182" data-name="Path 24182" d="M738.081,653.59c-2.661.6-4.671,3.335-4.671,6.625,0,3.73,2.562,6.75,5.758,6.75a4.908,4.908,0,0,0,.7-.051Z" transform="translate(-412.913 -311.488)"/>
    <path id="Path_24183" data-name="Path 24183" d="M741.785,665.889c-1.464.194-2.98.275-4.444.527a29.928,29.928,0,0,1-3.9.692c0,.216-.029.432-.029.651a7.867,7.867,0,0,0,.231,1.9c1.047-.1,2.079-.311,3.126-.439,1.395-.168,2.778-.366,4.162-.622,1.329-.234,2.654-.505,3.994-.666v-.172a7.664,7.664,0,0,0-.337-2.269C743.652,665.585,742.722,665.765,741.785,665.889Z" transform="translate(-412.913 -319.033)"/>
    <path id="Path_24184" data-name="Path 24184" d="M687.291,672.088a1.673,1.673,0,0,1,.637,1.753c-.337,1.354-1.208,3.221-3.349,1.53-1.988-1.567-1.025-2.928-.051-3.748a1.677,1.677,0,0,1,2.053-.055Z" transform="translate(-381.22 -322.68)" fill="#355585"/>
    <path id="Path_24185" data-name="Path 24185" d="M687,677.323a1.885,1.885,0,0,1,1.237.114c.469.329.882.9-1.2,1.223-1.936.3-2.054-.209-1.881-.626a1.646,1.646,0,0,1,1.175-.6Z" transform="translate(-382.284 -326.499)" fill="#355585"/>
    <path id="Path_24186" data-name="Path 24186" d="M618.9,513.5c.1,2.262.143,4.521.161,6.783v3.386c0,1.127-.018,2.258-.029,3.39l-.732-.476c1.329-.637,2.672-1.241,4.026-1.863s2.687-1.212,4.026-1.83l.63-.286.113.681c.245,1.464.447,2.928.674,4.393.113.732.209,1.464.311,2.2s.209,1.464.3,2.2l-.194-.256c1.018.523,2.039,1.051,3.049,1.592s2.021,1.1,3.024,1.651q-1.607-.619-3.2-1.278c-1.062-.436-2.116-.886-3.174-1.336l-.154-.066-.04-.19c-.154-.732-.289-1.464-.432-2.2s-.289-1.464-.421-2.2c-.264-1.464-.549-2.928-.791-4.393l.732.4c-1.34.615-2.672,1.245-4.026,1.83s-2.687,1.215-4.026,1.8l-.75.322.037-.8c.051-1.127.088-2.255.154-3.382s.113-2.258.19-3.386C618.514,518.006,618.679,515.751,618.9,513.5Z" transform="translate(-346.736 -219.677)" fill="#ffac43"/>
    <g id="Group_38091" data-name="Group 38091" transform="matrix(0.985, -0.174, 0.174, 0.985, -38.28, 38.434)">
      <path id="Path_24137" data-name="Path 24137" d="M89.374,337.967c5.578,0,10.981,0-3.854.022a3.259,3.259,0,0,1-3.433-3.4c.084-7.87.059-15.74,0-23.61a3.243,3.243,0,0,1,3.379-3.368c29.649.048,80.163.04,109.835,0a3.274,3.274,0,0,1,3.474,3.437c-.088,7.841-.062,15.685,0,23.529a3.254,3.254,0,0,1-3.419,3.408C180.518,337.938,104.209,337.967,89.374,337.967Z" transform="translate(0 -92.152)" fill="#dadada"/>
      <path id="Path_24138" data-name="Path 24138" d="M103.9,340.737H95.765a2.951,2.951,0,0,1-3.239-3.218c0-5.4.033-10.791-.022-16.186a3.221,3.221,0,0,1,3.379-3.371c5.344.1,10.692.07,16.04,0a3.218,3.218,0,0,1,3.39,3.357c-.1,5.366-.062,10.736,0,16.106a3.179,3.179,0,0,1-3.338,3.327C109.279,340.667,106.593,340.737,103.9,340.737Z" transform="translate(-6.416 -98.707)" fill="#fff" opacity="0.3"/>
      <path id="Path_24140" data-name="Path 24140" d="M174.969,344.287h-3.518l-.619,1.607H167.67l4.026-9.224h3.056l4.026,9.224h-3.192Zm-.857-2.24-.9-2.328-.893,2.317Z" transform="translate(-54.258 -110.574)" fill="#f7f7f7"/>
      <path id="Path_24141" data-name="Path 24141" d="M198.09,340.921a4.8,4.8,0,0,1,5.125-4.821,5.01,5.01,0,0,1,4.136,1.83l-1.962,1.753a2.489,2.489,0,0,0-2.017-1.1,2.311,2.311,0,0,0,0,4.612,2.5,2.5,0,0,0,2.017-1.08l1.962,1.753a4.97,4.97,0,0,1-4.136,1.83A4.744,4.744,0,0,1,198.09,340.921Z" transform="translate(-73.543 -110.213)" fill="#f7f7f7"/>
      <path id="Path_24142" data-name="Path 24142" d="M224.33,340.921a4.8,4.8,0,0,1,5.125-4.821,5.023,5.023,0,0,1,4.14,1.83l-1.966,1.753a2.485,2.485,0,0,0-2.017-1.1,2.311,2.311,0,0,0,0,4.612,2.489,2.489,0,0,0,2.017-1.08l1.966,1.753a4.982,4.982,0,0,1-4.14,1.83A4.75,4.75,0,0,1,224.33,340.921Z" transform="translate(-90.178 -110.213)" fill="#f7f7f7"/>
      <path id="Path_24143" data-name="Path 24143" d="M250.58,340.921c0-2.793,2.2-4.821,5.205-4.821s5.2,2.028,5.2,4.821a5.216,5.216,0,0,1-10.4,0Zm7.273,0a2.082,2.082,0,1,0-2.068,2.306A2.1,2.1,0,0,0,257.853,340.921Z" transform="translate(-106.82 -110.213)" fill="#f7f7f7"/>
      <path id="Path_24144" data-name="Path 24144" d="M281.9,341.743V336.67h3.108v4.982c0,1.409.542,1.936,1.409,1.936s1.413-.527,1.413-1.936V336.67h3.056v5.073c0,2.767-1.662,4.363-4.5,4.363S281.9,344.511,281.9,341.743Z" transform="translate(-126.676 -110.574)" fill="#f7f7f7"/>
      <path id="Path_24145" data-name="Path 24145" d="M319.416,336.67v9.224h-2.562l-3.5-4.188v4.188H310.32V336.67h2.562l3.5,4.191V336.67Z" transform="translate(-144.693 -110.574)" fill="#f7f7f7"/>
      <path id="Path_24146" data-name="Path 24146" d="M340.071,339.082h-2.7V336.67h8.514v2.412h-2.7v6.812h-3.111Z" transform="translate(-161.842 -110.574)" fill="#f7f7f7"/>
      <path id="Path_24147" data-name="Path 24147" d="M361.24,344.8l1-2.269a6.292,6.292,0,0,0,3.042.846c.882,0,1.2-.187,1.2-.5,0-1.16-5.1-.223-5.1-3.66,0-1.713,1.435-3.108,4.294-3.108a7.321,7.321,0,0,1,3.477.8l-.933,2.255a5.7,5.7,0,0,0-2.562-.685c-.908,0-1.2.264-1.2.578,0,1.1,5.1.187,5.1,3.584,0,1.687-1.435,3.111-4.294,3.111A8.339,8.339,0,0,1,361.24,344.8Z" transform="translate(-176.973 -110.217)" fill="#f7f7f7"/>
      <path id="Path_24187" data-name="Path 24187" d="M5.882-7.706a3.686,3.686,0,0,1,1.7.4A3.191,3.191,0,0,1,8.833-6.181,3,3,0,0,1,9.3-4.512a3.228,3.228,0,0,1-.535,1.839A3.461,3.461,0,0,1,7.308-1.447a4.841,4.841,0,0,1-2.053.428,5.411,5.411,0,0,1-2.517-.556A3.932,3.932,0,0,1,1.063-3.229a5.564,5.564,0,0,1-.6-2.695A6.051,6.051,0,0,1,1.156-8.89,4.638,4.638,0,0,1,3.095-10.8,6.147,6.147,0,0,1,6-11.456a6.916,6.916,0,0,1,1.711.207,4.607,4.607,0,0,1,1.383.577L7.878-8.319a3.042,3.042,0,0,0-1.811-.528,2.276,2.276,0,0,0-1.433.435A2.05,2.05,0,0,0,3.9-7.15,3.343,3.343,0,0,1,5.882-7.706ZM5.026-3.343a1.032,1.032,0,0,0,.741-.271.974.974,0,0,0,.285-.741A1,1,0,0,0,5.768-5.1a1.017,1.017,0,0,0-.741-.278,1.017,1.017,0,0,0-.741.278A1,1,0,0,0,4-4.356a.974.974,0,0,0,.285.741A1.032,1.032,0,0,0,5.026-3.343Z" transform="translate(92.619 236.904)" fill="#f7f7f7"/>
    </g>
    <g id="Password_Icon" data-name="Password Icon" transform="translate(400.491 292.426) rotate(43)" opacity="0.6">
      <path id="Path_8083" data-name="Path 8083" d="M749.847,532.212a12.054,12.054,0,0,0-13.6,10.5,12.388,12.388,0,0,0,10.1,14.143,12.054,12.054,0,0,0,13.6-10.5c.015-.109.03-.217.043-.326h0a12.2,12.2,0,0,0-10.11-13.815Zm1.7,12.763a3.365,3.365,0,0,1-2.93-3.713,3.3,3.3,0,0,1,3.571-3.046,3.366,3.366,0,0,1,2.93,3.713l-.009.07a3.247,3.247,0,0,1-3.534,2.974l-.028,0Z" transform="translate(-721.14 -532.076)" fill="#fff"/>
      <path id="Subtraction_30" data-name="Subtraction 30" d="M730.629,556.871l-.026,0a1.783,1.783,0,0,1-1.4-1.975l.182-1.48a1.443,1.443,0,0,1,.517-.961l.9-.754,10.4-8.69,4.256-3.541a13.214,13.214,0,0,0,.729,2.073L732.67,552.827a.574.574,0,0,0-.195.373.548.548,0,0,0,.106.387.46.46,0,0,0,.318.207.474.474,0,0,0,.394-.119l13.384-11.167a12.421,12.421,0,0,0,3.789,4.216l-4.036,3.366-.009-.015a1.18,1.18,0,0,1-.863.226l-2.8-.443-.284,3-.017.107a1.24,1.24,0,0,1-1.391,1.082l-2.8-.443-.281,3-.013.074a1.265,1.265,0,0,1-1.418,1.112h0l-1.428-.226-4.458-.7-.015,0Z" transform="translate(-729.195 -523.723)" fill="#fff"/>
    </g>
    <rect id="Rectangle_17658" data-name="Rectangle 17658" width="13.923" height="13.923" rx="3" transform="translate(425.406 457.281)" fill="#ffd300"/>
    <rect id="Rectangle_17659" data-name="Rectangle 17659" width="13.923" height="13.923" rx="3" transform="translate(442.811 457.281)" fill="#ff5c50"/>
    <line id="Line_3185" data-name="Line 3185" x1="31.327" transform="translate(425.406 471.203)" fill="none" stroke="#b5b5b5" stroke-miterlimit="10" stroke-width="2"/>
    <path id="Path_24194" data-name="Path 24194" d="M521.179,1132.5s3.265.821,4.918-.717,2.141-3.711,1.079-4.873-3.265-.818-4.918.72S521.179,1132.5,521.179,1132.5Z" transform="translate(-56.393 -698.486)" fill="#909090"/>
    <ellipse id="Ellipse_4377" data-name="Ellipse 4377" cx="2.256" cy="3.945" rx="2.256" ry="3.945" transform="matrix(0.541, -0.841, 0.841, 0.541, 467.404, 436.889)" fill="#909090"/>
    <path id="Path_24195" data-name="Path 24195" d="M552.238,1146.766c.066,1.559,2.642,2.715,5.757,2.583s5.3-5.061,5.3-5.061a18.985,18.985,0,0,0-5.552-.581C554.643,1143.839,552.171,1145.21,552.238,1146.766Z" transform="translate(-76.701 -709.873)" fill="#909090"/>
    <path id="Path_24196" data-name="Path 24196" d="M521.615,1132.81a8.423,8.423,0,0,0-.09,3.032s3.265.821,4.918-.717a5.627,5.627,0,0,0,1.2-1.584,5.162,5.162,0,0,1-1.549,2.541c-1.653,1.538-4.918.717-4.918.717A7.429,7.429,0,0,1,521.615,1132.81Z" transform="translate(-56.389 -702.779)" fill="#6c6c6c"/>
    <path id="Path_24197" data-name="Path 24197" d="M535,1143.844a6.306,6.306,0,0,0,1.514,1.323c1.841,1.169,3.878,1.263,4.546.209a1.768,1.768,0,0,0,.035-1.615,2.444,2.444,0,0,1,.616,2.7c-.668,1.044-2.7.957-4.546-.209A5.384,5.384,0,0,1,535,1143.844Z" transform="translate(-65.465 -709.918)" fill="#6c6c6c"/>
    <path id="Path_24198" data-name="Path 24198" d="M552.31,1147.569a7.527,7.527,0,0,0,5.082,1.323c2.3-.1,4.1-2.812,4.873-4.222.675.129,1.079.244,1.079.244s-2.2,4.929-5.312,5.061C555.049,1150.114,552.55,1149.049,552.31,1147.569Z" transform="translate(-76.748 -710.512)" fill="#6c6c6c"/>
    <path id="Path_24199" data-name="Path 24199" d="M514.77,1147.912l-2.548,3.637-9.088,5.837-1.594-.09,9.833-6.485,2.666-3.181Z" transform="translate(-43.65 -712.441)" fill="#6c6c6c"/>
    <path id="Path_24200" data-name="Path 24200" d="M535.11,1114.6s.042-6.982,1.486-8.208,4.595-1.392,4.79.578-.623,1.023-.7.748.414-.7.414-.7a1.457,1.457,0,0,0-1.772-1.312c-1.713.125-2.468.6-2.882,1.284a26.762,26.762,0,0,0-1.02,5.221c.024.271-.052,2.311-.052,2.311S535.18,1114.867,535.11,1114.6Z" transform="translate(-65.537 -684.959)" fill="#6c6c6c"/>
    <path id="Path_24201" data-name="Path 24201" d="M527.289,1107.806s-2.207-9.05-.487-10.338,3.223-1.079,3.425-.254-.084,2.054-.491,1.57.143-.616.143-.616.7-.748-.543-1.044-2.329,0-2.607,1.215a6.788,6.788,0,0,0-.223,2.67c.059,1.438,1.044,6.714,1.044,6.714S527.631,1108.015,527.289,1107.806Z" transform="translate(-59.693 -679.141)" fill="#6c6c6c"/>
    <path id="Path_24202" data-name="Path 24202" d="M528.188,1149.158l-.668-5.218-.271.8.23,3.874-7.968,7.209.167,1.25Z" transform="translate(-55.365 -710.035)" fill="#6c6c6c"/>
    <path id="Path_24203" data-name="Path 24203" d="M567.5,1167.554c-.313.181-2.565-.181-2.882,0l-3.39-6.614-.668-2.76,1.11.261.839,2.812Z" transform="translate(-82.127 -719.32)" fill="#6c6c6c"/>
    <path id="Path_24204" data-name="Path 24204" d="M577.388,1157.283l1.392-10.442s-11.448.724-11.514.745c0,0-.453-.519-.466-.515l14.069-1.97-.348,12.416Z" transform="translate(-86.195 -710.793)" fill="#6c6c6c"/>
    <rect id="Rectangle_17660" data-name="Rectangle 17660" width="13.923" height="13.923" rx="3" transform="translate(433.064 443.357)" fill="#50a7ff"/>
    <rect id="Rectangle_17661" data-name="Rectangle 17661" width="13.923" height="13.923" rx="3" transform="translate(451.143 441.443) rotate(-24.96)" fill="#cf3991"/>
    <path id="Path_24205" data-name="Path 24205" d="M528.188,1149.158l-.668-5.218-.271.8.23,3.874-7.968,7.209.167,1.25Z" transform="translate(-55.365 -710.035)" fill="#6c6c6c"/>
    <line id="Line_3186" data-name="Line 3186" x1="128.875" transform="translate(424.709 471.25)" fill="none" stroke="#b5b5b5" stroke-miterlimit="10" stroke-width="2"/>
  </g>
</svg>
