<svg xmlns="http://www.w3.org/2000/svg" width="370.286" height="464.555" viewBox="0 0 370.286 464.555">
  <g id="Artboard_55" data-name="Artboard 55" transform="translate(-600.12 -308.422)">
    <g id="Layer_26" data-name="Layer 26" transform="translate(600.62 265.2)">
      <path id="Path_21975" data-name="Path 21975" d="M945.285,568.64l5.116,27.521,9.069,22.394.41,3.324-12.854-23.6-9.776-25.257Z" transform="translate(-764.859 -413.246)" fill="#355585"/>
      <path id="Path_21976" data-name="Path 21976" d="M962.485,639.358s12.05,1.536,17.335-4.665,6.094-14.221,1.8-17.867-12.055-1.536-17.34,4.665S962.485,639.358,962.485,639.358Z" transform="translate(-776.62 -435.882)" fill="#5673a8"/>
      <ellipse id="Ellipse_4178" data-name="Ellipse 4178" cx="8.158" cy="14.272" rx="8.158" ry="14.272" transform="matrix(0.993, -0.122, 0.122, 0.993, 192.613, 197.19)" fill="#5673a8"/>
      <path id="Path_21977" data-name="Path 21977" d="M992.345,699.995c-4.2,3.754-1.536,13.6,5.987,22.021s26.292,3.237,26.292,3.237a68.473,68.473,0,0,0-11.092-16.823C1006.049,700.005,996.544,696.241,992.345,699.995Z" transform="translate(-790.769 -476.624)" fill="#5673a8"/>
      <path id="Path_21978" data-name="Path 21978" d="M962.365,634.22a30.374,30.374,0,0,0,.963,10.918s12.055,1.536,17.34-4.665a20.24,20.24,0,0,0,3.631-6.186,18.62,18.62,0,0,1-4.476,9.766c-5.285,6.222-17.335,4.665-17.335,4.665S960.04,640.529,962.365,634.22Z" transform="translate(-776.624 -445.242)" fill="#355585"/>
      <path id="Path_21979" data-name="Path 21979" d="M981.735,655.32a22.906,22.906,0,0,0-.23,7.257c.958,7.825,5.362,13.724,9.832,13.177,1.874-.23,3.457-1.567,4.609-3.585-.891,4.378-3.144,7.533-6.145,7.9-4.471.548-8.875-5.352-9.833-13.177C979.42,662.326,980.153,658.142,981.735,655.32Z" transform="translate(-785.613 -455.536)" fill="#355585"/>
      <path id="Path_21980" data-name="Path 21980" d="M991.936,702.3c-.2,4.717,2.673,11.328,7.948,17.227,5.546,6.207,17.248,5.008,22.978,3.959,1.188,2.187,1.782,3.585,1.782,3.585s-18.784,5.157-26.292-3.237C991.137,715.748,988.4,706.351,991.936,702.3Z" transform="translate(-790.79 -478.458)" fill="#355585"/>
      <path id="Path_21981" data-name="Path 21981" d="M992.644,594.893s-2.822-25.057,1.844-30.061,15.875-7.011,17.412.031-1.8,3.933-2.151,2.98,1.2-2.627,1.2-2.627-.83-5.121-6.913-3.948-8.6,3.206-9.8,5.828-1.664,18.2-1.444,19.122.8,8.322.8,8.322S993,595.851,992.644,594.893Z" transform="translate(-791.473 -409.178)" fill="#355585"/>
      <path id="Path_21982" data-name="Path 21982" d="M971.472,583.454s-11.778-31.52-6.145-36.872,11.108-5.229,12.173-2.366.584,7.4-1.081,5.843.241-2.264.241-2.264,2.156-2.98-2.381-3.467-8.327.937-8.839,5.479-.481,4.532.343,9.664,6.657,23.639,6.657,23.639S972.783,584.054,971.472,583.454Z" transform="translate(-777.813 -400.376)" fill="#355585"/>
      <path id="Path_21983" data-name="Path 21983" d="M1019.016,594.117l5.69-26.117c0,.123,4.568,2.781,4.5,2.939-1.833,4.491-8.916,28.166-8.916,28.166l-18.236,19.675-.865-1.593Z" transform="translate(-796.055 -412.934)" fill="#355585"/>
      <path id="Path_21984" data-name="Path 21984" d="M1004.907,734.39c-.036.036-.061.077-.1.113h0Z" transform="translate(-797.821 -494.114)" fill="#355585"/>
      <path id="Path_21985" data-name="Path 21985" d="M967.961,769.165H962.2l8.993-26.686,9.822-8.9c.179-.148.845.143,1.091,0l-8.742,10.165Z" transform="translate(-777.032 -493.697)" fill="#355585"/>
      <path id="Path_21986" data-name="Path 21986" d="M1035.511,767.977h6.422l-9.986-27.613-10.918-9.218c-.195-.154-.937.143-1.209,0l9.7,10.519Z" transform="translate(-805.144 -492.51)" fill="#355585"/>
      <line id="Line_3056" data-name="Line 3056" x2="127.187" transform="translate(46.935 472.174)" fill="none" stroke="#dadada" stroke-miterlimit="10" stroke-width="2"/>
      <rect id="Rectangle_16154" data-name="Rectangle 16154" width="63.655" height="7.871" transform="translate(83.812 464.308)" fill="#dadada"/>
      <path id="Path_21987" data-name="Path 21987" d="M868.227,1122l1.956,2.115a22.908,22.908,0,0,1,6.007.548l1.4,3.585a18.322,18.322,0,0,0-5.7-.456c-1.685.2-1.854.661-1.419,1.137,1.536,1.659,9.694-.855,14.411,4.24,1.977,2.135,1.787,4.215-1.5,5.2l2.048,2.192-3.441.41-1.936-2.089a25.318,25.318,0,0,1-7.548-.635l-1.291-3.616a20.613,20.613,0,0,0,6.806.589c1.634-.195,1.961-.543,1.536-1.024-1.608-1.736-9.73.794-14.523-4.358-2.048-2.233-1.8-4.348,1.782-5.28l-1.992-2.151Z" transform="translate(-728.996 -683.226)" fill="#eee"/>
      <path id="Path_21988" data-name="Path 21988" d="M883.222,1141.114l-2.868,6.524c-1.331,3.016-4.711,5.121-9.976,5.777-11.717,1.4-28.33-5.121-37.112-14.636-4.829-5.218-6.284-10.242-4.655-13.94l2.873-6.519c-1.628,3.692-.179,8.706,4.655,13.939,8.783,9.484,25.4,16.039,37.112,14.636C878.515,1146.261,881.9,1144.13,883.222,1141.114Z" transform="translate(-711.543 -681.431)" fill="#e4e4e4"/>
      <path id="Path_21989" data-name="Path 21989" d="M844.189,1106.82c11.717-1.4,28.33,5.152,37.112,14.636s6.4,18.318-5.316,19.721-28.33-5.152-37.112-14.636S832.477,1108.238,844.189,1106.82Zm24.474,24.069c3.283-.988,3.472-3.073,1.5-5.2-4.717-5.121-12.874-2.561-14.411-4.24-.435-.476-.266-.932,1.419-1.137a18.322,18.322,0,0,1,5.7.456l-1.4-3.585a22.9,22.9,0,0,0-6.007-.548l-1.956-2.13-3.436.415,1.992,2.151c-3.585.932-3.846,3.073-1.782,5.28,4.773,5.152,12.915,2.622,14.523,4.358.435.476.108.824-1.536,1.024a20.613,20.613,0,0,1-6.806-.589l1.29,3.616a25.318,25.318,0,0,0,7.548.635l1.936,2.089,3.441-.41-2.048-2.192" transform="translate(-714.277 -675.728)" fill="#f8f8f8"/>
      <path id="Path_21990" data-name="Path 21990" d="M733.825,1127l-.512,1.828a23.373,23.373,0,0,1,6,0l-3.057,3.293a20.036,20.036,0,0,0-5.782.061c-2.135.338-2.914.784-3.032,1.193-.415,1.439,11.906-1.644,10.636,2.771-.512,1.849-3.406,3.831-8.337,5.049l-.548,1.9-4.363.686.512-1.813a26.488,26.488,0,0,1-7.6.051l3.2-3.308a21.859,21.859,0,0,0,6.837-.031c2.048-.328,2.883-.681,3-1.091.435-1.506-11.891,1.587-10.606-2.873.553-1.931,3.585-3.958,8.747-5.121l.512-1.864Z" transform="translate(-657.762 -685.666)" fill="#e4e4e4"/>
      <path id="Path_21991" data-name="Path 21991" d="M740.915,1126.81l2.2,6.918a7.344,7.344,0,0,1-.041,4.317c-2.361,8.194-16.331,16.771-31.2,19.107-12.014,1.89-20.94-.86-22.671-6.319l-2.2-6.919c1.731,5.459,10.652,8.194,22.671,6.319,14.851-2.34,28.832-10.892,31.2-19.107a7.343,7.343,0,0,0,.046-4.317Z" transform="translate(-642.764 -685.573)" fill="#dadada"/>
      <path id="Path_21992" data-name="Path 21992" d="M717.951,1113.895c14.851-2.335,25,2.427,22.635,10.642s-16.331,16.766-31.2,19.107-25-2.427-22.635-10.642S703.1,1116.219,717.951,1113.895Zm-3.5,20.612c4.932-1.219,7.81-3.2,8.337-5.049,1.27-4.414-11.051-1.331-10.637-2.771.118-.41.9-.855,3.032-1.193a20.04,20.04,0,0,1,5.782-.061l3.042-3.267a23.362,23.362,0,0,0-6,0l.512-1.828-4.363.686-.512,1.864c-5.188,1.188-8.194,3.216-8.747,5.121-1.285,4.46,11.041,1.367,10.606,2.873-.118.41-.927.763-3,1.091a21.866,21.866,0,0,1-6.837.031l-3.2,3.308a26.478,26.478,0,0,0,7.6-.051l-.512,1.813,4.363-.686.548-1.9" transform="translate(-642.477 -678.982)" fill="#fff"/>
      <rect id="Rectangle_16155" data-name="Rectangle 16155" width="63.655" height="7.871" transform="translate(94.865 461.554) rotate(-56.68)" fill="#dadada"/>
      <g id="Group_38072" data-name="Group 38072" transform="translate(149.939 43.222)">
        <path id="Path_21993" data-name="Path 21993" d="M941.808,350.829c27.3-6.744,49.9,14.948,50.478,48.461S971.178,465.449,943.9,472.2s-49.9-14.948-50.478-48.461S914.5,357.589,941.808,350.829Zm6.145,84.564c8.778-4.066,13.1-11.712,12.972-19.25-.307-18-22.22-7.682-22.323-13.54,0-1.675,1.2-3.375,5.121-4.343a18.671,18.671,0,0,1,11.154.881l3.831-12.921a22.308,22.308,0,0,0-11.609-1.2l-.128-7.451-8.02,1.977.133,7.61c-9.3,3.907-13.827,11.686-13.709,19.568.307,18.211,22.226,7.825,22.328,13.965.031,1.669-1.316,2.986-5.121,3.928a20.664,20.664,0,0,1-13.207-1.224l-4.1,13.064c3.452,1.741,9,2.269,14.692,1.275l.128,7.4,8.014-1.982-.133-7.743" transform="translate(-893.408 -349.6)" fill="#f8f8f8"/>
        <path id="Path_21994" data-name="Path 21994" d="M977.3,404.22l.123,7.467a22.308,22.308,0,0,1,11.609,1.2l-3.831,12.92a18.661,18.661,0,0,0-11.154-.881c-3.918.968-5.121,2.668-5.121,4.343.1,5.864,22.021-4.46,22.323,13.54.128,7.538-4.194,15.184-12.972,19.25l.133,7.743-8.014,1.982-.128-7.4c-5.695.993-11.241.466-14.692-1.275l4.1-13.064a20.664,20.664,0,0,0,13.207,1.224c3.81-.942,5.157-2.258,5.121-3.928-.1-6.145-22.021,4.245-22.328-13.965-.138-7.881,4.409-15.66,13.709-19.568l-.133-7.61Z" transform="translate(-923.741 -376.249)" fill="#ececec"/>
        <path id="Path_21995" data-name="Path 21995" d="M990.914,353.44l11.589,3.989c16.684,5.746,28.427,23.705,28.837,47.739.574,33.517-21.1,66.149-48.41,72.893a37.921,37.921,0,0,1-21.642-.727L949.7,473.345a37.98,37.98,0,0,0,21.662.727c27.3-6.744,48.978-39.376,48.41-72.888C1019.342,377.14,1007.594,359.186,990.914,353.44Z" transform="translate(-920.873 -351.474)" fill="#dadada"/>
      </g>
      <path id="Path_21996" data-name="Path 21996" d="M992.644,594.893s-2.822-25.057,1.844-30.061,15.875-7.011,17.412.031-1.8,3.933-2.151,2.98,1.2-2.627,1.2-2.627-.83-5.121-6.913-3.948-8.6,3.206-9.8,5.828-1.664,18.2-1.444,19.122.8,8.322.8,8.322S993,595.851,992.644,594.893Z" transform="translate(-791.473 -409.178)" fill="#355585"/>
      <path id="Path_21997" data-name="Path 21997" d="M971.472,583.454s-11.778-31.52-6.145-36.872,11.108-5.229,12.173-2.366.584,7.4-1.081,5.843.241-2.264.241-2.264,2.156-2.98-2.381-3.467-8.327.937-8.839,5.479-.481,4.532.343,9.664,6.657,23.639,6.657,23.639S972.783,584.054,971.472,583.454Z" transform="translate(-777.813 -400.376)" fill="#355585"/>
      <rect id="Rectangle_16156" data-name="Rectangle 16156" width="111.081" height="226.756" transform="translate(147.589 273.655)" fill="#ececec"/>
      <rect id="Rectangle_16157" data-name="Rectangle 16157" width="111.081" height="12.905" transform="translate(147.589 376.071)" fill="#dadada"/>
      <rect id="Rectangle_16158" data-name="Rectangle 16158" width="111.081" height="12.905" transform="translate(147.589 361.44)" fill="#dadada"/>
      <rect id="Rectangle_16159" data-name="Rectangle 16159" width="111.081" height="12.905" transform="translate(147.589 346.81)" fill="#dadada"/>
      <rect id="Rectangle_16160" data-name="Rectangle 16160" width="111.081" height="12.905" transform="translate(147.589 332.179)" fill="#dadada"/>
      <rect id="Rectangle_16161" data-name="Rectangle 16161" width="111.081" height="12.905" transform="translate(147.589 317.548)" fill="#dadada"/>
      <rect id="Rectangle_16162" data-name="Rectangle 16162" width="111.081" height="12.905" transform="translate(147.589 302.917)" fill="#dadada"/>
      <rect id="Rectangle_16163" data-name="Rectangle 16163" width="111.081" height="12.905" transform="translate(147.589 288.286)" fill="#dadada"/>
      <rect id="Rectangle_16164" data-name="Rectangle 16164" width="111.081" height="12.905" transform="translate(147.589 273.655)" fill="#dadada"/>
      <rect id="Rectangle_16165" data-name="Rectangle 16165" width="111.081" height="12.905" transform="translate(147.589 493.124)" fill="#dadada"/>
      <rect id="Rectangle_16166" data-name="Rectangle 16166" width="111.081" height="12.905" transform="translate(147.589 478.493)" fill="#dadada"/>
      <rect id="Rectangle_16167" data-name="Rectangle 16167" width="111.081" height="12.905" transform="translate(147.589 463.862)" fill="#dadada"/>
      <rect id="Rectangle_16168" data-name="Rectangle 16168" width="111.081" height="12.905" transform="translate(147.589 449.231)" fill="#dadada"/>
      <rect id="Rectangle_16169" data-name="Rectangle 16169" width="111.081" height="12.905" transform="translate(147.589 434.595)" fill="#dadada"/>
      <rect id="Rectangle_16170" data-name="Rectangle 16170" width="111.081" height="12.905" transform="translate(147.589 419.964)" fill="#dadada"/>
      <rect id="Rectangle_16171" data-name="Rectangle 16171" width="111.081" height="12.905" transform="translate(147.589 405.333)" fill="#dadada"/>
      <rect id="Rectangle_16172" data-name="Rectangle 16172" width="111.081" height="12.905" transform="translate(147.589 390.702)" fill="#dadada"/>
      <path id="Path_21998" data-name="Path 21998" d="M1123.715,1087.4l.758,6.657a27.244,27.244,0,0,1,11.553,2.847l-2.673,10.9a22.324,22.324,0,0,0-11.072-2.5c-3.79.256-4.85,1.582-4.681,3.073.6,5.224,21.334-.584,23.173,15.455.768,6.714-2.842,12.854-11.154,15.112l.794,6.9-7.738.512-.758-6.591c-5.526,0-11.046-1.311-14.6-3.385l2.94-10.98a25.022,25.022,0,0,0,13.13,3.114c3.677-.256,4.9-1.214,4.722-2.7-.625-5.469-21.355.394-23.214-15.834-.8-7.021,3.021-13.238,11.85-15.281l-.773-6.775Z" transform="translate(-846.604 -666.345)" fill="#eee"/>
      <path id="Path_21999" data-name="Path 21999" d="M1092.591,1148.885c-26.358,1.8-50.5-20.94-53.92-50.8-2.008-17.494,3.544-33.553,13.791-44.215a42.607,42.607,0,0,1,19.691-11.778l-7.548,2.048a42.6,42.6,0,0,0-19.691,11.779c-10.242,10.662-15.8,26.722-13.791,44.215,3.421,29.866,27.562,52.609,53.92,50.806a42.176,42.176,0,0,0,8.04-1.342l7.548-2.048A42.182,42.182,0,0,1,1092.591,1148.885Z" transform="translate(-810.461 -644.239)" fill="#f8f8f8"/>
      <path id="Path_22000" data-name="Path 22000" d="M1087.385,1039.375c26.358-1.8,50.5,20.945,53.925,50.8s-15.169,55.533-41.527,57.356-50.5-20.94-53.92-50.8S1061.027,1041.182,1087.385,1039.375Zm13.284,76.063c8.311-2.258,11.922-8.4,11.154-15.112-1.838-16.039-22.574-10.242-23.173-15.455-.169-1.49.891-2.817,4.681-3.073a22.324,22.324,0,0,1,11.072,2.5l2.673-10.9a27.168,27.168,0,0,0-11.553-2.847l-.758-6.657-7.738.512.773,6.775c-8.829,2.048-12.654,8.26-11.85,15.281,1.859,16.229,22.589,10.365,23.214,15.834.174,1.49-1.024,2.448-4.722,2.7a25.045,25.045,0,0,1-13.13-3.114l-2.945,10.98c3.554,2.048,9.075,3.39,14.6,3.385l.758,6.591,7.733-.512-.789-6.9" transform="translate(-817.653 -642.865)" fill="#dadada"/>
      <path id="Path_22001" data-name="Path 22001" d="M1019.016,594.117l5.69-26.117c0,.123,4.568,2.781,4.5,2.939-1.833,4.491-8.916,28.166-8.916,28.166l-18.236,19.675-.865-1.593Z" transform="translate(-796.055 -412.934)" fill="#355585"/>
      <line id="Line_3057" data-name="Line 3057" x2="164.402" transform="translate(143.18 506.777)" fill="none" stroke="#b5b5b5" stroke-miterlimit="10" stroke-width="2"/>
      <line id="Line_3058" data-name="Line 3058" x2="56.844" transform="translate(183.488 273.256)" fill="none" stroke="#b5b5b5" stroke-miterlimit="10" stroke-width="2"/>
      <path id="Path_22002" data-name="Path 22002" d="M862.806,316.535l16.643-1.69-16.387-1.06a3.636,3.636,0,0,1-2.939-2.811l-2.458-26.583-2.591,27.193a3.646,3.646,0,0,1-2.653,2.75l-16.5,1.608,16.428,1.024a3.646,3.646,0,0,1,2.97,2.842L857.7,346.4l2.489-27.1A3.657,3.657,0,0,1,862.806,316.535Z" transform="translate(-705.328 -137.768)" fill="#f8f8f8"/>
      <path id="Path_22003" data-name="Path 22003" d="M1111.761,528.467l9.448-.958-9.295-.6a2.048,2.048,0,0,1-1.67-1.6l-1.4-15.1-1.47,15.445a2.048,2.048,0,0,1-1.506,1.536l-9.382.917,9.32.579a2.074,2.074,0,0,1,1.685,1.613l1.352,15.107,1.413-15.394a2.079,2.079,0,0,1,1.5-1.547Z" transform="translate(-826.938 -381.406)" fill="#f8f8f8"/>
      <path id="Path_22004" data-name="Path 22004" d="M1086.552,285.582l10.554-1.075-10.38-.671a2.315,2.315,0,0,1-1.864-1.782l-1.536-16.853-1.644,17.238a2.31,2.31,0,0,1-1.68,1.746l-10.473,1.024,10.406.65a2.3,2.3,0,0,1,1.879,1.8l1.536,16.864,1.577-17.186A2.315,2.315,0,0,1,1086.552,285.582Z" transform="translate(-953.891 -206.298)" fill="#f8f8f8"/>
      <path id="Path_22005" data-name="Path 22005" d="M1108.075,352.234l6.545-.666-6.437-.42a1.429,1.429,0,0,1-1.157-1.1l-.968-10.457-1.024,10.693a1.424,1.424,0,0,1-1.024,1.081l-6.5.635,6.453.4a1.439,1.439,0,0,1,1.168,1.116l.937,10.462.978-10.662a1.439,1.439,0,0,1,1.029-1.086Z" transform="translate(-820.349 -249.978)" fill="#f8f8f8"/>
      <circle id="Ellipse_4179" data-name="Ellipse 4179" cx="33.799" cy="33.799" r="33.799" transform="translate(63.184 98.222)" fill="#dadada" stroke="#b7b7b7" stroke-miterlimit="10" stroke-width="2" stroke-dasharray="12"/>
      <circle id="Ellipse_4180" data-name="Ellipse 4180" cx="46.351" cy="46.351" r="46.351" transform="translate(276.584 172.99)" fill="#f9f9f9" stroke="#dadada" stroke-miterlimit="10" stroke-width="1" stroke-dasharray="4 6"/>
      <path id="Path_22006" data-name="Path 22006" d="M1219.812,688.862v5.818h-6.289v-5.633c-5.239-.369-10.242-1.885-13.253-3.984l3.406-7.646a23.147,23.147,0,0,0,12.1,3.615c4.3,0,5.971-1.209,5.971-2.986,0-5.818-20.848-1.572-20.848-15.194,0-5.761,4.138-10.637,12.624-11.681V645.43h6.289v5.659a25.9,25.9,0,0,1,10.636,3.073l-3.2,7.682a21.648,21.648,0,0,0-10.165-2.832c-4.348,0-5.92,1.47-5.92,3.3,0,5.6,20.8,1.413,20.8,14.928C1231.964,682.839,1227.985,687.658,1219.812,688.862Z" transform="translate(-893.185 -450.711)" fill="#eee" stroke="#b7b7b7" stroke-miterlimit="10" stroke-width="1" stroke-dasharray="4 6"/>
      <rect id="Rectangle_16173" data-name="Rectangle 16173" width="36.36" height="30.793" rx="3" transform="translate(0 350.138)" fill="#f9f9f9" stroke="#919191" stroke-miterlimit="10" stroke-width="1" stroke-dasharray="4 6"/>
      <rect id="Rectangle_16174" data-name="Rectangle 16174" width="36.36" height="26.599" rx="5.92" transform="translate(37.63 312.949)" fill="#dadada"/>
      <path id="Path_22007" data-name="Path 22007" d="M1188.351,829.28h34.178c.6,0,1.091.968,1.091,2.166v22.272c0,1.193-.512,2.161-1.091,2.161h-34.178c-.6,0-1.091-.968-1.091-2.161V831.446C1187.26,830.248,1187.746,829.28,1188.351,829.28Z" transform="translate(-886.837 -540.41)" fill="#f8f8f8"/>
    </g>
  </g>
</svg>
