<svg xmlns="http://www.w3.org/2000/svg" width="192.369" height="145.703" viewBox="0 0 192.369 145.703">
  <g id="Group_39340" data-name="Group 39340" transform="translate(-424.066 -181.297)">
    <path id="Path_24024" data-name="Path 24024" d="M108.964-97.8c37.69-4.421,86.379,8.339,100.967,29.563,22.687,33-35.96,88.046-92.539,77.986-38.245-6.8-77.754-43.741-68.012-73.579,8.973-27.493,54.67-33.391,59.585-33.969" transform="translate(401.504 285.262)" fill="#f2f2f2"/>
    <g id="Checked_in" data-name="Checked in" transform="translate(473.613 318.809)">
      <g id="Path_23698" data-name="Path 23698" transform="translate(-29.68 -137.512)">
        <path id="Path_23789" data-name="Path 23789" d="M86.119-24.615c-23.505,0-49.295-9.661-64.728-24.672C12.022-58.4,7.372-68.631,7.946-78.876c.374-6.682,2.975-13.282,7.731-19.617a71.713,71.713,0,0,1,15.711-14.831A127.017,127.017,0,0,1,57.011-127.28l.116.292-.116-.292c17.235-6.81,38.6-10.532,58.611-10.213a113.424,113.424,0,0,1,27.041,3.4c8.4,2.225,15.075,5.426,19.841,9.514a28.6,28.6,0,0,1,9.7,17.325c1.132,6.57.425,13.865-2.1,21.683C165.554-71.5,155.348-57.075,142.1-46a96.075,96.075,0,0,1-22.683,14.2,82.411,82.411,0,0,1-26.5,6.9C90.677-24.707,88.408-24.615,86.119-24.615Zm27.114-112.268c-19.237,0-39.511,3.676-55.992,10.188a126.357,126.357,0,0,0-25.488,13.882C17.044-102.274,9.245-90.844,8.573-78.841c-.563,10.057,4.021,20.121,13.256,29.1,15.321,14.9,40.935,24.494,64.28,24.495q3.416,0,6.75-.277c36.785-3.085,67.856-33.051,76.645-60.24,5.22-16.148,2.588-29.763-7.409-38.337-9.212-7.9-25.72-12.436-46.483-12.767Q114.426-136.883,113.234-136.883Z" transform="translate(-7.898 137.512)" fill="#344566"/>
      </g>
      <g id="Path_23699" data-name="Path 23699" transform="translate(4.778 -20.04)" opacity="0.15" style="isolation: isolate">
        <path id="Path_23790" data-name="Path 23790" d="M306.968,751.546l-45.549.565a.96.96,0,0,1-.563-1.636l22.273-26.32a.9.9,0,0,1,.7-.273l45.535,3.263a.959.959,0,0,1,.563,1.637l-22.259,22.5A.9.9,0,0,1,306.968,751.546Z" transform="translate(-260.573 -723.88)" fill="#6c6c6c"/>
      </g>
      <g id="Path_23700" data-name="Path 23700" transform="translate(11.526 -13.677)">
        <path id="Path_23791" data-name="Path 23791" d="M344.448,791.253H310.056l15.9-20.711h34.392Z" transform="translate(-310.056 -770.542)" fill="#ffad43"/>
      </g>
      <g id="Path_23701" data-name="Path 23701" transform="translate(11.526 -13.677)" opacity="0.5" style="isolation: isolate">
        <path id="Path_23792" data-name="Path 23792" d="M344.448,791.253H310.056l15.9-20.711h34.392Z" transform="translate(-310.056 -770.542)" fill="#6c6c6c"/>
      </g>
      <g id="Rectangle_17625" data-name="Rectangle 17625" transform="translate(27.424 -32.402)">
        <rect id="Rectangle_17632" data-name="Rectangle 17632" width="34.392" height="18.724" fill="#ffc06e"/>
      </g>
      <g id="Path_23702" data-name="Path 23702" transform="translate(-1.551 -42.83)">
        <path id="Path_23793" data-name="Path 23793" d="M243.106,567.2l-10.565-10.048a1.375,1.375,0,0,0-1.943.047l-.048.053-15.807,18.383a2.638,2.638,0,0,0-.528,2.2l13.035,10.083Z" transform="translate(-214.159 -556.77)" fill="#ffad43"/>
      </g>
      <g id="Path_23703" data-name="Path 23703" transform="translate(11.526 -32.402)">
        <path id="Path_23794" data-name="Path 23794" d="M325.953,651.958l-15.9,20.711V653.944l15.9-20.712Z" transform="translate(-310.056 -633.232)" fill="#ffad43"/>
      </g>
      <g id="Path_23704" data-name="Path 23704" transform="translate(45.919 -32.402)">
        <path id="Path_23795" data-name="Path 23795" d="M578.143,651.958l-15.9,20.711v-14.9l.969.219-.484-1.437v-1.75l1.2-.5-.719-.656,14.928-20.407Z" transform="translate(-562.246 -633.232)" fill="#ffad43"/>
      </g>
      <g id="Path_23705" data-name="Path 23705" transform="translate(45.919 -32.402)" opacity="0.15" style="isolation: isolate">
        <path id="Path_23796" data-name="Path 23796" d="M578.143,651.958l-15.9,20.711V657.679l.986.33-.5-1.453v-1.768l1.184-.5-1.184-.979,15.409-20.076Z" transform="translate(-562.246 -633.232)" fill="#6c6c6c"/>
      </g>
      <g id="Path_23706" data-name="Path 23706" transform="translate(11.526 -32.402)" opacity="0.3" style="isolation: isolate">
        <path id="Path_23797" data-name="Path 23797" d="M325.953,651.958l-15.9,20.711V653.944l15.9-20.712Z" transform="translate(-310.056 -633.232)" fill="#6c6c6c"/>
      </g>
      <g id="Rectangle_17626" data-name="Rectangle 17626" transform="translate(11.526 -11.69)">
        <path id="Path_24025" data-name="Path 24025" d="M0,0H26.113L26.7.7,25.391,2.934h1.945V4.377L29.584,3.3,25.76,7.529l4.256-1.888,2.252,1.654L33.93,4.482l.462.263V18.724H0Z" fill="#ffc06e"/>
      </g>
      <g id="Path_23707" data-name="Path 23707" transform="translate(45.932 -42.236)">
        <path id="Path_23798" data-name="Path 23798" d="M578.2,570.957l16.293-9.756a.535.535,0,0,1,.691.8l-20.565,25.487a3.215,3.215,0,0,1-1.6,1.065l-9.75,2.807-.406-.328Z" transform="translate(-562.346 -561.124)" fill="#ffad43"/>
      </g>
      <g id="Path_23708" data-name="Path 23708" transform="translate(112.656 -52.656)" opacity="0.15" style="isolation: isolate">
        <path id="Path_23799" data-name="Path 23799" d="M1068.8,495.109l-16.882-.153a.341.341,0,0,1-.176-.6l8.75-9.56a.344.344,0,0,1,.273-.079l13.365,2.26a.34.34,0,0,1,.175.6l-5.238,7.454A.343.343,0,0,1,1068.8,495.109Z" transform="translate(-1051.618 -484.716)" fill="#6c6c6c"/>
      </g>
      <g id="Path_23709" data-name="Path 23709" transform="translate(116.271 -52.512)">
        <path id="Path_23800" data-name="Path 23800" d="M1092.965,494.707h-14.839l6.858-8.935h14.839Z" transform="translate(-1078.126 -485.772)" fill="#ffad43"/>
      </g>
      <g id="Path_23710" data-name="Path 23710" transform="translate(116.271 -52.512)" opacity="0.5" style="isolation: isolate">
        <path id="Path_23801" data-name="Path 23801" d="M1092.965,494.707h-14.839l6.858-8.935h14.839Z" transform="translate(-1078.126 -485.772)" fill="#6c6c6c"/>
      </g>
      <g id="Rectangle_17627" data-name="Rectangle 17627" transform="translate(123.13 -60.591)">
        <rect id="Rectangle_17634" data-name="Rectangle 17634" width="14.838" height="8.079" fill="#ffc06e"/>
      </g>
      <g id="Path_23711" data-name="Path 23711" transform="translate(116.271 -60.591)">
        <path id="Path_23802" data-name="Path 23802" d="M1084.984,434.611l-6.858,8.935v-8.079l6.858-8.935Z" transform="translate(-1078.126 -426.532)" fill="#ffad43"/>
      </g>
      <g id="Path_23712" data-name="Path 23712" transform="translate(131.11 -60.591)">
        <path id="Path_23803" data-name="Path 23803" d="M1193.794,434.611l-6.858,8.935v-8.079l6.858-8.935Z" transform="translate(-1186.936 -426.532)" fill="#ffad43"/>
      </g>
      <g id="Path_23713" data-name="Path 23713" transform="translate(131.11 -60.591)" opacity="0.15" style="isolation: isolate">
        <path id="Path_23804" data-name="Path 23804" d="M1193.794,434.611l-6.858,8.935v-8.079l6.858-8.935Z" transform="translate(-1186.936 -426.532)" fill="#6c6c6c"/>
      </g>
      <g id="Path_23714" data-name="Path 23714" transform="translate(116.271 -60.591)" opacity="0.3" style="isolation: isolate">
        <path id="Path_23805" data-name="Path 23805" d="M1084.984,434.611l-6.858,8.935v-8.079l6.858-8.935Z" transform="translate(-1078.126 -426.532)" fill="#6c6c6c"/>
      </g>
      <g id="Rectangle_17628" data-name="Rectangle 17628" transform="translate(116.271 -51.656)">
        <rect id="Rectangle_17635" data-name="Rectangle 17635" width="14.838" height="8.079" fill="#ffc06e"/>
      </g>
      <g id="Path_23715" data-name="Path 23715" transform="translate(111.463 -58.207)">
        <path id="Path_23806" data-name="Path 23806" d="M1043,444.928l4.674,5.634h14.838l-5.544-5.856a.559.559,0,0,0-.385-.175l-13.134-.521a.561.561,0,0,0-.449.918Z" transform="translate(-1042.871 -444.01)" fill="#ffad43"/>
      </g>
      <g id="Path_23716" data-name="Path 23716" transform="translate(123.131 -67.017)">
        <path id="Path_23807" data-name="Path 23807" d="M1143.532,379.412H1130.1a.694.694,0,0,0-.682.577l-.99,5.849h14.839l.955-5.617a.693.693,0,0,0-.687-.809Z" transform="translate(-1128.426 -379.412)" fill="#ffad43"/>
      </g>
      <g id="Line_3165" data-name="Line 3165" transform="translate(72.026 -1.296)">
        <rect id="Rectangle_17636" data-name="Rectangle 17636" width="38.867" height="0.273" fill="#b5b5b5"/>
      </g>
      <g id="Path_23718" data-name="Path 23718" transform="translate(13.307 -120.581)">
        <path id="Path_23809" data-name="Path 23809" d="M336.486,9.251l-13.37,13.386V.848l13.37-14.206Z" transform="translate(-323.116 13.358)" fill="none"/>
      </g>
      <g id="Path_23723" data-name="Path 23723" transform="translate(-8.548 -120.581)">
        <path id="Path_23814" data-name="Path 23814" d="M176.226,9.461l-13.37,13.176V.848l13.37-14.206Z" transform="translate(-162.856 13.358)" fill="none"/>
      </g>
      <g id="Path_23724" data-name="Path 23724" transform="translate(-35.614 -79.018)">
        <path id="Path_23815" data-name="Path 23815" d="M-35.614,295.468a4.056,4.056,0,0,1,4.058-4.054,4.056,4.056,0,0,1,4.054,4.058,4.056,4.056,0,0,1-4.058,4.054,4.056,4.056,0,0,1-4.054-4.054" transform="translate(35.614 -291.414)" fill="#5673aa"/>
      </g>
      <g id="Path_23725" data-name="Path 23725" transform="translate(45.641 -127.256)">
        <path id="Path_23816" data-name="Path 23816" d="M562.489-57.811a2.247,2.247,0,0,1-2.281-2.213,2.247,2.247,0,0,1,2.213-2.281,2.247,2.247,0,0,1,2.281,2.213,2.247,2.247,0,0,1-2.213,2.282h0" transform="translate(-560.208 62.306)" fill="#5673aa"/>
      </g>
      <g id="Path_23726" data-name="Path 23726" transform="translate(62.587 -88.971)">
        <path id="Path_23817" data-name="Path 23817" d="M687.877,222.59a2.245,2.245,0,1,1,1.017-1.388,2.245,2.245,0,0,1-1.017,1.388" transform="translate(-684.468 -218.426)" fill="#5673aa"/>
      </g>
      <g id="Path_23729" data-name="Path 23729" transform="translate(47.415 -70.238)">
        <path id="Path_23820" data-name="Path 23820" d="M578.214,399.323l-.889-8.956a59.306,59.306,0,0,1,4.455-28.647l1.42-3.423.11-2.505-2.777,5.54a61.978,61.978,0,0,0-6.636,24.356l-.682,12.319Z" transform="translate(-573.216 -355.792)" fill="#355585"/>
      </g>
      <g id="Path_23730" data-name="Path 23730" transform="translate(91.435 -36.514)">
        <path id="Path_23821" data-name="Path 23821" d="M896.126,603.082c-.034.037-.061.076-.1.113h-.022Z" transform="translate(-896.006 -603.082)" fill="#355585"/>
      </g>
      <g id="Path_23731" data-name="Path 23731" transform="translate(74.827 -36.951)">
        <path id="Path_23822" data-name="Path 23822" d="M779.973,635.4h-5.747l3.859-26.611,9.794-8.864c.179-.147.843.136,1.091,0l-8.706,10.138Z" transform="translate(-774.226 -599.882)" fill="#355585"/>
      </g>
      <g id="Path_23732" data-name="Path 23732" transform="translate(46.501 -73.936)">
        <path id="Path_23823" data-name="Path 23823" d="M574.31,344.659c7.586,2.085,16.6,3.877,21.655,1.227,5.028-2.561,4.863-10.279-2.494-14.786-7.357-4.6-19.092-2.107-24.275,2.9C563.947,339.073,566.815,342.525,574.31,344.659Z" transform="translate(-566.518 -328.677)" fill="#5673a8"/>
      </g>
      <g id="Path_23733" data-name="Path 23733" transform="translate(69.233 -58.635)">
        <path id="Path_23824" data-name="Path 23824" d="M735.469,442.951c-5.643,4.406.078,10.794,8.36,20.437,8.247,9.282,24.884,14.891,25.2,15.019-.128.17,1.331-13.228-5.99-25.359C755.747,440.694,740.868,438.606,735.469,442.951Z" transform="translate(-733.208 -440.879)" fill="#5673a8"/>
      </g>
      <g id="Path_23734" data-name="Path 23734" transform="translate(46.614 -66.268)">
        <path id="Path_23825" data-name="Path 23825" d="M567.346,388.108a18.894,18.894,0,0,0,5.932,2.257c7.773,1.636,17.135,2.887,22.4-.008A6.549,6.549,0,0,0,599.2,384.9c1.842,3.9.862,7.738-2.519,9.538-5.055,2.646-14.068.854-21.655-1.227C570.664,391.894,567.9,390.331,567.346,388.108Z" transform="translate(-567.346 -384.902)" fill="#355585"/>
      </g>
      <g id="Path_23735" data-name="Path 23735" transform="translate(69.254 -56.065)">
        <path id="Path_23826" data-name="Path 23826" d="M735.037,459.722c.1,4.192,4.738,9.256,10.675,16.065,6.321,6.921,17.56,11.2,23.375,13.431a49.05,49.05,0,0,1,.071,5.455c-.315-.127-16.953-5.739-25.2-15.019C736,470.362,730.405,464.18,735.037,459.722Z" transform="translate(-733.358 -459.722)" fill="#355585"/>
      </g>
      <g id="Path_23736" data-name="Path 23736" transform="translate(58.488 -68.72)">
        <path id="Path_23827" data-name="Path 23827" d="M663.535,410.547l-.472,11.464c.023-.11,4.582-1.327,4.564-1.474-.206-1.664-.409-7.164-.584-13.2a84.905,84.905,0,0,0-9.987-37.56l-1.522-2.85-1.12,1.158,2.494,5.905A84.97,84.97,0,0,1,663.535,410.547Z" transform="translate(-654.416 -366.922)" fill="#355585"/>
      </g>
      <g id="Path_23737" data-name="Path 23737" transform="translate(91.463 -41.186)">
        <path id="Path_23828" data-name="Path 23828" d="M906.261,608.576h6.384l-7.91-27.47-7.31-12.238c-.2-.154-.936.136-1.21,0l6.1,13.549Z" transform="translate(-896.216 -568.821)" fill="#355585"/>
      </g>
      <g id="Path_23738" data-name="Path 23738" transform="translate(29.106 -72.656)">
        <path id="Path_23829" data-name="Path 23829" d="M448.472,367.51s10.446-6.137,10.808-14.27-3.891-14.923-9.5-15.173-10.446,6.137-10.808,14.27S448.472,367.51,448.472,367.51Z" transform="translate(-438.965 -338.06)" fill="#5673a8"/>
      </g>
      <g id="Path_23739" data-name="Path 23739" transform="translate(29.657 -67.899)">
        <path id="Path_23830" data-name="Path 23830" d="M443.006,386.289a30.346,30.346,0,0,0,7.432,8.013s10.446-6.137,10.808-14.269a20.107,20.107,0,0,0-.921-7.091,18.561,18.561,0,0,1,2.444,10.424c-.361,8.131-10.808,14.27-10.808,14.27S445.031,392.682,443.006,386.289Z" transform="translate(-443.006 -372.942)" fill="#355585"/>
      </g>
      <g id="Path_23740" data-name="Path 23740" transform="translate(22.886 -103.293)">
        <path id="Path_23831" data-name="Path 23831" d="M410.286,150.155s-17.535-18.018-16.92-24.808,8.226-15.228,13.741-10.621.989,4.2.124,3.663-.659-2.8-.659-2.8-3.787-3.538-7.859,1.113-4.811,7.773-4.153,10.577,9.808,15.353,10.543,15.946,5.717,6.063,5.717,6.063S411.15,150.689,410.286,150.155Z" transform="translate(-393.35 -113.41)" fill="#355585"/>
      </g>
      <g id="Path_23741" data-name="Path 23741" transform="translate(4.887 -99.037)">
        <path id="Path_23832" data-name="Path 23832" d="M288.773,179.615s-28.521-17.644-27.372-25.3,5.552-10.91,8.146-9.3,4.98,5.471,2.717,5.267-1.193-1.934-1.193-1.934-.125-3.662-3.992-1.274-6,5.844-3.619,9.711,2.388,3.868,6.175,7.405,19.673,14.561,19.673,14.561S290.173,179.285,288.773,179.615Z" transform="translate(-261.368 -144.613)" fill="#355585"/>
      </g>
      <g id="Path_23742" data-name="Path 23742" transform="translate(31.246 -60.226)">
        <path id="Path_23833" data-name="Path 23833" d="M454.656,430.058c0,.656.342,1.189.765,1.189s.765-.533.765-1.189a1.566,1.566,0,0,0-.228-.846l-1.272.518A1.807,1.807,0,0,0,454.656,430.058Z" transform="translate(-454.656 -429.212)" fill="#355585"/>
      </g>
      <g id="Path_23743" data-name="Path 23743" transform="translate(37.874 -61.274)">
        <path id="Path_23834" data-name="Path 23834" d="M503.256,422.222c0,.657.342,1.191.765,1.191s.765-.533.765-1.191a1.056,1.056,0,0,0-.008-.164l-1.375-.536a1.676,1.676,0,0,0-.147.7Z" transform="translate(-503.256 -421.522)" fill="#355585"/>
      </g>
    </g>
    <g id="Group_38090" data-name="Group 38090" transform="translate(523.613 378.809)">
      <g id="Path_23717" data-name="Path 23717" transform="translate(13.307 -120.58)">
        <path id="Path_23808" data-name="Path 23808" d="M336.486,9.14l-13.37,13.5V.848l13.37-14.206Z" transform="translate(-403.116 13.358)" fill="#86e0cb"/>
      </g>
      <g id="Path_23719" data-name="Path 23719" transform="translate(-19.121 -98.756)" opacity="0.15" style="isolation: isolate">
        <path id="Path_23810" data-name="Path 23810" d="M115.1,163.67l-29.226-.731a.585.585,0,0,1-.364-1.006l14.242-15.088a.585.585,0,0,1,.449-.162l29.225,2.095a.585.585,0,0,1,.365,1.005l-14.242,13.726a.588.588,0,0,1-.449.162Z" transform="translate(-165.332 -146.681)" fill="#6c6c6c"/>
      </g>
      <g id="Path_23720" data-name="Path 23720" transform="translate(4.822 -120.58)">
        <path id="Path_23811" data-name="Path 23811" d="M282.751,9.14,260.9,9.461V-13.358h21.855Z" transform="translate(-340.896 13.358)" fill="#23af8d"/>
      </g>
      <g id="Path_23721" data-name="Path 23721" transform="translate(-19.547 -129.354)">
        <path id="Path_23812" data-name="Path 23812" d="M106.551-68.917l-8.886-8.455a1.158,1.158,0,0,0-1.637.043l-.038.042L82.695-65.04a2.216,2.216,0,0,0-.443,1.851l10.963,8.481Z" transform="translate(-162.204 77.69)" fill="#24c1a1"/>
      </g>
      <g id="Path_23722" data-name="Path 23722" transform="translate(-8.547 -120.58)">
        <path id="Path_23813" data-name="Path 23813" d="M176.226,9.461l-13.37,13.176V.848l13.37-14.206Z" transform="translate(-242.856 13.358)" fill="#86e0cb"/>
      </g>
      <g id="Rectangle_17629" data-name="Rectangle 17629" transform="translate(-8.547 -106.375)">
        <rect id="Rectangle_17637" data-name="Rectangle 17637" width="21.855" height="21.791" transform="translate(-80 0)" fill="#24c1a1"/>
      </g>
      <g id="Path_23727" data-name="Path 23727" transform="translate(13.307 -119.875)">
        <path id="Path_23818" data-name="Path 23818" d="M323.116,27.112l13.347-13.5V-8.178l-13.347,13.5Z" transform="translate(-403.116 8.178)" fill="#86e0cb"/>
      </g>
      <g id="Path_23728" data-name="Path 23728" transform="translate(13.318 -128.85)">
        <path id="Path_23819" data-name="Path 23819" d="M350.239-73.927a.45.45,0,0,1,.617.158.45.45,0,0,1-.036.511l-17.3,18.225a2.708,2.708,0,0,1-1.343.9L323.2-51.51l13.337-14.212" transform="translate(-403.196 73.99)" fill="#24c1a1"/>
      </g>
    </g>
  </g>
</svg>
