<svg xmlns="http://www.w3.org/2000/svg" width="453.792" height="301.164" viewBox="0 0 453.792 301.164">
  <g id="Contact_4" data-name="Contact 4" transform="translate(-153.246 -187.668)">
    <rect id="Rectangle_18826" data-name="Rectangle 18826" width="267.488" height="46.027" rx="3" transform="translate(313.245 203.489)" fill="#e7e7e7" stroke="#b7b7b7" stroke-miterlimit="10" stroke-width="1" stroke-dasharray="4 6"/>
    <rect id="Rectangle_18827" data-name="Rectangle 18827" width="84.596" height="39.763" rx="3" transform="translate(269.974 266.597)" fill="#e4e4e4"/>
    <rect id="Rectangle_18828" data-name="Rectangle 18828" width="40.984" height="14.584" rx="2" transform="translate(297.847 331.709)" fill="#f6f6f6"/>
    <line id="Line_3261" data-name="Line 3261" x1="31.788" transform="translate(318.285 306.356)" fill="none" stroke="#b5b5b5" stroke-miterlimit="10" stroke-width="2"/>
    <g id="Group_1225" data-name="Group 1225" transform="translate(212.607 187.668)">
      <path id="Rectangle_745" data-name="Rectangle 745" d="M317.334,187.967,557.887,256.8c3.1.892,5.1,3.489,4.431,5.838l-10.467,36.6c-.671,2.326-3.733,3.489-6.85,2.613L304.444,233.021c-3.1-.892-5.094-3.489-4.427-5.838l10.467-36.607C311.174,188.242,314.221,187.075,317.334,187.967Z" transform="translate(-299.888 -187.668)" fill="#fff"/>
    </g>
    <path id="Path_26337" data-name="Path 26337" d="M618.957,401.09l-9.3-7.366L608.49,377.83l2.756,1.663.388,12.405,8.1,8.8Z" transform="translate(-276.249 -116.443)" fill="#919191"/>
    <path id="Path_26338" data-name="Path 26338" d="M648.95,422.664s-4.784,1.6-7.141-.388-2.655-5.16-.907-6.59,4.7-.748,6.827,1.1S648.919,422.626,648.95,422.664Z" transform="translate(-295.411 -139.154)" fill="#919191"/>
    <path id="Path_26339" data-name="Path 26339" d="M632.327,438.208c-2.3,1.768-5.179,2.4-6.505,1.043s-.388-4.233,2.163-6.055,5.528-1.872,6.59-.473S634.63,436.429,632.327,438.208Z" transform="translate(-286.495 -149.456)" fill="#919191"/>
    <path id="Path_26340" data-name="Path 26340" d="M602.893,446.7c.388,2.179-2.737,4.408-7.222,5.427-4.578,1.163-9.874-5.815-9.754-5.927a21.043,21.043,0,0,1,8.021-2.749C598.586,442.9,602.474,444.548,602.893,446.7Z" transform="translate(-262.426 -156.56)" fill="#919191"/>
    <path id="Path_26341" data-name="Path 26341" d="M648.575,422.38a10.678,10.678,0,0,1-.078,3.722s-4.8,1.5-7.086-.562a6,6,0,0,1-1.551-2.175,5.653,5.653,0,0,0,1.985,3.462c2.357,2,7.156.388,7.141.388S649.575,424.338,648.575,422.38Z" transform="translate(-295.458 -143.723)" fill="#6c6c6c"/>
    <path id="Path_26342" data-name="Path 26342" d="M634.888,439.79a8.6,8.6,0,0,1-1.9,1.834c-2.361,1.7-5.253,2.264-6.536.884a2.462,2.462,0,0,1-.442-2.326c-.95,1.5-1.055,3.078-.182,3.981,1.33,1.357,4.206.725,6.505-1.043A6.919,6.919,0,0,0,634.888,439.79Z" transform="translate(-286.501 -154.383)" fill="#6c6c6c"/>
    <path id="Path_26343" data-name="Path 26343" d="M602.912,450.241c-1.113,1.423-3.632,2.714-6.807,3.338-3.357.709-7.125-2.8-8.68-4.888a16.865,16.865,0,0,0-1.508.814c-.12.116,5.175,7.087,9.754,5.927C599.985,454.439,603.044,452.334,602.912,450.241Z" transform="translate(-262.426 -159.833)" fill="#6c6c6c"/>
    <path id="Path_26344" data-name="Path 26344" d="M585.965,459.36a2.833,2.833,0,0,1-.221-.256.66.66,0,0,1-.039-.054c-1.365,1.093-3.989,3.489-3.989,3.489s-6.145,7.125-6.226,10.01a22.88,22.88,0,0,1,4.264,0l2.911-9.761S584.825,460.449,585.965,459.36Z" transform="translate(-256.042 -166.177)" fill="#6c6c6c"/>
    <path id="Path_26345" data-name="Path 26345" d="M616.84,462.12c.818,1.5,5.33,2.822,5.33,2.822l.562,9.506-3.411.14L621.007,465s-3.912-1.163-4.427-2.574Z" transform="translate(-281.203 -168.057)" fill="#6c6c6c"/>
    <path id="Path_26346" data-name="Path 26346" d="M664.912,415.12l-8.529,11.242-10.533.07-1,.725,11.921-.019,10.855-11.63Z" transform="translate(-298.514 -139.277)" fill="#6c6c6c"/>
    <path id="Path_26347" data-name="Path 26347" d="M636.24,400.592c-.205-.081,1.527-9.048.426-10.9-1.357-1.88-5.191-3.33-6.462-.647-1.2,2.714.333,1.613.535,1.252s-.217-1.07-.217-1.07a2.225,2.225,0,0,1,2.915-1.2c2.12.721,2.892,1.512,3.156,2.485.155.961-.31,6.59-.326,6.924a29.65,29.65,0,0,0-.388,3.059S636.1,400.957,636.24,400.592Z" transform="translate(-289.267 -122.408)" fill="#6c6c6c"/>
    <path id="Path_26348" data-name="Path 26348" d="M652.732,395.611c-.268-.271,5.3-10.777,3.97-12.405-1.6-1.938-3.536-2.248-4.237-1.306s-.907,2.539-.151,2.062.112-.775.112-.775-.5-1.128,1.2-1.074,2.946.675,2.779,2.144a8.982,8.982,0,0,1-.775,3.148c-.717,1.586-3.38,8.063-3.28,8.141C652.356,395.518,652.212,395.863,652.732,395.611Z" transform="translate(-302.79 -118.621)" fill="#6c6c6c"/>
    <text id="CONTACT" transform="translate(290.272 239.287) rotate(15.709)" fill="#ffac43" font-size="22" font-family="Montserrat-Black, Montserrat" font-weight="800" opacity="0.7"><tspan x="0" y="0" letter-spacing="-0.02em">C</tspan><tspan y="0">ON</tspan><tspan y="0" letter-spacing="-0.03em">T</tspan><tspan y="0" letter-spacing="-0.01em">AC</tspan><tspan y="0">T</tspan></text>
    <path id="Path_26349" data-name="Path 26349" d="M1271.472,424.2a2.322,2.322,0,0,0-.275.341l-.457.562a4.136,4.136,0,0,0-.57,4.264l.388.849h0a2.524,2.524,0,0,1-2.88.488s-9.157-4.3-11.479-8.8l-.194-.388a2.515,2.515,0,0,1,.682-2.326l.054-.054a5.846,5.846,0,0,1,3.3-1.659h0a4.121,4.121,0,0,0,2.326-1.163l.628-.628c1.163-1.163.775-3.377-.833-4.985s-3.838-1.981-4.985-.833a2.087,2.087,0,0,0-.322.415l-2.745,3.524c-1,1.283-1.116,4.8-1.035,7.567a13.309,13.309,0,0,0,4.21,9.327l.12.112a13.277,13.277,0,0,0,9.9,3.423c2.849-.2,6.443-.694,7.633-1.884l2.361-2.361c1.163-1.163.775-3.377-.838-4.982S1272.619,423.08,1271.472,424.2Z" transform="translate(-670.94 -135.653)" fill="#ededed"/>
    <path id="Path_26354" data-name="Path 26354" d="M653.252,580.853,606.67,602.167l.671-.663,46.582-21.314Z" transform="translate(-275.135 -240.355)" fill="#dadada"/>
    <path id="Path_26355" data-name="Path 26355" d="M699.959,549.6s-3.877,2.055-6.474.613-3.877-4.055-2.869-5.815,3.877-2.051,6.47-.609S699.959,549.6,699.959,549.6Z" transform="translate(-326.327 -217.501)" fill="#5673a8"/>
    <ellipse id="Ellipse_4580" data-name="Ellipse 4580" cx="2.954" cy="5.168" rx="2.954" ry="5.168" transform="translate(366.189 332.81)" fill="#5673a8"/>
    <path id="Path_26356" data-name="Path 26356" d="M689.436,586.813c1.675,1.163,1.163,4.819-1.182,8.168s-9.3,2.326-9.3,2.326a24.69,24.69,0,0,1,3.245-6.536C684.513,587.418,687.758,585.646,689.436,586.813Z" transform="translate(-319.394 -244.191)" fill="#5673a8"/>
    <path id="Path_26357" data-name="Path 26357" d="M698.891,547.5a11.056,11.056,0,0,1,1.058,3.83s-3.877,2.051-6.474.609a7.234,7.234,0,0,1-2.016-1.64,6.741,6.741,0,0,0,2.752,2.749c2.582,1.442,6.474-.612,6.474-.612A9.735,9.735,0,0,0,698.891,547.5Z" transform="translate(-327.055 -220.338)" fill="#355585"/>
    <path id="Path_26358" data-name="Path 26358" d="M701.447,564.89a8.338,8.338,0,0,1,.388,2.6c0,2.853-1.322,5.168-2.954,5.168a2.326,2.326,0,0,1-1.81-1.093c.512,1.551,1.461,2.57,2.547,2.57,1.632,0,2.954-2.326,2.954-5.168a7.036,7.036,0,0,0-1.124-4.074Z" transform="translate(-330.49 -230.987)" fill="#355585"/>
    <path id="Path_26359" data-name="Path 26359" d="M689.595,587.76c.283,1.686-.461,4.191-2.1,6.544-1.721,2.473-5.978,2.559-8.087,2.435-.33.841-.481,1.365-.481,1.365s6.978,1.023,9.3-2.326C690.475,592.559,691.044,589.059,689.595,587.76Z" transform="translate(-319.382 -244.991)" fill="#355585"/>
    <path id="Path_26360" data-name="Path 26360" d="M687.783,609.583a2.188,2.188,0,0,1-.275-.023.269.269,0,0,1-.054,0l-.775,4.485-2.939,7.265h1.845l1.83-7.633Z" transform="translate(-322.327 -258.34)" fill="#355585"/>
    <path id="Path_26361" data-name="Path 26361" d="M710.39,550.548l5.893-6.067,1.845-6.645-1.477-1.477-1.83,7.928-4.431,5.051Z" transform="translate(-338.646 -213.517)" fill="#355585"/>
    <path id="Path_26362" data-name="Path 26362" d="M679.707,533.153s-2.217-8.858-4.431-9.967-6.276-.388-5.9,2.214,1.1,1.109,1.1.74-.737-.74-.737-.74-.388-1.845,1.845-2.214,3.322,0,4.059.74,2.869,5.962,2.911,6.3.775,2.923.775,2.923S679.707,533.521,679.707,533.153Z" transform="translate(-313.515 -205.142)" fill="#355585"/>
    <path id="Path_26363" data-name="Path 26363" d="M690.7,523.073s0-12.18-2.586-13.289-4.427-.368-4.427.737.737,2.586,1.109,1.849-.388-.74-.388-.74-1.1-.737.388-1.477,2.95-.737,3.691.74a8.773,8.773,0,0,1,1.1,3.322c.368,1.845.74,8.858.74,8.858S690.335,523.441,690.7,523.073Z" transform="translate(-322.297 -196.908)" fill="#355585"/>
    <path id="Path_26364" data-name="Path 26364" d="M707.451,616.71l1.617-8.746-4.427-5.536v-.368l5.168,5.168-.977,9.482Z" transform="translate(-335.125 -253.747)" fill="#355585"/>
    <path id="Path_26365" data-name="Path 26365" d="M653.579,560.081l10.013-1.062.178-1.237-10.258.849L641.65,549.04l-.74,1.477Z" transform="translate(-296.101 -221.281)" fill="#355585"/>
    <path id="Path_26366" data-name="Path 26366" d="M727.292,534.44l.725-.547s1.489-1.3,1.12-2.407-1.477-2.214-1.845-1.109-.752,2.039-.752,2.039Z" transform="translate(-348.535 -209.573)" fill="#355585"/>
    <path id="Path_26367" data-name="Path 26367" d="M751.876,258.882l-28.455,30.556L694.9,319.924l-14.22,15.27-7.149,7.6-7.23,7.552-7.265,7.494c-2.435,2.485-4.857,4.981-7.311,7.451q-7.319,7.443-14.789,14.731l-.143-.132q6.9-7.846,13.956-15.545c2.326-2.578,4.706-5.129,7.059-7.691l7.1-7.649,7.145-7.575,7.218-7.54,14.5-15.014,28.947-30.087,29.017-30.021Z" transform="translate(-293.578 -43.538)"/>
    <path id="Path_26368" data-name="Path 26368" d="M641.246,547.184a2.613,2.613,0,0,1,2.531,1.88c.388,1.326.267,2.857-2.229,2.768-4.361-.155-1.938-4.652-1.938-4.652Z" transform="translate(-294.894 -220.142)" fill="#355585"/>
    <path id="Path_26369" data-name="Path 26369" d="M812.545,527.688l-77.622,19.585L721.94,506.355l77.622-19.585Z" transform="translate(-345.719 -183.151)" fill="#fff"/>
    <path id="Path_26370" data-name="Path 26370" d="M727.881,532.184l1.365,1.64a.582.582,0,0,0,.977-.147,3.819,3.819,0,0,0,.388-2.268c-.368-1.109-2.95-2.155-3.318-1.051s-.752,2.039-.752,2.039Z" transform="translate(-348.535 -209.554)" fill="#355585"/>
    <path id="Path_26371" data-name="Path 26371" d="M210.8,664.34c3.175-2.066,7.009-2.578,10.727-2.454a49.9,49.9,0,0,1,11.289,1.721,26.847,26.847,0,0,1,10.114,4.931,17.518,17.518,0,0,1,5.675,8.424,14.7,14.7,0,0,1,.508,2.45,7.812,7.812,0,0,1-.07,2.5,11.434,11.434,0,0,1-.26,1.19c-.054.2-.062.426-.244.508a1.1,1.1,0,0,1-.477,0,1.888,1.888,0,0,1-1.31-.8,3.427,3.427,0,0,1-.6-1.632c-.074-.578,0,.388,0,.43a2.746,2.746,0,0,0,.027-.295,2.78,2.78,0,0,1,.5-1.275c1-1.341,2.873-1.694,4.443-1.744a45.01,45.01,0,0,1,5.955.388q3.245.326,6.478.8c4.369.636,8.707,1.454,13.018,2.4,8.56,1.876,17,4.264,25.4,6.738l3.136.93c-.081-.023.093-.938,0-.969-8.843-2.632-17.709-5.206-26.706-7.261-4.489-1.023-9.005-1.919-13.568-2.617q-3.408-.527-6.838-.9a60.637,60.637,0,0,0-6.431-.473c-1.671,0-3.582.271-4.757,1.593a4.358,4.358,0,0,0-.628,3.392c.147,1.1.942,2.407,2.225,2.279.264-.027.264-.078.333-.318s.1-.388.147-.558a11.619,11.619,0,0,0,.248-1.407,18.041,18.041,0,0,0,.081-2.148,16,16,0,0,0-3.384-9.6,21.356,21.356,0,0,0-9.164-6.656A44.306,44.306,0,0,0,225,661.2c-3.877-.45-7.982-.547-11.673.888a13.778,13.778,0,0,0-2.516,1.295c-.151.1.143.876,0,.969Z" transform="translate(-32.708 -289.782)"/>
    <path id="Path_26372" data-name="Path 26372" d="M157.35,502.657l.682-1.147,36.2,15.592-.682,1.148Z" transform="translate(0 -192.177)" fill="#dadada"/>
    <path id="Path_26373" data-name="Path 26373" d="M251.4,541.73l1.008,70.943-.682,1.151-1.008-70.946Z" transform="translate(-57.174 -216.805)" fill="#dadada"/>
    <path id="Path_26374" data-name="Path 26374" d="M193.546,520.062l1.008,70.946-36.2-15.592L157.35,504.47Z" transform="translate(0 -193.989)" fill="#fff"/>
    <path id="Path_26375" data-name="Path 26375" d="M1218.264,948.681l-68.124-4.474,7.459-15.417h66.135Z" transform="translate(-618.388 -474.333)" fill="#fff"/>
    <path id="Path_26376" data-name="Path 26376" d="M1218.264,948.681l-68.124-4.474V945.7l68.124,4.474,5.47-19.891V928.79Z" transform="translate(-618.388 -474.333)" fill="#dadada"/>
    <path id="Path_26377" data-name="Path 26377" d="M1095.783,895.336l-57.723-31.4,29.021-22.136,57.723,31.4Z" transform="translate(-549.757 -421.066)" fill="#f9f9f9"/>
    <path id="Path_26378" data-name="Path 26378" d="M1215.98,922.8l.62,1.07-29.021,22.14-.62-1.074Z" transform="translate(-640.934 -470.665)" fill="#dadada"/>
    <path id="Path_26379" data-name="Path 26379" d="M1096.4,931.375l-57.723-31.4-.62-1.074,57.723,31.4Z" transform="translate(-549.757 -456.03)" fill="#dadada"/>
    <path id="Path_26380" data-name="Path 26380" d="M1035.686,924.695,972.47,906.758l23.442-27.978,63.216,17.937Z" transform="translate(-509.594 -443.71)" fill="#fff"/>
    <path id="Path_26381" data-name="Path 26381" d="M1158.982,925.05l.838.907-23.442,27.978-.837-.907Z" transform="translate(-609.448 -472.043)" fill="#dadada"/>
    <path id="Path_26382" data-name="Path 26382" d="M1036.524,969.794l-63.216-17.937-.837-.907,63.216,17.937Z" transform="translate(-509.594 -487.902)" fill="#dadada"/>
    <rect id="Rectangle_18848" data-name="Rectangle 18848" width="15.507" height="15.507" rx="2" transform="translate(414.465 428.148)" fill="#24c0a0"/>
    <path id="Path_26411" data-name="Path 26411" d="M807.155,721.8l9.3-7.366,1.857-11.913-2.326,1.551-.775,10.079-8.835,7.261Z" transform="translate(-397.424 -315.262)" fill="#919191"/>
    <path id="Path_26412" data-name="Path 26412" d="M780.161,737.047s4.784,1.593,7.145-.411,2.652-5.156.9-6.59-4.7-.744-6.823,1.1S780.192,737,780.161,737.047Z" transform="translate(-381.261 -331.646)" fill="#919191"/>
    <path id="Path_26413" data-name="Path 26413" d="M796.1,752.618c2.3,1.768,5.179,2.4,6.505,1.043s.388-4.233-2.163-6.055-5.528-1.872-6.59-.473S793.8,750.839,796.1,752.618Z" transform="translate(-389.494 -341.981)" fill="#919191"/>
    <path id="Path_26414" data-name="Path 26414" d="M814.113,761.143c-.411,2.182,2.733,4.412,7.218,5.427,4.578,1.163,9.874-5.815,9.754-5.924a21.007,21.007,0,0,0-8.021-2.752C818.416,757.333,814.528,758.98,814.113,761.143Z" transform="translate(-402.137 -349.102)" fill="#919191"/>
    <path id="Path_26415" data-name="Path 26415" d="M780.624,736.79a10.776,10.776,0,0,0,.078,3.722s4.8,1.5,7.083-.539a6.011,6.011,0,0,0,1.551-2.175,5.652,5.652,0,0,1-1.985,3.458c-2.361,2-7.16.388-7.145.411S779.643,738.748,780.624,736.79Z" transform="translate(-381.302 -336.247)" fill="#6c6c6c"/>
    <path id="Path_26416" data-name="Path 26416" d="M793.73,754.2a8.614,8.614,0,0,0,1.9,1.838c2.361,1.7,5.253,2.26,6.536.88a2.47,2.47,0,0,0,.446-2.326c.95,1.5,1.051,3.078.178,3.981-1.326,1.357-4.2.725-6.505-1.043A6.831,6.831,0,0,1,793.73,754.2Z" transform="translate(-389.678 -346.908)" fill="#6c6c6c"/>
    <path id="Path_26417" data-name="Path 26417" d="M814.1,764.654c1.113,1.423,3.632,2.714,6.811,3.338,3.353.706,7.125-2.8,8.676-4.892a15.088,15.088,0,0,1,1.508.818c.124.112-5.175,7.086-9.754,5.923C817.03,768.853,813.972,766.744,814.1,764.654Z" transform="translate(-402.151 -352.358)" fill="#6c6c6c"/>
    <path id="Path_26418" data-name="Path 26418" d="M835.37,769.77c.074-.081,2.477,1.388,2.543,1.3,0-.019-2.3-1.589-2.287-1.609,1.365,1.1,8.645,6.2,8.645,6.2l-1.163,8.85h-4.264l4.47-8.583S836.506,770.863,835.37,769.77Z" transform="translate(-415.176 -356.252)" fill="#6c6c6c"/>
    <path id="Path_26419" data-name="Path 26419" d="M820.025,776.54a62.118,62.118,0,0,1-4.175,5.532l4.086,6.8,3.256-.035-6.156-6.687a41.356,41.356,0,0,0,3.26-5.288Z" transform="translate(-403.223 -360.587)" fill="#6c6c6c"/>
    <path id="Path_26420" data-name="Path 26420" d="M796.123,715.009c.206-.081-1.527-9.052-.427-10.9,1.357-1.884,5.191-3.33,6.462-.651,1.2,2.714-.329,1.617-.531,1.256s.213-1.074.213-1.074a2.218,2.218,0,0,0-2.911-1.2c-2.124.717-2.892,1.512-3.159,2.485-.155.958.314,6.567.326,6.92a30.811,30.811,0,0,1,.407,3.063S796.263,715.37,796.123,715.009Z" transform="translate(-390.657 -314.935)" fill="#6c6c6c"/>
    <path id="Path_26421" data-name="Path 26421" d="M783.132,710.021c.264-.267-5.3-10.773-3.974-12.405,1.6-1.938,3.539-2.248,4.237-1.306s.907,2.539.155,2.059-.116-.775-.116-.775.5-1.128-1.2-1.07-2.946.675-2.776,2.14a9,9,0,0,0,.775,3.148c.717,1.589,3.381,8.063,3.284,8.141C783.5,709.928,783.648,710.277,783.132,710.021Z" transform="translate(-380.631 -311.145)" fill="#6c6c6c"/>
    <line id="Line_3262" data-name="Line 3262" x1="12.405" transform="translate(416.093 428.257)" fill="none" stroke="#b5b5b5" stroke-miterlimit="10" stroke-width="1.73"/>
    <path id="Path_26422" data-name="Path 26422" d="M806.027,722.862l-1.163-10.855.779-2.857,2.71,14.487-10.909,5.451-1-.721Z" transform="translate(-391.338 -319.322)" fill="#6c6c6c"/>
    <rect id="Rectangle_18849" data-name="Rectangle 18849" width="38.611" height="44.312" rx="7.89" transform="translate(441.752 487.967) rotate(180)" fill="#e4e4e4"/>
    <line id="Line_3263" data-name="Line 3263" x1="174.061" transform="translate(272.544 487.967)" fill="none" stroke="#b5b5b5" stroke-miterlimit="10" stroke-width="1.73"/>
    <path id="Path_26435" data-name="Path 26435" d="M1045.542,644.52l15.088,28.358-1.058.752-15.092-28.358Z" transform="translate(-543.221 -279.747)" fill="#dadada"/>
    <path id="Path_26436" data-name="Path 26436" d="M973.545,624.171l-54.463-32.064L903.99,563.75l54.463,32.064Z" transform="translate(-457.194 -230.289)" fill="#f9f9f9"/>
    <path id="Path_26437" data-name="Path 26437" d="M958.453,594.626,903.99,562.562l1.062-.752,54.463,32.064Z" transform="translate(-457.194 -229.101)" fill="#dadada"/>
    <path id="Path_26438" data-name="Path 26438" d="M886.029,633.373c-7.455-1.268-15.724-.221-22.295,3.656a20.608,20.608,0,0,0-7.474,7.28,14.755,14.755,0,0,0-1.671,4.326,10,10,0,0,0-.163,4.082c.473,2.043,3.078,2.931,4.877,3.373a14.468,14.468,0,0,0,6.528.085,4.714,4.714,0,0,0,0-.81c-1.764-2.2-4.8-3.078-7.5-3.357a22.331,22.331,0,0,0-10,1.516,53.22,53.22,0,0,0-5.369,2.4c-.112.058.1.756,0,.81,5.846-2.946,12.7-5.489,19.2-3.051a8.4,8.4,0,0,1,3.667,2.489v-.814a14.462,14.462,0,0,1-5.567.12,10.014,10.014,0,0,1-4.877-2.02,2.993,2.993,0,0,1-.748-.954,2.941,2.941,0,0,1-.205-.6c-.023-.1-.043-.206-.058-.31-.023-.167,0-.558-.031-.225a11.986,11.986,0,0,1,.337-2.326,14.893,14.893,0,0,1,1.733-4.179c3.59-6,10.366-9.3,17.03-10.572a35.736,35.736,0,0,1,12.6-.128c-.039,0,.05-.8,0-.81Z" transform="translate(-419.807 -272.609)"/>
    <g id="Group_38877" data-name="Group 38877">
      <path id="Path_26383" data-name="Path 26383" d="M475.91,661.55H583.429v65.128a3.028,3.028,0,0,1-3.028,3.028H478.941a3.028,3.028,0,0,1-3.028-3.028V661.55Z" transform="translate(-195.066 -290.174)" fill="#919191"/>
      <path id="Path_26384" data-name="Path 26384" d="M505.82,637.33h83.1a1,1,0,0,1,1,1v8.389h-85.1V638.33A1,1,0,0,1,505.82,637.33Z" transform="translate(-212.768 -275.344)" fill="#919191"/>
      <rect id="Rectangle_18829" data-name="Rectangle 18829" width="111.151" height="23.02" transform="translate(278.973 419.531)" fill="#b7b7b7"/>
      <path id="Path_26385" data-name="Path 26385" d="M475.77,836.55H583.285v46.585c0,1.2-1.356,2.166-3.028,2.166H478.8c-1.672,0-3.028-.97-3.028-2.166Z" transform="translate(-194.98 -397.334)" fill="#dadada"/>
      <path id="Path_26386" data-name="Path 26386" d="M693.172,946.747a5.9,5.9,0,0,0-2.594,11.413Z" transform="translate(-324.145 -482.297)" fill="#b7b7b7"/>
      <path id="Path_26387" data-name="Path 26387" d="M703.087,947.66l-2.6,11.409a5.9,5.9,0,0,0,2.6-11.409Z" transform="translate(-332.584 -482.871)" fill="#b7b7b7"/>
      <path id="Path_26388" data-name="Path 26388" d="M670.394,936.056a2.714,2.714,0,0,0-4.718,2.659Z" transform="translate(-311.102 -475.014)" fill="#b7b7b7"/>
      <path id="Path_26389" data-name="Path 26389" d="M671.714,939.61,667,942.269a2.714,2.714,0,0,0,4.722-2.659Z" transform="translate(-312.076 -477.941)" fill="#b7b7b7"/>
      <path id="Path_26390" data-name="Path 26390" d="M727.941,938.736a2.714,2.714,0,0,0-4.741-2.617Z" transform="translate(-346.49 -475.041)" fill="#b7b7b7"/>
      <path id="Path_26391" data-name="Path 26391" d="M726.642,942.287,721.9,939.67a2.714,2.714,0,0,0,4.745,2.617Z" transform="translate(-345.527 -477.979)" fill="#b7b7b7"/>
      <path id="Path_26392" data-name="Path 26392" d="M764.43,802.291V773.216a3.1,3.1,0,0,1,3.187-3.028h2.869a3.1,3.1,0,0,1,3.187,3.028v29.075a3.1,3.1,0,0,1-3.187,3.028h-2.869a3.1,3.1,0,0,1-3.187-3.028Z" transform="translate(-371.736 -356.697)" fill="#919191"/>
      <path id="Path_26393" data-name="Path 26393" d="M440.61,802.291V773.216a3.1,3.1,0,0,1,3.187-3.028h2.869a3.1,3.1,0,0,1,3.183,3.028v29.075a3.1,3.1,0,0,1-3.183,3.028H443.8a3.1,3.1,0,0,1-3.187-3.028Z" transform="translate(-173.451 -356.697)" fill="#919191"/>
      <path id="Path_26394" data-name="Path 26394" d="M753.65,811.576v-8.529c0-.492,1.322-.888,2.954-.888h2.663c1.632,0,2.958.388,2.958.888v8.529c0,.488-1.326.888-2.958.888H756.6C754.972,812.464,753.65,812.065,753.65,811.576Z" transform="translate(-365.137 -376.275)" fill="#919191"/>
      <path id="Path_26395" data-name="Path 26395" d="M453.11,811.576v-8.529c0-.492,1.322-.888,2.958-.888h2.659c1.636,0,2.958.388,2.958.888v8.529c0,.488-1.322.888-2.958.888h-2.659C454.432,812.464,453.11,812.065,453.11,811.576Z" transform="translate(-181.104 -376.275)" fill="#919191"/>
      <rect id="Rectangle_18836" data-name="Rectangle 18836" width="94.191" height="37.805" transform="translate(287.451 376.881)" fill="#fff"/>
      <rect id="Rectangle_18837" data-name="Rectangle 18837" width="94.191" height="0.229" transform="translate(287.451 376.654)" fill="#dadada"/>
      <rect id="Rectangle_18838" data-name="Rectangle 18838" width="94.191" height="40.833" transform="translate(287.451 382.939)" fill="#fff"/>
      <rect id="Rectangle_18839" data-name="Rectangle 18839" width="94.191" height="0.229" transform="translate(287.451 382.711)" fill="#dadada"/>
      <rect id="Rectangle_18840" data-name="Rectangle 18840" width="94.191" height="37.805" transform="translate(287.451 385.967)" fill="#fff"/>
      <rect id="Rectangle_18841" data-name="Rectangle 18841" width="94.191" height="0.229" transform="translate(287.451 385.738)" fill="#dadada"/>
      <rect id="Rectangle_18842" data-name="Rectangle 18842" width="1.818" height="23.02" transform="translate(278.973 419.531)" fill="#919191"/>
      <rect id="Rectangle_18843" data-name="Rectangle 18843" width="1.818" height="23.02" transform="translate(388.305 419.531)" fill="#919191"/>
      <path id="Path_26396" data-name="Path 26396" d="M656.944,644.557c.1-.364.116-.523-.023-.628s-.275-.035-.388.085c-.31.31-.446.868-.942.907-.57.043-.682-.6-1.047-.888a1.389,1.389,0,0,0-.124-.085.291.291,0,0,0-.407,0,.3.3,0,0,0-.035.411c.081.128.163.252.256.388a1.865,1.865,0,0,1,.2,2.531,3.394,3.394,0,0,0-.388.729c-.109.26-.2.574.124.729s.535-.05.682-.31.322-.62.651-.7c.527-.128.306.469.543.643.1.074.167.186.267.26a.748.748,0,0,0,.969.085c.271-.233.116-.566-.023-.837a3.685,3.685,0,0,0-.492-.841,1.313,1.313,0,0,1-.1-1.783A4.074,4.074,0,0,0,656.944,644.557Z" transform="translate(-304.064 -279.346)" fill="#dadada"/>
      <path id="Path_26397" data-name="Path 26397" d="M641.751,646.3a1.993,1.993,0,0,0-1.066-.194c-.492-.066-.81-.268-.775-.81a.745.745,0,0,1,.837-.775c.492,0,1.008,0,1.512-.031.171,0,.407,0,.411-.233s-.225-.244-.388-.244h-2.493c-.461,0-.671.283-.651.744q.074,1.772.147,3.547a.624.624,0,0,0,.717.678h2.326c.283,0,.593,0,.589-.407s-.268-.453-.57-.461h-1.512c-.5,0-.872-.136-.876-.709s.31-.814.83-.892C641.073,646.456,641.41,646.557,641.751,646.3Z" transform="translate(-295.016 -279.434)" fill="#dadada"/>
      <path id="Path_26398" data-name="Path 26398" d="M593.333,647.477h-.023v1.667c0,.36.136.647.558.671a11.317,11.317,0,0,0,2.113-.07c.159,0,.31-.074.31-.264a.3.3,0,0,0-.279-.306c-.353-.035-.706-.05-1.058-.054-.659,0-1.043-.279-1.043-1s-.035-1.361-.07-2.039c0-.256.112-.7-.217-.7s-.279.454-.291.737C593.318,646.57,593.333,647.024,593.333,647.477Z" transform="translate(-266.953 -280.273)" fill="#dadada"/>
      <path id="Path_26399" data-name="Path 26399" d="M561.854,647.293a1.12,1.12,0,0,0,.2-1.458c-.5-.806-1.415-.419-2.148-.531a.857.857,0,0,0-1.031.434,1.619,1.619,0,0,0-.089.516c-.043.55-.078,1.1-.128,1.83v1.109c0,.426.05.748.535.748s.465-.364.508-.7-.12-.775.283-.834.562.357.709.682a2.708,2.708,0,0,0,.14.349c.2.329.492.547.872.341s.081-.508-.039-.7A1.218,1.218,0,0,1,561.854,647.293Zm-1.5,0c-.589-.023-.674-.423-.671-.884,0-.651.457-.694.946-.678a.757.757,0,0,1,.849.841c-.054.62-.574.74-1.136.717Z" transform="translate(-245.736 -280.201)" fill="#dadada"/>
      <path id="Path_26400" data-name="Path 26400" d="M609.89,644.648a3.411,3.411,0,0,0-2.357-.2,2.326,2.326,0,0,0-1.938,1.814,2.1,2.1,0,0,0,.83,2.214,2.857,2.857,0,0,0,2.136.713,3.571,3.571,0,0,0,.388,0,2.906,2.906,0,0,0,2.276-1.938A2.192,2.192,0,0,0,609.89,644.648Zm-1.461,3.787a1.856,1.856,0,0,1-2.117-1.845,2.114,2.114,0,0,1,4.2-.047C610.534,647.687,609.735,648.412,608.429,648.436Z" transform="translate(-274.439 -279.627)" fill="#dadada"/>
      <path id="Path_26401" data-name="Path 26401" d="M628.441,645.42a3.2,3.2,0,0,0-3.249-1.283.624.624,0,0,0-.469.682v1.663H624.7v1.132c0,1.334.147,1.481,1.481,1.384a3.1,3.1,0,0,0,.388-.039A2.463,2.463,0,0,0,628.441,645.42Zm-1.512,2.586c-.795.388-1.314.043-1.361-.837a13.733,13.733,0,0,1-.047-1.737.835.835,0,0,1,1.357-.694c.616.36,1.221.752,1.163,1.551A1.7,1.7,0,0,1,626.929,648.005Z" transform="translate(-286.176 -279.461)" fill="#dadada"/>
      <path id="Path_26402" data-name="Path 26402" d="M578.766,646.566a2.3,2.3,0,0,0-2.462-1.489,2.7,2.7,0,0,0-2.5,1.124,2.179,2.179,0,0,0-.027,2.365,2.283,2.283,0,0,0,2.295,1.163c.349-.035.706-.035,1.051-.1a2.326,2.326,0,0,0,1.64-3.059Zm-2.613,2.6a1.943,1.943,0,0,1-2.093-1.822,2.046,2.046,0,0,1,2.2-1.907,1.934,1.934,0,0,1,2.132,1.853A2.074,2.074,0,0,1,576.153,649.164Z" transform="translate(-254.789 -280.088)" fill="#dadada"/>
      <path id="Path_26403" data-name="Path 26403" d="M554.036,767.8h0a2.876,2.876,0,0,1,2.876,2.876v21.05H551.16v-21.05A2.876,2.876,0,0,1,554.036,767.8Z" transform="translate(-241.145 -355.236)" fill="#919191"/>
      <path id="Path_26404" data-name="Path 26404" d="M665.756,767.8h0a2.876,2.876,0,0,1,2.876,2.876v21.05H662.88v-21.05A2.876,2.876,0,0,1,665.756,767.8Z" transform="translate(-309.555 -355.236)" fill="#919191"/>
      <path id="Path_26405" data-name="Path 26405" d="M554.036,766.24a2.876,2.876,0,0,0-2.876,2.876v.6a2.876,2.876,0,1,1,5.753,0v-.6A2.876,2.876,0,0,0,554.036,766.24Z" transform="translate(-241.145 -354.279)" fill="#7f7f7f"/>
      <path id="Path_26406" data-name="Path 26406" d="M665.756,766.24a2.876,2.876,0,0,0-2.877,2.876v.6a2.877,2.877,0,0,1,5.753,0v-.6A2.876,2.876,0,0,0,665.756,766.24Z" transform="translate(-309.555 -354.279)" fill="#7f7f7f"/>
      <path id="Path_26423" data-name="Path 26423" d="M521.981,741.8l-11.7-6.742-2.415-9.758a1.6,1.6,0,0,1,2.613-1.586l.287.252,1.586,9.4,10.2,7.753Z" transform="translate(-214.605 -325.998)" fill="#919191"/>
      <path id="Path_26424" data-name="Path 26424" d="M552.594,749.076s-3.822,3.291-6.765,2.326-4.412-3.768-3.33-5.745,4.063-2.469,6.73-1.57S552.555,749.048,552.594,749.076Z" transform="translate(-235.623 -338.449)" fill="#919191"/>
      <path id="Path_26425" data-name="Path 26425" d="M544.673,767.852c-1.462,2.512-3.877,4.187-5.625,3.431s-1.969-3.764-.295-6.42,4.4-3.83,5.927-2.938S546.127,765.336,544.673,767.852Z" transform="translate(-232.846 -349.457)" fill="#919191"/>
      <path id="Path_26426" data-name="Path 26426" d="M519.29,784.144c1.206,1.861-.861,5.117-4.617,7.773-3.8,2.811-11.343-1.632-11.273-1.783a21.066,21.066,0,0,1,6.377-5.59C513.858,782.244,518.084,782.295,519.29,784.144Z" transform="translate(-211.898 -362.412)" fill="#919191"/>
      <path id="Path_26427" data-name="Path 26427" d="M551.21,746.46a10.826,10.826,0,0,1,1.341,3.489s-3.877,3.206-6.772,2.167a5.974,5.974,0,0,1-2.248-1.431,5.632,5.632,0,0,0,3.148,2.45c2.942.962,6.772-2.349,6.765-2.326S552.877,747.894,551.21,746.46Z" transform="translate(-236.473 -340.168)" fill="#6c6c6c"/>
      <path id="Path_26428" data-name="Path 26428" d="M545.775,767.2a8.5,8.5,0,0,1-1.062,2.419c-1.551,2.469-4,4.086-5.71,3.3a2.454,2.454,0,0,1-1.287-1.969c-.314,1.745.19,3.245,1.341,3.749,1.745.775,4.167-.919,5.625-3.431A6.958,6.958,0,0,0,545.775,767.2Z" transform="translate(-232.855 -352.867)" fill="#6c6c6c"/>
      <path id="Path_26429" data-name="Path 26429" d="M519.4,786.87c-.492,1.737-2.326,3.877-5.04,5.672-2.838,1.938-7.656.1-9.885-1.237a15.6,15.6,0,0,0-1.085,1.33c-.07.151,7.474,4.594,11.273,1.783C518.283,791.863,520.315,788.754,519.4,786.87Z" transform="translate(-211.893 -364.912)" fill="#6c6c6c"/>
      <path id="Path_26432" data-name="Path 26432" d="M525.582,749.166c-.2.2-7.412-5.172-9.785-4.652-2.555.775-6.2,4.489-4.5,6.931,1.775,2.372,1.69.252,1.481-.112s-1.116-.171-1.12-.174-1.31-1.632.655-3.694,3.14-2.632,4.2-2.555a62.584,62.584,0,0,1,6.179,3.02,23.953,23.953,0,0,0,2.574,1.628S525.83,749.461,525.582,749.166Z" transform="translate(-216.465 -338.955)" fill="#6c6c6c"/>
      <path id="Path_26433" data-name="Path 26433" d="M530.288,732.3c-.388.19-6.726-10.025-9.029-9.18-2.745,1.047-4.21,3.066-3.764,4.206s1.791,1.985,1.807.961-.659-.426-.663-.426-1.341.12-.264-1.745,2.4-3.016,3.652-2.264a7.005,7.005,0,0,1,2.438,2.059c1.027,1.407,5.385,6.854,5.509,6.772C529.974,732.681,530.211,732.976,530.288,732.3Z" transform="translate(-220.48 -325.848)" fill="#6c6c6c"/>
      <path id="Path_26434" data-name="Path 26434" d="M567.052,750.13l-2.465,7.521-7.761,1.116-.655,1.047,10.339-1.291,2.551-7.8Z" transform="translate(-244.211 -342.416)" fill="#6c6c6c"/>
      <path id="Rectangle_18909" data-name="Rectangle 18909" d="M2,0H20a2,2,0,0,1,2,2V6.234a0,0,0,0,1,0,0H0a0,0,0,0,1,0,0V2A2,2,0,0,1,2,0Z" transform="translate(293.352 376.654)" fill="#ffac43" opacity="0.7"/>
      <path id="Path_27809" data-name="Path 27809" d="M534.017,674.538l-1.187-.021.021-1.048,3.7.065-.021,1.05-1.187-.021-.05,2.968-1.353-.024Z" transform="translate(-229.908 -295.625)" fill="#fff"/>
      <g id="Group_38878" data-name="Group 38878" transform="translate(-577.65 -165.332)">
        <g id="Group_38878-2" data-name="Group 38878" transform="translate(284.23 -110.01)">
          <rect id="Rectangle_18916" data-name="Rectangle 18916" width="94.19" height="4.618" transform="translate(580.869 713.59)" fill="#fff"/>
          <rect id="Rectangle_18917" data-name="Rectangle 18917" width="94.19" height="0.228" transform="translate(580.869 716.459)" fill="#dadada"/>
          <rect id="Rectangle_18918" data-name="Rectangle 18918" width="94.19" height="3.844" transform="translate(580.869 712.682)" fill="#fff"/>
          <rect id="Rectangle_18919" data-name="Rectangle 18919" width="94.19" height="0.228" transform="translate(580.869 716.326)" fill="#dadada"/>
          <rect id="Rectangle_18920" data-name="Rectangle 18920" width="94.19" height="4.618" transform="translate(580.869 711.775)" fill="#fff"/>
          <rect id="Rectangle_18921" data-name="Rectangle 18921" width="94.19" height="0.228" transform="translate(580.869 711.547)" fill="#dadada"/>
          <rect id="Rectangle_18930" data-name="Rectangle 18930" width="94.19" height="2.88" transform="translate(580.869 708.752)" fill="#fff"/>
          <rect id="Rectangle_18931" data-name="Rectangle 18931" width="94.19" height="3.844" transform="translate(580.869 706.635)" fill="#fff"/>
          <rect id="Rectangle_18932" data-name="Rectangle 18932" width="94.19" height="0.228" transform="translate(580.869 706.406)" fill="#dadada"/>
          <rect id="Rectangle_18933" data-name="Rectangle 18933" width="94.19" height="0.228" transform="translate(580.869 710.459)" fill="#dadada"/>
        </g>
        <path id="Rectangle_18991" data-name="Rectangle 18991" d="M0,0H22a0,0,0,0,1,0,0V3a2,2,0,0,1-2,2H2A2,2,0,0,1,0,3V0A0,0,0,0,1,0,0Z" transform="translate(903.002 606.551)" fill="#65d3bc"/>
        <path id="Rectangle_18992" data-name="Rectangle 18992" d="M0,0H22a0,0,0,0,1,0,0V3a2,2,0,0,1-2,2H2A2,2,0,0,1,0,3V0A0,0,0,0,1,0,0Z" transform="translate(935.002 600.48)" fill="#889cc2"/>
      </g>
      <path id="Path_29512" data-name="Path 29512" d="M504.941,797.84c-.078-.081-.244-.291-.26-.31-1.365,1.093-8.641,6.2-8.641,6.2l1.147,8.835h4.264l-4.47-8.583S503.8,798.933,504.941,797.84Z" transform="translate(-207.393 -371.439)" fill="#6c6c6c"/>
      <path id="Path_29513" data-name="Path 29513" d="M522.759,804.61a62.786,62.786,0,0,0,4.179,5.532l-4.082,6.8L519.6,816.9l6.152-6.714a41.272,41.272,0,0,1-3.264-5.288Z" transform="translate(-221.818 -375.775)" fill="#6c6c6c"/>
    </g>
    <path id="Mail_Icon" data-name="Mail Icon" d="M196.421,164.017H163.6a2.085,2.085,0,0,0-2.051,2.116V190.62a2.085,2.085,0,0,0,2.051,2.116h32.821a2.085,2.085,0,0,0,2.051-2.116V166.133A2.085,2.085,0,0,0,196.421,164.017ZM167.7,171.635a1.412,1.412,0,0,1,1.961-.542,1.508,1.508,0,0,1,.267.205l10.082,7.749,10.08-7.749a1.4,1.4,0,0,1,2.029.068,1.512,1.512,0,0,1-.064,2.093,1.464,1.464,0,0,1-.258.2l-6.14,4.719,6.14,4.719a1.508,1.508,0,0,1,.515,2.027,1.408,1.408,0,0,1-2.22.334l-6.823-5.243-2.406,1.849a1.4,1.4,0,0,1-1.707,0l-2.406-1.849-6.823,5.243a1.413,1.413,0,0,1-1.965-.531,1.517,1.517,0,0,1,.261-1.83l6.14-4.719-6.14-4.719A1.5,1.5,0,0,1,167.7,171.635Z" transform="matrix(0.839, -0.545, 0.545, 0.839, -52.882, 215.038)" fill="#fff" opacity="0.6"/>
    <path id="Mail_Icon-2" data-name="Mail Icon" d="M196.421,164.017H163.6a2.085,2.085,0,0,0-2.051,2.116V190.62a2.085,2.085,0,0,0,2.051,2.116h32.821a2.085,2.085,0,0,0,2.051-2.116V166.133A2.085,2.085,0,0,0,196.421,164.017ZM167.7,171.635a1.412,1.412,0,0,1,1.961-.542,1.508,1.508,0,0,1,.267.205l10.082,7.749,10.08-7.749a1.4,1.4,0,0,1,2.029.068,1.512,1.512,0,0,1-.064,2.093,1.464,1.464,0,0,1-.258.2l-6.14,4.719,6.14,4.719a1.508,1.508,0,0,1,.515,2.027,1.408,1.408,0,0,1-2.22.334l-6.823-5.243-2.406,1.849a1.4,1.4,0,0,1-1.707,0l-2.406-1.849-6.823,5.243a1.413,1.413,0,0,1-1.965-.531,1.517,1.517,0,0,1,.261-1.83l6.14-4.719-6.14-4.719A1.5,1.5,0,0,1,167.7,171.635Z" transform="translate(234.755 44.443) rotate(45)" fill="#fff" opacity="0.6"/>
    <path id="Mail_Icon-3" data-name="Mail Icon" d="M196.421,164.017H163.6a2.085,2.085,0,0,0-2.051,2.116V190.62a2.085,2.085,0,0,0,2.051,2.116h32.821a2.085,2.085,0,0,0,2.051-2.116V166.133A2.085,2.085,0,0,0,196.421,164.017ZM167.7,171.635a1.412,1.412,0,0,1,1.961-.542,1.508,1.508,0,0,1,.267.205l10.082,7.749,10.08-7.749a1.4,1.4,0,0,1,2.029.068,1.512,1.512,0,0,1-.064,2.093,1.464,1.464,0,0,1-.258.2l-6.14,4.719,6.14,4.719a1.508,1.508,0,0,1,.515,2.027,1.408,1.408,0,0,1-2.22.334l-6.823-5.243-2.406,1.849a1.4,1.4,0,0,1-1.707,0l-2.406-1.849-6.823,5.243a1.413,1.413,0,0,1-1.965-.531,1.517,1.517,0,0,1,.261-1.83l6.14-4.719-6.14-4.719A1.5,1.5,0,0,1,167.7,171.635Z" transform="translate(544.187 78.199) rotate(45)" fill="#fff" opacity="0.6"/>
    <path id="Path_8038" data-name="Path 8038" d="M51.058,20.575a30.4,30.4,0,0,1-30.4,30.4h-.011a1.573,1.573,0,0,1-1.532-1.219L18.27,46.1l-.479-2.078-.252-1.079a1.591,1.591,0,0,1,.921-1.81l7.334-3.148a1.566,1.566,0,0,1,1.836.451l.826,1.01,1.383,1.687,1.044,1.279A24.294,24.294,0,0,0,42.5,30.806l-1.271-1.044-1.687-1.385-1.01-.826a1.56,1.56,0,0,1-.451-1.836l3.141-7.342a1.576,1.576,0,0,1,1.8-.9l1.087.244,2.078.477,3.655.844A1.576,1.576,0,0,1,51.058,20.575Z" transform="translate(555.98 251.913)" fill="#e4e4e4"/>
    <path id="Path_29519" data-name="Path 29519" d="M986.922,606.657,958.53,590.876a.964.964,0,1,1,.937-1.686h0l28.4,15.782a.965.965,0,0,1,.374,1.312h0a.963.963,0,0,1-1.311.374h0" transform="matrix(0.438, 0.899, -0.899, 0.438, 278.642, -788.51)" fill="#e4e4e4"/>
  </g>
</svg>
