<svg xmlns="http://www.w3.org/2000/svg" width="478.182" height="321" viewBox="0 0 478.182 321">
  <g id="Group_38054" data-name="Group 38054" transform="translate(-293 -303.629)">
    <rect id="Rectangle_15126" data-name="Rectangle 15126" width="76.902" height="18.836" rx="3" transform="translate(293 465.23)" fill="#fff"/>
    <rect id="Rectangle_15127" data-name="Rectangle 15127" width="140.001" height="35.958" transform="translate(532.939 312.38)" fill="#e4e4e4"/>
    <rect id="Rectangle_15128" data-name="Rectangle 15128" width="17.721" height="35.958" rx="3" transform="translate(695.883 338.322)" fill="#f2f2f2"/>
    <rect id="Rectangle_15129" data-name="Rectangle 15129" width="251.452" height="35.958" rx="3" transform="translate(382.305 415.116)" fill="#dadada" stroke="#919191" stroke-miterlimit="10" stroke-width="0.6" stroke-dasharray="4 6"/>
    <rect id="Rectangle_15130" data-name="Rectangle 15130" width="60.085" height="19.169" rx="3" transform="translate(681.084 415.116)" fill="#e4e4e4"/>
    <rect id="Rectangle_15131" data-name="Rectangle 15131" width="20.48" height="20.547" rx="5" transform="translate(472.136 356.868)" fill="#d9d9d9"/>
    <rect id="Rectangle_15132" data-name="Rectangle 15132" width="138.589" height="53.452" rx="3" transform="translate(592.398 581.167) rotate(-45)" fill="#e4e4e4"/>
    <rect id="Rectangle_15133" data-name="Rectangle 15133" width="59.636" height="53.452" rx="3" transform="translate(742.196 617.014) rotate(180)" fill="#d9d9d9"/>
    <rect id="Rectangle_15134" data-name="Rectangle 15134" width="21.329" height="19.264" transform="translate(742.205 603.393) rotate(-45)" fill="#e4e4e4"/>
    <rect id="Rectangle_15135" data-name="Rectangle 15135" width="59.794" height="25.918" transform="translate(711.297 537.451)" fill="#e4e4e4"/>
    <rect id="Rectangle_15136" data-name="Rectangle 15136" width="43.029" height="25.918" transform="translate(732.383 488.571) rotate(45)" fill="#d9d9d9"/>
    <line id="Line_3009" data-name="Line 3009" x2="133.568" transform="translate(637.613 617.01)" fill="none" stroke="#dadada" stroke-miterlimit="10" stroke-width="2"/>
    <line id="Line_3010" data-name="Line 3010" x2="28.063" transform="translate(639.91 623.32)" fill="none" stroke="#b5b5b5" stroke-miterlimit="10" stroke-width="2"/>
    <line id="Line_3011" data-name="Line 3011" x2="32.835" transform="translate(700.811 623.32)" fill="none" stroke="#b5b5b5" stroke-miterlimit="10" stroke-width="2"/>
    <rect id="Rectangle_15137" data-name="Rectangle 15137" width="94.858" height="68.376" transform="translate(648.717 527.892) rotate(7.25)" fill="#b5b5b5"/>
    <path id="Path_21373" data-name="Path 21373" d="M1487.3,1166.749a7.263,7.263,0,0,0-1.076-.407,4.143,4.143,0,0,0-1.616-.105,2.751,2.751,0,0,0-1.094.389,2.033,2.033,0,0,0-.628.606,4.547,4.547,0,0,0-3-2.191,5.326,5.326,0,0,0-3.425.123,1.837,1.837,0,0,0-.172.074h-.021a.11.11,0,0,1,.021-.035,2.582,2.582,0,0,0,.326-.54,1.961,1.961,0,0,0,.179-.982,1.693,1.693,0,0,0-.41-.975,2.454,2.454,0,0,0-1.378-.782l-.137-.025a6.279,6.279,0,0,1-2.71-2.8c-.189-.351-.351-.7-.533-1.052a5.634,5.634,0,0,1-.477-1.1,1.36,1.36,0,0,1,.291-1.171,5.264,5.264,0,0,1,1.052-1.02,6.839,6.839,0,0,1,.7-.459,1.5,1.5,0,0,1,.729-.235h.077a.774.774,0,0,0-.217.287.506.506,0,0,0-.035.266c0,.105.137.14.266.137a.68.68,0,0,0,.543-.3.351.351,0,0,0-.112-.452,1.277,1.277,0,0,0-1.525.214,12.921,12.921,0,0,0-1.4,1.14,1.956,1.956,0,0,0-.645,1.4,3.778,3.778,0,0,0,.512,1.325,12.289,12.289,0,0,0,1.473,2.454,5.8,5.8,0,0,0,1.4,1.259,3.085,3.085,0,0,0-.379.052l-.295.046a4.4,4.4,0,0,0-.55.151c-1.006-.813-2.016-1.662-3-2.556a13.1,13.1,0,0,1-1.521-1.5,2.454,2.454,0,0,1-.652-1.826,1.125,1.125,0,0,1,.592-.932.7.7,0,0,1,.182-.042c-.063.277.2.515.564.424a.171.171,0,0,0,.105-.084c.119-.291-.1-.508-.41-.554a.139.139,0,0,0-.077,0,1.132,1.132,0,0,0-.939.48,1.633,1.633,0,0,0-.291,1.052,2.342,2.342,0,0,0,.3,1.052,6.7,6.7,0,0,0,1.465,1.669q.9.824,1.83,1.606c.533.452,1.073.894,1.609,1.325a3.8,3.8,0,0,0-.883.522,4.161,4.161,0,0,0-1.5,4.4c.224.81,2.962.3,4.014-.568a6.988,6.988,0,0,1,1.031-.557,1.232,1.232,0,0,0-.182.484,1.518,1.518,0,0,0,.47,1.252,23.441,23.441,0,0,0-2.8.393,49.169,49.169,0,0,0-4.358,7.362c.9-.9,3.239-5.42,4.515-6.881a23.44,23.44,0,0,1,2.735-.782c.081.077.172.154.263.228a1.554,1.554,0,0,1,.789.5,7.68,7.68,0,0,0,1.809.649,7.013,7.013,0,0,0,2.556.147l.494.308a29.2,29.2,0,0,1,1.511,3.043c-.235.053-.41,2.128-.638,2.191.379-.088.7-2.184,1.1-2.251-.319-.792-.68-1.592-1.087-2.384a23.78,23.78,0,0,1,2.58,2.125,25.685,25.685,0,0,1,1.052,2.678,27.039,27.039,0,0,0-.743-2.8,24.435,24.435,0,0,0-3.351-3.183,1.817,1.817,0,0,0,.473-.312,2.4,2.4,0,0,0,.137.414,3.056,3.056,0,0,0,.673.943,5.867,5.867,0,0,0,1.1.824,12.026,12.026,0,0,0,1.171.621,28.509,28.509,0,0,1,5.1,2.387c.07.031.07.031.077-.021C1491.008,1173.5,1491.639,1168.761,1487.3,1166.749Z" transform="translate(-762.803 -552.15)" fill="#909090"/>
    <path id="Path_21374" data-name="Path 21374" d="M1470.44,1202.792h1.494s2.244-5.529,3.022-6.882C1473.679,1197.372,1470.44,1202.792,1470.44,1202.792Z" transform="translate(-764.661 -579.471)" fill="#6c6c6c"/>
    <path id="Path_21375" data-name="Path 21375" d="M1510.457,1207.072c-.074.221-.5,2.85-.5,2.85h-1.2a22.8,22.8,0,0,1,1.175-3.033Z" transform="translate(-789.547 -586.602)" fill="#6c6c6c"/>
    <path id="Path_21376" data-name="Path 21376" d="M1517.85,1206.462c.123.7.1,3.11.1,3.11h1.493s-.985-2.282-1.29-3.222Z" transform="translate(-795.45 -586.251)" fill="#6c6c6c"/>
    <path id="Path_21377" data-name="Path 21377" d="M1478.927,1160.558a6.181,6.181,0,0,0,.891.876,1.589,1.589,0,0,1,.238-.1,7.269,7.269,0,0,1-1.809-2.237c-.189-.351-.35-.7-.533-1.052a5.654,5.654,0,0,1-.477-1.1,1.36,1.36,0,0,1,.291-1.171,5.256,5.256,0,0,1,1.052-1.02,6.827,6.827,0,0,1,.7-.459,1.5,1.5,0,0,1,.729-.235h.077a.774.774,0,0,0-.217.288.5.5,0,0,0-.035.266c0,.105.137.14.267.137a.679.679,0,0,0,.543-.305.35.35,0,0,0-.112-.452,1.277,1.277,0,0,0-1.525.214,12.957,12.957,0,0,0-1.4,1.139,1.957,1.957,0,0,0-.645,1.4,3.769,3.769,0,0,0,.512,1.325,12.282,12.282,0,0,0,1.455,2.482Z" transform="translate(-768.895 -552.15)" fill="#6c6c6c"/>
    <path id="Path_21378" data-name="Path 21378" d="M1492.314,1186.936a6.9,6.9,0,0,1-3.993-4.133,6.623,6.623,0,0,1-3,.792c-1.353.13-3.022-.025-3.737-1.364a2.515,2.515,0,0,1-.158-.393.91.91,0,0,1-.084-.68,2.066,2.066,0,0,1,.035-.214l-.154.067h-.021a.117.117,0,0,1,.021-.035,2.56,2.56,0,0,0,.326-.54,1.96,1.96,0,0,0,.179-.982,1.693,1.693,0,0,0-.41-.974,2.271,2.271,0,0,0-.4-.351,1.3,1.3,0,0,1-.214.75c-2.784,4.263-5.153,3.05-5.5,2.8a4.978,4.978,0,0,0,.13,1.181c.225.81,2.962.3,4.014-.568a6.949,6.949,0,0,1,1.031-.558,1.233,1.233,0,0,0-.182.484,1.518,1.518,0,0,0,.469,1.251h-.021l.1.112h.024a3.62,3.62,0,0,0,.428.35,6.051,6.051,0,0,0,2.433,1.024,8.073,8.073,0,0,0,2.433.161c1.192-.141,1.367-.467,1.5-.589a2.369,2.369,0,0,0,.137.414c.021.046.046.088.07.133a1.466,1.466,0,0,1,.351.392.876.876,0,0,1,.105.26l.151.158a5.863,5.863,0,0,0,1.1.824,12.08,12.08,0,0,0,1.171.621,28.513,28.513,0,0,1,5.1,2.387c.07.031.07.031.077-.021a7.488,7.488,0,0,0,.063-1.953A13.45,13.45,0,0,1,1492.314,1186.936Z" transform="translate(-767.759 -567.924)" fill="#6c6c6c"/>
    <path id="Path_21379" data-name="Path 21379" d="M1471.17,1162.984q.747.631,1.5,1.234a1.8,1.8,0,0,1,.351.1c.024-.042.046-.084.067-.13l-.067.021c-1.006-.813-2.016-1.662-3-2.556a13.084,13.084,0,0,1-1.521-1.5,2.454,2.454,0,0,1-.652-1.826,1.125,1.125,0,0,1,.592-.933.712.712,0,0,1,.182-.042c-.067.277.207.515.564.424a.173.173,0,0,0,.105-.084c.119-.291-.1-.508-.41-.554a.14.14,0,0,0-.077,0,1.132,1.132,0,0,0-.94.48,1.634,1.634,0,0,0-.291,1.052,2.341,2.341,0,0,0,.3,1.052,6.776,6.776,0,0,0,1.465,1.669Q1470.244,1162.2,1471.17,1162.984Z" transform="translate(-762.796 -554.289)" fill="#6c6c6c"/>
    <path id="Path_21380" data-name="Path 21380" d="M1501.4,1164.072l.694,4.133-4.088,4.287.028.3,4.712-4.049.438-4.841Z" transform="translate(-782.566 -558.683)" fill="#6c6c6c"/>
    <path id="Path_21381" data-name="Path 21381" d="M1298.071,1139.453s3.544-.312,4.666-2.423.852-4.449-.6-5.224-3.544.312-4.666,2.423S1298.071,1139.453,1298.071,1139.453Z" transform="translate(-652.082 -537.678)" fill="#909090"/>
    <ellipse id="Ellipse_3358" data-name="Ellipse 3358" cx="2.387" cy="4.179" rx="2.387" ry="4.179" transform="matrix(0.841, -0.542, 0.542, 0.841, 647.346, 601.583)" fill="#909090"/>
    <path id="Path_21382" data-name="Path 21382" d="M1319.783,1167.576c-.628,1.521,1.332,3.776,4.382,5.034s7.362-2.5,7.362-2.5a20.129,20.129,0,0,0-5.069-3.022C1323.394,1165.823,1320.414,1166.048,1319.783,1167.576Z" transform="translate(-666.745 -560.221)" fill="#909090"/>
    <path id="Path_21383" data-name="Path 21383" d="M1297.127,1139.763a8.926,8.926,0,0,0,.957,3.064s3.548-.312,4.669-2.423a5.909,5.909,0,0,0,.652-1.995,5.456,5.456,0,0,1-.67,3.071c-1.122,2.1-4.666,2.422-4.666,2.422A7.882,7.882,0,0,1,1297.127,1139.763Z" transform="translate(-652.082 -542.129)" fill="#6c6c6c"/>
    <path id="Path_21384" data-name="Path 21384" d="M1307.33,1154.23a6.664,6.664,0,0,0,.866,1.942c1.248,1.942,3.155,2.934,4.27,2.219a1.866,1.866,0,0,0,.754-1.536c.322,1.269.13,2.387-.61,2.864-1.108.7-3.018-.281-4.27-2.219a5.722,5.722,0,0,1-1.01-3.271Z" transform="translate(-658.733 -552.403)" fill="#6c6c6c"/>
    <path id="Path_21385" data-name="Path 21385" d="M1319.755,1170.5a7.946,7.946,0,0,0,4.291,3.527c2.251.929,5.185-.876,6.563-1.886.593.428.926.7.926.7s-4.295,3.755-7.362,2.5C1321.259,1174.146,1319.338,1172.018,1319.755,1170.5Z" transform="translate(-666.765 -562.969)" fill="#6c6c6c"/>
    <path id="Path_21386" data-name="Path 21386" d="M1339.67,1180.695a2.107,2.107,0,0,0,.175-.133l.032-.032,5.483,5.69-1.21,6.591h-1.493l2.037-6.507Z" transform="translate(-679.736 -569.483)" fill="#6c6c6c"/>
    <path id="Path_21387" data-name="Path 21387" d="M1315.171,1180.37l-6.293,3.082-.708,9.248h1.49l.042-9.069,5.63-3.008Z" transform="translate(-659.279 -569.379)" fill="#6c6c6c"/>
    <path id="Path_21388" data-name="Path 21388" d="M1264,1146.32l3.506,2.1,12.523,3.145-.533-.824Z" transform="translate(-630.593 -547.266)" fill="#6c6c6c"/>
    <path id="Path_21389" data-name="Path 21389" d="M1306.225,1116.926s-2.377-6.99-1.357-8.715,4.105-3,4.985-1.08-.266,1.238-.428.985.179-.824.179-.824a1.554,1.554,0,0,0-2.226-.7c-1.669.7-2.258,1.455-2.454,2.279a26.775,26.775,0,0,0,.782,5.564c.119.252.75,2.328.75,2.328S1306.387,1117.178,1306.225,1116.926Z" transform="translate(-656.97 -521.192)" fill="#6c6c6c"/>
    <path id="Path_21390" data-name="Path 21390" d="M1294.714,1113.8s-5.339-8.281-4.067-10.167,2.85-2.191,3.334-1.437.631,2.079.056,1.753-.074-.662-.074-.662.431-.985-.9-.841-2.328.792-2.184,2.1a7.188,7.188,0,0,0,.7,2.745c.557,1.416,3.38,6.345,3.38,6.345S1295.124,1113.9,1294.714,1113.8Z" transform="translate(-647.772 -518.361)" fill="#6c6c6c"/>
    <path id="Path_21391" data-name="Path 21391" d="M1315.831,1131.2l3.688-2.5.614-6.966,2.384-2.391c-.442,1.949-2.03,10.868-2.03,10.868l-4.316,1.693-.431-.67Z" transform="translate(-664.195 -529.751)" fill="#6c6c6c"/>
    <path id="Path_21392" data-name="Path 21392" d="M842.571,692.984s2.359,25.157,6.289,26.573,5.111-4.961,2.359-10.619-6.682-14.524-6.289-15.59,5.9-4.249,4.719-8.5-8.649,0-8.649,1.052S842.571,692.984,842.571,692.984Z" transform="translate(-355.886 -246.369)" fill="#edf0f5"/>
    <path id="Path_21393" data-name="Path 21393" d="M844.93,693.325c-.21.571.824,3.39,2.254,6.756-1.216.431-2.412.926-3.583,1.472-.67-4.754-1.031-8.582-1.031-8.582S841,686.948,841,685.886s7.467-5.315,8.649-1.052S845.323,692.263,844.93,693.325Z" transform="translate(-355.886 -246.357)" fill="#ffab43"/>
    <g id="Group_1225" data-name="Group 1225" transform="translate(422.631 303.629)">
      <path id="Rectangle_745" data-name="Rectangle 745" d="M664.792,473.581,832.734,305.656c2.174-2.174,5.192-2.678,6.745-1.125l24.347,24.347c1.55,1.55,1.052,4.557-1.129,6.745L694.773,503.547c-2.174,2.174-5.2,2.678-6.745,1.129L663.68,480.329C662.113,478.773,662.618,475.754,664.792,473.581Z" transform="translate(-662.768 -303.629)" fill="#fff"/>
    </g>
    <line id="Line_3012" data-name="Line 3012" x2="86.588" transform="translate(487.176 623.629)" fill="none" stroke="#b5b5b5" stroke-miterlimit="10" stroke-width="2"/>
    <path id="Path_21394" data-name="Path 21394" d="M946.914,669.074a9.634,9.634,0,0,1,15.218,3.664,9.855,9.855,0,0,0,6.4,5.855,13.96,13.96,0,0,1,9.644,9.637,6.174,6.174,0,0,0,5.851,4.54,17.487,17.487,0,1,1-17.718,18.479,6.17,6.17,0,0,0-4.792-5.644A13.953,13.953,0,0,1,950.8,691.794a10,10,0,0,0-3.671-7.954,9.5,9.5,0,0,1-.789-.7,9.63,9.63,0,0,1,.575-14.065Z" transform="translate(-422.493 -235.809)"/>
    <path id="Path_21395" data-name="Path 21395" d="M857.005,974.942c1.3-5.774,3.972-10.952,3.506-16.912-.6-7.713-1.353-21.9-1.083-42.128.435-32.133,22.955-51.1,22.955-51.1,20.789-4.74,19.488,15.278,17.925,18.461S865.924,915.9,865.924,915.9s3.032,3.155,4.333,10.012c.975,5.136-3.155,23.012-5.3,31.632a65.953,65.953,0,0,0-1.753,10.812c-.175,2.307-.326,4.792-.326,6.549,0,4.207-.866,12.642-.866,12.642l-1.753-12.116s-1.718,12.116-8.228,12.116C838.642,987.548,853.8,989.129,857.005,974.942Z" transform="translate(-359.519 -363.972)" fill="#edf0f5"/>
    <ellipse id="Ellipse_3359" data-name="Ellipse 3359" cx="4.116" cy="4.477" rx="4.116" ry="4.477" transform="translate(498.18 546.665)" fill="#edf0f5"/>
    <path id="Path_21396" data-name="Path 21396" d="M857.016,1124.07c1.3-5.774,3.972-10.952,3.506-16.912-.256-3.309-.54-7.807-.761-13.448,2.675.26,5.353.477,8.028.75-.975,4.6-2.033,9.034-2.8,12.214a65.942,65.942,0,0,0-1.753,10.812c-.175,2.307-.326,4.792-.326,6.549,0,4.207-.866,12.642-.866,12.642l-1.753-12.116s-1.718,12.116-8.228,12.116C838.653,1136.676,853.812,1138.257,857.016,1124.07Z" transform="translate(-359.531 -513.099)" fill="#ffab43"/>
    <path id="Path_21397" data-name="Path 21397" d="M854.638,1178.424c2.8-1.546,4.231-4.771,6.258-7.478a24.634,24.634,0,0,1,2.177-2.5c-.095,1.514-.158,2.976-.158,4.123,0,4.207-.866,12.642-.866,12.642L860.3,1173.1s-1.718,12.116-8.228,12.116C840.878,1185.215,849.59,1186.315,854.638,1178.424Z" transform="translate(-359.536 -561.638)" fill="#b5b5b5"/>
    <path id="Path_21398" data-name="Path 21398" d="M909.36,1053.079c1.276-6.528,2.174-12.726,1.662-15.425-.1-.522-.21-1.024-.326-1.5-.165,2.734-.512,5.452-.9,8.165C909.637,1047.239,909.434,1050.155,909.36,1053.079Z" transform="translate(-400.281 -475.718)" fill="#dbe1ec"/>
    <path id="Path_21399" data-name="Path 21399" d="M920.192,951.8a81.364,81.364,0,0,0-7.976,6.871,29.391,29.391,0,0,0-3.155,4.06c-.035.1-.07.2-.1.294,5.146-4.649,17.024-15.425,24.747-22.878C928.347,942.639,924.634,948.129,920.192,951.8Z" transform="translate(-400.021 -413.374)" fill="#dbe1ec"/>
    <path id="Path_21400" data-name="Path 21400" d="M888.516,774.307c-5.017,1.371-10.268,3.281-15.527,3.415-1.234.424-2.454.855-3.7,1.266,6.359.091,19.418-2.4,21.168-4.736.165-.221.351-.459.547-.7C890.181,773.816,889.357,774.076,888.516,774.307Z" transform="translate(-374.258 -305.179)" fill="#dbe1ec"/>
    <path id="Path_21401" data-name="Path 21401" d="M886.524,749.177s-13.353,5.35-15.569,6.335-12.207,4.172-11.569,6.734,22.321-.775,24.614-3.825S892.017,749.061,886.524,749.177Z" transform="translate(-367.807 -289.35)" fill="#edf0f5"/>
    <path id="Path_21402" data-name="Path 21402" d="M922.508,746.713c3.9-.663,6.689.876,9.956,3.113,3.327,2.275,4.557,7.8,5.108,12.182,1.09,8.561-7.467,20.438-7.467,20.438l-4.323.789s-10.559-20.021-12.186-23.2C912.1,757.09,922.508,746.713,922.508,746.713Z" transform="translate(-402.936 -287.649)" fill="#fff"/>
    <circle id="Ellipse_3360" data-name="Ellipse 3360" cx="4.323" cy="4.323" r="4.323" transform="translate(519.155 436.329)" fill="#fff"/>
    <path id="Path_21403" data-name="Path 21403" d="M907.328,688.554c2.026-6.622,15.341-4.207,16.361-.368,2.608,9.781-1.455,13.55-5.22,14.433s-7.66-5.511-7.66-5.511S905.029,696.081,907.328,688.554Z" transform="translate(-398.61 -247.289)"/>
    <path id="Path_21404" data-name="Path 21404" d="M911.63,699.372s.1,7.3,2.535,10.131c1.479,1.728,2.861,1.9,3.713,1.77a1.612,1.612,0,0,1,1.557.67h0a8.193,8.193,0,0,1,1.479,4.189l-1.42,6.31,8.645-7.467-6.181-5.139,1.427-3.933-.768-4.207a7.243,7.243,0,0,0-3.5-5.024C917.1,695.509,914.308,695.253,911.63,699.372Z" transform="translate(-401.755 -254.77)" fill="#ffab43"/>
    <ellipse id="Ellipse_3361" data-name="Ellipse 3361" cx="1.301" cy="2.209" rx="1.301" ry="2.209" transform="matrix(1, -0.014, 0.014, 1, 520.454, 446.899)" fill="#ffab43"/>
    <path id="Path_21405" data-name="Path 21405" d="M921.6,759.81a5.278,5.278,0,0,1,6.4,6.742,10.932,10.932,0,0,1-.55,1.339c-2.247,4.593-17.529,16.27-26.083,14.57s6.976-7.79,11.863-13.851C916.649,764.364,918.107,760.83,921.6,759.81Z" transform="translate(-393.448 -296.119)" fill="#fff"/>
    <path id="Path_21406" data-name="Path 21406" d="M881.527,764.406s-.918,2.142-2.861,1.711-9.48-5.918-13.062-18.405-.438-12.27-.438-12.27,3.232-1.378,4.782-.971-1.332,9.034-1.332,9.034,3.786,9.031,7.222,10.808S884.461,761.423,881.527,764.406Z" transform="translate(-370.751 -279.751)" fill="#fff"/>
    <path id="Path_21407" data-name="Path 21407" d="M920.524,696.046l-.4.771-1.637-.144a11.34,11.34,0,0,1-5.819-2.23h0L910.82,695.8s-1.139.806-1.728.123c-3.457-4.011-.245-7.313,2.314-7.962S922.431,687.474,920.524,696.046Z" transform="translate(-399.126 -249.445)"/>
    <path id="Path_21408" data-name="Path 21408" d="M922.463,770.545a7.942,7.942,0,0,0-1,1.307,8.338,8.338,0,0,0-.536,1.052h0c-.557.217-1.052.428-1.511.628-.27-.663-.512-1.29-.74-1.883h0a7,7,0,0,1,.445-.926,7.145,7.145,0,0,1,.838-1.164Z" transform="translate(-406.333 -302.588)" fill="#eceff4"/>
    <path id="Path_21409" data-name="Path 21409" d="M942.265,848.11l-4.764,1.052s-10.409,21.6-3.9,26.868,26.854,3.688,25.553-12.116S942.265,848.11,942.265,848.11Z" transform="translate(-414.634 -353.6)" fill="#fff"/>
    <path id="Path_21410" data-name="Path 21410" d="M930.754,886.385c.428-8.119,6.054-14.44,12.743-14.216a10.907,10.907,0,0,1,8.95,4.47c6.5,9.038-3.895,54.77-3.895,54.77l5.63,2.128c3.642,1.378,12.726,10.77,18.685,17.227A69.537,69.537,0,0,0,985.657,961.7l8.8,5.809L984.065,963.3s8.515,9.574-.866,22.125c-4.33,5.795,2.6-2.1-.866-15.274A19.535,19.535,0,0,0,972.3,957.646c-9.655-5.329-28.863-16.866-35.878-27.825C930.147,920,930.073,899.339,930.754,886.385Z" transform="translate(-413.99 -369.221)" fill="#fff"/>
    <ellipse id="Ellipse_3362" data-name="Ellipse 3362" cx="4.982" cy="5.006" rx="4.982" ry="5.006" transform="translate(526.766 561.413)" fill="#fff"/>
    <path id="Path_21411" data-name="Path 21411" d="M1033.281,1083.81c1.462,1.532,2.868,3.032,4.13,4.4a69.666,69.666,0,0,0,12.792,10.938l8.8,5.809-10.395-4.207s8.515,9.574-.866,22.125c-4.33,5.8,2.6-2.1-.866-15.274a19.535,19.535,0,0,0-10.033-12.509c-1.984-1.1-4.382-2.454-6.987-4.025C1031.01,1088.655,1032.135,1086.229,1033.281,1083.81Z" transform="translate(-478.537 -506.67)" fill="#ffab43"/>
    <path id="Path_21412" data-name="Path 21412" d="M1078.039,1135.094v-.133a109.645,109.645,0,0,0-1.125-14.871q1.8,1.378,3.681,2.622l8.8,5.809L1079,1124.314s8.515,9.574-.866,22.125C1074.26,1151.61,1079.41,1145.822,1078.039,1135.094Z" transform="translate(-508.931 -530.231)" fill="#b5b5b5"/>
    <path id="Path_21413" data-name="Path 21413" d="M871.076,748.473a38.163,38.163,0,0,0-3.968,3.576,42.038,42.038,0,0,1-1.5-4.337c-3.579-12.477-.438-12.27-.438-12.27s3.232-1.378,4.782-.971-1.332,9.034-1.332,9.034A54.142,54.142,0,0,0,871.076,748.473Z" transform="translate(-370.754 -279.751)" fill="#ffab43"/>
    <rect id="Rectangle_15138" data-name="Rectangle 15138" width="24.176" height="12.512" rx="3" transform="translate(679.733 503.532) rotate(12.83)" fill="#fff"/>
    <path id="Path_21414" data-name="Path 21414" d="M1405.257,917.255a7.557,7.557,0,0,0-1.108-.172,3.972,3.972,0,0,0-1.563.217,2.743,2.743,0,0,0-.964.586,2,2,0,0,0-.48.7,4.425,4.425,0,0,0-3.3-1.493,5.182,5.182,0,0,0-3.243.792,1.427,1.427,0,0,0-.147.105h-.021c-.021,0,0-.025,0-.039a2.6,2.6,0,0,0,.2-.582,1.885,1.885,0,0,0-.025-.968,1.637,1.637,0,0,0-.585-.848,2.378,2.378,0,0,0-1.469-.473h-.133a6.212,6.212,0,0,1-3.155-2.131c-.245-.287-.48-.589-.7-.89a5.609,5.609,0,0,1-.67-.95,1.333,1.333,0,0,1,.046-1.178,5.092,5.092,0,0,1,.8-1.178,6.39,6.39,0,0,1,.575-.578,1.443,1.443,0,0,1,.648-.351h.074a.736.736,0,0,0-.147.319.5.5,0,0,0,0,.259c.035.095.161.105.284.077a.666.666,0,0,0,.459-.4.329.329,0,0,0-.2-.407,1.226,1.226,0,0,0-1.4.5,12.759,12.759,0,0,0-1.118,1.367,1.914,1.914,0,0,0-.333,1.479,3.624,3.624,0,0,0,.75,1.164,11.918,11.918,0,0,0,1.893,2.047,5.551,5.551,0,0,0,1.6.919,3.467,3.467,0,0,0-.351.126c-.091.032-.182.063-.27.1a4.092,4.092,0,0,0-.494.252c-1.122-.578-2.254-1.188-3.373-1.844a13.011,13.011,0,0,1-1.753-1.129,2.412,2.412,0,0,1-.985-1.613,1.087,1.087,0,0,1,.382-1.006.5.5,0,0,1,.168-.081c0,.277.294.452.621.295a.172.172,0,0,0,.084-.1c.056-.3-.2-.466-.5-.449a.147.147,0,0,0-.077,0,1.1,1.1,0,0,0-.8.645,1.6,1.6,0,0,0-.067,1.069,2.346,2.346,0,0,0,.491.932,6.665,6.665,0,0,0,1.729,1.3q1.023.61,2.061,1.171c.6.326,1.2.638,1.8.943a3.8,3.8,0,0,0-.74.673,4.06,4.06,0,0,0-.564,4.494c.375.726,2.889-.3,3.716-1.336a6.716,6.716,0,0,1,.876-.736,1.16,1.16,0,0,0-.081.5,1.479,1.479,0,0,0,.7,1.1c-.869.256-2.584.925-2.584.925l.249.445s1.616-.911,2.454-1.287c.091.056.193.112.294.165a1.5,1.5,0,0,1,.849.319,7.619,7.619,0,0,0,1.858.259,6.877,6.877,0,0,0,2.454-.351c.179.063.351.13.533.2a27.331,27.331,0,0,1,2.044,2.6c-.214.095-.41,1.7-.617,1.809.35-.161.7-1.816,1.052-1.956q-.7-1.052-1.508-2.058a22.577,22.577,0,0,1,2.878,1.515,25,25,0,0,1,1.528,2.349,28.116,28.116,0,0,0-1.262-2.517,23.722,23.722,0,0,0-3.828-2.37,1.791,1.791,0,0,0,.389-.393,1.994,1.994,0,0,0,.214.351,2.877,2.877,0,0,0,.828.768,5.869,5.869,0,0,0,1.209.571,12.566,12.566,0,0,0,1.241.351,29.265,29.265,0,0,1,5.336,1.269c.073,0,.073,0,.073-.039A6.348,6.348,0,0,0,1405.257,917.255Z" transform="translate(-708.747 -392.238)" fill="#909090"/>
    <path id="Path_21415" data-name="Path 21415" d="M1396.238,914.232a5.942,5.942,0,0,0,1.016.659,1.712,1.712,0,0,1,.21-.144,7.118,7.118,0,0,1-2.17-1.777c-.245-.288-.48-.589-.7-.891a5.614,5.614,0,0,1-.67-.95,1.346,1.346,0,0,1,.046-1.178,5.084,5.084,0,0,1,.8-1.178,6.4,6.4,0,0,1,.575-.578,1.444,1.444,0,0,1,.649-.35h.074a.738.738,0,0,0-.147.319.5.5,0,0,0,0,.259c.035.095.161.105.284.077a.666.666,0,0,0,.459-.4.33.33,0,0,0-.2-.407,1.227,1.227,0,0,0-1.4.5,12.84,12.84,0,0,0-1.118,1.367,1.914,1.914,0,0,0-.333,1.48,3.624,3.624,0,0,0,.75,1.164A11.929,11.929,0,0,0,1396.238,914.232Z" transform="translate(-714.744 -392.251)" fill="#6c6c6c"/>
    <path id="Path_21416" data-name="Path 21416" d="M1414.547,935.67a4.324,4.324,0,0,0-7.33-1.805c-1.262.393-2.885.571-3.832-.564a2.228,2.228,0,0,1-.228-.351.87.87,0,0,1-.214-.635,1.441,1.441,0,0,1,0-.21,1.559,1.559,0,0,0-.133.095h-.021c-.021,0,0-.025,0-.039a2.608,2.608,0,0,0,.2-.582,1.882,1.882,0,0,0-.025-.968,1.638,1.638,0,0,0-.585-.848,2.167,2.167,0,0,0-.452-.263,1.257,1.257,0,0,1-.052.757c-1.812,4.62-4.312,3.93-4.687,3.765a4.676,4.676,0,0,0,.351,1.1c.375.726,2.889-.3,3.716-1.336a6.719,6.719,0,0,1,.876-.736,1.162,1.162,0,0,0-.081.5,1.483,1.483,0,0,0,.7,1.1h-.021l.116.088h.025a4.518,4.518,0,0,0,.684.351,7.044,7.044,0,0,0,2.317.407,6.948,6.948,0,0,0,2.352-.326,1.694,1.694,0,0,1,.323-.221,2.043,2.043,0,0,1,.666-.214l-.063-.031a1.879,1.879,0,0,0,.389-.393,1.988,1.988,0,0,0,.214.35,1.469,1.469,0,0,0,.091.116,1.454,1.454,0,0,1,.41.3.836.836,0,0,1,.151.228l.175.119a5.7,5.7,0,0,0,1.21.571,12.278,12.278,0,0,0,1.241.351,29.25,29.25,0,0,1,5.336,1.269c.074,0,.074,0,.074-.039a7.336,7.336,0,0,0-.329-1.875A11.751,11.751,0,0,1,1414.547,935.67Z" transform="translate(-717.09 -406.457)" fill="#6c6c6c"/>
    <path id="Path_21417" data-name="Path 21417" d="M1388.723,918.666c.561.3,1.122.593,1.676.88a1.514,1.514,0,0,1,.351.028.506.506,0,0,1,.039-.137l-.06.032c-1.125-.578-2.254-1.188-3.372-1.844a13.263,13.263,0,0,1-1.753-1.129,2.412,2.412,0,0,1-.985-1.613,1.086,1.086,0,0,1,.382-1.006.5.5,0,0,1,.168-.081c0,.277.294.452.62.295a.172.172,0,0,0,.084-.1c.056-.3-.2-.466-.5-.449a.147.147,0,0,0-.077,0,1.1,1.1,0,0,0-.8.645,1.6,1.6,0,0,0-.066,1.069,2.342,2.342,0,0,0,.491.933,6.658,6.658,0,0,0,1.728,1.3Q1387.686,918.105,1388.723,918.666Z" transform="translate(-708.761 -396.089)" fill="#6c6c6c"/>
    <path id="Path_21418" data-name="Path 21418" d="M1420.5,912.305l1.479,3.807-3.054,4.9.088.277,3.691-4.8-.54-4.7Z" transform="translate(-731.209 -394.956)" fill="#6c6c6c"/>
    <path id="Path_21419" data-name="Path 21419" d="M1444.334,954.9c-.473-.663-2.181-3.068-2.587-3.786l-.266.168c.249.631,1.213,3.33,1.252,3.439Z" transform="translate(-745.854 -420.491)" fill="#6c6c6c"/>
    <path id="Path_21420" data-name="Path 21420" d="M1432.773,955.482c.428-.936,1.09-2.317,1.108-2.472l-.536-.07c-.123.119-.926,1.539-1.455,2.454Z" transform="translate(-739.625 -421.68)" fill="#6c6c6c"/>
    <path id="Path_21421" data-name="Path 21421" d="M1402.4,950.3a1.776,1.776,0,0,1,.333.021l.291.032a24.66,24.66,0,0,1,.782-3.018l-.249-.445Z" transform="translate(-720.474 -417.751)" fill="#6c6c6c"/>
    <circle id="Ellipse_3363" data-name="Ellipse 3363" cx="19.457" cy="19.457" r="19.457" transform="translate(338.715 557.988)" fill="#ff5d5d"/>
    <rect id="Rectangle_15139" data-name="Rectangle 15139" width="27.415" height="5.164" rx="2.582" transform="matrix(0.903, -0.429, 0.429, 0.903, 344.662, 581.015)" fill="#fff"/>
    <path id="Path_21422" data-name="Path 21422" d="M461.3,1142.4s-3.439.445-4.95-1.332-1.735-4.056-.512-5.1,3.439-.445,4.947,1.332S461.3,1142.4,461.3,1142.4Z" transform="translate(-105.241 -540.212)" fill="#909090"/>
    <ellipse id="Ellipse_3364" data-name="Ellipse 3364" cx="4.074" cy="2.328" rx="4.074" ry="2.328" transform="matrix(0.122, -0.993, 0.993, 0.122, 349.105, 608.481)" fill="#909090"/>
    <path id="Path_21423" data-name="Path 21423" d="M444.71,1172.37c1.2,1.052.435,3.877-1.707,6.275s-7.5.922-7.5.922a19.551,19.551,0,0,1,3.155-4.8C440.808,1172.374,443.514,1171.3,444.71,1172.37Z" transform="translate(-92.543 -563.914)" fill="#909090"/>
    <path id="Path_21424" data-name="Path 21424" d="M461.408,1143.46a8.651,8.651,0,0,1-.277,3.116s-3.439.442-4.947-1.332a5.7,5.7,0,0,1-1.034-1.753,5.259,5.259,0,0,0,1.276,2.8c1.507,1.777,4.947,1.332,4.947,1.332A7.888,7.888,0,0,0,461.408,1143.46Z" transform="translate(-105.304 -545.409)" fill="#6c6c6c"/>
    <path id="Path_21425" data-name="Path 21425" d="M458.709,1153.94a6.509,6.509,0,0,1,.067,2.072c-.273,2.23-1.528,3.912-2.8,3.758a1.83,1.83,0,0,1-1.311-1.027c.252,1.248.894,2.149,1.753,2.251,1.276.158,2.531-1.525,2.8-3.758A5.533,5.533,0,0,0,458.709,1153.94Z" transform="translate(-104.986 -552.214)" fill="#6c6c6c"/>
    <path id="Path_21426" data-name="Path 21426" d="M444.836,1173.52a7.739,7.739,0,0,1-2.268,4.908c-1.585,1.753-4.908,1.43-6.559,1.129a9.52,9.52,0,0,0-.508,1.02s5.36,1.473,7.5-.922C445.06,1177.359,445.842,1174.677,444.836,1173.52Z" transform="translate(-92.543 -564.93)" fill="#6c6c6c"/>
    <path id="Path_21427" data-name="Path 21427" d="M476.677,1135.654l-2.335,4.6-7.117,2.857-.116.947,7.558-2.493,3.87-6.731Z" transform="translate(-113.072 -539.804)" fill="#6c6c6c"/>
    <path id="Path_21428" data-name="Path 21428" d="M450.024,1122.52s.8-7.152-.526-8.578-4.533-2-4.971,0,.512,1.122.614.852-.351-.75-.351-.75a1.5,1.5,0,0,1,1.97-1.125c1.735.337,2.454.915,2.8,1.662a26.456,26.456,0,0,1,.41,5.455c-.063.263-.228,2.377-.228,2.377S449.923,1122.79,450.024,1122.52Z" transform="translate(-98.331 -525.398)" fill="#6c6c6c"/>
    <path id="Path_21429" data-name="Path 21429" d="M463.031,1116.9s3.355-8.992,1.753-10.517-3.155-1.49-3.474-.673-.165,2.1.309,1.669-.067-.648-.067-.648-.617-.848.677-.989,2.384.27,2.524,1.564a6.923,6.923,0,0,1-.1,2.755c-.235,1.466-1.9,6.745-1.9,6.745S462.655,1117.068,463.031,1116.9Z" transform="translate(-109.196 -520.528)" fill="#6c6c6c"/>
    <path id="Path_21430" data-name="Path 21430" d="M438.825,1124.292l-1.623-7.457a.767.767,0,0,0-.8-.351s-.82.743-.491,1.2c1.581,2.195,2.545,8.035,2.545,8.035l5.2,5.609.249-.456Z" transform="translate(-92.762 -527.882)" fill="#6c6c6c"/>
    <path id="Path_21431" data-name="Path 21431" d="M457.3,1186.9l.028.031h0Z" transform="translate(-106.701 -573.62)" fill="#6c6c6c"/>
    <path id="Path_21432" data-name="Path 21432" d="M462.965,1196.7h1.644l-2.566-7.618-2.8-2.538c-.049-.042-.238.039-.309,0l2.489,2.9Z" transform="translate(-107.759 -573.382)" fill="#6c6c6c"/>
    <path id="Path_21433" data-name="Path 21433" d="M434.956,1196.054H433.13l2.85-7.877,3.113-2.629c.056-.042.27.042.351,0l-2.77,3Z" transform="translate(-91.004 -572.733)" fill="#6c6c6c"/>
    <line id="Line_3013" data-name="Line 3013" x1="23.839" transform="translate(339.493 623.32)" fill="none" stroke="#b5b5b5" stroke-miterlimit="10" stroke-width="2"/>
    <rect id="Rectangle_15140" data-name="Rectangle 15140" width="34.114" height="20.547" rx="2" transform="translate(451.145 325.085)" fill="#f2f2f2"/>
    <rect id="Rectangle_15203" data-name="Rectangle 15203" width="34.115" height="20.547" rx="2" transform="translate(599.717 386.038)" fill="#f2f2f2"/>
    <path id="Path_21434" data-name="Path 21434" d="M778.623,385.238c.515-.021.624-.137.6-.652-.074-1.921-.13-3.856-.235-5.763a6.541,6.541,0,0,0-1.581-3.874,20.291,20.291,0,0,0-1.9-2.019,1,1,0,0,1-.351-.785c0-.333-.021-.663-.042-1a.955.955,0,0,0-.7-.978,1.185,1.185,0,0,0-1.269.607,4.207,4.207,0,0,0-.042,3.527c.2.508.459,1,.7,1.49.151.312.105.417-.245.438-.722.039-1.441.056-2.163.084l-1.542.06a1.164,1.164,0,0,0-1.206.873,1.378,1.378,0,0,0,.547,1.571c.3.175.245.273.025.456a1.2,1.2,0,0,0-.41,1.469.929.929,0,0,0,.62.571c.245.077.259.161.07.351a1.1,1.1,0,0,0,.242,1.855c.207.112.2.193.063.351a1.052,1.052,0,0,0-.116,1.167.908.908,0,0,0,.964.515l4.014-.158h0Zm1.883.473c.021.515.179.666.7.645.947-.032,1.9-.07,2.843-.109.5-.025.659-.189.638-.68q-.137-3.618-.284-7.236c-.018-.491-.14-.607-.628-.589l-2.983.119c-.459.018-.589.154-.575.613q.067,1.837.144,3.67Q780.436,383.931,780.506,385.711Z" transform="translate(-308.861 -43.159)" fill="#24c0a0"/>
    <path id="Path_21723" data-name="Path 21723" d="M774.646,371.269c-.515.021-.624.137-.6.652.074,1.921.13,3.856.235,5.763a6.542,6.542,0,0,0,1.581,3.874,20.3,20.3,0,0,0,1.9,2.019,1,1,0,0,1,.351.785c0,.333.021.663.042,1a.955.955,0,0,0,.7.978,1.185,1.185,0,0,0,1.269-.607,4.207,4.207,0,0,0,.042-3.527c-.2-.508-.459-1-.7-1.49-.151-.312-.105-.417.245-.438.722-.039,1.441-.056,2.163-.084l1.542-.06a1.164,1.164,0,0,0,1.206-.873,1.378,1.378,0,0,0-.547-1.57c-.3-.175-.245-.273-.025-.456a1.2,1.2,0,0,0,.41-1.469.929.929,0,0,0-.621-.571c-.245-.077-.259-.161-.07-.351a1.1,1.1,0,0,0-.242-1.854c-.207-.112-.2-.193-.063-.351a1.052,1.052,0,0,0,.116-1.167.908.908,0,0,0-.964-.515l-4.014.158h0Zm-1.883-.473c-.021-.515-.179-.666-.7-.645-.947.032-1.9.07-2.843.109-.5.025-.659.189-.638.68q.137,3.618.284,7.236c.017.491.14.607.628.589l2.983-.119c.459-.018.589-.154.575-.613q-.067-1.837-.144-3.67Q772.833,372.577,772.763,370.8Z" transform="translate(-160.29 17.794)" fill="#6c6c6c" opacity="0.4"/>
    <rect id="Rectangle_15141" data-name="Rectangle 15141" width="20.48" height="20.547" rx="3" transform="translate(323.844 415.063)" fill="#e4e4e4"/>
    <text id="ULTIMATE_LOGISTICS_INC." data-name="ULTIMATE LOGISTICS, INC." transform="translate(453.801 482.026) rotate(-45)" fill="#5673a8" font-size="14" font-family="Montserrat-Black, Montserrat" font-weight="800"><tspan x="0" y="0">U</tspan><tspan y="0" letter-spacing="-0.06em">L</tspan><tspan y="0">TIM</tspan><tspan y="0" letter-spacing="-0.03em">A</tspan><tspan y="0">TE </tspan><tspan y="0" letter-spacing="-0.01em">L</tspan><tspan y="0">OGI</tspan><tspan y="0" letter-spacing="-0.01em">S</tspan><tspan y="0">TI</tspan><tspan y="0" letter-spacing="-0.01em">C</tspan><tspan y="0" letter-spacing="0.02em">S</tspan><tspan y="0">, IN</tspan><tspan y="0" letter-spacing="0.01em">C</tspan><tspan y="0">.</tspan></text>
    <path id="Path_21436" data-name="Path 21436" d="M582.74,1044.757h2.766l9.837-58.143h23.576l9.837,58.143h2.763l-13.883-82.066h3.653v-7.2a3.4,3.4,0,0,0-3.4-3.4H596.37a3.4,3.4,0,0,0-3.4,3.4v7.2h3.653Zm13.038-60.716,3.611-21.35h15.485l3.611,21.35Z" transform="translate(-188.165 -421.128)" fill="#b5b5b5"/>
    <path id="Path_21437" data-name="Path 21437" d="M642.026,878.068s-3,1.581-4.985.47-2.98-3.12-2.212-4.491,3-1.581,4.985-.473S642.026,878.068,642.026,878.068Z" transform="translate(-221.824 -369.676)" fill="#5673a8"/>
    <ellipse id="Ellipse_3365" data-name="Ellipse 3365" cx="2.275" cy="3.979" rx="2.275" ry="3.979" transform="translate(414.47 508.939)" fill="#5673a8"/>
    <path id="Path_21438" data-name="Path 21438" d="M632.977,910.309c1.287.9.88,3.713-.911,6.289s-7.166,1.791-7.166,1.791a19.056,19.056,0,0,1,2.489-5.034C629.188,910.775,631.687,909.411,632.977,910.309Z" transform="translate(-215.545 -393.815)" fill="#5673a8"/>
    <path id="Path_21439" data-name="Path 21439" d="M641.295,876.87a8.507,8.507,0,0,1,.81,2.948s-3,1.581-4.982.47a5.612,5.612,0,0,1-1.553-1.262,5.186,5.186,0,0,0,2.1,2.1c1.988,1.111,4.985-.47,4.985-.47A7.408,7.408,0,0,0,641.295,876.87Z" transform="translate(-222.474 -372.278)" fill="#355585"/>
    <path id="Path_21440" data-name="Path 21440" d="M643.765,891.67a6.363,6.363,0,0,1,.309,2c0,2.2-1.017,3.979-2.272,3.979a1.777,1.777,0,0,1-1.4-.841c.393,1.181,1.125,1.977,1.963,1.977,1.255,0,2.272-1.781,2.272-3.979a5.44,5.44,0,0,0-.869-3.138Z" transform="translate(-225.611 -381.889)" fill="#355585"/>
    <path id="Path_21441" data-name="Path 21441" d="M633.11,911.15a7.561,7.561,0,0,1-1.613,5.038c-1.325,1.907-4.607,1.97-6.226,1.876-.256.645-.372,1.052-.372,1.052s5.374.789,7.166-1.791C633.787,914.845,634.225,912.149,633.11,911.15Z" transform="translate(-215.545 -394.54)" fill="#355585"/>
    <path id="Path_21442" data-name="Path 21442" d="M632.11,929.76h-.252l-.6,3.453L629,937.588h1.4l1.4-4.684Z" transform="translate(-218.207 -406.626)" fill="#355585"/>
    <path id="Path_21443" data-name="Path 21443" d="M651.68,878.307l4.54-4.673,1.42-5.118L656.5,867.38l-1.409,6.107-3.415,3.888Z" transform="translate(-232.936 -366.115)" fill="#355585"/>
    <path id="Path_21444" data-name="Path 21444" d="M624.7,863.8s-1.7-6.822-3.411-7.674-4.831-.284-4.557,1.7.852.856.852.568-.568-.568-.568-.568a1.461,1.461,0,0,1,1.4-1.7c1.686-.284,2.559,0,3.127.568a26.739,26.739,0,0,1,2.244,4.855c.035.263.6,2.251.6,2.251S624.7,864.088,624.7,863.8Z" transform="translate(-210.227 -358.56)" fill="#355585"/>
    <path id="Path_21445" data-name="Path 21445" d="M634.352,854.943s0-9.381-1.991-10.233-3.411-.284-3.411.568.568,1.988.852,1.4-.284-.568-.284-.568-.852-.568.284-1.136,2.275-.568,2.843.568a6.782,6.782,0,0,1,.852,2.559c.284,1.423.568,6.822.568,6.822S634.065,855.227,634.352,854.943Z" transform="translate(-218.175 -351.118)" fill="#355585"/>
    <path id="Path_21446" data-name="Path 21446" d="M648.956,933.412l1.245-5.535-3.411-4.263v-.284l3.979,3.979-.75,6.1Z" transform="translate(-229.761 -402.45)" fill="#355585"/>
    <path id="Path_21447" data-name="Path 21447" d="M631.42,899.066l3.965-4.116v.852l-3.113,2.98,3.7,3.127-.568,1.136Z" transform="translate(-219.779 -384.019)" fill="#355585"/>
    <path id="Path_21448" data-name="Path 21448" d="M666.018,865.375l.557-.421s1.15-1,.866-1.851-1.139-1.707-1.423-.855-.578,1.57-.578,1.57Z" transform="translate(-241.873 -362.553)" fill="#355585"/>
    <path id="Path_21449" data-name="Path 21449" d="M678,707.828c-.782,4.964-1.609,9.918-2.412,14.878l-2.5,14.857L671.873,745q-.6,3.719-1.367,7.408l-.792,3.685c-.281,1.224-.543,2.454-.841,3.674-.582,2.454-1.192,4.887-1.9,7.31l-.172-.032c.214-2.517.519-5.013.859-7.5.161-1.248.351-2.489.536-3.734l.586-3.72q.613-3.72,1.4-7.4l1.543-7.362,3.015-14.763c1.052-4.908,2.044-9.837,3.1-14.749Z" transform="translate(-242.756 -262.486)"/>
    <path id="Path_21450" data-name="Path 21450" d="M668.634,861.69s1.42,0,1.136,1.136a3.081,3.081,0,0,1-.985,1.658S667.782,861.974,668.634,861.69Z" transform="translate(-243.724 -362.419)" fill="#355585"/>
    <line id="Line_3014" data-name="Line 3014" x1="55.794" transform="translate(390.81 623.32)" fill="none" stroke="#b5b5b5" stroke-miterlimit="10" stroke-width="2"/>
  </g>
</svg>
