<svg xmlns="http://www.w3.org/2000/svg" width="470.606" height="321" viewBox="0 0 470.606 321">
  <g id="Repair_shop" data-name="Repair shop" transform="translate(-255.63 -270.85)">
    <line id="Line_3001" data-name="Line 3001" x1="104.325" transform="translate(341.009 590.559)" fill="none" stroke="#b5b5b5" stroke-miterlimit="10" stroke-width="2"/>
    <line id="Line_3002" data-name="Line 3002" x1="104.325" transform="translate(581.979 590.559)" fill="none" stroke="#b5b5b5" stroke-miterlimit="10" stroke-width="2"/>
    <line id="Line_3003" data-name="Line 3003" x2="80.787" transform="translate(456.766 590.85)" fill="none" stroke="#b5b5b5" stroke-miterlimit="10" stroke-width="2"/>
    <rect id="Rectangle_15114" data-name="Rectangle 15114" width="166.166" height="39.854" rx="3" transform="translate(416.13 309.801)" fill="#dadada" stroke="#919191" stroke-miterlimit="10" stroke-width="1" stroke-dasharray="6 6"/>
    <path id="Path_21258" data-name="Path 21258" d="M1158.581,270.85h51.371v25.16h-51.371a3.271,3.271,0,0,1-3.271-3.271V274.121A3.271,3.271,0,0,1,1158.581,270.85Z" transform="translate(-605.396 0)" fill="#fff"/>
    <rect id="Rectangle_15115" data-name="Rectangle 15115" width="26.511" height="17.169" rx="3" transform="translate(699.725 380.742)" fill="#f2f2f2"/>
    <rect id="Rectangle_15116" data-name="Rectangle 15116" width="40.318" height="33.55" transform="translate(602.495 400.185)" fill="#e4e4e4"/>
    <path id="Path_21259" data-name="Path 21259" d="M1502.374,817.451c-8.423.517-16.6-7.5-16.535-16.839.056-7.935,6.6-16.721,16.591-16.682s16.944,6.977,17.045,16.97C1519.583,810.143,1511.687,818.013,1502.374,817.451Zm10.451-9.6c-.16-.383-.353-.936-.612-1.459-1.047-2.12-2.113-4.229-3.17-6.339-1.59-3.17-3.166-6.346-4.772-9.505-.383-.756-.844-1.541-1.852-1.482-.922.052-1.141.909-1.475,1.57q-3.866,7.69-7.71,15.4a4.155,4.155,0,0,0-.6,1.907c0,1.037.487,1.429,1.42,1.043a9.626,9.626,0,0,0,1.511-.906c1.835-1.2,3.729-2.326,5.469-3.644a2.394,2.394,0,0,1,3.209,0q1.871,1.308,3.762,2.561c.981.654,1.937,1.358,2.96,1.936A1.19,1.19,0,0,0,1512.825,807.85Z" transform="translate(-827.81 -345.252)" fill="#f2f2f2"/>
    <path id="Path_21260" data-name="Path 21260" d="M1526.795,818.409a1.182,1.182,0,0,1-1.865,1.066c-1.024-.579-1.982-1.279-2.96-1.936q-1.887-1.272-3.762-2.561a2.423,2.423,0,0,0-3.209,0c-1.74,1.308-3.634,2.443-5.469,3.644a9.629,9.629,0,0,1-1.511.906c-.932.386-1.406,0-1.42-1.043a4.265,4.265,0,0,1,.605-1.907q3.853-7.674,7.7-15.383c.327-.654.553-1.518,1.475-1.57,1.007-.059,1.469.726,1.851,1.482,1.606,3.16,3.183,6.336,4.772,9.505,1.057,2.11,2.123,4.22,3.17,6.339C1526.442,817.473,1526.635,818.026,1526.795,818.409Z" transform="translate(-841.78 -355.811)" fill="#fff"/>
    <rect id="Rectangle_15117" data-name="Rectangle 15117" width="104.907" height="40.462" rx="3" transform="translate(390.087 586.15) rotate(-135)" fill="#e4e4e4"/>
    <rect id="Rectangle_15118" data-name="Rectangle 15118" width="45.143" height="40.462" rx="3" transform="translate(305.306 544.216)" fill="#d9d9d9"/>
    <rect id="Rectangle_15119" data-name="Rectangle 15119" width="16.146" height="14.582" transform="translate(294.99 584.675) rotate(-135)" fill="#e4e4e4"/>
    <rect id="Rectangle_15120" data-name="Rectangle 15120" width="17.467" height="19.619" transform="translate(328.694 544.068) rotate(180)" fill="#e4e4e4"/>
    <line id="Line_3004" data-name="Line 3004" x1="124.624" transform="translate(283.316 584.671)" fill="none" stroke="#dadada" stroke-miterlimit="10" stroke-width="2"/>
    <rect id="Rectangle_15121" data-name="Rectangle 15121" width="31.83" height="19.171" transform="translate(255.63 488.164)" fill="#f2f2f2"/>
    <rect id="Rectangle_15122" data-name="Rectangle 15122" width="31.83" height="19.171" transform="translate(425.394 366.811)" fill="#f2f2f2"/>
    <g id="Group_1225" data-name="Group 1225" transform="translate(392.673 344.141)">
      <rect id="Rectangle_745" data-name="Rectangle 745" width="165.574" height="39.54" rx="3" transform="matrix(0.978, -0.209, 0.209, 0.978, 0, 34.595)" fill="#fff"/>
    </g>
    <path id="Path_21261" data-name="Path 21261" d="M793.27,620.068l4.524-.981c3.068-.654,5.561.638,6.163,3.484s-1.132,5.041-4.2,5.7l-4.524.981Zm5.839,5.829a2.226,2.226,0,1,0-.929-4.354l-1.308.275.929,4.357Z" transform="translate(-361.779 -234.217)" fill="#497bdb" opacity="0.7"/>
    <path id="Path_21262" data-name="Path 21262" d="M826.39,614l3.094-.654,1.963,9.182-3.094.654Z" transform="translate(-384.066 -230.469)" fill="#497bdb" opacity="0.7"/>
    <path id="Path_21263" data-name="Path 21263" d="M841.891,618.4l.514-2.47a6.433,6.433,0,0,0,3.209.193c.88-.187,1.155-.438,1.086-.752-.245-1.155-5.122.86-5.855-2.561-.363-1.707.769-3.4,3.6-4.01a7.523,7.523,0,0,1,3.634.059l-.451,2.443a5.808,5.808,0,0,0-2.7-.137c-.906.2-1.138.52-1.073.834.235,1.1,5.116-.9,5.839,2.483.36,1.678-.769,3.4-3.614,4.007A8.337,8.337,0,0,1,841.891,618.4Z" transform="translate(-393.748 -227.277)" fill="#497bdb" opacity="0.7"/>
    <path id="Path_21264" data-name="Path 21264" d="M876.139,606.1c.455,2.123-.887,3.811-3.444,4.357l-1.308.281.484,2.257-3.1.654-1.963-9.182,4.419-.942C873.774,602.982,875.684,603.969,876.139,606.1Zm-3.121.654c-.144-.671-.638-.981-1.488-.808l-1.128.242.458,2.149,1.129-.239c.854-.17,1.174-.664,1.03-1.331Z" transform="translate(-411.264 -223.757)" fill="#497bdb" opacity="0.7"/>
    <path id="Path_21265" data-name="Path 21265" d="M904.618,604.313l-3.487.746-.275,1.73-3.147.674,2.057-10.039,3.042-.654,5.976,8.325-3.2.684Zm-1.328-2.048-1.384-2.116-.4,2.5Z" transform="translate(-432.057 -219.312)" fill="#497bdb" opacity="0.7"/>
    <path id="Path_21266" data-name="Path 21266" d="M926.749,592.694l-2.689.576-.51-2.4,8.472-1.809.513,2.4-2.689.576,1.449,6.781-3.1.654Z" transform="translate(-449.445 -214.124)" fill="#497bdb" opacity="0.7"/>
    <path id="Path_21267" data-name="Path 21267" d="M953.126,590.467a4.888,4.888,0,0,1,4.089-5.888,5.075,5.075,0,0,1,4.511.958l-1.58,2.162a2.535,2.535,0,0,0-2.237-.654,2.351,2.351,0,0,0,.981,4.589,2.538,2.538,0,0,0,1.776-1.5l2.326,1.328a5.066,5.066,0,0,1-3.726,2.715A4.893,4.893,0,0,1,953.126,590.467Z" transform="translate(-469.267 -211.007)" fill="#497bdb" opacity="0.7"/>
    <path id="Path_21268" data-name="Path 21268" d="M990.381,576.33l1.963,9.182-3.094.654-.723-3.382-2.859.608.723,3.385-3.1.654-1.963-9.182,3.094-.654.693,3.251,2.859-.609-.693-3.255Z" transform="translate(-488.325 -205.558)" fill="#497bdb" opacity="0.7"/>
    <path id="Path_21269" data-name="Path 21269" d="M1022.656,577.3l.5,2.332-7.634,1.635-1.963-9.182,7.464-1.593.5,2.335-4.419.942.229,1.076,3.883-.828.478,2.228-3.883.831.259,1.207Z" transform="translate(-510.013 -201.628)" fill="#497bdb" opacity="0.7"/>
    <path id="Path_21270" data-name="Path 21270" d="M1040.55,567.231l4.524-.981c3.068-.654,5.561.654,6.162,3.484s-1.132,5.041-4.2,5.7l-4.524.965Zm5.839,5.829a2.226,2.226,0,1,0-.929-4.354l-1.308.275.929,4.357Z" transform="translate(-528.174 -198.663)" fill="#497bdb" opacity="0.7"/>
    <rect id="Rectangle_15123" data-name="Rectangle 15123" width="104.459" height="30.279" rx="3" transform="translate(340.878 560.283)" fill="#fff"/>
    <path id="Path_21271" data-name="Path 21271" d="M601.985,1195.382H598.42l-.631,1.636H594.57l4.105-9.388h3.111l4.1,9.388H602.62Zm-.87-2.29-.913-2.362-.913,2.362Z" transform="translate(-228.073 -616.903)" fill="#5fceb7"/>
    <path id="Path_21272" data-name="Path 21272" d="M629.18,1191.906a4.894,4.894,0,0,1,5.234-4.906,5.04,5.04,0,0,1,4.21,1.878l-2,1.786a2.538,2.538,0,0,0-2.051-1.1,2.354,2.354,0,0,0,0,4.7,2.533,2.533,0,0,0,2.051-1.1l2,1.786a5.068,5.068,0,0,1-4.21,1.878A4.905,4.905,0,0,1,629.18,1191.906Z" transform="translate(-251.362 -616.479)" fill="#5fceb7"/>
    <path id="Path_21273" data-name="Path 21273" d="M661.2,1190.083H658.45v-2.453h8.665v2.453h-2.748v6.934H661.2Z" transform="translate(-271.058 -616.903)" fill="#5fceb7"/>
    <path id="Path_21274" data-name="Path 21274" d="M687.44,1187.63h3.166v9.388H687.44Z" transform="translate(-290.566 -616.903)" fill="#5fceb7"/>
    <path id="Path_21275" data-name="Path 21275" d="M709.729,1187.63l-3.968,9.388h-3.114l-3.968-9.388h3.405l2.241,5.485,2.29-5.485Z" transform="translate(-298.129 -616.903)" fill="#5fceb7"/>
    <path id="Path_21276" data-name="Path 21276" d="M741.215,1194.6v2.388h-7.8V1187.6h7.631v2.388h-4.521v1.1h3.971v2.29h-3.971v1.223Z" transform="translate(-321.499 -616.883)" fill="#5fceb7"/>
    <rect id="Rectangle_15124" data-name="Rectangle 15124" width="104.459" height="30.279" rx="3" transform="translate(581.848 560.283)" fill="#fff"/>
    <path id="Path_21277" data-name="Path 21277" d="M1369.78,1191.906c0-2.843,2.24-4.906,5.3-4.906s5.3,2.067,5.3,4.906-2.237,4.906-5.3,4.906S1369.78,1194.742,1369.78,1191.906Zm7.406,0a2.119,2.119,0,1,0-2.106,2.349A2.137,2.137,0,0,0,1377.186,1191.906Z" transform="translate(-749.714 -616.479)" fill="#b5b5b5"/>
    <path id="Path_21278" data-name="Path 21278" d="M1408.866,1190.018v1.609h3.925v2.388h-3.925v3H1405.7v-9.388h7.622v2.388Z" transform="translate(-773.884 -616.903)" fill="#b5b5b5"/>
    <path id="Path_21279" data-name="Path 21279" d="M1435.273,1190.018v1.609h3.925v2.388h-3.925v3h-3.163v-9.388h7.631v2.388Z" transform="translate(-791.656 -616.903)" fill="#b5b5b5"/>
    <path id="Path_21280" data-name="Path 21280" d="M612.2,1081.441s-2.8,1.475-4.648.442-2.78-2.915-2.064-4.194,2.8-1.475,4.651-.438S612.2,1081.441,612.2,1081.441Z" transform="translate(-235.26 -542.181)" fill="#5673a8"/>
    <ellipse id="Ellipse_3353" data-name="Ellipse 3353" cx="2.123" cy="3.713" rx="2.123" ry="3.713" transform="translate(371.599 539.774)" fill="#5673a8"/>
    <path id="Path_21281" data-name="Path 21281" d="M603.113,1114.023c1.2.834.824,3.464-.847,5.868s-6.686,1.668-6.686,1.668a17.83,17.83,0,0,1,2.329-4.7C599.58,1114.458,601.913,1113.189,603.113,1114.023Z" transform="translate(-228.753 -567.2)" fill="#5673a8"/>
    <path id="Path_21282" data-name="Path 21282" d="M611.592,1080.6a7.927,7.927,0,0,1,.756,2.748s-2.8,1.475-4.651.438a5.206,5.206,0,0,1-1.446-1.178,4.825,4.825,0,0,0,1.963,1.963c1.851,1.034,4.648-.442,4.648-.442A6.872,6.872,0,0,0,611.592,1080.6Z" transform="translate(-235.933 -544.882)" fill="#355585"/>
    <path id="Path_21283" data-name="Path 21283" d="M614.173,1095.4a5.917,5.917,0,0,1,.288,1.865c0,2.051-.949,3.716-2.123,3.716a1.658,1.658,0,0,1-1.308-.785c.366,1.1,1.05,1.845,1.832,1.845,1.171,0,2.12-1.661,2.12-3.712A5.07,5.07,0,0,0,614.173,1095.4Z" transform="translate(-239.149 -554.841)" fill="#355585"/>
    <path id="Path_21284" data-name="Path 21284" d="M603.241,1114.88a7.054,7.054,0,0,1-1.5,4.7c-1.236,1.776-4.3,1.838-5.809,1.75-.239.6-.347.981-.347.981s5.014.736,6.686-1.668C603.872,1118.328,604.281,1115.812,603.241,1114.88Z" transform="translate(-228.753 -567.949)" fill="#355585"/>
    <path id="Path_21285" data-name="Path 21285" d="M602.568,1133.49h-.235l-.559,3.225-2.113,4.105h1.328l1.308-4.37Z" transform="translate(-231.498 -580.472)" fill="#355585"/>
    <path id="Path_21286" data-name="Path 21286" d="M622.36,1081.3l4.233-4.36,1.328-4.772-1.06-1.063-1.315,5.7-3.186,3.628Z" transform="translate(-246.773 -538.49)" fill="#355585"/>
    <path id="Path_21287" data-name="Path 21287" d="M594.843,1066.985s-1.59-6.365-3.183-7.163-4.507-.265-4.252,1.593.795.795.795.53-.53-.53-.53-.53a1.37,1.37,0,0,1,1.325-1.593c1.59-.265,2.388,0,2.918.533a24.775,24.775,0,0,1,2.09,4.527c.029.245.563,2.1.563,2.1S594.843,1067.25,594.843,1066.985Z" transform="translate(-223.243 -530.659)" fill="#355585"/>
    <path id="Path_21288" data-name="Path 21288" d="M604.637,1057.949s0-8.753-1.855-9.548-3.183-.265-3.183.53.53,1.858.795,1.328-.265-.53-.265-.53-.795-.533.265-1.063,2.123-.53,2.653.53a6.349,6.349,0,0,1,.795,2.388c.265,1.325.53,6.365.53,6.365S604.382,1058.214,604.637,1057.949Z" transform="translate(-231.458 -522.951)" fill="#355585"/>
    <path id="Path_21289" data-name="Path 21289" d="M619.491,1136.461l1.161-5.168-3.183-3.977v-.265l3.713,3.713-.7,5.7Z" transform="translate(-243.483 -576.139)" fill="#355585"/>
    <path id="Path_21290" data-name="Path 21290" d="M602.1,1102.51l3.7-3.84v.8l-2.9,2.777,3.448,2.918-.53,1.063Z" transform="translate(-233.14 -557.042)" fill="#355585"/>
    <path id="Path_21291" data-name="Path 21291" d="M636.66,1068.87l.52-.392s1.073-.936.808-1.73-1.063-1.59-1.328-.795-.54,1.462-.54,1.462Z" transform="translate(-256.032 -534.805)" fill="#355585"/>
    <path id="Path_21292" data-name="Path 21292" d="M688.253,486.516l-14.719,51.449L658.71,589.388c-4.929,17.143-9.77,34.309-14.89,51.4s-10.287,34.159-15.753,51.145l-.157-.046c4.579-17.248,9.486-34.4,14.34-51.561s10.1-34.214,15.2-51.3l15.3-51.292,15.374-51.263Z" transform="translate(-250.508 -145.091)"/>
    <path id="Path_21293" data-name="Path 21293" d="M639.324,1065.379s1.8-.2,1.537.86a3.378,3.378,0,0,1-1.4,1.75S638.509,1065.644,639.324,1065.379Z" transform="translate(-257.967 -534.63)" fill="#355585"/>
    <line id="Line_3005" data-name="Line 3005" x1="15.374" transform="translate(365.542 560.322)" fill="none" stroke="#b5b5b5" stroke-miterlimit="10" stroke-width="2"/>
    <path id="Path_21294" data-name="Path 21294" d="M1309.495,1095.058v1.079h-3.784v-.867l1.884-2.191h-1.825V1092h3.634v.857l-1.887,2.188Z" transform="translate(-706.601 -552.554)" fill="#355585"/>
    <path id="Path_21295" data-name="Path 21295" d="M1291.93,1063.233v1.848h-6.49v-1.465l3.232-3.755h-3.13V1058h6.215v1.466l-3.232,3.755Z" transform="translate(-692.961 -529.675)" fill="#355585"/>
    <path id="Path_21296" data-name="Path 21296" d="M1308.013,1025.005v2.44h-8.573v-1.933l4.252-4.962h-4.131v-2.44h8.24v1.927l-4.252,4.962Z" transform="translate(-702.382 -502.832)" fill="#355585"/>
    <line id="Line_3006" data-name="Line 3006" x1="29.766" transform="translate(605.631 560.24)" fill="none" stroke="#b5b5b5" stroke-miterlimit="10" stroke-width="2"/>
    <path id="Path_21297" data-name="Path 21297" d="M1344.19,1129.8a5.366,5.366,0,0,0,.69-.033h0a6,6,0,0,0-5.194-4.461,6.906,6.906,0,0,0-1.073-.026,3.877,3.877,0,0,0-1.456.4,2.617,2.617,0,0,0-.844.68,1.909,1.909,0,0,0-.366.726,4.222,4.222,0,0,0-3.32-1,4.973,4.973,0,0,0-2.98,1.158l-.128.121a.02.02,0,0,1-.02,0v-.039a2.632,2.632,0,0,0,.121-.579,1.82,1.82,0,0,0-.144-.916,1.6,1.6,0,0,0-.654-.733,2.29,2.29,0,0,0-1.456-.265l-.124.02a5.843,5.843,0,0,1-3.248-1.636c-.271-.242-.533-.5-.792-.756a5.255,5.255,0,0,1-.756-.818,1.275,1.275,0,0,1-.1-1.122,4.783,4.783,0,0,1,.611-1.187,6,6,0,0,1,.471-.621,1.412,1.412,0,0,1,.569-.428.6.6,0,0,1,.072-.02.7.7,0,0,0-.1.327.472.472,0,0,0,.045.245c.046.089.167.082.281.039a.629.629,0,0,0,.383-.439.327.327,0,0,0-.236-.36,1.2,1.2,0,0,0-1.282.654,12.979,12.979,0,0,0-.89,1.439,1.838,1.838,0,0,0-.131,1.446,3.56,3.56,0,0,0,.86,1.014,11.475,11.475,0,0,0,2.051,1.7,5.387,5.387,0,0,0,1.635.674,2.581,2.581,0,0,0-.327.16c-.082.046-.167.085-.245.134a3.584,3.584,0,0,0-.438.3c-1.138-.409-2.29-.847-3.431-1.328a12.788,12.788,0,0,1-1.8-.854,2.29,2.29,0,0,1-1.135-1.41,1.044,1.044,0,0,1,.232-1,.546.546,0,0,1,.151-.1c.026.265.327.393.628.2a.16.16,0,0,0,.065-.108c0-.291-.245-.415-.533-.363a.131.131,0,0,0-.069,0,1.052,1.052,0,0,0-.68.713,1.524,1.524,0,0,0,.068,1.024,2.175,2.175,0,0,0,.582.821,6.282,6.282,0,0,0,1.8,1.021c.7.3,1.4.582,2.106.854.608.232,1.22.455,1.825.654a3.581,3.581,0,0,0-.618.733,3.88,3.88,0,0,0,.026,4.334c.448.654,2.705-.654,3.363-1.734a6.427,6.427,0,0,1,.736-.808,1.215,1.215,0,0,0,0,.484,1.432,1.432,0,0,0,.8.958,22.2,22.2,0,0,0-2.336,1.2,45.557,45.557,0,0,0-1.57,7.85c.514-1.063,1.184-5.77,1.861-7.451a21.783,21.783,0,0,1,2.169-1.527c.095.042.2.082.3.118a1.453,1.453,0,0,1,.844.2,7.131,7.131,0,0,0,1.8,0,7.367,7.367,0,0,0,1.694-.392,1.718,1.718,0,0,1,.474-.981,1.658,1.658,0,0,1,1.155-.478,1.677,1.677,0,0,1,1.079.419,1.761,1.761,0,0,1,.752.412,1.473,1.473,0,0,1,.412.743l.118.026c.4.085.811.141,1.224.186a19.787,19.787,0,0,1,3.31.213A1.684,1.684,0,0,1,1344.19,1129.8Z" transform="translate(-715.573 -570.078)" fill="#919191"/>
    <path id="Path_21298" data-name="Path 21298" d="M1340,1166.051l1.308-.458s.275-5.561.546-6.993A74.056,74.056,0,0,0,1340,1166.051Z" transform="translate(-729.675 -597.369)" fill="#6c6c6c"/>
    <path id="Path_21299" data-name="Path 21299" d="M1331.224,1124.322a5.611,5.611,0,0,0,1.05.5,1.69,1.69,0,0,1,.18-.163,6.779,6.779,0,0,1-2.29-1.416c-.272-.242-.533-.5-.792-.756a5.412,5.412,0,0,1-.755-.818,1.275,1.275,0,0,1-.1-1.122,4.783,4.783,0,0,1,.618-1.21,6,6,0,0,1,.471-.621,1.416,1.416,0,0,1,.569-.428.615.615,0,0,1,.072-.02.708.708,0,0,0-.1.327.471.471,0,0,0,.046.245c.046.089.167.082.281.039a.629.629,0,0,0,.383-.439.327.327,0,0,0-.236-.36,1.2,1.2,0,0,0-1.282.654,13.016,13.016,0,0,0-.89,1.439,1.838,1.838,0,0,0-.131,1.446,3.56,3.56,0,0,0,.86,1.014A11.474,11.474,0,0,0,1331.224,1124.322Z" transform="translate(-721.749 -570.078)" fill="#6c6c6c"/>
    <path id="Path_21300" data-name="Path 21300" d="M1354.414,1144.4a1.219,1.219,0,0,1,.556-.291,2.322,2.322,0,0,1,1.07,0,6.826,6.826,0,0,0-.416-1.148,12.011,12.011,0,0,1-3.392.389,6.412,6.412,0,0,1-4.789-2.414,6.573,6.573,0,0,1-2.4,1.635c-1.148.533-2.669.906-3.709-.052a2.321,2.321,0,0,1-.261-.3.845.845,0,0,1-.281-.573,1.462,1.462,0,0,1-.036-.2c-.039.033-.075.069-.114.108h0v-.039a2.627,2.627,0,0,0,.121-.579,1.814,1.814,0,0,0-.144-.916,1.6,1.6,0,0,0-.654-.733,2.071,2.071,0,0,0-.461-.19,1.2,1.2,0,0,1,.043.723c-1.141,4.612-3.6,4.272-3.978,4.164a4.526,4.526,0,0,0,.474,1c.448.654,2.7-.654,3.362-1.734a6.422,6.422,0,0,1,.736-.808,1.215,1.215,0,0,0,0,.484,1.433,1.433,0,0,0,.8.958h-.02l.121.069h.023a3.608,3.608,0,0,0,.481.18,5.681,5.681,0,0,0,2.46.15,7.4,7.4,0,0,0,2.192-.605c1.007-.491,1.063-.831,1.141-.981a2.607,2.607,0,0,0,.248.327l.1.1a1.326,1.326,0,0,1,.429.235.809.809,0,0,1,.17.2l.183.095a5.476,5.476,0,0,0,1.22.389c.4.085.811.141,1.223.186a20.843,20.843,0,0,1,3.467.232Z" transform="translate(-726.694 -584.247)" fill="#6c6c6c"/>
    <path id="Path_21301" data-name="Path 21301" d="M1323.657,1130.384c.569.216,1.138.422,1.7.625a1.57,1.57,0,0,1,.347-.02v-.134l-.052.039c-1.138-.409-2.29-.847-3.431-1.328a12.779,12.779,0,0,1-1.8-.854,2.291,2.291,0,0,1-1.135-1.41,1.043,1.043,0,0,1,.232-1,.542.542,0,0,1,.15-.1c.026.265.327.393.628.2a.161.161,0,0,0,.066-.108c0-.291-.245-.416-.533-.363a.132.132,0,0,0-.069,0,1.053,1.053,0,0,0-.68.713,1.525,1.525,0,0,0,.069,1.024,2.176,2.176,0,0,0,.582.821,6.282,6.282,0,0,0,1.8,1.021Q1322.614,1129.982,1323.657,1130.384Z" transform="translate(-715.559 -575.381)" fill="#6c6c6c"/>
    <path id="Path_21302" data-name="Path 21302" d="M1333.27,1155.891l5.479-4.753,2.3-4.449.118.252-1.675,4.471-4.7,3.778Z" transform="translate(-725.146 -589.354)" fill="#919191"/>
    <path id="Path_21303" data-name="Path 21303" d="M1356.65,1136.317a9.077,9.077,0,0,1,9.159-.981,48,48,0,0,1,9.813,6.061h-17.663Z" transform="translate(-740.879 -581.169)" fill="#b5b5b5"/>
    <path id="Path_21304" data-name="Path 21304" d="M524.714,595.568c-8.416.517-16.594-7.5-16.535-16.836.056-7.939,6.6-16.724,16.59-16.682s16.944,6.977,17.045,16.97C541.91,588.263,534.027,596.133,524.714,595.568Zm10.451-9.6c-.16-.386-.353-.939-.612-1.459-1.047-2.12-2.113-4.229-3.17-6.342-1.59-3.17-3.166-6.342-4.772-9.506-.383-.756-.844-1.541-1.851-1.482-.922.056-1.141.913-1.475,1.57q-3.866,7.693-7.71,15.4a4.157,4.157,0,0,0-.605,1.907c0,1.04.487,1.429,1.42,1.043a9.624,9.624,0,0,0,1.511-.906c1.835-1.2,3.729-2.322,5.469-3.644a2.4,2.4,0,0,1,3.209,0q1.871,1.308,3.762,2.561c.981.654,1.936,1.357,2.96,1.936A1.19,1.19,0,0,0,535.165,585.97Z" transform="translate(-169.941 -195.949)" fill="#dadada"/>
    <path id="Path_21305" data-name="Path 21305" d="M549.135,596.5a1.181,1.181,0,0,1-1.865,1.063c-1.024-.579-1.982-1.276-2.96-1.936q-1.887-1.266-3.762-2.561a2.426,2.426,0,0,0-3.209,0c-1.74,1.308-3.634,2.443-5.469,3.644a9.634,9.634,0,0,1-1.511.906c-.932.386-1.406,0-1.42-1.043a4.263,4.263,0,0,1,.605-1.907q3.853-7.7,7.71-15.4c.327-.654.553-1.514,1.475-1.57,1.007-.059,1.469.726,1.851,1.482,1.606,3.163,3.183,6.336,4.772,9.505,1.057,2.113,2.123,4.223,3.17,6.342C548.782,595.556,548.975,596.109,549.135,596.5Z" transform="translate(-183.911 -206.474)" fill="#fff"/>
    <line id="Line_3007" data-name="Line 3007" x2="26.184" transform="translate(679.736 590.559)" fill="none" stroke="#b5b5b5" stroke-miterlimit="10" stroke-width="2"/>
    <path id="Path_21306" data-name="Path 21306" d="M1567.655,1171.65s3.307-.288,4.354-2.257.8-4.151-.563-4.874-3.307.288-4.354,2.257S1567.655,1171.65,1567.655,1171.65Z" transform="translate(-882.248 -601.195)" fill="#919191"/>
    <ellipse id="Ellipse_3354" data-name="Ellipse 3354" cx="2.228" cy="3.899" rx="2.228" ry="3.899" transform="matrix(0.841, -0.542, 0.542, 0.841, 686.677, 570.28)" fill="#919191"/>
    <path id="Path_21307" data-name="Path 21307" d="M1589.436,1200.21c-.585,1.423,1.246,3.526,4.089,4.7s6.853-2.329,6.853-2.329a18.673,18.673,0,0,0-4.73-2.82C1592.818,1198.585,1590.021,1198.788,1589.436,1200.21Z" transform="translate(-897.447 -624.551)" fill="#919191"/>
    <path id="Path_21308" data-name="Path 21308" d="M1566.775,1172.4a8.266,8.266,0,0,0,.9,2.859s3.307-.288,4.354-2.257a5.462,5.462,0,0,0,.608-1.865,5.091,5.091,0,0,1-.625,2.869c-1.047,1.962-4.353,2.257-4.353,2.257A7.355,7.355,0,0,1,1566.775,1172.4Z" transform="translate(-882.247 -605.807)" fill="#6c6c6c"/>
    <path id="Path_21309" data-name="Path 21309" d="M1577,1187a6.218,6.218,0,0,0,.808,1.812c1.165,1.809,2.944,2.738,3.984,2.071a1.741,1.741,0,0,0,.7-1.433c.3,1.181.124,2.227-.566,2.672-1.037.654-2.82-.261-3.987-2.07A5.336,5.336,0,0,1,1577,1187Z" transform="translate(-889.153 -616.479)" fill="#6c6c6c"/>
    <path id="Path_21310" data-name="Path 21310" d="M1589.4,1203.23a7.429,7.429,0,0,0,4,3.291c2.1.867,4.838-.821,6.123-1.76.553.4.864.654.864.654s-4.007,3.5-6.853,2.329C1590.8,1206.632,1589.012,1204.643,1589.4,1203.23Z" transform="translate(-897.461 -627.4)" fill="#6c6c6c"/>
    <path id="Path_21311" data-name="Path 21311" d="M1609.32,1213.387a1.444,1.444,0,0,0,.163-.128l.033-.029,5.112,5.312-1.128,6.146h-1.394l1.9-6.077Z" transform="translate(-910.901 -634.129)" fill="#6c6c6c"/>
    <path id="Path_21312" data-name="Path 21312" d="M1584.352,1213.1l-5.871,2.875-.661,8.625h1.394l.036-8.459,5.253-2.81Z" transform="translate(-889.704 -634.042)" fill="#6c6c6c"/>
    <path id="Path_21313" data-name="Path 21313" d="M1533.65,1179.05l3.271,1.963,11.684,2.931-.494-.769Z" transform="translate(-859.982 -611.13)" fill="#6c6c6c"/>
    <path id="Path_21314" data-name="Path 21314" d="M1575.767,1148.936s-2.218-6.526-1.266-8.132,3.83-2.8,4.651-1.011-.249,1.155-.4.922.167-.772.167-.772a1.45,1.45,0,0,0-2.077-.654c-1.557.654-2.107,1.358-2.29,2.126a24.915,24.915,0,0,0,.729,5.188c.111.232.7,2.175.7,2.175S1575.918,1149.168,1575.767,1148.936Z" transform="translate(-887.311 -584.113)" fill="#6c6c6c"/>
    <path id="Path_21315" data-name="Path 21315" d="M1564.08,1145.765s-4.978-7.726-3.794-9.486,2.659-2.044,3.111-1.341.589,1.94.052,1.635-.065-.618-.065-.618.4-.922-.837-.785-2.175.736-2.041,1.963a6.693,6.693,0,0,0,.654,2.561c.52,1.322,3.153,5.921,3.153,5.921S1564.466,1145.84,1564.08,1145.765Z" transform="translate(-877.783 -581.207)" fill="#6c6c6c"/>
    <path id="Path_21316" data-name="Path 21316" d="M1585.455,1163.129l3.441-2.329.573-6.5,2.224-2.234c-.409,1.822-1.891,10.14-1.891,10.14l-4.027,1.58-.406-.625Z" transform="translate(-894.785 -592.974)" fill="#6c6c6c"/>
    <path id="Path_21317" data-name="Path 21317" d="M1605.562,1073.037c-.144,1.515-.841,2.944-.618,4.517-2.005-1.377-2.2-1.364-3.5.288-.36.455-.654.981-1.007,1.423-4.177,5-9.577,6.9-15.854,5.535-6.457-1.413-10.536-5.626-11.893-12.1a14.728,14.728,0,0,1,5.659-15.492,15.061,15.061,0,0,1,16.682-1.747,14.674,14.674,0,0,1,8.217,10.346c-.9.072-1.479.092-2.041.173-.86.124-1.335.785-.831,1.423C1601.964,1069.393,1603.047,1071.889,1605.562,1073.037Zm-20.538-3.4c0,3.6,1.308,5.888,3.863,6.758,3.451,1.164,6.48-.6,7.448-4.337,1.174-4.537-.765-8.56-4.471-9.224a6.122,6.122,0,0,0-1.711-.065c-3.31.37-5.1,2.783-5.119,6.869Zm-2.234.219h0v-2.908c0-4.321-.281-4.553-4.579-4.046-.759.088-1.308.242-1.308,1.155,0,.762.15,1.384,1.053,1.4,1.394.016,1.478.919,1.469,1.962-.02,2.427.03,4.851-.016,7.275-.023,1.194.36,1.773,1.655,1.77,1.21,0,1.786-.386,1.737-1.668-.049-1.636,0-3.284,0-4.949Z" transform="translate(-885.986 -526.796)" fill="#ededed"/>
    <path id="Path_21318" data-name="Path 21318" d="M1598.351,1066.137c-2.525-1.148-3.6-3.644-5.2-5.649-.5-.654-.029-1.308.831-1.423.563-.082,1.138-.1,2.041-.173a14.674,14.674,0,0,0-8.217-10.346,15.066,15.066,0,0,0-16.682,1.747,14.729,14.729,0,0,0-5.659,15.491c1.357,6.49,5.436,10.7,11.893,12.1,6.277,1.367,11.677-.53,15.854-5.534.37-.445.654-.981,1.008-1.423,1.308-1.635,1.495-1.665,3.5-.288a4.091,4.091,0,0,1-1.05,2.944,19.262,19.262,0,0,1-34.977-13.048,19.272,19.272,0,0,1,37.361-4.079c.533,1.541.9,2.829,3.006,2.672,1.066-.082,1.331.818.536,1.858C1601.269,1062.752,1599.787,1064.423,1598.351,1066.137Z" transform="translate(-878.775 -519.897)" fill="#556490"/>
    <path id="Path_21319" data-name="Path 21319" d="M1611.24,1088.173c.02-4.085,1.809-6.5,5.129-6.869a6.121,6.121,0,0,1,1.711.066c3.706.654,5.646,4.687,4.471,9.224-.981,3.739-4,5.5-7.448,4.338C1612.545,1094.068,1611.224,1091.758,1611.24,1088.173Zm8.276.108a5.884,5.884,0,0,0-.38-2.555,2.349,2.349,0,0,0-2.159-1.665,2.265,2.265,0,0,0-2.1,1.724,6.523,6.523,0,0,0,.223,5.351c.877,1.714,2.643,1.727,3.716.2A4.9,4.9,0,0,0,1619.515,1088.281Z" transform="translate(-912.192 -545.335)" fill="#556490"/>
    <path id="Path_21320" data-name="Path 21320" d="M1592.278,1088.326c0,1.635-.049,3.3,0,4.949.049,1.282-.527,1.662-1.737,1.668-1.308,0-1.678-.576-1.655-1.77.046-2.424,0-4.848.016-7.275,0-1.057-.075-1.963-1.469-1.963-.9,0-1.053-.635-1.053-1.4,0-.913.546-1.067,1.308-1.155,4.3-.507,4.579-.275,4.579,4.046v2.895Z" transform="translate(-895.464 -545.282)" fill="#556490"/>
    <path id="Path_21321" data-name="Path 21321" d="M1626.07,1094.017a4.908,4.908,0,0,1-.7,3.052,2.04,2.04,0,0,1-3.716-.2,6.712,6.712,0,0,1-.223-5.351,2.3,2.3,0,0,1,2.1-1.724,2.383,2.383,0,0,1,2.159,1.665A6.042,6.042,0,0,1,1626.07,1094.017Z" transform="translate(-918.746 -551.071)" fill="#ededed"/>
    <path id="Path_21322" data-name="Path 21322" d="M1482.955,1081.978s3.212.412,4.619-1.243,1.635-3.788.478-4.756-3.209-.415-4.615,1.24S1482.955,1081.978,1482.955,1081.978Z" transform="translate(-825.668 -541.452)" fill="#919191"/>
    <ellipse id="Ellipse_3355" data-name="Ellipse 3355" cx="2.172" cy="3.801" rx="2.172" ry="3.801" transform="matrix(0.993, -0.122, 0.122, 0.993, 658.529, 539.418)" fill="#919191"/>
    <path id="Path_21323" data-name="Path 21323" d="M1493.592,1112.375c-1.119,1-.405,3.621,1.593,5.855s7,.864,7,.864a18.3,18.3,0,0,0-2.944-4.481C1497.235,1112.378,1494.71,1111.377,1493.592,1112.375Z" transform="translate(-832.671 -566.004)" fill="#919191"/>
    <path id="Path_21324" data-name="Path 21324" d="M1482.934,1083.49a8.1,8.1,0,0,0,.255,2.908s3.209.415,4.615-1.24a5.39,5.39,0,0,0,.981-1.635,4.978,4.978,0,0,1-1.191,2.617c-1.406,1.655-4.619,1.243-4.619,1.243A7.221,7.221,0,0,1,1482.934,1083.49Z" transform="translate(-825.676 -546.827)" fill="#6c6c6c"/>
    <path id="Path_21325" data-name="Path 21325" d="M1489.147,1094a6.059,6.059,0,0,0-.062,1.933c.255,2.084,1.429,3.654,2.616,3.507a1.7,1.7,0,0,0,1.227-.958c-.239,1.168-.838,2.005-1.636,2.1-1.191.147-2.362-1.423-2.617-3.507A5.2,5.2,0,0,1,1489.147,1094Z" transform="translate(-829.679 -553.899)" fill="#6c6c6c"/>
    <path id="Path_21326" data-name="Path 21326" d="M1493.487,1113.56a7.189,7.189,0,0,0,2.116,4.579c1.475,1.652,4.58,1.331,6.117,1.053a8.874,8.874,0,0,1,.474.952s-5,1.374-7-.864C1493.275,1117.139,1492.545,1114.636,1493.487,1113.56Z" transform="translate(-832.681 -567.061)" fill="#6c6c6c"/>
    <path id="Path_21327" data-name="Path 21327" d="M1455.988,1092.663c2.944-1.308,6.562,5.656,6.562,5.656l3.7-3.879.108.886-4.108,4.213s-2.659-6.215-6.911-5.234C1454.873,1094.42,1455.557,1092.869,1455.988,1092.663Z" transform="translate(-807.18 -552.889)" fill="#6c6c6c"/>
    <path id="Path_21328" data-name="Path 21328" d="M1495.539,1061.89s-.749-6.67.49-8,4.229-1.865,4.638,0-.478,1.047-.573.792.327-.7.327-.7a1.4,1.4,0,0,0-1.839-1.053c-1.619.314-2.29.854-2.617,1.554a24.736,24.736,0,0,0-.386,5.09c.059.245.213,2.215.213,2.215S1495.643,1062.145,1495.539,1061.89Z" transform="translate(-834.186 -526.094)" fill="#6c6c6c"/>
    <path id="Path_21329" data-name="Path 21329" d="M1485.724,1056.148s-3.13-8.393-1.635-9.813,2.944-1.394,3.242-.631.157,1.963-.288,1.557.065-.6.065-.6.572-.795-.635-.923-2.224.249-2.352,1.456a6.534,6.534,0,0,0,.088,2.574c.219,1.367,1.77,6.293,1.77,6.293S1486.077,1056.3,1485.724,1056.148Z" transform="translate(-826.36 -521.051)" fill="#6c6c6c"/>
    <path id="Path_21330" data-name="Path 21330" d="M1502,1086.423s.837-7.124,3.454-6.47c.347.088,2.116,2.512,1.636,2.29-4.164-1.927-4.75,5.5-4.75,5.5l-4.527-1.635-.232-.422Z" transform="translate(-835.711 -544.418)" fill="#6c6c6c"/>
    <path id="Path_21331" data-name="Path 21331" d="M1499.1,1126.93l-.026.029h0Z" transform="translate(-836.713 -576.058)" fill="#6c6c6c"/>
    <path id="Path_21332" data-name="Path 21332" d="M1482.844,1136.059h-1.534l2.394-7.1,2.617-2.368c.046-.039.226.036.291,0l-2.325,2.705Z" transform="translate(-824.762 -575.819)" fill="#6c6c6c"/>
    <path id="Path_21333" data-name="Path 21333" d="M1509.5,1135.386h1.7l-2.659-7.35-2.9-2.45c-.052-.039-.249.039-.327,0l2.584,2.8Z" transform="translate(-840.912 -575.146)" fill="#6c6c6c"/>
    <line id="Line_3008" data-name="Line 3008" x2="22.243" transform="translate(650.503 560.24)" fill="none" stroke="#b5b5b5" stroke-miterlimit="10" stroke-width="2"/>
    <path id="Path_21334" data-name="Path 21334" d="M945.557,779.39c3.644-.621,6.241.818,9.29,2.9,3.1,2.126,4.252,7.275,4.769,11.37,1.014,7.988-2.064,17.761-2.064,17.761l-4.033.733s-14.759-17.359-16.273-20.329c-1.4-2.744,8.312-12.43,8.312-12.43Z" transform="translate(-458.567 -342.099)" fill="#fff"/>
    <path id="Path_21335" data-name="Path 21335" d="M935.28,731.867s.095,6.807,2.365,9.453c1.384,1.609,2.669,1.773,3.464,1.636a1.5,1.5,0,0,1,1.452.625h0a3.209,3.209,0,0,1-.618,4.154l6.869-1.963-3.9-4.157,1.331-3.67-.716-3.925a6.764,6.764,0,0,0-3.248-4.691C940.38,728.262,937.779,728.033,935.28,731.867Z" transform="translate(-457.338 -308.056)" fill="#ffab43"/>
    <ellipse id="Ellipse_3356" data-name="Ellipse 3356" cx="1.214" cy="2.061" rx="1.214" ry="2.061" transform="matrix(1, -0.014, 0.014, 1, 487.814, 425.949)" fill="#ffab43"/>
    <path id="Path_21336" data-name="Path 21336" d="M888.587,781.178a4.925,4.925,0,0,1-2.113,8.41,10.274,10.274,0,0,1-1.335.235c-4.736.523-21.572-5.678-24.509-13.27s9.62,1.6,16.842,2.424C882.516,779.552,886.029,778.944,888.587,781.178Z" transform="translate(-406.812 -338.281)" fill="#fff"/>
    <path id="Path_21337" data-name="Path 21337" d="M840.733,721.987s-.962,1.963-2.751,1.452-8.547-5.979-11.262-17.781.2-11.448.2-11.448,3.081-1.122,4.5-.654-1.688,8.351-1.688,8.351,3.078,8.6,6.192,10.428S843.615,719.367,840.733,721.987Z" transform="translate(-383.509 -284.363)" fill="#fff"/>
    <path id="Path_21338" data-name="Path 21338" d="M943.3,728.216l-.379.723-1.524-.134a10.62,10.62,0,0,1-5.433-2.08h0l-1.727,1.263s-1.063.752-1.613.115c-3.225-3.742-.229-6.823,2.159-7.425S945.073,720.212,943.3,728.216Z" transform="translate(-454.6 -302.544)"/>
    <path id="Path_21339" data-name="Path 21339" d="M1011.256,896.756a83.946,83.946,0,0,0,11.121,45.139c5.947,10.107,12.279-34.957,2.617-44.812C1005.957,877.68,1011.256,896.756,1011.256,896.756Z" transform="translate(-508.006 -415.533)" fill="#edf0f5"/>
    <path id="Path_21340" data-name="Path 21340" d="M1058.522,1100.4c.811,1.109,1.655,2.2,2.437,3.32-1.521-14-5.888-49.807-11.4-55.312-6.869-6.869-5.888-5.561-5.888-5.561s-6.542,17.336,0,29.766c3.879,7.373,9.443,18.913,13.329,27.084A1.675,1.675,0,0,1,1058.522,1100.4Z" transform="translate(-528.316 -519.41)" fill="#edf0f5"/>
    <path id="Path_21341" data-name="Path 21341" d="M831.4,692.084a36.163,36.163,0,0,0-3.876,3.134,39.684,39.684,0,0,1-1.184-4.115c-1.825-7.932-1.41-11.076-.942-12.283a12.477,12.477,0,0,0,.687-2.774c.474-3.408,1.812-8.766,4.959,2.924.389,1.446-1.688,8.351-1.688,8.351A50.287,50.287,0,0,0,831.4,692.084Z" transform="translate(-383.127 -269.808)" fill="#ffab43"/>
    <path id="Path_21342" data-name="Path 21342" d="M930.957,721.066c1.887-6.176,14.311-3.906,15.262-.327,2.434,9.126-1.354,12.639-4.87,13.467s-7.147-5.145-7.147-5.145S928.8,728.076,930.957,721.066Z" transform="translate(-454.088 -300.356)"/>
    <circle id="Ellipse_3357" data-name="Ellipse 3357" cx="4.033" cy="4.033" r="4.033" transform="translate(486.6 416.088)" fill="#fff"/>
    <path id="Path_21343" data-name="Path 21343" d="M971.492,876.8l-4.445.981s-19.524,14.785-3.637,25.069c6.542,4.252,30.234-1.452,27.617-15.518C988.321,872.783,971.492,876.8,971.492,876.8Z" transform="translate(-472.076 -407.401)" fill="#edf0f5"/>
    <path id="Path_21344" data-name="Path 21344" d="M918.741,897.483s-10.693,7.543-19.06,30.325c-1.2,3.271-2.345,13.238-3.408,16.833-1.086,3.677-4.125,4.334-3.5,11.736.514,6.14,3.791,31.4,5.665,45.686a1.733,1.733,0,0,1,2.878.138c2.43-15.488,6.774-44.221,6.113-47.7-1.214-6.388-4.04-9.339-4.04-9.339S934,917.685,935.465,914.708,938.138,893.061,918.741,897.483Z" transform="translate(-428.677 -421.209)" fill="#fff"/>
    <path id="Path_21345" data-name="Path 21345" d="M971.492,877.664l-4.445.981s-19.524,14.785-3.637,25.069c6.542,4.252,21.729.183,20.421-13.882S971.492,877.664,971.492,877.664Z" transform="translate(-472.076 -408.268)" fill="#fff"/>
    <path id="Path_21346" data-name="Path 21346" d="M1068.19,1160.521a3.375,3.375,0,0,1,2.715,1.249c-.828-7.454-2.313-19.626-4.252-30.57a58.564,58.564,0,0,1-10.873,4.8c3.886,7.638,8.688,17.644,11.985,24.595A1.654,1.654,0,0,1,1068.19,1160.521Z" transform="translate(-538.423 -578.931)" fill="#ffab43"/>
    <path id="Path_21347" data-name="Path 21347" d="M905.186,1154.037c1.338-8.54,3.209-20.82,4.527-30.747-3.8.327-7.6.654-11.4.762,1.105,8.894,2.5,19.665,3.572,27.843C902.971,1152.615,904.061,1153.357,905.186,1154.037Z" transform="translate(-432.461 -573.609)" fill="#ffab43"/>
    <path id="Path_21348" data-name="Path 21348" d="M892.49,1209.514l4.946-19.194a4.986,4.986,0,0,1-5.479.442s.625,15.047-5.917,18.075a10.808,10.808,0,0,0-1.269.677Z" transform="translate(-423.349 -618.713)" fill="#fff"/>
    <path id="Path_21349" data-name="Path 21349" d="M906.74,1190.785a53.207,53.207,0,0,0,6.512,18.756,47.58,47.58,0,0,1-1.034-19.181A21.671,21.671,0,0,1,906.74,1190.785Z" transform="translate(-438.133 -618.74)" fill="#fff"/>
    <path id="Path_21350" data-name="Path 21350" d="M1044.94,1212.408h13.738c1.819-5.253,4.118-13.025,3.755-17.788l-5.691.864S1061.288,1211.332,1044.94,1212.408Z" transform="translate(-531.128 -621.607)" fill="#edf0f5"/>
    <path id="Path_21351" data-name="Path 21351" d="M1081.06,1195.524c4.17,8.674,9.352,16.924,9.352,16.924a124.967,124.967,0,0,1-3.66-17.787Q1083.922,1195.21,1081.06,1195.524Z" transform="translate(-555.434 -621.634)" fill="#edf0f5"/>
    <path id="Path_21352" data-name="Path 21352" d="M835.65,696.452l.873,1.047,3.487-10.569-1.557.363-.513,2.617Z" transform="translate(-390.297 -279.981)" fill="#ffab43"/>
    <path id="Path_21353" data-name="Path 21353" d="M989.328,751.437a4.93,4.93,0,0,0,5.649,6.581,9.687,9.687,0,0,0,1.308-.383c4.475-1.635,16.77-14.719,16.028-22.818s-7.9,5.731-13.99,9.689C994.028,747.28,990.617,748.294,989.328,751.437Z" transform="translate(-493.467 -310.522)" fill="#fff"/>
    <path id="Path_21354" data-name="Path 21354" d="M1043.4,678.547s1.733,1.308,3.111.075,4.979-9.159,2.143-20.934-5.3-10.173-5.3-10.173-1.963-.694-3.019.35,3.925,7.785,3.925,7.785,1.083,9.07-.887,12.1S1039.657,677.491,1043.4,678.547Z" transform="translate(-527.932 -253.307)" fill="#fff"/>
    <path id="Path_21355" data-name="Path 21355" d="M1040.875,645.807a36.422,36.422,0,0,1,4.864,1.076,38.8,38.8,0,0,0-.775-4.21c-1.907-7.916-4.5-14.592-5.044-15.374-1.943-2.839-6.984-5.234-4.579,6.627.3,1.466,5.233,6.719,5.233,6.719A50.676,50.676,0,0,1,1040.875,645.807Z" transform="translate(-524.24 -238.295)" fill="#ffab43"/>
    <path id="Path_21356" data-name="Path 21356" d="M1038.163,654.154l-.314,1.325-7.2-8.112,1.963-.327.582,2.283Z" transform="translate(-521.512 -253.139)" fill="#ffab43"/>
    <path id="Path_21357" data-name="Path 21357" d="M968.867,718.959a8.985,8.985,0,0,1,13.836,4.678,9.209,9.209,0,0,0,5.463,5.973,13.035,13.035,0,0,1,8.177,9.761,5.754,5.754,0,0,0,5.06,4.7,16.319,16.319,0,1,1-17.991,15.7,5.76,5.76,0,0,0-3.981-5.646,13.008,13.008,0,0,1-8.832-13.738,9.332,9.332,0,0,0-2.751-7.7,9,9,0,0,1,1.03-13.738Z" transform="translate(-477.432 -300.398)"/>
    <path id="Path_21358" data-name="Path 21358" d="M421.9,815.017H328.018c-.559,0-.628-.144-.628-.654q.029-9.983,0-19.973c0-.425.115-.5.51-.5h93.488c.271,0,.536-.128.536.406C421.885,801.223,421.9,808.121,421.9,815.017Zm-79.855-10.3V808.4c0,.226-.059.474.3.553,1.1.242,1.416,0,1.416-1.089,0-.242.02-.484,0-.723-.043-.432.141-.559.566-.569a9.7,9.7,0,0,0,2.672-.19,2.839,2.839,0,0,0,2.172-3.16,2.911,2.911,0,0,0-2.64-2.587c-1.292-.2-2.584-.052-3.873-.124-.514-.033-.631.18-.618.654C342.06,802.341,342.041,803.526,342.041,804.713ZM352.2,803v-1.943c0-1.109-.036-1.128-1.155-1.076-.383.02-.563.154-.559.549v7.975c0,.35.157.471.481.448a2.174,2.174,0,0,1,.461,0c.585.082.828-.115.788-.749-.052-.919-.029-1.845,0-2.767a1.5,1.5,0,0,1,1.688-1.5c.913,0,1.338.484,1.344,1.485v2.437c0,1.194-.216,1.086,1.151,1.093h.065c.37.039.5-.131.5-.5,0-1.141.026-2.29,0-3.428a2.491,2.491,0,0,0-2.663-2.551,4.216,4.216,0,0,0-2.1.523Zm26.086,3.31h1.91c.347,0,.54-.085.523-.478a3.241,3.241,0,0,0-4.462-3.2c-1.531.451-2.116,1.537-2.149,3.222a2.859,2.859,0,0,0,1.786,2.813,3.837,3.837,0,0,0,3.994-.291c.618-.422.049-.739-.137-1.079s-.415-.281-.729-.052a2.255,2.255,0,0,1-3.009-.4c-.271-.419-.15-.543.294-.54C376.981,806.319,377.636,806.316,378.29,806.312Zm-10.333-3.235c-.069-.981-.769-.517-1.2-.576-.546-.075-.419.383-.419.684v4.746c0,1.119-.134.981,1.03,1.027.569.026.713-.186.69-.716-.036-.922-.023-1.848,0-2.771a1.474,1.474,0,0,1,1.636-1.537c.958,0,1.38.471,1.384,1.514v2.437c0,1.168-.187,1.037,1.115,1.07.461,0,.615-.141.605-.6-.029-1.076,0-2.156-.02-3.228a2.509,2.509,0,0,0-1.187-2.29A3.517,3.517,0,0,0,367.957,803.077Zm-6.284-.589a3.183,3.183,0,0,0-3.493,3.147,3.468,3.468,0,0,0,6.931.111,3.186,3.186,0,0,0-3.438-3.258Zm26.541,0a3.183,3.183,0,0,0-3.5,3.133,3.467,3.467,0,0,0,6.931.072,3.179,3.179,0,0,0-3.428-3.206Zm4.645,3.2v2.175c0,1.194-.18,1.076,1.089,1.086h.131c.376.039.5-.137.494-.5v-2.571c0-1.23.435-1.734,1.675-1.936.2-.033.432,0,.425-.288,0-.363.177-.815-.108-1.07s-.654-.108-1.007,0a2.616,2.616,0,0,0-.762.376c-.092.069-.3.19-.327,0-.1-.841-.736-.376-1.128-.468s-.5.128-.491.491c.02.906.01,1.806.01,2.708Zm5.463,1.282c-.684,0-.981.35-.981,1.093a.982.982,0,1,0,1.963-.095c.01-.687-.308-1-.981-1Zm3.925,1.05c0-.733-.327-1.06-1.021-1.05s-.958.327-.962,1.044a.991.991,0,1,0,1.982,0Zm2.9,0c0-.736-.311-1.07-1-1.063s-.981.327-.981,1.03a.981.981,0,0,0,1.963.033Z" transform="translate(-48.287 -351.947)" fill="#f2f2f2"/>
    <path id="Path_21359" data-name="Path 21359" d="M372.18,818.341c0-1.184.02-2.368,0-3.552,0-.471.1-.684.618-.654,1.289.072,2.581-.072,3.873.124a2.911,2.911,0,0,1,2.64,2.587,2.842,2.842,0,0,1-2.172,3.16,9.7,9.7,0,0,1-2.672.19c-.425,0-.608.137-.566.569.023.239,0,.481,0,.723,0,1.1-.327,1.331-1.416,1.089-.357-.078-.294-.327-.3-.553C372.18,820.794,372.18,819.568,372.18,818.341Zm1.717-1.164c0,.35.02.7,0,1.053s.128.553.53.533c.527-.023,1.053,0,1.58,0a1.52,1.52,0,0,0,1.586-1.364,1.425,1.425,0,0,0-1.269-1.681,3.47,3.47,0,0,0-.841-.118c-1.586-.016-1.586-.019-1.586,1.573Z" transform="translate(-78.427 -365.575)" fill="#dadada"/>
    <path id="Path_21360" data-name="Path 21360" d="M399.684,815.524a4.218,4.218,0,0,1,2.08-.523,2.5,2.5,0,0,1,2.663,2.551c.039,1.142,0,2.29,0,3.428,0,.366-.128.536-.5.5h-.065c-1.367,0-1.138.1-1.151-1.093v-2.437c0-1-.432-1.469-1.344-1.485a1.486,1.486,0,0,0-1.688,1.5c-.023.965-.046,1.848,0,2.767.039.635-.2.831-.788.749a2.165,2.165,0,0,0-.461,0c-.327.023-.481-.1-.481-.448v-7.975c0-.4.177-.53.559-.55,1.119-.052,1.155-.033,1.155,1.076Z" transform="translate(-95.767 -364.472)" fill="#dadada"/>
    <path id="Path_21361" data-name="Path 21361" d="M474.4,823.94h-1.979c-.445,0-.566.121-.294.54a2.255,2.255,0,0,0,3.009.4c.327-.229.52-.327.729.052s.756.654.137,1.079a3.837,3.837,0,0,1-3.994.291,2.859,2.859,0,0,1-1.786-2.813c.033-1.685.618-2.771,2.149-3.222a3.241,3.241,0,0,1,4.462,3.2c.016.393-.177.484-.523.478C475.667,823.931,475.029,823.94,474.4,823.94Zm-.922-1.184h1.249c.373,0,.5-.213.3-.5a1.675,1.675,0,0,0-1.59-.831,1.816,1.816,0,0,0-1.436.887c-.193.275-.111.481.3.455s.788-.007,1.168-.007Z" transform="translate(-144.395 -369.575)" fill="#dadada"/>
    <path id="Path_21362" data-name="Path 21362" d="M448.066,820.68a3.5,3.5,0,0,1,3.641-.236,2.476,2.476,0,0,1,1.187,2.29c.036,1.073,0,2.152.02,3.229,0,.461-.144.615-.605.6-1.308-.033-1.1.1-1.115-1.07v-2.437c0-1.044-.425-1.5-1.384-1.515a1.458,1.458,0,0,0-1.636,1.537c-.02.922-.033,1.848,0,2.771.023.53-.121.742-.69.716-1.164-.046-1.027.092-1.03-1.027v-4.746c0-.3-.128-.759.419-.684C447.3,820.166,448,819.718,448.066,820.68Z" transform="translate(-128.397 -369.55)" fill="#dadada"/>
    <path id="Path_21363" data-name="Path 21363" d="M425.013,820.169a3.186,3.186,0,0,1,3.438,3.271,3.467,3.467,0,1,1-5.884-2.464A3.183,3.183,0,0,1,425.013,820.169Zm1.75,3.327a1.783,1.783,0,0,0-1.773-2,1.76,1.76,0,0,0-1.789,1.91,1.787,1.787,0,1,0,3.562.088Z" transform="translate(-111.628 -369.627)" fill="#dadada"/>
    <path id="Path_21364" data-name="Path 21364" d="M506.133,820.167a3.182,3.182,0,1,1-2.443.794A3.179,3.179,0,0,1,506.133,820.167Zm1.74,3.34a1.783,1.783,0,0,0-1.763-2.012,1.763,1.763,0,0,0-1.8,1.9,1.72,1.72,0,0,0,1.763,1.92,1.7,1.7,0,0,0,1.8-1.806Z" transform="translate(-166.207 -369.625)" fill="#dadada"/>
    <path id="Path_21365" data-name="Path 21365" d="M527.537,823.34v-2.7c0-.363.128-.579.491-.491s1.024-.373,1.128.468c.023.177.229.056.327,0a2.621,2.621,0,0,1,.762-.376c.347-.1.752-.222,1.008,0s.1.707.108,1.07c0,.278-.229.255-.425.288-1.24.2-1.672.706-1.675,1.936v2.571c0,.363-.118.54-.494.5h-.131c-1.269,0-1.076.108-1.089-1.086C527.531,824.786,527.537,824.063,527.537,823.34Z" transform="translate(-182.966 -369.593)" fill="#dadada"/>
    <path id="Path_21366" data-name="Path 21366" d="M542.264,833.91c.674,0,.981.327,1,1a.982.982,0,1,1-1.963.095C541.272,834.266,541.58,833.916,542.264,833.91Z" transform="translate(-192.23 -378.884)" fill="#dadada"/>
    <path id="Path_21367" data-name="Path 21367" d="M552.112,834.973a.991.991,0,1,1-1.982,0c0-.71.3-1.03.962-1.043S552.112,834.24,552.112,834.973Z" transform="translate(-198.17 -378.897)" fill="#dadada"/>
    <path id="Path_21368" data-name="Path 21368" d="M561.022,834.973a.981.981,0,1,1-1.963-.033c0-.7.327-1.024.981-1.03S561.029,834.237,561.022,834.973Z" transform="translate(-204.178 -378.884)" fill="#dadada"/>
    <path id="Path_21369" data-name="Path 21369" d="M377.417,820.166c0-1.593,0-1.59,1.583-1.586a3.474,3.474,0,0,1,.841.118,1.425,1.425,0,0,1,1.269,1.681,1.532,1.532,0,0,1-1.586,1.364c-.527.023-1.053,0-1.58,0-.4.02-.556-.137-.53-.533S377.417,820.516,377.417,820.166Z" transform="translate(-81.947 -368.568)" fill="#f2f2f2"/>
    <path id="Path_21370" data-name="Path 21370" d="M476.93,825.5c-.393,0-.788-.02-1.178,0s-.491-.18-.3-.455a1.816,1.816,0,0,1,1.436-.887,1.675,1.675,0,0,1,1.59.831c.2.291.069.5-.3.5Z" transform="translate(-147.856 -372.318)" fill="#f2f2f2"/>
    <path id="Path_21371" data-name="Path 21371" d="M430.222,826.254a1.783,1.783,0,1,1-3.562-.088,1.755,1.755,0,0,1,1.789-1.91,1.783,1.783,0,0,1,1.773,2Z" transform="translate(-115.086 -372.386)" fill="#f2f2f2"/>
    <path id="Path_21372" data-name="Path 21372" d="M511.325,826.267a1.785,1.785,0,1,1-3.565-.115,1.761,1.761,0,0,1,1.8-1.9,1.783,1.783,0,0,1,1.763,2.012Z" transform="translate(-169.659 -372.386)" fill="#f2f2f2"/>
  </g>
</svg>
