<svg xmlns="http://www.w3.org/2000/svg" xmlns:xlink="http://www.w3.org/1999/xlink" width="468.193" height="336.685" viewBox="0 0 468.193 336.685">
  <defs>
    <clipPath id="clip-path">
      <circle id="Ellipse_4199" data-name="Ellipse 4199" cx="6.947" cy="6.947" r="6.947" fill="none"/>
    </clipPath>
  </defs>
  <g id="Layer_16" data-name="Layer 16" transform="translate(-301.81 -276.373)">
    <path id="Path_22140" data-name="Path 22140" d="M998.2,989.8h3.62v-7.128a3.366,3.366,0,0,0-3.366-3.366H977.126a3.366,3.366,0,0,0-3.366,3.366v7.135h3.62l-13.759,81.32h2.741l9.747-57.615h23.361l9.747,57.615h2.737Zm-7.034,21.155H976.539l3.578-21.155h15.34l3.581,21.155Z" transform="translate(-431.916 -458.757)" fill="#b5b5b5"/>
    <line id="Line_3066" data-name="Line 3066" x2="139.643" transform="translate(374.897 611.411)" fill="none" stroke="#b5b5b5" stroke-miterlimit="10" stroke-width="2"/>
    <rect id="Rectangle_16203" data-name="Rectangle 16203" width="77.603" height="41.99" rx="3" transform="translate(714.761 605.808) rotate(180)" fill="#d9d9d9"/>
    <rect id="Rectangle_16204" data-name="Rectangle 16204" width="13.169" height="19.088" transform="translate(708.843 592.313) rotate(-45)" fill="#e4e4e4"/>
    <rect id="Rectangle_16205" data-name="Rectangle 16205" width="46.972" height="20.359" transform="translate(690.49 543.309)" fill="#e4e4e4"/>
    <rect id="Rectangle_16206" data-name="Rectangle 16206" width="41.685" height="40.993" transform="translate(338.284 564.19)" fill="#f2f2f2"/>
    <rect id="Rectangle_16207" data-name="Rectangle 16207" width="33.803" height="20.359" transform="translate(698.032 522.908)" fill="#d9d9d9"/>
    <line id="Line_3067" data-name="Line 3067" x2="101.571" transform="translate(635.981 605.805)" fill="none" stroke="#dadada" stroke-miterlimit="10" stroke-width="2"/>
    <line id="Line_3068" data-name="Line 3068" x2="27.807" transform="translate(726.627 612.057)" fill="none" stroke="#b5b5b5" stroke-miterlimit="10" stroke-width="2"/>
    <rect id="Rectangle_16208" data-name="Rectangle 16208" width="35.376" height="57.65" rx="3" transform="translate(714.32 602.998) rotate(-120)" fill="#f2f2f2"/>
    <path id="Path_22141" data-name="Path 22141" d="M1540.271,1166.576s3.512-.306,4.624-2.4.844-4.408-.6-5.176-3.512.306-4.624,2.4S1540.271,1166.576,1540.271,1166.576Z" transform="translate(-807.621 -575.869)" fill="#909090"/>
    <ellipse id="Ellipse_4189" data-name="Ellipse 4189" cx="2.366" cy="4.141" rx="2.366" ry="4.141" transform="matrix(0.841, -0.542, 0.542, 0.841, 733.994, 590.519)" fill="#909090"/>
    <path id="Path_22142" data-name="Path 22142" d="M1562,1194.756c-.622,1.511,1.32,3.745,4.342,4.988s7.295-2.473,7.295-2.473a19.9,19.9,0,0,0-5.023-2.994C1565.577,1193.029,1562.621,1193.245,1562,1194.756Z" transform="translate(-822.362 -598.521)" fill="#909090"/>
    <path id="Path_22143" data-name="Path 22143" d="M1539.337,1166.941a8.81,8.81,0,0,0,.948,3.036s3.515-.306,4.627-2.4a5.879,5.879,0,0,0,.646-1.98,5.416,5.416,0,0,1-.664,3.046c-1.112,2.084-4.624,2.4-4.624,2.4A7.834,7.834,0,0,1,1539.337,1166.941Z" transform="translate(-807.621 -580.335)" fill="#6c6c6c"/>
    <path id="Path_22144" data-name="Path 22144" d="M1549.54,1181.42a6.559,6.559,0,0,0,.854,1.938c1.237,1.921,3.126,2.907,4.231,2.2a1.859,1.859,0,0,0,.747-1.521c.32,1.254.129,2.362-.6,2.838-1.1.695-2.991-.278-4.231-2.2A5.655,5.655,0,0,1,1549.54,1181.42Z" transform="translate(-814.305 -590.66)" fill="#6c6c6c"/>
    <path id="Path_22145" data-name="Path 22145" d="M1561.956,1197.69a7.9,7.9,0,0,0,4.255,3.5c2.23.921,5.138-.872,6.5-1.869.587.42.917.695.917.695s-4.255,3.72-7.295,2.473C1563.449,1201.306,1561.546,1199.187,1561.956,1197.69Z" transform="translate(-822.372 -601.278)" fill="#6c6c6c"/>
    <path id="Path_22146" data-name="Path 22146" d="M1581.88,1207.867a2.139,2.139,0,0,0,.174-.135l.031-.031,5.433,5.641-1.2,6.527h-1.48l2.018-6.454Z" transform="translate(-835.411 -607.811)" fill="#6c6c6c"/>
    <path id="Path_22147" data-name="Path 22147" d="M1557.317,1207.57l-6.239,3.053-.7,9.16h1.476l.042-8.983,5.579-2.984Z" transform="translate(-814.853 -607.726)" fill="#6c6c6c"/>
    <path id="Path_22148" data-name="Path 22148" d="M1541.921,1186.816l-2.869-2.7-.952.848,3.964,3.165.841-2.5-.528-.816Z" transform="translate(-806.839 -592.422)" fill="#6c6c6c"/>
    <path id="Path_22149" data-name="Path 22149" d="M1548.421,1144.036s-2.355-6.948-1.344-8.636,4.068-2.973,4.94-1.073-.264,1.226-.424.979.177-.82.177-.82a1.542,1.542,0,0,0-2.206-.695c-1.65.695-2.237,1.445-2.432,2.261a26.471,26.471,0,0,0,.775,5.509c.118.247.743,2.31.743,2.31S1548.58,1144.282,1548.421,1144.036Z" transform="translate(-812.532 -559.31)" fill="#6c6c6c"/>
    <path id="Path_22150" data-name="Path 22150" d="M1536.885,1140.928s-5.291-8.2-4.03-10.074,2.824-2.171,3.3-1.424.625,2.06.056,1.737-.073-.657-.073-.657.427-.979-.889-.837-2.31.785-2.164,2.084a7.175,7.175,0,0,0,.695,2.717c.552,1.4,3.349,6.291,3.349,6.291S1537.294,1141.015,1536.885,1140.928Z" transform="translate(-803.289 -556.483)" fill="#6c6c6c"/>
    <path id="Path_22151" data-name="Path 22151" d="M1558.02,1158.285l3.651-2.473.611-6.9,2.362-2.373c-.438,1.935-2.011,10.768-2.011,10.768l-4.276,1.678-.427-.663Z" transform="translate(-819.78 -567.896)" fill="#6c6c6c"/>
    <line id="Line_3069" data-name="Line 3069" x2="60.394" transform="translate(528.483 612.057)" fill="none" stroke="#b5b5b5" stroke-miterlimit="10" stroke-width="2"/>
    <g id="Group_1225" data-name="Group 1225" transform="translate(339.349 370.114)">
      <path id="Rectangle_745" data-name="Rectangle 745" d="M413.7,614.291l208.725-67.737c2.7-.875,5.436.09,6.107,2.157l10.536,32.451c.67,2.084-.976,4.457-3.679,5.332L426.666,654.231c-2.7.879-5.436-.087-6.107-2.154l-10.532-32.451C409.353,617.556,411,615.166,413.7,614.291Z" transform="translate(-409.876 -546.23)" fill="#fff"/>
    </g>
    <path id="Path_22152" data-name="Path 22152" d="M630.181,1056.917s-6.406,21.964,1.737,30.718c4.262,4.6,14.937-.778,27.335-6.923,12.311-6.1,13.811-17.369-.292-22C645.924,1054.423,637.865,1051.54,630.181,1056.917Z" transform="translate(-212.742 -507.495)" fill="#788eba"/>
    <rect id="Rectangle_16209" data-name="Rectangle 16209" width="194.274" height="41.99" rx="3" transform="translate(575.229 380.01)" fill="#dadada"/>
    <rect id="Rectangle_16210" data-name="Rectangle 16210" width="194.274" height="41.99" rx="3" transform="translate(575.229 380.01)" fill="none" stroke="#919191" stroke-miterlimit="10" stroke-width="1" stroke-dasharray="4 6"/>
    <rect id="Rectangle_16211" data-name="Rectangle 16211" width="28.589" height="29.263" transform="translate(301.81 397.927)" fill="#e4e4e4"/>
    <rect id="Rectangle_16212" data-name="Rectangle 16212" width="69.801" height="20.359" transform="translate(645.777 338.746)" fill="#fefefe"/>
    <path id="Path_22153" data-name="Path 22153" d="M1216.063,358.784a4.262,4.262,0,0,0-1.355,2.359c-.316,1.264-.952,2.432-1.164,3.731-.142.9-.542,1.091-1.494.938-1.41-.222-1.389-.222-1.389,1.153a1.122,1.122,0,0,1-.063.462,1.04,1.04,0,0,1-.372.486.445.445,0,0,1-.6-.347c-.181-.761-.733-.733-1.337-.775-3.519-.257-7.031-.629-10.567-.622a1.188,1.188,0,0,1-1.289-.9c-.452-1.223-1.282-2.348-.622-3.755a.892.892,0,0,0-.083-.615,3.119,3.119,0,0,1,.3-2.89,1.574,1.574,0,0,0,.111-1.608c-1.389-2.96-1.535-6.2-2.2-9.334-.3-1.389-.542-2.779-.823-4.168-.268-1.3-.139-1.494,1.2-1.5,3.474-.017,6.947,0,10.421,0,.142.347-.035.472-.149.643-.622.934-.695,1.146.26,1.587a5.63,5.63,0,0,1,2.432,2.737,17.538,17.538,0,0,0,2.918,3.286c.347.379.785.653.941,1.212a2.56,2.56,0,0,0,1.317,1.7c.219.115.5.347.521.559.191,1.633,1.674,2.675,1.928,4.248C1214.983,358.093,1215.684,358.159,1216.063,358.784Z" transform="translate(-581.617 -42.437)" fill="#d9d9d9"/>
    <path id="Path_22154" data-name="Path 22154" d="M418,358.494a17.664,17.664,0,0,1,3.911-.208c.792-.028,1.591-.042,2.379,0s1.108-.313,1.094-1.122c-.035-2.327,0-4.655,0-6.982,0-.636.024-1.271,0-1.9s.184-.987.9-.969c1.48.028,2.963.017,4.443,0,.528,0,.768.233.764.764,0,.9.021,1.8,0,2.7a1.558,1.558,0,0,0,1.16,1.765A27.23,27.23,0,0,0,438.978,354a2.431,2.431,0,0,0,.907-.195c1.292-.368,2.359.313,3.474.747a.743.743,0,0,1,.389.806,11.783,11.783,0,0,0,.844,5.092,3.4,3.4,0,0,1-1.7,3.8c-.424.17-.719-.327-.9-.1s-.233.657-.493.952a2.519,2.519,0,0,1-1.41.969c-1.362.212-1.879,1.372-2.605,2.244a2.508,2.508,0,0,0-.452,2.543,3.508,3.508,0,0,1,.153.938c.042.549-.195.83-.754.6a11.173,11.173,0,0,0-1.23-.278,2.908,2.908,0,0,1-2.432-2.168,4.609,4.609,0,0,0-1.1-2.067,12.1,12.1,0,0,1-1.431-2.265,3.228,3.228,0,0,0-3.064-2.084,1.473,1.473,0,0,0-1.389.851c-.643,1.205-.667,1.174-1.872.528-.993-.535-1.935-1.042-2.084-2.376a2.11,2.11,0,0,0-1.014-1.355A17.966,17.966,0,0,1,418,358.494Z" transform="translate(-75.829 -46.294)" fill="#d9d9d9"/>
    <path id="Path_22155" data-name="Path 22155" d="M946.48,292.009c3.126-.375,5.825-.695,8.531-1.042.625-.076,1.24-.229,1.865-.3a1.073,1.073,0,0,1,1.25.9c.935,3.022,1.935,6.023,2.922,9.032a5.081,5.081,0,0,0,.465,1.174,5.784,5.784,0,0,1,1.063,4.575,1.6,1.6,0,0,0,.153,1.389c.813.959.229,2.168.646,3.2.149.372-.3.636-.695.653-2.529.118-4.992.733-7.5.955-.743.066-1.438.313-2.182.347-.966.069-1.244.663-.559,1.306a2.025,2.025,0,0,1,.618,1.681.98.98,0,0,1-.671.966c-.441.2-.67-.115-.969-.327-.452-.327-.5-.91-.844-1.285-.486.09-.382.469-.406.757-.042.438-.226.674-.695.695a.827.827,0,0,1-.931-.646,31.106,31.106,0,0,1-.573-3.088c-1.174-5.7-.452-11.463-.66-17.205C947.258,294.569,947.477,293.336,946.48,292.009Z" transform="translate(-420.73 -9.325)" fill="#d9d9d9"/>
    <path id="Path_22156" data-name="Path 22156" d="M708.185,497.186c-.017,3.741-.476,7.472-.323,11.22.1,2.522.545,5.009.8,7.514.021.208.108.41.128.615.118,1.157-.156,1.39-1.344,1.226a3.618,3.618,0,0,0-3.314.74c-.445.438-.82.17-.962-.288-.313-.983-1.508-1.719-.806-3.012.174-.316-.243-.542-.591-.528a22.1,22.1,0,0,0-4.419.17,13.3,13.3,0,0,1-2.678.129c-.643.024-.868-.347-.726-.914.379-1.511.486-3.161,1.8-4.255.636-.531.09-1.473.816-1.949.184-.118,0-.386-.195-.5a2.052,2.052,0,0,1-.8-2.067,23.725,23.725,0,0,0-.195-3.085c-.194-1.848.785-3.283,1.112-4.922.045-.229.247-.316.445-.41a1.38,1.38,0,0,0,.747-1.449c-.031-.695.4-1.108.747-1.643a2.451,2.451,0,0,1,2.567-1.021,46.2,46.2,0,0,0,4.863-.3c2.313-.1,2.317-.049,2.313,2.2Z" transform="translate(-255.897 -141.002)" fill="#d9d9d9"/>
    <path id="Path_22157" data-name="Path 22157" d="M1453.672,779.289a1.427,1.427,0,0,0-1.58-1.56q-20.863.042-41.723,0a2.106,2.106,0,0,0-.806.073,2.084,2.084,0,0,1,.6,1.525v.038h-.076v7.861h.024a1.543,1.543,0,0,1-.695.987,2.338,2.338,0,0,0,1,.09h41.723a1.38,1.38,0,0,0,1.514-1.515C1453.668,784.3,1453.651,781.793,1453.672,779.289Z" transform="translate(-722.858 -327.192)" fill="#e4e4e4"/>
    <path id="Path_22158" data-name="Path 22158" d="M1371.817,787.265h-.024V779.4h.076v-.038a2.085,2.085,0,0,0-.6-1.525h0a4.064,4.064,0,0,0-1.143-.08h-18.334a1.136,1.136,0,0,0-1.042,1.042,5.87,5.87,0,0,0,0,.608v7.646a1.2,1.2,0,0,0,1.042,1.212,3.472,3.472,0,0,0,.6.031h17.865a3.063,3.063,0,0,0,.872-.07A1.541,1.541,0,0,0,1371.817,787.265Z" transform="translate(-684.56 -327.213)" fill="#dadada"/>
    <rect id="Rectangle_16213" data-name="Rectangle 16213" width="63.652" height="20.359" rx="5" transform="translate(438.573 304.009)" fill="#e4e4e4"/>
    <path id="Path_22159" data-name="Path 22159" d="M519.082,513.1c-.028-.67-.08-1.341-.08-2.011V479.4a11.256,11.256,0,0,1,.021-1.282,1.768,1.768,0,0,1,1.615-1.7,8.233,8.233,0,0,1,1.278-.038h29.669c1.431.1,1.959.625,2.043,2.032V511.38c0,.545-.059,1.094-.09,1.643a1.255,1.255,0,0,1-.58-.695,18.5,18.5,0,0,0-6.461-6.85,17.931,17.931,0,0,0-12.936-2.779,18.723,18.723,0,0,0-13.811,9.539C519.565,512.565,519.468,512.947,519.082,513.1Zm16.851-12.217a8.491,8.491,0,0,0,8.663-8.337,8.544,8.544,0,1,0-17.087-.2c-.024,5.169,4.624,8.851,8.424,8.542Z" transform="translate(-141.74 -130.526)" fill="#fefefe"/>
    <path id="Path_22160" data-name="Path 22160" d="M519.222,562.125c.386-.149.483-.531.663-.841a18.729,18.729,0,0,1,13.811-9.539,17.931,17.931,0,0,1,12.936,2.779,18.5,18.5,0,0,1,6.461,6.85,1.254,1.254,0,0,0,.58.695c0,.973.052,1.952,0,2.925-.052,1.362-.528,1.8-1.917,1.876H521.948a10.518,10.518,0,0,1-1.1,0c-1.059-.111-1.542-.556-1.608-1.615S519.222,563.16,519.222,562.125Z" transform="translate(-141.879 -179.555)" fill="#5fceb7"/>
    <path id="Path_22161" data-name="Path 22161" d="M551.934,514.953c-3.8.309-8.448-3.373-8.424-8.535a8.545,8.545,0,1,1,8.424,8.535Z" transform="translate(-157.74 -144.6)" fill="#5fceb7"/>
    <path id="Path_22162" data-name="Path 22162" d="M1300.082,313.1c-.028-.67-.08-1.341-.08-2.011V279.4a11.255,11.255,0,0,1,.021-1.282,1.768,1.768,0,0,1,1.615-1.7,8.237,8.237,0,0,1,1.279-.038h29.669c1.431.1,1.959.625,2.043,2.032V311.38c0,.545-.059,1.094-.09,1.643a1.254,1.254,0,0,1-.58-.695,18.5,18.5,0,0,0-6.461-6.85,17.932,17.932,0,0,0-12.936-2.779,18.723,18.723,0,0,0-13.812,9.539C1300.565,312.564,1300.468,312.947,1300.082,313.1Zm16.851-12.217a8.49,8.49,0,0,0,8.663-8.337,8.544,8.544,0,1,0-17.087-.2c-.024,5.169,4.624,8.851,8.424,8.542Z" transform="translate(-651.443)" fill="#f2f2f2"/>
    <path id="Path_22163" data-name="Path 22163" d="M1300.222,362.125c.386-.149.483-.531.664-.841a18.729,18.729,0,0,1,13.811-9.539,17.931,17.931,0,0,1,12.936,2.779,18.5,18.5,0,0,1,6.461,6.85,1.254,1.254,0,0,0,.58.695c0,.973.052,1.952,0,2.925-.052,1.362-.528,1.8-1.917,1.876h-29.808a10.521,10.521,0,0,1-1.1,0c-1.042-.111-1.542-.556-1.608-1.615S1300.222,363.16,1300.222,362.125Z" transform="translate(-651.583 -49.029)" fill="#dadada"/>
    <path id="Path_22164" data-name="Path 22164" d="M1332.934,314.953c-3.8.309-8.448-3.373-8.424-8.535a8.545,8.545,0,1,1,8.424,8.535Z" transform="translate(-667.443 -14.074)" fill="#dadada"/>
    <rect id="Rectangle_16214" data-name="Rectangle 16214" width="33.803" height="20.359" transform="translate(579.266 338.746)" fill="#eee"/>
    <path id="Path_22165" data-name="Path 22165" d="M638.769,1119.056a5.976,5.976,0,0,0-5.94,2.605c-2.512,4.516-6.736,12.568-6.013,14.461,1.014,2.668,7.107,6,7.107,6h5.409s13.895-7.336,11.849-10.894c-1.32-2.313-6.739-6.6-7.99-9.31a5.46,5.46,0,0,0-4.419-2.866Z" transform="translate(-212.055 -549.927)" fill="#788eba"/>
    <path id="Path_22166" data-name="Path 22166" d="M595.784,862.43S571.027,876.6,565.91,890.136s44.873-1.185,48.2-5.506S614.577,856.729,595.784,862.43Z" transform="translate(-172.12 -381.901)" fill="#ffac43"/>
    <path id="Path_22167" data-name="Path 22167" d="M624.859,1196.47h4.391a52.84,52.84,0,0,1,5.416,5.69c2.369,2.98,1.018,9.48,1.018,9.48H611.315s-.347-5.416,1.355-9.48S624.859,1196.47,624.859,1196.47Z" transform="translate(-201.973 -600.482)" fill="#fff"/>
    <ellipse id="Ellipse_4190" data-name="Ellipse 4190" cx="9.31" cy="7.788" rx="9.31" ry="7.788" transform="translate(415.439 567.823)" fill="#788eba"/>
    <path id="Path_22168" data-name="Path 22168" d="M615.713,862.431a124.711,124.711,0,0,0-19.633,14.3l6.708,18.095c13.2-2.2,29.408-7.8,31.263-10.192C637.389,880.32,634.506,856.73,615.713,862.431Z" transform="translate(-192.049 -381.902)" fill="#f7f7f7"/>
    <path id="Path_22169" data-name="Path 22169" d="M770.225,1056.917s6.4,21.964-1.737,30.718c-4.266,4.6-14.937-.778-27.338-6.923-12.307-6.1-13.808-17.369.3-22C754.486,1054.423,762.538,1051.54,770.225,1056.917Z" transform="translate(-280.356 -507.495)" fill="#788eba"/>
    <path id="Path_22170" data-name="Path 22170" d="M792.757,1119.056a5.973,5.973,0,0,1,5.94,2.605c2.515,4.516,6.736,12.568,6.016,14.461-1.018,2.668-7.111,6-7.111,6h-5.415s-13.895-7.336-11.852-10.894c1.32-2.313,6.742-6.6,7.99-9.31a5.46,5.46,0,0,1,4.419-2.866Z" transform="translate(-312.165 -549.927)" fill="#788eba"/>
    <path id="Path_22171" data-name="Path 22171" d="M796.44,847.773s21.207-19.074,35.668-19.685-15.177,42.24-20.321,44.054S785.143,863.832,796.44,847.773Z" transform="translate(-320.698 -360.061)" fill="#ffac43"/>
    <ellipse id="Ellipse_4191" data-name="Ellipse 4191" cx="9.31" cy="7.788" rx="9.31" ry="7.788" transform="translate(473.251 567.823)" fill="#788eba"/>
    <path id="Path_22172" data-name="Path 22172" d="M796.44,858.156a124.887,124.887,0,0,1,19.734-14.166l15.086,12.04c-6.218,11.842-16.618,25.487-19.474,26.494C806.642,884.337,785.143,874.215,796.44,858.156Z" transform="translate(-320.698 -370.443)" fill="#f7f7f7"/>
    <path id="Path_22173" data-name="Path 22173" d="M705.608,882.421H629.77l7.027-16.163a11.964,11.964,0,0,1,10.977-7.2H687.6a11.964,11.964,0,0,1,10.977,7.2Z" transform="translate(-214.036 -380.278)" fill="#b7b7b7"/>
    <circle id="Ellipse_4192" data-name="Ellipse 4192" cx="44.689" cy="44.689" r="44.689" transform="translate(408.964 480.473)" fill="#ffac43"/>
    <ellipse id="Ellipse_4193" data-name="Ellipse 4193" cx="1.355" cy="0.848" rx="1.355" ry="0.848" transform="translate(452.298 539.721)" fill="#6c6c6c"/>
    <path id="Path_22174" data-name="Path 22174" d="M672.09,1073.391a197.694,197.694,0,0,1-35.71-3.161,44.693,44.693,0,0,0,71.246.031A197.84,197.84,0,0,1,672.09,1073.391Z" transform="translate(-218.35 -518.094)" fill="#788eba"/>
    <path id="Path_22175" data-name="Path 22175" d="M705.761,1061.441a269.646,269.646,0,0,1-75.5-.031c.667,1.042,1.389,2.084,2.126,3.064a203.279,203.279,0,0,0,71.242.031h0Q704.757,1063,705.761,1061.441Z" transform="translate(-214.356 -512.338)" fill="#919191"/>
    <path id="Path_22176" data-name="Path 22176" d="M654.965,917.534c15.427,0,30.128.493,43.526,1.39a44.689,44.689,0,1,0-87.051,0C624.841,918.028,639.542,917.534,654.965,917.534Z" transform="translate(-201.312 -383.569)" fill="#f7f7f7"/>
    <path id="Path_22177" data-name="Path 22177" d="M728.637,840H705.2l4.259-18.963h14.916Z" transform="translate(-263.264 -355.466)" fill="#ffac43"/>
    <circle id="Ellipse_4194" data-name="Ellipse 4194" cx="12.356" cy="12.356" r="12.356" transform="translate(441.297 451.513)" fill="#ffac43"/>
    <ellipse id="Ellipse_4195" data-name="Ellipse 4195" cx="2.414" cy="4.047" rx="2.414" ry="4.047" transform="translate(437.358 459.822)" fill="#ffac43"/>
    <ellipse id="Ellipse_4196" data-name="Ellipse 4196" cx="2.414" cy="4.047" rx="2.414" ry="4.047" transform="translate(465.12 459.822)" fill="#ffac43"/>
    <rect id="Rectangle_16215" data-name="Rectangle 16215" width="3.884" height="14.937" transform="translate(440.547 457.918)"/>
    <rect id="Rectangle_16216" data-name="Rectangle 16216" width="3.884" height="14.937" transform="translate(462.879 457.918)"/>
    <path id="Path_22178" data-name="Path 22178" d="M708.488,746h11.3a7.555,7.555,0,0,1,7.555,7.555v11.064h-26.4V753.555A7.555,7.555,0,0,1,708.488,746Z" transform="translate(-260.484 -306.492)"/>
    <path id="Path_22179" data-name="Path 22179" d="M714.587,746h7.99a6.843,6.843,0,0,1,6.843,6.843v11.776H707.74V752.843A6.843,6.843,0,0,1,714.587,746Z" transform="translate(-264.922 -306.492)" fill="#fff"/>
    <path id="Path_22180" data-name="Path 22180" d="M700.92,799.6h26.4v.347a3.38,3.38,0,0,1-3.38,3.38H704.3a3.38,3.38,0,0,1-3.38-3.38V799.6Z" transform="translate(-260.471 -341.473)" fill="#6c6c6c"/>
    <path id="Path_22181" data-name="Path 22181" d="M729.8,827.936l-6.037-3.588c.156-.215-3.126-.347-3.126-.347l-.57.219L719.5,824s-3.3.129-3.126.347l-6.058,3.588s-1.542,3.5,2.216,2.956c2.939-.427,6.225-4.4,7.521-6.117,1.3,1.716,4.585,5.69,7.521,6.117C731.327,831.437,729.8,827.936,729.8,827.936Z" transform="translate(-266.395 -357.397)"/>
    <path id="Path_22182" data-name="Path 22182" d="M631.47,859.75a11.96,11.96,0,0,0-8.618,6.947l-6.187,14.242a44.464,44.464,0,0,0-7.611,24.955l-.6,44.693h23.02Z" transform="translate(-200.122 -380.729)" fill="#b7b7b7"/>
    <path id="Path_22183" data-name="Path 22183" d="M803.14,859.75a11.96,11.96,0,0,1,8.618,6.947l6.187,14.242a44.464,44.464,0,0,1,7.614,24.955l.6,44.693H803.14Z" transform="translate(-327.182 -380.729)" fill="#b7b7b7"/>
    <path id="Path_22184" data-name="Path 22184" d="M718.485,843.1l-8.549-15.284c-1.042-1.865-9.789-7.76-11.925-7.76h-5.405c-2.136,0-10.88,5.905-11.922,7.76L672.132,843.1c-.75,3.661,8.82,15.9,12.554,15.9h21.245C709.669,859,719.235,846.766,718.485,843.1Zm-20.467-13.547h0v-2.369H692.6v2.369h0a3.383,3.383,0,0,1-3.383-3.387v-.153a3.23,3.23,0,0,1,3.23-3.231h5.728a3.231,3.231,0,0,1,3.231,3.231v.153a3.387,3.387,0,0,1-3.387,3.373Z" transform="translate(-241.655 -354.826)"/>
    <ellipse id="Ellipse_4197" data-name="Ellipse 4197" cx="9.858" cy="5.416" rx="9.858" ry="5.416" transform="translate(443.794 547.509)" fill="#b7b7b7"/>
    <ellipse id="Ellipse_4198" data-name="Ellipse 4198" cx="7.396" cy="4.064" rx="7.396" ry="4.064" transform="translate(446.257 548.86)" fill="#919191"/>
    <path id="Path_22185" data-name="Path 22185" d="M611.512,1225.52a28.527,28.527,0,0,0-.233,5.079h24.378a21.7,21.7,0,0,0,.347-5.079Z" transform="translate(-201.951 -619.441)" fill="#b7b7b7"/>
    <line id="Line_3070" data-name="Line 3070" x2="10.385" y2="3.462" transform="translate(409.308 597.544)" fill="none" stroke="#b7b7b7" stroke-linecap="round" stroke-miterlimit="10" stroke-width="2"/>
    <line id="Line_3071" data-name="Line 3071" x2="10.385" y2="2.596" transform="translate(411.039 595.813)" fill="none" stroke="#b7b7b7" stroke-linecap="round" stroke-miterlimit="10" stroke-width="2"/>
    <path id="Path_22186" data-name="Path 22186" d="M806.43,1196.47h-4.4a52.709,52.709,0,0,0-5.419,5.69c-2.369,2.98-1.014,9.48-1.014,9.48h24.375s.347-5.416-1.355-9.48S806.43,1196.47,806.43,1196.47Z" transform="translate(-322.007 -600.482)" fill="#fff"/>
    <path id="Path_22187" data-name="Path 22187" d="M819.763,1225.52a28.727,28.727,0,0,1,.229,5.079H795.617a21.591,21.591,0,0,1-.347-5.079Z" transform="translate(-322.029 -619.441)" fill="#b7b7b7"/>
    <line id="Line_3072" data-name="Line 3072" x1="10.421" y2="3.126" transform="translate(487.327 597.562)" fill="none" stroke="#b7b7b7" stroke-linecap="round" stroke-miterlimit="10" stroke-width="2"/>
    <line id="Line_3073" data-name="Line 3073" x1="10.421" y2="3.126" transform="translate(485.938 595.477)" fill="none" stroke="#b7b7b7" stroke-linecap="round" stroke-miterlimit="10" stroke-width="2"/>
    <path id="Path_22188" data-name="Path 22188" d="M529.766,835.23c-12.644-4.45-19.453,34.737,2.88,41.382S542.41,839.68,529.766,835.23Z" transform="translate(-141.124 -364.497)" fill="#ffac43"/>
    <line id="Line_3074" data-name="Line 3074" x2="10.206" y2="6.43" transform="translate(375.654 478.385)" fill="none" stroke="#000" stroke-miterlimit="10" stroke-width="2"/>
    <line id="Line_3075" data-name="Line 3075" x2="10.206" y2="6.426" transform="translate(374.501 482.095)" fill="none" stroke="#000" stroke-miterlimit="10" stroke-width="2"/>
    <line id="Line_3076" data-name="Line 3076" x2="10.206" y2="6.426" transform="translate(373.348 485.805)" fill="none" stroke="#000" stroke-miterlimit="10" stroke-width="2"/>
    <path id="Path_22189" data-name="Path 22189" d="M867.028,728.085c10.567-8.247,29.5,26.748,10.449,40.146S856.468,736.332,867.028,728.085Z" transform="translate(-364.719 -293.989)" fill="#ffac43"/>
    <line id="Line_3077" data-name="Line 3077" x1="7.625" y2="9.341" transform="translate(509.441 437.215)" fill="none" stroke="#000" stroke-miterlimit="10" stroke-width="2"/>
    <line id="Line_3078" data-name="Line 3078" x1="7.625" y2="9.344" transform="translate(511.716 440.362)" fill="none" stroke="#000" stroke-miterlimit="10" stroke-width="2"/>
    <line id="Line_3079" data-name="Line 3079" x1="7.621" y2="9.344" transform="translate(513.991 443.509)" fill="none" stroke="#000" stroke-miterlimit="10" stroke-width="2"/>
    <path id="Path_22190" data-name="Path 22190" d="M820.67,952v6.169l3.474,2.515,3.474-2.515V952Z" transform="translate(-338.623 -440.934)" fill="#f7f7f7"/>
    <path id="Path_22191" data-name="Path 22191" d="M525.27,825.62c1.737,3.033,3.623,5.905,3.623,5.905,5.815-.695,10.421-7.257,12.38-11.095Z" transform="translate(-145.836 -355.067)" fill="#ffac43"/>
    <path id="Path_22192" data-name="Path 22192" d="M862.25,716.811c1.389,2.025,6.364,6.541,12.94,5.183a102.458,102.458,0,0,0,2.126-10.074Z" transform="translate(-365.759 -284.251)" fill="#ffac43"/>
    <path id="Path_22193" data-name="Path 22193" d="M551.78,808.974s0,3.689,1.977,1.431,7.99-10.386,6.9-15.007S551.78,808.974,551.78,808.974Z" transform="translate(-163.138 -338.241)" fill="#ffac43"/>
    <path id="Path_22194" data-name="Path 22194" d="M855.972,715.329s-11.463-3.029-10.769-9.282,5.982,5.415,7.68,5.315S858.768,714.554,855.972,715.329Z" transform="translate(-354.614 -279.215)" fill="#ffac43"/>
    <rect id="Rectangle_16217" data-name="Rectangle 16217" width="33.803" height="20.359" transform="translate(579.266 338.746)" fill="#eee"/>
    <rect id="Rectangle_16218" data-name="Rectangle 16218" width="49.844" height="54.166" transform="matrix(0.91, 0.415, -0.415, 0.91, 679.923, 481.697)" fill="#b7b7b7"/>
    <path id="Path_22195" data-name="Path 22195" d="M1405.282,1053.824a7.6,7.6,0,0,0-1.066-.4,4.039,4.039,0,0,0-1.6-.1,2.776,2.776,0,0,0-1.084.382,2.055,2.055,0,0,0-.622.6,4.5,4.5,0,0,0-2.977-2.167,5.278,5.278,0,0,0-3.394.118l-.17.076h-.021c-.021,0,0-.024.021-.035a2.485,2.485,0,0,0,.323-.538,1.927,1.927,0,0,0,.177-.969,1.67,1.67,0,0,0-.406-.966,2.432,2.432,0,0,0-1.365-.775l-.135-.028a6.187,6.187,0,0,1-2.685-2.779c-.187-.347-.347-.695-.528-1.042a5.652,5.652,0,0,1-.472-1.084,1.351,1.351,0,0,1,.288-1.164,5.182,5.182,0,0,1,1.042-1.007,6.215,6.215,0,0,1,.695-.455,1.449,1.449,0,0,1,.722-.236h.076a.777.777,0,0,0-.215.288.523.523,0,0,0-.038.26c.017.1.139.143.267.139a.7.7,0,0,0,.538-.306.348.348,0,0,0-.111-.445,1.267,1.267,0,0,0-1.515.208,13.546,13.546,0,0,0-1.39,1.132,1.931,1.931,0,0,0-.639,1.389,3.757,3.757,0,0,0,.507,1.317,12.178,12.178,0,0,0,1.459,2.432,5.727,5.727,0,0,0,1.39,1.244,2.059,2.059,0,0,0-.375.052,1.384,1.384,0,0,0-.292.049,3.846,3.846,0,0,0-.545.149c-1-.809-2-1.65-2.973-2.532a13.548,13.548,0,0,1-1.508-1.487,2.452,2.452,0,0,1-.646-1.81,1.115,1.115,0,0,1,.584-.924.526.526,0,0,1,.184-.042c-.066.274.2.51.559.417a.167.167,0,0,0,.1-.08c.118-.288-.1-.5-.406-.552a.179.179,0,0,0-.076,0,1.1,1.1,0,0,0-.931.476,1.616,1.616,0,0,0-.288,1.042,2.309,2.309,0,0,0,.3,1.042,6.641,6.641,0,0,0,1.452,1.654q.9.816,1.813,1.594c.528.448,1.063.882,1.594,1.309a3.862,3.862,0,0,0-.879.518,4.13,4.13,0,0,0-1.487,4.356c.222.8,2.935.3,3.977-.559a6.938,6.938,0,0,1,1.021-.556,1.33,1.33,0,0,0-.184.479,1.525,1.525,0,0,0,.469,1.243,23.222,23.222,0,0,0-2.779.389,48.411,48.411,0,0,0-4.318,7.295c.889-.886,3.21-5.37,4.474-6.819a23.953,23.953,0,0,1,2.71-.775,3.248,3.248,0,0,0,.26.226,1.546,1.546,0,0,1,.778.5,7.689,7.689,0,0,0,1.8.639,7.016,7.016,0,0,0,2.532.15c.163.1.327.2.486.306a27.275,27.275,0,0,1,1.5,3.012c-.233.052-.4,2.112-.629,2.174.375-.09.695-2.167,1.087-2.23q-.472-1.181-1.077-2.362a23.158,23.158,0,0,1,2.553,2.105,24.432,24.432,0,0,1,1.042,2.654,26.588,26.588,0,0,0-.736-2.779,24.179,24.179,0,0,0-3.321-3.151,1.8,1.8,0,0,0,.469-.309,2.14,2.14,0,0,0,.135.406,2.946,2.946,0,0,0,.667.934,5.694,5.694,0,0,0,1.087.82,12.767,12.767,0,0,0,1.16.615,28.255,28.255,0,0,1,5.054,2.366c.07.031.066.031.077-.021A6.44,6.44,0,0,0,1405.282,1053.824Z" transform="translate(-707.403 -499.041)" fill="#909090"/>
    <path id="Path_22196" data-name="Path 22196" d="M1388.65,1089.919h1.48s2.223-5.478,2.994-6.819C1391.86,1084.548,1388.65,1089.919,1388.65,1089.919Z" transform="translate(-709.303 -526.493)" fill="#6c6c6c"/>
    <path id="Path_22197" data-name="Path 22197" d="M1428.671,1094.264c-.073.215-.5,2.821-.5,2.821H1427a22.75,22.75,0,0,1,1.164-3Z" transform="translate(-734.332 -533.659)" fill="#6c6c6c"/>
    <path id="Path_22198" data-name="Path 22198" d="M1436.06,1093.655c.122.695.1,3.078.1,3.078h1.48s-.976-2.261-1.278-3.192Z" transform="translate(-740.244 -533.307)" fill="#6c6c6c"/>
    <path id="Path_22199" data-name="Path 22199" d="M1397.112,1047.715a6.094,6.094,0,0,0,.879.865,2.457,2.457,0,0,1,.24-.1,7.215,7.215,0,0,1-1.792-2.22c-.188-.348-.347-.695-.528-1.042a5.652,5.652,0,0,1-.472-1.084,1.352,1.352,0,0,1,.288-1.164,5.189,5.189,0,0,1,1.042-1.007,6.265,6.265,0,0,1,.695-.455,1.452,1.452,0,0,1,.723-.236h.076a.779.779,0,0,0-.215.288.525.525,0,0,0-.038.26c.017.1.139.143.267.139a.7.7,0,0,0,.539-.306.347.347,0,0,0-.111-.445,1.273,1.273,0,0,0-1.515.208,13.547,13.547,0,0,0-1.389,1.132,1.931,1.931,0,0,0-.639,1.39,3.755,3.755,0,0,0,.507,1.317A12.164,12.164,0,0,0,1397.112,1047.715Z" transform="translate(-713.552 -499.057)" fill="#6c6c6c"/>
    <path id="Path_22200" data-name="Path 22200" d="M1410.407,1074.052a6.826,6.826,0,0,1-3.956-4.1,6.612,6.612,0,0,1-2.974.789c-1.337.129-2.991-.028-3.7-1.355a2.49,2.49,0,0,1-.156-.386.9.9,0,0,1-.083-.674q.012-.109.035-.215l-.153.069h-.021c-.021,0,0-.024.021-.035a2.481,2.481,0,0,0,.323-.539,1.926,1.926,0,0,0,.177-.969,1.671,1.671,0,0,0-.406-.966,2.125,2.125,0,0,0-.4-.347,1.293,1.293,0,0,1-.212.743c-2.758,4.224-5.106,3.022-5.447,2.779a4.905,4.905,0,0,0,.128,1.171c.222.8,2.935.3,3.977-.559a6.947,6.947,0,0,1,1.021-.556,1.325,1.325,0,0,0-.184.479,1.524,1.524,0,0,0,.469,1.244h-.014c.031.038.063.076.1.111h.024a3.906,3.906,0,0,0,.42.347,6.026,6.026,0,0,0,2.432,1.011,7.987,7.987,0,0,0,2.411.163c1.177-.142,1.355-.462,1.487-.584a2.144,2.144,0,0,0,.135.406c.021.049.045.09.07.136a1.5,1.5,0,0,1,.347.386,1.042,1.042,0,0,1,.1.257,2.125,2.125,0,0,0,.149.156,5.69,5.69,0,0,0,1.087.82,12.812,12.812,0,0,0,1.16.615,28.246,28.246,0,0,1,5.054,2.365c.069.031.066.031.076-.021a7.449,7.449,0,0,0,.063-1.938A12.822,12.822,0,0,1,1410.407,1074.052Z" transform="translate(-712.442 -514.896)" fill="#6c6c6c"/>
    <path id="Path_22201" data-name="Path 22201" d="M1389.341,1050.106q.74.625,1.487,1.223a1.456,1.456,0,0,1,.347.1c.024-.042.045-.087.066-.128l-.066.021c-1-.809-2-1.65-2.974-2.532a13.546,13.546,0,0,1-1.507-1.487,2.452,2.452,0,0,1-.646-1.81,1.115,1.115,0,0,1,.584-.924.527.527,0,0,1,.184-.042c-.066.274.2.511.559.417a.166.166,0,0,0,.1-.08c.118-.288-.1-.5-.406-.552a.179.179,0,0,0-.076,0,1.1,1.1,0,0,0-.931.476,1.638,1.638,0,0,0-.292,1.042,2.357,2.357,0,0,0,.3,1.042,6.708,6.708,0,0,0,1.452,1.653Q1388.424,1049.335,1389.341,1050.106Z" transform="translate(-707.424 -501.177)" fill="#6c6c6c"/>
    <path id="Path_22202" data-name="Path 22202" d="M1419.583,1051.27l.688,4.092-4.05,4.252.028.292,4.669-4.009.431-4.8Z" transform="translate(-727.296 -505.609)" fill="#909090"/>
    <line id="Line_3080" data-name="Line 3080" x2="32.538" transform="translate(674.421 563.425)" fill="none" stroke="#b5b5b5" stroke-miterlimit="10" stroke-width="2"/>
    <rect id="Rectangle_16219" data-name="Rectangle 16219" width="17.139" height="32.361" rx="3" transform="translate(362.263 605.443) rotate(-90)" fill="#e4e4e4"/>
    <line id="Line_3081" data-name="Line 3081" x2="54.885" transform="translate(338.284 605.805)" fill="none" stroke="#dadada" stroke-miterlimit="10" stroke-width="2"/>
    <text id="STEFAN_RADENKOVIC" data-name="STEFAN RADENKOVIC" transform="translate(392.028 449.373) rotate(-18.072)" fill="#5fceb7" font-size="14" font-family="Montserrat-Black, Montserrat" font-weight="800"><tspan x="0" y="0" letter-spacing="-0.01em">S</tspan><tspan y="0">TE</tspan><tspan y="0" letter-spacing="-0.03em">F</tspan><tspan y="0">AN RADEN</tspan><tspan y="0" letter-spacing="-0.02em">KOV</tspan><tspan y="0">IC</tspan></text>
    <path id="Path_22203" data-name="Path 22203" d="M470.761,775.937c-.141-.382-.3-.765-.44-1.151q-2.993-9.185-5.969-18.366a5.631,5.631,0,0,1-.229-.747,1.068,1.068,0,0,1,.615-1.288,4.7,4.7,0,0,1,.734-.264l16.684-5.432c.18-.057.356-.123.536-.167a1.116,1.116,0,0,1,1.565.791c.053.141.092.281.141.439q3.033,9.344,6.065,18.682c.106.321.176.646.259.971a.769.769,0,0,1-.466-.286,11.323,11.323,0,0,0-5.033-2.756,10.932,10.932,0,0,0-8.026.826,11.41,11.41,0,0,0-6.21,8.13C470.941,775.528,470.959,775.77,470.761,775.937Zm7.472-10.257a6.21,6.21,0,1,1,0-.009Z" transform="translate(-104.762 -312.231)" fill="#6c6c6c"/>
    <path id="Path_22204" data-name="Path 22204" d="M479.28,798.272c.2-.158.18-.4.229-.611a11.411,11.411,0,0,1,6.21-8.13,10.932,10.932,0,0,1,8.026-.826,11.323,11.323,0,0,1,5.033,2.756.769.769,0,0,0,.466.286c.189.563.4,1.121.558,1.692.229.8.035,1.143-.756,1.45-.141.053-.286.092-.44.141L481.741,800.5a5.609,5.609,0,0,1-.637.2.927.927,0,0,1-1.24-.633C479.645,799.472,479.478,798.861,479.28,798.272Z" transform="translate(-113.282 -334.566)" fill="#eee"/>
    <path id="Path_22205" data-name="Path 22205" d="M487.668,774.651a5.208,5.208,0,1,1,3.651-4.513A5.192,5.192,0,0,1,487.668,774.651Z" transform="translate(-114.203 -321.212)" fill="#eee"/>
    <g id="Group_38074" data-name="Group 38074" transform="translate(447.011 443.242)" clip-path="url(#clip-path)">
      <path id="Path_22206" data-name="Path 22206" d="M727.792,738.537H685.2v2.81h42.591v2.939H685.2v2.81h42.591v2.939H685.2v2.8h42.591v2.939h-70.9v17.112h0v-2.8h70.9v2.8h.059V735.72h-.059Zm0,28.745h-70.9v-2.939h70.9Zm0-5.759h-70.9v-2.939h70.9Z" transform="translate(-678.747 -743.025)" fill="#fff"/>
      <path id="Path_22207" data-name="Path 22207" d="M738.39,738.315h42.577V735.38H738.39Z" transform="translate(-731.936 -742.803)" fill="#ff5d5d"/>
      <rect id="Rectangle_16220" data-name="Rectangle 16220" width="42.577" height="2.939" transform="translate(6.454 -1.678)" fill="#ff5d5d"/>
      <rect id="Rectangle_16221" data-name="Rectangle 16221" width="42.577" height="2.939" transform="translate(6.454 4.071)" fill="#ff5d5d"/>
      <rect id="Rectangle_16222" data-name="Rectangle 16222" width="42.577" height="2.939" transform="translate(6.454 9.82)" fill="#ff5d5d"/>
      <rect id="Rectangle_16223" data-name="Rectangle 16223" width="70.888" height="2.939" transform="translate(-21.853 15.569)" fill="#ff5d5d"/>
      <rect id="Rectangle_16224" data-name="Rectangle 16224" width="70.888" height="2.939" transform="translate(-21.853 21.318)" fill="#ff5d5d"/>
      <path id="Path_22208" data-name="Path 22208" d="M656.89,834.67v2.939h70.888V834.67Z" transform="translate(-678.747 -807.603)" fill="#ff5d5d"/>
      <path id="Path_22209" data-name="Path 22209" d="M685.2,755.562V735.38H656.89v20.182ZM659.992,738.3l-.695-.507-.695.507.264-.823-.695-.507h.858l.264-.827.264.827h.858l-.695.507Zm4.665,0-.695-.507-.695.507.264-.823-.7-.5h.855l.267-.827.267.827h.858l-.695.507Zm4.794,0-.695-.507-.695.507.264-.823-.695-.507h.858l.268-.827.264.827h.858l-.695.507Zm4.7,0-.695-.507-.695.507.267-.823-.695-.507h.858l.264-.827.264.827h.858l-.695.507Zm4.7,0-.695-.507-.695.507.264-.823-.695-.507h.854l.268-.827.264.827h.858l-.695.507Zm-.264,3.224.264.827-.695-.511-.695.511.264-.827-.695-.507h.854l.268-.827.264.827h.858Zm-.163,11.633h.858l-.695.511.264.823-.695-.511-.695.511.264-.823-.695-.511h.854l.268-.823Zm-4.7,0h.858l-.695.511.264.823-.695-.511-.695.511.267-.823-.695-.511h.858l.264-.823Zm-4.7,0h.858l-.695.511.264.823-.695-.511-.695.511.264-.823-.695-.511h.858l.268-.823Zm-4.794,0h.858l-.695.511.264.823-.695-.511-.695.511.261-.837-.695-.511h.855l.267-.823Zm-4.669,0h.858l-.695.511.264.823-.695-.511-.695.511.264-.823-.695-.511h.858l.264-.823ZM658.172,741h.858l.264-.827.264.827h.858l-.695.507.264.827-.695-.511-.695.511.264-.827Zm4.669,0h.855l.267-.827.264.827h.858l-.695.507.264.827-.695-.511-.695.511.264-.827Zm4.79,0h.858l.268-.827.264.827h.858l-.695.507.264.827-.695-.511-.695.511.264-.827Zm4.7,0h.858l.264-.827.264.827h.858l-.695.507.264.827-.695-.511-.695.511.267-.827Zm4.168,11.5-.695-.507-.695.507.267-.823-.695-.511h.858l.264-.823.264.823h.858l-.695.511Zm-2.366-2.084-.695-.511-.695.511.268-.823-.695-.511h.858l.264-.823.264.823h.858l-.695.511Zm-2.366,2.084-.695-.507-.695.507.264-.823-.695-.511h.875l.264-.823.267.823h.858l-.695.511Zm-2.334-2.084-.695-.511-.695.511.264-.823-.695-.511h.858l.268-.823.264.823h.858l-.695.511Zm-2.4,2.084-.695-.507-.695.507.264-.823-.695-.511h.854l.267-.823.264.823h.858l-.695.511Zm-2.4-2.084-.695-.511-.695.511.264-.823-.695-.511h.854l.267-.823.264.823h.858l-.695.511Zm-2.331,2.084-.695-.507-.695.507.267-.823-.695-.511h.858l.264-.823.264.823h.858l-.695.511Zm-2.334-2.084-.695-.511-.695.511.264-.823-.695-.511h.858l.264-.823.264.823h.858l-.695.511Zm1.657-6.485-.695.511.268-.823-.695-.511h.858l.264-.823.264.823h.858l-.695.511.268.823Zm-1.64,2.487-.695-.511-.695.511.264-.827-.695-.507h.858l.264-.823.264.823h.858l-.695.507Zm5.249-3.31h.854l.268-.823.264.823h.858l-.695.511.264.823-.695-.511-.695.511.264-.823Zm4.21,3.31-.695-.511-.695.511.264-.827-.695-.507h.858l.268-.823.264.823h.858l-.695.507Zm-4.794,0-.695-.511-.695.511.264-.827-.695-.507h.855l.267-.823.264.823h.858l-.695.507Zm1.706-.087.264.823h.858l-.695.511.264.823-.695-.511-.695.511.264-.823-.695-.511h.855Zm5,.823h.855l-.695.511.264.823-.695-.511-.695.511.264-.823-.695-.511h.861l.264-.823Zm2.779-.736-.695-.511-.695.511.267-.827-.695-.507h.858l.264-.823.264.823h.858l-.695.507Zm-2.366-1.977-.695-.511-.695.511.264-.823-.695-.511h.872l.264-.823.267.823h.858l-.695.511Zm-10.154,1.89.264.823h.858l-.695.511.267.823-.695-.511-.695.511.267-.823-.695-.511h.858Zm19.627,6.187-.695-.507-.695.507.264-.823-.695-.511h.854l.268-.823.264.823h.858l-.695.511Zm-2.4-2.084-.695-.511-.695.511.264-.823-.695-.511h.854l.268-.823.264.823h.858l-.695.511Zm-2.779-3.31h.858l-.695.511.267.823-.695-.511-.695.511.268-.823-.695-.511h.858l.264-.823Zm2.779-.736-.695-.511-.695.511.264-.827-.695-.507h.854l.268-.823.264.823h.858l-.695.507Zm-2.331-1.977-.695-.511-.695.511.267-.823-.695-.511h.858l.264-.823.264.823h.858l-.695.511Zm-.431-5.381h.858l-.695.511.267.823-.695-.511-.695.511.267-.823-.695-.511h.858l.264-.823Zm-4.728,0h.855l-.695.511.264.823-.695-.511-.695.511.264-.823-.695-.511h.861l.264-.823Zm-4.731,0h.858l-.695.511.264.823-.695-.511-.695.511.264-.823-.695-.511h.855l.267-.823Zm-4.731,0h.858l-.695.511.268.823-.695-.511-.695.511.268-.823-.695-.511h.858l.264-.823Zm21.318,14.117h.858l-.695.511.264.823-.695-.511-.695.511.264-.823-.695-.511h.858l.267-.823Zm.427-2.713-.695-.511-.695.511.264-.823-.695-.511h.858l.267-.823.264.823h.858l-.695.511Zm-2.824-3.31h.858l-.695.511.264.823-.695-.511-.695.511.264-.823-.695-.511h.854l.268-.823Zm2.824-.736-.695-.511-.695.511.264-.827-.695-.507h.858l.267-.823.264.823h.858l-.695.507Zm-2.4-1.977-.695-.479-.695.511.264-.823-.695-.511h.854l.268-.823.264.823h.858l-.695.511Zm2.4-2.084-.695-.511-.695.511.264-.827-.695-.507h.858l.267-.827.264.827h.858l-.695.507Zm-2.824-3.31h.858l-.695.511.264.823-.695-.511-.695.511.264-.823-.695-.511h.854l.268-.823Zm2.824-.74-.695-.507-.695.507.264-.823-.695-.507h.858l.267-.827.264.827h.858l-.695.507Z" transform="translate(-678.747 -742.803)" fill="#355585"/>
      <path id="Path_22210" data-name="Path 22210" d="M661.979,738.417l-.268-.827-.264.827h-.858l.695.507-.264.823.691-.507.695.507-.264-.823.691-.507Z" transform="translate(-681.161 -744.246)" fill="#fff"/>
      <path id="Path_22211" data-name="Path 22211" d="M668.168,744.383h-.858l.691.507-.264.827.695-.511.695.511-.267-.827.695-.507H668.7l-.264-.823Z" transform="translate(-685.547 -748.142)" fill="#fff"/>
      <path id="Path_22212" data-name="Path 22212" d="M668.859,756.544l.695-.511H668.7l-.264-.823-.264.823h-.858l.691.511-.264.823.695-.511.695.511Z" transform="translate(-685.547 -755.745)" fill="#fff"/>
      <path id="Path_22213" data-name="Path 22213" d="M667.31,767.683l.691.511-.264.823.695-.511.695.511-.267-.823.695-.511H668.7l-.264-.823-.264.823Z" transform="translate(-685.547 -763.348)" fill="#fff"/>
      <path id="Path_22214" data-name="Path 22214" d="M668.7,779.333l-.264-.823-.264.823h-.858l.691.511-.264.823.695-.511.695.511-.267-.823.695-.511Z" transform="translate(-685.547 -770.951)" fill="#fff"/>
      <path id="Path_22215" data-name="Path 22215" d="M681.778,744.383h-.858l.695.507-.264.827.695-.511.691.511-.264-.827.695-.507h-.858l-.264-.823Z" transform="translate(-694.429 -748.142)" fill="#fff"/>
      <path id="Path_22216" data-name="Path 22216" d="M681.351,757.367l.695-.511.691.511-.264-.823.695-.511h-.858l-.264-.823-.267.823h-.858l.695.511Z" transform="translate(-694.429 -755.745)" fill="#fff"/>
      <path id="Path_22217" data-name="Path 22217" d="M680.92,767.683l.695.511-.264.823.695-.511.691.511-.264-.823.695-.511h-.858l-.264-.823-.267.823Z" transform="translate(-694.429 -763.348)" fill="#fff"/>
      <path id="Path_22218" data-name="Path 22218" d="M682.309,779.333l-.264-.823-.267.823h-.858l.695.511-.264.823.695-.511.691.511-.264-.823.695-.511Z" transform="translate(-694.429 -770.951)" fill="#fff"/>
      <path id="Path_22219" data-name="Path 22219" d="M695.4,744.383h-.858l.695.507-.264.827.691-.511.695.511-.264-.827.691-.507h-.854l-.267-.823Z" transform="translate(-703.318 -748.142)" fill="#fff"/>
      <path id="Path_22220" data-name="Path 22220" d="M696.784,756.033h-.854l-.267-.823-.264.823h-.858l.695.511-.264.823.691-.511.695.511-.264-.823Z" transform="translate(-703.318 -755.745)" fill="#fff"/>
      <path id="Path_22221" data-name="Path 22221" d="M695.4,767.683h-.858l.695.511-.264.823.691-.511.695.511-.264-.823.691-.511h-.854l-.267-.823Z" transform="translate(-703.318 -763.348)" fill="#fff"/>
      <path id="Path_22222" data-name="Path 22222" d="M695.93,779.333l-.267-.823-.264.823h-.858l.695.511-.264.823.691-.511.695.511-.264-.823.691-.511Z" transform="translate(-703.318 -770.951)" fill="#fff"/>
      <path id="Path_22223" data-name="Path 22223" d="M709.018,744.383h-.858l.691.507-.264.827.695-.511.695.511-.267-.827.695-.507h-.858l-.264-.823Z" transform="translate(-712.207 -748.142)" fill="#fff"/>
      <path id="Path_22224" data-name="Path 22224" d="M710.4,756.033h-.858l-.264-.823-.264.823h-.858l.691.511-.264.823.695-.511.695.511-.267-.823Z" transform="translate(-712.207 -755.745)" fill="#fff"/>
      <path id="Path_22225" data-name="Path 22225" d="M709.018,767.683h-.858l.691.511-.264.823.695-.511.695.511-.267-.823.695-.511h-.858l-.264-.823Z" transform="translate(-712.207 -763.348)" fill="#fff"/>
      <path id="Path_22226" data-name="Path 22226" d="M709.546,779.333l-.264-.823-.264.823h-.858l.691.511-.264.823.695-.511.695.511-.267-.823.695-.511Z" transform="translate(-712.207 -770.951)" fill="#fff"/>
      <path id="Path_22227" data-name="Path 22227" d="M722.628,744.383h-.858l.695.507-.264.827.695-.511.691.511-.264-.827.695-.507h-.858l-.264-.823Z" transform="translate(-721.089 -748.142)" fill="#fff"/>
      <path id="Path_22228" data-name="Path 22228" d="M724.018,756.033h-.858l-.264-.823-.268.823h-.858l.695.511-.264.823.695-.511.691.511-.264-.823Z" transform="translate(-721.089 -755.745)" fill="#fff"/>
      <path id="Path_22229" data-name="Path 22229" d="M722.628,767.683h-.858l.695.511-.264.823.695-.511.691.511-.264-.823.695-.511h-.858l-.264-.823Z" transform="translate(-721.089 -763.348)" fill="#fff"/>
      <path id="Path_22230" data-name="Path 22230" d="M723.159,779.333l-.264-.823-.268.823h-.858l.695.511-.264.823.695-.511.691.511-.264-.823.695-.511Z" transform="translate(-721.089 -770.951)" fill="#fff"/>
      <path id="Path_22231" data-name="Path 22231" d="M661.021,751.407l.691-.511.695.511-.264-.827.691-.507h-.854l-.268-.823-.264.823h-.858l.695.507Z" transform="translate(-681.161 -751.855)" fill="#fff"/>
      <path id="Path_22232" data-name="Path 22232" d="M661.979,761.723l-.268-.823-.264.823h-.858l.695.507-.264.827.691-.511.695.511-.264-.827.691-.507Z" transform="translate(-681.161 -759.458)" fill="#fff"/>
      <path id="Path_22233" data-name="Path 22233" d="M662.834,773.373h-.854l-.268-.823-.264.823h-.858l.695.511-.264.823.691-.511.695.511-.264-.823Z" transform="translate(-681.161 -767.061)" fill="#fff"/>
      <path id="Path_22234" data-name="Path 22234" d="M661.448,785.023h-.858l.695.511-.264.823.691-.511.695.511-.264-.823.691-.511h-.854l-.268-.823Z" transform="translate(-681.161 -774.665)" fill="#fff"/>
      <path id="Path_22235" data-name="Path 22235" d="M675.416,738.417l-.264-.827-.267.827h-.854l.691.507-.264.823.695-.507.691.507-.264-.823.695-.507Z" transform="translate(-689.933 -744.246)" fill="#fff"/>
      <path id="Path_22236" data-name="Path 22236" d="M674.457,751.407l.695-.511.691.511-.264-.827.695-.507h-.858l-.264-.823-.267.823h-.854l.691.507Z" transform="translate(-689.933 -751.855)" fill="#fff"/>
      <path id="Path_22237" data-name="Path 22237" d="M675.416,761.723l-.264-.823-.267.823h-.854l.691.507-.264.827.695-.511.691.511-.264-.827.695-.507Z" transform="translate(-689.933 -759.458)" fill="#fff"/>
      <path id="Path_22238" data-name="Path 22238" d="M676.274,773.373h-.858l-.264-.823-.267.823h-.854l.691.511-.264.823.695-.511.691.511-.264-.823Z" transform="translate(-689.933 -767.061)" fill="#fff"/>
      <path id="Path_22239" data-name="Path 22239" d="M674.885,785.023h-.854l.691.511-.264.823.695-.511.691.511-.264-.823.695-.511h-.858l-.264-.823Z" transform="translate(-689.933 -774.665)" fill="#fff"/>
      <path id="Path_22240" data-name="Path 22240" d="M689.209,738.417l-.267-.827-.264.827h-.858l.695.507-.264.823.691-.507.695.507-.264-.823.695-.507Z" transform="translate(-698.932 -744.246)" fill="#fff"/>
      <path id="Path_22241" data-name="Path 22241" d="M688.251,751.407l.691-.511.695.511-.264-.827.695-.507h-.858l-.267-.823-.264.823h-.858l.695.507Z" transform="translate(-698.932 -751.855)" fill="#fff"/>
      <path id="Path_22242" data-name="Path 22242" d="M689.209,761.723l-.267-.823-.264.823h-.858l.695.507-.264.827.691-.511.695.511-.264-.827.695-.507Z" transform="translate(-698.932 -759.458)" fill="#fff"/>
      <path id="Path_22243" data-name="Path 22243" d="M690.068,773.373h-.858l-.267-.823-.264.823h-.858l.695.511-.264.823.691-.511.695.511-.264-.823Z" transform="translate(-698.932 -767.061)" fill="#fff"/>
      <path id="Path_22244" data-name="Path 22244" d="M688.678,785.023h-.858l.695.511-.264.823.691-.511.695.511-.264-.823.695-.511h-.858l-.267-.823Z" transform="translate(-698.932 -774.665)" fill="#fff"/>
      <path id="Path_22245" data-name="Path 22245" d="M702.736,738.417l-.264-.827-.264.827h-.858l.695.507-.264.823.691-.507.695.507-.264-.823.691-.507Z" transform="translate(-707.762 -744.246)" fill="#fff"/>
      <path id="Path_22246" data-name="Path 22246" d="M701.781,751.407l.691-.511.695.511-.264-.827.691-.507h-.858l-.264-.823-.264.823h-.858l.695.507Z" transform="translate(-707.762 -751.855)" fill="#fff"/>
      <path id="Path_22247" data-name="Path 22247" d="M702.736,761.723l-.264-.823-.264.823h-.858l.695.507-.264.827.691-.511.695.511-.264-.827.691-.507Z" transform="translate(-707.762 -759.458)" fill="#fff"/>
      <path id="Path_22248" data-name="Path 22248" d="M702.736,773.373l-.264-.823-.264.823h-.858l.695.511-.264.823.691-.511.695.511-.264-.823.691-.511Z" transform="translate(-707.762 -767.061)" fill="#fff"/>
      <path id="Path_22249" data-name="Path 22249" d="M702.208,785.023h-.858l.695.511-.264.823.691-.511.695.511-.264-.823.691-.511h-.858l-.264-.823Z" transform="translate(-707.762 -774.665)" fill="#fff"/>
      <path id="Path_22250" data-name="Path 22250" d="M716.266,738.417,716,737.59l-.267.827h-.854l.691.507-.264.823.695-.507.691.507-.264-.823.695-.507Z" transform="translate(-716.593 -744.246)" fill="#fff"/>
      <path id="Path_22251" data-name="Path 22251" d="M716,749.25l-.267.823h-.854l.691.507-.264.827L716,750.9l.691.511-.264-.827.695-.507h-.858Z" transform="translate(-716.593 -751.855)" fill="#fff"/>
      <path id="Path_22252" data-name="Path 22252" d="M716.266,761.723,716,760.9l-.267.823h-.854l.691.507-.264.827.695-.511.691.511-.264-.827.695-.507Z" transform="translate(-716.593 -759.458)" fill="#fff"/>
      <path id="Path_22253" data-name="Path 22253" d="M716.266,773.373,716,772.55l-.267.823h-.854l.691.511-.264.823L716,774.2l.691.511-.264-.823.695-.511Z" transform="translate(-716.593 -767.061)" fill="#fff"/>
      <path id="Path_22254" data-name="Path 22254" d="M715.734,785.023h-.854l.691.511-.264.823.695-.511.691.511-.264-.823.695-.511h-.858L716,784.2Z" transform="translate(-716.593 -774.665)" fill="#fff"/>
      <path id="Path_22255" data-name="Path 22255" d="M730.059,738.417l-.267-.827-.264.827h-.858l.695.507-.264.823.691-.507.695.507-.264-.823.695-.507Z" transform="translate(-725.592 -744.246)" fill="#fff"/>
      <path id="Path_22256" data-name="Path 22256" d="M730.917,750.073h-.858l-.267-.823-.264.823h-.858l.695.507-.264.827.691-.511.695.511-.264-.827Z" transform="translate(-725.592 -751.855)" fill="#fff"/>
      <path id="Path_22257" data-name="Path 22257" d="M730.059,761.723l-.267-.823-.264.823h-.858l.695.507-.264.827.691-.511.695.511-.264-.827.695-.507Z" transform="translate(-725.592 -759.458)" fill="#fff"/>
      <path id="Path_22258" data-name="Path 22258" d="M730.917,773.373h-.858l-.267-.823-.264.823h-.858l.695.511-.264.823.691-.511.695.511-.264-.823Z" transform="translate(-725.592 -767.061)" fill="#fff"/>
      <path id="Path_22259" data-name="Path 22259" d="M729.528,785.023h-.858l.695.511-.264.823.691-.511.695.511-.264-.823.695-.511h-.858l-.267-.823Z" transform="translate(-725.592 -774.665)" fill="#fff"/>
    </g>
    <path id="Path_22260" data-name="Path 22260" d="M1029.671,905.212s-2.97,1.567-4.94.469-2.949-3.1-2.192-4.453,2.97-1.567,4.94-.465S1029.671,905.212,1029.671,905.212Z" transform="translate(-470.202 -407.033)" fill="#5673a8"/>
    <ellipse id="Ellipse_4200" data-name="Ellipse 4200" cx="2.254" cy="3.943" rx="2.254" ry="3.943" transform="translate(553.789 498.724)" fill="#5673a8"/>
    <path id="Path_22261" data-name="Path 22261" d="M1020.613,937.493c1.278.886.872,3.675-.9,6.232s-7.1,1.772-7.1,1.772a18.894,18.894,0,0,1,2.477-4.988C1016.862,937.962,1019.346,936.61,1020.613,937.493Z" transform="translate(-463.889 -431.29)" fill="#5673a8"/>
    <path id="Path_22262" data-name="Path 22262" d="M1028.953,904.06a8.4,8.4,0,0,1,.806,2.921s-2.97,1.567-4.94.465a5.491,5.491,0,0,1-1.539-1.25,5.166,5.166,0,0,0,2.084,2.084c1.969,1.1,4.94-.469,4.94-.469A7.3,7.3,0,0,0,1028.953,904.06Z" transform="translate(-470.852 -409.647)" fill="#355585"/>
    <path id="Path_22263" data-name="Path 22263" d="M1031.4,918.86a6.318,6.318,0,0,1,.309,1.984c0,2.178-1.011,3.946-2.254,3.946a1.775,1.775,0,0,1-1.39-.834c.393,1.171,1.115,1.959,1.945,1.959,1.244,0,2.255-1.765,2.255-3.943A5.406,5.406,0,0,0,1031.4,918.86Z" transform="translate(-473.978 -419.306)" fill="#355585"/>
    <path id="Path_22264" data-name="Path 22264" d="M1020.709,938.35a7.5,7.5,0,0,1-1.6,4.992c-1.313,1.886-4.561,1.952-6.169,1.858-.254.639-.368,1.042-.368,1.042s5.325.782,7.1-1.771C1021.4,942.011,1021.827,939.34,1020.709,938.35Z" transform="translate(-463.863 -432.025)" fill="#355585"/>
    <path id="Path_22265" data-name="Path 22265" d="M1019.788,956.967a.893.893,0,0,1-.212-.017h-.042l-.594,3.425-2.241,4.359h1.389l1.389-4.641Z" transform="translate(-466.558 -444.164)" fill="#355585"/>
    <path id="Path_22266" data-name="Path 22266" d="M1039.4,905.4l4.495-4.63,1.407-5.068-1.125-1.129-1.4,6.051-3.38,3.852Z" transform="translate(-481.373 -403.453)" fill="#355585"/>
    <path id="Path_22267" data-name="Path 22267" d="M1012.334,890.921s-1.688-6.76-3.38-7.607-4.787-.281-4.516,1.692.844.844.844.563-.563-.563-.563-.563a1.456,1.456,0,0,1,1.41-1.692c1.692-.281,2.532,0,3.1.563a26,26,0,0,1,2.22,4.811c.031.261.594,2.234.594,2.234S1012.334,891.2,1012.334,890.921Z" transform="translate(-458.545 -395.858)" fill="#355585"/>
    <path id="Path_22268" data-name="Path 22268" d="M1022.013,882.035s0-9.3-1.973-10.14-3.38-.281-3.38.563.566,1.973.848,1.41-.281-.563-.281-.563-.848-.566.281-1.129,2.251-.563,2.814.563a6.743,6.743,0,0,1,.848,2.536c.281,1.407.563,6.76.563,6.76S1021.732,882.317,1022.013,882.035Z" transform="translate(-466.532 -388.383)" fill="#355585"/>
    <path id="Path_22269" data-name="Path 22269" d="M1036.647,960.514l1.233-5.488-3.38-4.224v-.281l3.943,3.943-.743,6.051Z" transform="translate(-478.175 -439.968)" fill="#355585"/>
    <path id="Path_22270" data-name="Path 22270" d="M1019.13,926.218l3.932-4.078v.844l-3.088,2.953,3.661,3.1-.563,1.129Z" transform="translate(-468.144 -421.446)" fill="#355585"/>
    <path id="Path_22271" data-name="Path 22271" d="M1053.759,892.522l.549-.417s1.139-.993.858-1.838-1.125-1.688-1.39-.844a16.526,16.526,0,0,1-.577,1.553Z" transform="translate(-490.379 -399.866)" fill="#355585"/>
    <path id="Path_22272" data-name="Path 22272" d="M1097.293,645.2l-10.331,22.621L1076.541,690.4l-5.141,11.3-2.619,5.638c-.886,1.872-1.789,3.738-2.692,5.6l-2.755,5.575c-.934,1.848-1.851,3.706-2.8,5.558q-2.814,5.558-5.794,11.008l-.16-.073q2.345-5.766,4.863-11.463c.823-1.9,1.681-3.79,2.518-5.683l2.571-5.662q1.3-2.824,2.626-5.634l2.7-5.6,5.471-11.164,10.876-22.357,10.956-22.326Z" transform="translate(-491.279 -240.655)"/>
    <path id="Path_22273" data-name="Path 22273" d="M1056.356,888.88s1.41,0,1.125,1.129a3.054,3.054,0,0,1-.976,1.643S1055.5,889.161,1056.356,888.88Z" transform="translate(-492.214 -399.74)" fill="#355585"/>
  </g>
</svg>
