<svg xmlns="http://www.w3.org/2000/svg" width="546.903" height="340.17" viewBox="0 0 546.903 340.17">
  <g id="Fax" transform="translate(-226.248 -244.226)">
    <line id="Line_3323" data-name="Line 3323" x1="222.682" transform="translate(550.469 552.217)" fill="none" stroke="#b5b5b5" stroke-miterlimit="10" stroke-width="2.58"/>
    <path id="Path_29419" data-name="Path 29419" d="M1122.992,839.18h201.961a10.322,10.322,0,0,1,10.322,10.322v78.1a1.719,1.719,0,0,1-1.719,1.719H1114.389a1.718,1.718,0,0,1-1.719-1.718V849.5A10.322,10.322,0,0,1,1122.992,839.18Z" transform="translate(-562.3 -377.408)" fill="#b7b7b7"/>
    <path id="Path_29420" data-name="Path 29420" d="M1192.012,830.71h18.235a1.718,1.718,0,0,1,1.719,1.719v91.519H1190.29V832.428a1.719,1.719,0,0,1,1.722-1.719Z" transform="translate(-611.538 -372.035)" fill="#d9d9d9"/>
    <path id="Path_29421" data-name="Path 29421" d="M1584.55,923.948V832.428a1.719,1.719,0,0,1,1.719-1.719H1604.5a1.722,1.722,0,0,1,1.722,1.719v91.519" transform="translate(-861.636 -372.035)" fill="#d9d9d9"/>
    <path id="Path_29422" data-name="Path 29422" d="M1271.439,952.09h99.706a5.353,5.353,0,0,1,5.339,5.353v42.613a.892.892,0,0,1-.892.892h-108.61a.892.892,0,0,1-.892-.892V957.443a5.353,5.353,0,0,1,5.349-5.353Z" transform="translate(-659.621 -449.032)" fill="#d9d9d9"/>
    <path id="Path_29423" data-name="Path 29423" d="M1280.127,968.09H1374.1a4.867,4.867,0,0,1,4.867,4.867v37.329a.811.811,0,0,1-.812.812H1276.072a.812.812,0,0,1-.812-.811V972.953A4.867,4.867,0,0,1,1280.127,968.09Z" transform="translate(-665.438 -459.181)" fill="#6c6c6c"/>
    <path id="Path_29425" data-name="Path 29425" d="M1284,1062.18v3.722c0,.227.34.406.761.406h95.8c.421,0,.76-.179.76-.406v-3.722Z" transform="translate(-670.983 -518.867)"/>
    <path id="Path_29426" data-name="Path 29426" d="M1273.653,1067.572a152.809,152.809,0,0,1-19.888,37.87c-.629.883,119.466,1.293,118.9.41a163.078,163.078,0,0,1-18.14-38.266Q1314.091,1066.491,1273.653,1067.572Z" transform="translate(-651.802 -521.947)" fill="#fff"/>
    <circle id="Ellipse_4637" data-name="Ellipse 4637" cx="2.79" cy="2.79" r="2.79" transform="translate(726.344 498.725)" fill="#24c0a0"/>
    <rect id="Rectangle_18961" data-name="Rectangle 18961" width="6.008" height="2.907" transform="translate(727.682 533.367) rotate(-90)" fill="#b7b7b7"/>
    <rect id="Rectangle_18962" data-name="Rectangle 18962" width="6.008" height="2.907" transform="translate(727.679 524.387) rotate(-90)" fill="#b7b7b7"/>
    <rect id="Rectangle_18963" data-name="Rectangle 18963" width="6.008" height="2.907" transform="translate(727.679 515.41) rotate(-90)" fill="#b7b7b7"/>
    <rect id="Rectangle_18964" data-name="Rectangle 18964" width="6.008" height="2.907" transform="translate(735.65 533.364) rotate(-90)" fill="#b7b7b7"/>
    <rect id="Rectangle_18965" data-name="Rectangle 18965" width="6.008" height="2.907" transform="translate(735.65 524.387) rotate(-90)" fill="#b7b7b7"/>
    <rect id="Rectangle_18966" data-name="Rectangle 18966" width="6.008" height="2.907" transform="translate(735.65 515.41) rotate(-90)" fill="#b7b7b7"/>
    <circle id="Ellipse_4638" data-name="Ellipse 4638" cx="2.79" cy="2.79" r="2.79" transform="translate(590.881 498.725)" fill="#b7b7b7"/>
    <rect id="Rectangle_18967" data-name="Rectangle 18967" width="6.008" height="2.907" transform="translate(592.219 533.364) rotate(-90)" fill="#b7b7b7"/>
    <rect id="Rectangle_18968" data-name="Rectangle 18968" width="6.008" height="2.907" transform="translate(592.219 524.387) rotate(-90)" fill="#b7b7b7"/>
    <rect id="Rectangle_18969" data-name="Rectangle 18969" width="6.008" height="2.907" transform="translate(592.219 515.41) rotate(-90)" fill="#b7b7b7"/>
    <rect id="Rectangle_18970" data-name="Rectangle 18970" width="6.008" height="2.907" transform="translate(584.251 533.367) rotate(-90)" fill="#b7b7b7"/>
    <rect id="Rectangle_18971" data-name="Rectangle 18971" width="6.008" height="2.907" transform="translate(584.248 524.387) rotate(-90)" fill="#b7b7b7"/>
    <rect id="Rectangle_18972" data-name="Rectangle 18972" width="6.008" height="2.907" transform="translate(584.248 515.41) rotate(-90)" fill="#b7b7b7"/>
    <circle id="Ellipse_4639" data-name="Ellipse 4639" cx="1.411" cy="1.411" r="1.411" transform="translate(582.968 501.482)" fill="#b7b7b7"/>
    <rect id="Rectangle_18973" data-name="Rectangle 18973" width="37.845" height="1.031" transform="translate(668.706 498.243)" fill="#d9d9d9"/>
    <rect id="Rectangle_18974" data-name="Rectangle 18974" width="37.845" height="1.031" transform="translate(668.706 494.802)" fill="#d9d9d9"/>
    <rect id="Rectangle_18975" data-name="Rectangle 18975" width="37.845" height="1.031" transform="translate(668.706 491.361)" fill="#d9d9d9"/>
    <rect id="Rectangle_18976" data-name="Rectangle 18976" width="117.649" height="18.385" transform="translate(602.845 443.384)" fill="#6c6c6c"/>
    <rect id="Rectangle_18977" data-name="Rectangle 18977" width="40.222" height="9.448" rx="3.77" transform="translate(667.478 479.766)" fill="#919191"/>
    <rect id="Rectangle_18978" data-name="Rectangle 18978" width="37.322" height="7.478" rx="3.23" transform="translate(668.926 480.753)" fill="#d9d9d9"/>
    <rect id="Rectangle_18979" data-name="Rectangle 18979" width="12.897" height="12.897" rx="1" transform="translate(278.977 539.326) rotate(-0.37)" fill="#fff"/>
    <rect id="Rectangle_18980" data-name="Rectangle 18980" width="12.897" height="12.897" rx="1" transform="translate(291.774 539.323) rotate(-0.37)" fill="#f3f3f3"/>
    <rect id="Rectangle_18981" data-name="Rectangle 18981" width="12.897" height="12.897" rx="1" transform="translate(282.62 526.552) rotate(-0.37)" fill="#d9d9d9"/>
    <line id="Line_3324" data-name="Line 3324" x2="26.188" transform="translate(278.541 552.217)" fill="none" stroke="#dadada" stroke-miterlimit="10" stroke-width="2"/>
    <line id="Line_3325" data-name="Line 3325" x2="21.435" transform="translate(325.41 552.217)" fill="none" stroke="#dadada" stroke-miterlimit="10" stroke-width="2"/>
    <rect id="Rectangle_18982" data-name="Rectangle 18982" width="30.09" height="30.09" rx="2" transform="translate(517.646 552.224) rotate(-179.63)" fill="#fff"/>
    <rect id="Rectangle_18983" data-name="Rectangle 18983" width="30.09" height="30.09" rx="2" transform="translate(487.79 552.227) rotate(-179.63)" fill="#f3f3f3"/>
    <rect id="Rectangle_18984" data-name="Rectangle 18984" width="30.09" height="30.09" rx="9.8" transform="translate(513.164 522.433) rotate(-179.63)" fill="#d9d9d9"/>
    <line id="Line_3326" data-name="Line 3326" x1="61.1" transform="translate(457.71 552.217)" fill="none" stroke="#b5b5b5" stroke-miterlimit="10" stroke-width="2"/>
    <path id="Path_29427" data-name="Path 29427" d="M976.936,860.14a78.741,78.741,0,0,1,.446,23,94.259,94.259,0,0,1-2.077,11.4c-.633,2.611-1.375,5.188-2.245,7.708h.022a37.928,37.928,0,0,0,18.1-3.269,51.109,51.109,0,0,0,6.081-3.126c.223.366.457.709.7,1.057,0,.022.037.04.051.062a52.121,52.121,0,0,1-6.523,3.316,41.408,41.408,0,0,1-9.178,2.746A42.208,42.208,0,0,1,973,903.4h-.344c-.256.706-.519,1.408-.8,2.1a49.667,49.667,0,0,1-2.384,5.119,21.212,21.212,0,0,1-3.145,4.538,4.882,4.882,0,0,1-2.194,1.426,2.041,2.041,0,0,1-1.261-.1,3.417,3.417,0,0,1-1.068-.731,7.892,7.892,0,0,1-1.536-2.194,13.482,13.482,0,0,1-.969-2.644,12.574,12.574,0,0,1-.388-2.925,7.314,7.314,0,0,1,.567-3.031,4.551,4.551,0,0,1,.841-1.265,4.43,4.43,0,0,1,1.1-.834,7.145,7.145,0,0,1,2.373-.731,26.448,26.448,0,0,1,4.68-.128l4.165.2q1.349-3.839,2.318-7.8a92.557,92.557,0,0,0,2-11.335,74.394,74.394,0,0,0-.709-22.711,60.366,60.366,0,0,0-20.711-35.033c-1.24-1.028-2.526-1.949-3.839-2.867s-2.625-1.784-3.982-2.56a19.272,19.272,0,0,0-4.194-1.828,7.288,7.288,0,0,0-4.348-.029,5.082,5.082,0,0,0-1.013.494,5.552,5.552,0,0,0-.464.333,2.626,2.626,0,0,0-.366.4,6.247,6.247,0,0,0-.976,2.355,27.632,27.632,0,0,0-.527,5.613c-.033,3.806.245,7.617.523,11.416s.6,7.6.8,11.427c.1,1.912.168,3.832.165,5.759a39.819,39.819,0,0,1-.388,5.781H936.8a40.226,40.226,0,0,0,.241-5.741c-.033-1.912-.139-3.817-.274-5.719-.271-3.8-.669-7.58-1.005-11.375s-.655-7.606-.673-11.485a28.936,28.936,0,0,1,.486-5.876,7.475,7.475,0,0,1,1.156-2.834,3.794,3.794,0,0,1,.523-.56,5.892,5.892,0,0,1,.552-.417,6.3,6.3,0,0,1,1.17-.6,7.91,7.91,0,0,1,4.79-.04,19.907,19.907,0,0,1,4.388,1.828,46.838,46.838,0,0,1,4.07,2.56c1.324.914,2.644,1.828,3.912,2.874a57.773,57.773,0,0,1,13.222,15.357A61.1,61.1,0,0,1,976.936,860.14ZM968.4,903.119a25.185,25.185,0,0,0-4.549.022,6.485,6.485,0,0,0-2.157.607,3.427,3.427,0,0,0-1.6,1.649,6.256,6.256,0,0,0-.5,2.56,11.494,11.494,0,0,0,.321,2.7,12.385,12.385,0,0,0,.878,2.5,7.336,7.336,0,0,0,1.379,2.04,2.08,2.08,0,0,0,1.909.731,4.39,4.39,0,0,0,1.96-1.251,19.606,19.606,0,0,0,3.083-4.355,48.757,48.757,0,0,0,2.377-5.053q.389-.954.731-1.92c-1.272-.058-2.552-.15-3.825-.227Z" transform="translate(-449.649 -363.093)"/>
    <line id="Line_3327" data-name="Line 3327" x1="100.456" transform="translate(363.668 567.219)" fill="none" stroke="#b5b5b5" stroke-miterlimit="10" stroke-width="2"/>
    <path id="Path_29428" data-name="Path 29428" d="M767.62,890.85c-1.36-6.022-4.143-11.423-3.656-17.639.622-8.063,1.411-22.846,1.126-43.94-.453-33.516-23.943-53.3-23.943-53.3-21.683-4.943-20.33,15.935-18.7,19.255s35.86,34.027,35.86,34.027-3.159,3.291-4.516,10.443c-1.017,5.357,3.291,24,5.525,32.993a68.381,68.381,0,0,1,1.828,11.277c.183,2.4.34,5,.34,6.83,0,4.388.9,13.185.9,13.185l1.806-12.637s1.792,12.637,8.586,12.637C786.769,904,770.962,905.648,767.62,890.85Z" transform="translate(-314.246 -336.834)" fill="#edf0f5"/>
    <ellipse id="Ellipse_4640" data-name="Ellipse 4640" cx="4.293" cy="4.669" rx="4.293" ry="4.669" transform="translate(444.064 486.944)" fill="#edf0f5"/>
    <path id="Path_29429" data-name="Path 29429" d="M829.626,1045.187c-1.36-6.022-4.143-11.423-3.656-17.639.186-2.41.388-5.43.57-9.028-2.388.121-4.772.241-7.16.3.706,3.1,1.393,5.971,1.949,8.224a68.384,68.384,0,0,1,1.828,11.277c.183,2.4.34,5,.34,6.83,0,4.388.9,13.186.9,13.186l1.806-12.637s1.792,12.637,8.586,12.637C848.775,1058.336,832.968,1059.985,829.626,1045.187Z" transform="translate(-376.252 -491.171)" fill="#ffab43"/>
    <path id="Path_29430" data-name="Path 29430" d="M838.938,1089.953c-2.925-1.612-4.413-4.977-6.527-7.8a26.135,26.135,0,0,0-2.271-2.6c.1,1.58.164,3.1.164,4.3,0,4.388.9,13.186.9,13.186l1.806-12.637s1.792,12.637,8.585,12.637C853.289,1097.05,844.2,1098.2,838.938,1089.953Z" transform="translate(-383.078 -529.886)" fill="#b5b5b5"/>
    <path id="Path_29431" data-name="Path 29431" d="M811.058,964.947c-1.331-6.809-2.267-13.273-1.733-16.089.1-.548.216-1.068.34-1.569.172,2.852.534,5.686.943,8.512C810.77,958.856,810.982,961.9,811.058,964.947Z" transform="translate(-369.777 -445.987)" fill="#dbe1ec"/>
    <path id="Path_29432" data-name="Path 29432" d="M758.276,863.441a85.415,85.415,0,0,1,8.319,7.17,30.422,30.422,0,0,1,3.291,4.234c.037.1.073.2.106.307-5.368-4.849-17.756-16.089-25.811-23.862C749.756,853.886,753.621,859.612,758.276,863.441Z" transform="translate(-328.549 -385.089)" fill="#dbe1ec"/>
    <path id="Path_29433" data-name="Path 29433" d="M765.042,631.739s10.527-10.688,12.37-12.432,8.933-10.059,11.141-8.41-9.745,21.157-13.606,22.129S762.713,636.979,765.042,631.739Z" transform="translate(-341.527 -232.46)" fill="#edf0f5"/>
    <path id="Path_29434" data-name="Path 29434" d="M792.1,637.994c3.342-4.274,7.313-8.556,9.547-13.562.9-1.009,1.828-2.018,2.709-3.042-2.479,6.154-10.147,17.7-13.094,18.447l-.9.241C790.96,639.4,791.541,638.707,792.1,637.994Z" transform="translate(-357.843 -239.253)" fill="#dbe1ec"/>
    <path id="Path_29435" data-name="Path 29435" d="M761.963,655.507c-4.073-.691-4.052-2.742-7.459-.41-3.47,2.373-4.753,8.128-5.331,12.706-1.133,8.929,4.867,24.974,4.867,24.974l4.508.819s11.013-20.864,12.706-24.184c1.569-3.071-9.291-13.895-9.291-13.895Z" transform="translate(-331.626 -259.947)" fill="#fff"/>
    <path id="Path_29436" data-name="Path 29436" d="M794.22,681.708a8.269,8.269,0,0,1,1.594,2.45h0q.867.34,1.572.654c.285-.691.538-1.349.775-1.964h0a7.091,7.091,0,0,0-.464-.965,7.3,7.3,0,0,0-.874-1.214Z" transform="translate(-360.292 -276.857)" fill="#eceff4"/>
    <path id="Path_29437" data-name="Path 29437" d="M730.739,759.25l4.969,1.1s10.842,22.528,4.066,28.02-28.009,3.847-26.653-12.637S730.739,759.25,730.739,759.25Z" transform="translate(-308.808 -326.704)" fill="#fff"/>
    <path id="Path_29438" data-name="Path 29438" d="M749.288,798.137c-.446-8.468-6.315-15.061-13.291-14.827a11.377,11.377,0,0,0-9.339,4.662c-6.772,9.426,4.066,57.126,4.066,57.126l-.1.037c.848,3.258,4,4.333,7.127,5.053a40.975,40.975,0,0,0,5.616-6.754C749.921,833.2,750,811.648,749.288,798.137Z" transform="translate(-316.022 -341.962)" fill="#fff"/>
    <ellipse id="Ellipse_4641" data-name="Ellipse 4641" cx="5.196" cy="5.222" rx="5.196" ry="5.222" transform="translate(412.442 502.327)" fill="#fff"/>
    <path id="Path_29439" data-name="Path 29439" d="M806.252,580.8c0,.037-1.883-2-1.543-3.843.219-2,6.044-6.106,9.459-16.6,1.865-5.715,2.194-7.726,2.925-8.969.64-1.254,1.411-1.042,1.346-1.031,0,.044,3.093-.545,4.307.274,1.558,1.258-4.589,8.966-4.838,8.52.461.088-3.112,9.646-3.883,13.357C814.428,576.361,811.283,582.445,806.252,580.8Z" transform="translate(-366.919 -194.088)" fill="#edf0f5"/>
    <path id="Path_29440" data-name="Path 29440" d="M829.79,586.557a19.719,19.719,0,0,0-2.56,7.43,50.574,50.574,0,0,1-.34,5.3,9.378,9.378,0,0,0,1.258-5.273c.475-2.282,2.008-6.772,3.013-9.916C830.678,584.882,830.221,585.7,829.79,586.557Z" transform="translate(-381.016 -215.598)" fill="#dbe1ec"/>
    <path id="Path_29441" data-name="Path 29441" d="M659.89,969.133c1.017,1.605,2.055,3.2,3.068,4.8,8.735-2.5,23.4-7.258,34.006-13.529a7.013,7.013,0,0,0-3.265-5.8h-.022a6.842,6.842,0,0,0-4.6-.98l-2.9.366c-4.022.537-15.482,7.927-23.062,13.076Q661.517,968.149,659.89,969.133Z" transform="translate(-275.08 -449.961)" fill="#fff"/>
    <path id="Path_29442" data-name="Path 29442" d="M625.726,1001.911a20.348,20.348,0,0,1,13.163-10.33c2.278-.644,5.035-1.463,8.044-2.432-.6-2.72-1.167-5.452-1.759-8.18-1.828,1.207-3.631,2.4-5.24,3.5a90.382,90.382,0,0,1-11.266,6.333,1.67,1.67,0,0,1-.706.826l-.069.04a3.333,3.333,0,0,1-.073.508,5.993,5.993,0,0,1-.783,2.22,2.128,2.128,0,0,1-.936.812c-.607,3.558-3,6.673-2.713,10.344.154.208.307.417.464.622a32.363,32.363,0,0,1,1.872-4.26Z" transform="translate(-251.911 -467.352)" fill="#ffab43"/>
    <path id="Path_29443" data-name="Path 29443" d="M603.476,1025.014l5.119,8.227c0-2.79-2.757-5.818-.417-10.535a.268.268,0,0,1,.026-.139,114.429,114.429,0,0,1,4.669-14.838c-1.441.647-14.484,8.41-14.484,8.41l11.789-3.891S603.494,1018.111,603.476,1025.014Z" transform="translate(-236.067 -484.327)" fill="#b5b5b5"/>
    <path id="Path_29444" data-name="Path 29444" d="M834.829,542.1c-2.56.146-4.969,4.139-4.969,4.139l-.117.366c-.633,1.28-1.046,3.412-2.739,8.6a40.371,40.371,0,0,1-2.124,5.265,17.485,17.485,0,0,0,3.291,2.322c1.283-4.077,2.925-8.735,2.6-8.776.238.428,5.88-6.615,4.991-8.322C836.171,544.433,836.742,541.994,834.829,542.1Z" transform="translate(-379.741 -188.956)" fill="#ffab43"/>
    <path id="Path_29445" data-name="Path 29445" d="M672.228,575.314a10.048,10.048,0,0,0-15.873,3.821,10.289,10.289,0,0,1-6.68,6.106,14.56,14.56,0,0,0-10.059,10.052,6.432,6.432,0,0,1-6.107,4.724,18.239,18.239,0,1,0,18.48,19.277,6.436,6.436,0,0,1,4.995-5.887A14.549,14.549,0,0,0,668.173,599a10.429,10.429,0,0,1,3.847-8.3,10.527,10.527,0,0,0,.823-.731,10.044,10.044,0,0,0-.614-14.663Z" transform="translate(-246.947 -208.476)"/>
    <circle id="Ellipse_4642" data-name="Ellipse 4642" cx="4.508" cy="4.508" r="4.508" transform="translate(421.756 370.034)" fill="#fff"/>
    <path id="Path_29446" data-name="Path 29446" d="M784.254,594.875c-2.11-6.907-16-4.388-17.061-.366-2.72,10.2,1.514,14.132,5.445,15.054s7.99-5.748,7.99-5.748S786.657,602.726,784.254,594.875Z" transform="translate(-342.6 -219.693)"/>
    <path id="Path_29447" data-name="Path 29447" d="M782.208,605.664s-.106,7.609-2.644,10.567c-1.547,1.8-2.984,1.982-3.872,1.846a1.682,1.682,0,0,0-1.624.7h0a8.545,8.545,0,0,0-1.543,4.388l1.463,6.582L765,621.928l6.446-5.349-1.488-4.1.8-4.388a7.546,7.546,0,0,1,3.631-5.243C776.507,601.634,779.414,601.378,782.208,605.664Z" transform="translate(-341.756 -227)" fill="#ffab43"/>
    <ellipse id="Ellipse_4643" data-name="Ellipse 4643" cx="2.304" cy="1.357" rx="2.304" ry="1.357" transform="matrix(0.014, -1, 1, 0.014, 426.667, 385.649)" fill="#ffab43"/>
    <path id="Path_29448" data-name="Path 29448" d="M778.68,602.533l.417.8,1.7-.15a11.839,11.839,0,0,0,6.073-2.333h0l1.931,1.415s1.188.837,1.8.128c3.605-4.187.256-7.631-2.413-8.3S776.695,593.581,778.68,602.533Z" transform="translate(-350.251 -221.785)"/>
    <path id="Path_29449" data-name="Path 29449" d="M765.9,667.579c-6.092-.274-8.194,8.1-2.735,10.812l.142.07c4.8,2.311,24.865,2.011,30.77-4.911s-10.739-1.876-18.648-3.686C771.44,668.957,768.529,667.7,765.9,667.579Z" transform="translate(-338.594 -268.548)" fill="#fff"/>
    <rect id="Rectangle_18985" data-name="Rectangle 18985" width="10.688" height="12.088" rx="0.84" transform="translate(539.781 530.672)" fill="#919191"/>
    <path id="Path_29450" data-name="Path 29450" d="M689.213,333.553l46.072-86.923a4.527,4.527,0,0,1,6.117-1.876l117.374,62.234a4.523,4.523,0,0,1,1.879,6.114l-46.065,86.923a4.527,4.527,0,0,1-6.117,1.879L691.1,339.67a4.527,4.527,0,0,1-1.876-6.117Z" transform="translate(-293.353)" fill="#fff"/>
    <text id="FAX-2" data-name="FAX" transform="translate(438.154 316.047) rotate(27.332)" fill="#ff5d5d" font-size="40" font-family="Montserrat-Black, Montserrat" font-weight="800" opacity="0.7"><tspan x="0" y="0" letter-spacing="-0.02em">F</tspan><tspan y="0" letter-spacing="-0.04em">A</tspan><tspan y="0">X</tspan></text>
    <path id="Path_29451" data-name="Path 29451" d="M842.5,626.348a.112.112,0,0,1,.033.04c.128.223,1.258,2.084,3.119,1.5,1.978-.629,9.31-7.021,11.88-20.308,2.424-12.538-.325-12.8-.647-12.8a.171.171,0,0,1-.058,0c-.336-.106-3.539-1.1-5.028-.556s1.858,8.436,2.194,9.2a.155.155,0,0,1,0,.121c-.271.837-3.24,9.77-6.487,11.833C844.1,617.524,839.218,623.528,842.5,626.348Z" transform="translate(-390.229 -221.917)" fill="#fff"/>
    <path id="Path_29452" data-name="Path 29452" d="M875.116,581.069l.055-.815c.055-.815-.282-.673-.563-1.349s-1.631-.11-1.631-.11l-1.013.424c-1.013.421-2.819,5.163-2.819,5.163-1.5.538,1.857,8.436,2.194,9.2a.152.152,0,0,1,0,.121c-.131.406-.892,2.7-2.011,5.2a.179.179,0,0,0,.066.223,39.922,39.922,0,0,1,4.114,3.093.179.179,0,0,0,.289-.084,45.033,45.033,0,0,0,1.1-4.388c1.346-6.977,1.1-10.154.548-11.6l.311-4.549C875.8,580.787,875.116,581.069,875.116,581.069Z" transform="translate(-407.577 -212.092)" fill="#ffab43"/>
    <path id="Path_29453" data-name="Path 29453" d="M1377.454,642.953l1.072-107.187a4.523,4.523,0,0,0-4.483-4.567l-98.361-.98a4.519,4.519,0,0,0-4.585,4.476L1270,642.953Z" transform="translate(-662.102 -181.419)" fill="#e7e7e7" stroke="#b7b7b7" stroke-miterlimit="10" stroke-width="1" stroke-dasharray="4 6"/>
    <line id="Line_3328" data-name="Line 3328" x2="108.964" transform="translate(606.911 461.535)" fill="none" stroke="#000" stroke-miterlimit="10" stroke-width="2"/>
    <path id="Path_29454" data-name="Path 29454" d="M547.4,525.234l3.539,7.167a1.828,1.828,0,0,0,1.375,1l7.913,1.148a1.828,1.828,0,0,1,1.013,3.115l-5.722,5.58a1.828,1.828,0,0,0-.526,1.62l1.349,7.876a1.828,1.828,0,0,1-2.651,1.927l-7.075-3.722a1.828,1.828,0,0,0-1.7,0l-7.075,3.719a1.828,1.828,0,0,1-2.651-1.927l1.349-7.876a1.828,1.828,0,0,0-.523-1.62l-5.726-5.576a1.828,1.828,0,0,1,1.013-3.119l7.913-1.148a1.829,1.829,0,0,0,1.375-1l3.539-7.167a1.828,1.828,0,0,1,3.276,0Z" transform="translate(-192.512 -177.61)" fill="#f3f3f3"/>
    <path id="Path_29455" data-name="Path 29455" d="M1525.4,391.234l3.54,7.167a1.828,1.828,0,0,0,1.375,1l7.913,1.148a1.828,1.828,0,0,1,1.013,3.119l-5.723,5.58a1.829,1.829,0,0,0-.526,1.62l1.349,7.876a1.828,1.828,0,0,1-2.651,1.927l-7.075-3.719a1.828,1.828,0,0,0-1.7,0l-7.075,3.719a1.828,1.828,0,0,1-2.651-1.927l1.349-7.876a1.828,1.828,0,0,0-.523-1.62l-5.726-5.583a1.828,1.828,0,0,1,1.013-3.119l7.912-1.148a1.828,1.828,0,0,0,1.375-1l3.539-7.167a1.828,1.828,0,0,1,3.276,0Z" transform="translate(-812.904 -92.608)" fill="#e7e7e7" stroke="#b7b7b7" stroke-miterlimit="10" stroke-width="1" stroke-dasharray="4 6"/>
    <path id="Path_29456" data-name="Path 29456" d="M507.847,1044.135h0a1.609,1.609,0,0,0-1.605-1.605h-6.717a1.605,1.605,0,0,0-1.605,1.605v12.849a1.605,1.605,0,0,0,1.605,1.605h18.981a1.609,1.609,0,0,0,1.605-1.605v-9.635a1.609,1.609,0,0,0-1.605-1.609h-9.053A1.605,1.605,0,0,1,507.847,1044.135Z" transform="translate(-172.335 -506.402)" fill="#f7f7f7"/>
    <path id="Path_29457" data-name="Path 29457" d="M519.935,1067.2H500.35a.585.585,0,0,1-.516-.856l4.9-9.306a1.755,1.755,0,0,1,1.55-.936h17.65a1.755,1.755,0,0,1,1.55,2.56l-4,7.591A1.748,1.748,0,0,1,519.935,1067.2Z" transform="translate(-173.507 -515.01)" fill="#d9d9d9"/>
    <path id="Path_29458" data-name="Path 29458" d="M1207.421,730.847l-.2-1.1s-2.194-.333-2.194-1.8,4.212,2,4.666,4.293S1207.421,730.847,1207.421,730.847Z" transform="translate(-620.888 -306.631)" fill="#6c6c6c"/>
    <path id="Path_29459" data-name="Path 29459" d="M1257.9,750.044V742c-.731.519,2.271-1.1,5.485-2.925,2.56-1.463-3.656,3.657-3.656,3.657v8.41l-3.656-.98Z" transform="translate(-653.265 -313.739)" fill="#6c6c6c"/>
    <path id="Path_29460" data-name="Path 29460" d="M1236.5,753.892s-3.7-.325-4.87-2.527-.888-4.64.629-5.448,3.7.322,4.87,2.527S1236.5,753.892,1236.5,753.892Z" transform="translate(-637.302 -318.081)" fill="#909090"/>
    <ellipse id="Ellipse_4644" data-name="Ellipse 4644" cx="4.359" cy="2.49" rx="4.359" ry="2.49" transform="matrix(0.542, -0.841, 0.841, 0.542, 588.877, 440.243)" fill="#909090"/>
    <path id="Path_29461" data-name="Path 29461" d="M1204.861,781.728c.655,1.591-1.393,3.942-4.574,5.254s-7.657-2.607-7.657-2.607a20.877,20.877,0,0,1,5.283-3.152C1201.095,779.915,1204.2,780.141,1204.861,781.728Z" transform="translate(-613.022 -340.103)" fill="#909090"/>
    <path id="Path_29462" data-name="Path 29462" d="M1237.5,753.921a9.367,9.367,0,0,1-1,3.2s-3.7-.325-4.87-2.527a6.187,6.187,0,0,1-.677-2.081,5.658,5.658,0,0,0,.695,3.2c1.17,2.194,4.871,2.527,4.871,2.527A8.222,8.222,0,0,0,1237.5,753.921Z" transform="translate(-637.318 -322.429)" fill="#6c6c6c"/>
    <path id="Path_29463" data-name="Path 29463" d="M1227.823,768.33a7.023,7.023,0,0,1-.9,2.026c-1.306,2.026-3.291,3.06-4.458,2.315a1.953,1.953,0,0,1-.782-1.6c-.34,1.324-.139,2.49.633,2.987,1.156.731,3.152-.292,4.454-2.315A5.911,5.911,0,0,0,1227.823,768.33Z" transform="translate(-631.351 -332.464)" fill="#6c6c6c"/>
    <path id="Path_29464" data-name="Path 29464" d="M1204.916,784.6a8.3,8.3,0,0,1-4.476,3.678c-2.351.969-5.408-.918-6.845-1.967-.618.443-.965.731-.965.731s4.479,3.916,7.657,2.607C1203.347,788.4,1205.347,786.183,1204.916,784.6Z" transform="translate(-613.022 -342.785)" fill="#6c6c6c"/>
    <path id="Path_29465" data-name="Path 29465" d="M1196.125,794.776a1.761,1.761,0,0,1-.187-.139l-.033-.037-5.715,5.938,1.261,6.874h1.554l-1.4-6.256Z" transform="translate(-611.474 -349.128)" fill="#6c6c6c"/>
    <path id="Path_29466" data-name="Path 29466" d="M1217.658,794.47l6.563,3.214-3.229,9.646h-2.56l4.022-8.816-4.965-3.781Z" transform="translate(-628.792 -349.046)" fill="#6c6c6c"/>
    <path id="Path_29467" data-name="Path 29467" d="M1246.5,765.53l.731,2.559-10.86,1.042.552-.859Z" transform="translate(-640.769 -330.688)" fill="#6c6c6c"/>
    <path id="Path_29468" data-name="Path 29468" d="M1229.711,731.546s2.476-7.313,1.411-9.09-4.278-3.13-5.2-1.13.282,1.294.45,1.031-.186-.859-.186-.859a1.618,1.618,0,0,1,2.318-.731c1.737.731,2.359,1.517,2.56,2.377s-.691,5.54-.819,5.8-.782,2.432-.782,2.432S1229.543,731.792,1229.711,731.546Z" transform="translate(-633.924 -302.017)" fill="#6c6c6c"/>
    <path id="Path_29469" data-name="Path 29469" d="M1242.971,728.453s5.565-8.637,4.238-10.6-2.969-2.285-3.478-1.5-.658,2.168-.059,1.828.077-.691.077-.691-.45-1.031.936-.878,2.431.826,2.282,2.194a7.56,7.56,0,0,1-.731,2.863c-.578,1.477-3.525,6.618-3.525,6.618S1242.54,728.544,1242.971,728.453Z" transform="translate(-644.77 -299.238)" fill="#6c6c6c"/>
    <path id="Path_29470" data-name="Path 29470" d="M1218,745.8l-3.843-2.6-.644-7.265-2.487-2.5c.461,2.037,2.117,11.335,2.117,11.335l4.5,1.766.45-.7Z" transform="translate(-624.694 -310.332)" fill="#6c6c6c"/>
    <path id="Path_29471" data-name="Path 29471" d="M1269.851,704.526c.157-.49-.168-.936-.819-1.148a1.773,1.773,0,0,0-1.686.27l-.976-1.1a3.333,3.333,0,0,1,3.254-.421c1.5.486,2.318,1.492,1.938,2.669-.519,1.594-2.253,1.229-2.6,2.289l-1.506-.49C1267.913,705.2,1269.569,705.4,1269.851,704.526Zm-3.108,3.6a1.005,1.005,0,1,1,.645,1.267,1.01,1.01,0,0,1-.645-1.267Z" transform="translate(-659.799 -290.325)" fill="#909090"/>
    <path id="Path_29472" data-name="Path 29472" d="M1204.494,682.109c-.325-.666-1.1-.8-2-.366a2.56,2.56,0,0,0-1.463,1.975l-2.121-.157a4.842,4.842,0,0,1,2.958-3.711c2.04-1,3.905-.783,4.691.823,1.068,2.194-1.1,3.543-.391,4.987l-2.059,1.006C1203.159,684.757,1205.075,683.294,1204.494,682.109Zm.395,6.867a1.463,1.463,0,1,1,1.883.534,1.463,1.463,0,0,1-1.883-.534Z" transform="translate(-617.006 -275.953)" fill="#909090"/>
    <line id="Line_3329" data-name="Line 3329" x2="12.224" transform="translate(579.977 458.284)" fill="none" stroke="#b5b5b5" stroke-miterlimit="10" stroke-width="2"/>
    <path id="Path_29473" data-name="Path 29473" d="M1597.05,755.872s3.126,1.649,5.2.49,3.1-3.254,2.3-4.684-3.126-1.649-5.2-.494S1597.05,755.872,1597.05,755.872Z" transform="translate(-869.565 -321.118)" fill="#5673a8"/>
    <ellipse id="Ellipse_4645" data-name="Ellipse 4645" cx="2.373" cy="4.15" rx="2.373" ry="4.15" transform="translate(728.717 435.325)" fill="#5673a8"/>
    <path id="Path_29474" data-name="Path 29474" d="M1603.637,787.9c-1.346.936-.922,3.872.951,6.56s7.474,1.865,7.474,1.865a19.972,19.972,0,0,0-2.607-5.247C1607.567,788.387,1604.96,786.965,1603.637,787.9Z" transform="translate(-873.245 -344.696)" fill="#5673a8"/>
    <path id="Path_29475" data-name="Path 29475" d="M1598.526,754.45a8.832,8.832,0,0,0-.849,3.075s3.126,1.649,5.2.49a5.823,5.823,0,0,0,1.616-1.316,5.418,5.418,0,0,1-2.194,2.194c-2.073,1.159-5.2-.49-5.2-.49A7.67,7.67,0,0,1,1598.526,754.45Z" transform="translate(-869.597 -323.659)" fill="#355585"/>
    <path id="Path_29476" data-name="Path 29476" d="M1601.32,769.25a6.629,6.629,0,0,0-.34,2.1c0,2.293,1.064,4.15,2.373,4.15a1.861,1.861,0,0,0,1.463-.878c-.413,1.232-1.173,2.062-2.048,2.062-1.313,0-2.373-1.858-2.373-4.15A5.65,5.65,0,0,1,1601.32,769.25Z" transform="translate(-871.685 -333.048)" fill="#355585"/>
    <path id="Path_29477" data-name="Path 29477" d="M1603.45,788.73a7.872,7.872,0,0,0,1.686,5.254c1.379,1.985,4.8,2.055,6.494,1.956.263.673.387,1.1.387,1.1s-5.605.826-7.474-1.865C1602.745,792.584,1602.288,789.772,1603.45,788.73Z" transform="translate(-873.22 -345.405)" fill="#355585"/>
    <path id="Path_29478" data-name="Path 29478" d="M1615,807.308a.894.894,0,0,0,.219-.018h.044l.629,3.6,2.358,4.589h-1.481l-1.463-4.885Z" transform="translate(-880.952 -357.178)" fill="#355585"/>
    <path id="Path_29479" data-name="Path 29479" d="M1581.535,755.723l-4.732-4.874-6.6-5.7,1.188-1.185,6.589,6.735,3.558,4.055Z" transform="translate(-852.533 -317.005)" fill="#355585"/>
    <path id="Path_29480" data-name="Path 29480" d="M1613.39,741.73s1.781-7.116,3.558-8,5.042-.3,4.754,1.777-.892.888-.892.592.593-.592.593-.592.3-1.463-1.463-1.777-2.669,0-3.262.592a27.6,27.6,0,0,0-2.337,5.064c-.033.274-.629,2.347-.629,2.347S1613.39,742.027,1613.39,741.73Z" transform="translate(-879.931 -310.26)" fill="#355585"/>
    <path id="Path_29481" data-name="Path 29481" d="M1608.53,732.979s0-9.785,2.073-10.673,3.558-.3,3.558.592-.592,2.073-.889,1.463.3-.593.3-.593.888-.592-.3-1.185-2.373-.6-2.965.592a7.094,7.094,0,0,0-.889,2.669c-.3,1.485-.592,7.116-.592,7.116S1608.826,733.276,1608.53,732.979Z" transform="translate(-876.848 -302.989)" fill="#355585"/>
    <path id="Path_29482" data-name="Path 29482" d="M1596.63,811.42l-1.294-5.774,3.558-4.446v-.3l-4.154,4.154.782,6.366Z" transform="translate(-868.1 -353.125)" fill="#355585"/>
    <path id="Path_29483" data-name="Path 29483" d="M1614.289,776.188l-4.139-4.293v.889l3.993,4.6,5.85-5.119-1.1-.731Z" transform="translate(-877.875 -334.494)" fill="#355585"/>
    <path id="Path_29484" data-name="Path 29484" d="M1452.511,657.83c4.146,2.816,8.264,5.675,12.4,8.512l12.344,8.586,6.19,4.264q3.1,2.135,6.1,4.388l2.984,2.293c.984.775,1.978,1.539,2.951,2.333,1.956,1.572,3.891,3.17,5.766,4.852l-.106.146c-2.194-1.254-4.311-2.593-6.414-3.956-1.061-.673-2.1-1.379-3.141-2.07l-3.108-2.113q-3.094-2.139-6.088-4.413l-6-4.538-12.023-9.032c-3.986-3.035-7.99-6.052-11.968-9.1Z" transform="translate(-777.8 -262.369)"/>
    <path id="Path_29485" data-name="Path 29485" d="M1571.037,740.53s-2.015.636-1.719,1.828a2.058,2.058,0,0,0,1.353,1.463S1571.925,740.826,1571.037,740.53Z" transform="translate(-851.955 -314.829)" fill="#355585"/>
    <path id="Path_29486" data-name="Path 29486" d="M1633.07,771.815l.366-1.1a2.814,2.814,0,0,1,2.194-.366c1.1.366,1.463.731,1.828.366s1.1.366,0,1.1-3.371-.106-3.371-.106Z" transform="translate(-892.414 -333.682)" fill="#355585"/>
    <line id="Line_3330" data-name="Line 3330" x1="9.88" transform="translate(727.423 458.295)" fill="none" stroke="#b5b5b5" stroke-miterlimit="10" stroke-width="2"/>
    <rect id="Rectangle_18986" data-name="Rectangle 18986" width="34.614" height="34.614" rx="3" transform="matrix(0.944, 0.331, -0.331, 0.944, 237.713, 481.84)" fill="#d9d9d9"/>
    <path id="Path_29487" data-name="Path 29487" d="M264.319,956.854a1.412,1.412,0,0,1-.8-.731l-.062-.135c-.969-2.113-1.975-4.3-2.925-6.472a1.309,1.309,0,0,1,.161-1.305,1.17,1.17,0,0,1,2.1.625c.793,1.828,1.631,3.656,2.45,5.441,2.377-1.1,4.406-2.033,6.326-2.965l3.594-1.711c.79-.366,1.583-.768,2.351-1.148l.841-.421a1.149,1.149,0,0,1,.428-.366,1.174,1.174,0,0,1,1.569.545,1.3,1.3,0,0,1-.6,1.737l-1.2.629c-.779.388-1.583.794-2.4,1.17l-3.576,1.708c-2.161,1.046-4.457,2.117-7.225,3.371A1.394,1.394,0,0,1,264.319,956.854Zm.088-2.194Zm14.319-6.808Z" transform="translate(-21.678 -446.15)" fill="#fff"/>
    <path id="Path_29488" data-name="Path 29488" d="M267.338,1013.67s-3.587.464-5.163-1.389-1.828-4.231-.534-5.317,3.587-.461,5.159,1.39S267.338,1013.67,267.338,1013.67Z" transform="translate(-21.925 -483.503)" fill="#909090"/>
    <ellipse id="Ellipse_4646" data-name="Ellipse 4646" cx="4.249" cy="2.428" rx="4.249" ry="2.428" transform="matrix(0.122, -0.993, 0.993, 0.122, 238.161, 536.737)" fill="#909090"/>
    <path id="Path_29489" data-name="Path 29489" d="M250.886,1043.358c1.251,1.115.453,4.048-1.781,6.545s-7.825.962-7.825.962a20.392,20.392,0,0,1,3.291-5.006C246.812,1043.362,249.635,1042.239,250.886,1043.358Z" transform="translate(-9.536 -506.652)" fill="#909090"/>
    <path id="Path_29490" data-name="Path 29490" d="M267.4,1014.43a9.068,9.068,0,0,1-.285,3.25s-3.587.461-5.159-1.389a6.061,6.061,0,0,1-1.1-1.828,5.539,5.539,0,0,0,1.331,2.9c1.576,1.854,5.163,1.39,5.163,1.39A7.968,7.968,0,0,0,267.4,1014.43Z" transform="translate(-21.956 -488.577)" fill="#6c6c6c"/>
    <path id="Path_29491" data-name="Path 29491" d="M264.667,1024.91a6.786,6.786,0,0,1,.069,2.161c-.285,2.329-1.6,4.084-2.925,3.92a1.905,1.905,0,0,1-1.371-1.071c.267,1.3.936,2.241,1.828,2.351,1.331.161,2.64-1.594,2.925-3.924A5.8,5.8,0,0,0,264.667,1024.91Z" transform="translate(-21.69 -495.225)" fill="#6c6c6c"/>
    <path id="Path_29492" data-name="Path 29492" d="M251.014,1044.49a8.034,8.034,0,0,1-2.366,5.119c-1.649,1.828-5.119,1.492-6.838,1.181a10.146,10.146,0,0,0-.53,1.06s5.591,1.536,7.825-.962C251.251,1048.494,252.067,1045.7,251.014,1044.49Z" transform="translate(-9.536 -507.646)" fill="#6c6c6c"/>
    <path id="Path_29493" data-name="Path 29493" d="M282.869,1006.659l-2.435,4.8-7.423,2.977-.121.987,7.883-2.6,4.037-7.021Z" transform="translate(-29.587 -483.103)" fill="#6c6c6c"/>
    <path id="Path_29494" data-name="Path 29494" d="M256.046,993.915s.837-7.459-.548-8.948-4.728-2.088-5.185,0,.534,1.174.64.888-.366-.782-.366-.782a1.564,1.564,0,0,1,2.055-1.174c1.81.351,2.56.954,2.925,1.733a27.654,27.654,0,0,1,.431,5.693c-.066.274-.238,2.475-.238,2.475S255.94,994.2,256.046,993.915Z" transform="translate(-15.189 -469.031)" fill="#6c6c6c"/>
    <path id="Path_29495" data-name="Path 29495" d="M268.89,988.371s3.5-9.379,1.828-10.969-3.291-1.554-3.624-.7-.176,2.194.322,1.74-.073-.676-.073-.676-.64-.885.709-1.031,2.486.281,2.629,1.631a7.282,7.282,0,0,1-.1,2.874c-.245,1.525-1.978,7.035-1.978,7.035S268.5,988.551,268.89,988.371Z" transform="translate(-25.8 -464.274)" fill="#6c6c6c"/>
    <path id="Path_29496" data-name="Path 29496" d="M244.734,995.6l-1.693-7.777a.8.8,0,0,0-.83-.366s-.856.775-.512,1.254c1.645,2.289,2.655,8.381,2.655,8.381l5.426,5.85.26-.475Z" transform="translate(-9.75 -471.457)" fill="#6c6c6c"/>
    <path id="Path_29497" data-name="Path 29497" d="M263.08,1057.87l.029.033h0Z" transform="translate(-23.364 -516.133)" fill="#6c6c6c"/>
    <path id="Path_29498" data-name="Path 29498" d="M268.912,1068.111h1.715l-2.677-7.946-2.925-2.647c-.051-.044-.252.044-.325,0l2.6,3.028Z" transform="translate(-24.392 -515.902)" fill="#6c6c6c"/>
    <path id="Path_29499" data-name="Path 29499" d="M240.815,1067.454H238.91l2.958-8.231,3.247-2.739c.059-.048.278.04.366,0l-2.889,3.13Z" transform="translate(-8.032 -515.245)" fill="#6c6c6c"/>
    <line id="Line_3331" data-name="Line 3331" x1="24.864" transform="translate(228.132 552.209)" fill="none" stroke="#b5b5b5" stroke-miterlimit="10" stroke-width="2"/>
    <ellipse id="Ellipse_4647" data-name="Ellipse 4647" cx="2.428" cy="4.249" rx="2.428" ry="4.249" transform="translate(737.347 547.565) rotate(-61.39)" fill="#909090"/>
    <path id="Path_29500" data-name="Path 29500" d="M1641.638,1077.378c-1.247,1.1-.45,4.048,1.784,6.545s7.825.962,7.825.962a20.387,20.387,0,0,0-3.291-5.005C1645.712,1077.382,1642.889,1076.259,1641.638,1077.378Z" transform="translate(-897.476 -528.233)" fill="#909090"/>
    <path id="Path_29501" data-name="Path 29501" d="M1613.9,1056.255s2.194,2.87,4.629,2.677,4.274-1.7,4.143-3.375-2.194-2.867-4.626-2.673S1613.9,1056.255,1613.9,1056.255Z" transform="translate(-880.254 -512.957)" fill="#909090"/>
    <path id="Path_29502" data-name="Path 29502" d="M1616.931,1053.74a9.1,9.1,0,0,0-2.1,2.5s2.194,2.87,4.626,2.677a6.116,6.116,0,0,0,2.07-.534,5.567,5.567,0,0,1-3,1.1c-2.424.194-4.629-2.677-4.629-2.677A7.96,7.96,0,0,1,1616.931,1053.74Z" transform="translate(-880.254 -513.513)" fill="#6c6c6c"/>
    <path id="Path_29503" data-name="Path 29503" d="M1627.39,1071.809a6.709,6.709,0,0,0,1.719,1.317c2.059,1.122,4.249,1.1,4.889-.1a1.9,1.9,0,0,0-.073-1.737c.9.973,1.276,2.066.848,2.852-.643,1.177-2.83,1.221-4.892.095a5.779,5.779,0,0,1-2.49-2.428Z" transform="translate(-888.811 -524.646)" fill="#6c6c6c"/>
    <path id="Path_29504" data-name="Path 29504" d="M1641.518,1078.51a8.055,8.055,0,0,0,2.366,5.119c1.649,1.828,5.119,1.492,6.838,1.181a10.865,10.865,0,0,1,.534,1.061s-5.591,1.536-7.825-.962C1641.281,1082.514,1640.469,1079.717,1641.518,1078.51Z" transform="translate(-897.484 -529.226)" fill="#6c6c6c"/>
    <path id="Path_29505" data-name="Path 29505" d="M1629.21,1087.693l.431-12.593.256.962.921,9.931Z" transform="translate(-889.966 -527.063)" fill="#6c6c6c"/>
    <path id="Path_29506" data-name="Path 29506" d="M1632.895,1050.477s4.688-5.85,6.725-5.931,4.812,1.876,3.656,3.678-1.207.45-1.1.176.8-.3.8-.3a1.567,1.567,0,0,0-.618-2.289c-1.529-1.035-2.483-1.137-3.291-.837a28.008,28.008,0,0,0-4.333,3.711c-.146.241-1.587,1.916-1.587,1.916S1632.767,1050.751,1632.895,1050.477Z" transform="translate(-892.287 -507.679)" fill="#6c6c6c"/>
    <path id="Path_29507" data-name="Path 29507" d="M1630.14,1039.232s4.176-9.1,6.483-9.042,3.437,1.243,3.057,2.07-1.437,1.678-1.463,1,.53-.424.53-.424,1.1-.172.23-1.228-1.956-1.565-3.013-.731a7.007,7.007,0,0,0-1.964,2.1c-.907,1.254-3.587,6.362-3.587,6.362S1630.29,1039.627,1630.14,1039.232Z" transform="translate(-890.556 -498.574)" fill="#6c6c6c"/>
    <path id="Path_29508" data-name="Path 29508" d="M1637.96,1084.15l1.225.731-.615-15.416-.322-.435Z" transform="translate(-895.516 -523.212)" fill="#6c6c6c"/>
    <path id="Path_29509" data-name="Path 29509" d="M1647.079,1091.89l-.029.033h0Z" transform="translate(-901.283 -537.714)" fill="#6c6c6c"/>
    <path id="Path_29510" data-name="Path 29510" d="M1631.025,1102.131h-1.715l2.676-7.946,2.925-2.647c.055-.044.252.044.325,0l-2.6,3.028Z" transform="translate(-890.029 -537.482)" fill="#6c6c6c"/>
    <path id="Path_29511" data-name="Path 29511" d="M1657.974,1101.5h1.905l-2.973-8.216-3.251-2.739c-.058-.047-.278.04-.366,0l2.885,3.13Z" transform="translate(-905.241 -536.851)" fill="#6c6c6c"/>
    <line id="Line_3332" data-name="Line 3332" x2="24.864" transform="translate(732.516 564.649)" fill="none" stroke="#b5b5b5" stroke-miterlimit="10" stroke-width="2"/>
    <rect id="Rectangle_18987" data-name="Rectangle 18987" width="30.09" height="30.09" rx="2" transform="translate(513.164 522.433) rotate(-179.63)" fill="#d9d9d9"/>
    <rect id="Rectangle_18988" data-name="Rectangle 18988" width="49.444" height="21.431" rx="2" transform="translate(287.188 395.414) rotate(180)" fill="#f7f7f7" stroke="#b7b7b7" stroke-miterlimit="10" stroke-width="1" stroke-dasharray="4 6"/>
    <rect id="Rectangle_18989" data-name="Rectangle 18989" width="67.002" height="21.431" rx="2" transform="translate(392.547 284.837) rotate(180)" fill="#e4e4e4"/>
    <rect id="Rectangle_18990" data-name="Rectangle 18990" width="35.582" height="21.431" rx="2" transform="translate(641.322 298.253) rotate(180)" fill="#d9d9d9"/>
  </g>
</svg>
