<svg xmlns="http://www.w3.org/2000/svg" width="682.083" height="320.734" viewBox="0 0 682.083 320.734">
  <g id="Layer_25" data-name="Layer 25" transform="translate(-269.38 -537.773)">
    <rect id="Rectangle_15067" data-name="Rectangle 15067" width="213.324" height="50.519" rx="3" transform="translate(577.438 568.266)" fill="#dadada" stroke="#919191" stroke-miterlimit="10" stroke-width="1" stroke-dasharray="4 6"/>
    <rect id="Rectangle_15069" data-name="Rectangle 15069" width="74.721" height="51.759" rx="3" transform="translate(779.154 851.401) rotate(180)" fill="#e4e4e4"/>
    <rect id="Rectangle_15070" data-name="Rectangle 15070" width="20.654" height="18.654" transform="translate(779.171 838.215) rotate(-45)" fill="#d9d9d9"/>
    <rect id="Rectangle_15071" data-name="Rectangle 15071" width="38.295" height="25.097" transform="translate(749.239 774.36)" fill="#f2f2f2"/>
    <rect id="Rectangle_15072" data-name="Rectangle 15072" width="41.666" height="25.097" transform="translate(753.624 769.996) rotate(135)" fill="#d9d9d9"/>
    <line id="Line_2985" data-name="Line 2985" x2="102.856" transform="translate(704.37 851.397)" fill="none" stroke="#dadada" stroke-miterlimit="10" stroke-width="2"/>
    <path id="Path_20846" data-name="Path 20846" d="M922.651,800.33s-2.9,1.532-4.827.456-2.882-3.025-2.156-4.359,2.9-1.532,4.827-.456S922.651,800.33,922.651,800.33Z" transform="translate(-362.04 -184.695)" fill="#5673a8"/>
    <ellipse id="Ellipse_3338" data-name="Ellipse 3338" cx="2.203" cy="3.852" rx="2.203" ry="3.852" transform="translate(555.063 616.167)" fill="#5673a8"/>
    <path id="Path_20847" data-name="Path 20847" d="M915.478,825.474c1.266.869.844,3.595-.882,6.093s-6.937,1.73-6.937,1.73a18.537,18.537,0,0,1,2.418-4.873C911.812,825.925,914.234,824.6,915.478,825.474Z" transform="translate(-357.551 -201.995)" fill="#5673a8"/>
    <path id="Path_20848" data-name="Path 20848" d="M921.784,798.53a8.2,8.2,0,0,1,.785,2.852s-2.9,1.531-4.823.456a5.488,5.488,0,0,1-1.506-1.224,5.064,5.064,0,0,0,2.055,2.051c1.924,1.076,4.827-.456,4.827-.456A7.237,7.237,0,0,0,921.784,798.53Z" transform="translate(-362.511 -186.574)" fill="#355585"/>
    <path id="Path_20849" data-name="Path 20849" d="M923.363,810.43a6.18,6.18,0,0,1,.3,1.941c0,2.11-.983,3.852-2.2,3.852a1.739,1.739,0,0,1-1.35-.814c.384,1.143,1.089,1.916,1.9,1.916,1.215,0,2.2-1.726,2.2-3.852A5.287,5.287,0,0,0,923.363,810.43Z" transform="translate(-364.748 -193.453)" fill="#355585"/>
    <path id="Path_20850" data-name="Path 20850" d="M915.613,826.11a7.346,7.346,0,0,1-1.565,4.878c-1.266,1.844-4.46,1.907-6.029,1.814-.245.624-.359,1.017-.359,1.017s5.2.764,6.937-1.73C916.268,829.688,916.69,827.076,915.613,826.11Z" transform="translate(-357.551 -202.517)" fill="#355585"/>
    <path id="Path_20851" data-name="Path 20851" d="M908.076,841.08a1.782,1.782,0,0,1-.207,0h-.038l-.62,2.49-6.451,5.747,2.279-.679,4.759-4.51Z" transform="translate(-353.562 -211.171)" fill="#355585"/>
    <path id="Path_20852" data-name="Path 20852" d="M928.03,803.964l6-1.928,3.544-3.726-.451-1.49L933.14,801.4l-4.688,1.768Z" transform="translate(-369.326 -185.586)" fill="#355585"/>
    <path id="Path_20853" data-name="Path 20853" d="M908.815,789.311s-1.65-6.6-3.3-7.43-4.679-.274-4.405,1.65.844.844.844.553-.548-.553-.548-.553-.279-1.376,1.375-1.65,2.477,0,3.025.553a25.979,25.979,0,0,1,2.173,4.7c.034.257.582,2.177.582,2.177S908.815,789.6,908.815,789.311Z" transform="translate(-353.752 -176.735)" fill="#355585"/>
    <path id="Path_20854" data-name="Path 20854" d="M916.148,782.627s0-9.08-1.924-9.907-3.3-.274-3.3.548.549,1.928.844,1.375-.278-.548-.278-.548-.844-.548.278-1.1,2.2-.549,2.751.553a6.618,6.618,0,0,1,.844,2.477c.274,1.375.549,6.6.549,6.6S915.873,782.9,916.148,782.627Z" transform="translate(-359.435 -171.418)" fill="#355585"/>
    <path id="Path_20855" data-name="Path 20855" d="M928.506,842.925l.405-5.675-3.641-1.076V835.9l4.194.8.063,5.89Z" transform="translate(-367.731 -208.177)" fill="#355585"/>
    <path id="Path_20856" data-name="Path 20856" d="M912.9,817.057l3.844-3.987v.827l-3.017,2.882,3.578,3.03-.549,1.1Z" transform="translate(-360.58 -194.979)" fill="#355585"/>
    <path id="Path_20857" data-name="Path 20857" d="M949.08,796.709l.667-.105s1.439-.333,1.582-1.19-.194-1.975-.844-1.375-1.207,1.076-1.207,1.076Z" transform="translate(-381.494 -183.88)" fill="#355585"/>
    <path id="Path_20858" data-name="Path 20858" d="M983.755,723.166c-3.308,2.953-6.654,5.907-9.979,8.835l-10.051,8.755q-2.506,2.194-5,4.409t-5.118,4.266l-2.641,2.029c-.894.662-1.776,1.342-2.683,1.983-1.8,1.308-3.629,2.582-5.532,3.768l-.135-.165c1.515-1.65,3.105-3.211,4.717-4.743.8-.776,1.629-1.519,2.443-2.274l2.485-2.224q2.5-2.2,5.131-4.249t5.253-4.1L973.1,731.2c3.506-2.73,7-5.485,10.519-8.186Z" transform="translate(-377.76 -142.919)"/>
    <path id="Path_20859" data-name="Path 20859" d="M951.914,795.351s.819,1.106-.228,1.54a2.98,2.98,0,0,1-1.857.2S951.2,794.853,951.914,795.351Z" transform="translate(-381.928 -184.695)" fill="#355585"/>
    <g id="Group_1225" data-name="Group 1225" transform="translate(483.704 602.372)">
      <rect id="Rectangle_745" data-name="Rectangle 745" width="171.83" height="41.034" rx="3" transform="translate(0 58.883) rotate(-20.04)" fill="#fff"/>
    </g>
    <g id="Group_37478" data-name="Group 37478" transform="translate(540.417 637.25)" opacity="0.7">
      <path id="Path_20860" data-name="Path 20860" d="M884.69,904.3l3.089-1.127,2.464,6.751,4.131-1.506.873,2.392-7.219,2.633Z" transform="translate(-884.69 -884.313)" fill="#207e4c"/>
      <path id="Path_20861" data-name="Path 20861" d="M906.15,900.459c-1.009-2.772.422-5.582,3.422-6.671s5.907.131,6.907,2.9-.422,5.582-3.418,6.667S907.167,903.231,906.15,900.459Zm7.219-2.633a2.2,2.2,0,1,0-1.219,3.038A2.216,2.216,0,0,0,913.37,897.826Z" transform="translate(-896.91 -878.66)" fill="#207e4c"/>
      <path id="Path_20862" data-name="Path 20862" d="M941.662,891.757l-3.477,1.266-.034,1.819L935,896l.662-10.612,3.034-1.105,7.342,7.692-3.194,1.165ZM940,889.845l-1.726-1.979-.051,2.629Z" transform="translate(-913.772 -873.393)" fill="#207e4c"/>
      <path id="Path_20863" data-name="Path 20863" d="M954.45,877.518l4.51-1.646c3.063-1.114,5.8-.143,6.835,2.692s-.422,5.346-3.494,6.46l-4.515,1.646Zm6.844,5.152a2.3,2.3,0,1,0-1.587-4.325l-1.291.473L960,883.155Z" transform="translate(-925.016 -868.272)" fill="#207e4c"/>
      <path id="Path_20864" data-name="Path 20864" d="M990.178,871.384l.844,2.329-7.595,2.776-3.338-9.156,7.439-2.713.844,2.329-4.418,1.629.392,1.072,3.869-1.413.81,2.224-3.869,1.413.422,1.2Z" transform="translate(-939.837 -862.028)" fill="#207e4c"/>
      <path id="Path_20865" data-name="Path 20865" d="M1000.91,860.576l4.51-1.646c3.059-1.118,5.8-.143,6.835,2.692s-.422,5.346-3.5,6.46l-4.51,1.646Zm6.84,5.148a2.3,2.3,0,1,0-1.561-4.329l-1.3.473,1.582,4.342Z" transform="translate(-951.872 -858.477)" fill="#207e4c"/>
    </g>
    <rect id="Rectangle_15073" data-name="Rectangle 15073" width="135.822" height="51.759" rx="3" transform="translate(633.083 857.507) rotate(180)" fill="#d9d9d9"/>
    <path id="Path_20866" data-name="Path 20866" d="M887.572,1032.52h1.768l-.384-8.987-9.772-10.869c-.055-.042-.257.042-.333,0l9.435,11.232Z" transform="translate(-340.897 -310.35)" fill="#6c6c6c"/>
    <path id="Path_20867" data-name="Path 20867" d="M873.524,969.874l1.574-7.224s1.565.367,1.266.81c-1.527,2.11-2.464,7.785-2.464,7.785l-5.059,5.435-.24-.422Z" transform="translate(-334.972 -281.446)" fill="#6c6c6c"/>
    <path id="Path_20868" data-name="Path 20868" d="M856.19,980.66a2.4,2.4,0,0,0,2.042,3.215,3.864,3.864,0,0,0,2.439-.468c1.907-1.207,2.772-3.253,1.941-4.565s-3.055-1.4-4.958-.19A3.907,3.907,0,0,0,856.19,980.66Z" transform="translate(-327.714 -290.203)" fill="#919191"/>
    <ellipse id="Ellipse_3339" data-name="Ellipse 3339" cx="2.253" cy="3.945" rx="2.253" ry="3.945" transform="matrix(0.87, -0.493, 0.493, 0.87, 528.969, 694.187)" fill="#919191"/>
    <path id="Path_20869" data-name="Path 20869" d="M869.533,1005.755c-1.536.245-2.38,2.954-1.886,6.008s5.633,4.671,5.633,4.671a18.946,18.946,0,0,0-.072-5.565C872.714,1007.8,871.09,1005.506,869.533,1005.755Z" transform="translate(-334.339 -306.352)" fill="#919191"/>
    <path id="Path_20870" data-name="Path 20870" d="M856.806,981.56a5.479,5.479,0,0,0-.245.646,2.266,2.266,0,0,0,1.861,2.953,4.047,4.047,0,0,0,2.7-.422,5.57,5.57,0,0,0,1.468-1.338,5.164,5.164,0,0,1-1.983,2.211,4.071,4.071,0,0,1-2.7.422,2.261,2.261,0,0,1-1.869-2.92,5,5,0,0,1,.768-1.553Z" transform="translate(-327.65 -292.377)" fill="#6c6c6c"/>
    <path id="Path_20871" data-name="Path 20871" d="M860.346,994.08a6.358,6.358,0,0,0,.709,1.878c1.076,1.895,2.823,2.954,3.907,2.317a1.768,1.768,0,0,0,.789-1.405c.24,1.211,0,2.253-.726,2.662-1.08.616-2.831-.422-3.9-2.316a5.371,5.371,0,0,1-.776-3.135Z" transform="translate(-330.194 -299.614)" fill="#6c6c6c"/>
    <path id="Path_20872" data-name="Path 20872" d="M869.359,1005.89a7.5,7.5,0,0,0-.717,5.19c.367,2.27,3.266,3.734,4.755,4.346-.046.688-.118,1.1-.118,1.1s-5.143-1.6-5.633-4.679C867.169,1008.89,867.933,1006.3,869.359,1005.89Z" transform="translate(-334.338 -306.441)" fill="#6c6c6c"/>
    <path id="Path_20873" data-name="Path 20873" d="M837.546,977.387l2.262,4.452,6.89,2.764.11.916-7.316-2.414-3.751-6.515Z" transform="translate(-315.977 -289.504)" fill="#6c6c6c"/>
    <path id="Path_20874" data-name="Path 20874" d="M855.547,972.785s-5.093-4.561-5.241-5.882a1.7,1.7,0,0,1,2.911-1.354c1.557,1.224.422.89.19.734a.963.963,0,0,1-.283-.591s-1.084-.916-1.882-.215-.844,1.266-.557,1.877a35.112,35.112,0,0,0,3.283,3.764c.207.16,1.688,1.523,1.688,1.523S855.783,972.941,855.547,972.785Z" transform="translate(-324.391 -282.834)" fill="#6c6c6c"/>
    <path id="Path_20875" data-name="Path 20875" d="M864.381,966.923s-2.916-7.823-1.89-9.017,2.131-1.063,2.4-.354.249,1.8-.114,1.392,0-.54,0-.54.375-.684-.54-.882-1.654.076-1.688,1.165a7.355,7.355,0,0,0,.245,2.338c.257,1.266,1.751,5.831,1.751,5.831S864.655,967.092,864.381,966.923Z" transform="translate(-331.314 -278.187)" fill="#6c6c6c"/>
    <path id="Path_20876" data-name="Path 20876" d="M869.825,1018.47l-.025.034h0Z" transform="translate(-335.665 -313.713)" fill="#6c6c6c"/>
    <path id="Path_20877" data-name="Path 20877" d="M853.45,1028.838l-1.62-.916.646-11.932,6.084.287c.046-.038.257.688.329.65l-5.81-.582Z" transform="translate(-325.278 -312.28)" fill="#6c6c6c"/>
    <path id="Path_20878" data-name="Path 20878" d="M837.512,1102.069H835.74l.384-5.595,9.806-2.532c.055-.042.257.038.333,0l-9.468,2.907Z" transform="translate(-315.977 -357.334)" fill="#6c6c6c"/>
    <path id="Path_20879" data-name="Path 20879" d="M855.3,1050.608l-1.57-7.219a.743.743,0,0,0-.772-.354s-.793.721-.473,1.164c1.528,2.11,2.46,7.781,2.46,7.781l5.063,5.439.236-.443Z" transform="translate(-325.613 -327.906)" fill="#6c6c6c"/>
    <path id="Path_20880" data-name="Path 20880" d="M873.912,1061.918a2.4,2.4,0,0,1-2.042,3.215,3.876,3.876,0,0,1-2.439-.469c-1.9-1.211-2.772-3.253-1.937-4.565s3.051-1.4,4.958-.19A3.883,3.883,0,0,1,873.912,1061.918Z" transform="translate(-334.149 -337.174)" fill="#919191"/>
    <ellipse id="Ellipse_3340" data-name="Ellipse 3340" cx="3.945" cy="2.253" rx="3.945" ry="2.253" transform="matrix(0.493, -0.87, 0.87, 0.493, 531.441, 733.072)" fill="#919191"/>
    <path id="Path_20881" data-name="Path 20881" d="M861.857,1086.978c1.536.245,2.38,2.954,1.882,6.008s-5.633,4.671-5.633,4.671a18.979,18.979,0,0,1,.072-5.569C858.675,1089.033,860.321,1086.746,861.857,1086.978Z" transform="translate(-328.807 -353.306)" fill="#919191"/>
    <path id="Path_20882" data-name="Path 20882" d="M873.611,1062.81a6.772,6.772,0,0,1,.249.646,2.27,2.27,0,0,1-1.861,2.954,4.105,4.105,0,0,1-2.7-.422,5.616,5.616,0,0,1-1.464-1.338,5.152,5.152,0,0,0,1.979,2.211,4.054,4.054,0,0,0,2.7.422,2.262,2.262,0,0,0,1.869-2.916,5.165,5.165,0,0,0-.772-1.557Z" transform="translate(-334.527 -339.345)" fill="#6c6c6c"/>
    <path id="Path_20883" data-name="Path 20883" d="M871.648,1075.34a6.239,6.239,0,0,1-.713,1.873c-1.072,1.894-2.823,2.953-3.9,2.32a1.768,1.768,0,0,1-.793-1.4c-.236,1.211,0,2.253.726,2.662,1.084.612,2.831-.422,3.907-2.316a5.409,5.409,0,0,0,.776-3.135Z" transform="translate(-333.556 -346.588)" fill="#6c6c6c"/>
    <path id="Path_20884" data-name="Path 20884" d="M862.1,1087.14a7.5,7.5,0,0,1,.717,5.194c-.363,2.27-3.266,3.734-4.755,4.346.051.683.118,1.1.118,1.1s5.139-1.6,5.633-4.671C864.288,1090.153,863.52,1087.558,862.1,1087.14Z" transform="translate(-328.879 -353.409)" fill="#6c6c6c"/>
    <path id="Path_20885" data-name="Path 20885" d="M886.826,1058.643l-2.262,4.452-6.89,2.768-.114.916,7.321-2.414,3.747-6.515Z" transform="translate(-340.151 -336.477)" fill="#6c6c6c"/>
    <path id="Path_20886" data-name="Path 20886" d="M878.5,1052.953s1.688-6.578,1.338-7.595-1.772-.962-2.35.924.034.916.135.65a1.05,1.05,0,0,0-.025-.607s.384-1.359,1.143-1.38.987.371,1.013.979a48.84,48.84,0,0,1-.814,4.831c-.08.249-.549,2.177-.549,2.177S878.4,1053.215,878.5,1052.953Z" transform="translate(-339.966 -328.876)" fill="#6c6c6c"/>
    <path id="Path_20887" data-name="Path 20887" d="M871.314,1048.183s2.92-7.827,1.89-9.017-2.11-1.068-2.393-.354-.249,1.8.11,1.392,0-.544,0-.544-.38-.679.536-.878,1.654.076,1.688,1.16a7.23,7.23,0,0,1-.24,2.342c-.257,1.266-1.755,5.827-1.755,5.827S871.039,1048.347,871.314,1048.183Z" transform="translate(-336.141 -325.16)" fill="#6c6c6c"/>
    <path id="Path_20888" data-name="Path 20888" d="M869.67,1099.73l.03.029h0Z" transform="translate(-335.59 -360.687)" fill="#6c6c6c"/>
    <path id="Path_20889" data-name="Path 20889" d="M876.419,1111.364l1.616-.92,2.751-5.139-9.506-5.852c-.046-.042-.232.038-.3,0l9.2,6.2Z" transform="translate(-336.348 -360.519)" fill="#6c6c6c"/>
    <path id="Path_20890" data-name="Path 20890" d="M822.228,1169.649H820.46l3.776-5.6,6.409-2.532c.055-.042.261.038.338,0l-6.076,2.907Z" transform="translate(-307.144 -396.399)" fill="#6c6c6c"/>
    <path id="Path_20891" data-name="Path 20891" d="M840.034,1118.207l-1.574-7.219a.738.738,0,0,0-.772-.354s-.793.721-.473,1.165c1.527,2.11,2.464,7.781,2.464,7.781l5.038,5.439.24-.422Z" transform="translate(-316.785 -366.982)" fill="#6c6c6c"/>
    <path id="Path_20892" data-name="Path 20892" d="M858.929,1130.064a2.4,2.4,0,0,1-2.9,2.468,3.923,3.923,0,0,1-2.194-1.173c-1.46-1.717-1.688-3.928-.5-4.937s3.333-.422,4.793,1.291A3.917,3.917,0,0,1,858.929,1130.064Z" transform="translate(-325.706 -375.831)" fill="#919191"/>
    <ellipse id="Ellipse_3341" data-name="Ellipse 3341" cx="3.945" cy="2.253" rx="3.945" ry="2.253" transform="matrix(0.122, -0.993, 0.993, 0.122, 526.177, 762.907)" fill="#919191"/>
    <path id="Path_20893" data-name="Path 20893" d="M845.786,1155.69c1.16,1.038.422,3.759-1.654,6.076s-7.262.895-7.262.895a18.991,18.991,0,0,1,3.063-4.641C841.988,1155.694,844.621,1154.652,845.786,1155.69Z" transform="translate(-316.63 -392.802)" fill="#919191"/>
    <path id="Path_20894" data-name="Path 20894" d="M858.7,1132.36a5.483,5.483,0,0,1,.042.692,2.266,2.266,0,0,1-2.65,2.257,4.052,4.052,0,0,1-2.451-1.219,5.568,5.568,0,0,1-1-1.688,5.161,5.161,0,0,0,1.232,2.7,4.076,4.076,0,0,0,2.452,1.224,2.262,2.262,0,0,0,2.65-2.236A5.169,5.169,0,0,0,858.7,1132.36Z" transform="translate(-325.746 -379.549)" fill="#6c6c6c"/>
    <path id="Path_20895" data-name="Path 20895" d="M856.186,1140.79a6.422,6.422,0,0,1,.067,2.008c-.266,2.16-1.481,3.8-2.717,3.637a1.764,1.764,0,0,1-1.266-.991c.245,1.207.844,2.08,1.688,2.181,1.236.152,2.451-1.481,2.717-3.641a5.39,5.39,0,0,0-.489-3.194Z" transform="translate(-325.532 -384.422)" fill="#6c6c6c"/>
    <path id="Path_20896" data-name="Path 20896" d="M845.911,1156.55a7.5,7.5,0,0,1-2.2,4.76c-1.532,1.713-4.764,1.384-6.329,1.093-.329.6-.494.987-.494.987s5.19,1.426,7.262-.895C846.13,1160.267,846.886,1157.668,845.911,1156.55Z" transform="translate(-316.642 -393.532)" fill="#6c6c6c"/>
    <path id="Path_20897" data-name="Path 20897" d="M871.542,1126.222l-2.262,4.447-6.89,2.764-.11.92,7.316-2.414,3.747-6.519Z" transform="translate(-331.319 -375.537)" fill="#6c6c6c"/>
    <path id="Path_20898" data-name="Path 20898" d="M857.5,1118.741s.776-6.924-.511-8.308-4.388-1.937-4.81,0,.494,1.089.595.823-.333-.722-.333-.722a1.456,1.456,0,0,1,1.911-1.093c1.683.325,2.375.886,2.7,1.612a28.414,28.414,0,0,1,.422,5.283c-.038.257-.224,2.3-.224,2.3S857.4,1119,857.5,1118.741Z" transform="translate(-325.415 -366.148)" fill="#6c6c6c"/>
    <path id="Path_20899" data-name="Path 20899" d="M854.468,1113.711s3.245-8.709,1.688-10.19-3.072-1.447-3.375-.654-.16,2.042.3,1.616-.068-.629-.068-.629-.591-.844.658-.958,2.308.262,2.443,1.515a6.721,6.721,0,0,1-.093,2.671c-.228,1.418-1.835,6.527-1.835,6.527S854.1,1113.876,854.468,1113.711Z" transform="translate(-325.734 -362.187)" fill="#6c6c6c"/>
    <path id="Path_20900" data-name="Path 20900" d="M854.39,1167.31l.025.03h0Z" transform="translate(-326.758 -399.752)" fill="#6c6c6c"/>
    <path id="Path_20901" data-name="Path 20901" d="M861.129,1178.944l1.616-.92-.641-8.532-6.11-2.46c-.051-.042-.236.038-.3,0l5.81,2.81Z" transform="translate(-327.509 -399.584)" fill="#6c6c6c"/>
    <path id="Path_20902" data-name="Path 20902" d="M842.535,1200.231s-3.333.422-4.793-1.291-1.688-3.928-.5-4.936,3.333-.422,4.793,1.291S842.535,1200.231,842.535,1200.231Z" transform="translate(-316.405 -414.897)" fill="#919191"/>
    <ellipse id="Ellipse_3342" data-name="Ellipse 3342" cx="3.945" cy="2.253" rx="3.945" ry="2.253" transform="matrix(0.122, -0.993, 0.993, 0.122, 519.388, 791.42)" fill="#919191"/>
    <path id="Path_20903" data-name="Path 20903" d="M829.676,1223.269c1.16,1.038.422,3.759-1.654,6.076s-7.262.895-7.262.895a18.986,18.986,0,0,1,3.063-4.641C825.9,1223.274,828.515,1222.231,829.676,1223.269Z" transform="translate(-307.317 -431.868)" fill="#919191"/>
    <path id="Path_20904" data-name="Path 20904" d="M842.609,1199.94a8.441,8.441,0,0,1-.266,3.017s-3.333.422-4.793-1.266a5.567,5.567,0,0,1-1-1.688,5.161,5.161,0,0,0,1.232,2.7c1.46,1.721,4.793,1.291,4.793,1.291A7.624,7.624,0,0,0,842.609,1199.94Z" transform="translate(-316.445 -418.614)" fill="#6c6c6c"/>
    <path id="Path_20905" data-name="Path 20905" d="M840.1,1208.37a6.427,6.427,0,0,1,.067,2.008c-.266,2.16-1.485,3.8-2.717,3.637a1.76,1.76,0,0,1-1.266-1c.245,1.211.865,2.084,1.688,2.186,1.232.152,2.451-1.481,2.717-3.641A5.389,5.389,0,0,0,840.1,1208.37Z" transform="translate(-316.231 -423.487)" fill="#6c6c6c"/>
    <path id="Path_20906" data-name="Path 20906" d="M829.8,1224.13a7.5,7.5,0,0,1-2.2,4.76c-1.532,1.713-4.764,1.384-6.35,1.093-.325.6-.489.987-.489.987s5.19,1.426,7.262-.894C830.017,1227.847,830.773,1225.248,829.8,1224.13Z" transform="translate(-307.317 -432.597)" fill="#6c6c6c"/>
    <path id="Path_20907" data-name="Path 20907" d="M855.451,1193.8l-2.261,4.451-6.89,2.764-.11.92,7.317-2.414,3.747-6.515Z" transform="translate(-322.017 -414.608)" fill="#6c6c6c"/>
    <path id="Path_20908" data-name="Path 20908" d="M833.358,1184.71s.781-6.924-.506-8.308-4.388-1.937-4.814,0,.5,1.089.6.823-.329-.722-.329-.722a1.453,1.453,0,0,1,1.907-1.093c1.679.325,2.375.886,2.709,1.612a25.885,25.885,0,0,1,.4,5.283c-.063.257-.219,2.3-.219,2.3S833.261,1184.976,833.358,1184.71Z" transform="translate(-311.459 -404.283)" fill="#6c6c6c"/>
    <path id="Path_20909" data-name="Path 20909" d="M843.186,1180.485s3.249-8.709,1.688-10.19-3.068-1.443-3.375-.65-.16,2.042.3,1.612-.067-.625-.067-.625-.595-.844.658-.958,2.308.262,2.443,1.511a6.649,6.649,0,0,1-.1,2.671c-.228,1.418-1.831,6.532-1.831,6.532S842.823,1180.649,843.186,1180.485Z" transform="translate(-319.211 -400.788)" fill="#6c6c6c"/>
    <path id="Path_20910" data-name="Path 20910" d="M823.92,1185.788l-1.57-7.219a.743.743,0,0,0-.772-.354s-.793.721-.473,1.165c1.527,2.11,2.464,7.781,2.464,7.781l5.042,5.439.241-.422Z" transform="translate(-307.473 -406.048)" fill="#6c6c6c"/>
    <path id="Path_20911" data-name="Path 20911" d="M838.3,1234.89l.025.029h0Z" transform="translate(-317.457 -438.817)" fill="#6c6c6c"/>
    <path id="Path_20912" data-name="Path 20912" d="M843.507,1244.444H845.1l-2.485-7.371-2.713-2.46c-.051-.042-.236.038-.3,0l2.414,2.81Z" transform="translate(-318.208 -438.65)" fill="#6c6c6c"/>
    <path id="Path_20913" data-name="Path 20913" d="M820.578,1243.993H818.81l2.76-7.629,3.017-2.532c.055-.042.257.038.333,0l-2.679,2.9Z" transform="translate(-306.19 -438.199)" fill="#6c6c6c"/>
    <line id="Line_2986" data-name="Line 2986" x1="23.084" transform="translate(510.088 805.794)" fill="none" stroke="#b5b5b5" stroke-miterlimit="10" stroke-width="2"/>
    <path id="Path_20914" data-name="Path 20914" d="M1041.426,964.311l2.038-1.08-3.042-8.089-2.3-1.979c-.038-.055-.258,0-.317-.063l2.27,2.721Z" transform="translate(-432.786 -275.925)" fill="#6c6c6c"/>
    <path id="Path_20915" data-name="Path 20915" d="M1027.686,913.549c-1.118,1.932.219,4.068,2.316,3.7a3.922,3.922,0,0,0,1.62-.65c1.962-1.409,2.954-3.536,2.169-4.751s-2.954-1.059-4.928.35A4.151,4.151,0,0,0,1027.686,913.549Z" transform="translate(-426.699 -251.607)" fill="#919191"/>
    <path id="Path_20916" data-name="Path 20916" d="M1027.292,927.017c-.5,2.173.076,4,1.291,4.093s2.608-1.6,3.106-3.772-.08-4-1.291-4.093S1027.8,924.849,1027.292,927.017Z" transform="translate(-426.601 -258.666)" fill="#919191"/>
    <path id="Path_20917" data-name="Path 20917" d="M1027.085,939.148c-1.637.367-2.743,3.228-2.464,6.388s5.595,4.468,5.595,4.468a19.686,19.686,0,0,0,.346-5.793C1030.279,941.051,1028.722,938.785,1027.085,939.148Z" transform="translate(-425.137 -267.838)" fill="#919191"/>
    <path id="Path_20918" data-name="Path 20918" d="M1027.912,915.67v.042a2.2,2.2,0,0,0,2.11,3.329,4.077,4.077,0,0,0,2.042-.709,6.857,6.857,0,0,0,1.532-1.485,6.48,6.48,0,0,1-2.11,2.413,4.009,4.009,0,0,1-1.878.688,2.221,2.221,0,0,1-2.245-3.375,5.485,5.485,0,0,1,.548-.9Z" transform="translate(-426.571 -254.288)" fill="#6c6c6c"/>
    <path id="Path_20919" data-name="Path 20919" d="M1028.862,925a7.28,7.28,0,0,0-.76,1.953c-.5,2.173.076,4,1.291,4.093a2.059,2.059,0,0,0,1.54-.734c-.65,1.144-1.536,1.878-2.35,1.819-1.215-.089-1.793-1.92-1.291-4.093A6.449,6.449,0,0,1,1028.862,925Z" transform="translate(-426.601 -259.682)" fill="#6c6c6c"/>
    <path id="Path_20920" data-name="Path 20920" d="M1026.9,939.35a8.274,8.274,0,0,0-1.169,5.451c.207,2.338,3.16,3.658,4.688,4.19-.105.717-.207,1.152-.207,1.152s-5.316-1.308-5.595-4.468C1024.356,942.633,1025.369,939.882,1026.9,939.35Z" transform="translate(-425.138 -267.977)" fill="#6c6c6c"/>
    <path id="Path_20921" data-name="Path 20921" d="M1012.821,905.877l.553,4.8,5.494,4.03-.211.924-6.025-3.772-1.211-7.11Z" transform="translate(-417.531 -247.976)" fill="#6c6c6c"/>
    <path id="Path_20922" data-name="Path 20922" d="M1039.28,903.478s1.662-6.945,3.338-8.055,4.751-1.063,4.485.928-.844.97-.844.7.557-.65.557-.65.27-1.434-1.409-1.434-2.532.422-3.076,1.063a31.7,31.7,0,0,0-2.19,5.105c-.029.262-.586,2.3-.586,2.3S1039.284,903.756,1039.28,903.478Z" transform="translate(-433.635 -242.164)" fill="#6c6c6c"/>
    <path id="Path_20923" data-name="Path 20923" d="M1029.857,901.338s2.38-9.249.7-10.283-3.169-.612-3.375.228.03,2.017.447,1.485-.127-.587-.127-.587-.662-.646.561-1.1,2.308-.338,2.557.844a6.385,6.385,0,0,1,.165,2.6c-.093,1.43-1.194,6.781-1.194,6.781S1029.511,901.591,1029.857,901.338Z" transform="translate(-426.6 -239.708)" fill="#6c6c6c"/>
    <path id="Path_20924" data-name="Path 20924" d="M1042.653,907.033l3.932-6.785c.24-.232,1.338.658.886,1.034-2.152,1.793-4.958,7.173-4.958,7.173l-6.612,4.363-.072-.477Z" transform="translate(-431.641 -245.352)" fill="#6c6c6c"/>
    <path id="Path_20925" data-name="Path 20925" d="M1028.734,952.38l-.034.025h0Z" transform="translate(-427.52 -275.509)" fill="#6c6c6c"/>
    <path id="Path_20926" data-name="Path 20926" d="M1003.6,957.109l-1.506-.3,2.008-5.405,8.489.143c.059-.03.207.084.283.059l-8.325.257Z" transform="translate(-412.137 -274.943)" fill="#6c6c6c"/>
    <path id="Path_20927" data-name="Path 20927" d="M981,1032.68h-1.772l-3.662-9.148,11.35-10.869c.059-.042.249.042.329,0L976.173,1023.9Z" transform="translate(-396.807 -310.35)" fill="#6c6c6c"/>
    <path id="Path_20928" data-name="Path 20928" d="M1004.251,969.874l-.464-7.224s-1.586.367-1.342.81c1.182,2.11,1.266,7.785,1.266,7.785l4.16,5.435.3-.422Z" transform="translate(-412.328 -281.446)" fill="#6c6c6c"/>
    <path id="Path_20929" data-name="Path 20929" d="M1020.575,980.66a2.8,2.8,0,0,1-2.481,3.215,3.47,3.47,0,0,1-2.333-.468c-1.688-1.207-2.253-3.253-1.241-4.565s3.211-1.4,4.907-.19A3.231,3.231,0,0,1,1020.575,980.66Z" transform="translate(-419.031 -290.203)" fill="#919191"/>
    <path id="Path_20930" data-name="Path 20930" d="M1014.8,995.036c-1.342,1.895-3.224,2.954-4.219,2.317s-.683-2.646.654-4.54,3.219-2.953,4.194-2.316S1016.135,993.133,1014.8,995.036Z" transform="translate(-416.706 -297.435)" fill="#919191"/>
    <path id="Path_20931" data-name="Path 20931" d="M1003.488,1005.755c1.481.245,1.92,2.954.979,6.008s-6.287,4.671-6.287,4.671a19.573,19.573,0,0,1,.907-5.565C1000.032,1007.8,1002,1005.506,1003.488,1005.755Z" transform="translate(-409.877 -306.352)" fill="#919191"/>
    <path id="Path_20932" data-name="Path 20932" d="M1020.229,981.56a5.706,5.706,0,0,1,.148.646,2.658,2.658,0,0,1-2.261,2.953,3.764,3.764,0,0,1-2.6-.422,4.393,4.393,0,0,1-1.266-1.338,4.163,4.163,0,0,0,1.629,2.211,3.578,3.578,0,0,0,2.6.422,2.654,2.654,0,0,0,2.266-2.92A4.391,4.391,0,0,0,1020.229,981.56Z" transform="translate(-419.167 -292.377)" fill="#6c6c6c"/>
    <path id="Path_20933" data-name="Path 20933" d="M1016.027,994.08a7.551,7.551,0,0,1-.975,1.878c-1.342,1.895-3.219,2.954-4.219,2.317a1.51,1.51,0,0,1-.574-1.405c-.422,1.211-.329,2.253.325,2.662.979.616,2.861-.422,4.219-2.316a6.151,6.151,0,0,0,1.224-3.135Z" transform="translate(-416.711 -299.614)" fill="#6c6c6c"/>
    <path id="Path_20934" data-name="Path 20934" d="M1003.648,1005.89c.586,1.063.608,3.03-.055,5.19-.7,2.27-3.8,3.734-5.367,4.346-.051.688-.046,1.1-.046,1.1s5.346-1.6,6.287-4.671C1005.374,1008.89,1005,1006.3,1003.648,1005.89Z" transform="translate(-409.877 -306.441)" fill="#6c6c6c"/>
    <path id="Path_20935" data-name="Path 20935" d="M1032.445,977.387l-2.856,4.452-7.194,2.764-.245.916,7.57-2.414,4.612-6.515Z" transform="translate(-423.733 -289.504)" fill="#6c6c6c"/>
    <path id="Path_20936" data-name="Path 20936" d="M1023.305,972.785s5.667-4.561,6-5.882-.958-2.578-2.662-1.354-.544.89-.291.734a1.109,1.109,0,0,0,.363-.591s1.2-.916,1.878-.215a1.363,1.363,0,0,1,.278,1.877,42.655,42.655,0,0,1-3.772,3.764c-.224.16-1.865,1.523-1.865,1.523S1023.052,972.941,1023.305,972.785Z" transform="translate(-424.323 -282.834)" fill="#6c6c6c"/>
    <path id="Path_20937" data-name="Path 20937" d="M1019.174,966.923s4.008-7.823,3.177-9.017-1.928-1.063-2.3-.354-.506,1.8-.093,1.392.072-.54.072-.54-.27-.684.658-.882,1.608.076,1.464,1.165a7.985,7.985,0,0,1-.578,2.338c-.422,1.266-2.574,5.831-2.574,5.831S1018.883,967.092,1019.174,966.923Z" transform="translate(-421.9 -278.187)" fill="#6c6c6c"/>
    <path id="Path_20938" data-name="Path 20938" d="M1011.31,1018.47l.021.034h0Z" transform="translate(-417.467 -313.713)" fill="#6c6c6c"/>
    <path id="Path_20939" data-name="Path 20939" d="M1021.055,1028.844l1.743-.916L1019.109,1016l-6.068.287c-.042-.038-.359.688-.422.65l5.844-.582Z" transform="translate(-418.224 -312.285)" fill="#6c6c6c"/>
    <path id="Path_20940" data-name="Path 20940" d="M1027.417,1102.069h1.764l.519-5.595-9.317-2.532c-.046-.042-.261.038-.333,0l8.924,2.907Z" transform="translate(-422.519 -357.334)" fill="#6c6c6c"/>
    <path id="Path_20941" data-name="Path 20941" d="M1018.849,1050.612l2.747-7.219a.844.844,0,0,1,.814-.354s.658.721.27,1.164c-1.852,2.11-3.713,7.781-3.713,7.781l-5.907,5.439-.16-.443Z" transform="translate(-418.386 -327.91)" fill="#6c6c6c"/>
    <path id="Path_20942" data-name="Path 20942" d="M1002.168,1061.918a2.056,2.056,0,0,0,1.464,3.215,4.147,4.147,0,0,0,2.49-.469c2.084-1.211,3.283-3.253,2.683-4.565s-2.768-1.4-4.848-.19A4.978,4.978,0,0,0,1002.168,1061.918Z" transform="translate(-411.996 -337.174)" fill="#919191"/>
    <path id="Path_20943" data-name="Path 20943" d="M1004.914,1076.292c.743,1.895,2.3,2.928,3.473,2.317s1.527-2.646.781-4.54-2.287-2.954-3.46-2.321S1004.175,1074.4,1004.914,1076.292Z" transform="translate(-413.547 -344.405)" fill="#919191"/>
    <path id="Path_20944" data-name="Path 20944" d="M1010.77,1086.978c-1.565.245-2.856,2.954-2.89,6.008s4.823,4.671,4.823,4.671a19.967,19.967,0,0,0,.844-5.569C1013.58,1089.033,1012.331,1086.746,1010.77,1086.978Z" transform="translate(-415.484 -353.306)" fill="#919191"/>
    <path id="Path_20945" data-name="Path 20945" d="M1002.99,1062.81a6.969,6.969,0,0,0-.354.646,1.955,1.955,0,0,0,1.329,2.954,4.325,4.325,0,0,0,2.743-.422,7.118,7.118,0,0,0,1.688-1.338,6.54,6.54,0,0,1-2.325,2.211,4.278,4.278,0,0,1-2.747.422,1.926,1.926,0,0,1-1.342-2.916A6.536,6.536,0,0,1,1002.99,1062.81Z" transform="translate(-411.928 -339.345)" fill="#6c6c6c"/>
    <path id="Path_20946" data-name="Path 20946" d="M1004.688,1075.34a5.623,5.623,0,0,0,.384,1.873c.738,1.894,2.291,2.953,3.468,2.32a2.2,2.2,0,0,0,1.021-1.4,2.814,2.814,0,0,1-1.169,2.662c-1.177.612-2.73-.422-3.473-2.316A5.064,5.064,0,0,1,1004.688,1075.34Z" transform="translate(-413.554 -346.588)" fill="#6c6c6c"/>
    <path id="Path_20947" data-name="Path 20947" d="M1010.593,1087.14a8.443,8.443,0,0,0-1.591,5.194c0,2.27,2.62,3.734,4,4.346-.165.683-.3,1.1-.3,1.1s-4.848-1.6-4.823-4.671C1007.93,1090.153,1009.108,1087.558,1010.593,1087.14Z" transform="translate(-415.484 -353.409)" fill="#6c6c6c"/>
    <path id="Path_20948" data-name="Path 20948" d="M985.313,1058.643l1.447,4.452,6.325,2.768-.047.916-6.814-2.414-2.544-6.515Z" transform="translate(-401.495 -336.477)" fill="#6c6c6c"/>
    <path id="Path_20949" data-name="Path 20949" d="M1005.431,1052.953s-.54-6.578,0-7.595,1.9-.962,2.148.924-.19.916-.241.65a1.16,1.16,0,0,1,.126-.607s-.143-1.359-.882-1.38a1.046,1.046,0,0,0-1.165.979c-.127.612-.067,4.582-.034,4.831s.165,2.177.165,2.177S1005.482,1053.215,1005.431,1052.953Z" transform="translate(-413.93 -328.876)" fill="#6c6c6c"/>
    <path id="Path_20950" data-name="Path 20950" d="M1012.922,1048.183s-1.531-7.827-.321-9.017,2.266-1.068,2.405-.354-.059,1.8-.346,1.392.1-.544.1-.544a.527.527,0,0,0-.38-.878,1.367,1.367,0,0,0-1.835,1.16,7.462,7.462,0,0,0-.16,2.342c.038,1.266.73,5.827.73,5.827S1013.175,1048.347,1012.922,1048.183Z" transform="translate(-417.944 -325.16)" fill="#6c6c6c"/>
    <path id="Path_20951" data-name="Path 20951" d="M1010.11,1099.73l-.03.029h0Z" transform="translate(-416.756 -360.687)" fill="#6c6c6c"/>
    <path id="Path_20952" data-name="Path 20952" d="M986.7,1111.364l-1.46-.92-1.848-5.139,10.464-5.852c.055-.042.224.038.3,0l-10.224,6.2Z" transform="translate(-401.328 -360.519)" fill="#6c6c6c"/>
    <path id="Path_20953" data-name="Path 20953" d="M1042.538,1169.649h1.764l-2.886-5.6-5.962-2.532c-.047-.042-.262.038-.333,0l5.574,2.907Z" transform="translate(-431.231 -396.399)" fill="#6c6c6c"/>
    <path id="Path_20954" data-name="Path 20954" d="M1033.779,1119.085l-1.687-6.882c.2-.266,1.937.392,1.937.392l1.017,6.789-6.97,6.51-.165-.422Z" transform="translate(-427.063 -367.86)" fill="#6c6c6c"/>
    <path id="Path_20955" data-name="Path 20955" d="M1017.23,1130.064a2,2,0,0,0,2.46,2.468,4.672,4.672,0,0,0,2.354-1.173c1.721-1.717,2.3-3.928,1.3-4.937s-3.207-.422-4.932,1.291A4.665,4.665,0,0,0,1017.23,1130.064Z" transform="translate(-420.847 -375.831)" fill="#919191"/>
    <path id="Path_20956" data-name="Path 20956" d="M1020.1,1142.611c-.093,2.16.844,3.8,2.11,3.642s2.333-2.03,2.422-4.19-.844-3.8-2.11-3.637S1020.2,1140.45,1020.1,1142.611Z" transform="translate(-422.545 -383.048)" fill="#919191"/>
    <path id="Path_20957" data-name="Path 20957" d="M1022.364,1155.69c-1.321,1.038-1.034,3.759.65,6.076s7.08.895,7.08.895a15.559,15.559,0,0,0-2.3-4.641C1026.111,1155.694,1023.681,1154.652,1022.364,1155.69Z" transform="translate(-423.378 -392.802)" fill="#919191"/>
    <path id="Path_20958" data-name="Path 20958" d="M1017.7,1132.36q-.1.342-.16.692a1.878,1.878,0,0,0,2.245,2.257,4.789,4.789,0,0,0,2.62-1.219,6.935,6.935,0,0,0,1.266-1.688,6.33,6.33,0,0,1-1.658,2.7,4.828,4.828,0,0,1-2.62,1.224,1.878,1.878,0,0,1-2.249-2.236A5.72,5.72,0,0,1,1017.7,1132.36Z" transform="translate(-420.811 -379.549)" fill="#6c6c6c"/>
    <path id="Path_20959" data-name="Path 20959" d="M1021.117,1140.79a6.75,6.75,0,0,0-.392,2.008c-.093,2.16.844,3.8,2.11,3.637a2.173,2.173,0,0,0,1.418-.991,2.965,2.965,0,0,1-2.03,2.181c-1.266.152-2.19-1.481-2.11-3.641a6.062,6.062,0,0,1,1-3.194Z" transform="translate(-422.553 -384.422)" fill="#6c6c6c"/>
    <path id="Path_20960" data-name="Path 20960" d="M1022.231,1156.55a6.483,6.483,0,0,0,1.4,4.76c1.266,1.713,4.515,1.384,6.135,1.093.232.6.333.987.333.987s-5.392,1.426-7.08-.895C1021.4,1160.267,1021.079,1157.668,1022.231,1156.55Z" transform="translate(-423.384 -393.532)" fill="#6c6c6c"/>
    <path id="Path_20961" data-name="Path 20961" d="M988.871,1126.222l6.228,4.447,6.346,2.764-.038.92-6.835-2.414-7.342-6.519Z" transform="translate(-403.547 -375.537)" fill="#6c6c6c"/>
    <path id="Path_20962" data-name="Path 20962" d="M1020.63,1118.741s.38-6.924,1.873-8.308,4.641-1.937,4.721,0-.662,1.089-.717.823.422-.722.422-.722,0-1.418-1.688-1.093-2.477.886-2.92,1.612a30.444,30.444,0,0,0-1.266,5.283c0,.257-.16,2.3-.16,2.3S1020.685,1119,1020.63,1118.741Z" transform="translate(-422.855 -366.148)" fill="#6c6c6c"/>
    <path id="Path_20963" data-name="Path 20963" d="M1027.816,1113.711s-1.764-8.709,0-10.19,3.24-1.447,3.4-.654-.173,2.042-.557,1.616.169-.629.169-.629.717-.844-.49-.958a2.213,2.213,0,0,0-2.641,1.515,7.011,7.011,0,0,0-.346,2.671c0,1.418.734,6.527.734,6.527S1028.145,1113.876,1027.816,1113.711Z" transform="translate(-426.555 -362.187)" fill="#6c6c6c"/>
    <path id="Path_20964" data-name="Path 20964" d="M1025.214,1167.31l-.034.03h0Z" transform="translate(-425.485 -399.752)" fill="#6c6c6c"/>
    <path id="Path_20965" data-name="Path 20965" d="M1004.5,1178.944l-1.464-.92,2.067-8.532,6.477-2.46c.059-.042.228.038.3,0l-6.236,2.81Z" transform="translate(-412.687 -399.584)" fill="#6c6c6c"/>
    <path id="Path_20966" data-name="Path 20966" d="M1031.522,1200.231s3.228.422,4.928-1.291,2.24-3.928,1.224-4.936-3.219-.422-4.916,1.291S1031.522,1200.231,1031.522,1200.231Z" transform="translate(-429.118 -414.897)" fill="#919191"/>
    <path id="Path_20967" data-name="Path 20967" d="M1034.776,1210.191c-.059,2.16.9,3.8,2.152,3.641s2.3-2.029,2.359-4.19-.9-3.8-2.144-3.637S1034.84,1208.03,1034.776,1210.191Z" transform="translate(-431.031 -422.114)" fill="#919191"/>
    <path id="Path_20968" data-name="Path 20968" d="M1037.193,1223.269c-1.308,1.038-.979,3.759.738,6.076s7.1.895,7.1.895a15.9,15.9,0,0,0-2.371-4.641C1040.94,1223.274,1038.5,1222.231,1037.193,1223.269Z" transform="translate(-431.966 -431.868)" fill="#919191"/>
    <path id="Path_20969" data-name="Path 20969" d="M1032.132,1199.94a8.385,8.385,0,0,0-.19,3.017s3.224.422,4.924-1.266a6.933,6.933,0,0,0,1.245-1.688,6.2,6.2,0,0,1-1.62,2.7c-1.688,1.721-4.928,1.291-4.928,1.291A7.588,7.588,0,0,1,1032.132,1199.94Z" transform="translate(-429.137 -418.614)" fill="#6c6c6c"/>
    <path id="Path_20970" data-name="Path 20970" d="M1035.739,1208.37a6.753,6.753,0,0,0-.363,2.008c-.063,2.16.9,3.8,2.148,3.637a2.108,2.108,0,0,0,1.4-1c-.422,1.211-1.169,2.084-2,2.186-1.266.152-2.211-1.481-2.152-3.641A6.012,6.012,0,0,1,1035.739,1208.37Z" transform="translate(-431.031 -423.487)" fill="#6c6c6c"/>
    <path id="Path_20971" data-name="Path 20971" d="M1037.083,1224.13a6.542,6.542,0,0,0,1.473,4.76c1.266,1.713,4.54,1.384,6.16,1.093.236.6.346.987.346.987s-5.38,1.426-7.1-.894C1036.294,1227.847,1035.932,1225.248,1037.083,1224.13Z" transform="translate(-431.979 -432.597)" fill="#6c6c6c"/>
    <path id="Path_20972" data-name="Path 20972" d="M1004.636,1192.87l5.667,5.3,6.392,2.764-.025.92-6.873-2.414-6.857-6.573Z" transform="translate(-412.629 -414.527)" fill="#6c6c6c"/>
    <path id="Path_20973" data-name="Path 20973" d="M1043.24,1184.71s.266-6.924,1.734-8.308,4.591-1.937,4.726,0-.65,1.089-.7.823.422-.722.422-.722,0-1.417-1.713-1.093-2.464.886-2.895,1.612a28.775,28.775,0,0,0-1.181,5.283c.021.257-.122,2.3-.122,2.3S1043.3,1184.976,1043.24,1184.71Z" transform="translate(-435.925 -404.283)" fill="#6c6c6c"/>
    <path id="Path_20974" data-name="Path 20974" d="M1037.447,1180.485s-1.882-8.709-.135-10.19,3.224-1.443,3.375-.65-.143,2.042-.532,1.612.16-.625.16-.625.7-.844-.5-.958a2.182,2.182,0,0,0-2.62,1.511,7.022,7.022,0,0,0-.312,2.671c0,1.418.844,6.532.844,6.532S1037.781,1180.649,1037.447,1180.485Z" transform="translate(-432.069 -400.788)" fill="#6c6c6c"/>
    <path id="Path_20975" data-name="Path 20975" d="M1048.256,1186.915l-1.43-6.49c.194-.27,2.076-.447,1.688,0l.679,6.789-6.574,6.51-.169-.422Z" transform="translate(-435.468 -407.176)" fill="#6c6c6c"/>
    <path id="Path_20976" data-name="Path 20976" d="M1040.169,1234.89l-.029.029h0Z" transform="translate(-434.133 -438.817)" fill="#6c6c6c"/>
    <path id="Path_20977" data-name="Path 20977" d="M1024.045,1244.444h-1.595l3.595-7.371,3.067-2.46c.055-.042.228.038.3,0l-2.819,2.81Z" transform="translate(-423.907 -438.65)" fill="#6c6c6c"/>
    <path id="Path_20978" data-name="Path 20978" d="M1048.154,1243.993h1.768l-1.65-7.629-2.629-2.532c-.05-.042-.266.038-.333,0l2.241,2.9Z" transform="translate(-437.121 -438.199)" fill="#6c6c6c"/>
    <line id="Line_2987" data-name="Line 2987" x1="23.08" transform="translate(593.936 805.794)" fill="none" stroke="#b5b5b5" stroke-miterlimit="10" stroke-width="2"/>
    <rect id="Rectangle_15074" data-name="Rectangle 15074" width="28.515" height="28.515" rx="3" transform="translate(640.725 804.64) rotate(-11.27)" fill="#24c0a0"/>
    <path id="Path_20979" data-name="Path 20979" d="M1159,1269.27l1.9,9.557-3.224.641-1.418-7.126-1.637.325-.485-2.426Z" transform="translate(-500.032 -458.691)" fill="#fff"/>
    <path id="Path_20980" data-name="Path 20980" d="M1162.974,1322.8s3.333.422,4.793-1.291,1.688-3.928.5-4.932-3.333-.422-4.793,1.266S1162.974,1322.8,1162.974,1322.8Z" transform="translate(-504.958 -485.751)" fill="#919191"/>
    <ellipse id="Ellipse_3343" data-name="Ellipse 3343" cx="2.253" cy="3.945" rx="2.253" ry="3.945" transform="matrix(0.993, -0.122, 0.122, 0.993, 659.295, 835.898)" fill="#919191"/>
    <path id="Path_20981" data-name="Path 20981" d="M1171.588,1345.832c-1.16,1.038-.422,3.759,1.654,6.076s7.261.895,7.261.895a18.937,18.937,0,0,0-3.063-4.641C1175.368,1345.836,1172.744,1344.8,1171.588,1345.832Z" transform="translate(-509.8 -502.717)" fill="#919191"/>
    <path id="Path_20982" data-name="Path 20982" d="M1162.941,1322.51a8.438,8.438,0,0,0,.266,3.017s3.333.422,4.793-1.291a5.57,5.57,0,0,0,1-1.688,5.143,5.143,0,0,1-1.232,2.7c-1.46,1.722-4.793,1.291-4.793,1.291A7.523,7.523,0,0,1,1162.941,1322.51Z" transform="translate(-504.959 -489.467)" fill="#6c6c6c"/>
    <path id="Path_20983" data-name="Path 20983" d="M1168.014,1330.94a6.39,6.39,0,0,0-.068,2c.266,2.16,1.481,3.8,2.717,3.641a1.768,1.768,0,0,0,1.266-1c-.245,1.207-.844,2.08-1.688,2.181-1.236.152-2.452-1.477-2.717-3.641A5.378,5.378,0,0,1,1168.014,1330.94Z" transform="translate(-507.733 -494.34)" fill="#6c6c6c"/>
    <path id="Path_20984" data-name="Path 20984" d="M1171.469,1346.69a7.5,7.5,0,0,0,2.2,4.759c1.532,1.713,4.764,1.384,6.329,1.093.329.607.494.987.494.987s-5.19,1.426-7.262-.895C1171.25,1350.407,1170.494,1347.808,1171.469,1346.69Z" transform="translate(-509.804 -503.445)" fill="#6c6c6c"/>
    <path id="Path_20985" data-name="Path 20985" d="M1143.622,1316.367l2.262,4.451,6.89,2.764.11.916-7.316-2.414-3.747-6.515Z" transform="translate(-492.91 -485.455)" fill="#6c6c6c"/>
    <path id="Path_20986" data-name="Path 20986" d="M1173.109,1307.276s-.781-6.924.506-8.3,4.388-1.941,4.814,0-.5,1.084-.595.844.329-.726.329-.726a1.453,1.453,0,0,0-1.907-1.093c-1.679.325-2.375.886-2.709,1.612a25.889,25.889,0,0,0-.4,5.283c.063.253.219,2.3.219,2.3S1173.206,1307.541,1173.109,1307.276Z" transform="translate(-510.861 -475.136)" fill="#6c6c6c"/>
    <path id="Path_20987" data-name="Path 20987" d="M1165.616,1303.047s-3.249-8.7-1.688-10.185,3.068-1.448,3.376-.654.16,2.042-.3,1.612.067-.625.067-.625.595-.844-.658-.958-2.308.262-2.443,1.515a6.634,6.634,0,0,0,.1,2.667c.228,1.418,1.831,6.532,1.831,6.532S1165.979,1303.2,1165.616,1303.047Z" transform="translate(-505.445 -471.637)" fill="#6c6c6c"/>
    <path id="Path_20988" data-name="Path 20988" d="M1179.594,1308.347l1.574-7.219a.739.739,0,0,1,.772-.354s.793.722.472,1.165c-1.527,2.11-2.464,7.781-2.464,7.781l-5.038,5.439-.24-.443Z" transform="translate(-511.899 -476.895)" fill="#6c6c6c"/>
    <path id="Path_20989" data-name="Path 20989" d="M1175.9,1357.45l-.026.034h0Z" transform="translate(-512.593 -509.665)" fill="#355585"/>
    <path id="Path_20990" data-name="Path 20990" d="M1163.185,1367h-1.595l2.485-7.371,2.713-2.46c.051-.042.236.038.3,0l-2.413,2.81Z" transform="translate(-504.338 -509.497)" fill="#6c6c6c"/>
    <path id="Path_20991" data-name="Path 20991" d="M1185.242,1366.559h1.768l-2.76-7.624-3.017-2.532c-.055-.042-.257.038-.333,0l2.679,2.907Z" transform="translate(-515.5 -509.052)" fill="#6c6c6c"/>
    <line id="Line_2988" data-name="Line 2988" x2="23.084" transform="translate(650.973 857.507)" fill="none" stroke="#b5b5b5" stroke-miterlimit="10" stroke-width="2"/>
    <rect id="Rectangle_15075" data-name="Rectangle 15075" width="28.515" height="28.515" rx="3" transform="translate(389.498 784.485) rotate(3.76)" fill="#ff5d5d"/>
    <path id="Path_20992" data-name="Path 20992" d="M558.207,1231.722l-.637,9.7-3.279-.215.477-7.249-1.688-.11.16-2.472Z" transform="translate(-152.582 -436.788)" fill="#fff"/>
    <rect id="Rectangle_15076" data-name="Rectangle 15076" width="28.515" height="28.515" rx="3" transform="translate(391.027 813.111) rotate(3.76)" fill="#24c0a0"/>
    <path id="Path_20993" data-name="Path 20993" d="M560.774,1307.023l-.169,2.532-7.793-.511.135-2.017,3.726-3.017c.709-.582.844-.949.844-1.266.03-.473-.27-.785-.894-.844a1.6,1.6,0,0,0-1.49.81l-2.392-1.4a4.508,4.508,0,0,1,4.359-1.971c2.3.148,3.848,1.452,3.73,3.3-.063.958-.371,1.8-1.869,2.987l-1.473,1.173Z" transform="translate(-152.385 -476.064)" fill="#fff"/>
    <path id="Path_20994" data-name="Path 20994" d="M543.546,1346.168a7.361,7.361,0,0,1,1.072-.169,3.882,3.882,0,0,1,1.515.211,2.658,2.658,0,0,1,.937.57,1.952,1.952,0,0,1,.464.679,4.278,4.278,0,0,1,3.194-1.447,5.063,5.063,0,0,1,3.143.768l.143.105h0v-.038a2.644,2.644,0,0,1-.2-.565,1.852,1.852,0,0,1,.025-.937,1.6,1.6,0,0,1,.565-.844,2.313,2.313,0,0,1,1.422-.46h.131a5.907,5.907,0,0,0,3.038-2.068c.241-.278.468-.57.7-.844a5.578,5.578,0,0,0,.65-.92,1.308,1.308,0,0,0-.042-1.139,4.887,4.887,0,0,0-.772-1.139,5.824,5.824,0,0,0-.557-.561,1.427,1.427,0,0,0-.629-.359h-.072a.777.777,0,0,1,.143.312.453.453,0,0,1,0,.249c-.034.093-.156.105-.274.076a.637.637,0,0,1-.422-.388.316.316,0,0,1,.19-.392,1.205,1.205,0,0,1,1.371.489,12.647,12.647,0,0,1,1.08,1.321,1.848,1.848,0,0,1,.325,1.435,3.533,3.533,0,0,1-.726,1.127,11.671,11.671,0,0,1-1.831,1.983,5.368,5.368,0,0,1-1.553.89,2.358,2.358,0,0,1,.342.123l.262.1a3.918,3.918,0,0,1,.477.245c1.089-.557,2.186-1.147,3.266-1.785a12.862,12.862,0,0,0,1.688-1.093,2.346,2.346,0,0,0,.954-1.565,1.06,1.06,0,0,0-.367-.971.54.54,0,0,0-.165-.076c0,.266-.287.422-.6.283a.2.2,0,0,1-.08-.1c-.051-.291.19-.451.485-.422a.155.155,0,0,1,.076,0,1.072,1.072,0,0,1,.776.624,1.561,1.561,0,0,1,.063,1.038,2.241,2.241,0,0,1-.473.9,6.327,6.327,0,0,1-1.688,1.266q-.992.586-2,1.135c-.582.316-1.165.616-1.743.916a3.7,3.7,0,0,1,.717.65,3.92,3.92,0,0,1,.544,4.35c-.363.7-2.793-.291-3.595-1.3a7.165,7.165,0,0,0-.844-.713,1.2,1.2,0,0,1,.076.485,1.435,1.435,0,0,1-.675,1.068c.844.245,2.5.895,2.5.895l-.24.422s-1.565-.882-2.375-1.266a2.66,2.66,0,0,1-.287.16,1.467,1.467,0,0,0-.823.312,7.2,7.2,0,0,1-1.8.249,6.691,6.691,0,0,1-2.388-.35l-.515.19a27.684,27.684,0,0,0-1.979,2.531c.207.1.4,1.654.6,1.755-.333-.156-.662-1.759-1.013-1.894q.671-1.013,1.46-2a22.97,22.97,0,0,0-2.789,1.469,23.884,23.884,0,0,0-1.477,2.274c.354-.81.764-1.625,1.219-2.435a23.016,23.016,0,0,1,3.709-2.3,1.691,1.691,0,0,1-.376-.38,2.325,2.325,0,0,1-.207.359,2.978,2.978,0,0,1-.8.743,5.953,5.953,0,0,1-1.173.553c-.392.135-.8.249-1.2.346a27.252,27.252,0,0,0-5.169,1.228c-.067,0-.067,0-.067-.034C538.828,1351.675,539.153,1347.177,543.546,1346.168Z" transform="translate(-144.372 -497.729)" fill="#919191"/>
    <path id="Path_20995" data-name="Path 20995" d="M582.79,1343.238a5.639,5.639,0,0,1-.987.637,1.708,1.708,0,0,0-.2-.135,6.884,6.884,0,0,0,2.11-1.726c.241-.278.468-.57.7-.844a5.573,5.573,0,0,0,.65-.92,1.308,1.308,0,0,0-.042-1.139,4.885,4.885,0,0,0-.772-1.139,5.8,5.8,0,0,0-.557-.561,1.426,1.426,0,0,0-.629-.359h-.072a.778.778,0,0,1,.143.312.451.451,0,0,1,0,.249c-.034.093-.156.106-.274.076a.638.638,0,0,1-.422-.388.317.317,0,0,1,.19-.392,1.205,1.205,0,0,1,1.371.49,12.613,12.613,0,0,1,1.08,1.321,1.848,1.848,0,0,1,.325,1.434,3.539,3.539,0,0,1-.726,1.127A11.859,11.859,0,0,1,582.79,1343.238Z" transform="translate(-169.068 -497.752)" fill="#6c6c6c"/>
    <path id="Path_20996" data-name="Path 20996" d="M542.577,1360.383a6.526,6.526,0,0,0,4.481-3.055,6.433,6.433,0,0,0,2.616,1.308c1.224.38,2.8.557,3.713-.544a2.351,2.351,0,0,0,.219-.329.874.874,0,0,0,.211-.616,1.623,1.623,0,0,0,0-.2l.131.093h0V1357a2.646,2.646,0,0,1-.2-.565,1.853,1.853,0,0,1,.025-.937,1.6,1.6,0,0,1,.565-.844,2.071,2.071,0,0,1,.422-.253,1.227,1.227,0,0,0,.051.734c1.755,4.473,4.177,3.8,4.54,3.646a4.407,4.407,0,0,1-.346,1.067c-.363.7-2.793-.291-3.595-1.3a7.17,7.17,0,0,0-.844-.713,1.206,1.206,0,0,1,.076.485,1.434,1.434,0,0,1-.675,1.067h0l-.114.084h0a4.072,4.072,0,0,1-.662.329,7.429,7.429,0,0,1-4.523.08,1.426,1.426,0,0,0-.312-.215,1.98,1.98,0,0,0-.646-.207l.063-.03a1.788,1.788,0,0,1-.375-.384,2.333,2.333,0,0,1-.207.359l-.093.109a1.32,1.32,0,0,0-.392.3.772.772,0,0,0-.148.219l-.169.118a5.7,5.7,0,0,1-1.173.548,11.83,11.83,0,0,1-1.2.35,27.26,27.26,0,0,0-5.169,1.228c-.067,0-.067,0-.067-.034a7,7,0,0,1,.321-1.818A12.04,12.04,0,0,0,542.577,1360.383Z" transform="translate(-144.316 -507.901)" fill="#6c6c6c"/>
    <path id="Path_20997" data-name="Path 20997" d="M585.178,1346.551c-.54.291-1.084.574-1.624.844a1.6,1.6,0,0,0-.35.025.192.192,0,0,0-.034-.131l.055.029c1.089-.557,2.186-1.148,3.266-1.785a13.125,13.125,0,0,0,1.688-1.093,2.345,2.345,0,0,0,.954-1.565,1.059,1.059,0,0,0-.367-.97.539.539,0,0,0-.165-.076c0,.266-.287.422-.6.283a.2.2,0,0,1-.08-.1c-.051-.291.19-.452.485-.422a.157.157,0,0,1,.076,0,1.071,1.071,0,0,1,.776.624,1.561,1.561,0,0,1,.063,1.038,2.244,2.244,0,0,1-.473.9,6.322,6.322,0,0,1-1.688,1.266Q586.183,1346,585.178,1346.551Z" transform="translate(-169.976 -500.496)" fill="#6c6c6c"/>
    <path id="Path_20998" data-name="Path 20998" d="M563.589,1340.672l-1.435,3.683,2.954,4.747-.084.266-3.574-4.641.523-4.557Z" transform="translate(-157.42 -499.676)" fill="#6c6c6c"/>
    <path id="Path_20999" data-name="Path 20999" d="M545.44,1375.472c.456-.641,2.11-2.954,2.5-3.662.089.051.173.106.257.16-.241.612-1.173,3.224-1.211,3.329Z" transform="translate(-148.165 -517.966)" fill="#6c6c6c"/>
    <path id="Path_21000" data-name="Path 21000" d="M556.016,1376.582a19.942,19.942,0,0,1-.886-3.24l.519-.072a27.538,27.538,0,0,1,2.405,2.954Z" transform="translate(-153.767 -518.81)" fill="#6c6c6c"/>
    <path id="Path_21001" data-name="Path 21001" d="M583.731,1373.447c-.11,0-2.717-.342-2.717-.342-.19-.983-.515-3.291-.844-4.253l.24-.422Z" transform="translate(-168.242 -516.012)" fill="#6c6c6c"/>
    <line id="Line_2989" data-name="Line 2989" x2="27.169" transform="translate(394.49 857.507)" fill="none" stroke="#b5b5b5" stroke-miterlimit="10" stroke-width="2"/>
    <g id="Group_37482" data-name="Group 37482" transform="translate(269.88 647.959)">
      <rect id="Rectangle_15065" data-name="Rectangle 15065" width="35.443" height="35.443" rx="3" transform="translate(0 12.092)" fill="#f7f7f7" stroke="#dadada" stroke-miterlimit="10" stroke-width="1" stroke-dasharray="4 6"/>
      <path id="Path_20836" data-name="Path 20836" d="M325.56,805.54V817.65h-4.084V808.62H319.4v-3.08Z" transform="translate(-304.775 -781.782)" fill="#fff"/>
      <rect id="Rectangle_15066" data-name="Rectangle 15066" width="35.443" height="35.443" rx="3" transform="translate(61.635 70.696)" fill="#f7f7f7" stroke="#dadada" stroke-miterlimit="10" stroke-width="1" stroke-dasharray="4 6"/>
      <path id="Path_20837" data-name="Path 20837" d="M537.479,938.067v3.169h-9.7V938.7c.751-.945,5.549-4.447,5.329-5.709-.055-1.5-2.532-1.059-2.954.173l-3.08-1.54c4.751-6.793,16-.367,6.329,6.418Z" transform="translate(-452.915 -846.625)" fill="#fff"/>
      <rect id="Rectangle_15077" data-name="Rectangle 15077" width="128.991" height="33.131" rx="3" transform="translate(59.977 0)" fill="#f9f9f9"/>
      <path id="Path_21002" data-name="Path 21002" d="M569.71,764.55h4.408c2.991,0,5.061,1.7,5.061,4.474s-2.06,4.469-5.061,4.469H569.71Zm4.282,6.579a2.126,2.126,0,1,0,0-4.246h-1.265v4.246Z" transform="translate(-484.015 -752.459)" fill="#e4e4e4"/>
      <path id="Path_21003" data-name="Path 21003" d="M598,771.22v2.272H590.57V764.55h7.272V766.8h-4.307v1.048h3.781v2.176h-3.781V771.2Z" transform="translate(-494.319 -752.459)" fill="#e4e4e4"/>
      <path id="Path_21004" data-name="Path 21004" d="M607.56,764.55H610.6v6.6h4.049v2.338H607.56Z" transform="translate(-502.709 -752.459)" fill="#e4e4e4"/>
      <path id="Path_21005" data-name="Path 21005" d="M623.14,764.55h3.036v8.943H623.14Z" transform="translate(-510.405 -752.459)" fill="#e4e4e4"/>
      <path id="Path_21006" data-name="Path 21006" d="M640.592,764.55l-3.78,8.943h-2.966l-3.786-8.943h3.249l2.131,5.228,2.181-5.228Z" transform="translate(-513.823 -752.459)" fill="#e4e4e4"/>
      <path id="Path_21007" data-name="Path 21007" d="M658.889,771.22v2.272H651.45V764.55h7.273V766.8h-4.307v1.048H658.2v2.176h-3.786V771.2Z" transform="translate(-524.387 -752.459)" fill="#e4e4e4"/>
      <path id="Path_21008" data-name="Path 21008" d="M672.241,771.246h-.815v2.247H668.39V764.55h4.357c2.49,0,4.049,1.3,4.049,3.371a3,3,0,0,1-1.685,2.814l1.878,2.758H673.76Zm.283-4.373h-1.1v2.1h1.1c.83,0,1.225-.4,1.225-1.053s-.385-1.048-1.215-1.048Z" transform="translate(-532.754 -752.459)" fill="#e4e4e4"/>
      <path id="Path_21009" data-name="Path 21009" d="M694.739,771.22v2.272H687.3V764.55h7.273V766.8h-4.307v1.048h3.781v2.176h-3.781V771.2Z" transform="translate(-542.093 -752.459)" fill="#e4e4e4"/>
      <path id="Path_21010" data-name="Path 21010" d="M704.26,764.55h4.423c2.991,0,5.061,1.7,5.061,4.474s-2.055,4.469-5.061,4.469h-4.408Zm4.281,6.579a2.126,2.126,0,1,0,0-4.246h-1.265v4.246Z" transform="translate(-550.471 -752.459)" fill="#e4e4e4"/>
    </g>
    <rect id="Rectangle_15078" data-name="Rectangle 15078" width="25.515" height="24.498" rx="3" transform="translate(367.363 851.064) rotate(180)" fill="#e4e4e4"/>
    <line id="Line_2990" data-name="Line 2990" y1="1.171" x2="35.118" transform="translate(338.359 851.059)" fill="none" stroke="#dadada" stroke-miterlimit="10" stroke-width="2"/>
    <path id="Path_21011" data-name="Path 21011" d="M442.445,1331.675c0,1.688-1.333,3.342-4.451,3.342a8.3,8.3,0,0,1-3.844-.878l1.114-2.422a5.36,5.36,0,0,0,2.616.709c.738,0,1.266-.249,1.266-.751,0-.422-.321-.667-1.156-.667h-1.3v-2.021l1.435-1.46h-3.481v-2.477h7.266v2.017l-1.81,1.84A2.765,2.765,0,0,1,442.445,1331.675Z" transform="translate(-83.833 -490.936)" fill="#d9d9d9"/>
    <g id="Group_37480" data-name="Group 37480" transform="matrix(0.995, -0.105, 0.105, 0.995, 759.745, 662.604)" opacity="0.4">
      <rect id="Rectangle_15079" data-name="Rectangle 15079" width="188.467" height="40.971" rx="3" transform="translate(0 0)" fill="#e4e4e4"/>
      <path id="Path_21028" data-name="Path 21028" d="M15.232,0H26.287a3.783,3.783,0,0,1,4.055,4.08V26.093a3.8,3.8,0,0,1-4.122,4.118H4.106A3.8,3.8,0,0,1,0,26.08V4.063A3.784,3.784,0,0,1,4.068,0Z" transform="translate(5.236 5.413)" fill="#fff"/>
      <path id="Path_21036" data-name="Path 21036" d="M6.752,5.148c1.51.422,2.633,1.1,3.042,2.532.679,2.384-.9,4.675-3.641,5.063a9.109,9.109,0,0,1-5.434-.755c-.646-.316-.983-.637-.464-1.329a2.713,2.713,0,0,0,.325-.654c.274-.675.574-.874,1.329-.422a4.713,4.713,0,0,0,3.743.532A1.384,1.384,0,0,0,6.828,8.824c.013-.7-.464-1.105-1.143-1.312a6.326,6.326,0,0,0-1.776-.127c-.422,0-.616-.152-.637-.608A2.577,2.577,0,0,1,4.115,4.33,15.292,15.292,0,0,0,5.667,2.57c-1.532,0-2.84-.046-4.139,0C.714,2.613.452,2.313.549,1.554.638.9.229.009,1.511.043c2.135.051,4.274,0,6.413.025.485,0,1.236-.3,1.392.342a2.2,2.2,0,0,1-.355,2.262C8.279,3.364,7.558,4.22,6.752,5.148Z" transform="translate(15.653 14.189)" fill="#e9e9e9"/>
      <path id="Path_21037" data-name="Path 21037" d="M4.266,4.941H0C.7,3.312,1.363,1.768,2.11,0Z" transform="translate(48.171 17.004)" fill="#e4e4e4"/>
      <path id="Path_21038" data-name="Path 21038" d="M4.793,2.021H0A2.422,2.422,0,0,1,2.532,0,2.274,2.274,0,0,1,4.793,2.021Z" transform="translate(92.982 19.104)" fill="#e4e4e4"/>
      <text id="Chicago_IL" data-name="Chicago, IL" transform="translate(108.142 29.024)" fill="#fff" font-size="23" font-family="Montserrat-Bold, Montserrat" font-weight="700"><tspan x="-66.286" y="0">Chicago, IL</tspan></text>
    </g>
    <g id="Group_37483" data-name="Group 37483" transform="translate(303.41 537.773) rotate(10)" opacity="0.4">
      <rect id="Rectangle_15079-2" data-name="Rectangle 15079" width="189.172" height="34.306" rx="3" transform="translate(0 0)" fill="#e4e4e4"/>
      <path id="Path_21028-2" data-name="Path 21028" d="M12.754,0H22.01a3.167,3.167,0,0,1,3.4,3.416V21.848A3.18,3.18,0,0,1,21.954,25.3H3.438A3.181,3.181,0,0,1,0,21.837V3.4A3.168,3.168,0,0,1,3.406,0Z" transform="translate(4.384 4.532)" fill="#fff"/>
      <path id="Path_21037-2" data-name="Path 21037" d="M3.572,4.137H0C.587,2.773,1.141,1.48,1.767,0Z" transform="translate(40.335 14.237)" fill="#e4e4e4"/>
      <path id="Path_21038-2" data-name="Path 21038" d="M4.014,1.692H0A2.028,2.028,0,0,1,2.12,0,1.9,1.9,0,0,1,4.014,1.692Z" transform="translate(77.856 15.996)" fill="#e4e4e4"/>
      <text id="Carrollton_GA" data-name="Carrollton, GA" transform="translate(102.359 23.085)" fill="#fff" font-size="18" font-family="Montserrat-Bold, Montserrat" font-weight="700"><tspan x="-66.033" y="0">Carrollton, GA</tspan></text>
      <path id="Path_21039" data-name="Path 21039" d="M4.5.015H7.056c1.021,0,.608.788.682,1.29s-.035.837-.685.813c-1.028-.042-2.056,0-3.084,0S3.4,3.028,3.234,3.5c-.208.579.353.5.707.523a8.916,8.916,0,0,1,1.834.141,3.071,3.071,0,0,1,2.5,2.6,3.261,3.261,0,0,1-1.943,3.5A7.243,7.243,0,0,1,.524,10C.051,9.8-.183,9.469.171,8.96A2.853,2.853,0,0,0,.45,8.413C.676,7.787.976,7.639,1.623,8a3.738,3.738,0,0,0,3.038.445c.664-.208,1.085-.562.986-1.325-.088-.707-.586-.862-1.166-.979A12.79,12.79,0,0,0,1.5,6c-.6,0-.866-.159-.8-.791.148-1.448.269-2.9.4-4.349.057-.622.325-.915,1.018-.855C2.912.082,3.707.015,4.5.015Z" transform="translate(13.334 12.057)" fill="#e4e4e4"/>
    </g>
  </g>
</svg>
