<svg xmlns="http://www.w3.org/2000/svg" xmlns:xlink="http://www.w3.org/1999/xlink" width="553.17" height="341.157" viewBox="0 0 553.17 341.157">
  <defs>
    <clipPath id="clip-path">
      <path id="Path_28059" data-name="Path 28059" d="M718.222,669.8c-.447,4.176,1.885,8.1,5.212,8.754s6.132-2.121,6.273-6.215-2.192-8-5.208-8.754S718.674,665.626,718.222,669.8Z" transform="translate(-718.167 -663.466)" fill="none"/>
    </clipPath>
  </defs>
  <g id="MVR" transform="translate(-124.398 -154.017)">
    <path id="Path_29514" data-name="Path 29514" d="M334.1,1025.86l-1.763,1.7-1.808-1.9,1.7-1.645a11.931,11.931,0,0,1-2.712-5.188l3.317-1.211a9.8,9.8,0,0,0,2.459,4.727c1.256,1.3,2.115,1.455,2.658.9,1.808-1.708-5.64-6.779-1.519-10.775,1.745-1.69,4.438-1.862,7.231.4l1.745-1.69,1.808,1.907-1.717,1.654a10.73,10.73,0,0,1,2.188,4.131l-3.272,1.293a9.111,9.111,0,0,0-2.124-3.9c-1.275-1.32-2.178-1.365-2.712-.832-1.7,1.645,5.677,6.716,1.582,10.684C339.5,1027.767,336.869,1027.975,334.1,1025.86Z" transform="translate(-194.768 -573.616)" fill="#fff"/>
    <path id="Path_29515" data-name="Path 29515" d="M351.668,1004.367a19.552,19.552,0,1,0-.452,27.642,19.552,19.552,0,0,0,.452-27.642ZM333,1024.605l-1.763,1.7-1.808-1.9,1.7-1.645a11.932,11.932,0,0,1-2.712-5.188l3.317-1.211a9.8,9.8,0,0,0,2.459,4.728c1.256,1.3,2.115,1.455,2.658.9,1.808-1.708-5.64-6.779-1.519-10.775,1.745-1.69,4.438-1.862,7.231.4l1.745-1.69,1.808,1.907-1.717,1.654a10.73,10.73,0,0,1,2.188,4.131l-3.272,1.293a9.112,9.112,0,0,0-2.124-3.9c-1.275-1.32-2.178-1.365-2.712-.832-1.7,1.645,5.677,6.716,1.582,10.684-1.663,1.681-4.294,1.889-7.06-.226Z" transform="translate(-193.667 -572.389)" fill="#5fceb7"/>
    <line id="Line_3300" data-name="Line 3300" x2="153.296" transform="translate(193.117 475.585)" fill="none" stroke="#b5b5b5" stroke-miterlimit="10" stroke-width="2"/>
    <rect id="Rectangle_18937" data-name="Rectangle 18937" width="49.717" height="18.623" rx="3" transform="translate(137.019 449.541)" fill="#f2f2f2"/>
    <line id="Line_3301" data-name="Line 3301" x2="43.582" transform="translate(569.147 455.23)" fill="none" stroke="#b5b5b5" stroke-miterlimit="10" stroke-width="2"/>
    <line id="Line_3302" data-name="Line 3302" x2="133.74" transform="translate(438.303 476.36)" fill="none" stroke="#b5b5b5" stroke-miterlimit="10" stroke-width="2"/>
    <path id="Path_27915" data-name="Path 27915" d="M553.585,963.522s-7.636,26.2,2.072,36.642c5.088,5.481,17.815-.928,32.606-8.257,14.679-7.275,16.469-20.716-.352-26.238C572.358,960.551,562.754,957.12,553.585,963.522Z" transform="translate(-322.161 -561.871)" fill="#788eba"/>
    <rect id="Rectangle_18938" data-name="Rectangle 18938" width="231.713" height="50.082" rx="3" transform="translate(351.625 197.415)" fill="#e7e7e7"/>
    <rect id="Rectangle_18939" data-name="Rectangle 18939" width="231.713" height="50.082" rx="3" transform="translate(351.625 197.415)" fill="none" stroke="#b7b7b7" stroke-miterlimit="10" stroke-width="1" stroke-dasharray="4 6"/>
    <rect id="Rectangle_18940" data-name="Rectangle 18940" width="34.098" height="34.902" rx="3" transform="translate(212.838 211.432)" fill="#dadada"/>
    <rect id="Rectangle_18941" data-name="Rectangle 18941" width="79.819" height="23.282" rx="3" transform="matrix(0.985, -0.174, 0.174, 0.985, 440.503, 287.529)" fill="#fefefe"/>
    <rect id="Rectangle_18942" data-name="Rectangle 18942" width="75.919" height="24.283" rx="3" transform="translate(156.786 160.318)" fill="#f7f7f7" stroke="#dadada" stroke-miterlimit="10" stroke-width="1" stroke-dasharray="4 6"/>
    <path id="Path_27918" data-name="Path 27918" d="M545.683,1036.314a6.04,6.04,0,0,1,3.874,5.8c-.389,5.991-1.313,16.531-3.1,18.11-2.515,2.225-10.064,2.486-10.064,2.486l-4.951-2.846s-8.319-14.878-4.35-17.488c2.581-1.694,10.08-3.277,12.844-5.423a5.8,5.8,0,0,1,5.742-.642Z" transform="translate(-307.688 -606.263)" fill="#788eba"/>
    <ellipse id="Ellipse_4613" data-name="Ellipse 4613" cx="11.104" cy="9.289" rx="11.104" ry="9.289" transform="translate(231.524 428.154)" fill="#788eba"/>
    <path id="Path_27919" data-name="Path 27919" d="M531.33,815.3S643.116,850.728,645.1,847.948c24.565-34.3-2-76.606-2-76.606a14.286,14.286,0,0,0-7.458-13.763l-41.846-22.5a14.269,14.269,0,0,0-15.595,1.359Z" transform="translate(-310.798 -429.12)" fill="#b7b7b7"/>
    <path id="Path_27920" data-name="Path 27920" d="M700.65,963.522s7.64,26.2-2.072,36.642c-5.084,5.481-17.815-.928-32.6-8.257-14.683-7.275-16.473-20.716.348-26.238C681.878,960.551,691.481,957.12,700.65,963.522Z" transform="translate(-382.837 -561.871)" fill="#788eba"/>
    <path id="Path_27921" data-name="Path 27921" d="M718.139,1025.1c2.966-.352,5.863.92,7.085,3.111,3,5.386,8.034,14.986,7.172,17.244-1.21,3.182-8.477,7.159-8.477,7.159h-6.463s-16.573-8.75-14.132-12.993c1.574-2.755,8.038-7.872,9.529-11.1a6.521,6.521,0,0,1,5.27-3.418Z" transform="translate(-411.388 -599.943)" fill="#788eba"/>
    <ellipse id="Ellipse_4614" data-name="Ellipse 4614" cx="11.104" cy="9.289" rx="11.104" ry="9.289" transform="translate(297.992 423.597)" fill="#788eba"/>
    <path id="Path_27922" data-name="Path 27922" d="M601.921,980.03a235.787,235.787,0,0,1-42.591-3.77,53.305,53.305,0,0,0,84.975.041A236.016,236.016,0,0,1,601.921,980.03Z" transform="translate(-327.197 -571.374)" fill="#788eba"/>
    <rect id="Rectangle_18943" data-name="Rectangle 18943" width="40.317" height="24.283" rx="3" transform="translate(316.719 154.517)" fill="#dadada" stroke="#b7b7b7" stroke-miterlimit="10" stroke-width="1" stroke-dasharray="4 6"/>
    <rect id="Rectangle_18944" data-name="Rectangle 18944" width="30.945" height="38.597" rx="3" transform="translate(165.619 468.467) rotate(-90)" fill="#e4e4e4"/>
    <line id="Line_3303" data-name="Line 3303" x2="65.461" transform="translate(137.019 468.902)" fill="none" stroke="#dadada" stroke-miterlimit="10" stroke-width="2"/>
    <path id="Path_27923" data-name="Path 27923" d="M1135.468,850.864l76.325.882a3.509,3.509,0,0,1,3.468,3.547l-1.2,103.06a3.513,3.513,0,0,1-3.551,3.472l-76.321-.887a3.513,3.513,0,0,1-3.472-3.551l1.2-103.06a3.509,3.509,0,0,1,3.551-3.468Z" transform="translate(-661.853 -497.928)" fill="#e4e4e4"/>
    <path id="Path_27924" data-name="Path 27924" d="M1109.644,857.075l76.2,4.4a3.514,3.514,0,0,1,3.315,3.729l-5.95,102.857a3.513,3.513,0,0,1-3.708,3.314l-76.2-4.392a3.513,3.513,0,0,1-3.314-3.729l5.937-102.894a3.509,3.509,0,0,1,3.7-3.315Z" transform="translate(-643.851 -501.546)" fill="#d9d9d9"/>
    <path id="Path_27925" data-name="Path 27925" d="M1082.2,861.018l75.43-11.667a3.509,3.509,0,0,1,4.006,2.929l15.744,101.855a3.5,3.5,0,0,1-2.929,4.006l-75.434,11.671a3.513,3.513,0,0,1-4.006-2.933l-15.744-101.855a3.509,3.509,0,0,1,2.933-4.006Z" transform="translate(-631.696 -497.02)" fill="#f2f2f2"/>
    <path id="Path_27926" data-name="Path 27926" d="M1069.1,862.505l73.4-20.956a3.514,3.514,0,0,1,4.338,2.411l28.293,99.108a3.509,3.509,0,0,1-2.411,4.338l-73.4,20.956a3.513,3.513,0,0,1-4.342-2.411l-28.293-99.108a3.509,3.509,0,0,1,2.411-4.338Z" transform="translate(-624.271 -492.396)" fill="#fff"/>
    <path id="Path_27927" data-name="Path 27927" d="M1144.707,1054.868l58.418-16.676a1.8,1.8,0,0,1,.99,3.468h0l-58.418,16.676a1.8,1.8,0,0,1-2.225-1.243h0a1.8,1.8,0,0,1,1.243-2.229h0" transform="translate(-669.281 -607.605)" fill="#6c6c6c"/>
    <path id="Path_27928" data-name="Path 27928" d="M1137.731,1032.467l58.418-16.676a1.8,1.8,0,1,1,.99,3.468l-58.418,16.672a1.8,1.8,0,0,1-2.229-1.243h0a1.8,1.8,0,0,1,1.243-2.225" transform="translate(-665.194 -594.486)" fill="#6c6c6c"/>
    <path id="Path_27929" data-name="Path 27929" d="M1130.746,1010.068l58.418-16.676a1.8,1.8,0,0,1,2.229,1.243h0a1.8,1.8,0,0,1-1.243,2.229h0l-58.418,16.672a1.8,1.8,0,0,1-2.229-1.243h0a1.8,1.8,0,0,1,1.243-2.225" transform="translate(-661.1 -581.367)" fill="#6c6c6c"/>
    <path id="Path_27930" data-name="Path 27930" d="M1103,934.943a.269.269,0,0,1-.522.041c-.1-.3-.207-.6-.294-.9q-3.592-12.305-7.172-24.614a9.355,9.355,0,0,1-.273-1,1.437,1.437,0,0,1,.87-1.686,7.191,7.191,0,0,1,.986-.319l22.336-6.5c.236-.07.472-.149.713-.2a1.482,1.482,0,0,1,2.047,1.119c.066.186.112.377.17.568q3.65,12.516,7.288,25.041c.066.216.116.439.166.659a.274.274,0,0,1-.46.249h0a14.935,14.935,0,0,0-6.567-3.857,14.5,14.5,0,0,0-10.681.762,15.148,15.148,0,0,0-8.572,10.536Zm10.026-12.62a6.864,6.864,0,1,0-8.473-4.7C1105.7,921.615,1110.152,923.425,1113.027,922.323Z" transform="translate(-640.754 -526.518)" fill="#6c6c6c"/>
    <path id="Path_27931" data-name="Path 27931" d="M1114.107,968.537a.278.278,0,0,1,.058-.253,1.736,1.736,0,0,0,.224-.7,15.2,15.2,0,0,1,8.572-10.536,14.5,14.5,0,0,1,10.681-.762,14.937,14.937,0,0,1,6.567,3.857,1.243,1.243,0,0,0,.476.369.269.269,0,0,1,.174.178c.215.7.447,1.4.625,2.121.269,1.069,0,1.516-1.065,1.889-.187.066-.377.116-.568.17l-23.309,6.786h-.025c-.924.2-1.438-.021-1.74-.87C1114.517,970.054,1114.326,969.292,1114.107,968.537Z" transform="translate(-652.118 -559.276)" fill="#eee"/>
    <path id="Path_27932" data-name="Path 27932" d="M1126.568,935.141c-2.9,1.1-7.325-.708-8.473-4.723a6.915,6.915,0,1,1,8.473,4.723Z" transform="translate(-654.296 -539.336)" fill="#eee"/>
    <path id="Path_27933" data-name="Path 27933" d="M1184.031,921.011l26.338-7.93a1.8,1.8,0,1,1,.99,3.468l-26.338,7.926a1.8,1.8,0,0,1-2.229-1.243h0a1.8,1.8,0,0,1,1.243-2.225" transform="translate(-692.311 -534.33)" fill="#6c6c6c"/>
    <path id="Path_27934" data-name="Path 27934" d="M1177.056,898.608l26.338-7.926a1.8,1.8,0,0,1,2.229,1.243h0a1.8,1.8,0,0,1-1.243,2.229h0l-26.338,7.926a1.8,1.8,0,0,1-2.229-1.243h0a1.806,1.806,0,0,1,1.243-2.229" transform="translate(-688.223 -521.211)" fill="#6c6c6c"/>
    <path id="Path_27935" data-name="Path 27935" d="M1096.711,1069.349s-4.143.754-6.078-1.3-2.362-4.806-.941-6.144,4.143-.754,6.074,1.3S1096.711,1069.349,1096.711,1069.349Z" transform="translate(-637.332 -621.113)" fill="#909090"/>
    <ellipse id="Ellipse_4615" data-name="Ellipse 4615" cx="4.939" cy="2.821" rx="4.939" ry="2.821" transform="translate(449.401 456.134) rotate(-72.51)" fill="#909090"/>
    <path id="Path_27936" data-name="Path 27936" d="M1074.829,1100.381c1.189,1.541-.344,4.723-3.426,7.106s-9.152-.555-9.152-.555a23.793,23.793,0,0,1,4.835-5.03C1070.172,1099.519,1073.635,1098.835,1074.829,1100.381Z" transform="translate(-621.751 -643.585)" fill="#909090"/>
    <path id="Path_27937" data-name="Path 27937" d="M1096.578,1068.79a10.511,10.511,0,0,1-.137,3.791s-4.143.754-6.078-1.3a7.02,7.02,0,0,1-1.363-2.072,6.425,6.425,0,0,0,1.719,3.315c1.939,2.072,6.078,1.3,6.078,1.3A9.4,9.4,0,0,0,1096.578,1068.79Z" transform="translate(-637.418 -625.567)" fill="#6c6c6c"/>
    <path id="Path_27938" data-name="Path 27938" d="M1092.346,1083a7.9,7.9,0,0,1-.381,2.486c-.829,2.6-2.689,4.33-4.176,3.861a2.212,2.212,0,0,1-1.338-1.516c.025,1.545.6,2.763,1.587,3.074,1.487.468,3.356-1.243,4.176-3.861A6.745,6.745,0,0,0,1092.346,1083Z" transform="translate(-635.925 -633.89)" fill="#6c6c6c"/>
    <path id="Path_27939" data-name="Path 27939" d="M1074.95,1102c-.228,1.616-1.624,3.683-3.791,5.361-2.279,1.761-6.186.613-8.071-.1-.543.671-.829,1.106-.829,1.106s6.07,2.938,9.152.555C1074.375,1106.628,1075.9,1103.6,1074.95,1102Z" transform="translate(-621.757 -645.018)" fill="#6c6c6c"/>
    <path id="Path_27940" data-name="Path 27940" d="M1065.774,1113.939c-.07-.054-.145-.1-.211-.162l-.037-.037-6.476,6.737,1.429,7.785h1.765l-2.411-7.7Z" transform="translate(-619.877 -651.894)" fill="#6c6c6c"/>
    <path id="Path_27941" data-name="Path 27941" d="M1086.541,1113.6l7.437,3.642.837,10.93h-1.765l-.05-10.718-6.65-3.555Z" transform="translate(-635.866 -651.812)" fill="#6c6c6c"/>
    <path id="Path_27942" data-name="Path 27942" d="M1104.257,1085.04l.414,1.657-4.441.58.348-1.106Z" transform="translate(-643.995 -635.085)" fill="#6c6c6c"/>
    <path id="Path_27943" data-name="Path 27943" d="M1083.98,1050.139s.526-8.7-1.177-10.358-5.614-2.142-6.02.319.692,1.33.8.994-.46-.887-.46-.887a1.815,1.815,0,0,1,2.316-1.487c2.125.3,3.029.953,3.489,1.839s.9,6.26.829,6.583-.128,2.9-.128,2.9S1083.864,1050.475,1083.98,1050.139Z" transform="translate(-630.211 -607.766)" fill="#6c6c6c"/>
    <path id="Path_27944" data-name="Path 27944" d="M1096.29,1044.163s3.5-11.1,1.463-12.844-3.932-1.608-4.251-.6-.066,2.565.481,2-.124-.779-.124-.779-.8-.99.762-1.243,2.9.174,3.153,1.736a8.331,8.331,0,0,1,.054,3.344c-.195,1.786-1.873,8.286-1.873,8.286S1095.847,1044.4,1096.29,1044.163Z" transform="translate(-639.973 -602.838)" fill="#6c6c6c"/>
    <path id="Path_27945" data-name="Path 27945" d="M1086.75,1084.238l-3.75,11.083,19.009-2.337a.829.829,0,0,0,.087-1.628l-2.523-.593-13.672,2.486.7-8.12.282-.9Z" transform="translate(-633.904 -634.61)" fill="#6c6c6c"/>
    <path id="Path_27946" data-name="Path 27946" d="M1328.088,1041.825l.377-12.885-2.072-2.9a16.094,16.094,0,0,1,3.314,1.657l.414,13.556-4.8,12.185Z" transform="translate(-775.828 -600.529)" fill="#6c6c6c"/>
    <path id="Path_27947" data-name="Path 27947" d="M1315.359,1074.126s4.193-.365,5.519-2.859,1.007-5.262-.713-6.173-4.193.365-5.519,2.859S1315.359,1074.126,1315.359,1074.126Z" transform="translate(-769.314 -623.23)" fill="#909090"/>
    <ellipse id="Ellipse_4616" data-name="Ellipse 4616" cx="2.821" cy="4.939" rx="2.821" ry="4.939" transform="matrix(0.841, -0.542, 0.542, 0.841, 547.668, 450.671)" fill="#909090"/>
    <path id="Path_27948" data-name="Path 27948" d="M1336.965,1101.043c-.742,1.8,1.578,4.466,5.183,5.949s8.676-2.954,8.676-2.954a23.8,23.8,0,0,0-5.987-3.571C1341.232,1098.984,1337.727,1099.241,1336.965,1101.043Z" transform="translate(-782.567 -643.556)" fill="#909090"/>
    <path id="Path_27949" data-name="Path 27949" d="M1314.285,1073.239a10.609,10.609,0,0,0,1.135,3.621s4.189-.365,5.519-2.859a7,7,0,0,0,.766-2.362,6.421,6.421,0,0,1-.787,3.634c-1.326,2.486-5.519,2.859-5.519,2.859A9.3,9.3,0,0,1,1314.285,1073.239Z" transform="translate(-769.337 -627.236)" fill="#6c6c6c"/>
    <path id="Path_27950" data-name="Path 27950" d="M1324.49,1087.46a7.962,7.962,0,0,0,1.04,2.3c1.479,2.291,3.729,3.464,5.051,2.623a2.218,2.218,0,0,0,.887-1.815c.385,1.5.157,2.817-.717,3.381-1.309.828-3.571-.327-5.046-2.623A6.693,6.693,0,0,1,1324.49,1087.46Z" transform="translate(-775.342 -636.502)" fill="#6c6c6c"/>
    <path id="Path_27951" data-name="Path 27951" d="M1336.908,1103.73c.646,1.5,2.54,3.128,5.071,4.168,2.664,1.1,6.128-1.036,7.756-2.229.7.506,1.094.829,1.094.829s-5.075,4.437-8.676,2.954C1338.69,1108.039,1336.423,1105.524,1336.908,1103.73Z" transform="translate(-782.577 -646.031)" fill="#6c6c6c"/>
    <path id="Path_27952" data-name="Path 27952" d="M1356.82,1113.939c.075-.054.145-.1.211-.162l.037-.037,6.476,6.728-1.429,7.785h-1.761l2.407-7.7Z" transform="translate(-794.277 -651.894)" fill="#6c6c6c"/>
    <path id="Path_27953" data-name="Path 27953" d="M1333.594,1113.6l-7.437,3.642-.837,10.93h1.765l.05-10.718,6.65-3.555Z" transform="translate(-775.828 -651.812)" fill="#6c6c6c"/>
    <path id="Path_27954" data-name="Path 27954" d="M1321.069,1052.082s-5.469-6.8-5.034-9.115,3.344-4.972,5.1-3.219.207,1.483-.075,1.272-.137-.99-.137-.99a1.819,1.819,0,0,0-2.751.128c-1.558,1.475-1.918,2.527-1.786,3.518s2.9,5.626,3.124,5.858,1.777,2.283,1.777,2.283S1321.351,1052.3,1321.069,1052.082Z" transform="translate(-770.375 -608.225)" fill="#6c6c6c"/>
    <path id="Path_27955" data-name="Path 27955" d="M1307.382,1051.523s-9.115-7.267-8.382-9.856,2.37-3.53,3.194-2.867,1.492,2.092.717,1.927-.331-.717-.331-.717.112-1.268-1.322-.6-2.312,1.765-1.657,3.2a8.3,8.3,0,0,0,1.819,2.809c1.16,1.38,6.173,5.838,6.173,5.838S1307.879,1051.47,1307.382,1051.523Z" transform="translate(-760.388 -607.882)" fill="#6c6c6c"/>
    <path id="Path_27956" data-name="Path 27956" d="M1317.81,1086.39l5.328,1.5-13.556,6.438a1.831,1.831,0,0,1-2.6-1.881h0l13.672-3.729-2.42-1.512-.509-.791Z" transform="translate(-765.078 -635.875)" fill="#6c6c6c"/>
    <path id="Path_27957" data-name="Path 27957" d="M1144.722,1168.04l-4.972,2.072-5.8,8.286h1.657l4.557-7.872,4.972-2.072Z" transform="translate(-663.745 -683.697)" fill="#355585"/>
    <path id="Path_27958" data-name="Path 27958" d="M1173.111,1115.444a3.374,3.374,0,0,1-3.174,5.676,3.409,3.409,0,0,1-.787-.319c-2.349-1.309-3.522-3.687-2.614-5.307s3.542-1.869,5.891-.555a3.559,3.559,0,0,1,.684.506Z" transform="translate(-682.65 -652.102)" fill="#5673a8"/>
    <path id="Path_27959" data-name="Path 27959" d="M1174,1118.1l.025.05a3.091,3.091,0,0,1-2.577,4.446,4.263,4.263,0,0,1-2.378-.456,6.629,6.629,0,0,1-1.835-1.491,6.129,6.129,0,0,0,2.486,2.486,4.255,4.255,0,0,0,2.378.456,3.091,3.091,0,0,0,2.552-4.491A5.361,5.361,0,0,0,1174,1118.1Z" transform="translate(-683.237 -654.447)" fill="#355585"/>
    <path id="Path_27960" data-name="Path 27960" d="M1169.108,1171a1.656,1.656,0,0,1-.249,0h-.05l5.092,2.009,2.71,7.155h1.682l-3.729-7.491Z" transform="translate(-684.162 -685.43)" fill="#355585"/>
    <path id="Path_27961" data-name="Path 27961" d="M1183.34,1121.524l5.365-5.523,1.678-6.049-1.342-1.342-1.666,7.217-4.035,4.595Z" transform="translate(-692.672 -648.889)" fill="#355585"/>
    <path id="Path_27962" data-name="Path 27962" d="M1157.809,1106.539s-2.014-8.062-4.031-9.069-5.709-.336-5.386,2.014,1.007,1.011,1.007.675-.671-.675-.671-.675a1.733,1.733,0,0,1,1.657-2.014c1.993-.356,3.025,0,3.7.671s2.61,5.427,2.651,5.738.709,2.66.709,2.66S1157.809,1106.858,1157.809,1106.539Z" transform="translate(-672.192 -642.099)" fill="#355585"/>
    <path id="Path_27963" data-name="Path 27963" d="M1180,1101.11s0-11.087,1.819-12.094,3.124-.336,3.124.671-.522,2.353-.783,1.678.261-.671.261-.671.779-.671-.261-1.342-2.072-.671-2.6.671a9.774,9.774,0,0,0-.779,3.024c-.261,1.657-.522,8.063-.522,8.063S1180.265,1101.445,1180,1101.11Z" transform="translate(-690.716 -637.122)" fill="#355585"/>
    <path id="Path_27964" data-name="Path 27964" d="M1157,1139.557l7.043-4.557-.829,1.657-4.926,3.344,4.367,3.7-.282.149a2.486,2.486,0,0,1-3.286-.891Z" transform="translate(-677.245 -664.346)" fill="#355585"/>
    <path id="Path_27965" data-name="Path 27965" d="M1197.784,1107.24l.659-.5s1.359-1.181,1.023-2.188-1.347-2.018-1.682-1.007-.684,1.852-.684,1.852Z" transform="translate(-700.731 -645.679)" fill="#355585"/>
    <path id="Path_27966" data-name="Path 27966" d="M1269.811,565.51l-17.4,57.349-17.492,57.32c-5.825,19.112-11.534,38.254-17.592,57.291-3.037,9.529-6.074,19.029-9.194,28.521l-4.686,14.232c-1.6,4.732-3.165,9.475-4.8,14.2l-.2-.062c1.33-4.814,2.73-9.612,4.093-14.418l4.209-14.381c2.809-9.587,5.7-19.145,8.593-28.7,5.8-19.116,11.953-38.117,17.989-57.175l18.085-57.138,18.184-57.1Z" transform="translate(-701.522 -330.761)"/>
    <path id="Path_27967" data-name="Path 27967" d="M1200.357,1102.92s1.657,0,1.342,1.342a3.641,3.641,0,0,1-1.164,1.964S1199.35,1103.256,1200.357,1102.92Z" transform="translate(-702.401 -645.557)" fill="#355585"/>
    <ellipse id="Ellipse_4617" data-name="Ellipse 4617" cx="2.689" cy="4.702" rx="2.689" ry="4.702" transform="translate(485.618 468.79)" fill="#5673a8"/>
    <path id="Path_27968" data-name="Path 27968" d="M1176,1132.9a7.54,7.54,0,0,1,.365,2.366c0,2.6-1.2,4.7-2.685,4.7a2.109,2.109,0,0,1-1.657-.994c.464,1.4,1.33,2.341,2.32,2.341,1.483,0,2.685-2.109,2.685-4.707A6.429,6.429,0,0,0,1176,1132.9Z" transform="translate(-686.042 -663.116)" fill="#355585"/>
    <path id="Path_27969" data-name="Path 27969" d="M1166.106,1151.541c1.521,1.061,1.04,4.388-1.077,7.458s-8.469,2.113-8.469,2.113a12.9,12.9,0,0,1,2.254-6.277C1160.91,1151.8,1164.581,1150.484,1166.106,1151.541Z" transform="translate(-676.987 -673.822)" fill="#5673a8"/>
    <path id="Path_27970" data-name="Path 27970" d="M1166.26,1152.38c.257,1.537-.414,3.812-1.906,5.954-1.243,1.773-3.808,2.183-5.8,2.221a2.353,2.353,0,0,0-2.014,1.243h0s6.351.932,8.469-2.113C1167.051,1156.747,1167.569,1153.565,1166.26,1152.38Z" transform="translate(-676.976 -674.525)" fill="#355585"/>
    <line id="Line_3304" data-name="Line 3304" x2="32.171" transform="translate(467.036 494.175)" fill="none" stroke="#b5b5b5" stroke-miterlimit="10" stroke-width="2"/>
    <path id="Path_27971" data-name="Path 27971" d="M1335.174,949.04l-1.719,4.122-.244-3.136Z" transform="translate(-780.449 -555.431)" fill="#6c6c6c"/>
    <path id="Path_27972" data-name="Path 27972" d="M820.76,711.38Z" transform="translate(-480.313 -416.237)" fill="#cbd4e4"/>
    <path id="Path_27973" data-name="Path 27973" d="M750.333,812.51a1.7,1.7,0,0,1,0,3.393A1.7,1.7,0,0,1,750.333,812.51Z" transform="translate(-438.105 -475.467)" fill="#fff"/>
    <path id="Path_27974" data-name="Path 27974" d="M755.338,778.893s23.869,24.237,25.381,41.431-51.147-15.8-53.587-21.826S735.579,766.294,755.338,778.893Z" transform="translate(-425.278 -453.795)" fill="#ffac43"/>
    <path id="Path_27975" data-name="Path 27975" d="M755.339,778.892a149.113,149.113,0,0,1,17.944,22.75l-13.531,18.623c-14.443-6.77-31.264-18.424-32.619-21.772C724.7,792.461,735.581,766.293,755.339,778.892Z" transform="translate(-425.279 -453.794)" fill="#f7f7f7"/>
    <path id="Path_27976" data-name="Path 27976" d="M860.359,783.716c15.951-1.04,11.149,46.163-16.635,46.6S844.4,784.76,860.359,783.716Z" transform="translate(-486.925 -458.593)" fill="#ffac43"/>
    <line id="Line_3305" data-name="Line 3305" x1="12.645" y1="6.853" transform="translate(375.34 346.406)" fill="none" stroke="#000" stroke-miterlimit="10" stroke-width="2"/>
    <line id="Line_3306" data-name="Line 3306" x1="12.645" y1="6.849" transform="translate(372.158 349.775)" fill="none" stroke="#000" stroke-miterlimit="10" stroke-width="2"/>
    <line id="Line_3307" data-name="Line 3307" x1="12.645" y1="6.853" transform="translate(368.976 353.139)" fill="none" stroke="#000" stroke-miterlimit="10" stroke-width="2"/>
    <path id="Path_27977" data-name="Path 27977" d="M866.07,778.941c-3.352-1.96-6.467-4.433-7.313-7.085-.887-2.8,3.824-.414,8.564,2.527l-.278-6.414s-2.9.779-3.48-1.782,3.356-7.313,5.771-7.308,15.7,1.243,16.987,3.368a2.145,2.145,0,0,1,.108.22.306.306,0,0,0,.029.087c.008.025.041.112.062.174a.728.728,0,0,1,.029.124c.008.041.029.112.041.174l.025.149a1.456,1.456,0,0,0,.033.186,1.225,1.225,0,0,1,0,.174v2.378a2.042,2.042,0,0,1-.021.327.373.373,0,0,0,0,.157,1.718,1.718,0,0,1-.029.352v.137l-.037.389v.1c0,.141-.029.278-.041.414a.585.585,0,0,0,0,.079l-.05.452v.037c-.249,2.125-.621,4.218-.829,5.324h0c-.054.282-.1.5-.124.634h0v.153h0c.079,4.168-.1,8.257-.1,8.257-2.946,1.309-6.393,1.185-9.674.414a5.1,5.1,0,0,1-.692-.166l-.1-.037a34.8,34.8,0,0,1-9-3.986Z" transform="translate(-502.504 -444.057)" fill="#ffac43"/>
    <circle id="Ellipse_4618" data-name="Ellipse 4618" cx="53.301" cy="53.301" r="53.301" transform="translate(224.423 312.632)" fill="#ffac43"/>
    <ellipse id="Ellipse_4619" data-name="Ellipse 4619" cx="1.011" cy="1.616" rx="1.011" ry="1.616" transform="matrix(0.474, -0.881, 0.881, 0.474, 300.561, 395.41)" fill="#6c6c6c"/>
    <path id="Path_27978" data-name="Path 27978" d="M591.638,816.164c-16.2-8.7-31.9-16.5-46.5-23.139A53.305,53.305,0,1,1,636.579,842.2C623.006,833.7,607.842,824.877,591.638,816.164Z" transform="translate(-318.886 -440.984)" fill="#f7f7f7"/>
    <path id="Path_27979" data-name="Path 27979" d="M688.432,736.928l24.618,13.237-6.194-22.742L691.191,719l-4.777-.7-2.664,8.448Z" transform="translate(-400.068 -420.29)" fill="#ffac43"/>
    <path id="Path_27980" data-name="Path 27980" d="M610.457,972.612A208.806,208.806,0,0,1,575,969.621a62.587,62.587,0,0,0,10.358,9.26c22.986,16.258,50.422,10.851,68.776-10.851a206.04,206.04,0,0,1-43.677,4.582Z" transform="translate(-336.375 -566.553)" fill="#788eba"/>
    <path id="Path_27981" data-name="Path 27981" d="M643.251,961.477a321.612,321.612,0,0,1-90.051-.037q1.193,1.881,2.536,3.654a242.6,242.6,0,0,0,84.975.041h0Q642.053,963.367,643.251,961.477Z" transform="translate(-323.607 -562.694)" fill="#919191"/>
    <path id="Path_27982" data-name="Path 27982" d="M609.145,759.476c-4.4-1.342-49.407-22.07-53.123-19.145l-14.538,11.452A53.06,53.06,0,0,0,519.4,773.7L493.51,820.3l64.326,34.591Z" transform="translate(-288.647 -433.027)" fill="#b7b7b7"/>
    <path id="Path_27983" data-name="Path 27983" d="M699.959,847.587l-2.776,5.162-.481.891-.07.128-5.187,1.893-2.005-3.629.091-.157.646-1.056,3.733-6.148Z" transform="translate(-403.401 -494.303)" fill="#f7f7f7"/>
    <path id="Path_27984" data-name="Path 27984" d="M590.552,775.259s-33.145,7.665-48.595-.045,40.226-35.32,46.643-34.255S611.619,765.021,590.552,775.259Z" transform="translate(-315.442 -433.542)" fill="#ffac43"/>
    <path id="Path_27985" data-name="Path 27985" d="M609.95,775.278a148.912,148.912,0,0,1-28.778,3.393L572.38,757.4c13.328-8.767,32.059-16.987,35.631-16.407C614.416,742.066,631.018,765.04,609.95,775.278Z" transform="translate(-334.84 -433.561)" fill="#f7f7f7"/>
    <path id="Path_27986" data-name="Path 27986" d="M567.4,722.159c-5.448-15.031-46.751,8.315-36,33.936S572.865,737.187,567.4,722.159Z" transform="translate(-309.796 -419.778)" fill="#ffac43"/>
    <line id="Line_3308" data-name="Line 3308" x2="1.782" y2="14.273" transform="translate(240.726 296.183)" fill="none" stroke="#000" stroke-miterlimit="10" stroke-width="2"/>
    <line id="Line_3309" data-name="Line 3309" x2="1.782" y2="14.269" transform="translate(236.433 297.923)" fill="none" stroke="#000" stroke-miterlimit="10" stroke-width="2"/>
    <line id="Line_3310" data-name="Line 3310" x2="1.782" y2="14.269" transform="translate(232.141 299.664)" fill="none" stroke="#000" stroke-miterlimit="10" stroke-width="2"/>
    <line id="Line_3311" data-name="Line 3311" x1="18.288" y2="14.418" transform="translate(235.066 369.235)" fill="none" stroke="#919191" stroke-miterlimit="10" stroke-width="2"/>
    <path id="Path_27987" data-name="Path 27987" d="M686.261,693.13l-1.115.911s-2.486,5.8-2.589,9.235,3.6,7.735,3.6,7.735l.9-6.9,2.8-9.973Z" transform="translate(-399.368 -405.548)"/>
    <path id="Path_27988" data-name="Path 27988" d="M690.175,698.534a1.243,1.243,0,0,0-.92.24,2.592,2.592,0,0,0-.742.924,5.725,5.725,0,0,0-.489,1.471,9.084,9.084,0,0,0-.157,1.869,9.869,9.869,0,0,0,.22,1.927,7.663,7.663,0,0,0,.534,1.62,3.972,3.972,0,0,0,.779,1.148,1.657,1.657,0,0,0,.936.505,1.314,1.314,0,0,0,.389,0,1.622,1.622,0,0,0,.186-.058,1.141,1.141,0,0,0,.178-.083l-.158-9.181a1.905,1.905,0,0,0-.182-.137,1.444,1.444,0,0,0-.186-.108,1.94,1.94,0,0,0-.195-.079A1.663,1.663,0,0,0,690.175,698.534Z" transform="translate(-402.479 -408.706)" fill="#ffac43"/>
    <path id="Path_27989" data-name="Path 27989" d="M715.244,728.4v.381a3.747,3.747,0,0,0,.029.377,2.2,2.2,0,0,0,.05.369q.031.18.075.36a12.378,12.378,0,0,0,1.168-1.081c.377-.389.733-.8,1.069-1.214s.642-.829.924-1.21.53-.758.742-1.086l-.336-.087-.34-.087-.336-.091-.34-.087h-.236a1.682,1.682,0,0,0-.949.149,2.214,2.214,0,0,0-.779.663,3.561,3.561,0,0,0-.534,1.081,5.194,5.194,0,0,0-.211,1.421v.186Z" transform="translate(-418.512 -424.175)"/>
    <g id="Group_38874" data-name="Group 38874" transform="translate(278.859 269.173)">
      <path id="Path_27990" data-name="Path 27990" d="M754.427,707.994a.829.829,0,0,0-.174,0,1.105,1.105,0,0,0-.331.066l-.162.079.261,8.7a1.449,1.449,0,0,0,.162.128l.17.1a1,1,0,0,0,.174.066.857.857,0,0,0,.178.041,1.032,1.032,0,0,0,.829-.257,2.444,2.444,0,0,0,.638-.891,5.878,5.878,0,0,0,.414-1.4,9.056,9.056,0,0,0,.108-1.753,9.836,9.836,0,0,0-.22-1.794,7.534,7.534,0,0,0-.489-1.512,3.967,3.967,0,0,0-.7-1.073A1.5,1.5,0,0,0,754.427,707.994Z" transform="translate(-719.931 -683.423)" fill="#ffac43"/>
      <path id="Path_27991" data-name="Path 27991" d="M742.443,662.875a10.858,10.858,0,0,0-1.918-5.8,8.656,8.656,0,0,0-1.98-2.051,6.214,6.214,0,0,0-2.411-1.1l-1.363-.282a5.716,5.716,0,0,1,2.2,1,8,8,0,0,1,1.806,1.869,9.8,9.8,0,0,1,1.748,5.295L742,675.532l1.91.3Z" transform="translate(-708.809 -651.592)"/>
      <path id="Path_27992" data-name="Path 27992" d="M748.991,706.22a3.615,3.615,0,0,1-.348,1.1,2.824,2.824,0,0,1-.621.829,2.318,2.318,0,0,1-.829.489,2.29,2.29,0,0,1-1,.075l-.534-.079.249,8.916c.34.373.675.75,1,1.119s.642.729.941,1.081.58.688.829,1,.5.617.717.891h.054l-.174-5.875-.261-8.7Z" transform="translate(-715.187 -682.387)"/>
      <path id="Path_27993" data-name="Path 27993" d="M719.543,725.82c-.211.327-.464.7-.742,1.086s-.592.8-.924,1.21-.692.829-1.069,1.214a12.361,12.361,0,0,1-1.168,1.081,5.457,5.457,0,0,0,.414,1.172,4.679,4.679,0,0,0,.621.97,3.522,3.522,0,0,0,.787.7,2.449,2.449,0,0,0,.907.352v-2.842l1.148.236,1.139.232,1.135.232,1.131.228a5.339,5.339,0,0,0,.029.679l.025.684c0,.228.021.456.029.684s0,.456.029.684h.124a2.009,2.009,0,0,0,.829-.066,1.96,1.96,0,0,0,.684-.369,2.367,2.367,0,0,0,.53-.621,3.17,3.17,0,0,0,.344-.829,11.123,11.123,0,0,1-1.508-1.376c-.493-.53-.978-1.119-1.434-1.719s-.887-1.243-1.276-1.811-.737-1.143-1.027-1.628l-.182-.046-.178-.05-.178-.046Z" transform="translate(-697.605 -693.867)" fill="#ffac43"/>
      <path id="Path_27994" data-name="Path 27994" d="M721.51,704.307l-17.07-5.477.17,11.518c.642-.522,1.33-1.04,2.018-1.521s1.367-.92,2.005-1.284a12.857,12.857,0,0,1,1.736-.862,2.694,2.694,0,0,1,1.218-.244h.157l1.073.319,1.065.315,1.065.311q.53.162,1.056.311a4.111,4.111,0,0,1,.924.634c.414.331.87.762,1.392,1.268s1.086,1.081,1.657,1.69,1.185,1.243,1.769,1.9Z" transform="translate(-691.045 -678.059)" fill="#ffac43"/>
      <path id="Path_27995" data-name="Path 27995" d="M675.019,738.814q1.3-2.436,2.523-4.789t2.37-4.607q1.144-2.25,2.221-4.433c.033-.062.062-.124.1-.191s.062-.124.091-.191l.1-.186.1-.191a4.2,4.2,0,0,1,.472-.692,10.069,10.069,0,0,1,.729-.8c.278-.278.592-.572.928-.866s.7-.6,1.073-.895c.638-.51,1.322-1.011,2.005-1.479s1.359-.887,1.993-1.243a12.485,12.485,0,0,1,1.728-.829,2.746,2.746,0,0,1,1.214-.232h.157l1.073.319,1.069.315,1.061.311,1.057.311a4.245,4.245,0,0,1,.928.626c.414.323.874.75,1.4,1.243s1.094,1.061,1.657,1.657,1.189,1.243,1.777,1.873l1.007,1.1c.323.365.642.721.94,1.065s.584.675.829.986.505.6.717.874l.282.356.24.319c.075.1.141.195.2.278s.112.166.153.24q1.119,2.121,2.275,4.185t2.366,4.052q1.206,1.989,2.453,3.919t2.531,3.779c.414.829.273,2.2-.2,3.845a27.628,27.628,0,0,1-2.316,5.386,29.094,29.094,0,0,1-3.418,5.013,7.245,7.245,0,0,1-3.443,2.552l-5.494.684-5.643.7-5.8.725-5.97.746h-.323a12.531,12.531,0,0,1-4.143-2.556,31.373,31.373,0,0,1-4.222-5.937A35.388,35.388,0,0,1,672.8,749.2a10.255,10.255,0,0,1-.489-5.494Q673.722,741.267,675.019,738.814Zm15.18-13.672a5.408,5.408,0,0,0,.414,1.148,4.557,4.557,0,0,0,.626.953,3.509,3.509,0,0,0,.791.688,2.525,2.525,0,0,0,.907.352V725.5l1.148.236,1.139.232,1.135.232,1.127.232c0,.224.021.443.033.667s0,.443.033.667,0,.443.033.667.021.448.033.671h.124a2.047,2.047,0,0,0,.8-.062,1.958,1.958,0,0,0,.684-.352,2.325,2.325,0,0,0,.522-.6,2.95,2.95,0,0,0,.344-.829c.029-.1.05-.211.07-.319a2.878,2.878,0,0,0,.041-.344c.008-.12,0-.232,0-.356V725.7a5.756,5.756,0,0,0-.3-1.425,5.6,5.6,0,0,0-.634-1.243,4.277,4.277,0,0,0-.866-.969,2.771,2.771,0,0,0-1.065-.518l-.638-.166-.638-.166-.638-.166-.642-.166-.182-.05-.178-.046-.182-.046-.178-.046-.336-.087-.34-.091-.336-.087-.34-.087h-.236a1.657,1.657,0,0,0-.936.083,2.121,2.121,0,0,0-.775.638,3.367,3.367,0,0,0-.526,1.057,4.971,4.971,0,0,0-.2,1.388v.137a.168.168,0,0,0,0,.046v.373a1.377,1.377,0,0,0,.033.369,3.616,3.616,0,0,1,.054.36c.021.12.046.236.075.352" transform="translate(-672.11 -688.809)"/>
      <path id="Path_27996" data-name="Path 27996" d="M732.157,731.2a5.8,5.8,0,0,0-.92-2.739,4.463,4.463,0,0,0-.862-.986,2.638,2.638,0,0,0-1.019-.547l-.634-.166-.642-.166-.638-.166-.642-.166c.29.485.638,1.04,1.027,1.628s.829,1.206,1.276,1.811a20.212,20.212,0,0,0,1.434,1.719,11.127,11.127,0,0,0,1.508,1.375c.029-.1.054-.215.075-.327s.033-.228.046-.348a3.561,3.561,0,0,0,0-.365V731.2Z" transform="translate(-704.141 -694.13)"/>
      <path id="Path_27997" data-name="Path 27997" d="M710.2,649.559a4.877,4.877,0,0,0-2.486.1,4.793,4.793,0,0,0-2.022,1.272,6.141,6.141,0,0,0-1.351,2.237,8.511,8.511,0,0,0-.46,3L704.138,670l20,3.132-.377-13.221a10.564,10.564,0,0,0-1.914-5.734,8.644,8.644,0,0,0-1.968-2.026,6.288,6.288,0,0,0-2.395-1.09Z" transform="translate(-690.719 -649.135)" fill="#fff"/>
      <path id="Path_27998" data-name="Path 27998" d="M699.831,648.822a5.461,5.461,0,0,0-2.759.112,5.387,5.387,0,0,0-2.254,1.409,6.831,6.831,0,0,0-1.508,2.486c-.352.982-4.5,15.209-4.5,15.209l6.509,1.541-.253-13.826a8.51,8.51,0,0,1,.46-3,6.139,6.139,0,0,1,1.351-2.237,4.793,4.793,0,0,1,2.022-1.272,4.876,4.876,0,0,1,2.486-.1Z" transform="translate(-681.891 -648.696)"/>
      <path id="Path_27999" data-name="Path 27999" d="M694.66,693l.253,2.676.157,9.181.108,6.215h.091l.1-.195c.033-.066.066-.133.1-.2s.066-.128.1-.195.066-.128.1-.195a4.56,4.56,0,0,1,.481-.708,9.69,9.69,0,0,1,.737-.829c.282-.29.6-.592.932-.895s.7-.613,1.081-.924l-.17-11.518S694.755,693.443,694.66,693Z" transform="translate(-685.317 -674.644)"/>
    </g>
    <g id="Group_38875" data-name="Group 38875" transform="translate(297.941 275.292)" clip-path="url(#clip-path)">
      <path id="Path_28000" data-name="Path 28000" d="M642.3,623.73h-.046L630.29,666.4h.058l.9-3.2,66.87,10.553.253,2.875h0l-1.545-17.571-24.349-4.918h0l-36.625-7.391.945-3.377,35.9,7.607.207-3.02-35.217-7.814.945-3.372L673.1,644.8l.207-3.02-33.779-8.232.949-3.377,33.046,8.448.207-3.024L641.4,626.945Zm-9.2,32.843,64.5,11.269.265,3.02-65.718-10.9Zm1.848-6.6,62.134,11.986.265,3.02L634,653.378Z" transform="translate(-666.699 -640.193)" fill="#fff"/>
      <path id="Path_28001" data-name="Path 28001" d="M689.449,635.379,657.1,626.728l.9-3.211.046-.157,31.624,8.862Z" transform="translate(-682.401 -639.976)" fill="#ff5d5d"/>
      <path id="Path_28002" data-name="Path 28002" d="M652.63,642.657l.945-3.377,33.05,8.448-.215,3.161Z" transform="translate(-679.783 -649.3)" fill="#ff5d5d"/>
      <path id="Path_28003" data-name="Path 28003" d="M648.17,658.592l.945-3.372,34.471,8.025-.216,3.161Z" transform="translate(-677.171 -658.636)" fill="#ff5d5d"/>
      <path id="Path_28004" data-name="Path 28004" d="M643.71,674.527l.945-3.377,35.9,7.607-.215,3.161Z" transform="translate(-674.559 -667.966)" fill="#ff5d5d"/>
      <path id="Path_28005" data-name="Path 28005" d="M702.594,702.072l-63.344-11.6.945-3.377,62.134,11.965Z" transform="translate(-671.946 -677.302)" fill="#ff5d5d"/>
      <path id="Path_28006" data-name="Path 28006" d="M700.5,717.306,634.78,706.4l.949-3.377,64.5,11.269Z" transform="translate(-669.328 -686.632)" fill="#ff5d5d"/>
      <path id="Path_28007" data-name="Path 28007" d="M698.143,729.529l.253,2.875.012.141L630.32,722.337l.046-.162.9-3.215Z" transform="translate(-666.716 -695.968)" fill="#ff5d5d"/>
      <path id="Path_28008" data-name="Path 28008" d="M732.11,666.456l24.349,4.914h0l-1.835-20.716-21.026-5.9-.215,3.157-.207,3.024-.215,3.161-.207,3.02-.22,3.161-.207,3.02-.215,3.161Zm20.566-14.232-.559-.667.646.174.137-.8.261.907.646.174-.481.381.265.9-.568-.663-.489.381Zm-3.522-.953-.547-.675.646.178.157-.8.24.911.642.186-.5.385.244.907-.551-.667-.5.385Zm-3.621-.982-.53-.675.646.174.182-.808.215.916.646.178-.51.389.22.916-.539-.671-.514.389Zm-3.526-.961-.518-.679.646.174.2-.829.195.924.646.178-.526.414.2.924-.522-.679-.53.414Zm-3.547-.961-.505-.684.646.174.228-.829.17.928.646.178-.539.414.178.932-.51-.684-.547.414Zm-.663,3.625.663.17.236-.829.178.928.663.17-.551.414.182.928-.526-.675-.563.414.236-.829Zm.5,12.26.2.924.725.149-.6.414.2.924-.576-.663-.609.414.257-.829-.572-.667.729.153Zm3.953.829.22.916.729.153-.588.414.224.916-.592-.659-.593.414.232-.829-.584-.659.725.149Zm3.957.829.24.911.725.153-.572.414.244.911-.6-.655-.58.414.211-.829-.6-.659.725.153Zm4.031.858.265.9.725.153-.559.414.269.9-.642-.634-.568.414.186-.829-.609-.65.725.153Zm3.928.829.286.9.725.149-.547.414.294.895-.634-.646-.551.414.166-.8-.626-.65.725.153Zm-.5-11.058.273.9-.584-.659-.5.389.145-.8-.576-.663.663.17.145-.8.269.9.663.17Zm-3.634-.924.253.907-.572-.663-.518.414.17-.829-.584-.646.667.17.162-.8.249.911.663.17Zm-3.729-.945.228.912-.555-.667-.53.414.191-.829-.547-.671.667.17.186-.829.224.916.663.17Zm-3.658-.932.207.924-.543-.675-.543.414.211-.829-.53-.675.663.17.211-.829.2.924.667.17Zm-2.755,10.175-.568-.667.717.157.236-.829.207.924.717.153-.588.414.207.92-.572-.663-.6.414Zm2-1.761-.568-.667.7.157.224-.829.211.92.708.157-.572.414.215.916-.572-.663-.58.414Zm1.964,2.614-.584-.663.717.153.215-.829.228.916.717.153-.576.414.232.911-.588-.667-.58.414Zm1.914-1.753-.58-.663.7.162.2-.829.236.911.708.157-.559.414.24.911-.568-.655-.563.414Zm2.047,2.6-.6-.655.717.153.191-.829.253.907.717.157-.559.414.253.9-.6-.655-.568.414Zm1.91-1.719-.592-.659.7.157.178-.829.278.932.7.157-.543.414.261.9-.6-.655-.551.414Zm2.072,2.573-.609-.655.717.157.17-.8.273.9.713.157-.543.414.278.9-.617-.655-.551.414Zm1.8-1.715-.609-.655.7.157.157-.8.282.9.7.158-.53.414.286.895-.638-.667-.534.414Zm-2.478-5.867.162-.8-.58-.659.675.166.157-.8.261.907.675.166-.514.414.265.9-.584-.663Zm2.154,1.711-.588-.659.684.166.149-.8.273.9.688.166-.518.389.282.9-.6-.655-.518.414Zm-5.055-3.265.24.911-.568-.667-.534.414.182-.808-.564-.684.675.166.178-.829.24.911.675.17Zm-2.536,1.438-.559-.659.684.166.195-.829.232.916.684.162-.543.414.236.911-.572-.663-.551.414Zm3.845.916-.58-.663.688.166.17-.829.253.907.684.166-.526.414.257.907-.6-.659-.534.414Zm-1.309,1.326.7.162-.543.414.249.911-.584-.663-.551.414.191-.829-.58-.663.7.162.182-.829Zm-4.056-1.806.22.916.7.162-.555.414.224.911-.572-.663-.563.414.211-.829-.576-.692.7.162Zm-2.25-1.309-.547-.671.684.166.215-.829.207.92.688.166-.559.414.232.878-.555-.667-.563.414Zm1.889-1.628-.555-.692.675.17.2-.829.215.92.675.166-.543.414.22.92-.555-.671-.547.414Zm8.253,5.631.7.162-.526.414.269.9-.6-.708-.534.414.166-.8-.592-.659.7.162.162-.8Zm-16.133,1.181-.547-.692.717.157.261-.829.182.928.717.153-.6.414.191.928-.563-.667-.609.414ZM738,661.306l-.547-.688.7.157.244-.829.191.924.708.162-.588.414.195.924-.559-.667-.592.414Zm2.345-3,.2.92.7.162-.572.414.2.92-.555-.667-.58.414.236-.829-.539-.7.692.162Zm-2.2-1.309-.539-.675.688.166.236-.829.186.928.684.166-.568.414.186.928-.543-.675-.576.414Zm1.914-1.657-.534-.688.675.166.224-.829.195.924.675.166-.555.414.195.924-.543-.675-.559.414Zm.443-5.618.186.928.655.17-.539.414.191.924-.526-.68-.543.414.22-.829-.518-.679.655.174Zm3.592.961.207.92.655.174-.522.394.211.92-.539-.675-.53.414.2-.829-.522-.692.659.174Zm3.592.961.232.916.655.17-.514.414.236.911-.551-.671-.518.414.178-.829-.547-.671.655.174Zm3.588.961.257.907.655.174-.5.385.261.907-.568-.667-.505.389.153-.8-.559-.667.655.17Zm-17.041,10.8.174.928.725.153-.617.414.178.928-.555-.675-.626.414.278-.829-.551-.667.725.149Zm-.191-2.987-.539-.675.708.157.265-.829.17.932.7.157-.6.414.174.928-.547-.671-.6.414Zm2.486-3.016.174.932.7.162-.584.414.178.928-.543-.671-.592.414.257-.829-.534-.671.692.162Zm-2.233-1.326-.522-.68.684.166.265-.829.162.932.684.166-.584.414.166.932-.53-.679-.588.414Zm2.018-1.657-.518-.688.675.166.245-.829.17.928.675.17-.568.414.174.932-.526-.68-.576.414Zm-1.761-2.693-.505-.684.663.17.257-.829.153.936.675.162-.568.414.158.932-.51-.68-.576.414Zm2.353-2.975.166.932.655.174-.555.414.17.932-.514-.684-.559.414.249-.829-.489-.7.655.174Zm-2.1-1.367-.493-.688.646.174.249-.829.149.94.646.174-.551.414.153.936-.5-.684-.559.414Z" transform="translate(-726.333 -652.504)" fill="#355585"/>
      <path id="Path_28009" data-name="Path 28009" d="M781.046,660.476l.137-.8.261.907.646.174-.481.381.265.9-.568-.663-.489.381.141-.8-.559-.667Z" transform="translate(-754.616 -661.248)" fill="#fff"/>
      <path id="Path_28010" data-name="Path 28010" d="M777.511,664.6l.655.174-.5.385.261.907-.568-.667-.505.389.153-.8-.559-.667.655.17.149-.8Z" transform="translate(-752.303 -663.597)" fill="#fff"/>
      <path id="Path_28011" data-name="Path 28011" d="M777.58,675.1l-.58-.659.675.166.157-.8.261.907.675.166-.514.394.265.9-.584-.663-.518.394Z" transform="translate(-752.625 -669.518)" fill="#fff"/>
      <path id="Path_28012" data-name="Path 28012" d="M779.379,684.975l-.526.4.269.9-.6-.659-.534.4.166-.8-.592-.655.7.157.162-.8.265.9Z" transform="translate(-752.953 -675.44)" fill="#fff"/>
      <path id="Path_28013" data-name="Path 28013" d="M778.827,694.834l.17-.8.273.9.713.157-.543.4.278.9-.617-.655-.551.406.174-.808-.613-.654Z" transform="translate(-753.275 -681.367)" fill="#fff"/>
      <path id="Path_28014" data-name="Path 28014" d="M768.791,662.286l.655.17-.514.394.236.912-.551-.671-.518.394.178-.808L767.73,662l.655.174.174-.808Z" transform="translate(-747.196 -662.238)" fill="#fff"/>
      <path id="Path_28015" data-name="Path 28015" d="M769.493,673.946l-.568-.667-.534.4.182-.808-.563-.667.675.166.182-.808.236.911.675.166-.526.4Z" transform="translate(-747.36 -668.206)" fill="#fff"/>
      <path id="Path_28016" data-name="Path 28016" d="M770.119,682.823l-.543.4.249.911-.584-.663-.551.4.191-.808-.58-.663.7.162.182-.812.244.911Z" transform="translate(-747.529 -674.175)" fill="#fff"/>
      <path id="Path_28017" data-name="Path 28017" d="M769.3,692.752l.191-.812.253.907.717.157-.564.406.257.9-.6-.655-.563.41.195-.816-.6-.655Z" transform="translate(-747.693 -680.143)" fill="#fff"/>
      <path id="Path_28018" data-name="Path 28018" d="M760.061,659.97l.655.174-.522.394.211.92-.539-.675-.53.4.2-.812-.534-.675.659.17.195-.812Z" transform="translate(-742.083 -660.88)" fill="#fff"/>
      <path id="Path_28019" data-name="Path 28019" d="M759.02,669.966l.675.17.2-.816.215.92.675.166-.543.4.22.92-.555-.671-.547.4.207-.816Z" transform="translate(-742.094 -666.895)" fill="#fff"/>
      <path id="Path_28020" data-name="Path 28020" d="M760.163,680.506l.7.162-.555.406.224.916-.572-.667-.563.406.211-.816-.563-.667.7.162.207-.816Z" transform="translate(-742.106 -672.91)" fill="#fff"/>
      <path id="Path_28021" data-name="Path 28021" d="M759.767,690.676l.215-.816.228.916.717.153-.576.41.232.911-.588-.659-.58.41.22-.82-.584-.659Z" transform="translate(-742.112 -678.925)" fill="#fff"/>
      <path id="Path_28022" data-name="Path 28022" d="M751.341,657.658l.655.17-.539.4.191.924-.526-.68-.543.4.22-.82-.518-.679.655.174.22-.82Z" transform="translate(-736.975 -659.521)" fill="#fff"/>
      <path id="Path_28023" data-name="Path 28023" d="M750.03,667.735l.675.166.224-.82.195.924.675.166-.555.406.195.924-.543-.675-.559.406.228-.82Z" transform="translate(-736.829 -665.583)" fill="#fff"/>
      <path id="Path_28024" data-name="Path 28024" d="M750.9,678.35l.7.162-.572.41.2.92-.555-.667-.58.41.236-.824-.551-.671.7.162.228-.82Z" transform="translate(-736.682 -671.644)" fill="#fff"/>
      <path id="Path_28025" data-name="Path 28025" d="M750.237,688.6l.236-.829.207.924.717.153-.588.414.207.92-.572-.663-.6.414.24-.824-.568-.667Z" transform="translate(-736.53 -677.701)" fill="#fff"/>
      <path id="Path_28026" data-name="Path 28026" d="M742.621,655.342l.655.174-.555.4.17.932-.514-.684-.559.406.249-.825-.505-.684.655.17.24-.824Z" transform="translate(-731.868 -658.162)" fill="#fff"/>
      <path id="Path_28027" data-name="Path 28027" d="M741.04,665.5l.675.166.244-.824.17.928.675.17-.568.406.174.932-.526-.68-.576.41.249-.829Z" transform="translate(-731.564 -664.271)" fill="#fff"/>
      <path id="Path_28028" data-name="Path 28028" d="M741.643,676.192l.7.162-.584.41.178.928-.543-.671-.592.414.257-.833-.534-.671.692.162.257-.833Z" transform="translate(-731.259 -670.374)" fill="#fff"/>
      <path id="Path_28029" data-name="Path 28029" d="M740.713,686.523l.261-.833.182.928.717.153-.6.419.182.928-.559-.667-.6.418.261-.833-.551-.671Z" transform="translate(-730.954 -676.482)" fill="#fff"/>
      <path id="Path_28030" data-name="Path 28030" d="M782.606,672.117l-.584-.659-.5.389.145-.8-.576-.663.663.17.145-.8.269.9.663.17-.5.389Z" transform="translate(-755.02 -667.152)" fill="#fff"/>
      <path id="Path_28031" data-name="Path 28031" d="M782.464,680.63l.149-.8.273.9.688.166-.514.389.278.9-.6-.655-.518.394.153-.8-.592-.659Z" transform="translate(-755.424 -673.05)" fill="#fff"/>
      <path id="Path_28032" data-name="Path 28032" d="M782.46,690.542l.7.157.157-.8.282.9.7.157-.53.4.286.895-.617-.65-.535.4.157-.8Z" transform="translate(-755.823 -678.948)" fill="#fff"/>
      <path id="Path_28033" data-name="Path 28033" d="M784.323,700.869l.725.149-.547.4.294.895-.634-.646-.551.406.166-.8-.626-.65.725.153.161-.8Z" transform="translate(-756.227 -684.846)" fill="#fff"/>
      <path id="Path_28034" data-name="Path 28034" d="M772.576,658.154l.157-.8.24.911.646.178-.5.385.245.907-.551-.667-.5.385.162-.8-.547-.675Z" transform="translate(-749.655 -659.884)" fill="#fff"/>
      <path id="Path_28035" data-name="Path 28035" d="M773.829,669.878l-.568-.663-.518.394.17-.808-.563-.667.667.17.166-.8.244.912.663.17-.51.39Z" transform="translate(-749.901 -665.829)" fill="#fff"/>
      <path id="Path_28036" data-name="Path 28036" d="M773.458,678.458l.17-.808.253.907.684.166-.526.4.257.9-.584-.659-.535.4.174-.808-.58-.663Z" transform="translate(-750.147 -671.773)" fill="#fff"/>
      <path id="Path_28037" data-name="Path 28037" d="M773.2,688.45l.7.158.178-.808.257.907.7.157-.543.4.261.9-.6-.655-.551.4.182-.808Z" transform="translate(-750.399 -677.718)" fill="#fff"/>
      <path id="Path_28038" data-name="Path 28038" d="M774.793,698.853l.725.153-.559.406.269.9-.617-.65-.568.406.186-.812-.609-.651.725.153.182-.812Z" transform="translate(-750.645 -683.663)" fill="#fff"/>
      <path id="Path_28039" data-name="Path 28039" d="M763.876,655.768l.182-.808.215.916.646.178-.51.389.22.916-.539-.671-.514.389.182-.808-.53-.675Z" transform="translate(-744.56 -658.484)" fill="#fff"/>
      <path id="Path_28040" data-name="Path 28040" d="M764.822,667.585l-.555-.667-.53.4.191-.812-.547-.671.667.17.186-.812.224.916.663.17-.526.394Z" transform="translate(-744.648 -664.476)" fill="#fff"/>
      <path id="Path_28041" data-name="Path 28041" d="M764.214,676.232l.195-.812.232.916.684.162-.543.4.236.911-.572-.663-.551.4.2-.816-.563-.663Z" transform="translate(-744.736 -670.467)" fill="#fff"/>
      <path id="Path_28042" data-name="Path 28042" d="M763.68,686.3l.7.162.2-.816.236.911.709.157-.559.406.24.911-.588-.659-.563.406.2-.816Z" transform="translate(-744.824 -676.459)" fill="#fff"/>
      <path id="Path_28043" data-name="Path 28043" d="M765,696.792l.725.153-.576.406.249.911-.6-.655-.58.41.211-.816-.6-.659.725.153.207-.816Z" transform="translate(-744.911 -682.45)" fill="#fff"/>
      <path id="Path_28044" data-name="Path 28044" d="M755.346,653.426l.2-.816.195.928.646.174-.526.394.2.924-.522-.68-.53.4.207-.816-.518-.679Z" transform="translate(-739.564 -657.108)" fill="#fff"/>
      <path id="Path_28045" data-name="Path 28045" d="M755.995,665.335l-.543-.675-.543.4.211-.816-.53-.68.663.17.211-.816.2.924.667.17-.539.4Z" transform="translate(-739.5 -663.146)" fill="#fff"/>
      <path id="Path_28046" data-name="Path 28046" d="M755.154,674.05l.216-.82.207.92.688.166-.555.406.211.916-.559-.667-.563.406.22-.82-.547-.671Z" transform="translate(-739.429 -669.185)" fill="#fff"/>
      <path id="Path_28047" data-name="Path 28047" d="M755.054,684.36l.224-.82.211.92.708.157-.576.41.22.916-.572-.663-.58.41.228-.82-.568-.667Z" transform="translate(-739.359 -675.223)" fill="#fff"/>
      <path id="Path_28048" data-name="Path 28048" d="M755.407,694.766l.725.153-.592.414.224.916-.588-.659-.592.414.232-.824-.584-.659.725.153.228-.825Z" transform="translate(-739.289 -681.261)" fill="#fff"/>
      <path id="Path_28049" data-name="Path 28049" d="M746.816,651.09l.228-.82.17.928.646.178-.539.4.178.928-.51-.68-.547.4.232-.824-.505-.684Z" transform="translate(-734.568 -655.737)" fill="#fff"/>
      <path id="Path_28050" data-name="Path 28050" d="M746.689,660.65l.178.932.663.17-.551.4.182.928-.526-.675-.564.4.236-.824-.518-.68.663.17Z" transform="translate(-734.346 -661.817)" fill="#fff"/>
      <path id="Path_28051" data-name="Path 28051" d="M746.088,671.864l.236-.824.186.928.684.166-.568.406.186.928-.543-.675-.576.41.244-.824-.539-.675Z" transform="translate(-734.117 -667.902)" fill="#fff"/>
      <path id="Path_28052" data-name="Path 28052" d="M745.724,682.259l.245-.829.191.924.708.162-.588.41.195.924-.559-.667-.592.414.249-.829-.551-.671Z" transform="translate(-733.895 -673.987)" fill="#fff"/>
      <path id="Path_28053" data-name="Path 28053" d="M745.807,692.744l.725.149-.6.418.2.924-.576-.663-.609.418.257-.829-.572-.667.729.153.249-.829Z" transform="translate(-733.666 -680.073)" fill="#fff"/>
      <path id="Path_28054" data-name="Path 28054" d="M738.122,648.709l.249-.829.149.936.646.174-.551.4.153.936-.5-.684-.559.406.257-.833-.489-.688Z" transform="translate(-729.479 -654.337)" fill="#fff"/>
      <path id="Path_28055" data-name="Path 28055" d="M736.82,659l.663.17.257-.833.153.936.667.17-.568.41.157.932-.51-.679-.576.406.261-.829Z" transform="translate(-729.092 -660.464)" fill="#fff"/>
      <path id="Path_28056" data-name="Path 28056" d="M736.844,669.643l.265-.833.161.932.684.166-.584.414.166.932-.53-.679-.588.414.265-.833-.522-.679Z" transform="translate(-728.705 -666.596)" fill="#fff"/>
      <path id="Path_28057" data-name="Path 28057" d="M735.5,679.955l.708.157.265-.833.17.932.7.157-.6.418.174.928-.547-.671-.6.419.269-.833Z" transform="translate(-728.319 -672.728)" fill="#fff"/>
      <path id="Path_28058" data-name="Path 28058" d="M736.022,690.678l.725.153-.617.423.178.928-.559-.667-.626.423.278-.837-.551-.671.725.153.273-.833Z" transform="translate(-727.938 -678.86)" fill="#fff"/>
    </g>
    <path id="Path_28060" data-name="Path 28060" d="M604.891,725.742c3.874-.265,7.764-1.1,9.695-3.1,2.038-2.109-3.24-2.072-8.8-1.537l3.1-5.622s2.266,1.989,3.907-.054.24-8.038-1.927-9.115-14.617-5.862-16.709-4.516a1.5,1.5,0,0,0-.191.149c-.025,0-.046.045-.066.066s-.087.079-.133.128l-.079.1c-.041.046-.079.091-.116.141l-.091.12-.108.153c-.033.045-.062.1-.1.145s-.07.108-.1.166l-.1.17-.1.17-.108.2-.091.17-.112.224-.083.174c-.041.079-.079.162-.116.245s-.054.112-.079.17l-.124.273c-.021.054-.046.1-.066.158s-.087.2-.128.3l-.062.145-.133.332-.05.124c-.05.12-.1.245-.145.365l-.037.1c-.05.128-.1.261-.145.394l-.029.075c-.05.141-.1.282-.153.414v.033c-.721,2.018-1.313,4.056-1.616,5.146h0c-.079.278-.137.493-.17.626h0l-.021.07v.083h0c-1.922,3.7-3.571,7.458-3.571,7.458a15.261,15.261,0,0,0,8.489,4.653,4.332,4.332,0,0,0,.692.158h.108a34.84,34.84,0,0,0,9.832.414Z" transform="translate(-342.782 -410.484)" fill="#ffac43"/>
    <path id="Path_28061" data-name="Path 28061" d="M695.45,697.07l19.866,9.173a12.607,12.607,0,0,0,6.293,1.119l8.12-.663a1.027,1.027,0,0,0,.286-1.984l-8.729-3.364Z" transform="translate(-406.921 -407.855)" fill="#6c6c6c"/>
    <ellipse id="Ellipse_4620" data-name="Ellipse 4620" cx="11.758" cy="6.459" rx="11.758" ry="6.459" transform="translate(284.821 396.886)" fill="#b7b7b7"/>
    <ellipse id="Ellipse_4621" data-name="Ellipse 4621" cx="8.821" cy="4.847" rx="8.821" ry="4.847" transform="translate(287.758 398.498)" fill="#919191"/>
    <g id="Group_1225" data-name="Group 1225" transform="translate(131.13 290.385)">
      <path id="Rectangle_745" data-name="Rectangle 745" d="M328.014,699.976l259.157,36.65c3.356.472,5.8,2.938,5.419,5.506l-5.7,40.292c-.36,2.569-3.377,4.263-6.728,3.791L321,749.565c-3.356-.477-5.8-2.942-5.419-5.51l5.7-40.292C321.646,701.182,324.662,699.5,328.014,699.976Z" transform="translate(-315.545 -699.895)" fill="#fff"/>
    </g>
    <text id="MOTOR_VEHICLE_RECORD" data-name="MOTOR VEHICLE RECORD" transform="translate(154.176 324.565) rotate(7.83)" fill="#5fceb7" font-size="17" font-family="Montserrat-Black, Montserrat" font-weight="800"><tspan x="0" y="0">M</tspan><tspan y="0" letter-spacing="-0.01em">OT</tspan><tspan y="0">OR </tspan><tspan y="0" letter-spacing="-0.02em">V</tspan><tspan y="0">EHICLE RE</tspan><tspan y="0" letter-spacing="-0.02em">C</tspan><tspan y="0">ORD</tspan></text>
    <path id="Path_28062" data-name="Path 28062" d="M630.175,702.04s9.069,13.784,3.638,20.368-19.887-4.363-19.887-4.363L609,701Z" transform="translate(-356.288 -410.157)" fill="#ffac43"/>
    <path id="Path_28063" data-name="Path 28063" d="M884,758.813s3.314,12.844,11.186,16.573c7.367,3.489,8.97-3.542,9.115-9.5a7.043,7.043,0,0,0-6.9-7.209Z" transform="translate(-517.352 -443.94)" fill="#ffac43"/>
    <path id="Path_28064" data-name="Path 28064" d="M864.656,766.511s-7.669-2.859-9.173-1.2L854,766.95s5.262,4.885,11.651,2.233S864.656,766.511,864.656,766.511Z" transform="translate(-499.782 -447.52)" fill="#ffac43"/>
    <path id="Path_28065" data-name="Path 28065" d="M518.473,1099.315l1.657,3.314s24.03-.414,26.93,1.243h0a1.62,1.62,0,0,1,.468,2.32l-7.511,10.938H499L511.429,1096Z" transform="translate(-291.863 -641.504)" fill="#fff"/>
    <line id="Line_3312" data-name="Line 3312" x1="10.664" y2="7.395" transform="translate(234.03 457.33)" fill="none" stroke="#b7b7b7" stroke-linecap="round" stroke-miterlimit="10" stroke-width="2"/>
    <line id="Line_3313" data-name="Line 3313" x1="10.664" y2="7.391" transform="translate(231.685 455.482)" fill="none" stroke="#b7b7b7" stroke-linecap="round" stroke-miterlimit="10" stroke-width="2"/>
    <path id="Path_28066" data-name="Path 28066" d="M744.656,1105l.924,1.657s22.787.829,25.687,2.486a3.954,3.954,0,0,1,1.243,1.243V1122.4H734V1105Z" transform="translate(-429.499 -646.775)" fill="#fff"/>
    <rect id="Rectangle_18945" data-name="Rectangle 18945" width="38.531" height="6.629" transform="translate(304.48 469.014)" fill="#b7b7b7"/>
    <line id="Line_3314" data-name="Line 3314" x1="10.664" y2="7.395" transform="translate(321.865 457.33)" fill="none" stroke="#b7b7b7" stroke-linecap="round" stroke-miterlimit="10" stroke-width="2"/>
    <line id="Line_3315" data-name="Line 3315" x1="10.664" y2="7.391" transform="translate(319.52 455.482)" fill="none" stroke="#b7b7b7" stroke-linecap="round" stroke-miterlimit="10" stroke-width="2"/>
    <path id="Path_28067" data-name="Path 28067" d="M502.849,1131.04l-3.9,6.629h41.017l4.562-6.629Z" transform="translate(-291.833 -662.026)" fill="#b7b7b7"/>
    <path id="Path_28068" data-name="Path 28068" d="M1317.988,848.856a.34.34,0,0,1,.211-.133,1.4,1.4,0,0,1,.389-.054,10.153,10.153,0,0,1,1.2.153,6.944,6.944,0,0,1,.783.24,4.745,4.745,0,0,1,.663.29,2.449,2.449,0,0,1,.472.307.625.625,0,0,1,.207.29v.037a.1.1,0,0,1,0,.033.077.077,0,0,1,0,.029v.029l-51.988,85.452h-.066a3.158,3.158,0,0,1-.352-.186c-.166-.1-.365-.216-.593-.36s-.476-.3-.742-.476l-.829-.543c-.232-.157-.439-.307-.625-.439s-.344-.248-.472-.348-.232-.178-.3-.236-.1-.1-.091-.1Z" transform="translate(-741.002 -496.646)"/>
    <path id="Path_28069" data-name="Path 28069" d="M1266.012,1053.891l.087.414-6.629,6.629,2.648-9.33h0a3.074,3.074,0,0,1,3.894,2.287Z" transform="translate(-737.26 -615.424)" fill="#fdc994"/>
    <path id="Path_28070" data-name="Path 28070" d="M1262.055,1066.449a.971.971,0,0,1,.215.294l-2.8,2.8.912-3.207A1.687,1.687,0,0,1,1262.055,1066.449Z" transform="translate(-737.26 -624.034)" fill="#24c0a0"/>
    <path id="Path_28071" data-name="Path 28071" d="M1350.648,910.322s3.886.974,5.859-.858,2.544-4.417,1.28-5.775-3.886-.978-5.854.853S1350.648,910.322,1350.648,910.322Z" transform="translate(-790.595 -528.393)" fill="#909090"/>
    <ellipse id="Ellipse_4622" data-name="Ellipse 4622" cx="2.689" cy="4.702" rx="2.689" ry="4.702" transform="translate(564.29 382.143) rotate(-57.63)" fill="#909090"/>
    <path id="Path_28072" data-name="Path 28072" d="M1381.688,923.938c.079,1.852,3.149,3.227,6.853,3.07s6.323-6.016,6.323-6.016a22.594,22.594,0,0,0-6.6-.692C1384.551,920.454,1381.609,922.082,1381.688,923.938Z" transform="translate(-808.841 -538.586)" fill="#909090"/>
    <path id="Path_28073" data-name="Path 28073" d="M1351.169,909.38a10.053,10.053,0,0,0-.108,3.613s3.886.974,5.858-.853a6.662,6.662,0,0,0,1.425-1.885,6.156,6.156,0,0,1-1.839,3.02c-1.972,1.831-5.858.858-5.858.858A8.9,8.9,0,0,1,1351.169,909.38Z" transform="translate(-790.594 -532.203)" fill="#6c6c6c"/>
    <path id="Path_28074" data-name="Path 28074" d="M1364.43,920.419a7.61,7.61,0,0,0,1.8,1.578c2.192,1.388,4.616,1.5,5.411.249a2.113,2.113,0,0,0,.041-1.927c.932,1.143,1.243,2.374.733,3.211-.8,1.243-3.215,1.143-5.411-.249A6.41,6.41,0,0,1,1364.43,920.419Z" transform="translate(-798.734 -538.61)" fill="#6c6c6c"/>
    <path id="Path_28075" data-name="Path 28075" d="M1381.76,924.731c1.16,1.04,3.443,1.686,6.049,1.579,2.743-.12,4.881-3.348,5.8-5.03.808.153,1.284.294,1.284.294s-2.614,5.862-6.322,6.02C1385.021,927.747,1382.054,926.48,1381.76,924.731Z" transform="translate(-808.884 -539.172)" fill="#6c6c6c"/>
    <path id="Path_28076" data-name="Path 28076" d="M1364.57,892.9s.046-8.311,1.765-9.765,5.469-1.682,5.7.684-.742,1.218-.829.891.493-.829.493-.829a1.731,1.731,0,0,0-2.109-1.558c-2.039.153-2.937.717-3.431,1.525s-1.243,5.892-1.214,6.215-.062,2.755-.062,2.755S1364.649,893.207,1364.57,892.9Z" transform="translate(-798.816 -516.187)" fill="#6c6c6c"/>
    <path id="Path_28077" data-name="Path 28077" d="M1356.957,886.52s-2.627-10.772-.58-12.305,3.836-1.28,4.077-.3-.1,2.445-.584,1.873.17-.733.17-.733.829-.891-.646-1.243-2.768,0-3.1,1.45a7.986,7.986,0,0,0-.265,3.174c.071,1.711,1.243,7.992,1.243,7.992S1357.363,886.769,1356.957,886.52Z" transform="translate(-793.561 -510.967)" fill="#6c6c6c"/>
    <path id="Path_28078" data-name="Path 28078" d="M1398.322,945.9c-.373.22-3.054-.215-3.431,0l-4.031-7.872-.8-3.29,1.322.315,1,3.344Z" transform="translate(-813.745 -547.056)" fill="#6c6c6c"/>
    <path id="Path_28079" data-name="Path 28079" d="M1408.854,936.181l1.657-12.429s-13.627.862-13.706.887c0,0-.539-.621-.555-.617L1413,921.68l-.414,14.779Z" transform="translate(-817.371 -539.407)" fill="#6c6c6c"/>
    <path id="Path_28080" data-name="Path 28080" d="M1381.077,897.309l-9.107,8.071.406-1.028,8.286-9.115,16.577-.568.2,1.487-.261.017Z" transform="translate(-803.15 -523.587)" fill="#6c6c6c"/>
    <rect id="Rectangle_18946" data-name="Rectangle 18946" width="42.674" height="58.472" rx="3" transform="translate(569.524 396.36)" fill="#d9d9d9"/>
    <path id="Path_28081" data-name="Path 28081" d="M1374.6,661.185,1448,640.23a3.513,3.513,0,0,1,4.338,2.411l28.293,99.108a3.509,3.509,0,0,1-2.411,4.338l-73.4,20.956a3.513,3.513,0,0,1-4.342-2.411l-28.294-99.108a3.509,3.509,0,0,1,2.411-4.338Z" transform="translate(-803.198 -374.486)" fill="#fff"/>
    <path id="Path_28082" data-name="Path 28082" d="M1450.178,853.569l58.4-16.668a1.8,1.8,0,0,1,.99,3.468h0l-58.418,16.676a1.8,1.8,0,0,1-2.225-1.243h0a1.8,1.8,0,0,1,1.243-2.229h0" transform="translate(-848.18 -489.712)" fill="#b7b7b7"/>
    <path id="Path_28083" data-name="Path 28083" d="M1443.231,831.158l58.418-16.676a1.8,1.8,0,1,1,.99,3.468l-58.418,16.672a1.8,1.8,0,0,1-2.229-1.243h0a1.8,1.8,0,0,1,1.243-2.225" transform="translate(-844.121 -476.581)" fill="#b7b7b7"/>
    <path id="Path_28084" data-name="Path 28084" d="M1436.245,808.758l58.418-16.676a1.8,1.8,0,0,1,2.229,1.243h0a1.8,1.8,0,0,1-1.243,2.229h0l-58.418,16.672a1.8,1.8,0,0,1-2.229-1.243h0a1.8,1.8,0,0,1,1.243-2.225" transform="translate(-840.027 -463.462)" fill="#b7b7b7"/>
    <path id="Path_28085" data-name="Path 28085" d="M1424.56,773.7l26.359-7.926a1.8,1.8,0,1,1,.99,3.468l-26.338,7.926a1.8,1.8,0,0,1-2.229-1.243h0a1.8,1.8,0,0,1,1.243-2.225" transform="translate(-833.198 -448.052)" fill="#b7b7b7"/>
    <path id="Path_28086" data-name="Path 28086" d="M1417.558,751.3l26.35-7.926a1.8,1.8,0,0,1,2.229,1.243h0a1.8,1.8,0,0,1-1.243,2.229h0l-26.342,7.934a1.8,1.8,0,0,1-2.229-1.243h0a1.806,1.806,0,0,1,1.243-2.229" transform="translate(-829.087 -434.933)" fill="#b7b7b7"/>
    <path id="Path_28087" data-name="Path 28087" d="M1422.413,899.527,1421,897h5.7a.414.414,0,0,1,.19.754l-3.861,1.914a.414.414,0,0,1-.613-.141Z" transform="translate(-831.867 -524.952)" fill="#6c6c6c"/>
    <path id="Path_28088" data-name="Path 28088" d="M1349.494,927.987l-4.93,2.95-1.964,3.223,7.909-5.295,3.033-4.325-.874-.34Z" transform="translate(-785.949 -540.883)" fill="#6c6c6c"/>
    <path id="Path_28089" data-name="Path 28089" d="M1326.81,952.21l-.414.24a.415.415,0,0,0-.12.6Z" transform="translate(-776.341 -557.288)" fill="#6c6c6c"/>
    <path id="Path_28090" data-name="Path 28090" d="M1327.053,947l-1.989,1.193a1.657,1.657,0,0,0,.108,2.9.581.581,0,0,0,.224.07c.414,0,2.486.414,3.314-.414s-2.072-.414-2.486-.829-.646-.6-.646-.6Z" transform="translate(-775.208 -554.236)" fill="#6c6c6c"/>
    <path id="Path_28091" data-name="Path 28091" d="M1340.3,944.039s-2.13,2.929-3.116,2.486,1.8-1.413,2.42-2.4S1342.562,941.645,1340.3,944.039Z" transform="translate(-782.654 -551.748)" fill="#6c6c6c"/>
    <path id="Path_28092" data-name="Path 28092" d="M1531.2,701.591l-.087.054a24.7,24.7,0,0,0-2.9,2.15l-1.318,1.148-1.214,1.21a45.97,45.97,0,0,0-4.363,5.1,49.447,49.447,0,0,0-3.7,5.535c-.634,1.069-1.218,2.167-1.773,3.281-.692-.244-1.392-.468-2.113-.675-.982-.323-2.022-.526-3.049-.762a25.238,25.238,0,0,0-3.244-.447h-.1a.212.212,0,0,0-.224.2.207.207,0,0,0,.1.191c3.389,2.159,6.824,4.238,10.259,6.322a.414.414,0,0,0,.534-.137c2.316-3.774,4.6-7.569,6.824-11.406l3.364-5.73c1.131-1.9,2.2-3.849,3.315-5.771a.215.215,0,0,0-.079-.29.211.211,0,0,0-.22,0Z" transform="translate(-882.305 -410.471)" fill="#24c1a1"/>
    <path id="Path_28093" data-name="Path 28093" d="M1228.593,1074.373a1.678,1.678,0,0,1-1.019-.257,43.005,43.005,0,0,0-3.866,4.557,46.584,46.584,0,0,0-3.439,5.15c-.593.994-1.131,2.018-1.657,3.053-.646-.224-1.3-.414-1.968-.626-.911-.3-1.881-.489-2.838-.708a23.949,23.949,0,0,0-3.02-.414h-.079a.195.195,0,0,0-.207.186.2.2,0,0,0,.091.178c3.153,2.009,6.351,3.944,9.529,5.883a.365.365,0,0,0,.5-.128c2.154-3.513,4.284-7.043,6.351-10.615l3.132-5.336c.269-.452.534-.912.8-1.367A10.725,10.725,0,0,1,1228.593,1074.373Z" transform="translate(-708.579 -628.578)" fill="#24c1a1"/>
  </g>
</svg>
