<svg xmlns="http://www.w3.org/2000/svg" width="177.446" height="178.598" viewBox="0 0 177.446 178.598">
  <g id="Layer_34" data-name="Layer 34" transform="translate(-594.135 -285.629)">
    <path id="Path_12815" data-name="Path 12815" d="M750.047,349.194c21.4,31.271,23.155,78.77-.7,99.69-37.091,32.532-137.871,2.382-146.594-50.981-5.9-36.07,29.923-84.837,75.665-87.778C720.558,307.4,747.255,345.115,750.047,349.194Z" fill="#f3f3f3"/>
    <path id="Path_12816" data-name="Path 12816" d="M651.118,447.541l-21.082-6.027a1.672,1.672,0,0,1-1.905-.881,2.713,2.713,0,0,1,.044-1.859l25.518-81.329a1.684,1.684,0,0,1,.706-.922l22.552-5.931Z" fill="#6c6c6c" opacity="0.2" style="isolation: isolate"/>
    <path id="Path_12818" data-name="Path 12818" d="M700.736,464.174a4.192,4.192,0,0,1-.742.052l-74.738-2.037a3.844,3.844,0,0,1-3.75-3.936v-.006h0l2.753-100.922a3.852,3.852,0,0,1,3.949-3.738l74.739,2.032h0a3.846,3.846,0,0,1,3.739,3.948l-2.754,100.921A3.848,3.848,0,0,1,700.736,464.174ZM627.613,354.438a3.036,3.036,0,0,0-2.541,2.908L622.33,458.264a3.03,3.03,0,0,0,2.943,3.114h.005l74.737,2.035a3.033,3.033,0,0,0,3.114-2.949h0l2.754-100.921a3.032,3.032,0,0,0-2.946-3.113h0L628.19,354.4a3.029,3.029,0,0,0-.579.038Z" fill="#344566"/>
    <path id="Path_12830" data-name="Path 12830" d="M649.995,447l25.816-96.942,79.026,11.882a2.4,2.4,0,0,1,3.076,2.889l-22.88,85.881a8.153,8.153,0,0,1-5.115,5.572Z" fill="#ffc06e"/>
    <path id="Path_12830-2" data-name="Path 12830-2" d="M651.338,444.072l24.022-89.855a.593.593,0,0,1,.386-.411l72.665,14a2.993,2.993,0,0,1,3.861,3.527l-18.608,78.822a7.246,7.246,0,0,1-4.6,5.154l-76.945-10.521a.6.6,0,0,1-.763-.371.588.588,0,0,1-.014-.345Z" fill="#6c6c6c" opacity="0.2" style="isolation: isolate"/>
    <path id="Path_12830-3" data-name="Path 12830-3" d="M649.836,444.8l21.1-89.387a.553.553,0,0,1,.362-.4l71.713,8.475a3.049,3.049,0,0,1,3.767,3.609l-16.152,78.464a6.733,6.733,0,0,1-4.3,5.059L650.6,445.534a.608.608,0,0,1-.76-.736Z" fill="#ededed"/>
    <path id="Path_12830-4" data-name="Path 12830-4" d="M649.526,444.037l19.637-90.906a.537.537,0,0,1,.353-.4l70.654,9.045c2.085-.682,4.217,1.424,3.787,3.735l-14.889,79.83a6.563,6.563,0,0,1-4.186,5.1l-74.6-5.637a.63.63,0,0,1-.758-.763Z" fill="#fff"/>
    <path id="Path_12831" data-name="Path 12831" d="M675.82,350.056,660.16,310.27a1.447,1.447,0,0,0-1.932-.677l-.005,0c-.369.179-29.289,94.772-29.289,94.772a7.044,7.044,0,0,0,.9,5.975l20.157,36.667Z" fill="#ffc57b"/>
    <g id="Group_34772" data-name="Group 34772">
      <g id="Group_34763" data-name="Group 34763">
        <path id="Path_12892" data-name="Path 12892" d="M676.491,364.954l-.5-.791a3.168,3.168,0,0,0,1.593-2.143,4.556,4.556,0,0,0-.974-3.127c-3.646-3.477-7.621.051-7.789.206l-.631-.691c.048-.044,4.8-4.3,9.093-.168l.038.042a5.5,5.5,0,0,1,1.177,3.9A4.052,4.052,0,0,1,676.491,364.954Z" fill="#d89444"/>
        <path id="Path_12893" data-name="Path 12893" d="M676.094,355.7a5.5,5.5,0,0,0-7.568,1.439,3.866,3.866,0,0,0-.352.852.664.664,0,0,0-.2.765.492.492,0,0,0,.038.092.663.663,0,0,0,1.184-.586.566.566,0,0,0-.084-.15,3.145,3.145,0,0,1,.221-.521,3.4,3.4,0,0,1,1.752-1.5,5.409,5.409,0,0,1,4.556.424,5.667,5.667,0,0,1,2.551,2.776,3.6,3.6,0,0,1-.1,3.126,3.336,3.336,0,0,1-1.35,1.317.667.667,0,0,0-.5,0,.647.647,0,0,0-.35.34.663.663,0,0,0,.318.881h0a.665.665,0,0,0,.879-.335v0l.009-.022a4.244,4.244,0,0,0,1.8-1.732,4.509,4.509,0,0,0,.139-3.926A6.584,6.584,0,0,0,676.094,355.7Z" fill="#6c6c6c"/>
      </g>
      <g id="Group_34764" data-name="Group 34764">
        <path id="Path_12894" data-name="Path 12894" d="M674.149,373.8l-.5-.791a3.165,3.165,0,0,0,1.6-2.135,4.553,4.553,0,0,0-.971-3.126c-3.651-3.477-7.624.052-7.791.2l-.63-.693c.047-.043,4.8-4.3,9.093-.165l.038.041a5.514,5.514,0,0,1,1.188,3.893A4.053,4.053,0,0,1,674.149,373.8Z" fill="#d89444"/>
        <path id="Path_12895" data-name="Path 12895" d="M673.745,364.547a5.51,5.51,0,0,0-7.57,1.434,3.935,3.935,0,0,0-.349.853.661.661,0,0,0-.2.766.434.434,0,0,0,.038.092.663.663,0,0,0,1.184-.586.523.523,0,0,0-.086-.15,3.135,3.135,0,0,1,.221-.52,3.409,3.409,0,0,1,1.743-1.5,5.412,5.412,0,0,1,4.56.434,5.656,5.656,0,0,1,2.548,2.776,3.6,3.6,0,0,1-.09,3.126,3.313,3.313,0,0,1-1.349,1.316.661.661,0,0,0-.848.343.663.663,0,0,0,1.216.53h0a4.263,4.263,0,0,0,1.8-1.734,4.51,4.51,0,0,0,.142-3.92,6.574,6.574,0,0,0-2.959-3.265Z" fill="#6c6c6c"/>
      </g>
      <g id="Group_34765" data-name="Group 34765">
        <path id="Path_12896" data-name="Path 12896" d="M671.62,382.737l-.5-.791a3.177,3.177,0,0,0,1.593-2.144,4.556,4.556,0,0,0-.974-3.127c-3.646-3.474-7.619.058-7.79.206l-.631-.693c.048-.043,4.8-4.3,9.093-.168l.039.043a5.508,5.508,0,0,1,1.176,3.9A4.052,4.052,0,0,1,671.62,382.737Z" fill="#d89444"/>
        <path id="Path_12897" data-name="Path 12897" d="M671.215,373.49a5.5,5.5,0,0,0-7.57,1.434,4.053,4.053,0,0,0-.351.852.664.664,0,0,0-.2.765.485.485,0,0,0,.04.1.663.663,0,0,0,1.183-.591.608.608,0,0,0-.086-.148,2.979,2.979,0,0,1,.221-.52,3.4,3.4,0,0,1,1.753-1.5,5.42,5.42,0,0,1,4.559.433,5.674,5.674,0,0,1,2.549,2.777,3.6,3.6,0,0,1-.091,3.125,3.334,3.334,0,0,1-1.348,1.318.67.67,0,0,0-.5,0,.65.65,0,0,0-.349.339.664.664,0,0,0,.322.88h0a.669.669,0,0,0,.88-.337l.009-.022a4.27,4.27,0,0,0,1.8-1.741,4.507,4.507,0,0,0,.139-3.928A6.569,6.569,0,0,0,671.215,373.49Z" fill="#6c6c6c"/>
      </g>
      <g id="Group_34766" data-name="Group 34766">
        <path id="Path_12898" data-name="Path 12898" d="M669.134,391.788l-.5-.791a3.175,3.175,0,0,0,1.6-2.135,4.561,4.561,0,0,0-.974-3.133c-3.649-3.472-7.621.059-7.79.206l-.631-.692c.046-.043,4.8-4.3,9.091-.167l.039.042a5.514,5.514,0,0,1,1.187,3.893,4.053,4.053,0,0,1-2.018,2.779Z" fill="#d89444"/>
        <path id="Path_12899" data-name="Path 12899" d="M668.736,382.559a5.5,5.5,0,0,0-7.57,1.435,3.856,3.856,0,0,0-.352.851.667.667,0,0,0-.2.766.492.492,0,0,0,.038.092.662.662,0,0,0,.817.278.549.549,0,0,0,.107-.057.663.663,0,0,0,.268-.813.627.627,0,0,0-.086-.149,2.841,2.841,0,0,1,.221-.521,3.4,3.4,0,0,1,1.742-1.5,5.421,5.421,0,0,1,4.561.432,5.679,5.679,0,0,1,2.546,2.776,3.582,3.582,0,0,1-.09,3.125,3.334,3.334,0,0,1-1.348,1.318.66.66,0,0,0-.5,0,.647.647,0,0,0-.35.34.662.662,0,0,0,.32.88h0a.661.661,0,0,0,.875-.335h0l.01-.023a4.281,4.281,0,0,0,1.79-1.744,4.511,4.511,0,0,0,.138-3.928A6.565,6.565,0,0,0,668.736,382.559Z" fill="#6c6c6c"/>
      </g>
      <g id="Group_34767" data-name="Group 34767">
        <path id="Path_12900" data-name="Path 12900" d="M666.775,400.95l-.5-.791a3.165,3.165,0,0,0,1.593-2.143,4.562,4.562,0,0,0-.973-3.127c-3.649-3.475-7.619.058-7.79.206l-.632-.693c.048-.043,4.8-4.3,9.093-.167l.039.041a5.51,5.51,0,0,1,1.176,3.9A4.053,4.053,0,0,1,666.775,400.95Z" fill="#d89444"/>
        <path id="Path_12901" data-name="Path 12901" d="M666.378,391.7a5.508,5.508,0,0,0-7.572,1.43,3.969,3.969,0,0,0-.35.851.663.663,0,0,0-.209.766.465.465,0,0,0,.038.093.662.662,0,0,0,.811.268.551.551,0,0,0,.107-.057.662.662,0,0,0,.255-.8.512.512,0,0,0-.086-.148,3.181,3.181,0,0,1,.221-.521,3.408,3.408,0,0,1,1.743-1.5,5.421,5.421,0,0,1,4.576.429,5.669,5.669,0,0,1,2.55,2.778,3.59,3.59,0,0,1-.092,3.124,3.337,3.337,0,0,1-1.347,1.318.668.668,0,0,0-.5,0,.657.657,0,0,0-.35.34.664.664,0,1,0,1.217.532,4.258,4.258,0,0,0,1.79-1.739,4.512,4.512,0,0,0,.143-3.918A6.594,6.594,0,0,0,666.378,391.7Z" fill="#6c6c6c"/>
      </g>
      <g id="Group_34768" data-name="Group 34768">
        <path id="Path_12902" data-name="Path 12902" d="M664.345,410.172l-.5-.792a3.155,3.155,0,0,0,1.591-2.143,4.558,4.558,0,0,0-.971-3.128c-3.649-3.475-7.621.059-7.79.206l-.632-.693c.047-.042,4.8-4.3,9.092-.166l.038.041a5.506,5.506,0,0,1,1.175,3.878A4.053,4.053,0,0,1,664.345,410.172Z" fill="#d89444"/>
        <path id="Path_12903" data-name="Path 12903" d="M663.943,400.927a5.5,5.5,0,0,0-7.57,1.435,3.979,3.979,0,0,0-.352.851.664.664,0,0,0-.2.766.5.5,0,0,0,.038.092.663.663,0,0,0,1.186-.587.569.569,0,0,0-.086-.149,2.989,2.989,0,0,1,.221-.521,3.4,3.4,0,0,1,1.752-1.5,5.423,5.423,0,0,1,4.562.433,5.674,5.674,0,0,1,2.55,2.77,3.6,3.6,0,0,1-.091,3.126,3.314,3.314,0,0,1-1.348,1.315.68.68,0,0,0-.5,0,.652.652,0,0,0-.349.34.66.66,0,0,0,.319.878h0a.664.664,0,0,0,.878-.335l.01-.024a4.257,4.257,0,0,0,1.8-1.722,4.514,4.514,0,0,0,.139-3.928A6.577,6.577,0,0,0,663.943,400.927Z" fill="#6c6c6c"/>
      </g>
      <g id="Group_34769" data-name="Group 34769">
        <path id="Path_12904" data-name="Path 12904" d="M662,419.285l-.5-.792a3.175,3.175,0,0,0,1.592-2.146,4.554,4.554,0,0,0-.971-3.126c-3.649-3.475-7.623.053-7.791.2l-.629-.694c.046-.042,4.8-4.3,9.092-.165l.038.042a5.523,5.523,0,0,1,1.187,3.893A4.053,4.053,0,0,1,662,419.285Z" fill="#d89444"/>
        <path id="Path_12905" data-name="Path 12905" d="M661.595,410.041a5.506,5.506,0,0,0-7.57,1.434,3.9,3.9,0,0,0-.35.851.659.659,0,0,0-.2.765.527.527,0,0,0,.037.093.663.663,0,0,0,1.185-.587.616.616,0,0,0-.086-.149,3.182,3.182,0,0,1,.221-.521,3.4,3.4,0,0,1,1.752-1.5,5.42,5.42,0,0,1,4.562.433,5.677,5.677,0,0,1,2.546,2.775,3.6,3.6,0,0,1-.091,3.126,3.317,3.317,0,0,1-1.348,1.316.667.667,0,0,0-.5,0,.647.647,0,0,0-.35.34A.664.664,0,1,0,662.6,419l0-.008.021-.046a4.283,4.283,0,0,0,1.8-1.732,4.518,4.518,0,0,0,.135-3.938A6.585,6.585,0,0,0,661.595,410.041Z" fill="#6c6c6c"/>
      </g>
      <g id="Group_34770" data-name="Group 34770">
        <path id="Path_12906" data-name="Path 12906" d="M659.649,428.315l-.5-.791a3.168,3.168,0,0,0,1.595-2.144,4.554,4.554,0,0,0-.972-3.128c-3.648-3.475-7.623.052-7.79.2l-.632-.693c.049-.043,4.8-4.3,9.094-.167l.038.042a5.514,5.514,0,0,1,1.188,3.893A4.054,4.054,0,0,1,659.649,428.315Z" fill="#d89444"/>
        <path id="Path_12907" data-name="Path 12907" d="M659.245,419.068a5.51,5.51,0,0,0-7.57,1.434,3.985,3.985,0,0,0-.349.853.663.663,0,0,0-.2.765.5.5,0,0,0,.038.093.662.662,0,0,0,1.184-.586.51.51,0,0,0-.086-.15,3.182,3.182,0,0,1,.221-.521,3.4,3.4,0,0,1,1.753-1.5,5.41,5.41,0,0,1,4.561.433,5.672,5.672,0,0,1,2.546,2.775,3.588,3.588,0,0,1-.091,3.126A3.317,3.317,0,0,1,659.9,427.1a.66.66,0,0,0-.5,0,.641.641,0,0,0-.35.34.661.661,0,0,0,.32.88h0a.662.662,0,0,0,.876-.332h0l.011-.026a4.242,4.242,0,0,0,1.8-1.733,4.514,4.514,0,0,0,.139-3.928A6.585,6.585,0,0,0,659.245,419.068Z" fill="#6c6c6c"/>
      </g>
      <g id="Group_34771" data-name="Group 34771">
        <path id="Path_12908" data-name="Path 12908" d="M657.242,437.032l-.5-.791a3.172,3.172,0,0,0,1.592-2.146,4.547,4.547,0,0,0-.973-3.125c-3.649-3.478-7.621.051-7.79.2l-.632-.693c.049-.041,4.8-4.288,9.094-.166l.037.043a5.5,5.5,0,0,1,1.187,3.893A4.058,4.058,0,0,1,657.242,437.032Z" fill="#d89444"/>
        <path id="Path_12909" data-name="Path 12909" d="M656.841,427.782a5.5,5.5,0,0,0-7.568,1.44,3.973,3.973,0,0,0-.35.851.66.66,0,0,0-.2.765.421.421,0,0,0,.038.093.663.663,0,0,0,.815.279.808.808,0,0,0,.105-.056.664.664,0,0,0,.268-.814.626.626,0,0,0-.087-.15,3.176,3.176,0,0,1,.221-.52,3.411,3.411,0,0,1,1.753-1.5,5.413,5.413,0,0,1,4.559.433,5.658,5.658,0,0,1,2.548,2.775,3.6,3.6,0,0,1-.09,3.125,3.313,3.313,0,0,1-1.349,1.316.68.68,0,0,0-.5,0,.645.645,0,0,0-.348.339.664.664,0,0,0,1.2.576l.021-.046a4.29,4.29,0,0,0,1.8-1.733,4.515,4.515,0,0,0,.134-3.924A6.587,6.587,0,0,0,656.841,427.782Z" fill="#6c6c6c"/>
      </g>
    </g>
    <circle id="Ellipse_4168" data-name="Ellipse 4168" cx="5.757" cy="5.757" r="5.757" transform="translate(760.067 395.8)" fill="#5673aa"/>
    <circle id="Ellipse_4169" data-name="Ellipse 4169" cx="3.236" cy="3.236" r="3.236" transform="translate(594.135 432.837)" fill="#5673aa"/>
    <circle id="Ellipse_4170" data-name="Ellipse 4170" cx="3.236" cy="3.236" r="3.236" transform="translate(640.758 319.404)" fill="#5673aa"/>
    <path id="Path_23744" data-name="Path 23744" d="M718.2,358.178s1.931,3.317,4.506,3.443,4.734-1.213,4.821-2.989-1.931-3.317-4.508-3.444S718.2,358.178,718.2,358.178Z" fill="#5673a8"/>
    <ellipse id="Ellipse_4364" data-name="Ellipse 4364" cx="2.576" cy="4.508" rx="2.576" ry="4.508" transform="translate(719.886 360.174)" fill="#5673a8"/>
    <path id="Path_23745" data-name="Path 23745" d="M721.684,368.732c-1.461,1.016-1,4.206,1.03,7.126s8.12,2.027,8.12,2.027a21.665,21.665,0,0,0-2.831-5.7C725.973,369.262,723.141,367.716,721.684,368.732Z" fill="#5673a8"/>
    <path id="Path_23746" data-name="Path 23746" d="M721.8,355.354a9.572,9.572,0,0,0-2.549,2.344s1.931,3.317,4.508,3.444a6.363,6.363,0,0,0,2.248-.284,5.866,5.866,0,0,1-3.308.761c-2.58-.125-4.506-3.443-4.506-3.443A8.481,8.481,0,0,1,721.8,355.354Z" fill="#355585"/>
    <path id="Path_23747" data-name="Path 23747" d="M720.882,361.127a7.178,7.178,0,0,0-.352,2.267c0,2.49,1.154,4.51,2.579,4.51a2.013,2.013,0,0,0,1.579-.953c-.446,1.338-1.272,2.241-2.223,2.241-1.425,0-2.58-2.027-2.58-4.51A6.159,6.159,0,0,1,720.882,361.127Z" fill="#355585"/>
    <path id="Path_23748" data-name="Path 23748" d="M721.527,368.865c-.245,1.474.4,3.653,1.83,5.713,1.5,2.16,5.215,2.234,7.053,2.125.289.737.422,1.191.422,1.191s-6.082.894-8.12-2.027C720.763,373.05,720.265,370,721.527,368.865Z" fill="#355585"/>
    <path id="Path_23749" data-name="Path 23749" d="M725.68,376.255a1.941,1.941,0,0,0,.24-.018l.048-.009.68,3.912,2.563,4.976H727.6l-1.6-5.307Z" fill="#355585"/>
    <path id="Path_23750" data-name="Path 23750" d="M720.2,363.859l-7.344-2.065-7.351-5.453-.988-2.094,9.135,7.151,6.548,1.4Z" fill="#355585"/>
    <path id="Path_23751" data-name="Path 23751" d="M725.592,358.59s5.733-5.529,7.884-5.328,4.813,2.626,3.347,4.368-1.331.308-1.161.035.888-.2.888-.2a1.662,1.662,0,0,0-.15-2.345,1.7,1.7,0,0,0-.193-.147c-1.469-1.3-2.458-1.535-3.345-1.331s-4.878,3.087-5.068,3.317-1.928,1.8-1.928,1.8S725.423,358.863,725.592,358.59Z" fill="#355585"/>
    <path id="Path_23752" data-name="Path 23752" d="M724.806,356.2s5.628-9.015,8.053-8.64,3.448,1.773,2.936,2.593-1.74,1.57-1.672.853.614-.369.614-.369,1.161-.033.41-1.262-1.844-1.911-3.073-1.159a7.717,7.717,0,0,0-2.354,1.946c-1.126,1.194-4.641,6.214-4.641,6.214S724.907,356.644,724.806,356.2Z" fill="#355585"/>
    <path id="Path_23753" data-name="Path 23753" d="M719.686,385.129l-1.411-6.273,3.865-4.83V373.7l-4.51,4.508.853,6.918Z" fill="#355585"/>
    <path id="Path_23754" data-name="Path 23754" d="M728.245,367.09l-4.495-4.663v.966l4.194,4.755,3.971,3.179,3.242.252a.61.61,0,0,0,.3-1.163Z" fill="#355585"/>
    <path id="Path_23755" data-name="Path 23755" d="M704.543,353.777s-1.784.335-1.209,1.428a3.224,3.224,0,0,0,1.554,1.463S705.67,353.867,704.543,353.777Z" fill="#355585"/>
    <path id="Path_23756" data-name="Path 23756" d="M680.535,410.094l9.7-13.94,50.867-108.1-5.153-2.425-50.862,108.1Z" fill="#24c0a0"/>
    <path id="Path_23757" data-name="Path 23757" d="M682.705,402.274l-2.175,7.819,4.639-6.662Z" fill="#344566"/>
    <path id="Path_23758" data-name="Path 23758" d="M704.543,353.777s-1.784.335-1.209,1.428a3.224,3.224,0,0,0,1.554,1.463S705.67,353.867,704.543,353.777Z" fill="#355585"/>
    <line id="Line_3166" data-name="Line 3166" x2="24.51" y2="0.828" transform="translate(710.938 385.468)" fill="none" stroke="#b5b5b5" stroke-miterlimit="10" stroke-width="1.97"/>
    <path id="Path_23759" data-name="Path 23759" d="M733.8,371.052l1.358.527s3.011-.921,2.212-3.308S733.8,371.052,733.8,371.052Z" fill="#355585"/>
    <path id="Path_12827" data-name="Path 12827" d="M671,429.228l46.319,5.815a1.184,1.184,0,0,1,1.106,1.259,1.208,1.208,0,0,1-.025.179h0a1.525,1.525,0,0,1-1.67,1.092h0l-46.328-5.816a1.183,1.183,0,0,1-1.1-1.256,1.2,1.2,0,0,1,.026-.18h0a1.527,1.527,0,0,1,1.677-1.1Z" fill="#344566"/>
    <path id="Path_12828" data-name="Path 12828" d="M673.21,422.029l46.333,5.815a1.184,1.184,0,0,1,1.1,1.256,1.2,1.2,0,0,1-.026.18h0a1.525,1.525,0,0,1-1.669,1.092l-46.329-5.813a1.184,1.184,0,0,1-1.107-1.258,1.2,1.2,0,0,1,.025-.179h0A1.528,1.528,0,0,1,673.21,422.029Z" fill="#344566"/>
    <path id="Path_12829" data-name="Path 12829" d="M675.423,414.84l46.322,5.816a1.18,1.18,0,0,1,1.081,1.437h0a1.524,1.524,0,0,1-1.669,1.092h0l-46.326-5.822a1.185,1.185,0,0,1-1.08-1.436h0A1.525,1.525,0,0,1,675.423,414.84Z" fill="#344566"/>
    <path id="Path_23760" data-name="Path 23760" d="M684.688,408.441l39.272,5.012a1.183,1.183,0,0,1,1.106,1.255,1.077,1.077,0,0,1-.026.18h0a1.52,1.52,0,0,1-1.669,1.092h0L684.1,410.97c-.759-.091-1.711-.79-1.553-1.486C682.629,408.271,684.688,408.441,684.688,408.441Z" fill="#344566"/>
  </g>
</svg>
