<svg xmlns="http://www.w3.org/2000/svg" width="460.447" height="313.686" viewBox="0 0 460.447 313.686">
  <g id="Owner" transform="translate(-306.31 -292.325)">
    <rect id="Rectangle_16226" data-name="Rectangle 16226" width="30.788" height="26.075" rx="3" transform="translate(370.635 300.773)" fill="#fff" stroke="#b7b7b7" stroke-miterlimit="10" stroke-width="1" stroke-dasharray="4 6"/>
    <rect id="Rectangle_16227" data-name="Rectangle 16227" width="175.932" height="40.981" rx="3" transform="translate(545.301 357.249)" fill="#dadada" stroke="#919191" stroke-miterlimit="10" stroke-width="1" stroke-dasharray="4 6"/>
    <rect id="Rectangle_16228" data-name="Rectangle 16228" width="67.532" height="13.506" rx="2" transform="translate(699.081 317.11)" fill="#f2f2f2"/>
    <path id="Path_22274" data-name="Path 22274" d="M1176.758,424.1a11.781,11.781,0,1,1,.3-23.559,11.781,11.781,0,1,1-.3,23.559Zm1.869-8.762c0-1.1.048-2.2,0-3.3s-.548-1.951-1.79-1.934a1.591,1.591,0,0,0-1.612,1.742q-.1,3.461,0,6.931a1.613,1.613,0,0,0,1.588,1.77c1.246.038,1.753-.8,1.818-1.9S1178.624,416.44,1178.627,415.334Zm-1.975-7.359a1.787,1.787,0,0,0,2.078-1.694,1.711,1.711,0,0,0-1.626-2.081,1.862,1.862,0,0,0-2.054,1.746,1.663,1.663,0,0,0,1.6,2.03Z" transform="translate(-559.226 -86.738)" fill="#e4e4e4"/>
    <path id="Path_22275" data-name="Path 22275" d="M1198.02,433.706c0,1.1.048,2.2,0,3.3s-.572,1.941-1.818,1.9a1.613,1.613,0,0,1-1.588-1.77q-.089-3.464,0-6.931a1.6,1.6,0,0,1,1.612-1.742c1.243-.017,1.711.839,1.79,1.934S1198.024,432.608,1198.02,433.706Z" transform="translate(-578.622 -105.11)" fill="#fff"/>
    <path id="Path_22276" data-name="Path 22276" d="M1195.76,415a1.659,1.659,0,0,1-1.6-2.03,1.87,1.87,0,0,1,2.054-1.746,1.721,1.721,0,0,1,1.626,2.081A1.792,1.792,0,0,1,1195.76,415Z" transform="translate(-578.334 -93.763)" fill="#fff"/>
    <path id="Path_22277" data-name="Path 22277" d="M1301.675,424.1a11.781,11.781,0,1,1,.3-23.559,11.781,11.781,0,1,1-.3,23.559Zm1.869-8.762c0-1.1.048-2.2,0-3.3s-.548-1.951-1.79-1.934a1.591,1.591,0,0,0-1.612,1.742q-.1,3.461,0,6.931a1.613,1.613,0,0,0,1.588,1.77c1.246.038,1.749-.8,1.814-1.9S1303.54,416.44,1303.544,415.334Zm-1.975-7.359a1.789,1.789,0,0,0,2.078-1.694,1.711,1.711,0,0,0-1.626-2.081,1.862,1.862,0,0,0-2.054,1.746A1.663,1.663,0,0,0,1301.569,407.975Z" transform="translate(-641.388 -86.738)" fill="#e4e4e4"/>
    <path id="Path_22278" data-name="Path 22278" d="M1322.94,433.706c0,1.1.048,2.2,0,3.3s-.568,1.941-1.814,1.9a1.613,1.613,0,0,1-1.588-1.77q-.086-3.464,0-6.931a1.6,1.6,0,0,1,1.612-1.742c1.242-.017,1.711.839,1.79,1.934S1322.943,432.608,1322.94,433.706Z" transform="translate(-660.788 -105.11)" fill="#fff"/>
    <path id="Path_22279" data-name="Path 22279" d="M1320.671,415a1.659,1.659,0,0,1-1.6-2.03,1.87,1.87,0,0,1,2.054-1.746,1.721,1.721,0,0,1,1.626,2.081A1.794,1.794,0,0,1,1320.671,415Z" transform="translate(-660.49 -93.763)" fill="#fff"/>
    <path id="Path_22280" data-name="Path 22280" d="M1051.848,424.1a11.781,11.781,0,1,1,.3-23.559,11.781,11.781,0,1,1-.3,23.559Zm1.869-8.762c0-1.1.048-2.2,0-3.3s-.548-1.951-1.79-1.934a1.591,1.591,0,0,0-1.612,1.742q-.1,3.461,0,6.931a1.613,1.613,0,0,0,1.588,1.77c1.246.038,1.752-.8,1.818-1.9S1053.714,416.44,1053.717,415.334Zm-1.975-7.359a1.785,1.785,0,0,0,2.078-1.694,1.712,1.712,0,0,0-1.626-2.081,1.864,1.864,0,0,0-2.054,1.746,1.666,1.666,0,0,0,1.609,2.03Z" transform="translate(-477.07 -86.738)" fill="#dadada"/>
    <path id="Path_22281" data-name="Path 22281" d="M1073.12,433.706c0,1.1.048,2.2,0,3.3s-.572,1.941-1.818,1.9a1.613,1.613,0,0,1-1.588-1.77q-.089-3.464,0-6.931a1.6,1.6,0,0,1,1.612-1.742c1.243-.017,1.732.839,1.79,1.934S1073.12,432.608,1073.12,433.706Z" transform="translate(-496.473 -105.11)" fill="#fff"/>
    <path id="Path_22282" data-name="Path 22282" d="M1070.871,415a1.661,1.661,0,0,1-1.6-2.03,1.872,1.872,0,0,1,2.054-1.746,1.719,1.719,0,0,1,1.626,2.081A1.8,1.8,0,0,1,1070.871,415Z" transform="translate(-496.192 -93.763)" fill="#fff"/>
    <path id="Path_22283" data-name="Path 22283" d="M1102.409,310.062c-4.979-6.717-10.33-12.319-13.806-19.19-3.361-6.652-1.093-14.385,4.8-19.1a15.029,15.029,0,0,1,18.074-.191c6.045,4.329,8.362,13.489,4.449,20.272C1112.313,298.136,1107.623,303.727,1102.409,310.062Zm8.8-25.437c-.087-5.159-3.558-8.614-8.636-8.6a9.117,9.117,0,0,0-9,9.215,9.277,9.277,0,0,0,8.925,8.668C1107.705,293.889,1111.3,290.047,1111.209,284.625Z" transform="matrix(0.899, -0.438, 0.438, 0.899, -788.488, 715.318)" fill="#dadada"/>
    <path id="Path_22284" data-name="Path 22284" d="M677.886,376.051a18.5,18.5,0,0,1-4.984-1.5,25.872,25.872,0,0,1-10.816-10.5,7.717,7.717,0,0,1-.568-7.51c1.26-2.636,3.053-2.971,5.288-1.088,2.6,2.2,2.738,2.79,1.414,5.836-1.051,2.4.917,3.608,2.187,4.895,1.369,1.386,2.625,3.58,5.134,2.512,1.064-.452,1.958-1.506,3.2-.887a8.951,8.951,0,0,1,3.611,3.512,2.34,2.34,0,0,1-.407,2.885A5.774,5.774,0,0,1,677.886,376.051Z" transform="translate(-227.543 -56.299)" fill="#e4e4e4"/>
    <path id="Path_22285" data-name="Path 22285" d="M324.493,615l-9.663-8.694v16.768Z" transform="translate(0 -222.079)" fill="#d9d9d9"/>
    <path id="Path_22286" data-name="Path 22286" d="M364.92,616.77l10.457,8.738V609.13Z" transform="translate(-32.945 -223.934)" fill="#d9d9d9"/>
    <path id="Path_22287" data-name="Path 22287" d="M345.009,604.01H319.17l11.579,10.422Z" transform="translate(-2.855 -220.567)" fill="#d9d9d9"/>
    <path id="Path_22288" data-name="Path 22288" d="M330.66,634.26l-2.868,2.095-2.115-1.9-10.847,9.06v.106h27.037Z" transform="translate(0 -240.463)" fill="#d9d9d9"/>
    <rect id="Rectangle_16229" data-name="Rectangle 16229" width="36.966" height="66.324" rx="10" transform="translate(703.092 532.062)" fill="#e4e4e4"/>
    <rect id="Rectangle_16230" data-name="Rectangle 16230" width="85.228" height="26.629" rx="3" transform="translate(748.568 598.543) rotate(180)" fill="#f8f8f8"/>
    <rect id="Rectangle_16231" data-name="Rectangle 16231" width="45.866" height="32.517" transform="translate(671.602 539.249)" fill="#f2f2f2"/>
    <line id="Line_3082" data-name="Line 3082" x2="107.134" transform="translate(643.193 598.539)" fill="none" stroke="#dadada" stroke-miterlimit="10" stroke-width="2"/>
    <rect id="Rectangle_16232" data-name="Rectangle 16232" width="56.819" height="40.434" rx="3" transform="translate(678.448 564.116)" fill="#d9d9d9"/>
    <line id="Line_3083" data-name="Line 3083" x1="56.476" transform="translate(679.133 604.55)" fill="none" stroke="#b5b5b5" stroke-miterlimit="10" stroke-width="2"/>
    <line id="Line_3084" data-name="Line 3084" x1="30.805" transform="translate(353.966 604.967)" fill="none" stroke="#b5b5b5" stroke-miterlimit="10" stroke-width="2"/>
    <rect id="Rectangle_16233" data-name="Rectangle 16233" width="25.917" height="12.877" rx="1" transform="translate(740.839 437.599)" fill="#eee"/>
    <line id="Line_3085" data-name="Line 3085" x1="227.959" transform="translate(335.483 605.012)" fill="none" stroke="#b5b5b5" stroke-miterlimit="10" stroke-width="2"/>
    <path id="Path_22289" data-name="Path 22289" d="M988.05,486.451c-3.974-3.464-7.913-6.962-11.87-10.443L964.368,465.5l-5.925-5.23q-2.961-2.612-5.819-5.34l-2.844-2.738c-.934-.928-1.879-1.845-2.8-2.786-1.859-1.872-3.7-3.765-5.476-5.73l.116-.127c2.105,1.6,4.148,3.276,6.161,4.97,1.027.839,2.009,1.711,3.012,2.56l2.978,2.6q2.957,2.618,5.819,5.353l5.709,5.477L976.758,475.4c3.8,3.649,7.619,7.28,11.408,10.953Z" transform="translate(-412.173 -115.029)"/>
    <path id="Path_22290" data-name="Path 22290" d="M915.74,446.5s-3.279.424-4.72-1.27-1.657-3.871-.479-4.864,3.282-.424,4.72,1.27S915.74,446.5,915.74,446.5Z" transform="translate(-391.311 -112.61)" fill="#5673a8"/>
    <ellipse id="Ellipse_4201" data-name="Ellipse 4201" cx="2.221" cy="3.885" rx="2.221" ry="3.885" transform="translate(517.686 332.362)" fill="#5673a8"/>
    <path id="Path_22291" data-name="Path 22291" d="M900.786,475.8c1.256.876.859,3.625-.89,6.144s-7,1.746-7,1.746a18.662,18.662,0,0,1,2.43-4.915C897.086,476.254,899.527,474.923,900.786,475.8Z" transform="translate(-380.208 -136.061)" fill="#5673a8"/>
    <path id="Path_22292" data-name="Path 22292" d="M915.819,447.69a8.214,8.214,0,0,1-.264,2.971s-3.279.424-4.72-1.27a5.5,5.5,0,0,1-.986-1.684,5.065,5.065,0,0,0,1.215,2.66c1.441,1.694,4.72,1.27,4.72,1.27A7.312,7.312,0,0,0,915.819,447.69Z" transform="translate(-391.356 -117.752)" fill="#355585"/>
    <path id="Path_22293" data-name="Path 22293" d="M911.686,457.16a6.231,6.231,0,0,1,.3,1.954c0,2.146-.993,3.885-2.218,3.885a1.735,1.735,0,0,1-1.369-.821c.383,1.157,1.1,1.934,1.917,1.934,1.225,0,2.218-1.742,2.218-3.885a5.315,5.315,0,0,0-.849-3.067Z" transform="translate(-390.403 -123.98)" fill="#355585"/>
    <path id="Path_22294" data-name="Path 22294" d="M900.916,476.65a7.373,7.373,0,0,1-1.575,4.915c-1.294,1.862-4.5,1.927-6.079,1.831-.25.633-.363,1.027-.363,1.027s5.247.77,7-1.746C901.577,480.254,902,477.625,900.916,476.65Z" transform="translate(-380.208 -136.799)" fill="#355585"/>
    <path id="Path_22295" data-name="Path 22295" d="M900.036,495.227a.833.833,0,0,1-.205-.017h-.041l-.585,3.351L897,502.87h1.369l1.369-4.576Z" transform="translate(-382.905 -149.007)" fill="#355585"/>
    <path id="Path_22296" data-name="Path 22296" d="M919.68,460.5l6.329,1.085,8.872-1.9-.342-1.027-8.53,2.242-6.329-1.311Z" transform="translate(-397.822 -124.967)" fill="#355585"/>
    <path id="Path_22297" data-name="Path 22297" d="M904.714,427s.767-6.825-.5-8.187-4.323-1.906-4.741,0,.489,1.071.585.811-.325-.715-.325-.715a1.429,1.429,0,0,1,1.879-1.075c1.657.322,2.341.873,2.666,1.588a26.1,26.1,0,0,1,.4,5.2c-.058.25-.219,2.266-.219,2.266S904.621,427.256,904.714,427Z" transform="translate(-384.457 -97.944)" fill="#355585"/>
    <path id="Path_22298" data-name="Path 22298" d="M917.547,421.442s3.2-8.581,1.674-10.042-3.026-1.42-3.317-.643-.157,2.016.294,1.592-.065-.616-.065-.616-.585-.811.647-.945,2.276.257,2.4,1.492a6.834,6.834,0,0,1-.092,2.629c-.226,1.4-1.807,6.435-1.807,6.435S917.2,421.6,917.547,421.442Z" transform="translate(-395.237 -93.109)" fill="#355585"/>
    <path id="Path_22299" data-name="Path 22299" d="M916.905,498.667l1.215-5.408-3.33-4.162v-.277l3.885,3.885-.732,5.963Z" transform="translate(-394.606 -144.804)" fill="#355585"/>
    <path id="Path_22300" data-name="Path 22300" d="M886.759,464.458l3.871-4.018v.832l-3.614,4.1-3.423,2.738-3.423.685Z" transform="translate(-371.835 -126.138)" fill="#355585"/>
    <path id="Path_22301" data-name="Path 22301" d="M961.07,457.66s1.537.287,1.027,1.232a2.8,2.8,0,0,1-1.342,1.26S960.1,457.739,961.07,457.66Z" transform="translate(-424.696 -124.309)" fill="#355585"/>
    <path id="Path_22302" data-name="Path 22302" d="M618.865,975.155l41.4-8.335s-15.221,24.23-40.389,25.784-66.481-12.428-66.481-12.428Z" transform="translate(-156.906 -459.194)" fill="#f3f3f3"/>
    <path id="Path_22303" data-name="Path 22303" d="M716.154,898s64.308,31.651,67.724,38.3.931,9.31-4.658,8.513-46.136-3.532-56-14.934S707.779,899.338,716.154,898Z" transform="translate(-261.274 -413.93)" fill="#c1864c"/>
    <path id="Path_22304" data-name="Path 22304" d="M595.714,909.84s-37.531,14.574-53.053,30.535-14.923,15.611-11.98,17.514,19.335,1.284,24.815-1.465S621.433,936.226,595.714,909.84Z" transform="translate(-140.882 -421.717)" fill="#c1864c"/>
    <path id="Path_22305" data-name="Path 22305" d="M443.645,1044.9l-7.143.3s-13.027,49.706-15.872,55.556-36.46,6.089-36.46,9.283,37.309,1.027,37.309,1.027,10.012-15.362,14.15-20.948S470.284,1067.525,443.645,1044.9Z" transform="translate(-45.606 -510.549)" fill="#c1864c"/>
    <path id="Path_22306" data-name="Path 22306" d="M859.618,1011.383s-15.235,29.58-5.593,40.451c7.427,8.386,18.641,25.514,18.641,28.173s-5.593,8.557,3.727,9.1,59.026,1.246,28.58-4.658c-34.334-6.657-22.676-3.423-24.542-4.179-3.7-1.52-6.846-37.507-5.9-46.55S886.336,1004.941,859.618,1011.383Z" transform="translate(-352.536 -487.67)" fill="#c1864c"/>
    <ellipse id="Ellipse_4202" data-name="Ellipse 4202" cx="6.678" cy="7.92" rx="6.678" ry="7.92" transform="translate(384.994 530.306)" fill="#c1864c"/>
    <ellipse id="Ellipse_4203" data-name="Ellipse 4203" cx="6.678" cy="7.92" rx="6.678" ry="7.92" transform="translate(512.986 520.051)" fill="#c1864c"/>
    <path id="Path_22307" data-name="Path 22307" d="M716.154,898s64.308,31.651,67.724,38.3.931,9.31-4.658,8.513-46.136-3.532-56-14.934S707.779,899.338,716.154,898Z" transform="translate(-261.274 -413.93)" fill="#788eba"/>
    <path id="Path_22308" data-name="Path 22308" d="M595.714,909.84s-37.531,14.574-53.053,30.535-14.923,15.611-11.98,17.514,19.335,1.284,24.815-1.465S621.433,936.226,595.714,909.84Z" transform="translate(-140.882 -421.717)" fill="#788eba"/>
    <path id="Path_22309" data-name="Path 22309" d="M518.125,1044.9l-7.143.3s-8.872,33.852-13.571,48.97a30.336,30.336,0,0,1,7.164,3.734c2-2.872,4.035-5.764,5.535-7.787C514.247,1084.533,544.764,1067.525,518.125,1044.9Z" transform="translate(-120.086 -510.549)" fill="#788eba"/>
    <path id="Path_22310" data-name="Path 22310" d="M868.49,1070.885a41.767,41.767,0,0,1,8.694-.62c-2.03-11.754-3.279-30.394-2.642-36.552.931-9.043,11.805-28.8-14.913-22.341,0,0-15.221,29.58-5.593,40.451a165.238,165.238,0,0,1,14,19.168C868.182,1070.954,868.353,1070.916,868.49,1070.885Z" transform="translate(-352.547 -487.66)" fill="#788eba"/>
    <ellipse id="Ellipse_4204" data-name="Ellipse 4204" cx="6.678" cy="7.92" rx="6.678" ry="7.92" transform="translate(384.994 530.306)" fill="#788eba"/>
    <ellipse id="Ellipse_4205" data-name="Ellipse 4205" cx="6.678" cy="7.92" rx="6.678" ry="7.92" transform="translate(512.986 520.051)" fill="#788eba"/>
    <rect id="Rectangle_16234" data-name="Rectangle 16234" width="46.105" height="4.039" transform="translate(517.333 600.511)" fill="#b7b7b7"/>
    <path id="Path_22311" data-name="Path 22311" d="M980.083,1222.668H964.55v-8.078l15.533,1.554Z" transform="translate(-427.334 -622.157)" fill="#fff"/>
    <path id="Path_22312" data-name="Path 22312" d="M716.527,725s6.524-20.195,27.04-14.91S765,723.434,765,723.434,796.693,734,796.693,745.8s-32.311,5.593-44.117-2.8S714.354,730.277,716.527,725Z" transform="translate(-264.121 -289.754)" fill="#c1864c"/>
    <path id="Path_22313" data-name="Path 22313" d="M554,743.461s-18.329-13.031-30.754-4.973-11.186,13.982-11.186,13.982-19.572,7.766-21.434,19.572,30.442,4.97,40.389-5.281S553.074,750.915,554,743.461Z" transform="translate(-115.577 -307.285)" fill="#c1864c"/>
    <path id="Path_22314" data-name="Path 22314" d="M610.729,739.084l-5.589,12.767s31.065,65.7,43.179,69.141,23.922-91.5,18.021-89.369c-4.279,1.54-25.182,6.846-40.985,8.143C619.341,740.285,614.07,740.183,610.729,739.084Z" transform="translate(-190.943 -304.476)" fill="#c1864c"/>
    <path id="Path_22315" data-name="Path 22315" d="M628.748,696.35s-3.423.62-4.97,5.9,5.589-3.727,5.589-3.727Z" transform="translate(-203.057 -281.3)" fill="#6780b1"/>
    <path id="Path_22316" data-name="Path 22316" d="M631.265,698.16s-6.846,8.7-4.97,10.874S632.507,701.887,631.265,698.16Z" transform="translate(-204.642 -282.491)" fill="#788eba"/>
    <path id="Path_22317" data-name="Path 22317" d="M657.858,658.724c.407-1.369,2.454-2.594,2.454-4.107s-2.054-2.759-2.454-4.183.654-3.6-.123-4.85-3.183-1.256-4.3-2.2-1.581-3.341-2.992-3.806a2.991,2.991,0,0,0-2.156.4,27.86,27.86,0,0,1-3.31.965,27.985,27.985,0,0,1-3.306-.965,3.058,3.058,0,0,0-2.156-.4c-1.414.465-1.828,2.82-2.992,3.806s-3.5.9-4.306,2.2.3,3.385-.12,4.85-2.454,2.663-2.454,4.183,2.054,2.738,2.454,4.107c.424,1.448-.616,3.577.188,4.792s3.19,1.119,4.333,2.054,1.557,3.269,2.957,3.765a2.813,2.813,0,0,0,1.91-.2,1.1,1.1,0,0,0,.6.483c.685.253,1.773-.818,2.9-1.2,1.133.387,2.2,1.458,2.906,1.2a1.1,1.1,0,0,0,.589-.493,2.817,2.817,0,0,0,1.91.2c1.4-.5,1.8-2.844,2.957-3.765s3.508-.787,4.333-2.054S657.43,660.172,657.858,658.724Z" transform="translate(-207.057 -243.904)"/>
    <path id="Path_22318" data-name="Path 22318" d="M674.733,727.624l-.623-14.913,5.281-.931,9.32,14.91Z" transform="translate(-236.306 -291.449)" fill="#c1864c"/>
    <ellipse id="Ellipse_4206" data-name="Ellipse 4206" cx="7.92" cy="9.163" rx="7.92" ry="9.163" transform="translate(431.284 404.487)" fill="#c1864c"/>
    <ellipse id="Ellipse_4207" data-name="Ellipse 4207" cx="1.708" cy="3.573" rx="1.708" ry="3.573" transform="matrix(0.985, -0.17, 0.17, 0.985, 428.517, 410.432)" fill="#c1864c"/>
    <ellipse id="Ellipse_4208" data-name="Ellipse 4208" cx="3.573" cy="1.708" rx="3.573" ry="1.708" transform="matrix(0.17, -0.985, 0.985, 0.17, 444.358, 416.866)" fill="#c1864c"/>
    <path id="Path_22319" data-name="Path 22319" d="M670.65,701.053a1.872,1.872,0,0,0-1.9-2.054,1.76,1.76,0,0,0-1.91,1.578c-1.941,9.009,1.475,20.5,1.475,20.5s-.123-18.483.366-19.106a4.267,4.267,0,0,1,1.965-.931Z" transform="translate(-231.134 -283.043)"/>
    <path id="Path_22320" data-name="Path 22320" d="M682.258,699.613a1.865,1.865,0,0,1,1.106-.887c1.133-.342,3.146-.64,3.282,1.191a99.445,99.445,0,0,1-.934,18.641s-.774-16.621-1.4-17.241a6.255,6.255,0,0,0-2.485-.934Z" transform="translate(-241.383 -282.695)"/>
    <path id="Path_22321" data-name="Path 22321" d="M658.1,671.795a15.1,15.1,0,0,0,2.995-1.284,13.047,13.047,0,0,1,3.183-.921,20.792,20.792,0,0,1,3.529-.428c.5,0,1.006.021,1.506.034.5-.065,1.027-.12,1.513-.164-.479-2-3.813-3.543-7.872-3.543-4.374,0-7.924,1.807-7.924,4.039,0,1.082.842,2.054,2.2,2.793A1.4,1.4,0,0,1,658.1,671.795Z" transform="translate(-223.756 -261.003)"/>
    <path id="Path_22322" data-name="Path 22322" d="M589.113,746.581s4.367,32.688.021,38.281-9.32-6.216-9.32-6.216,15.772,31.469-9.632,41.628c-6.212,2.485-16.772,14.29-16.772,14.29s45.047,8.7,59.957,5.9,46.892-19.26,46.892-19.26-27.725-14.913-29.552-17.552.37-23.936.37-23.936-2.814,2.653-5.3-1.369c-2.054-3.365-11.685-25.479-14.838-32.773a.236.236,0,0,0-.448.144c2.156,9.817,9.512,45.492,2.547,46.3-8.074.931-13.979-6.212-14.91-9.32s-7.424-35.8-7.424-35.8S589.4,744.647,589.113,746.581Z" transform="translate(-156.919 -313.582)" fill="#fff"/>
    <path id="Path_22323" data-name="Path 22323" d="M692.628,817.825a14.729,14.729,0,0,1,.021-1.711,3.422,3.422,0,0,0-.281-1.489,1.744,1.744,0,0,0-2.427-.883.513.513,0,0,0,.517.887.663.663,0,0,1,.106-.062c.044-.024-.051,0,.034,0,0,0,.137-.021.075-.017s.079,0,.075,0h.034l.12.027.1.034c-.086-.034.055.027.062.031l.086.051c.127.079-.027-.027.038.027a1.254,1.254,0,0,1,.127.13,1.188,1.188,0,0,1,.219.448,3.342,3.342,0,0,1,.086,1.106,9.233,9.233,0,0,0,0,1.41.53.53,0,0,0,.513.513.513.513,0,0,0,.513-.513Z" transform="translate(-246.56 -358.361)"/>
    <path id="Path_22324" data-name="Path 22324" d="M715.4,825.774a4.963,4.963,0,0,1,2.4-4.374.513.513,0,0,0-.517-.887,6,6,0,0,0-2.906,5.261A.514.514,0,0,0,715.4,825.774Z" transform="translate(-262.79 -362.925)"/>
    <path id="Path_22325" data-name="Path 22325" d="M701.23,847.1a4.7,4.7,0,0,1,1.051-.034h.034l.144.024c.082.021.164.041.243.068s.144.055.034,0l.116.055c.027,0,.181.079.188.113-.055-.041-.065-.051-.038-.027l.041.034.075.072.068.075c.079.089-.062-.092,0,0a1.491,1.491,0,0,1,.106.175l.031.062-.024-.058s.027.072.034.092.024.178.048.2v0a.449.449,0,0,1,0,.1.4.4,0,0,1,0,.065v-.055a.457.457,0,0,0-.024.092v.048c.031-.065.038-.082.021-.048a1.009,1.009,0,0,1-.058.1.514.514,0,0,0,.886.52,1.756,1.756,0,0,0-.452-2.187,3.192,3.192,0,0,0-2.512-.524.524.524,0,0,0-.513.513.513.513,0,0,0,.513.513Z" transform="translate(-253.814 -379.732)"/>
    <path id="Path_22326" data-name="Path 22326" d="M707.837,808.706c-.058-.12,0,.058,0,0s-.024-.068-.034-.1,0-.082-.024-.123h0v-.233c0-.079-.027.116,0,0l.021-.106c.021-.072.044-.137.068-.205s-.038.068,0-.021c0-.031.031-.065.051-.1a1.835,1.835,0,0,1,.127-.205c.027-.041.027-.038,0,0l.086-.1a1.893,1.893,0,0,1,.168-.164.926.926,0,0,1,.089-.075c.024-.024.082-.065.024-.024a4.306,4.306,0,0,1,.394-.257c.287-.164.592-.3.893-.438a.517.517,0,0,0,.185-.7.53.53,0,0,0-.685-.185,4.78,4.78,0,0,0-1.889,1.253,2.177,2.177,0,0,0-.342,2.31.513.513,0,0,0,.7.185.524.524,0,0,0,.185-.7Z" transform="translate(-257.793 -353.165)"/>
    <path id="Path_22327" data-name="Path 22327" d="M696.79,796.043a1.577,1.577,0,0,0-.6-2.026,3.143,3.143,0,0,0-2.471-.175.517.517,0,0,0-.342.63.527.527,0,0,0,.633.342c.161-.034.325-.065.49-.092,0,0,.164-.021.044,0h.359a1.964,1.964,0,0,1,.246,0h.017l.13.024a.856.856,0,0,1,.233.068c.079.024-.092-.048,0,0l.086.048.072.048c.051.031-.079-.072,0,0a1.958,1.958,0,0,1,.144.14l.021.027c.027.034.031.034,0,0s-.027-.034,0,0l.021.027a.692.692,0,0,1,.048.086v.027c.024.051.021.041,0-.034a1.6,1.6,0,0,0,.051.154v.065a.3.3,0,0,0,0,.079v-.014l-.031.089c0-.024.055-.11,0,0a.513.513,0,1,0,.886.517Z" transform="translate(-248.964 -345.314)"/>
    <path id="Path_22328" data-name="Path 22328" d="M497.13,831.721s5.9,20.5,23.922,30.442,24.487,9.053,25.6,7.79S524.468,805,497.13,831.721Z" transform="translate(-119.902 -366.035)" fill="#c1864c"/>
    <ellipse id="Ellipse_4209" data-name="Ellipse 4209" cx="8.232" cy="7.301" rx="8.232" ry="7.301" transform="translate(373.5 461.025)" fill="#c1864c"/>
    <ellipse id="Ellipse_4210" data-name="Ellipse 4210" cx="6.524" cy="7.455" rx="6.524" ry="7.455" transform="translate(522.303 449.534)" fill="#c1864c"/>
    <path id="Path_22329" data-name="Path 22329" d="M662.862,668.384s-9.981-1.246-14.91.311c-5.9,1.862-12.873,7.992-12.962,6.325a5.819,5.819,0,0,0-.845-2.649.3.3,0,0,1,.109-.418c1.838-1.027,12.141-6.733,15.252-7.3,3.423-.623,11.494-2.8,11.494-2.8S664.529,665.94,662.862,668.384Z" transform="translate(-209.99 -258.616)" fill="#788eba"/>
    <rect id="Rectangle_16235" data-name="Rectangle 16235" width="77.355" height="24.168" rx="1" transform="translate(534.938 373.866) rotate(167.15)" fill="#f9f9f9"/>
    <rect id="Rectangle_16236" data-name="Rectangle 16236" width="31.996" height="36.699" rx="3" transform="matrix(0.946, 0.323, -0.323, 0.946, 474.819, 314.804)" fill="#d9d9d9"/>
    <rect id="Rectangle_16237" data-name="Rectangle 16237" width="51.979" height="28.259" rx="3" transform="translate(517.124 442.388) rotate(180)" fill="#b7b7b7"/>
    <rect id="Rectangle_16238" data-name="Rectangle 16238" width="41.94" height="37.589" rx="3" transform="translate(498.073 479.977) rotate(180)" fill="#f8f8f8"/>
    <rect id="Rectangle_16239" data-name="Rectangle 16239" width="43.802" height="37.589" rx="3" transform="translate(477.259 517.566) rotate(180)" fill="#d9d9d9"/>
    <rect id="Rectangle_16240" data-name="Rectangle 16240" width="74.247" height="23.932" rx="1" transform="translate(531.004 414.129) rotate(180)" fill="#e4e4e4"/>
    <rect id="Rectangle_16241" data-name="Rectangle 16241" width="14.29" height="11.494" rx="1" transform="translate(526.654 390.197) rotate(180)" fill="#d9d9d9"/>
    <rect id="Rectangle_16242" data-name="Rectangle 16242" width="11.949" height="9.755" rx="1" transform="translate(476.312 362.444) rotate(167.15)" fill="#b7b7b7"/>
    <path id="Path_22330" data-name="Path 22330" d="M830.263,793.5s-23.357,33.7-27.7,41.159,54.573-22.433,49.032-31.408S840.261,789,830.263,793.5Z" transform="translate(-320.638 -344.124)" fill="#c1864c"/>
    <path id="Path_22331" data-name="Path 22331" d="M646.323,947.258c-4.658,0-11.494-2.8-11.494-2.8h.311v-3.991c-5.2-.811-11.329-.979-13.671,1.195,0,0,6.846,14.29,16.772,12.74S650.985,947.258,646.323,947.258Z" transform="translate(-201.683 -441.498)" fill="#c1864c"/>
    <path id="Path_22332" data-name="Path 22332" d="M769.436,905.636v3.378l.342-.1a43.915,43.915,0,0,1-9.334,8.615c-4.97,3.1,4.658,3.727,9.334,3.57s12.1-15.375,12.1-15.375C779.349,904.89,773.934,904.958,769.436,905.636Z" transform="translate(-292.177 -418.608)" fill="#c1864c"/>
    <rect id="Rectangle_16243" data-name="Rectangle 16243" width="46.105" height="4.039" transform="translate(381.349 604.55) rotate(180)" fill="#b7b7b7"/>
    <path id="Path_22333" data-name="Path 22333" d="M405.7,1222.668h15.533v-8.078l-15.533,1.554Z" transform="translate(-59.767 -622.157)" fill="#fff"/>
    <g id="Group_1225" data-name="Group 1225" transform="translate(543.594 377.74)">
      <path id="Rectangle_745" data-name="Rectangle 745" d="M1005.813,588.128l194.723,104.334c2.522,1.349,3.744,3.974,2.738,5.863L1187.4,727.957c-1.027,1.889-3.875,2.324-6.4.976L986.272,624.6c-2.519-1.352-3.745-3.977-2.738-5.863L999.412,589.1C1000.429,587.228,1003.294,586.776,1005.813,588.128Z" transform="translate(-983.182 -587.347)" fill="#fff"/>
    </g>
    <text id="ANDRE_ALEXANDER" data-name="ANDRE ALEXANDER" transform="translate(593.501 422.097) rotate(28.106)" fill="#ff5d5d" font-size="12" font-family="Montserrat-Black, Montserrat" font-weight="800"><tspan x="0" y="0">ANDRE ALE</tspan><tspan y="0" letter-spacing="-0.04em">X</tspan><tspan y="0">ANDER</tspan></text>
    <path id="Path_22334" data-name="Path 22334" d="M1499.448,963.728s-3.358.435-4.83-1.3-1.711-3.964-.5-4.98,3.358-.431,4.83,1.3S1499.448,963.728,1499.448,963.728Z" transform="translate(-775.131 -452.703)" fill="#919191"/>
    <ellipse id="Ellipse_4211" data-name="Ellipse 4211" cx="3.977" cy="2.273" rx="3.977" ry="2.273" transform="matrix(0.122, -0.993, 0.993, 0.122, 717.514, 517.173)" fill="#919191"/>
    <path id="Path_22335" data-name="Path 22335" d="M1482.792,993.853c1.171,1.027.424,3.789-1.667,6.127s-7.325.9-7.325.9a19.066,19.066,0,0,1,3.08-4.689C1478.982,993.857,1481.625,992.809,1482.792,993.853Z" transform="translate(-762.277 -476.708)" fill="#919191"/>
    <path id="Path_22336" data-name="Path 22336" d="M1499.507,965a8.447,8.447,0,0,1-.271,3.043s-3.358.435-4.829-1.3a5.509,5.509,0,0,1-1.027-1.711,5.155,5.155,0,0,0,1.246,2.738c1.472,1.732,4.83,1.3,4.83,1.3A7.552,7.552,0,0,0,1499.507,965Z" transform="translate(-775.156 -457.997)" fill="#6c6c6c"/>
    <path id="Path_22337" data-name="Path 22337" d="M1496.913,975.43a6.36,6.36,0,0,1,.065,2.023c-.267,2.18-1.492,3.823-2.738,3.669a1.776,1.776,0,0,1-1.28-1c.246,1.219.873,2.1,1.711,2.2,1.246.151,2.471-1.492,2.738-3.669A5.411,5.411,0,0,0,1496.913,975.43Z" transform="translate(-774.879 -464.857)" fill="#6c6c6c"/>
    <path id="Path_22338" data-name="Path 22338" d="M1482.915,995a7.556,7.556,0,0,1-2.215,4.792c-1.547,1.729-4.792,1.4-6.4,1.106a9.279,9.279,0,0,0-.5,1s5.234,1.434,7.325-.9C1483.134,998.765,1483.9,996.133,1482.915,995Z" transform="translate(-762.278 -477.728)" fill="#6c6c6c"/>
    <path id="Path_22339" data-name="Path 22339" d="M1488.191,943.777s.784-6.983-.513-8.376-4.426-1.954-4.854,0,.5,1.1.6.828-.342-.729-.342-.729a1.465,1.465,0,0,1,1.924-1.1c1.694.329,2.4.893,2.738,1.626a25.849,25.849,0,0,1,.4,5.326c-.062.257-.222,2.317-.222,2.317S1488.092,944.044,1488.191,943.777Z" transform="translate(-768.139 -437.698)" fill="#6c6c6c"/>
    <path id="Path_22340" data-name="Path 22340" d="M1501.286,938.1s3.276-8.779,1.711-10.268-3.08-1.458-3.392-.661-.161,2.054.3,1.629-.065-.633-.065-.633-.6-.828.661-.965,2.328.264,2.464,1.527a6.778,6.778,0,0,1-.1,2.694c-.229,1.431-1.852,6.582-1.852,6.582S1500.92,938.272,1501.286,938.1Z" transform="translate(-779.142 -432.761)" fill="#6c6c6c"/>
    <path id="Path_22341" data-name="Path 22341" d="M1506.092,983.764l6.606,1.215c.205-.291,3.687-.277,4.193-.116a7.212,7.212,0,0,1-.828,1.157c-2.084,2.238-8.068-.229-8.068-.229l-11.076-3.081-.469-.63Z" transform="translate(-777.175 -469.231)" fill="#6c6c6c"/>
    <path id="Path_22342" data-name="Path 22342" d="M1495.6,1008.39l.027.031h0Z" transform="translate(-776.616 -486.535)" fill="#355585"/>
    <path id="Path_22343" data-name="Path 22343" d="M1501.17,1017.926h1.605l-2.505-7.434-2.738-2.478c-.048-.044-.233.038-.3,0l2.43,2.831Z" transform="translate(-777.688 -486.279)" fill="#6c6c6c"/>
    <path id="Path_22344" data-name="Path 22344" d="M1473.213,1017.269h-1.783l2.783-7.691,3.039-2.564c.055-.044.264.038.342,0l-2.7,2.93Z" transform="translate(-760.719 -485.621)" fill="#6c6c6c"/>
    <line id="Line_3086" data-name="Line 3086" x1="23.275" transform="translate(708.141 531.658)" fill="none" stroke="#b5b5b5" stroke-miterlimit="10" stroke-width="2"/>
    <path id="Path_22345" data-name="Path 22345" d="M1508.665,976.25l-3.142,1.26-.113.924,4.539-1.5Z" transform="translate(-783.068 -465.396)" fill="#6c6c6c"/>
    <line id="Line_3087" data-name="Line 3087" x2="27.396" transform="translate(605.323 604.55)" fill="none" stroke="#b5b5b5" stroke-miterlimit="10" stroke-width="2"/>
    <path id="Path_22346" data-name="Path 22346" d="M1140.636,1075.131a22.974,22.974,0,0,1-14.129-28.789c3.906-11.774,17.525-18.435,29.3-14.253,11.555,4.107,18.035,17.35,14.136,28.882A23.029,23.029,0,0,1,1140.636,1075.131Zm8.875-14.913c.685-2.02,1.455-4.015,2.026-6.065s.212-3.923-2.081-4.665c-1.975-.637-3.4.455-4.039,2.194q-2.331,6.295-4.323,12.709c-.548,1.766-.134,3.5,1.814,4.234,2.262.845,3.71-.38,4.515-2.362s1.407-4.029,2.112-6.045Zm.952-14.718c2.208.811,3.919.243,4.864-1.811s.366-3.936-1.691-4.826-3.858.031-4.843,1.927c-1.054,2.03-.284,3.673,1.684,4.7Z" transform="translate(-533.099 -501.297)" fill="#5673a8"/>
    <path id="Path_22347" data-name="Path 22347" d="M1179.413,1095.708c-.685,2.016-1.28,4.073-2.081,6.045s-2.252,3.207-4.515,2.362c-1.948-.732-2.362-2.468-1.814-4.234q2-6.408,4.323-12.709c.644-1.739,2.054-2.831,4.039-2.194,2.293.743,2.653,2.612,2.081,4.665S1180.1,1093.689,1179.413,1095.708Z" transform="translate(-562.976 -536.788)" fill="#fff"/>
    <path id="Path_22348" data-name="Path 22348" d="M1194.616,1060.239c-1.961-1.027-2.738-2.666-1.67-4.71a3.613,3.613,0,0,1,4.843-1.927c2.023.88,2.629,2.786,1.691,4.826S1196.824,1061.047,1194.616,1060.239Z" transform="translate(-577.238 -516.05)" fill="#fff"/>
    <path id="Path_22349" data-name="Path 22349" d="M1179.017,1173.722s3.46-.3,4.559-2.362.832-4.344-.589-5.1-3.464.3-4.559,2.362S1179.017,1173.722,1179.017,1173.722Z" transform="translate(-567.762 -590.209)" fill="#909090"/>
    <ellipse id="Ellipse_4212" data-name="Ellipse 4212" cx="2.331" cy="4.08" rx="2.331" ry="4.08" transform="matrix(0.841, -0.542, 0.542, 0.841, 612.58, 583.325)" fill="#909090"/>
    <path id="Path_22350" data-name="Path 22350" d="M1200.781,1202c-.613,1.489,1.3,3.69,4.279,4.915s7.188-2.437,7.188-2.437a19.534,19.534,0,0,0-4.949-2.95C1204.3,1200.3,1201.39,1200.508,1200.781,1202Z" transform="translate(-582.632 -613.038)" fill="#909090"/>
    <path id="Path_22351" data-name="Path 22351" d="M1178.1,1174.181a8.733,8.733,0,0,0,.938,2.992s3.46-.3,4.556-2.362a5.714,5.714,0,0,0,.637-1.951,5.333,5.333,0,0,1-.65,3c-1.1,2.054-4.559,2.362-4.559,2.362A7.686,7.686,0,0,1,1178.1,1174.181Z" transform="translate(-567.762 -594.71)" fill="#6c6c6c"/>
    <path id="Path_22352" data-name="Path 22352" d="M1188.3,1188.68a6.6,6.6,0,0,0,.845,1.9c1.222,1.893,3.08,2.865,4.169,2.167a1.831,1.831,0,0,0,.736-1.5c.318,1.236.13,2.328-.592,2.793-1.082.685-2.95-.27-4.172-2.167a5.579,5.579,0,0,1-.986-3.193Z" transform="translate(-574.498 -605.116)" fill="#6c6c6c"/>
    <path id="Path_22353" data-name="Path 22353" d="M1200.723,1205a7.776,7.776,0,0,0,4.189,3.447c2.2.9,5.062-.859,6.407-1.842.578.414.9.685.9.685s-4.193,3.666-7.188,2.437C1202.192,1208.543,1200.316,1206.465,1200.723,1205Z" transform="translate(-582.633 -615.85)" fill="#6c6c6c"/>
    <path id="Path_22354" data-name="Path 22354" d="M1220.64,1215.124c.058-.045.12-.086.175-.134l.031-.031,5.35,5.559-1.181,6.432h-1.458l1.992-6.36Z" transform="translate(-595.769 -622.4)" fill="#6c6c6c"/>
    <path id="Path_22355" data-name="Path 22355" d="M1195.975,1214.83l-6.144,3.005-.691,9.029h1.458l.038-8.855,5.5-2.937Z" transform="translate(-575.051 -622.315)" fill="#6c6c6c"/>
    <path id="Path_22356" data-name="Path 22356" d="M1187.163,1151.14s-2.317-6.846-1.321-8.509,4-2.93,4.867-1.058-.263,1.208-.421.962.175-.8.175-.8a1.518,1.518,0,0,0-2.173-.685c-1.629.685-2.2,1.42-2.4,2.228a25.8,25.8,0,0,0,.767,5.428c.12.243.732,2.276.732,2.276S1187.321,1151.376,1187.163,1151.14Z" transform="translate(-572.718 -573.521)" fill="#6c6c6c"/>
    <path id="Path_22357" data-name="Path 22357" d="M1175.584,1148.013s-5.21-8.088-3.97-9.926,2.783-2.139,3.258-1.407.613,2.033.055,1.711-.072-.65-.072-.65.418-.962-.876-.821-2.276.774-2.136,2.054a7.065,7.065,0,0,0,.685,2.677c.541,1.383,3.3,6.2,3.3,6.2S1175.988,1148.1,1175.584,1148.013Z" transform="translate(-563.398 -570.671)" fill="#6c6c6c"/>
    <path id="Path_22358" data-name="Path 22358" d="M1196.829,1165.373l3.6-2.437.6-6.8,2.324-2.334c-.428,1.906-1.978,10.611-1.978,10.611l-4.214,1.65-.421-.654Z" transform="translate(-580.05 -582.174)" fill="#6c6c6c"/>
    <path id="Path_22359" data-name="Path 22359" d="M1163.677,1167.347l.633-9.488q-1-.383-1.93-.849l.613,11.021,9.077,2.235-.517-.8Z" transform="translate(-557.45 -584.286)" fill="#6c6c6c"/>
    <path id="Path_22360" data-name="Path 22360" d="M898.511,509.15c-6.069,1.27-12.11,2.67-18.141,4.087" transform="translate(-371.967 -158.175)" fill="none" stroke="#b5b5b5" stroke-miterlimit="10" stroke-width="2"/>
    <ellipse id="Ellipse_4213" data-name="Ellipse 4213" cx="2.221" cy="3.885" rx="2.221" ry="3.885" transform="translate(714.92 308.099) rotate(-16.75)" fill="#909090"/>
    <path id="Path_22361" data-name="Path 22361" d="M1486.41,385.52a6.238,6.238,0,0,0,.274,1.958c.62,2.054,2.071,3.423,3.245,3.081a1.735,1.735,0,0,0,1.068-1.177c-.038,1.215-.5,2.167-1.28,2.4-1.174.342-2.625-1.027-3.245-3.081A5.308,5.308,0,0,1,1486.41,385.52Z" transform="translate(-770.431 -76.861)" fill="#6c6c6c"/>
    <path id="Path_22362" data-name="Path 22362" d="M1496.308,401.6c-1.5.342-2.173,3.029-1.51,6.021s5.819,4.272,5.819,4.272a18.691,18.691,0,0,0-.394-5.476C1499.553,403.423,1497.8,401.263,1496.308,401.6Z" transform="translate(-775.921 -87.412)" fill="#909090"/>
    <path id="Path_22363" data-name="Path 22363" d="M1496.139,401.82a7.329,7.329,0,0,0-.407,5.134c.493,2.215,3.423,3.488,4.929,4a9.553,9.553,0,0,1-.051,1.088s-5.134-1.28-5.819-4.272C1494.16,404.907,1494.763,402.309,1496.139,401.82Z" transform="translate(-775.919 -87.582)" fill="#6c6c6c"/>
    <path id="Path_22364" data-name="Path 22364" d="M1465.832,384.153l-6.329.65-4.778-2-.185-1.561,5.531,2.612,5.911-.459Z" transform="translate(-749.61 -74.046)" fill="#6c6c6c"/>
    <path id="Path_22365" data-name="Path 22365" d="M1474.19,373.4s2.122,2.536,4.33,2.273,3.844-1.711,3.659-3.241-2.119-2.536-4.326-2.269S1474.19,373.4,1474.19,373.4Z" transform="translate(-762.534 -66.729)" fill="#909090"/>
    <path id="Path_22366" data-name="Path 22366" d="M1476.9,371.16a8.284,8.284,0,0,0-1.828,2.362s2.122,2.54,4.33,2.273a5.478,5.478,0,0,0,1.869-.565,5.094,5.094,0,0,1-2.7,1.126c-2.208.264-4.33-2.273-4.33-2.273A7.169,7.169,0,0,1,1476.9,371.16Z" transform="translate(-762.567 -67.416)" fill="#6c6c6c"/>
    <path id="Path_22367" data-name="Path 22367" d="M1492.682,366.661s4.066-5.531,5.915-5.678,4.47,1.533,3.478,3.224-1.088.455-.982.2.726-.3.726-.3a1.421,1.421,0,0,0-.654-2.054c-1.434-.873-2.31-.948-3.036-.647a25.7,25.7,0,0,0-3.823,3.556c-.127.226-1.369,1.811-1.369,1.811S1492.576,366.918,1492.682,366.661Z" transform="translate(-774.684 -60.717)" fill="#6c6c6c"/>
    <path id="Path_22368" data-name="Path 22368" d="M1489.76,355.648s3.474-8.475,5.586-8.509,3.187,1.006,2.872,1.776-1.249,1.588-1.3.969.469-.407.469-.407.979-.2.164-1.133-1.845-1.369-2.779-.537a6.72,6.72,0,0,0-1.711,1.992c-.777,1.177-3.039,5.952-3.039,5.952S1489.911,356.007,1489.76,355.648Z" transform="translate(-772.775 -51.616)" fill="#6c6c6c"/>
    <path id="Path_22369" data-name="Path 22369" d="M1457.64,420.422a1.451,1.451,0,0,0,1.448.928c1.143-.021,4.573-2.269,4.573-2.269S1460,420.038,1457.64,420.422Z" transform="translate(-751.649 -98.934)" fill="#6c6c6c"/>
    <path id="Path_22370" data-name="Path 22370" d="M1509.515,429.488l2.126-6.117s-7-4.025-6.931-4.018c0,0,.438-.363.452-.363l7.53,4.107-1.109,6.39Z" transform="translate(-782.607 -98.875)" fill="#6c6c6c"/>
    <path id="Path_22371" data-name="Path 22371" d="M1467.146,429.277h-2.4l3.926-7.585,7.8-3.022-.134.7-6.692,2.683Z" transform="translate(-756.325 -98.665)" fill="#6c6c6c"/>
    <path id="Path_22372" data-name="Path 22372" d="M993.927,499.385a29.277,29.277,0,0,0,6.223-5.586c2.591-2.8,5.025-5.747,7.445-8.7,2.485-3.036,4.932-6.1,7.458-9.108a44.943,44.943,0,0,1,5.692-6.134,19.784,19.784,0,0,1,2.783-1.65c1.8-.955,3.642-1.852,5.476-2.738,5.648-2.738,11.343-5.346,17.032-7.985,14.92-6.924,29.85-13.855,44.5-21.331,6.75-3.443,13.458-6.989,19.975-10.864,4.368-2.6,8.629-5.377,13.188-7.636,5.384-2.673,11.114-4.138,16.854-5.819a66.539,66.539,0,0,0,14.752-6.26c4.569-2.622,8.992-5.545,13.821-7.681a26.344,26.344,0,0,1,7.6-2.372c3.046-.3,4.665,2.085,4.97,4.84.3,2.694-.373,5.446.49,8.081a10.015,10.015,0,0,0,3.686,4.936,9.714,9.714,0,0,0,5.74,1.848.513.513,0,1,0,0-1.027,8.9,8.9,0,0,1-6.39-2.738,9.439,9.439,0,0,1-2.482-7.167c.038-2.434.247-4.919-.945-7.143a5.046,5.046,0,0,0-5.408-2.629c-5.011.64-9.871,3.31-14.181,5.785-4.487,2.577-8.834,5.435-13.561,7.568-5.387,2.434-11.206,3.621-16.82,5.391a73.936,73.936,0,0,0-15.745,7.41c-6.722,4.029-13.445,7.982-20.386,11.638-14.763,7.753-29.878,14.828-45,21.858-6.161,2.872-12.367,5.72-18.528,8.632-3.683,1.742-7.475,3.423-10.977,5.5a16.175,16.175,0,0,0-3.5,3.081c-2.345,2.516-4.508,5.2-6.678,7.872-4.737,5.819-9.3,12.007-14.852,17.087a17.114,17.114,0,0,1-2.762,2.146.513.513,0,0,0,.517.887Z" transform="translate(-446.145 -82.744)"/>
    <path id="Path_22373" data-name="Path 22373" d="M1069.872,427.615a304.033,304.033,0,0,0,32.565-18.894c5.213-3.471,10.268-7.188,15.4-10.734a121.868,121.868,0,0,1,16.156-9.461c5.819-2.82,11.826-5.322,17.764-7.914l18.278-7.975,18.141-7.914,4.641-2.026a31.521,31.521,0,0,0,4.138-1.927c2.4-1.516,3.228-4.5,4.292-6.972l1.972-4.587a9.235,9.235,0,0,1,.811-1.65,2.218,2.218,0,0,1,2.054-.887,3.477,3.477,0,0,0,2.913-.965,4.766,4.766,0,0,0,.869-2.447,9.354,9.354,0,0,1,.626-2.93,2.98,2.98,0,0,1,2.772-1.5c2.57-.062,4.792,1.5,7.287,1.828a4.963,4.963,0,0,0,3.365-.64c.558-.342.044-1.239-.52-.887-2.458,1.53-5.3-.4-7.736-1.027-1.906-.486-4.347-.572-5.685,1.136a5.419,5.419,0,0,0-.948,2.629,8.224,8.224,0,0,1-.623,2.889c-.685,1.215-2.16.756-3.3.948a3.3,3.3,0,0,0-2.4,2.146c-1.369,2.885-2.488,5.877-3.789,8.786a6.843,6.843,0,0,1-2.581,3.306,33.992,33.992,0,0,1-4.172,1.924l-18.141,7.914c-12.093,5.278-24.254,10.422-36.282,15.861a124.335,124.335,0,0,0-16.58,8.9c-5.247,3.406-10.268,7.154-15.4,10.7a302.2,302.2,0,0,1-32.27,19.38q-2.054,1.068-4.131,2.105c-.592.294-.072,1.181.517.887Z" transform="translate(-496.097 -45.475)"/>
    <path id="Path_22374" data-name="Path 22374" d="M1477.15,399.069l-2.194-7.359-.315.77,1.482,5.9-10.953,4.45.541.366a3.563,3.563,0,0,0,3.714.161Z" transform="translate(-756.601 -80.933)" fill="#6c6c6c"/>
    <path id="Path_22375" data-name="Path 22375" d="M1450.116,378.21s-3.765,2.4-1.236,3.2c1.092.342,2.417-1.143,2.417-1.143S1450.578,378.953,1450.116,378.21Z" transform="translate(-745.313 -72.053)" fill="#6c6c6c"/>
    <path id="Path_22376" data-name="Path 22376" d="M1068,663.965c.144-.284.277-.575.431-.852q3.645-6.579,7.3-13.15a5.7,5.7,0,0,1,.3-.527.839.839,0,0,1,1.061-.342,4.267,4.267,0,0,1,.541.281l11.928,6.63c.127.072.26.137.38.216a.864.864,0,0,1,.38,1.311c-.051.106-.113.205-.168.3q-3.714,6.688-7.427,13.38c-.127.226-.277.442-.414.661a.592.592,0,0,1-.086-.414,8.813,8.813,0,0,0-1.1-4.333,8.513,8.513,0,0,0-4.73-4.135,8.846,8.846,0,0,0-7.931.777A.662.662,0,0,1,1068,663.965Zm9.81-1.188a4.03,4.03,0,1,0-1.53-5.484,4.022,4.022,0,0,0,1.53,5.484Z" transform="translate(-495.375 -250.172)" fill="#6c6c6c"/>
    <path id="Path_22377" data-name="Path 22377" d="M1066.412,689.67a.682.682,0,0,0,.469-.2,8.887,8.887,0,0,1,7.931-.777,8.513,8.513,0,0,1,4.73,4.135,8.813,8.813,0,0,1,1.1,4.333.592.592,0,0,0,.086.414c-.223.407-.428.821-.685,1.219-.342.551-.633.626-1.225.342-.106-.051-.205-.109-.3-.168l-12.076-6.7a4.5,4.5,0,0,1-.452-.257.722.722,0,0,1-.294-1.027C1065.919,690.523,1066.179,690.1,1066.412,689.67Z" transform="translate(-493.787 -275.877)" fill="#eee"/>
    <path id="Path_22378" data-name="Path 22378" d="M1092.742,674.658a4.056,4.056,0,1,1,4.51-.314,4.022,4.022,0,0,1-4.51.314Z" transform="translate(-510.303 -262.053)" fill="#eee"/>
  </g>
</svg>
