<svg xmlns="http://www.w3.org/2000/svg" width="495.789" height="320.993" viewBox="0 0 495.789 320.993">
  <g id="Repair_shop" data-name="Repair shop" transform="translate(-285.695 -245.85)">
    <rect id="Rectangle_16079" data-name="Rectangle 16079" width="166.507" height="39.432" rx="3" transform="translate(502.848 327.826)" fill="#dadada" stroke="#919191" stroke-miterlimit="10" stroke-width="1" stroke-dasharray="4 6"/>
    <rect id="Rectangle_16080" data-name="Rectangle 16080" width="124.001" height="31.849" rx="3" transform="translate(285.695 416.98)" fill="#e4e4e4"/>
    <rect id="Rectangle_16081" data-name="Rectangle 16081" width="174.243" height="17.988" rx="6.75" transform="translate(481.984 278.958)" fill="#d9d9d9"/>
    <path id="Path_21766" data-name="Path 21766" d="M841.89,651.273l3.353-3.353H841.89Z" transform="translate(-365.022 -269.893)" fill="#d9d9d9"/>
    <path id="Path_21767" data-name="Path 21767" d="M818.276,614.286h0a.935.935,0,0,1,.932-.935h2.417a.935.935,0,0,0,.935-.935v-13.71a.935.935,0,0,0-.935-.935h-12.62a.935.935,0,0,0-.935.935v18a.935.935,0,0,0,.935.935h8.335a.939.939,0,0,0,.935-.935Z" transform="translate(-342.327 -236.241)" fill="#d9d9d9"/>
    <path id="Path_21768" data-name="Path 21768" d="M1563.88,548.283l3.353-3.353h-3.353Z" transform="translate(-849.778 -200.76)" fill="#e4e4e4"/>
    <path id="Path_21769" data-name="Path 21769" d="M1540.263,511.3v-.932h4.288V494.79H1530.06v19.866h10.2Z" transform="translate(-827.096 -167.111)" fill="#e4e4e4"/>
    <rect id="Rectangle_16082" data-name="Rectangle 16082" width="30.358" height="24.45" rx="3" transform="translate(668.708 540.083) rotate(180)" fill="#e4e4e4"/>
    <rect id="Rectangle_16083" data-name="Rectangle 16083" width="28.745" height="25.613" rx="3" transform="translate(630.043 540.083)" fill="#d9d9d9"/>
    <rect id="Rectangle_16084" data-name="Rectangle 16084" width="37.156" height="24.348" rx="3" transform="translate(669.583 515.804)" fill="#f2f2f2"/>
    <path id="Path_21770" data-name="Path 21770" d="M995.326,594.839a6.97,6.97,0,0,1,1.024,2.585c.392,1.848.754,3.7,1.225,5.523a80.118,80.118,0,0,0,4.008,11.678l.919-.329A80.212,80.212,0,0,1,998.88,604q-.754-2.727-1.317-5.51a18.556,18.556,0,0,0-.609-2.612,8.16,8.16,0,0,0-1.423-2.342,18.087,18.087,0,0,1-1.614-2.24,13.638,13.638,0,0,1-1.1-2.47,26.7,26.7,0,0,1-1.1-5.293c-.454-3.731-.738-7.5-.988-11.26-.3-4.281-.527-8.563-.758-12.874-.023-.484-.988-.422-.968.066.408,7.66.817,15.324,1.614,22.925.375,3.563.889,7.222,3.01,10.256C994.154,593.39,994.806,594.081,995.326,594.839Z" transform="translate(-463.785 -210.288)"/>
    <path id="Path_21771" data-name="Path 21771" d="M1344.237,544.944a168.061,168.061,0,0,0-1.317,21.252q0,5.846.418,11.731l.952.2a171.661,171.661,0,0,1-.2-20.775,162.467,162.467,0,0,1,2.388-20.64,12.615,12.615,0,0,1,1.745-5.312,6,6,0,0,1,4.384-2.463c.586-.056.286-.771-.3-.715-4.16.4-5.77,3.53-6.4,6.359C1345.149,537.989,1344.678,541.476,1344.237,544.944Z" transform="translate(-701.35 -189.572)"/>
    <g id="Group_1225" data-name="Group 1225" transform="translate(510.874 384.786)">
      <path id="Rectangle_745" data-name="Rectangle 745" d="M948.893,685.754l159.205-17.1a3.293,3.293,0,0,1,3.623,2.921l3.547,33.036a3.293,3.293,0,0,1-2.921,3.623l-159.2,17.106a3.293,3.293,0,0,1-3.623-2.921l-3.56-33.036a3.293,3.293,0,0,1,2.931-3.626Z" transform="translate(-945.943 -668.633)" fill="#fff"/>
    </g>
    <g id="Group_38068" data-name="Group 38068" transform="translate(546.19 403.604)" opacity="0.7">
      <path id="Path_21772" data-name="Path 21772" d="M1057.872,761.938l-.859.092.254,2.361-3.168.329-1.008-9.4,4.525-.487c2.635-.28,4.43.909,4.664,3.086a3.165,3.165,0,0,1-1.456,3.142l2.286,2.691-3.382.362Zm-.2-4.611-1.153.122.234,2.2,1.156-.125c.873-.092,1.245-.553,1.169-1.238s-.533-1.07-1.41-.975Z" transform="translate(-1053.09 -745.237)" fill="#ad3232"/>
      <path id="Path_21773" data-name="Path 21773" d="M1092.026,757.662l.257,2.388-7.812.84-1.011-9.4,7.641-.823.257,2.391-4.525.487.118,1.1,3.972-.428.247,2.282-3.975.428.132,1.235Z" transform="translate(-1073.458 -742.469)" fill="#ad3232"/>
      <path id="Path_21774" data-name="Path 21774" d="M1120.089,751.724c.234,2.174-1.284,3.721-3.9,4l-1.357.145.247,2.305-3.168.329-1.008-9.4,4.525-.487C1118.043,748.358,1119.855,749.547,1120.089,751.724Zm-3.2.329c-.072-.685-.533-1.057-1.406-.962l-1.153.122.234,2.2,1.156-.125c.873-.079,1.245-.54,1.169-1.225Z" transform="translate(-1091.861 -741.073)" fill="#ad3232"/>
      <path id="Path_21775" data-name="Path 21775" d="M1146.569,752.849l-3.57.385-.454,1.706-3.224.329,3.1-9.841,3.115-.329,5.118,8.955-3.293.352Zm-1.116-2.187-1.169-2.266-.658,2.463Z" transform="translate(-1110.921 -738.734)" fill="#ad3232"/>
      <path id="Path_21776" data-name="Path 21776" d="M1172.21,742.959l3.168-.329,1.011,9.4-3.168.329Z" transform="translate(-1132.979 -737.077)" fill="#ad3232"/>
      <path id="Path_21777" data-name="Path 21777" d="M1191.255,747.608l-.859.092.254,2.361-3.168.329-1.011-9.4,4.525-.487c2.635-.28,4.429.909,4.663,3.086a3.165,3.165,0,0,1-1.456,3.142l2.286,2.691-3.382.362Zm-.2-4.611-1.156.122.237,2.2,1.153-.125c.873-.092,1.245-.553,1.172-1.238s-.53-1.07-1.4-.975Z" transform="translate(-1142.543 -735.627)" fill="#ad3232"/>
      <path id="Path_21778" data-name="Path 21778" d="M1229.128,744.846l.774-2.421a6.469,6.469,0,0,0,3.191.527c.9-.1,1.2-.329,1.169-.659-.128-1.179-5.22.329-5.6-3.172-.188-1.745,1.123-3.326,4.038-3.623a7.482,7.482,0,0,1,3.623.438l-.708,2.4a5.833,5.833,0,0,0-2.691-.418c-.929.1-1.2.4-1.159.725.122,1.126,5.217-.372,5.6,3.093.184,1.719-1.123,3.326-4.038,3.639A8.737,8.737,0,0,1,1229.128,744.846Z" transform="translate(-1170.829 -732.255)" fill="#ad3232"/>
      <path id="Path_21779" data-name="Path 21779" d="M1265.134,731.62l1.008,9.4-3.168.329-.372-3.465-2.924.329.372,3.465-3.172.329-1.008-9.4,3.168-.329.359,3.33,2.925-.329-.356-3.33Z" transform="translate(-1189.087 -729.693)" fill="#ad3232"/>
      <path id="Path_21780" data-name="Path 21780" d="M1288.938,734.266c-.306-2.845,1.713-5.154,4.775-5.483s5.523,1.5,5.829,4.344-1.713,5.157-4.775,5.483A5,5,0,0,1,1288.938,734.266Zm7.41-.794a1.96,1.96,0,1,0,.013,0Z" transform="translate(-1211.243 -727.765)" fill="#ad3232"/>
      <path id="Path_21781" data-name="Path 21781" d="M1332.408,728.909c.234,2.174-1.284,3.721-3.9,4l-1.357.145.247,2.305-3.168.329-1.008-9.4,4.525-.487C1330.363,725.543,1332.175,726.732,1332.408,728.909Zm-3.2.329c-.073-.685-.534-1.057-1.406-.962l-1.153.125.234,2.2,1.156-.125c.873-.079,1.245-.54,1.169-1.225Z" transform="translate(-1234.256 -725.77)" fill="#ad3232"/>
    </g>
    <path id="Path_21782" data-name="Path 21782" d="M1439.227,975.033s4.047.524,5.823-1.568,2.048-4.779.606-6-4.051-.524-5.826,1.564S1439.227,975.033,1439.227,975.033Z" transform="translate(-765.739 -483.993)" fill="#919191"/>
    <ellipse id="Ellipse_4171" data-name="Ellipse 4171" cx="2.74" cy="4.795" rx="2.74" ry="4.795" transform="matrix(0.993, -0.122, 0.122, 0.993, 675.036, 489.623)" fill="#919191"/>
    <path id="Path_21783" data-name="Path 21783" d="M1452.5,1013.085c-1.41,1.258-.507,4.568,2.012,7.387s8.833,1.09,8.833,1.09a23.029,23.029,0,0,0-3.725-5.655C1457.1,1013.088,1453.917,1011.823,1452.5,1013.085Z" transform="translate(-774.466 -514.694)" fill="#919191"/>
    <path id="Path_21784" data-name="Path 21784" d="M1439.139,976.88a10.207,10.207,0,0,0,.329,3.669s4.051.524,5.826-1.568a6.838,6.838,0,0,0,1.222-2.078,6.287,6.287,0,0,1-1.505,3.293c-1.775,2.091-5.823,1.568-5.823,1.568A9.057,9.057,0,0,1,1439.139,976.88Z" transform="translate(-765.71 -490.712)" fill="#6c6c6c"/>
    <path id="Path_21785" data-name="Path 21785" d="M1446.972,990a7.738,7.738,0,0,0-.079,2.44c.329,2.635,1.8,4.611,3.293,4.426a2.151,2.151,0,0,0,1.545-1.212c-.3,1.472-1.054,2.533-2.055,2.654-1.5.184-2.964-1.8-3.293-4.426A6.563,6.563,0,0,1,1446.972,990Z" transform="translate(-770.753 -499.524)" fill="#6c6c6c"/>
    <path id="Path_21786" data-name="Path 21786" d="M1452.371,1014.56c-.069,1.584.9,3.8,2.671,5.786,1.864,2.085,5.793,1.683,7.72,1.317.4.734.6,1.2.6,1.2s-6.31,1.732-8.833-1.09C1452.1,1019.078,1451.185,1015.92,1452.371,1014.56Z" transform="translate(-774.477 -516.011)" fill="#6c6c6c"/>
    <path id="Path_21787" data-name="Path 21787" d="M1408.51,967.038l2.75,5.414,8.378,3.359.138,1.116-8.9-2.934-4.555-7.924Z" transform="translate(-743.913 -483.464)" fill="#6c6c6c"/>
    <path id="Path_21788" data-name="Path 21788" d="M1454.984,949.883s-.945-8.418.619-10.1,5.335-2.358,5.852,0-.6,1.317-.721.988.4-.883.4-.883a1.763,1.763,0,0,0-2.325-1.317c-2.045.405-2.885,1.077-3.293,1.976s-.56,6.113-.484,6.422.27,2.8.27,2.8S1455.105,950.205,1454.984,949.883Z" transform="translate(-776.38 -464.797)" fill="#6c6c6c"/>
    <path id="Path_21789" data-name="Path 21789" d="M1442.659,942.672s-3.952-10.588-2.062-12.39,3.728-1.755,4.087-.794.2,2.487-.362,1.976.082-.761.082-.761.721-.988-.8-1.163-2.806.329-2.964,1.838a8.3,8.3,0,0,0,.115,3.247c.277,1.726,2.23,7.94,2.23,7.94S1443.1,942.873,1442.659,942.672Z" transform="translate(-766.566 -458.47)" fill="#6c6c6c"/>
    <path id="Path_21790" data-name="Path 21790" d="M1468.862,997.649c.191-.329,1.943-1.976,2.305-1.9,0,0,2.039,3.175,1.647,3.715-1.857,2.585-4.611-.494-4.611-.494l-10.41-3.9-.293-.534Z" transform="translate(-778.272 -502.561)" fill="#6c6c6c"/>
    <path id="Path_21791" data-name="Path 21791" d="M1459.393,1031.32l-.033.039h0Z" transform="translate(-779.498 -527.359)" fill="#355585"/>
    <path id="Path_21792" data-name="Path 21792" d="M1439.057,1042.842h-1.937l3.023-8.968,3.293-2.987c.059-.053.283.046.366,0l-2.934,3.415Z" transform="translate(-764.578 -527.058)" fill="#6c6c6c"/>
    <path id="Path_21793" data-name="Path 21793" d="M1472.479,1042h2.151l-3.356-9.278-3.666-3.089c-.066-.053-.329.046-.408,0l3.26,3.531Z" transform="translate(-784.771 -526.22)" fill="#6c6c6c"/>
    <line id="Line_3043" data-name="Line 3043" x2="28.069" transform="translate(664.89 515.784)" fill="none" stroke="#b5b5b5" stroke-miterlimit="10" stroke-width="2"/>
    <path id="Path_21794" data-name="Path 21794" d="M1430.651,820.922l-17.471-21.871.593-.471,17.139,22.138Z" transform="translate(-748.524 -371.045)" fill="#ffd4a0"/>
    <path id="Path_21795" data-name="Path 21795" d="M1404.352,787.676l-5.9.958-.794,18.43L1401.283,796l7.733,20.346-5.358-22.652,5.625,8.151-4.64-9.5,15.594,7.486-13.019-8.543,10.384,2.944-7.245-4.281L1424.188,786Z" transform="translate(-738.119 -362.61)" fill="#ffd4a0"/>
    <path id="Path_21796" data-name="Path 21796" d="M1389.257,895.15l4.469,10.8s-23.643,26.169-25.948,27.457-8.892-1.907-6.1-8.563S1389.257,895.15,1389.257,895.15Z" transform="translate(-713.519 -435.896)" fill="#b7b7b7"/>
    <path id="Path_21797" data-name="Path 21797" d="M1396.912,933.3l13.434-13.717a60.356,60.356,0,0,1-3.494-6.587l-14.162,13.467Z" transform="translate(-734.77 -447.852)" fill="#919191"/>
    <path id="Path_21798" data-name="Path 21798" d="M1401.752,895.15l4.469,10.8s-23.8,25.922-25.949,27.457a7,7,0,0,1-.642.4,2.75,2.75,0,0,0,1.456-.264c2.305-1.288,26.288-26.983,26.288-26.983Z" transform="translate(-726.018 -435.896)" fill="#919191"/>
    <path id="Path_21799" data-name="Path 21799" d="M1426.07,951l2.635,8.233-1.647-7.575Z" transform="translate(-757.155 -473.344)" fill="#ffd4a0"/>
    <path id="Path_21800" data-name="Path 21800" d="M1378.058,891l-.988,4.94,1.647-4.281Z" transform="translate(-724.263 -433.064)" fill="#ffd4a0"/>
    <path id="Path_21801" data-name="Path 21801" d="M1448.4,882.976l4.611,1.976L1448.07,881Z" transform="translate(-771.926 -426.35)" fill="#ffd4a0"/>
    <path id="Path_21802" data-name="Path 21802" d="M1397.6,961.659l2.635,6.916-.652.678L1386.07,961l13.173,7.245-2.305-6.257Z" transform="translate(-730.321 -480.057)" fill="#ffd4a0"/>
    <path id="Path_21803" data-name="Path 21803" d="M1412.07,946.647l.329,2.305.659-3.952Z" transform="translate(-747.755 -469.311)" fill="#ffd4a0"/>
    <path id="Path_21804" data-name="Path 21804" d="M1491.07,887h2.635l-1.647,1.647Z" transform="translate(-800.947 -430.375)" fill="#ffd4a0"/>
    <path id="Path_21805" data-name="Path 21805" d="M1381.058,932l-.988,1.976h1.976Z" transform="translate(-726.277 -460.582)" fill="#ffd4a0"/>
    <line id="Line_3044" data-name="Line 3044" x1="21.115" transform="translate(369.372 448.805)" fill="none" stroke="#b5b5b5" stroke-miterlimit="10" stroke-width="2"/>
    <ellipse id="Ellipse_4172" data-name="Ellipse 4172" cx="2.366" cy="4.139" rx="2.366" ry="4.139" transform="translate(378.648 425.926)" fill="#919191"/>
    <path id="Path_21806" data-name="Path 21806" d="M589.284,768.515c1.341.932.932,3.86-.931,6.542s-7.452,1.863-7.452,1.863a19.943,19.943,0,0,1,2.6-5.235C585.346,769,587.942,767.583,589.284,768.515Z" transform="translate(-207.548 -334.745)" fill="#919191"/>
    <path id="Path_21807" data-name="Path 21807" d="M602.486,746.66a6.6,6.6,0,0,1,.31,2.08c0,2.289-1.059,4.139-2.363,4.139a1.863,1.863,0,0,1-1.453-.872c.41,1.242,1.171,2.056,2.043,2.056,1.307,0,2.366-1.863,2.366-4.139A5.648,5.648,0,0,0,602.486,746.66Z" transform="translate(-220.023 -319.86)" fill="#6c6c6c"/>
    <path id="Path_21808" data-name="Path 21808" d="M589.382,769.54a7.871,7.871,0,0,1-1.68,5.238c-1.376,1.981-4.788,2.049-6.474,1.953-.264.671-.388,1.09-.388,1.09s5.589.823,7.452-1.863C590.087,773.381,590.543,770.58,589.382,769.54Z" transform="translate(-207.506 -335.649)" fill="#6c6c6c"/>
    <path id="Path_21809" data-name="Path 21809" d="M584.886,786.05h-.31l-3.416,5.589v4.037H582.4l-.621-4.037S584.958,786.059,584.886,786.05Z" transform="translate(-207.567 -347.043)" fill="#6c6c6c"/>
    <path id="Path_21810" data-name="Path 21810" d="M612.3,725.3l4.72-4.862,2.068-8.4-1.773,1.891-1.466,6.353-3.549,4.043Z" transform="translate(-229.214 -295.976)" fill="#6c6c6c"/>
    <path id="Path_21811" data-name="Path 21811" d="M600.241,729.524s-1.307,3.276-3.63,3.726-4.462-.463-4.779-2.065,1.307-3.273,3.627-3.726S600.241,729.524,600.241,729.524Z" transform="translate(-215.064 -306.571)" fill="#919191"/>
    <path id="Path_21812" data-name="Path 21812" d="M600.36,727.54a8.841,8.841,0,0,1,2.63,1.785s-1.307,3.276-3.63,3.726a5.826,5.826,0,0,1-2.08.047,5.393,5.393,0,0,0,3.105.245c2.323-.46,3.63-3.726,3.63-3.726A7.8,7.8,0,0,0,600.36,727.54Z" transform="translate(-218.85 -306.664)" fill="#6c6c6c"/>
    <path id="Path_21813" data-name="Path 21813" d="M573.366,730.187s-5.949-4.238-7.878-3.776-4.018,3.034-2.45,4.419,1.242.1,1.059-.127-.835-.065-.835-.065a1.527,1.527,0,0,1-.025-2.31c1.158-1.379,2.028-1.723,2.86-1.658A27.478,27.478,0,0,1,571.146,729c.2.186,2,1.379,2,1.379S573.559,730.414,573.366,730.187Z" transform="translate(-194.693 -305.861)" fill="#6c6c6c"/>
    <path id="Path_21814" data-name="Path 21814" d="M574.4,716.215s-6.325-7.427-8.477-6.76-2.891,2.074-2.316,2.751,1.792,1.192,1.633.55-.621-.258-.621-.258-1.059.124-.54-1.093,1.416-1.984,2.633-1.466a7.068,7.068,0,0,1,2.4,1.45c1.183.935,5.052,5.018,5.052,5.018S574.366,716.631,574.4,716.215Z" transform="translate(-195.333 -294.157)" fill="#6c6c6c"/>
    <path id="Path_21815" data-name="Path 21815" d="M609.115,794.142l.984-5.58-3.549-4.434v-.3l4.139,4.139-.469,6.173Z" transform="translate(-225.245 -345.512)" fill="#6c6c6c"/>
    <path id="Path_21816" data-name="Path 21816" d="M674,440.53Z" transform="translate(-252.323 -130.679)" fill="#6c6c6c"/>
    <path id="Path_21817" data-name="Path 21817" d="M646.756,376.709l-4.723-.969-3.086,9a4.017,4.017,0,0,1,.118.661,17.347,17.347,0,0,1,.655,2.7,18,18,0,0,1-.338,6.07c-.087.531-.174,1.043-.242,1.528-.621,4.49-1.515,11.746-2.369,18.767-.863,7.067-1.891,15.55-2.546,20.257-2.313.121-4.037.882-4.2,2.046a1.617,1.617,0,0,0,.286,1.118,2.86,2.86,0,0,0,.354,1.155c.807,1.484.075,2.953-.711,4.328-2.518,4.406-2.729,9.315-3.45,14.134-.736,4.909-2.838,19.037-3.552,23.952a2.692,2.692,0,0,0,.419,2.211,2.388,2.388,0,0,0,1.767.994c2.226.311,5.372.81,7.6,1.105,1.7.224,3.686-.438,3.937-2.152,1.13-7.763,3.67-24.722,4.794-32.479a11.934,11.934,0,0,0-.332-4.037c-.475-2.416-1.351-4.807.438-6.726.932-.357,1.537-.891,1.639-1.552.193-1.242-1.366-2.54-3.726-3.347.413-2.909.761-6.831,1.167-9.663l.556-3.894c.6-4.167,1.82-14.848,2.627-21.916.239-2.1.441-3.884.587-5.111v-.04a18.927,18.927,0,0,1,2.993-8.613l.168-.233Z" transform="translate(-228.913 -74.983) rotate(1)" fill="#6c6c6c"/>
    <path id="Path_21818" data-name="Path 21818" d="M674,440.53Z" transform="translate(-252.323 -130.679)" fill="#6c6c6c"/>
    <path id="Path_21819" data-name="Path 21819" d="M630.639,572.326a2.862,2.862,0,0,1-.354-1.155,1.618,1.618,0,0,1-.286-1.118,1.64,1.64,0,0,1,.621-1l12.253,1.9a1.618,1.618,0,0,1,.31,1.149c-.1.668-.711,1.2-1.639,1.553-1.789,1.919-.913,4.31-.438,6.726a11.935,11.935,0,0,1,.332,4.037c-1.124,7.763-3.664,24.723-4.794,32.479-.251,1.714-2.233,2.375-3.937,2.152-2.233-.31-5.378-.782-7.6-1.105a2.388,2.388,0,0,1-1.767-.994,2.7,2.7,0,0,1-.419-2.211c.714-4.915,2.816-19.043,3.552-23.952.72-4.813.932-9.728,3.45-14.134C630.714,575.279,631.446,573.81,630.639,572.326Z" transform="translate(-226.562 -208.334) rotate(1)" fill="#b7b7b7"/>
    <rect id="Rectangle_16085" data-name="Rectangle 16085" width="2.484" height="30.119" rx="1.242" transform="matrix(-0.985, -0.174, 0.174, -0.985, 396.018, 417.375)" fill="#dadada"/>
    <rect id="Rectangle_16086" data-name="Rectangle 16086" width="2.484" height="30.119" rx="1.242" transform="matrix(-0.985, -0.174, 0.174, -0.985, 391.133, 416.515)" fill="#dadada"/>
    <path id="Path_21820" data-name="Path 21820" d="M615.016,731.835l-6.856,2.86v.885L615.448,733l7.729-8.073-2.093-.053Z" transform="translate(-226.361 -304.826)" fill="#6c6c6c"/>
    <path id="Path_21821" data-name="Path 21821" d="M1333.1,298.686c9.551-10.055,17.488-20.379,11.326-22.849-11.221-4.43-39.076,16.5-46.229,22.425q1.456.208,2.925.435Z" transform="translate(-671.384 -19.702)" fill="#fff"/>
    <path id="Path_21822" data-name="Path 21822" d="M863.285,322.226H903.6c-15.607-11.092-34.126-16.088-49.519-7.9C848.577,317.325,854.88,319.163,863.285,322.226Z" transform="translate(-371.853 -43.201)" fill="#fff"/>
    <path id="Path_21823" data-name="Path 21823" d="M1382.5,277.08s18.087,33.461,3.972,71.051c-13.595,37.587-16.967,33.984-22.066,33.467s-12.186-10.256-8.342-17.228c3.952-6.972,4.011-5.427,4.011-5.427s-2.355-6.692,5.2-10.812c7.693-4.12,10.819-4.12,10.819-4.12s3.725-13.9-.807-21.624c-4.782-7.723-20.294-14.412-15.874-26.769C1363.946,283.262,1367.72,277.6,1382.5,277.08Z" transform="translate(-709.475 -20.945)" fill="#ffab43"/>
    <path id="Path_21824" data-name="Path 21824" d="M1395.792,290.665a74.963,74.963,0,0,0-5.826-13.585c-14.781.517-18.555,6.182-23.086,18.538-2.579,7.17,1.647,12.429,6.587,17.093C1377.224,302.5,1385.8,295.207,1395.792,290.665Z" transform="translate(-716.937 -20.945)" fill="#fff"/>
    <path id="Path_21825" data-name="Path 21825" d="M866.043,320.817c-7.245-4.518-14.9,1.064-12.186,8.938,5.576,16.622,15.881,44.661,27.688,56.933,16.167,18.015,22.836,14.926,25.339,10.292,2.579-4.63,3.109-9.962.181-13.987-2.984-4.025-2.585-1.614-2.585-1.614s-1.775-8.072-7.9-7.045-8.991,2.575-8.991,2.575a34.883,34.883,0,0,1-5.095-18.012c-.046-10.809.208-23.676-7.183-30.879A60.687,60.687,0,0,0,866.043,320.817Z" transform="translate(-372.718 -49.193)" fill="#ffab43"/>
    <path id="Path_21826" data-name="Path 21826" d="M879.972,335.441a19.622,19.622,0,0,0-4.706-7.476,60.487,60.487,0,0,0-9.3-7.245c-7.245-4.5-14.866,1.06-12.166,8.918,1.515,4.456,3.4,9.739,5.572,15.321A17.792,17.792,0,0,1,879.972,335.441Z" transform="translate(-372.657 -49.132)" fill="#fff"/>
    <path id="Path_21827" data-name="Path 21827" d="M1122.883,290.718c2.368-2.862,10.368-2.832,16.763-2.717a34.116,34.116,0,0,0,4.542-7.743s5.651-10.249,1.68-12.686-11.112-8.233-18.637.03c-3.623,4.067-6.343,7.278-8.233,11.2h-.115s-11.8,5.879-17.172,11.922Z" transform="translate(-539.473 -11.714)" fill="#ffab43"/>
    <path id="Path_21828" data-name="Path 21828" d="M1164.05,295.722s-5.243,3.172-4.512,9.027,6.705,8.049,2.635,9.511c-2.111.767,10.96.244,13.7-1.953s5.269-8.783,5.269-8.783l-2.361,3.191a2.636,2.636,0,0,1-1.15.919c-.942.369-1.795,0-4.877-.692-2.236-.507-4.835-2.48-6.5-3.919a4.077,4.077,0,0,1-1.047-4.663c.659-1.647,1.34-3.468,1.1-3.857a10.86,10.86,0,0,0-2.348-1.953Z" transform="translate(-578.218 -31.32)"/>
    <path id="Path_21829" data-name="Path 21829" d="M1152.243,267.086a28.073,28.073,0,0,0,4.973-2.684,10.179,10.179,0,0,1,2.8-1.647l1.347-2.747,1.317,2.437,4.364-6.587-.382-3.293,2.022,3.623s5.138,4.782,7.061,5.269,9.9,1.462,10.282.24c.527-1.693-3.794-1.647-3.794-1.647s4.42-3.428,1.647-3.715c-4.67-.487-5.3-1.554-5.3-1.554s1.021-.4.161-1.861-8.813-6.1-11.461-4.387c-1.512.988-2.882,1.709-2.882,1.709s-.751-4.393-1.258-4.393,0,4.393,0,4.393-1.39-2.2-2.147-2.2,1.182,2.994,1.182,2.994-4.364.178-5.708,2.131-.514,6.1-1.037,6.83-2.368,3.241-3.214,3.451-.636,1.186.329.942h0S1150.32,264.55,1152.243,267.086Z" transform="translate(-572.857)"/>
    <path id="Path_21830" data-name="Path 21830" d="M993.994,506.918c-.109-.619.744-1.031,1.538-1.159a2.447,2.447,0,0,1,2.355.8,4.194,4.194,0,0,1,.82,2.342,21.614,21.614,0,0,1,.115,2.994,52.872,52.872,0,0,1-1.89,11.7c-1.943,7.548-4.917,15.011-7.166,22.533s-3.715,15.15-2.677,22.632c.573,4.146,1.759,8.191,2.724,12.271a113.327,113.327,0,0,1,1.976,12.06,75.982,75.982,0,0,0,2.141,11.876,33.774,33.774,0,0,0,2.184,5.688,5.885,5.885,0,0,0,3.339,3.356,4.4,4.4,0,0,0,2.5.026c.751-.191.329-.949-.428-.758-2.23.573-3.537-1.558-4.09-2.635a32.214,32.214,0,0,1-2.305-5.846,76.888,76.888,0,0,1-2.164-12.08,111,111,0,0,0-2.075-12.373,111.775,111.775,0,0,1-2.694-12.492c-.916-7.6.8-15.364,3.165-23s5.408-15.3,7.209-23.017a43.956,43.956,0,0,0,1.446-11.764c-.069-1.568-.112-3.491-1.752-4.611a4.494,4.494,0,0,0-4.65.112,1.515,1.515,0,0,0-.827,1.5c.1.557,1.3.369,1.205-.165Z" transform="translate(-462.27 -173.943)"/>
    <rect id="Rectangle_16087" data-name="Rectangle 16087" width="49.071" height="25.622" rx="3" transform="translate(710.542 565.85) rotate(180)" fill="#e4e4e4"/>
    <path id="Path_21831" data-name="Path 21831" d="M11.879,53,116.968,27.229a17.043,17.043,0,0,0,29.925-5.151L132.98,25.118l-8.9-6.655L129.393,8.7l13.913-3.039a17.039,17.039,0,0,0-29.349,7.81L7.694,33.887A9.785,9.785,0,0,0,11.879,53ZM8.454,39.925a4.9,4.9,0,1,1,0-.009Z" transform="matrix(0.996, -0.087, 0.087, 0.996, 355.76, 504.648)" fill="#b7b7b7"/>
    <path id="Path_21832" data-name="Path 21832" d="M3.912,34.662a8.245,8.245,0,0,0,6.175,1.062l.2-.044L110.459,11.111l-.311-1.37L9.941,34.319l-.165.037a6.9,6.9,0,0,1-2.955-13.49l.171-.034L108.319,1.367,108.008,0,6.74,19.456l-.206.043A8.305,8.305,0,0,0,3.912,34.662Z" transform="matrix(0.996, -0.087, 0.087, 0.996, 358.376, 520.368)" fill="#dadada"/>
    <path id="Path_21833" data-name="Path 21833" d="M1603.426,726.665l-1.238-.418a1.825,1.825,0,0,1-.958-2.7l.791-1.248-5.2-5.2-1.169.58a1.824,1.824,0,0,1-2.589-1.235l-.329-1.443h-7.351l-.418,1.235a1.825,1.825,0,0,1-2.7.958l-1.248-.79-5.2,5.2.58,1.166a1.828,1.828,0,0,1-1.235,2.592l-1.443.329v7.351l1.235.418a1.821,1.821,0,0,1,.958,2.7l-.784,1.235,5.2,5.2,1.166-.58a1.828,1.828,0,0,1,2.592,1.235l.329,1.443h7.351l.418-1.238a1.821,1.821,0,0,1,2.7-.958l1.251.794,5.2-5.2-.58-1.169a1.825,1.825,0,0,1,1.235-2.589l1.443-.329Zm-14.85,10.595a7.41,7.41,0,1,1,7.41-7.41A7.41,7.41,0,0,1,1588.576,737.26Z" transform="translate(-856.377 -314.946)" fill="#fff"/>
    <path id="Path_21834" data-name="Path 21834" d="M490.731,491.1l-2.4-2.134a4.493,4.493,0,0,1,.434-7.052l3-2.073-6.766-16.771-3.209.186a4.493,4.493,0,0,1-4.68-5.291l.655-3.582L461.088,447.3l-2.134,2.4a4.493,4.493,0,0,1-7.052-.434l-2.073-3-16.78,6.757.187,3.209a4.5,4.5,0,0,1-5.291,4.684l-3.582-.655-7.1,16.68,2.4,2.138a4.493,4.493,0,0,1-.434,7.052l-3,2.069,6.779,16.8,3.209-.191a4.5,4.5,0,0,1,4.684,5.3l-.655,3.582,16.671,7.06,2.138-2.4a4.493,4.493,0,0,1,7.052.434l2.069,3,16.8-6.779-.191-3.209a4.493,4.493,0,0,1,5.3-4.68l3.582.655Zm-43.864,9.7a18.254,18.254,0,1,1,23.94-9.663A18.254,18.254,0,0,1,446.867,500.8Z" transform="translate(97.704 -290.676) rotate(22)" fill="#f2f2f2"/>
    <path id="Path_21835" data-name="Path 21835" d="M5.554,6.166S2.5,6.561,1.16,4.982-.4,1.379.705.454,3.76.062,5.1,1.638,5.554,6.166,5.554,6.166Z" transform="matrix(0.996, -0.087, 0.087, 0.996, 410.631, 539.786)" fill="#5673a8"/>
    <ellipse id="Ellipse_4173" data-name="Ellipse 4173" cx="3.618" cy="2.068" rx="3.618" ry="2.068" transform="translate(411.033 551.549) rotate(-88)" fill="#5673a8"/>
    <path id="Path_21836" data-name="Path 21836" d="M8.18.369c1.065.95.383,3.447-1.516,5.574S0,6.765,0,6.765A17.352,17.352,0,0,1,2.8,2.5C4.711.372,7.115-.584,8.18.369Z" transform="matrix(0.996, -0.087, 0.087, 0.996, 405.57, 551.638)" fill="#5673a8"/>
    <path id="Path_21837" data-name="Path 21837" d="M5.571,0a7.722,7.722,0,0,1-.243,2.768s-3.055.4-4.394-1.183A5.162,5.162,0,0,1,0,.028,4.719,4.719,0,0,0,1.133,2.5C2.472,4.079,5.527,3.684,5.527,3.684A6.771,6.771,0,0,0,5.571,0Z" transform="matrix(0.996, -0.087, 0.087, 0.996, 410.861, 542.266)" fill="#355585"/>
    <path id="Path_21838" data-name="Path 21838" d="M3.6,0a5.784,5.784,0,0,1,.059,1.841C3.413,3.824,2.3,5.319,1.165,5.179A1.623,1.623,0,0,1,0,4.266c.227,1.109.8,1.909,1.557,2,1.134.137,2.248-1.358,2.491-3.338A4.948,4.948,0,0,0,3.6,0Z" transform="matrix(0.996, -0.087, 0.087, 0.996, 411.016, 545.529)" fill="#355585"/>
    <path id="Path_21839" data-name="Path 21839" d="M8.289,0A6.843,6.843,0,0,1,6.275,4.36C4.87,5.917,1.915,5.63.451,5.365A8.465,8.465,0,0,0,0,6.271s4.761,1.3,6.664-.822C8.492,3.4,9.186,1.021,8.289,0Z" transform="matrix(0.996, -0.087, 0.087, 0.996, 405.612, 552.128)" fill="#355585"/>
    <path id="Path_21840" data-name="Path 21840" d="M8.71.529,6.424,4.814.1,7.349,0,8.19,6.714,5.976,10.151,0Z" transform="matrix(0.996, -0.087, 0.087, 0.996, 414.352, 539.266)" fill="#355585"/>
    <path id="Path_21841" data-name="Path 21841" d="M4.982,8.77S5.7,2.417,4.518,1.15.491-.628.1,1.15s.455,1,.545.757S.336,1.24.336,1.24a1.336,1.336,0,0,1,1.753-1c1.541.3,2.18.813,2.491,1.476a23.539,23.539,0,0,1,.367,4.848c-.056.234-.2,2.108-.2,2.108S4.891,9.013,4.982,8.77Z" transform="matrix(0.996, -0.087, 0.087, 0.996, 406.723, 532.998)" fill="#355585"/>
    <path id="Path_21842" data-name="Path 21842" d="M1.679,10.438S4.659,2.45,3.236,1.1.433-.231.15.495,0,2.363.424,1.977.361,1.4.361,1.4-.183.647.966.523,3.083.762,3.2,1.911A6.2,6.2,0,0,1,3.12,4.359c-.209,1.3-1.685,5.991-1.685,5.991S1.346,10.59,1.679,10.438Z" transform="matrix(0.996, -0.087, 0.087, 0.996, 411.7, 530.215)" fill="#355585"/>
    <path id="Path_21843" data-name="Path 21843" d="M5.424,2.255,1.246,0,0,.311l5.1,3.2,5.867-1.554.221-.4Z" transform="matrix(0.996, -0.087, 0.087, 0.996, 401.154, 545.955)" fill="#355585"/>
    <path id="Path_21844" data-name="Path 21844" d="M0,0,.025.028h0Z" transform="matrix(0.996, -0.087, 0.087, 0.996, 412.729, 555.682)" fill="#355585"/>
    <path id="Path_21845" data-name="Path 21845" d="M3.584,9.032H5.048L2.768,2.268.277.011C.234-.027.062.048,0,.011L2.214,2.589Z" transform="matrix(0.996, -0.087, 0.087, 0.996, 413.218, 555.525)" fill="#355585"/>
    <path id="Path_21846" data-name="Path 21846" d="M1.622,9.342H0l2.532-7L5.3.012c.05-.041.237.034.311,0L3.148,2.678Z" transform="matrix(0.996, -0.087, 0.087, 0.996, 405.205, 555.916)" fill="#355585"/>
    <line id="Line_3045" data-name="Line 3045" x1="21.175" transform="matrix(0.996, -0.087, 0.087, 0.996, 403.686, 565.425)" fill="none" stroke="#b5b5b5" stroke-miterlimit="10" stroke-width="2"/>
    <line id="Line_3046" data-name="Line 3046" x2="83.322" transform="translate(630.23 565.844)" fill="none" stroke="#dadada" stroke-miterlimit="10" stroke-width="2"/>
    <path id="Path_21847" data-name="Path 21847" d="M1494.87,867.052c.949.079.659.741.56,1.294,0,.81.359,3.1-1.732,11.672-.063.257-.151.51-.52.573a1.767,1.767,0,0,1-2.088-2.384c1.067-3.293,2.114-6.587,2.846-9.959C1494.047,867.747,1493.846,866.97,1494.87,867.052Zm1.587-7.687c.906-.023,1.031,3.5.912,4.94-.152,1.821-.155,1.821-1.841,1.607-.787-.1-1.578-.191-2.361-.3-2.167-.3-2.2-.3-1.937-2.483.464-3.847.879-3.652,5.227-3.764Zm-11.174-16.744c.359-.4.659-.474,1.018-.132q.935.876,1.9,1.713c.375.329.349.626,0,1.028s-.659.481-1.031.145-.632-.573-.948-.86-.632-.573-.952-.853S1484.934,843.027,1485.284,842.622ZM1479.652,837c1.11.853,2.223,1.7,3.323,2.562.135.109.329.23.365.4l-.405.5c-.191,0-.352-.171-.487-.31-.988-.988-1.947-2.006-2.918-3.01Z" transform="translate(-793.207 -396.865)" fill="#b7b7b7"/>
    <path id="Path_21848" data-name="Path 21848" d="M1471.75,831.58s2.279,2.605,3.093,3.359a10.212,10.212,0,0,1,1.851,2.236l-.329.4.537,1.578a1.265,1.265,0,0,0,1.683.748c1.1.155,2.9,2.256,2.793,2.71,0,.063.122.217.329.408a4.742,4.742,0,0,0,1.482,1.2,2.461,2.461,0,0,0,.2.138c1.278.59,3.083-.478,4.077,1.255,1.054,1.838,1.156,5.928,1.156,5.928l-2.417,1.647s-1.5,6.2-1.646,7.657c-.04.349-.2.846.283.889,1.34.125.085,2.305-.086,2.589-.464.787-.606,1.377.244,1.647.629.194.8.642.659,1.35-.557,3.05-1.054,6.1-1.607,9.149a10.64,10.64,0,0,1-1.169,2.7c-.3.468.435.583.471.586h0l.211.059-2.006,1.475-.988,4.354-1.518,1.116-.968,4.281-1.344.988-1.166,5.131,2.865,1.034,3.076-4.186V891.9l2.305-3.139v-2.068l2.5-3.4V880.76c.112.076,1.074.3,1.163.4a4.412,4.412,0,0,0,.593-1.11,71.018,71.018,0,0,0,4.067-16.4c1.646-2.654.988-10.209.988-10.209l-2.167-1.538a2.44,2.44,0,0,1-.247-.823c.135-3.293-.458-6.238-3.01-8.342a.951.951,0,0,1-.3-.659c.165-.636.362-2.473-2.282-3.909l-.135.191a4.056,4.056,0,0,1-2.885-2.872.107.107,0,0,1,0-.033,1.188,1.188,0,0,0-.955-1.429l-1.749-.237-.458.57c-.418-.109-5.994-4.136-5.994-4.136Zm17.9,30.925c.949.079.919,4.4-1.172,12.966-.062.257-.151.51-.52.573a1.767,1.767,0,0,1-2.088-2.384c1.067-3.293,2.114-6.587,2.845-9.959C1488.829,863.2,1488.628,862.423,1489.653,862.5Zm1.588-7.687c.906-.023,1.031,3.5.912,4.94-.151,1.821-.155,1.821-1.841,1.607-.787-.1-1.578-.191-2.362-.3-2.167-.3-1.739-.474-1.475-2.658C1486.939,854.561,1486.893,854.93,1491.24,854.818Zm-11.175-16.743c.359-.4.659-.474,1.018-.132q.935.876,1.9,1.713c.375.329.349.626,0,1.028s-.659.481-1.031.145-.632-.573-.948-.86-.632-.573-.952-.853S1479.717,838.48,1480.066,838.075Zm-5.632-5.622c1.11.853,2.223,1.7,3.323,2.562.135.109.329.231.365.4l-.405.5c-.191,0-.352-.171-.487-.31-.988-.988-1.947-2.006-2.918-3.01Z" transform="translate(-787.847 -392.352)" fill="#919191"/>
    <path id="Path_21849" data-name="Path 21849" d="M1491.222,980.589l.208.059-2.006,1.475-.988,4.354-1.518,1.116-.968,4.281-1.344.988-1.166,5.131,2.865,1.034,3.076-4.186v-2.118l2.305-3.139v-2.068l2.5-3.4v-2.1C1493.251,981.337,1492.428,980.569,1491.222,980.589Z" transform="translate(-795.83 -493.221)"/>
    <path id="Path_21850" data-name="Path 21850" d="M1501.176,1006s-.988,3.623,0,3.623S1504.469,1007.317,1501.176,1006Z" transform="translate(-807.43 -510.257)" fill="#6c6c6c"/>
    <path id="Path_21851" data-name="Path 21851" d="M789.13,432.34s-3.888.843-5.785-1.037-2.387-4.464-1.086-5.761,3.884-.848,5.781,1.033S789.13,432.34,789.13,432.34Z" transform="translate(-330.437 -132.71)" fill="#5673a8"/>
    <ellipse id="Ellipse_4174" data-name="Ellipse 4174" cx="4.67" cy="2.67" rx="4.67" ry="2.67" transform="matrix(0.268, -0.963, 0.963, 0.268, 449.527, 307.419)" fill="#5673a8"/>
    <path id="Path_21852" data-name="Path 21852" d="M769.513,462.246c1.177,1.42-.169,4.477-3.008,6.826s-8.666-.23-8.666-.23a22.438,22.438,0,0,1,4.407-4.9C765.086,461.584,768.336,460.826,769.513,462.246Z" transform="translate(-316.479 -154.353)" fill="#5673a8"/>
    <path id="Path_21853" data-name="Path 21853" d="M788.9,431.62a10.009,10.009,0,0,1,0,3.588s-3.888.848-5.785-1.033a6.663,6.663,0,0,1-1.358-1.917,6.106,6.106,0,0,0,1.745,3.057c1.9,1.88,5.785,1.037,5.785,1.037A8.916,8.916,0,0,0,788.9,431.62Z" transform="translate(-330.573 -136.725)" fill="#355585"/>
    <path id="Path_21854" data-name="Path 21854" d="M785.541,445.36a7.454,7.454,0,0,1-.276,2.362c-.691,2.469-2.4,4.181-3.823,3.786a2.09,2.09,0,0,1-1.313-1.391c.074,1.461.65,2.592,1.6,2.856,1.424.411,3.131-1.3,3.823-3.785A6.337,6.337,0,0,0,785.541,445.36Z" transform="translate(-329.61 -144.823)" fill="#355585"/>
    <path id="Path_21855" data-name="Path 21855" d="M769.629,463.69c-.161,1.539-1.416,3.534-3.407,5.189-2.1,1.74-5.826.782-7.633.165-.49.65-.749,1.07-.749,1.07s5.831,2.584,8.665.23C769.234,468.08,770.579,465.171,769.629,463.69Z" transform="translate(-316.479 -155.625)" fill="#355585"/>
    <path id="Path_21856" data-name="Path 21856" d="M792.88,450.541l5.526,5.283,6.02,1.625,1.321-1.346-7.176-1.6L793.3,449.71Z" transform="translate(-337.128 -147.387)" fill="#355585"/>
    <path id="Path_21857" data-name="Path 21857" d="M776.395,414.426s.214-8.229-1.444-9.752-5.378-1.839-5.682.5.7,1.234.786.913-.461-.823-.461-.823a1.719,1.719,0,0,1,2.14-1.481c2.016.214,2.88.8,3.358,1.625s1.057,5.888,1.008,6.193-.025,2.736-.025,2.736S776.3,414.747,776.395,414.426Z" transform="translate(-323.177 -120.022)" fill="#355585"/>
    <path id="Path_21858" data-name="Path 21858" d="M787.9,408.364s2.95-10.608.967-12.2-3.769-1.391-4.037-.411,0,2.428.518,1.876-.144-.732-.144-.732-.786-.913.679-1.2,2.753.074,3.037,1.535a8.044,8.044,0,0,1,.16,3.164c-.123,1.7-1.5,7.892-1.5,7.892S787.487,408.594,787.9,408.364Z" transform="translate(-332.317 -115.029)" fill="#355585"/>
    <path id="Path_21859" data-name="Path 21859" d="M771.4,449.987l5.781-3.407-.267.967-4.46,2.387,3.2,4.7-1,1.107Z" transform="translate(-324.467 -145.541)" fill="#355585"/>
    <path id="Path_21860" data-name="Path 21860" d="M819.82,466.194l.329.749s1.045,2,2.276,1.378a1.164,1.164,0,0,0,.345-1.839,5.646,5.646,0,0,1-.621-.95.547.547,0,0,0-.753-.222Z" transform="translate(-352.998 -156.535)" fill="#355585"/>
    <path id="Path_21861" data-name="Path 21861" d="M871.881,512.687,856.7,500.343,841.589,487.9l-7.583-6.172q-3.777-3.123-7.481-6.361l-3.65-3.263c-1.205-1.1-2.419-2.189-3.609-3.292-2.395-2.222-4.761-4.473-7.057-6.81l.132-.156c2.679,1.885,5.283,3.86,7.859,5.863,1.3.992,2.568,2.016,3.851,3.028l3.806,3.078q3.781,3.1,7.448,6.345l7.332,6.485,14.747,12.9,14.632,12.978Z" transform="translate(-348.552 -154.562)"/>
    <path id="Path_21862" data-name="Path 21862" d="M823.112,467.91s-.7,1.514-1.773.65a5.675,5.675,0,0,1-1.448-2.88S823.227,466.861,823.112,467.91Z" transform="translate(-353.039 -156.796)" fill="#355585"/>
    <path id="Path_21863" data-name="Path 21863" d="M790.35,479.073l1.259-.276-4.267-6.217-6.686,1-.765,1.111,6.583-.823Z" transform="translate(-329.472 -160.863)" fill="#355585"/>
    <path id="Path_21864" data-name="Path 21864" d="M749.91,480.145l-1.786-6.789s8.308.037,8.229,0v-.823l-9.464-.823v7.777a24.345,24.345,0,0,0,3.02.658Z" transform="translate(-310.025 -160.351)" fill="#355585"/>
    <rect id="Rectangle_16088" data-name="Rectangle 16088" width="39.838" height="30.42" rx="3" transform="translate(433.693 318.391)" fill="#f2f2f2"/>
    <line id="Line_3047" data-name="Line 3047" x2="27.98" transform="translate(435.15 318.381)" fill="none" stroke="#b5b5b5" stroke-miterlimit="10" stroke-width="2"/>
    <path id="Path_21865" data-name="Path 21865" d="M1382.435,514.619c.517-.1.876.53,1.07.912a10.623,10.623,0,0,1,.659,2,33.628,33.628,0,0,1,.853,4.38c.385,2.964.514,5.928.695,8.915.385,6.281.734,12.561.853,18.855s.04,12.614-.033,18.92a140.7,140.7,0,0,1-1.084,18.657,145.365,145.365,0,0,1-4.018,17.939c-.2.724-.405,1.446-.609,2.17a.494.494,0,0,0,.952.263,167.693,167.693,0,0,0,4.367-18.417,127.936,127.936,0,0,0,1.36-19.046c.086-6.518.168-13.038.066-19.556-.1-6.448-.445-12.89-.837-19.326-.188-3.1-.329-6.211-.715-9.291a36.945,36.945,0,0,0-.81-4.393c-.3-1.189-.593-2.71-1.571-3.553a1.67,1.67,0,0,0-1.452-.385c-.626.119-.362,1.07.26.952Z" transform="translate(-726.778 -179.815)"/>
    <path id="Path_21866" data-name="Path 21866" d="M1464.294,942.99a28.024,28.024,0,0,1-2.058,4.742c-.81,1.521-1.693,3-2.6,4.462-1.828,2.921-3.751,5.777-5.651,8.635a99.143,99.143,0,0,0-5.368,8.754,19.761,19.761,0,0,0-1.844,4.677,4.766,4.766,0,0,0,0,2.305,2.3,2.3,0,0,0,.217.494,4.661,4.661,0,0,0,.329.484,6.123,6.123,0,0,0,.813.866,10.021,10.021,0,0,0,4.413,2.035,25.9,25.9,0,0,0,5.012.56c1.7.043,3.4-.023,5.108-.122s3.409-.221,5.1-.445a64.672,64.672,0,0,0,19.526-5.727,55.226,55.226,0,0,0,8.747-5.243,49.755,49.755,0,0,0,7.548-6.87,54.1,54.1,0,0,0,10.341-17.573,65.469,65.469,0,0,0,2.779-9.88,58.077,58.077,0,0,0,1.083-10.209,37.279,37.279,0,0,0-.263-5.115,16.8,16.8,0,0,0-1.274-4.894,4.831,4.831,0,0,0-1.456-1.913,2.773,2.773,0,0,0-2.24-.329,7.359,7.359,0,0,0-2.262.952,10.539,10.539,0,0,0-1.943,1.558,8.534,8.534,0,0,0-1.469,1.976,4.431,4.431,0,0,0-.58,2.269,3.253,3.253,0,0,0,.919,2.058,8.45,8.45,0,0,0,1.923,1.5,36.072,36.072,0,0,0,4.611,2.17c1.584.659,3.185,1.281,4.775,1.95a57.991,57.991,0,0,1,9.271,4.709,53.372,53.372,0,0,1,8.1,6.531,61.773,61.773,0,0,1,6.84,7.845,55.406,55.406,0,0,1,5.365,8.951,41.046,41.046,0,0,1,3.317,9.923,28.47,28.47,0,0,1,.141,10.509,25.541,25.541,0,0,1-4.061,9.706,32.347,32.347,0,0,1-7.275,7.539,45.687,45.687,0,0,1-9,5.269,58.144,58.144,0,0,1-9.841,3.349,61.725,61.725,0,0,1-10.255,1.587,56.131,56.131,0,0,1-10.361-.2,61.679,61.679,0,0,1-10.117-2.17q-2.48-.721-4.914-1.594A38.915,38.915,0,0,1,1481,997.05l.059-.119a39.315,39.315,0,0,0,4.782,1.887q2.44.817,4.94,1.479a60.272,60.272,0,0,0,10.074,1.927,59.532,59.532,0,0,0,20.31-1.749,56.685,56.685,0,0,0,9.62-3.4,44.469,44.469,0,0,0,8.7-5.237,32.228,32.228,0,0,0,6.916-7.3,24.211,24.211,0,0,0,3.794-9.221,27.588,27.588,0,0,0-.145-10,40.8,40.8,0,0,0-3.181-9.6,53.622,53.622,0,0,0-5.181-8.754,60.624,60.624,0,0,0-6.649-7.723,53.345,53.345,0,0,0-7.9-6.425,57.2,57.2,0,0,0-9.04-4.726l-4.749-2.006a36.32,36.32,0,0,1-4.68-2.305,9.321,9.321,0,0,1-2.095-1.7,4.76,4.76,0,0,1-.764-1.182,3.813,3.813,0,0,1-.329-1.4,5.249,5.249,0,0,1,.715-2.658,9.348,9.348,0,0,1,1.647-2.121,11.287,11.287,0,0,1,2.1-1.627,7.961,7.961,0,0,1,2.487-.988,4.283,4.283,0,0,1,1.38-.059,2.852,2.852,0,0,1,1.317.517,5.387,5.387,0,0,1,1.61,2.164,17.934,17.934,0,0,1,1.258,5.065,38.313,38.313,0,0,1,.24,5.18,59.137,59.137,0,0,1-1.149,10.272,67.055,67.055,0,0,1-2.73,9.972,56.785,56.785,0,0,1-10.209,17.926,51.657,51.657,0,0,1-16.388,12.614,61.962,61.962,0,0,1-19.882,5.836c-1.723.214-3.461.329-5.177.412s-3.458.145-5.2.086a26.92,26.92,0,0,1-5.213-.619,10.871,10.871,0,0,1-4.831-2.305,7.032,7.032,0,0,1-.929-1.024,5.881,5.881,0,0,1-.385-.59,3.232,3.232,0,0,1-.29-.692,5.623,5.623,0,0,1,.03-2.78,20.424,20.424,0,0,1,2-4.864,101.975,101.975,0,0,1,5.546-8.741c1.946-2.836,3.952-5.625,5.839-8.494.942-1.436,1.854-2.888,2.7-4.38a28.279,28.279,0,0,0,2.19-4.64Z" transform="translate(-770.508 -447.348)"/>
  </g>
</svg>
