<svg xmlns="http://www.w3.org/2000/svg" width="623.882" height="307.064" viewBox="0 0 623.882 307.064">
  <g id="Statistic_4" data-name="Statistic 4" transform="translate(-148 -347.86)">
    <path id="Path_23039" data-name="Path 23039" d="M771.882,636.624c-20.433-10.241-45.844-23.009-70.37-62.162-18.3-29.221-29.323-62.305-32.367-71.588-21.21-64.708-21.606-123.762-30.7-123.875-4.228-.053-7.469,12.666-9.226,19.75-28.757,115.9-39.228,135.161-47.64,135.093-6.586-.049-7.714-1.328-29.8-47.572-8.427-17.645-12.745-26.472-18-26.705-20.621-.92-30.372,117.553-46.584,116.244-13.677-1.109-26.653-89.92-33.872-134.421-4.247-26.177-7.491-52.389-12.855-52.513-4.262-.1-7.544,16.318-9.683,26.479-13.368,64.123-28.067,134.659-42.042,136.217-9.86,1.132-46.112-42.6-52.332-43.083-12.6-.992-19.46,42.77-46.127,46.225C281.15,555.9,272.3,537.26,267.6,527.336c-17.125-36.1-23.009-79.328-27.98-79.89-2.063-.234-4.636,6.575-6.658,18.177-12.425,71.4-51.465,127.006-84.963,171Z" transform="translate(0 -31.14)" fill="#f2f2f2"/>
    <line id="Line_3103" data-name="Line 3103" x2="108.129" transform="translate(289.696 470.866)" fill="none" stroke="#dadada" stroke-miterlimit="10" stroke-width="2"/>
    <line id="Line_3104" data-name="Line 3104" x2="108.129" transform="translate(289.696 399.547)" fill="none" stroke="#dadada" stroke-miterlimit="10" stroke-width="2"/>
    <line id="Line_3105" data-name="Line 3105" y2="53.75" transform="translate(306.234 407.457)" fill="none" stroke="#f3f3f3" stroke-miterlimit="10" stroke-width="2"/>
    <line id="Line_3106" data-name="Line 3106" y2="53.75" transform="translate(325.093 407.457)" fill="none" stroke="#f3f3f3" stroke-miterlimit="10" stroke-width="2"/>
    <line id="Line_3107" data-name="Line 3107" y2="53.75" transform="translate(343.953 407.457)" fill="none" stroke="#f3f3f3" stroke-miterlimit="10" stroke-width="2"/>
    <line id="Line_3108" data-name="Line 3108" y2="53.75" transform="translate(362.813 407.457)" fill="none" stroke="#f3f3f3" stroke-miterlimit="10" stroke-width="2"/>
    <line id="Line_3109" data-name="Line 3109" y2="53.75" transform="translate(381.673 407.457)" fill="none" stroke="#f3f3f3" stroke-miterlimit="10" stroke-width="2"/>
    <path id="Path_23040" data-name="Path 23040" d="M538,626.986l18.86-18.86,36.211,12.07,35.615-18.656" transform="translate(-242.894 -169.739)" fill="none" stroke="#dadada" stroke-miterlimit="10" stroke-width="2"/>
    <path id="Path_23041" data-name="Path 23041" d="M772.6,601.549l-.241-3.025-2.35-1.924,7.163-.6Z" transform="translate(-387.391 -166.289)" fill="#dadada"/>
    <g id="Group_38077" data-name="Group 38077" transform="translate(421.263 536.986)">
      <path id="Path_23042" data-name="Path 23042" d="M872.5,923.072l1.494-5.73L919.665,880.4l-1.29,5.605Z" transform="translate(-872.485 -880.4)" fill="#788eba"/>
      <path id="Path_23043" data-name="Path 23043" d="M918.35,895.26a58.436,58.436,0,0,0,16.763,10.418,61.351,61.351,0,0,0,18.92,4.406,59.689,59.689,0,0,0,19.173-1.735,54.256,54.256,0,0,0,17.521-8.038l43.072,43.46a117.3,117.3,0,0,1-39.059,18.686,129.428,129.428,0,0,1-42.872,4.036,133.013,133.013,0,0,1-42.246-10.124,126.366,126.366,0,0,1-37.161-24.042Z" transform="translate(-872.46 -889.655)" fill="#bbc6dc"/>
      <path id="Path_23044" data-name="Path 23044" d="M994.12,886.005l1.29-5.605a58.123,58.123,0,0,0,16.68,10.38,61.1,61.1,0,0,0,18.826,4.383A59.442,59.442,0,0,0,1050,893.432a54.092,54.092,0,0,0,17.442-8.012l-.943,5.635a54.253,54.253,0,0,1-17.521,8.053,59.69,59.69,0,0,1-19.173,1.735,61.354,61.354,0,0,1-18.92-4.406A58.437,58.437,0,0,1,994.12,886.005Z" transform="translate(-948.23 -880.4)" fill="#788eba"/>
      <path id="Path_23045" data-name="Path 23045" d="M1186.01,899.345l.939-5.635L1229.81,937l-.728,5.809Z" transform="translate(-1067.74 -888.69)" fill="#788eba"/>
    </g>
    <g id="Group_38078" data-name="Group 38078" transform="translate(385.818 421.734)">
      <path id="Path_23046" data-name="Path 23046" d="M949.443,758.627l1.377-5.417a45.02,45.02,0,0,0-1.384,11.2,46.19,46.19,0,0,0,1.433,11.282,48.408,48.408,0,0,0,4.247,10.9,52.228,52.228,0,0,0,7.061,10.067l-1.328,5.582a52.383,52.383,0,0,1-7.1-10.105,48.45,48.45,0,0,1-4.27-10.939,46.345,46.345,0,0,1-1.445-11.316,45.022,45.022,0,0,1,1.4-11.255Z" transform="translate(-884.086 -685.933)" fill="#788eba"/>
      <path id="Path_23047" data-name="Path 23047" d="M790.48,625.13l1.679-5.322a97.017,97.017,0,0,1,4.76-12.18A98.713,98.713,0,0,1,803.4,595.98a101.252,101.252,0,0,1,8.2-10.939,105.665,105.665,0,0,1,9.932-10.1l-1.546,5.149A107.053,107.053,0,0,0,810,590.228a102.42,102.42,0,0,0-8.238,11,98.95,98.95,0,0,0-6.5,11.693,97.589,97.589,0,0,0-4.783,12.214Z" transform="translate(-785.957 -574.906)" fill="#788eba"/>
      <path id="Path_23048" data-name="Path 23048" d="M812.516,588.5l44.743,45.143A46.772,46.772,0,0,0,846.411,648.7a44.944,44.944,0,0,0-3.938,17.227,46.691,46.691,0,0,0,2.961,17.577,51.117,51.117,0,0,0,9.818,16.159L809.386,736.8a112.087,112.087,0,0,1-23.416-35.762,101.564,101.564,0,0,1-7.472-39.519,97.585,97.585,0,0,1,8.74-39.021A101.964,101.964,0,0,1,812.516,588.5Z" transform="translate(-778.489 -583.351)" fill="#bbc6dc"/>
      <path id="Path_23049" data-name="Path 23049" d="M868.7,580l1.547-5.149,44.513,44.958-1.316,5.334Z" transform="translate(-834.673 -574.85)" fill="#788eba"/>
    </g>
    <g id="Group_38079" data-name="Group 38079" transform="translate(544.433 433.4)">
      <path id="Path_23050" data-name="Path 23050" d="M1214.762,811.53l-.849,5.526a45.134,45.134,0,0,1-4.9,14.59,46.328,46.328,0,0,1-4.372,6.627,48.249,48.249,0,0,1-5.628,6l.92-5.624a48.412,48.412,0,0,0,5.6-5.975,46.267,46.267,0,0,0,4.349-6.6,44.8,44.8,0,0,0,4.9-14.537Z" transform="translate(-1199.006 -733.922)" fill="#788eba"/>
      <path id="Path_23051" data-name="Path 23051" d="M1250.366,619.69a110.936,110.936,0,0,1,22.783,37.422,100.67,100.67,0,0,1,5.79,40.254,97.61,97.61,0,0,1-10.562,38.508,102.974,102.974,0,0,1-26.291,32.439L1199,724.792a46.991,46.991,0,0,0,11.074-14.745,44.964,44.964,0,0,0,4.311-17.125,46.5,46.5,0,0,0-2.614-17.728,50.874,50.874,0,0,0-9.69-16.491Z" transform="translate(-1199 -614.443)" fill="#bbc6dc"/>
      <path id="Path_23052" data-name="Path 23052" d="M1364.024,686.507l-.539,5.552a98.772,98.772,0,0,0-.211-21,101.766,101.766,0,0,0-4.734-20.949,106.557,106.557,0,0,0-9.339-20.233,114.783,114.783,0,0,0-14.021-18.86l.683-5.236a114.175,114.175,0,0,1,13.956,18.773,106.505,106.505,0,0,1,9.29,20.161,101.737,101.737,0,0,1,4.7,20.866,98.529,98.529,0,0,1,.211,20.927Z" transform="translate(-1283.813 -605.78)" fill="#788eba"/>
      <path id="Path_23053" data-name="Path 23053" d="M1207.15,650.069l.917-5.375,48.059-38.874-.687,5.232Z" transform="translate(-1204.076 -605.805)" fill="#788eba"/>
    </g>
    <line id="Line_3110" data-name="Line 3110" x1="59.503" transform="translate(411.66 653.924)" fill="none" stroke="#b5b5b5" stroke-miterlimit="10" stroke-width="2"/>
    <path id="Path_23054" data-name="Path 23054" d="M897.033,957.361c-1.4-6.212-4.274-11.784-3.772-18.2.645-8.3,1.46-23.567,1.166-45.328-.464-34.574-24.7-54.98-24.7-54.98-22.368-5.1-20.968,16.438-19.282,19.863s36.992,35.117,36.992,35.117-3.263,3.395-4.658,10.773c-1.049,5.526,3.395,24.759,5.7,34.034a70.944,70.944,0,0,1,1.886,11.633c.189,2.482.351,5.156.351,7.046,0,4.526.932,13.6.932,13.6l1.863-13.036s1.848,13.036,8.853,13.036C916.787,970.924,900.477,972.626,897.033,957.361Z" transform="translate(-436.96 -317.057)" fill="#edf0f5"/>
    <ellipse id="Ellipse_4223" data-name="Ellipse 4223" cx="4.428" cy="4.817" rx="4.428" ry="4.817" transform="translate(450.469 571.114)" fill="#edf0f5"/>
    <path id="Path_23055" data-name="Path 23055" d="M957.905,1108.889c-1.4-6.213-4.274-11.784-3.772-18.2.192-2.486.4-5.6.589-9.313-2.459.125-4.9.249-7.382.309.724,3.2,1.437,6.159,2.01,8.483a70.953,70.953,0,0,1,1.886,11.633c.189,2.482.351,5.156.351,7.046,0,4.526.932,13.6.932,13.6l1.863-13.036s1.848,13.036,8.853,13.036C977.659,1122.453,961.349,1124.154,957.905,1108.889Z" transform="translate(-497.833 -468.586)" fill="#ffab43"/>
    <path id="Path_23056" data-name="Path 23056" d="M967.166,1153.181c-3.018-1.663-4.557-5.134-6.733-8.046a27.455,27.455,0,0,0-2.342-2.686c.1,1.63.17,3.2.17,4.436,0,4.526.932,13.6.932,13.6l1.863-13.036s1.848,13.036,8.853,13.036C981.97,1160.488,972.593,1161.672,967.166,1153.181Z" transform="translate(-504.528 -506.62)" fill="#b5b5b5"/>
    <path id="Path_23057" data-name="Path 23057" d="M939.064,1028.365c-1.369-7.023-2.335-13.692-1.784-16.6q.158-.845.351-1.618c.177,2.942.551,5.865.969,8.785C938.77,1022.081,938.985,1025.219,939.064,1028.365Z" transform="translate(-491.469 -424.223)" fill="#dbe1ec"/>
    <path id="Path_23058" data-name="Path 23058" d="M886.661,926.688a87.123,87.123,0,0,1,8.581,7.393,31.348,31.348,0,0,1,3.395,4.368c.038.106.075.211.109.317-5.541-5-18.317-16.6-26.626-24.616C877.872,916.828,881.882,922.735,886.661,926.688Z" transform="translate(-450.985 -364.434)" fill="#dbe1ec"/>
    <path id="Path_23059" data-name="Path 23059" d="M897.914,705.551s14.367-5.76,16.823-6.639,12.6-5.82,14-3.346-17.932,15.982-22,15.307S893.549,709.541,897.914,705.551Z" transform="translate(-466.33 -227.871)" fill="#edf0f5"/>
    <path id="Path_23060" data-name="Path 23060" d="M923.2,715.982c4.926-2.659,10.437-5.073,14.624-8.891,1.275-.585,2.554-1.162,3.817-1.761-4.881,4.8-16.9,12.553-19.991,12.04l-.95-.147Q921.967,716.652,923.2,715.982Z" transform="translate(-481.241 -234.38)" fill="#dbe1ec"/>
    <path id="Path_23061" data-name="Path 23061" d="M890.316,718.455c-4.2-.713-4.179-2.829-7.695-.422-3.58,2.448-4.9,8.389-5.5,13.108-1.173,9.211,5.017,25.763,5.017,25.763l4.651.834s11.365-21.527,13.111-24.952c1.614-3.168-9.588-14.333-9.588-14.333Z" transform="translate(-454.011 -241.594)" fill="#fff"/>
    <path id="Path_23062" data-name="Path 23062" d="M912.768,662.869c-2.18-7.125-16.5-4.526-17.6-.4-2.81,10.524,1.562,14.579,5.616,15.529s8.238-5.93,8.238-5.93S915.246,670.967,912.768,662.869Z" transform="translate(-464.784 -205.158)"/>
    <path id="Path_23063" data-name="Path 23063" d="M915.088,676a6.959,6.959,0,0,1-5.168,5.5,1.905,1.905,0,0,1-.9,0c-.419.649-.834,1.316-1.267,1.973a1.844,1.844,0,0,1,.057.434,6.008,6.008,0,0,1-.675,3.093,3.478,3.478,0,0,1-3.165,1.663v.023L900,693.728l9.053,5.658-3.395-4.9a5.334,5.334,0,0,1,1.037-3.542,1.731,1.731,0,0,1,1.671-.72c.92.14,2.4-.045,3.995-1.9,2.618-3.052,2.731-10.9,2.731-10.9C914.752,676.894,915.427,676.4,915.088,676Z" transform="translate(-468.349 -216.113)" fill="#ffab43"/>
    <ellipse id="Ellipse_4224" data-name="Ellipse 4224" cx="2.376" cy="1.399" rx="2.376" ry="1.399" transform="matrix(0.014, -1, 1, 0.014, 438.562, 468.511)" fill="#ffab43"/>
    <path id="Path_23064" data-name="Path 23064" d="M922.16,744.595A8.583,8.583,0,0,1,923.231,746a8.475,8.475,0,0,1,.573,1.132h.019q.894.351,1.622.675.434-1.067.8-2.026h0a7.341,7.341,0,0,0-1.381-2.263Z" transform="translate(-482.15 -258.165)" fill="#eceff4"/>
    <path id="Path_23065" data-name="Path 23065" d="M859.238,822.11l5.126,1.132s11.184,23.239,4.194,28.9-28.889,3.968-27.494-13.036S859.238,822.11,859.238,822.11Z" transform="translate(-431.604 -307.111)" fill="#fff"/>
    <path id="Path_23066" data-name="Path 23066" d="M878.017,861.465c-.456-8.736-6.51-15.537-13.707-15.3a11.742,11.742,0,0,0-9.634,4.809c-6.989,9.724,4.194,58.933,4.194,58.933l-.1.034c.871,3.361,4.123,4.47,7.348,5.213a42.112,42.112,0,0,0,5.8-6.967C878.673,897.638,878.752,875.4,878.017,861.465Z" transform="translate(-438.689 -322.092)" fill="#fff"/>
    <ellipse id="Ellipse_4225" data-name="Ellipse 4225" cx="5.36" cy="5.386" rx="5.36" ry="5.386" transform="translate(417.85 586.983)" fill="#fff"/>
    <path id="Path_23067" data-name="Path 23067" d="M894.036,730.439c-6.284-.283-8.453,8.355-2.821,11.154l.147.072c4.956,2.384,25.649,2.075,31.741-5.066s-11.082-1.935-19.237-3.8C899.751,731.861,896.748,730.56,894.036,730.439Z" transform="translate(-460.853 -250.014)" fill="#fff"/>
    <path id="Path_23068" data-name="Path 23068" d="M952.606,669.576c-.03.026-.954-2.671.128-4.274,1.034-1.8,8.234-3.278,15.793-11.784,4.119-4.636,5.247-6.412,6.476-7.269,1.132-.924,1.769-.4,1.7-.419s3.15.754,3.961,2.033c.954,1.837-8.038,6.586-8.091,6.058.4.275-6.922,7.838-9.185,11.029C962.153,668.742,956.657,673.2,952.606,669.576Z" transform="translate(-500.865 -197.241)" fill="#edf0f5"/>
    <path id="Path_23069" data-name="Path 23069" d="M980.923,676.924a20.348,20.348,0,0,0-5.484,5.971,54.244,54.244,0,0,1-2.508,4.87,9.65,9.65,0,0,0,3.365-4.462c1.392-1.961,4.7-5.575,6.94-8.132C982.454,675.709,981.692,676.294,980.923,676.924Z" transform="translate(-513.77 -215.596)" fill="#dbe1ec"/>
    <circle id="Ellipse_4226" data-name="Ellipse 4226" cx="4.651" cy="4.651" r="4.651" transform="translate(428.588 453.531)" fill="#fff"/>
    <path id="Path_23070" data-name="Path 23070" d="M801.944,643.247a10.358,10.358,0,0,0-16.37,3.942,10.611,10.611,0,0,1-6.891,6.3,15.031,15.031,0,0,0-10.38,10.369,6.639,6.639,0,0,1-6.3,4.885,18.818,18.818,0,1,0,19.06,19.882,6.643,6.643,0,0,1,5.156-6.073,15,15,0,0,0,11.538-14.858,10.75,10.75,0,0,1,3.953-8.559,10.125,10.125,0,0,0,.845-.754,10.358,10.358,0,0,0-.615-15.133Z" transform="translate(-370.855 -194.144)"/>
    <path id="Path_23071" data-name="Path 23071" d="M853.615,1056.385c1.958,0,3.919-.057,5.873-.075,2.565-9.015,6.386-24.446,6.673-37.139a7.234,7.234,0,0,0-6.857-.3h-.026a7.058,7.058,0,0,0-3.365,3.5c-.332.755-.754,1.637-1.245,2.75-1.724,3.821-1.509,17.879-1.109,27.324C853.611,1053.768,853.626,1055.08,853.615,1056.385Z" transform="translate(-439.251 -429.205)" fill="#fff"/>
    <path id="Path_23072" data-name="Path 23072" d="M860.578,1120.311a21.02,21.02,0,0,1-1.886-17.147c.675-2.346,1.46-5.205,2.263-8.378-2.708-.958-5.413-1.946-8.121-2.916.049,2.263.125,4.492.2,6.5a92.688,92.688,0,0,1-.589,13.319,1.742,1.742,0,0,1,.34,1.071.572.572,0,0,1,0,.079c.143.109.275.226.407.343a6.15,6.15,0,0,1,1.509,1.886,2.154,2.154,0,0,1,.2,1.264c2.784,2.471,4.209,6.261,7.585,8.008.264,0,.532-.038.8-.064A33.4,33.4,0,0,1,860.578,1120.311Z" transform="translate(-438.734 -475.119)" fill="#ffab43"/>
    <path id="Path_23073" data-name="Path 23073" d="M861.562,1161.878h9.992c-2.448-1.509-6.6-.754-9.456-5.371l-.106-.1a118.59,118.59,0,0,1-10.456-12.168c-.215,1.614-.536,17.26-.536,17.26l3.018-12.448S855.526,1158.106,861.562,1161.878Z" transform="translate(-437.831 -507.735)" fill="#b5b5b5"/>
    <path id="Path_23074" data-name="Path 23074" d="M1001.37,641.78c-2.493-.924-6.412,1.863-6.412,1.863l-.268.313c-1.132.947-2.4,2.791-6.137,7a41.8,41.8,0,0,1-4.183,4.1,18.152,18.152,0,0,0,2.146,3.553c2.893-3.323,6.363-7.054,6.084-7.246.049.505,8.3-3.825,8.155-5.805C1001.676,644.537,1003.222,642.466,1001.37,641.78Z" transform="translate(-520.895 -194.684)" fill="#ffab43"/>
    <g id="Group_38080" data-name="Group 38080" transform="translate(425.352 384.339)">
      <path id="Path_23075" data-name="Path 23075" d="M883.3,534.927a116.214,116.214,0,0,1,33.989-28.878,129.023,129.023,0,0,1,42.287-14.828,133.07,133.07,0,0,1,45.331.287,125.863,125.863,0,0,1,43.031,16.193l-38.074,49.077a58.422,58.422,0,0,0-18.992-6.563,61.354,61.354,0,0,0-19.81.023,59.667,59.667,0,0,0-18.573,6.288A54.076,54.076,0,0,0,937.2,568.713Z" transform="translate(-883.3 -484.248)" fill="#a6e6d9"/>
      <path id="Path_23076" data-name="Path 23076" d="M883.3,526.392l.313-5.349a115.655,115.655,0,0,1,33.823-28.765,128.294,128.294,0,0,1,42.076-14.767,132.137,132.137,0,0,1,45.1.287,125.231,125.231,0,0,1,42.819,16.129l.5,5.239a125.863,125.863,0,0,0-43.03-16.178,133.073,133.073,0,0,0-45.332-.287,129.026,129.026,0,0,0-42.287,14.828A116.214,116.214,0,0,0,883.3,526.392Z" transform="translate(-883.3 -475.713)" fill="#24c0a0"/>
    </g>
    <path id="Path_23077" data-name="Path 23077" d="M967.492,701.933a.138.138,0,0,1,0,.053c.034.264.377,2.486,2.373,2.663,2.135.192,11.655-2.976,19.388-14.6,7.295-10.965,4.79-12.323,4.481-12.447a.189.189,0,0,1-.053-.03c-.279-.234-2.935-2.448-4.564-2.531s-1.588,8.77-1.577,9.634a.169.169,0,0,1-.045.117c-.592.69-6.971,8.008-10.882,8.676C972.536,694.174,965.493,697.946,967.492,701.933Z" transform="translate(-510.166 -215.514)" fill="#fff"/>
    <path id="Path_23078" data-name="Path 23078" d="M1023.094,668.018l.377-.754c.377-.754,0-.754,0-1.509s-1.509-.754-1.509-.754h-1.131c-1.132,0-4.738,3.772-4.738,3.772-1.641-.083-1.588,8.77-1.577,9.634a.17.17,0,0,1-.045.117c-.287.336-1.924,2.214-3.983,4.149a.185.185,0,0,0-.023.238,41.323,41.323,0,0,1,2.682,4.579.185.185,0,0,0,.309.034,44.615,44.615,0,0,0,2.772-3.742c4.059-6.1,5.081-9.226,5.141-10.818l2.1-4.191C1023.848,668.018,1023.094,668.018,1023.094,668.018Z" transform="translate(-537.127 -209.262)" fill="#ffab43"/>
    <rect id="Rectangle_16401" data-name="Rectangle 16401" width="21.856" height="57.515" transform="translate(236.782 557.139)" fill="#e4e4e4"/>
    <rect id="Rectangle_16402" data-name="Rectangle 16402" width="21.856" height="78.221" transform="translate(263.239 536.433)" fill="#e4e4e4"/>
    <rect id="Rectangle_16403" data-name="Rectangle 16403" width="20.705" height="98.926" transform="translate(289.696 515.728)" fill="#e4e4e4"/>
    <path id="Path_23079" data-name="Path 23079" d="M334,817.28s54.244-19.614,90.882-70.69" transform="translate(-115.842 -260.077)" fill="none" stroke="#dadada" stroke-miterlimit="10" stroke-width="2"/>
    <path id="Path_23080" data-name="Path 23080" d="M571.752,735l-1.784,7.91-1.494-3.217-3.534-.294Z" transform="translate(-259.672 -252.859)" fill="#dadada"/>
    <line id="Line_3111" data-name="Line 3111" x2="106.978" transform="translate(221.828 618.105)" fill="none" stroke="#dadada" stroke-miterlimit="10" stroke-width="2"/>
    <rect id="Rectangle_16404" data-name="Rectangle 16404" width="21.5" height="35.415" transform="translate(237.018 579.499)" fill="#dadada"/>
    <rect id="Rectangle_16405" data-name="Rectangle 16405" width="21.5" height="48.145" transform="translate(263.045 566.769)" fill="#dadada"/>
    <rect id="Rectangle_16406" data-name="Rectangle 16406" width="20.705" height="86.273" transform="translate(289.696 528.381)" fill="#dadada"/>
    <path id="Path_23081" data-name="Path 23081" d="M602.28,1028.626c-.6,3.512-1.132,7.4.245,10.8a8.727,8.727,0,0,0,3.263,4.025c1.72,1.173,3.482,1.924,4.262,4.006a9.964,9.964,0,0,1,.109,5.866c-.551,2.263-1.682,4.368-2.173,6.635-.822,3.821,1.958,5.88,5.134,7.106a21.01,21.01,0,0,1,5.032,2.222,8.708,8.708,0,0,1,3.27,5.133c.355,1.581,2.78.913,2.425-.667a11.18,11.18,0,0,0-6.642-7.819c-1.426-.6-2.935-1.007-4.338-1.663-1.188-.558-2.452-1.328-2.535-2.776a8.248,8.248,0,0,1,.819-3.116c.377-1.083.8-2.161,1.132-3.267a14.856,14.856,0,0,0,.668-6.28,8.935,8.935,0,0,0-2.146-4.873c-1.339-1.479-3.35-2.059-4.719-3.485-2.723-2.84-1.977-7.665-1.377-11.157.272-1.584-2.15-2.263-2.425-.671Z" transform="translate(-282.539 -435.175)" fill="#e5e5e5"/>
    <path id="Path_23082" data-name="Path 23082" d="M642.576,1045.528a12.017,12.017,0,0,0-2.9-12.123c-1.558-1.547-3.945-2.188-4.293-4.625s.886-4.609,2-6.635a16.76,16.76,0,0,0,2.5-7.446,20.11,20.11,0,0,0-1.645-7.955c-1.852-4.794-5.164-9.95-4.232-15.318.89-5.122,6.691-7.465,7.544-12.613.264-1.584-2.158-2.263-2.422-.671-.351,2.127-1.72,3.7-3.123,5.247a18.678,18.678,0,0,0-3.832,5.379c-2.01,4.994.075,10.463,2.124,15.088a37.637,37.637,0,0,1,2.837,7.921,11.6,11.6,0,0,1-1.226,7.849c-1.132,2.2-2.531,4.323-2.927,6.812a7.2,7.2,0,0,0,1.509,6.141c.92.992,2.226,1.509,3.206,2.425a9.43,9.43,0,0,1,2.471,9.882c-.517,1.535,1.909,2.2,2.425.668Z" transform="translate(-301.03 -403.723)" fill="#e5e5e5"/>
    <path id="Path_23083" data-name="Path 23083" d="M618.342,964.417l-1.509,11.252c-.487,3.6-1.162,7.231-1.445,10.856a5.6,5.6,0,0,0,.928,3.979,4.834,4.834,0,0,0,3.647,1.622c1.509.09,3.018-.117,4.545,0a13.432,13.432,0,0,1,4.692,1.131c2.456,1.132,4.67,3.44,4.873,6.258.234,3.176-1.758,6.035-2.456,9.053a12.345,12.345,0,0,0,.279,7.461,6.929,6.929,0,0,0,2.161,2.882,15.574,15.574,0,0,0,3.961,1.814c2.772,1.132,3.395,4.126,2.44,6.763-1.132,3.217-4.5,5.2-7.231,6.918-1.369.856-.109,3.018,1.267,2.169,4.689-2.942,10.135-7.11,8.676-13.417a6.689,6.689,0,0,0-1.811-3.282,10.675,10.675,0,0,0-3.93-2.029c-2.64-.943-3.723-2.976-3.727-5.7,0-2.984,1.309-5.533,2.214-8.3a9.847,9.847,0,0,0-.845-8.781,12.213,12.213,0,0,0-7.231-4.9,19.611,19.611,0,0,0-4.938-.57c-1.26,0-3.017.422-4.149-.23-1.452-.83-.777-3.338-.6-4.647l.875-6.461,1.777-13.126a1.305,1.305,0,0,0-.879-1.547,1.261,1.261,0,0,0-1.546.879Z" transform="translate(-291.072 -395.196)" fill="#e5e5e5"/>
    <path id="Path_23084" data-name="Path 23084" d="M599.658,1063.291c-5.209-1.313-11.2-2.78-14.364-7.544a8.634,8.634,0,0,1-1.38-7.042,25.713,25.713,0,0,1,3.84-7.419,49.26,49.26,0,0,1,5.526-6.827c1.716-1.773,4.228-3.493,3.3-6.307-.822-2.486-3.523-3.881-5.794-4.764-2.5-.977-5.175-1.384-7.751-2.112-2.44-.694-5.088-1.784-6.68-3.859-2.109-2.739-1.132-6.412-1.173-9.588a1.257,1.257,0,0,0-2.512,0c.053,3.127-.668,6.348.637,9.32a10.707,10.707,0,0,0,5.017,4.979,31.908,31.908,0,0,0,7.419,2.406c2.546.611,5.681,1.271,7.634,3.217a2.475,2.475,0,0,1,.9,1.645c-.019.637-.562,1.105-.988,1.509-1.132,1.1-2.233,2.191-3.278,3.365a53,53,0,0,0-5.224,6.955c-1.509,2.4-3.059,5.013-3.515,7.846a11,11,0,0,0,1.509,7.389c3.429,5.775,10.1,7.7,16.219,9.241a1.259,1.259,0,0,0,.668-2.425Z" transform="translate(-264.392 -422.022)" fill="#e5e5e5"/>
    <path id="Path_23085" data-name="Path 23085" d="M660.6,1056.69a43.915,43.915,0,0,1,1.822-12.791,15.284,15.284,0,0,1,3.018-5.379,16.56,16.56,0,0,1,5.02-3.474,14.066,14.066,0,0,0,5.2-3.772,8.118,8.118,0,0,0,1.2-6.582c-1-5-5.435-8.8-4.621-14.2.917-6.035,6.077-10.056,10.731-13.368,1.309-.928.053-3.112-1.267-2.169-4.353,3.093-8.774,6.514-10.9,11.576a13.58,13.58,0,0,0-1.03,7.351c.415,2.671,1.841,5,3.078,7.352,1.132,2.188,2.376,4.994,1.407,7.472-.8,2.048-2.95,3.086-4.787,4.025a20.266,20.266,0,0,0-5.409,3.591,16.972,16.972,0,0,0-3.549,5.537c-1.924,4.658-2.263,9.841-2.429,14.824-.053,1.618,2.463,1.618,2.516,0Z" transform="translate(-317.673 -414.617)" fill="#e5e5e5"/>
    <path id="Path_23086" data-name="Path 23086" d="M667.674,1076.164a6.368,6.368,0,0,0,6.789-.66c2.165-1.577,3.357-4.074,4.47-6.412a20.81,20.81,0,0,0,2.41-8.091,11.222,11.222,0,0,0-2.173-6.7c-1.188-1.754-2.723-3.395-3.546-5.36-.969-2.323-.128-4.526,1.479-6.329a16.891,16.891,0,0,1,6.254-4.719c2.742-1.015,5.775-.355,8.615-.679a11.935,11.935,0,0,0,10.433-10.339c.09-.679-.641-1.252-1.256-1.256a1.294,1.294,0,0,0-1.26,1.256,9.459,9.459,0,0,1-9.264,7.921c-2.64.094-5.39-.245-7.921.668a18.418,18.418,0,0,0-5.945,3.953,11.99,11.99,0,0,0-3.844,5.575,8.221,8.221,0,0,0,1.03,6.156c1,1.78,2.388,3.3,3.47,5.028a8.569,8.569,0,0,1,1.188,6.654,28.107,28.107,0,0,1-3.436,8.125c-1.207,2.007-3.67,4.439-6.2,3.055-1.422-.777-2.693,1.392-1.271,2.169Z" transform="translate(-323.28 -433.858)" fill="#e5e5e5"/>
    <path id="Path_23087" data-name="Path 23087" d="M593.7,1100.838a29.178,29.178,0,0,0-1.339-8.826c-.736-2.308-1.7-5.443-4.1-6.537a8.752,8.752,0,0,0-3.983-.475l-5.009.166-9.6.32c-1.509.053-3.018.151-4.5.151a1.524,1.524,0,0,1-1.38-.453,5.843,5.843,0,0,1-.649-1.988,17.274,17.274,0,0,1-.162-6.94,18.991,18.991,0,0,1,2.471-6.552,17.019,17.019,0,0,1,2.01-2.678c.83-.9,1.946-1.588,2.7-2.527a2.263,2.263,0,0,0-.377-3.346c-1.132-.841-2.64-.807-3.995-.932l-10.712-1.022c-1.611-.151-1.6,2.365,0,2.516l9.053.864c1.313.125,2.64.377,3.957.475.781.061-.143.14.094-.1-.223.223-.479.407-.72.607a18.37,18.37,0,0,0-1.358,1.241,20.912,20.912,0,0,0-5.737,12.044,20.017,20.017,0,0,0,.279,6.737c.517,2.4,1.433,4.481,4.187,4.583,2.984.109,6.035-.189,9.015-.287l8.974-.3c1.335-.045,3.421-.46,4.628.313,1.105.705,1.618,2.373,2.056,3.538a26.885,26.885,0,0,1,1.69,9.43,1.257,1.257,0,0,0,2.512,0Z" transform="translate(-252.777 -454.767)" fill="#e5e5e5"/>
    <path id="Path_23088" data-name="Path 23088" d="M609.469,1129.817h23.009s12.248-7.389,9.079-7.6-8.868,3.8-8.868,3.8,11.191-16.261,8.676-16.261-11.1,12.945-11.1,12.945,2.9-27.792-.913-16.974-3.8,13.289-3.8,13.289-6.016-21.014-5.658-17.136.5,17.766.5,17.766-13.443-21.278-13.021-17.687,6.126,17.1,6.126,17.1-8.943-9.98-10.067-7.419,7.834,10.833,7.834,10.833-12.07-9.43-13.79-6.952,11.784,9.649,11.784,9.649-11.825-4.858-13.093-2.323S609.469,1129.817,609.469,1129.817Z" transform="translate(-279.068 -481.057)" fill="#e5e5e5"/>
    <path id="Path_23089" data-name="Path 23089" d="M541.083,1057.446a4.432,4.432,0,0,1-4.436,4.432c-2.448,0-6.967-1.35-6.967-3.8s4.526-5.07,6.967-5.07a4.432,4.432,0,0,1,4.436,4.436Z" transform="translate(-237.712 -450.917)" fill="#ececec"/>
    <path id="Path_23090" data-name="Path 23090" d="M568.645,998.779a4.428,4.428,0,0,1-4.455-4.413c0-2.448,1.316-6.974,3.772-6.986s5.092,4.5,5.1,6.944A4.436,4.436,0,0,1,568.645,998.779Z" transform="translate(-259.205 -410.042)" fill="#ececec"/>
    <path id="Path_23091" data-name="Path 23091" d="M599.414,1020.926a4.436,4.436,0,0,1-2.229-5.865c1-2.233,4.089-5.8,6.322-4.8s2.772,6.2,1.769,8.434A4.436,4.436,0,0,1,599.414,1020.926Z" transform="translate(-279.51 -424.185)" fill="#ececec"/>
    <path id="Path_23092" data-name="Path 23092" d="M618.7,956.352a4.436,4.436,0,0,1-1.86-5.986c1.132-2.165,4.443-5.533,6.612-4.394s2.376,6.363,1.237,8.528A4.432,4.432,0,0,1,618.7,956.352Z" transform="translate(-291.678 -384.11)" fill="#ececec"/>
    <path id="Path_23093" data-name="Path 23093" d="M650.544,970.4a4.436,4.436,0,0,1-5.119-3.625c-.415-2.414.155-7.095,2.569-7.506s5.76,3.6,6.171,6.013A4.432,4.432,0,0,1,650.544,970.4Z" transform="translate(-309.721 -392.518)" fill="#ececec"/>
    <path id="Path_23094" data-name="Path 23094" d="M715.748,985.481a4.432,4.432,0,0,1,.754-6.227c1.924-1.509,6.31-3.248,7.827-1.32s-.419,6.79-2.342,8.3a4.436,4.436,0,0,1-6.239-.751Z" transform="translate(-353.006 -403.628)" fill="#ececec"/>
    <path id="Path_23095" data-name="Path 23095" d="M746.832,1020.544a4.436,4.436,0,0,1-2.591-5.711c.86-2.293,3.715-6.035,6.009-5.187s3.153,6.013,2.293,8.3A4.436,4.436,0,0,1,746.832,1020.544Z" transform="translate(-371.164 -423.833)" fill="#ececec"/>
    <path id="Path_23096" data-name="Path 23096" d="M1400.394,542.653a12.651,12.651,0,0,1,11.859-11.859V516a27.434,27.434,0,0,0-26.653,26.653Z" transform="translate(-770.782 -116.464)" fill="#e4e4e4"/>
    <path id="Path_23097" data-name="Path 23097" d="M1460.34,530.794a12.651,12.651,0,0,1,11.859,11.859h14.794A27.437,27.437,0,0,0,1460.34,516Z" transform="translate(-817.331 -116.464)" fill="#dadada"/>
    <path id="Path_23098" data-name="Path 23098" d="M1412.253,602.6a12.651,12.651,0,0,1-11.859-11.859H1385.6a27.43,27.43,0,0,0,26.653,26.653Z" transform="translate(-770.783 -163.013)" fill="#e4e4e4"/>
    <path id="Path_23099" data-name="Path 23099" d="M1472.2,590.74A12.651,12.651,0,0,1,1460.34,602.6v14.794a27.434,27.434,0,0,0,26.653-26.653Z" transform="translate(-817.331 -163.013)" fill="#e4e4e4"/>
    <path id="Path_23100" data-name="Path 23100" d="M1499.3,506.54l7.484-7.484V482.55" transform="translate(-841.596 -95.632)" fill="none" stroke="#f3f3f3" stroke-miterlimit="10" stroke-width="2"/>
    <path id="Path_23101" data-name="Path 23101" d="M1497.518,540.9l-2.814-1.135-1.135-2.814-2.708,6.657Z" transform="translate(-836.339 -129.512)" fill="#f3f3f3"/>
    <circle id="Ellipse_4227" data-name="Ellipse 4227" cx="2.837" cy="2.837" r="2.837" transform="translate(662.352 384.221)" fill="#f3f3f3"/>
    <path id="Path_23102" data-name="Path 23102" d="M1496.82,632.6l4.628,19.011h16.51" transform="translate(-840.051 -189.083)" fill="none" stroke="#f3f3f3" stroke-miterlimit="10" stroke-width="2"/>
    <path id="Path_23103" data-name="Path 23103" d="M1490.95,628.1l2.437-1.814,2.995.494L1492.1,621Z" transform="translate(-836.395 -181.859)" fill="#f3f3f3"/>
    <circle id="Ellipse_4228" data-name="Ellipse 4228" cx="2.837" cy="2.837" r="2.837" transform="translate(674.927 459.691)" fill="#f3f3f3"/>
    <path id="Path_23104" data-name="Path 23104" d="M1577.9,708.405c.068-.573.136-1.132.2-1.724q-3.338.419-6.586.8c.913-8.676,1.7-17.313,2.286-25.857-1.641-.091-3.455,1.682-4.176,3.436a14.061,14.061,0,0,0-.709,5.243,49.565,49.565,0,0,1-2.4,13.726c-.977,3.07-2.674,6.522-5.443,7.495-1.709.6-3.372.106-5.051.109a7.63,7.63,0,0,0-1.2.113c.377-8.649.668-17.174.788-25.555q4.149-1.049,8.445-2.2c0-.517,0-1.03.026-1.546q-4.3,1.188-8.453,2.263.181-14.829-.407-28.972a11.5,11.5,0,0,0-.377-2.9q2.738-1.829,5.533-3.772c-.155-.4-.313-.811-.472-1.211q-2.84,1.984-5.631,3.866a2.5,2.5,0,0,0-.3-.328c-1.068-.939-3.395-.57-4.56,1.067-3.749,23.5-7.291,46.346-9.43,69.574-.426,4.624-1.049,9.807-4.149,12.919-4.357,4.391-10.448,2.263-16.419,1.23.064-1.939.136-3.87.226-5.8.434-9.26,1.252-18.422,2.071-27.535q3.248-.106,6.556-.272c.03-.441.06-.879.094-1.316q-3.3.185-6.541.321c.894-10.033,1.761-19.992,2.516-29.8.935-12.266,1.728-24.227,3.27-36.407.834-6.458,1.6-13.579-.275-18.249q1.731-1.392,3.459-2.852c-.125-.309-.253-.619-.377-.924q-1.731,1.482-3.474,2.893c-.124-.245-.253-.483-.377-.713a61.9,61.9,0,0,0-4.507-7.974c-.947-1.354-2.078-2.689-4.149-2.112-1.833.509-3.557,2.131-5.092,4.085l-1.275-2.346-1.06.969,1.4,2.64a32.838,32.838,0,0,0-3.316,6.073c-4.149,10.154-6.152,19.456-7.989,28.995-.226,1.132-.449,2.263-.671,3.425q-4.017.121-7.982.117c-.136.336-.275.671-.415,1.007q4.07.034,8.189-.064h0c-1.373,7.046-2.7,14.134-3.742,21.244-.962.094-1.92.185-2.882.272l-.079,1.037c.935-.079,1.886-.162,2.81-.249-.656,4.613-1.2,9.241-1.562,13.892-2.64,0-5.243.815-7.88,1.045-2.761.253-6.013-.377-7.167-2.312a5.131,5.131,0,0,1-.524-2.622c-.03-1.909-.053-3.8-.064-5.684-.026-4.481,0-8.891.407-13.258.207-2.357-1.007-6.612-1-6.6-.023,1.58,0-3.945-1.267-4.855s-4.285-.671-5.239.72a2.718,2.718,0,0,0-.377.973c-.075.321-.155.641-.23.958q-2.173-.339-4.342-.72c-.173.283-.343.566-.517.845q2.32.426,4.643.8v.034c-.321.351-.566.611-.615.649-.343,1.728-1.045,5.99-1.445,8.9-.17.856-.336,1.709-.5,2.565h.151c-.026.185-.042.3-.042.306a11.693,11.693,0,0,1-5.982-2.742,8.332,8.332,0,0,1-2.606-7.544c.132-1.226-.6-2.953-2.357-2.452a2.437,2.437,0,0,0-1.211.841,6.758,6.758,0,0,0-1.411,6.065q-2.207-.494-4.425-1.022l-.486.792q2.576.622,5.137,1.2a26.571,26.571,0,0,0,1.132,3.123,5.689,5.689,0,0,0,2.044,2.855c2.772,1.848,7.246.781,11.169.754-.294,6.507-.268,13.157-.023,19.923q-3.293-.294-6.627-.664c0,.309-.026.619-.038.928q3.372.377,6.7.694c.045,1.15.075,2.3.136,3.455.083,1.652.4,3.614,2.32,4.662a9.054,9.054,0,0,0,2.852.807q5.616.928,11.154,1.694a34.035,34.035,0,0,0,8.076.415c.125,8.046.754,16.257,1.381,24.646q.547,7.34,1.086,14.835-3.35-1.924-6.737-3.806l-.377.943q3.621,2.037,7.2,4.123.487,6.888.951,13.881-3.338-2.12-6.7-4.191l-.321.951q3.565,2.222,7.1,4.5.781,11.969,1.464,24.2-3.183-1.754-6.382-3.5l-.045,1.094,6.5,3.617q.686,12.327,1.26,24.823a9.146,9.146,0,0,0,1.347,4.937,7.82,7.82,0,0,0,3.3,2.588,74.5,74.5,0,0,0,18.63,6.39c-1.588-15.842-2.757-31.285-3.482-46.2l4.293,1.961.136-1.331-4.489-2.01c-.354-7.7-.588-15.269-.637-22.722a110.572,110.572,0,0,0,26.913-.483c1.769-.253,3.682-.611,5-2.135,1.561-1.8,1.833-4.647,1.991-7.216.471-7.5.917-14.937,1.294-22.3a26.835,26.835,0,0,0,12.191-2.9,8.893,8.893,0,0,0,3.6-3.229,10.976,10.976,0,0,0,1.094-4.315v-.038Q1574.577,708.8,1577.9,708.405Z" transform="translate(-810.748 -172.083)" fill="#e5e5e5"/>
    <path id="Path_23105" data-name="Path 23105" d="M1540.934,1114.485h37.72s17.351-24.141,9.053-17.351-8.3,8.3-8.3,8.3,7.544-28.29,5.281-28.667-8.3,25.649-8.3,25.649,4.436-23.209,1.464-22.919-7.1,16.246-7.1,16.246-7.57-30.67-10.211-27.275,0,31.685,0,31.685-11.316-26.4-12.825-21.123,4.526,23.763,4.526,23.763-19.991-20.746-19.614-17.728,12.5,18.916,12.5,18.916-15.9-16.276-18.158-13.259,12.825,15.842,12.825,15.842-8.675-6.412-7.921-3.395S1540.934,1114.485,1540.934,1114.485Z" transform="translate(-858.689 -460.38)" fill="#dadada"/>
    <line id="Line_3112" data-name="Line 3112" x1="44.415" transform="translate(678.337 653.924)" fill="none" stroke="#dadada" stroke-miterlimit="10" stroke-width="2"/>
    <path id="Path_23106" data-name="Path 23106" d="M289.032,755.17a8.325,8.325,0,0,0,7.8,7.8v9.735A18.053,18.053,0,0,1,279.3,755.17Z" transform="translate(-81.774 -265.42)" fill="#e4e4e4"/>
    <path id="Path_23107" data-name="Path 23107" d="M333.23,769.273a9.965,9.965,0,0,0,9.343-9.343h11.652a21.61,21.61,0,0,1-20.995,21Z" transform="translate(-115.362 -268.385)" fill="#ececec"/>
    <path id="Path_23108" data-name="Path 23108" d="M296.836,715.735a8.321,8.321,0,0,0-7.8,7.8H279.3A18.053,18.053,0,0,1,296.836,706Z" transform="translate(-81.774 -234.797)" fill="#e4e4e4"/>
    <path id="Path_23109" data-name="Path 23109" d="M336.274,723.536a8.321,8.321,0,0,0-7.8-7.8V706a18.053,18.053,0,0,1,17.551,17.536Z" transform="translate(-112.397 -234.797)" fill="#e4e4e4"/>
    <path id="Path_23110" data-name="Path 23110" d="M361.94,775.724h33.216L406.83,764.05" transform="translate(-133.243 -270.951)" fill="none" stroke="#dadada" stroke-miterlimit="10" stroke-width="2"/>
    <path id="Path_23111" data-name="Path 23111" d="M356.624,793.18l-1.188-2.8,1.188-2.795L350,790.385Z" transform="translate(-125.806 -285.612)" fill="#dadada"/>
    <path id="Path_23112" data-name="Path 23112" d="M478.006,761.633a2.833,2.833,0,1,0-2,.831A2.837,2.837,0,0,0,478.006,761.633Z" transform="translate(-202.514 -266.43)" fill="#dadada"/>
    <path id="Path_23113" data-name="Path 23113" d="M1158.726,437.159s3.561.777,5.281-.947,2.188-4.093,1-5.281-3.564-.777-5.3.947S1158.726,437.159,1158.726,437.159Z" transform="translate(-629.381 -63.061)" fill="#5673a8"/>
    <ellipse id="Ellipse_4229" data-name="Ellipse 4229" cx="2.448" cy="4.281" rx="2.448" ry="4.281" transform="matrix(0.963, -0.268, 0.268, 0.963, 530.712, 374.363)" fill="#5673a8"/>
    <path id="Path_23114" data-name="Path 23114" d="M1172.135,467.636c-1.079,1.3.155,4.1,2.753,6.258s7.948-.211,7.948-.211a20.587,20.587,0,0,0-4.043-4.5C1176.194,467.029,1173.21,466.335,1172.135,467.636Z" transform="translate(-637.593 -85.934)" fill="#5673a8"/>
    <path id="Path_23115" data-name="Path 23115" d="M1159.049,437.07a9.076,9.076,0,0,0,0,3.289s3.561.754,5.281-.951a5.976,5.976,0,0,0,1.245-1.754,5.541,5.541,0,0,1-1.588,2.8c-1.739,1.724-5.281.947-5.281.947A8.061,8.061,0,0,1,1159.049,437.07Z" transform="translate(-629.376 -67.306)" fill="#355585"/>
    <path id="Path_23116" data-name="Path 23116" d="M1165.251,450.81a6.822,6.822,0,0,0,.256,2.161c.63,2.263,2.2,3.832,3.5,3.47a1.924,1.924,0,0,0,1.2-1.271c-.068,1.339-.6,2.373-1.467,2.614-1.3.377-2.87-1.192-3.5-3.47A5.853,5.853,0,0,1,1165.251,450.81Z" transform="translate(-633.379 -75.864)" fill="#355585"/>
    <path id="Path_23117" data-name="Path 23117" d="M1172.033,469.14a8.163,8.163,0,0,0,3.127,4.756c1.92,1.592,5.341.717,6.993.151.449.6.69.981.69.981s-5.345,2.365-7.948.211C1172.395,473.165,1171.165,470.5,1172.033,469.14Z" transform="translate(-637.599 -87.28)" fill="#355585"/>
    <path id="Path_23118" data-name="Path 23118" d="M1149.849,455.922l-2.516,5.65-4.692,3.712H1140l7.333-5.6,2.131-4.526Z" transform="translate(-617.822 -78.573)" fill="#355585"/>
    <path id="Path_23119" data-name="Path 23119" d="M1172.306,418.976s-.2-7.567,1.324-8.939,4.926-1.69,5.205.456-.637,1.132-.72.834.426-.754.426-.754a1.576,1.576,0,0,0-1.965-1.358c-1.852.2-2.641.736-3.078,1.49a27.741,27.741,0,0,0-.924,5.677c.042.279.026,2.508.026,2.508S1172.389,419.271,1172.306,418.976Z" transform="translate(-637.937 -49.79)" fill="#355585"/>
    <path id="Path_23120" data-name="Path 23120" d="M1164.049,412.7s-2.7-9.724-.886-11.18,3.451-1.279,3.7-.377,0,2.225-.471,1.716.128-.671.128-.671.721-.834-.622-1.094-2.52.064-2.78,1.407a7.3,7.3,0,0,0-.147,2.9c.117,1.554,1.377,7.238,1.377,7.238S1164.422,412.911,1164.049,412.7Z" transform="translate(-631.856 -44.494)" fill="#355585"/>
    <path id="Path_23121" data-name="Path 23121" d="M1160.886,494.284c-.377-.083-1.509-.668-1.886-.754v-11l6.891-2.1.7,1.018-6.084,1.837Z" transform="translate(-629.655 -94.311)" fill="#355585"/>
    <path id="Path_23122" data-name="Path 23122" d="M1176.658,496.2l-3.395-10.184s3.7-2.987,3.772-3.018h-.755L1171,485.64l3.772,10.184Z" transform="translate(-637.129 -95.912)" fill="#355585"/>
    <path id="Path_23123" data-name="Path 23123" d="M1173.44,452.16l7.755,1.448-.588,1.943-7.167-2.637Z" transform="translate(-638.648 -76.705)" fill="#355585"/>
    <path id="Path_23124" data-name="Path 23124" d="M1190.132,445.676,1189,444.544l4.9-7.544.755,2.263Z" transform="translate(-648.339 -67.263)" fill="#355585"/>
    <line id="Line_3113" data-name="Line 3113" x1="28.358" transform="translate(326.346 648.862)" fill="none" stroke="#dadada" stroke-miterlimit="10" stroke-width="2"/>
  </g>
</svg>
