<svg xmlns="http://www.w3.org/2000/svg" xmlns:xlink="http://www.w3.org/1999/xlink" width="1440.002" height="99" viewBox="0 0 1440.002 99">
  <defs>
    <linearGradient id="linear-gradient" x1="0.5" x2="0.5" y2="0.84" gradientUnits="objectBoundingBox">
      <stop offset="0" stop-color="#fff"/>
      <stop offset="1" stop-color="#eee"/>
    </linearGradient>
  </defs>
  <g id="Group_39342" data-name="Group 39342" transform="translate(-240 -156)">
    <path id="Subtraction_88" data-name="Subtraction 88" d="M469,99H2a2,2,0,0,1-2-2V2A2,2,0,0,1,2,0H469a2,2,0,0,1,2,2V97A2,2,0,0,1,469,99Z" transform="translate(240 156)" fill="url(#linear-gradient)"/>
    <path id="Subtraction_89" data-name="Subtraction 89" d="M468,99H2a2,2,0,0,1-2-2V2A2,2,0,0,1,2,0H468a2,2,0,0,1,2,2V97A2,2,0,0,1,468,99Z" transform="translate(725 156)" fill="url(#linear-gradient)"/>
    <path id="Subtraction_90" data-name="Subtraction 90" d="M468,99H2a2,2,0,0,1-2-2V2A2,2,0,0,1,2,0H468a2,2,0,0,1,2,2V97A2,2,0,0,1,468,99Z" transform="translate(1210 156)" fill="url(#linear-gradient)"/>
  </g>
</svg>
