<svg xmlns="http://www.w3.org/2000/svg" width="485.178" height="337.249" viewBox="0 0 485.178 337.249">
  <g id="Layer_19" data-name="Layer 19" transform="translate(-295.25 -285.211)">
    <rect id="Rectangle_16180" data-name="Rectangle 16180" width="46.287" height="39.2" rx="5.92" transform="translate(364.59 416.495)" fill="#e4e4e4"/>
    <rect id="Rectangle_16181" data-name="Rectangle 16181" width="219.24" height="41.675" rx="3" transform="translate(465.449 330.172)" fill="#dadada" stroke="#919191" stroke-miterlimit="10" stroke-width="1" stroke-dasharray="4 6"/>
    <rect id="Rectangle_16182" data-name="Rectangle 16182" width="36.026" height="26.36" rx="2" transform="translate(295.25 485.282)" fill="#fefefe"/>
    <rect id="Rectangle_16183" data-name="Rectangle 16183" width="141.695" height="8.086" rx="4.043" transform="translate(595.206 410.132)" fill="#e4e4e4"/>
    <rect id="Rectangle_16184" data-name="Rectangle 16184" width="82.258" height="15.834" rx="7.917" transform="translate(645.941 436.38)" fill="#e4e4e4"/>
    <rect id="Rectangle_16185" data-name="Rectangle 16185" width="69.194" height="15.834" rx="2" transform="translate(645.941 436.38)" fill="#f9f9f9"/>
    <path id="Path_22018" data-name="Path 22018" d="M379.315,497.089c.212.24.164.734.177,1.114.024.7,0,1.417,0,2.123,0,.515-.021,1.044.7,1.18a1.208,1.208,0,0,0,1.431-.7c.421-.79.912-1.545,1.368-2.318.282-.473.731-.456,1.187-.432a.65.65,0,0,1,.7.738c-.122,1.392.832.884,1.772.585a2.7,2.7,0,0,0-.157,2.875c.7,1.277,1.594,2.144,3.192,1.984,1.354-.139,2.819-.989,2.879-2.137.073-1.361.964-1.9,1.761-2.673.3.432.052.714,0,1.016a3.769,3.769,0,0,0,1.988,3.63,3.5,3.5,0,0,0,4-1.027c.755-1.281,1.215-2.715,1.89-4.048.348-.717.63-.968,1.344-.968h19.492a1.878,1.878,0,0,1,1.7.7c1.128,1.6,3.077,2.757,2.757,5.138a2.213,2.213,0,0,0,.39.153c.4-.477.223-1.069.268-1.612.031-.379-.1-.87.237-1.086a13.6,13.6,0,0,0,2.437-2.7,2.082,2.082,0,0,1,1.74-.581c1.8,0,3.6.045,5.4,0,1.438-.045,2.98-.289,3.738-1.587a1.982,1.982,0,0,1,2.158-1.079c.383.021.773-.017,1.156,0,.908.059,1.26-.348,1.253-1.253-.021-3.728,0-7.456,0-11.184,0-.557-.087-1.044-.79-1.083.6,1.939.292,3.93.348,5.917.024.731-.348,1.044-1.044,1.02h-1.344c-.724.017-1.044-.331-1.044-1.044,0-1.6-.021-3.2,0-4.8.021-1.344.292-1.58,1.584-1.427a13.9,13.9,0,0,1,1.486.348c-.094-.992-.863-.748-1.462-.79-.7-.049-1.49.174-1.9-.606-.828-1.57-2.224-1.706-3.78-1.7q-27.965.031-55.926,0h-.769c-2.207.07-3.275,1.142-3.279,3.328q-.021,5.221,0,10.414C378.348,494.1,378.1,495.728,379.315,497.089Zm64.579-4.038c.644-.024,1.124.1,1.149.884.028.888-.487,1.02-1.2,1.016s-1.044-.261-1.044-.992S443.264,493.017,443.894,493.052Zm-56.928,5.329a.538.538,0,0,1-.111.049l.143-.143C386.987,498.318,386.987,498.363,386.966,498.381Zm-.258.122a.408.408,0,0,1,.111-.052l-.136.15c.007-.031,0-.08.024-.1Z" transform="translate(-54.158 -126.186)" fill="#e4e4e4"/>
    <path id="Path_22019" data-name="Path 22019" d="M661.234,810.49H601.887c-2.29,0-3.1.839-3.112,3.154-.017,4.177,0,8.354,0,12.531,0,.574-.153,1.239.24,1.685,1.1,1.253.909,2.736.922,4.2,0,.515-.024,1.044.7,1.18a1.2,1.2,0,0,0,1.431-.675c.348-.7.752-1.344,1.152-2a1.351,1.351,0,0,1,1.013-.787c1.044-.129,1.305.1,1.7,1.653.446.066.613-.411.982-.5a.846.846,0,0,1,.386-.769.86.86,0,0,1,.773-.39.849.849,0,0,1,.776-.383h0a2.329,2.329,0,0,1,2.694,0h0a.881.881,0,0,1,.773.386h0l.379.379-.39-.39a.8.8,0,0,1-.773-.386h-2.7a.836.836,0,0,1-.769.39.808.808,0,0,1-.769.383.8.8,0,0,1-.386.769,5.84,5.84,0,0,1-.129.933,3.059,3.059,0,0,0,1.291,3.481,3.672,3.672,0,0,0,3.958.16,3.133,3.133,0,0,0,1.361-3.481,5.252,5.252,0,0,1-.317-1.476h0l-.386-.383h0l.386.39a3.056,3.056,0,0,1,.449.331c.989,1.044,1.044,1.079,1.765-.132a1.6,1.6,0,0,1,1.633-.961c-.348.442-.727.867-1.044,1.337a2.712,2.712,0,0,0-.432,2.179,3.189,3.189,0,0,0,3.78,2.663,3.077,3.077,0,0,0,2.739-3.31c0-.442,0-.884-.017-1.323.383.091,1.062.609,1.069-.059,0-1.782,1.19-1.483,2.245-1.486,6.039,0,12.075.038,18.1-.024,1.74-.021,3.328.042,4.177,1.9a1.545,1.545,0,0,0,.665.7c1.044.522,1.145,1.417,1.1,2.437,0,.376-.191.968.574.961.484-.766-.07-1.74.348-2.412a12.819,12.819,0,0,1,1.859-1.911,2.039,2.039,0,0,0,.324-.473,2.152,2.152,0,0,1,2.224-1.17c1.925.056,3.857.063,5.782,0,3.063-.091,4.316-1.392,4.316-4.389,0-3.787.017-7.578,0-11.368C664.743,811.552,663.695,810.49,661.234,810.49Zm-44.3,19.277a.762.762,0,0,1,.752-.372.814.814,0,0,1-.752.372Zm.783-.383a1.8,1.8,0,0,1,2.273,0Zm2.694.4.484.122c-.268.352-.348.014-.48-.122Zm1.253,1.149c.425-.16.195.223.265.372-.171-.1-.345-.345-.265-.372Z" transform="translate(-197.856 -342.441)" fill="#dadada"/>
    <rect id="Rectangle_16186" data-name="Rectangle 16186" width="60.698" height="8.086" rx="2" transform="translate(595.206 410.132)" fill="#d9d9d9"/>
    <rect id="Rectangle_16187" data-name="Rectangle 16187" width="54.648" height="67.447" transform="translate(689.611 547.274)" fill="#e4e4e4"/>
    <rect id="Rectangle_16188" data-name="Rectangle 16188" width="86.671" height="27.08" rx="3" transform="translate(760.222 614.885) rotate(180)" fill="#f8f8f8"/>
    <rect id="Rectangle_16189" data-name="Rectangle 16189" width="46.642" height="33.067" transform="translate(681.954 554.584)" fill="#f2f2f2"/>
    <line id="Line_3059" data-name="Line 3059" x2="131.921" transform="translate(628.698 614.878)" fill="none" stroke="#dadada" stroke-miterlimit="10" stroke-width="2"/>
    <rect id="Rectangle_16190" data-name="Rectangle 16190" width="26.356" height="13.095" rx="5" transform="translate(510.797 464.094)" fill="#eee"/>
    <rect id="Rectangle_16191" data-name="Rectangle 16191" width="40.28" height="13.095" rx="5" transform="translate(510.797 489.626)" fill="#dadada"/>
    <rect id="Rectangle_16192" data-name="Rectangle 16192" width="35.852" height="41.118" rx="3" transform="translate(710.844 580.342)" fill="#d9d9d9"/>
    <g id="Group_1225" data-name="Group 1225" transform="translate(499.452 285.211)">
      <path id="Rectangle_745" data-name="Rectangle 745" d="M891.744,285.263l223.024,27.046c2.885.348,5.012,2.384,4.751,4.549L1115.4,350.8c-.261,2.162-2.812,3.634-5.7,3.282L886.68,327.032c-2.886-.348-5.016-2.388-4.751-4.549l4.114-33.938C886.3,286.38,888.859,284.911,891.744,285.263Z" transform="translate(-881.906 -285.211)" fill="#fff"/>
    </g>
    <text id="VIN_TRAILER..." data-name="VIN TRAILER..." transform="translate(524.136 315.824) rotate(7)" fill="#24c0a0" font-size="23" font-family="Montserrat-Black, Montserrat" font-weight="800"><tspan x="0" y="0" letter-spacing="-0.02em">V</tspan><tspan y="0">IN TRAILER...</tspan></text>
    <line id="Line_3060" data-name="Line 3060" x1="36.548" transform="translate(710.844 621.46)" fill="none" stroke="#b5b5b5" stroke-miterlimit="10" stroke-width="2"/>
    <rect id="Rectangle_16193" data-name="Rectangle 16193" width="13.923" height="13.923" rx="3" transform="translate(334.572 607.492)" fill="#ffd300"/>
    <rect id="Rectangle_16194" data-name="Rectangle 16194" width="13.923" height="13.923" rx="3" transform="translate(351.976 607.492)" fill="#fff"/>
    <line id="Line_3061" data-name="Line 3061" x1="31.327" transform="translate(334.572 621.415)" fill="none" stroke="#b5b5b5" stroke-miterlimit="10" stroke-width="2"/>
    <path id="Path_22020" data-name="Path 22020" d="M521.179,1132.5s3.265.821,4.918-.717,2.141-3.711,1.079-4.873-3.265-.818-4.918.72S521.179,1132.5,521.179,1132.5Z" transform="translate(-147.225 -548.275)" fill="#909090"/>
    <ellipse id="Ellipse_4181" data-name="Ellipse 4181" cx="2.256" cy="3.945" rx="2.256" ry="3.945" transform="matrix(0.541, -0.841, 0.841, 0.541, 376.57, 587.1)" fill="#909090"/>
    <path id="Path_22021" data-name="Path 22021" d="M552.238,1146.766c.066,1.559,2.642,2.715,5.757,2.583s5.3-5.061,5.3-5.061a18.985,18.985,0,0,0-5.552-.581C554.643,1143.839,552.171,1145.21,552.238,1146.766Z" transform="translate(-167.535 -559.661)" fill="#909090"/>
    <path id="Path_22022" data-name="Path 22022" d="M521.615,1132.81a8.423,8.423,0,0,0-.09,3.032s3.265.821,4.918-.717a5.627,5.627,0,0,0,1.2-1.584,5.162,5.162,0,0,1-1.549,2.541c-1.653,1.538-4.918.717-4.918.717A7.429,7.429,0,0,1,521.615,1132.81Z" transform="translate(-147.223 -552.569)" fill="#6c6c6c"/>
    <path id="Path_22023" data-name="Path 22023" d="M535,1143.844a6.306,6.306,0,0,0,1.514,1.323c1.841,1.169,3.878,1.263,4.546.209a1.768,1.768,0,0,0,.035-1.615,2.444,2.444,0,0,1,.616,2.7c-.668,1.044-2.7.957-4.546-.209A5.384,5.384,0,0,1,535,1143.844Z" transform="translate(-156.298 -559.708)" fill="#6c6c6c"/>
    <path id="Path_22024" data-name="Path 22024" d="M552.31,1147.569a7.527,7.527,0,0,0,5.082,1.323c2.3-.1,4.1-2.812,4.873-4.222.675.129,1.079.244,1.079.244s-2.2,4.929-5.312,5.061C555.049,1150.114,552.55,1149.049,552.31,1147.569Z" transform="translate(-167.583 -560.301)" fill="#6c6c6c"/>
    <path id="Path_22025" data-name="Path 22025" d="M514.77,1147.912l-2.548,3.637-9.088,5.837-1.594-.09,9.833-6.485,2.666-3.181Z" transform="translate(-134.485 -562.231)" fill="#6c6c6c"/>
    <path id="Path_22026" data-name="Path 22026" d="M535.11,1114.6s.042-6.982,1.486-8.208,4.595-1.392,4.79.578-.623,1.023-.7.748.414-.7.414-.7a1.457,1.457,0,0,0-1.772-1.312c-1.713.125-2.468.6-2.882,1.284a26.762,26.762,0,0,0-1.02,5.221c.024.271-.052,2.311-.052,2.311S535.18,1114.867,535.11,1114.6Z" transform="translate(-156.37 -534.748)" fill="#6c6c6c"/>
    <path id="Path_22027" data-name="Path 22027" d="M527.289,1107.806s-2.207-9.05-.487-10.338,3.223-1.079,3.425-.254-.084,2.054-.491,1.57.143-.616.143-.616.7-.748-.543-1.044-2.329,0-2.607,1.215a6.788,6.788,0,0,0-.223,2.67c.059,1.438,1.044,6.714,1.044,6.714S527.631,1108.015,527.289,1107.806Z" transform="translate(-150.527 -528.93)" fill="#6c6c6c"/>
    <path id="Path_22028" data-name="Path 22028" d="M528.188,1149.158l-.668-5.218-.271.8.23,3.874-7.968,7.209.167,1.25Z" transform="translate(-146.2 -559.825)" fill="#6c6c6c"/>
    <path id="Path_22029" data-name="Path 22029" d="M567.5,1167.554c-.313.181-2.565-.181-2.882,0l-3.39-6.614-.668-2.76,1.11.261.839,2.812Z" transform="translate(-172.962 -569.108)" fill="#6c6c6c"/>
    <path id="Path_22030" data-name="Path 22030" d="M577.388,1157.283l1.392-10.442s-11.448.724-11.514.745c0,0-.453-.519-.466-.515l14.069-1.97-.348,12.416Z" transform="translate(-177.03 -560.581)" fill="#6c6c6c"/>
    <rect id="Rectangle_16195" data-name="Rectangle 16195" width="13.923" height="13.923" rx="3" transform="translate(342.23 593.569)" fill="#50a7ff"/>
    <rect id="Rectangle_16196" data-name="Rectangle 16196" width="13.923" height="13.923" rx="3" transform="translate(360.31 591.654) rotate(-24.96)" fill="#1b55a9"/>
    <path id="Path_22031" data-name="Path 22031" d="M528.188,1149.158l-.668-5.218-.271.8.23,3.874-7.968,7.209.167,1.25Z" transform="translate(-146.2 -559.825)" fill="#6c6c6c"/>
    <path id="Path_22032" data-name="Path 22032" d="M848.539,836.386s25.232,5.454,27.707,8.183-27.307,72.626-34.867,73.183-26.7,1.946-29.834-2.927,2.52-16.568,8.378-22.747C831.038,880.365,818.7,832.78,848.539,836.386Z" transform="translate(-336.002 -359.197)" fill="#6780b1"/>
    <path id="Path_22033" data-name="Path 22033" d="M867.116,1002.9l-20.885,73.792h-7.658s-8.7-52.212-.7-66.483S859.807,993.849,867.116,1002.9Z" transform="translate(-351.544 -464.326)" fill="#6780b1"/>
    <path id="Path_22034" data-name="Path 22034" d="M948.227,929.016s-8.7,2.437-6.614,8.006,39.681-3.829,43.858-4.525,25.758-.348,23.669-2.437-13.575-3.133-13.575-3.133,8.354-3.481-4.177-1.74c-4.177.585-6.613,2.437-10.094,3.481S957.277,925.535,948.227,929.016Z" transform="translate(-421.168 -416.898)" fill="#c1864c"/>
    <path id="Path_22035" data-name="Path 22035" d="M919.5,817.42l13.129-10.32,7.658,1.392,1.17,19.84Z" transform="translate(-406.963 -340.231)" fill="#c1864c"/>
    <path id="Path_22036" data-name="Path 22036" d="M986.744,772.053s-3.272-1.295-3.439,1.566c-.55,9.4,1.65,20.537,1.65,20.537s-.136-18.274.414-18.97a4.81,4.81,0,0,1,2.2-1.044Z" transform="translate(-448.501 -317.193)"/>
    <path id="Path_22037" data-name="Path 22037" d="M992.764,777.053s4.139-1.295,4.351,1.566c.7,9.4-2.088,20.537-2.088,20.537s.174-18.274-.522-18.97a6.952,6.952,0,0,0-2.785-1.044Z" transform="translate(-454.045 -320.452)"/>
    <ellipse id="Ellipse_4182" data-name="Ellipse 4182" cx="8.876" cy="10.268" rx="8.876" ry="10.268" transform="translate(521.838 448.072)" fill="#c1864c"/>
    <path id="Path_22038" data-name="Path 22038" d="M896.705,864.717s-51.293,49.775-45.375,66.135c3.07,8.493,27.119,4.525,27.119,4.525l41.1,2.785s-19.492,7.658-11.138,26.454,16.012,22.625,16.012,22.625H930s0-26.454.7-36.548,19.84-22.625-13.923-37.592c-14.048-6.227-28.194-1.044-28.194-1.044S920.5,851.838,896.705,864.717Z" transform="translate(-362.211 -376.616)" fill="#788eba"/>
    <path id="Path_22039" data-name="Path 22039" d="M995.666,983.717s-6.572,6.725-2.938,9.8,25.911,8.3,28.347,10.387,3.481,1.74,3.481,5.569-.7,6.613,1.74,4.873,3.133-3.829,3.133-7.31.7-3.133-2.437-6.613-4.525-1.392-8.006-4.177S1012.722,976.408,995.666,983.717Z" transform="translate(-453.988 -454.195)" fill="#c1864c"/>
    <path id="Path_22040" data-name="Path 22040" d="M932.6,743.451c0,1.347-2.057,2.631-2.026,3.8.031,1.392,2.148,2.663,2.106,3.791-.056,1.462-2.231,2.259-2.649,3.258-.487,1.159,0,3.387-1.361,3.881-.954.348-2.524-1.507-4.076-1.507-1.706,0-3.7,1.74-5.221,1.18s-2.019-3.185-3.314-4.226-3.933-.881-4.856-2.283.268-3.745-.212-5.371c-.456-1.549-2.746-2.9-2.746-4.615s2.294-3.091,2.746-4.689-.734-4.031.139-5.434c.9-1.458,3.568-1.392,4.821-2.468s1.768-3.745,3.352-4.264,3.439,1.323,5.176,1.532c2.148.258,4.292-1.479,5.74-1.121,2.478.613,3.021,3.133,3.892,4,1.392,1.392,2.809,2.785,1.994,4.748-.623,1.5-3.481,2.339-4.24,4.111C931.153,739.434,932.6,741.606,932.6,743.451Z" transform="translate(-399.628 -286.328)"/>
    <ellipse id="Ellipse_4183" data-name="Ellipse 4183" cx="1.914" cy="4.003" rx="1.914" ry="4.003" transform="matrix(0.985, -0.17, 0.17, 0.985, 529.18, 454.743)" fill="#c1864c"/>
    <path id="Path_22041" data-name="Path 22041" d="M973.612,759.862l2.088,3.4,1.392-1.044-3.262-9.015-1.612,4.49Z" transform="translate(-441.332 -305.093)"/>
    <path id="Path_22042" data-name="Path 22042" d="M879.816,891.246c1.625-3.091,24.894-47.739,13.923-48.943a1.381,1.381,0,0,0-.132-.95c-2.475-2.729-27.707-8.183-27.707-8.183-28.292-8.928-17.5,14.045-28.615,55.692C836.863,890.435,879.816,891.246,879.816,891.246Z" transform="translate(-353.362 -355.98)" fill="#c1864c"/>
    <path id="Path_22043" data-name="Path 22043" d="M833.494,1217.1h8.89a4.26,4.26,0,0,1,4.26,4.26v3.049h-17.4v-3.049a4.261,4.261,0,0,1,4.253-4.26Z" transform="translate(-348.12 -607.52)" fill="#fff"/>
    <path id="Path_22044" data-name="Path 22044" d="M977.229,863.73c-4.462,1.841-8.942,4.229-10.442,8.841a1.685,1.685,0,0,1-.721.95,38.733,38.733,0,0,0-1.74,6.8,99.317,99.317,0,0,0-.456,10.575,30.979,30.979,0,0,0,1.88,10.442c.3.828.571,1.681.881,2.517C973.059,890.57,983.568,866.581,977.229,863.73Z" transform="translate(-435.885 -377.15)" fill="#aa7341"/>
    <path id="Path_22045" data-name="Path 22045" d="M864.33,963.2s-6.923,0-5.221-5.869c-.5,0-1.006,0-1.507-.028a24.338,24.338,0,0,1-6.68-.895,23.722,23.722,0,0,0-2.537-.2,1.772,1.772,0,0,1-1.74-1.74v-.4a11.093,11.093,0,0,1-.888-.877,1.692,1.692,0,0,1-.275-1.935c-4.031-1.323-8.055-2.969-10.665-5.291-2.753-2.437-7.181-1.646-10.86-1.852l-1.5-.083a1.615,1.615,0,0,1-1.632,1.323,26.653,26.653,0,0,1-4.734-.185l-16.84,43.788s51.864,12.931,67.527,7.31S864.33,963.2,864.33,963.2Z" transform="translate(-328.569 -429.499)" fill="#fff"/>
    <path id="Path_22046" data-name="Path 22046" d="M877.275,885.574c-1.688-.456-11.507-2.089-10.338-15.59.414-4.8,1.044-9.617,3.376-13.857a27.547,27.547,0,0,1,9.851-10.178,30.706,30.706,0,0,1,6.13-2.945c-6.4.059-18.894-.077-20.324-6.265l-.1-.021-.24-.028a1.917,1.917,0,0,1-.216.348c.136,3.39-1.222,7-2.356,10.122-2.9,7.964-6.819,16.2-12.472,22.6-1.939,2.193-4.525,4.615-7.606,4.838a5.36,5.36,0,0,1-2.3-.348c-.933,8.726-1.448,16.085-3.425,18.145-1.128,1.177,42.532,2.384,42.532,2.384.428-.814,2.367-4.525,4.779-9.565C883.791,885.243,879.071,886.065,877.275,885.574Z" transform="translate(-353.328 -359.522)" fill="#fff"/>
    <path id="Path_22047" data-name="Path 22047" d="M939.124,753.508s-11.274,10.4-16.147,13.53-8.159-.091-8.256-1.96a10.953,10.953,0,0,0-.95-3.644s1.9,2.123,5.726,1.427,20.188-11.869,20.188-11.869S941,750.769,939.124,753.508Z" transform="translate(-403.227 -303.65)" fill="#788eba"/>
    <path id="Path_22048" data-name="Path 22048" d="M907.326,787.1s-3.829.7-5.569,6.613,6.265-4.177,6.265-4.177Z" transform="translate(-395.234 -327.193)" fill="#6780b1"/>
    <path id="Path_22049" data-name="Path 22049" d="M910.113,789.1s-7.658,9.746-5.569,12.183S911.506,793.277,910.113,789.1Z" transform="translate(-396.977 -328.497)" fill="#788eba"/>
    <path id="Path_22050" data-name="Path 22050" d="M966.535,857.868c-2.224,1.316-2.7,10.272-2.437,12.841.957,9.221,3.989,32.556,10.63,39.079C986.379,921.232,1008.3,833.154,966.535,857.868Z" transform="translate(-435.995 -370.463)" fill="#c1864c"/>
    <path id="Path_22051" data-name="Path 22051" d="M1060.22,1210.742a8.779,8.779,0,0,1,1.74,5.221c0,3.133,5.221,3.829,11.835,3.481s31.675-.7,31.675-.7,5.221-3.481-2.437-3.829-31.5-1.563-36.548-6.614C1064.745,1206.565,1060.22,1210.742,1060.22,1210.742Z" transform="translate(-498.701 -601.51)" fill="#c1864c"/>
    <path id="Path_22052" data-name="Path 22052" d="M839.554,1222.1s-4.177,4.873-3.481,6.265,12.879,1.044,12.879,1.044l-1.74-7.31Z" transform="translate(-352.524 -610.779)" fill="#c1864c"/>
    <path id="Path_22053" data-name="Path 22053" d="M844.4,1213.065c.379,2.59.633,4.107.633,4.107h7.658l1.2-4.233C850.725,1212.961,847.564,1213.037,844.4,1213.065Z" transform="translate(-358.003 -604.808)" fill="#c1864c"/>
    <path id="Path_22054" data-name="Path 22054" d="M1054.62,1210.66a13.572,13.572,0,0,0,2.645,2h5.569s-.146-1.486-.376-3.972A30.282,30.282,0,0,1,1054.62,1210.66Z" transform="translate(-495.05 -602.037)" fill="#c1864c"/>
    <rect id="Rectangle_16197" data-name="Rectangle 16197" width="18.796" height="4.525" transform="translate(480.417 616.89)" fill="#b7b7b7"/>
    <rect id="Rectangle_16198" data-name="Rectangle 16198" width="51.662" height="4.525" transform="translate(562.911 616.89)" fill="#b7b7b7"/>
    <path id="Path_22055" data-name="Path 22055" d="M1145.624,1221.15h-17.4v-9.05l17.4,1.74Z" transform="translate(-543.032 -604.26)" fill="#fff"/>
    <line id="Line_3062" data-name="Line 3062" x1="281.595" transform="translate(333.876 621.46)" fill="none" stroke="#b5b5b5" stroke-miterlimit="10" stroke-width="2"/>
    <path id="Path_22056" data-name="Path 22056" d="M1192.383,465.632l-17.609,38.177-17.689,38.153c-5.893,12.719-11.692,25.476-17.752,38.1-3.046,6.311-6.088,12.621-9.2,18.9l-4.671,9.419c-1.587,3.133-3.133,6.265-4.762,9.374l-.157-.073c1.392-3.227,2.785-6.426,4.2-9.642l4.292-9.6c2.865-6.394,5.8-12.76,8.726-19.123,5.872-12.726,12.023-25.319,18.1-37.94l18.163-37.916,18.239-37.878Z" transform="translate(-538.025 -117.593)"/>
    <path id="Path_22057" data-name="Path 22057" d="M1098.449,866.085s-1.692,2.906-3.951,3.018-4.149-1.065-4.222-2.621,1.692-2.91,3.947-3.018S1098.449,866.085,1098.449,866.085Z" transform="translate(-518.294 -376.974)" fill="#5673a8"/>
    <ellipse id="Ellipse_4184" data-name="Ellipse 4184" cx="2.259" cy="3.951" rx="2.259" ry="3.951" transform="translate(574.157 490.858)" fill="#5673a8"/>
    <path id="Path_22058" data-name="Path 22058" d="M1089.98,897.054c1.281.891.877,3.686-.905,6.245s-7.115,1.779-7.115,1.779a19,19,0,0,1,2.482-5C1086.214,897.517,1088.7,896.16,1089.98,897.054Z" transform="translate(-512.874 -398.695)" fill="#5673a8"/>
    <path id="Path_22059" data-name="Path 22059" d="M1097.776,863.89a8.4,8.4,0,0,1,2.235,2.054s-1.7,2.91-3.951,3.018a5.543,5.543,0,0,1-1.97-.247,5.154,5.154,0,0,0,2.9.668c2.259-.111,3.951-3.018,3.951-3.018A7.42,7.42,0,0,0,1097.776,863.89Z" transform="translate(-520.782 -377.254)" fill="#355585"/>
    <path id="Path_22060" data-name="Path 22060" d="M1100.741,878.42a6.329,6.329,0,0,1,.31,1.988c0,2.182-1.009,3.951-2.259,3.951a1.772,1.772,0,0,1-1.392-.835c.393,1.173,1.117,1.963,1.949,1.963,1.25,0,2.259-1.768,2.259-3.951A5.378,5.378,0,0,0,1100.741,878.42Z" transform="translate(-522.94 -386.727)" fill="#355585"/>
    <path id="Path_22061" data-name="Path 22061" d="M1090.1,897.9a7.493,7.493,0,0,1-1.6,5c-1.312,1.894-4.57,1.956-6.182,1.862-.251.64-.369,1.044-.369,1.044s5.336.783,7.115-1.779C1090.767,901.569,1091.2,898.9,1090.1,897.9Z" transform="translate(-512.861 -399.426)" fill="#355585"/>
    <path id="Path_22062" data-name="Path 22062" d="M1089.1,916.51h-.251l-.6,3.429L1086,924.283h1.413l1.392-4.65Z" transform="translate(-515.508 -411.558)" fill="#355585"/>
    <path id="Path_22063" data-name="Path 22063" d="M1108.73,872.131l6.436-1.81,3.829-4.177-.348-1.044-4.177,4.873-5.74,1.232Z" transform="translate(-530.326 -378.043)" fill="#355585"/>
    <path id="Path_22064" data-name="Path 22064" d="M1076.016,863.242s-5.023-4.849-6.909-4.671-4.219,2.3-2.931,3.829,1.166.271,1.016.031-.78-.181-.78-.181a1.455,1.455,0,0,1,.3-2.182c1.288-1.138,2.155-1.347,2.931-1.166a26.472,26.472,0,0,1,4.442,2.91c.167.205,1.688,1.58,1.688,1.58S1076.165,863.5,1076.016,863.242Z" transform="translate(-502.342 -373.784)" fill="#355585"/>
    <path id="Path_22065" data-name="Path 22065" d="M1078.87,851.8s-4.932-7.9-7.056-7.571-3.025,1.556-2.576,2.273,1.525,1.392,1.465.748-.536-.348-.536-.348-1.02-.028-.348-1.107,1.615-1.674,2.691-1.016a6.773,6.773,0,0,1,2.064,1.706c.985,1.044,4.066,5.447,4.066,5.447S1078.78,852.2,1078.87,851.8Z" transform="translate(-504.508 -364.432)" fill="#355585"/>
    <path id="Path_22066" data-name="Path 22066" d="M1105.991,920.094l1.236-5.5-3.387-4.233v-.282l3.951,3.951-.745,6.064Z" transform="translate(-527.138 -407.366)" fill="#355585"/>
    <path id="Path_22067" data-name="Path 22067" d="M1075.917,885.786l3.94-4.086v.846l-3.676,4.166L1072.7,889.5l-3.481.7Z" transform="translate(-504.569 -388.865)" fill="#355585"/>
    <path id="Path_22068" data-name="Path 22068" d="M1137.129,862.92s1.563.292,1.044,1.253a2.834,2.834,0,0,1-1.361,1.281S1136.141,863,1137.129,862.92Z" transform="translate(-548.488 -376.622)" fill="#355585"/>
    <ellipse id="Ellipse_4185" data-name="Ellipse 4185" cx="2.259" cy="3.951" rx="2.259" ry="3.951" transform="translate(741.045 355.819) rotate(-52.39)" fill="#909090"/>
    <path id="Path_22069" data-name="Path 22069" d="M1579.41,487.51a6.244,6.244,0,0,0,1.392,1.458c1.74,1.333,3.745,1.612,4.507.623a1.775,1.775,0,0,0,.185-1.608c.7,1.027.874,2.088.365,2.743-.762.989-2.785.7-4.525-.623a5.353,5.353,0,0,1-1.925-2.593Z" transform="translate(-837.173 -131.883)" fill="#6c6c6c"/>
    <path id="Path_22070" data-name="Path 22070" d="M1598.511,492.1c-1.044,1.159,0,3.787,2.322,5.869s7.334.084,7.334.084a18.972,18.972,0,0,0-3.568-4.288C1602.277,491.684,1599.552,490.94,1598.511,492.1Z" transform="translate(-849.361 -134.519)" fill="#909090"/>
    <path id="Path_22071" data-name="Path 22071" d="M1598.441,493.54a7.533,7.533,0,0,0,2.715,4.5c1.716,1.535,4.9.849,6.446.386.393.564.6.926.6.926s-5.012,1.994-7.334-.084C1598.626,497.264,1597.585,494.762,1598.441,493.54Z" transform="translate(-849.385 -135.815)" fill="#6c6c6c"/>
    <path id="Path_22072" data-name="Path 22072" d="M1561.729,489.2l-4.842,4.288-5.138,1.177-1.079-1.18,6.123-1.121,4.612-3.881Z" transform="translate(-818.437 -132.516)" fill="#6c6c6c"/>
    <path id="Path_22073" data-name="Path 22073" d="M1565.582,478.456s3.258.842,4.922-.7,2.161-3.7,1.107-4.849-3.258-.839-4.922.7S1565.582,478.456,1565.582,478.456Z" transform="translate(-828.1 -121.914)" fill="#909090"/>
    <path id="Path_22074" data-name="Path 22074" d="M1566.044,478.69a8.427,8.427,0,0,0-.111,3.032s3.258.842,4.925-.7a5.567,5.567,0,0,0,1.208-1.577,5.156,5.156,0,0,1-1.563,2.531c-1.664,1.528-4.922.7-4.922.7A7.425,7.425,0,0,1,1566.044,478.69Z" transform="translate(-828.099 -126.134)" fill="#6c6c6c"/>
    <path id="Path_22075" data-name="Path 22075" d="M1579.58,460.584s.084-6.979,1.535-8.194,4.605-1.392,4.786.606-.63,1.016-.7.745.418-.7.418-.7a1.456,1.456,0,0,0-1.765-1.319c-1.713.118-2.471.585-2.889,1.263a25.669,25.669,0,0,0-1.044,5.2c.038.261-.063,2.315-.063,2.315S1579.646,460.859,1579.58,460.584Z" transform="translate(-837.284 -108.397)" fill="#6c6c6c"/>
    <path id="Path_22076" data-name="Path 22076" d="M1571.858,453.746s-2.151-9.05-.425-10.341,3.23-1.044,3.428-.233-.094,2.054-.5,1.57.146-.616.146-.616.7-.745-.536-1.044-2.325-.028-2.614,1.2a6.788,6.788,0,0,0-.24,2.67c.049,1.441,1.016,6.718,1.016,6.718S1572.2,453.955,1571.858,453.746Z" transform="translate(-831.536 -102.54)" fill="#6c6c6c"/>
    <path id="Path_22077" data-name="Path 22077" d="M1553.265,482.613l8.232-2.263.195.825-8.427,2.482-5.569-4.873L1547,476Z" transform="translate(-816.044 -124.38)" fill="#6c6c6c"/>
    <path id="Path_22078" data-name="Path 22078" d="M1546.89,505.248s.543,1.3,1.476.606a4.815,4.815,0,0,0,1.319-2.374S1547.711,505.589,1546.89,505.248Z" transform="translate(-815.972 -142.295)" fill="#6c6c6c"/>
    <path id="Path_22079" data-name="Path 22079" d="M1538.876,476.74a1.48,1.48,0,0,0,.348,1.713c.832.818,4.908,1.7,4.908,1.7S1540.846,478.178,1538.876,476.74Z" transform="translate(-810.66 -124.862)" fill="#6c6c6c"/>
    <path id="Path_22080" data-name="Path 22080" d="M1619.931,512.444l2.12-8.023s-7.024-.24-6.962-.265,0-.7.028-.7l8.027-.39.776,9.882a.939.939,0,0,1-.143.021C1622.716,512.569,1620.975,512.816,1619.931,512.444Z" transform="translate(-860.433 -142.027)" fill="#6c6c6c"/>
    <path id="Path_22081" data-name="Path 22081" d="M1571.829,511.746c-.39-.073-3.443.066-3.829,0l6.652-9.746,5.629,1.044.609.964-5.538-.908Z" transform="translate(-829.734 -141.33)" fill="#6c6c6c"/>
    <path id="Path_22082" data-name="Path 22082" d="M844.6,340.741s-3.415.439-4.911-1.323-1.74-4.027-.512-5.061,3.415-.442,4.911,1.323S844.6,340.741,844.6,340.741Z" transform="translate(-354.087 -31.708)" fill="#919191"/>
    <ellipse id="Ellipse_4186" data-name="Ellipse 4186" cx="4.045" cy="2.311" rx="4.045" ry="2.311" transform="matrix(0.122, -0.993, 0.993, 0.122, 483.601, 315.292)" fill="#919191"/>
    <path id="Path_22083" data-name="Path 22083" d="M827.994,370.75c1.19,1.065.432,3.853-1.7,6.234s-7.449.915-7.449.915a19.412,19.412,0,0,1,3.133-4.765C824.123,370.754,826.807,369.688,827.994,370.75Z" transform="translate(-341.347 -55.497)" fill="#919191"/>
    <path id="Path_22084" data-name="Path 22084" d="M844.693,341.85a8.568,8.568,0,0,1-.275,3.091s-3.415.442-4.911-1.319a5.658,5.658,0,0,1-1.027-1.74,5.243,5.243,0,0,0,1.267,2.785c1.5,1.761,4.911,1.323,4.911,1.323A7.751,7.751,0,0,0,844.693,341.85Z" transform="translate(-354.144 -36.924)" fill="#6c6c6c"/>
    <path id="Path_22085" data-name="Path 22085" d="M842.024,352.33a6.443,6.443,0,0,1,.066,2.054c-.271,2.217-1.518,3.888-2.785,3.735a1.813,1.813,0,0,1-1.305-1.03c.251,1.243.888,2.134,1.74,2.238,1.267.157,2.513-1.514,2.785-3.731A5.486,5.486,0,0,0,842.024,352.33Z" transform="translate(-353.831 -43.757)" fill="#6c6c6c"/>
    <path id="Path_22086" data-name="Path 22086" d="M828.119,371.91a7.685,7.685,0,0,1-2.252,4.873c-1.573,1.758-4.873,1.417-6.513,1.121a9.449,9.449,0,0,0-.5,1.013s5.322,1.462,7.449-.915C828.342,375.718,829.118,373.055,828.119,371.91Z" transform="translate(-341.347 -56.521)" fill="#6c6c6c"/>
    <path id="Path_22087" data-name="Path 22087" d="M863.951,336.1l-6.311,4.379-7.066,2.833-.115.943,7.5-2.475,5.639-1.852Z" transform="translate(-361.954 -33.176)" fill="#6c6c6c"/>
    <path id="Path_22088" data-name="Path 22088" d="M833.334,320.83s.8-7.1-.522-8.517-4.5-1.984-4.936,0,.508,1.114.609.842-.348-.741-.348-.741a1.487,1.487,0,0,1,1.956-1.117c1.723.338,2.437.9,2.785,1.65a26.277,26.277,0,0,1,.407,5.416c-.063.261-.226,2.356-.226,2.356S833.233,321.112,833.334,320.83Z" transform="translate(-347.157 -16.831)" fill="#6c6c6c"/>
    <path id="Path_22089" data-name="Path 22089" d="M846.367,315.2s3.331-8.932,1.74-10.442-3.133-1.483-3.449-.668-.164,2.088.306,1.653-.066-.64-.066-.64-.613-.846.672-.982,2.367.265,2.506,1.549a6.892,6.892,0,0,1-.1,2.739c-.233,1.455-1.883,6.7-1.883,6.7S845.995,315.369,846.367,315.2Z" transform="translate(-358.063 -11.947)" fill="#6c6c6c"/>
    <path id="Path_22090" data-name="Path 22090" d="M851.305,360.7l6.718,1.239c.209-.3,3.749-.285,4.264-.122a7.339,7.339,0,0,1-.842,1.176c-2.12,2.276-8.2-.233-8.2-.233l-11.264-3.133L841.5,359Z" transform="translate(-356.113 -48.105)" fill="#6c6c6c"/>
    <path id="Path_22091" data-name="Path 22091" d="M840.65,385.28l.028.035h0Z" transform="translate(-355.559 -65.237)" fill="#355585"/>
    <path id="Path_22092" data-name="Path 22092" d="M846.286,395.017h1.633l-2.548-7.56-2.785-2.52c-.049-.042-.237.038-.306,0l2.471,2.882Z" transform="translate(-356.621 -65.006)" fill="#6c6c6c"/>
    <path id="Path_22093" data-name="Path 22093" d="M818.293,394.366H816.48l2.83-7.821,3.091-2.607c.056-.042.268.042.348,0l-2.75,2.98Z" transform="translate(-339.802 -64.354)" fill="#6c6c6c"/>
    <line id="Line_3063" data-name="Line 3063" x1="23.669" transform="translate(474.064 330.011)" fill="none" stroke="#b5b5b5" stroke-miterlimit="10" stroke-width="2"/>
    <line id="Line_3064" data-name="Line 3064" x1="20.188" transform="translate(707.363 554.584)" fill="none" stroke="#b5b5b5" stroke-miterlimit="10" stroke-width="2"/>
    <path id="Path_22094" data-name="Path 22094" d="M1479.48,1007.569s3.289.7,4.894-.877,2.019-3.777.922-4.873-3.289-.717-4.894.874S1479.48,1007.569,1479.48,1007.569Z" transform="translate(-771.932 -466.766)" fill="#909090"/>
    <ellipse id="Ellipse_4187" data-name="Ellipse 4187" cx="2.259" cy="3.951" rx="2.259" ry="3.951" transform="matrix(0.963, -0.268, 0.268, 0.963, 708.81, 541.056)" fill="#909090"/>
    <path id="Path_22095" data-name="Path 22095" d="M1492.879,1038.526c-.992,1.2.146,3.787,2.544,5.775s7.331-.195,7.331-.195a18.868,18.868,0,0,0-3.728-4.149C1496.628,1037.965,1493.875,1037.325,1492.879,1038.526Z" transform="translate(-780.528 -490.708)" fill="#909090"/>
    <path id="Path_22096" data-name="Path 22096" d="M1479.773,1008a8.377,8.377,0,0,0,0,3.035s3.286.717,4.873-.874a5.57,5.57,0,0,0,1.149-1.622,5.141,5.141,0,0,1-1.465,2.586c-1.6,1.591-4.894.877-4.894.877A7.556,7.556,0,0,1,1479.773,1008Z" transform="translate(-771.912 -471.203)" fill="#6c6c6c"/>
    <path id="Path_22097" data-name="Path 22097" d="M1486.01,1021.75a6.405,6.405,0,0,0,.233,2c.585,2.089,2.033,3.536,3.234,3.2a1.761,1.761,0,0,0,1.11-1.177c-.063,1.236-.55,2.193-1.35,2.416-1.2.348-2.649-1.1-3.234-3.2A5.412,5.412,0,0,1,1486.01,1021.75Z" transform="translate(-776.119 -480.167)" fill="#6c6c6c"/>
    <path id="Path_22098" data-name="Path 22098" d="M1492.8,1040.08a7.522,7.522,0,0,0,2.886,4.389c1.772,1.472,4.925.661,6.453.139.414.55.633.905.633.905s-4.929,2.186-7.331.195C1493.133,1043.794,1492.009,1041.333,1492.8,1040.08Z" transform="translate(-780.545 -492.116)" fill="#6c6c6c"/>
    <path id="Path_22099" data-name="Path 22099" d="M1452.55,1021.588l-7.539,4.17-10.79-5.917,2.437-1.74,8.354,5.917,7.188-3.133Z" transform="translate(-742.52 -477.787)" fill="#6c6c6c"/>
    <path id="Path_22100" data-name="Path 22100" d="M1493.085,989.142s-.184-6.979,1.222-8.249,4.546-1.556,4.8.421-.588,1.044-.665.773.393-.7.393-.7a1.458,1.458,0,0,0-1.813-1.253c-1.706.181-2.437.679-2.84,1.375a25.609,25.609,0,0,0-.853,5.239c.038.258.024,2.315.024,2.315S1493.158,989.413,1493.085,989.142Z" transform="translate(-780.891 -452.874)" fill="#6c6c6c"/>
    <path id="Path_22101" data-name="Path 22101" d="M1484.707,982.694s-2.492-8.973-.814-10.32,3.185-1.177,3.411-.348,0,2.054-.435,1.587.118-.62.118-.62.665-.773-.574-1.013-2.325.059-2.565,1.3a6.743,6.743,0,0,0-.136,2.677c.108,1.438,1.27,6.676,1.27,6.676S1485.055,982.889,1484.707,982.694Z" transform="translate(-774.524 -447.331)" fill="#6c6c6c"/>
    <path id="Path_22102" data-name="Path 22102" d="M1478.47,1062.086c-.348-.077-1.392-.616-1.74-.7l.7-9.792,6.708-.2.647.94-6.614.348Z" transform="translate(-770.234 -499.496)" fill="#6c6c6c"/>
    <path id="Path_22103" data-name="Path 22103" d="M1487.989,1063.675l-.348-8.354s6.429-4.494,6.492-4.525,0-.7,0-.7l-8.4,4.177v9.05Z" transform="translate(-776.101 -498.649)" fill="#6c6c6c"/>
    <path id="Path_22104" data-name="Path 22104" d="M1425.3,1005.751a3.291,3.291,0,0,1,.832.275l5.019-24.686,3.655.7-5.023,24.686a3.221,3.221,0,0,1,.874.052,3.62,3.62,0,1,1-1.351,7.112,3.435,3.435,0,0,0-5.371-1.021,3.62,3.62,0,1,1,1.351-7.112Z" transform="translate(-733.894 -453.822)" fill="#fff"/>
    <path id="Path_22105" data-name="Path 22105" d="M1432.76,894.316c.553-2.92,6.366-9.551,8.737-14.856s5.3-7.759,9.05-5.482c2.367,1.438,3.55,4.574,4.1,6.7a7.112,7.112,0,0,1-.056,3.78c-.748,2.572-2.165,7.574-2.809,10.676a7.532,7.532,0,0,0-4.873,1.392,4.177,4.177,0,0,0-1.876,2.158,6.817,6.817,0,0,0-.348.7c-1.392,3.174-.94,7.035.379,10.146l.021.042c-2.5,4.577-4.758,8.451-4.758,8.451l-3.829-.731a15.1,15.1,0,0,1-4.616-6C1430.417,907.578,1432.2,897.251,1432.76,894.316Z" transform="translate(-740.628 -383.277)" fill="#b7b7b7"/>
    <path id="Path_22106" data-name="Path 22106" d="M1432.76,894.056c.553-2.92,5.7-10.324,8.072-15.625s5.963-6.989,9.718-4.713c2.367,1.438,3.55,4.574,4.1,6.7a7.11,7.11,0,0,1-.056,3.78c-.6,2.064-1.633,5.694-2.35,8.65-3.439-.073-7.122.665-8.852,3.923-1.918,3.62-.3,8.173,1.34,11.563a1.657,1.657,0,0,0,.519.63c-2.558,4.72-4.925,8.765-4.925,8.765l-3.829-.731a15.1,15.1,0,0,1-4.616-6C1430.417,907.287,1432.2,896.99,1432.76,894.056Z" transform="translate(-740.628 -383.017)" fill="#dadada"/>
    <path id="Path_22107" data-name="Path 22107" d="M1494.22,1023.1l9.746,12.252-1.74-.073-8.006-11.483Z" transform="translate(-781.636 -481.047)" fill="#6c6c6c"/>
    <path id="Path_22108" data-name="Path 22108" d="M1473.612,1002.84l-1.044-1.74-.348,2.437Z" transform="translate(-767.293 -466.704)" fill="#b7b7b7"/>
    <path id="Path_22109" data-name="Path 22109" d="M1507.22,1008.1h2.437l-1.392,1.392Z" transform="translate(-790.111 -471.268)" fill="#b7b7b7"/>
    <path id="Path_22110" data-name="Path 22110" d="M1461.612,1008.1l1.044,1.392-2.437-.348Z" transform="translate(-759.47 -471.268)" fill="#b7b7b7"/>
    <path id="Path_22111" data-name="Path 22111" d="M1506.22,1024.144l3.829.7-.348-1.74Z" transform="translate(-789.459 -481.047)" fill="#b7b7b7"/>
    <path id="Path_22112" data-name="Path 22112" d="M1518.22,1016.492l1.044.348,1.044-1.74Z" transform="translate(-797.282 -475.831)" fill="#b7b7b7"/>
    <rect id="Rectangle_16199" data-name="Rectangle 16199" width="35.852" height="24.759" rx="3" transform="translate(381.911 596.353)" fill="#d9d9d9"/>
    <path id="Path_22113" data-name="Path 22113" d="M788.7,1076.1h67.875a3.481,3.481,0,0,1,3.481,3.481v11.487H785.22v-11.487A3.481,3.481,0,0,1,788.7,1076.1Z" transform="translate(-319.422 -515.599)" fill="#d9d9d9"/>
    <rect id="Rectangle_16200" data-name="Rectangle 16200" width="8.702" height="53.604" transform="translate(469.278 567.463)" fill="#d9d9d9"/>
    <rect id="Rectangle_16201" data-name="Rectangle 16201" width="8.702" height="53.604" transform="translate(528.451 567.508)" fill="#d9d9d9"/>
    <path id="Path_22114" data-name="Path 22114" d="M724.661,1177.654s-3.415.439-4.911-1.323-1.74-4.031-.512-5.061,3.415-.442,4.911,1.319S724.661,1177.654,724.661,1177.654Z" transform="translate(-275.895 -577.311)" fill="#909090"/>
    <ellipse id="Ellipse_4188" data-name="Ellipse 4188" cx="4.045" cy="2.311" rx="4.045" ry="2.311" transform="matrix(0.122, -0.993, 0.993, 0.122, 442.9, 606.586)" fill="#909090"/>
    <path id="Path_22115" data-name="Path 22115" d="M711.054,1207.66c1.19,1.065.432,3.853-1.7,6.231s-7.449.919-7.449.919a19.465,19.465,0,0,1,3.133-4.769C707.18,1207.663,709.867,1206.6,711.054,1207.66Z" transform="translate(-265.111 -601.098)" fill="#909090"/>
    <path id="Path_22116" data-name="Path 22116" d="M724.721,1178.75a8.577,8.577,0,0,1-.275,3.094s-3.415.442-4.911-1.319a5.656,5.656,0,0,1-1.044-1.74,5.27,5.27,0,0,0,1.267,2.785c1.5,1.761,4.911,1.323,4.911,1.323A7.69,7.69,0,0,0,724.721,1178.75Z" transform="translate(-275.92 -582.518)" fill="#6c6c6c"/>
    <path id="Path_22117" data-name="Path 22117" d="M725.09,1189.23a6.466,6.466,0,0,1,.066,2.057c-.271,2.217-1.518,3.888-2.785,3.731a1.8,1.8,0,0,1-1.3-1.02c.251,1.243.888,2.134,1.74,2.238,1.267.156,2.513-1.514,2.785-3.731A5.5,5.5,0,0,0,725.09,1189.23Z" transform="translate(-277.602 -589.351)" fill="#6c6c6c"/>
    <path id="Path_22118" data-name="Path 22118" d="M711.179,1208.82a7.693,7.693,0,0,1-2.252,4.873c-1.573,1.758-4.873,1.417-6.513,1.121a9.449,9.449,0,0,0-.5,1.013s5.322,1.462,7.449-.919C711.406,1212.628,712.178,1209.965,711.179,1208.82Z" transform="translate(-265.111 -602.122)" fill="#6c6c6c"/>
    <path id="Path_22119" data-name="Path 22119" d="M736.548,1176.1l-.372,7.828-2.541-1.692-.115.94,2.979,2.054,1.441-9.13Z" transform="translate(-285.718 -580.791)" fill="#6c6c6c"/>
    <path id="Path_22120" data-name="Path 22120" d="M716.394,1157.74s.8-7.1-.522-8.517-4.5-1.984-4.936,0,.508,1.114.609.842-.348-.741-.348-.741a1.492,1.492,0,0,1,1.96-1.121c1.726.334,2.437.908,2.785,1.653a26.549,26.549,0,0,1,.411,5.416c-.059.261-.23,2.356-.23,2.356S716.293,1158.012,716.394,1157.74Z" transform="translate(-270.921 -562.431)" fill="#6c6c6c"/>
    <path id="Path_22121" data-name="Path 22121" d="M729.427,1152.149s3.331-8.928,1.74-10.442-3.133-1.483-3.449-.672-.164,2.089.306,1.657-.066-.641-.066-.641-.613-.846.672-.982,2.367.265,2.506,1.549a6.892,6.892,0,0,1-.1,2.739c-.233,1.455-1.88,6.693-1.88,6.693S729.058,1152.3,729.427,1152.149Z" transform="translate(-281.827 -557.57)" fill="#6c6c6c"/>
    <path id="Path_22122" data-name="Path 22122" d="M703.835,1179.791l-3.352-5.667a.766.766,0,0,0-.79-.348h0a.762.762,0,0,0-.484,1.2c1.566,2.175,4.264,6.238,4.264,6.238l4.473-.348.244-.453Z" transform="translate(-263.256 -579.267)" fill="#6c6c6c"/>
    <path id="Path_22123" data-name="Path 22123" d="M723.72,1222.19l.028.031h0Z" transform="translate(-279.329 -610.838)" fill="#355585"/>
    <path id="Path_22124" data-name="Path 22124" d="M729.34,1231.927h1.633l-2.548-7.56-2.785-2.52c-.052-.042-.24.038-.31,0l2.471,2.879Z" transform="translate(-280.379 -610.606)" fill="#6c6c6c"/>
    <path id="Path_22125" data-name="Path 22125" d="M701.353,1231.276H699.54l2.83-7.821,3.091-2.607c.059-.042.268.042.348,0l-2.746,2.979Z" transform="translate(-263.566 -609.955)" fill="#6c6c6c"/>
    <path id="Path_22126" data-name="Path 22126" d="M736.378,1112.367l-5.228-16.106,49.333-16.011,1.852,5.712-1,3.449-3.742-1.142-1.089,3.756-3.742-1.145-1.089,3.756-3.742-1.142-1.089,3.756-3.742-1.142-1.089,3.756-3.742-1.142-1.093,3.759-3.738-1.145-1.093,3.756-3.742-1.142-1.089,3.756-3.742-1.142-1.093,3.756-3.742-1.138-1.093,3.756Z" transform="translate(-284.173 -518.304)" fill="#f8f8f8"/>
    <path id="Path_22127" data-name="Path 22127" d="M671.869,1119.152l.644,1.987-22.183,7.2,2.618,8.065a8.58,8.58,0,0,0,10.79,5.51l14.024-4.553.647,2,6.29-2.043-6.554-20.188Zm.8,10.352,2.043,6.29-10.571,3.436a6.265,6.265,0,0,1-7.915-4.038l-.1-.313Z" transform="translate(-231.485 -542.347)" fill="#d9d9d9"/>
    <path id="Path_22128" data-name="Path 22128" d="M699.81,1175.134s.459,1.977,1.229,1.862-.219-2.276-.219-2.276Z" transform="translate(-263.742 -579.891)" fill="#6c6c6c"/>
    <path id="Path_22129" data-name="Path 22129" d="M799.867,1155.38l1.239,2.959-2.426-.418Z" transform="translate(-328.197 -567.283)" fill="#b5b5b5"/>
    <path id="Path_22130" data-name="Path 22130" d="M819.8,1155.85l1.657.533-.982.78Z" transform="translate(-341.966 -567.589)" fill="#b5b5b5"/>
    <path id="Path_22131" data-name="Path 22131" d="M767.111,1093.847l-1.069,3.31-.362-3.408Z" transform="translate(-306.684 -527.105)" fill="#b5b5b5"/>
    <path id="Path_22132" data-name="Path 22132" d="M765.079,1076.406l-1.089,1.11-1.559-1.967Z" transform="translate(-304.565 -515.24)" fill="#b5b5b5"/>
    <path id="Path_22133" data-name="Path 22133" d="M791.479,1204.77l-1.295,2.872-.895-1.751Z" transform="translate(-322.076 -599.482)" fill="#b5b5b5"/>
    <path id="Path_22134" data-name="Path 22134" d="M776.943,1154.48l-5.1,4.591,1.939-.675Z" transform="translate(-310.7 -566.696)" fill="#b5b5b5"/>
    <path id="Path_22135" data-name="Path 22135" d="M765.793,1174.808l-1.859,1.229-.564-1.646Z" transform="translate(-305.178 -579.676)" fill="#b5b5b5"/>
    <path id="Path_22136" data-name="Path 22136" d="M791.6,1156.94l.7,5.973-1.434-.1Z" transform="translate(-323.106 -568.3)" fill="#b5b5b5"/>
    <path id="Path_22137" data-name="Path 22137" d="M794.9,1149.241l6.234-.219-.672-1.312Z" transform="translate(-325.733 -562.283)" fill="#b5b5b5"/>
    <path id="Path_22138" data-name="Path 22138" d="M802.26,1174.35l1.89,2.075.536-1.657Z" transform="translate(-330.531 -579.65)" fill="#b5b5b5"/>
    <path id="Path_22139" data-name="Path 22139" d="M1561.964,531.11h-59.347c-2.29,0-3.1.839-3.112,3.154v12.531c0,.574-.153,1.239.237,1.685,1.1,1.253.912,2.736.926,4.2,0,.515-.024,1.062.7,1.18a1.211,1.211,0,0,0,1.434-.675c.348-.7.752-1.344,1.149-2a1.357,1.357,0,0,1,1.013-.787c1.044-.129,1.309.1,1.7,1.653.442.07.613-.411.978-.494a.842.842,0,0,1,.39-.773q.768-.395,1.546-.773h0a2.332,2.332,0,0,1,2.7,0h0a.877.877,0,0,1,.773.386h0l.39.39c-.129-.132-.261-.261-.39-.39a.808.808,0,0,1-.773-.386h-2.7a.843.843,0,0,1-.773.39,1.351,1.351,0,0,0-1.152,1.152,6.9,6.9,0,0,1-.129.936,3.056,3.056,0,0,0,1.288,3.481,3.669,3.669,0,0,0,3.961.16,3.133,3.133,0,0,0,1.361-3.481,5.408,5.408,0,0,1-.32-1.479h0l-.386-.386h0l.386.386a2.887,2.887,0,0,1,.449.331c.989,1.044,1.044,1.079,1.768-.129a1.6,1.6,0,0,1,1.632-.964c-.348.442-.731.867-1.044,1.337a2.711,2.711,0,0,0-.432,2.179,3.191,3.191,0,0,0,3.78,2.663,3.078,3.078,0,0,0,2.74-3.31v-1.323c.383.091,1.044.609,1.065-.059.021-1.782,1.194-1.483,2.249-1.486,6.036,0,12.075.038,18.1-.024,1.74-.021,3.328.042,4.177,1.9a1.535,1.535,0,0,0,.661.7c1.044.522,1.145,1.417,1.107,2.437,0,.376-.191.968.574.961.48-.762-.07-1.74.348-2.412a12.817,12.817,0,0,1,1.859-1.911,1.935,1.935,0,0,0,.324-.473,2.157,2.157,0,0,1,2.228-1.17c1.925.056,3.853.063,5.778,0,3.067-.091,4.316-1.392,4.32-4.386V534.657C1565.476,532.172,1564.428,531.11,1561.964,531.11Zm-44.293,19.28a.755.755,0,0,1,.748-.376A.821.821,0,0,1,1517.671,550.39Zm.783-.386a1.8,1.8,0,0,1,2.273,0Zm2.694.4.484.122C1521.364,550.877,1521.284,550.54,1521.148,550.4Zm1.25,1.149c.428-.16.2.223.265.372C1522.495,551.838,1522.321,551.58,1522.4,551.553Z" transform="translate(-785.061 -160.307)" fill="#f7f7f7"/>
    <line id="Line_3065" data-name="Line 3065" x2="30.091" transform="translate(737.569 370.757)" fill="none" stroke="#b7b7b7" stroke-miterlimit="10" stroke-width="2"/>
  </g>
</svg>
