<svg xmlns="http://www.w3.org/2000/svg" xmlns:xlink="http://www.w3.org/1999/xlink" width="597.31" height="321" viewBox="0 0 597.31 321">
  <defs>
    <clipPath id="clip-path">
      <path id="Path_21566" data-name="Path 21566" d="M1410.832,725.605c-.7,4.2-4.048,7.382-7.474,7.117s-5.408-3.745-4.426-7.768,4.325-7.21,7.474-7.117S1411.538,721.406,1410.832,725.605Z" transform="translate(-1398.681 -717.835)" fill="none"/>
    </clipPath>
  </defs>
  <g id="Artboard_33" data-name="Artboard 33" transform="translate(-211.533 -365.553)">
    <g id="Truck" transform="translate(211.533 365.553)">
      <rect id="Rectangle_15144" data-name="Rectangle 15144" width="289.731" height="49.855" rx="3" transform="translate(111.906 39.146)" fill="#dadada" stroke="#919191" stroke-miterlimit="10" stroke-width="0.6" stroke-dasharray="4 6"/>
      <rect id="Rectangle_15145" data-name="Rectangle 15145" width="116.824" height="43.069" rx="3" transform="translate(73.859 100.363)" fill="#e4e4e4"/>
      <rect id="Rectangle_15146" data-name="Rectangle 15146" width="133.83" height="10.141" rx="1" transform="translate(109.925 188.416)" fill="#e4e4e4"/>
      <rect id="Rectangle_15147" data-name="Rectangle 15147" width="31.795" height="15.797" rx="2" transform="translate(295.94 130.159)" fill="#e4e4e4"/>
      <rect id="Rectangle_15148" data-name="Rectangle 15148" width="104.437" height="7.911" rx="1" transform="translate(230.436 168.849)" fill="#e4e4e4"/>
      <rect id="Rectangle_15149" data-name="Rectangle 15149" width="24.337" height="7.911" rx="1" transform="translate(230.436 168.849)" fill="#dadada"/>
      <rect id="Rectangle_15150" data-name="Rectangle 15150" width="65.924" height="81.364" transform="translate(511.651 230.507)" fill="#d9d9d9"/>
      <rect id="Rectangle_15151" data-name="Rectangle 15151" width="104.555" height="32.668" rx="3" transform="translate(596.836 312.064) rotate(180)" fill="#e4e4e4"/>
      <path id="Path_21451" data-name="Path 21451" d="M1198.812,757.111l6.273-6.655-4.77-8.818s2.939-.84,2.1-3.359-6.718-4.619-8.818-3.359-13.017,9.238-13.017,11.757,7.1,10.225,7.1,10.225Z" transform="translate(-806.643 -606.856)" fill="#ffac43"/>
      <path id="Path_21452" data-name="Path 21452" d="M1082.925,651.886l-38.773,50.388L1005.3,752.595c-12.945,16.8-25.794,33.63-38.937,50.254q-9.863,12.463-19.8,24.866l-9.977,12.379c-3.359,4.1-6.685,8.222-10.078,12.3l-.164-.13c3.128-4.275,6.3-8.5,9.477-12.761l9.578-12.685q9.582-12.685,19.315-25.257c12.924-16.8,26.143-33.361,39.269-50l39.349-49.934,39.437-49.867Z" transform="translate(-659.159 -558.833)"/>
      <path id="Path_21453" data-name="Path 21453" d="M1297.666,1001.873s-16.133,22.46-10.393,35.691c3.011,6.954,17.342,5.123,33.945,3.107,16.485-2,22.725-14.226,8.516-25.194C1316.612,1005.363,1308.592,998.833,1297.666,1001.873Z" transform="translate(-867.82 -761.499)" fill="#6780b1"/>
      <path id="Path_21454" data-name="Path 21454" d="M1308.722,1065.744c-2.364,1.894-8.965,6.525-8.247,8.965,1.768,5.992,24.039,14.755,24.039,14.755l4.585-4.673s5.433-18.186.646-19.446c-3.112-.819-11.4.227-14.81-.987A6.641,6.641,0,0,0,1308.722,1065.744Z" transform="translate(-876.163 -798.013)" fill="#6780b1"/>
      <path id="Path_21455" data-name="Path 21455" d="M1274.3,815.005s-29.927,17.123-36.112,33.491,54.239-1.428,58.265-6.647S1297.015,808.114,1274.3,815.005Z" transform="translate(-839.804 -652.912)" fill="#ffac43"/>
      <ellipse id="Ellipse_3366" data-name="Ellipse 3366" cx="9.414" cy="11.253" rx="9.414" ry="11.253" transform="translate(413.902 278.299) rotate(-70.56)" fill="#6780b1"/>
      <path id="Path_21456" data-name="Path 21456" d="M1292.007,815.005A150.913,150.913,0,0,0,1268.27,832.3l8.112,21.877c15.956-2.658,35.549-9.427,37.791-12.324C1318.2,836.638,1314.724,808.115,1292.007,815.005Z" transform="translate(-857.513 -652.913)" fill="#f7f7f7"/>
      <path id="Path_21457" data-name="Path 21457" d="M1371.6,913.049s-98.651-16.3-99.1-19.735c-5.459-42.41,20.428-73.163,20.428-73.163a14.47,14.47,0,0,1,13.269-8.7h48.146a14.47,14.47,0,0,1,13.269,8.7Z" transform="translate(-859.531 -651.47)" fill="#b7b7b7"/>
      <circle id="Ellipse_3367" data-name="Ellipse 3367" cx="54.02" cy="54.02" r="54.02" transform="translate(416.724 162.03)" fill="#ffac43"/>
      <ellipse id="Ellipse_3368" data-name="Ellipse 3368" cx="1.638" cy="1.025" rx="1.638" ry="1.025" transform="translate(435.515 233.643)" fill="#6c6c6c"/>
      <path id="Path_21458" data-name="Path 21458" d="M1351.746,1026.441a238.986,238.986,0,0,1-43.166-3.821,54.024,54.024,0,0,0,86.121.038A239.189,239.189,0,0,1,1351.746,1026.441Z" transform="translate(-880.896 -773.969)" fill="#788eba"/>
      <path id="Path_21459" data-name="Path 21459" d="M1393.715,1013.838a325.945,325.945,0,0,1-91.265-.038q1.209,1.91,2.57,3.7a245.734,245.734,0,0,0,86.121.038h0Q1392.5,1015.748,1393.715,1013.838Z" transform="translate(-877.34 -768.853)" fill="#919191"/>
      <path id="Path_21460" data-name="Path 21460" d="M1336.5,881.09c18.643,0,36.414.592,52.613,1.68a54.02,54.02,0,1,0-105.227,0C1300.078,881.682,1317.848,881.09,1336.5,881.09Z" transform="translate(-865.752 -654.401)" fill="#f7f7f7"/>
      <path id="Path_21461" data-name="Path 21461" d="M1405.721,796.352H1377.39l5.152-22.922h18.031l4.6,1.671-1.68,8.818Z" transform="translate(-920.813 -629.414)" fill="#ffac43"/>
      <path id="Path_21462" data-name="Path 21462" d="M1337.444,1025.617s-17.8,17.132-7.978,27.714c5.156,5.555,60.466,8.016,66.764-8.818,5.811-15.561,5.345-21.436-11.7-27.05C1368.781,1012.272,1346.737,1019.117,1337.444,1025.617Z" transform="translate(-891.298 -769.916)" fill="#788eba"/>
      <path id="Path_21463" data-name="Path 21463" d="M1365.34,812.14c4.581.924,54.7,4.018,56.607,8.4l7.478,17.216a53.747,53.747,0,0,1,9.2,30.174l.731,54.02H1365.34Z" transform="translate(-913.823 -651.87)" fill="#b7b7b7"/>
      <ellipse id="Ellipse_3369" data-name="Ellipse 3369" cx="11.917" cy="6.546" rx="11.917" ry="6.546" transform="translate(425.236 243.062)" fill="#b7b7b7"/>
      <ellipse id="Ellipse_3370" data-name="Ellipse 3370" cx="8.94" cy="4.913" rx="8.94" ry="4.913" transform="translate(428.213 244.695)" fill="#919191"/>
      <path id="Path_21464" data-name="Path 21464" d="M1204.433,787.7c-15.284-5.383-23.514,41.99,3.485,50.018S1219.7,793.082,1204.433,787.7Z" transform="translate(-812.265 -637.447)" fill="#ffac43"/>
      <line id="Line_3015" data-name="Line 3015" y1="3.229" x2="14.214" transform="translate(370.262 170.499)" fill="none" stroke="#000" stroke-miterlimit="10" stroke-width="2"/>
      <line id="Line_3016" data-name="Line 3016" y1="3.229" x2="14.214" transform="translate(372.446 174.656)" fill="none" stroke="#000" stroke-miterlimit="10" stroke-width="2"/>
      <line id="Line_3017" data-name="Line 3017" y1="3.225" x2="14.214" transform="translate(374.629 178.813)" fill="none" stroke="#000" stroke-miterlimit="10" stroke-width="2"/>
      <path id="Path_21465" data-name="Path 21465" d="M1385.55,896.55v7.117l3.724,4.178,3.531-2.276-.008-.185-.067-1.251-.382-7.281Z" transform="translate(-925.547 -700.836)" fill="#f7f7f7"/>
      <path id="Path_21466" data-name="Path 21466" d="M1197.46,779.1c2.1,3.67,4.384,7.138,4.384,7.138,7.029-.84,12.6-8.768,14.965-13.407Z" transform="translate(-816.436 -629.066)" fill="#ffac43"/>
      <path id="Path_21467" data-name="Path 21467" d="M1224,764.359s0,4.455,2.389,1.726,9.658-12.555,8.344-18.14S1224,764.359,1224,764.359Z" transform="translate(-831.832 -614.104)" fill="#ffac43"/>
      <path id="Path_21468" data-name="Path 21468" d="M1432.441,845.357s30.233,16.544,47.449,13.244-29.595-45.471-36.149-46.189S1414.68,829.6,1432.441,845.357Z" transform="translate(-948.869 -652.015)" fill="#ffac43"/>
      <path id="Path_21469" data-name="Path 21469" d="M1432.436,845.381a150.84,150.84,0,0,0,27.151,11.178l14.4-18.354c-10.607-12.2-26.634-25.362-30.271-25.752C1437.16,811.747,1414.674,829.626,1432.436,845.381Z" transform="translate(-948.864 -652.039)" fill="#f7f7f7"/>
      <path id="Path_21470" data-name="Path 21470" d="M1471.153,938.028c1.26,16.158,47.911,4.589,44.379-23.346S1469.918,921.875,1471.153,938.028Z" transform="translate(-975.19 -705.292)" fill="#ffac43"/>
      <line id="Line_3018" data-name="Line 3018" y1="14.419" x2="2.141" transform="translate(510.756 228.957)" fill="none" stroke="#000" stroke-miterlimit="10" stroke-width="2"/>
      <line id="Line_3019" data-name="Line 3019" y1="14.415" x2="2.141" transform="translate(515.422 228.428)" fill="none" stroke="#000" stroke-miterlimit="10" stroke-width="2"/>
      <line id="Line_3020" data-name="Line 3020" y1="14.419" x2="2.141" transform="translate(520.087 227.895)" fill="none" stroke="#000" stroke-miterlimit="10" stroke-width="2"/>
      <path id="Path_21471" data-name="Path 21471" d="M1456.61,975.193c2.939-.395,11.027.361,15.167,7.344a123.885,123.885,0,0,1-7.268,10.1Z" transform="translate(-966.769 -746.408)" fill="#ffac43"/>
      <path id="Path_21472" data-name="Path 21472" d="M1448.6,972.994s-12.051-7.793-17.073-2.1,9.712.936,11,2.519S1450.167,976.135,1448.6,972.994Z" transform="translate(-951.613 -742.756)" fill="#ffac43"/>
      <line id="Line_3021" data-name="Line 3021" x2="9.402" y2="21.65" transform="translate(490.912 230.691)" fill="none" stroke="#919191" stroke-miterlimit="10" stroke-width="2"/>
      <path id="Path_21473" data-name="Path 21473" d="M1316.57,1140.4h25.194l15.091-18.95-14.7-5.039-5.039,5.341-.164,2.981s-15.381,3.015-17.061,4.275S1316.57,1140.4,1316.57,1140.4Z" transform="translate(-885.531 -828.377)" fill="#fff"/>
      <line id="Line_3022" data-name="Line 3022" x2="12.597" y2="3.779" transform="translate(439.651 296.078)" fill="none" stroke="#b7b7b7" stroke-linecap="round" stroke-miterlimit="10" stroke-width="2"/>
      <line id="Line_3023" data-name="Line 3023" x2="12.597" y2="3.779" transform="translate(441.33 293.559)" fill="none" stroke="#b7b7b7" stroke-linecap="round" stroke-miterlimit="10" stroke-width="2"/>
      <path id="Path_21474" data-name="Path 21474" d="M1352.354,1124.72l-13.538,16.246-21.264-.7c-.592,2.586-.982,4.951-.982,4.951h25.194l15.091-18.95Z" transform="translate(-885.532 -833.198)" fill="#b7b7b7"/>
      <path id="Path_21475" data-name="Path 21475" d="M1288.63,1098.557h6.546s50.107-1.68,20.294-27.713C1297.906,1055.5,1288.63,1098.557,1288.63,1098.557Z" transform="translate(-869.323 -800.027)" fill="#788eba"/>
      <ellipse id="Ellipse_3371" data-name="Ellipse 3371" cx="11.253" cy="9.414" rx="11.253" ry="9.414" transform="translate(430.845 264.674)" fill="#788eba"/>
      <path id="Path_21476" data-name="Path 21476" d="M1245.685,1148.87h5.32a63.906,63.906,0,0,1,6.55,6.874c2.864,3.6,1.226,11.463,1.226,11.463h-46.26s-.42-6.551,1.638-11.463S1245.685,1148.87,1245.685,1148.87Z" transform="translate(-825.152 -847.207)" fill="#fff"/>
      <path id="Path_21477" data-name="Path 21477" d="M1212.8,1177.92a34.717,34.717,0,0,0-.277,6.139h46.26a26.093,26.093,0,0,0,.42-6.139Z" transform="translate(-825.156 -864.059)" fill="#b7b7b7"/>
      <line id="Line_3024" data-name="Line 3024" x2="12.597" y2="3.779" transform="translate(404.425 303.561)" fill="none" stroke="#b7b7b7" stroke-linecap="round" stroke-miterlimit="10" stroke-width="2"/>
      <line id="Line_3025" data-name="Line 3025" x2="12.597" y2="3.779" transform="translate(406.105 301.042)" fill="none" stroke="#b7b7b7" stroke-linecap="round" stroke-miterlimit="10" stroke-width="2"/>
      <rect id="Rectangle_15152" data-name="Rectangle 15152" width="48.708" height="39.89" transform="translate(502.413 239.325)" fill="#f7f7f7"/>
      <path id="Path_21478" data-name="Path 21478" d="M1200.285,741.608s2.939-.84,2.1-3.359-6.718-4.619-8.818-3.359-13.017,9.238-13.017,11.757c0,1.209,1.642,3.62,3.359,5.8a11.262,11.262,0,0,0,.5-1.995,2.116,2.116,0,0,1,2.583-1.466,2.165,2.165,0,0,1,1.465,2.582,14.908,14.908,0,0,1-1.5,4.505c.42.5.714.8.714.8l11.131.223,6.273-6.655Z" transform="translate(-806.626 -606.839)" fill="#ffac43"/>
      <line id="Line_3026" data-name="Line 3026" x2="159.142" transform="translate(438.168 312.06)" fill="none" stroke="#dadada" stroke-miterlimit="10" stroke-width="2"/>
      <line id="Line_3027" data-name="Line 3027" x1="52.068" transform="translate(387.78 320)" fill="none" stroke="#b5b5b5" stroke-miterlimit="10" stroke-width="2"/>
      <path id="Path_21479" data-name="Path 21479" d="M1442.937,757.41l.84,1.2s.84,6.362,0,9.721-5.627,6.559-5.627,6.559l1.008-6.979v-10.5Z" transform="translate(-956.06 -620.121)"/>
      <path id="Path_21480" data-name="Path 21480" d="M1441.369,762.11a1.234,1.234,0,0,1,.84.483,2.6,2.6,0,0,1,.466,1.1,5.554,5.554,0,0,1,.076,1.57,8.884,8.884,0,0,1-.357,1.864,9.838,9.838,0,0,1-.739,1.822,7.725,7.725,0,0,1-.966,1.436,4.088,4.088,0,0,1-1.1.911,1.68,1.68,0,0,1-1.05.235,1.3,1.3,0,0,1-.193-.042,1.409,1.409,0,0,1-.185-.076c-.055-.034-.114-.067-.164-.1a1.557,1.557,0,0,1-.151-.134l2.662-8.914a1.518,1.518,0,0,1,.214-.084,1.335,1.335,0,0,1,.214-.055,1.235,1.235,0,0,1,.21,0,1.119,1.119,0,0,1,.218-.017Z" transform="translate(-955.886 -622.847)" fill="#ffac43"/>
      <path id="Path_21481" data-name="Path 21481" d="M1411.559,783.97c-.034.126-.072.248-.109.37s-.084.243-.13.361l-.151.344c-.055.113-.114.223-.172.332a13.57,13.57,0,0,1-.84-1.377c-.256-.479-.5-.978-.71-1.474s-.42-.978-.567-1.436-.311-.882-.42-1.26h1.655a1.68,1.68,0,0,1,.886.42,2.227,2.227,0,0,1,.579.84,3.533,3.533,0,0,1,.223,1.205,5.261,5.261,0,0,1-.176,1.44v.139Z" transform="translate(-938.837 -633.127)"/>
      <g id="Group_37486" data-name="Group 37486" transform="translate(439.852 116.066)">
        <path id="Path_21482" data-name="Path 21482" d="M1378.635,754.454a1.127,1.127,0,0,1,.172.038.758.758,0,0,1,.16.067,1.076,1.076,0,0,1,.147.092,1.168,1.168,0,0,1,.135.118l-2.629,8.4-.2.076a1.64,1.64,0,0,1-.193.05,1.444,1.444,0,0,1-.185,0,.917.917,0,0,1-.185,0,1.058,1.058,0,0,1-.718-.47,2.476,2.476,0,0,1-.378-1.046,5.684,5.684,0,0,1,0-1.47,8.976,8.976,0,0,1,.374-1.742,9.933,9.933,0,0,1,.705-1.68,7.493,7.493,0,0,1,.89-1.339,4.009,4.009,0,0,1,.974-.861A1.537,1.537,0,0,1,1378.635,754.454Z" transform="translate(-1359.114 -734.47)" fill="#ffac43"/>
        <path id="Path_21483" data-name="Path 21483" d="M1387.837,714.449a10.975,10.975,0,0,1,3.464-5.152,8.944,8.944,0,0,1,2.494-1.461,6.3,6.3,0,0,1,2.649-.42l1.407.1a5.718,5.718,0,0,0-2.419.378,8.086,8.086,0,0,0-2.272,1.327,9.72,9.72,0,0,0-1.889,2.074,9.928,9.928,0,0,0-1.26,2.616l-5.2,12.992-1.944-.231Z" transform="translate(-1363.844 -707.179)"/>
        <path id="Path_21484" data-name="Path 21484" d="M1379.708,753.22a3.9,3.9,0,0,0,.038,1.176,2.868,2.868,0,0,0,.382.978,2.246,2.246,0,0,0,.685.705,2.272,2.272,0,0,0,.953.344l.542.071-2.683,8.629-1.26.819-1.213.8c-.386.26-.752.512-1.1.752s-.659.462-.941.672h-.054l1.78-5.685,2.629-8.4Z" transform="translate(-1359.314 -733.756)"/>
        <path id="Path_21485" data-name="Path 21485" d="M1397.809,779.818c.118.378.26.806.42,1.26s.357.945.567,1.436.453.991.709,1.474a13.614,13.614,0,0,0,.84,1.377,5.568,5.568,0,0,1-.727,1.029,4.563,4.563,0,0,1-.873.777,3.42,3.42,0,0,1-.957.466,2.518,2.518,0,0,1-.983.1c.067-.231.134-.462.2-.693l.2-.693c.063-.231.13-.462.2-.693s.134-.462.2-.693l-1.18-.084-1.18-.084-1.171-.088-1.163-.084-.214.655-.214.659-.214.659c-.072.218-.143.42-.219.659h-.122a1.969,1.969,0,0,1-1.335-.84,2.42,2.42,0,0,1-.348-.752,3.3,3.3,0,0,1-.109-.911,11.177,11.177,0,0,0,1.847-.928,21.2,21.2,0,0,0,1.873-1.289c.613-.462,1.2-.949,1.739-1.415s1.033-.915,1.448-1.31h.756Z" transform="translate(-1368.055 -749.181)" fill="#ffac43"/>
        <path id="Path_21486" data-name="Path 21486" d="M1388.6,760.066l18.152-.676-3.313,11.195c-.487-.689-1.016-1.381-1.553-2.041s-1.083-1.26-1.6-1.8a13.248,13.248,0,0,0-1.461-1.314,2.726,2.726,0,0,0-1.121-.571h-4.665a4.068,4.068,0,0,0-1.075.365c-.474.21-1.058.5-1.7.84s-1.356.756-2.1,1.193-1.495.9-2.246,1.369Z" transform="translate(-1365.608 -737.335)" fill="#ffac43"/>
        <path id="Path_21487" data-name="Path 21487" d="M1382.2,804.031a10.359,10.359,0,0,1-1.982,5.228,35.926,35.926,0,0,1-4.867,5.946,31.918,31.918,0,0,1-5.744,4.619,12.888,12.888,0,0,1-4.758,1.36l-.109-.038-.1-.038-.1-.046-5.623-2.36-5.458-2.3-5.316-2.23-5.173-2.171a7.362,7.362,0,0,1-2.662-3.431,29.651,29.651,0,0,1-1.965-5.828,28.285,28.285,0,0,1-.785-5.879c0-1.73.244-3.12.84-3.8q1.763-1.461,3.506-3t3.464-3.153q1.722-1.621,3.414-3.309t3.359-3.46c.063-.059.134-.122.218-.189s.172-.143.269-.218l.323-.248.37-.269c.281-.206.6-.42.941-.659s.709-.479,1.1-.731.794-.516,1.214-.781.84-.529,1.26-.8c.752-.458,1.512-.911,2.246-1.335s1.444-.84,2.1-1.163,1.23-.63,1.7-.84a4.25,4.25,0,0,1,1.075-.353h4.665a2.854,2.854,0,0,1,1.121.563,12.648,12.648,0,0,1,1.462,1.26c.521.521,1.066,1.121,1.6,1.759s1.067,1.318,1.554,1.99c.285.395.554.785.8,1.167s.47.747.668,1.1a10.18,10.18,0,0,1,.491.983,4.435,4.435,0,0,1,.273.8.955.955,0,0,0,.042.214l.038.21.038.21a1.3,1.3,0,0,0,.042.214q.454,2.419.953,4.93t1.054,5.144q.554,2.633,1.155,5.366T1382.2,804.031Zm-12.336-23.094c.059-.1.117-.21.172-.323l.151-.336c.046-.113.088-.231.13-.349s.076-.239.109-.365v-.176a5.042,5.042,0,0,0,.177-1.411,3.412,3.412,0,0,0-.223-1.176,2.172,2.172,0,0,0-.579-.84,1.71,1.71,0,0,0-.886-.395h-5.085a2.77,2.77,0,0,0-1.142.252,4.5,4.5,0,0,0-1.113.705,5.7,5.7,0,0,0-.961,1.062,5.525,5.525,0,0,0-.684,1.306v.164c-.042.118-.08.239-.113.357s-.063.239-.084.353-.038.231-.05.344a3.006,3.006,0,0,0,0,.332,3.171,3.171,0,0,0,.109.89,2.373,2.373,0,0,0,.349.735,2,2,0,0,0,.567.529,2.048,2.048,0,0,0,.769.281h.122c.076-.218.147-.42.218-.647l.214-.643.214-.642.214-.638,1.163.084,1.171.08,1.18.084,1.18.084c-.063.227-.13.449-.2.676s-.134.449-.2.676l-.2.676c-.063.223-.13.449-.2.676a2.52,2.52,0,0,0,.982-.1,3.362,3.362,0,0,0,.958-.453,4.587,4.587,0,0,0,.873-.756,5.41,5.41,0,0,0,.726-1.008" transform="translate(-1337.56 -744.975)"/>
        <path id="Path_21488" data-name="Path 21488" d="M1390.535,783.07a5.755,5.755,0,0,1,.684-1.34,5.868,5.868,0,0,1,.962-1.087,4.451,4.451,0,0,1,1.113-.722,2.717,2.717,0,0,1,1.142-.26h2.675c-.42.395-.907.84-1.449,1.31s-1.125.953-1.739,1.415a21.247,21.247,0,0,1-1.873,1.289,11.188,11.188,0,0,1-1.848.928,3.194,3.194,0,0,1,0-.34,1.341,1.341,0,0,1,.05-.353c.021-.118.05-.239.084-.361s.071-.244.113-.37v-.122Z" transform="translate(-1368.096 -749.094)"/>
        <path id="Path_21489" data-name="Path 21489" d="M1406.949,707.405a4.8,4.8,0,0,1,4.014,2.57,6.26,6.26,0,0,1,.705,2.557,8.576,8.576,0,0,1-.37,3.052l-4.027,13.437-20.382-2.414,3.985-12.8a10.643,10.643,0,0,1,1.381-2.834,10.474,10.474,0,0,1,2.053-2.238,8.748,8.748,0,0,1,2.478-1.44,6.267,6.267,0,0,1,2.637-.42Z" transform="translate(-1366.176 -706.866)" fill="#fff"/>
        <path id="Path_21490" data-name="Path 21490" d="M1436.25,708.253a5.556,5.556,0,0,1,2.658.865,5.426,5.426,0,0,1,1.818,1.99,7.013,7.013,0,0,1,.789,2.851c.072,1.054.227,16.074.227,16.074l-6.769-.277L1439,716.32a8.577,8.577,0,0,0,.369-3.053,6.256,6.256,0,0,0-.705-2.557,4.8,4.8,0,0,0-4.014-2.57Z" transform="translate(-1393.882 -707.605)"/>
        <path id="Path_21491" data-name="Path 21491" d="M1435.592,756.41l-.978,2.545-2.662,8.914-1.806,6.03h-.092a.964.964,0,0,0-.042-.214l-.038-.218-.038-.218a1.288,1.288,0,0,0-.042-.214,4.721,4.721,0,0,0-.273-.84,10.946,10.946,0,0,0-.492-1c-.2-.357-.42-.739-.667-1.13s-.517-.789-.8-1.193l3.313-11.194S1435.361,756.826,1435.592,756.41Z" transform="translate(-1389.827 -735.606)"/>
      </g>
      <path id="Path_21492" data-name="Path 21492" d="M1393.891,756.143l-21.9,3.519a12.762,12.762,0,0,1-6.445-.634l-7.743-2.868a1.041,1.041,0,0,1,.264-2.016l9.435-.894Z" transform="translate(-909.055 -617.708)" fill="#6c6c6c"/>
      <line id="Line_3028" data-name="Line 3028" x1="29.393" transform="translate(239.976 320)" fill="none" stroke="#b5b5b5" stroke-miterlimit="10" stroke-width="2"/>
      <path id="Path_21493" data-name="Path 21493" d="M431.283,489.137a2.985,2.985,0,0,0-2.259-2.519c-2.406-.7-4.8-1.47-7.235-2.028-1.285-.3-2.519-.5-2.939-1.932-.307-1.088-1.642-2.141-.239-3.4.26-.231-.029-.659-.193-.962a4.065,4.065,0,0,0-1.747-1.751,6.342,6.342,0,0,1-1.738-1.146,16.366,16.366,0,0,0-6.24-3.7c-3.082-1.176-6.353-1.507-9.515-2.318-2.784-.714-3.061-.479-3.065,2.305v18.035a6.034,6.034,0,0,1-.025.71H368v6.718h2.679a3.471,3.471,0,0,0,3.825,2.1,3.712,3.712,0,0,0,3.111-2.1h2.834a4.2,4.2,0,0,0,4.329,2.062,3.884,3.884,0,0,0,2.519-2.062h1.276c.05,1.205.206,1.26,1.6,1.26q12.6.029,25.165,0c1.537,0,1.625-.185,1.449-1.68a12.793,12.793,0,0,1-.076-1.881,4.438,4.438,0,0,1,1.352-3.086,15.389,15.389,0,0,0-.558,3.7,3.809,3.809,0,1,0,7.617-.059,14.484,14.484,0,0,0-.575-3.62,4.887,4.887,0,0,1,1.386,2.721c.575,3.678.235,3.405,4.073,2.486a2.389,2.389,0,0,0,.567-.265,2.217,2.217,0,0,0,1.26-1.995A29.4,29.4,0,0,0,431.283,489.137Zm-19.865-4.749c-1.68-.109-.84-1.906-.983-2.977-.113-.873,0-1.722,1.176-1.843,1.482-.155,2.881.42,4.342.5.353.021.563.382.726.7a14.267,14.267,0,0,1,1.612,4.052C415.806,485.252,413.618,484.555,411.418,484.387Z" transform="translate(-335.266 -452.833)" fill="#e4e4e4"/>
      <path id="Path_21495" data-name="Path 21495" d="M1106.844,450.552a2.993,2.993,0,0,0-2.259-2.519c-2.406-.7-4.8-1.465-7.235-2.024-1.285-.3-2.519-.5-2.939-1.932-.3-1.088-1.638-2.142-.239-3.4.26-.235-.029-.659-.193-.962a4.076,4.076,0,0,0-1.747-1.755,6.231,6.231,0,0,1-1.738-1.142,16.39,16.39,0,0,0-6.235-3.708c-3.082-1.172-6.357-1.5-9.519-2.314-2.784-.714-3.061-.479-3.061,2.305v18.056a6.084,6.084,0,0,1-.025.71H1043.57v6.718h2.683a3.471,3.471,0,0,0,3.821,2.1,3.7,3.7,0,0,0,3.111-2.1h2.834a4.2,4.2,0,0,0,4.333,2.062,3.9,3.9,0,0,0,2.519-2.062h1.285c.054,1.205.206,1.26,1.6,1.26q12.6.025,25.165,0c1.537,0,1.625-.189,1.449-1.68a13.41,13.41,0,0,1-.075-1.881,4.455,4.455,0,0,1,1.352-3.086,15.386,15.386,0,0,0-.558,3.7,3.809,3.809,0,0,0,7.617-.059,14.551,14.551,0,0,0-.575-3.624,4.9,4.9,0,0,1,1.39,2.725c.575,3.674.231,3.4,4.069,2.486a2.565,2.565,0,0,0,.567-.265,2.217,2.217,0,0,0,1.26-1.994A31.278,31.278,0,0,0,1106.844,450.552ZM1087,445.8c-1.68-.113-.84-1.906-.983-2.977-.118-.873,0-1.722,1.172-1.843,1.486-.16,2.885.42,4.342.5.353,0,.563.382.726.7a14.262,14.262,0,0,1,1.612,4.052C1091.367,446.668,1089.179,445.95,1087,445.8Z" transform="translate(-727.164 -430.453)" fill="#dadada"/>
      <rect id="Rectangle_15153" data-name="Rectangle 15153" width="20.407" height="10.141" rx="1" transform="translate(109.925 188.416)" fill="#f9f9f9"/>
      <line id="Line_3029" data-name="Line 3029" x1="34.432" transform="translate(126.183 143.428)" fill="none" stroke="#b5b5b5" stroke-miterlimit="10" stroke-width="2"/>
      <line id="Line_3030" data-name="Line 3030" x1="18.056" transform="translate(533.066 239.325)" fill="none" stroke="#b5b5b5" stroke-miterlimit="10" stroke-width="2"/>
      <path id="Path_21496" data-name="Path 21496" d="M1559.872,950.2s3.964.865,5.9-1.054,2.435-4.556,1.108-5.879-3.964-.84-5.879,1.058S1559.872,950.2,1559.872,950.2Z" transform="translate(-1026.58 -727.504)" fill="#909090"/>
      <ellipse id="Ellipse_3372" data-name="Ellipse 3372" cx="2.725" cy="4.766" rx="2.725" ry="4.766" transform="matrix(0.963, -0.268, 0.268, 0.963, 534.817, 223.01)" fill="#909090"/>
      <path id="Path_21497" data-name="Path 21497" d="M1573.289,979.979c-1.2,1.444.172,4.564,3.07,6.966s8.843-.235,8.843-.235a22.956,22.956,0,0,0-4.5-5.01C1577.808,979.29,1574.49,978.517,1573.289,979.979Z" transform="translate(-1034.202 -748.804)" fill="#909090"/>
      <path id="Path_21498" data-name="Path 21498" d="M1560.233,949.32a10.219,10.219,0,0,0,0,3.662s3.968.861,5.9-1.058a6.72,6.72,0,0,0,1.386-1.953,6.23,6.23,0,0,1-1.768,3.12c-1.94,1.919-5.9,1.054-5.9,1.054A8.93,8.93,0,0,1,1560.233,949.32Z" transform="translate(-1026.558 -731.448)" fill="#6c6c6c"/>
      <path id="Path_21499" data-name="Path 21499" d="M1566.392,963.06a7.589,7.589,0,0,0,.286,2.406c.705,2.519,2.452,4.266,3.9,3.863a2.133,2.133,0,0,0,1.34-1.415c-.076,1.491-.664,2.641-1.629,2.91-1.453.42-3.2-1.327-3.9-3.863A6.49,6.49,0,0,1,1566.392,963.06Z" transform="translate(-1030.278 -739.419)" fill="#6c6c6c"/>
      <path id="Path_21500" data-name="Path 21500" d="M1573.182,981.39c.164,1.566,1.444,3.607,3.477,5.295,2.142,1.772,5.946.8,7.785.168.5.663.768,1.092.768,1.092s-5.95,2.633-8.843.235C1573.585,985.87,1572.212,982.906,1573.182,981.39Z" transform="translate(-1034.212 -750.052)" fill="#6c6c6c"/>
      <path id="Path_21501" data-name="Path 21501" d="M1549.074,968.258l-5.639,5.392-6.143,1.654-1.352-1.369,7.327-1.633,5.383-4.892Z" transform="translate(-1012.788 -741.942)" fill="#6c6c6c"/>
      <path id="Path_21502" data-name="Path 21502" d="M1573.417,932.362s-.218-8.423,1.474-9.952,5.488-1.881,5.8.508-.714,1.26-.8.928.47-.84.47-.84a1.752,1.752,0,0,0-2.183-1.512c-2.057.223-2.939.84-3.426,1.68s-1.079,6.009-1.033,6.3.029,2.792.029,2.792S1573.51,932.69,1573.417,932.362Z" transform="translate(-1034.524 -715.133)" fill="#6c6c6c"/>
      <path id="Path_21503" data-name="Path 21503" d="M1565.33,926.334s-3.011-10.825-.987-12.446,3.846-1.423,4.119-.42,0,2.477-.529,1.911.147-.747.147-.747.8-.928-.693-1.218-2.809.071-3.1,1.566a8.2,8.2,0,0,0-.164,3.225c.126,1.73,1.533,8.058,1.533,8.058S1565.75,926.573,1565.33,926.334Z" transform="translate(-1028.859 -710.2)" fill="#6c6c6c"/>
      <path id="Path_21504" data-name="Path 21504" d="M1575.227,969.016l-4.22-4.736.273.983,2.872,3.7-5.782,11.514,1.02,1.13Z" transform="translate(-1031.601 -740.126)" fill="#6c6c6c"/>
      <path id="Path_21505" data-name="Path 21505" d="M1559.169,1005.6c-.42-.092-1.68-.743-2.1-.84l.84-11.812,8.092-.239.785,1.134-7.978.42Z" transform="translate(-1025.046 -756.619)" fill="#6c6c6c"/>
      <path id="Path_21506" data-name="Path 21506" d="M1568.791,1007.786l-.42-10.078s7.756-5.425,7.835-5.459v-.84l-10.136,5.039v10.917Z" transform="translate(-1030.267 -755.865)" fill="#6c6c6c"/>
      <rect id="Rectangle_15154" data-name="Rectangle 15154" width="16.796" height="16.796" rx="3" transform="translate(537.265 303.204)" fill="#ffd300"/>
      <rect id="Rectangle_15155" data-name="Rectangle 15155" width="16.796" height="16.796" rx="3" transform="translate(558.26 303.204)" fill="#1b55a9"/>
      <rect id="Rectangle_15156" data-name="Rectangle 15156" width="16.796" height="16.796" rx="3" transform="translate(502.833 303.204)" fill="#50a7ff"/>
      <rect id="Rectangle_15157" data-name="Rectangle 15157" width="16.796" height="16.796" rx="3" transform="translate(549.862 286.408)" fill="#50a7ff"/>
      <g id="Group_37487" data-name="Group 37487" transform="translate(465.517 120.672)" clip-path="url(#clip-path)">
        <path id="Path_21507" data-name="Path 21507" d="M1403.748,702.645l-33.936-.42-.626,3,34.562.8v3.552l-35.217-1.205-.621,3.006,35.834,1.6v3.552l-36.489-2-.621,3.006,37.111,2.393v3.565l-37.766-2.8h0l-25.11-1.864-6.3,16.72h0l1.033-2.738,68.154,7.978v3.384h.059V699.24h-.046Zm0,34.742-67.117-7.331,1.083-2.872,66.033,6.651Zm0-6.949-64.992-6,1.083-2.872,63.909,5.32Z" transform="translate(-1361.49 -707.048)" fill="#fff"/>
        <path id="Path_21508" data-name="Path 21508" d="M1418.49,702.041l33.94.407V698.9h-33.285Z" transform="translate(-1410.172 -706.851)" fill="#ff5d5d"/>
        <path id="Path_21509" data-name="Path 21509" d="M1450.663,717.88l0-3.552-34.562-.8-.655,3.145Z" transform="translate(-1408.409 -715.338)" fill="#ff5d5d"/>
        <path id="Path_21510" data-name="Path 21510" d="M1448.9,733.328v-3.552l-35.834-1.6-.655,3.145Z" transform="translate(-1406.645 -723.836)" fill="#ff5d5d"/>
        <path id="Path_21511" data-name="Path 21511" d="M1447.136,748.776v-3.552l-37.111-2.393-.655,3.141Z" transform="translate(-1404.881 -732.335)" fill="#ff5d5d"/>
        <path id="Path_21512" data-name="Path 21512" d="M1344.52,755.282l64.992,6V757.73l-63.909-5.32Z" transform="translate(-1367.262 -737.892)" fill="#ff5d5d"/>
        <path id="Path_21513" data-name="Path 21513" d="M1339.46,768.662l67.117,7.332v-3.552l-66.033-6.651Z" transform="translate(-1364.327 -745.654)" fill="#ff5d5d"/>
        <path id="Path_21514" data-name="Path 21514" d="M1335.483,779.17l-1.033,2.738-.05.134,69.237,8.658v-.164l0-3.384Z" transform="translate(-1361.391 -753.416)" fill="#ff5d5d"/>
        <path id="Path_21515" data-name="Path 21515" d="M1374.68,720.487l.655-3.141.622-3.006.655-3.145.621-3.006.655-3.145.625-3,.651-3.141h-22.133l-7.462,19.735h0l25.11,1.864Zm-16.259-18.7-.374-.508-.735.5.508-.81-.365-.5h.693l.5-.81-.084.815h.68l-.731.5Zm3.72.046-.386-.516-.722.5.487-.84-.378-.512h.68l.483-.84-.067.84h.68l-.718.5Zm3.817.042-.395-.521-.7.525.466-.84-.391-.521h.68l.462-.84-.046.84h.68l-.718.521Zm3.746.046-.42-.533-.7.521.445-.84-.42-.525h.68l.441-.84-.025.84h.68l-.693.525Zm3.745.046-.42-.542-.684.529.42-.84-.42-.538h.68l.42-.865v.865h.68l-.68.533Zm-1.037,3.359v.869l-.42-.55-.7.516.42-.84-.42-.546h.7l.42-.861v.9h.7Zm-3.128,12.177.752.05-.739.491v.882l-.479-.575-.743.487.449-.84-.474-.571.752.05.445-.84Zm-4.107-.273.747.05-.747.487v.907l-.466-.567-.756.483.47-.84-.462-.563.747.05.466-.84Zm-4.09-.235.752.05-.764.479v.84l-.453-.558-.768.474.487-.819-.449-.558.752.05.483-.84Zm-4.2-.277.751.05-.777.47-.038.84-.42-.55-.781.466.508-.81-.42-.546.752.05.5-.81Zm-4.082-.273.752.05-.789.462-.059.84-.42-.546-.794.458.529-.794-.42-.542.752.05.525-.8Zm3.2-12h.693l.508-.806-.08.815h.7l-.743.491-.076.819-.386-.521-.747.487.512-.8Zm3.779.088h.7l.487-.84-.059.84h.7l-.731.5-.059.84-.395-.525-.739.491.491-.815Zm3.888.088h.7l.466-.84-.038.84h.7l-.718.508-.038.84-.42-.533-.722.5.47-.84Zm3.813.084h.693l.449-.84v.84h.693l-.705.512v.84l-.42-.538-.714.508.453-.84Zm.315,12.051-.466-.567-.743.491.458-.84-.462-.567.743.046.453-.84v.831l.739.046-.735.5Zm-1.478-2.272-.453-.558-.743.491.466-.84-.449-.559.735.038.458-.84v.84l.735.038-.739.5Zm-2.641,2.007-.453-.559-.756.483.479-.84-.449-.558.739.046.474-.84v.84l.739.046-.747.487Zm-1.4-2.238-.42-.55-.752.483.483-.84-.42-.55.731.038.479-.84-.029.84.735.038-.747.487Zm-2.717,1.974-.42-.55-.769.474.5-.815-.42-.55.739.046.491-.84-.034.84.743.046-.764.479Zm-1.407-2.209-.42-.546-.764.479.5-.811-.42-.542.735.038.5-.81-.05.84.735.038-.76.479Zm-2.713,1.944-.42-.542-.781.466.516-.8-.42-.542.743.046.512-.806-.055.84.739.046-.773.47Zm-1.3-2.175-.42-.533-.777.466.521-.8-.42-.533.731.038.521-.8-.067.84.731.038-.773.47Zm3.661-6.4-.747.483.5-.806-.395-.525.706.021.5-.81-.067.84.705.021-.747.487-.063.84Zm-2.234,2.406-.4-.525-.764.479.521-.8-.395-.525.714.029.512-.806-.072.84.714.025-.76.479Zm5.484-3.133h.705l.483-.84-.046.84.705.021-.735.5-.042.84-.42-.533-.739.5.487-.84Zm2.456,3.473-.42-.542-.739.5.479-.84-.42-.542.714.029.474-.84-.033.84.714.025-.735.5Zm-4.022-.172-.42-.533-.752.483.5-.81-.42-.533.714.029.491-.84-.05.84.714.025-.748.487Zm1.457-.025-.042.84.726.029-.747.491-.038.84-.42-.542-.752.483.491-.84-.42-.538.722.034Zm3.947,1.025.722.034-.735.5v.84l-.42-.55-.739.491.47-.84-.42-.546.722.034.466-.84Zm2.561-.655-.42-.55-.726.5.458-.84-.42-.546.714.025.453-.84v.84l.714.029-.722.5Zm-1.407-2.1-.42-.542-.756.47.466-.84-.42-.537h.705l.462-.84-.025.84h.7l-.718.508Zm-9.07,1.575-.059.84.722.034-.76.479-.059.84-.42-.533-.764.475.508-.806-.42-.529.722.034ZM1371.909,717l-.479-.575-.726.5.42-.84-.47-.575.739.046.42-.84.025.882.743.046-.726.5Zm-1.558-2.305-.466-.567-.726.5.42-.84-.458-.567.731.042.42-.84v.873l.731.038-.722.5Zm-1.482-3.577.722.034-.722.5v.869l-.454-.559-.726.5.449-.84-.445-.558.722.034.449-.84Zm2.519-.668-.449-.558-.714.508.42-.84L1370.2,709l.714.029.42-.84v.873l.714.025-.706.512Zm-1.428-2.141-.42-.55-.71.508.445-.84-.42-.546.706.021.441-.84v.861h.7l-.705.512Zm1.092-5.61h.688l-.693.521v.84l-.42-.542-.7.521.42-.84-.42-.538h.684l.42-.84Zm-3.779-.055h.689l-.706.517-.029.84-.42-.533-.714.508.462-.84-.42-.529h.684l.458-.84Zm-3.779-.059h.689l-.718.5-.05.84-.395-.525-.726.5.483-.84-.395-.525h.689l.474-.84Zm-3.779-.054h.685l-.727.5-.071.84-.382-.516-.739.5.5-.815-.382-.512h.688l.5-.815Zm13.789,15.263.752.05-.726.5.042.894-.491-.584-.731.5.42-.84-.487-.58.752.05.42-.861Zm1-2.864-.479-.575-.714.508.42-.861-.475-.571.731.038.42-.865.034.886.731.042-.71.508Zm-1.621-3.632.722.034-.705.512v.882l-.462-.567-.714.508.42-.84-.458-.563.722.029.42-.84Zm2.553-.676-.462-.567-.7.516.42-.865-.458-.563.714.029.42-.869.025.886.714.025-.693.521Zm-1.533-2.175-.449-.559-.7.517.42-.84-.445-.554h.706l.42-.865v.878l.706.021-.693.521Zm2.465-2.133-.449-.558-.684.525.42-.865-.445-.554h.7l.42-.873v.882h.7l-.68.529Zm-1.5-3.557h.684l-.68.529v.878l-.42-.55-.689.525.42-.84-.42-.546h.684l.42-.865ZM1377.3,702l-.42-.55-.672.538.42-.873-.42-.546h.68l.42-.873v.878h.68l-.668.538Z" transform="translate(-1370.192 -706.851)" fill="#355585"/>
        <path id="Path_21516" data-name="Path 21516" d="M1369.249,701.515l.084-.815-.5.81-.68,0,.365.5-.508.81.735-.5.374.508.08-.815.73-.5Z" transform="translate(-1380.889 -707.895)" fill="#fff"/>
        <path id="Path_21517" data-name="Path 21517" d="M1371.53,706.425l-.688-.008.378.512-.5.815.739-.5.382.516.072-.823.726-.5-.685-.008.072-.823Z" transform="translate(-1382.461 -710.743)" fill="#fff"/>
        <path id="Path_21518" data-name="Path 21518" d="M1368.579,716.515l.748-.487-.706-.021.067-.827-.5.81-.705-.021.395.525-.5.806.748-.483.4.525Z" transform="translate(-1380.517 -716.295)" fill="#fff"/>
        <path id="Path_21519" data-name="Path 21519" d="M1364.111,725.527l.407.529-.508.806.764-.474.416.533.055-.831.76-.479-.722-.034.059-.827-.508.806Z" transform="translate(-1378.568 -721.846)" fill="#fff"/>
        <path id="Path_21520" data-name="Path 21520" d="M1361.943,735.151l.054-.831-.512.806-.743-.046.424.542-.516.8.781-.466.428.542.05-.831.773-.47Z" transform="translate(-1376.619 -727.398)" fill="#fff"/>
        <path id="Path_21521" data-name="Path 21521" d="M1380.6,706.547l-.685-.013.391.521-.483.827.727-.5.395.525.05-.836.718-.5-.688-.013.05-.831Z" transform="translate(-1387.74 -710.807)" fill="#fff"/>
        <path id="Path_21522" data-name="Path 21522" d="M1376.7,717.588l.739-.5.411.533.042-.84.735-.5-.706-.021.046-.84-.483.827-.705-.021.407.529Z" transform="translate(-1385.93 -716.44)" fill="#fff"/>
        <path id="Path_21523" data-name="Path 21523" d="M1373.651,725.939l.42.537-.491.819.752-.483.428.542.038-.844.747-.487-.726-.029.042-.844-.487.823Z" transform="translate(-1384.12 -722.079)" fill="#fff"/>
        <path id="Path_21524" data-name="Path 21524" d="M1371.72,735.714l.038-.844-.5.819-.739-.046.432.55-.5.815.769-.475.441.55.029-.844.764-.479Z" transform="translate(-1382.31 -727.717)" fill="#fff"/>
        <path id="Path_21525" data-name="Path 21525" d="M1389.663,706.66l-.685-.008.4.529-.462.836.714-.508.407.533.029-.848.705-.516-.689-.008.034-.848Z" transform="translate(-1393.018 -710.865)" fill="#fff"/>
        <path id="Path_21526" data-name="Path 21526" d="M1387.934,716.559l-.705-.021.025-.848-.462.836-.706-.021.42.537-.466.836.727-.5.424.542.021-.852Z" transform="translate(-1391.348 -716.591)" fill="#fff"/>
        <path id="Path_21527" data-name="Path 21527" d="M1383.92,726.386l-.722-.034.432.546-.47.831.739-.491.437.55.017-.852.735-.5-.722-.034.021-.857Z" transform="translate(-1389.677 -722.311)" fill="#fff"/>
        <path id="Path_21528" data-name="Path 21528" d="M1381.5,736.277l.017-.857-.47.831-.743-.046.449.558-.479.827.756-.483.453.559.013-.857.747-.487Z" transform="translate(-1388.001 -728.036)" fill="#fff"/>
        <path id="Path_21529" data-name="Path 21529" d="M1398.73,706.782l-.685-.013.416.537-.441.852.7-.521.42.542.008-.861.693-.521-.689-.013.013-.857Z" transform="translate(-1398.297 -710.929)" fill="#fff"/>
        <path id="Path_21530" data-name="Path 21530" d="M1397.236,716.826l-.7-.021,0-.865-.441.852-.705-.025.432.546-.445.848.714-.508.437.55v-.865Z" transform="translate(-1396.766 -716.736)" fill="#fff"/>
        <path id="Path_21531" data-name="Path 21531" d="M1393.456,726.8l-.722-.034.445.558-.449.844.726-.5.453.563,0-.869.722-.5-.722-.034v-.865Z" transform="translate(-1395.229 -722.548)" fill="#fff"/>
        <path id="Path_21532" data-name="Path 21532" d="M1391.271,736.839l-.009-.869-.449.844-.743-.046.462.567-.453.84.739-.491.466.567-.008-.869.735-.5Z" transform="translate(-1393.686 -728.355)" fill="#fff"/>
        <path id="Path_21533" data-name="Path 21533" d="M1407.784,706.9l-.684-.008.428.546-.42.861.689-.525.432.55-.013-.878.68-.529-.689-.008-.008-.873Z" transform="translate(-1403.565 -710.987)" fill="#fff"/>
        <path id="Path_21534" data-name="Path 21534" d="M1406.513,717.094l-.705-.021-.013-.873-.42.861-.705-.021.441.554-.424.857.7-.516.449.558-.017-.878Z" transform="translate(-1402.155 -716.887)" fill="#fff"/>
        <path id="Path_21535" data-name="Path 21535" d="M1402.962,727.216l-.722-.029.458.563-.428.857.714-.508.462.567-.021-.882.705-.512-.722-.034-.021-.878Z" transform="translate(-1400.745 -722.781)" fill="#fff"/>
        <path id="Path_21536" data-name="Path 21536" d="M1401.007,737.406l-.025-.886-.432.857-.739-.046.47.575-.433.852.727-.5.483.575-.034-.882.726-.5Z" transform="translate(-1399.336 -728.674)" fill="#fff"/>
        <path id="Path_21537" data-name="Path 21537" d="M1364.54,712.308l.747-.487.386.521.076-.819.743-.491-.693-.017.076-.815-.508.806-.693-.017.378.512Z" transform="translate(-1378.876 -713.406)" fill="#fff"/>
        <path id="Path_21538" data-name="Path 21538" d="M1362.341,720.513l.071-.823-.512.806-.714-.029.4.525-.521.8.764-.479.4.525.067-.819.76-.483Z" transform="translate(-1376.857 -718.911)" fill="#fff"/>
        <path id="Path_21539" data-name="Path 21539" d="M1359.618,730.051l-.731-.038.067-.823-.521.8-.731-.038.407.533-.521.8.777-.47.416.538.063-.827Z" transform="translate(-1374.844 -724.422)" fill="#fff"/>
        <path id="Path_21540" data-name="Path 21540" d="M1354.967,739.478l-.752-.05.424.542-.529.794.794-.458.428.546.059-.831.789-.462-.752-.05.063-.827Z" transform="translate(-1372.825 -729.927)" fill="#fff"/>
        <path id="Path_21541" data-name="Path 21541" d="M1378.075,701.557l.067-.827-.483.823-.68,0,.378.512-.487.819.722-.5.386.512.059-.827.718-.5Z" transform="translate(-1386.028 -707.912)" fill="#fff"/>
        <path id="Path_21542" data-name="Path 21542" d="M1373.63,712.511l.739-.491.395.525.059-.831.731-.5-.7-.013.059-.831-.487.819-.7-.013.395.521Z" transform="translate(-1384.149 -713.505)" fill="#fff"/>
        <path id="Path_21543" data-name="Path 21543" d="M1371.637,720.845l.05-.836-.491.819-.714-.03.407.533-.5.815.752-.487.411.533.05-.831.747-.491Z" transform="translate(-1382.269 -719.097)" fill="#fff"/>
        <path id="Path_21544" data-name="Path 21544" d="M1369.149,730.533l-.735-.038.05-.836-.5.81-.735-.038.424.542-.5.81.764-.479.428.546.046-.84Z" transform="translate(-1380.39 -724.695)" fill="#fff"/>
        <path id="Path_21545" data-name="Path 21545" d="M1364.733,740.11l-.752-.05.437.546-.508.81.781-.466.441.55.038-.84.777-.47-.752-.05.042-.84Z" transform="translate(-1378.51 -730.287)" fill="#fff"/>
        <path id="Path_21546" data-name="Path 21546" d="M1387.141,701.6l.046-.84-.462.835-.68,0,.39.521-.466.831.71-.508.395.521.042-.84.705-.512Z" transform="translate(-1391.307 -707.93)" fill="#fff"/>
        <path id="Path_21547" data-name="Path 21547" d="M1382.97,712.725l.722-.5.411.533.038-.844.718-.508-.7-.013.038-.844-.466.831-.7-.013.4.529Z" transform="translate(-1389.567 -713.609)" fill="#fff"/>
        <path id="Path_21548" data-name="Path 21548" d="M1381.183,721.188l.034-.848-.474.831-.714-.029.42.542-.479.823.739-.491.424.542.03-.844.735-.5Z" transform="translate(-1387.827 -719.288)" fill="#fff"/>
        <path id="Path_21549" data-name="Path 21549" d="M1378.935,731.026l-.735-.038.029-.848-.479.823-.731-.038.433.55-.483.823.752-.483.441.55.025-.852Z" transform="translate(-1386.086 -724.973)" fill="#fff"/>
        <path id="Path_21550" data-name="Path 21550" d="M1374.759,740.753l-.752-.05.449.558-.487.819.768-.474.454.558.017-.852.764-.479-.752-.05.021-.852Z" transform="translate(-1384.346 -730.652)" fill="#fff"/>
        <path id="Path_21551" data-name="Path 21551" d="M1396.028,701.638l.025-.848-.441.848-.68,0,.4.525-.445.848.7-.517.407.529.021-.852.693-.525Z" transform="translate(-1396.482 -707.947)" fill="#fff"/>
        <path id="Path_21552" data-name="Path 21552" d="M1392.12,712.939l.714-.512.424.542.013-.857.705-.512-.693-.017.017-.852-.449.844-.693-.017.416.537Z" transform="translate(-1394.875 -713.714)" fill="#fff"/>
        <path id="Path_21553" data-name="Path 21553" d="M1390.54,721.527l.013-.857-.453.84-.714-.025.432.546-.458.84.727-.5.437.55.008-.861.722-.5Z" transform="translate(-1393.274 -719.48)" fill="#fff"/>
        <path id="Path_21554" data-name="Path 21554" d="M1387.791,731.471l.009-.861-.458.84-.735-.042.449.559-.466.836.743-.491.453.559V732l.735-.5Z" transform="translate(-1391.667 -725.246)" fill="#fff"/>
        <path id="Path_21555" data-name="Path 21555" d="M1384.586,741.386l-.747-.05.458.563-.466.836.756-.483.466.567v-.869l.747-.483-.747-.05v-.865Z" transform="translate(-1390.066 -731.012)" fill="#fff"/>
        <path id="Path_21556" data-name="Path 21556" d="M1404.914,701.675l0-.865-.42.865-.68,0,.416.533-.424.861.684-.529.42.542v-.869l.68-.529Z" transform="translate(-1401.656 -707.959)" fill="#fff"/>
        <path id="Path_21557" data-name="Path 21557" d="M1402.405,710.9l-.428.861-.7-.017.432.546-.432.852.7-.516.437.55,0-.869.693-.521-.7-.017Z" transform="translate(-1400.189 -713.812)" fill="#fff"/>
        <path id="Path_21558" data-name="Path 21558" d="M1399.885,721.863l-.009-.873-.432.857-.714-.029.445.554-.437.852.714-.508.449.559-.008-.873.705-.512Z" transform="translate(-1398.709 -719.665)" fill="#fff"/>
        <path id="Path_21559" data-name="Path 21559" d="M1397.364,731.953l-.013-.873-.441.852-.731-.042.462.567-.445.848.726-.5.466.567-.017-.878.722-.5Z" transform="translate(-1397.23 -725.519)" fill="#fff"/>
        <path id="Path_21560" data-name="Path 21560" d="M1394.381,742.018l-.752-.05.475.571-.45.844.743-.487.479.575-.021-.882.739-.491-.752-.05-.017-.878Z" transform="translate(-1395.751 -731.372)" fill="#fff"/>
        <path id="Path_21561" data-name="Path 21561" d="M1413.946,701.718l-.017-.878-.4.873-.68,0,.428.546-.407.873.676-.537.432.55-.021-.882.668-.537Z" transform="translate(-1406.9 -707.976)" fill="#fff"/>
        <path id="Path_21562" data-name="Path 21562" d="M1412.362,711.979l-.7-.017-.021-.882-.407.873-.7-.017.445.55-.412.869.685-.525.449.558-.025-.882Z" transform="translate(-1405.56 -713.917)" fill="#fff"/>
        <path id="Path_21563" data-name="Path 21563" d="M1409.385,722.206l-.025-.886-.416.869-.714-.029.458.563-.416.865.7-.516.462.567-.029-.886.693-.521Z" transform="translate(-1404.22 -719.857)" fill="#fff"/>
        <path id="Path_21564" data-name="Path 21564" d="M1407.835,732.488l-.731-.042-.034-.886-.42.865-.731-.038.475.571-.424.861.714-.508.479.575-.038-.89Z" transform="translate(-1402.88 -725.797)" fill="#fff"/>
        <path id="Path_21565" data-name="Path 21565" d="M1404.362,742.661l-.752-.05.487.579-.428.861.731-.5.491.584-.042-.89.726-.5-.751-.05-.038-.89Z" transform="translate(-1401.54 -731.737)" fill="#fff"/>
      </g>
      <path id="Path_21567" data-name="Path 21567" d="M890.469,1119.926s-2.045,3.51-4.766,3.641-5.005-1.26-5.1-3.158,2.041-3.51,4.766-3.645S890.469,1119.926,890.469,1119.926Z" transform="translate(-632.627 -828.58)" fill="#5673a8"/>
      <ellipse id="Ellipse_3373" data-name="Ellipse 3373" cx="2.725" cy="4.766" rx="2.725" ry="4.766" transform="translate(250.608 293.458)" fill="#5673a8"/>
      <path id="Path_21568" data-name="Path 21568" d="M881.955,1150.423c1.541,1.071,1.054,4.447-1.092,7.533s-8.583,2.141-8.583,2.141a22.892,22.892,0,0,1,2.99-6.03C877.42,1150.982,880.409,1149.348,881.955,1150.423Z" transform="translate(-627.799 -847.916)" fill="#5673a8"/>
      <path id="Path_21569" data-name="Path 21569" d="M888.857,1117.19a10.192,10.192,0,0,1,2.7,2.482s-2.041,3.506-4.766,3.641a6.783,6.783,0,0,1-2.377-.3,6.24,6.24,0,0,0,3.5.8c2.721-.13,4.766-3.641,4.766-3.641A8.98,8.98,0,0,0,888.857,1117.19Z" transform="translate(-634.835 -828.829)" fill="#355585"/>
      <path id="Path_21570" data-name="Path 21570" d="M891.771,1131.73a7.6,7.6,0,0,1,.37,2.4c0,2.629-1.218,4.766-2.721,4.766a2.138,2.138,0,0,1-1.68-1.008c.47,1.415,1.348,2.368,2.351,2.368,1.5,0,2.725-2.133,2.725-4.766A6.509,6.509,0,0,0,891.771,1131.73Z" transform="translate(-636.767 -837.264)" fill="#355585"/>
      <path id="Path_21571" data-name="Path 21571" d="M882.114,1151.21c.26,1.554-.42,3.863-1.932,6.034-1.587,2.28-5.513,2.36-7.457,2.246-.307.773-.445,1.26-.445,1.26s6.437.945,8.583-2.142C882.929,1155.636,883.454,1152.407,882.114,1151.21Z" transform="translate(-627.799 -848.565)" fill="#355585"/>
      <path id="Path_21572" data-name="Path 21572" d="M880.1,1169.82H879.8l-.718,4.136-2.708,5.27h1.68l1.68-5.61Z" transform="translate(-630.171 -859.36)" fill="#355585"/>
      <path id="Path_21573" data-name="Path 21573" d="M899.07,1124.572l7.76-2.184,7.772-5.765,1.046-2.213-9.658,7.558-6.92,1.482Z" transform="translate(-643.34 -827.217)" fill="#355585"/>
      <path id="Path_21574" data-name="Path 21574" d="M868.46,1117.553s-6.063-5.849-8.335-5.631-5.089,2.775-3.54,4.619,1.407.323,1.226.034-.936-.214-.936-.214a1.758,1.758,0,0,1,.361-2.637c1.554-1.377,2.6-1.621,3.535-1.407s5.161,3.267,5.358,3.51,2.041,1.906,2.041,1.906S868.641,1117.83,868.46,1117.553Z" transform="translate(-618.436 -825.77)" fill="#355585"/>
      <path id="Path_21575" data-name="Path 21575" d="M871.221,1106.7s-5.954-9.532-8.516-9.133-3.645,1.873-3.1,2.742,1.839,1.68,1.768.9-.651-.42-.651-.42-1.226-.038-.42-1.335,1.948-2.02,3.25-1.226a8.107,8.107,0,0,1,2.49,2.057c1.193,1.264,4.9,6.571,4.9,6.571S871.111,1107.162,871.221,1106.7Z" transform="translate(-620.365 -817.437)" fill="#355585"/>
      <path id="Path_21576" data-name="Path 21576" d="M896.765,1175.46l1.491-6.63-4.086-5.11v-.34l4.766,4.766-.9,7.315Z" transform="translate(-640.497 -855.624)" fill="#355585"/>
      <path id="Path_21577" data-name="Path 21577" d="M867.633,1139.93l4.753-4.93v1.024l-4.438,5.026-4.2,3.359-4.2.84Z" transform="translate(-620.414 -839.161)" fill="#355585"/>
      <path id="Path_21578" data-name="Path 21578" d="M937.571,1113.22s1.885.357,1.26,1.511a3.409,3.409,0,0,1-1.646,1.545S936.382,1113.316,937.571,1113.22Z" transform="translate(-665.296 -826.526)" fill="#355585"/>
      <line id="Line_3031" data-name="Line 3031" x1="34.432" transform="translate(435.867 71.785)" fill="none" stroke="#b5b5b5" stroke-miterlimit="10" stroke-width="2"/>
      <g id="Group_1225" data-name="Group 1225" transform="translate(145.352 38.907)">
        <path id="Rectangle_745" data-name="Rectangle 745" d="M641.714,568.158l267.262-44.929c3.46-.579,6.618,1.05,7.054,3.641l6.836,40.705c.42,2.591-2.02,5.165-5.459,5.748L650.141,618.252c-3.46.584-6.613-1.045-7.05-3.64l-6.836-40.667C635.8,571.311,638.254,568.741,641.714,568.158Z" transform="translate(-636.201 -523.111)" fill="#fff"/>
      </g>
      <path id="Path_21579" data-name="Path 21579" d="M639.628,698.627l-10.078-7.978,5.879-4.619.42,3.779-2.1,1.419,6.718,6.979Z" transform="translate(-486.991 -578.713)" fill="#919191"/>
      <path id="Path_21580" data-name="Path 21580" d="M667.778,701.48s-5.182,1.73-7.739-.441-2.872-5.589-.978-7.138,5.089-.81,7.39,1.188S667.745,701.438,667.778,701.48Z" transform="translate(-503.405 -582.796)" fill="#919191"/>
      <path id="Path_21581" data-name="Path 21581" d="M650.988,716.946c-2.494,1.915-5.61,2.6-7.046,1.13s-.42-4.585,2.343-6.559,5.984-2.028,7.138-.512S653.478,715.006,650.988,716.946Z" transform="translate(-494.963 -592.585)" fill="#919191"/>
      <path id="Path_21582" data-name="Path 21582" d="M622.364,725.211c.445,2.36-2.964,4.774-7.819,5.879-4.963,1.26-10.7-6.3-10.569-6.416a22.709,22.709,0,0,1,8.688-2.981C617.7,721.079,621.915,722.863,622.364,725.211Z" transform="translate(-472.155 -599.33)" fill="#919191"/>
      <path id="Path_21583" data-name="Path 21583" d="M667.365,700.58a11.615,11.615,0,0,1-.08,4.031s-5.194,1.625-7.676-.609a6.463,6.463,0,0,1-1.68-2.356,6.113,6.113,0,0,0,2.15,3.75c2.553,2.171,7.755.42,7.739.441S668.457,702.7,667.365,700.58Z" transform="translate(-503.454 -587.154)" fill="#6c6c6c"/>
      <path id="Path_21584" data-name="Path 21584" d="M653.756,718a9.343,9.343,0,0,1-2.062,1.986c-2.553,1.843-5.69,2.452-7.08.957a2.666,2.666,0,0,1-.479-2.519c-1.029,1.621-1.142,3.334-.193,4.312,1.436,1.47,4.552.785,7.046-1.129A7.413,7.413,0,0,0,653.756,718Z" transform="translate(-494.963 -597.259)" fill="#6c6c6c"/>
      <path id="Path_21585" data-name="Path 21585" d="M622.4,728.57c-1.209,1.541-3.934,2.939-7.378,3.615-3.636.768-7.718-3.036-9.4-5.295a16.19,16.19,0,0,0-1.629.886c-.13.122,5.606,7.676,10.569,6.416C619.227,733.117,622.544,730.837,622.4,728.57Z" transform="translate(-472.166 -602.416)" fill="#6c6c6c"/>
      <path id="Path_21586" data-name="Path 21586" d="M604.9,737.586c-.08-.088-.164-.176-.239-.273a.56.56,0,0,0-.042-.063c-1.474,1.184-4.321,3.779-4.321,3.779s-6.655,7.7-6.744,10.812a24.791,24.791,0,0,1,4.619,0L601.3,741.3S603.665,738.766,604.9,737.586Z" transform="translate(-466.107 -608.426)" fill="#6c6c6c"/>
      <path id="Path_21587" data-name="Path 21587" d="M634.891,740.32c.882,1.621,5.782,3.057,5.782,3.057l.609,10.3-3.7.151,1.789-10.388s-4.233-1.26-4.8-2.788Z" transform="translate(-489.909 -610.207)" fill="#6c6c6c"/>
      <path id="Path_21588" data-name="Path 21588" d="M679.387,705.3l-6.63,7.9L664,712.522l-1.088.785,9.225,1.524,8.432-4.8Z" transform="translate(-506.343 -589.892)" fill="#6c6c6c"/>
      <path id="Path_21589" data-name="Path 21589" d="M654.841,679.875c-.223-.084,1.654-9.8.466-11.808-1.47-2.036-5.627-3.607-7-.7-1.3,2.939.357,1.747.575,1.356s-.235-1.159-.231-1.159a2.4,2.4,0,0,1,3.153-1.3c2.3.781,3.133,1.638,3.418,2.692.172,1.041-.336,7.117-.349,7.5a33.338,33.338,0,0,0-.42,3.317S654.69,680.27,654.841,679.875Z" transform="translate(-497.586 -566.961)" fill="#6c6c6c"/>
      <text id="VIN_4V4NC9TH3CN5404" data-name="VIN 4V4NC9TH3CN5404" transform="translate(168 114.999) rotate(-9.744)" fill="#ffac43" font-size="20" font-family="Montserrat-Black, Montserrat" font-weight="800" opacity="0.7"><tspan x="0" y="0" letter-spacing="-0.02em">V</tspan><tspan y="0">IN </tspan><tspan y="0" letter-spacing="-0.06em">4</tspan><tspan y="0" letter-spacing="-0.08em">V</tspan><tspan y="0">4N</tspan><tspan y="0" letter-spacing="-0.01em">C</tspan><tspan y="0" letter-spacing="-0.02em">9</tspan><tspan y="0">TH3CN5404</tspan></text>
      <path id="Path_21591" data-name="Path 21591" d="M1303.97,540.189l3.183-2.519,12.6,2.322-.84-.223-11.757-3.359-3.6,1.68Z" transform="translate(-877.979 -491.919)" fill="#6c6c6c"/>
      <path id="Path_21592" data-name="Path 21592" d="M1332.073,546.846c2.494,1.915,5.61,2.6,7.046,1.13s.42-4.585-2.343-6.559-5.988-2.028-7.138-.512S1329.578,544.918,1332.073,546.846Z" transform="translate(-892.846 -493.91)" fill="#919191"/>
      <path id="Path_21593" data-name="Path 21593" d="M1349.866,555.111c-.445,2.364,2.939,4.774,7.819,5.879,4.959,1.26,10.695-6.3,10.565-6.416a22.753,22.753,0,0,0-8.688-2.981C1354.518,550.979,1350.319,552.763,1349.866,555.111Z" transform="translate(-904.824 -500.655)" fill="#919191"/>
      <path id="Path_21594" data-name="Path 21594" d="M1329.48,547.89a9.431,9.431,0,0,0,2.057,1.99c2.557,1.839,5.69,2.448,7.079.953a2.666,2.666,0,0,0,.479-2.519c1.029,1.621,1.142,3.334.2,4.312-1.44,1.47-4.556.785-7.046-1.129A7.4,7.4,0,0,1,1329.48,547.89Z" transform="translate(-893.021 -498.578)" fill="#6c6c6c"/>
      <path id="Path_21595" data-name="Path 21595" d="M1349.854,558.474c1.205,1.537,3.934,2.939,7.373,3.615,3.636.764,7.718-3.04,9.4-5.3a16.357,16.357,0,0,1,1.633.886c.13.122-5.605,7.676-10.564,6.416C1353.024,563.021,1349.711,560.737,1349.854,558.474Z" transform="translate(-904.837 -503.741)" fill="#6c6c6c"/>
      <path id="Path_21596" data-name="Path 21596" d="M1377.11,567.536a2.921,2.921,0,0,0,.239-.273l.042-.063c1.478,1.184,4.321,3.779,4.321,3.779s6.655,7.718,6.744,10.846a24.411,24.411,0,0,0-4.619,0l-3.137-10.556S1378.344,568.7,1377.11,567.536Z" transform="translate(-920.651 -509.78)" fill="#6c6c6c"/>
      <path id="Path_21597" data-name="Path 21597" d="M1352.955,570.23c-.886,1.617-5.786,3.053-5.786,3.053l-1.029,9.868,3.7.151-1.382-9.973s4.237-1.26,4.8-2.788Z" transform="translate(-902.685 -511.538)" fill="#6c6c6c"/>
      <path id="Path_21598" data-name="Path 21598" d="M1320.964,546.66c.84.9-2.587,10.22-1.831,11.169-2.372,1.079-11.115,4.174-13.29,5.459-.525-.458-1.058-.907-1.6-1.34,2.179-1.071,10.917-3.939,13.277-4.783-.672-.634,2.839-9.658,2.133-10.25Z" transform="translate(-878.379 -497.865)" fill="#6c6c6c"/>
      <path id="Path_21599" data-name="Path 21599" d="M1318.038,540.592s5.4-.84,6.689-3.922,0-6.3-2.377-6.79-4.9,1.6-6.038,4.426S1318.05,540.538,1318.038,540.592Z" transform="translate(-885.227 -488.09)" fill="#919191"/>
      <path id="Path_21600" data-name="Path 21600" d="M1316.06,539.217a11.632,11.632,0,0,0,1.91,3.552s5.366-.92,6.555-4.039a6.469,6.469,0,0,0,.42-2.859,6.145,6.145,0,0,1-.206,4.317c-1.285,3.1-6.719,3.913-6.689,3.922S1316.064,541.6,1316.06,539.217Z" transform="translate(-885.236 -491.606)" fill="#6c6c6c"/>
      <path id="Path_21601" data-name="Path 21601" d="M1321.616,515.215c.16-.18-5.942-7.978-5.791-10.3.378-2.486,3.359-5.774,5.908-3.817,2.494,2.024.479,1.722.1,1.474s-.319-1.138-.323-1.142a2.4,2.4,0,0,0-3.4.281c-1.68,1.743-2.045,2.885-1.818,3.955.323,1,3.54,6.181,3.729,6.513.286.256,1.919,2.738,1.9,2.75S1321.927,515.492,1321.616,515.215Z" transform="translate(-885.098 -471.089)" fill="#6c6c6c"/>
      <path id="Path_21602" data-name="Path 21602" d="M1307.63,517.64c.122-.39-10.426-7.777-9.952-10.006.6-2.645,2.3-3.909,3.439-3.359s2.125,2,1.163,1.911-.5-.705-.5-.71-.072-1.331-1.68-.42-2.519,2.1-1.621,3.439a9.953,9.953,0,0,0,2.292,2.654c1.474,1.176,7.235,6.11,7.176,6.223C1307.945,517.363,1308.252,517.628,1307.63,517.64Z" transform="translate(-874.563 -473.204)" fill="#6c6c6c"/>
      <line id="Line_3032" data-name="Line 3032" x1="37.791" transform="translate(537.265 320)" fill="none" stroke="#b5b5b5" stroke-miterlimit="10" stroke-width="2"/>
      <line id="Line_3033" data-name="Line 3033" x1="18.056" transform="translate(502.413 319.945)" fill="none" stroke="#b5b5b5" stroke-miterlimit="10" stroke-width="2"/>
      <rect id="Rectangle_15158" data-name="Rectangle 15158" width="16.796" height="16.796" rx="3" transform="translate(83.353 303.149)" fill="#d9d9d9"/>
      <rect id="Rectangle_15159" data-name="Rectangle 15159" width="16.796" height="16.796" rx="3" transform="translate(104.348 303.149)" fill="#ffd300"/>
      <line id="Line_3034" data-name="Line 3034" x1="37.791" transform="translate(83.353 319.945)" fill="none" stroke="#b5b5b5" stroke-miterlimit="10" stroke-width="2"/>
      <path id="Path_21603" data-name="Path 21603" d="M1602.357,655.084h-44.4c-2.767,0-3.947-1.188-3.947-3.972v-26.9c0-2.7,1.209-3.913,3.918-3.913h88.985c2.7,0,3.9,1.209,3.9,3.93v26.987c0,2.645-1.222,3.867-3.871,3.867Z" transform="translate(-1063.097 -555.568)" fill="#e4e4e4"/>
      <path id="Path_21604" data-name="Path 21604" d="M1578.03,630.632h10.078a3.257,3.257,0,0,1,3.51,3.485v19.206a3.229,3.229,0,0,1-3.418,3.393H1567.8a3.221,3.221,0,0,1-3.359-3.359V633.975a3.22,3.22,0,0,1,3.359-3.359C1571.2,630.62,1574.616,630.632,1578.03,630.632Z" transform="translate(-1069.149 -561.55)" fill="#dadada"/>
      <path id="Path_21605" data-name="Path 21605" d="M1655.767,659.616c-.542,0-1.109-.025-1.68,0s-.638-.353-.7-.672c-.307-1.549-1.26-2.016-2.725-1.751a2.649,2.649,0,0,1-.814,0c-1.638-.235-2.939,0-3.288,1.978-.059.37-1.86.659-2.192.395-.193-.151-.071-.319,0-.474,1.478-3.292,2.939-6.584,4.443-9.863.286-.63,2.133-.684,2.415-.059,1.554,3.418,3.065,6.849,4.585,10.279C1655.821,659.482,1655.8,659.515,1655.767,659.616Z" transform="translate(-1115.453 -572.058)" fill="#fefefe"/>
      <path id="Path_21606" data-name="Path 21606" d="M1742.4,659.641a2.545,2.545,0,0,0,4.031,1.285c.991-.71,1.113.244,1.474.609.516.525-.176.731-.445.915-2.217,1.507-6.941.961-7.239-3.2a3.9,3.9,0,0,1,1.881-3.846,4.346,4.346,0,0,1,4.644-.059,4.084,4.084,0,0,1,1.932,3.838c0,.533-.349.462-.676.462Z" transform="translate(-1171.11 -575.522)" fill="#fefefe"/>
      <path id="Path_21607" data-name="Path 21607" d="M1672.706,658.918a3.926,3.926,0,0,1,2.444-3.779,4.451,4.451,0,0,1,4.9.672c.26.235.873.546.42,1.067a1.234,1.234,0,0,1-1.785.277,2.368,2.368,0,0,0-3.263.059,2.6,2.6,0,0,0-.092,3.389,2.347,2.347,0,0,0,3.25.29c.227-.176.344-.617.684-.5a6.68,6.68,0,0,1,1.26.684c.294.185.05.361-.05.525a3.583,3.583,0,0,1-3.166,1.6C1674.566,663.268,1672.631,661.513,1672.706,658.918Z" transform="translate(-1131.952 -575.529)" fill="#fefefe"/>
      <path id="Path_21608" data-name="Path 21608" d="M1722.986,660.738c.747-1.734,1.487-3.3,2.1-4.925a1.332,1.332,0,0,1,1.545-.978c.718.029.911.151.588.873-1.012,2.276-2,4.564-2.939,6.878-.273.68-.747.588-1.234.554s-1.109.256-1.427-.538c-.941-2.339-1.949-4.652-2.965-6.962-.273-.613-.147-.735.5-.806a1.567,1.567,0,0,1,1.9,1.26C1721.592,657.605,1722.289,659.092,1722.986,660.738Z" transform="translate(-1158.528 -575.59)" fill="#fefefe"/>
      <path id="Path_21609" data-name="Path 21609" d="M1694.3,656.3v-1c0-.659.155-1.306-.941-1.226-.63.042-.285-.643-.353-1-.05-.29-.055-.663.42-.6.735.1.953-.21.894-.907-.025-.319-.218-.84.239-.949a2.431,2.431,0,0,1,1.68.05c.378.181.2.663.172,1-.046.626.164.9.806.8a3.874,3.874,0,0,1,.542,0c.676-.1.84.181.869.84,0,.739-.281.886-.9.806a5.236,5.236,0,0,0-.63,0c-.5-.055-.7.109-.68.642.038,1.025,0,2.049,0,3.074s.634,1.491,1.55,1.092.739.382.961.714c.34.516,0,.739-.449.89-1.81.613-4.178.214-4.2-2.691C1694.3,657.328,1694.3,656.816,1694.3,656.3Z" transform="translate(-1143.707 -573.087)" fill="#fefefe"/>
      <path id="Path_21610" data-name="Path 21610" d="M1712.933,659.1c0,1.117-.029,2.234,0,3.359,0,.588-.156.84-.76.76a3.733,3.733,0,0,0-.811,0c-.453.038-.563-.185-.563-.592v-7.058c0-.538.244-.647.718-.659,1.4-.038,1.4-.055,1.4,1.31Z" transform="translate(-1154.051 -575.636)" fill="#fdfdfd"/>
      <path id="Path_21611" data-name="Path 21611" d="M1711.641,646.339a1.167,1.167,0,0,1,1.222,1.26,1.2,1.2,0,0,1-1.306,1.193,1.23,1.23,0,1,1,.084-2.456Z" transform="translate(-1153.767 -570.668)" fill="#fcfcfd"/>
      <path id="Path_21612" data-name="Path 21612" d="M1579.392,657.321c1.108,0,2.221.029,3.33,0,.613-.021.865.143.84.8-.046,1.629.08,1.365-1.344,1.373h-5.879c-.353,0-.915.235-1.024-.256a1.7,1.7,0,0,1,.222-1.7c1.155-1.1,2.314-2.2,3.5-3.267a7.14,7.14,0,0,0,1.138-1.281,1.311,1.311,0,0,0-1.071-2.179,2.221,2.221,0,0,0-1.78.5c-.542.529-.962.42-1.524,0-1.1-.785-1.121-1.02,0-1.8a5.745,5.745,0,0,1,4.825-.773,3.25,3.25,0,0,1,1.839,5.219,13.494,13.494,0,0,1-2.1,2.1c-.374.34-.76.672-1.142,1.008Z" transform="translate(-1075.256 -571.929)" fill="#fefefe"/>
      <path id="Path_21613" data-name="Path 21613" d="M1601.158,648.85h3.527c.567,0,.764.151.815.756a5.72,5.72,0,0,1-.735,2.755c-.974,2.234-1.974,4.464-2.914,6.718a.928.928,0,0,1-1.021.642c-2.175,0-2.179.025-1.319-1.927s1.734-3.972,2.641-5.942c.311-.672.143-.865-.542-.81-.361.029-.726,0-1.087,0-1.26,0-1.26,0-1.39,1.26-.038.382-.172.5-.546.533-1.8.159-1.818.155-1.818-1.621,0-2.343,0-2.343,2.305-2.343Z" transform="translate(-1087.902 -572.13)" fill="#fefefe"/>
      <path id="Path_21614" data-name="Path 21614" d="M1655.614,654.48c.663,1.545,1.26,2.885,1.856,4.317h-3.179c-.512,0-.445-.21-.3-.546C1654.506,657.071,1655.005,655.882,1655.614,654.48Z" transform="translate(-1121.036 -575.395)" fill="#e4e4e4"/>
      <path id="Path_21615" data-name="Path 21615" d="M1747.456,660.614h-1.713c-.353,0-.386-.13-.273-.42a2.276,2.276,0,0,1,1.974-1.344,2.339,2.339,0,0,1,2.053,1.23c.172.42.05.588-.42.558C1748.535,660.592,1747.993,660.614,1747.456,660.614Z" transform="translate(-1174.13 -577.931)" fill="#e4e4e4"/>
      <path id="Path_21616" data-name="Path 21616" d="M220.411,840.563q-25.517,0-51.03.025a3.737,3.737,0,0,1-3.934-3.9c.092-9.028.067-18.056,0-27.084a3.72,3.72,0,0,1,3.876-3.863q51.03.075,102.061,0a3.752,3.752,0,0,1,3.981,3.943c-.1,8.994-.071,17.993,0,26.991a3.729,3.729,0,0,1-3.922,3.909C254.431,840.53,237.421,840.563,220.411,840.563Z" transform="translate(-165.443 -590.938)" fill="#fefefe"/>
      <path id="Path_21617" data-name="Path 21617" d="M188.924,842.219h-9.343a3.385,3.385,0,0,1-3.716-3.691c0-6.189.038-12.379-.021-18.568a3.7,3.7,0,0,1,3.876-3.867c6.131.113,12.265.08,18.4,0a3.691,3.691,0,0,1,3.888,3.851c-.109,6.156-.071,12.316,0,18.476a3.658,3.658,0,0,1-3.829,3.817C195.084,842.118,192,842.219,188.924,842.219Z" transform="translate(-171.474 -596.939)" fill="#f0f0f0"/>
      <path id="Path_21618" data-name="Path 21618" d="M386.749,845.233H384.23c-.68-.025-.613.281-.348.7a2.735,2.735,0,0,0,3.708.664c.655-.42.957-.244,1.386.252s.294.705-.088,1.054c-1.36,1.222-4.2,1.193-5.9-.08a4.237,4.237,0,0,1,3.972-7.315c2.1.584,2.868,2.221,3.011,4.132.038.5-.218.617-.655.6C388.437,845.233,387.593,845.233,386.749,845.233Z" transform="translate(-290.757 -611.005)" fill="#dadada"/>
      <path id="Path_21619" data-name="Path 21619" d="M299.451,845.83c0,.512.029,1.029,0,1.537-.034.42.252,1.117-.214,1.218-.55.118-1.352.537-1.776-.37-.1-.223-.243-.038-.357.034a4.09,4.09,0,0,1-3.132.42,2.368,2.368,0,0,1-1.965-2.448,2.266,2.266,0,0,1,2.028-2.28,11.34,11.34,0,0,1,2.792-.138c.588,0,.584-.277.449-.664a1.423,1.423,0,0,0-1.289-.982,3.779,3.779,0,0,0-2.519.47c-.453.3-.684.088-.794-.311s-.777-.722-.076-1.214a6.312,6.312,0,0,1,5.392-.277,3.015,3.015,0,0,1,1.478,2.645v2.356Z" transform="translate(-238.861 -611.01)" fill="#dadada"/>
      <path id="Path_21620" data-name="Path 21620" d="M270.316,841.211a4.363,4.363,0,0,1,3.855-.731,2.939,2.939,0,0,1,2.267,2.8c.046,1.57,0,3.141.029,4.711.025.9-.6.634-1.054.651s-1,.172-.97-.647c.046-1.234.05-2.477,0-3.712-.038-.894-.231-1.751-1.26-2.07a2.2,2.2,0,0,0-2.293.68,1.9,1.9,0,0,0-.42,1.26c0,1.239-.038,2.477,0,3.716.029,1.037-.7.726-1.26.789-.621.067-.928-.084-.911-.84.046-2.175,0-4.35,0-6.521,0-.441-.113-1.025.6-.949C269.456,840.426,270.375,839.872,270.316,841.211Z" transform="translate(-225.107 -610.985)" fill="#dadada"/>
      <path id="Path_21621" data-name="Path 21621" d="M314,844.519a3.723,3.723,0,0,1,2.276-3.779,4.443,4.443,0,0,1,4.93.5c.315.256.915.592.525,1.134a1.209,1.209,0,0,1-1.8.273,2.339,2.339,0,0,0-3.191.05,2.624,2.624,0,0,0-.16,3.464,2.184,2.184,0,0,0,3.153.269c.71-.689,1.146-.374,1.764,0,.458.269.395.479.139.84a3.638,3.638,0,0,1-3.153,1.461,4.208,4.208,0,0,1-4.338-2.876,5.625,5.625,0,0,1-.147-1.339Z" transform="translate(-251.618 -610.943)" fill="#dadada"/>
      <path id="Path_21622" data-name="Path 21622" d="M364.185,846.166c.789-1.818,1.482-3.418,2.184-5.039a1.524,1.524,0,0,1,1.969-.869c.361.113.277.319.176.559-1.041,2.44-2.079,4.883-3.132,7.315-.323.739-1.008.332-1.528.42-.386.055-.764.055-.966-.42q-1.524-3.628-3.095-7.235c-.181-.42-.084-.588.386-.638,1.352-.139,1.482-.071,2.011,1.193C362.82,842.946,363.454,844.436,364.185,846.166Z" transform="translate(-278.136 -610.902)" fill="#dadada"/>
      <path id="Path_21623" data-name="Path 21623" d="M336.577,836.369c.71-.13,1.092.092.962.84-.143.84.252,1.025,1.016.991.42-.021,1.138-.37,1.18.609.038.773-.155,1.071-.987,1.025-1.2-.071-1.205,0-1.205,1.2,0,.785-.021,1.57,0,2.351.042,1.121.621,1.583,1.65,1.2.672-.252.7.172.84.542.193.445.328.84-.311,1.079-1.995.693-4.3.025-4.2-2.645.034-.991,0-1.99,0-2.981,0-.491-.05-.84-.668-.768s-.651-.344-.638-.8-.067-.911.6-.84.764-.319.693-.84C335.41,836.5,335.767,836.185,336.577,836.369Z" transform="translate(-263.348 -608.676)" fill="#dadada"/>
      <path id="Path_21624" data-name="Path 21624" d="M259.247,839.837c0,1.533-.05,3.074,0,4.619.038.84-.42.84-1,.84s-1.205.139-1.193-.84q.067-4.56,0-9.125c0-1.062.663-.84,1.26-.878.714-.071.941.185.92.907C259.21,836.822,259.247,838.33,259.247,839.837Z" transform="translate(-218.59 -607.588)" fill="#dadada"/>
      <path id="Path_21625" data-name="Path 21625" d="M352.067,844.523c0-1.113.038-2.23,0-3.359-.038-.84.5-.806,1.062-.8s1.109-.122,1.1.764c-.034,2.259-.029,4.518,0,6.777,0,1.125-.815.676-1.352.764-.651.109-.84-.206-.8-.84C352.1,846.757,352.067,845.64,352.067,844.523Z" transform="translate(-273.703 -611.022)" fill="#dadada"/>
      <path id="Path_21626" data-name="Path 21626" d="M353.046,834.345a1.222,1.222,0,1,1,1.26-1.285,1.319,1.319,0,0,1-1.26,1.285Z" transform="translate(-273.586 -606.113)" fill="#dadada"/>
      <path id="Path_21627" data-name="Path 21627" d="M203.481,839.619a5.6,5.6,0,0,1,1.155-3.918,4.351,4.351,0,0,1,4.585-1.428,3.98,3.98,0,0,1,3.04,2.809,6.93,6.93,0,0,1-.668,6.475,4.157,4.157,0,0,1-4.5,1.638,4.4,4.4,0,0,1-3.4-3.275,7.021,7.021,0,0,1-.214-2.3Z" transform="translate(-187.497 -607.415)" fill="#dadada"/>
      <path id="Path_21628" data-name="Path 21628" d="M192.653,839.753v4.7c0,.537-.155.752-.722.739-2.272-.055-1.8.26-1.831-1.776-.034-1.961-.046-3.922,0-5.879.025-.84-.2-1.188-1.046-1.046s-1.226-.164-1.172-1.113c.042-.756.2-1.109,1.025-1.058a23.172,23.172,0,0,0,2.8,0c.693-.038.966.16.941.9C192.615,836.734,192.653,838.245,192.653,839.753Z" transform="translate(-178.458 -607.516)" fill="#dadada"/>
      <path id="Path_21629" data-name="Path 21629" d="M388.676,846.162h-1.26c-.248,0-.592.147-.71-.2-.1-.277.118-.512.281-.726a2.282,2.282,0,0,1,3.636.159c.281.479.29.8-.42.777C389.7,846.149,389.188,846.162,388.676,846.162Z" transform="translate(-293.784 -613.371)" fill="#fefefe"/>
      <path id="Path_21630" data-name="Path 21630" d="M298.219,853.99a1.68,1.68,0,0,1-.873-.172.9.9,0,0,1-.563-.936.953.953,0,0,1,.928-.84c.621-.084,1.26-.021,1.894-.055s.689.34.554.81A1.96,1.96,0,0,1,298.219,853.99Z" transform="translate(-241.63 -617.764)" fill="#fefefe"/>
      <path id="Path_21631" data-name="Path 21631" d="M213.592,842.851a4.228,4.228,0,0,1-.323,2.1,1.781,1.781,0,0,1-1.68,1.159,1.755,1.755,0,0,1-1.642-1.327,6.53,6.53,0,0,1-.122-3.72,1.959,1.959,0,0,1,1.814-1.612c.848-.013,1.394.479,1.768,1.52A5.514,5.514,0,0,1,213.592,842.851Z" transform="translate(-191.065 -610.492)" fill="#f0f0f0"/>
      <path id="Path_21724" data-name="Path 21724" d="M670.873,675c-.286-.294,5.736-11.673,4.3-13.437-1.734-2.1-3.829-2.435-4.585-1.411s-.983,2.746-.168,2.23.122-.84.122-.84-.542-1.222,1.3-1.163,3.2.731,3.011,2.322a9.731,9.731,0,0,1-.84,3.41c-.777,1.717-3.657,8.734-3.552,8.818C670.466,674.878,670.311,675.273,670.873,675Z" transform="translate(-510.401 -563.375)" fill="#6c6c6c"/>
    </g>
  </g>
</svg>
