<svg xmlns="http://www.w3.org/2000/svg" width="503.52" height="340.502" viewBox="0 0 503.52 340.502">
  <g id="Violation" transform="translate(-265.115 -280.155)">
    <path id="Path_12820" data-name="Path 12820" d="M788.054,327.89l-31.8-1.362a1.468,1.468,0,0,1-1.4-1.525l1.826-42.944a1.465,1.465,0,0,1,1.525-1.4l31.812,1.362a1.461,1.461,0,0,1,1.4,1.525l-1.837,42.945a1.461,1.461,0,0,1-1.525,1.4Z" transform="translate(-316.049)" fill="#dadada" stroke="#b7b7b7" stroke-miterlimit="10" stroke-width="1" stroke-dasharray="4 6"/>
    <path id="Path_12820-2" data-name="Path 12820" d="M1306.34,1133.839l-31.564,4.057a1.465,1.465,0,0,1-1.638-1.266l-5.479-42.636a1.464,1.464,0,0,1,1.263-1.638l31.564-4.057a1.468,1.468,0,0,1,1.642,1.266l5.479,42.636A1.465,1.465,0,0,1,1306.34,1133.839Z" transform="translate(-646.984 -521.205)" fill="#fff"/>
    <circle id="Ellipse_4162" data-name="Ellipse 4162" cx="6.423" cy="6.423" r="6.423" transform="translate(632.888 575.137)" fill="#b7b7b7"/>
    <path id="Path_30019" data-name="Path 30019" d="M1313.357,1156.76a.686.686,0,0,1-.326.131l-28.166,3.621a.715.715,0,0,1-.181-1.419l28.166-3.621a.709.709,0,0,1,.507,1.27Z" transform="translate(-657.576 -564.56)" fill="#b7b7b7"/>
    <path id="Path_30020" data-name="Path 30020" d="M1314.58,1169.647a.676.676,0,0,1-.33.131l-28.166,3.621a.715.715,0,0,1-.181-1.419l28.166-3.621a.718.718,0,0,1,.511,1.287Z" transform="translate(-658.363 -572.877)" fill="#b7b7b7"/>
    <path id="Path_30021" data-name="Path 30021" d="M1355.167,1199.509a.735.735,0,0,1-.326.131l-8.157,1.064a.715.715,0,1,1-.181-1.419l8.157-1.064a.709.709,0,0,1,.511,1.27Z" transform="translate(-697.471 -592.148)" fill="#b7b7b7"/>
    <ellipse id="Ellipse_4711" data-name="Ellipse 4711" cx="2.415" cy="4.227" rx="2.415" ry="4.227" transform="matrix(0.841, -0.542, 0.542, 0.841, 663.605, 594.89)" fill="#909090"/>
    <path id="Path_30022" data-name="Path 30022" d="M1404.785,1180.751c-.635,1.543,1.351,3.823,4.433,5.093s7.448-2.529,7.448-2.529a20.354,20.354,0,0,0-5.128-3.057C1408.431,1178.989,1405.416,1179.209,1404.785,1180.751Z" transform="translate(-735.411 -580.027)" fill="#909090"/>
    <path id="Path_30023" data-name="Path 30023" d="M1392.3,1167.39a6.83,6.83,0,0,0,.876,1.968c1.266,1.961,3.192,2.965,4.32,2.245a1.9,1.9,0,0,0,.763-1.557c.33,1.284.135,2.415-.614,2.9-1.121.709-3.057-.28-4.323-2.245A5.779,5.779,0,0,1,1392.3,1167.39Z" transform="translate(-727.43 -572.254)" fill="#6c6c6c"/>
    <path id="Path_30024" data-name="Path 30024" d="M1404.725,1183.66a8.053,8.053,0,0,0,4.341,3.568c2.28.94,5.245-.887,6.639-1.908.6.433.936.709.936.709s-4.344,3.8-7.448,2.529C1406.247,1187.348,1404.3,1185.2,1404.725,1183.66Z" transform="translate(-735.411 -582.754)" fill="#6c6c6c"/>
    <path id="Path_30025" data-name="Path 30025" d="M1424.64,1193.837a2.157,2.157,0,0,0,.181-.135l.032-.032,2.351,5.76,1.968,6.664h-1.511l-1.128-6.593Z" transform="translate(-748.301 -589.214)" fill="#6c6c6c"/>
    <path id="Path_30026" data-name="Path 30026" d="M1400.222,1193.53l-6.366,3.117-.716,9.356h1.511l.039-9.175,5.7-3.043Z" transform="translate(-727.972 -589.124)" fill="#6c6c6c"/>
    <path id="Path_30027" data-name="Path 30027" d="M1381.334,1177.95l-5.675,4.61,1.064.355,4.965-4.611,1.064-4.256-.355-.709Z" transform="translate(-716.691 -576.094)" fill="#6c6c6c"/>
    <path id="Path_30028" data-name="Path 30028" d="M1400.369,1171.433l.354,13.122,1.419-.709-1.773-19.151-.709-.355v1.419Z" transform="translate(-732.18 -570.286)" fill="#6c6c6c"/>
    <path id="Path_30029" data-name="Path 30029" d="M1378.148,1165.58s3.44-1.064,4.1-3.391-.106-4.582-1.709-5.036-3.44,1.064-4.1,3.391S1378.148,1165.58,1378.148,1165.58Z" transform="translate(-717.119 -565.597)" fill="#909090"/>
    <path id="Path_30030" data-name="Path 30030" d="M1376.35,1165.2a9.071,9.071,0,0,0,1.6,2.837s3.44-1.064,4.1-3.391a5.964,5.964,0,0,0,.22-2.128,5.51,5.51,0,0,1,0,3.192c-.66,2.327-4.1,3.39-4.1,3.39A7.979,7.979,0,0,1,1376.35,1165.2Z" transform="translate(-717.136 -569.111)" fill="#6c6c6c"/>
    <path id="Path_30031" data-name="Path 30031" d="M1364.409,1159.711s-6.866-3.238-8.2.677.38,6.813,1.064,6.664,1.66-.709,1.163-1.341-.617.5-.617.5-.816,1.266-1.341-1.163-.578-6.029,1.926-6.217a14.212,14.212,0,0,1,5.72,1.305S1364.906,1160.329,1364.409,1159.711Z" transform="translate(-703.823 -566.487)" fill="#6c6c6c"/>
    <path id="Path_30032" data-name="Path 30032" d="M1370.158,1159.851c.443.174.759.411,1,.355.11-.021.262-.1.262-.209s-.142-.1-.142-.1a7.546,7.546,0,0,0-6.646.443c-3.809,1.936-2.4,5.153-2.071,5.281s1.773.319,1.709-.472-.791.071-.791.071-.589.532-.862-.709a2.848,2.848,0,0,1,.709-2.773C1363.92,1161.209,1367.519,1158.815,1370.158,1159.851Z" transform="translate(-707.898 -567.066)" fill="#6c6c6c"/>
    <path id="Path_30033" data-name="Path 30033" d="M1370.532,1197.01a3.849,3.849,0,0,0,2.837.709c1.418-.355.507-1.99.507-1.99a4.766,4.766,0,0,1-1.926.926C1371.241,1196.656,1370.177,1196.656,1370.532,1197.01Z" transform="translate(-713.336 -590.544)" fill="#6c6c6c"/>
    <line id="Line_3366" data-name="Line 3366" x2="55.85" transform="translate(626.526 616.542)" fill="none" stroke="#b5b5b5" stroke-miterlimit="10" stroke-width="2"/>
    <path id="Path_30034" data-name="Path 30034" d="M1164.469,1089.456c.142-.177.415-.131.645.124a1.064,1.064,0,0,1,.28.656.518.518,0,0,1-.053.266l-2.617,4.965a.151.151,0,0,1-.032.05c-.138.177-.415.128-.642-.124a.919.919,0,0,1-.227-.926l2.614-4.944Z" transform="translate(-578.664 -521.891)" fill="#b7b7b7"/>
    <g id="Group_39327" data-name="Group 39327" transform="translate(550.909 538.793)">
      <path id="Path_30035" data-name="Path 30035" d="M1096.057,1045.622a2.643,2.643,0,0,1,.429-.436c1.709-1.362,4.611-.035,6.483,2.965,1.7,2.72,1.958,5.88.709,7.448a2.623,2.623,0,0,1-.429.436c-1.709,1.362-4.61.032-6.479-2.965C1095.082,1050.36,1094.834,1047.2,1096.057,1045.622Z" transform="translate(-1086.664 -1031.838)" fill="#b7b7b7"/>
      <path id="Path_30036" data-name="Path 30036" d="M1133.4,1068.3c.142-.177.418-.128.649.124a1.1,1.1,0,0,1,.276.656.518.518,0,0,1-.053.266l-9.051,17.073a.151.151,0,0,1-.032.05c-.138.181-.415.131-.646-.124a.9.9,0,0,1-.223-.922l9.051-17.073a.229.229,0,0,1,.028-.05Z" transform="translate(-1105.368 -1047.031)" fill="#b7b7b7"/>
      <path id="Path_30037" data-name="Path 30037" d="M1125.258,1058.917c.142-.177.415-.131.646.128a1.063,1.063,0,0,1,.28.652.541.541,0,0,1-.053.27l-9.051,17.073-.032.05c-.138.177-.415.128-.645-.128a.9.9,0,0,1-.223-.922l9.047-17.073Z" transform="translate(-1100.115 -1040.976)" fill="#b7b7b7"/>
      <path id="Path_30038" data-name="Path 30038" d="M1110.1,1039.422a1.891,1.891,0,0,1,.468,1.915l-10.161,19.133a1.043,1.043,0,0,1-.067.1c-.287.355-.862.266-1.337-.262l-27.464-30.4a1.892,1.892,0,0,1-.472-1.915l10.15-19.151a.763.763,0,0,1,.067-.106c.287-.355.858-.262,1.333.262Zm-29.028-9.657c1.869,3,4.77,4.327,6.479,2.965a2.629,2.629,0,0,0,.429-.436c1.241-1.578.979-4.738-.709-7.448-1.869-3-4.774-4.327-6.483-2.965a2.627,2.627,0,0,0-.429.436c-1.241,1.578-.975,4.738.709,7.448m6.174,14.743c.231.255.507.3.646.128l.032-.05,9.051-17.073a.539.539,0,0,0,.053-.27,1.064,1.064,0,0,0-.28-.653c-.23-.259-.5-.305-.646-.128l-.032.05-9.047,17.073a.9.9,0,0,0,.223.922m3.547,3.4,9.051-17.073a.516.516,0,0,0,.053-.266,1.1,1.1,0,0,0-.277-.656c-.23-.252-.507-.3-.649-.124a.23.23,0,0,0-.028.05l-9.051,17.073a.9.9,0,0,0,.224.922c.23.255.507.3.645.124a.147.147,0,0,0,.032-.05m15.984-9.834a1.064,1.064,0,0,0-.28-.656c-.231-.255-.5-.3-.646-.124l-.032.05-2.614,4.944a.919.919,0,0,0,.227.926c.227.252.5.3.642.124a.248.248,0,0,0,.032-.05l2.617-4.965a.516.516,0,0,0,.053-.266" transform="translate(-1070.964 -1008.522)" fill="#fff"/>
    </g>
    <ellipse id="Ellipse_4712" data-name="Ellipse 4712" cx="2.415" cy="4.227" rx="2.415" ry="4.227" transform="matrix(0.841, -0.542, 0.542, 0.841, 596.223, 594.888)" fill="#909090"/>
    <path id="Path_30039" data-name="Path 30039" d="M1214.785,1180.751c-.635,1.543,1.351,3.823,4.433,5.093s7.448-2.529,7.448-2.529a20.355,20.355,0,0,0-5.128-3.057C1218.431,1178.989,1215.416,1179.209,1214.785,1180.751Z" transform="translate(-612.794 -580.027)" fill="#909090"/>
    <path id="Path_30040" data-name="Path 30040" d="M1202.3,1167.39a6.83,6.83,0,0,0,.876,1.968c1.266,1.961,3.192,2.965,4.32,2.245a1.9,1.9,0,0,0,.763-1.557c.33,1.284.135,2.415-.614,2.9-1.121.709-3.057-.28-4.323-2.245A5.778,5.778,0,0,1,1202.3,1167.39Z" transform="translate(-604.813 -572.254)" fill="#6c6c6c"/>
    <path id="Path_30041" data-name="Path 30041" d="M1214.725,1183.66a8.052,8.052,0,0,0,4.341,3.568c2.281.94,5.245-.887,6.639-1.908.6.433.936.709.936.709s-4.345,3.8-7.448,2.529C1216.247,1187.348,1214.3,1185.2,1214.725,1183.66Z" transform="translate(-612.795 -582.754)" fill="#6c6c6c"/>
    <path id="Path_30042" data-name="Path 30042" d="M1234.64,1193.837a2.139,2.139,0,0,0,.181-.135l.032-.032,2.351,5.76,1.968,6.664h-1.511l-1.128-6.593Z" transform="translate(-625.684 -589.214)" fill="#6c6c6c"/>
    <path id="Path_30043" data-name="Path 30043" d="M1210.222,1193.53l-6.366,3.117-.716,9.356h1.511l.039-9.175,5.7-3.043Z" transform="translate(-605.355 -589.124)" fill="#6c6c6c"/>
    <path id="Path_30044" data-name="Path 30044" d="M1210.369,1171.433l.355,13.122,1.419-.709-1.773-19.151-.709-.355v1.419Z" transform="translate(-609.563 -570.286)" fill="#6c6c6c"/>
    <path id="Path_30045" data-name="Path 30045" d="M1163.423,1123a3.846,3.846,0,0,0,1.823,2.287c1.344.582,1.61-1.27,1.61-1.27a4.7,4.7,0,0,1-2.092-.436C1164.2,1123.148,1163.356,1122.506,1163.423,1123Z" transform="translate(-579.721 -543.492)" fill="#6c6c6c"/>
    <line id="Line_3367" data-name="Line 3367" x2="45.211" transform="translate(569.782 616.542)" fill="none" stroke="#b5b5b5" stroke-miterlimit="10" stroke-width="2"/>
    <path id="Path_30046" data-name="Path 30046" d="M1181.417,1137.128a1.525,1.525,0,0,1,.844-.231l-2.047-6.338-10.639-7.65-.816,1.539,10.675,6.714,1.816,6.1A1.532,1.532,0,0,1,1181.417,1137.128Z" transform="translate(-583.168 -543.549)" fill="#6c6c6c"/>
    <path id="Path_30047" data-name="Path 30047" d="M1192.148,1156.581s3.44-1.064,4.1-3.391-.106-4.582-1.709-5.036-3.44,1.064-4.1,3.391S1192.148,1156.581,1192.148,1156.581Z" transform="translate(-597.084 -559.789)" fill="#909090"/>
    <path id="Path_30048" data-name="Path 30048" d="M1190.35,1156.2a9.071,9.071,0,0,0,1.6,2.837s3.44-1.064,4.1-3.39a5.964,5.964,0,0,0,.22-2.128,5.51,5.51,0,0,1,0,3.192c-.66,2.326-4.1,3.39-4.1,3.39A7.978,7.978,0,0,1,1190.35,1156.2Z" transform="translate(-597.101 -563.303)" fill="#6c6c6c"/>
    <path id="Path_30049" data-name="Path 30049" d="M1189.9,1150.28s-6.6-4.845-7.483.167.951,8.955,1.575,8.82,1.461-.8.95-1.653-.525.6-.525.6-.638,1.585-1.333-1.639-1.064-7.969,1.22-7.98,5.38,2.217,5.38,2.217S1190.407,1151.135,1189.9,1150.28Z" transform="translate(-591.827 -559.854)" fill="#6c6c6c"/>
    <path id="Path_30050" data-name="Path 30050" d="M1179.439,1151.7c.571,0,1.032.167,1.284-.028.114-.089.252-.273.2-.425s-.2-.057-.2-.057-3.844-.557-7.313,4.11-.5,8.348-.074,8.352,2.128-.5,1.724-1.55-.858.514-.858.514-.44,1.043-1.28-.532a4.982,4.982,0,0,1-.39-4.181C1172.97,1156.86,1176.017,1151.665,1179.439,1151.7Z" transform="translate(-585.098 -561.778)" fill="#6c6c6c"/>
    <g id="Group_39328" data-name="Group 39328" transform="translate(719.629 589.442)">
      <path id="Path_30051" data-name="Path 30051" d="M1639.59,1187.269c-.082-.121.071-.135.355-.025a3.011,3.011,0,0,1,.638.333,1.335,1.335,0,0,1,.188.16l2.784,3.192a.166.166,0,0,1,.025.036c.082.12-.074.135-.355.025a2.485,2.485,0,0,1-.826-.493l-2.784-3.192Z" transform="translate(-1606.633 -1174.461)" fill="#b7b7b7"/>
      <path id="Path_30052" data-name="Path 30052" d="M1614.681,1178.1c-.082-.121.074-.135.354-.025a2.991,2.991,0,0,1,.638.33,1.175,1.175,0,0,1,.188.163l9.6,11.072.028.032c.078.124-.074.135-.355.025a2.482,2.482,0,0,1-.826-.493l-9.6-11.072Z" transform="translate(-1590.558 -1168.544)" fill="#b7b7b7"/>
      <path id="Path_30053" data-name="Path 30053" d="M1603.851,1173.956c-.082-.121.074-.138.355-.025a2.9,2.9,0,0,1,.635.333,1,1,0,0,1,.188.16l9.6,11.072.028.032c.078.124-.074.135-.372.025a2.48,2.48,0,0,1-.826-.493l-9.572-11.072Z" transform="translate(-1583.569 -1165.869)" fill="#b7b7b7"/>
      <path id="Path_30054" data-name="Path 30054" d="M1583.135,1164.726a5.1,5.1,0,0,1,1.709,1.025l10.767,12.413a.736.736,0,0,1,.053.071c.167.252-.156.28-.77.05l-35.621-13.235a5.052,5.052,0,0,1-1.706-1.022l-10.767-12.412a.477.477,0,0,1-.053-.071c-.17-.252.152-.28.77-.05Zm-19.935-1.188c3.156,1.419,5.437,1.773,5.089.709a1.526,1.526,0,0,0-.159-.312c-.709-1.085-3.323-2.837-6.182-4.142-3.156-1.419-5.437-1.773-5.089-.709a1.558,1.558,0,0,0,.163.312c.709,1.085,3.319,2.837,6.178,4.142m18.442,8.895-9.6-11.072a1.155,1.155,0,0,0-.188-.163,2.994,2.994,0,0,0-.638-.33c-.294-.11-.45-.1-.355.025l.025.032,9.6,11.072a2.482,2.482,0,0,0,.826.493c.3.11.45.1.355-.025l-.028-.032m-4.185-1.419c.3.11.45.1.372-.025l-.028-.032-9.6-11.072a1,1,0,0,0-.188-.16,2.9,2.9,0,0,0-.635-.333c-.3-.114-.454-.1-.354.025l.025.032,9.6,11.072a2.481,2.481,0,0,0,.826.493m3.227-6.568a3.018,3.018,0,0,0-.638-.333c-.3-.11-.45-.1-.355.025l.025.035,2.784,3.192a2.484,2.484,0,0,0,.826.493c.294.11.45.1.355-.025a.163.163,0,0,0-.025-.036l-2.784-3.192a1.362,1.362,0,0,0-.188-.16" transform="translate(-1546.703 -1151.337)" fill="#fff"/>
      <path id="Path_30055" data-name="Path 30055" d="M1575.444,1172.391a1.369,1.369,0,0,1-.159-.312c-.355-1.032,1.929-.709,5.085.709,2.858,1.294,5.462,3.057,6.182,4.142a1.539,1.539,0,0,1,.16.312c.354,1.029-1.933.709-5.089-.709C1578.763,1175.236,1576.16,1173.477,1575.444,1172.391Z" transform="translate(-1565.124 -1164.333)" fill="#b7b7b7"/>
    </g>
    <ellipse id="Ellipse_4713" data-name="Ellipse 4713" cx="2.415" cy="4.227" rx="2.415" ry="4.227" transform="translate(711.958 593.212) rotate(-11.95)" fill="#909090"/>
    <path id="Path_30056" data-name="Path 30056" d="M1535.585,1180.751c-.635,1.543,1.348,3.823,4.433,5.093s7.448-2.529,7.448-2.529a20.443,20.443,0,0,0-5.128-3.057C1539.234,1178.989,1536.22,1179.209,1535.585,1180.751Z" transform="translate(-819.822 -580.027)" fill="#909090"/>
    <path id="Path_30057" data-name="Path 30057" d="M1527.4,1164a6.8,6.8,0,0,0,.117,2.149c.482,2.284,1.933,3.9,3.238,3.635a1.884,1.884,0,0,0,1.266-1.181c-.149,1.316-.734,2.305-1.606,2.483-1.305.273-2.755-1.355-3.238-3.639A5.782,5.782,0,0,1,1527.4,1164Z" transform="translate(-814.364 -570.067)" fill="#6c6c6c"/>
    <path id="Path_30058" data-name="Path 30058" d="M1535.537,1183.66a8.049,8.049,0,0,0,4.344,3.568c2.277.94,5.245-.887,6.639-1.908.6.433.936.709.936.709s-4.348,3.8-7.448,2.529C1537.062,1187.348,1535.119,1185.2,1535.537,1183.66Z" transform="translate(-819.831 -582.754)" fill="#6c6c6c"/>
    <path id="Path_30059" data-name="Path 30059" d="M1555.46,1193.837a2.086,2.086,0,0,0,.177-.135l.032-.032,2.355,5.76,1.968,6.664h-1.5l-1.131-6.593Z" transform="translate(-832.725 -589.214)" fill="#6c6c6c"/>
    <path id="Path_30060" data-name="Path 30060" d="M1531.039,1193.53l-6.366,3.117-.713,9.356h1.507l.042-9.175,5.7-3.043Z" transform="translate(-812.397 -589.124)" fill="#6c6c6c"/>
    <path id="Path_30061" data-name="Path 30061" d="M1514.311,1175.875l-5.841,5.242,1.1.4,5.11-5.242,1.1-4.841-.365-.808Z" transform="translate(-802.4 -574.345)" fill="#6c6c6c"/>
    <path id="Path_30062" data-name="Path 30062" d="M1512.2,1159.411s3.593.23,5.039-1.709,1.532-4.32.2-5.32-3.593-.23-5.04,1.71S1512.2,1159.411,1512.2,1159.411Z" transform="translate(-804.48 -562.286)" fill="#909090"/>
    <path id="Path_30063" data-name="Path 30063" d="M1511.892,1160.147a9.047,9.047,0,0,0,.489,3.21s3.593.231,5.04-1.709a5.947,5.947,0,0,0,.958-1.9,5.535,5.535,0,0,1-1.138,2.972c-1.447,1.94-5.04,1.709-5.04,1.709A7.984,7.984,0,0,1,1511.892,1160.147Z" transform="translate(-804.485 -567.324)" fill="#6c6c6c"/>
    <path id="Path_30064" data-name="Path 30064" d="M1500.792,1148.721s-5.263-5.469-7.9-2.284-2.071,6.5-1.369,6.607,1.805-.081,1.564-.837-.755.245-.755.245-1.213.89-.837-1.564,1.61-5.855,4.011-5.128a14.475,14.475,0,0,1,4.883,3.256S1501.037,1149.476,1500.792,1148.721Z" transform="translate(-791.084 -558.089)" fill="#6c6c6c"/>
    <path id="Path_30065" data-name="Path 30065" d="M1520.808,1133.7c.294.372.638.589.635.855,0,.12-.06.312-.188.355s-.138-.1-.138-.1-2.33-2.227-.926-6.955,5.408-4.724,5.628-4.444.748,1.667-.174,1.947-.089-.837-.089-.837.482-.833-1.011-.557a4.4,4.4,0,0,0-3.036,1.947C1521.028,1126.747,1519.049,1131.47,1520.808,1133.7Z" transform="translate(-809.674 -543.807)" fill="#6c6c6c"/>
    <path id="Path_30066" data-name="Path 30066" d="M1565.634,1173.775a3.85,3.85,0,0,0-1.734-2.355c-1.319-.631-1.66,1.209-1.66,1.209a4.8,4.8,0,0,1,2.075.514C1564.861,1173.594,1565.7,1174.271,1565.634,1173.775Z" transform="translate(-837.101 -574.77)" fill="#6c6c6c"/>
    <line id="Line_3368" data-name="Line 3368" x2="55.85" transform="translate(711.574 616.542)" fill="none" stroke="#b5b5b5" stroke-miterlimit="10" stroke-width="2"/>
    <g id="Group_39329" data-name="Group 39329" transform="translate(714.936 594.409)">
      <path id="Path_30067" data-name="Path 30067" d="M1639.59,1187.269c-.082-.121.071-.135.355-.025a3.011,3.011,0,0,1,.638.333,1.335,1.335,0,0,1,.188.16l2.784,3.192a.166.166,0,0,1,.025.036c.082.12-.074.135-.355.025a2.485,2.485,0,0,1-.826-.493l-2.784-3.192Z" transform="translate(-1601.94 -1179.428)" fill="#b7b7b7"/>
      <path id="Path_30068" data-name="Path 30068" d="M1614.681,1178.1c-.082-.121.074-.135.354-.025a2.991,2.991,0,0,1,.638.33,1.175,1.175,0,0,1,.188.163l9.6,11.072.028.032c.078.124-.074.135-.355.025a2.482,2.482,0,0,1-.826-.493l-9.6-11.072Z" transform="translate(-1585.865 -1173.51)" fill="#b7b7b7"/>
      <path id="Path_30069" data-name="Path 30069" d="M1603.851,1173.956c-.082-.121.074-.138.355-.025a2.9,2.9,0,0,1,.635.333,1,1,0,0,1,.188.16l9.6,11.072.028.032c.078.124-.074.135-.372.025a2.48,2.48,0,0,1-.826-.493l-9.572-11.072Z" transform="translate(-1578.876 -1170.836)" fill="#b7b7b7"/>
      <path id="Path_30070" data-name="Path 30070" d="M1544.794,1168.174l-11.324-2.834v.709l5.32,1.419,7.38,2.291Z" transform="translate(-1533.47 -1165.34)" fill="#6c6c6c"/>
      <path id="Path_30071" data-name="Path 30071" d="M1575.444,1172.391a1.369,1.369,0,0,1-.159-.312c-.355-1.032,1.929-.709,5.085.709,2.858,1.294,5.462,3.057,6.182,4.142a1.539,1.539,0,0,1,.16.312c.354,1.029-1.933.709-5.089-.709C1578.763,1175.236,1576.16,1173.477,1575.444,1172.391Z" transform="translate(-1560.431 -1169.299)" fill="#b7b7b7"/>
    </g>
    <path id="Path_30072" data-name="Path 30072" d="M731.062,647.453s4.21-8.327,15.629-8.448,13.069.624,13.069.624,1.238-7.834,6.228-9.93,6.029,8.657,4.781,10.388-1.064,2.724-2.887,4.04-1.032-1.607-1.032-1.607a12.205,12.205,0,0,1-4.454.741l-2.061-.167s-10.065,14.686-21.772,12.161S731.062,647.453,731.062,647.453Z" transform="translate(-300.225 -225.081)" fill="#eef1f6"/>
    <path id="Path_30073" data-name="Path 30073" d="M691.258,636.8s3.192-14.186-4.256-23.052-24.386-12.352-27.62-7.416,3.859,25.858,19.109,29.759S691.258,636.8,691.258,636.8Z" transform="translate(-253.945 -208.719)" fill="#eef1f6"/>
    <path id="Path_30074" data-name="Path 30074" d="M683.321,623.659A72.124,72.124,0,0,0,682.2,609.5c-8.292-5.607-20.162-7.228-22.815-3.192-3.234,4.933,3.859,25.858,19.109,29.759.564.145,1.1.28,1.617.4A34.19,34.19,0,0,0,683.321,623.659Z" transform="translate(-253.945 -208.714)" fill="#dce2ed"/>
    <path id="Path_30075" data-name="Path 30075" d="M789.136,629.686c-4.99,2.1-6.228,9.93-6.228,9.93s-1.649-.745-13.069-.624a21.861,21.861,0,0,0-3.348.294c-.926,5.416.255,10.852,4.483,14.725,7.292-3.32,12.508-10.934,12.508-10.934l2.061.167A12.2,12.2,0,0,0,790,642.5s-.784,2.926,1.032,1.607,1.649-2.305,2.887-4.039S794.144,627.583,789.136,629.686Z" transform="translate(-323.373 -225.071)" fill="#ffac43"/>
    <path id="Path_30076" data-name="Path 30076" d="M642.766,591.362l4.469-.926-4.4-.911-.993-7.125-1,7.217-4.391.819,4.458.83.933,7.2Z" transform="translate(-239.641 -194.731)" fill="#f9f9f9"/>
    <ellipse id="Ellipse_4714" data-name="Ellipse 4714" cx="2.401" cy="7.426" rx="2.401" ry="7.426" transform="translate(394.046 393.548) rotate(-81.83)" fill="#d9d9d9"/>
    <path id="Path_30077" data-name="Path 30077" d="M631.593,539.189l5.068-2.167s3.3-.383,3.344-2.678,1-3.369.135-6.7-1.174-2.539-3.773-3.231-8.249-2.866-12.281,1.72-1.773,7.121-1.667,7.579.493,3.234.809,4.256.269,1.773,1.525,2.777,7.657-.266,6.384-.121C629.4,540.841,631.593,539.189,631.593,539.189Z" transform="translate(-230.118 -156.587)"/>
    <path id="Path_30078" data-name="Path 30078" d="M641.789,527.3s.489,10.434.433,13.285-3.7,5.6-3.16,4.7c.447-.745,4.373,19.222,4.373,19.222l-16.828-15.222,2.571-10.115-.926-1.419s-.809-.252-1.358-.482a3.183,3.183,0,0,1-1.209-2.752c.181-1.039.812-2.326,1.773-1.986s.734-1.064.734-1.064a13.324,13.324,0,0,1,2.483-3.717c.028-.028-.021-.082-.029-.1a2.158,2.158,0,0,0,1.419.759,16.446,16.446,0,0,0,6.384-.227A27.266,27.266,0,0,0,641.789,527.3Z" transform="translate(-232.678 -159.172)" fill="#ffac43"/>
    <path id="Path_30079" data-name="Path 30079" d="M625.665,523.933a14.952,14.952,0,0,0-1.575-1.383A5.443,5.443,0,0,1,625.665,523.933Z" transform="translate(-231.665 -156.106)"/>
    <path id="Path_30080" data-name="Path 30080" d="M639.6,547.711s.213-.067.635.3c.9,1.493,1.44,3.32,2.922,4.217a5.529,5.529,0,0,0,1.326.536,6.777,6.777,0,0,0,4.408,0,3.63,3.63,0,0,0,2.266-2.908,2.663,2.663,0,0,1,.936,2,7.9,7.9,0,0,1-.323,2.259c-.255,1.039-.681,2.816,1.383,3.305-4.32,1.706-5.94.926-7.895.745a7.351,7.351,0,0,1-2.029-.454,6.059,6.059,0,0,1-3.578-5.947,13.591,13.591,0,0,0,.174-2.564,3.3,3.3,0,0,0-.323-1.064A3.491,3.491,0,0,0,639.6,547.711Z" transform="translate(-241.61 -172.341)"/>
    <path id="Path_30081" data-name="Path 30081" d="M672.29,552.1a2.586,2.586,0,0,1,.025.6h0Z" transform="translate(-262.771 -175.176)"/>
    <path id="Path_30082" data-name="Path 30082" d="M637.422,519.849c.152-.227.3-.45.468-.667a.711.711,0,0,0-.259-.156,2.1,2.1,0,0,0-1.489.287l-2.319,1.092a.941.941,0,0,0-.333-1.38,2.731,2.731,0,0,0-1.6-.2l-2.876.22a10.05,10.05,0,0,0-3.547.709,3.488,3.488,0,0,0-2.128,2.731,12.359,12.359,0,0,0-.894-.972,5.526,5.526,0,0,1,.543.855,14.935,14.935,0,0,0-3.1-.84l2.482,1.025c-1.525.894-3.192,2.128-3.234,3.9-.025,1.312.883,2.426,1.475,3.6s.734,2.873-.39,3.546a2.152,2.152,0,0,0-.628.408c-.383.468.114,1.234.709,1.309a2.293,2.293,0,0,0,1.635-.677,4.051,4.051,0,0,0,1.174,4.185c.83.8-.3.635.844.752l3.21-8.866a2.653,2.653,0,0,1-.216-2.554l1.876.461,1.277-4.859h-.046a5.076,5.076,0,0,1-1.83-.755l-.482-.355-.039-.028-.035-.025h0l.057.039s1.536.188,3.412.291l.028-.1c.326.053.653.1.982.142h2.341l.355-.018h.454l.2-.021h.128l.184-.025h.124l.177-.028.113-.018.17-.032.106-.021.17-.039.082-.021.234-.067.142-.039a5.947,5.947,0,0,0,.8-.394A1.791,1.791,0,0,1,637.422,519.849Z" transform="translate(-228.463 -153.675)"/>
    <path id="Path_30083" data-name="Path 30083" d="M651.281,526.68a3.89,3.89,0,0,1-1.536.163c-.323-.433-9.966.511-9.966.511s3.39,3.44,12.516.2A3.136,3.136,0,0,1,651.281,526.68Z" transform="translate(-241.79 -158.772)"/>
    <ellipse id="Ellipse_4715" data-name="Ellipse 4715" cx="1.44" cy="2.305" rx="1.44" ry="2.305" transform="translate(396.035 372.671) rotate(-8.15)" fill="#ffac43"/>
    <path id="Path_30084" data-name="Path 30084" d="M574.087,754.794l-1.138,4.33s-4.855,5.079-6.944,9.834c-1.316,2.99.046,13.122,7.6,14.349s20.509,3.979,21.715-.188.961-18.087.961-18.087S575,753.418,574.087,754.794Z" transform="translate(-193.894 -305.912)" fill="#fff"/>
    <path id="Path_30085" data-name="Path 30085" d="M613.692,590.1a8.622,8.622,0,0,1,7.4,8.338c.2,8.714-.124,23.432-3.944,32.876C611.433,645.434,603.28,660.4,603.28,660.4l-21.861-12.675s-16.222-55.875-8.831-58.694,26.506.507,31.965.319A58.91,58.91,0,0,1,613.692,590.1Z" transform="translate(-197.183 -198.273)" fill="#fff"/>
    <path id="Path_30086" data-name="Path 30086" d="M681.381,1148.5a27.378,27.378,0,0,0,.582,4.642,35.893,35.893,0,0,0,6.029,1.84,73.827,73.827,0,0,0,10.164,1.369c4.171.45,10.118,1,10.132,1.007-.074-.05,5.713,12.59,7.022,14.633.6.9-13.7-3.359-25.709-2.954-12.43.759-20.832.844-20.648.883,1.908.376,3.468-20.254,2.536-20.378C671.5,1149.543,680.693,1148.706,681.381,1148.5Z" transform="translate(-260.616 -560.064)" fill="#fff"/>
    <path id="Path_30087" data-name="Path 30087" d="M677.769,1195.834c12.622,1.419,34.511-.968,34.046-1.064,1.216,1.472,3.071,6.384,3.508,7.093.745.943-46.714-2.128-46.356-2.071a12.855,12.855,0,0,1,1.7-5.011C672.662,1195.015,675.715,1195.625,677.769,1195.834Z" transform="translate(-260.624 -589.924)" fill="#b6b6b6"/>
    <path id="Path_30088" data-name="Path 30088" d="M715.407,1159.666a36.208,36.208,0,0,0,3.951,6.455c.17.223-.2.5-.355.273a36.111,36.111,0,0,1-3.9-6.49c-.1-.23.206-.472.312-.238Z" transform="translate(-290.386 -567.208)" fill="#b6b6b6"/>
    <path id="Path_30089" data-name="Path 30089" d="M713.841,1160.718c-1.621,1.238-3.362,2.667-5.32,4.288l-1.738,1.451c-.245.2-.521-.092-.277-.294,2.092-1.741,3.944-3.3,5.646-4.66q.738-.585,1.44-1.124c.184-.142.418.2.231.355Z" transform="translate(-284.791 -567.707)" fill="#b6b6b6"/>
    <path id="Path_30090" data-name="Path 30090" d="M580.771,610.388a38.566,38.566,0,0,1,8.746,22.378c.333,8.32-4.011,16.048-8.086,23.222h0s-12.37-42.593-10.59-55.279A58.949,58.949,0,0,1,580.771,610.388Z" transform="translate(-197.188 -206.547)" fill="#eef1f6"/>
    <path id="Path_30091" data-name="Path 30091" d="M632.98,582.33c3.053.44,5.717,2.9,8.512,2.128,1.238,5.621,3.234,15.562,3.234,15.562L627.66,584.813C628.61,585.09,631.969,582.185,632.98,582.33Z" transform="translate(-233.969 -194.682)" fill="#ffac43"/>
    <path id="Path_30092" data-name="Path 30092" d="M603.282,744.707a43.217,43.217,0,0,1,15.764-1.5c3.635.415,7.717,1.738,9.012,5.266-.489.968-.929,1.816-1.305,2.536a33.66,33.66,0,0,0-12.317-4.224,33.007,33.007,0,0,0-14.417.99c-.05-.17-.241-.833-.539-1.89A39.069,39.069,0,0,1,603.282,744.707Z" transform="translate(-215.783 -298.375)" fill="#edf0f5"/>
    <path id="Path_30093" data-name="Path 30093" d="M581.343,577.276l-20.853-6.1s-2.635,3.5,20.924,17.75Z" transform="translate(-190.564 -187.49)" fill="#edf0f5"/>
    <path id="Path_30094" data-name="Path 30094" d="M690.951,588s-.929,23.744-2.5,30.106-12.491-28.372-12.491-28.372Z" transform="translate(-265.139 -198.345)" fill="#fff"/>
    <path id="Path_30095" data-name="Path 30095" d="M587.053,578.81l-20.853-6.1s20.786,24.116,25.283,40.1S587.053,578.81,587.053,578.81Z" transform="translate(-194.306 -188.477)" fill="#fff"/>
    <path id="Path_30096" data-name="Path 30096" d="M613.049,772.35s16.41,5.157,18.591,37.451-14.4,52.942-19.119,42.324c-2.128-4.83-1.33-28.982-8.277-39.884s-14.062-11.327-13.179-23.137S613.049,772.35,613.049,772.35Z" transform="translate(-210.304 -317.315)" fill="#eef1f6"/>
    <path id="Path_30097" data-name="Path 30097" d="M647.59,1025.525a35.384,35.384,0,0,0,7.767-.525,64.427,64.427,0,0,0-1.181-7.614c-4.582-21.889-1.036-50.147-1.036-50.147s-5.692-6.472-16.878,5.529-3.713,24.425,1.376,32.745c2.731,4.465,6.075,13.037,8.586,20.016Z" transform="translate(-235.762 -441.962)" fill="#eef1f6"/>
    <path id="Path_30098" data-name="Path 30098" d="M619.976,786.79c-8.93-15.144-19.4-15.86-19.4-15.86s-19.484,9.771-17.768,21.481,8.724,10.455,17.857,19.445c1.454,1.419,6.245-1.17,7.476.872C609.4,809.739,612.074,792.17,619.976,786.79Z" transform="translate(-204.952 -316.399)" fill="#dce2ed"/>
    <path id="Path_30099" data-name="Path 30099" d="M570.656,773.3c4.2,6.479,15.679,18.24,12.792,45.083-3.546,32.982-28.372,40.785-29.6,35.614s4.313-25.286.06-37.66-19.573-24.471-8.026-37.238C554.467,769.627,567.014,767.683,570.656,773.3Z" transform="translate(-178.465 -315.907)" fill="#fff"/>
    <path id="Path_30100" data-name="Path 30100" d="M550.831,1049.452c1.135,0,2.266,0,3.4-.053h.025a38.255,38.255,0,0,1,3.976-1.255,50.078,50.078,0,0,0,.809-7.38c.968-20.24,10.788-44.25,10.788-44.25s-3.639-6.948-16.583,1.064-9.083,20.591-6.416,29.042C548.785,1032.83,550.207,1043.966,550.831,1049.452Z" transform="translate(-180.071 -460.175)" fill="#fff"/>
    <path id="Path_30101" data-name="Path 30101" d="M591.715,965.45s7.487,12.647,2.178,19.226-13.583,7.331-13.583,7.331Z" transform="translate(-203.411 -441.932)" fill="#fff"/>
    <path id="Path_30102" data-name="Path 30102" d="M677.676,966s4.568,9.04,2.029,13.36-10.285,6.029-10.285,6.029Z" transform="translate(-260.919 -442.287)" fill="#eef1f6"/>
    <path id="Path_30103" data-name="Path 30103" d="M567.778,1136.043a35.393,35.393,0,0,0,1.3-8.235c-3.075-.521-6.157-1.007-9.249-1.419.709,4.749,1.167,9.04,1.362,10.909a43.138,43.138,0,0,1,6.586-1.255Z" transform="translate(-190.195 -545.795)" fill="#ffac43"/>
    <path id="Path_30104" data-name="Path 30104" d="M639.717,810.641c.028-2.2-.028-4.472-.184-6.806a72.494,72.494,0,0,0-3.242-17.789.378.378,0,0,0-.039-.117c-.124-.372-.252-.741-.379-1.1l-.053-.149q-.429-1.2-.894-2.305h0c-.145-.355-.294-.709-.443-1.025l-.064-.138c-.145-.326-.294-.649-.447-.961q0-.02,0-.039-.482-1-.986-1.912l-.064-.113c-.145-.266-.294-.528-.447-.784l-.053-.1q-.507-.858-1.018-1.628l-.057-.081c-.149-.227-.3-.447-.45-.66-.028-.039-.053-.078-.082-.113-.355-.482-.684-.94-1.025-1.372l-.025-.032-.472-.578-.092-.11c-.145-.174-.291-.355-.436-.507l-.06-.067q-.5-.564-.989-1.064l-.092-.092-.4-.39-.092-.089c-.316-.3-.628-.585-.933-.848l-.075-.064c-.128-.106-.252-.213-.376-.312l-.1-.082-.383-.3-.046-.035c-.145-.11-.287-.22-.429-.323l-.039-.028c-.121-.089-.241-.177-.355-.259l-.085-.06-.323-.22-.064-.039c-.252-.17-.493-.319-.709-.454l-.057-.035-.284-.163-.046-.028c-.33-.184-.621-.333-.872-.454.192-.355.394-.67.6-.993a19.23,19.23,0,0,0-5.547-2.7c-3.27-.543-13.8,17.186-13.8,17.186s19.779,9.806,24.471,9.458a33.287,33.287,0,0,0,4.369-.589C635.17,793.735,638.2,800.558,639.717,810.641Z" transform="translate(-218.196 -311.349)" fill="#fff"/>
    <path id="Path_30105" data-name="Path 30105" d="M677.8,1107.91a80.472,80.472,0,0,0-10.327,2.451c.94,2.4,1.841,4.823,2.653,7.093h1.365a35.391,35.391,0,0,0,7.767-.525,64.429,64.429,0,0,0-1.181-7.614Q677.943,1108.609,677.8,1107.91Z" transform="translate(-259.66 -533.869)" fill="#ffac43"/>
    <path id="Path_30106" data-name="Path 30106" d="M542.936,592.905a37.478,37.478,0,0,0-3.653,4.731c-3.518,5.238-4.224,13.352-1.933,22.389,2.837,11.171,7.054,25.907,10.757,31.028,1.192,1.642,1.185,4.887,2.053,6.075,2,2.731,5.823.837,5.866-1.926.17-12.03,11.927-41.395,8.157-50.154C556.179,586.412,544.348,591.423,542.936,592.905Z" transform="translate(-174.833 -200.391)" fill="#fff"/>
    <path id="Path_30107" data-name="Path 30107" d="M593.2,672q-.355.709-.731,1.419c-.933,2.706-1.887,5.408-2.709,8.157a39.621,39.621,0,0,1-2.876,7.246,9.936,9.936,0,0,1-1.025,2.021,15.213,15.213,0,0,1-2.107,2.444,16.474,16.474,0,0,1-1.983,1.8,24.846,24.846,0,0,1,2.873-.709,32,32,0,0,1,3.192-.44C589.551,686.874,591.807,678.905,593.2,672Z" transform="translate(-204.354 -252.554)" fill="#dce2ed"/>
    <path id="Path_30108" data-name="Path 30108" d="M640.123,727.038s-38.412,12.285-43.959,10.579,12.292-20.137,12.292-20.137,16.374,1.773,25.045,4.451a22.242,22.242,0,0,0,6.905,1.153c3.32-.064,4.522-1.287,4.522-1.287s2.922,3.192,5.674,5.565,7.281,2.979,8.7,2.231.6,1.72-2.617,2.507S641.375,730,640.123,727.038Z" transform="translate(-212.953 -281.905)" fill="#ffac43"/>
    <path id="Path_30109" data-name="Path 30109" d="M730.8,732.077l1.419-2.554a.561.561,0,0,1,.628-.266c1.117.326,4.256,1.248,6.355,1.972a7.911,7.911,0,0,0,3.862.607s-.525,1.028-3.284,1.163-7.178-.181-7.178-.181Z" transform="translate(-300.53 -289.493)" fill="#ffac43"/>
    <path id="Path_30110" data-name="Path 30110" d="M608.19,718.724c-3.621-.741-7.965-1.752-11.746-2.667a33.316,33.316,0,0,0-23.627,2.919c-7.288,3.922-11.5,9.859,4.809,17.094,3,1.333,16.8-2.55,28.074-5.784A45.657,45.657,0,0,1,608.19,718.724Z" transform="translate(-194.415 -280.357)" fill="#fff"/>
    <path id="Path_30111" data-name="Path 30111" d="M585.672,764.586a1.459,1.459,0,0,1-.245-.074c-2.224-.887-4.983-1.44-7.448-2.348a39.081,39.081,0,0,0,7.153,3.947c2.61,1.16,13.4-1.628,23.577-4.5C598.557,763.876,588.431,765.8,585.672,764.586Z" transform="translate(-201.908 -310.384)" fill="#dce2ed"/>
    <path id="Path_30112" data-name="Path 30112" d="M563.052,1167.45c.564,1.543,1.277,1.894,2.053,3.468-.163-.032,25.957,7.448,25.957,7.448a89.267,89.267,0,0,1,4.256,8.8c.919,2.894-46.409-.844-46.012-.731-.1,0,4.781-18.2,4.781-18.2S562.052,1167.978,563.052,1167.45Z" transform="translate(-183.401 -572.293)" fill="#fff"/>
    <path id="Path_30113" data-name="Path 30113" d="M556.034,1220.962c13.026.135,26.322,1.351,39.061.78,1.114,2.4,2.515,5.728,2.515,5.728q-23.822-.546-48.459-1.351s0-2.234.184-5.146Q552.711,1220.916,556.034,1220.962Z" transform="translate(-183.302 -606.814)" fill="#b6b6b6"/>
    <path id="Path_30114" data-name="Path 30114" d="M597.978,1172.217c1.575,2.433,3.341,5.008,5.27,7.731.206.287-.185.646-.39.355q-2.89-4.085-5.252-7.728c-.163-.259.206-.621.372-.355Z" transform="translate(-214.547 -575.311)" fill="#b6b6b6"/>
    <path id="Path_30115" data-name="Path 30115" d="M598.112,1171.505c-1.951,1.826-3.961,3.869-6.029,6.075-.6.638-1.188,1.291-1.773,1.951-.245.27-.628-.039-.383-.309,2.1-2.319,4.171-4.5,6.171-6.483q.865-.851,1.72-1.656c.227-.213.518.206.291.422Z" transform="translate(-209.567 -574.6)" fill="#b6b6b6"/>
    <path id="Path_30116" data-name="Path 30116" d="M712.071,694.294c-.8-.4-1.167-1.064-.819-1.511l13.6-16.917a.565.565,0,0,1,.092-.092,1.929,1.929,0,0,1,1.982.046l42.508,21.449c.8.4,1.167,1.064.826,1.507l-13.6,16.917a.846.846,0,0,1-.1.1,1.969,1.969,0,0,1-1.975-.05Z" transform="translate(-287.83 -254.828)"/>
    <path id="Path_30117" data-name="Path 30117" d="M737.941,723.667a.823.823,0,0,1-.83-.018.674.674,0,0,1-.4-.436.245.245,0,0,1,.053-.2l3.039-3.791a.393.393,0,0,1,.039-.039.826.826,0,0,1,.826.021c.333.167.489.45.355.631l-3.039,3.788A.181.181,0,0,1,737.941,723.667Z" transform="translate(-304.345 -282.942)" fill="#b7b7b7"/>
    <g id="Group_39330" data-name="Group 39330" transform="translate(427.23 423.413)">
      <path id="Path_30118" data-name="Path 30118" d="M814.134,741.069a3.089,3.089,0,0,1-.525.355c-2.1,1.149-5.876.521-8.441-1.419-2.326-1.745-2.837-3.958-1.365-5.21a2.9,2.9,0,0,1,.525-.355c2.1-1.153,5.877-.525,8.441,1.419C815.095,737.6,815.623,739.814,814.134,741.069Z" transform="translate(-774.338 -715.891)" fill="#b7b7b7"/>
      <path id="Path_30119" data-name="Path 30119" d="M763.951,719.665a.823.823,0,0,1-.83,0,.685.685,0,0,1-.4-.433.248.248,0,0,1,.053-.2L773.3,705.951a.184.184,0,0,1,.035-.039.83.83,0,0,1,.833.018c.333.17.489.45.355.631L764,719.647Z" transform="translate(-748.36 -697.785)" fill="#b7b7b7"/>
      <path id="Path_30120" data-name="Path 30120" d="M774.851,725.409a.816.816,0,0,1-.83-.021.678.678,0,0,1-.4-.433.245.245,0,0,1,.053-.195L784.2,711.674l.036-.039a.83.83,0,0,1,.833.021c.333.167.49.451.355.628L774.9,725.37A.187.187,0,0,1,774.851,725.409Z" transform="translate(-755.395 -701.479)" fill="#b7b7b7"/>
      <path id="Path_30121" data-name="Path 30121" d="M723.055,699.433c-.709-.355-1.014-.936-.709-1.309l11.789-14.651.078-.078a1.716,1.716,0,0,1,1.72.039l36.859,18.58c.709.355,1.014.936.709,1.309l-11.8,14.668a.92.92,0,0,1-.082.085,1.718,1.718,0,0,1-1.717-.043Zm37.593,3.713c-2.564-1.926-6.345-2.553-8.441-1.419a2.883,2.883,0,0,0-.525.355c-1.486,1.252-.961,3.465,1.365,5.21,2.564,1.926,6.345,2.554,8.441,1.419a3.078,3.078,0,0,0,.525-.355c1.49-1.255.961-3.469-1.365-5.213m-8.76-9.788a.841.841,0,0,0-.833-.021l-.036.039L740.5,706.459a.245.245,0,0,0-.053.2.678.678,0,0,0,.4.433.816.816,0,0,0,.83.021.184.184,0,0,0,.035-.039l10.519-13.087c.149-.177,0-.461-.355-.628m-4.735-2.029L736.62,704.409a.248.248,0,0,0-.053.2.684.684,0,0,0,.4.433.823.823,0,0,0,.83,0l.039-.035,10.558-13.062c.149-.181,0-.461-.355-.631a.829.829,0,0,0-.833-.018.181.181,0,0,0-.035.039m-19.8,8.7a.674.674,0,0,0,.4.436.823.823,0,0,0,.83.018.179.179,0,0,0,.035-.039l3.039-3.788c.145-.181,0-.465-.354-.631a.826.826,0,0,0-.826-.021.378.378,0,0,0-.039.039l-3.039,3.791a.245.245,0,0,0-.053.2" transform="translate(-722.228 -683.185)" fill="#fff"/>
    </g>
    <path id="Path_30122" data-name="Path 30122" d="M729.015,727.649c3.153-.447,5.369-.234,4.043.4s-7.4,4.206-6.93,4.653-5.788-1.287-5.788-1.287l1.16-1.44A25.914,25.914,0,0,1,729.015,727.649Z" transform="translate(-293.78 -288.314)" fill="#ffac43"/>
    <path id="Path_30123" data-name="Path 30123" d="M843.654,488.934a36.007,36.007,0,0,0-2.912-2.234h-.057a.066.066,0,0,0-.025.018l-.018.021L788.51,561.818h0v.018a2.687,2.687,0,0,0,.287.227c.138.1.316.223.521.355s.429.287.674.44.5.319.752.475l.6.355q.27.159.468.266c.131.071.234.128.309.16s.114.046.121.036Z" transform="translate(-337.773 -132.97)"/>
    <path id="Path_30124" data-name="Path 30124" d="M783.385,698.377l-.376.078-3.089,8,6.816-5.674h0a2.812,2.812,0,0,0-3.351-2.4Z" transform="translate(-332.23 -269.54)" fill="#ff5d5d"/>
    <path id="Path_30125" data-name="Path 30125" d="M820.434,635.6s7.15-1.543,8.426-2.837-1.39-3.352-5.118-1.27S820.434,635.6,820.434,635.6Z" transform="translate(-358.367 -225.839)" fill="#ffac43"/>
    <path id="Path_30126" data-name="Path 30126" d="M826,643.277s-3.071,4.547-6.628,5.465-3.362,3.139-2.429,4.181,5.6,1.592,7.253-.355a14.321,14.321,0,0,0,2.483-8.309C826.393,642.561,826,643.277,826,643.277Z" transform="translate(-355.75 -233.921)" fill="#ffac43"/>
    <path id="Path_30127" data-name="Path 30127" d="M750.941,701.213a.823.823,0,0,1-.83-.018.674.674,0,0,1-.4-.436.245.245,0,0,1,.053-.2l6.586-7.338a.385.385,0,0,1,.039-.039.826.826,0,0,1,.826.021c.333.167.489.451.355.631l-6.586,7.334A.186.186,0,0,1,750.941,701.213Z" transform="translate(-312.735 -266.163)" fill="#ff5d5d"/>
    <path id="Path_30128" data-name="Path 30128" d="M598.576,502.791s5.384.234,9.146-1.117a81.08,81.08,0,0,1,8.728-2.419l5.256-13.785-19.442,4.564-16.154,2.795Z" transform="translate(-207.154 -132.177)" fill="#5673a9"/>
    <path id="Path_30129" data-name="Path 30129" d="M610.195,488.633l-14.186,3.206-11.349-.177.514-.22,10.065-4.33,18.055-3.791,7.476.762Z" transform="translate(-206.219 -130.789)" fill="#355586"/>
    <path id="Path_30130" data-name="Path 30130" d="M659.866,502.55l.982.309-.45,6.387-1.9.766-1.837-5.054,1.305-1.646Z" transform="translate(-252.684 -143.199)" fill="#ffac43"/>
    <path id="Path_30131" data-name="Path 30131" d="M618.83,526.3l1.358,1.692a56.51,56.51,0,0,0,10.285-1.064,22.546,22.546,0,0,0,7.377-2.7l-.067-1.372a49.153,49.153,0,0,1-9.1,2.511C624.8,525.865,618.83,526.3,618.83,526.3Z" transform="translate(-228.27 -156.3)"/>
    <path id="Path_30132" data-name="Path 30132" d="M662.076,532.976c.787-1.876,3.678-4.121,5-5.128a.709.709,0,0,0-.355-1.266l-13.711-3.242-10.774,2.919,18,7.5A1.418,1.418,0,0,0,662.076,532.976Z" transform="translate(-243.378 -156.616)"/>
    <path id="Path_30133" data-name="Path 30133" d="M571.343,774.769s16.591,7.515,25.1,5.032,9.161-6.341,9.161-6.341l.89,5.359s-6.508,5.948-18.566,4.529-19.08-7.59-19.08-7.59Z" transform="translate(-196.016 -318.031)"/>
    <path id="Path_30134" data-name="Path 30134" d="M559.533,775.83s-15.36,54.8-16.069,65.791,1.773,11.7,3.546,10.994,3.9-10.64,3.9-12.413S561.2,776.366,561.2,776.366Z" transform="translate(-179.553 -319.561)"/>
    <path id="Path_30135" data-name="Path 30135" d="M553.392,799.014l-17.023-5.674-.709,2.128,15.959,5.564Z" transform="translate(-174.596 -330.861)"/>
    <rect id="Rectangle_19775" data-name="Rectangle 19775" width="4.61" height="12.058" transform="translate(384.275 457.177) rotate(11.23)"/>
    <rect id="Rectangle_19776" data-name="Rectangle 19776" width="4.61" height="12.058" transform="translate(390.659 458.24) rotate(11.23)"/>
    <rect id="Rectangle_19777" data-name="Rectangle 19777" width="4.238" height="11.086" transform="translate(406.518 456.917) rotate(-18.32)"/>
    <path id="Path_30136" data-name="Path 30136" d="M555.951,763.27l-9.4,16.179s-4.256-1.919-4.522-2.575,3.922-8.866,3.922-8.866-4.057-5.6-3.628-6.628,6.894-8.639,6.894-8.639l8.622,7.706Z" transform="translate(-178.698 -304.66)"/>
    <ellipse id="Ellipse_4716" data-name="Ellipse 4716" cx="2.415" cy="4.227" rx="2.415" ry="4.227" transform="matrix(0.841, -0.542, 0.542, 0.841, 518.201, 594.89)" fill="#909090"/>
    <path id="Path_30137" data-name="Path 30137" d="M994.785,1180.752c-.635,1.543,1.351,3.823,4.433,5.093s7.448-2.529,7.448-2.529a20.358,20.358,0,0,0-5.128-3.057C998.431,1178.989,995.416,1179.209,994.785,1180.752Z" transform="translate(-470.817 -580.027)" fill="#909090"/>
    <path id="Path_30138" data-name="Path 30138" d="M982.3,1167.39a6.83,6.83,0,0,0,.876,1.968c1.266,1.961,3.192,2.965,4.32,2.245a1.9,1.9,0,0,0,.763-1.557c.33,1.284.135,2.415-.614,2.9-1.121.709-3.057-.28-4.323-2.245A5.779,5.779,0,0,1,982.3,1167.39Z" transform="translate(-462.836 -572.254)" fill="#6c6c6c"/>
    <path id="Path_30139" data-name="Path 30139" d="M994.726,1183.66a8.052,8.052,0,0,0,4.341,3.568c2.28.94,5.245-.887,6.639-1.908.6.433.936.709.936.709s-4.344,3.8-7.448,2.529C996.247,1187.348,994.3,1185.2,994.726,1183.66Z" transform="translate(-470.818 -582.754)" fill="#6c6c6c"/>
    <path id="Path_30140" data-name="Path 30140" d="M1014.64,1193.837a2.169,2.169,0,0,0,.181-.135l.032-.032,2.351,5.76,1.968,6.664h-1.511l-1.128-6.593Z" transform="translate(-483.707 -589.214)" fill="#6c6c6c"/>
    <path id="Path_30141" data-name="Path 30141" d="M990.222,1193.53l-6.366,3.117L983.14,1206h1.511l.039-9.175,5.7-3.043Z" transform="translate(-463.378 -589.124)" fill="#6c6c6c"/>
    <path id="Path_30142" data-name="Path 30142" d="M990.369,1171.433l.355,13.122,1.419-.709-1.773-19.151-.709-.355v1.419Z" transform="translate(-467.586 -570.286)" fill="#6c6c6c"/>
    <path id="Path_30143" data-name="Path 30143" d="M953.532,1121.01a3.849,3.849,0,0,0,2.837.709c1.419-.355.507-1.99.507-1.99a4.767,4.767,0,0,1-1.926.926C954.241,1120.656,953.177,1120.656,953.532,1121.01Z" transform="translate(-444.225 -541.497)" fill="#6c6c6c"/>
    <line id="Line_3369" data-name="Line 3369" x2="20.385" transform="translate(516.584 616.542)" fill="none" stroke="#b5b5b5" stroke-miterlimit="10" stroke-width="2"/>
    <path id="Path_30144" data-name="Path 30144" d="M968.839,1135.715a1.409,1.409,0,0,1,.163-.085l-3.922-3.667-3.848-11.242-.972,1.653,4.164,10.058,3.993,3.71A1.48,1.48,0,0,1,968.839,1135.715Z" transform="translate(-448.612 -542.136)" fill="#6c6c6c"/>
    <path id="Path_30145" data-name="Path 30145" d="M968.148,1165.58s3.44-1.064,4.1-3.391-.106-4.582-1.709-5.036-3.44,1.064-4.1,3.391S968.148,1165.58,968.148,1165.58Z" transform="translate(-452.525 -565.597)" fill="#909090"/>
    <path id="Path_30146" data-name="Path 30146" d="M966.35,1165.2a9.069,9.069,0,0,0,1.6,2.837s3.44-1.064,4.1-3.391a5.956,5.956,0,0,0,.22-2.128,5.509,5.509,0,0,1,0,3.192c-.66,2.327-4.1,3.39-4.1,3.39A7.978,7.978,0,0,1,966.35,1165.2Z" transform="translate(-452.543 -569.111)" fill="#6c6c6c"/>
    <path id="Path_30147" data-name="Path 30147" d="M954.409,1159.711s-6.866-3.238-8.2.677.379,6.813,1.064,6.664,1.66-.709,1.163-1.341-.617.5-.617.5-.816,1.266-1.341-1.163-.578-6.029,1.926-6.217a14.213,14.213,0,0,1,5.721,1.305S954.906,1160.329,954.409,1159.711Z" transform="translate(-439.23 -566.487)" fill="#6c6c6c"/>
    <path id="Path_30148" data-name="Path 30148" d="M960.158,1159.851c.443.174.759.411,1,.355.11-.021.263-.1.263-.209s-.142-.1-.142-.1a7.546,7.546,0,0,0-6.646.443c-3.809,1.936-2.4,5.153-2.071,5.281s1.773.319,1.709-.472-.791.071-.791.071-.589.532-.862-.709a2.848,2.848,0,0,1,.709-2.773C953.92,1161.209,957.519,1158.815,960.158,1159.851Z" transform="translate(-443.304 -567.066)" fill="#6c6c6c"/>
    <path id="Path_30149" data-name="Path 30149" d="M587.5,523.9s-3.032,1.6-5.05.475-3.014-3.156-2.238-4.543,3.032-1.6,5.043-.475S587.5,523.9,587.5,523.9Z" transform="translate(-203.177 -153.58)" fill="#5673a8"/>
    <ellipse id="Ellipse_4717" data-name="Ellipse 4717" cx="2.302" cy="4.025" rx="2.302" ry="4.025" transform="translate(378.526 370.877)" fill="#5673a8"/>
    <path id="Path_30150" data-name="Path 30150" d="M578.481,556.075c1.3.908.89,3.756-.922,6.366s-7.249,1.809-7.249,1.809a19.337,19.337,0,0,1,2.525-5.093C574.647,556.55,577.176,555.157,578.481,556.075Z" transform="translate(-196.958 -177.559)" fill="#5673a8"/>
    <path id="Path_30151" data-name="Path 30151" d="M586.771,522.64a8.6,8.6,0,0,1,.819,2.983s-3.032,1.6-5.043.475a5.7,5.7,0,0,1-1.568-1.277,5.245,5.245,0,0,0,2.128,2.128c2.007,1.124,5.04-.475,5.04-.475A7.476,7.476,0,0,0,586.771,522.64Z" transform="translate(-203.844 -156.164)" fill="#355585"/>
    <path id="Path_30152" data-name="Path 30152" d="M589.175,537.44a6.458,6.458,0,0,1,.312,2.025c0,2.224-1.029,4.025-2.3,4.025a1.8,1.8,0,0,1-1.419-.851c.4,1.2,1.138,2,1.986,2,1.27,0,2.3-1.805,2.3-4.025a5.508,5.508,0,0,0-.879-3.178Z" transform="translate(-206.935 -165.716)" fill="#355585"/>
    <path id="Path_30153" data-name="Path 30153" d="M578.616,556.92a7.642,7.642,0,0,1-1.631,5.1c-1.341,1.929-4.66,2-6.3,1.9-.259.656-.376,1.064-.376,1.064s5.437.8,7.249-1.809C579.3,560.658,579.744,557.934,578.616,556.92Z" transform="translate(-196.958 -178.287)" fill="#355585"/>
    <path id="Path_30154" data-name="Path 30154" d="M577.543,575.54h-.255l-.607,3.493-2.291,4.454h1.44l1.419-4.742Z" transform="translate(-199.591 -190.303)" fill="#355585"/>
    <path id="Path_30155" data-name="Path 30155" d="M597.09,523.559l4.593-4.727,6.4-5.533-1.149-1.149-6.391,6.533-3.454,3.933Z" transform="translate(-214.24 -149.395)" fill="#355585"/>
    <path id="Path_30156" data-name="Path 30156" d="M570.2,509.679s-1.738-6.916-3.451-7.763-4.887-.287-4.61,1.727.862.862.862.575-.575-.575-.575-.575a1.481,1.481,0,0,1,1.419-1.727c1.706-.287,2.589,0,3.164.575a26.78,26.78,0,0,1,2.266,4.912c.032.266.61,2.277.61,2.277S570.2,509.966,570.2,509.679Z" transform="translate(-191.674 -142.544)" fill="#355585"/>
    <path id="Path_30157" data-name="Path 30157" d="M579.825,500.836s0-9.49-2.014-10.352-3.451-.287-3.451.575.574,2.014.862,1.44-.287-.578-.287-.578-.862-.575.287-1.149,2.3-.575,2.876.575a6.886,6.886,0,0,1,.862,2.589c.287,1.436.592,6.9.592,6.9S579.552,501.124,579.825,500.836Z" transform="translate(-199.572 -135.138)" fill="#355585"/>
    <path id="Path_30158" data-name="Path 30158" d="M594.392,579.3l1.259-5.6-3.451-4.313V569.1l4.025,4.025-.759,6.178Z" transform="translate(-211.085 -186.147)" fill="#355585"/>
    <path id="Path_30159" data-name="Path 30159" d="M566.756,544.238l4.011-4.164v.862l-3.873,4.458-5.674-4.965,1.064-.709Z" transform="translate(-191.092 -167.187)" fill="#355585"/>
    <path id="Path_30160" data-name="Path 30160" d="M677.475,341.787,662.392,358.1l-15.147,16.215-7.547,8.157-3.8,4.043q-1.915,2.007-3.862,3.986l-3.9,3.94c-1.316,1.3-2.621,2.614-3.951,3.9q-3.958,3.9-8.054,7.653l-.128-.121q3.571-4.256,7.281-8.395c1.227-1.387,2.483-2.749,3.72-4.121l3.759-4.086q1.894-2.029,3.809-4.036l3.866-3.979,7.8-7.909,15.512-15.878,15.6-15.8Z" transform="translate(-226.444 -39.375)"/>
    <path id="Path_30161" data-name="Path 30161" d="M623.658,508.72s1.954.617,1.667,1.773a1.986,1.986,0,0,1-1.312,1.419S622.8,509.007,623.658,508.72Z" transform="translate(-231.187 -147.181)" fill="#355585"/>
    <path id="Path_30162" data-name="Path 30162" d="M556.453,539.958l-.355-1.064a2.729,2.729,0,0,0-2.128-.355c-1.064.355-1.419.709-1.773.355s-1.064.355,0,1.064,3.273-.1,3.273-.1Z" transform="translate(-184.906 -166.361)" fill="#355585"/>
    <line id="Line_3370" data-name="Line 3370" x2="9.583" transform="translate(374.799 393.156)" fill="none" stroke="#b5b5b5" stroke-miterlimit="10" stroke-width="2"/>
    <rect id="Rectangle_19778" data-name="Rectangle 19778" width="47.956" height="20.786" rx="3" transform="translate(539.285 491.862) rotate(180)" fill="#f7f7f7" stroke="#dadada" stroke-miterlimit="10" stroke-width="1" stroke-dasharray="4 6"/>
    <rect id="Rectangle_19779" data-name="Rectangle 19779" width="64.986" height="20.786" rx="3" transform="translate(641.471 384.612) rotate(180)" fill="#e4e4e4"/>
    <rect id="Rectangle_19780" data-name="Rectangle 19780" width="34.511" height="20.786" rx="3" transform="translate(676.35 423.163) rotate(180)" fill="#d9d9d9"/>
    <rect id="Rectangle_19781" data-name="Rectangle 19781" width="27.776" height="23.524" rx="3" transform="translate(265.681 450.779)" fill="#e4e4e4"/>
    <rect id="Rectangle_19782" data-name="Rectangle 19782" width="21.619" height="15.817" rx="2" transform="translate(292.162 407.296)" fill="#fefefe"/>
    <g id="Group_39331" data-name="Group 39331" transform="translate(297.08 596.584)">
      <path id="Path_30163" data-name="Path 30163" d="M419.59,1187.269c-.082-.121.071-.135.355-.025a3.013,3.013,0,0,1,.638.333,1.354,1.354,0,0,1,.188.16l2.784,3.192a.164.164,0,0,1,.025.036c.082.12-.074.135-.355.025a2.485,2.485,0,0,1-.826-.493l-2.784-3.192Z" transform="translate(-396.757 -1181.603)" fill="#b7b7b7"/>
      <path id="Path_30164" data-name="Path 30164" d="M394.681,1178.1c-.082-.121.074-.135.355-.025a3,3,0,0,1,.638.33,1.165,1.165,0,0,1,.188.163l9.6,11.072.028.032c.078.124-.074.135-.372.025a2.485,2.485,0,0,1-.826-.493l-9.6-11.072Z" transform="translate(-380.682 -1175.686)" fill="#b7b7b7"/>
      <path id="Path_30165" data-name="Path 30165" d="M383.851,1173.956c-.082-.121.074-.138.372-.025a2.9,2.9,0,0,1,.635.333.994.994,0,0,1,.188.16l9.6,11.072.028.032c.078.124-.074.135-.372.025a2.48,2.48,0,0,1-.826-.493l-9.59-11.072Z" transform="translate(-373.693 -1173.011)" fill="#b7b7b7"/>
      <path id="Path_30166" data-name="Path 30166" d="M355.443,1172.391a1.367,1.367,0,0,1-.16-.312c-.355-1.032,1.929-.709,5.086.709,2.858,1.294,5.462,3.057,6.182,4.142a1.526,1.526,0,0,1,.16.312c.355,1.029-1.933.709-5.089-.709C358.763,1175.236,356.16,1173.477,355.443,1172.391Z" transform="translate(-355.248 -1171.475)" fill="#b7b7b7"/>
    </g>
    <ellipse id="Ellipse_4718" data-name="Ellipse 4718" cx="2.415" cy="4.227" rx="2.415" ry="4.227" transform="translate(279.292 593.249) rotate(-11.95)" fill="#909090"/>
    <path id="Path_30167" data-name="Path 30167" d="M315.585,1180.751c-.635,1.543,1.348,3.823,4.433,5.093s7.43-2.529,7.43-2.529a20.441,20.441,0,0,0-5.128-3.057C319.234,1178.989,316.22,1179.209,315.585,1180.751Z" transform="translate(-32.494 -580.027)" fill="#909090"/>
    <path id="Path_30168" data-name="Path 30168" d="M307.4,1164a6.8,6.8,0,0,0,.117,2.149c.482,2.284,1.933,3.9,3.238,3.635a1.884,1.884,0,0,0,1.266-1.181c-.149,1.316-.734,2.305-1.607,2.483-1.305.273-2.756-1.355-3.238-3.639A5.781,5.781,0,0,1,307.4,1164Z" transform="translate(-27.036 -570.067)" fill="#6c6c6c"/>
    <path id="Path_30169" data-name="Path 30169" d="M315.537,1183.66a8.049,8.049,0,0,0,4.344,3.568c2.277.94,5.245-.887,6.639-1.908.6.433.936.709.936.709s-4.348,3.8-7.43,2.529C317.062,1187.348,315.119,1185.2,315.537,1183.66Z" transform="translate(-32.503 -582.754)" fill="#6c6c6c"/>
    <path id="Path_30170" data-name="Path 30170" d="M335.46,1193.837a2.1,2.1,0,0,0,.177-.135l.032-.032,2.355,5.76,1.968,6.664h-1.5l-1.131-6.593Z" transform="translate(-45.397 -589.214)" fill="#6c6c6c"/>
    <path id="Path_30171" data-name="Path 30171" d="M311.039,1193.53l-6.366,3.117L303.96,1206h1.507l.043-9.175,5.7-3.043Z" transform="translate(-25.069 -589.124)" fill="#6c6c6c"/>
    <path id="Path_30172" data-name="Path 30172" d="M300.765,1175.875l-2.295,8.433,1.1.4,1.564-8.433,1.1-4.841-.365-.808Z" transform="translate(-21.526 -574.345)" fill="#6c6c6c"/>
    <path id="Path_30173" data-name="Path 30173" d="M292.195,1159.411s3.593.23,5.04-1.709,1.532-4.32.2-5.32-3.593-.23-5.04,1.71S292.195,1159.411,292.195,1159.411Z" transform="translate(-17.152 -562.286)" fill="#909090"/>
    <path id="Path_30174" data-name="Path 30174" d="M291.892,1160.147a9.055,9.055,0,0,0,.489,3.21s3.593.231,5.04-1.709a5.945,5.945,0,0,0,.958-1.9,5.533,5.533,0,0,1-1.138,2.972c-1.447,1.94-5.04,1.709-5.04,1.709A7.985,7.985,0,0,1,291.892,1160.147Z" transform="translate(-17.157 -567.324)" fill="#6c6c6c"/>
    <path id="Path_30175" data-name="Path 30175" d="M280.792,1148.721s-5.263-5.469-7.9-2.284-2.071,6.5-1.369,6.607,1.805-.081,1.564-.837-.755.245-.755.245-1.213.89-.837-1.564,1.61-5.855,4.011-5.128a14.474,14.474,0,0,1,4.884,3.256S281.037,1149.476,280.792,1148.721Z" transform="translate(-3.756 -558.089)" fill="#6c6c6c"/>
    <path id="Path_30176" data-name="Path 30176" d="M277.785,1140.025a9.179,9.179,0,0,0,1.277,1.571c.16.1.394.192.426.064s-.163-.27-.163-.27a22.274,22.274,0,0,0-9.37-7.217c-5.887-2.231-4.933,3.039-4.515,3.568s2.373,2.426,2.518,1.451-1.11-.823-1.11-.823-.982-.085-.972-1.812.855-2.4,1.837-2.312S274.44,1135.791,277.785,1140.025Z" transform="translate(0 -550.464)" fill="#6c6c6c"/>
    <line id="Line_3371" data-name="Line 3371" x2="55.85" transform="translate(278.902 616.542)" fill="none" stroke="#b5b5b5" stroke-miterlimit="10" stroke-width="2"/>
    <g id="Group_39332" data-name="Group 39332" transform="translate(282.264 594.409)">
      <path id="Path_30177" data-name="Path 30177" d="M419.59,1187.269c-.082-.121.071-.135.355-.025a3.013,3.013,0,0,1,.638.333,1.354,1.354,0,0,1,.188.16l2.784,3.192a.164.164,0,0,1,.025.036c.082.12-.074.135-.355.025a2.485,2.485,0,0,1-.826-.493l-2.784-3.192Z" transform="translate(-381.941 -1179.428)" fill="#b7b7b7"/>
      <path id="Path_30178" data-name="Path 30178" d="M394.681,1178.1c-.082-.121.074-.135.355-.025a3,3,0,0,1,.638.33,1.165,1.165,0,0,1,.188.163l9.6,11.072.028.032c.078.124-.074.135-.372.025a2.485,2.485,0,0,1-.826-.493l-9.6-11.072Z" transform="translate(-365.865 -1173.51)" fill="#b7b7b7"/>
      <path id="Path_30179" data-name="Path 30179" d="M383.851,1173.956c-.082-.121.074-.138.372-.025a2.9,2.9,0,0,1,.635.333.994.994,0,0,1,.188.16l9.6,11.072.028.032c.078.124-.074.135-.372.025a2.48,2.48,0,0,1-.826-.493l-9.59-11.072Z" transform="translate(-358.876 -1170.836)" fill="#b7b7b7"/>
      <path id="Path_30180" data-name="Path 30180" d="M324.794,1168.174l-11.324-2.834v.709l5.32,1.419,7.38,2.291Z" transform="translate(-313.47 -1165.34)" fill="#6c6c6c"/>
      <path id="Path_30181" data-name="Path 30181" d="M355.443,1172.391a1.367,1.367,0,0,1-.16-.312c-.355-1.032,1.929-.709,5.086.709,2.858,1.294,5.462,3.057,6.182,4.142a1.526,1.526,0,0,1,.16.312c.355,1.029-1.933.709-5.089-.709C358.763,1175.236,356.16,1173.477,355.443,1172.391Z" transform="translate(-340.431 -1169.299)" fill="#b7b7b7"/>
    </g>
    <path id="Path_30182" data-name="Path 30182" d="M466.956,1178.378a.83.83,0,0,1,.83,0,.681.681,0,0,1,.408.426.242.242,0,0,1-.046.2l-2.926,3.88-.039.039a.83.83,0,0,1-.83,0c-.355-.16-.5-.436-.355-.624l2.926-3.876Z" transform="translate(-128.314 -579.273)" fill="#b7b7b7"/>
    <g id="Group_39333" data-name="Group 39333" transform="translate(293.57 582.252)">
      <path id="Path_30183" data-name="Path 30183" d="M376.138,1157.273a3.149,3.149,0,0,1,.511-.372c2.064-1.213,5.862-.709,8.48,1.156,2.376,1.674,2.968,3.873,1.518,5.171a3.252,3.252,0,0,1-.514.355c-2.061,1.209-5.859.709-8.48-1.156C375.276,1160.766,374.684,1158.567,376.138,1157.273Z" transform="translate(-364.71 -1147.311)" fill="#b7b7b7"/>
      <path id="Path_30184" data-name="Path 30184" d="M427.466,1166.238a.83.83,0,0,1,.83,0,.677.677,0,0,1,.408.422.245.245,0,0,1-.046.2l-10.129,13.388-.039.039a.819.819,0,0,1-.83,0c-.355-.16-.5-.44-.355-.621l10.139-13.388Z" transform="translate(-391.749 -1153.691)" fill="#b7b7b7"/>
      <path id="Path_30185" data-name="Path 30185" d="M416.407,1160.795a.82.82,0,0,1,.83,0,.67.67,0,0,1,.408.422.252.252,0,0,1-.046.2L407.466,1174.8l-.035.039a.827.827,0,0,1-.833,0c-.337-.16-.5-.436-.355-.621l10.129-13.388Z" transform="translate(-384.612 -1150.177)" fill="#b7b7b7"/>
      <path id="Path_30186" data-name="Path 30186" d="M395.989,1148.8c.709.33,1.039.9.748,1.287L385.389,1165.1a.438.438,0,0,1-.078.085,1.7,1.7,0,0,1-1.72,0L346.2,1147.669c-.709-.33-1.039-.9-.752-1.284l11.349-15.009a.609.609,0,0,1,.078-.085,1.69,1.69,0,0,1,1.716,0Zm-37.7-2.614c2.621,1.851,6.419,2.365,8.48,1.156a3.251,3.251,0,0,0,.514-.355c1.451-1.3.858-3.5-1.518-5.171-2.617-1.851-6.416-2.369-8.48-1.156a3.157,3.157,0,0,0-.511.372c-1.454,1.294-.862,3.493,1.514,5.167m9.044,9.53a.826.826,0,0,0,.833,0l.035-.039,10.132-13.388a.251.251,0,0,0,.046-.2.67.67,0,0,0-.408-.422.82.82,0,0,0-.83,0l-.039.039-10.129,13.388c-.142.185.021.461.355.621m4.795,1.89,10.129-13.388a.245.245,0,0,0,.046-.2.677.677,0,0,0-.408-.422.829.829,0,0,0-.83,0l-.039.039-10.129,13.388c-.142.181.021.461.355.621a.82.82,0,0,0,.83,0l.039-.039m19.531-9.278a.681.681,0,0,0-.408-.426.83.83,0,0,0-.83,0l-.039.039-2.926,3.876c-.138.188.025.465.355.624a.83.83,0,0,0,.83,0l.039-.039,2.926-3.88a.241.241,0,0,0,.046-.2" transform="translate(-345.348 -1131.061)" fill="#fff"/>
    </g>
    <path id="Path_30187" data-name="Path 30187" d="M448.145,1194.8a.831.831,0,0,1,.83,0,.674.674,0,0,1,.411.422.266.266,0,0,1-.046.2l-6.384,7.526-.039.043a.84.84,0,0,1-.83,0c-.337-.16-.5-.436-.355-.624l6.384-7.522a.189.189,0,0,1,.028-.043Z" transform="translate(-113.946 -589.87)" fill="#ff5d5d"/>
    <path id="Path_30188" data-name="Path 30188" d="M345.634,1173.775a3.85,3.85,0,0,0-1.734-2.355c-1.319-.631-1.66,1.209-1.66,1.209a4.8,4.8,0,0,1,2.075.514C344.861,1173.594,345.7,1174.271,345.634,1173.775Z" transform="translate(-49.773 -574.77)" fill="#6c6c6c"/>
  </g>
</svg>
