<svg xmlns="http://www.w3.org/2000/svg" width="36.667" height="20" viewBox="0 0 36.667 20"><g transform="translate(0 0.001)"><g transform="translate(0 -0.001)"><path d="M-2230.115-614.953a2.962,2.962,0,0,1,1.212-1.721h-1.193l-.725.488v2.644l.326.279v-.009l.006.006Z" transform="translate(2230.821 631.632)" fill="#b7b7b7"/><path d="M-2218.9-617.111h-1.093l1.189-.266a.216.216,0,0,0,.168-.192.189.189,0,0,0-.006-.062.216.216,0,0,0-.261-.159l-2.845.635-.193.043a2.967,2.967,0,0,1,1.237,1.822h.565A2.962,2.962,0,0,1-2218.9-617.111Z" transform="translate(2227.359 632.103)" fill="#b7b7b7"/><path d="M-2204.3-641.462c-.224-.011-.432-.019-.623-.023h-.152a.788.788,0,0,0-.563.223.775.775,0,0,0-.235.555v12.33a1.326,1.326,0,0,0,1.2,1.2v.01h.182v.675h-6.723a2.933,2.933,0,0,1,1.236,1.8h.192c.012.078.022.155.029.233a5.461,5.461,0,0,1,.019.66h.52a2.652,2.652,0,0,0-.007-.758h.769v.993a.236.236,0,0,0,.24.232c.494,0,1.577.006,1.584,0a1.37,1.37,0,0,1,0,.21h9.841a3.172,3.172,0,0,1-.181-1.06,3.213,3.213,0,0,1,3.221-3.2,3.223,3.223,0,0,1,2.907,1.824l.035.076c.009.019.017.039.026.059s.026.063.039.095h0v.009a1.146,1.146,0,0,1,.04.112h0a4.819,4.819,0,0,1,.169,1.1,12.75,12.75,0,0,1,0,1.413v.012h.11a5.8,5.8,0,0,0,3.33-.738.768.768,0,0,0,.308-.613v-1.285l-.023-.237h.011s-.109-1.7-.315-2.819a1.835,1.835,0,0,0-1.125-1.422,53.146,53.146,0,0,0-6.352-1.7h0l-1.718-3,.635-.026h.083c.282,0,.469-.157.183-.436l-.3-.279a1.706,1.706,0,0,0-.546-.343,1.76,1.76,0,0,0-.639-.12l-.387-.571c-2.02-3.88-3.384-4.439-3.384-4.439a9.306,9.306,0,0,0-3.64-.745m3.72,10.129a.687.687,0,0,1-.612-.673v-2.129a.377.377,0,0,1,.118-.268.384.384,0,0,1,.276-.1l3.261.041a.654.654,0,0,1,.583.366l1.407,3.153Zm12.968,3.81a14.61,14.61,0,0,0-2.456-1.363c-.95-.483-1-.88-1-.88a19.882,19.882,0,0,1,2.655.974,1.5,1.5,0,0,1,.8,1.263Z" transform="translate(2223.454 641.485)" fill="#b7b7b7"/><path d="M-2184.3-616.97a2.649,2.649,0,0,0-2.686,2.611,2.65,2.65,0,0,0,2.686,2.612,2.651,2.651,0,0,0,2.686-2.612A2.65,2.65,0,0,0-2184.3-616.97Z" transform="translate(2214.011 631.747)" fill="#b7b7b7"/><path d="M-2215.8-616.97a2.649,2.649,0,0,0-2.686,2.611,2.65,2.65,0,0,0,2.686,2.612,2.649,2.649,0,0,0,2.685-2.612A2.649,2.649,0,0,0-2215.8-616.97Z" transform="translate(2226.082 631.747)" fill="#b7b7b7"/><path d="M-2225.547-616.789a2.747,2.747,0,0,0-.983-.181,2.744,2.744,0,0,0-.984.181,2.614,2.614,0,0,0-1.7,2.43,2.65,2.65,0,0,0,2.686,2.612,2.65,2.65,0,0,0,2.686-2.612,2.614,2.614,0,0,0-1.7-2.43Z" transform="translate(2230.196 631.747)" fill="#b7b7b7"/></g></g></svg>