<svg xmlns="http://www.w3.org/2000/svg" width="54.545" height="20" viewBox="0 0 54.545 20"><g transform="translate(-994.03 -528.94)"><path d="M1007.222,545.433a2.5,2.5,0,1,0,2.679,2.5A2.6,2.6,0,0,0,1007.222,545.433Z" transform="translate(-0.87 -1.494)" fill="#b7b7b7"/><path d="M997.38,545.433a2.5,2.5,0,1,0,2.679,2.5A2.6,2.6,0,0,0,997.38,545.433Z" transform="translate(-0.078 -1.494)" fill="#b7b7b7"/><path d="M996.007,531.132l.009,10.276,2.3.636,40.33.191,8.046-1.228v-9.876Zm0,0,.009,10.276,2.3.636,40.33.191,8.046-1.228v-9.876Zm0,0,.009,10.276,2.3.636,40.33.191,8.046-1.228v-9.876Zm51.079-2.192H995.465a1.406,1.406,0,0,0-1.434,1.364V547.81a.078.078,0,0,0,.073.064h.055a.069.069,0,0,0,.064-.064v-2.846a.05.05,0,0,1,.018-.045.071.071,0,0,1,.046-.018h.221a.066.066,0,0,0,.055-.027,3.219,3.219,0,0,1,.561-.655,3.365,3.365,0,0,1,4.368,0,3.214,3.214,0,0,1,.561.655.066.066,0,0,0,.055.027h3.007c.018,0,.028.009.046.018s.018.027.018.045v2.846a.063.063,0,0,0,.064.064h.055a.063.063,0,0,0,.064-.064v-2.846a.063.063,0,0,1,.064-.064h.129a.066.066,0,0,0,.055-.027,3.216,3.216,0,0,1,.561-.655,3.365,3.365,0,0,1,4.368,0,3.217,3.217,0,0,1,.561.655.056.056,0,0,0,.055.027h27.107a.08.08,0,0,1,.055.027l1.2,1.3c.018.009.018.027.018.045v2.473a.061.061,0,0,1-.064.055h-.221a.089.089,0,0,0-.074.064.078.078,0,0,0,.074.064h1.352c.018,0,.037,0,.046-.018a.069.069,0,0,0,.018-.046.069.069,0,0,0-.064-.064h-.193a.061.061,0,0,1-.064-.055V544.9c-.009-.036-.037-.064-.074-.055l-.386.027.432-.036h.009l3.8-.628,4.846-.791a1.886,1.886,0,0,0,1.6-1.819V530.368A1.466,1.466,0,0,0,1047.086,528.94Zm-9.545,16.014v.664a.07.07,0,0,1-.018.045.062.062,0,0,1-.092,0l-.616-.664c-.018-.009-.018-.027-.018-.046a.061.061,0,0,1,.064-.055h.736A.048.048,0,0,0,1037.541,544.954Zm10.069-3.574a.522.522,0,0,1-.018.118.542.542,0,0,1-.046.109.167.167,0,0,1-.064.091.41.41,0,0,1-.257.146l-8.4,1.291h-.028a.23.23,0,0,1-.073.009h-.009l-40.578-.209-2.676-.737a.411.411,0,0,1-.221-.146l-.046-.045a.281.281,0,0,1-.055-.118.33.33,0,0,1-.037-.164l-.009-11.049a.453.453,0,0,1,.46-.455h51.6a.453.453,0,0,1,.46.455Zm-51.594.027,2.3.636,40.33.191,8.046-1.228v-9.876H996.007Zm-.009-10.276.009,10.276,2.3.636,40.33.191,8.046-1.228v-9.876Zm0,0,.009,10.276,2.3.636,40.33.191,8.046-1.228v-9.876Z" transform="translate(0)" fill="#b7b7b7"/></g></svg>