<svg xmlns="http://www.w3.org/2000/svg" width="22" height="22" viewBox="0 0 22 22">
  <g id="Group_8452" data-name="Group 8452" transform="translate(-259.915 -199.021)">
    <path id="Path_7593" data-name="Path 7593" d="M270.694,206.03a1.868,1.868,0,0,0-1.316.464,1.62,1.62,0,0,0-.506,1.26,1.646,1.646,0,0,0,.506,1.268,2.127,2.127,0,0,0,2.694-.017,1.77,1.77,0,0,0,.016-2.494A1.944,1.944,0,0,0,270.694,206.03Z" fill="#919191"/>
    <path id="Path_7594" data-name="Path 7594" d="M270.915,199.021a11,11,0,1,0,11,11A11,11,0,0,0,270.915,199.021Zm3.8,14.135h0a4.889,4.889,0,0,1-1.954,2.139,5.717,5.717,0,0,1-2.912.729,6.545,6.545,0,0,1-1.666-.207,4.341,4.341,0,0,1-1.355-.589l.934-1.972a3.37,3.37,0,0,0,2.04.58,2.853,2.853,0,0,0,2.2-.87,3.78,3.78,0,0,0,.872-2.511,3.536,3.536,0,0,1-2.713,1.044,4.033,4.033,0,0,1-1.9-.448,3.4,3.4,0,0,1-1.353-1.267,3.573,3.573,0,0,1-.5-1.9,3.775,3.775,0,0,1,.546-2.039,3.624,3.624,0,0,1,1.487-1.351,4.59,4.59,0,0,1,2.094-.47,4.5,4.5,0,0,1,3.581,1.483,6.311,6.311,0,0,1,1.293,4.268A7.608,7.608,0,0,1,274.716,213.156Z" fill="#919191"/>
  </g>
</svg>
