<svg xmlns="http://www.w3.org/2000/svg" width="22" height="22" viewBox="0 0 22 22">
  <path id="Path_7580" data-name="Path 7580" d="M204.719,251.3a11,11,0,1,0,11,11A11,11,0,0,0,204.719,251.3ZM208.7,266.35a3.67,3.67,0,0,1-1.573,1.416,5.776,5.776,0,0,1-2.6.531,8.536,8.536,0,0,1-2.346-.329,5.947,5.947,0,0,1-1.96-.935l1.032-2.09a4.872,4.872,0,0,0,1.484.784,5.467,5.467,0,0,0,1.726.278,2.62,2.62,0,0,0,1.548-.408,1.312,1.312,0,0,0,.565-1.129,1.286,1.286,0,0,0-.589-1.146,3.909,3.909,0,0,0-2.04-.388h-2.887l.58-6.637h6.887v2.191h-4.706l-.181,2.242h.92a5.255,5.255,0,0,1,3.524.994,3.363,3.363,0,0,1,1.137,2.663A3.83,3.83,0,0,1,208.7,266.35Z" transform="translate(-193.719 -251.298)" fill="#919191"/>
</svg>
