<svg xmlns="http://www.w3.org/2000/svg" width="22" height="22" viewBox="0 0 22 22">
  <g id="Group_8454" data-name="Group 8454" transform="translate(-119.745 -177.096)">
    <path id="Path_7600" data-name="Path 7600" d="M130.73,186.952a1.838,1.838,0,0,0,1.22-.381,1.288,1.288,0,0,0,.458-1.044,1.33,1.33,0,0,0-.458-1.069,1.824,1.824,0,0,0-1.22-.39,1.767,1.767,0,0,0-1.2.39,1.338,1.338,0,0,0-.45,1.069,1.3,1.3,0,0,0,.445,1.044A1.783,1.783,0,0,0,130.73,186.952Z" fill="#919191"/>
    <path id="Path_7601" data-name="Path 7601" d="M130.73,188.788a2.191,2.191,0,0,0-1.449.448,1.5,1.5,0,0,0-.536,1.214,1.518,1.518,0,0,0,.536,1.226,2.178,2.178,0,0,0,1.449.448,2.217,2.217,0,0,0,1.472-.456,1.512,1.512,0,0,0,.543-1.217,1.489,1.489,0,0,0-.543-1.214A2.24,2.24,0,0,0,130.73,188.788Z" fill="#919191"/>
    <path id="Path_7602" data-name="Path 7602" d="M130.745,177.1a11,11,0,1,0,11,11A11,11,0,0,0,130.745,177.1Zm3.932,15.323a3.645,3.645,0,0,1-1.587,1.24,5.948,5.948,0,0,1-2.364.439,5.873,5.873,0,0,1-2.357-.439,3.59,3.59,0,0,1-1.571-1.243,3.215,3.215,0,0,1-.557-1.878,3.046,3.046,0,0,1,.419-1.608,3.125,3.125,0,0,1,1.2-1.127,2.721,2.721,0,0,1-.915-1,2.92,2.92,0,0,1-.32-1.384,3,3,0,0,1,.516-1.763,3.341,3.341,0,0,1,1.449-1.152,5.284,5.284,0,0,1,2.136-.406,5.4,5.4,0,0,1,2.158.406,3.341,3.341,0,0,1,1.457,1.152,3.009,3.009,0,0,1,.519,1.757,2.931,2.931,0,0,1-.319,1.384,2.7,2.7,0,0,1-.932,1,3.109,3.109,0,0,1,1.213,1.127,3.056,3.056,0,0,1,.419,1.611A3.2,3.2,0,0,1,134.677,192.419Z" fill="#919191"/>
  </g>
</svg>
