<svg xmlns="http://www.w3.org/2000/svg" width="22" height="22" viewBox="0 0 22 22">
  <g id="Group_8455" data-name="Group 8455" transform="translate(-119.745 -177.096)">
    <path id="Path_7604" data-name="Path 7604" d="M130.745,177.1a11,11,0,1,0,11,11A11,11,0,0,0,130.745,177.1Zm3.968,15.176h-.005a3.643,3.643,0,0,1-1.489,1.349,4.6,4.6,0,0,1-2.094.472,4.489,4.489,0,0,1-3.582-1.492,6.309,6.309,0,0,1-1.292-4.259,7.5,7.5,0,0,1,.7-3.381,4.939,4.939,0,0,1,1.954-2.138,5.668,5.668,0,0,1,2.9-.729,6.613,6.613,0,0,1,1.674.207,4.33,4.33,0,0,1,1.362.588l-.934,1.972a3.417,3.417,0,0,0-2.04-.58,2.868,2.868,0,0,0-2.2.862,3.738,3.738,0,0,0-.872,2.5,3.508,3.508,0,0,1,2.7-1.025,4.027,4.027,0,0,1,1.9.448,3.4,3.4,0,0,1,1.355,1.267,3.591,3.591,0,0,1,.5,1.9A3.8,3.8,0,0,1,134.713,192.272Z" fill="#919191"/>
    <path id="Path_7605" data-name="Path 7605" d="M130.958,188.623a1.919,1.919,0,0,0-1.355.489,1.754,1.754,0,0,0-.026,2.482l.013.013a1.968,1.968,0,0,0,1.4.48,1.875,1.875,0,0,0,1.316-.465,1.629,1.629,0,0,0,.506-1.26,1.658,1.658,0,0,0-.506-1.268A1.9,1.9,0,0,0,130.958,188.623Z" fill="#919191"/>
  </g>
</svg>
