<svg xmlns="http://www.w3.org/2000/svg" width="22" height="22" viewBox="0 0 22 22">
  <g id="Group_8453" data-name="Group 8453" transform="translate(-119.745 -177.096)">
    <path id="Path_7597" data-name="Path 7597" d="M128.123,184.1a1.863,1.863,0,0,0-1.314.464,1.621,1.621,0,0,0-.5,1.259,1.653,1.653,0,0,0,.5,1.267,2.116,2.116,0,0,0,2.686-.016,1.77,1.77,0,0,0,.016-2.493A1.931,1.931,0,0,0,128.123,184.1Z" fill="#919191"/>
    <path id="Path_7598" data-name="Path 7598" d="M130.745,177.1a11,11,0,1,0,11,11A11,11,0,0,0,130.745,177.1Zm1.4,14.132a4.889,4.889,0,0,1-1.951,2.137,5.709,5.709,0,0,1-2.907.729,6.569,6.569,0,0,1-1.664-.207,4.317,4.317,0,0,1-1.353-.588l.933-1.971a3.36,3.36,0,0,0,2.037.58,2.847,2.847,0,0,0,2.192-.87,3.786,3.786,0,0,0,.871-2.509,3.525,3.525,0,0,1-2.7,1.043,4.033,4.033,0,0,1-1.9-.447,3.389,3.389,0,0,1-1.353-1.267,3.577,3.577,0,0,1-.5-1.9,3.775,3.775,0,0,1,.55-2.036,3.616,3.616,0,0,1,1.485-1.35,4.6,4.6,0,0,1,2.091-.47,4.489,4.489,0,0,1,3.576,1.482,6.316,6.316,0,0,1,1.29,4.265,7.619,7.619,0,0,1-.7,3.379Zm5.31-2.343v2.209h-1.626v-2.2h-2.174v-1.586h2.181V185.1h1.619v2.2h2.2v1.586Z" fill="#919191"/>
  </g>
</svg>
