<svg xmlns="http://www.w3.org/2000/svg" width="22" height="22" viewBox="0 0 22 22">
  <path id="Path_7577" data-name="Path 7577" d="M93.728,251.177a11,11,0,1,0,11,11A11,11,0,0,0,93.728,251.177Zm4.5,17H89.741v-1.77l4.332-4.3a4.813,4.813,0,0,0,.935-1.19,2.255,2.255,0,0,0,.241-.986,1.332,1.332,0,0,0-.457-1.087,2.049,2.049,0,0,0-1.34-.379,2.953,2.953,0,0,0-1.332.295,2.588,2.588,0,0,0-1,.885l-1.9-1.277a4.5,4.5,0,0,1,1.813-1.61,5.8,5.8,0,0,1,2.647-.581,5.2,5.2,0,0,1,2.19.43,3.408,3.408,0,0,1,1.46,1.21,3.253,3.253,0,0,1,.521,1.846,4.3,4.3,0,0,1-.385,1.8,6.894,6.894,0,0,1-1.492,1.927L93.4,265.953h4.829Z" transform="translate(-82.728 -251.177)" fill="#919191"/>
</svg>
