<svg xmlns="http://www.w3.org/2000/svg" width="22" height="22" viewBox="0 0 22 22">
  <path id="Path_7578" data-name="Path 7578" d="M127.708,251.3a11,11,0,1,0,11,11A11,11,0,0,0,127.708,251.3Zm3.983,15.09a3.657,3.657,0,0,1-1.575,1.39,5.839,5.839,0,0,1-2.594.519,8.566,8.566,0,0,1-2.351-.329,5.961,5.961,0,0,1-1.963-.935l1.02-2.09a4.852,4.852,0,0,0,1.5.784,5.563,5.563,0,0,0,1.737.278,2.668,2.668,0,0,0,1.551-.4,1.292,1.292,0,0,0,.566-1.121q0-1.449-2.117-1.449h-1.2v-1.8l2.327-2.747h-4.813V256.3h7.917v1.77l-2.553,3.03a3.75,3.75,0,0,1,2.278,1.158,3.263,3.263,0,0,1,.792,2.233A3.653,3.653,0,0,1,131.691,266.388Z" transform="translate(-116.708 -251.298)" fill="#919191"/>
</svg>
