<?xml version="1.0" encoding="utf-8"?>
<!-- Generator: Adobe Illustrator 24.0.0, SVG Export Plug-In . SVG Version: 6.00 Build 0)  -->
<svg version="1.1" id="Layer_1" xmlns="http://www.w3.org/2000/svg" xmlns:xlink="http://www.w3.org/1999/xlink" x="0px" y="0px"
	 viewBox="0 0 494 542.7" style="enable-background:new 0 0 494 542.7;" xml:space="preserve">
<style type="text/css">
	.st0{opacity:0.4;enable-background:new    ;}
</style>
<path class="st0" d="M314.7,344.3c-0.5-1.2-1-2.4-1.5-3.6c-0.4-1-0.7-2.1-1-3.1c0,0,0,0,0,0c-0.3-0.9-0.6-1.9-0.8-2.8
	c-0.1-0.2-0.1-0.5-0.2-0.7c-0.6-2.3-1.1-4.4-1.4-6.1c-0.1-0.4-0.1-0.7-0.2-1.1c-0.3-1.3-0.4-2.3-0.5-2.7c0-0.1,0-0.2,0-0.2h0h0
	c-1.6-10.6-1.8-21.1-1.6-28.2c-17.2,17.7-38,20.2-60.5,20.2s-43.3-2.5-60.5-20.2c0.2,7.1,0.1,17.6-1.6,28.2h0c0,0-0.1,0.6-0.3,1.7
	c-1,5.9-2.5,11.7-4.7,17.1c-0.2,0.4-0.3,0.8-0.5,1.2c-0.1,0.2-0.1,0.3-0.2,0.5c0,0.1,0,0.1-0.1,0.2c0.9,2,2,4,3.4,6.1c0,0,0,0,0,0
	s5.3,8.9,15,18.4c9.9,9.6,24.4,19.7,42.7,21.7c2.2,0.2,4.4,0.4,6.6,0.4c2.3,0,4.5-0.1,6.6-0.4c18.3-2,32.8-12.1,42.7-21.7
	c8-7.7,13-15.1,14.5-17.5c0.2-0.3,0.4-0.6,0.6-0.9c1.3-2.1,2.5-4.1,3.4-6.1C314.7,344.5,314.7,344.4,314.7,344.3z"/>
<path d="M494,542.7H0l22.1-112.1c1.8-10.4,4.7-20.7,9.1-30.3c4.4-9.6,10.2-18.4,17.8-26c15.2-15.2,35.8-23.7,57.2-23.7h35.3
	c5.7-6.5,33.8-26.7,33.8-26.7h10c0,0.1,0,0.2,0,0.3c0,0,0,0.1,0,0.1c0,0.3-0.1,0.7-0.2,1.2c0,0.1,0,0.1,0,0.2
	c-0.1,0.3-0.1,0.6-0.2,1c0,0,0-0.1,0-0.1c0,0.1,0,0.2-0.1,0.3c-0.1,0.6-0.3,1.4-0.4,2.2c0,0.1-0.1,0.3-0.1,0.4
	c0,0.2-0.1,0.3-0.1,0.5c0,0.1-0.1,0.3-0.1,0.4c-0.1,0.5-0.2,0.9-0.3,1.4c0,0,0,0.1,0,0.1c-0.1,0.3-0.1,0.5-0.2,0.8
	c-0.7,2.7-1.5,5.4-2.4,8c-0.1,0.2-0.2,0.4-0.2,0.6c0,0,0,0,0,0c0,0,0,0,0,0c0,0,0,0.1,0,0.1c-0.2,0.4-0.3,0.8-0.5,1.2
	c-0.2,0.4-0.3,0.8-0.5,1.2c-0.1,0.2-0.1,0.3-0.2,0.5c0,0.1,0,0.1-0.1,0.2c0.9,2,2,4,3.4,6.1c0,0,0,0,0,0c0.3,0.6,5.6,9.2,15,18.3
	c0,0,0,0,0.1,0c8.6,8.4,20.8,17.2,36,20.6c0.5,0.1,1.1,0.3,1.6,0.4c1.1,0.2,2.2,0.4,3.4,0.6c0.6,0.1,1.1,0.1,1.7,0.2v0
	c2.1,0.2,4.3,0.4,6.6,0.4c2.3,0,4.5-0.1,6.6-0.4c1.7-0.2,3.4-0.5,5.1-0.8c0.6-0.1,1.1-0.2,1.6-0.4c1-0.2,2-0.5,3-0.8
	c0.6-0.2,1.2-0.3,1.8-0.5c0.5-0.1,0.9-0.3,1.4-0.5c0.4-0.1,0.9-0.3,1.3-0.4c0.2-0.1,0.5-0.2,0.7-0.3c1.7-0.6,3.3-1.3,4.9-2.1
	c0.2-0.1,0.5-0.2,0.7-0.3c2.1-1,4.1-2.1,6-3.2c0.4-0.2,0.8-0.5,1.1-0.7c1.7-1,3.2-2.1,4.7-3.2c0.4-0.3,0.8-0.6,1.1-0.8
	c0.3-0.3,0.7-0.5,1-0.8c3-2.3,5.7-4.7,8.1-7c0,0,0,0,0,0l0,0c1-1,1.9-1.9,2.8-2.9c0.4-0.5,0.9-0.9,1.3-1.4c0.8-0.8,1.5-1.7,2.2-2.5
	c0.2-0.3,0.4-0.5,0.6-0.7c0.4-0.5,0.8-1,1.2-1.4c0.4-0.5,0.8-1,1.2-1.4c1.7-2.1,3-4,3.9-5.3c0.5-0.8,0.9-1.4,1.2-1.8
	c0,0,0-0.1,0.1-0.1c0.1-0.2,0.2-0.3,0.3-0.5c0-0.1,0.1-0.2,0.2-0.3h0c1.3-2.1,2.4-4.1,3.4-6.1c-0.2-0.4-0.4-0.9-0.5-1.3
	c0-0.1-0.1-0.1-0.1-0.2c0-0.1-0.1-0.1-0.1-0.2c0-0.1-0.1-0.1-0.1-0.2c0,0,0,0,0,0c0,0,0,0,0-0.1c0,0,0,0,0,0
	c-0.2-0.6-0.5-1.2-0.7-1.8c-0.1-0.2-0.2-0.5-0.3-0.7c-0.1-0.2-0.2-0.5-0.3-0.7c-0.1-0.2-0.2-0.5-0.2-0.7c0-0.1,0-0.2-0.1-0.2
	c-0.1-0.4-0.2-0.7-0.3-1.1c0-0.1,0-0.1-0.1-0.2c-0.1-0.4-0.2-0.8-0.3-1.2c-0.1-0.3-0.2-0.6-0.3-0.9c0-0.1,0-0.1,0-0.2
	c-0.1-0.2-0.1-0.4-0.2-0.6c0,0,0-0.1,0-0.1c0,0,0,0,0,0c0,0,0,0,0,0c0,0,0,0,0-0.1c0-0.1,0-0.1-0.1-0.2c-0.1-0.4-0.2-0.8-0.3-1.2
	c-0.1-0.5-0.2-0.9-0.3-1.4c0,0,0-0.1,0-0.1c0,0,0-0.1,0-0.1c0,0,0,0,0-0.1c0-0.1,0-0.1,0-0.2c-0.1-0.3-0.1-0.6-0.2-0.9
	c0,0,0-0.1,0-0.1c0-0.1-0.1-0.3-0.1-0.4c-0.1-0.5-0.2-0.9-0.3-1.3c-0.5-2.4-0.7-4-0.7-4h10c0.1,0,28.1,20.1,33.8,26.7h34.7
	c21.5,0,42.1,8.5,57.2,23.7c7.6,7.6,13.4,16.5,17.8,26c4.4,9.6,7.3,19.8,9.1,30.3L494,542.7z"/>
<path class="st0" d="M362.3,126.5c-1.2,0-2.3,0.4-3.4,1.1c-0.2-1-0.4-2.1-0.7-3.1l0,0c-0.8-20.1-3.1-33.2-5.6-41.6h0c0,0,0,0,0,0
	c-0.4-1.2-0.7-2.3-1.1-3.4c-1-3.2-2.7-8-4-11.5c11.1-0.3,21.6-11.5,21.6-11.5c-0.8,0-1.6,0-2.3-0.1c-7.2-1.1-13.8-6.8-19.2-11.2
	c-6.8-5.6-13.2-11.7-19.7-17.6c-15.3-13.8-35.5-21.1-55.3-25.1c-23-4.6-47.5-3.7-67.7,9.5c-6.6,4.3-16.9,11.9-19.7,19.9
	c0,0-0.2,0.5-0.4,1.3l-0.7-0.9c0,0-42.5-5.8-52.3,31.1c-9.9,36.9,8.3,38.2-6.8,63.6l2.4,1.4c-5.6,4.7-9.6,18.1-9.6,34
	c0,19.8,6.3,35.8,14,35.8c1.2,0,2.3-0.4,3.4-1.1C147.6,259.6,192.9,306,247,306c54.1,0,99.4-46.4,111.9-108.9
	c1.1,0.7,2.2,1.1,3.4,1.1c7.7,0,14-16,14-35.8S370.1,126.5,362.3,126.5z"/>
<path d="M405.1,104.6h-44.3c-6.6,0-12,5.4-12,12v83.5c0,6.6,5.4,12,12,12h5.1c-3.6,11.8-8.4,23.2-14.8,33.6
	c-5.8,9.4-13,17.9-21.5,24.9c-5-10.1-15.4-17-27.4-17c-16.9,0-30.7,13.7-30.7,30.7s13.7,30.7,30.7,30.7c16.2,0,29.5-12.6,30.6-28.6
	c5.9-3.4,11.5-7.3,16.7-11.7c6.4-5.4,12.1-11.5,17.3-18c10.3-13.1,18-27.9,23.9-43.2c0.2-0.4,0.3-0.9,0.5-1.3h14.1
	c6.6,0,12-5.4,12-12v-83.5C417.1,110,411.7,104.6,405.1,104.6z"/>
</svg>
