<?xml version="1.0" encoding="utf-8"?>
<!-- Generator: Adobe Illustrator 24.0.0, SVG Export Plug-In . SVG Version: 6.00 Build 0)  -->
<svg version="1.1" id="Layer_1" xmlns="http://www.w3.org/2000/svg" xmlns:xlink="http://www.w3.org/1999/xlink" x="0px" y="0px"
	 viewBox="0 0 494 542.7" style="enable-background:new 0 0 494 542.7;" xml:space="preserve">
<style type="text/css">
	.st0{opacity:0.4;enable-background:new    ;}
</style>
<path class="st0" d="M362.3,126.5c-1.2,0-2.3,0.4-3.4,1.1c-0.2-1-0.4-2.1-0.7-3.1l0,0c-0.8-20.1-3.1-33.2-5.6-41.6h0c0,0,0,0,0,0
	c-0.4-1.2-0.7-2.3-1.1-3.4c-1-3.2-2.7-8-4-11.5c11.1-0.3,21.6-11.5,21.6-11.5c-0.8,0-1.6,0-2.3-0.1c-7.2-1.1-13.8-6.8-19.2-11.2
	c-6.8-5.6-13.2-11.7-19.7-17.6c-15.3-13.8-35.5-21.1-55.3-25.1c-23-4.6-47.5-3.7-67.7,9.5c-6.6,4.3-16.9,11.9-19.7,19.9
	c0,0-0.2,0.5-0.4,1.3l-0.7-0.9c0,0-42.5-5.8-52.3,31.1c-9.9,36.9,8.3,38.2-6.8,63.6l2.4,1.4c-5.6,4.7-9.6,18.1-9.6,34
	c0,19.8,6.3,35.8,14,35.8c1.2,0,2.3-0.4,3.4-1.1C147.6,259.6,193,306,247,306c54.1,0,99.4-46.4,111.9-108.9c1.1,0.7,2.2,1.1,3.4,1.1
	c7.7,0,14-16,14-35.8S370.1,126.5,362.3,126.5z"/>
<path class="st0" d="M182.6,350.6c0,0,2.6,4.3,7.4,10.1c8.4-2.2,16.9-3.8,25.7-5c10.2-1.4,20.7-2.1,31.3-2.1c11,0,21.8,0.8,32.4,2.3
	c8.3,1.2,16.5,2.8,24.5,4.9c3.6-4.3,5.9-7.7,6.9-9.3c0.2-0.3,0.4-0.6,0.6-0.9c1.3-2.1,2.5-4.1,3.4-6.1c0-0.1-0.1-0.2-0.1-0.3
	c-0.5-1.2-1-2.4-1.5-3.6c-0.4-1-0.7-2.1-1-3.1c0,0,0,0,0,0c-0.3-0.9-0.6-1.9-0.8-2.8c-0.1-0.2-0.1-0.5-0.2-0.7
	c-0.6-2.3-1.1-4.4-1.4-6.1c-0.1-0.4-0.1-0.7-0.2-1.1c-0.3-1.3-0.4-2.3-0.5-2.7c0-0.1,0-0.2,0-0.2h0h0c-1.6-10.6-1.8-21.1-1.6-28.2
	c-17.2,17.7-38,20.2-60.5,20.2s-43.3-2.5-60.5-20.2c0.2,7.1,0.1,17.6-1.6,28.2h0c0,0-0.1,0.6-0.3,1.7c-1,5.9-2.5,11.7-4.7,17.1
	c-0.2,0.4-0.3,0.8-0.5,1.2c-0.1,0.2-0.1,0.3-0.2,0.5c0,0.1,0,0.1-0.1,0.2C180.2,346.5,181.3,348.6,182.6,350.6
	C182.6,350.6,182.6,350.6,182.6,350.6z"/>
<g>
	<path d="M94.1,542.7h305.8C382,475,320.3,425,247,425C173.8,425,112,475,94.1,542.7z"/>
	<path d="M472.6,542.7H494L472,430.6c-1.8-10.4-4.7-20.7-9.1-30.3c-4.4-9.6-10.2-18.4-17.8-26c-15.2-15.2-35.8-23.7-57.2-23.7h-34.7
		c-5.7-6.5-33.7-26.6-33.8-26.7h-10c0,0,0.2,1.6,0.7,4c0.1,0.4,0.2,0.9,0.3,1.3c0,0.1,0.1,0.3,0.1,0.4c0,0,0,0,0,0.1
		c0.1,0.3,0.1,0.6,0.2,0.9c0,0.1,0,0.1,0,0.2c0,0,0,0,0,0.1c0,0,0,0.1,0,0.1c0,0,0,0.1,0,0.1c0.1,0.5,0.2,0.9,0.3,1.4
		c0.1,0.4,0.2,0.8,0.3,1.2c0,0.1,0,0.1,0,0.2c0,0,0,0,0,0.1c0,0,0,0,0,0s0,0,0,0c0,0,0,0.1,0,0.1c0.1,0.2,0.1,0.4,0.2,0.6
		c0,0.1,0,0.1,0,0.2c0.1,0.3,0.2,0.6,0.3,0.9c0.1,0.4,0.2,0.8,0.3,1.2c0,0.1,0,0.1,0.1,0.2c0.1,0.4,0.2,0.7,0.3,1.1
		c0,0.1,0,0.2,0.1,0.2c0.1,0.2,0.1,0.5,0.2,0.7c0.1,0.3,0.2,0.5,0.3,0.7c0.1,0.2,0.2,0.5,0.3,0.7c0.2,0.6,0.5,1.2,0.7,1.8
		c0,0,0,0,0,0c0,0,0,0,0,0.1c0,0,0,0,0,0c0,0.1,0.1,0.2,0.1,0.2c0,0.1,0,0.1,0.1,0.2c0,0.1,0.1,0.1,0.1,0.2c0.2,0.5,0.4,0.9,0.5,1.3
		c-0.9,2-2,4-3.4,6.1h0c-0.1,0.1-0.1,0.2-0.1,0.3c-0.1,0.2-0.2,0.3-0.3,0.5c0,0,0,0.1-0.1,0.1c-0.3,0.5-0.7,1.1-1.2,1.8
		c-0.9,1.4-2.3,3.2-3.9,5.3c-0.4,0.5-0.8,0.9-1.2,1.4c-0.3,0.3-0.5,0.6-0.8,1C390.1,383.2,456.9,454.3,472.6,542.7z"/>
	<path d="M190.5,361c-4.7-5.6-7.3-9.9-7.6-10.3c0,0,0,0,0,0c-1.3-2.1-2.5-4.1-3.4-6.1c0-0.1,0-0.1,0.1-0.2c0.1-0.2,0.1-0.3,0.2-0.5
		c0.2-0.4,0.3-0.8,0.5-1.2c0.2-0.4,0.3-0.8,0.5-1.2c0,0,0-0.1,0-0.1c0,0,0,0,0,0c0,0,0,0,0,0c0.1-0.2,0.2-0.4,0.2-0.6
		c0.9-2.6,1.7-5.3,2.4-8c0.1-0.3,0.1-0.5,0.2-0.8c0,0,0-0.1,0-0.1c0.1-0.5,0.2-1,0.3-1.4c0-0.1,0.1-0.3,0.1-0.4
		c0-0.2,0.1-0.3,0.1-0.5c0-0.1,0.1-0.3,0.1-0.4c0.2-0.8,0.3-1.5,0.4-2.2c0-0.1,0-0.2,0.1-0.3c0,0,0,0.1,0,0.1c0.1-0.4,0.1-0.7,0.2-1
		c0-0.1,0-0.1,0-0.2c0.1-0.5,0.1-0.9,0.2-1.1c0,0,0-0.1,0-0.1c0-0.1,0-0.2,0-0.3h-10c0,0-28.1,20.1-33.8,26.7h-35.3
		c-21.5,0-42,8.5-57.2,23.7c-7.6,7.6-13.4,16.4-17.8,26c-4.4,9.6-7.3,19.8-9.1,30.3L0,542.7h21.4C37.2,454.1,104.1,383,190.5,361z"
		/>
</g>
</svg>
