<svg xmlns="http://www.w3.org/2000/svg" viewBox="0 0 448 448">
<defs>
<style>.fa-secondary{opacity:.2}</style>
</defs>
<path d="M428,0H20C9,0,0,9,0,20v408c0,11,9,20,20,20h408c11,0,20-9,20-20V20C448,9,439,0,428,0z M71.3,160.6H33v-130
	h38.3V160.6z M192.9,143.8h-47v18h44v32h-44v48h-38v-130h85V143.8z M279.1,335.1h-38V241h-29v-35.9h97V241h-30V335.1z M379.6,416.3
	l-8.9-31h-25.4l-8.2,31h-37.2l37.9-130h41.5l38.5,130H379.6z" class="fa-secondary"/>
<path d="M279.1,334.9h-38v-94.1h-29v-35.9h97v35.9h-30V334.9z" class="fa-primary"/>
<path d="M417.8,416.1h-38.2l-8.9-31h-25.4l-8.2,31h-37.2l37.9-130h41.5L417.8,416.1z M351.7,355.1h12.4l-5.4-19.3
	c-0.3-1.1-0.6-2.3-1-3.5c-0.3,1.2-0.6,2.3-0.9,3.4L351.7,355.1z" class="fa-primary"/>
<path d="M145.9,241.6h-38v-130h85v32h-47v18h44v32h-44V241.6z"/>
<rect x="33" y="30.6" width="38.3" height="130" class="fa-primary"/>
<polygon points="357.7,332.3 357.7,332.3 351.7,355.1 364.1,355.1" class="fa-secondary"/>
</svg>
