<?xml version="1.0" encoding="utf-8"?>
<!-- Generator: Adobe Illustrator 24.0.0, SVG Export Plug-In . SVG Version: 6.00 Build 0)  -->
<svg version="1.1" id="Layer_1" xmlns="http://www.w3.org/2000/svg" xmlns:xlink="http://www.w3.org/1999/xlink" x="0px" y="0px"
	 viewBox="0 0 473.5 368.3" style="enable-background:new 0 0 473.5 368.3;" xml:space="preserve">
<style type="text/css">
	.st0{opacity:0.4;enable-background:new    ;}
</style>
<g>
	<path class="st0" d="M46,83v285.3h381.5V83H46z M377.8,349.4c0,4.9-4,8.8-8.8,8.8H104.6c-4.9,0-8.8-4-8.8-8.8V101.8
		c0-4.9,4-8.8,8.8-8.8h264.4c4.9,0,8.8,4,8.8,8.8V349.4z"/>
</g>
<path d="M429.7,5c-2.2-3.1-5.7-5-9.5-5H238.8h-4H53.2c-3.8,0-7.3,1.8-9.5,5L2.1,64.8C-3.2,72.5,2.2,83,11.6,83h223.2h4h223.2
	c9.3,0,14.8-10.5,9.5-18.2L429.7,5z"/>
<path class="st0" d="M227.4,293.3L227.4,293.3c-1.4-0.5-2.8-1-4.2-1.5c-0.7-0.3-1.3-0.5-2-0.8c-0.1,0-0.1,0-0.2-0.1
	c-0.6-0.3-1.3-0.5-1.9-0.8c-1.4-0.6-2.7-1.3-4-1.9c-0.5-0.3-1.1-0.6-1.6-0.9c-0.2-0.1-0.3-0.2-0.5-0.3c-0.6-0.3-1.1-0.6-1.6-0.9
	c-0.1,0-0.2-0.1-0.2-0.1c-0.6-0.3-1.2-0.7-1.8-1.1c-0.6-0.4-1.3-0.8-1.9-1.2c-1.3-0.8-2.5-1.6-3.7-2.5c-0.4-0.3-0.9-0.6-1.3-0.9
	c-0.2-0.1-0.4-0.3-0.6-0.4c-0.5-0.4-1-0.8-1.5-1.1c-0.6-0.4-1.2-0.9-1.7-1.3c-0.6-0.4-1.1-0.9-1.7-1.4c-1.4-1.2-2.7-2.4-4-3.6
	c0,0-0.1,0-0.1-0.1c-0.7-0.7-1.4-1.3-2-2c-0.7-0.7-1.3-1.4-2-2.1c-0.6-0.7-1.3-1.4-1.9-2.1c-0.6-0.7-1.2-1.4-1.9-2.2
	c-0.6-0.7-1.2-1.5-1.8-2.2s-1.2-1.5-1.7-2.3c-0.7-1-1.4-1.9-2-2.9c-4.6-6.9-8.4-14.5-11.1-22.6L104.2,298v51.7h66.7l9-9l47.6-47.6
	L227.4,293.3z"/>
<path d="M324.7,271.1c-26.2,26.2-63.8,33.4-96.6,22.4c0,0,0,0,0,0l-0.2,0.2c-1.4-0.5-2.8-1-4.2-1.5c-0.7-0.3-1.3-0.5-2-0.8
	c-0.1,0-0.1,0-0.2-0.1c-0.6-0.3-1.3-0.5-1.9-0.8c-1.4-0.6-2.7-1.3-4-1.9c-0.5-0.3-1.1-0.6-1.6-0.9c-0.2-0.1-0.3-0.2-0.5-0.3
	c-0.6-0.3-1.1-0.6-1.6-0.9c-0.1,0-0.2-0.1-0.2-0.1c-0.6-0.3-1.2-0.7-1.8-1.1c-0.6-0.4-1.3-0.8-1.9-1.2c-1.3-0.8-2.5-1.6-3.7-2.5
	c-0.4-0.3-0.9-0.6-1.3-0.9c-0.2-0.1-0.4-0.3-0.6-0.4c-0.5-0.4-1-0.8-1.5-1.1c-0.6-0.4-1.2-0.9-1.7-1.3c-0.6-0.4-1.1-0.9-1.7-1.4
	c-1.4-1.2-2.7-2.4-4-3.6c0,0-0.1,0-0.1-0.1c-1.4-1.3-2.7-2.7-4-4.1c-0.6-0.7-1.3-1.4-1.9-2.1c-0.6-0.7-1.2-1.4-1.9-2.2
	c-0.6-0.7-1.2-1.5-1.8-2.2s-1.2-1.5-1.7-2.3c-5.6-7.7-10.1-16.3-13.2-25.5c0-0.1-0.1-0.1-0.1-0.2l0.1-0.1
	c-10.8-32.8-3.7-70.5,22.3-96.4c23.4-23.4,57.4-32.9,89.6-24.9c4.2,1,6.8,5.2,5.8,9.5c-0.3,1.4-1.1,2.7-2.1,3.8l-48.8,48.7l7.4,44.5
	l44.5,7.4l48.8-48.8c3-3.1,8-3.1,11.1-0.1c1,1,1.7,2.3,2.1,3.7C357.6,213.7,348.1,247.7,324.7,271.1z"/>
</svg>
