<svg xmlns="http://www.w3.org/2000/svg" viewBox="0 0 384 512">
<defs><style>.fa-secondary{opacity:.2}</style></defs>

<path d="M272,128c-8.8,0-16-7.2-16-16V0H24C10.8,0,0,10.7,0,23.9V488c0,13.2,10.7,24,23.9,24H360
	c13.2,0,24-10.7,24-23.9V128H272z M56.2,117.8c0-6.4,6.4-12.8,12.8-12.8h70.4c6.4,0,12.8,6.4,12.8,12.8v38.4
	c0,6.4-6.4,12.8-12.8,12.8H69c-6.4,0-12.8-6.4-12.8-12.8V117.8z M56.2,309.8c0-6.4,6.4-12.8,12.8-12.8h134.4
	c6.4,0,12.8,6.4,12.8,12.8v38.4c0,6.4-6.4,12.8-12.8,12.8H69c-6.4,0-12.8-6.4-12.8-12.8V309.8z M280.2,445.8
	c0,6.4-6.4,12.8-12.8,12.8H69c-6.4,0-12.8-6.4-12.8-12.8v-38.4c0-6.4,6.4-12.8,12.8-12.8h198.4c6.4,0,12.8,6.4,12.8,12.8V445.8z
	 M280.2,252.2c0,6.4-6.4,12.8-12.8,12.8H69c-6.4,0-12.8-6.4-12.8-12.8v-38.4c0-6.4,6.4-12.8,12.8-12.8h198.4
	c6.4,0,12.8,6.4,12.8,12.8V252.2z" class="fa-secondary"/>
<g>
	<path d="M377,105L279.1,7c-4.5-4.5-10.6-7-17-7H256v112c0,8.8,7.2,16,16,16h112v-6.1C384,115.6,381.5,109.5,377,105z" class="fa-primary"/>
	<path d="M152.2,156.2v-38.4c0-6.4-6.4-12.8-12.8-12.8H69c-6.4,0-12.8,6.4-12.8,12.8v38.4c0,6.4,6.4,12.8,12.8,12.8h70.4
		C145.8,169,152.2,162.6,152.2,156.2z" class="fa-primary"/>
	<path d="M280.2,252.2v-38.4c0-6.4-6.4-12.8-12.8-12.8H69c-6.4,0-12.8,6.4-12.8,12.8v38.4c0,6.4,6.4,12.8,12.8,12.8h198.4
		C273.8,265,280.2,258.6,280.2,252.2L280.2,252.2z" class="fa-primary"/>
	<path d="M280.2,445.8v-38.4c0-6.4-6.4-12.8-12.8-12.8H69c-6.4,0-12.8,6.4-12.8,12.8v38.4c0,6.4,6.4,12.8,12.8,12.8h198.4
		C273.8,458.6,280.2,452.2,280.2,445.8L280.2,445.8z" class="fa-primary"/>
	<path d="M216.2,348.2v-38.4c0-6.4-6.4-12.8-12.8-12.8H69c-6.4,0-12.8,6.4-12.8,12.8v38.4c0,6.4,6.4,12.8,12.8,12.8h134.4
		C209.8,361,216.2,354.6,216.2,348.2z" class="fa-primary"/>
</g>
</svg>
