<?xml version="1.0" encoding="utf-8"?>
<!-- Generator: Adobe Illustrator 23.0.3, SVG Export Plug-In . SVG Version: 6.00 Build 0)  -->
<svg version="1.1" id="Layer_1" xmlns="http://www.w3.org/2000/svg" xmlns:xlink="http://www.w3.org/1999/xlink" x="0px" y="0px"
	 viewBox="0 0 1071.55 512" style="enable-background:new 0 0 1071.55 512;" xml:space="preserve">
<style type="text/css">
	.st0{fill:none;}
	.st1{fill:#999999;}
	.st2{opacity:0.4;enable-background:new    ;}
	.st3{fill:#FFFFFF;}
</style>
<ellipse class="st0" cx="894.81" cy="445.76" rx="40.5" ry="39.38"/>
<path d="M1063.27,335.79c-5.22-28.64-28.54-36.4-28.54-36.4c-65.36-24.17-161.1-43.56-161.1-43.56c-3.07,3.58-7.36,3.58-7.36,3.58
	l-36.48-81.08c-0.57-0.77-1.17-1.51-1.82-2.21c-2.65-2.9-6-5.09-9.83-5.95c-4.06-0.94-8.24-1.48-12.44-1.74
	c-2.1-0.12-4.21-0.18-6.31-0.16l-1.58,0.03l-0.8,0.02l-0.19,0.01h-0.28c-0.19-0.01-0.39-0.02-0.58-0.05
	c-0.91-0.12-1.75-0.55-2.4-1.18c-0.44-0.42-0.47-1.05-0.18-1.52c0,0,2.43-0.18,5.94-0.28v0.28c2.17-0.08,4.35-0.09,6.52-0.03
	c4.35,0.15,8.71,0.57,13.02,1.44c1.65,0.32,3.29,0.86,4.82,1.57c0.73,0.48,1.44,0.87,2.13,1.16c1.82,1.1,3.46,2.44,4.91,3.92
	c1.4,1.43,2.63,2.98,3.72,4.62h13.84c5.26,0,9.19-2.17,8.06-6.14h0.2c0,0-0.26-0.48-0.71-1.29c-0.11-0.21-0.23-0.43-0.37-0.65
	c-4.2-7.44-19.72-34.3-27.53-39.4l-28.61-13.18c0,0-61.07-82.37-255.29-106.37c0,0-10.78-8.36-37.68-10.48
	c-0.05,0.86-0.1,1.78-0.16,2.76c-0.03,0.65-0.07,1.32-0.11,2.02c-0.02,0.35-0.04,0.71-0.06,1.07c-0.04,0.72-0.08,1.47-0.13,2.25
	c-0.04,0.77-0.09,1.57-0.13,2.39c-0.09,1.64-0.18,3.38-0.28,5.22c-0.05,0.91-0.1,1.86-0.15,2.82c-0.17,3.38-0.36,7.04-0.56,10.99
	c-0.08,1.69-0.17,3.43-0.26,5.22c-0.17,3.59-0.35,7.38-0.54,11.36c-0.27,5.98-0.56,12.4-0.86,19.25c-0.04,0.76-0.07,1.52-0.1,2.29
	c-0.29,6.94-0.59,14.31-0.9,22.07c-0.6,15.54-1.21,32.69-1.79,51.3c-0.06,2.07-0.12,4.16-0.19,6.26c-0.06,2.11-0.12,4.23-0.19,6.37
	c-0.03,1.07-0.06,2.14-0.09,3.22c-0.06,2.16-0.12,4.33-0.19,6.52c-0.13,4.39-0.25,8.85-0.36,13.37c-0.05,2.26-0.11,4.54-0.17,6.83
	c-0.07,2.3-0.12,4.61-0.17,6.94c-0.06,2.33-0.11,4.67-0.17,7.03c-0.09,3.55-0.17,7.12-0.24,10.74c-0.08,3.62-0.15,7.26-0.23,10.95
	c-0.03,1.23-0.05,2.46-0.07,3.7c-0.12,6.19-0.24,12.46-0.35,18.84c0,0,0,0,0,0.01c-0.06,3.82-0.13,7.67-0.19,11.56
	c-0.02,1.31-0.04,2.61-0.06,3.92c-0.05,3.91-0.11,7.85-0.17,11.83c-0.06,3.99-0.11,8-0.15,12.05c-0.03,2.69-0.06,5.4-0.09,8.12v0.01
	c-0.06,5.45-0.11,10.95-0.16,16.5c0,0.01,0,0.01,0,0.01c-0.02,2.78-0.05,5.57-0.07,8.37c-0.01,1.41-0.02,2.82-0.03,4.23
	c-0.1,15.51-0.16,31.41-0.17,47.68l0.18,17.22l-121.62,0.06h-36.08v0.02h-35.84c15.81,10.79,27.28,27.18,31.36,46.22h4.48v65.78
	h97.78v-3.86h6.81v3.86h191.41v-2.97h5.93v2.97H810.4l14.67-10.97l-7.39-14.66c-2.96-8.49-4.57-17.62-4.57-27.13
	c0-45.32,36.58-82.07,81.7-82.07c32.51,0,60.59,19.08,73.74,46.7h102.7C1071.25,407.99,1068.49,364.43,1063.27,335.79z
	 M538.04,91.98c0.81-5.04,1.72-10.73,2.52-15.73c1.19-7.44,8.18-12.5,15.62-11.31l68.02,10.91c7.09,1.14,12,7.7,11.1,14.83
	l-1.56,12.22c-0.95,7.46-7.7,12.79-15.18,11.98l-68.73-7.46C542.2,106.59,536.83,99.55,538.04,91.98z M526.63,201.87
	c0.71-6.4,1.53-13.73,2.21-19.73c0.78-6.85,6.57-12.02,13.47-12.02h67.42c9.46,0,16.99,7.94,16.48,17.39l-1.28,24
	c-0.49,9.13-8.56,15.97-17.64,14.95l-67.01-7.51C531.79,218,525.68,210.36,526.63,201.87z M785.95,450.13h-98.5v-16.11h98.5V450.13z
	 M804.82,376.96H515.5l16.57-13.65h293C816.79,366.45,804.82,376.96,804.82,376.96z M721.61,260.14
	c-8.88-1.14-15.52-8.51-15.52-17.22V188.4c0-5.34,4.49-9.64,9.98-9.56l82.69,1.06c6.38,0.09,12.14,3.73,14.8,9.37L849.24,270
	L721.61,260.14z M1050.53,357.71c-6.44-7.6-38.2-22.52-62.29-34.9s-25.31-22.53-25.31-22.53s46.79,13.87,67.35,24.92
	C1050.84,336.24,1050.53,357.71,1050.53,357.71z"/>
<path class="st0" d="M1034.65,422.9c0,0,2.99,12.16,2.69,23.5h16.41C1053.75,446.4,1051.38,425.06,1034.65,422.9z"/>
<path d="M1068.44,414.04v-0.17h-97.36c0,0,0,0.01,0.01,0.04c0.01,0.02,0.02,0.05,0.04,0.09s0.04,0.09,0.06,0.15
	c0.19,0.43,0.56,1.36,1.02,2.88c0.01,0.01,0.01,0.01,0.01,0.02c1.29,4.23,3.35,12.98,4.28,28.11c0.58,9.44,0.73,21.35,0,36.19v0.3
	c0.93-0.01,1.86-0.03,2.78-0.04c51.06-0.91,74.21-11.14,84.47-18.9c4.96-3.77,7.8-9.6,7.8-15.71v-32.96H1068.44z M1037.34,446.39
	c0.31-11.34-2.69-23.49-2.69-23.49c16.73,2.16,19.1,23.49,19.1,23.49H1037.34z"/>
<path d="M894.81,379.53c-37.63,0-68.12,29.65-68.12,66.23c0,36.58,30.49,66.24,68.12,66.24c37.62,0,68.12-29.66,68.12-66.24
	C962.93,409.18,932.43,379.53,894.81,379.53z M894.81,485.14c-22.37,0-40.5-17.63-40.5-39.38s18.13-39.38,40.5-39.38
	s40.5,17.63,40.5,39.38S917.18,485.14,894.81,485.14z"/>
<path class="st1" d="M970.09,411.44c-0.21-0.51-0.44-1.01-0.66-1.52C969.65,410.43,969.87,410.93,970.09,411.44z"/>
<path class="st2" d="M1068.44,413.88v-5.9l0,0h-99.9c0.31,0.64,0.59,1.29,0.88,1.95c0.22,0.5,0.45,1.01,0.66,1.52
	c0.34,0.81,0.67,1.61,0.99,2.43H1068.44z"/>
<path d="M971.09,413.91L971.09,413.91c0.03,0.09,0.07,0.18,0.1,0.27c0.15,0.4,0.29,0.81,0.43,1.21c-0.15-0.4-0.28-0.81-0.43-1.21
	C971.16,414.09,971.12,414,971.09,413.91z"/>
<path d="M971.19,414.15c-0.05-0.12-0.08-0.2-0.1-0.24c0.03,0.09,0.07,0.18,0.1,0.27c0.15,0.4,0.29,0.81,0.43,1.21
	c0.2,0.55,0.4,1.09,0.59,1.65C971.75,415.51,971.38,414.58,971.19,414.15z"/>
<path class="st3" d="M622.33,384.11"/>
<path d="M795.84,165.57h-2.46c0.14-0.24,0.37-0.44,0.67-0.55c0.47-0.17,0.99-0.05,1.36,0.28
	C795.54,165.41,795.69,165.5,795.84,165.57z"/>
<path class="st0" d="M798.76,179.89l-82.69-1.06c-5.49-0.08-9.98,4.22-9.98,9.56v54.52c0,8.71,6.64,16.08,15.52,17.22l127.63,9.86
	l-35.68-80.73C810.9,183.62,805.14,179.98,798.76,179.89z"/>
<path class="st0" d="M527.19,363.31h4.88h136.97h156.03c-8.28,3.14-20.25,13.65-20.25,13.65H652.47H515.5h-4.88"/>
<rect x="687.45" y="434.01" class="st0" width="98.5" height="16.11"/>
<path class="st0" d="M1030.28,325.19c-20.56-11.05-67.35-24.92-67.35-24.92s1.22,10.15,25.31,22.53
	c24.09,12.38,55.85,27.3,62.29,34.9C1050.53,357.7,1050.84,336.23,1030.28,325.19z"/>
<path class="st2" d="M549.83,107.41l68.73,7.46c7.48,0.81,14.23-4.52,15.18-11.98l1.55-12.22c0.91-7.13-4.01-13.69-11.1-14.83
	l-68.02-10.91c-7.44-1.19-14.43,3.87-15.62,11.3c-0.8,5.01-1.71,10.69-2.52,15.73C536.83,99.55,542.2,106.58,549.83,107.41z"/>
<path class="st2" d="M540.28,218.94l67.01,7.51c9.09,1.02,17.15-5.82,17.64-14.95l1.28-24.01c0.5-9.45-7.02-17.39-16.48-17.39
	h-67.42c-6.9,0-12.69,5.17-13.47,12.02c-0.68,6-1.5,13.33-2.21,19.73C525.68,210.35,531.79,217.99,540.28,218.94z"/>
<rect x="687.45" y="434.01" class="st0" width="98.5" height="16.11"/>
<path class="st0" d="M798.76,179.89l-82.69-1.06c-5.49-0.08-9.98,4.22-9.98,9.56v54.52c0,8.71,6.64,16.08,15.52,17.22l127.63,9.86
	l-35.68-80.73C810.9,183.62,805.14,179.98,798.76,179.89z"/>
<path class="st0" d="M1030.28,325.19c-20.56-11.05-67.35-24.92-67.35-24.92s1.22,10.15,25.31,22.53
	c24.09,12.38,55.85,27.3,62.29,34.9C1050.53,357.7,1050.84,336.23,1030.28,325.19z"/>
<path d="M796.33,165.7c0.07,0.01,0.15,0.01,0.22,0.01l0.32-0.02l0.82-0.05l1.63-0.07h-3.48
	C795.99,165.64,796.16,165.68,796.33,165.7z"/>
<path class="st2" d="M490.52,0.16c-0.43-0.01-0.83-0.02-1.25-0.03c-0.75-0.02-1.5-0.03-2.22-0.04c-12.48-0.22-20.63,0.04-20.63,0.04
	v362.5h0h26.9v4.18h3.48c0.09-189.32,7.41-329.26,9.54-366.07C500.67,0.45,495.33,0.27,490.52,0.16z"/>
<rect x="364.03" y="434.01" class="st3" width="53.64" height="16.11"/>
<rect x="687.45" y="434.01" class="st2" width="98.5" height="16.11"/>
<rect x="364.03" y="434.01" class="st2" width="53.64" height="16.11"/>
<ellipse class="st0" cx="259.01" cy="445.76" rx="40.5" ry="39.38"/>
<ellipse class="st0" cx="93.08" cy="445.76" rx="40.5" ry="39.38"/>
<path d="M259.01,379.53c-37.63,0-68.12,29.65-68.12,66.23c0,36.58,30.49,66.24,68.12,66.24c37.62,0,68.12-29.66,68.12-66.24
	C327.13,409.18,296.63,379.53,259.01,379.53z M259.01,485.14c-22.37,0-40.5-17.63-40.5-39.38s18.13-39.38,40.5-39.38
	s40.5,17.63,40.5,39.38S281.38,485.14,259.01,485.14z"/>
<path d="M36.54,384.11H18.38L0,396.49v33.84v33.22l8.28,7.08v-40.3h9c4.08-19.04,15.54-35.43,31.36-46.22H36.54z"/>
<path d="M118.03,384.11c-7.73-2.96-16.14-4.58-24.95-4.58s-17.22,1.62-24.95,4.58c-25.28,9.68-43.17,33.63-43.17,61.65
	c0,36.58,30.5,66.24,68.12,66.24c37.62,0,68.12-29.66,68.12-66.24C161.2,417.74,143.31,393.79,118.03,384.11z M93.08,485.14
	c-22.37,0-40.5-17.63-40.5-39.38s18.13-39.38,40.5-39.38c22.37,0,40.5,17.63,40.5,39.38S115.45,485.14,93.08,485.14z"/>
<path d="M221.17,370.95c-0.68-2.9-3.64-4.7-6.61-4.04l-72.16,16.11l-4.88,1.09c15.81,10.79,27.28,27.18,31.36,46.22h14.33
	c4.08-19.04,15.55-35.43,31.36-46.22h-12.09h-15.61l30.16-6.73c2.43-0.54,4.11-2.57,4.27-4.87
	C221.34,372,221.3,371.47,221.17,370.95z"/>
</svg>
