<?xml version="1.0" encoding="utf-8"?>
<!-- Generator: Adobe Illustrator 23.0.3, SVG Export Plug-In . SVG Version: 6.00 Build 0)  -->
<svg version="1.1" id="Layer_1" xmlns="http://www.w3.org/2000/svg" xmlns:xlink="http://www.w3.org/1999/xlink" x="0px" y="0px"
	 viewBox="0 0 1033.07 444.39" style="enable-background:new 0 0 1033.07 444.39;" xml:space="preserve">
<style type="text/css">
	.st0{opacity:0.4;enable-background:new    ;}
	.st1{fill:none;}
	.st2{fill:#999999;}
	.st3{fill:#FFFFFF;}
</style>
<rect x="23.97" y="16.74" class="st0" width="611.85" height="281.3"/>
<path d="M647.08,0H12.71C9.68,0,7.23,2.45,7.23,5.48v303.81c0,3.03,2.45,5.49,5.48,5.49h634.37c3.02,0,5.48-2.46,5.48-5.49V5.48
	C652.56,2.45,650.1,0,647.08,0z M635.82,298.04H23.97V16.74h611.85V298.04z"/>
<ellipse class="st1" cx="880.37" cy="383.07" rx="37.49" ry="36.46"/>
<path class="st1" d="M998.92,361.91c0,0,2.77,11.26,2.49,21.75h15.19C1016.6,383.66,1014.4,363.91,998.92,361.91z"/>
<path d="M1030.19,353.71v-0.16h-79.21c0,0,0,0.01,0.01,0.04c0.01,0.02,0.02,0.05,0.04,0.08c0.02,0.04,0.04,0.08,0.06,0.14
	c0.18,0.4,0.52,1.26,0.94,2.67c0.01,0.01,0.01,0.01,0.01,0.02c1.19,3.92,3.1,12.02,3.96,26.02c0.54,8.74,0.68,19.76,0,33.5v0.28
	c0.86-0.01,1.72-0.03,2.57-0.04c47.27-0.84,57.78-10.31,67.28-17.5c4.59-3.49,7.22-8.89,7.22-14.54v-30.51H1030.19z M1001.4,383.66
	c0.29-10.5-2.49-21.74-2.49-21.74c15.49,2,17.68,21.74,17.68,21.74H1001.4z"/>
<path d="M221.34,321.76c-34.82,0-63.06,27.45-63.06,61.31c0,33.86,28.23,61.32,63.06,61.32c34.82,0,63.06-27.46,63.06-61.32
	C284.4,349.21,256.17,321.76,221.34,321.76z M221.34,419.53c-20.71,0-37.49-16.32-37.49-36.45c0-20.13,16.78-36.45,37.49-36.45
	c20.71,0,37.49,16.32,37.49,36.45C258.83,403.21,242.05,419.53,221.34,419.53z"/>
<path d="M880.38,321.76c-34.83,0-63.06,27.45-63.06,61.31c0,33.86,28.22,61.32,63.06,61.32c34.82,0,63.06-27.46,63.06-61.32
	C943.43,349.21,915.2,321.76,880.38,321.76z M880.38,419.53c-20.71,0-37.49-16.32-37.49-36.45c0-20.13,16.78-36.45,37.49-36.45
	c20.71,0,37.49,16.32,37.49,36.45C917.87,403.21,901.08,419.53,880.38,419.53z"/>
<path class="st2" d="M950.06,351.3c-0.2-0.47-0.4-0.94-0.61-1.4C949.66,350.36,949.86,350.83,950.06,351.3z"/>
<path class="st0" d="M1030.2,353.55v-5.46l0,0h-81.56c0.28,0.59,0.55,1.2,0.81,1.8c0.21,0.47,0.41,0.93,0.61,1.4
	c0.31,0.75,0.62,1.49,0.91,2.25H1030.2z"/>
<path d="M950.99,353.59L950.99,353.59c0.03,0.08,0.06,0.16,0.09,0.25c0.14,0.37,0.27,0.75,0.4,1.12c-0.13-0.37-0.26-0.75-0.4-1.12
	C951.05,353.75,951.02,353.67,950.99,353.59z"/>
<path d="M951.09,353.81c-0.04-0.11-0.08-0.18-0.1-0.22c0.03,0.08,0.06,0.16,0.09,0.25c0.14,0.37,0.27,0.75,0.4,1.12
	c0.18,0.51,0.37,1.01,0.55,1.53C951.6,355.07,951.26,354.21,951.09,353.81z"/>
<path class="st3" d="M628.14,326"/>
<path d="M170.67,326c0,0-0.01,0-0.02,0.01c-0.63,0.48-18.35,13.97-22.94,39.76c-0.69,3.85-1.08,7.97-1.08,12.36H9.03
	c-0.99,0-1.8-0.81-1.8-1.8v-24.59c0-0.99-0.81-1.8-1.8-1.8H1.8c-0.99,0-1.8-0.81-1.8-1.8v-24.26c0-1.17,0.95-2.12,2.12-2.12h5.47
	c1.17,0,2.1,0.93,2.12,2.08c0.02,1.19,0.93,2.16,2.12,2.16H170.67z"/>
<path d="M1025.41,281.26c-4.83-26.51-26.42-33.69-26.42-33.69c-60.5-22.38-138.22-40.32-138.22-40.32
	c-2.84,3.31-6.81,3.31-6.81,3.31l-14.84-32.98l-19.85-43.24l-3.27-7.11c-2.17-4.73-6.89-7.76-12.1-7.76h-73.83h-45.34
	c-11.45,0-20.73,9.28-20.73,20.73v147.13v25.49v6.55v2.39V326H481.5H300.48h-25.38h-3.85c0,0,0.01,0,0.02,0.01
	c0.63,0.48,18.35,13.97,22.94,39.76c0.69,3.85,1.08,7.97,1.08,12.36h5.19v0h204.31c0.19,3.23,0.38,7.93,0.16,11.83h12.19
	c0,0,1.37-8.25-0.15-17.97h18.05v23.52c0,3.03,2.51,5.49,5.63,5.5c11.59,0.05,37.02,0.14,37.19-0.02c0.13-0.13,0.1,2.75,0.06,4.97
	h231.06c-2.74-7.86-4.23-16.32-4.23-25.12c0-41.95,33.86-75.97,75.63-75.97c30.09,0,56.08,17.66,68.26,43.23h84.16
	C1032.8,348.1,1030.24,307.78,1025.41,281.26z M779.6,387.11h-91.18v-14.92h91.18V387.11z M720.05,211.24
	c-8.22-1.06-14.37-7.88-14.37-15.95v-50.46c0-4.95,4.16-8.93,9.24-8.85l76.54,0.98c5.91,0.08,11.24,3.45,13.7,8.67l33.03,74.73
	L720.05,211.24z M1013.61,301.56c-5.96-7.04-24.45-20.85-46.75-32.31c-22.3-11.46-23.43-20.86-23.43-20.86s32.41,12.84,51.44,23.07
	C1013.9,281.68,1013.61,301.56,1013.61,301.56z"/>
</svg>
