<?xml version="1.0" encoding="utf-8"?>
<!-- Generator: Adobe Illustrator 24.0.0, SVG Export Plug-In . SVG Version: 6.00 Build 0)  -->
<svg version="1.1" id="Layer_1" xmlns="http://www.w3.org/2000/svg" xmlns:xlink="http://www.w3.org/1999/xlink" x="0px" y="0px"
	 viewBox="0 0 546.3 514.3" style="enable-background:new 0 0 546.3 514.3;" xml:space="preserve">
<style type="text/css">
	.st0{opacity:0.4;enable-background:new    ;}
</style>
<polygon class="st0" points="394.2,31.5 395.3,393 234.8,408.2 234.8,12.9 "/>
<polygon class="st0" points="534.8,47.9 534.8,379.8 411.4,391.4 410.3,33.4 "/>
<polygon class="st0" points="5.8,356.2 5.8,145.7 211.9,17.6 211.9,407 "/>
<path d="M223.3,0L0,140.6v222.1l19.1,5l6.3,14.9l12.2,4.4v39.5h-1.9v3.7h18.3v-3.7h-1.7v-34.2l62.2,22.4c-1.9,7.9-3,17.1-3,26.9
	c0,29.8,10.2,53.9,22.7,53.9h18c5.5,11.7,12.8,18.8,20.8,18.8h26.6c16.2,0,29.6-29.3,31.2-66.9l102-12.2v30.1l-98.2,13.4v24.5
	l289.1-38.7v-23.1l-67.9,7.8v-28.8l69.9-8.4l3.8-20.3l16.6-1.6V37.7L223.3,0z M211.9,407L5.8,356.2V145.7L211.9,17.6V407z
	 M234.8,408.2V12.9l159.4,18.6l1.1,361.5L234.8,408.2z M434.3,451.8l-79.7,10.3v-29.5l79.7-9.6V451.8z M534.8,379.8l-123.4,11.7
	l-1.1-358.1l124.5,14.5V379.8z"/>
</svg>
