<?xml version="1.0" encoding="utf-8"?>
<!-- Generator: Adobe Illustrator 24.0.0, SVG Export Plug-In . SVG Version: 6.00 Build 0)  -->
<svg version="1.1" id="Layer_1" xmlns="http://www.w3.org/2000/svg" xmlns:xlink="http://www.w3.org/1999/xlink" x="0px" y="0px"
	 viewBox="0 0 450.4 582.5" style="enable-background:new 0 0 450.4 582.5;" xml:space="preserve">
<style type="text/css">
	.st0{opacity:0.4;enable-background:new    ;}
</style>
<path d="M447.3,285.1l-1.2-10.2c-0.1-0.6-0.4-1.1-0.9-1.5l-2.9-2.2c-0.2-0.1-0.3-0.2-0.5-0.3l-20.6-8.1c-0.3-0.1-0.5-0.2-0.8-0.2
	h-14.3c-1.1,0-2.1-0.9-2.2-2l-7.7-82.2c-0.1-0.7,0.2-1.3,0.7-1.8l3.5-3.4c0.4-0.4,1-0.6,1.5-0.6h19.9c0.5,0,1,0.2,1.4,0.5
	c0.5,0.4,1.1,1,1.6,1.4c0.4,0.3,0.8,0.5,1.3,0.5l8.6,0.4c1.5,0.1,2.6-1.3,2.2-2.8l-2.3-8c-0.3-0.9-1.1-1.6-2.1-1.6
	c-6.9,0-33.6,0.1-47.5,0.1c-1.2,0-2.2-1-2.2-2.2v-1c0-0.3,0.1-0.6,0.2-0.9l4.4-9.2c0.2-0.4,0.2-0.7,0.2-1.1l-6.6-77.4
	c0-0.1,0-0.3,0-0.4c0.3-2.4,2.7-26.5,0.2-35.8c-2.7-9.8-11.1-18.7-17.3-23.8c-6.2-5.1-28.9-6.7-30.2-6.9c-1.3-0.2-77-4.3-79.3-4.4
	c0,0-0.1,0-0.1,0h-57.7c0,0-0.1,0-0.1,0c-2.3,0.1-78,4.2-79.3,4.4c-1.3,0.2-24,1.8-30.2,6.9c-6.2,5.1-14.7,14-17.3,23.8
	c-2.5,9.3-0.1,33.4,0.2,35.8c0,0.1,0,0.3,0,0.4l-6.6,77.4c0,0.4,0,0.8,0.2,1.1l4.4,9.2c0.1,0.3,0.2,0.6,0.2,0.9v1
	c0,1.2-1,2.2-2.2,2.2c-13.9,0-40.6-0.1-47.5-0.1c-1,0-1.8,0.6-2.1,1.6l-2.3,8c-0.4,1.4,0.7,2.8,2.2,2.8l8.6-0.4
	c0.5,0,0.9-0.2,1.3-0.5c0.5-0.4,1.1-1,1.6-1.4c0.4-0.3,0.9-0.5,1.4-0.5h19.9c0.6,0,1.1,0.2,1.5,0.6l3.5,3.4c0.5,0.5,0.7,1.1,0.7,1.8
	l-7.7,82.2c-0.1,1.1-1,2-2.2,2H30.6c-0.3,0-0.5,0.1-0.8,0.2l-20.6,8.1c-0.2,0.1-0.3,0.2-0.5,0.3l-2.9,2.2c-0.5,0.4-0.8,0.9-0.9,1.5
	l-1.2,10.2c-0.1,1.1,0.7,2.2,1.8,2.4l47.8,8.2c1,0.2,1.8,1.1,1.8,2.1c0,25.4,0.5,54.1,0.6,58.3c0,0.4-0.1,0.7-0.3,1.1
	c-1,1.8-5.2,7.6-18.2,11.7c-15.2,4.8-19.4,58.8-19.5,61c0,0.1,0,0.1,0,0.2v21.7c0,0.7,0.3,1.3,0.9,1.7l1.5,1.1
	c0.8,0.6,1.1,1.8,0.6,2.7l0,0c-0.2,0.4-0.5,0.7-0.9,0.9l-2.7,1.5c-0.7,0.4-1.1,1.1-1.1,1.9c0,8.2,0.4,53.3,4.4,71.7
	c0.3,1.4,0.6,2.6,1,3.7c0,0,2.7,7.8,2.5,8.5c-0.2,0.7,0.4,19.5,0.4,19.5s0.2,13.4,9.4,17.2c0.3,0.1,35.1,0.2,35.1,0.2
	c4.5,0,8.6-2.6,10.4-6.7c2.1-4.7,4.2-12.3,4-23.4c0-1.2,1-2.2,2.2-2.2c25.6,0.5,257.8,1.9,282.9,2.1c0.4,0,0.7,0.3,0.6,0.7
	c-1,16.7,2.3,24.5,4.8,27.4c0.7,0.9,3.2,1.5,4.3,1.6c7.6,0.1,41.2,0.7,41.4,0.6c9.1-3.8,7.6-17.3,7.6-17.3s0.7-18.9,0.4-19.5
	c-0.2-0.7,2.4-8.5,2.4-8.5c5-15.5,5.3-69.9,5.3-76.1c0-0.4-0.2-0.7-0.5-0.9l-3.3-1.8c-0.4-0.2-0.7-0.5-0.9-0.9
	c-0.5-0.9-0.2-2.1,0.6-2.7l1.5-1.1c0.5-0.4,0.9-1.1,0.9-1.7v-21.7c0-0.1,0-0.1,0-0.2c-0.2-2.3-4.3-56.2-19.5-61
	c-13-4.1-17.2-9.9-18.2-11.7c-0.2-0.3-0.3-0.7-0.3-1.1c0.1-4.2,0.6-32.9,0.6-58.3c0-1.1,0.8-2,1.8-2.1l47.8-8.2
	C446.7,287.3,447.4,286.2,447.3,285.1z M68.6,244.1c0,0,0-0.1,0-0.1c0.2-2.1,4.5-55.3,5.9-68.1c1.3-11.2,6.7-16,8.2-17.2
	c0.2-0.2,0.4-0.5,0.4-0.8c0-0.5,0.4-1,1-1l131.9-1.5v-0.2l9.6,0.1l9.6-0.1v0.2L367,157c0.5,0,1,0.4,1,1c0,0.3,0.1,0.6,0.4,0.8
	c1.5,1.2,6.9,6,8.2,17.2c1.5,12.8,5.8,66,5.9,68.1c0,0,0,0.1,0,0.1c0.2,0.9,2.2,14.5-11.3,14.5c-12.4,0-110.9-1.7-145.7-2
	c-34.8,0.3-133.3,2-145.7,2C66.4,258.6,68.4,245.1,68.6,244.1z M86.1,459.7c-9.6-0.1-37.6-0.4-45.9-1c-1.1-0.1-2-1-2-2.1l-1.6-61
	c0-1.4,1.2-2.4,2.5-2.2c7,1.2,26,6,33.5,24.8c7.1,17.6,13,32.4,15.5,38.5C88.7,458.2,87.7,459.8,86.1,459.7z M318.7,345.1l-7.2,116
	c-0.2,3.8-3.4,6.7-7.1,6.7H145.6c-3.8,0-7-3-7.2-6.8l-6.1-116c-0.2-4.1,3.1-7.5,7.2-7.5h172C315.6,337.5,318.9,341,318.7,345.1z
	 M413.5,393.5c1.4-0.2,2.6,0.8,2.5,2.2l-1.7,61c0,1.1-0.9,2-2,2.1c-8.2,0.5-36.3,0.9-45.9,1c-1.6,0-2.6-1.5-2-3
	c2.5-6.1,8.4-20.8,15.5-38.5C387.5,399.5,406.5,394.6,413.5,393.5z"/>
<path class="st0" d="M382,244.1c0,0-4.4-55.1-5.9-68.1c-1.5-13-8.6-17.5-8.6-17.5V157l-132.8-1.6v-0.2l-9.6,0.1l-9.6-0.1v0.2
	L82.6,157v1.5c0,0-7.1,4.4-8.6,17.5c-1.5,13-5.9,68.1-5.9,68.1s-2.7,14.5,11.3,14.5c12.4,0,110.9-1.7,145.7-2
	c34.8,0.4,133.3,2,145.7,2C384.6,258.6,382,244.1,382,244.1z"/>
<path class="st0" d="M131.8,345l6.1,116c0.2,3.8,3.3,6.8,7.2,6.8h158.7c3.8,0,6.9-2.9,7.1-6.7l7.2-116c0.3-4.1-3-7.6-7.1-7.6H139
	C134.9,337.5,131.6,340.9,131.8,345z"/>
<path class="st0" d="M36,393.1c0,0,26.8,1.9,36.1,25.2c9.3,23.3,16.7,41.5,16.7,41.5s-46.8-0.4-51.1-1.2L36,393.1z"/>
<path class="st0" d="M415.7,393.1c0,0-26.8,1.9-36.1,25.2c-9.3,23.3-16.7,41.5-16.7,41.5s46.8-0.4,51.1-1.2L415.7,393.1z"/>
<polygon class="st0" points="0,178.8 13.1,176.2 25.4,175.6 29.6,176.7 30.1,176.8 30,263.2 8.8,271.6 4.9,274.5 0,273.3 "/>
<polygon class="st0" points="450.4,178.8 437.3,176.2 425,175.6 420.8,176.7 420.2,176.8 420.4,263.2 441.6,271.6 445.5,274.5 
	450.4,273.3 "/>
</svg>
