<svg xmlns="http://www.w3.org/2000/svg" width="306.343" height="49.539" viewBox="0 0 306.343 49.539">
  <g id="Group_9708" data-name="Group 9708" transform="translate(-1296.745 -520.071)">
    <path id="Path_6502" data-name="Path 6502" d="M1595.242,554.817a.934.934,0,0,1-.788-.649,15.119,15.119,0,0,0-20.675-9.275.927.927,0,0,1-1.184-.376,23.33,23.33,0,0,0-20.007-11.435,22.7,22.7,0,0,0-2.359.134.932.932,0,0,0-.448,1.685,13.473,13.473,0,0,1,5.653,10.93.932.932,0,1,1-1.864,0,11.574,11.574,0,1,0-23.148,0,.932.932,0,1,1-1.864,0,13.454,13.454,0,0,1,11.74-13.318.933.933,0,0,0,.51-1.616,31.092,31.092,0,0,0-49.849,11.7.933.933,0,0,0,.44,1.165,14.675,14.675,0,0,1,7.95,13.048.932.932,0,1,1-1.864,0,12.84,12.84,0,0,0-7.792-11.8,1.248,1.248,0,0,0-.375-.078,1.6,1.6,0,0,1-.2-.018,13.591,13.591,0,0,0-12.175,1.642c-.121.091-.244.179-.336.254-.013.011-.155.125-.168.133a12.815,12.815,0,0,0-4.638,9.872.932.932,0,1,1-1.864,0,14.542,14.542,0,0,1,3.212-9.151.927.927,0,0,0-.094-1.263,14.808,14.808,0,0,0-22.107,2.171.932.932,0,0,1-1.647-.277,20.626,20.626,0,0,0-35.119-7.755.95.95,0,0,1-.7.31h-.013a.934.934,0,0,1-.7-.337,18.789,18.789,0,0,0-14.516-6.829,18.518,18.518,0,0,0-8.76,2.171,11.591,11.591,0,0,0-4.16-.777,11.759,11.759,0,0,0-1.432.1,27.242,27.242,0,0,0-46.26-1.287.927.927,0,0,0-.073.9.938.938,0,0,0,.716.543,13.5,13.5,0,0,1,11.5,13.28.932.932,0,1,1-1.864,0,11.574,11.574,0,1,0-23.148,0,.932.932,0,1,1-1.864,0,13.381,13.381,0,0,1,7.465-12.02.932.932,0,0,0-.222-1.746,19.594,19.594,0,0,0-23.773,19.214c0,.339.011.676.031,1.013a.93.93,0,0,1-1.135.958,5.753,5.753,0,0,0-6.941,5.589,5.7,5.7,0,0,0,5.127,5.693,3,3,0,0,0,.382.03h290.69a6.276,6.276,0,0,0,.715-12.512Z" transform="translate(0.349 0.348)" fill="#fff"/>
    <g id="Group_7717" data-name="Group 7717" transform="translate(1297.745 521.071)">
      <path id="Path_6503" data-name="Path 6503" d="M1595.693,554.239a16.057,16.057,0,0,0-21.948-9.849,24.173,24.173,0,0,0-28.766-10.549,32.089,32.089,0,0,0-55.2,10.537,14.326,14.326,0,0,0-14.525,2.938,15.756,15.756,0,0,0-24.715,1.049,21.56,21.56,0,0,0-36.708-8.1,19.771,19.771,0,0,0-27.53-2.879,28.217,28.217,0,0,0-50.51-1.311,20.6,20.6,0,0,0-30,18.323c0,.357.013.711.031,1.063a6.734,6.734,0,0,0-1.423-.154,6.653,6.653,0,0,0-.663,13.273,3.481,3.481,0,0,0,.451.034H1594.88a7.208,7.208,0,0,0,.813-14.37Z" transform="translate(-1297.745 -521.071)" fill="none" stroke="#ddd" stroke-linecap="round" stroke-linejoin="round" stroke-width="2"/>
      <path id="Path_6504" data-name="Path 6504" d="M1314.284,543.192a12.507,12.507,0,1,1,25.014,0" transform="translate(-1287.844 -515.316)" fill="none" stroke="#ddd" stroke-linecap="round" stroke-linejoin="round" stroke-width="2"/>
      <path id="Path_6505" data-name="Path 6505" d="M1442.927,541.46a12.507,12.507,0,0,1,25.014,0" transform="translate(-1210.834 -516.352)" fill="none" stroke="#ddd" stroke-linecap="round" stroke-linejoin="round" stroke-width="2"/>
      <path id="Path_6506" data-name="Path 6506" d="M1406.259,548.8a13.773,13.773,0,0,1,27.546,0" transform="translate(-1232.785 -512.716)" fill="none" stroke="#ddd" stroke-linecap="round" stroke-linejoin="round" stroke-width="2"/>
    </g>
  </g>
</svg>
