<svg xmlns="http://www.w3.org/2000/svg" width="116.84" height="116.836" viewBox="0 0 116.84 116.836">
  <path id="Path_6507" data-name="Path 6507" d="M1261.584,390.971l-1.032-1.327a14.413,14.413,0,0,1-2.059-14.689q.527-1.191.988-2.4a13.784,13.784,0,0,1,11.364-8.631l2.045-.257a3.244,3.244,0,0,0,2.842-3.219v-7.611a3.241,3.241,0,0,0-2.842-3.219l-2.045-.257a13.782,13.782,0,0,1-11.364-8.637q-.458-1.211-.988-2.4a14.4,14.4,0,0,1,2.059-14.684l1.032-1.327a3.247,3.247,0,0,0-.27-4.288l-5.381-5.381a3.252,3.252,0,0,0-4.29-.265l-1.324,1.029a14.4,14.4,0,0,1-14.686,2.057q-1.193-.529-2.4-.986a13.793,13.793,0,0,1-8.634-11.366l-.255-2.045a3.248,3.248,0,0,0-3.221-2.842h-7.61a3.241,3.241,0,0,0-3.219,2.842l-.257,2.045a13.786,13.786,0,0,1-8.633,11.366q-1.216.459-2.4.986a14.433,14.433,0,0,1-14.685-2.057l-1.326-1.032a3.237,3.237,0,0,0-4.286.265l-5.387,5.38a3.248,3.248,0,0,0-.27,4.288l1.034,1.327a14.421,14.421,0,0,1,2.057,14.687q-.532,1.193-.986,2.4a13.787,13.787,0,0,1-11.366,8.633l-2.045.257a3.244,3.244,0,0,0-2.843,3.219v7.611a3.244,3.244,0,0,0,2.843,3.219l2.042.257a13.792,13.792,0,0,1,11.369,8.635q.456,1.213.986,2.4a14.419,14.419,0,0,1-2.057,14.686l-1.031,1.327a3.243,3.243,0,0,0,.271,4.286l5.381,5.382a3.239,3.239,0,0,0,4.288.268l1.324-1.028a14.393,14.393,0,0,1,14.684-2.057q1.193.529,2.4.986a13.782,13.782,0,0,1,8.633,11.366l.257,2.043a3.244,3.244,0,0,0,3.219,2.844h7.61a3.245,3.245,0,0,0,3.22-2.844l.255-2.043a13.779,13.779,0,0,1,8.633-11.366q1.218-.458,2.4-.986a14.419,14.419,0,0,1,14.69,2.057l1.324,1.028a3.245,3.245,0,0,0,4.286-.268l5.381-5.382A3.235,3.235,0,0,0,1261.584,390.971Zm-44.264-11.612a22.717,22.717,0,1,1,22.718-22.718A22.743,22.743,0,0,1,1217.32,379.359Z" transform="translate(-1158.893 -298.222)" fill="#dadada"/>
</svg>
