<svg xmlns="http://www.w3.org/2000/svg" width="421.754" height="337.002" viewBox="0 0 421.754 337.002">
  <g id="Checked_in" data-name="Checked in" transform="translate(-225.553 -169.38)">
    <path id="Path_24026" data-name="Path 24026" d="M479.961,208.937c87.1-10.218,199.628,19.273,233.341,68.322,52.431,76.271-83.107,203.479-213.864,180.229C411.052,441.771,319.745,356.4,342.257,287.442,363,223.9,468.6,210.273,479.961,208.937" transform="translate(-77.552 -25.022)" fill="#f2f2f2"/>
    <path id="Path_24027" data-name="Path 24027" d="M414.158,193.978c81.562-32.226,197.885-32.623,243.061,6.127,70.254,60.254-28.085,218-160.421,229.093-89.464,7.5-199.627-51.555-195.574-123.99,3.732-66.734,102.285-107.022,112.934-111.229" transform="translate(-51.748)" fill="none" stroke="#344566" stroke-miterlimit="10" stroke-width="2"/>
    <path id="Path_24028" data-name="Path 24028" d="M658.708,1093.407l-105.266,1.3a2.218,2.218,0,0,1-1.3-3.782l51.473-60.827a2.071,2.071,0,0,1,1.617-.63l105.235,7.542a2.217,2.217,0,0,1,1.3,3.782l-51.442,51.993A2.068,2.068,0,0,1,658.708,1093.407Z" transform="translate(-223.21 -588.329)" fill="#6c6c6c" opacity="0.15"/>
    <path id="Path_24029" data-name="Path 24029" d="M680.452,1123.995H600.97l36.739-47.865h79.482Z" transform="translate(-257.098 -620.285)" fill="#ffad43"/>
    <path id="Path_24030" data-name="Path 24030" d="M680.452,1123.995H600.97l36.739-47.865h79.482Z" transform="translate(-257.098 -620.285)" fill="#6c6c6c" opacity="0.5"/>
    <rect id="Rectangle_17639" data-name="Rectangle 17639" width="79.482" height="43.273" transform="translate(380.612 412.569)" fill="#ffc06e"/>
    <path id="Path_24031" data-name="Path 24031" d="M571.972,886.456l-24.416-23.222a3.177,3.177,0,0,0-4.6.23l-36.531,42.485a6.1,6.1,0,0,0-1.22,5.087l30.124,23.3Z" transform="translate(-191.424 -473.887)" fill="#ffad43"/>
    <path id="Path_24032" data-name="Path 24032" d="M637.709,982.1,600.97,1029.96V986.688l36.739-47.868Z" transform="translate(-257.098 -526.251)" fill="#ffad43"/>
    <path id="Path_24033" data-name="Path 24033" d="M889.9,982.1,853.16,1029.96V986.688L889.9,938.82Z" transform="translate(-429.805 -526.251)" fill="#ffad43"/>
    <path id="Path_24034" data-name="Path 24034" d="M889.9,982.1,853.16,1029.96V986.688L889.9,938.82Z" transform="translate(-429.805 -526.251)" fill="#6c6c6c" opacity="0.15"/>
    <path id="Path_24035" data-name="Path 24035" d="M637.709,982.1,600.97,1029.96V986.688l36.739-47.868Z" transform="translate(-257.098 -526.251)" fill="#6c6c6c" opacity="0.3"/>
    <rect id="Rectangle_17640" data-name="Rectangle 17640" width="79.482" height="43.273" transform="translate(343.872 460.437)" fill="#ffc06e"/>
    <path id="Path_24036" data-name="Path 24036" d="M889.9,889.438l37.653-22.547a1.235,1.235,0,0,1,1.6,1.837l-47.527,58.9a7.432,7.432,0,0,1-3.687,2.461l-24.681,7.22Z" transform="translate(-429.874 -476.869)" fill="#ffad43"/>
    <path id="Path_24037" data-name="Path 24037" d="M1382.23,814.322l-39.015-.353a.788.788,0,0,1-.406-1.38l20.221-22.093a.794.794,0,0,1,.63-.183l30.887,5.222a.785.785,0,0,1,.4,1.377l-12.106,17.227A.794.794,0,0,1,1382.23,814.322Z" transform="translate(-764.943 -424.542)" fill="#6c6c6c" opacity="0.15"/>
    <path id="Path_24038" data-name="Path 24038" d="M1403.333,812.01H1369.04l15.85-20.65h34.293Z" transform="translate(-783.096 -425.265)" fill="#ffad43"/>
    <path id="Path_24039" data-name="Path 24039" d="M1403.333,812.01H1369.04l15.85-20.65h34.293Z" transform="translate(-783.096 -425.265)" fill="#6c6c6c" opacity="0.5"/>
    <rect id="Rectangle_17641" data-name="Rectangle 17641" width="34.29" height="18.671" transform="translate(601.793 347.424)" fill="#ffc06e"/>
    <path id="Path_24040" data-name="Path 24040" d="M1384.89,750.791l-15.85,20.65V752.77l15.85-20.65Z" transform="translate(-783.096 -384.696)" fill="#ffad43"/>
    <path id="Path_24041" data-name="Path 24041" d="M1493.7,750.791l-15.85,20.65V752.77l15.85-20.65Z" transform="translate(-857.613 -384.696)" fill="#ffad43"/>
    <path id="Path_24042" data-name="Path 24042" d="M1493.7,750.791l-15.85,20.65V752.77l15.85-20.65Z" transform="translate(-857.613 -384.696)" fill="#6c6c6c" opacity="0.15"/>
    <path id="Path_24043" data-name="Path 24043" d="M1384.89,750.791l-15.85,20.65V752.77l15.85-20.65Z" transform="translate(-783.096 -384.696)" fill="#6c6c6c" opacity="0.3"/>
    <rect id="Rectangle_17642" data-name="Rectangle 17642" width="34.29" height="18.671" transform="translate(585.944 368.074)" fill="#ffc06e"/>
    <path id="Path_24044" data-name="Path 24044" d="M1334.083,751.72l10.8,13.02h34.29l-12.812-13.533a1.292,1.292,0,0,0-.889-.4l-30.354-1.2a1.3,1.3,0,0,0-1.037,2.121Z" transform="translate(-758.953 -396.666)" fill="#ffad43"/>
    <path id="Path_24045" data-name="Path 24045" d="M1454.251,685H1423.2a1.6,1.6,0,0,0-1.576,1.333l-2.288,13.518h34.293l2.206-12.982a1.6,1.6,0,0,0-1.588-1.869Z" transform="translate(-817.544 -352.427)" fill="#ffad43"/>
    <line id="Line_3175" data-name="Line 3175" x1="89.823" transform="translate(483.69 484.774)" fill="none" stroke="#b5b5b5" stroke-miterlimit="10" stroke-width="2"/>
    <path id="Path_24046" data-name="Path 24046" d="M644.929,344.223l-30.9,31.2V325.061l30.9-32.831Z" transform="translate(-266.041 -83.445)" fill="#86e0cb"/>
    <path id="Path_24047" data-name="Path 24047" d="M644.929,344.482l-30.9,30.937V325.061l30.9-32.831Z" transform="translate(-266.041 -83.445)" fill="none"/>
    <path id="Path_24048" data-name="Path 24048" d="M445.048,491.533,377.5,489.843a1.352,1.352,0,0,1-.842-2.326l32.913-34.87a1.352,1.352,0,0,1,1.037-.375l67.54,4.841a1.352,1.352,0,0,1,.845,2.323l-32.913,31.722A1.358,1.358,0,0,1,445.048,491.533Z" transform="translate(-103.199 -193.045)" fill="#6c6c6c" opacity="0.15"/>
    <path id="Path_24049" data-name="Path 24049" d="M602.319,344.223l-50.509.744V292.23h50.509Z" transform="translate(-223.431 -83.445)" fill="#23af8d"/>
    <path id="Path_24050" data-name="Path 24050" d="M429.385,248.173l-20.536-19.54a2.676,2.676,0,0,0-3.87.2l-30.726,28.305a5.121,5.121,0,0,0-1.024,4.277l25.336,19.6Z" transform="translate(-101.057 -39.389)" fill="#24c1a1"/>
    <path id="Path_24051" data-name="Path 24051" d="M484.669,344.967l-30.9,30.452V325.061l30.9-32.831Z" transform="translate(-156.29 -83.445)" fill="#86e0cb"/>
    <path id="Path_24052" data-name="Path 24052" d="M484.669,344.967l-30.9,30.452V325.061l30.9-32.831Z" transform="translate(-156.29 -83.445)" fill="none"/>
    <rect id="Rectangle_17643" data-name="Rectangle 17643" width="50.509" height="50.361" transform="translate(297.48 241.616)" fill="#24c1a1"/>
    <path id="Path_24053" data-name="Path 24053" d="M234.928,586.587a9.379,9.379,0,1,1,0,.009" transform="translate(0 -272.379)" fill="#5673aa"/>
    <path id="Path_24054" data-name="Path 24054" d="M856.394,253.669a5.194,5.194,0,1,1,5.115-5.273,5.194,5.194,0,0,1-5.115,5.273" transform="translate(-428.409 -49.924)" fill="#5673aa"/>
    <path id="Path_24055" data-name="Path 24055" d="M983.228,533.619a5.188,5.188,0,1,1,2.35-3.207,5.194,5.194,0,0,1-2.35,3.207" transform="translate(-513.474 -242.16)" fill="#5673aa"/>
    <path id="Path_24056" data-name="Path 24056" d="M614.03,378.966l30.846-31.2V297.41l-30.846,31.2Z" transform="translate(-266.041 -86.993)" fill="#86e0cb"/>
    <path id="Path_24057" data-name="Path 24057" d="M676.608,231.744a1.04,1.04,0,0,1,1.343,1.544l-39.979,42.119a6.259,6.259,0,0,1-3.1,2.071l-20.757,6.073,30.823-32.844" transform="translate(-266.096 -41.923)" fill="#24c1a1"/>
    <path id="Path_24058" data-name="Path 24058" d="M875.681,761.982l-2.055-20.7c-2.184-22.018,1.324-44.568,10.3-66.2l3.281-7.911.255-5.79-6.417,12.8a143.233,143.233,0,0,0-15.336,56.289L864.13,758.94Z" transform="translate(-437.318 -336.251)" fill="#355585"/>
    <path id="Path_24059" data-name="Path 24059" d="M1187.2,908.67c-.079.085-.142.176-.227.262h-.05Z" transform="translate(-658.375 -505.603)" fill="#355585"/>
    <path id="Path_24060" data-name="Path 24060" d="M1078.421,987.555H1065.14l8.919-61.5,22.635-20.486c.413-.34,1.948.315,2.521,0L1079.1,929Z" transform="translate(-574.976 -503.411)" fill="#355585"/>
    <path id="Path_24061" data-name="Path 24061" d="M875.44,671.2c17.533,4.819,38.362,8.96,50.046,2.837,11.62-5.919,11.239-23.754-5.765-34.171-17-10.627-44.123-4.869-56.1,6.71C851.49,658.292,858.118,666.269,875.44,671.2Z" transform="translate(-432.731 -317.682)" fill="#5673a8"/>
    <path id="Path_24062" data-name="Path 24062" d="M1029.347,751.255c-13.042,10.183.18,24.946,19.32,47.231,19.058,21.45,57.509,34.413,58.237,34.709-.3.394,3.076-30.571-13.842-58.605C1076.21,746.039,1041.825,741.214,1029.347,751.255Z" transform="translate(-546.886 -394.521)" fill="#5673a8"/>
    <path id="Path_24063" data-name="Path 24063" d="M858.26,697.9c3.152,2.127,7.794,3.782,13.71,5.216,17.965,3.782,39.6,6.672,51.757-.019,5.121-2.909,7.854-7.394,8.147-12.607,4.258,9.008,1.992,17.883-5.821,22.043-11.683,6.114-32.513,1.973-50.046-2.837C865.928,706.649,859.533,703.037,858.26,697.9Z" transform="translate(-433.298 -356.186)" fill="#355585"/>
    <path id="Path_24064" data-name="Path 24064" d="M1028.151,765.31c.23,9.688,10.949,21.39,24.671,37.127,14.608,15.995,40.581,25.875,54.02,31.041a113.409,113.409,0,0,1,.164,12.607c-.728-.293-39.178-13.262-58.237-34.709C1030.386,789.9,1017.448,775.613,1028.151,765.31Z" transform="translate(-546.989 -407.426)" fill="#355585"/>
    <path id="Path_24065" data-name="Path 24065" d="M966.405,773.329l-1.09,26.493c.054-.255,10.59-3.067,10.549-3.407-.476-3.845-.945-16.556-1.349-30.515a196.224,196.224,0,0,0-23.08-86.8l-3.517-6.587-2.588,2.676,5.764,13.647A196.371,196.371,0,0,1,966.405,773.329Z" transform="translate(-492.926 -343.873)" fill="#355585"/>
    <path id="Path_24066" data-name="Path 24066" d="M1210.345,966.284H1225.1l-18.28-63.484-16.893-28.283c-.46-.356-2.162.315-2.8,0l14.091,31.312Z" transform="translate(-658.519 -482.14)" fill="#355585"/>
    <path id="Path_24067" data-name="Path 24067" d="M751.85,711.709s24.142-14.182,24.977-32.979-8.992-34.489-21.948-35.066-24.142,14.182-24.977,32.979S751.85,711.709,751.85,711.709Z" transform="translate(-345.378 -324.108)" fill="#5673a8"/>
    <path id="Path_24068" data-name="Path 24068" d="M733.92,709.375c6.467,10.867,17.177,18.519,17.177,18.519s24.142-14.183,24.977-32.976a46.47,46.47,0,0,0-2.127-16.389c3.87,6.319,6.061,14.813,5.648,24.091-.835,18.79-24.977,32.979-24.977,32.979S738.6,724.151,733.92,709.375Z" transform="translate(-348.146 -347.996)" fill="#355585"/>
    <path id="Path_24069" data-name="Path 24069" d="M723.4,503.917s-40.524-41.64-39.1-57.332,19.011-35.192,31.756-24.545,2.285,9.7.287,8.465-1.522-6.464-1.522-6.464-8.752-8.175-18.163,2.572-11.119,17.965-9.6,24.444,22.667,35.482,24.366,36.853,13.212,14.012,13.212,14.012S725.4,505.153,723.4,503.917Z" transform="translate(-314.14 -170.26)" fill="#355585"/>
    <path id="Path_24070" data-name="Path 24070" d="M615.617,531.092S549.7,490.315,552.36,472.625s12.83-25.213,18.825-21.5,11.51,12.645,6.278,12.172-2.758-4.469-2.758-4.469-.29-8.462-9.225-2.944-13.867,13.5-8.365,22.443,5.519,8.938,14.271,17.114,45.466,33.651,45.466,33.651S618.851,530.329,615.617,531.092Z" transform="translate(-223.754 -191.629)" fill="#355585"/>
    <path id="Path_24071" data-name="Path 24071" d="M745.57,736.754c0,1.516.791,2.748,1.768,2.748s1.768-1.232,1.768-2.748a3.62,3.62,0,0,0-.526-1.954l-2.94,1.2a4.165,4.165,0,0,0-.069.756Z" transform="translate(-356.124 -386.531)" fill="#355585"/>
    <path id="Path_24072" data-name="Path 24072" d="M794.17,728.727c0,1.519.791,2.751,1.768,2.751s1.768-1.232,1.768-2.751a2.491,2.491,0,0,0-.019-.378l-3.177-1.239A3.872,3.872,0,0,0,794.17,728.727Z" transform="translate(-389.407 -381.265)" fill="#355585"/>
  </g>
</svg>
