<svg xmlns="http://www.w3.org/2000/svg" width="352.438" height="303.646" viewBox="0 0 352.438 303.646">
  <g id="Dispatch_History" data-name="Dispatch History" transform="translate(-373.136 -253.053)">
    <path id="Path_30243" data-name="Path 30243" d="M685.479,455.267c33.8,3.622,65.7,15.605,85.627,32.17,20.25,16.53,28.783,38.675,23.535,61.371-4.122,17.747-16.156,36-31.129,52.888a291.576,291.576,0,0,1-50.756,44.621c-17.838,12.263-35.434,21.451-51.731,25.513-16.388,4-31.478,2.956-46.407-6.757-19.4-12.848-39.719-41.288-52.922-74.835-12.892-33.418-18.813-71.062-2.317-97.981,14.87-24.84,44.992-33.22,71.741-36.556a255.474,255.474,0,0,1,54.359-.434" transform="translate(-120.398 -137.356)" fill="#f2f2f2"/>
    <path id="Path_30244" data-name="Path 30244" d="M578.482,897.2a8.876,8.876,0,1,1-6.622,10.662,8.877,8.877,0,0,1,6.622-10.662" transform="translate(-135.7 -441.026)" fill="#ffac43"/>
    <path id="Path_30245" data-name="Path 30245" d="M898.134,437.6a6.7,6.7,0,1,0,0,.016" transform="translate(-356.902 -126.016)" fill="#ffac43"/>
    <path id="Path_30246" data-name="Path 30246" d="M633.932,993.294a4.987,4.987,0,1,1-.176,7.05,4.987,4.987,0,0,1,.176-7.05" transform="translate(-177.353 -506.126)" fill="#ffac43"/>
    <rect id="Rectangle_19805" data-name="Rectangle 19805" width="97.78" height="18.668" rx="3" transform="translate(628.886 503.51) rotate(-24.57)" fill="#919191"/>
    <rect id="Rectangle_19806" data-name="Rectangle 19806" width="13.332" height="13.332" rx="2" transform="translate(689.364 478.791) rotate(-24.57)" fill="#b7b7b7"/>
    <text id="_04:47_PM" data-name="04:47 PM" transform="translate(637.769 514.589) rotate(-24.57)" fill="#fff" font-size="11" font-family="Montserrat-Black, Montserrat" font-weight="800"><tspan x="0" y="0">0</tspan><tspan y="0" letter-spacing="0.01em">4</tspan><tspan y="0">:</tspan><tspan y="0" letter-spacing="-0.03em">4</tspan><tspan y="0">7 </tspan><tspan y="0" letter-spacing="-0.01em">P</tspan><tspan y="0">M</tspan></text>
    <path id="Path_30247" data-name="Path 30247" d="M1397.295,975.522l-3.915-1.459.311-.833,3.151,1.176,2.83-5.9.8.387Z" transform="translate(-699.066 -490.077)" fill="#fff"/>
    <rect id="Rectangle_19807" data-name="Rectangle 19807" width="10.056" height="0.89" transform="translate(710.654 480.19) rotate(-69.57)" fill="#fff"/>
    <rect id="Rectangle_19808" data-name="Rectangle 19808" width="0.89" height="10.056" transform="translate(707.957 474.297) rotate(-69.57)" fill="#fff"/>
    <rect id="Rectangle_19809" data-name="Rectangle 19809" width="97.78" height="18.668" rx="3" transform="translate(390.241 499.135) rotate(24.52)" fill="#889cc3"/>
    <rect id="Rectangle_19810" data-name="Rectangle 19810" width="97.78" height="18.668" rx="3" transform="translate(454.351 253.66) rotate(14.19)" fill="#f7f7f7" stroke="#dadada" stroke-miterlimit="10" stroke-width="1" stroke-dasharray="4 6"/>
    <text id="_04:47_PM-2" data-name="04:47 PM" transform="translate(472.769 271.59) rotate(14.19)" fill="#919191" font-size="11" font-family="Montserrat-Black, Montserrat" font-weight="800"><tspan x="0" y="0">0</tspan><tspan y="0" letter-spacing="0.01em">4</tspan><tspan y="0">:</tspan><tspan y="0" letter-spacing="-0.03em">4</tspan><tspan y="0">7 </tspan><tspan y="0" letter-spacing="-0.01em">P</tspan><tspan y="0">M</tspan></text>
    <circle id="Ellipse_4722" data-name="Ellipse 4722" cx="84.275" cy="84.275" r="84.275" transform="translate(469.07 363.25)" fill="#919191" opacity="0.4"/>
    <path id="Path_30248" data-name="Path 30248" d="M810.4,687.337A89.928,89.928,0,1,1,873.993,661,89.929,89.929,0,0,1,810.4,687.337Zm0-178.284a88.356,88.356,0,1,0,62.478,25.878A88.356,88.356,0,0,0,810.4,509.052Z" transform="translate(-237.74 -174.004)" fill="#344566"/>
    <circle id="Ellipse_4723" data-name="Ellipse 4723" cx="75.936" cy="75.936" r="75.936" transform="translate(467.226 353.537)" fill="#344566"/>
    <rect id="Rectangle_19811" data-name="Rectangle 19811" width="17.923" height="45.279" transform="translate(576.641 330.997) rotate(23.71)" fill="#344566"/>
    <path id="Path_30249" data-name="Path 30249" d="M18.721,0H43.688A18.725,18.725,0,0,1,62.412,18.725h0a9.119,9.119,0,0,1-9.119,9.119H9.119A9.119,9.119,0,0,1,0,18.725H0A18.725,18.725,0,0,1,18.725,0Z" transform="translate(564.15 304.123) rotate(23.71)" fill="#24c0a0"/>
    <rect id="Rectangle_19812" data-name="Rectangle 19812" width="12.933" height="32.676" transform="translate(501.461 338.458) rotate(-21.29)" fill="#344566"/>
    <rect id="Rectangle_19813" data-name="Rectangle 19813" width="29.497" height="13.162" rx="6.581" transform="translate(489.871 331.53) rotate(-21.29)" fill="#24c0a0"/>
    <rect id="Rectangle_19814" data-name="Rectangle 19814" width="12.933" height="32.676" transform="translate(607.912 410.484) rotate(-111.29)" fill="#344566"/>
    <rect id="Rectangle_19815" data-name="Rectangle 19815" width="29.497" height="13.162" rx="6.581" transform="translate(639.042 407.246) rotate(-111.29)" fill="#24c0a0"/>
    <rect id="Rectangle_19816" data-name="Rectangle 19816" width="97.78" height="18.668" rx="3" transform="translate(373.687 304.124) rotate(-6.19)" fill="#dadada" stroke="#b7b7b7" stroke-miterlimit="10" stroke-width="1" stroke-dasharray="4 6"/>
    <path id="Path_30250" data-name="Path 30250" d="M897.519,712.5a2.83,2.83,0,0,1-1.682-2.361l-3.6-44.335a2.839,2.839,0,1,1,5.66-.456l2.688,33.17,7.191-16.373a2.83,2.83,0,0,1,5.182,2.276l-11.7,26.63A2.83,2.83,0,0,1,898.2,712.7,2.957,2.957,0,0,1,897.519,712.5Z" transform="translate(-355.495 -280.448)" fill="#dadada" stroke="#b7b7b7" stroke-miterlimit="10" stroke-width="1" stroke-dasharray="4 6"/>
    <path id="Path_30251" data-name="Path 30251" d="M811.43,636.588a56.913,56.913,0,1,0,29.217,74.99A56.913,56.913,0,0,0,811.43,636.588Zm-8.6,26.611-11.7,26.629a2.83,2.83,0,0,1-3.06,1.654,2.952,2.952,0,0,1-.67-.2,2.83,2.83,0,0,1-1.682-2.361l-3.594-44.335a2.83,2.83,0,1,1,5.641-.456l2.688,33.17,7.191-16.373a2.83,2.83,0,0,1,5.182,2.276Z" transform="translate(-245.38 -259.217)" fill="#fff"/>
    <path id="Path_30252" data-name="Path 30252" d="M465.046,852.42s-6.009,3.173-9.993.943-5.974-6.257-4.437-9.005,6.012-3.17,10-.943S465.046,852.42,465.046,852.42Z" transform="translate(-52.384 -403.336)" fill="#5673a8"/>
    <ellipse id="Ellipse_4724" data-name="Ellipse 4724" cx="4.559" cy="7.98" rx="4.559" ry="7.98" transform="translate(401.173 450.181)" fill="#5673a8"/>
    <path id="Path_30253" data-name="Path 30253" d="M444.686,925.638c2.585,1.8,1.767,7.446-1.827,12.615s-14.37,3.585-14.37,3.585a38.359,38.359,0,0,1,5.012-10.09C437.087,926.575,442.1,923.842,444.686,925.638Z" transform="translate(-37.571 -460.307)" fill="#5673a8"/>
    <path id="Path_30254" data-name="Path 30254" d="M463.817,850.94a17.072,17.072,0,0,1,1.629,5.908s-6.012,3.173-10,.943a11.243,11.243,0,0,1-3.11-2.534,10.4,10.4,0,0,0,4.251,4.242c3.984,2.229,9.993-.943,9.993-.943S466.266,853.789,463.817,850.94Z" transform="translate(-53.922 -409.475)" fill="#355585"/>
    <path id="Path_30255" data-name="Path 30255" d="M469.829,884a12.772,12.772,0,0,1,.629,4.012c0,4.4-2.041,7.98-4.559,7.98a3.567,3.567,0,0,1-2.8-1.685c.792,2.368,2.258,3.965,3.937,3.965,2.515,0,4.562-3.572,4.562-7.98A10.966,10.966,0,0,0,469.829,884Z" transform="translate(-61.298 -432.14)" fill="#355585"/>
    <path id="Path_30256" data-name="Path 30256" d="M444.94,927.58c.434,2.6-.714,6.468-3.239,10.1-2.657,3.82-9.232,3.953-12.483,3.773-.513,1.3-.748,2.1-.748,2.1s10.779,1.572,14.37-3.585C446.3,934.991,447.188,929.6,444.94,927.58Z" transform="translate(-37.557 -462.017)" fill="#355585"/>
    <path id="Path_30257" data-name="Path 30257" d="M443.861,969.08a3.859,3.859,0,0,1-.424-.035l-.085-.016-1.2,6.918-4.537,8.826h2.852l2.83-9.4Z" transform="translate(-43.823 -490.433)" fill="#355585"/>
    <path id="Path_30258" data-name="Path 30258" d="M488,887.974l11.876-.2,12.65-2.626.629-3.144-14.694,3.984-10.339.83Z" transform="translate(-78.369 -430.768)" fill="#355585"/>
    <path id="Path_30259" data-name="Path 30259" d="M426.228,819.872s-3.418-13.681-6.839-15.388-9.691-.572-9.119,3.418,1.711,1.711,1.711,1.141-1.141-1.141-1.141-1.141-.569-2.849,2.849-3.418,5.132,0,6.27,1.138,4.43,9.21,4.5,9.747,1.2,4.515,1.2,4.515S426.228,820.441,426.228,819.872Z" transform="translate(-25.055 -377.099)" fill="#355585"/>
    <path id="Path_30260" data-name="Path 30260" d="M448.389,799.415s0-18.809-3.99-20.52-6.839-.569-6.839,1.138,1.138,3.99,1.711,2.852-.572-1.141-.572-1.141-1.711-1.138.572-2.28,4.559-1.138,5.7,1.141a13.633,13.633,0,0,1,1.711,5.128c.569,2.849,1.135,13.681,1.135,13.681S447.814,800,448.389,799.415Z" transform="translate(-43.789 -359.504)" fill="#355585"/>
    <path id="Path_30261" data-name="Path 30261" d="M481.762,975.024l2.5-11.106-6.839-8.549V954.8l7.98,7.98-1.506,12.244Z" transform="translate(-71.116 -480.678)" fill="#355585"/>
    <path id="Path_30262" data-name="Path 30262" d="M443.05,899.6l7.955-8.254v1.711l-6.245,5.974,7.411,6.27-1.141,2.28Z" transform="translate(-47.553 -437.178)" fill="#355585"/>
    <path id="Path_30263" data-name="Path 30263" d="M559.58,881.528l1.39.173s3.05.167,3.833-1.459.745-4.04-.855-3.21-4.235,2.39-4.235,2.39Z" transform="translate(-127.442 -427.247)" fill="#355585"/>
    <path id="Path_30264" data-name="Path 30264" d="M663.677,774.314l-6.264,2.405-6.273,2.38L638.6,783.861l-12.562,4.717-12.577,4.666c-4.195,1.55-8.367,3.163-12.546,4.757s-8.4,3.072-12.65,4.456-8.524,2.71-12.829,3.949-8.622,2.437-13.005,3.443l-.119-.333c4.053-1.956,8.175-3.729,12.307-5.44s8.3-3.349,12.483-4.921,8.4-3.05,12.662-4.427,8.521-2.717,12.766-4.125l12.735-4.217,12.75-4.169,12.769-4.129,6.383-2.063L663.558,774Z" transform="translate(-129.313 -356.727)"/>
    <path id="Path_30265" data-name="Path 30265" d="M569.172,873s2.852,0,2.283,2.28a6.188,6.188,0,0,1-1.978,3.327S567.464,873.569,569.172,873Z" transform="translate(-133.547 -424.598)" fill="#355585"/>
    <line id="Line_3380" data-name="Line 3380" x1="19.328" transform="translate(393.45 494.347)" fill="none" stroke="#b5b5b5" stroke-miterlimit="10" stroke-width="4.47"/>
  </g>
</svg>
