<svg xmlns="http://www.w3.org/2000/svg" width="50.218" height="74.132" viewBox="0 0 50.218 74.132">
  <g id="Group_7153" data-name="Group 7153" transform="translate(1 1)">
    <rect id="Rectangle_4096" data-name="Rectangle 4096" width="14.116" height="3.167" transform="translate(16.834 48.217)" fill="#919191"/>
    <path id="Path_5867" data-name="Path 5867" d="M346.169,609.911A24.109,24.109,0,1,1,382.4,630.747l-1.574,3.273H359.656l-1.6-3.331A24.1,24.1,0,0,1,346.169,609.911Z" transform="translate(-346.169 -585.803)" fill="#f8b849" stroke="#f49f22" stroke-linejoin="round" stroke-width="2"/>
    <ellipse id="Ellipse_1493" data-name="Ellipse 1493" cx="17.556" cy="17.556" rx="17.556" ry="17.556" transform="translate(6.553 6.552)" fill="#f7b749"/>
    <path id="Path_5868" data-name="Path 5868" d="M361.985,636.128h16.66a3.971,3.971,0,0,1,2.071.583l9.612,5.878a3.968,3.968,0,0,1,1.9,3.387v11.959H348.4V645.976a3.968,3.968,0,0,1,1.9-3.387l9.612-5.878A3.973,3.973,0,0,1,361.985,636.128Z" transform="translate(-346.243 -585.803)" fill="#ffe783" stroke="#f49f22" stroke-linejoin="round" stroke-width="2"/>
    <rect id="Rectangle_4097" data-name="Rectangle 4097" width="12.883" height="6.329" rx="2" transform="translate(17.631 58.522)" fill="#ffeea9"/>
    <rect id="Rectangle_4098" data-name="Rectangle 4098" width="10.056" height="5.478" rx="0.953" transform="translate(19.044 57.947)" fill="#b7b7b7" stroke="#919191" stroke-linejoin="round" stroke-width="1"/>
    <rect id="Rectangle_4099" data-name="Rectangle 4099" width="6" height="3" rx="1.5" transform="translate(33.083 65.847)" fill="#ffeea9"/>
    <rect id="Rectangle_5195" data-name="Rectangle 5195" width="6" height="3" rx="1.5" transform="translate(9.083 65.847)" fill="#ffeea9"/>
    <rect id="Rectangle_4101" data-name="Rectangle 4101" width="4.009" height="1.628" rx="0.814" transform="translate(34.076 66.27)" fill="#b7b7b7" stroke="#919191" stroke-linejoin="round" stroke-width="1"/>
    <rect id="Rectangle_4102" data-name="Rectangle 4102" width="4.009" height="1.628" rx="0.814" transform="translate(10.059 66.27)" fill="#b7b7b7" stroke="#919191" stroke-linejoin="round" stroke-width="1"/>
    <ellipse id="Ellipse_1494" data-name="Ellipse 1494" cx="0.751" cy="0.751" rx="0.751" ry="0.751" transform="translate(29.56 66.333)" fill="#ffeea9" stroke="#dbbc3b" stroke-linejoin="round" stroke-width="0.75"/>
    <ellipse id="Ellipse_1495" data-name="Ellipse 1495" cx="0.751" cy="0.751" rx="0.751" ry="0.751" transform="translate(17.082 66.333)" fill="#ffeea9" stroke="#dbbc3b" stroke-linejoin="round" stroke-width="0.75"/>
    <ellipse id="Ellipse_1496" data-name="Ellipse 1496" cx="1.217" cy="1.217" rx="1.217" ry="1.217" transform="translate(1.412 22.809)" fill="#b7b7b7" stroke="#919191" stroke-linejoin="round" stroke-width="1"/>
    <ellipse id="Ellipse_1497" data-name="Ellipse 1497" cx="1.217" cy="1.217" rx="1.217" ry="1.217" transform="translate(44.297 22.809)" fill="#b7b7b7" stroke="#919191" stroke-linejoin="round" stroke-width="1"/>
    <path id="Path_5869" data-name="Path 5869" d="M356.375,628.813l3.52-4.693a18.052,18.052,0,0,0,21.306.24l3.414,4.771a24.225,24.225,0,0,1-2.171,1.381l-1.448,3.1h-20.61l-1.541-3.154.016-.006A24.287,24.287,0,0,1,356.375,628.813Z" transform="translate(-346.603 -585.803)" fill="#f7d27f"/>
    <rect id="Rectangle_4103" data-name="Rectangle 4103" width="18.287" height="3.141" rx="1.571" transform="translate(14.929 43.974)" fill="#ffe783" stroke="#f49f22" stroke-linejoin="round" stroke-width="1"/>
    <g id="Group_7151" data-name="Group 7151" transform="translate(17.302 43.974)">
      <path id="Path_5870" data-name="Path 5870" d="M363.434,629.777v3.141h2.73v-3.141h2.73v3.141h2.73v-3.141h2.73v3.141h2.73v-3.141" transform="translate(-363.434 -629.777)" fill="#ffe783" stroke="#f49f22" stroke-linejoin="round" stroke-width="1"/>
    </g>
    <ellipse id="Ellipse_1498" data-name="Ellipse 1498" cx="9.779" cy="9.779" rx="9.779" ry="9.779" transform="translate(14.33 14.289)" fill="none" stroke="#f99e00" stroke-miterlimit="10" stroke-width="6"/>
    <ellipse id="Ellipse_1499" data-name="Ellipse 1499" cx="3.68" cy="3.68" rx="3.68" ry="3.68" transform="translate(20.429 20.387)" fill="none" stroke="#f99e00" stroke-miterlimit="10" stroke-width="6"/>
    <ellipse id="Ellipse_1500" data-name="Ellipse 1500" cx="15.847" cy="15.847" rx="15.847" ry="15.847" transform="translate(8.262 8.22)" fill="none" stroke="#f49f22" stroke-miterlimit="10" stroke-width="6"/>
    <ellipse id="Ellipse_1501" data-name="Ellipse 1501" cx="2.014" cy="2.014" rx="2.014" ry="2.014" transform="translate(22.095 22.053)" fill="none" stroke="#ffe783" stroke-miterlimit="10" stroke-width="1.5"/>
    <ellipse id="Ellipse_1502" data-name="Ellipse 1502" cx="5.123" cy="5.123" rx="5.123" ry="5.123" transform="translate(18.986 18.945)" fill="none" stroke="#ffe783" stroke-miterlimit="10" stroke-width="1.5"/>
    <ellipse id="Ellipse_1503" data-name="Ellipse 1503" cx="8.231" cy="8.231" rx="8.231" ry="8.231" transform="translate(15.878 15.836)" fill="none" stroke="#ffe783" stroke-miterlimit="10" stroke-width="1.5"/>
    <ellipse id="Ellipse_1504" data-name="Ellipse 1504" cx="11.339" cy="11.339" rx="11.339" ry="11.339" transform="translate(12.77 12.728)" fill="none" stroke="#ffe783" stroke-miterlimit="10" stroke-width="1.5"/>
    <ellipse id="Ellipse_1505" data-name="Ellipse 1505" cx="14.448" cy="14.448" rx="14.448" ry="14.448" transform="translate(9.661 9.62)" fill="none" stroke="#ffe783" stroke-miterlimit="10" stroke-width="1.5"/>
    <ellipse id="Ellipse_1506" data-name="Ellipse 1506" cx="17.556" cy="17.556" rx="17.556" ry="17.556" transform="translate(6.553 6.511)" fill="none" stroke="#ffe783" stroke-miterlimit="10" stroke-width="2"/>
    <ellipse id="Ellipse_1507" data-name="Ellipse 1507" cx="17.556" cy="17.556" rx="17.556" ry="17.556" transform="translate(6.553 6.511)" fill="#ffeea9" opacity="0.45"/>
    <ellipse id="Ellipse_1508" data-name="Ellipse 1508" cx="1.217" cy="1.217" rx="1.217" ry="1.217" transform="translate(33.441 40.838)" fill="#b7b7b7" stroke="#919191" stroke-linejoin="round" stroke-width="1"/>
    <ellipse id="Ellipse_1509" data-name="Ellipse 1509" cx="1.217" cy="1.217" rx="1.217" ry="1.217" transform="translate(12.77 40.838)" fill="#b7b7b7" stroke="#919191" stroke-linejoin="round" stroke-width="1"/>
    <g id="Group_7152" data-name="Group 7152" transform="translate(22.855 1.367)">
      <ellipse id="Ellipse_1510" data-name="Ellipse 1510" cx="1.217" cy="1.217" rx="1.217" ry="1.217" transform="translate(0)" fill="#b7b7b7" stroke="#919191" stroke-linejoin="round" stroke-width="1"/>
    </g>
  </g>
</svg>
