<svg xmlns="http://www.w3.org/2000/svg" width="89.897" height="89.894" viewBox="0 0 89.897 89.894">
  <path id="Path_6508" data-name="Path 6508" d="M661.084,639.947l-.725-1.067a11.067,11.067,0,0,1-.853-11.356c.307-.592.6-1.186.874-1.79a10.58,10.58,0,0,1,9.131-6.055l1.579-.1a2.493,2.493,0,0,0,2.336-2.329l.375-5.831a2.491,2.491,0,0,0-2.019-2.606l-1.556-.3a10.581,10.581,0,0,1-8.282-7.175c-.194-.634-.405-1.261-.637-1.888a11.058,11.058,0,0,1,2.3-11.15l.856-.964a2.5,2.5,0,0,0,0-3.3l-3.859-4.388a2.5,2.5,0,0,0-3.273-.413l-1.065.722a11.062,11.062,0,0,1-11.354.854c-.592-.31-1.188-.6-1.792-.874a10.579,10.579,0,0,1-6.055-9.131l-.1-1.579a2.494,2.494,0,0,0-2.329-2.336l-5.831-.375a2.489,2.489,0,0,0-2.605,2.019l-.3,1.553a10.582,10.582,0,0,1-7.172,8.285q-.955.29-1.891.637a11.078,11.078,0,0,1-11.15-2.3l-.961-.856a2.488,2.488,0,0,0-3.3-.007l-4.393,3.859a2.49,2.49,0,0,0-.415,3.27l.725,1.068a11.073,11.073,0,0,1,.853,11.354q-.464.887-.874,1.792a10.58,10.58,0,0,1-9.131,6.055l-1.578.1a2.493,2.493,0,0,0-2.336,2.326l-.375,5.831a2.488,2.488,0,0,0,2.019,2.606l1.553.3a10.592,10.592,0,0,1,8.285,7.175q.291.951.637,1.888a11.063,11.063,0,0,1-2.3,11.15l-.854.967a2.491,2.491,0,0,0,0,3.3l3.859,4.388a2.485,2.485,0,0,0,3.27.416l1.065-.723a11.046,11.046,0,0,1,11.351-.853c.592.31,1.191.6,1.8.874a10.58,10.58,0,0,1,6.054,9.131l.1,1.578a2.492,2.492,0,0,0,2.326,2.336l5.83.375a2.492,2.492,0,0,0,2.608-2.022l.295-1.553a10.582,10.582,0,0,1,7.172-8.282q.955-.291,1.893-.637a11.064,11.064,0,0,1,11.15,2.3l.964.854a2.494,2.494,0,0,0,3.3,0l4.388-3.857A2.483,2.483,0,0,0,661.084,639.947Zm-33.339-11.072a17.44,17.44,0,1,1,18.521-16.288A17.46,17.46,0,0,1,627.745,628.875Z" transform="translate(-583.908 -566.522)" fill="#dadada"/>
</svg>
