<svg xmlns="http://www.w3.org/2000/svg" width="526.659" height="68.076" viewBox="0 0 526.659 68.076">
  <path id="Path_10473" data-name="Path 10473" d="M19.437,0H41.385V-48.081H60.45V-65.1H.372v17.019H19.437Zm88.908-65.1v23.064H88.071V-65.1H66.123V0H88.071V-23.994h20.274V0h21.948V-65.1ZM140.9,0h21.948V-65.1H140.9Zm56.823,1.488c20.181,0,30.318-10.044,30.318-21.948,0-23.994-35.991-17.484-35.991-25.3,0-2.232,2.046-4.092,8.463-4.092,5.673,0,11.718,1.581,18.135,4.836l6.6-15.9c-6.789-3.813-15.81-5.673-24.552-5.673-20.181,0-30.318,9.858-30.318,21.948,0,24.273,35.991,17.67,35.991,25.854,0,2.232-2.232,3.534-8.463,3.534A44.663,44.663,0,0,1,176.421-21.2l-7.068,16C175.863-1.209,186.837,1.488,197.718,1.488ZM293.787-65.1H262.446V0h21.948V-16h9.393c18.135,0,29.667-9.486,29.667-24.552S311.922-65.1,293.787-65.1Zm-1.395,32.178h-8V-48.174h8c6.045,0,8.928,2.883,8.928,7.626S298.437-32.922,292.392-32.922ZM376.092,0h22.692L370.326-65.1H348.75L320.292,0h22.32l4.371-11.346h24.738ZM353.028-27.156l6.324-16.368,6.324,16.368Zm91.419,9.3a20.435,20.435,0,0,1-8,1.581c-9.393,0-15.531-6.51-15.531-16.275,0-10.044,6.138-16.275,15.81-16.275,5.766,0,10.509,2.418,14.6,7.161l14.043-12.369c-6.6-8.091-16.926-12.555-29.76-12.555-21.483,0-36.828,14.043-36.828,34.038S414.129,1.488,435.147,1.488c9.579,0,20.46-2.883,28.365-8.277V-34.317H444.447Zm50.034,1.3V-25.11h27.528V-40.92H494.481v-7.626h31.341V-65.1H472.905V0h54.126V-16.554Z" transform="translate(-0.372 66.588)" fill="#f7d27f"/>
</svg>
