<svg xmlns="http://www.w3.org/2000/svg" width="1339.2" height="65.88" viewBox="0 0 1339.2 65.88">
  <path id="Path_10474" data-name="Path 10474" d="M-1341,0h21.24V-63H-1341Zm54.99,1.44c19.53,0,29.34-9.72,29.34-21.24,0-23.22-34.83-16.92-34.83-24.48,0-2.16,1.98-3.96,8.19-3.96,5.49,0,11.34,1.53,17.55,4.68l6.39-15.39c-6.57-3.69-15.3-5.49-23.76-5.49-19.53,0-29.34,9.54-29.34,21.24,0,23.49,34.83,17.1,34.83,25.02,0,2.16-2.16,3.42-8.19,3.42a43.222,43.222,0,0,1-20.79-5.76l-6.84,15.48C-1307.16-1.17-1296.54,1.44-1286.01,1.44Zm92.79,0c19.35,0,30.69-10.89,30.69-29.79V-63h-20.88v34.02c0,9.63-3.69,13.23-9.63,13.23s-9.63-3.6-9.63-13.23V-63h-21.24v34.65C-1223.91-9.45-1212.57,1.44-1193.22,1.44ZM-1111.41-63v28.62L-1135.35-63h-17.46V0h20.7V-28.62L-1108.17,0h17.46V-63Zm30.96,63h31.05c21.06,0,35.55-11.97,35.55-31.5S-1028.34-63-1049.4-63h-31.05Zm21.24-16.56V-46.44h8.91c8.91,0,15.03,5.31,15.03,14.94s-6.12,14.94-15.03,14.94Zm73.98.54V-24.3h26.64V-39.6h-26.64v-7.38h30.33V-63h-51.21V0h52.38V-16.02ZM-907.83,0h22.68l-13.23-19.44c7.56-3.87,11.88-10.71,11.88-19.8,0-14.58-11.16-23.76-28.71-23.76h-30.33V0h21.24V-15.84h5.76Zm-.09-39.24c0,4.59-2.79,7.38-8.64,7.38h-7.74V-46.62h7.74C-910.71-46.62-907.92-43.83-907.92-39.24Zm89.01,40.68c12.33,0,22.05-4.5,28.26-12.6l-13.41-11.97c-3.69,4.68-8.1,7.38-13.77,7.38-8.82,0-14.76-6.12-14.76-15.75s5.94-15.75,14.76-15.75c5.67,0,10.08,2.7,13.77,7.38l13.41-11.97c-6.21-8.1-15.93-12.6-28.26-12.6-20.25,0-35.1,13.59-35.1,32.94S-839.16,1.44-818.91,1.44Zm66.06,0c20.52,0,35.55-13.86,35.55-32.94s-15.03-32.94-35.55-32.94S-788.4-50.58-788.4-31.5-773.37,1.44-752.85,1.44Zm0-17.19c-7.83,0-14.13-5.94-14.13-15.75s6.3-15.75,14.13-15.75,14.13,5.94,14.13,15.75S-745.02-15.75-752.85-15.75ZM-668.16-63v28.62L-692.1-63h-17.46V0h20.7V-28.62L-664.92,0h17.46V-63Zm54.45,64.44c19.53,0,29.34-9.72,29.34-21.24,0-23.22-34.83-16.92-34.83-24.48,0-2.16,1.98-3.96,8.19-3.96,5.49,0,11.34,1.53,17.55,4.68l6.39-15.39c-6.57-3.69-15.3-5.49-23.76-5.49-19.53,0-29.34,9.54-29.34,21.24,0,23.49,34.83,17.1,34.83,25.02,0,2.16-2.16,3.42-8.19,3.42a43.222,43.222,0,0,1-20.79-5.76l-6.84,15.48C-634.86-1.17-624.24,1.44-613.71,1.44ZM-565.29,0h21.24V-46.53h18.45V-63h-58.14v16.47h18.45Zm82.89,0h22.68l-13.23-19.44c7.56-3.87,11.88-10.71,11.88-19.8,0-14.58-11.16-23.76-28.71-23.76h-30.33V0h21.24V-15.84h5.76Zm-.09-39.24c0,4.59-2.79,7.38-8.64,7.38h-7.74V-46.62h7.74C-485.28-46.62-482.49-43.83-482.49-39.24Zm59.58,40.68c19.35,0,30.69-10.89,30.69-29.79V-63H-413.1v34.02c0,9.63-3.69,13.23-9.63,13.23s-9.63-3.6-9.63-13.23V-63H-453.6v34.65C-453.6-9.45-442.26,1.44-422.91,1.44Zm72.99,0c12.33,0,22.05-4.5,28.26-12.6l-13.41-11.97c-3.69,4.68-8.1,7.38-13.77,7.38-8.82,0-14.76-6.12-14.76-15.75s5.94-15.75,14.76-15.75c5.67,0,10.08,2.7,13.77,7.38l13.41-11.97c-6.21-8.1-15.93-12.6-28.26-12.6-20.25,0-35.1,13.59-35.1,32.94S-370.17,1.44-349.92,1.44ZM-302.31,0h21.24V-46.53h18.45V-63h-58.14v16.47h18.45Zm45.18,0h21.24V-63h-21.24Zm64.53,1.44c20.52,0,35.55-13.86,35.55-32.94s-15.03-32.94-35.55-32.94-35.55,13.86-35.55,32.94S-213.12,1.44-192.6,1.44Zm0-17.19c-7.83,0-14.13-5.94-14.13-15.75s6.3-15.75,14.13-15.75,14.13,5.94,14.13,15.75S-184.77-15.75-192.6-15.75ZM-107.91-63v28.62L-131.85-63h-17.46V0h20.7V-28.62L-104.67,0h17.46V-63ZM-68.4.9c6.75,0,11.88-4.86,11.88-11.7,0-6.93-5.13-11.52-11.88-11.52S-80.28-17.73-80.28-10.8C-80.28-3.96-75.15.9-68.4.9Zm27.36,0c6.75,0,11.88-4.86,11.88-11.7,0-6.93-5.13-11.52-11.88-11.52S-52.92-17.73-52.92-10.8C-52.92-3.96-47.79.9-41.04.9Zm27.36,0C-6.93.9-1.8-3.96-1.8-10.8c0-6.93-5.13-11.52-11.88-11.52S-25.56-17.73-25.56-10.8C-25.56-3.96-20.43.9-13.68.9Z" transform="translate(1341 64.44)" fill="#fff"/>
</svg>
