<svg xmlns="http://www.w3.org/2000/svg" xmlns:xlink="http://www.w3.org/1999/xlink" width="922.813" height="368.305" viewBox="0 0 922.813 368.305">
  <defs>
    <clipPath id="clip-path">
      <rect id="Rectangle_4307" data-name="Rectangle 4307" width="587.43" height="39.166" transform="translate(665.267 495.671)" fill="none"/>
    </clipPath>
  </defs>
  <g id="Group_11738" data-name="Group 11738" transform="translate(-664.163 -544.098)">
    <g id="Group_11737" data-name="Group 11737">
      <rect id="Rectangle_4322" data-name="Rectangle 4322" width="102.04" height="6.805" transform="translate(693.42 904.408)" fill="#aaa" stroke="#797979" stroke-linejoin="round" stroke-width="2"/>
      <rect id="Rectangle_4323" data-name="Rectangle 4323" width="102.04" height="6.805" transform="translate(1133.563 904.408)" fill="#aaa" stroke="#797979" stroke-linejoin="round" stroke-width="2"/>
      <g id="Group_7758" data-name="Group 7758" transform="translate(-1.104 71.26)">
        <rect id="Rectangle_4304" data-name="Rectangle 4304" width="16.846" height="289.493" transform="translate(737.59 533.73)" fill="#c3c3c3"/>
        <line id="Line_2285" data-name="Line 2285" y2="279.759" transform="translate(746.013 539.51)" fill="none" stroke="#797979" stroke-linecap="round" stroke-miterlimit="10" stroke-width="4" stroke-dasharray="0 13"/>
      </g>
      <g id="Group_7759" data-name="Group 7759" transform="translate(-1.104 71.26)">
        <rect id="Rectangle_4305" data-name="Rectangle 4305" width="16.846" height="295.39" transform="translate(1177.263 527.833)" fill="#c3c3c3"/>
        <line id="Line_2286" data-name="Line 2286" y2="285.458" transform="translate(1185.686 533.73)" fill="none" stroke="#797979" stroke-linecap="round" stroke-miterlimit="10" stroke-width="4" stroke-dasharray="0 13"/>
      </g>
      <g id="Group_7764" data-name="Group 7764" transform="translate(-1.104 71.26)">
        <g id="Group_7763" data-name="Group 7763">
          <rect id="Rectangle_4306" data-name="Rectangle 4306" width="560.751" height="39.166" transform="translate(682.3 495.671)" fill="#fff"/>
          <g id="Group_7762" data-name="Group 7762">
            <g id="Group_7761" data-name="Group 7761" clip-path="url(#clip-path)">
              <g id="Group_7760" data-name="Group 7760">
                <path id="Path_6565" data-name="Path 6565" d="M686.912,579.583H666.72l38.745-106.97h20.192Z" fill="#f7d27f"/>
                <path id="Path_6566" data-name="Path 6566" d="M730.711,579.583H710.519l38.745-106.97h20.192Z" fill="#f7d27f"/>
                <path id="Path_6567" data-name="Path 6567" d="M774.51,579.583H754.318l38.745-106.97h20.192Z" fill="#f7d27f"/>
                <path id="Path_6568" data-name="Path 6568" d="M818.309,579.583H798.117l38.745-106.97h20.192Z" fill="#f7d27f"/>
                <path id="Path_6569" data-name="Path 6569" d="M862.107,579.583H841.916l38.745-106.97h20.192Z" fill="#f7d27f"/>
                <path id="Path_6570" data-name="Path 6570" d="M905.906,579.583H885.714l38.745-106.97h20.192Z" fill="#f7d27f"/>
                <path id="Path_6571" data-name="Path 6571" d="M949.705,579.583H929.513l38.745-106.97H988.45Z" fill="#f7d27f"/>
                <path id="Path_6572" data-name="Path 6572" d="M993.5,579.583H973.312l38.745-106.97h20.192Z" fill="#f7d27f"/>
                <path id="Path_6573" data-name="Path 6573" d="M1037.3,579.583h-20.192l38.745-106.97h20.192Z" fill="#f7d27f"/>
                <path id="Path_6574" data-name="Path 6574" d="M1081.1,579.583H1060.91l38.745-106.97h20.192Z" fill="#f7d27f"/>
                <path id="Path_6575" data-name="Path 6575" d="M1124.9,579.583h-20.192l38.745-106.97h20.192Z" fill="#f7d27f"/>
                <path id="Path_6576" data-name="Path 6576" d="M1168.7,579.583h-20.192l38.745-106.97h20.192Z" fill="#f7d27f"/>
                <path id="Path_6577" data-name="Path 6577" d="M1212.5,579.583h-20.192l38.745-106.97h20.192Z" fill="#f7d27f"/>
              </g>
            </g>
          </g>
        </g>
        <rect id="Rectangle_4308" data-name="Rectangle 4308" width="560.751" height="39.166" transform="translate(682.3 495.671)" fill="none" stroke="#f8b849" stroke-linejoin="round" stroke-width="2"/>
      </g>
      <g id="Group_9052" data-name="Group 9052" transform="translate(-1.104 258.26)">
        <g id="Group_7763-2" data-name="Group 7763">
          <rect id="Rectangle_4306-2" data-name="Rectangle 4306" width="560.751" height="39.166" transform="translate(682.3 495.671)" fill="#fff"/>
          <g id="Group_7762-2" data-name="Group 7762">
            <g id="Group_7761-2" data-name="Group 7761" clip-path="url(#clip-path)">
              <g id="Group_7760-2" data-name="Group 7760">
                <path id="Path_6565-2" data-name="Path 6565" d="M686.912,579.583H666.72l38.745-106.97h20.192Z" fill="#f7d27f"/>
                <path id="Path_6566-2" data-name="Path 6566" d="M730.711,579.583H710.519l38.745-106.97h20.192Z" fill="#f7d27f"/>
                <path id="Path_6567-2" data-name="Path 6567" d="M774.51,579.583H754.318l38.745-106.97h20.192Z" fill="#f7d27f"/>
                <path id="Path_6568-2" data-name="Path 6568" d="M818.309,579.583H798.117l38.745-106.97h20.192Z" fill="#f7d27f"/>
                <path id="Path_6569-2" data-name="Path 6569" d="M862.107,579.583H841.916l38.745-106.97h20.192Z" fill="#f7d27f"/>
                <path id="Path_6570-2" data-name="Path 6570" d="M905.906,579.583H885.714l38.745-106.97h20.192Z" fill="#f7d27f"/>
                <path id="Path_6571-2" data-name="Path 6571" d="M949.705,579.583H929.513l38.745-106.97H988.45Z" fill="#f7d27f"/>
                <path id="Path_6572-2" data-name="Path 6572" d="M993.5,579.583H973.312l38.745-106.97h20.192Z" fill="#f7d27f"/>
                <path id="Path_6573-2" data-name="Path 6573" d="M1037.3,579.583h-20.192l38.745-106.97h20.192Z" fill="#f7d27f"/>
                <path id="Path_6574-2" data-name="Path 6574" d="M1081.1,579.583H1060.91l38.745-106.97h20.192Z" fill="#f7d27f"/>
                <path id="Path_6575-2" data-name="Path 6575" d="M1124.9,579.583h-20.192l38.745-106.97h20.192Z" fill="#f7d27f"/>
                <path id="Path_6576-2" data-name="Path 6576" d="M1168.7,579.583h-20.192l38.745-106.97h20.192Z" fill="#f7d27f"/>
                <path id="Path_6577-2" data-name="Path 6577" d="M1212.5,579.583h-20.192l38.745-106.97h20.192Z" fill="#f7d27f"/>
              </g>
            </g>
          </g>
        </g>
        <rect id="Rectangle_4308-2" data-name="Rectangle 4308" width="560.751" height="39.166" transform="translate(682.3 495.671)" fill="none" stroke="#f8b849" stroke-linejoin="round" stroke-width="2"/>
      </g>
      <g id="Group_9051" data-name="Group 9051" transform="translate(-1.104 166.26)">
        <g id="Group_7763-3" data-name="Group 7763">
          <rect id="Rectangle_4306-3" data-name="Rectangle 4306" width="560.751" height="39.166" transform="translate(682.3 495.671)" fill="#fff"/>
          <g id="Group_7762-3" data-name="Group 7762">
            <g id="Group_7761-3" data-name="Group 7761" clip-path="url(#clip-path)">
              <g id="Group_7760-3" data-name="Group 7760">
                <path id="Path_6565-3" data-name="Path 6565" d="M686.912,579.583H666.72l38.745-106.97h20.192Z" fill="#f7d27f"/>
                <path id="Path_6566-3" data-name="Path 6566" d="M730.711,579.583H710.519l38.745-106.97h20.192Z" fill="#f7d27f"/>
                <path id="Path_6567-3" data-name="Path 6567" d="M774.51,579.583H754.318l38.745-106.97h20.192Z" fill="#f7d27f"/>
                <path id="Path_6568-3" data-name="Path 6568" d="M818.309,579.583H798.117l38.745-106.97h20.192Z" fill="#f7d27f"/>
                <path id="Path_6569-3" data-name="Path 6569" d="M862.107,579.583H841.916l38.745-106.97h20.192Z" fill="#f7d27f"/>
                <path id="Path_6570-3" data-name="Path 6570" d="M905.906,579.583H885.714l38.745-106.97h20.192Z" fill="#f7d27f"/>
                <path id="Path_6571-3" data-name="Path 6571" d="M949.705,579.583H929.513l38.745-106.97H988.45Z" fill="#f7d27f"/>
                <path id="Path_6572-3" data-name="Path 6572" d="M993.5,579.583H973.312l38.745-106.97h20.192Z" fill="#f7d27f"/>
                <path id="Path_6573-3" data-name="Path 6573" d="M1037.3,579.583h-20.192l38.745-106.97h20.192Z" fill="#f7d27f"/>
                <path id="Path_6574-3" data-name="Path 6574" d="M1081.1,579.583H1060.91l38.745-106.97h20.192Z" fill="#f7d27f"/>
                <path id="Path_6575-3" data-name="Path 6575" d="M1124.9,579.583h-20.192l38.745-106.97h20.192Z" fill="#f7d27f"/>
                <path id="Path_6576-3" data-name="Path 6576" d="M1168.7,579.583h-20.192l38.745-106.97h20.192Z" fill="#f7d27f"/>
                <path id="Path_6577-3" data-name="Path 6577" d="M1212.5,579.583h-20.192l38.745-106.97h20.192Z" fill="#f7d27f"/>
              </g>
            </g>
          </g>
        </g>
        <rect id="Rectangle_4308-3" data-name="Rectangle 4308" width="560.751" height="39.166" transform="translate(682.3 495.671)" fill="none" stroke="#f8b849" stroke-linejoin="round" stroke-width="2"/>
      </g>
      <g id="Group_7775" data-name="Group 7775" transform="translate(-1.104 71.26)">
        <rect id="Rectangle_4315" data-name="Rectangle 4315" width="16.846" height="422.827" transform="translate(1177.263 758.264) rotate(90)" fill="#c3c3c3"/>
        <line id="Line_2287" data-name="Line 2287" x1="408.609" transform="translate(760.212 766.687)" fill="none" stroke="#797979" stroke-linecap="round" stroke-miterlimit="10" stroke-width="4" stroke-dasharray="0 13"/>
      </g>
      <rect id="Rectangle_4316" data-name="Rectangle 4316" width="36.991" height="27.701" transform="translate(1166.088 824.096)" fill="#c3c3c3" stroke="#797979" stroke-linejoin="round" stroke-width="2"/>
      <rect id="Rectangle_4317" data-name="Rectangle 4317" width="36.991" height="27.701" transform="translate(726.414 824.096)" fill="#c3c3c3" stroke="#797979" stroke-linejoin="round" stroke-width="2"/>
      <g id="Group_7776" data-name="Group 7776" transform="translate(-1.104 71.26)">
        <rect id="Rectangle_5196" data-name="Rectangle 5196" width="236.869" height="168.14" rx="10.688" transform="translate(844.238 474.34)" fill="#f7d27f"/>
        <rect id="Rectangle_4318" data-name="Rectangle 4318" width="236.869" height="168.145" rx="10.688" transform="translate(844.241 474.338)" fill="none" stroke="#f8b849" stroke-miterlimit="10" stroke-width="3"/>
        <rect id="Rectangle_4319" data-name="Rectangle 4319" width="210.81" height="142.323" rx="4.906" transform="translate(857.603 486.74)" fill="#f6f6f6"/>
        <text id="LANE_CLOSED" data-name="LANE
CLOSED" transform="translate(962.603 551.74)" fill="#919191" font-size="40" font-family="Montserrat-Black, Montserrat" font-weight="800"><tspan x="-58.2" y="0">LANE</tspan><tspan x="-87.1" y="42">CLOSED</tspan></text>
      </g>
      <rect id="Rectangle_4320" data-name="Rectangle 4320" width="235.41" height="83.032" rx="5.359" transform="translate(844.598 730.117)" fill="#f8b849" stroke="#f49f22" stroke-miterlimit="10" stroke-width="6"/>
      <g id="Group_7777" data-name="Group 7777" transform="translate(-1.104 71.26)">
        <path id="Path_6604" data-name="Path 6604" d="M856.056,699.149l47.961-28.538a6.445,6.445,0,0,1,9.364,7.538l-6.693,21,6.693,21a6.446,6.446,0,0,1-9.364,7.539Z" fill="#fa822e"/>
      </g>
      <g id="Group_8956" data-name="Group 8956" transform="translate(-1.104 71.26)">
        <path id="Rectangle_4321" data-name="Rectangle 4321" d="M0,0H152.279a8,8,0,0,1,8,8V30.58a8,8,0,0,1-8,8H0a0,0,0,0,1,0,0V0A0,0,0,0,1,0,0Z" transform="translate(904.692 679.861)" fill="#fff"/>
        <path id="Path_6604-2" data-name="Path 6604" d="M856.056,699.149l47.961-28.538a6.445,6.445,0,0,1,9.364,7.538l-6.693,21,6.693,21a6.446,6.446,0,0,1-9.364,7.539Z" fill="#fff"/>
      </g>
      <text id="DETOUR" transform="translate(894.908 779.533)" fill="#f8b849" font-size="26" font-family="Montserrat-Black, Montserrat" font-weight="800" letter-spacing="0.22em"><tspan x="0" y="0">DETOUR</tspan></text>
      <path id="Path_6606" data-name="Path 6606" d="M796.563,833.149H694.523l15.374-9.926h71.292Z" transform="translate(-1.104 71.26)" fill="#aaa" stroke="#797979" stroke-linejoin="round" stroke-width="2"/>
      <path id="Path_6607" data-name="Path 6607" d="M1236.706,833.149h-102.04l15.374-9.926h71.292Z" transform="translate(-1.104 71.26)" fill="#aaa" stroke="#797979" stroke-linejoin="round" stroke-width="2"/>
    </g>
    <g id="Group_9050" data-name="Group 9050" transform="translate(1455.664 677.504)">
      <rect id="Rectangle_4082" data-name="Rectangle 4082" width="91.045" height="16.895" transform="translate(19.634 126.107)" fill="#f8b849" stroke="#f49f22" stroke-linejoin="round" stroke-width="2"/>
      <rect id="Rectangle_4083" data-name="Rectangle 4083" width="91.045" height="16.895" transform="translate(19.634 195.212)" fill="#f8b849" stroke="#f49f22" stroke-linejoin="round" stroke-width="2"/>
      <rect id="Rectangle_4084" data-name="Rectangle 4084" width="91.045" height="13.446" transform="translate(19.634 112.661)" fill="#f7d27f" stroke="#f49f22" stroke-linejoin="round" stroke-width="2"/>
      <rect id="Rectangle_4085" data-name="Rectangle 4085" width="91.045" height="13.446" transform="translate(19.634 178.249)" fill="#f7d27f" stroke="#f49f22" stroke-linejoin="round" stroke-width="2"/>
      <rect id="Rectangle_4086" data-name="Rectangle 4086" width="91.045" height="21.801" transform="translate(19.634 90.86)" fill="#f6f6f6" stroke="#f49f22" stroke-linejoin="round" stroke-width="2"/>
      <rect id="Rectangle_4087" data-name="Rectangle 4087" width="91.045" height="21.801" transform="translate(19.634 156.448)" fill="#f6f6f6" stroke="#f49f22" stroke-linejoin="round" stroke-width="2"/>
      <path id="Path_5865" data-name="Path 5865" d="M376.328,637.995h45.065a19.939,19.939,0,0,1,19.94,19.94H356.388A19.94,19.94,0,0,1,376.328,637.995Zm46.805,8.389a2.215,2.215,0,1,0-2.216-2.215A2.216,2.216,0,0,0,423.133,646.384Zm-36.52,1.064h24.46a3.279,3.279,0,1,0,0-6.558h-24.46a3.279,3.279,0,0,0,0,6.558Zm-12.06-1.064a2.215,2.215,0,1,0-2.215-2.215A2.216,2.216,0,0,0,374.553,646.384Z" transform="translate(-333.14 -585.803)" fill="#f7d27f" stroke="#f49f22" stroke-linejoin="round" stroke-width="2"/>
      <path id="Rectangle_4088" data-name="Rectangle 4088" d="M4.658,0H86.387a4.658,4.658,0,0,1,4.658,4.658v14.07a0,0,0,0,1,0,0H0a0,0,0,0,1,0,0V4.658A4.658,4.658,0,0,1,4.658,0Z" transform="translate(19.634 72.132)" fill="#f7d27f" stroke="#f49f22" stroke-linejoin="round" stroke-width="2"/>
      <rect id="Rectangle_4089" data-name="Rectangle 4089" width="91.045" height="3.517" transform="translate(19.634 87.343)" fill="#ffe783" stroke="#f49f22" stroke-linejoin="round" stroke-width="2"/>
      <rect id="Rectangle_4090" data-name="Rectangle 4090" width="91.045" height="3.517" transform="translate(19.634 122.59)" fill="#ffe783" stroke="#f49f22" stroke-linejoin="round" stroke-width="2"/>
      <rect id="Rectangle_4091" data-name="Rectangle 4091" width="91.045" height="3.517" transform="translate(19.634 152.931)" fill="#ffe783" stroke="#f49f22" stroke-linejoin="round" stroke-width="2"/>
      <rect id="Rectangle_4092" data-name="Rectangle 4092" width="91.045" height="3.517" transform="translate(19.634 191.695)" fill="#ffe783" stroke="#f49f22" stroke-linejoin="round" stroke-width="2"/>
      <rect id="Rectangle_4093" data-name="Rectangle 4093" width="91.045" height="9.929" transform="translate(19.634 143.002)" fill="#f7d27f" stroke="#f49f22" stroke-linejoin="round" stroke-width="2"/>
      <rect id="Rectangle_4094" data-name="Rectangle 4094" width="91.045" height="9.929" transform="translate(19.634 212.107)" fill="#f7d27f" stroke="#f49f22" stroke-linejoin="round" stroke-width="2"/>
      <path id="Path_5866" data-name="Path 5866" d="M334.268,816.522H464.581l-19.634-8.683H353.9Z" transform="translate(-334.268 -585.803)" fill="#aaa" stroke="#797979" stroke-linejoin="round" stroke-width="2"/>
      <rect id="Rectangle_4095" data-name="Rectangle 4095" width="130.313" height="3.179" transform="translate(0 230.719)" fill="#919191" stroke="#797979" stroke-linejoin="round" stroke-width="2"/>
      <g id="Group_7153" data-name="Group 7153" transform="translate(58.194 0)">
        <rect id="Rectangle_4096" data-name="Rectangle 4096" width="14.116" height="3.167" transform="translate(16.834 48.217)" fill="#919191"/>
        <path id="Path_5867" data-name="Path 5867" d="M346.169,609.911A24.109,24.109,0,1,1,382.4,630.747l-1.574,3.273H359.656l-1.6-3.331A24.1,24.1,0,0,1,346.169,609.911Z" transform="translate(-346.169 -585.803)" fill="#f8b849" stroke="#f49f22" stroke-linejoin="round" stroke-width="2"/>
        <ellipse id="Ellipse_1493" data-name="Ellipse 1493" cx="17.556" cy="17.556" rx="17.556" ry="17.556" transform="translate(6.553 6.552)" fill="#f7b749"/>
        <path id="Path_5868" data-name="Path 5868" d="M361.985,636.128h16.66a3.971,3.971,0,0,1,2.071.583l9.612,5.878a3.968,3.968,0,0,1,1.9,3.387v11.959H348.4V645.976a3.968,3.968,0,0,1,1.9-3.387l9.612-5.878A3.973,3.973,0,0,1,361.985,636.128Z" transform="translate(-346.243 -585.803)" fill="#ffe783" stroke="#f49f22" stroke-linejoin="round" stroke-width="2"/>
        <rect id="Rectangle_4097" data-name="Rectangle 4097" width="12.883" height="6.329" rx="2" transform="translate(17.631 58.522)" fill="#ffeea9"/>
        <rect id="Rectangle_4098" data-name="Rectangle 4098" width="10.056" height="5.478" rx="0.953" transform="translate(19.044 57.947)" fill="#b7b7b7" stroke="#919191" stroke-linejoin="round" stroke-width="1"/>
        <rect id="Rectangle_4099" data-name="Rectangle 4099" width="6" height="3" rx="1.5" transform="translate(33.083 65.847)" fill="#ffeea9"/>
        <rect id="Rectangle_5195" data-name="Rectangle 5195" width="6" height="3" rx="1.5" transform="translate(9.083 65.847)" fill="#ffeea9"/>
        <rect id="Rectangle_4101" data-name="Rectangle 4101" width="4.009" height="1.628" rx="0.814" transform="translate(34.076 66.27)" fill="#b7b7b7" stroke="#919191" stroke-linejoin="round" stroke-width="1"/>
        <rect id="Rectangle_4102" data-name="Rectangle 4102" width="4.009" height="1.628" rx="0.814" transform="translate(10.059 66.27)" fill="#b7b7b7" stroke="#919191" stroke-linejoin="round" stroke-width="1"/>
        <ellipse id="Ellipse_1494" data-name="Ellipse 1494" cx="0.751" cy="0.751" rx="0.751" ry="0.751" transform="translate(29.56 66.333)" fill="#ffeea9" stroke="#dbbc3b" stroke-linejoin="round" stroke-width="0.75"/>
        <ellipse id="Ellipse_1495" data-name="Ellipse 1495" cx="0.751" cy="0.751" rx="0.751" ry="0.751" transform="translate(17.082 66.333)" fill="#ffeea9" stroke="#dbbc3b" stroke-linejoin="round" stroke-width="0.75"/>
        <ellipse id="Ellipse_1496" data-name="Ellipse 1496" cx="1.217" cy="1.217" rx="1.217" ry="1.217" transform="translate(1.412 22.809)" fill="#b7b7b7" stroke="#919191" stroke-linejoin="round" stroke-width="1"/>
        <ellipse id="Ellipse_1497" data-name="Ellipse 1497" cx="1.217" cy="1.217" rx="1.217" ry="1.217" transform="translate(44.297 22.809)" fill="#b7b7b7" stroke="#919191" stroke-linejoin="round" stroke-width="1"/>
        <path id="Path_5869" data-name="Path 5869" d="M356.375,628.813l3.52-4.693a18.052,18.052,0,0,0,21.306.24l3.414,4.771a24.225,24.225,0,0,1-2.171,1.381l-1.448,3.1h-20.61l-1.541-3.154.016-.006A24.287,24.287,0,0,1,356.375,628.813Z" transform="translate(-346.603 -585.803)" fill="#f7d27f"/>
        <rect id="Rectangle_4103" data-name="Rectangle 4103" width="18.287" height="3.141" rx="1.571" transform="translate(14.929 43.974)" fill="#ffe783" stroke="#f49f22" stroke-linejoin="round" stroke-width="1"/>
        <g id="Group_7151" data-name="Group 7151" transform="translate(17.302 43.974)">
          <path id="Path_5870" data-name="Path 5870" d="M363.434,629.777v3.141h2.73v-3.141h2.73v3.141h2.73v-3.141h2.73v3.141h2.73v-3.141" transform="translate(-363.434 -629.777)" fill="#ffe783" stroke="#f49f22" stroke-linejoin="round" stroke-width="1"/>
        </g>
        <ellipse id="Ellipse_1498" data-name="Ellipse 1498" cx="9.779" cy="9.779" rx="9.779" ry="9.779" transform="translate(14.33 14.289)" fill="none" stroke="#f99e00" stroke-miterlimit="10" stroke-width="6"/>
        <ellipse id="Ellipse_1499" data-name="Ellipse 1499" cx="3.68" cy="3.68" rx="3.68" ry="3.68" transform="translate(20.429 20.387)" fill="none" stroke="#f99e00" stroke-miterlimit="10" stroke-width="6"/>
        <ellipse id="Ellipse_1500" data-name="Ellipse 1500" cx="15.847" cy="15.847" rx="15.847" ry="15.847" transform="translate(8.262 8.22)" fill="none" stroke="#f49f22" stroke-miterlimit="10" stroke-width="6"/>
        <ellipse id="Ellipse_1501" data-name="Ellipse 1501" cx="2.014" cy="2.014" rx="2.014" ry="2.014" transform="translate(22.095 22.053)" fill="none" stroke="#ffe783" stroke-miterlimit="10" stroke-width="1.5"/>
        <ellipse id="Ellipse_1502" data-name="Ellipse 1502" cx="5.123" cy="5.123" rx="5.123" ry="5.123" transform="translate(18.986 18.945)" fill="none" stroke="#ffe783" stroke-miterlimit="10" stroke-width="1.5"/>
        <ellipse id="Ellipse_1503" data-name="Ellipse 1503" cx="8.231" cy="8.231" rx="8.231" ry="8.231" transform="translate(15.878 15.836)" fill="none" stroke="#ffe783" stroke-miterlimit="10" stroke-width="1.5"/>
        <ellipse id="Ellipse_1504" data-name="Ellipse 1504" cx="11.339" cy="11.339" rx="11.339" ry="11.339" transform="translate(12.77 12.728)" fill="none" stroke="#ffe783" stroke-miterlimit="10" stroke-width="1.5"/>
        <ellipse id="Ellipse_1505" data-name="Ellipse 1505" cx="14.448" cy="14.448" rx="14.448" ry="14.448" transform="translate(9.661 9.62)" fill="none" stroke="#ffe783" stroke-miterlimit="10" stroke-width="1.5"/>
        <ellipse id="Ellipse_1506" data-name="Ellipse 1506" cx="17.556" cy="17.556" rx="17.556" ry="17.556" transform="translate(6.553 6.511)" fill="none" stroke="#ffe783" stroke-miterlimit="10" stroke-width="2"/>
        <ellipse id="Ellipse_1507" data-name="Ellipse 1507" cx="17.556" cy="17.556" rx="17.556" ry="17.556" transform="translate(6.553 6.511)" fill="#ffeea9" opacity="0.45"/>
        <ellipse id="Ellipse_1508" data-name="Ellipse 1508" cx="1.217" cy="1.217" rx="1.217" ry="1.217" transform="translate(33.441 40.838)" fill="#b7b7b7" stroke="#919191" stroke-linejoin="round" stroke-width="1"/>
        <ellipse id="Ellipse_1509" data-name="Ellipse 1509" cx="1.217" cy="1.217" rx="1.217" ry="1.217" transform="translate(12.77 40.838)" fill="#b7b7b7" stroke="#919191" stroke-linejoin="round" stroke-width="1"/>
        <g id="Group_7152" data-name="Group 7152" transform="translate(22.855 1.367)">
          <ellipse id="Ellipse_1510" data-name="Ellipse 1510" cx="1.217" cy="1.217" rx="1.217" ry="1.217" transform="translate(0)" fill="#b7b7b7" stroke="#919191" stroke-linejoin="round" stroke-width="1"/>
        </g>
      </g>
    </g>
  </g>
</svg>
