<svg xmlns="http://www.w3.org/2000/svg" width="226.966" height="56.277" viewBox="0 0 226.966 56.277">
  <g id="Group_9721" data-name="Group 9721" transform="translate(-365.804 -389.545)">
    <path id="Path_6492" data-name="Path 6492" d="M373.554,430.7l.289-.044.1.012c.081.01.16.027.118.033a.968.968,0,0,0,.932-1q-.012-.367-.012-.741a22.925,22.925,0,0,1,30.768-21.628l1.09.39,4.68-1.331,1.051-1.638a29.721,29.721,0,0,1,52.58,4.832l.228.561-.042.046,1.379,1.346a19.4,19.4,0,0,1,29.262,1.2c2.791,3.48,4.99,3.964,2.7.465l-.426-.652L498.8,412a24.9,24.9,0,0,1,17.573-7.373,24.551,24.551,0,0,1,23.1,15.9l.338.884h2.035l.777-1.044a17.512,17.512,0,0,1,31.3,13.5,1.014,1.014,0,0,0,.691,1.088l.174.042.166-.019a1.033,1.033,0,0,0,.9-.7,7.351,7.351,0,1,1,7.135,9.117H373.649a6.346,6.346,0,0,1-.094-12.691Z" transform="translate(0.465 0.465)" fill="#fff"/>
    <g id="Group_7715" data-name="Group 7715" transform="translate(366.804 390.545)">
      <line id="Line_2250" data-name="Line 2250" x1="209.797" transform="translate(6.852 54.277)" fill="none" stroke="#ddd" stroke-linecap="round" stroke-miterlimit="10" stroke-width="2"/>
      <path id="Path_6493" data-name="Path 6493" d="M374.113,411.1a7.31,7.31,0,0,0,0,14.62" transform="translate(-366.804 -371.446)" fill="none" stroke="#ddd" stroke-linecap="round" stroke-miterlimit="10" stroke-width="2"/>
      <path id="Path_6494" data-name="Path 6494" d="M483,426.691a8.315,8.315,0,1,0-8.073-10.313" transform="translate(-266.352 -372.414)" fill="none" stroke="#ddd" stroke-linecap="round" stroke-miterlimit="10" stroke-width="2"/>
      <path id="Path_6495" data-name="Path 6495" d="M491.319,423.793a18.487,18.487,0,0,0-34.076-12.71" transform="translate(-282.783 -379.838)" fill="none" stroke="#ddd" stroke-linecap="round" stroke-miterlimit="10" stroke-width="2"/>
      <path id="Path_6496" data-name="Path 6496" d="M478.266,415.247a25.713,25.713,0,0,0-43.652-9.014" transform="translate(-303.806 -384.003)" fill="none" stroke="#ddd" stroke-linecap="round" stroke-miterlimit="10" stroke-width="2"/>
      <path id="Path_6497" data-name="Path 6497" d="M455.2,412.763a20.415,20.415,0,0,0-39.223,0" transform="translate(-321.122 -383.603)" fill="none" stroke="#ddd" stroke-linecap="round" stroke-miterlimit="10" stroke-width="2"/>
      <path id="Path_6498" data-name="Path 6498" d="M446.086,410.815a30.711,30.711,0,0,0-56.808-2.338" transform="translate(-345.925 -390.545)" fill="none" stroke="#ddd" stroke-linecap="round" stroke-miterlimit="10" stroke-width="2"/>
      <path id="Path_6499" data-name="Path 6499" d="M406.46,401.317a23.982,23.982,0,0,0-35.675,20.934c0,.259,0,.515.012.772" transform="translate(-363.105 -383.366)" fill="none" stroke="#ddd" stroke-linecap="round" stroke-miterlimit="10" stroke-width="2"/>
      <path id="Path_6500" data-name="Path 6500" d="M416.475,416.56a16.875,16.875,0,1,0-33.75,0" transform="translate(-352.013 -382.054)" fill="none" stroke="#ddd" stroke-linecap="round" stroke-miterlimit="10" stroke-width="2"/>
      <path id="Path_6501" data-name="Path 6501" d="M470.865,413.266a9.741,9.741,0,0,0-18.388,0" transform="translate(-287.211 -375.497)" fill="none" stroke="#ddd" stroke-linecap="round" stroke-miterlimit="10" stroke-width="2"/>
    </g>
  </g>
</svg>
