<svg xmlns="http://www.w3.org/2000/svg" width="1222.77" height="100.15" viewBox="0 0 1222.77 100.15">
  <g id="Group_11728" data-name="Group 11728" transform="translate(-316.668 -443.999)">
    <line id="Line_2251" data-name="Line 2251" x1="16.275" y2="16.275" transform="translate(890.168 453.715)" fill="none" stroke="#c3c3c3" stroke-linecap="round" stroke-linejoin="round" stroke-width="2.5"/>
    <line id="Line_2252" data-name="Line 2252" x2="16.275" y2="16.275" transform="translate(890.168 453.715)" fill="none" stroke="#c3c3c3" stroke-linecap="round" stroke-linejoin="round" stroke-width="2.5"/>
    <line id="Line_2253" data-name="Line 2253" x1="68.6" transform="translate(339.111 507.102)" fill="none" stroke="#c3c3c3" stroke-linecap="round" stroke-linejoin="round" stroke-width="2.5"/>
    <line id="Line_2254" data-name="Line 2254" transform="translate(327.191 507.102)" fill="none" stroke="#c3c3c3" stroke-linecap="round" stroke-linejoin="round" stroke-width="2.5"/>
    <line id="Line_2255" data-name="Line 2255" transform="translate(442.826 507.102)" fill="none" stroke="#c3c3c3" stroke-linecap="round" stroke-linejoin="round" stroke-width="2.5"/>
    <line id="Line_2256" data-name="Line 2256" transform="translate(316.668 507.102)" fill="none" stroke="#c3c3c3" stroke-linecap="round" stroke-linejoin="round" stroke-width="2.5"/>
    <line id="Line_2257" data-name="Line 2257" x1="8.006" transform="translate(421.496 507.101)" fill="none" stroke="#c3c3c3" stroke-linecap="round" stroke-linejoin="round" stroke-width="2.5"/>
    <g id="Group_7722" data-name="Group 7722" transform="translate(-77.604 56.816)" opacity="0.7">
      <path id="Path_6510" data-name="Path 6510" d="M680.11,397.2a12.766,12.766,0,0,0-22.111,0l-17.767,30.773-17.766,30.773a12.765,12.765,0,0,0,11.055,19.147h71.067a12.763,12.763,0,0,0,11.053-19.147l-17.764-30.773Z" transform="translate(0 0)" fill="#fff"/>
      <g id="Group_7721" data-name="Group 7721" transform="translate(664.082 414.41)">
        <path id="Path_6511" data-name="Path 6511" d="M648.541,434.564a2.494,2.494,0,0,1-2.47,1.5,2.583,2.583,0,0,1-2.5-1.55,12.692,12.692,0,0,1-.99-4.445l-1.417-16.236a43.44,43.44,0,0,1-.23-4.413,13.231,13.231,0,0,1,.955-5.647q.956-1.961,3.788-1.962a4.925,4.925,0,0,1,3.771,1.532,6.011,6.011,0,0,1,1.432,4.265q0,2.009-.3,6.619L649.529,430A14.974,14.974,0,0,1,648.541,434.564Zm-6.128,15.79a4.6,4.6,0,0,1-1.481-3.621,4.69,4.69,0,0,1,1.466-3.477,4.886,4.886,0,0,1,3.539-1.432,4.888,4.888,0,0,1,4.941,4.908,4.563,4.563,0,0,1-1.5,3.638,5.182,5.182,0,0,1-3.509,1.3A5.039,5.039,0,0,1,642.414,450.354Z" transform="translate(-640.933 -401.81)" fill="#f7d27f"/>
      </g>
    </g>
    <line id="Line_2263" data-name="Line 2263" x1="16.275" y2="16.275" transform="translate(1521.395 526.106)" fill="none" stroke="#c3c3c3" stroke-linecap="round" stroke-linejoin="round" stroke-width="2.5"/>
    <line id="Line_2264" data-name="Line 2264" x2="16.275" y2="16.275" transform="translate(1521.395 526.106)" fill="none" stroke="#c3c3c3" stroke-linecap="round" stroke-linejoin="round" stroke-width="2.5"/>
    <path id="Path_8772" data-name="Path 8772" d="M318.556,420.75H262.6a1.25,1.25,0,0,0,0,2.5h55.961a1.25,1.25,0,0,0,0-2.5Z" transform="translate(1157.961 23.252)" fill="#b7b7b7"/>
    <path id="Path_8773" data-name="Path 8773" d="M251.99,421.12a1.217,1.217,0,0,0-.37.88,1.271,1.271,0,0,0,.09.479,1.249,1.249,0,0,0,.28.4,1.075,1.075,0,0,0,.4.269,1.191,1.191,0,0,0,.96,0,1.2,1.2,0,0,0,.41-.269,1.4,1.4,0,0,0,.27-.4,1.272,1.272,0,0,0,.09-.479,1.249,1.249,0,0,0-.36-.88A1.285,1.285,0,0,0,251.99,421.12Z" transform="translate(1157.961 23.252)" fill="#b7b7b7"/>
    <path id="Path_8774" data-name="Path 8774" d="M348.09,421.12a1.279,1.279,0,0,0-1.13-.35,1.128,1.128,0,0,0-.24.08,2.011,2.011,0,0,0-.21.11,1.473,1.473,0,0,0-.191.16,1.262,1.262,0,0,0-.369.88,1.1,1.1,0,0,0,.1.479,1.084,1.084,0,0,0,.269.4,1.277,1.277,0,0,0,.881.37,1.1,1.1,0,0,0,.48-.1,1.227,1.227,0,0,0,.679-.67,1.272,1.272,0,0,0-.269-1.359Z" transform="translate(1157.961 23.252)" fill="#b7b7b7"/>
    <path id="Path_8775" data-name="Path 8775" d="M243.4,421.12a1.249,1.249,0,0,0-.36.88,1.272,1.272,0,0,0,.09.479,1.222,1.222,0,0,0,.27.4,1.24,1.24,0,0,0,.89.37,1.272,1.272,0,0,0,.88-.37,1.086,1.086,0,0,0,.27-.4,1.278,1.278,0,0,0,.1-.479,1.258,1.258,0,0,0-.37-.88A1.285,1.285,0,0,0,243.4,421.12Z" transform="translate(1157.961 23.252)" fill="#b7b7b7"/>
    <path id="Path_8776" data-name="Path 8776" d="M336.332,420.75H329.8a1.25,1.25,0,0,0,0,2.5h6.531a1.25,1.25,0,0,0,0-2.5Z" transform="translate(1157.961 23.252)" fill="#b7b7b7"/>
  </g>
</svg>
