<svg xmlns="http://www.w3.org/2000/svg" width="238.014" height="58.943" viewBox="0 0 238.014 58.943">
  <g id="Group_11721" data-name="Group 11721" transform="translate(-1081.357 -202.612)">
    <g id="Group_7714" data-name="Group 7714" transform="translate(213.396 -57.184)">
      <path id="Path_6482" data-name="Path 6482" d="M1096.893,302.9l-.3-.047-.107.012c-.085.008-.168.028-.123.034a1.017,1.017,0,0,1-.978-1.046q.012-.386.012-.777a24.051,24.051,0,0,0-32.279-22.69l-1.143.409-4.91-1.4-1.1-1.718a31.18,31.18,0,0,0-55.162,5.07l-.239.589.044.049-1.445,1.413a20.357,20.357,0,0,0-30.7,1.259c-2.928,3.651-5.234,4.159-2.837.488l.447-.684-.575-.581a26.118,26.118,0,0,0-18.436-7.735,25.753,25.753,0,0,0-24.231,16.682l-.354.927h-2.137l-.816-1.095a18.372,18.372,0,0,0-32.838,14.16,1.064,1.064,0,0,1-.724,1.141l-.18.044-.176-.022a.937.937,0,0,1-.307-.069,1,1,0,0,1-.634-.666,7.712,7.712,0,1,0-7.486,9.564h219.621a6.658,6.658,0,0,0,.1-13.314Z" transform="translate(0.511 0.512)" fill="#fff"/>
      <g id="Group_7713" data-name="Group 7713" transform="translate(868.961 260.796)">
        <line id="Line_2249" data-name="Line 2249" x2="220.101" transform="translate(8.723 56.942)" fill="none" stroke="#ddd" stroke-linecap="round" stroke-miterlimit="10" stroke-width="2"/>
        <path id="Path_6483" data-name="Path 6483" d="M981.792,281.354a7.669,7.669,0,1,1,0,15.338" transform="translate(-753.448 -239.749)" fill="none" stroke="#ddd" stroke-linecap="round" stroke-miterlimit="10" stroke-width="2"/>
        <path id="Path_6484" data-name="Path 6484" d="M877.684,297.759a8.723,8.723,0,1,1,8.469-10.819" transform="translate(-868.961 -240.816)" fill="none" stroke="#ddd" stroke-linecap="round" stroke-miterlimit="10" stroke-width="2"/>
        <path id="Path_6485" data-name="Path 6485" d="M877.628,295.111a19.4,19.4,0,0,1,35.75-13.335" transform="translate(-860.393 -248.997)" fill="none" stroke="#ddd" stroke-linecap="round" stroke-miterlimit="10" stroke-width="2"/>
        <path id="Path_6486" data-name="Path 6486" d="M895.142,286.366a26.976,26.976,0,0,1,45.8-9.457" transform="translate(-842.158 -253.587)" fill="none" stroke="#ddd" stroke-linecap="round" stroke-miterlimit="10" stroke-width="2"/>
        <path id="Path_6487" data-name="Path 6487" d="M916.077,283.738a21.416,21.416,0,0,1,41.147,0" transform="translate(-820.725 -253.146)" fill="none" stroke="#ddd" stroke-linecap="round" stroke-miterlimit="10" stroke-width="2"/>
        <path id="Path_6488" data-name="Path 6488" d="M933.658,282.062a32.219,32.219,0,0,1,59.6-2.453" transform="translate(-802.726 -260.796)" fill="none" stroke="#ddd" stroke-linecap="round" stroke-miterlimit="10" stroke-width="2"/>
        <path id="Path_6489" data-name="Path 6489" d="M963.106,271.717a25.16,25.16,0,0,1,37.427,21.962c0,.271,0,.54-.012.81" transform="translate(-772.578 -252.884)" fill="none" stroke="#ddd" stroke-linecap="round" stroke-miterlimit="10" stroke-width="2"/>
        <path id="Path_6490" data-name="Path 6490" d="M952.164,287.641a17.7,17.7,0,1,1,35.408,0" transform="translate(-783.781 -251.44)" fill="none" stroke="#ddd" stroke-linecap="round" stroke-miterlimit="10" stroke-width="2"/>
        <path id="Path_6491" data-name="Path 6491" d="M890.376,283.837a10.219,10.219,0,0,1,19.291,0" transform="translate(-847.037 -244.214)" fill="none" stroke="#ddd" stroke-linecap="round" stroke-miterlimit="10" stroke-width="2"/>
      </g>
    </g>
  </g>
</svg>
