<svg xmlns="http://www.w3.org/2000/svg" width="66.39" height="66.388" viewBox="0 0 66.39 66.388">
  <path id="Path_6508" data-name="Path 6508" d="M640.9,620.747l-.536-.788a8.173,8.173,0,0,1-.63-8.387c.227-.437.443-.876.645-1.322a7.813,7.813,0,0,1,6.743-4.471l1.166-.071a1.841,1.841,0,0,0,1.725-1.72l.277-4.306a1.84,1.84,0,0,0-1.491-1.924l-1.149-.219a7.814,7.814,0,0,1-6.117-5.3c-.143-.468-.3-.931-.47-1.394a8.167,8.167,0,0,1,1.7-8.234l.632-.712a1.844,1.844,0,0,0,0-2.436l-2.85-3.24a1.844,1.844,0,0,0-2.417-.3l-.786.534a8.169,8.169,0,0,1-8.385.63c-.437-.229-.877-.443-1.324-.645a7.813,7.813,0,0,1-4.471-6.743l-.071-1.166a1.842,1.842,0,0,0-1.72-1.725l-4.306-.277a1.838,1.838,0,0,0-1.924,1.491l-.219,1.147a7.815,7.815,0,0,1-5.3,6.119q-.706.215-1.4.47a8.181,8.181,0,0,1-8.234-1.7l-.71-.632a1.837,1.837,0,0,0-2.436-.005l-3.244,2.85a1.839,1.839,0,0,0-.307,2.415l.536.788a8.178,8.178,0,0,1,.63,8.385q-.343.655-.645,1.324a7.814,7.814,0,0,1-6.743,4.471l-1.166.071a1.841,1.841,0,0,0-1.725,1.718l-.277,4.306a1.837,1.837,0,0,0,1.491,1.924l1.147.219a7.822,7.822,0,0,1,6.119,5.3q.215.7.47,1.394a8.17,8.17,0,0,1-1.7,8.234l-.63.714a1.839,1.839,0,0,0,0,2.436l2.85,3.24a1.835,1.835,0,0,0,2.415.307l.786-.534a8.158,8.158,0,0,1,8.383-.63c.437.229.879.443,1.326.645a7.813,7.813,0,0,1,4.471,6.743l.071,1.166a1.841,1.841,0,0,0,1.718,1.725l4.306.277a1.84,1.84,0,0,0,1.926-1.493l.218-1.147a7.815,7.815,0,0,1,5.3-6.117q.706-.215,1.4-.47a8.171,8.171,0,0,1,8.234,1.7l.712.63a1.842,1.842,0,0,0,2.436,0l3.241-2.848A1.833,1.833,0,0,0,640.9,620.747Zm-24.621-8.177a12.88,12.88,0,1,1,13.678-12.029A12.895,12.895,0,0,1,616.282,612.57Z" transform="translate(-583.908 -566.522)" fill="#dadada"/>
</svg>
