<svg xmlns="http://www.w3.org/2000/svg" width="89.427" height="89.425" viewBox="0 0 89.427 89.425">
  <path id="Path_6509" data-name="Path 6509" d="M1287.322,405.624l-.6-.877a9.081,9.081,0,0,1-.7-9.318q.377-.728.717-1.47a8.685,8.685,0,0,1,7.493-4.969l1.3-.079a2.044,2.044,0,0,0,1.917-1.909l.306-4.784a2.04,2.04,0,0,0-1.657-2.139l-1.275-.245a8.683,8.683,0,0,1-6.8-5.888q-.24-.779-.524-1.549a9.077,9.077,0,0,1,1.886-9.15l.7-.794a2.043,2.043,0,0,0,0-2.7l-3.167-3.6a2.048,2.048,0,0,0-2.685-.34l-.875.594a9.072,9.072,0,0,1-9.316.7q-.728-.38-1.473-.717a8.683,8.683,0,0,1-4.969-7.492l-.079-1.3a2.043,2.043,0,0,0-1.909-1.917l-4.784-.306a2.041,2.041,0,0,0-2.139,1.658l-.245,1.275a8.681,8.681,0,0,1-5.886,6.8c-.521.16-1.038.332-1.551.523a9.1,9.1,0,0,1-9.15-1.885l-.792-.7a2.039,2.039,0,0,0-2.7-.006l-3.6,3.166a2.046,2.046,0,0,0-.343,2.683l.6.877a9.085,9.085,0,0,1,.7,9.318q-.38.728-.717,1.47a8.687,8.687,0,0,1-7.492,4.969l-1.3.079a2.044,2.044,0,0,0-1.918,1.909l-.306,4.784a2.043,2.043,0,0,0,1.658,2.139l1.272.245a8.687,8.687,0,0,1,6.8,5.888c.159.519.334,1.034.523,1.549a9.083,9.083,0,0,1-1.885,9.15l-.7.794a2.041,2.041,0,0,0,0,2.7l3.167,3.6a2.039,2.039,0,0,0,2.683.343l.875-.594a9.078,9.078,0,0,1,9.316-.7c.485.255.977.494,1.472.719a8.684,8.684,0,0,1,4.969,7.492l.079,1.3a2.044,2.044,0,0,0,1.909,1.917l4.784.306a2.041,2.041,0,0,0,2.139-1.658l.245-1.275a8.677,8.677,0,0,1,5.886-6.8q.782-.24,1.551-.523a9.087,9.087,0,0,1,9.153,1.885l.791.7a2.043,2.043,0,0,0,2.7,0l3.6-3.166A2.036,2.036,0,0,0,1287.322,405.624Zm-27.362-9.086a14.312,14.312,0,1,1,15.2-13.366A14.328,14.328,0,0,1,1259.96,396.537Z" transform="translate(-1086.231 -631.219) rotate(14)" fill="#dadada"/>
</svg>
