<svg xmlns="http://www.w3.org/2000/svg" width="55.512" height="50.021" viewBox="0 0 55.512 50.021">
  <g id="Group_9707" data-name="Group 9707" transform="translate(-620.738 -390.817)" opacity="0.7">
    <path id="Path_6510" data-name="Path 6510" d="M654.845,394.484a7.333,7.333,0,0,0-12.7,0l-10.206,17.678-10.206,17.678a7.333,7.333,0,0,0,6.351,11h40.825a7.332,7.332,0,0,0,6.349-11l-10.2-17.678Z" transform="translate(0 0)" fill="#f7d27f"/>
    <g id="Group_7721" data-name="Group 7721" transform="translate(645.637 404.371)">
      <path id="Path_6511" data-name="Path 6511" d="M645.3,420.626a1.433,1.433,0,0,1-1.419.861,1.484,1.484,0,0,1-1.438-.89,7.29,7.29,0,0,1-.568-2.553l-.814-9.327a24.952,24.952,0,0,1-.132-2.535,7.6,7.6,0,0,1,.549-3.244,2.18,2.18,0,0,1,2.176-1.127,2.829,2.829,0,0,1,2.166.88,3.453,3.453,0,0,1,.822,2.45q0,1.154-.17,3.8l-.605,9.063A8.6,8.6,0,0,1,645.3,420.626Zm-3.52,9.071a2.64,2.64,0,0,1-.851-2.08,2.694,2.694,0,0,1,.842-2,2.807,2.807,0,0,1,2.033-.822,2.808,2.808,0,0,1,2.838,2.82,2.621,2.621,0,0,1-.861,2.09,2.977,2.977,0,0,1-2.016.747A2.9,2.9,0,0,1,641.784,429.7Z" transform="translate(-640.933 -401.81)" fill="#fff"/>
    </g>
  </g>
</svg>
