<svg xmlns="http://www.w3.org/2000/svg" width="18.005" height="18" viewBox="0 0 18.005 18">
  <g id="Group_9065" data-name="Group 9065" transform="translate(-17.5 -17.429)">
    <path id="Path_8038" data-name="Path 8038" d="M35.505,19.117a16.311,16.311,0,0,1-16.31,16.312h-.006a.844.844,0,0,1-.822-.654l-.454-1.964L17.656,31.7l-.135-.579a.854.854,0,0,1,.494-.971l3.935-1.689a.84.84,0,0,1,.985.242l.443.542.742.905.56.686a13.035,13.035,0,0,0,6.233-6.226l-.682-.56-.905-.743-.542-.443a.837.837,0,0,1-.242-.985l1.685-3.939a.846.846,0,0,1,.966-.485l.583.131,1.115.256,1.961.453A.845.845,0,0,1,35.505,19.117Z" fill="#919191"/>
  </g>
</svg>
