<svg xmlns="http://www.w3.org/2000/svg" width="20" height="16" viewBox="0 0 20 16">
  <path id="Path_10849" data-name="Path 10849" d="M140.714,110.762h-15.6a2.268,2.268,0,0,0-2.2,2.332V124.43a2.268,2.268,0,0,0,2.2,2.332h15.6a2.268,2.268,0,0,0,2.2-2.332V113.094A2.271,2.271,0,0,0,140.714,110.762Zm-1.442,10.663a.809.809,0,0,1,.149,1.088.718.718,0,0,1-.588.313.7.7,0,0,1-.437-.154l-3.719-2.94-1.328,1.05a.7.7,0,0,1-.875,0l-1.328-1.05-3.719,2.94a.7.7,0,0,1-.437.154.719.719,0,0,1-.588-.313.809.809,0,0,1,.15-1.088l3.368-2.663-3.368-2.663a.809.809,0,0,1-.15-1.088.706.706,0,0,1,1.025-.159l5.485,4.336,5.485-4.336a.705.705,0,0,1,1.025.159.809.809,0,0,1-.149,1.088l-3.369,2.663Z" transform="translate(-122.912 -110.762)" fill="#919191"/>
</svg>
