<svg xmlns="http://www.w3.org/2000/svg" width="30" height="18.001" viewBox="0 0 30 18.001"><defs><style>.a{fill:#3c6fd6;}</style></defs><path class="a" d="M-6969,9724h-26a2,2,0,0,1-2-2v-14a2,2,0,0,1,2-2h26a2,2,0,0,1,2,2v14A2,2,0,0,1-6969,9724Zm-4.39-12.651a4.169,4.169,0,0,0-1.975.464,3.484,3.484,0,0,0-1.374,1.3,3.583,3.583,0,0,0-.5,1.879,3.588,3.588,0,0,0,.5,1.882,3.479,3.479,0,0,0,1.374,1.293,4.139,4.139,0,0,0,1.975.467,4.262,4.262,0,0,0,1.73-.342,3.3,3.3,0,0,0,1.281-.979l-1.259-1.14a2.083,2.083,0,0,1-1.652.819,2.016,2.016,0,0,1-1.013-.251,1.741,1.741,0,0,1-.69-.7,2.156,2.156,0,0,1-.247-1.047,2.183,2.183,0,0,1,.247-1.044,1.76,1.76,0,0,1,.69-.706,2.035,2.035,0,0,1,1.013-.248,2.081,2.081,0,0,1,1.652.819l1.259-1.14a3.344,3.344,0,0,0-1.281-.98A4.235,4.235,0,0,0-6973.391,9711.35Zm-8.419,0a4.219,4.219,0,0,0-1.994.469,3.559,3.559,0,0,0-1.391,1.3,3.538,3.538,0,0,0-.505,1.869,3.543,3.543,0,0,0,.505,1.872,3.538,3.538,0,0,0,1.391,1.3,4.187,4.187,0,0,0,1.994.472,4.188,4.188,0,0,0,2-.472,3.561,3.561,0,0,0,1.389-1.3,3.545,3.545,0,0,0,.5-1.872,3.539,3.539,0,0,0-.5-1.869,3.582,3.582,0,0,0-1.389-1.3A4.22,4.22,0,0,0-6981.81,9711.35Zm-11.79.14v7h3.309a4.64,4.64,0,0,0,2.04-.432,3.242,3.242,0,0,0,1.381-1.221,3.437,3.437,0,0,0,.491-1.85,3.451,3.451,0,0,0-.491-1.85,3.273,3.273,0,0,0-1.381-1.221,4.679,4.679,0,0,0-2.04-.429Zm11.79,5.5a1.858,1.858,0,0,1-.959-.251,1.789,1.789,0,0,1-.681-.7,2.142,2.142,0,0,1-.249-1.048,2.162,2.162,0,0,1,.249-1.044,1.815,1.815,0,0,1,.681-.706,1.876,1.876,0,0,1,.959-.248,1.892,1.892,0,0,1,.961.248,1.828,1.828,0,0,1,.678.706,2.125,2.125,0,0,1,.251,1.044,2.105,2.105,0,0,1-.251,1.047,1.8,1.8,0,0,1-.678.7A1.874,1.874,0,0,1-6981.81,9716.989Zm-8.559-.08h-1.252v-3.839h1.252a2.041,2.041,0,0,1,1.445.508,1.85,1.85,0,0,1,.544,1.41,1.847,1.847,0,0,1-.544,1.411A2.047,2.047,0,0,1-6990.369,9716.909Z" transform="translate(6997 -9706)"/></svg>