<svg xmlns="http://www.w3.org/2000/svg" width="30" height="18" viewBox="0 0 30 18">
  <defs>
    <style>
      .a {
        fill: #919191;
      }
    </style>
  </defs>
  <g transform="translate(-663.553 -361.17)">
    <path class="a"
      d="M680,368.92a1.968,1.968,0,0,0-1.92,0,1.807,1.807,0,0,0-.68.7,2.309,2.309,0,0,0,0,2.09,1.794,1.794,0,0,0,.68.705,1.968,1.968,0,0,0,1.92,0,1.788,1.788,0,0,0,.68-.705,2.309,2.309,0,0,0,0-2.09A1.8,1.8,0,0,0,680,368.92Z" />
    <path class="a"
      d="M670.484,368.75h-1.25v3.84h1.25a2.022,2.022,0,0,0,1.445-.51,2.1,2.1,0,0,0,0-2.82A2.031,2.031,0,0,0,670.484,368.75Z" />
    <path class="a"
      d="M690.553,361.17h-24a3,3,0,0,0-3,3v12a3,3,0,0,0,3,3h24a3,3,0,0,0,3-3v-12A3,3,0,0,0,690.553,361.17Zm-16.569,11.35a3.228,3.228,0,0,1-1.38,1.22,4.617,4.617,0,0,1-2.04.43h-3.31v-7h3.31a4.644,4.644,0,0,1,2.04.43,3.241,3.241,0,0,1,1.38,1.22,3.737,3.737,0,0,1,0,3.7Zm8.445.02a3.521,3.521,0,0,1-1.39,1.3,4.458,4.458,0,0,1-3.985,0,3.577,3.577,0,0,1-.005-6.34,4.48,4.48,0,0,1,3.995,0,3.638,3.638,0,0,1,1.385,5.04Zm6.77,1.43a4.236,4.236,0,0,1-1.735.34,4.147,4.147,0,0,1-1.975-.465,3.475,3.475,0,0,1-1.375-1.3,3.784,3.784,0,0,1,0-3.76,3.482,3.482,0,0,1,1.375-1.3,4.148,4.148,0,0,1,1.975-.465,4.246,4.246,0,0,1,1.73.34,3.333,3.333,0,0,1,1.28.98l-1.26,1.14a2.074,2.074,0,0,0-1.65-.82,2.049,2.049,0,0,0-1.01.25,1.734,1.734,0,0,0-.69.7,2.33,2.33,0,0,0-.005,2.09,1.728,1.728,0,0,0,.7.705,2.034,2.034,0,0,0,1.015.25,2.071,2.071,0,0,0,1.65-.82l1.26,1.14A3.323,3.323,0,0,1,689.2,373.97Z" />
  </g>
</svg>
