<svg xmlns="http://www.w3.org/2000/svg" width="18" height="14.414" viewBox="0 0 18 14.414">
  <g id="Group_11229" data-name="Group 11229" transform="translate(-53.677 -18.811)">
    <path id="Path_8021" data-name="Path 8021" d="M68.653,23.261l0,.005c.4-1.4-1.13-3.152-3.058-2.85a3.055,3.055,0,0,0-1.233.388,4.355,4.355,0,0,0-5.406-1.627,4.711,4.711,0,0,0-2.292,4.047v.05a3.531,3.531,0,0,0,.591,7.019h.783a1.564,1.564,0,0,1,1.422-2.214h1v-2.79a1.57,1.57,0,0,1,1.564-1.574h1.021a1.565,1.565,0,0,1,1.551,1.57v2.8h1.026a1.565,1.565,0,0,1,1.4,2.207h1.091a3.532,3.532,0,0,0,.547-7.027Z" fill="#919191"/>
    <path id="Path_7723-2" data-name="Path 7723-2" d="M65.947,30.014a.515.515,0,0,0,0-.727h0a.517.517,0,0,0-.353-.149H63.532V25.285a.507.507,0,0,0-.5-.512H62.017a.508.508,0,0,0-.506.511h0v3.853H59.455a.513.513,0,0,0-.506.521h0a.517.517,0,0,0,.149.352l3.044,3.059a.533.533,0,0,0,.752,0Z" fill="#6c6c6c"/>
  </g>
</svg>
