<svg xmlns="http://www.w3.org/2000/svg" width="30" height="18.001" viewBox="0 0 30 18.001"><defs><style>.a{fill:#ffa14e;}</style></defs><path class="a" d="M-6969,9724h-26a2,2,0,0,1-2-2v-14a2,2,0,0,1,2-2h26a2,2,0,0,1,2,2v14A2,2,0,0,1-6969,9724Zm-5.82-12.5a4.3,4.3,0,0,0-2.009.464,3.478,3.478,0,0,0-1.391,1.3,3.59,3.59,0,0,0-.5,1.879,3.585,3.585,0,0,0,.5,1.879,3.474,3.474,0,0,0,1.381,1.3,4.181,4.181,0,0,0,1.979.464,5.48,5.48,0,0,0,1.56-.229,4.557,4.557,0,0,0,1.381-.659v-2.9h-1.75v1.921a2.554,2.554,0,0,1-1.071.229,2.043,2.043,0,0,1-1.03-.254,1.827,1.827,0,0,1-.7-.71,2.133,2.133,0,0,1-.249-1.035,1.963,1.963,0,0,1,.549-1.454,1.971,1.971,0,0,1,1.45-.547,2.229,2.229,0,0,1,1.7.781l1.259-1.14a3.359,3.359,0,0,0-1.3-.949A4.466,4.466,0,0,0-6974.821,9711.5Zm-16.3,4.968h0l-1.079,1.281a2.6,2.6,0,0,0,1.03.764,3.609,3.609,0,0,0,1.4.264,2.752,2.752,0,0,0,2.014-.679,2.774,2.774,0,0,0,.686-2.04v-4.419h-4.38v1.529h2.421v3.01a1.12,1.12,0,0,1-.227.759.8.8,0,0,1-.654.261,1.562,1.562,0,0,1-1.21-.729Zm5.391-4.828v7h1.979v-1.831h1.22a4,4,0,0,0,1.65-.314,2.471,2.471,0,0,0,1.081-.9,2.446,2.446,0,0,0,.378-1.369,2.444,2.444,0,0,0-.378-1.374,2.465,2.465,0,0,0-1.081-.9,4,4,0,0,0-1.65-.314Zm3.08,3.609h-1.1V9713.2h1.1a1.373,1.373,0,0,1,.92.271.948.948,0,0,1,.31.759.936.936,0,0,1-.31.754A1.363,1.363,0,0,1-6982.65,9715.25Z" transform="translate(6997 -9706)"/></svg>