<svg xmlns="http://www.w3.org/2000/svg" width="30" height="18.001" viewBox="0 0 30 18.001"><defs><style>.a{fill:#ffa14e;}</style></defs><path class="a" d="M-6969,9724h-26a2,2,0,0,1-2-2v-14a2,2,0,0,1,2-2h26a2,2,0,0,1,2,2v14A2,2,0,0,1-6969,9724Zm-5.03-12.651a4.3,4.3,0,0,0-2.011.464,3.451,3.451,0,0,0-1.389,1.3,3.581,3.581,0,0,0-.5,1.879,3.586,3.586,0,0,0,.5,1.882,3.466,3.466,0,0,0,1.379,1.293,4.179,4.179,0,0,0,1.981.467,5.511,5.511,0,0,0,1.56-.229,4.581,4.581,0,0,0,1.379-.661v-2.9h-1.75v1.918a2.528,2.528,0,0,1-1.069.231,2.039,2.039,0,0,1-1.03-.256,1.773,1.773,0,0,1-.7-.708,2.086,2.086,0,0,1-.251-1.037,1.961,1.961,0,0,1,.551-1.454,1.971,1.971,0,0,1,1.45-.544,2.217,2.217,0,0,1,1.7.78l1.262-1.142a3.4,3.4,0,0,0-1.3-.949A4.511,4.511,0,0,0-6974.03,9711.35Zm-9.659,3.409,0,0,3.088,3.729h1.63v-7h-1.94v3.731l-3.092-3.731h-1.628v7h1.94v-3.731Zm-9.21-3.27v7h1.979v-1.83h1.22a4,4,0,0,0,1.65-.314,2.51,2.51,0,0,0,1.081-.9,2.477,2.477,0,0,0,.378-1.371,2.5,2.5,0,0,0-.378-1.374,2.465,2.465,0,0,0-1.081-.9,4,4,0,0,0-1.65-.314Zm3.08,3.611h-1.1v-2.053h1.1a1.373,1.373,0,0,1,.92.271.962.962,0,0,1,.31.759.954.954,0,0,1-.31.757A1.4,1.4,0,0,1-6989.82,9715.1Z" transform="translate(6997 -9706)"/></svg>