<svg xmlns="http://www.w3.org/2000/svg" width="30" height="18.001" viewBox="0 0 30 18.001"><defs><style>.a{fill:#d63c3c;}</style></defs><path class="a" d="M-6969,9724h-26a2,2,0,0,1-2-2v-14a2,2,0,0,1,2-2h26a2,2,0,0,1,2,2v14A2,2,0,0,1-6969,9724Zm-7.97-12v7h1.979v-2.4h3.092v-1.528h-3.092v-1.542h3.512V9712Zm-8.261,0v7h3.312a4.694,4.694,0,0,0,2.04-.429,3.265,3.265,0,0,0,1.379-1.221,3.457,3.457,0,0,0,.49-1.85,3.443,3.443,0,0,0-.49-1.85,3.264,3.264,0,0,0-1.379-1.223,4.671,4.671,0,0,0-2.04-.43Zm-7.27,0v7h1.981v-1.83h1.22a4,4,0,0,0,1.65-.314,2.455,2.455,0,0,0,1.079-.9,2.446,2.446,0,0,0,.38-1.369,2.484,2.484,0,0,0-.38-1.377,2.455,2.455,0,0,0-1.079-.9,3.994,3.994,0,0,0-1.65-.317Zm10.5,5.42h-1.25v-3.839h1.25a2.041,2.041,0,0,1,1.445.511,1.842,1.842,0,0,1,.544,1.41,1.84,1.84,0,0,1-.544,1.408A2.035,2.035,0,0,1-6982,9717.419Zm-7.419-1.809h-1.1v-2.052h1.1a1.382,1.382,0,0,1,.92.271.966.966,0,0,1,.31.762.942.942,0,0,1-.31.754A1.4,1.4,0,0,1-6989.419,9715.61Z" transform="translate(6997 -9706)"/></svg>