<svg xmlns="http://www.w3.org/2000/svg" width="14.005" height="16" viewBox="0 0 14.005 16">
  <defs>
    <style>
      .a {
        fill: #FFFFFF;
      }
    </style>
  </defs>
  <g transform="translate(0 0)">
    <path class="a"
      d="M32.663,106.988,32,96H44l-.663,10.988a1.469,1.469,0,0,1-1.5,1.333H34.16a1.469,1.469,0,0,1-1.5-1.333Z"
      transform="translate(-31 -92.321)" />
    <path class="a"
      d="M0,2.5v-1A.5.5,0,0,1,.5,1H4.251L4.545.416A.741.741,0,0,1,5.214,0H8.787a.75.75,0,0,1,.672.416L9.753,1H13.5a.5.5,0,0,1,.5.5v1a.5.5,0,0,1-.5.5H.5A.5.5,0,0,1,0,2.5Z"
      transform="translate(0 0)" />
  </g>
</svg>
