<svg xmlns="http://www.w3.org/2000/svg" width="30" height="18.001" viewBox="0 0 30 18.001"><defs><style>.a{fill:#81b064;}</style></defs><path class="a" d="M-6969,9724h-26a2,2,0,0,1-2-2v-14a2,2,0,0,1,2-2h26a2,2,0,0,1,2,2v14A2,2,0,0,1-6969,9724Zm-8.629-7.6h0l-.651,1.459a4.124,4.124,0,0,0,1.3.562,6.54,6.54,0,0,0,1.649.21,4.259,4.259,0,0,0,1.7-.306,2.4,2.4,0,0,0,1.049-.814,1.979,1.979,0,0,0,.349-1.14,1.653,1.653,0,0,0-.383-1.157,2.3,2.3,0,0,0-.91-.617,9.357,9.357,0,0,0-1.325-.366,5.8,5.8,0,0,1-1.03-.29.445.445,0,0,1-.32-.42.523.523,0,0,1,.269-.454,1.642,1.642,0,0,1,.861-.176,4.127,4.127,0,0,1,1.94.539l.61-1.469a4.278,4.278,0,0,0-1.181-.456,6.065,6.065,0,0,0-1.359-.154,4.337,4.337,0,0,0-1.706.3,2.362,2.362,0,0,0-1.044.814,2,2,0,0,0-.351,1.154,1.687,1.687,0,0,0,.38,1.159,2.218,2.218,0,0,0,.911.625,9.4,9.4,0,0,0,1.32.366,5.844,5.844,0,0,1,1.045.3.468.468,0,0,1,.324.444c0,.379-.383.571-1.14.571a4.2,4.2,0,0,1-1.22-.19A4.193,4.193,0,0,1-6977.63,9716.4Zm-10.43-.081h0l1.449,2.171h2.279l-2.6-3.621,2.44-3.38h-2.14l-1.381,2.021-1.4-2.021h-2.23l2.44,3.46-2.55,3.541h2.26l1.429-2.171Zm4.19-4.829v7h5.32v-1.571h-3.341v-5.43Z" transform="translate(6997 -9706)"/></svg>