<svg id="Component_366_1" data-name="Component 366 – 1" xmlns="http://www.w3.org/2000/svg" width="16" height="16" viewBox="0 0 16 16">
  <path id="Path_919" data-name="Path 919" d="M-543.333,3786.034a8,8,0,0,0-8,8,8,8,0,0,0,8,8,8,8,0,0,0,8-8A8,8,0,0,0-543.333,3786.034Zm1.238,12.551a1.238,1.238,0,0,1-1.238,1.238,1.238,1.238,0,0,1-1.238-1.238v-5.068a1.238,1.238,0,0,1,1.238-1.238,1.238,1.238,0,0,1,1.238,1.238Zm-1.238-7.4a1.416,1.416,0,0,1-1.416-1.416,1.416,1.416,0,0,1,1.416-1.416,1.416,1.416,0,0,1,1.416,1.416A1.416,1.416,0,0,1-543.333,3791.19Z" transform="translate(551.333 -3786.034)" fill="#919191"/>
</svg>
