<svg xmlns="http://www.w3.org/2000/svg" width="15.882" height="15" viewBox="0 0 15.882 15">
  <g id="Group_8706" data-name="Group 8706" transform="translate(-655.782 -327.479)">
    <path id="Union_140" data-name="Union 140" d="M659.312,342.479a.883.883,0,0,1-.883-.883v-4.411h10.588V341.6a.883.883,0,0,1-.882.883Zm-.883-11.471v-2.647a.882.882,0,0,1,.883-.882h8.823a.882.882,0,0,1,.882.882v2.647Z" fill="#a9a9a9"/>
    <path id="Path_7738" data-name="Path 7738" d="M670.253,331.008H657.194a1.412,1.412,0,0,0-1.412,1.412h0v6a1.412,1.412,0,0,0,1.412,1.412h1.235v-1.765a.882.882,0,0,1,0-1.765h10.588a.882.882,0,1,1,0,1.765v1.765h1.236a1.412,1.412,0,0,0,1.411-1.412h0v-6A1.412,1.412,0,0,0,670.253,331.008Zm-1.456,3.5H666.74a.63.63,0,0,1,0-1.26H668.8a.63.63,0,0,1,0,1.26Z" fill="#d2d2d1"/>
  </g>
</svg>
