<svg xmlns="http://www.w3.org/2000/svg" width="118.045" height="13.986" viewBox="0 0 118.045 13.986">
  <g id="Group_6231" data-name="Group 6231" transform="translate(-32.677 -722)">
    <g id="Group_2039" data-name="Group 2039" transform="translate(16 712)">
      <g id="Group_1022" data-name="Group 1022" transform="translate(101.611 15.091)">
        <path id="Path_504" data-name="Path 504" d="M5481.951-3089.358l.169-.833h1.667l-1.394,6.288h-1.666l.182-.781a2.37,2.37,0,0,1-1.888.937,2.323,2.323,0,0,1-2.4-2.6c0-1.9,1.185-4,3.32-4a2.359,2.359,0,0,1,2.006.99m-3.594,2.668a1.369,1.369,0,0,0,1.393,1.471,1.877,1.877,0,0,0,1.445-.755l.481-2.174a1.705,1.705,0,0,0-1.471-.73,2.03,2.03,0,0,0-1.849,2.188" transform="translate(-5476.625 3091.656)" fill="#606060"/>
        <path id="Path_505" data-name="Path 505" d="M5525.9-3084.881l.925-1.159a3.2,3.2,0,0,0,2.2.99c.56,0,.911-.3.911-.651,0-.846-3.2-.637-3.2-2.526,0-1.093.912-2.122,2.591-2.122a3.806,3.806,0,0,1,2.669,1.016l-.859,1.106a2.58,2.58,0,0,0-1.849-.82c-.585,0-.912.261-.912.585,0,.769,3.2.6,3.2,2.514,0,1.2-1,2.2-2.72,2.2a4.075,4.075,0,0,1-2.956-1.132" transform="translate(-5518.891 3091.657)" fill="#606060"/>
        <path id="Path_506" data-name="Path 506" d="M5568.316-3084.881l.924-1.159a3.206,3.206,0,0,0,2.2.99c.56,0,.911-.3.911-.651,0-.846-3.2-.637-3.2-2.526,0-1.093.912-2.122,2.592-2.122a3.805,3.805,0,0,1,2.668,1.016l-.858,1.106a2.579,2.579,0,0,0-1.85-.82c-.585,0-.911.261-.911.585,0,.769,3.2.6,3.2,2.514,0,1.2-1,2.2-2.72,2.2a4.071,4.071,0,0,1-2.955-1.132" transform="translate(-5555.272 3091.657)" fill="#606060"/>
        <path id="Path_507" data-name="Path 507" d="M5612.284-3082.961l1.393-6.288h1.653l-1.393,6.288Z" transform="translate(-5592.985 3090.714)" fill="#606060"/>
        <path id="Path_508" data-name="Path 508" d="M5632.645-3084.881l.925-1.159a3.2,3.2,0,0,0,2.2.99c.561,0,.911-.3.911-.651,0-.846-3.2-.637-3.2-2.526,0-1.093.911-2.122,2.59-2.122a3.809,3.809,0,0,1,2.67,1.016l-.86,1.106a2.573,2.573,0,0,0-1.849-.82c-.586,0-.911.261-.911.585,0,.769,3.2.6,3.2,2.514,0,1.2-1,2.2-2.722,2.2a4.074,4.074,0,0,1-2.955-1.132" transform="translate(-5610.449 3091.657)" fill="#606060"/>
        <path id="Path_509" data-name="Path 509" d="M5682.5-3099.486c-.126,0-.252.006-.382.006a12.287,12.287,0,0,1-1.258-.063l-.322,1.464H5679.5l-.326,1.445h1.041l-.7,3.2a2.105,2.105,0,0,0-.053.43c0,.937.754,1.367,1.875,1.367a1.845,1.845,0,0,0,1.029-.274l-.051-1.327a.866.866,0,0,1-.456.129c-.417,0-.612-.208-.612-.546a1.246,1.246,0,0,1,.013-.221l.612-2.76h1.276l.325-1.445h-1.275Z" transform="translate(-5650.358 3099.543)" fill="#606060"/>
      </g>
      <g id="Group_1023" data-name="Group 1023" transform="translate(34.701 10)">
        <path id="Path_510" data-name="Path 510" d="M5551.271-3195.445l-1.86-4.247h-1.478v4.247h-4.084v-13.49h7.2a4.487,4.487,0,0,1,4.854,4.632,4.348,4.348,0,0,1-2.428,4.086l2.447,4.773Zm.485-8.879c0-.728-.646-1.052-1.334-1.052h-2.488v2.124h2.488c.688,0,1.334-.324,1.334-1.073" transform="translate(-5532.451 3208.935)" fill="#5673aa"/>
        <path id="Path_511" data-name="Path 511" d="M5632.108-3201.126v-7.808h4.074v7.669a2.227,2.227,0,0,0,2.483,2.285,2.22,2.22,0,0,0,2.463-2.285v-7.669h4.073v7.788c0,3.3-2.065,5.7-6.536,5.7s-6.557-2.4-6.557-5.682" transform="translate(-5608.154 3208.935)" fill="#5673aa"/>
        <path id="Path_512" data-name="Path 512" d="M5727.771-3203.727c0-4.028,3.09-6.746,7.175-6.746a6.085,6.085,0,0,1,5.926,3.793l-3.4,1.584a2.763,2.763,0,0,0-2.523-1.9,3.118,3.118,0,0,0-3.166,3.265,3.118,3.118,0,0,0,3.166,3.265,2.763,2.763,0,0,0,2.523-1.9l3.4,1.564a6.157,6.157,0,0,1-5.926,3.812c-4.085,0-7.175-2.737-7.175-6.745" transform="translate(-5690.207 3210.473)" fill="#5673aa"/>
        <path id="Path_513" data-name="Path 513" d="M5831.581-3195.445l-3.034-4.753-.748,1.011v3.742h-4.085v-13.49h4.085v5.057l3.54-5.057h5l-5.1,6.27,5.318,7.22Z" transform="translate(-5772.501 3208.936)" fill="#5673aa"/>
        <path id="Path_514" data-name="Path 514" d="M5466.9-3194.959v-9.872h-3.175v-3.538h10.394v3.538h-3.156v9.872Z" transform="translate(-5463.721 3208.45)" fill="#5673aa"/>
      </g>
      <g id="Group_1025" data-name="Group 1025" transform="translate(16.677 10)">
        <path id="Path_515" data-name="Path 515" d="M5286.573-3208.935h-7.965l6.97,7.06-6.837,6.927h7.965l6.838-6.927Z" transform="translate(-5278.608 3208.935)" fill="#606060"/>
        <path id="Path_516" data-name="Path 516" d="M5354.128-3125.653l4.044,3.92-4.754-3.211Z" transform="translate(-5347.158 3132.749)" fill="#161616"/>
        <path id="Path_517" data-name="Path 517" d="M5289.628-3197.87l3.916-3.98-6.971-7.084h-7.965l6.97,7.084v0l0,0Z" transform="translate(-5278.608 3208.935)" fill="#5673aa"/>
      </g>
    </g>
  </g>
</svg>
