<svg id="Component_4682_25" data-name="Component 4682 – 25" xmlns="http://www.w3.org/2000/svg" width="32" height="32" viewBox="0 0 32 32">
  <rect id="Rectangle_6258" data-name="Rectangle 6258" width="32" height="32" rx="3" fill="#fff"/>
  <path id="globe" d="M12.212,13.516C11.685,10.275,10.444,8,9,8s-2.685,2.275-3.212,5.516ZM5.516,17a22.747,22.747,0,0,0,.12,2.323H12.36A22.747,22.747,0,0,0,12.48,17a22.747,22.747,0,0,0-.12-2.323H5.636A22.747,22.747,0,0,0,5.516,17ZM17.3,13.516a9.019,9.019,0,0,0-5.734-5.139,12.248,12.248,0,0,1,1.815,5.139ZM6.431,8.377A9.013,9.013,0,0,0,.7,13.516H4.62A12.2,12.2,0,0,1,6.431,8.377Zm11.257,6.3H13.525c.076.762.12,1.542.12,2.323s-.044,1.56-.12,2.323h4.159A8.922,8.922,0,0,0,18,17,9.078,9.078,0,0,0,17.688,14.677ZM4.355,17c0-.78.044-1.56.12-2.323H.312a8.8,8.8,0,0,0,0,4.645H4.471C4.4,18.56,4.355,17.78,4.355,17Zm1.433,3.484C6.315,23.725,7.556,26,9,26s2.685-2.275,3.212-5.516Zm5.781,5.139A9.028,9.028,0,0,0,17.3,20.484H13.384A12.248,12.248,0,0,1,11.569,25.623ZM.7,20.484a9.019,9.019,0,0,0,5.734,5.139A12.248,12.248,0,0,1,4.62,20.484H.7Z" transform="translate(7 -1)" fill="#dadada"/>
</svg>
