<svg id="Component_4682_23" data-name="Component 4682 – 23" xmlns="http://www.w3.org/2000/svg" width="32" height="32" viewBox="0 0 32 32">
  <rect id="Rectangle_6258" data-name="Rectangle 6258" width="32" height="32" rx="3" fill="#fff"/>
  <path id="traffic-light" d="M14,6.75H11.667V5.418A3.376,3.376,0,0,0,14,2.25H11.667V1.125A1.147,1.147,0,0,0,10.5,0h-7A1.147,1.147,0,0,0,2.333,1.125V2.25H0A3.376,3.376,0,0,0,2.333,5.418V6.75H0A3.376,3.376,0,0,0,2.333,9.918V11.25H0a3.38,3.38,0,0,0,2.442,3.2A4.629,4.629,0,0,0,7,18a4.629,4.629,0,0,0,4.558-3.549A3.38,3.38,0,0,0,14,11.25H11.667V9.918A3.376,3.376,0,0,0,14,6.75ZM7,14.625a1.689,1.689,0,1,1,1.75-1.687A1.72,1.72,0,0,1,7,14.625Zm0-4.5A1.689,1.689,0,1,1,8.75,8.438,1.72,1.72,0,0,1,7,10.125Zm0-4.5A1.72,1.72,0,0,1,5.25,3.938a1.751,1.751,0,0,1,3.5,0A1.72,1.72,0,0,1,7,5.625Z" transform="translate(9 7)" fill="#dadada"/>
</svg>
