<svg xmlns="http://www.w3.org/2000/svg" xmlns:xlink="http://www.w3.org/1999/xlink" width="98" height="31.998" viewBox="0 0 98 31.998">
  <defs>
    <linearGradient id="linear-gradient" x1="0.5" x2="0.5" y2="1" gradientUnits="objectBoundingBox">
      <stop offset="0" stop-color="#5673aa"/>
      <stop offset="1" stop-color="#2b3a55"/>
    </linearGradient>
    <linearGradient id="linear-gradient-2" x2="0.146" y2="1.106" xlink:href="#linear-gradient"/>
  </defs>
  <g id="Group_31785" data-name="Group 31785" transform="translate(-241.009 -457.847)">
    <path id="Path_11668" data-name="Path 11668" d="M2.788.249h3.15v-6.9H8.675V-9.094H.052v2.443H2.788Zm12.294,0h3.364L16.484-2.634A3.129,3.129,0,0,0,18.246-5.57c0-2.162-1.655-3.524-4.258-3.524h-4.5V.249h3.15V-2.1h.854Zm-.013-5.82c0,.681-.414,1.095-1.281,1.095H12.639V-6.665h1.148C14.655-6.665,15.069-6.251,15.069-5.57ZM23.905.463c2.87,0,4.552-1.615,4.552-4.418V-9.094h-3.1v5.046c0,1.428-.547,1.962-1.428,1.962S22.5-2.62,22.5-4.049V-9.094h-3.15v5.139C19.354-1.152,21.036.463,23.905.463Zm10.825,0a5.048,5.048,0,0,0,4.191-1.869L36.933-3.181a2.524,2.524,0,0,1-2.042,1.095A2.13,2.13,0,0,1,32.7-4.423a2.13,2.13,0,0,1,2.189-2.336,2.524,2.524,0,0,1,2.042,1.095l1.989-1.775a5.048,5.048,0,0,0-4.191-1.869,4.872,4.872,0,0,0-5.206,4.885A4.872,4.872,0,0,0,34.731.463ZM45.97.249h3.644L45.69-4.983l3.738-4.111H46L42.927-5.7v-3.39h-3.1V.249h3.1V-2.06l.707-.788Z" transform="translate(264.933 469.318)" fill="#5673aa"/>
    <g id="Group_26111" data-name="Group 26111" transform="translate(274.358 469.184)">
      <path id="Path_11614" data-name="Path 11614" d="M31.02-3.832a11.806,11.806,0,0,1-3.85-.617,7.21,7.21,0,0,1-2.81-1.624l.52-.845a8.663,8.663,0,0,0,2.68,1.527,9.835,9.835,0,0,0,3.492.617A7,7,0,0,0,35.081-5.7a2.992,2.992,0,0,0,1.3-2.583,2.469,2.469,0,0,0-.7-1.852,4.258,4.258,0,0,0-1.738-1.007,25.06,25.06,0,0,0-2.794-.65,26.286,26.286,0,0,1-3.265-.8A4.864,4.864,0,0,1,25.822-13.9a3.582,3.582,0,0,1-.845-2.534,3.967,3.967,0,0,1,1.576-3.2,7.134,7.134,0,0,1,4.6-1.283,10.737,10.737,0,0,1,3.119.471A7.487,7.487,0,0,1,36.8-19.2l-.552.845a7.194,7.194,0,0,0-2.355-1.186,9.579,9.579,0,0,0-2.778-.406,6.2,6.2,0,0,0-3.768.958,3.008,3.008,0,0,0-1.267,2.518A2.634,2.634,0,0,0,26.8-14.52a4.347,4.347,0,0,0,1.771,1.056,26.216,26.216,0,0,0,2.875.7A23.284,23.284,0,0,1,34.593-12a4.9,4.9,0,0,1,2.03,1.283,3.407,3.407,0,0,1,.828,2.436A3.808,3.808,0,0,1,35.8-5.034,8.056,8.056,0,0,1,31.02-3.832Zm15.269,0a11.806,11.806,0,0,1-3.85-.617,7.21,7.21,0,0,1-2.81-1.624l.52-.845a8.663,8.663,0,0,0,2.68,1.527,9.835,9.835,0,0,0,3.492.617A7,7,0,0,0,50.349-5.7a2.992,2.992,0,0,0,1.3-2.583,2.469,2.469,0,0,0-.7-1.852,4.258,4.258,0,0,0-1.738-1.007,25.059,25.059,0,0,0-2.794-.65,26.286,26.286,0,0,1-3.265-.8A4.864,4.864,0,0,1,41.091-13.9a3.582,3.582,0,0,1-.845-2.534,3.967,3.967,0,0,1,1.576-3.2,7.134,7.134,0,0,1,4.6-1.283,10.736,10.736,0,0,1,3.119.471A7.487,7.487,0,0,1,52.071-19.2l-.552.845a7.194,7.194,0,0,0-2.355-1.186,9.579,9.579,0,0,0-2.778-.406,6.2,6.2,0,0,0-3.768.958,3.008,3.008,0,0,0-1.267,2.518,2.634,2.634,0,0,0,.715,1.949,4.347,4.347,0,0,0,1.771,1.056,26.216,26.216,0,0,0,2.875.7A23.284,23.284,0,0,1,49.862-12a4.9,4.9,0,0,1,2.03,1.283,3.407,3.407,0,0,1,.828,2.436,3.808,3.808,0,0,1-1.657,3.249A8.056,8.056,0,0,1,46.289-3.832Zm23.553,0a11.806,11.806,0,0,1-3.85-.617,7.21,7.21,0,0,1-2.81-1.624l.52-.845a8.663,8.663,0,0,0,2.68,1.527,9.835,9.835,0,0,0,3.492.617A7,7,0,0,0,73.9-5.7a2.992,2.992,0,0,0,1.3-2.583,2.469,2.469,0,0,0-.7-1.852,4.258,4.258,0,0,0-1.738-1.007,25.059,25.059,0,0,0-2.794-.65,26.287,26.287,0,0,1-3.265-.8A4.864,4.864,0,0,1,64.644-13.9a3.582,3.582,0,0,1-.845-2.534,3.967,3.967,0,0,1,1.576-3.2,7.134,7.134,0,0,1,4.6-1.283,10.737,10.737,0,0,1,3.119.471A7.487,7.487,0,0,1,75.624-19.2l-.552.845a7.194,7.194,0,0,0-2.355-1.186,9.579,9.579,0,0,0-2.778-.406,6.2,6.2,0,0,0-3.768.958A3.008,3.008,0,0,0,64.9-16.469a2.634,2.634,0,0,0,.715,1.949,4.347,4.347,0,0,0,1.771,1.056,26.216,26.216,0,0,0,2.875.7A23.284,23.284,0,0,1,73.415-12a4.9,4.9,0,0,1,2.03,1.283,3.407,3.407,0,0,1,.828,2.436,3.808,3.808,0,0,1-1.657,3.249A8.056,8.056,0,0,1,69.841-3.832Z" transform="translate(-24.36 24.494)" fill="#b2b2b2"/>
      <path id="Path_11615" data-name="Path 11615" d="M96.651-21.617h1.072v16.86H96.651ZM128.163-5.828a4.022,4.022,0,0,1-1.494.861,5.825,5.825,0,0,1-1.884.309,4.214,4.214,0,0,1-3.167-1.153A4.352,4.352,0,0,1,120.5-8.98V-20.675h-3.184v-.942H120.5v-3.7h1.072v3.7h5.555v.942h-5.555V-9.142a3.731,3.731,0,0,0,.845,2.631,3.205,3.205,0,0,0,2.469.91,3.9,3.9,0,0,0,2.729-1.007Z" transform="translate(-63.513 25.32)" fill="#b2b2b2"/>
    </g>
    <g id="Group_26112" data-name="Group 26112" transform="translate(241.009 457.847)">
      <path id="Path_11665" data-name="Path 11665" d="M2212.67,1193.21a5.763,5.763,0,0,0-7.895-2.1l-18.282,10.665h11.649l4.66-2.719a3.117,3.117,0,0,1,4.271,1.134l.916,1.585h9.629Z" transform="translate(-2186.493 -1169.939)" fill="url(#linear-gradient)"/>
      <path id="Path_11666" data-name="Path 11666" d="M2217.24,1196.053c5.822-3.4,8.761,0,11.68,5.725h9.629l-4.948-8.569a5.763,5.763,0,0,0-7.895-2.1Z" transform="translate(-2207.425 -1169.939)" fill="#5673aa"/>
      <path id="Path_11667" data-name="Path 11667" d="M2206.644,1141.1c.056-.077.108-.156.16-.235s.09-.134.131-.2.083-.152.124-.228a5.645,5.645,0,0,0,.249-.525c.018-.044.039-.087.055-.131.041-.107.076-.217.11-.326.016-.049.033-.1.047-.148.033-.113.06-.227.085-.342.01-.046.021-.091.029-.137.024-.121.044-.242.06-.364,0-.036.008-.073.013-.109.015-.133.027-.265.032-.4,0-.014,0-.029,0-.044a5.728,5.728,0,0,0-.242-1.866h0a5.738,5.738,0,0,0-.521-1.215l-4.832-8.37-12.027,20.83h0l-1.505,2.608-.525.908v0l-1.469,2.543,18.269-10.658c.16-.093.314-.195.461-.3.049-.035.094-.073.142-.11.1-.073.19-.148.28-.226.054-.047.1-.1.157-.144.078-.073.154-.147.227-.224.052-.055.1-.11.153-.167.066-.075.13-.152.191-.23C2206.55,1141.224,2206.6,1141.164,2206.644,1141.1Z" transform="translate(-2186.58 -1126.458)" fill="url(#linear-gradient-2)"/>
    </g>
  </g>
</svg>
