<?xml version="1.0" encoding="utf-8"?>
<!-- Generator: Adobe Illustrator 24.2.1, SVG Export Plug-In . SVG Version: 6.00 Build 0)  -->
<svg version="1.1" id="Layer_1" xmlns="http://www.w3.org/2000/svg" xmlns:xlink="http://www.w3.org/1999/xlink" x="0px" y="0px"
	 viewBox="0 0 307.8 36" style="enable-background:new 0 0 307.8 36;" xml:space="preserve">
<style type="text/css">
	.st0{fill:#606060;}
	.st1{fill:#28529F;}
	.st2{fill:#161616;}
</style>
<g id="Group_414" transform="translate(5495.09 -3369.689)">
	<path id="Path_193" class="st0" d="M-5260.3,3391l0.4-2.2h4.4l-3.7,16.5h-4.4l0.5-2.1c-1.2,1.6-3,2.5-5,2.5c-3.7,0-6.3-2.5-6.3-6.8
		c0-5,3.1-10.5,8.7-10.5C-5263.5,3388.3-5261.5,3389.3-5260.3,3391 M-5269.8,3398c-0.1,2,1.3,3.7,3.3,3.9c0.1,0,0.2,0,0.3,0
		c1.5,0,2.9-0.8,3.8-2l1.3-5.7c-0.9-1.3-2.3-2-3.9-1.9C-5267.8,3392.2-5269.8,3394.9-5269.8,3398"/>
	<path id="Path_194" class="st0" d="M-5255.9,3402.7l2.4-3c1.5,1.6,3.6,2.5,5.8,2.6c1.5,0,2.4-0.8,2.4-1.7c0-2.2-8.4-1.7-8.4-6.6
		c0-2.9,2.4-5.6,6.8-5.6c2.6-0.1,5.1,0.9,7,2.7l-2.3,2.9c-1.3-1.4-3-2.1-4.9-2.2c-1.5,0-2.4,0.7-2.4,1.5c0,2,8.4,1.6,8.4,6.6
		c0,3.1-2.6,5.8-7.1,5.8C-5251,3405.8-5253.8,3404.7-5255.9,3402.7"/>
	<path id="Path_195" class="st0" d="M-5240.1,3402.7l2.4-3c1.5,1.6,3.6,2.5,5.8,2.6c1.5,0,2.4-0.8,2.4-1.7c0-2.2-8.4-1.7-8.4-6.6
		c0-2.9,2.4-5.6,6.8-5.6c2.6-0.1,5.1,0.9,7,2.7l-2.3,2.9c-1.3-1.4-3-2.1-4.9-2.2c-1.5,0-2.4,0.7-2.4,1.5c0,2,8.4,1.6,8.4,6.6
		c0,3.1-2.6,5.8-7.1,5.8C-5235.2,3405.8-5238,3404.7-5240.1,3402.7"/>
	<path id="Path_196" class="st0" d="M-5223.6,3405.3l3.7-16.5h4.3l-3.7,16.5H-5223.6z"/>
	<path id="Path_197" class="st0" d="M-5216,3402.7l2.4-3c1.5,1.6,3.6,2.5,5.8,2.6c1.5,0,2.4-0.8,2.4-1.7c0-2.2-8.4-1.7-8.4-6.6
		c0-2.9,2.4-5.6,6.8-5.6c2.6-0.1,5.1,0.9,7,2.7l-2.3,2.9c-1.3-1.4-3-2.1-4.9-2.2c-1.5,0-2.4,0.7-2.4,1.5c0,2,8.4,1.6,8.4,6.6
		c0,3.1-2.6,5.8-7.1,5.8C-5211.1,3405.8-5213.9,3404.7-5216,3402.7"/>
	<path id="Path_198" class="st0" d="M-5189.9,3385.1c-0.3,0-0.7,0-1,0c-1.1,0-2.2-0.1-3.3-0.2l-0.8,3.8h-2.7l-0.9,3.8h2.7l-1.8,8.4
		c-0.1,0.4-0.1,0.7-0.1,1.1c0,2.5,2,3.6,4.9,3.6c1,0,1.9-0.2,2.7-0.7l-0.1-3.5c-0.4,0.2-0.8,0.3-1.2,0.3c-1.1,0-1.6-0.5-1.6-1.4
		c0-0.2,0-0.4,0-0.6l1.6-7.3h3.4l0.9-3.8h-3.4L-5189.9,3385.1z"/>
</g>
<path id="Path_199" class="st1" d="M94.6,36l-5-11.3h-3.9V36H74.8V0H94c8.4,0,13,5.6,13,12.4c0.2,4.6-2.4,8.9-6.5,10.9l6.5,12.7
	L94.6,36z M95.9,12.3c0-1.9-1.7-2.8-3.6-2.8h-6.6v5.7h6.6C94.2,15.2,95.9,14.3,95.9,12.3"/>
<path id="Path_200" class="st1" d="M109.8,20.8V0h10.9v20.5c0,3.4,2.2,6.1,6.6,6.1c4.3,0,6.6-2.7,6.6-6.1V0h10.9v20.8
	c0,8.8-5.5,15.2-17.5,15.2C115.4,36,109.8,29.6,109.8,20.8"/>
<path id="Path_201" class="st1" d="M147.2,18c0-10.7,8.2-18,19.2-18c9.1,0,13.7,5.3,15.8,10.1l-9.1,4.2c-1-2.9-3.7-4.9-6.7-5.1
	c-5.1,0-8.5,3.9-8.5,8.7s3.4,8.7,8.5,8.7c3.1-0.1,5.8-2.1,6.7-5.1l9.1,4.2c-2.6,6.4-8.9,10.4-15.8,10.2
	C155.5,36,147.2,28.7,147.2,18"/>
<path id="Path_202" class="st1" d="M206,36l-8.1-12.7l-2,2.7v10H185V0h10.9v13.5L205.3,0h13.3l-13.6,16.7L219.3,36H206z"/>
<path id="Path_203" class="st1" d="M51.1,36V9.5h-8.5V0h27.9v9.5H62V36H51.1z"/>
<g id="Group_417" transform="translate(5282.221 -3383.008)">
	<path id="Path_204" class="st0" d="M-5261.4,3383h-20.8l18.2,18.2l-17.8,17.8h20.8l17.8-17.8L-5261.4,3383z"/>
	<path id="Path_205" class="st2" d="M-5264,3401.2l10.6,10.2l-12.4-8.4L-5264,3401.2z"/>
	<path id="Path_206" class="st1" d="M-5253.5,3411.4l10.2-10.2l-18.2-18.2h-20.8l18.2,18.2l0,0l0,0L-5253.5,3411.4z"/>
</g>
</svg>
