<svg xmlns="http://www.w3.org/2000/svg" width="46" height="44" viewBox="0 0 46 44">
  <g id="S" transform="translate(-440 -1155)">
    <path id="Path_2989" data-name="Path 2989" d="M564.235,956.129a21.725,21.725,0,0,0-42.947-2.334c-1.316,6.555-2.952,26.41-2.952,26.41s19.748.376,26.372-.259A21.8,21.8,0,0,0,564.235,956.129Z" transform="translate(-78.336 218.685)" fill="#5673aa"/>
    <path id="Path_2991" data-name="Path 2991" d="M703.859,377.981a18,18,0,1,1-24.584-6.588h0A18,18,0,0,1,703.859,377.981Z" transform="translate(-224.273 790.021)" fill="#fff"/>
    <path id="Path_5834" data-name="Path 5834" d="M14.41.827l-2.037,9.946a2.061,2.061,0,0,1-1.608,1.606L.83,14.4c-1.284.264-1.015,2.164.369,2.621l20.935,6.9a1.413,1.413,0,0,0,1.792-1.79L17.032,1.2C16.577-.185,14.67-.452,14.41.827Z" transform="translate(464 1157.03) rotate(45)" fill="#5673aa"/>
  </g>
</svg>
