<svg xmlns="http://www.w3.org/2000/svg" width="22" height="22" viewBox="0 0 22 22">
  <g id="Group_35845" data-name="Group 35845" transform="translate(-22285 19816)" opacity="0.7">
    <g id="Group_35438" data-name="Group 35438" transform="translate(22285 -19816)">
      <rect id="Rectangle_16702" data-name="Rectangle 16702" width="22" height="22" rx="2" transform="translate(0 0)" fill="#dadada"/>
    </g>
    <g id="Group_35437" data-name="Group 35437" transform="translate(22288.143 -19813.643)">
      <path id="Subtraction_122" data-name="Subtraction 122" d="M689.308,390.622l-1,.106-1.554-14.717,1-.106a2.014,2.014,0,0,1,.748.06.338.338,0,0,0-.043.2l.07.665-.836.089a.5.5,0,0,0,.105,1l.837-.089.07.665-.5.053a.5.5,0,0,0,.105,1l.5-.053.07.67-.836.089a.5.5,0,0,0,.105,1l.837-.089.07.665-.5.053a.5.5,0,0,0,.105,1l.5-.053.07.665-.837.089a.5.5,0,0,0,.105,1l.836-.089.07.665-.5.053a.5.5,0,0,0,.105,1l.5-.053.07.665-.836.089a.5.5,0,1,0,.105,1l.836-.089.07.665-.5.053a.5.5,0,0,0,.105,1l.5-.053.07.665a.335.335,0,0,0,.085.19A2.02,2.02,0,0,1,689.308,390.622Zm-1.673.177-1,.105a1.994,1.994,0,0,1-.747-.06.332.332,0,0,0,.043-.2l-.07-.665.5-.053a.5.5,0,1,0-.105-1l-.5.053-.07-.665.836-.089a.5.5,0,0,0-.105-1l-.837.089-.07-.665.5-.053a.5.5,0,0,0-.105-1l-.5.053-.07-.665.836-.089a.5.5,0,1,0-.105-1l-.836.089-.07-.665.5-.053a.5.5,0,1,0-.105-1l-.5.053-.07-.665.836-.089a.5.5,0,0,0-.105-1l-.836.089-.071-.67.5-.053a.5.5,0,0,0-.105-1l-.5.053-.07-.665.836-.089a.5.5,0,1,0-.105-1l-.836.089-.07-.665a.334.334,0,0,0-.084-.19,2.018,2.018,0,0,1,.718-.216l1-.105,1.553,14.717Zm-2.4-.265h0a2.025,2.025,0,0,1-.823-1.426l-1.129-10.7a2.018,2.018,0,0,1,.507-1.567Zm5.353-.565-1.445-13.7a2.023,2.023,0,0,1,.823,1.426l1.129,10.7a2.015,2.015,0,0,1-.507,1.567Z" transform="translate(-675.806 -373.63)" fill="#707070"/>
      <path id="Path_23104" data-name="Path 23104" d="M683.094,386.908h0a2.019,2.019,0,0,1-.4-3.786l.4,3.785Z" transform="translate(-675.522 -374.818)" fill="#707070"/>
      <path id="Path_23111" data-name="Path 23111" d="M679.378,384.529l2.051-.216.212,2.007-2.052.216Z" transform="translate(-675.166 -375.014)" fill="#707070"/>
      <path id="Subtraction_124" data-name="Subtraction 124" d="M677.831,383.272a6.45,6.45,0,0,1-.872-.013.642.642,0,0,0,.562-.53l.445-2.626.3.047a.333.333,0,0,1,.28.381v0l-.391,2.456C678.124,383.168,678.073,383.246,677.831,383.272Zm-1.072-.025h0l-.206-.012h-.01l-.465-.027.472-2.992a.335.335,0,0,1,.3-.283.32.32,0,0,1,.084,0l.368.058-.543,3.252Z" transform="translate(-674.623 -374.294)" fill="#707070"/>
      <path id="Path_23092" data-name="Path 23092" d="M677.275,376.128l.421-2.661a.335.335,0,0,1,.383-.278l1.331.211a.336.336,0,0,1,.278.383h0l-.421,2.661a.333.333,0,0,1-.382.277h0l-1.332-.211A.334.334,0,0,1,677.275,376.128Z" transform="translate(-674.82 -373.185)" fill="#707070"/>
      <path id="Path_23090" data-name="Path 23090" d="M676.463,378.839a.335.335,0,0,1,.383-.278l2,.316a.334.334,0,1,1-.1.66h0l-2-.315A.334.334,0,0,1,676.463,378.839Z" transform="translate(-674.686 -374.068)" fill="#707070"/>
      <path id="Path_23091" data-name="Path 23091" d="M676.633,377.882a.334.334,0,0,1,.383-.278l2,.315a.335.335,0,1,1-.1.661l-2-.315A.336.336,0,0,1,676.633,377.882Z" transform="translate(-674.714 -373.911)" fill="#707070"/>
      <path id="Subtraction_123" data-name="Subtraction 123" d="M676.938,387.9a2.355,2.355,0,1,1,2.095-2.589A2.357,2.357,0,0,1,676.938,387.9Zm-.424-4.015a1.681,1.681,0,1,0,1.849,1.5A1.683,1.683,0,0,0,676.515,383.886Z" transform="translate(-674.337 -374.832)" fill="#707070"/>
      <path id="Path_23112" data-name="Path 23112" d="M676.85,384.819a1.009,1.009,0,1,1-.9,1.11h0A1.01,1.01,0,0,1,676.85,384.819Z" transform="translate(-674.602 -375.096)" fill="#707070"/>
    </g>
  </g>
</svg>
