<svg xmlns="http://www.w3.org/2000/svg" width="22" height="22" viewBox="0 0 22 22">
  <g id="Group_35841" data-name="Group 35841" transform="translate(-29 -1483)" opacity="0.7">
    <rect id="Rectangle_16701" data-name="Rectangle 16701" width="22" height="22" rx="2" transform="translate(29 1483)" fill="#dadada"/>
    <g id="Group_35196" data-name="Group 35196" transform="translate(30.728 1486.693)">
      <g id="Path_13425" data-name="Path 13425" transform="translate(1.827 1.827)">
        <path id="Path_13426" data-name="Path 13426" d="M664.24,367.022a3.289,3.289,0,1,1-3.289,3.289A3.289,3.289,0,0,1,664.24,367.022Z" transform="translate(-660.951 -367.022)" fill="#6c6c6c"/>
      </g>
      <g id="Path_13422" data-name="Path 13422" transform="translate(13.412 9.027)">
        <path id="Path_13427" data-name="Path 13427" d="M698.778,391.022a1.827,1.827,0,1,1-1.827,1.827A1.827,1.827,0,0,1,698.778,391.022Z" transform="translate(-696.951 -391.022)" fill="#6c6c6c"/>
      </g>
      <g id="Path_13423" data-name="Path 13423" transform="translate(0 0)">
        <g id="Group_35198" data-name="Group 35198" transform="translate(0 0)">
          <path id="Path_13429" data-name="Path 13429" d="M661.067,363.118a4.02,4.02,0,1,0,2.843,1.177,3.993,3.993,0,0,0-2.843-1.177m0-1.1a5.116,5.116,0,1,1-5.116,5.116A5.116,5.116,0,0,1,661.067,362.022Z" transform="translate(-655.951 -362.022)" fill="#6c6c6c"/>
        </g>
      </g>
      <g id="Path_13424" data-name="Path 13424" transform="translate(11.95 7.565)">
        <g id="Group_35200" data-name="Group 35200" transform="translate(0 0)">
          <path id="Path_13431" data-name="Path 13431" d="M696.24,387.753a2.558,2.558,0,1,0,2.558,2.558,2.561,2.561,0,0,0-2.558-2.558m0-.731a3.289,3.289,0,1,1-3.289,3.289A3.289,3.289,0,0,1,696.24,387.022Z" transform="translate(-692.951 -387.022)" fill="#6c6c6c"/>
        </g>
      </g>
      <g id="Path_13420" data-name="Path 13420" transform="translate(3.016 8.432)">
        <path id="Path_13432" data-name="Path 13432" d="M0,0H.731l.705,11.907-.66.03Z" transform="translate(0 1.308) rotate(-65.561)" fill="#6c6c6c"/>
      </g>
      <g id="Path_13421" data-name="Path 13421" transform="translate(7.818 0.843)">
        <path id="Path_13433" data-name="Path 13433" d="M0,0H.731l.343,11.321L.36,11.315Z" transform="matrix(0.648, -0.762, 0.762, 0.648, 0, 0.818)" fill="#6c6c6c"/>
      </g>
    </g>
  </g>
</svg>
