<svg xmlns="http://www.w3.org/2000/svg" width="22" height="22" viewBox="0 0 22 22">
  <g id="Group_35832" data-name="Group 35832" transform="translate(-28 -1297)" opacity="0.7">
    <rect id="Rectangle_16707" data-name="Rectangle 16707" width="22" height="22" rx="2" transform="translate(28 1297)" fill="#dadada"/>
    <g id="_000000ff" data-name="#000000ff" transform="translate(30.279 1300.142)">
      <path id="Path_13467" data-name="Path 13467" d="M35.747,80.435a.63.63,0,0,1,.641-.465q3.412,0,6.825,0a.625.625,0,0,1,.566.366,1.019,1.019,0,0,1,.056.451c0,.17.007.341-.007.511a.626.626,0,0,1-.616.542c-.832.005-1.664,0-2.5,0,0,.416,0,.831,0,1.247.819,0,1.637,0,2.455,0a1.247,1.247,0,0,1,1.284,1.248c0,.415,0,.831,0,1.246.624,0,1.247,0,1.871,0q0-.937,0-1.875a.622.622,0,0,1,.391-.575,1.094,1.094,0,0,1,.427-.046,3.853,3.853,0,0,1,.856.05,1.882,1.882,0,0,1,1.265,1.025,1.973,1.973,0,0,1,.181.874c0,1.69,0,3.379,0,5.069a3.5,3.5,0,0,1-.071.972,1.876,1.876,0,0,1-1.257,1.284,4.078,4.078,0,0,1-1.169.081.629.629,0,0,1-.622-.622c0-.624,0-1.248,0-1.872-.623,0-1.247,0-1.87,0,0,.61,0,1.22,0,1.831a1.271,1.271,0,0,1-.226.754,1.251,1.251,0,0,1-1.021.532c-1.6,0-3.2,0-4.8,0a2.531,2.531,0,0,1-.663-.042,1.28,1.28,0,0,1-.526-.285c-.568-.5-1.14-.995-1.707-1.5A1.252,1.252,0,0,1,35.1,90.3c0-.533,0-1.066,0-1.6-.416,0-.831,0-1.246,0,0,.624.005,1.247,0,1.871a.63.63,0,0,1-.339.554,1.28,1.28,0,0,1-.592.071,1.39,1.39,0,0,1-.574-.059.624.624,0,0,1-.364-.563c0-1.872,0-3.744,0-5.616a.624.624,0,0,1,.583-.622c.235-.007.47-.006.705,0a.625.625,0,0,1,.582.618c0,.624,0,1.248,0,1.872q.623,0,1.246,0c0-.858-.007-1.716,0-2.573a1.249,1.249,0,0,1,1.163-1.165c.858-.011,1.717,0,2.574,0q0-.623,0-1.246c-.832,0-1.664,0-2.5,0a.632.632,0,0,1-.622-.659,5.934,5.934,0,0,1,.022-.745" transform="translate(-31.984 -79.968)" fill="#6c6c6c"/>
      <path id="Path_13468" data-name="Path 13468" d="M124.469,56.128c.549-.939,1.132-1.858,1.756-2.748.489.695.95,1.41,1.394,2.134.412.683.809,1.375,1.164,2.089a10.714,10.714,0,0,1,.875,2.262,3.444,3.444,0,0,1-.978,3.219,3.518,3.518,0,0,1-5.965-2.742,5.925,5.925,0,0,1,.394-1.481A20.266,20.266,0,0,1,124.469,56.128Z" transform="translate(-118.381 -48.368)" fill="#6c6c6c" stroke="#dadada" stroke-width="1"/>
    </g>
  </g>
</svg>
