<svg xmlns="http://www.w3.org/2000/svg" width="22" height="22" viewBox="0 0 22 22">
  <g id="Group_35846" data-name="Group 35846" transform="translate(-241 -1465)" opacity="0.7">
    <g id="Group_35814" data-name="Group 35814" transform="translate(212 -49)">
      <g id="Group_35815" data-name="Group 35815">
        <rect id="Rectangle_16702" data-name="Rectangle 16702" width="22" height="22" rx="2" transform="translate(29 1514)" fill="#dadada"/>
        <g id="Group_35201" data-name="Group 35201" transform="translate(33.605 1518.519)">
          <g id="_020304ff" data-name="#020304ff">
            <path id="Path_13436" data-name="Path 13436" d="M105.733,41.045a6.407,6.407,0,0,1,10.313.557,6.4,6.4,0,0,1,.036,6.907c-.263.316-.733-.16-.434-.451a5.776,5.776,0,0,0-8.742-7.333,5.937,5.937,0,0,0-1.522,2.041l-.334,1.019a6.008,6.008,0,0,0,.818,4.56c-.123.191-.383.369-.579.174A6.4,6.4,0,0,1,105.733,41.045Z" transform="translate(-104.291 -38.703)" fill="#707070"/>
            <path id="Path_13437" data-name="Path 13437" d="M146.81,52.231c.137-.353.564-.64.9-.349a.541.541,0,0,1-.33.968C147.025,52.88,146.881,52.515,146.81,52.231Z" transform="translate(-140.994 -49.976)" fill="#707070"/>
            <path id="Path_13438" data-name="Path 13438" d="M144.453,59.783c.547-.945,1.087-1.9,1.665-2.823-.265,1.063-.6,2.106-.873,3.168A1.081,1.081,0,0,1,145,61.74a1.039,1.039,0,0,1-1.559-.925A1.127,1.127,0,0,1,144.453,59.783Z" transform="translate(-138.083 -54.463)" fill="#707070"/>
            <path id="Path_13439" data-name="Path 13439" d="M126.438,61.535a.564.564,0,0,1-.007-.945c.264-.175.551,0,.776.152.011.223.1.491-.089.666C126.973,61.642,126.663,61.587,126.438,61.535Z" transform="translate(-123.184 -57.533)" fill="#707070"/>
            <path id="Path_13440" data-name="Path 13440" d="M168.153,61.29a.557.557,0,0,1,.535-.885.557.557,0,1,1-.535.885Z" transform="translate(-159.315 -57.426)" fill="#707070"/>
            <path id="Path_13441" data-name="Path 13441" d="M117.693,81.535a.536.536,0,0,1,.822.536.53.53,0,0,1-.841.352A.538.538,0,0,1,117.693,81.535Z" transform="translate(-115.65 -75.599)" fill="#707070"/>
            <path id="Path_13442" data-name="Path 13442" d="M176.979,81.569a.524.524,0,0,1,.812.227.536.536,0,1,1-.812-.227Z" transform="translate(-166.847 -75.611)" fill="#707070"/>
            <path id="Path_13443" data-name="Path 13443" d="M125,110.6l.186-.109c2.188,0,4.38-.015,6.568.007.393-.063.369.6.021.6-2.152.014-4.3.007-6.456,0C125.045,111.176,124.765,110.8,125,110.6Z" transform="translate(-122.091 -100.665)" fill="#707070"/>
            <path id="Path_13444" data-name="Path 13444" d="M131,122.715l.61-.005q0,.3,0,.591L131,123.3Z" transform="translate(-127.347 -111.219)" fill="#707070"/>
            <path id="Path_13445" data-name="Path 13445" d="M141,122.74l.583,0c0,.193-.005.386-.007.58h-.57C141,123.128,141,122.934,141,122.74Z" transform="translate(-135.979 -111.245)" fill="#707070"/>
            <path id="Path_13446" data-name="Path 13446" d="M150.768,122.74l.613,0c0,.193-.005.386-.007.58h-.607C150.765,123.128,150.766,122.934,150.768,122.74Z" transform="translate(-144.409 -111.245)" fill="#707070"/>
            <path id="Path_13447" data-name="Path 13447" d="M160.411,122.734l.6,0v.587l-.632-.014C160.391,123.114,160.4,122.924,160.411,122.734Z" transform="translate(-152.708 -111.237)" fill="#707070"/>
          </g>
        </g>
      </g>
    </g>
    <g id="Ellipse_4223" data-name="Ellipse 4223" transform="translate(243 1467)" fill="none" stroke="#707070" stroke-width="1.6">
      <circle cx="9" cy="9" r="9" stroke="none"/>
      <circle cx="9" cy="9" r="8.2" fill="none"/>
    </g>
  </g>
</svg>
