<svg xmlns="http://www.w3.org/2000/svg" width="22" height="22" viewBox="0 0 22 22">
  <g id="Group_35842" data-name="Group 35842" transform="translate(-28 -1328)" opacity="0.7">
    <rect id="Rectangle_16706" data-name="Rectangle 16706" width="22" height="22" rx="2" transform="translate(28 1328)" fill="#dadada"/>
    <circle id="Ellipse_4194" data-name="Ellipse 4194" cx="4.714" cy="4.714" r="4.714" transform="translate(35.071 1333.5)" fill="#dadada"/>
    <g id="Group_35208" data-name="Group 35208" transform="translate(31.143 1331.143)">
      <g id="gear" transform="translate(0 0)">
        <path id="Path_13465" data-name="Path 13465" d="M15.325,6.4l-1.4-.168A6.261,6.261,0,0,0,13.3,4.718l.872-1.108a.455.455,0,0,0-.036-.587L12.69,1.577a.456.456,0,0,0-.587-.036l-1.11.873a6.176,6.176,0,0,0-1.506-.622L9.319.39A.455.455,0,0,0,8.879,0H6.834A.454.454,0,0,0,6.4.39l-.168,1.4a6.226,6.226,0,0,0-1.507.623L3.61,1.543a.455.455,0,0,0-.586.035L1.578,3.025a.456.456,0,0,0-.034.587L2.415,4.72a6.209,6.209,0,0,0-.623,1.509L.39,6.4a.455.455,0,0,0-.39.44V8.881a.455.455,0,0,0,.39.439l1.4.168a6.248,6.248,0,0,0,.623,1.506L1.544,12.1a.456.456,0,0,0,.036.587l1.443,1.446a.456.456,0,0,0,.586.036L4.72,13.3a6.186,6.186,0,0,0,1.507.623l.168,1.4a.454.454,0,0,0,.439.39H8.879a.453.453,0,0,0,.439-.39l.168-1.4a6.241,6.241,0,0,0,1.507-.623l1.11.872a.455.455,0,0,0,.586-.035l1.445-1.446a.455.455,0,0,0,.035-.588L13.3,10.994a6.218,6.218,0,0,0,.624-1.507l1.4-.168a.454.454,0,0,0,.39-.439V6.835A.453.453,0,0,0,15.325,6.4Zm-7.467,5.39a3.928,3.928,0,1,1,3.929-3.928A3.928,3.928,0,0,1,7.858,11.785Z" fill="#6c6c6c" stroke="#dadada" stroke-width="0.4"/>
      </g>
      <g id="_010101ff" data-name="#010101ff" transform="translate(4.676 6.08)">
        <path id="Path_13466" data-name="Path 13466" d="M124.292,55.853c.494-.845,1.018-1.672,1.58-2.473.44.625.855,1.268,1.254,1.92.371.614.728,1.237,1.047,1.88a9.641,9.641,0,0,1,.787,2.035,3.1,3.1,0,0,1-.88,2.9,3.166,3.166,0,0,1-5.368-2.468,5.331,5.331,0,0,1,.355-1.333A18.234,18.234,0,0,1,124.292,55.853Z" transform="translate(-122.705 -53.38)" fill="#6c6c6c" stroke="#dadada" stroke-width="1"/>
      </g>
    </g>
  </g>
</svg>
