<svg xmlns="http://www.w3.org/2000/svg" width="51.988" height="14" viewBox="0 0 51.988 14">
  <g id="Group_11795" data-name="Group 11795" transform="translate(-2830 16341.999)">
    <path id="Path_7671" data-name="Path 7671" d="M105.765,340.872H96.3l4.869-13.284h9.468l-1.192,3.252,0,.012h-5.561l-.643,1.754h5.04l-1.151,3.139h-5.04l-.641,1.748H107Z" transform="translate(2733.703 -16669.299)" fill="#5673aa"/>
    <path id="Path_7672" data-name="Path 7672" d="M225.183,331.523h3.926l-3.5,9.558h3.841l3.5-9.558h3.716l1.374-3.747H226.557Z" transform="translate(2643.949 -16669.428)" fill="#5673aa"/>
    <path id="Path_7673" data-name="Path 7673" d="M139.884,327.873l-9.394,13.2h4.218l1.519-2.306h4.417l-.275,2.306h3.876l.828-13.2Zm1.118,7.9h-2.8l3.424-5.2Z" transform="translate(2709.892 -16669.496)" fill="#5673aa"/>
    <path id="Path_7674" data-name="Path 7674" d="M192.623,328.682c-.676-1.463-2.754-2.312-5.213-1.977a9.229,9.229,0,0,0-2.75.837c-3.8,2.178-2.635,5.118-2.392,5.628.94,1.968,4.506,1.769,4.632,2.98.064.615-.721,1.218-1.611,1.339a2.049,2.049,0,0,1-.823-.045.939.939,0,0,1-.788-.856.979.979,0,0,1,.2-.569l.032-.043h-4.147a3.632,3.632,0,0,0-.245,1.126,3.018,3.018,0,0,0,.035.646c.326,1.983,2.654,3.2,5.563,2.812,3.473-.465,5.8-2.321,6.031-5.077.217-2.559-3.176-3.318-3.176-3.318a5.718,5.718,0,0,1-1.669-.715,1.589,1.589,0,0,1-.285-.231h0a.681.681,0,0,1-.155-.434c0-.56.653-1.1,1.458-1.212a1.693,1.693,0,0,1,1.009.145.761.761,0,0,1,.449.67.8.8,0,0,1-.076.334h3.977a2.958,2.958,0,0,0,.169-.822c0-.051,0-.1,0-.154A2.515,2.515,0,0,0,192.623,328.682Z" transform="translate(2675.751 -16668.631)" fill="#5673aa"/>
    <path id="Path_7675" data-name="Path 7675" d="M193.995,357.4h0Z" transform="translate(2665.668 -16690.061)" fill="#5673aa"/>
  </g>
</svg>
