<svg xmlns="http://www.w3.org/2000/svg" width="100" height="12.749" viewBox="0 0 100 12.749">
  <g id="Group_11803" data-name="Group 11803" transform="translate(-2830 16311.001)">
    <path id="Path_7664" data-name="Path 7664" d="M225.958,393.529H222.7v9.308l-6.274-9.309h-4.976v12.748h3.259v-9.437l6.361,9.437h4.889Z" transform="translate(2645.836 -16704.529)" fill="#cc4366"/>
    <path id="Path_7665" data-name="Path 7665" d="M417.975,393.529h-3.259v9.308l-6.274-9.309h-4.976v12.748h3.259v-9.437l6.361,9.437h4.889Z" transform="translate(2498.954 -16704.529)" fill="#cc4366"/>
    <path id="Path_7666" data-name="Path 7666" d="M288.734,393.529h-12.4v2.988h4.509v9.76H284.1v-9.76h4.63Z" transform="translate(2596.353 -16704.529)" fill="#cc4366"/>
    <rect id="Rectangle_4864" data-name="Rectangle 4864" width="3.259" height="12.748" transform="translate(2898.567 -16311)" fill="#cc4366"/>
    <path id="Path_7667" data-name="Path 7667" d="M480.119,396.517v-2.988H468.353v12.748h11.766v-2.988h-8.507v-2.158h8v-2.606h-8v-2.008Z" transform="translate(2449.881 -16704.529)" fill="#cc4366"/>
    <path id="Path_7668" data-name="Path 7668" d="M107.445,396.517v-2.988H96.3v12.748h3.259v-4.4h7.514V398.89H99.556v-2.374Z" transform="translate(2733.703 -16704.529)" fill="#cc4366"/>
    <path id="Path_7669" data-name="Path 7669" d="M157.4,393.529h-8.5c-1.711,0-3.1,1.657-3.1,3.7v5.345c0,2.044,1.387,3.7,3.1,3.7h8.5c1.711,0,3.1-1.657,3.1-3.7v-5.345C160.5,395.186,159.111,393.529,157.4,393.529Zm-.347,7.793a1.828,1.828,0,0,1-1.645,1.967h-4.516a1.828,1.828,0,0,1-1.646-1.967v-2.839a1.828,1.828,0,0,1,1.646-1.967h4.516a1.828,1.828,0,0,1,1.645,1.967Z" transform="translate(2696.262 -16704.529)" fill="#cc4366"/>
    <path id="Path_7670" data-name="Path 7670" d="M324.778,393.529h-4.236l-5.972,12.748h3.6l1.131-2.415h6.726l1.131,2.415h3.6Zm-4.256,7.718,2.138-4.565,2.138,4.565Z" transform="translate(2567.12 -16704.529)" fill="#cc4366"/>
  </g>
</svg>
