<svg xmlns="http://www.w3.org/2000/svg" width="100" height="12.93" viewBox="0 0 100 12.93">
  <g id="Group_11802" data-name="Group 11802" transform="translate(-2830 16281.001)">
    <path id="Path_10492" data-name="Path 10492" d="M172.315,466.342l2.374-6.855h4.463l-2.385,6.894a3.5,3.5,0,0,0-.3,1.636q.107.467.82.467a1.722,1.722,0,0,0,.815-.186,1.662,1.662,0,0,0,.627-.642,7.135,7.135,0,0,0,.557-1.275l2.386-6.894h4.465l-2.374,6.855a10.747,10.747,0,0,1-2.724,4.45,7.243,7.243,0,0,1-5.113,1.625A8.17,8.17,0,0,1,174,472.2a3.118,3.118,0,0,1-1.51-.838,2.925,2.925,0,0,1-.729-1.869,7.958,7.958,0,0,1,.554-3.155Zm-7.467,1.169.565-4.187h-.1l-2.334,4.187Zm-9.364,4.6,8.775-12.619h4.984v12.619h-4.829l.167-1.6h-3.366l-.957,1.6Zm-12.508,0,4.369-12.619h4.483l-1.463,4.225H153.1l1.463-4.225h4.483l-4.369,12.619h-4.483l1.537-4.441H149l-1.537,4.441Zm-21.46-5.765,2.373-6.855h4.463l-2.386,6.894a3.493,3.493,0,0,0-.3,1.636q.107.467.819.467a1.724,1.724,0,0,0,.815-.186,1.661,1.661,0,0,0,.627-.642,7.114,7.114,0,0,0,.557-1.275l2.386-6.894h4.465l-2.374,6.855a10.759,10.759,0,0,1-2.724,4.45,7.244,7.244,0,0,1-5.114,1.625,8.168,8.168,0,0,1-1.926-.214,3.117,3.117,0,0,1-1.51-.838,2.911,2.911,0,0,1-.729-1.869,7.959,7.959,0,0,1,.554-3.155Zm-8.191-1.13h.769a1.732,1.732,0,0,0,1.716-1.344.956.956,0,0,0-.029-.808.7.7,0,0,0-.671-.34h-.923Zm3.04-5.725a6.773,6.773,0,0,1,2.7.447,2.118,2.118,0,0,1,1.272,1.413,4.274,4.274,0,0,1-.256,2.462,4.835,4.835,0,0,1-3.5,3.156l1.528,5.141h-5l-.739-4.149-1.436,4.149h-4.406l4.369-12.619Zm-18.143,7,2.044-5.9a2.047,2.047,0,0,1,1.61-1.1H109l-1.193,3.447h-3.867v0h-.067a.235.235,0,0,0-.2.153l-.4,1.147c-.029.086.013.154.1.154h3.545l-1.112,3.214h-3.483l-1.557,4.5-4.462.009Zm34.9,4.636,3.759-10.857a2.153,2.153,0,0,1,1.047-.778H145.5l-1.193,3.447h-3.944l0,0h-.051a.2.2,0,0,0-.169.127l-.329.953c-.023.07.012.128.08.128h.756a.111.111,0,0,0,.032,0H143.5l-1.12,3.233H138.7a.213.213,0,0,0-.184.139l-.361,1.045c-.026.078.014.141.088.141h4.138l-1.179,3.4h-7.169a.869.869,0,0,1-.92-.978Zm53.42-7.569,1.012-2.924a2.117,2.117,0,0,1,1.431-1.142H196.3l-1.193,3.447h-3.869l0,.011h-.007a.233.233,0,0,0-.2.152l-.392,1.136a.1.1,0,0,0,.1.151h.006l0,.009h3.483l-1.112,3.214h-3.483l-1.557,4.5-4.453,0Zm0,0" transform="translate(2733.703 -16740.488)" fill="#f19147" fill-rule="evenodd"/>
  </g>
</svg>
