<svg xmlns="http://www.w3.org/2000/svg" width="100" height="13.687" viewBox="0 0 100 13.687">
  <g id="Group_11800" data-name="Group 11800" transform="translate(-2830 16252.001)">
    <path id="Path_10532" data-name="Path 10532" d="M649.33,381.657l.109-.262h-5.164l-.049.119q-.319.762-.634,1.532l-.3.718h1.966l-1.609,3.828a.556.556,0,0,1-.431.386h-.809c-.538,0-1.078,0-1.646,0a.278.278,0,0,1-.167-.028.155.155,0,0,1,0-.119,3.965,3.965,0,0,1,.217-.57c1.136-2.709,2.273-5.416,3.42-8.146a.672.672,0,0,1,.575-.487H650.3l.051-.117q.4-.916.778-1.835l.108-.261h-7.558a2.955,2.955,0,0,0-1.417.463,4.891,4.891,0,0,0-1.675,2.191q-1.651,3.933-3.3,7.857a5.626,5.626,0,0,0-.5,1.694v.33a1.194,1.194,0,0,0,.485.879,2.02,2.02,0,0,0,.957.256h3.843a2.428,2.428,0,0,0,.808-.234l.082-.055,0,.009-.1.26h1.136c.568,0,1.136,0,1.7,0h.129l.05-.118q.974-2.348,1.959-4.7Q648.58,383.454,649.33,381.657Z" transform="translate(2193.217 -16628.418)" fill="#ef4949"/>
    <path id="Path_10533" data-name="Path 10533" d="M700.074,379.457a2.764,2.764,0,0,0-.65-2.316,2.384,2.384,0,0,0-1.61-.724h-6.9v.19h0l-.179-.075c-.155.352-.306.706-.457,1.061q-.147.349-.3.7l-.117.273.3-.01c.27-.009.546,0,.815.01-.173.433-.354.861-.537,1.29-.143.337-.286.675-.424,1.014-.979,2.336-1.962,4.671-2.952,7.026a.09.09,0,0,1-.065.063c-.2.009-.39.007-.585.007-.13,0-.262,0-.393,0l-.127,0-.389.919q-.2.471-.4.941l-.113.263h8.759a3.308,3.308,0,0,0,1.334-.44,4.644,4.644,0,0,0,1.753-2.181q1.392-3.325,2.768-6.638A5.838,5.838,0,0,0,700.074,379.457Zm-3.618-.723a2.033,2.033,0,0,1-.132,1.015c-.3.93-.682,1.853-1.055,2.745l-.248.6c-.363.868-.752,1.79-1.171,2.689a7.65,7.65,0,0,1-1.033,1.765,1.292,1.292,0,0,1-.954.423c-.461.011-.927.01-1.392.008h-.248q2-4.711,3.987-9.418h.349c.471,0,.943,0,1.4,0C696.274,378.573,696.424,378.634,696.457,378.734Z" transform="translate(2196.692 -16628.418)" fill="#ef4949"/>
    <path id="Path_10534" data-name="Path 10534" d="M682.773,381.22c.2-.481.405-.96.605-1.441l.151-.364-.4.066q-1.624.269-3.249.547l-.121.02-.753,1.8h-1.289l-.951,2.3h1.285q-.975,2.321-1.944,4.638a4.362,4.362,0,0,0-.4,1.751,1.346,1.346,0,0,0,.563,1.106,1.671,1.671,0,0,0,.854.235h4.179l.056-.138c.122-.3.246-.592.369-.888.144-.345.288-.69.429-1.036l.123-.3H679.6a.906.906,0,0,1-.266-.024.762.762,0,0,1,.04-.142l2.177-5.205h2.394l.39-.939c.146-.352.292-.7.439-1.054l.126-.3h-2.391Z" transform="translate(2196.18 -16630.203)" fill="#ef4949"/>
    <path id="Path_10535" data-name="Path 10535" d="M658.439,381.643l-2.333,0a2.676,2.676,0,0,0-1.125.41l.157-.414H651.9l-.057.14q-2,4.911-4.018,9.812l-.127.309h3.5l.057-.138q.851-2.045,1.685-4.1c.392-.958.784-1.917,1.173-2.858a.618.618,0,0,1,.6-.35H657.3Z" transform="translate(2192.898 -16630.23)" fill="#ef4949"/>
    <path id="Path_10536" data-name="Path 10536" d="M666.706,382.545a2.055,2.055,0,0,0-1.71-.9h-3.928a2.689,2.689,0,0,0-1.263.276l.084.169-.1-.163a4.355,4.355,0,0,0-1.805,2.22l-1.9,4.646a4.7,4.7,0,0,0-.419,1.673,1.4,1.4,0,0,0,.467,1.124,1.7,1.7,0,0,0,.979.313h6.547l.981-2.42h-5.077a.582.582,0,0,1-.248-.036c.007-.023.017-.054.025-.074q.266-.634.527-1.27h5.493l.057-.138c.459-1.105.912-2.214,1.355-3.31A2.387,2.387,0,0,0,666.706,382.545Zm-3.192,1.516,0,.01-.669,1.61H660.85l.121-.29c.128-.313.257-.626.389-.94l.058-.124c.06-.13.132-.268.214-.268h0c.289,0,.58,0,.869,0C662.838,384.056,663.177,384.056,663.514,384.061Z" transform="translate(2193.83 -16630.23)" fill="#ef4949"/>
    <path id="Path_10537" data-name="Path 10537" d="M675.584,381.806a2.769,2.769,0,0,0-1.174-.165h-5.474v.223l-.005,0-.208-.084-.2.5c-.189.466-.379.932-.563,1.4l-.121.3.326,0c.726,0,1.455,0,2.182-.008.842-.006,1.684-.013,2.535,0a1.135,1.135,0,0,1,.165.022,2.9,2.9,0,0,1-.17.494c-.8,0-1.6,0-2.394,0H669.2a2.546,2.546,0,0,0-1.806.861,7.635,7.635,0,0,0-1.329,2.3,11.7,11.7,0,0,0-.778,2.412,1.741,1.741,0,0,0,.249,1.38,1.429,1.429,0,0,0,1.023.44l.077,0h2.26a2.746,2.746,0,0,0,1.442-.419c-.015.039-.029.076-.044.114l-.121.3h4.541l.06-.128c.242-.516.473-1.036.7-1.555l.34-.766-.361.017c-.378.018-.762.016-1.128,0l.013-.037c.445-1.113.9-2.219,1.364-3.323l.584-1.409a3.043,3.043,0,0,0,.223-1.746A1.6,1.6,0,0,0,675.584,381.806Zm-5.644,5.109a.738.738,0,0,1,.126-.009h1.807c-.13.318-.26.635-.391.952-.169.41-.339.821-.51,1.247a.88.88,0,0,1-.212.35,1.286,1.286,0,0,1-.29.017l-.613,0-1.031,0,.857-2.084A1.685,1.685,0,0,1,669.94,386.916Zm-1.306,2.561h-.045a.065.065,0,0,1,.021,0A.082.082,0,0,1,668.634,389.477Z" transform="translate(2194.953 -16630.221)" fill="#ef4949"/>
    <path id="Path_10538" data-name="Path 10538" d="M708.012,389.471c-.127,0-.251-.006-.372-.006h-.029a8.96,8.96,0,0,1,.4-1.012q.786-1.862,1.573-3.715a3.029,3.029,0,0,0,.246-1.788,1.6,1.6,0,0,0-.81-1.071,2.379,2.379,0,0,0-1.152-.233l-1.931,0c-1.287,0-2.577,0-3.865,0v.225l0,.006h0l-.212-.084q-.233.57-.468,1.135l-.439,1.061.335,0c.737,0,1.463,0,2.194-.008.891-.007,1.781-.013,2.652,0a.881.881,0,0,1,.165.028,3.412,3.412,0,0,1-.151.372l-.054.12h-3.726a2.636,2.636,0,0,0-1.859.86,7.282,7.282,0,0,0-1.305,2.176,13.162,13.162,0,0,0-.834,2.434,1.846,1.846,0,0,0,.216,1.459,1.452,1.452,0,0,0,1.066.469l.089,0h2.309a2.89,2.89,0,0,0,1.469-.419l-.156.419h4.631l.063-.128c.207-.435.406-.871.6-1.309l.465-1.015-.377.021C708.5,389.48,708.259,389.476,708.012,389.471Zm-4.117.007h0c-.339.008-.675.007-1.014,0-.283,0-.565,0-.851,0h-.051c.074-.2.161-.4.251-.605.082-.184.162-.37.231-.547.071-.16.137-.319.2-.481.106-.257.211-.514.335-.762l0-.009c.025-.046.083-.153.141-.164h1.956l-.288.686c-.219.525-.44,1.05-.657,1.558l-.03.061C704.03,389.4,703.976,389.478,703.895,389.478Z" transform="translate(2197.279 -16630.215)" fill="#ef4949"/>
    <path id="Path_10539" data-name="Path 10539" d="M720.4,383.491a1.665,1.665,0,0,0-.445-1.419,1.777,1.777,0,0,0-1.268-.43h-.661c-.44,0-.882,0-1.349,0a2.864,2.864,0,0,0-1.114.362c.009-.021.017-.041.025-.063l.119-.3h-3.476l-.058.14q-2.054,4.907-4.114,9.811l-.13.309h3.581l.057-.139q.929-2.2,1.85-4.4l1.275-3.034c.074-.18.17-.274.247-.265.567-.007,1.133-.007,1.72,0a.067.067,0,0,1,.046.063,4,4,0,0,1-.2.5l-3.044,7.269h3.579l.058-.138c.545-1.282,1.082-2.567,1.621-3.85l1.025-2.44A7.135,7.135,0,0,0,720.4,383.491Z" transform="translate(2198.764 -16630.215)" fill="#ef4949"/>
    <path id="Path_10540" data-name="Path 10540" d="M729.718,383.345a1.846,1.846,0,0,0-.617-1.2,2.364,2.364,0,0,0-1.476-.505l-3.417,0a3.734,3.734,0,0,0-1.693.219l.081.209h0v.009l-.112-.2a4.213,4.213,0,0,0-1.938,2.23l-1.983,4.726a4.523,4.523,0,0,0-.4,1.605,1.364,1.364,0,0,0,.466,1.112,1.7,1.7,0,0,0,1,.325h6.708l.057-.142q.2-.49.4-.981c.137-.328.274-.655.406-.985l.123-.306h-5.14a.632.632,0,0,1-.291-.039c.006-.018.013-.037.019-.052l.543-1.287h5.607l1.151-2.742a5.692,5.692,0,0,0,.506-1.54Zm-3.541.722c-.144.353-.292.7-.441,1.052l-.24.566h-2.034l.151-.359c.139-.329.28-.659.422-.987l.011-.033c.063-.127.112-.225.2-.235h1.934Z" transform="translate(2200.281 -16630.215)" fill="#ef4949"/>
  </g>
</svg>
