<svg xmlns="http://www.w3.org/2000/svg" width="91.176" height="13.001" viewBox="0 0 91.176 13.001">
  <g id="Group_11801" data-name="Group 11801" transform="translate(-2830 16222)">
    <path id="Path_10495" data-name="Path 10495" d="M173.77,523.178c1.483-.023,2.965.019,4.447.022,1.011,1.521,2.037,3.031,3.061,4.542.438-.588.86-1.187,1.3-1.774.273-.015.375-.268.513-.454a2.232,2.232,0,0,1,.475-.448l-.109-.054c.345-.59.833-1.083,1.193-1.662,1.132-.076,2.272.037,3.4-.074a.478.478,0,0,1,.41.129c-.334.445-.657.9-.972,1.354-.3.3-.466.687-.749,1-.342.536-.758,1.022-1.1,1.558-.373.451-.618.986-1.016,1.418a15.073,15.073,0,0,1-1.181,1.6c-.056.108-.114.215-.168.324l-.17.063a2.64,2.64,0,0,0-.158,1.074c-.065.7-.032,1.4-.041,2.1-.006.753,0,1.506,0,2.26h-3.694q0-2.1,0-4.2a6.192,6.192,0,0,0-.018-.821,6.305,6.305,0,0,0-.425-.647C177.106,528.045,175.416,525.625,173.77,523.178Z" transform="translate(2669.657 -16745.154)" fill="#5673aa"/>
    <path id="Path_10496" data-name="Path 10496" d="M382.469,523.3l.026,0c.006.108.014.216.021.326.2-.264.563-.168.855-.18.991.026,1.987-.041,2.975.028a4.126,4.126,0,0,1,.033.857c0,3.156-.01,6.313,0,9.469a3.164,3.164,0,0,1-.638,1.731l-.318.234a1.727,1.727,0,0,0-.837.476l-.148.033H373.622c-.019-3.955,0-7.911-.01-11.867a7.242,7.242,0,0,1,.034-.969c1.113,0,2.227.031,3.338-.024a.287.287,0,0,1,.336.31c0,2.806,0,5.613,0,8.419a2.179,2.179,0,0,1-.086.826c.08.1.124.261.266.293,1.439-.159,2.9-.007,4.342-.085l.1-.077a1.048,1.048,0,0,0,.379-.253,1.11,1.11,0,0,0,.144-.632C382.469,529.244,382.459,526.273,382.469,523.3Z" transform="translate(2485.259 -16745.275)" fill="#5673aa"/>
    <path id="Path_10497" data-name="Path 10497" d="M1132.242,536.32q0-6.485,0-12.97c.017.107.035.215.054.323a1.807,1.807,0,0,1,.257-.177,10.794,10.794,0,0,1,1.837.032c.514-.005,1.028-.017,1.542,0V536.32Z" transform="translate(1785.246 -16745.32)" fill="#5673aa"/>
    <path id="Path_10498" data-name="Path 10498" d="M8.955,525.74c.024-.143-.046-.4.163-.43.926.057,1.857.012,2.785.022.273.011.682-.134.8.206a10.013,10.013,0,0,1,.029,1.18c.015,3.805-.005,7.61.011,11.415H8.877c0-1.7,0-3.4,0-5.106-1.7.011-3.4.005-5.094,0q-.012,2.551,0,5.1H0V525.345c1-.025,2.009,0,3.014-.011a2.64,2.64,0,0,1,.6.035,5.376,5.376,0,0,1,.032,1.041c.012,1.1-.019,2.2.018,3.306-.014.179.221.167.348.182,1.442,0,2.885,0,4.328,0a1.305,1.305,0,0,1,.336.075c.066.006.191.085.215-.018a2.775,2.775,0,0,0,.068-1.132C8.95,527.792,8.965,526.766,8.955,525.74Z" transform="translate(2830 -16747.133)" fill="#5673aa"/>
    <path id="Path_10499" data-name="Path 10499" d="M563.02,525.441a1.527,1.527,0,0,1,.927-.086c3.049-.015,6.1.01,9.147-.009a2.815,2.815,0,0,1,1.941.627c.164.173.409.351.317.618.145.346.454.639.44,1.035.012,1.9,0,3.807,0,5.712-.016,1.6.028,3.207-.016,4.81h-3.73q-.009-4.279,0-8.558c-.007-.412.091-.89-.209-1.231a1.536,1.536,0,0,0-1.015-.211c-1.291.02-2.586-.066-3.873.068-.218-.009-.166.255-.182.392.021,3.18-.007,6.36.017,9.54h-3.757c.015-3.956,0-7.912.006-11.868C563.04,526,563.045,525.72,563.02,525.441Z" transform="translate(2310.483 -16747.148)" fill="#5673aa"/>
    <path id="Path_10500" data-name="Path 10500" d="M754.835,525.419c.01-.191.029-.557.314-.507a10.415,10.415,0,0,0,1.319-.026c2.6.013,5.2-.012,7.806.008a5.948,5.948,0,0,1,1.882.244,1.856,1.856,0,0,1,1.049.968,4.5,4.5,0,0,1,.292,1.436,9.26,9.26,0,0,1,.031,1.181c.005,1.955-.006,3.91,0,5.866a4.027,4.027,0,0,1-.138,1.454,7.427,7.427,0,0,1-.493.94c.073-.017.147-.033.221-.048a2.621,2.621,0,0,1-1.549.8H754.837q-.006-6.161,0-12.321m3.8,2.482c0,2.161.015,4.321-.005,6.481,0,.05,0,.151,0,.2,1.118-.009,2.238.022,3.356-.016a2.772,2.772,0,0,0,1.358-.134c.342-.232.34-.684.375-1.049q.008-2.1,0-4.2a1.7,1.7,0,0,0-.256-.95,1.143,1.143,0,0,0-.885-.322C761.266,527.9,759.95,527.915,758.635,527.9Z" transform="translate(2133.492 -16746.74)" fill="#5673aa"/>
    <path id="Path_10501" data-name="Path 10501" d="M946.426,524.91c.466.015.928-.071,1.394-.065,1.21.013,2.421-.023,3.63.035,1.47-.018,2.942-.01,4.412-.007.2-.023.283.2.275.353.006,4.158-.015,8.318.01,12.476H952.6c-.014-.627.006-1.254-.009-1.88a4.315,4.315,0,0,1,.046-.805c-.122-.105-.209-.322-.4-.291-.671.074-1.345.024-2.018.035-.746,0-1.493.013-2.239-.021a1.242,1.242,0,0,0-.659.1l-.027.027c-.034.945-.016,1.892-.007,2.837h-3.818c-.027-2.654,0-5.31-.012-7.964a17.864,17.864,0,0,1,.09-2.643l.056.189a1.107,1.107,0,0,0,.238-.543,1.732,1.732,0,0,1,.518-.98,2.845,2.845,0,0,1,2.071-.852m4.33,2.868c-.695-.01-1.389.027-2.085.012a1.876,1.876,0,0,0-1.3.3,2.441,2.441,0,0,0-.229.9c0,.527,0,1.055,0,1.582a4.456,4.456,0,0,0,.076,1.181c1.591.056,3.183.018,4.774.035.206-.006.481.026.6-.186.026-.2-.074-.409-.021-.614.074-.985-.055-1.983.084-2.963a2.758,2.758,0,0,0-.344-.315A7.768,7.768,0,0,1,950.756,527.778Z" transform="translate(1959.448 -16746.703)" fill="#5673aa"/>
    <path id="Path_10519" data-name="Path 10519" d="M0,523.178c1.259,0,2.519,0,3.779,0,.025,1.545,0,3.091.009,4.635q2.512.007,5.023,0l-.134.18a1.3,1.3,0,0,0-.336-.075c-1.443,0-2.886,0-4.328,0-.127-.015-.362,0-.348-.182-.036-1.1-.005-2.2-.018-3.305a5.375,5.375,0,0,0-.032-1.04,2.64,2.64,0,0,0-.6-.035c-1.005.011-2.01-.014-3.014.011Z" transform="translate(2830 -16745.162)" fill="#5673aa"/>
    <path id="Path_10520" data-name="Path 10520" d="M112.451,523.175c1.345-.008,2.691-.011,4.037,0q0,6.488,0,12.976h-.119c-.016-3.805,0-7.61-.011-11.415a10.014,10.014,0,0,0-.029-1.18c-.121-.34-.53-.195-.8-.206-.928-.01-1.858.035-2.785-.022-.209.028-.139.287-.163.43.009,1.025-.005,2.052,0,3.077a2.775,2.775,0,0,1-.068,1.132c-.024.1-.149.024-.215.018l.134-.18C112.467,526.264,112.434,524.719,112.451,523.175Z" transform="translate(2726.377 -16745.152)" fill="#5673aa"/>
    <path id="Path_10521" data-name="Path 10521" d="M488.62,523.19c1.347-.016,2.694-.006,4.041-.005.015,3.4-.022,6.8-.009,10.2a3.371,3.371,0,0,1-.583,2.063,2.254,2.254,0,0,1-1.363.682,1.728,1.728,0,0,1,.837-.476l.318-.234a3.165,3.165,0,0,0,.638-1.731c-.006-3.156,0-6.313,0-9.469a4.124,4.124,0,0,0-.033-.857c-.987-.069-1.983,0-2.975-.028-.292.012-.651-.085-.855.18C488.634,523.406,488.626,523.3,488.62,523.19Z" transform="translate(2379.135 -16745.164)" fill="#5673aa"/>
    <path id="Path_10522" data-name="Path 10522" d="M561.9,522.957c2.886.007,5.772-.005,8.658,0a9.477,9.477,0,0,1,2.808.276,2.052,2.052,0,0,1,1.264,1.1,7.285,7.285,0,0,1,.338,2.9c-.037,2.906-.012,5.812-.019,8.717h-.2c.044-1.6,0-3.206.016-4.809,0-1.9.009-3.808,0-5.712.014-.4-.294-.69-.44-1.035.092-.267-.154-.445-.318-.618a2.815,2.815,0,0,0-1.941-.627c-3.049.019-6.1-.006-9.147.009a1.528,1.528,0,0,0-.926.086l-.087.023C561.9,523.168,561.9,523.063,561.9,522.957Z" transform="translate(2311.521 -16744.957)" fill="#5673aa"/>
    <path id="Path_10523" data-name="Path 10523" d="M753.2,523.475c3.24-.01,6.479,0,9.719-.005a3.64,3.64,0,0,1,2.431.592,2.965,2.965,0,0,1,.805,2.229c.022,2.453-.013,4.906.008,7.359a3.091,3.091,0,0,1-.553,1.976c-.074.015-.148.031-.221.048a7.453,7.453,0,0,0,.493-.94,4.029,4.029,0,0,0,.138-1.454c-.009-1.956,0-3.911,0-5.866a9.282,9.282,0,0,0-.031-1.181,4.5,4.5,0,0,0-.292-1.436,1.856,1.856,0,0,0-1.049-.968,5.949,5.949,0,0,0-1.882-.244c-2.6-.02-5.2,0-7.806-.008a10.45,10.45,0,0,1-1.319.026c-.285-.05-.3.316-.314.507q-.008,6.16,0,12.321h-.131C753.2,532.112,753.184,527.793,753.2,523.475Z" transform="translate(2135.008 -16745.43)" fill="#5673aa"/>
    <path id="Path_10524" data-name="Path 10524" d="M945.719,523.778a3.877,3.877,0,0,1,2.3-.585c3.119.017,6.236-.034,9.355-.021.014,4.327,0,8.654.005,12.982h-.1c-.025-4.158,0-8.318-.01-12.476.008-.158-.08-.376-.275-.353-1.47,0-2.942-.011-4.412.007-1.209-.058-2.42-.023-3.63-.035-.466-.007-.928.08-1.394.065a2.844,2.844,0,0,0-2.071.852,1.731,1.731,0,0,0-.518.98,1.109,1.109,0,0,1-.238.543l-.056-.189A2.725,2.725,0,0,1,945.719,523.778Z" transform="translate(1958.323 -16745.154)" fill="#5673aa"/>
    <path id="Path_10525" data-name="Path 10525" d="M611.742,562.847c1.286-.134,2.582-.047,3.873-.068a1.536,1.536,0,0,1,1.015.211c.3.341.2.819.209,1.231q-.007,4.279,0,8.558h-.128q0-4.509,0-9.017a.755.755,0,0,0-.358-.722,2.032,2.032,0,0,0-.9-.108c-1.259,0-2.517.017-3.776.007q0,4.92,0,9.839h-.1c-.024-3.18,0-6.36-.017-9.54C611.576,563.1,611.524,562.838,611.742,562.847Z" transform="translate(2265.694 -16781.779)" fill="#5673aa"/>
    <path id="Path_10526" data-name="Path 10526" d="M1132.24,523.223c1.23-.034,2.459.027,3.69.016v.167c-.514-.02-1.029-.009-1.542,0a10.806,10.806,0,0,0-1.837-.032,1.808,1.808,0,0,0-.257.177C1132.275,523.438,1132.257,523.329,1132.24,523.223Z" transform="translate(1785.246 -16745.193)" fill="#5673aa"/>
    <path id="Path_10527" data-name="Path 10527" d="M561.9,526.883l.087-.023c.025.279.02.559.017.839-.009,3.955.008,7.911-.006,11.867h-.1Q561.9,533.225,561.9,526.883Z" transform="translate(2311.517 -16748.566)" fill="#5673aa"/>
    <path id="Path_10528" data-name="Path 10528" d="M994.763,563.021a7.772,7.772,0,0,0,1.547-.071,2.74,2.74,0,0,1,.344.315c-.139.98-.01,1.978-.084,2.963-.053.205.047.409.021.614-.114.213-.389.18-.595.186-1.592-.016-3.183.021-4.774-.034a4.447,4.447,0,0,1-.076-1.181c0-.527,0-1.055,0-1.582a2.437,2.437,0,0,1,.229-.9,1.876,1.876,0,0,1,1.3-.3c.7.015,1.39-.022,2.085-.012m-3.186.436a1.221,1.221,0,0,0-.3.93c.008.822-.015,1.644.009,2.466,1.694,0,3.389,0,5.083,0,.035-1.238.011-2.477.013-3.715H992.6A1.435,1.435,0,0,0,991.577,563.456Z" transform="translate(1915.442 -16781.945)" fill="#5673aa"/>
    <path id="Path_10529" data-name="Path 10529" d="M292.164,622.873l.17-.063a.734.734,0,0,0-.107.407c.015,1.7,0,3.394.006,5.091h-.267c0-.753-.008-1.507,0-2.26.009-.7-.024-1.4.041-2.1A2.64,2.64,0,0,1,292.164,622.873Z" transform="translate(2560.596 -16837.309)" fill="#5673aa"/>
    <path id="Path_10530" data-name="Path 10530" d="M803.98,651.31a.66.66,0,0,0,.386.12c.566,0,1.133,0,1.7,0a5.3,5.3,0,0,1,1.272.065c-1.118.038-2.238.007-3.356.016C803.981,651.461,803.981,651.36,803.98,651.31Z" transform="translate(2088.142 -16863.668)" fill="#5673aa"/>
    <path id="Path_10531" data-name="Path 10531" d="M993.51,656.465a1.241,1.241,0,0,1,.659-.1c.746.034,1.492.023,2.239.021.673-.011,1.347.04,2.018-.035.189-.031.277.186.4.291a4.331,4.331,0,0,0-.046.805c.016.626,0,1.253.009,1.88h-.2q0-1.423,0-2.846C996.9,656.468,995.2,656.505,993.51,656.465Z" transform="translate(1913.257 -16868.328)" fill="#5673aa"/>
  </g>
</svg>
