<svg xmlns="http://www.w3.org/2000/svg" width="91.928" height="13" viewBox="0 0 91.928 13">
  <g id="Group_11804" data-name="Group 11804" transform="translate(-2830 16192)">
    <path id="Path_7627" data-name="Path 7627" d="M103.387,657.527l-.348,1.825a8.207,8.207,0,0,1,2.1-1.416,6.09,6.09,0,0,1,2.832-.677,5.717,5.717,0,0,1,2.586.369,3.18,3.18,0,0,1,1.6,1.693,7.232,7.232,0,0,1,1.812-1.285,7.361,7.361,0,0,1,3.393-.8,4.406,4.406,0,0,1,3.448,1.04c1.138,1.159.653,2.682.391,3.96l-1.5,7.309h-4.752l1.409-6.883a1.922,1.922,0,0,0-.116-1.389c-.255-.4-.99-.472-1.523-.472a3.421,3.421,0,0,0-1.968.5,2.493,2.493,0,0,0-.983,1.433l-1.395,6.812h-4.752l1.428-6.978a1.291,1.291,0,0,0-.342-1.428,1.886,1.886,0,0,0-1.354-.369,2.963,2.963,0,0,0-1.816.431,2.51,2.51,0,0,0-1.108,1.662l-1.477,6.682H96.3l2.46-12.016Z" transform="translate(2733.703 -16849.055)" fill="#ef4949"/>
    <path id="Path_7628" data-name="Path 7628" d="M187.676,661.254a5.261,5.261,0,0,1,2.131-2.852c1.507-.928,3.594-1.229,6.214-1.229,3.31,0,5.356.54,6.167,1.368a3.194,3.194,0,0,1,.519,3.183l-1.215,5.535a3.96,3.96,0,0,0-.162,1.577c.031.235.144.664.144.664l-4.655,0v-1.082h-.068a6.225,6.225,0,0,1-2.172,1.174,14.058,14.058,0,0,1-3.9.385c-1.083,0-3.1-.094-4.124-1.041a2.609,2.609,0,0,1-.788-2.507,4.022,4.022,0,0,1,2-3.038c1.422-.993,2.923-.924,4.428-1.066l1.182-.07c1.661-.165,2.388-.093,3.264-.2.54-.068,1.271-.064,1.512-.957a.916.916,0,0,0-.51-1.043,6.072,6.072,0,0,0-2.123-.294,4.755,4.755,0,0,0-2.073.341c-.383.237-.927.591-.992,1.159Zm9.978,2.672a30.251,30.251,0,0,1-3.044.489,12.443,12.443,0,0,0-3.087.5,1.263,1.263,0,0,0-.569,1.234,1.107,1.107,0,0,0,.5.883,2.346,2.346,0,0,0,1.445.263,6.4,6.4,0,0,0,3.036-.642,3.355,3.355,0,0,0,1.606-1.912A2.061,2.061,0,0,0,197.654,663.926Z" transform="translate(2668.971 -16849.01)" fill="#ef4949"/>
    <path id="Path_7629" data-name="Path 7629" d="M307.331,661.391a5.26,5.26,0,0,1,2.132-2.852c1.507-.927,3.593-1.229,6.213-1.229,3.31,0,5.356.54,6.167,1.368a3.194,3.194,0,0,1,.519,3.182l-1.215,5.535a3.957,3.957,0,0,0-.162,1.576c.031.235.144.664.144.664l-4.655,0V668.55h-.068a6.218,6.218,0,0,1-2.172,1.174,14.055,14.055,0,0,1-3.9.385c-1.083,0-3.1-.094-4.124-1.041a2.609,2.609,0,0,1-.788-2.507,4.022,4.022,0,0,1,2-3.037c1.422-.993,2.923-.924,4.428-1.066l1.182-.07c1.662-.165,2.388-.092,3.264-.2.54-.068,1.271-.064,1.512-.957a.916.916,0,0,0-.51-1.043,6.076,6.076,0,0,0-2.123-.294,4.756,4.756,0,0,0-2.073.341c-.383.237-.927.591-.992,1.159Zm9.978,2.672a30.258,30.258,0,0,1-3.043.489,12.442,12.442,0,0,0-3.087.5,1.263,1.263,0,0,0-.569,1.234,1.106,1.106,0,0,0,.5.883,2.345,2.345,0,0,0,1.445.263,6.4,6.4,0,0,0,3.036-.642,3.355,3.355,0,0,0,1.606-1.912A2.061,2.061,0,0,0,317.309,664.064Z" transform="translate(2582.358 -16849.109)" fill="#ef4949"/>
    <path id="Path_7630" data-name="Path 7630" d="M253.923,659.365a7.15,7.15,0,0,1,2.267-1.519,8.29,8.29,0,0,1,3.131-.576,4.844,4.844,0,0,1,3.446.94c1.086,1.017,1.132,2.37.8,3.979l-1.514,7.38H257.3l1.374-6.694a1.643,1.643,0,0,0-.536-1.737,1.883,1.883,0,0,0-1.368-.371,3.615,3.615,0,0,0-2.11.626,3.064,3.064,0,0,0-1.414,1.994l-1.291,6.182h-4.632l2.466-12.016h4.53Z" transform="translate(2624.382 -16849.08)" fill="#ef4949"/>
    <path id="Path_7631" data-name="Path 7631" d="M384.033,664.187a8.468,8.468,0,0,1-3.107,3.918,11.068,11.068,0,0,1-6.268,1.414c-1.733,0-4.3-.136-5.857-1.461-.8-.663-1.855-2.172-1.252-4.892a7.614,7.614,0,0,1,3.176-4.869,12.483,12.483,0,0,1,6.862-1.716c3.009,0,4.676.71,5.567,1.49a4.458,4.458,0,0,1,1.271,3.612h-4.89a1.7,1.7,0,0,0-.672-1.484,3.859,3.859,0,0,0-1.924-.6,4.7,4.7,0,0,0-2.759.812,4.38,4.38,0,0,0-1.785,3.524,2.609,2.609,0,0,0,.6,1.785c.406.638,1.583.788,2.434.788a5.1,5.1,0,0,0,2.365-.626,4.69,4.69,0,0,0,1.3-1.692Z" transform="translate(2537.483 -16848.582)" fill="#ef4949"/>
  </g>
</svg>
