<svg xmlns="http://www.w3.org/2000/svg" width="78.935" height="14" viewBox="0 0 78.935 14">
  <g id="Group_11805" data-name="Group 11805" transform="translate(-2830 16162)">
    <path id="Path_7632" data-name="Path 7632" d="M106.731,729.716l.663.379,1.76-3.471-.657-.353-.142.117c-.17.14-.257.151-.271.151a3.019,3.019,0,0,1-.559-.192,17.443,17.443,0,0,0-2.654-.921,10.147,10.147,0,0,0-2.322-.254,6.338,6.338,0,0,0-4.521,1.456,3.776,3.776,0,0,0-1.187,2.848,3.651,3.651,0,0,0,.472,1.86,3.356,3.356,0,0,0,1.438,1.359,5.542,5.542,0,0,0,1.247.453,20.07,20.07,0,0,0,2.06.288l1.424.148a8.368,8.368,0,0,1,1.836.324c.446.177.5.436.5.642a1.041,1.041,0,0,1-.232.636,1.775,1.775,0,0,1-.667.531,4.594,4.594,0,0,1-1.984.389,7.865,7.865,0,0,1-2.308-.377,4.817,4.817,0,0,1-1.76-.869.757.757,0,0,1-.306-.563v-.292l-.678-.327-1.589,3.6.654.338.138-.109a1.1,1.1,0,0,1,.213-.141,4.2,4.2,0,0,1,.5.208,11.433,11.433,0,0,0,5.074,1.232,9.984,9.984,0,0,0,2.693-.352,4.907,4.907,0,0,0,2.554-1.486,3.884,3.884,0,0,0,.925-2.543,3.813,3.813,0,0,0-.394-1.7,3.46,3.46,0,0,0-1.084-1.3,5.22,5.22,0,0,0-1.5-.713,12.268,12.268,0,0,0-2.148-.39l-1.453-.148a13.526,13.526,0,0,1-1.856-.267c-.6-.18-.666-.491-.666-.709a.9.9,0,0,1,.266-.62,1.806,1.806,0,0,1,.766-.479,5.431,5.431,0,0,1,1.648-.227,6.368,6.368,0,0,1,3.717,1.1c.307.206.416.367.416.449,0,.03,0,.071-.008.121Z" transform="translate(2733.703 -16886.803)" fill="#63875e"/>
    <path id="Path_7633" data-name="Path 7633" d="M151.209,724.2a.681.681,0,0,1-.156.331h0a.416.416,0,0,1-.256.061H140.2a.379.379,0,0,1-.239-.059.751.751,0,0,1-.165-.339l-.059-.2h-.773v3.816h.779l.055-.2a.667.667,0,0,1,.156-.33.39.39,0,0,1,.247-.061h3.652v9.309a.409.409,0,0,1-.062.255.69.69,0,0,1-.33.157l-.2.056v.778h4.491V737l-.2-.056a.685.685,0,0,1-.33-.157.4.4,0,0,1-.062-.255v-9.309H150.8a.417.417,0,0,1,.257.061.68.68,0,0,1,.155.33l.055.2h.778V724h-.778Z" transform="translate(2704.499 -16885.998)" fill="#63875e"/>
    <path id="Path_7634" data-name="Path 7634" d="M196.218,737.995a7.247,7.247,0,0,1-.906-1.133l-2.207-3.14a3.609,3.609,0,0,0,3.239-3.813,4.561,4.561,0,0,0-.365-1.813,3.223,3.223,0,0,0-1.192-1.424,4.361,4.361,0,0,0-1.575-.623,12.713,12.713,0,0,0-2.344-.172h-8.18v.778l.2.056a.689.689,0,0,1,.33.157.4.4,0,0,1,.062.255v10.7a.4.4,0,0,1-.062.246.688.688,0,0,1-.33.157l-.2.055v.778h4.491v-.782l-.206-.053a.634.634,0,0,1-.321-.151.38.38,0,0,1-.066-.25V733.9h2.955l2.477,3.6a3.664,3.664,0,0,1,.383.642.6.6,0,0,1-.237.072l-.231.037v.8h5.113v-.827l-.256-.016A.923.923,0,0,1,196.218,737.995Zm-9.632-9.487h3.985a11.53,11.53,0,0,1,1.3.049,1.737,1.737,0,0,1,.615.206,1.419,1.419,0,0,1,0,2.259,1.85,1.85,0,0,1-.621.2,10.7,10.7,0,0,1-1.295.053h-3.985Z" transform="translate(2674.567 -16887.285)" fill="#63875e"/>
    <path id="Path_7635" data-name="Path 7635" d="M231.285,726.655l.2.056a.681.681,0,0,1,.33.157.4.4,0,0,1,.062.246v10.7a.4.4,0,0,1-.062.256.686.686,0,0,1-.33.157l-.2.055v.778h4.491v-.782l-.205-.053a.635.635,0,0,1-.321-.151.423.423,0,0,1-.066-.26v-10.7a.416.416,0,0,1,.065-.254.62.62,0,0,1,.321-.147l.207-.052v-.783h-4.491Z" transform="translate(2641.301 -16887.285)" fill="#63875e"/>
    <path id="Path_7636" data-name="Path 7636" d="M262.316,729.97l.618.411,2.06-3.09-.642-.445-.161.15a.887.887,0,0,1-.229.168,3.754,3.754,0,0,1-.81-.4,13.46,13.46,0,0,0-2.744-1.266,9.555,9.555,0,0,0-2.651-.326c-2.8,0-4.922.891-6.316,2.65a6.53,6.53,0,0,0-1.4,4.16,6.719,6.719,0,0,0,.781,3.212,6.262,6.262,0,0,0,1.857,2.138,8.342,8.342,0,0,0,5.069,1.47,9.544,9.544,0,0,0,2.665-.332,13.316,13.316,0,0,0,2.74-1.264,4.517,4.517,0,0,1,.795-.409s.074.011.243.168l.161.15.642-.446-2.064-3.09-.615.433.021.164a1.67,1.67,0,0,1,.016.205.451.451,0,0,1-.154.313,3.526,3.526,0,0,1-.763.523,6.713,6.713,0,0,1-3.337.891,4.953,4.953,0,0,1-3.278-1.019,4.1,4.1,0,0,1,0-6.2,4.952,4.952,0,0,1,3.277-1.018,6.733,6.733,0,0,1,3.338.887,3.551,3.551,0,0,1,.763.52.447.447,0,0,1,.153.311,1.848,1.848,0,0,1-.017.216Z" transform="translate(2628.463 -16886.803)" fill="#63875e"/>
    <path id="Path_7637" data-name="Path 7637" d="M315,738.222a1.355,1.355,0,0,1-.629-.255h0a7.573,7.573,0,0,1-.936-1.01l-4.694-5.649,4.084-3.28.711-.591c.568-.465.728-.579.773-.606a1.272,1.272,0,0,1,.376-.115l.22-.044v-.794h-5.713v.8l.223.042a.879.879,0,0,1,.308.1,1.081,1.081,0,0,1-.254.261l-4.757,3.883v-3.847a.416.416,0,0,1,.065-.253.619.619,0,0,1,.321-.147l.207-.052v-.783h-4.491v.778l.2.056a.683.683,0,0,1,.33.157.4.4,0,0,1,.062.246v10.7a.4.4,0,0,1-.062.256.686.686,0,0,1-.33.157l-.2.055v.778H305.3v-.782l-.205-.053a.633.633,0,0,1-.321-.151.421.421,0,0,1-.066-.26v-3.258l1.59-1.284,3.547,4.352a4.073,4.073,0,0,1,.368.51.772.772,0,0,1-.256.088l-.218.045v.793h5.487v-.8Z" transform="translate(2593.71 -16887.285)" fill="#63875e"/>
  </g>
</svg>
