<svg xmlns="http://www.w3.org/2000/svg" width="76.984" height="13.999" viewBox="0 0 76.984 13.999">
  <g id="Group_11799" data-name="Group 11799" transform="translate(-2830 16131.999)">
    <path id="Path_7638" data-name="Path 7638" d="M101.874,789.935H97.23l-.828,9.4s-.1,1.087-.1,1.408a2.314,2.314,0,0,0,1.624,2.606,18.767,18.767,0,0,0,8.542.079,3.268,3.268,0,0,0,2.119-3.328l.519-10.182-5.027.014-.8,8.661c-.023.3-.169,1.841-.808,1.846a1.485,1.485,0,0,1-1.016-.168c-.345-.273-.349-.847-.22-2.037Z" transform="translate(2733.703 -16921.902)" fill="#ef4949"/>
    <path id="Path_7639" data-name="Path 7639" d="M171.8,803.93h6.447l2.328-13.966h-5.126Z" transform="translate(2682.325 -16921.932)" fill="#ef4949"/>
    <path id="Path_7640" data-name="Path 7640" d="M198.159,803.93h8.546l.9-4.728-3.834.492,2-9.731H200.39Z" transform="translate(2664.392 -16921.932)" fill="#ef4949"/>
    <path id="Path_7641" data-name="Path 7641" d="M229.727,803.93l2.641-13.966h4.989L236,803.93Z" transform="translate(2642.911 -16921.932)" fill="#ef4949"/>
    <path id="Path_7642" data-name="Path 7642" d="M143.158,793l-2.855.619.4-3.726,10.118-.033-.285,4-2.712-.952-.3,10.954H140.69Z" transform="translate(2703.759 -16921.859)" fill="#ef4949"/>
    <path id="Path_7643" data-name="Path 7643" d="M258.645,793.071l-2.855.619.4-3.726H266.3l-.283,3.964-2.712-.952L263,803.93h-6.827Z" transform="translate(2625.177 -16921.932)" fill="#ef4949"/>
    <path id="Path_7644" data-name="Path 7644" d="M297.438,797.164l-.855,6.766h6.083l.235-6.164,5.16-7.8h-5.02l-2.455,4.734-.661-4.734h-5.551Z" transform="translate(2598.921 -16921.932)" fill="#ef4949"/>
  </g>
</svg>
