<svg xmlns="http://www.w3.org/2000/svg" width="75.074" height="14" viewBox="0 0 75.074 14">
  <g id="Group_11798" data-name="Group 11798" transform="translate(-2830 16102)">
    <path id="Path_7647" data-name="Path 7647" d="M110,858.176l.589-2.316h-3.752l-3.371,8.657-.321-7.384h-5.65l-1.2,1.9h4.038l.508,10.828h3.641l4.578-11.684Z" transform="translate(2733.703 -16957.859)" fill="#5673aa"/>
    <path id="Path_7648" data-name="Path 7648" d="M147.236,873.363l-5.2,12.913h3.106l.889-2.6h1.411l-.36,2.6h3.208l.977-12.913Zm.488,8.261h-.995l1.672-4.9Z" transform="translate(2698.469 -16974.359)" fill="#5673aa"/>
    <path id="Path_7649" data-name="Path 7649" d="M254.918,873.363l-5.2,12.913h3.106l.889-2.6h1.412l-.36,2.6h3.208l.977-12.913Zm.487,8.261h-.995l1.672-4.9Z" transform="translate(2626.664 -16974.359)" fill="#5673aa"/>
    <path id="Path_7650" data-name="Path 7650" d="M177.474,873.363l-1.443,6.09-.071-6.09H172.8l-3.06,12.913H172.6l1.577-6.055.07,6.055h3.024l3.364-12.913Z" transform="translate(2679.992 -16974.357)" fill="#5673aa"/>
    <path id="Path_7651" data-name="Path 7651" d="M287.4,877.29c.009-.034.016-.064.022-.088a.2.2,0,0,0,.005-.021l.008-.032,0-.015a.074.074,0,0,0,0-.012l0-.008.111-.468,0-.009,0-.011a.143.143,0,0,0,0-.015l.151-.639a2.677,2.677,0,0,0-.23-2.019,3.024,3.024,0,0,0-1.986-.588h-5.009l-3.06,12.913h3.421l1.214-5.122h.457a.419.419,0,0,1,.407.516l-1.078,4.605h3.42l.9-3.816v0l.057-.242a.1.1,0,0,1,0-.02c.433-2.125-1.147-2.288-1.147-2.288C286.623,879.816,287.241,877.89,287.4,877.29Zm-3.079-1.393-.568,2.4a.487.487,0,0,1-.037.1.568.568,0,0,1-.517.333h-.559l.769-3.245H284a.328.328,0,0,1,.33.322A.3.3,0,0,1,284.317,875.9Z" transform="translate(2608.187 -16974.359)" fill="#5673aa"/>
    <path id="Path_7652" data-name="Path 7652" d="M312.554,873.356h-.081v0H310.1v.01l-2.2-.007-3.06,12.913,3.305.01,0-.01h2.113a2.73,2.73,0,0,0,2.654-2.089l2.2-9.081C315.354,874.155,314.9,873.356,312.554,873.356Zm-.921,2.464-1.861,7.853a.607.607,0,0,1-.591.467h-.528l2.051-8.657h.664A.273.273,0,0,1,311.633,875.821Z" transform="translate(2589.906 -16974.352)" fill="#5673aa"/>
    <path id="Path_7653" data-name="Path 7653" d="M300.635,873.358h.212C300.717,873.354,300.635,873.358,300.635,873.358Z" transform="translate(2576.291 -16971.338)" fill="#5673aa"/>
    <path id="Path_7654" data-name="Path 7654" d="M307.945,881.187l-.1.44A4.224,4.224,0,0,0,307.945,881.187Z" transform="translate(2570.74 -16977.371)" fill="#5673aa"/>
    <path id="Path_7655" data-name="Path 7655" d="M226.231,886.48l0,0v0Z" transform="translate(2642.327 -16983.104)" fill="#5673aa"/>
    <path id="Path_7656" data-name="Path 7656" d="M206.559,873.362h-3.583a2.73,2.73,0,0,0-2.653,2.089l-2.045,8.459c-.455,1.881.348,2.366,2.454,2.366a3.62,3.62,0,0,0,2.843-.925l.469.925h1.408l1.573-6.661h-3.943l-.477,2.077h.592l-.493,2.014a.6.6,0,0,1-.553.5c-.267.006-.489-.129-.413-.495l1.893-7.829.016-.065,0-.014a.608.608,0,0,1,.54-.42.416.416,0,0,1,.42.5l-.1.417v0l-.329,1.424h3.325v0l.585-2.421A1.579,1.579,0,0,0,206.559,873.362Z" transform="translate(2661.047 -16974.357)" fill="#5673aa"/>
    <line id="Line_2679" data-name="Line 2679" y1="0.001" transform="translate(2859.838 -16094.969)" fill="#0747b9"/>
    <path id="Path_7657" data-name="Path 7657" d="M232.226,873.362,229.708,883.7l0-.02a.621.621,0,0,1-.57.5c-.279,0-.528-.057-.446-.505l2.507-10.312h-3.327l-2.65,10.964a1.578,1.578,0,0,0,1.534,1.949h3.583A2.73,2.73,0,0,0,233,884.187l2.617-10.825Z" transform="translate(2643.025 -16974.359)" fill="#5673aa"/>
  </g>
</svg>
