<svg xmlns="http://www.w3.org/2000/svg" width="89.63" height="13" viewBox="0 0 89.63 13">
  <g id="Group_11797" data-name="Group 11797" transform="translate(-2830 16071)">
    <path id="Path_7658" data-name="Path 7658" d="M344.609,1014.1l1.788-5.351h4.357L349,1014.1h4.2l4.373-13h-4.21l-1.743,5.111h-4.357l1.688-5.111h-4.237l-4.185,13Z" transform="translate(2562.058 -17072.098)" fill="#ef4949"/>
    <path id="Path_7659" data-name="Path 7659" d="M154.767,1014.1l2.35-3.181h4.671l.232,3.181h3.908l-1.219-13h-3.532l-10.23,13Zm6.58-8.844.257,3.438h-2.813Z" transform="translate(2695.296 -17072.098)" fill="#ef4949"/>
    <path id="Path_7660" data-name="Path 7660" d="M203.324,1014.1h10.131c.605-.072,3.738-1.792,3.892-4.335.156-2.577-1.015-3.029-1.015-3.029a3.064,3.064,0,0,0,1.889-4.028,3.114,3.114,0,0,0-2.456-1.607h-8.224l-.173.551Zm7.429-10.444s2.847-.083,3.365,0,.516.711.386,1.158a1.452,1.452,0,0,1-.865.919,11.815,11.815,0,0,1-3.567.276Zm-1.949,6.214.165-.515.405-1.213c3.089.11,4.573-.313,4.192,1.213a2.287,2.287,0,0,1-2.243,2.022l-2.979-.018Z" transform="translate(2658.485 -17072.098)" fill="#ef4949"/>
    <path id="Path_7661" data-name="Path 7661" d="M100.166,1014.1l6.225-8.716-.834,8.716h4.649l10.305-13H115.75l-5.774,7.63.48-7.63h-4.368l-5.912,8.292.7-8.292H96.3v13Z" transform="translate(2733.703 -17072.098)" fill="#ef4949"/>
    <path id="Path_7662" data-name="Path 7662" d="M248.259,1014.1l2.35-3.181h4.671l.232,3.181h4.15l-1.522-13h-3.485l-10.448,13Zm6.579-8.844.258,3.438h-2.814Z" transform="translate(2629.752 -17072.098)" fill="#ef4949"/>
    <path id="Path_7663" data-name="Path 7663" d="M309.714,1011.012c1.553-2.532.809-4.32-2.81-5.278s-2.766-1.745-2.32-2.021,2.384-.745,3.086.574h3.809s.892-3.054-4.085-3.189h-.723a10.316,10.316,0,0,0-4.746,1.146c-1.682,1.064-3.193,3.6-1.32,4.958s4.832,2.064,5.171,2.49-.679,1.6-1.935,1.574-1.915-.681-1.915-1.4H297.52a4.67,4.67,0,0,0,1.98,3.256,7.137,7.137,0,0,0,3.98.98C304.671,1014.1,308.162,1013.544,309.714,1011.012Z" transform="translate(2592.284 -17072.098)" fill="#ef4949"/>
  </g>
</svg>
