<svg xmlns="http://www.w3.org/2000/svg" width="18" height="14" viewBox="0 0 18 14">
  <path id="Path_7736" data-name="Path 7736" d="M138.934,110.762H124.89a2.01,2.01,0,0,0-1.978,2.041v9.918a2.011,2.011,0,0,0,1.978,2.041h14.043a2.011,2.011,0,0,0,1.978-2.041V112.8A2.013,2.013,0,0,0,138.934,110.762Zm-1.3,9.33a.694.694,0,0,1,.135.952.652.652,0,0,1-.529.274.642.642,0,0,1-.393-.135l-3.347-2.572-1.195.918a.642.642,0,0,1-.788,0l-1.2-.918-3.347,2.572a.642.642,0,0,1-.393.135.652.652,0,0,1-.529-.274.694.694,0,0,1,.135-.952l3.031-2.33-3.031-2.33a.694.694,0,0,1-.135-.952.647.647,0,0,1,.923-.139l4.936,3.794,4.936-3.794a.646.646,0,0,1,.922.139.694.694,0,0,1-.135.952l-3.032,2.33Z" transform="translate(-122.912 -110.762)" fill="#b7b7b7"/>
</svg>
