<svg xmlns="http://www.w3.org/2000/svg" width="18" height="14" viewBox="0 0 18 14">
  <path id="Path_10452" data-name="Path 10452" d="M178.548,164.017h-16a1.016,1.016,0,0,0-1,1.032v11.937a1.017,1.017,0,0,0,1,1.032h16a1.017,1.017,0,0,0,1-1.032V165.049A1.016,1.016,0,0,0,178.548,164.017Zm-14,3.714a.688.688,0,0,1,.956-.264.736.736,0,0,1,.13.1l4.915,3.777,4.914-3.777a.685.685,0,0,1,.989.033.737.737,0,0,1-.031,1.02.713.713,0,0,1-.126.1l-2.993,2.3,2.993,2.3a.735.735,0,0,1,.251.988.686.686,0,0,1-1.082.163l-3.326-2.556-1.173.9a.682.682,0,0,1-.832,0l-1.173-.9-3.326,2.556a.689.689,0,0,1-.958-.259.739.739,0,0,1,.127-.892l2.993-2.3-2.993-2.3A.733.733,0,0,1,164.547,167.731Z" transform="translate(-161.548 -164.017)" fill="#ff5d5d"/>
</svg>
