<svg xmlns="http://www.w3.org/2000/svg" width="200" height="157" viewBox="0 0 200 157">
  <g id="Rectangle_1713" data-name="Rectangle 1713" fill="#f3f3f3" stroke="#fff" stroke-width="2" stroke-dasharray="4 5">
    <rect width="200" height="157" rx="3" stroke="none"/>
    <rect x="1" y="1" width="198" height="155" rx="2" fill="none"/>
  </g>
  <text id="Drag_file_here_or_click_to_add" data-name="Drag file here
or click to add" transform="translate(100 127)" fill="#919191" font-size="12" font-family="Montserrat-SemiBold, Montserrat" font-weight="600"><tspan x="-42.534" y="0">Drag file here</tspan><tspan x="-43.776" y="15">or click to add</tspan></text>
  <g id="Group_34542" data-name="Group 34542" transform="translate(-738.578 -306.708)">
    <circle id="Ellipse_3223" data-name="Ellipse 3223" cx="7.037" cy="7.037" r="7.037" transform="translate(812.967 400.257) rotate(-45)" fill="#b7b7b7" opacity="0.2" style="mix-blend-mode: multiply;isolation: isolate"/>
    <g id="Bcg" transform="translate(802.463 330.209)">
      <path id="Path_12272" data-name="Path 12272" d="M667.831,671.418c.29-4.265,1.506-22.151,14.976-30.754,15.415-9.846,38.769-2.354,50.455,12.563,7.12,9.089,12.534,24.285,6.634,37.187-10.034,21.939-47.867,26.495-63.622,10.553C666.495,691.071,667.545,675.63,667.831,671.418Z" transform="translate(-667.653 -636.21)" fill="#fff"/>
      <circle id="Ellipse_3224" data-name="Ellipse 3224" cx="2.918" cy="2.918" r="2.918" transform="translate(43.565 1.35)" fill="#5673aa"/>
      <circle id="Ellipse_3225" data-name="Ellipse 3225" cx="1.683" cy="1.683" r="1.683" transform="translate(51.416 75.952) rotate(-45)" fill="#5673aa"/>
    </g>
    <g id="Lock" transform="translate(815.361 392.319)">
      <circle id="Ellipse_3226" data-name="Ellipse 3226" cx="7.037" cy="7.037" r="7.037" fill="#24c1a1"/>
      <g id="Group_32972" data-name="Group 32972" transform="translate(2.744 2.872)">
        <path id="Path_12292" data-name="Path 12292" d="M1251.575,3107.172l-1.36,1.282a3.119,3.119,0,0,0-.13,4.4l.252.267a3.119,3.119,0,0,0,4.4.13l1.36-1.282a.72.72,0,0,0,.03-1.018l-3.53-3.745A.719.719,0,0,0,1251.575,3107.172Z" transform="translate(-1249.242 -3105.493)" fill="#fff"/>
        <path id="Path_12293" data-name="Path 12293" d="M1389.363,3054.183l.913-.861a1.57,1.57,0,0,1,2.154,2.285l-.913.861.593.63.913-.861a2.435,2.435,0,1,0-3.34-3.543l-.913.861Z" transform="translate(-1385.005 -3052.032)" fill="#fff"/>
        <path id="Path_12294" data-name="Path 12294" d="M1340.754,3210.186a.735.735,0,1,0-1.193-.278l-.458.431a.286.286,0,1,0,.392.416l.458-.432A.735.735,0,0,0,1340.754,3210.186Z" transform="translate(-1336.59 -3204.683)" fill="#52d1bd"/>
      </g>
    </g>
    <g id="Blue" transform="translate(830.946 345.899)">
      <path id="Path_12273" data-name="Path 12273" d="M1868.008,1364.763a1.367,1.367,0,0,1-.154-.009l-33.951-3.8a1.378,1.378,0,0,1-1.213-1.519l5-44.691a1.378,1.378,0,0,1,1.519-1.214l33.951,3.8a1.379,1.379,0,0,1,1.214,1.519l-5,44.691a1.38,1.38,0,0,1-1.365,1.222Zm-28.956-50.907a1.048,1.048,0,0,0-1.037.928l-5,44.692a1.047,1.047,0,0,0,.921,1.153l33.951,3.8a1.047,1.047,0,0,0,1.153-.921l5-44.691a1.047,1.047,0,0,0-.921-1.153l-33.951-3.8A1.037,1.037,0,0,0,1839.053,1313.856Z" transform="translate(-1829.928 -1311.14)" fill="#344566"/>
      <g id="Group_32970" data-name="Group 32970" transform="translate(0)">
        <path id="Path_12274" data-name="Path 12274" d="M1764.443,1280.074l-32.883-9.264a1.213,1.213,0,0,1-.836-1.492l12.2-43.285a1.213,1.213,0,0,1,1.492-.836l32.883,9.265a1.213,1.213,0,0,1,.836,1.492l-12.2,43.285A1.213,1.213,0,0,1,1764.443,1280.074Z" transform="translate(-1730.679 -1225.152)" fill="#5673aa"/>
        <path id="Path_12275" data-name="Path 12275" d="M2460.535,1558.29l-15.965-4.5a.9.9,0,0,1-.619-1.1h0a.9.9,0,0,1,1.1-.619l15.964,4.5a.9.9,0,0,1,.618,1.1h0A.9.9,0,0,1,2460.535,1558.29Z" transform="translate(-2424.674 -1543.217)" fill="#b3cef6"/>
        <path id="Path_12276" data-name="Path 12276" d="M2247.274,1698.492l-25.146-7.085a.9.9,0,0,1-.619-1.1h0a.9.9,0,0,1,1.1-.618l25.147,7.085a.9.9,0,0,1,.618,1.1h0A.9.9,0,0,1,2247.274,1698.492Z" transform="translate(-2208.232 -1677.119)" fill="#344566"/>
        <path id="Path_12277" data-name="Path 12277" d="M2205.877,1845.425l-25.146-7.085a.9.9,0,0,1-.619-1.1h0a.9.9,0,0,1,1.1-.619l25.146,7.085a.9.9,0,0,1,.618,1.1h0A.9.9,0,0,1,2205.877,1845.425Z" transform="translate(-2167.953 -1820.088)" fill="#344566"/>
        <path id="Path_12278" data-name="Path 12278" d="M2164.48,1992.359l-25.146-7.085a.9.9,0,0,1-.619-1.1h0a.9.9,0,0,1,1.1-.618l25.147,7.085a.9.9,0,0,1,.619,1.1h0A.9.9,0,0,1,2164.48,1992.359Z" transform="translate(-2127.673 -1963.057)" fill="#344566"/>
        <path id="Path_12279" data-name="Path 12279" d="M2123.084,2139.292l-25.146-7.085a.9.9,0,0,1-.619-1.1h0a.9.9,0,0,1,1.1-.619l25.147,7.085a.9.9,0,0,1,.618,1.1h0A.9.9,0,0,1,2123.084,2139.292Z" transform="translate(-2087.394 -2106.026)" fill="#344566"/>
        <path id="Path_12280" data-name="Path 12280" d="M2081.687,2286.226l-25.146-7.085a.9.9,0,0,1-.619-1.1h0a.9.9,0,0,1,1.1-.619l25.147,7.085a.9.9,0,0,1,.618,1.1h0A.9.9,0,0,1,2081.687,2286.226Z" transform="translate(-2047.114 -2248.995)" fill="#344566"/>
        <path id="Path_12281" data-name="Path 12281" d="M2040.29,2433.159l-25.147-7.084a.9.9,0,0,1-.619-1.1h0a.9.9,0,0,1,1.1-.618l25.147,7.084a.9.9,0,0,1,.619,1.1h0A.9.9,0,0,1,2040.29,2433.159Z" transform="translate(-2006.834 -2391.964)" fill="#344566"/>
        <path id="Path_12282" data-name="Path 12282" d="M1998.893,2580.093l-25.147-7.084a.9.9,0,0,1-.619-1.1h0a.9.9,0,0,1,1.1-.618l25.147,7.084a.9.9,0,0,1,.618,1.1h0A.9.9,0,0,1,1998.893,2580.093Z" transform="translate(-1966.554 -2534.933)" fill="#b3cef6"/>
        <path id="Path_12283" data-name="Path 12283" d="M1957.5,2727.026l-25.147-7.084a.9.9,0,0,1-.618-1.1h0a.9.9,0,0,1,1.1-.618l25.147,7.085a.9.9,0,0,1,.618,1.1h0A.9.9,0,0,1,1957.5,2727.026Z" transform="translate(-1926.275 -2677.902)" fill="#344566"/>
      </g>
    </g>
    <g id="Yellow" transform="translate(799 332.873)">
      <path id="Path_12274-2" data-name="Path 12274" d="M558.7,792.839H558.7c-.05,0-.094,0-.136-.005l-.018,0h-.006c-.037,0-.076-.009-.115-.016h-.008l-.031-.005c-.041-.008-.083-.018-.123-.029l-.035-.01-.008,0c-.033-.01-.065-.021-.1-.033h0l-.044-.017c-.033-.013-.065-.028-.1-.045l-.049-.025c-.038-.02-.071-.039-.1-.058l-.044-.029-.013-.009-.063-.045-.05-.039c-.022-.018-.045-.037-.069-.06l-.009-.008-.028-.026c-.036-.035-.068-.068-.1-.1l-.013-.016,0,0c-.026-.031-.052-.064-.076-.1l-.025-.036,0,0c-.02-.03-.04-.061-.058-.093l-.005-.009-.017-.03c-.027-.049-.049-.094-.068-.137l-.1-.236L539.449,751.1c-.02-.047-.039-.1-.056-.15,0-.011-.007-.023-.01-.035l0-.014c-.009-.031-.019-.067-.027-.1,0-.015-.006-.03-.009-.044l0-.013c-.007-.037-.012-.068-.015-.1s0-.04-.006-.06,0-.064-.006-.094,0-.04,0-.06,0-.059,0-.094v-.01c0-.016,0-.033,0-.049,0-.033.008-.065.013-.092l0-.015c0-.014,0-.028.007-.043.006-.03.013-.056.019-.082l0-.007a1.64,1.64,0,0,1,.07-.218l.01-.023,0-.007c.02-.046.039-.086.058-.123l.018-.032.007-.012c.022-.039.042-.071.062-.1l.031-.044,0,0c.023-.032.046-.061.069-.089l.041-.048c.023-.026.048-.051.076-.079l0,0,.043-.041c.031-.028.062-.053.086-.071l.012-.01L540,749.1c.035-.025.069-.047.1-.067l.013-.008.035-.022a1.64,1.64,0,0,1,.161-.081l31.8-13.839a1.666,1.666,0,0,1,.169-.062l.039-.011.015,0c.035-.01.075-.02.117-.029l.049-.008.016,0c.034-.005.07-.011.109-.014l.058,0h.008c.039,0,.074,0,.107,0l.066,0c.034,0,.069.005.107.01h0l.059.008c.034.005.069.013.111.023l.014,0,.041.01c.038.01.077.023.123.039l.009,0,.028.009a1.652,1.652,0,0,1,.212.1l.009.005c.021.012.043.024.066.038l.035.023.013.009c.025.017.052.035.079.056l.038.03.006.005c.028.022.052.043.074.063l.041.039c.023.023.046.046.068.071l.038.044c.019.023.039.048.061.079l.008.01.026.036c.021.03.04.062.057.091l.008.012.018.031c.028.05.051.1.071.143l17.733,40.75c.019.043.036.089.054.143l.01.032,0,.011c.011.035.02.071.028.106l0,.008.008.038c.008.041.015.082.02.123v0c0,.006,0,.013,0,.019,0,.047.008.093.009.143,0,.012,0,.025,0,.038v.013c0,.033,0,.063,0,.091s0,.042-.005.063-.006.05-.01.076a1.658,1.658,0,0,1-.056.244l-.009.028,0,.011c-.016.046-.033.091-.052.133l-.02.044h0c-.02.043-.043.085-.068.129l-.005.009-.014.024a1.633,1.633,0,0,1-.106.153l-.011.014c-.033.041-.07.082-.109.122l-.031.03-.01.01c-.032.03-.065.059-.1.085l-.051.04c-.033.025-.068.049-.108.074l-.013.008-.037.023a1.669,1.669,0,0,1-.171.087l-31.8,13.839c-.042.018-.089.036-.141.053h0l-.026.008c-.047.015-.093.027-.139.037l-.018,0h-.007c-.044.009-.087.016-.128.021h-.005l-.017,0c-.044,0-.089.007-.138.008Zm14.069-57.562-.066,0H572.7l-.045,0c-.029,0-.059.007-.087.011l-.018,0-.033.005c-.031.006-.065.015-.093.023l-.023.006-.02.005a1.331,1.331,0,0,0-.136.05l-31.8,13.839a1.336,1.336,0,0,0-.129.065l-.018.011-.02.012c-.027.017-.056.035-.081.053l-.025.02-.015.012c-.021.016-.046.036-.069.057l-.034.032,0,0c-.023.022-.043.043-.061.063l-.033.038c-.018.022-.036.045-.055.071l0,0-.024.034c-.016.024-.032.05-.05.081l-.009.015-.011.02c-.015.028-.03.06-.046.1l-.008.017,0,.007a1.291,1.291,0,0,0-.056.175l0,.007c-.006.023-.011.044-.015.064s0,.018,0,.027l0,.019c0,.023-.008.049-.01.074s0,.024,0,.036v.011c0,.029,0,.053,0,.075s0,.032,0,.048,0,.05,0,.075,0,.032,0,.048.007.046.012.077l0,.014c0,.01,0,.021.006.031.006.028.014.056.022.083l.006.02c0,.006,0,.013.005.019.014.044.029.083.045.12l17.733,40.75c.015.034.033.07.055.11l.012.021.006.01c.015.025.031.05.047.074l0,0,.019.028c.019.027.04.053.061.078l.01.013,0,0c.023.026.049.053.078.081l.019.017.011.01c.02.018.038.033.055.047l.04.031.051.036.015.01.031.021c.023.015.05.03.081.046l.039.02c.028.014.054.025.079.036l.035.014.08.027.008,0,.026.008c.032.009.065.017.1.023l.021,0,.01,0c.032.005.063.01.093.013h.02c.032,0,.067,0,.108,0h.029c.04,0,.076,0,.11-.007l.018,0c.033,0,.067-.009.1-.016l.021,0c.036-.008.073-.018.111-.029l.019-.006h0c.044-.015.08-.028.114-.043l31.8-13.839a1.317,1.317,0,0,0,.137-.07l.023-.015.016-.01c.033-.021.061-.04.087-.059l.04-.031c.026-.021.051-.043.077-.068l.013-.012.02-.019a1.3,1.3,0,0,0,.089-.1l.009-.011a1.288,1.288,0,0,0,.083-.12l.006-.01.009-.016c.021-.036.039-.069.055-.1h0l.016-.036c.015-.034.029-.07.042-.107l0-.014.006-.018a1.348,1.348,0,0,0,.045-.2c0-.02.006-.04.008-.06s0-.034,0-.051,0-.046,0-.073v-.015c0-.008,0-.017,0-.025,0-.041,0-.078-.007-.114v0l0-.015c0-.033-.009-.066-.016-.1,0-.01,0-.019-.006-.028l0-.008c-.006-.028-.014-.056-.022-.084l0-.012-.007-.023c-.015-.044-.028-.081-.043-.115L573.98,736.07c-.016-.037-.035-.074-.057-.115l-.01-.017-.011-.018c-.017-.028-.031-.051-.046-.073l-.018-.025-.009-.012c-.018-.025-.034-.045-.049-.062l-.031-.035c-.017-.019-.036-.038-.054-.056l-.033-.032c-.017-.016-.035-.032-.059-.05l-.007-.006-.028-.023c-.02-.015-.042-.03-.063-.044l-.016-.011-.022-.015-.05-.029-.01-.005a1.331,1.331,0,0,0-.17-.08l-.011,0-.019-.006c-.038-.014-.07-.024-.1-.031l-.027-.006-.017,0c-.035-.008-.063-.014-.089-.018l-.046-.006h0l-.086-.008-.053,0Z" transform="translate(-539.313 -734.945)" fill="#344566"/>
      <path id="Path_12275-2" data-name="Path 12275" d="M675.378,886.105l.024-.037q.035-.054.065-.111l.017-.033a1.487,1.487,0,0,0,.084-.209c.007-.022.014-.044.02-.066s.009-.037.014-.055.011-.053.016-.08.005-.03.008-.046c.006-.042.01-.085.013-.128,0-.007,0-.014,0-.021q0-.056,0-.112c0-.014,0-.028,0-.042q0-.049-.01-.1c0-.013,0-.027-.006-.04-.007-.045-.016-.09-.028-.135l-.064-.248h0L664.6,842.4h0l-.138-.532c-.012-.047-.027-.093-.043-.137-.005-.014-.011-.028-.017-.042-.012-.03-.024-.06-.038-.089l-.024-.046c-.014-.027-.028-.053-.043-.078l-.028-.044c-.016-.025-.032-.049-.05-.072l-.031-.041c-.018-.023-.037-.045-.057-.067l-.034-.037c-.02-.021-.041-.041-.062-.061l-.037-.035c-.02-.017-.04-.033-.061-.049a1.5,1.5,0,0,0-.174-.119l-.031-.016c-.034-.019-.069-.036-.1-.052l-.047-.019c-.031-.013-.063-.025-.1-.036l-.054-.016c-.031-.009-.062-.017-.094-.024l-.058-.012c-.032-.006-.063-.01-.1-.013l-.06-.006c-.033,0-.066,0-.1,0h-.058c-.036,0-.072,0-.108.009l-.051.005a1.55,1.55,0,0,0-.159.032l-33.578,8.684a1.538,1.538,0,0,0-.154.049l-.046.02c-.034.014-.067.029-.1.045l-.05.028c-.029.016-.058.033-.086.051l-.048.033c-.027.019-.053.039-.079.06l-.043.036c-.025.022-.05.045-.074.069l-.037.038c-.024.026-.047.053-.07.081l-.029.036c-.025.033-.047.066-.069.1l-.016.025a1.481,1.481,0,0,0-.094.185c-.011.025-.022.05-.031.076s-.011.034-.016.051-.017.053-.024.08-.008.035-.012.052-.012.055-.016.082-.005.036-.008.054-.006.056-.008.085,0,.036,0,.054,0,.058,0,.088,0,.035,0,.052.006.064.01.1c0,.015,0,.03.005.045.008.047.017.094.029.141l.138.533h0l10.925,42.244h0l.064.249c.012.045.026.089.041.132l.015.038q.018.046.039.091l.018.038q.025.05.054.1l.011.019c.023.036.047.072.073.106l.029.036c.017.021.035.042.053.063l.039.042.05.049.046.042c.026.023.053.044.081.065l.041.029c.026.018.053.036.081.053l.04.023q.04.022.081.042l.036.017q.052.024.105.043l.034.012c.033.011.066.021.1.03l.022.006c.039.01.079.017.12.024l.032,0c.041.006.082.01.123.012h.021q.058,0,.116,0h.024q.064,0,.128-.013l.028,0c.044-.007.089-.016.133-.027l33.578-8.684a1.5,1.5,0,0,0,.164-.054l.049-.021c.037-.016.072-.032.107-.05l.051-.028c.034-.019.066-.04.1-.062l.042-.029a1.483,1.483,0,0,0,.116-.1l.01-.009a1.446,1.446,0,0,0,.116-.12l.022-.027C675.327,886.176,675.353,886.141,675.378,886.105Z" transform="translate(-625.569 -837.899)" fill="#6c6c6c" opacity="0.2" style="mix-blend-mode: multiply;isolation: isolate"/>
      <g id="Group_32971" data-name="Group 32971" transform="translate(2.58 1.604)">
        <path id="Path_12286" data-name="Path 12286" d="M671.436,795.522l11.127,43.025a1.489,1.489,0,0,1-1.068,1.813l-33.578,8.684a1.489,1.489,0,0,1-1.812-1.068l-11.127-43.025a1.488,1.488,0,0,1,1.068-1.812l33.578-8.684a1.488,1.488,0,0,1,1.813,1.068Z" transform="translate(-634.93 -794.407)" fill="#ffc06e"/>
        <path id="Path_12287" data-name="Path 12287" d="M671.438,795.52l.138.532-1.659,5.163-15.374,4.18-15.474,3.8-3.952-3.711-.138-.533a1.487,1.487,0,0,1,1.068-1.812l33.578-8.684A1.487,1.487,0,0,1,671.438,795.52Z" transform="translate(-634.931 -794.405)" fill="#d89444"/>
        <path id="Path_12288" data-name="Path 12288" d="M1083.178,2326.416l.064.248a1.487,1.487,0,0,1-1.068,1.813l-33.578,8.684a1.487,1.487,0,0,1-1.812-1.067l-.064-.249,1.152-3.376a.929.929,0,0,1,.635-.587l31.187-8.065a.935.935,0,0,1,.841.205Z" transform="translate(-1035.608 -2282.523)" fill="#d89444"/>
        <path id="Path_12289" data-name="Path 12289" d="M1102.317,2327.644a1.483,1.483,0,0,1-1.024.93l-33.578,8.684a1.485,1.485,0,0,1-1.347-.317l.7-4.353a.754.754,0,0,1,.555-.61l31.187-8.065a.756.756,0,0,1,.782.264Z" transform="translate(-1054.727 -2282.62)" fill="#ffad43"/>
        <path id="Path_12290" data-name="Path 12290" d="M675.958,794.689l-.928,6.437a.454.454,0,0,1-.337.377l-30.121,7.79a.456.456,0,0,1-.478-.166l-3.932-5.179a1.485,1.485,0,0,1,.974-.809l33.578-8.684A1.484,1.484,0,0,1,675.958,794.689Z" transform="translate(-640.021 -794.407)" fill="#ffad43"/>
        <path id="Path_12291" data-name="Path 12291" d="M1272,1047.861a1.413,1.413,0,0,1-1.366-1.057l-2.963-11.458a1.414,1.414,0,0,1,1.013-1.719l.686-.177a1.413,1.413,0,0,1,1.719,1.013l2.963,11.458a1.414,1.414,0,0,1-1.013,1.719h0l-.686.177A1.414,1.414,0,0,1,1272,1047.861Zm-2.278-14.054a1,1,0,0,0-.252.032l-.686.177a1.011,1.011,0,0,0-.723,1.228l2.963,11.458a1.009,1.009,0,0,0,1.228.723l.686-.177a1.011,1.011,0,0,0,.723-1.228l-2.963-11.458A1.01,1.01,0,0,0,1269.72,1033.807Z" transform="translate(-1250.552 -1026.955)" fill="#444"/>
        <circle id="Ellipse_3223-2" data-name="Ellipse 3223" cx="1.97" cy="1.97" r="1.97" transform="translate(16.111 8.23) rotate(-45)" fill="#fff"/>
        <circle id="Ellipse_3224-2" data-name="Ellipse 3224" cx="1.97" cy="1.97" r="1.97" transform="translate(19.82 17.447)" fill="#fff"/>
      </g>
    </g>
    <g id="Whitepaper" transform="translate(827.194 343.786)">
      <path id="Path_12276-2" data-name="Path 12276" d="M1665.866,1176.656l-27.584-2.875a1.967,1.967,0,0,0-2.16,1.752l-4.508,43.248a1.967,1.967,0,0,0,1.752,2.16l33.542,3.5a1.967,1.967,0,0,0,2.16-1.752l3.887-37.29Z" transform="translate(-1630.524 -1172.939)" fill="#6c6c6c" opacity="0.25" style="mix-blend-mode: multiply;isolation: isolate"/>
      <g id="Group_32973" data-name="Group 32973">
        <path id="Path_12296" data-name="Path 12296" d="M1625.878,1145.849l-27.584-2.875a1.967,1.967,0,0,0-2.16,1.752l-4.508,43.248a1.967,1.967,0,0,0,1.753,2.16l33.542,3.5a1.967,1.967,0,0,0,2.16-1.752l3.887-37.29Z" transform="translate(-1591.615 -1142.964)" fill="#fff"/>
        <path id="Path_12297" data-name="Path 12297" d="M2838.074,1255.876a1.967,1.967,0,0,0,1.752,2.16l5.958.621-7.09-8.74Z" transform="translate(-2804.432 -1247.032)" fill="#ededed"/>
        <path id="Path_12298" data-name="Path 12298" d="M2891.992,1548.7l6.162,1.681.1-1Z" transform="translate(-2856.906 -1537.748)" fill="#cecece"/>
        <path id="Path_12299" data-name="Path 12299" d="M2101.255,1471.237l-16.868-1.758a.834.834,0,0,1-.741-.913h0a.834.834,0,0,1,.913-.741l16.868,1.758a.834.834,0,0,1,.74.913h0A.833.833,0,0,1,2101.255,1471.237Z" transform="translate(-2070.366 -1459.055)" fill="#24c1a1"/>
        <path id="Path_12300" data-name="Path 12300" d="M1886.412,1659.138l-27.887-2.907a.834.834,0,0,1-.741-.913h0a.834.834,0,0,1,.913-.741l27.887,2.906a.834.834,0,0,1,.741.913h0A.834.834,0,0,1,1886.412,1659.138Z" transform="translate(-1850.599 -1640.769)" fill="#eee"/>
        <path id="Path_12301" data-name="Path 12301" d="M1870.151,1815.161l-27.887-2.907a.834.834,0,0,1-.741-.913h0a.834.834,0,0,1,.913-.741l27.886,2.907a.834.834,0,0,1,.741.913h0A.834.834,0,0,1,1870.151,1815.161Z" transform="translate(-1834.776 -1792.583)" fill="#eee"/>
        <path id="Path_12302" data-name="Path 12302" d="M1853.888,1971.187,1826,1968.28a.834.834,0,0,1-.741-.913h0a.834.834,0,0,1,.913-.741l27.887,2.906a.834.834,0,0,1,.741.913h0A.834.834,0,0,1,1853.888,1971.187Z" transform="translate(-1818.953 -1944.398)" fill="#eee"/>
        <path id="Path_12303" data-name="Path 12303" d="M1837.626,2127.211l-27.887-2.906a.834.834,0,0,1-.741-.913h0a.834.834,0,0,1,.913-.741l27.886,2.906a.834.834,0,0,1,.741.913h0A.834.834,0,0,1,1837.626,2127.211Z" transform="translate(-1803.129 -2096.213)" fill="#eee"/>
        <path id="Path_12304" data-name="Path 12304" d="M1821.364,2283.235l-27.887-2.906a.835.835,0,0,1-.741-.913h0a.834.834,0,0,1,.913-.741l27.886,2.906a.834.834,0,0,1,.741.913h0A.833.833,0,0,1,1821.364,2283.235Z" transform="translate(-1787.305 -2248.027)" fill="#eee"/>
        <path id="Path_12305" data-name="Path 12305" d="M1805.1,2439.259l-27.886-2.906a.834.834,0,0,1-.741-.913h0a.834.834,0,0,1,.913-.741l27.886,2.907a.834.834,0,0,1,.741.913h0A.834.834,0,0,1,1805.1,2439.259Z" transform="translate(-1771.482 -2399.842)" fill="#eee"/>
        <path id="Path_12306" data-name="Path 12306" d="M2280.761,2671.43a.159.159,0,0,0-.261-.126,2.649,2.649,0,0,1-.475.327l-.249.1q-.248.13-.276-.207a.157.157,0,0,0-.209-.233,1.056,1.056,0,0,1-.719.336.872.872,0,0,1-.251-.085,1.052,1.052,0,0,0,.156-.146.159.159,0,0,0,.009-.158,1.969,1.969,0,0,0-.172-.325,5.961,5.961,0,0,0,1.461-2.3.158.158,0,0,0-.253-.167,4.9,4.9,0,0,0-1.424,1.585,1.151,1.151,0,0,0-.177.722.731.731,0,0,0,.021.077,4.966,4.966,0,0,1-.484.4,2.591,2.591,0,0,1-.741.385c-.193.06-.482.154-.615-.034.438-.245.791-.593.6-1.026-.283-.652-.96.331-1,.88a3.553,3.553,0,0,1-.666.227c-.2.047-.13.354.066.306a4.461,4.461,0,0,0,.673-.229c.372.654,1.546-.016,1.942-.313.118-.088.235-.186.35-.288.09.161.1.134-.128.285a.159.159,0,0,0,.021.288,1.607,1.607,0,0,0,.767.226.872.872,0,0,0,.244-.071.152.152,0,0,0,.063.106,1.293,1.293,0,0,0,1.39-.23,2.092,2.092,0,0,1-.716,1.276,2.36,2.36,0,0,1-2.046.232c-.2-.038-.3.259-.1.3a2.776,2.776,0,0,0,2.236-.2A2.341,2.341,0,0,0,2280.761,2671.43Zm-4.541-.57c.242-.188.077.168-.008.255a1.078,1.078,0,0,1-.182.145A.852.852,0,0,1,2276.22,2670.859Zm2.041-.441a2.309,2.309,0,0,1,.42-.713,4.6,4.6,0,0,1,.559-.617,6.024,6.024,0,0,1-1,1.442A.952.952,0,0,1,2278.261,2670.418Z" transform="translate(-2256.487 -2627.254)" fill="#eee"/>
        <path id="Path_12307" data-name="Path 12307" d="M2613.372,2691.61a3,3,0,1,1,3.437-2.495A3.006,3.006,0,0,1,2613.372,2691.61Zm.84-5.29a2.354,2.354,0,1,0,1.956,2.693A2.356,2.356,0,0,0,2614.212,2686.32Z" transform="translate(-2583.34 -2644.018)" fill="#eee"/>
        <path id="Path_12308" data-name="Path 12308" d="M2675.15,2718.536l-.029,0a7.052,7.052,0,0,0-1,.241l-.477.155-.458.182a13.169,13.169,0,0,0-1.736.858,14.233,14.233,0,0,0-1.6,1.044c-.288.21-.566.435-.839.666q-.233-.214-.482-.416c-.223-.195-.474-.369-.719-.546a7.285,7.285,0,0,0-.806-.485l-.027-.013a.061.061,0,0,0-.078.089c.651.953,1.323,1.89,1.995,2.829a.114.114,0,0,0,.157.025c1.038-.736,2.071-1.48,3.091-2.241l1.536-1.134c.515-.375,1.016-.768,1.524-1.151a.061.061,0,0,0,.023-.058A.06.06,0,0,0,2675.15,2718.536Z" transform="translate(-2638.361 -2677.377)" fill="#24c1a1"/>
      </g>
    </g>
  </g>
</svg>
